<?xml version="1.0" encoding="utf-8" standalone="no"?>
<!DOCTYPE svg PUBLIC "-//W3C//DTD SVG 1.1//EN"
  "http://www.w3.org/Graphics/SVG/1.1/DTD/svg11.dtd">
<svg xmlns:xlink="http://www.w3.org/1999/xlink" width="835.70525pt" height="302.55075pt" viewBox="0 0 835.70525 302.55075" xmlns="http://www.w3.org/2000/svg" version="1.1">
 <metadata>
  <rdf:RDF xmlns:dc="http://purl.org/dc/elements/1.1/" xmlns:cc="http://creativecommons.org/ns#" xmlns:rdf="http://www.w3.org/1999/02/22-rdf-syntax-ns#">
   <cc:Work>
    <dc:type rdf:resource="http://purl.org/dc/dcmitype/StillImage"/>
    <dc:date>2023-05-11T10:57:38.605684</dc:date>
    <dc:format>image/svg+xml</dc:format>
    <dc:creator>
     <cc:Agent>
      <dc:title>Matplotlib v3.7.1, https://matplotlib.org/</dc:title>
     </cc:Agent>
    </dc:creator>
   </cc:Work>
  </rdf:RDF>
 </metadata>
 <defs>
  <style type="text/css">*{stroke-linejoin: round; stroke-linecap: butt}</style>
 </defs>
 <g id="figure_1">
  <g id="patch_1">
   <path d="M 0 302.55075 
L 835.70525 302.55075 
L 835.70525 0 
L 0 0 
z
" style="fill: #ffffff"/>
  </g>
  <g id="axes_1">
   <g id="patch_2">
    <path d="M 47.30525 248.937 
L 828.50525 248.937 
L 828.50525 27.177 
L 47.30525 27.177 
z
" style="fill: #ffffff"/>
   </g>
   <g id="matplotlib.axis_1">
    <g id="xtick_1">
     <g id="line2d_1">
      <path d="M 82.814341 248.937 
L 82.814341 27.177 
" clip-path="url(#p1f3b640813)" style="fill: none; stroke: #cccccc; stroke-width: 0.8; stroke-linecap: round"/>
     </g>
     <g id="text_1">
      <!-- 0 -->
      <g style="fill: #262626" transform="translate(77.920716 269.83475) scale(0.176 -0.176)">
       <defs>
        <path id="ArialMT-30" d="M 266 2259 
Q 266 3072 433 3567 
Q 600 4063 929 4331 
Q 1259 4600 1759 4600 
Q 2128 4600 2406 4451 
Q 2684 4303 2865 4023 
Q 3047 3744 3150 3342 
Q 3253 2941 3253 2259 
Q 3253 1453 3087 958 
Q 2922 463 2592 192 
Q 2263 -78 1759 -78 
Q 1097 -78 719 397 
Q 266 969 266 2259 
z
M 844 2259 
Q 844 1131 1108 757 
Q 1372 384 1759 384 
Q 2147 384 2411 759 
Q 2675 1134 2675 2259 
Q 2675 3391 2411 3762 
Q 2147 4134 1753 4134 
Q 1366 4134 1134 3806 
Q 844 3388 844 2259 
z
" transform="scale(0.015625)"/>
       </defs>
       <use xlink:href="#ArialMT-30"/>
      </g>
     </g>
    </g>
    <g id="xtick_2">
     <g id="line2d_2">
      <path d="M 245.03038 248.937 
L 245.03038 27.177 
" clip-path="url(#p1f3b640813)" style="fill: none; stroke: #cccccc; stroke-width: 0.8; stroke-linecap: round"/>
     </g>
     <g id="text_2">
      <!-- 500 -->
      <g style="fill: #262626" transform="translate(230.349505 269.83475) scale(0.176 -0.176)">
       <defs>
        <path id="ArialMT-35" d="M 266 1200 
L 856 1250 
Q 922 819 1161 601 
Q 1400 384 1738 384 
Q 2144 384 2425 690 
Q 2706 997 2706 1503 
Q 2706 1984 2436 2262 
Q 2166 2541 1728 2541 
Q 1456 2541 1237 2417 
Q 1019 2294 894 2097 
L 366 2166 
L 809 4519 
L 3088 4519 
L 3088 3981 
L 1259 3981 
L 1013 2750 
Q 1425 3038 1878 3038 
Q 2478 3038 2890 2622 
Q 3303 2206 3303 1553 
Q 3303 931 2941 478 
Q 2500 -78 1738 -78 
Q 1113 -78 717 272 
Q 322 622 266 1200 
z
" transform="scale(0.015625)"/>
       </defs>
       <use xlink:href="#ArialMT-35"/>
       <use xlink:href="#ArialMT-30" x="55.615234"/>
       <use xlink:href="#ArialMT-30" x="111.230469"/>
      </g>
     </g>
    </g>
    <g id="xtick_3">
     <g id="line2d_3">
      <path d="M 407.246419 248.937 
L 407.246419 27.177 
" clip-path="url(#p1f3b640813)" style="fill: none; stroke: #cccccc; stroke-width: 0.8; stroke-linecap: round"/>
     </g>
     <g id="text_3">
      <!-- 1000 -->
      <g style="fill: #262626" transform="translate(387.671919 269.83475) scale(0.176 -0.176)">
       <defs>
        <path id="ArialMT-31" d="M 2384 0 
L 1822 0 
L 1822 3584 
Q 1619 3391 1289 3197 
Q 959 3003 697 2906 
L 697 3450 
Q 1169 3672 1522 3987 
Q 1875 4303 2022 4600 
L 2384 4600 
L 2384 0 
z
" transform="scale(0.015625)"/>
       </defs>
       <use xlink:href="#ArialMT-31"/>
       <use xlink:href="#ArialMT-30" x="55.615234"/>
       <use xlink:href="#ArialMT-30" x="111.230469"/>
       <use xlink:href="#ArialMT-30" x="166.845703"/>
      </g>
     </g>
    </g>
    <g id="xtick_4">
     <g id="line2d_4">
      <path d="M 569.462458 248.937 
L 569.462458 27.177 
" clip-path="url(#p1f3b640813)" style="fill: none; stroke: #cccccc; stroke-width: 0.8; stroke-linecap: round"/>
     </g>
     <g id="text_4">
      <!-- 1500 -->
      <g style="fill: #262626" transform="translate(549.887958 269.83475) scale(0.176 -0.176)">
       <use xlink:href="#ArialMT-31"/>
       <use xlink:href="#ArialMT-35" x="55.615234"/>
       <use xlink:href="#ArialMT-30" x="111.230469"/>
       <use xlink:href="#ArialMT-30" x="166.845703"/>
      </g>
     </g>
    </g>
    <g id="xtick_5">
     <g id="line2d_5">
      <path d="M 731.678496 248.937 
L 731.678496 27.177 
" clip-path="url(#p1f3b640813)" style="fill: none; stroke: #cccccc; stroke-width: 0.8; stroke-linecap: round"/>
     </g>
     <g id="text_5">
      <!-- 2000 -->
      <g style="fill: #262626" transform="translate(712.103996 269.83475) scale(0.176 -0.176)">
       <defs>
        <path id="ArialMT-32" d="M 3222 541 
L 3222 0 
L 194 0 
Q 188 203 259 391 
Q 375 700 629 1000 
Q 884 1300 1366 1694 
Q 2113 2306 2375 2664 
Q 2638 3022 2638 3341 
Q 2638 3675 2398 3904 
Q 2159 4134 1775 4134 
Q 1369 4134 1125 3890 
Q 881 3647 878 3216 
L 300 3275 
Q 359 3922 746 4261 
Q 1134 4600 1788 4600 
Q 2447 4600 2831 4234 
Q 3216 3869 3216 3328 
Q 3216 3053 3103 2787 
Q 2991 2522 2730 2228 
Q 2469 1934 1863 1422 
Q 1356 997 1212 845 
Q 1069 694 975 541 
L 3222 541 
z
" transform="scale(0.015625)"/>
       </defs>
       <use xlink:href="#ArialMT-32"/>
       <use xlink:href="#ArialMT-30" x="55.615234"/>
       <use xlink:href="#ArialMT-30" x="111.230469"/>
       <use xlink:href="#ArialMT-30" x="166.845703"/>
      </g>
     </g>
    </g>
    <g id="text_6">
     <!-- Time (days) -->
     <g style="fill: #262626" transform="translate(387.59675 291.30975) scale(0.192 -0.192)">
      <defs>
       <path id="ArialMT-54" d="M 1659 0 
L 1659 4041 
L 150 4041 
L 150 4581 
L 3781 4581 
L 3781 4041 
L 2266 4041 
L 2266 0 
L 1659 0 
z
" transform="scale(0.015625)"/>
       <path id="ArialMT-69" d="M 425 3934 
L 425 4581 
L 988 4581 
L 988 3934 
L 425 3934 
z
M 425 0 
L 425 3319 
L 988 3319 
L 988 0 
L 425 0 
z
" transform="scale(0.015625)"/>
       <path id="ArialMT-6d" d="M 422 0 
L 422 3319 
L 925 3319 
L 925 2853 
Q 1081 3097 1340 3245 
Q 1600 3394 1931 3394 
Q 2300 3394 2536 3241 
Q 2772 3088 2869 2813 
Q 3263 3394 3894 3394 
Q 4388 3394 4653 3120 
Q 4919 2847 4919 2278 
L 4919 0 
L 4359 0 
L 4359 2091 
Q 4359 2428 4304 2576 
Q 4250 2725 4106 2815 
Q 3963 2906 3769 2906 
Q 3419 2906 3187 2673 
Q 2956 2441 2956 1928 
L 2956 0 
L 2394 0 
L 2394 2156 
Q 2394 2531 2256 2718 
Q 2119 2906 1806 2906 
Q 1569 2906 1367 2781 
Q 1166 2656 1075 2415 
Q 984 2175 984 1722 
L 984 0 
L 422 0 
z
" transform="scale(0.015625)"/>
       <path id="ArialMT-65" d="M 2694 1069 
L 3275 997 
Q 3138 488 2766 206 
Q 2394 -75 1816 -75 
Q 1088 -75 661 373 
Q 234 822 234 1631 
Q 234 2469 665 2931 
Q 1097 3394 1784 3394 
Q 2450 3394 2872 2941 
Q 3294 2488 3294 1666 
Q 3294 1616 3291 1516 
L 816 1516 
Q 847 969 1125 678 
Q 1403 388 1819 388 
Q 2128 388 2347 550 
Q 2566 713 2694 1069 
z
M 847 1978 
L 2700 1978 
Q 2663 2397 2488 2606 
Q 2219 2931 1791 2931 
Q 1403 2931 1139 2672 
Q 875 2413 847 1978 
z
" transform="scale(0.015625)"/>
       <path id="ArialMT-20" transform="scale(0.015625)"/>
       <path id="ArialMT-28" d="M 1497 -1347 
Q 1031 -759 709 28 
Q 388 816 388 1659 
Q 388 2403 628 3084 
Q 909 3875 1497 4659 
L 1900 4659 
Q 1522 4009 1400 3731 
Q 1209 3300 1100 2831 
Q 966 2247 966 1656 
Q 966 153 1900 -1347 
L 1497 -1347 
z
" transform="scale(0.015625)"/>
       <path id="ArialMT-64" d="M 2575 0 
L 2575 419 
Q 2259 -75 1647 -75 
Q 1250 -75 917 144 
Q 584 363 401 755 
Q 219 1147 219 1656 
Q 219 2153 384 2558 
Q 550 2963 881 3178 
Q 1213 3394 1622 3394 
Q 1922 3394 2156 3267 
Q 2391 3141 2538 2938 
L 2538 4581 
L 3097 4581 
L 3097 0 
L 2575 0 
z
M 797 1656 
Q 797 1019 1065 703 
Q 1334 388 1700 388 
Q 2069 388 2326 689 
Q 2584 991 2584 1609 
Q 2584 2291 2321 2609 
Q 2059 2928 1675 2928 
Q 1300 2928 1048 2622 
Q 797 2316 797 1656 
z
" transform="scale(0.015625)"/>
       <path id="ArialMT-61" d="M 2588 409 
Q 2275 144 1986 34 
Q 1697 -75 1366 -75 
Q 819 -75 525 192 
Q 231 459 231 875 
Q 231 1119 342 1320 
Q 453 1522 633 1644 
Q 813 1766 1038 1828 
Q 1203 1872 1538 1913 
Q 2219 1994 2541 2106 
Q 2544 2222 2544 2253 
Q 2544 2597 2384 2738 
Q 2169 2928 1744 2928 
Q 1347 2928 1158 2789 
Q 969 2650 878 2297 
L 328 2372 
Q 403 2725 575 2942 
Q 747 3159 1072 3276 
Q 1397 3394 1825 3394 
Q 2250 3394 2515 3294 
Q 2781 3194 2906 3042 
Q 3031 2891 3081 2659 
Q 3109 2516 3109 2141 
L 3109 1391 
Q 3109 606 3145 398 
Q 3181 191 3288 0 
L 2700 0 
Q 2613 175 2588 409 
z
M 2541 1666 
Q 2234 1541 1622 1453 
Q 1275 1403 1131 1340 
Q 988 1278 909 1158 
Q 831 1038 831 891 
Q 831 666 1001 516 
Q 1172 366 1500 366 
Q 1825 366 2078 508 
Q 2331 650 2450 897 
Q 2541 1088 2541 1459 
L 2541 1666 
z
" transform="scale(0.015625)"/>
       <path id="ArialMT-79" d="M 397 -1278 
L 334 -750 
Q 519 -800 656 -800 
Q 844 -800 956 -737 
Q 1069 -675 1141 -563 
Q 1194 -478 1313 -144 
Q 1328 -97 1363 -6 
L 103 3319 
L 709 3319 
L 1400 1397 
Q 1534 1031 1641 628 
Q 1738 1016 1872 1384 
L 2581 3319 
L 3144 3319 
L 1881 -56 
Q 1678 -603 1566 -809 
Q 1416 -1088 1222 -1217 
Q 1028 -1347 759 -1347 
Q 597 -1347 397 -1278 
z
" transform="scale(0.015625)"/>
       <path id="ArialMT-73" d="M 197 991 
L 753 1078 
Q 800 744 1014 566 
Q 1228 388 1613 388 
Q 2000 388 2187 545 
Q 2375 703 2375 916 
Q 2375 1106 2209 1216 
Q 2094 1291 1634 1406 
Q 1016 1563 777 1677 
Q 538 1791 414 1992 
Q 291 2194 291 2438 
Q 291 2659 392 2848 
Q 494 3038 669 3163 
Q 800 3259 1026 3326 
Q 1253 3394 1513 3394 
Q 1903 3394 2198 3281 
Q 2494 3169 2634 2976 
Q 2775 2784 2828 2463 
L 2278 2388 
Q 2241 2644 2061 2787 
Q 1881 2931 1553 2931 
Q 1166 2931 1000 2803 
Q 834 2675 834 2503 
Q 834 2394 903 2306 
Q 972 2216 1119 2156 
Q 1203 2125 1616 2013 
Q 2213 1853 2448 1751 
Q 2684 1650 2818 1456 
Q 2953 1263 2953 975 
Q 2953 694 2789 445 
Q 2625 197 2315 61 
Q 2006 -75 1616 -75 
Q 969 -75 630 194 
Q 291 463 197 991 
z
" transform="scale(0.015625)"/>
       <path id="ArialMT-29" d="M 791 -1347 
L 388 -1347 
Q 1322 153 1322 1656 
Q 1322 2244 1188 2822 
Q 1081 3291 891 3722 
Q 769 4003 388 4659 
L 791 4659 
Q 1378 3875 1659 3084 
Q 1900 2403 1900 1659 
Q 1900 816 1576 28 
Q 1253 -759 791 -1347 
z
" transform="scale(0.015625)"/>
      </defs>
      <use xlink:href="#ArialMT-54"/>
      <use xlink:href="#ArialMT-69" x="57.333984"/>
      <use xlink:href="#ArialMT-6d" x="79.550781"/>
      <use xlink:href="#ArialMT-65" x="162.851562"/>
      <use xlink:href="#ArialMT-20" x="218.466797"/>
      <use xlink:href="#ArialMT-28" x="246.25"/>
      <use xlink:href="#ArialMT-64" x="279.550781"/>
      <use xlink:href="#ArialMT-61" x="335.166016"/>
      <use xlink:href="#ArialMT-79" x="390.78125"/>
      <use xlink:href="#ArialMT-73" x="440.78125"/>
      <use xlink:href="#ArialMT-29" x="490.78125"/>
     </g>
    </g>
   </g>
   <g id="matplotlib.axis_2">
    <g id="ytick_1">
     <g id="line2d_6">
      <path d="M 47.30525 235.23359 
L 828.50525 235.23359 
" clip-path="url(#p1f3b640813)" style="fill: none; stroke: #cccccc; stroke-width: 0.8; stroke-linecap: round"/>
     </g>
     <g id="text_7">
      <!-- 1 -->
      <g style="fill: #262626" transform="translate(29.218 241.532465) scale(0.176 -0.176)">
       <use xlink:href="#ArialMT-31"/>
      </g>
     </g>
    </g>
    <g id="ytick_2">
     <g id="line2d_7">
      <path d="M 47.30525 196.607364 
L 828.50525 196.607364 
" clip-path="url(#p1f3b640813)" style="fill: none; stroke: #cccccc; stroke-width: 0.8; stroke-linecap: round"/>
     </g>
     <g id="text_8">
      <!-- 2 -->
      <g style="fill: #262626" transform="translate(29.218 202.906239) scale(0.176 -0.176)">
       <use xlink:href="#ArialMT-32"/>
      </g>
     </g>
    </g>
    <g id="ytick_3">
     <g id="line2d_8">
      <path d="M 47.30525 157.981138 
L 828.50525 157.981138 
" clip-path="url(#p1f3b640813)" style="fill: none; stroke: #cccccc; stroke-width: 0.8; stroke-linecap: round"/>
     </g>
     <g id="text_9">
      <!-- 3 -->
      <g style="fill: #262626" transform="translate(29.218 164.280013) scale(0.176 -0.176)">
       <defs>
        <path id="ArialMT-33" d="M 269 1209 
L 831 1284 
Q 928 806 1161 595 
Q 1394 384 1728 384 
Q 2125 384 2398 659 
Q 2672 934 2672 1341 
Q 2672 1728 2419 1979 
Q 2166 2231 1775 2231 
Q 1616 2231 1378 2169 
L 1441 2663 
Q 1497 2656 1531 2656 
Q 1891 2656 2178 2843 
Q 2466 3031 2466 3422 
Q 2466 3731 2256 3934 
Q 2047 4138 1716 4138 
Q 1388 4138 1169 3931 
Q 950 3725 888 3313 
L 325 3413 
Q 428 3978 793 4289 
Q 1159 4600 1703 4600 
Q 2078 4600 2393 4439 
Q 2709 4278 2876 4000 
Q 3044 3722 3044 3409 
Q 3044 3113 2884 2869 
Q 2725 2625 2413 2481 
Q 2819 2388 3044 2092 
Q 3269 1797 3269 1353 
Q 3269 753 2831 336 
Q 2394 -81 1725 -81 
Q 1122 -81 723 278 
Q 325 638 269 1209 
z
" transform="scale(0.015625)"/>
       </defs>
       <use xlink:href="#ArialMT-33"/>
      </g>
     </g>
    </g>
    <g id="ytick_4">
     <g id="line2d_9">
      <path d="M 47.30525 119.354912 
L 828.50525 119.354912 
" clip-path="url(#p1f3b640813)" style="fill: none; stroke: #cccccc; stroke-width: 0.8; stroke-linecap: round"/>
     </g>
     <g id="text_10">
      <!-- 4 -->
      <g style="fill: #262626" transform="translate(29.218 125.653787) scale(0.176 -0.176)">
       <defs>
        <path id="ArialMT-34" d="M 2069 0 
L 2069 1097 
L 81 1097 
L 81 1613 
L 2172 4581 
L 2631 4581 
L 2631 1613 
L 3250 1613 
L 3250 1097 
L 2631 1097 
L 2631 0 
L 2069 0 
z
M 2069 1613 
L 2069 3678 
L 634 1613 
L 2069 1613 
z
" transform="scale(0.015625)"/>
       </defs>
       <use xlink:href="#ArialMT-34"/>
      </g>
     </g>
    </g>
    <g id="ytick_5">
     <g id="line2d_10">
      <path d="M 47.30525 80.728686 
L 828.50525 80.728686 
" clip-path="url(#p1f3b640813)" style="fill: none; stroke: #cccccc; stroke-width: 0.8; stroke-linecap: round"/>
     </g>
     <g id="text_11">
      <!-- 5 -->
      <g style="fill: #262626" transform="translate(29.218 87.027561) scale(0.176 -0.176)">
       <use xlink:href="#ArialMT-35"/>
      </g>
     </g>
    </g>
    <g id="ytick_6">
     <g id="line2d_11">
      <path d="M 47.30525 42.10246 
L 828.50525 42.10246 
" clip-path="url(#p1f3b640813)" style="fill: none; stroke: #cccccc; stroke-width: 0.8; stroke-linecap: round"/>
     </g>
     <g id="text_12">
      <!-- 6 -->
      <g style="fill: #262626" transform="translate(29.218 48.401335) scale(0.176 -0.176)">
       <defs>
        <path id="ArialMT-36" d="M 3184 3459 
L 2625 3416 
Q 2550 3747 2413 3897 
Q 2184 4138 1850 4138 
Q 1581 4138 1378 3988 
Q 1113 3794 959 3422 
Q 806 3050 800 2363 
Q 1003 2672 1297 2822 
Q 1591 2972 1913 2972 
Q 2475 2972 2870 2558 
Q 3266 2144 3266 1488 
Q 3266 1056 3080 686 
Q 2894 316 2569 119 
Q 2244 -78 1831 -78 
Q 1128 -78 684 439 
Q 241 956 241 2144 
Q 241 3472 731 4075 
Q 1159 4600 1884 4600 
Q 2425 4600 2770 4297 
Q 3116 3994 3184 3459 
z
M 888 1484 
Q 888 1194 1011 928 
Q 1134 663 1356 523 
Q 1578 384 1822 384 
Q 2178 384 2434 671 
Q 2691 959 2691 1453 
Q 2691 1928 2437 2201 
Q 2184 2475 1800 2475 
Q 1419 2475 1153 2201 
Q 888 1928 888 1484 
z
" transform="scale(0.015625)"/>
       </defs>
       <use xlink:href="#ArialMT-36"/>
      </g>
     </g>
    </g>
    <g id="text_13">
     <!-- Consumption (MWh) -->
     <g style="fill: #262626" transform="translate(21.177 226.074) rotate(-90) scale(0.192 -0.192)">
      <defs>
       <path id="ArialMT-43" d="M 3763 1606 
L 4369 1453 
Q 4178 706 3683 314 
Q 3188 -78 2472 -78 
Q 1731 -78 1267 223 
Q 803 525 561 1097 
Q 319 1669 319 2325 
Q 319 3041 592 3573 
Q 866 4106 1370 4382 
Q 1875 4659 2481 4659 
Q 3169 4659 3637 4309 
Q 4106 3959 4291 3325 
L 3694 3184 
Q 3534 3684 3231 3912 
Q 2928 4141 2469 4141 
Q 1941 4141 1586 3887 
Q 1231 3634 1087 3207 
Q 944 2781 944 2328 
Q 944 1744 1114 1308 
Q 1284 872 1643 656 
Q 2003 441 2422 441 
Q 2931 441 3284 734 
Q 3638 1028 3763 1606 
z
" transform="scale(0.015625)"/>
       <path id="ArialMT-6f" d="M 213 1659 
Q 213 2581 725 3025 
Q 1153 3394 1769 3394 
Q 2453 3394 2887 2945 
Q 3322 2497 3322 1706 
Q 3322 1066 3130 698 
Q 2938 331 2570 128 
Q 2203 -75 1769 -75 
Q 1072 -75 642 372 
Q 213 819 213 1659 
z
M 791 1659 
Q 791 1022 1069 705 
Q 1347 388 1769 388 
Q 2188 388 2466 706 
Q 2744 1025 2744 1678 
Q 2744 2294 2464 2611 
Q 2184 2928 1769 2928 
Q 1347 2928 1069 2612 
Q 791 2297 791 1659 
z
" transform="scale(0.015625)"/>
       <path id="ArialMT-6e" d="M 422 0 
L 422 3319 
L 928 3319 
L 928 2847 
Q 1294 3394 1984 3394 
Q 2284 3394 2536 3286 
Q 2788 3178 2913 3003 
Q 3038 2828 3088 2588 
Q 3119 2431 3119 2041 
L 3119 0 
L 2556 0 
L 2556 2019 
Q 2556 2363 2490 2533 
Q 2425 2703 2258 2804 
Q 2091 2906 1866 2906 
Q 1506 2906 1245 2678 
Q 984 2450 984 1813 
L 984 0 
L 422 0 
z
" transform="scale(0.015625)"/>
       <path id="ArialMT-75" d="M 2597 0 
L 2597 488 
Q 2209 -75 1544 -75 
Q 1250 -75 995 37 
Q 741 150 617 320 
Q 494 491 444 738 
Q 409 903 409 1263 
L 409 3319 
L 972 3319 
L 972 1478 
Q 972 1038 1006 884 
Q 1059 663 1231 536 
Q 1403 409 1656 409 
Q 1909 409 2131 539 
Q 2353 669 2445 892 
Q 2538 1116 2538 1541 
L 2538 3319 
L 3100 3319 
L 3100 0 
L 2597 0 
z
" transform="scale(0.015625)"/>
       <path id="ArialMT-70" d="M 422 -1272 
L 422 3319 
L 934 3319 
L 934 2888 
Q 1116 3141 1344 3267 
Q 1572 3394 1897 3394 
Q 2322 3394 2647 3175 
Q 2972 2956 3137 2557 
Q 3303 2159 3303 1684 
Q 3303 1175 3120 767 
Q 2938 359 2589 142 
Q 2241 -75 1856 -75 
Q 1575 -75 1351 44 
Q 1128 163 984 344 
L 984 -1272 
L 422 -1272 
z
M 931 1641 
Q 931 1000 1190 694 
Q 1450 388 1819 388 
Q 2194 388 2461 705 
Q 2728 1022 2728 1688 
Q 2728 2322 2467 2637 
Q 2206 2953 1844 2953 
Q 1484 2953 1207 2617 
Q 931 2281 931 1641 
z
" transform="scale(0.015625)"/>
       <path id="ArialMT-74" d="M 1650 503 
L 1731 6 
Q 1494 -44 1306 -44 
Q 1000 -44 831 53 
Q 663 150 594 308 
Q 525 466 525 972 
L 525 2881 
L 113 2881 
L 113 3319 
L 525 3319 
L 525 4141 
L 1084 4478 
L 1084 3319 
L 1650 3319 
L 1650 2881 
L 1084 2881 
L 1084 941 
Q 1084 700 1114 631 
Q 1144 563 1211 522 
Q 1278 481 1403 481 
Q 1497 481 1650 503 
z
" transform="scale(0.015625)"/>
       <path id="ArialMT-4d" d="M 475 0 
L 475 4581 
L 1388 4581 
L 2472 1338 
Q 2622 884 2691 659 
Q 2769 909 2934 1394 
L 4031 4581 
L 4847 4581 
L 4847 0 
L 4263 0 
L 4263 3834 
L 2931 0 
L 2384 0 
L 1059 3900 
L 1059 0 
L 475 0 
z
" transform="scale(0.015625)"/>
       <path id="ArialMT-57" d="M 1294 0 
L 78 4581 
L 700 4581 
L 1397 1578 
Q 1509 1106 1591 641 
Q 1766 1375 1797 1488 
L 2669 4581 
L 3400 4581 
L 4056 2263 
Q 4303 1400 4413 641 
Q 4500 1075 4641 1638 
L 5359 4581 
L 5969 4581 
L 4713 0 
L 4128 0 
L 3163 3491 
Q 3041 3928 3019 4028 
Q 2947 3713 2884 3491 
L 1913 0 
L 1294 0 
z
" transform="scale(0.015625)"/>
       <path id="ArialMT-68" d="M 422 0 
L 422 4581 
L 984 4581 
L 984 2938 
Q 1378 3394 1978 3394 
Q 2347 3394 2619 3248 
Q 2891 3103 3008 2847 
Q 3125 2591 3125 2103 
L 3125 0 
L 2563 0 
L 2563 2103 
Q 2563 2525 2380 2717 
Q 2197 2909 1863 2909 
Q 1613 2909 1392 2779 
Q 1172 2650 1078 2428 
Q 984 2206 984 1816 
L 984 0 
L 422 0 
z
" transform="scale(0.015625)"/>
      </defs>
      <use xlink:href="#ArialMT-43"/>
      <use xlink:href="#ArialMT-6f" x="72.216797"/>
      <use xlink:href="#ArialMT-6e" x="127.832031"/>
      <use xlink:href="#ArialMT-73" x="183.447266"/>
      <use xlink:href="#ArialMT-75" x="233.447266"/>
      <use xlink:href="#ArialMT-6d" x="289.0625"/>
      <use xlink:href="#ArialMT-70" x="372.363281"/>
      <use xlink:href="#ArialMT-74" x="427.978516"/>
      <use xlink:href="#ArialMT-69" x="455.761719"/>
      <use xlink:href="#ArialMT-6f" x="477.978516"/>
      <use xlink:href="#ArialMT-6e" x="533.59375"/>
      <use xlink:href="#ArialMT-20" x="589.208984"/>
      <use xlink:href="#ArialMT-28" x="616.992188"/>
      <use xlink:href="#ArialMT-4d" x="650.292969"/>
      <use xlink:href="#ArialMT-57" x="733.59375"/>
      <use xlink:href="#ArialMT-68" x="827.978516"/>
      <use xlink:href="#ArialMT-29" x="883.59375"/>
     </g>
    </g>
    <g id="text_14">
     <!-- 1e6 -->
     <g style="fill: #262626" transform="translate(47.30525 24.177) scale(0.176 -0.176)">
      <use xlink:href="#ArialMT-31"/>
      <use xlink:href="#ArialMT-65" x="55.615234"/>
      <use xlink:href="#ArialMT-36" x="111.230469"/>
     </g>
    </g>
   </g>
   <g id="line2d_12">
    <path d="M 82.814341 209.777583 
L 83.138773 206.614934 
L 83.463205 199.82255 
L 84.112069 176.839488 
L 84.436501 170.413752 
L 84.760933 171.657362 
L 85.085365 178.834705 
L 85.409798 173.757217 
L 85.73423 157.2891 
L 86.058662 155.086187 
L 86.383094 154.605958 
L 86.707526 158.75599 
L 87.031958 166.19921 
L 87.35639 180.741853 
L 87.680822 184.062799 
L 88.005254 172.689223 
L 88.329686 172.932439 
L 88.97855 157.516674 
L 89.302982 153.884615 
L 89.627415 162.255581 
L 89.951847 161.070497 
L 90.276279 155.831589 
L 90.600711 156.056636 
L 90.925143 156.450131 
L 91.574007 169.7493 
L 91.898439 175.91608 
L 92.222871 176.269986 
L 92.547303 167.685954 
L 92.871735 169.065298 
L 93.520599 143.67594 
L 93.845032 144.310444 
L 94.169464 156.886144 
L 94.493896 150.56875 
L 94.818328 125.061632 
L 95.14276 114.339265 
L 95.467192 111.611593 
L 95.791624 111.297547 
L 96.116056 112.218464 
L 96.440488 120.226621 
L 96.76492 116.285499 
L 97.089352 102.915758 
L 97.413784 116.381722 
L 97.738216 138.742445 
L 98.062649 152.19746 
L 98.387081 156.501277 
L 98.711513 158.607654 
L 99.035945 161.590649 
L 99.360377 156.783903 
L 99.684809 158.210076 
L 100.009241 155.761257 
L 100.333673 148.832972 
L 100.658105 138.474659 
L 100.982537 142.47832 
L 101.306969 139.574046 
L 101.631401 104.462336 
L 101.955833 94.041209 
L 102.280266 99.356771 
L 102.604698 113.047789 
L 102.92913 114.387057 
L 103.253562 117.310165 
L 103.577994 108.754739 
L 103.902426 85.272993 
L 104.226858 84.352355 
L 104.55129 94.385721 
L 105.524586 146.151599 
L 105.849018 150.932304 
L 106.173451 132.291204 
L 106.497883 124.129022 
L 106.822315 126.005978 
L 107.146747 122.737993 
L 107.471179 112.197959 
L 108.120043 127.95194 
L 108.444475 113.751932 
L 108.768907 104.532545 
L 109.093339 106.340876 
L 109.417771 113.319592 
L 109.742203 127.800387 
L 110.066635 152.544357 
L 110.391068 165.504723 
L 110.7155 166.57369 
L 111.364364 138.973152 
L 111.688796 124.874996 
L 112.013228 116.874899 
L 112.33766 120.871436 
L 112.662092 120.292315 
L 112.986524 103.177482 
L 113.310956 107.209186 
L 113.635388 107.278379 
L 113.95982 85.856053 
L 114.284252 74.549478 
L 114.933117 92.981798 
L 115.257549 82.446357 
L 115.581981 88.916342 
L 115.906413 103.34119 
L 116.230845 109.649448 
L 116.555277 107.391894 
L 116.879709 115.627897 
L 117.204141 104.211346 
L 117.528573 74.272808 
L 117.853005 68.594049 
L 118.177437 65.725623 
L 118.501869 65.89402 
L 118.826302 74.503531 
L 119.150734 88.605782 
L 119.475166 84.795679 
L 119.799598 67.329788 
L 120.12403 67.424986 
L 120.448462 67.236096 
L 121.097326 81.940623 
L 121.421758 101.610072 
L 121.74619 110.20021 
L 122.070622 103.846643 
L 122.395054 102.018666 
L 122.719486 104.787402 
L 123.043919 118.533613 
L 123.368351 126.492613 
L 123.692783 138.687066 
L 124.017215 135.5359 
L 124.341647 111.507918 
L 125.314943 83.376318 
L 125.639375 87.428051 
L 125.963807 107.520477 
L 126.288239 107.807673 
L 126.612671 97.189287 
L 126.937103 99.448874 
L 127.261536 109.130092 
L 127.585968 124.60728 
L 127.9104 128.383509 
L 128.234832 139.646121 
L 128.559264 141.619398 
L 128.883696 140.744445 
L 129.53256 156.151631 
L 129.856992 156.586821 
L 130.181424 139.643733 
L 130.830288 152.612831 
L 131.15472 153.143465 
L 131.479153 145.936935 
L 132.128017 141.202836 
L 132.452449 143.26249 
L 132.776881 165.773236 
L 133.101313 163.35939 
L 133.425745 141.184776 
L 133.750177 129.878082 
L 134.074609 135.110024 
L 134.399041 145.51796 
L 134.723473 143.845993 
L 135.047905 155.13335 
L 135.372338 155.436595 
L 135.69677 140.98863 
L 136.021202 150.305269 
L 136.994498 161.882659 
L 137.31893 170.485681 
L 137.643362 174.818608 
L 138.292226 160.925479 
L 138.616658 153.631821 
L 138.94109 155.336369 
L 139.265522 157.94089 
L 139.589955 173.604434 
L 139.914387 170.537837 
L 140.238819 162.278861 
L 140.563251 173.436699 
L 141.536547 196.284078 
L 141.860979 203.777952 
L 142.185411 200.356508 
L 142.509843 181.37053 
L 143.483139 165.087256 
L 143.807572 168.323248 
L 144.132004 183.603466 
L 144.456436 193.361641 
L 145.1053 173.608223 
L 145.429732 176.664974 
L 145.754164 174.693384 
L 146.078596 182.529472 
L 146.403028 184.231175 
L 146.72746 177.731941 
L 147.051892 166.423349 
L 147.376324 142.101768 
L 147.700756 131.57154 
L 148.025189 134.371086 
L 148.674053 166.392826 
L 148.998485 164.469793 
L 149.322917 160.97732 
L 149.971781 145.580188 
L 150.296213 145.422775 
L 150.620645 151.810042 
L 151.269509 182.920266 
L 151.593941 183.669113 
L 151.918373 171.438316 
L 152.242806 174.465081 
L 152.567238 171.210729 
L 152.89167 173.439889 
L 153.216102 191.57324 
L 153.540534 193.666872 
L 153.864966 176.217869 
L 154.189398 169.298477 
L 154.51383 169.378182 
L 155.487126 209.905512 
L 155.811558 212.424034 
L 156.13599 202.507835 
L 156.460423 205.072226 
L 156.784855 210.53836 
L 157.109287 211.458496 
L 157.433719 209.303029 
L 157.758151 214.624905 
L 158.082583 213.695643 
L 158.407015 205.056777 
L 158.731447 209.21778 
L 159.055879 207.907566 
L 159.380311 217.109842 
L 159.704743 215.983044 
L 160.029175 224.083893 
L 160.353607 225.623272 
L 160.67804 214.432812 
L 161.002472 214.269112 
L 161.326904 213.451036 
L 161.651336 211.701962 
L 161.975768 215.216345 
L 162.3002 225.678326 
L 162.624632 226.502064 
L 162.949064 223.235398 
L 163.273496 211.103106 
L 163.597928 208.018053 
L 163.92236 208.384808 
L 164.246792 210.144088 
L 164.571225 220.703541 
L 164.895657 225.101611 
L 165.220089 215.173675 
L 165.544521 211.666814 
L 165.868953 212.59134 
L 166.193385 219.73503 
L 166.517817 217.845822 
L 166.842249 221.81429 
L 167.166681 222.782936 
L 167.491113 214.013203 
L 167.815545 214.896555 
L 168.139977 213.789889 
L 168.788842 219.078571 
L 169.113274 226.674761 
L 169.437706 225.786452 
L 169.762138 210.893522 
L 170.08657 210.165727 
L 170.411002 211.260172 
L 170.735434 210.252292 
L 171.059866 214.498286 
L 171.384298 220.563828 
L 171.70873 219.928791 
L 172.033162 209.495398 
L 172.357594 209.32976 
L 172.682026 208.711882 
L 173.006459 209.626087 
L 173.330891 213.05063 
L 173.655323 224.050028 
L 173.979755 223.717163 
L 174.304187 210.808415 
L 174.628619 209.593312 
L 174.953051 209.760303 
L 175.277483 206.142582 
L 175.601915 207.838067 
L 175.926347 217.164063 
L 176.250779 220.291683 
L 176.575211 209.910925 
L 177.224076 214.345973 
L 177.548508 213.406258 
L 177.87294 216.835866 
L 178.197372 227.088377 
L 178.521804 225.965939 
L 178.846236 211.366861 
L 179.170668 209.942874 
L 179.4951 210.035867 
L 179.819532 211.736584 
L 180.143964 216.443641 
L 180.468396 225.966063 
L 180.792828 228.316822 
L 181.11726 217.921238 
L 181.441693 217.822712 
L 181.766125 217.15872 
L 182.414989 221.545749 
L 182.739421 226.260398 
L 183.063853 224.422134 
L 183.388285 216.359525 
L 183.712717 216.255814 
L 184.037149 217.451244 
L 184.361581 212.117221 
L 184.686013 211.580353 
L 185.010445 219.92509 
L 185.334877 221.050576 
L 185.65931 216.767845 
L 185.983742 219.79568 
L 186.308174 216.894426 
L 186.632606 217.708304 
L 186.957038 219.441626 
L 187.28147 224.332246 
L 187.605902 222.13419 
L 187.930334 211.646102 
L 188.254766 210.641943 
L 188.579198 212.507158 
L 188.90363 213.152676 
L 189.228062 216.243974 
L 189.552494 225.685265 
L 189.876927 225.4371 
L 190.201359 214.00625 
L 190.525791 214.867 
L 190.850223 215.221167 
L 191.174655 210.837853 
L 191.499087 209.090478 
L 191.823519 214.805936 
L 192.147951 212.324528 
L 192.472383 202.294991 
L 193.121247 209.619871 
L 193.445679 206.841644 
L 193.770111 209.222397 
L 194.094544 214.20793 
L 194.418976 212.879682 
L 194.743408 203.114416 
L 195.06784 200.794807 
L 195.392272 202.691401 
L 195.716704 196.212625 
L 196.041136 192.716189 
L 196.365568 197.934042 
L 196.69 195.467676 
L 197.014432 179.655205 
L 197.338864 178.350134 
L 197.987729 184.725947 
L 198.312161 189.389053 
L 198.636593 200.904429 
L 198.961025 201.316568 
L 199.285457 188.618857 
L 199.609889 188.684034 
L 199.934321 190.525231 
L 200.258753 193.143036 
L 200.907617 208.430095 
L 201.232049 206.613212 
L 201.556481 202.278017 
L 201.880913 199.501223 
L 202.205346 187.734341 
L 202.529778 185.448814 
L 202.85421 180.613982 
L 203.178642 188.771293 
L 203.503074 187.469329 
L 203.827506 171.57141 
L 204.47637 187.029234 
L 205.125234 190.908617 
L 205.449666 203.336271 
L 205.774098 204.762118 
L 206.09853 197.001595 
L 206.422963 193.941812 
L 206.747395 188.965914 
L 207.071827 189.244983 
L 207.396259 191.576056 
L 207.720691 199.330761 
L 208.045123 192.599216 
L 208.369555 173.721191 
L 208.693987 177.724877 
L 209.018419 184.691029 
L 209.342851 182.966202 
L 209.667283 182.40795 
L 209.991715 183.757157 
L 210.316147 182.171324 
L 210.64058 162.13371 
L 210.965012 162.246364 
L 211.289444 164.740682 
L 211.613876 163.288006 
L 211.938308 160.086369 
L 212.26274 177.714907 
L 212.587172 169.200637 
L 212.911604 141.165824 
L 213.236036 135.842169 
L 213.560468 132.618292 
L 213.8849 137.919187 
L 214.533764 153.892643 
L 214.858197 145.623645 
L 215.182629 125.690487 
L 215.507061 125.339838 
L 215.831493 125.449136 
L 216.155925 128.547651 
L 216.480357 133.597869 
L 216.804789 145.932907 
L 217.129221 144.873754 
L 217.453653 126.33501 
L 217.778085 135.463676 
L 218.426949 158.302323 
L 218.751381 157.062661 
L 219.075814 154.349011 
L 219.400246 145.225602 
L 219.724678 127.899571 
L 220.04911 123.01807 
L 220.373542 107.880184 
L 220.697974 101.808433 
L 221.022406 98.805496 
L 221.346838 108.618007 
L 221.67127 112.595851 
L 221.995702 109.597014 
L 222.320134 117.832611 
L 222.968998 126.878605 
L 223.293431 121.643066 
L 223.617863 121.758029 
L 223.942295 118.358551 
L 224.266727 107.470066 
L 224.591159 106.580644 
L 224.915591 111.377533 
L 225.240023 113.847558 
L 225.564455 109.564469 
L 225.888887 120.698114 
L 226.213319 118.592263 
L 226.537751 99.47401 
L 226.862183 100.230918 
L 227.186616 109.632038 
L 228.159912 159.353432 
L 228.484344 168.031659 
L 229.133208 157.385526 
L 229.45764 140.881931 
L 229.782072 131.43462 
L 230.106504 127.471231 
L 230.755368 167.266358 
L 231.0798 162.889254 
L 231.404233 145.646032 
L 231.728665 146.010734 
L 232.053097 144.844292 
L 232.701961 149.776908 
L 233.026393 137.369757 
L 233.350825 117.483824 
L 233.999689 120.47324 
L 234.324121 115.488089 
L 234.648553 118.845041 
L 234.972985 127.525563 
L 235.297417 117.836526 
L 235.62185 111.478134 
L 235.946282 117.060138 
L 236.270714 111.63207 
L 236.595146 118.233542 
L 236.919578 111.614981 
L 237.24401 120.270475 
L 237.568442 117.531476 
L 237.892874 110.685787 
L 238.217306 124.308023 
L 238.541738 145.761375 
L 238.86617 146.399144 
L 239.190602 142.685103 
L 239.839467 156.802231 
L 240.163899 149.48471 
L 240.488331 135.817596 
L 240.812763 140.3436 
L 241.137195 127.095407 
L 241.461627 121.139581 
L 241.786059 121.196489 
L 242.110491 112.31965 
L 242.434923 87.846378 
L 242.759355 79.783809 
L 243.083787 77.705015 
L 243.408219 77.005083 
L 243.732651 87.08178 
L 244.057084 106.611816 
L 244.381516 113.816798 
L 244.705948 101.555016 
L 245.03038 96.402009 
L 245.354812 94.306921 
L 245.679244 99.417282 
L 246.328108 114.970386 
L 246.65254 114.326512 
L 246.976972 94.834157 
L 247.301404 92.093955 
L 248.274701 88.633414 
L 248.599133 97.938526 
L 248.923565 86.907205 
L 249.247997 65.472504 
L 249.572429 59.139904 
L 249.896861 55.909783 
L 250.221293 59.139032 
L 250.545725 65.26032 
L 251.194589 107.583734 
L 251.843453 114.243314 
L 252.81675 135.768373 
L 253.141182 159.625473 
L 253.465614 171.745398 
L 255.412206 119.975566 
L 256.06107 84.898467 
L 256.385503 88.244492 
L 257.034367 104.2055 
L 257.358799 118.019532 
L 257.683231 144.398971 
L 258.007663 146.156244 
L 258.332095 131.065814 
L 258.980959 138.958891 
L 259.305391 140.744903 
L 259.629823 156.602868 
L 259.954255 155.639433 
L 260.278687 153.486922 
L 260.60312 158.89315 
L 261.251984 176.511782 
L 261.576416 168.187706 
L 261.900848 166.988719 
L 262.22528 186.440908 
L 262.549712 194.492107 
L 262.874144 192.422262 
L 263.198576 193.96802 
L 263.523008 191.345586 
L 263.84744 195.477354 
L 264.171872 192.166145 
L 264.496304 202.37331 
L 264.820737 202.588397 
L 265.145169 192.659159 
L 265.469601 195.212328 
L 266.767329 219.203445 
L 267.091761 220.283749 
L 267.416193 208.302008 
L 267.740625 203.146283 
L 268.065057 199.857057 
L 268.389489 188.451779 
L 268.713921 191.215918 
L 269.362786 210.896608 
L 270.01165 200.22435 
L 270.336082 189.863388 
L 270.660514 188.392915 
L 270.984946 192.402211 
L 271.309378 206.629942 
L 271.63381 212.760412 
L 271.958242 208.890449 
L 272.282674 212.030848 
L 272.607106 213.949373 
L 272.931538 218.467538 
L 273.255971 212.399985 
L 273.580403 220.15036 
L 273.904835 220.647777 
L 274.229267 212.823474 
L 274.878131 206.63551 
L 275.526995 202.543759 
L 276.175859 217.680703 
L 276.500291 219.996293 
L 276.824723 212.710086 
L 277.149155 213.258369 
L 277.473588 213.518577 
L 277.79802 216.041667 
L 278.122452 224.687616 
L 278.446884 225.651275 
L 278.771316 219.21396 
L 279.42018 218.264489 
L 279.744612 224.310016 
L 280.069044 220.992245 
L 280.393476 225.129106 
L 280.717908 224.824991 
L 281.04234 216.545733 
L 281.366772 213.680262 
L 281.691205 215.900737 
L 282.015637 215.28003 
L 282.340069 217.095819 
L 282.664501 226.267423 
L 282.988933 226.845137 
L 283.313365 216.122498 
L 283.962229 208.576527 
L 284.286661 209.661206 
L 284.611093 212.120902 
L 284.935525 221.794782 
L 285.259957 221.753093 
L 285.584389 213.086914 
L 285.908822 213.260554 
L 286.233254 215.428956 
L 286.882118 208.082192 
L 287.20655 213.672881 
L 287.530982 211.905554 
L 287.855414 205.386044 
L 288.179846 207.660834 
L 288.504278 211.96721 
L 288.82871 213.201539 
L 289.153142 217.405749 
L 289.477574 224.406141 
L 289.802007 222.972306 
L 290.126439 215.601951 
L 290.450871 214.97207 
L 290.775303 214.823466 
L 291.099735 215.824922 
L 291.424167 217.642085 
L 291.748599 225.193869 
L 292.073031 223.900806 
L 292.397463 214.371832 
L 292.721895 210.702395 
L 293.046327 209.66936 
L 293.370759 211.603028 
L 293.695191 214.964058 
L 294.019624 223.614933 
L 294.344056 224.216873 
L 294.668488 216.148139 
L 294.99292 216.726264 
L 295.317352 217.055939 
L 295.641784 216.049964 
L 295.966216 217.920875 
L 296.290648 224.193641 
L 296.61508 225.519042 
L 296.939512 216.469444 
L 297.263944 216.416264 
L 297.588376 217.46074 
L 297.912808 218.936239 
L 298.237241 222.343454 
L 298.561673 229.248091 
L 298.886105 228.738737 
L 299.210537 219.452065 
L 299.534969 219.376065 
L 299.859401 217.664448 
L 300.183833 217.90394 
L 300.508265 220.354026 
L 300.832697 227.923031 
L 301.157129 227.392603 
L 301.481561 218.125726 
L 301.805993 219.401469 
L 302.130425 218.727585 
L 302.77929 220.16625 
L 303.103722 225.507717 
L 303.428154 224.730682 
L 303.752586 216.469804 
L 304.077018 215.908112 
L 304.40145 216.696171 
L 304.725882 216.752619 
L 305.050314 217.226858 
L 305.374746 224.700683 
L 305.699178 224.59474 
L 306.02361 214.168472 
L 306.348042 212.203063 
L 306.996907 214.004454 
L 307.321339 215.953404 
L 307.645771 219.448344 
L 307.970203 217.656474 
L 308.294635 210.33022 
L 308.619067 206.366524 
L 308.943499 209.35 
L 309.267931 208.11586 
L 309.592363 206.121716 
L 309.916795 216.688696 
L 310.241227 218.181903 
L 310.565659 208.778495 
L 311.214524 210.58396 
L 311.538956 210.561659 
L 311.863388 212.200146 
L 312.18782 219.402691 
L 312.512252 220.217076 
L 312.836684 212.724799 
L 313.161116 213.798438 
L 313.485548 212.059166 
L 313.80998 206.340303 
L 314.134412 208.67241 
L 314.458844 216.579338 
L 314.783276 217.344598 
L 315.107709 209.730324 
L 315.432141 214.668867 
L 315.756573 215.00659 
L 316.081005 216.254267 
L 316.405437 216.480237 
L 316.729869 217.464336 
L 317.054301 210.934745 
L 317.378733 190.714628 
L 317.703165 181.541189 
L 318.027597 183.389264 
L 318.352029 191.501412 
L 318.676461 189.777355 
L 319.000894 192.430427 
L 319.325326 191.665093 
L 319.649758 176.131284 
L 319.97419 175.010131 
L 320.298622 186.626059 
L 320.623054 179.0277 
L 320.947486 188.970207 
L 321.271918 204.230948 
L 321.59635 199.967622 
L 321.920782 184.709659 
L 322.245214 183.27572 
L 322.894078 197.495087 
L 323.218511 203.264495 
L 323.542943 214.754059 
L 323.867375 214.005899 
L 324.191807 198.47241 
L 324.516239 194.25933 
L 324.840671 192.533669 
L 325.165103 188.85973 
L 325.489535 182.978446 
L 325.813967 188.795326 
L 326.138399 185.775387 
L 326.462831 169.476559 
L 326.787263 169.732606 
L 327.436128 174.427244 
L 327.76056 172.994187 
L 328.409424 157.963023 
L 328.733856 142.965756 
L 329.058288 149.40256 
L 329.38272 152.77995 
L 329.707152 161.877802 
L 330.031584 157.939616 
L 330.680448 167.457467 
L 331.00488 158.801577 
L 331.329312 163.595584 
L 331.653745 165.090409 
L 331.978177 162.429345 
L 332.302609 165.342601 
L 332.627041 181.775581 
L 332.951473 184.289345 
L 333.275905 174.856259 
L 333.600337 169.60017 
L 334.249201 142.654956 
L 334.573633 140.853495 
L 334.898065 140.995729 
L 335.222497 132.758982 
L 335.546929 117.94359 
L 336.195794 103.607459 
L 336.520226 101.445377 
L 336.844658 106.35843 
L 337.16909 125.850488 
L 337.493522 130.6144 
L 337.817954 110.535708 
L 338.142386 104.91546 
L 338.466818 109.260397 
L 338.79125 120.451453 
L 339.115682 127.123258 
L 339.440114 147.06236 
L 339.764546 160.036683 
L 340.088979 159.212458 
L 340.413411 142.177781 
L 340.737843 131.212838 
L 341.386707 154.921802 
L 341.711139 161.88417 
L 342.035571 159.391155 
L 342.360003 132.30731 
L 343.008867 103.242867 
L 343.333299 95.443635 
L 343.657731 91.006554 
L 343.982163 101.146501 
L 344.306596 102.955966 
L 344.631028 99.628238 
L 344.95546 105.53768 
L 345.279892 113.564426 
L 346.253188 160.83959 
L 346.57762 162.182544 
L 347.226484 143.564994 
L 347.875348 124.704285 
L 348.199781 124.633614 
L 348.848645 144.350214 
L 349.173077 151.236864 
L 349.497509 151.49227 
L 349.821941 125.106874 
L 350.146373 108.745731 
L 350.470805 113.699441 
L 350.795237 130.924272 
L 351.119669 131.732034 
L 351.444101 122.863412 
L 351.768533 124.315792 
L 352.417398 94.028639 
L 352.74183 103.288816 
L 353.066262 127.611635 
L 353.390694 138.796807 
L 353.715126 115.760267 
L 354.039558 118.142725 
L 354.36399 119.447975 
L 354.688422 115.613939 
L 355.012854 98.831803 
L 355.337286 101.974756 
L 355.661718 91.608985 
L 355.98615 67.985116 
L 356.310582 67.798301 
L 356.959447 58.77698 
L 357.283879 68.996579 
L 357.608311 108.129562 
L 357.932743 119.876184 
L 358.257175 103.666799 
L 358.906039 87.990256 
L 359.230471 87.221628 
L 359.554903 92.36179 
L 359.879335 108.889319 
L 360.203767 107.418364 
L 360.528199 96.129042 
L 360.852632 93.775112 
L 361.177064 101.348512 
L 361.501496 112.075559 
L 362.15036 147.66558 
L 362.474792 148.507697 
L 362.799224 124.763648 
L 363.123656 115.528797 
L 363.448088 116.747967 
L 363.77252 118.552448 
L 364.096952 129.154944 
L 364.421384 146.329376 
L 364.745816 150.361145 
L 365.070249 140.296716 
L 365.394681 140.6612 
L 365.719113 139.760594 
L 366.043545 144.155632 
L 366.367977 143.467756 
L 366.692409 143.482238 
L 367.016841 140.588574 
L 367.341273 134.819679 
L 368.314569 154.564442 
L 368.639001 150.081049 
L 369.287866 169.909379 
L 369.93673 147.894606 
L 370.261162 156.550114 
L 370.585594 158.562021 
L 370.910026 155.039636 
L 371.234458 166.520652 
L 371.55889 158.47989 
L 371.883322 131.946529 
L 372.207754 135.664962 
L 372.532186 134.863232 
L 372.856618 135.91067 
L 373.505483 163.809829 
L 373.829915 162.994324 
L 374.154347 139.44104 
L 374.478779 131.349082 
L 374.803211 137.371928 
L 375.452075 161.987851 
L 375.776507 175.99898 
L 376.100939 171.111191 
L 376.425371 148.909806 
L 376.749803 141.836576 
L 377.074235 143.141487 
L 377.398668 150.631635 
L 377.7231 163.515942 
L 378.047532 185.288365 
L 378.371964 176.89005 
L 378.696396 164.364779 
L 379.020828 170.005691 
L 379.669692 154.819014 
L 379.994124 157.58618 
L 380.318556 183.163454 
L 380.642988 187.802467 
L 381.616285 161.446707 
L 382.265149 137.546014 
L 382.589581 142.349022 
L 382.914013 143.48491 
L 383.238445 148.661383 
L 383.887309 172.262408 
L 384.536173 205.307502 
L 385.185037 213.775658 
L 385.509469 213.80715 
L 385.833902 203.829129 
L 386.158334 205.316961 
L 386.482766 203.386164 
L 386.807198 196.924554 
L 387.13163 197.531367 
L 387.780494 171.88681 
L 388.104926 179.229859 
L 388.429358 193.619481 
L 389.078222 174.893634 
L 389.727086 167.211368 
L 390.051519 152.823685 
L 390.375951 156.475706 
L 391.024815 176.607536 
L 391.349247 180.655711 
L 391.673679 188.498192 
L 391.998111 184.806687 
L 392.322543 171.808502 
L 392.646975 169.492595 
L 392.971407 170.780813 
L 393.295839 171.268871 
L 394.269136 208.937308 
L 394.593568 199.130411 
L 394.918 197.295968 
L 395.242432 193.680577 
L 395.566864 194.803132 
L 396.54016 212.544933 
L 396.864592 201.383028 
L 397.189024 194.603256 
L 397.513456 192.873929 
L 397.837888 209.191211 
L 398.16232 209.897838 
L 398.486753 220.02178 
L 398.811185 224.433077 
L 399.135617 212.734442 
L 399.784481 215.692936 
L 400.108913 209.182344 
L 400.433345 213.975794 
L 400.757777 221.682958 
L 401.082209 222.954966 
L 401.406641 220.041728 
L 401.731073 207.684717 
L 402.055505 206.626158 
L 402.379937 207.22184 
L 402.70437 210.905205 
L 403.028802 221.421481 
L 403.353234 219.50066 
L 403.677666 210.765216 
L 404.650962 215.787624 
L 404.975394 214.12375 
L 405.299826 221.971442 
L 405.624258 224.604282 
L 405.94869 215.012638 
L 406.273122 213.739947 
L 406.597554 215.419445 
L 406.921987 213.576198 
L 407.246419 213.817814 
L 407.570851 225.481108 
L 407.895283 227.770041 
L 408.219715 214.735725 
L 408.544147 210.976093 
L 408.868579 209.820814 
L 409.517443 212.424112 
L 409.841875 224.254453 
L 410.166307 220.868579 
L 410.490739 205.193645 
L 410.815172 202.689004 
L 411.139604 203.255622 
L 411.464036 203.31552 
L 411.788468 208.769225 
L 412.1129 219.933956 
L 412.437332 219.017942 
L 412.761764 206.384654 
L 413.086196 205.813718 
L 413.410628 205.501082 
L 413.73506 207.050631 
L 414.059492 210.980176 
L 414.383924 223.879714 
L 414.708356 223.010359 
L 415.032789 212.377492 
L 415.357221 213.021252 
L 415.681653 213.011268 
L 416.006085 215.391054 
L 416.330517 219.246808 
L 416.654949 228.020442 
L 416.979381 226.470254 
L 417.303813 214.072079 
L 417.628245 213.654733 
L 418.277109 211.798327 
L 418.601541 214.071151 
L 418.925973 221.822851 
L 419.250406 223.513576 
L 419.574838 213.377134 
L 419.89927 214.03289 
L 420.223702 212.696417 
L 420.872566 216.862299 
L 421.196998 228.971517 
L 421.52143 227.802431 
L 421.845862 211.031746 
L 422.170294 207.949015 
L 422.494726 207.561968 
L 422.819158 212.159264 
L 423.14359 213.651552 
L 423.468023 224.008962 
L 423.792455 224.862906 
L 424.116887 211.856091 
L 424.441319 207.071017 
L 424.765751 206.614448 
L 425.090183 209.458782 
L 425.414615 213.402433 
L 425.739047 225.586557 
L 426.063479 225.644444 
L 426.387911 213.148205 
L 426.712343 212.428041 
L 427.036775 212.993535 
L 427.361207 212.181644 
L 427.68564 214.860174 
L 428.010072 226.929882 
L 428.334504 224.005746 
L 428.658936 208.758737 
L 428.983368 206.129837 
L 429.3078 207.281053 
L 429.632232 203.633449 
L 429.956664 202.860037 
L 430.281096 208.763272 
L 430.605528 205.61062 
L 430.92996 191.832842 
L 431.254392 194.07108 
L 431.903257 202.150025 
L 432.227689 204.084741 
L 432.552121 213.162294 
L 432.876553 216.422449 
L 433.200985 199.27662 
L 433.525417 197.77305 
L 434.174281 180.502878 
L 434.498713 182.124518 
L 434.823145 200.061936 
L 435.147577 206.960794 
L 435.472009 193.513088 
L 435.796441 194.293463 
L 436.120874 191.664401 
L 436.445306 194.471419 
L 436.769738 200.046705 
L 437.09417 212.403069 
L 437.418602 212.330824 
L 437.743034 196.368069 
L 438.391898 184.236451 
L 438.71633 182.722024 
L 439.040762 175.748437 
L 439.365194 179.642072 
L 439.689626 173.795995 
L 440.014059 159.865873 
L 440.338491 169.319339 
L 440.987355 174.641607 
L 441.960651 206.76868 
L 442.285083 193.128302 
L 442.609515 191.087784 
L 442.933947 186.219224 
L 443.258379 184.409124 
L 443.907243 192.083001 
L 444.231676 192.255335 
L 444.556108 180.959656 
L 444.88054 177.204514 
L 445.204972 177.385378 
L 445.853836 185.815297 
L 446.178268 198.757703 
L 446.5027 190.946208 
L 446.827132 160.516901 
L 447.475996 136.116573 
L 447.800428 133.409861 
L 448.12486 145.751734 
L 448.449293 173.569855 
L 448.773725 176.222903 
L 449.098157 163.310641 
L 449.422589 157.772319 
L 449.747021 148.370138 
L 450.071453 146.492956 
L 450.395885 141.567237 
L 450.720317 148.557129 
L 451.044749 140.529479 
L 451.369181 124.379884 
L 451.693613 122.461846 
L 452.018045 117.371509 
L 452.342477 120.458787 
L 452.991342 137.844212 
L 453.315774 135.511989 
L 453.640206 124.685597 
L 454.28907 113.490541 
L 454.613502 116.618339 
L 454.937934 125.319973 
L 455.262366 145.221447 
L 455.586798 142.983049 
L 455.91123 126.619212 
L 456.884527 153.45036 
L 457.208959 141.939646 
L 457.533391 135.852274 
L 457.857823 123.297365 
L 458.182255 103.423427 
L 458.831119 102.855381 
L 459.155551 99.016287 
L 459.479983 116.413606 
L 459.804415 141.923802 
L 460.128847 152.483072 
L 460.777711 121.404575 
L 461.102144 112.133763 
L 461.426576 109.793557 
L 461.751008 113.848595 
L 462.07544 133.786234 
L 462.399872 144.871077 
L 462.724304 134.0721 
L 463.048736 148.90892 
L 463.373168 143.643923 
L 464.022032 154.639794 
L 464.346464 157.025378 
L 464.670896 156.090935 
L 464.995328 153.362584 
L 465.319761 158.178053 
L 465.644193 156.153415 
L 465.968625 148.84896 
L 466.617489 124.695617 
L 466.941921 119.797583 
L 467.266353 119.279991 
L 467.590785 124.520203 
L 467.915217 122.282964 
L 468.239649 110.994937 
L 468.564081 127.014473 
L 468.888513 131.138538 
L 469.212946 131.913434 
L 469.537378 116.609352 
L 469.86181 115.770746 
L 470.186242 123.917718 
L 470.510674 141.605761 
L 470.835106 141.203388 
L 471.159538 140.504629 
L 471.48397 137.312292 
L 471.808402 123.967927 
L 472.132834 137.46602 
L 472.457266 144.189876 
L 472.781698 137.539388 
L 473.10613 138.524146 
L 473.430563 137.094338 
L 473.754995 124.974847 
L 474.079427 100.676622 
L 474.403859 93.017093 
L 474.728291 90.193914 
L 475.052723 89.652624 
L 475.377155 91.173233 
L 475.701587 108.228785 
L 476.026019 115.784586 
L 476.350451 114.44087 
L 476.674883 116.915221 
L 476.999315 116.123392 
L 477.323747 130.577518 
L 477.972612 168.862655 
L 478.297044 164.200597 
L 478.621476 152.216596 
L 479.27034 116.54737 
L 479.594772 107.282317 
L 479.919204 111.40474 
L 480.568068 152.340867 
L 481.216932 131.493937 
L 481.865797 113.317108 
L 482.190229 121.497182 
L 482.514661 149.955834 
L 482.839093 167.918327 
L 483.163525 151.894243 
L 483.487957 143.683824 
L 483.812389 130.328632 
L 484.461253 135.060936 
L 484.785685 156.312457 
L 485.110117 157.674236 
L 485.434549 145.586816 
L 485.758981 141.566808 
L 486.083414 120.302084 
L 486.407846 110.612976 
L 486.732278 118.966515 
L 487.05671 147.003446 
L 487.381142 149.145022 
L 487.705574 131.335444 
L 488.030006 122.652216 
L 488.354438 119.576251 
L 488.67887 123.566847 
L 489.003302 125.444972 
L 489.652166 147.895104 
L 489.976598 135.583376 
L 490.301031 144.560026 
L 490.625463 158.94211 
L 490.949895 157.744078 
L 491.274327 147.809094 
L 491.598759 151.028093 
L 491.923191 158.971894 
L 492.247623 152.149959 
L 492.572055 158.559312 
L 492.896487 168.165164 
L 493.220919 165.757303 
L 493.545351 166.00532 
L 493.869783 158.896486 
L 494.194215 144.797207 
L 494.518648 123.961648 
L 494.84308 123.999216 
L 495.167512 126.349804 
L 495.491944 134.092345 
L 496.140808 171.917425 
L 496.789672 129.974933 
L 497.114104 122.968057 
L 497.438536 126.91247 
L 497.762968 138.59081 
L 498.0874 145.993829 
L 498.736265 178.484674 
L 500.033993 198.436353 
L 500.358425 201.469243 
L 500.682857 203.193396 
L 501.007289 210.011455 
L 501.331721 194.559387 
L 501.656153 167.978463 
L 501.980585 169.995558 
L 502.62945 186.497813 
L 502.953882 201.323475 
L 503.278314 199.917093 
L 503.602746 189.838927 
L 504.25161 192.855896 
L 504.576042 191.951681 
L 504.900474 200.813322 
L 505.224906 200.905199 
L 505.549338 197.705924 
L 505.87377 192.134935 
L 506.198202 192.999661 
L 506.522634 192.056264 
L 506.847067 194.674532 
L 507.171499 200.16208 
L 507.495931 195.256072 
L 507.820363 193.566997 
L 508.144795 180.640068 
L 508.469227 176.836386 
L 508.793659 177.604436 
L 509.118091 181.625175 
L 509.766955 209.85306 
L 510.091387 215.031495 
L 510.415819 186.920179 
L 510.740251 174.16302 
L 511.064684 166.981529 
L 511.389116 167.536898 
L 511.713548 175.095944 
L 512.03798 192.336445 
L 512.362412 199.156986 
L 512.686844 198.184035 
L 513.011276 199.008656 
L 513.335708 201.063238 
L 513.66014 216.978949 
L 513.984572 217.755435 
L 514.309004 217.546894 
L 514.633436 214.238487 
L 514.957868 197.392821 
L 515.282301 194.767328 
L 515.606733 199.846875 
L 515.931165 199.851029 
L 516.255597 203.768567 
L 516.580029 215.966256 
L 517.228893 220.628586 
L 517.553325 208.141176 
L 517.877757 207.71413 
L 518.526621 202.23959 
L 518.851053 209.898512 
L 519.175485 206.453326 
L 519.499918 191.730839 
L 519.82435 192.821254 
L 520.148782 196.40838 
L 520.797646 214.733356 
L 521.122078 223.383833 
L 521.44651 219.895035 
L 521.770942 205.361437 
L 522.095374 202.98369 
L 522.419806 203.887984 
L 522.744238 203.133031 
L 523.06867 206.358058 
L 523.393102 218.145036 
L 523.717535 218.83282 
L 524.041967 206.313532 
L 524.366399 205.66545 
L 525.015263 207.714142 
L 525.339695 212.544351 
L 525.664127 223.495206 
L 525.988559 222.96992 
L 526.312991 210.414957 
L 526.637423 210.367653 
L 527.286287 204.494514 
L 527.610719 210.31511 
L 527.935152 225.038249 
L 528.259584 225.648058 
L 528.584016 210.923698 
L 528.908448 203.844137 
L 529.23288 201.169032 
L 529.881744 206.089573 
L 530.206176 211.487182 
L 530.530608 213.053984 
L 530.85504 205.005619 
L 531.179472 204.440673 
L 531.828337 202.253601 
L 532.152769 206.497745 
L 532.477201 216.276915 
L 532.801633 219.281037 
L 533.126065 209.521081 
L 533.450497 207.250632 
L 533.774929 205.793659 
L 534.099361 207.657122 
L 534.423793 211.524763 
L 534.748225 219.570334 
L 535.072657 221.594649 
L 535.397089 212.894696 
L 535.721521 214.034703 
L 536.370386 209.859676 
L 536.694818 215.195294 
L 537.01925 222.961717 
L 537.343682 220.290267 
L 537.668114 209.841973 
L 537.992546 207.866455 
L 538.316978 210.224169 
L 538.64141 210.618053 
L 538.965842 214.046657 
L 539.290274 222.326708 
L 539.614706 223.430145 
L 539.939138 215.143578 
L 540.588003 215.005561 
L 540.912435 214.630685 
L 541.236867 214.902714 
L 541.561299 220.45212 
L 541.885731 221.863448 
L 542.210163 211.813116 
L 542.534595 210.040462 
L 542.859027 210.135478 
L 543.183459 211.900768 
L 543.507891 217.639419 
L 543.832323 227.129175 
L 544.156755 223.181063 
L 544.481188 208.164358 
L 544.80562 210.111981 
L 545.130052 215.329358 
L 545.454484 206.652919 
L 545.778916 209.201212 
L 546.103348 215.635759 
L 546.42778 213.385402 
L 546.752212 202.54007 
L 547.076644 198.828935 
L 547.401076 198.65048 
L 547.725508 201.671487 
L 548.04994 207.670261 
L 548.374372 218.723246 
L 548.698805 212.973244 
L 549.023237 200.877964 
L 549.347669 203.357732 
L 549.672101 204.654604 
L 549.996533 201.565762 
L 550.320965 205.28789 
L 550.645397 217.285271 
L 550.969829 217.11109 
L 551.294261 208.451012 
L 551.618693 207.701881 
L 551.943125 209.315361 
L 552.267557 205.416072 
L 552.591989 202.948028 
L 552.916422 209.262376 
L 553.240854 208.82099 
L 553.565286 199.19766 
L 553.889718 200.315816 
L 554.21415 202.89059 
L 554.538582 203.660915 
L 554.863014 196.873354 
L 555.187446 198.672355 
L 555.511878 192.303867 
L 555.83631 177.889894 
L 556.160742 178.553117 
L 556.485174 184.679215 
L 556.809606 183.43976 
L 557.458471 202.935437 
L 557.782903 199.954803 
L 558.107335 180.136281 
L 558.431767 181.253969 
L 558.756199 177.4028 
L 559.080631 181.567515 
L 559.405063 180.21427 
L 559.729495 185.76085 
L 560.053927 176.756635 
L 560.378359 154.712017 
L 560.702791 151.745536 
L 561.027224 154.344952 
L 561.351656 149.186558 
L 561.676088 151.214483 
L 562.00052 162.49677 
L 562.324952 165.350838 
L 562.649384 150.053775 
L 563.62268 182.762898 
L 563.947112 181.590738 
L 564.271544 192.755468 
L 564.595976 192.624982 
L 564.920408 168.864948 
L 565.244841 166.045624 
L 565.569273 168.002082 
L 565.893705 166.896337 
L 566.867001 193.1615 
L 567.191433 191.894151 
L 567.840297 157.165604 
L 568.164729 145.391157 
L 568.489161 142.514761 
L 568.813593 154.437486 
L 569.138025 157.079819 
L 569.462458 141.648164 
L 569.78689 136.091907 
L 570.435754 146.50546 
L 570.760186 153.112261 
L 571.084618 172.765154 
L 571.40905 179.389664 
L 571.733482 162.505838 
L 572.057914 159.031052 
L 572.382346 159.835913 
L 572.706778 153.324416 
L 573.03121 129.356827 
L 573.355642 140.989485 
L 573.680075 142.550586 
L 574.004507 123.323381 
L 574.328939 119.262599 
L 574.653371 113.048741 
L 574.977803 111.19282 
L 575.302235 111.478035 
L 575.626667 119.095649 
L 575.951099 108.127195 
L 576.275531 90.201317 
L 576.599963 93.590107 
L 576.924395 88.00083 
L 577.573259 100.79398 
L 577.897692 111.466948 
L 578.222124 113.433721 
L 578.546556 102.626724 
L 579.519852 88.639058 
L 579.844284 95.194764 
L 580.168716 115.20442 
L 580.493148 124.068831 
L 580.81758 120.184978 
L 581.466444 131.052614 
L 581.790876 131.778416 
L 582.115309 133.338891 
L 582.439741 144.460595 
L 582.764173 143.080196 
L 583.088605 140.072781 
L 583.413037 156.657706 
L 583.737469 160.259551 
L 584.061901 160.133224 
L 584.386333 140.107315 
L 584.710765 132.976055 
L 585.035197 130.084238 
L 585.359629 117.691654 
L 585.684061 115.410825 
L 586.332926 120.691337 
L 586.657358 120.089004 
L 586.98179 115.026403 
L 587.306222 113.613674 
L 587.630654 95.128122 
L 587.955086 92.528098 
L 588.279518 92.055092 
L 588.60395 86.048141 
L 588.928382 86.235052 
L 589.252814 94.998392 
L 589.577246 94.81385 
L 589.901678 86.721094 
L 590.226111 94.874011 
L 590.550543 94.782726 
L 590.874975 80.09854 
L 591.199407 75.680531 
L 591.523839 85.163335 
L 591.848271 88.16958 
L 592.172703 88.58332 
L 593.145999 130.351384 
L 593.470431 125.408526 
L 593.794863 124.666687 
L 594.119295 110.813503 
L 594.443728 87.086637 
L 594.76816 87.579361 
L 595.092592 90.182337 
L 595.417024 99.399998 
L 595.741456 113.458641 
L 596.065888 112.296002 
L 596.39032 104.50717 
L 596.714752 88.10708 
L 597.363616 122.15663 
L 597.688048 120.88667 
L 598.336912 123.513322 
L 598.661345 102.60635 
L 598.985777 63.498233 
L 599.310209 47.824953 
L 599.634641 39.324286 
L 599.959073 37.257 
L 600.283505 38.615174 
L 600.607937 52.877939 
L 600.932369 61.928013 
L 601.256801 63.401155 
L 601.905665 111.352642 
L 602.230097 123.983883 
L 602.554529 131.969876 
L 602.878962 156.166812 
L 603.203394 158.389078 
L 603.527826 147.15673 
L 603.852258 160.318471 
L 604.17669 166.325228 
L 604.501122 164.601943 
L 604.825554 154.273475 
L 605.149986 151.77521 
L 605.474418 143.73886 
L 605.79885 122.727893 
L 606.123282 124.917341 
L 606.447714 132.004815 
L 606.772146 129.092486 
L 607.096579 115.385651 
L 607.421011 122.153201 
L 607.745443 118.412339 
L 608.069875 101.049861 
L 608.394307 101.777989 
L 609.043171 136.805537 
L 609.367603 142.277961 
L 609.692035 151.927832 
L 610.016467 143.68957 
L 610.340899 126.071691 
L 611.314196 104.086175 
L 611.638628 104.86375 
L 612.287492 123.37198 
L 612.611924 111.064412 
L 612.936356 118.593679 
L 613.909652 160.56165 
L 614.234084 165.31982 
L 614.558516 165.716738 
L 614.882948 165.188961 
L 615.20738 170.347022 
L 615.531813 178.767335 
L 615.856245 184.221817 
L 616.180677 180.88205 
L 616.505109 170.824822 
L 616.829541 165.49783 
L 617.153973 147.553229 
L 617.478405 118.442 
L 617.802837 114.130693 
L 618.127269 114.630132 
L 618.776133 150.547256 
L 619.100565 160.484763 
L 619.424997 129.803677 
L 619.74943 125.417007 
L 620.073862 116.643539 
L 620.398294 118.231872 
L 620.722726 127.530118 
L 621.047158 144.979062 
L 621.37159 152.118309 
L 621.696022 149.368085 
L 622.344886 164.999106 
L 622.669318 159.368784 
L 622.99375 159.669979 
L 623.318182 169.695969 
L 623.642615 166.316266 
L 623.967047 154.070955 
L 624.291479 157.595435 
L 624.615911 168.728157 
L 624.940343 170.58376 
L 625.264775 167.136807 
L 625.589207 180.617043 
L 626.238071 162.658125 
L 626.562503 166.585125 
L 627.211367 152.952404 
L 627.535799 154.347988 
L 628.184664 201.880305 
L 628.833528 196.760422 
L 629.15796 194.086583 
L 629.482392 196.891522 
L 629.806824 190.447906 
L 630.131256 193.793305 
L 630.455688 193.408271 
L 630.78012 182.180632 
L 631.428984 177.696729 
L 631.753416 180.882847 
L 632.402281 199.483643 
L 632.726713 201.073413 
L 633.051145 199.999734 
L 633.375577 183.911613 
L 633.700009 182.518583 
L 634.024441 179.026666 
L 634.348873 185.170091 
L 634.673305 197.850198 
L 634.997737 202.99716 
L 635.322169 197.765459 
L 635.646601 202.782621 
L 636.295466 216.109463 
L 636.619898 215.321455 
L 636.94433 221.907351 
L 637.268762 220.005742 
L 637.593194 204.791344 
L 637.917626 204.919619 
L 638.56649 207.769806 
L 638.890922 213.944218 
L 639.215354 224.279403 
L 639.539786 221.807376 
L 639.864218 212.556975 
L 640.18865 208.834601 
L 640.513083 210.712093 
L 641.161947 216.322807 
L 641.486379 227.181757 
L 641.810811 227.410554 
L 642.459675 207.534306 
L 643.108539 204.108874 
L 643.432971 207.70662 
L 643.757403 221.707844 
L 644.081835 224.122216 
L 644.406267 211.910088 
L 645.379564 203.108912 
L 645.703996 207.823163 
L 646.028428 221.095209 
L 646.35286 221.723992 
L 646.677292 210.733026 
L 647.001724 215.109464 
L 647.326156 208.293885 
L 647.650588 206.320922 
L 647.97502 210.443628 
L 648.299452 221.638302 
L 648.623884 220.901296 
L 648.948317 211.530302 
L 649.272749 209.966689 
L 649.597181 210.075182 
L 649.921613 210.844144 
L 650.246045 215.675037 
L 650.570477 225.931541 
L 650.894909 225.817529 
L 651.219341 214.7861 
L 651.543773 212.244866 
L 651.868205 212.111825 
L 652.192637 212.668632 
L 652.517069 216.697189 
L 652.841502 227.030989 
L 653.165934 226.652306 
L 653.490366 216.570473 
L 653.814798 216.60984 
L 654.13923 219.272257 
L 654.463662 219.944936 
L 654.788094 221.689241 
L 655.112526 226.667575 
L 655.436958 224.234966 
L 655.76139 216.397335 
L 656.085822 213.305879 
L 656.410254 212.462134 
L 656.734686 214.385895 
L 657.383551 224.400847 
L 657.707983 224.442792 
L 658.032415 217.321237 
L 658.356847 215.607772 
L 658.681279 215.951742 
L 659.005711 217.69883 
L 659.654575 228.106251 
L 659.979007 228.154523 
L 660.303439 218.123601 
L 660.627871 214.402578 
L 661.276736 213.27818 
L 661.601168 215.708173 
L 661.9256 224.567056 
L 662.250032 224.007677 
L 662.574464 214.751967 
L 662.898896 211.62357 
L 663.223328 212.726383 
L 663.54776 209.503524 
L 663.872192 209.646716 
L 664.196624 216.716952 
L 664.521056 216.225656 
L 664.845488 208.32192 
L 665.494353 205.909336 
L 665.818785 207.690676 
L 666.143217 211.435296 
L 666.467649 220.08717 
L 666.792081 220.59341 
L 667.116513 210.082032 
L 667.440945 209.610485 
L 667.765377 211.632092 
L 668.089809 211.750802 
L 668.414241 213.978019 
L 668.738673 222.768708 
L 669.063105 222.785999 
L 669.387537 209.159682 
L 669.71197 209.309901 
L 670.036402 209.208185 
L 670.360834 207.459808 
L 670.685266 207.343836 
L 671.009698 217.314404 
L 671.33413 213.087609 
L 671.658562 195.155384 
L 671.982994 193.993682 
L 672.307426 194.897881 
L 673.605154 218.797971 
L 674.254019 202.473564 
L 674.578451 200.350471 
L 674.902883 193.312015 
L 675.227315 196.353069 
L 675.551747 208.647508 
L 675.876179 212.82778 
L 676.200611 197.364594 
L 676.525043 195.364327 
L 677.173907 179.953518 
L 677.498339 183.201176 
L 677.822771 190.211186 
L 678.147204 182.473796 
L 678.471636 171.386723 
L 679.1205 161.928449 
L 679.444932 169.903732 
L 680.093796 177.49151 
L 680.418228 177.625397 
L 680.74266 169.913275 
L 681.391524 191.109105 
L 682.040389 173.836809 
L 682.364821 172.211591 
L 682.689253 167.640677 
L 683.013685 154.923553 
L 683.662549 169.305239 
L 683.986981 169.45133 
L 684.311413 173.87346 
L 684.635845 180.344664 
L 684.960277 190.477542 
L 685.284709 178.278859 
L 685.609141 157.094844 
L 685.933573 146.656297 
L 686.258006 143.569319 
L 686.582438 146.981701 
L 686.90687 160.260507 
L 687.231302 161.639771 
L 687.555734 141.117009 
L 687.880166 140.467313 
L 688.204598 128.940475 
L 688.52903 127.727806 
L 688.853462 131.142022 
L 689.177894 146.933566 
L 689.502326 150.493697 
L 689.826758 130.130638 
L 690.15119 127.973992 
L 691.124487 152.653418 
L 691.448919 163.379859 
L 691.773351 153.454083 
L 692.097783 126.765806 
L 692.422215 117.19411 
L 692.746647 113.744385 
L 693.071079 108.615484 
L 693.395511 113.372268 
L 693.719943 119.939215 
L 694.044375 115.84637 
L 694.368807 99.620506 
L 695.017672 127.957594 
L 695.342104 108.148276 
L 695.666536 110.611989 
L 695.990968 124.173394 
L 696.3154 119.252788 
L 696.639832 99.234758 
L 696.964264 101.597769 
L 697.288696 101.684457 
L 697.613128 97.630835 
L 697.93756 99.270706 
L 698.586424 125.670198 
L 698.910857 121.751878 
L 699.235289 124.962784 
L 699.559721 131.609515 
L 699.884153 131.660859 
L 700.208585 134.456494 
L 700.533017 145.225439 
L 700.857449 143.797647 
L 701.181881 107.476043 
L 701.506313 90.577863 
L 701.830745 88.419411 
L 702.479609 132.737203 
L 702.804041 122.165519 
L 703.128474 119.763704 
L 703.452906 120.492753 
L 704.10177 146.410397 
L 704.426202 171.249772 
L 704.750634 183.987154 
L 705.075066 184.332166 
L 705.399498 179.491941 
L 706.697226 116.425421 
L 707.021658 113.117638 
L 707.346091 121.567695 
L 707.670523 119.618203 
L 707.994955 96.690478 
L 708.319387 92.196335 
L 708.643819 92.061835 
L 708.968251 99.075282 
L 709.292683 102.972266 
L 709.941547 122.280853 
L 710.265979 113.456668 
L 710.590411 108.108975 
L 710.914843 113.28009 
L 711.239275 106.289912 
L 711.563708 104.619445 
L 711.88814 119.292702 
L 712.212572 122.827816 
L 712.537004 105.010215 
L 712.861436 99.839369 
L 713.185868 101.765529 
L 713.5103 110.611838 
L 713.834732 115.117389 
L 714.159164 139.498731 
L 714.483596 137.145506 
L 714.808028 114.621614 
L 715.781325 125.775622 
L 716.105757 134.293735 
L 716.430189 139.845263 
L 716.754621 139.917169 
L 717.079053 122.530221 
L 717.403485 131.528609 
L 717.727917 136.025853 
L 718.376781 121.5474 
L 719.025645 133.009583 
L 719.350077 131.772987 
L 719.67451 132.978145 
L 719.998942 145.702464 
L 720.323374 149.269515 
L 720.647806 150.068619 
L 721.29667 155.386099 
L 721.621102 135.812515 
L 721.945534 133.938639 
L 722.269966 133.225592 
L 722.594398 136.900876 
L 722.91883 129.22765 
L 723.243262 132.573186 
L 723.567694 129.901732 
L 723.892127 116.083213 
L 724.216559 109.844703 
L 724.540991 111.464047 
L 724.865423 115.841365 
L 725.189855 114.578248 
L 725.514287 124.403614 
L 725.838719 119.385033 
L 726.163151 105.05719 
L 727.785311 154.532999 
L 728.109744 159.305033 
L 728.434176 145.070973 
L 728.758608 142.393974 
L 729.08304 155.119854 
L 729.407472 149.701813 
L 729.731904 152.821448 
L 730.056336 162.162965 
L 730.380768 162.193437 
L 730.7052 152.073123 
L 731.029632 155.127152 
L 731.354064 160.735135 
L 731.678496 163.004905 
L 732.002928 170.594137 
L 732.327361 185.305964 
L 732.651793 182.057329 
L 734.273953 134.705585 
L 734.598385 133.752026 
L 735.247249 129.23667 
L 735.896113 161.375379 
L 736.220545 163.816143 
L 736.544978 157.487051 
L 736.86941 161.315537 
L 737.193842 154.988888 
L 737.518274 152.479015 
L 737.842706 172.369117 
L 738.49157 193.544279 
L 738.816002 196.802626 
L 739.140434 191.922964 
L 739.789298 187.852726 
L 740.11373 177.516195 
L 740.438162 176.815377 
L 740.762595 179.653109 
L 741.087027 188.093051 
L 741.411459 200.49716 
L 741.735891 194.461616 
L 742.060323 175.655906 
L 742.384755 172.898299 
L 742.709187 176.574102 
L 743.682483 195.603995 
L 744.006915 196.990619 
L 744.331347 188.844175 
L 744.65578 188.030056 
L 744.980212 188.926727 
L 745.304644 191.820374 
L 745.629076 198.305113 
L 745.953508 212.531549 
L 746.27794 210.507996 
L 746.602372 204.324137 
L 747.251236 214.940344 
L 747.575668 212.429934 
L 747.9001 213.697895 
L 748.224532 220.31708 
L 748.548964 221.548216 
L 748.873397 212.769201 
L 749.197829 210.037787 
L 749.522261 214.573496 
L 749.846693 215.547756 
L 750.495557 225.194143 
L 750.819989 221.557831 
L 751.144421 214.13945 
L 751.468853 210.03601 
L 751.793285 213.998433 
L 752.117717 221.057275 
L 752.442149 216.694394 
L 752.766581 215.225235 
L 753.091014 207.005905 
L 753.415446 193.000709 
L 754.388742 204.14212 
L 754.713174 213.008305 
L 755.037606 225.399243 
L 755.362038 229.76737 
L 755.68647 227.178583 
L 756.010902 213.487057 
L 756.335334 211.968334 
L 756.659766 211.616057 
L 756.984198 216.269477 
L 757.308631 226.824656 
L 757.633063 226.852504 
L 757.957495 215.301256 
L 758.281927 211.517731 
L 758.606359 215.608541 
L 758.930791 224.40364 
L 759.255223 225.865566 
L 759.579655 234.190485 
L 759.904087 231.726576 
L 760.228519 218.388454 
L 760.552951 216.505678 
L 760.877383 215.442694 
L 761.201815 220.593087 
L 761.526248 222.452168 
L 761.85068 232.686713 
L 762.175112 230.626438 
L 762.499544 219.686426 
L 762.823976 219.820717 
L 763.148408 217.66441 
L 763.797272 222.537901 
L 764.121704 231.565226 
L 764.446136 231.812889 
L 764.770568 222.59413 
L 765.095 221.915821 
L 765.419432 221.986708 
L 765.743865 221.265721 
L 766.068297 222.872716 
L 766.392729 230.188873 
L 766.717161 228.25558 
L 767.041593 216.696036 
L 767.690457 222.535658 
L 768.014889 224.096227 
L 768.339321 224.345552 
L 768.663753 232.583675 
L 768.988185 230.175244 
L 769.312617 220.764922 
L 769.637049 224.713698 
L 769.961482 225.296833 
L 770.285914 221.076715 
L 770.610346 223.034935 
L 770.934778 232.434127 
L 771.25921 234.002932 
L 771.908074 223.058258 
L 772.232506 222.709141 
L 772.556938 224.070172 
L 772.88137 225.932485 
L 773.205802 235.16597 
L 773.530234 235.673901 
L 773.854667 226.020448 
L 774.179099 228.787021 
L 774.827963 228.284601 
L 775.152395 231.662767 
L 775.476827 236.504378 
L 775.801259 235.509907 
L 776.125691 228.941649 
L 776.450123 229.16217 
L 776.774555 229.130581 
L 777.098987 228.51146 
L 777.423419 230.558537 
L 777.747851 237.581449 
L 778.072284 238.857 
L 778.396716 228.198268 
L 778.721148 224.223364 
L 779.04558 222.959672 
L 779.370012 222.793771 
L 779.694444 225.662645 
L 780.018876 236.229742 
L 780.343308 232.445216 
L 780.66774 221.768729 
L 780.992172 222.724209 
L 781.316604 222.869388 
L 781.641036 224.488253 
L 781.965468 224.60842 
L 782.289901 233.907912 
L 782.614333 234.997612 
L 782.938765 222.300878 
L 783.263197 222.25922 
L 783.587629 219.980271 
L 783.912061 220.227112 
L 784.560925 234.528342 
L 784.885357 234.122642 
L 785.209789 227.470257 
L 785.858653 222.858189 
L 786.507518 224.489984 
L 786.83195 228.212651 
L 787.156382 226.24447 
L 787.480814 218.365935 
L 787.805246 219.019144 
L 788.129678 217.447551 
L 788.45411 220.045159 
L 788.778542 217.300435 
L 789.102974 218.269082 
L 789.427406 212.799951 
L 790.07627 193.437124 
L 790.400702 193.378399 
L 790.725135 195.730797 
L 791.049567 199.686609 
L 791.373999 212.778845 
L 791.698431 212.163365 
L 792.671727 186.522383 
L 792.996159 184.324811 
L 792.996159 184.324811 
" clip-path="url(#p1f3b640813)" style="fill: none; stroke: #4c72b0; stroke-width: 1.2; stroke-linecap: round"/>
   </g>
   <g id="line2d_13">
    <path d="M 82.814341 161.699627 
L 792.996159 180.27242 
L 792.996159 180.27242 
" clip-path="url(#p1f3b640813)" style="fill: none; stroke: #dd8452; stroke-width: 1.2; stroke-linecap: round"/>
   </g>
   <g id="patch_3">
    <path d="M 47.30525 248.937 
L 47.30525 27.177 
" style="fill: none; stroke: #cccccc; stroke-linejoin: miter; stroke-linecap: square"/>
   </g>
   <g id="patch_4">
    <path d="M 828.50525 248.937 
L 828.50525 27.177 
" style="fill: none; stroke: #cccccc; stroke-linejoin: miter; stroke-linecap: square"/>
   </g>
   <g id="patch_5">
    <path d="M 47.30525 248.937 
L 828.50525 248.937 
" style="fill: none; stroke: #cccccc; stroke-linejoin: miter; stroke-linecap: square"/>
   </g>
   <g id="patch_6">
    <path d="M 47.30525 27.177 
L 828.50525 27.177 
" style="fill: none; stroke: #cccccc; stroke-linejoin: miter; stroke-linecap: square"/>
   </g>
   <g id="text_15">
    <!-- Linear regression of consumption data -->
    <g style="fill: #262626" transform="translate(274.61975 21.177) scale(0.192 -0.192)">
     <defs>
      <path id="ArialMT-4c" d="M 469 0 
L 469 4581 
L 1075 4581 
L 1075 541 
L 3331 541 
L 3331 0 
L 469 0 
z
" transform="scale(0.015625)"/>
      <path id="ArialMT-72" d="M 416 0 
L 416 3319 
L 922 3319 
L 922 2816 
Q 1116 3169 1280 3281 
Q 1444 3394 1641 3394 
Q 1925 3394 2219 3213 
L 2025 2691 
Q 1819 2813 1613 2813 
Q 1428 2813 1281 2702 
Q 1134 2591 1072 2394 
Q 978 2094 978 1738 
L 978 0 
L 416 0 
z
" transform="scale(0.015625)"/>
      <path id="ArialMT-67" d="M 319 -275 
L 866 -356 
Q 900 -609 1056 -725 
Q 1266 -881 1628 -881 
Q 2019 -881 2231 -725 
Q 2444 -569 2519 -288 
Q 2563 -116 2559 434 
Q 2191 0 1641 0 
Q 956 0 581 494 
Q 206 988 206 1678 
Q 206 2153 378 2554 
Q 550 2956 876 3175 
Q 1203 3394 1644 3394 
Q 2231 3394 2613 2919 
L 2613 3319 
L 3131 3319 
L 3131 450 
Q 3131 -325 2973 -648 
Q 2816 -972 2473 -1159 
Q 2131 -1347 1631 -1347 
Q 1038 -1347 672 -1080 
Q 306 -813 319 -275 
z
M 784 1719 
Q 784 1066 1043 766 
Q 1303 466 1694 466 
Q 2081 466 2343 764 
Q 2606 1063 2606 1700 
Q 2606 2309 2336 2618 
Q 2066 2928 1684 2928 
Q 1309 2928 1046 2623 
Q 784 2319 784 1719 
z
" transform="scale(0.015625)"/>
      <path id="ArialMT-66" d="M 556 0 
L 556 2881 
L 59 2881 
L 59 3319 
L 556 3319 
L 556 3672 
Q 556 4006 616 4169 
Q 697 4388 901 4523 
Q 1106 4659 1475 4659 
Q 1713 4659 2000 4603 
L 1916 4113 
Q 1741 4144 1584 4144 
Q 1328 4144 1222 4034 
Q 1116 3925 1116 3625 
L 1116 3319 
L 1763 3319 
L 1763 2881 
L 1116 2881 
L 1116 0 
L 556 0 
z
" transform="scale(0.015625)"/>
      <path id="ArialMT-63" d="M 2588 1216 
L 3141 1144 
Q 3050 572 2676 248 
Q 2303 -75 1759 -75 
Q 1078 -75 664 370 
Q 250 816 250 1647 
Q 250 2184 428 2587 
Q 606 2991 970 3192 
Q 1334 3394 1763 3394 
Q 2303 3394 2647 3120 
Q 2991 2847 3088 2344 
L 2541 2259 
Q 2463 2594 2264 2762 
Q 2066 2931 1784 2931 
Q 1359 2931 1093 2626 
Q 828 2322 828 1663 
Q 828 994 1084 691 
Q 1341 388 1753 388 
Q 2084 388 2306 591 
Q 2528 794 2588 1216 
z
" transform="scale(0.015625)"/>
     </defs>
     <use xlink:href="#ArialMT-4c"/>
     <use xlink:href="#ArialMT-69" x="55.615234"/>
     <use xlink:href="#ArialMT-6e" x="77.832031"/>
     <use xlink:href="#ArialMT-65" x="133.447266"/>
     <use xlink:href="#ArialMT-61" x="189.0625"/>
     <use xlink:href="#ArialMT-72" x="244.677734"/>
     <use xlink:href="#ArialMT-20" x="277.978516"/>
     <use xlink:href="#ArialMT-72" x="305.761719"/>
     <use xlink:href="#ArialMT-65" x="339.0625"/>
     <use xlink:href="#ArialMT-67" x="394.677734"/>
     <use xlink:href="#ArialMT-72" x="450.292969"/>
     <use xlink:href="#ArialMT-65" x="483.59375"/>
     <use xlink:href="#ArialMT-73" x="539.208984"/>
     <use xlink:href="#ArialMT-73" x="589.208984"/>
     <use xlink:href="#ArialMT-69" x="639.208984"/>
     <use xlink:href="#ArialMT-6f" x="661.425781"/>
     <use xlink:href="#ArialMT-6e" x="717.041016"/>
     <use xlink:href="#ArialMT-20" x="772.65625"/>
     <use xlink:href="#ArialMT-6f" x="800.439453"/>
     <use xlink:href="#ArialMT-66" x="856.054688"/>
     <use xlink:href="#ArialMT-20" x="883.837891"/>
     <use xlink:href="#ArialMT-63" x="911.621094"/>
     <use xlink:href="#ArialMT-6f" x="961.621094"/>
     <use xlink:href="#ArialMT-6e" x="1017.236328"/>
     <use xlink:href="#ArialMT-73" x="1072.851562"/>
     <use xlink:href="#ArialMT-75" x="1122.851562"/>
     <use xlink:href="#ArialMT-6d" x="1178.466797"/>
     <use xlink:href="#ArialMT-70" x="1261.767578"/>
     <use xlink:href="#ArialMT-74" x="1317.382812"/>
     <use xlink:href="#ArialMT-69" x="1345.166016"/>
     <use xlink:href="#ArialMT-6f" x="1367.382812"/>
     <use xlink:href="#ArialMT-6e" x="1422.998047"/>
     <use xlink:href="#ArialMT-20" x="1478.613281"/>
     <use xlink:href="#ArialMT-64" x="1506.396484"/>
     <use xlink:href="#ArialMT-61" x="1562.011719"/>
     <use xlink:href="#ArialMT-74" x="1617.626953"/>
     <use xlink:href="#ArialMT-61" x="1645.410156"/>
    </g>
   </g>
  </g>
 </g>
 <defs>
  <clipPath id="p1f3b640813">
   <rect x="47.30525" y="27.177" width="781.2" height="221.76"/>
  </clipPath>
 </defs>
</svg>
