<?xml version="1.0" encoding="utf-8" standalone="no"?>
<!DOCTYPE svg PUBLIC "-//W3C//DTD SVG 1.1//EN"
  "http://www.w3.org/Graphics/SVG/1.1/DTD/svg11.dtd">
<svg xmlns:xlink="http://www.w3.org/1999/xlink" width="855.27975pt" height="302.09175pt" viewBox="0 0 855.27975 302.09175" xmlns="http://www.w3.org/2000/svg" version="1.1">
 <metadata>
  <rdf:RDF xmlns:dc="http://purl.org/dc/elements/1.1/" xmlns:cc="http://creativecommons.org/ns#" xmlns:rdf="http://www.w3.org/1999/02/22-rdf-syntax-ns#">
   <cc:Work>
    <dc:type rdf:resource="http://purl.org/dc/dcmitype/StillImage"/>
    <dc:date>2023-05-10T11:36:52.454019</dc:date>
    <dc:format>image/svg+xml</dc:format>
    <dc:creator>
     <cc:Agent>
      <dc:title>Matplotlib v3.7.1, https://matplotlib.org/</dc:title>
     </cc:Agent>
    </dc:creator>
   </cc:Work>
  </rdf:RDF>
 </metadata>
 <defs>
  <style type="text/css">*{stroke-linejoin: round; stroke-linecap: butt}</style>
 </defs>
 <g id="figure_1">
  <g id="patch_1">
   <path d="M 0 302.09175 
L 855.27975 302.09175 
L 855.27975 0 
L 0 0 
z
" style="fill: #ffffff"/>
  </g>
  <g id="axes_1">
   <g id="patch_2">
    <path d="M 66.87975 248.937 
L 848.07975 248.937 
L 848.07975 27.177 
L 66.87975 27.177 
z
" style="fill: #ffffff"/>
   </g>
   <g id="matplotlib.axis_1">
    <g id="xtick_1">
     <g id="line2d_1">
      <path d="M 66.87975 248.937 
L 66.87975 27.177 
" clip-path="url(#pbdb7a6ba87)" style="fill: none; stroke: #cccccc; stroke-width: 0.8; stroke-linecap: round"/>
     </g>
    </g>
    <g id="xtick_2">
     <g id="line2d_2">
      <path d="M 99.682306 248.937 
L 99.682306 27.177 
" clip-path="url(#pbdb7a6ba87)" style="fill: none; stroke: #cccccc; stroke-width: 0.8; stroke-linecap: round"/>
     </g>
     <g id="text_1">
      <!-- 2016 -->
      <g style="fill: #262626" transform="translate(80.107806 269.83475) scale(0.176 -0.176)">
       <defs>
        <path id="ArialMT-32" d="M 3222 541 
L 3222 0 
L 194 0 
Q 188 203 259 391 
Q 375 700 629 1000 
Q 884 1300 1366 1694 
Q 2113 2306 2375 2664 
Q 2638 3022 2638 3341 
Q 2638 3675 2398 3904 
Q 2159 4134 1775 4134 
Q 1369 4134 1125 3890 
Q 881 3647 878 3216 
L 300 3275 
Q 359 3922 746 4261 
Q 1134 4600 1788 4600 
Q 2447 4600 2831 4234 
Q 3216 3869 3216 3328 
Q 3216 3053 3103 2787 
Q 2991 2522 2730 2228 
Q 2469 1934 1863 1422 
Q 1356 997 1212 845 
Q 1069 694 975 541 
L 3222 541 
z
" transform="scale(0.015625)"/>
        <path id="ArialMT-30" d="M 266 2259 
Q 266 3072 433 3567 
Q 600 4063 929 4331 
Q 1259 4600 1759 4600 
Q 2128 4600 2406 4451 
Q 2684 4303 2865 4023 
Q 3047 3744 3150 3342 
Q 3253 2941 3253 2259 
Q 3253 1453 3087 958 
Q 2922 463 2592 192 
Q 2263 -78 1759 -78 
Q 1097 -78 719 397 
Q 266 969 266 2259 
z
M 844 2259 
Q 844 1131 1108 757 
Q 1372 384 1759 384 
Q 2147 384 2411 759 
Q 2675 1134 2675 2259 
Q 2675 3391 2411 3762 
Q 2147 4134 1753 4134 
Q 1366 4134 1134 3806 
Q 844 3388 844 2259 
z
" transform="scale(0.015625)"/>
        <path id="ArialMT-31" d="M 2384 0 
L 1822 0 
L 1822 3584 
Q 1619 3391 1289 3197 
Q 959 3003 697 2906 
L 697 3450 
Q 1169 3672 1522 3987 
Q 1875 4303 2022 4600 
L 2384 4600 
L 2384 0 
z
" transform="scale(0.015625)"/>
        <path id="ArialMT-36" d="M 3184 3459 
L 2625 3416 
Q 2550 3747 2413 3897 
Q 2184 4138 1850 4138 
Q 1581 4138 1378 3988 
Q 1113 3794 959 3422 
Q 806 3050 800 2363 
Q 1003 2672 1297 2822 
Q 1591 2972 1913 2972 
Q 2475 2972 2870 2558 
Q 3266 2144 3266 1488 
Q 3266 1056 3080 686 
Q 2894 316 2569 119 
Q 2244 -78 1831 -78 
Q 1128 -78 684 439 
Q 241 956 241 2144 
Q 241 3472 731 4075 
Q 1159 4600 1884 4600 
Q 2425 4600 2770 4297 
Q 3116 3994 3184 3459 
z
M 888 1484 
Q 888 1194 1011 928 
Q 1134 663 1356 523 
Q 1578 384 1822 384 
Q 2178 384 2434 671 
Q 2691 959 2691 1453 
Q 2691 1928 2437 2201 
Q 2184 2475 1800 2475 
Q 1419 2475 1153 2201 
Q 888 1928 888 1484 
z
" transform="scale(0.015625)"/>
       </defs>
       <use xlink:href="#ArialMT-32"/>
       <use xlink:href="#ArialMT-30" x="55.615234"/>
       <use xlink:href="#ArialMT-31" x="111.230469"/>
       <use xlink:href="#ArialMT-36" x="166.845703"/>
      </g>
     </g>
    </g>
    <g id="xtick_3">
     <g id="line2d_3">
      <path d="M 230.179431 248.937 
L 230.179431 27.177 
" clip-path="url(#pbdb7a6ba87)" style="fill: none; stroke: #cccccc; stroke-width: 0.8; stroke-linecap: round"/>
     </g>
     <g id="text_2">
      <!-- 2017 -->
      <g style="fill: #262626" transform="translate(210.604931 269.83475) scale(0.176 -0.176)">
       <defs>
        <path id="ArialMT-37" d="M 303 3981 
L 303 4522 
L 3269 4522 
L 3269 4084 
Q 2831 3619 2401 2847 
Q 1972 2075 1738 1259 
Q 1569 684 1522 0 
L 944 0 
Q 953 541 1156 1306 
Q 1359 2072 1739 2783 
Q 2119 3494 2547 3981 
L 303 3981 
z
" transform="scale(0.015625)"/>
       </defs>
       <use xlink:href="#ArialMT-32"/>
       <use xlink:href="#ArialMT-30" x="55.615234"/>
       <use xlink:href="#ArialMT-31" x="111.230469"/>
       <use xlink:href="#ArialMT-37" x="166.845703"/>
      </g>
     </g>
    </g>
    <g id="xtick_4">
     <g id="line2d_4">
      <path d="M 360.320006 248.937 
L 360.320006 27.177 
" clip-path="url(#pbdb7a6ba87)" style="fill: none; stroke: #cccccc; stroke-width: 0.8; stroke-linecap: round"/>
     </g>
     <g id="text_3">
      <!-- 2018 -->
      <g style="fill: #262626" transform="translate(340.745506 269.83475) scale(0.176 -0.176)">
       <defs>
        <path id="ArialMT-38" d="M 1131 2484 
Q 781 2613 612 2850 
Q 444 3088 444 3419 
Q 444 3919 803 4259 
Q 1163 4600 1759 4600 
Q 2359 4600 2725 4251 
Q 3091 3903 3091 3403 
Q 3091 3084 2923 2848 
Q 2756 2613 2416 2484 
Q 2838 2347 3058 2040 
Q 3278 1734 3278 1309 
Q 3278 722 2862 322 
Q 2447 -78 1769 -78 
Q 1091 -78 675 323 
Q 259 725 259 1325 
Q 259 1772 486 2073 
Q 713 2375 1131 2484 
z
M 1019 3438 
Q 1019 3113 1228 2906 
Q 1438 2700 1772 2700 
Q 2097 2700 2305 2904 
Q 2513 3109 2513 3406 
Q 2513 3716 2298 3927 
Q 2084 4138 1766 4138 
Q 1444 4138 1231 3931 
Q 1019 3725 1019 3438 
z
M 838 1322 
Q 838 1081 952 856 
Q 1066 631 1291 507 
Q 1516 384 1775 384 
Q 2178 384 2440 643 
Q 2703 903 2703 1303 
Q 2703 1709 2433 1975 
Q 2163 2241 1756 2241 
Q 1359 2241 1098 1978 
Q 838 1716 838 1322 
z
" transform="scale(0.015625)"/>
       </defs>
       <use xlink:href="#ArialMT-32"/>
       <use xlink:href="#ArialMT-30" x="55.615234"/>
       <use xlink:href="#ArialMT-31" x="111.230469"/>
       <use xlink:href="#ArialMT-38" x="166.845703"/>
      </g>
     </g>
    </g>
    <g id="xtick_5">
     <g id="line2d_5">
      <path d="M 490.460581 248.937 
L 490.460581 27.177 
" clip-path="url(#pbdb7a6ba87)" style="fill: none; stroke: #cccccc; stroke-width: 0.8; stroke-linecap: round"/>
     </g>
     <g id="text_4">
      <!-- 2019 -->
      <g style="fill: #262626" transform="translate(470.886081 269.83475) scale(0.176 -0.176)">
       <defs>
        <path id="ArialMT-39" d="M 350 1059 
L 891 1109 
Q 959 728 1153 556 
Q 1347 384 1650 384 
Q 1909 384 2104 503 
Q 2300 622 2425 820 
Q 2550 1019 2634 1356 
Q 2719 1694 2719 2044 
Q 2719 2081 2716 2156 
Q 2547 1888 2255 1720 
Q 1963 1553 1622 1553 
Q 1053 1553 659 1965 
Q 266 2378 266 3053 
Q 266 3750 677 4175 
Q 1088 4600 1706 4600 
Q 2153 4600 2523 4359 
Q 2894 4119 3086 3673 
Q 3278 3228 3278 2384 
Q 3278 1506 3087 986 
Q 2897 466 2520 194 
Q 2144 -78 1638 -78 
Q 1100 -78 759 220 
Q 419 519 350 1059 
z
M 2653 3081 
Q 2653 3566 2395 3850 
Q 2138 4134 1775 4134 
Q 1400 4134 1122 3828 
Q 844 3522 844 3034 
Q 844 2597 1108 2323 
Q 1372 2050 1759 2050 
Q 2150 2050 2401 2323 
Q 2653 2597 2653 3081 
z
" transform="scale(0.015625)"/>
       </defs>
       <use xlink:href="#ArialMT-32"/>
       <use xlink:href="#ArialMT-30" x="55.615234"/>
       <use xlink:href="#ArialMT-31" x="111.230469"/>
       <use xlink:href="#ArialMT-39" x="166.845703"/>
      </g>
     </g>
    </g>
    <g id="xtick_6">
     <g id="line2d_6">
      <path d="M 620.601156 248.937 
L 620.601156 27.177 
" clip-path="url(#pbdb7a6ba87)" style="fill: none; stroke: #cccccc; stroke-width: 0.8; stroke-linecap: round"/>
     </g>
     <g id="text_5">
      <!-- 2020 -->
      <g style="fill: #262626" transform="translate(601.026656 269.83475) scale(0.176 -0.176)">
       <use xlink:href="#ArialMT-32"/>
       <use xlink:href="#ArialMT-30" x="55.615234"/>
       <use xlink:href="#ArialMT-32" x="111.230469"/>
       <use xlink:href="#ArialMT-30" x="166.845703"/>
      </g>
     </g>
    </g>
    <g id="xtick_7">
     <g id="line2d_7">
      <path d="M 751.09828 248.937 
L 751.09828 27.177 
" clip-path="url(#pbdb7a6ba87)" style="fill: none; stroke: #cccccc; stroke-width: 0.8; stroke-linecap: round"/>
     </g>
     <g id="text_6">
      <!-- 2021 -->
      <g style="fill: #262626" transform="translate(731.52378 269.83475) scale(0.176 -0.176)">
       <use xlink:href="#ArialMT-32"/>
       <use xlink:href="#ArialMT-30" x="55.615234"/>
       <use xlink:href="#ArialMT-32" x="111.230469"/>
       <use xlink:href="#ArialMT-31" x="166.845703"/>
      </g>
     </g>
    </g>
    <g id="xtick_8">
     <g id="line2d_8">
      <path d="M 848.07975 248.937 
L 848.07975 27.177 
" clip-path="url(#pbdb7a6ba87)" style="fill: none; stroke: #cccccc; stroke-width: 0.8; stroke-linecap: round"/>
     </g>
    </g>
    <g id="xtick_9"/>
    <g id="xtick_10"/>
    <g id="xtick_11"/>
    <g id="xtick_12"/>
    <g id="xtick_13"/>
    <g id="xtick_14"/>
    <g id="xtick_15"/>
    <g id="xtick_16"/>
    <g id="xtick_17"/>
    <g id="xtick_18"/>
    <g id="xtick_19"/>
    <g id="xtick_20"/>
    <g id="xtick_21"/>
    <g id="xtick_22"/>
    <g id="xtick_23"/>
    <g id="xtick_24"/>
    <g id="xtick_25"/>
    <g id="text_7">
     <!-- Date -->
     <g style="fill: #262626" transform="translate(437.20275 291.07575) scale(0.192 -0.192)">
      <defs>
       <path id="ArialMT-44" d="M 494 0 
L 494 4581 
L 2072 4581 
Q 2606 4581 2888 4516 
Q 3281 4425 3559 4188 
Q 3922 3881 4101 3404 
Q 4281 2928 4281 2316 
Q 4281 1794 4159 1391 
Q 4038 988 3847 723 
Q 3656 459 3429 307 
Q 3203 156 2883 78 
Q 2563 0 2147 0 
L 494 0 
z
M 1100 541 
L 2078 541 
Q 2531 541 2789 625 
Q 3047 709 3200 863 
Q 3416 1078 3536 1442 
Q 3656 1806 3656 2325 
Q 3656 3044 3420 3430 
Q 3184 3816 2847 3947 
Q 2603 4041 2063 4041 
L 1100 4041 
L 1100 541 
z
" transform="scale(0.015625)"/>
       <path id="ArialMT-61" d="M 2588 409 
Q 2275 144 1986 34 
Q 1697 -75 1366 -75 
Q 819 -75 525 192 
Q 231 459 231 875 
Q 231 1119 342 1320 
Q 453 1522 633 1644 
Q 813 1766 1038 1828 
Q 1203 1872 1538 1913 
Q 2219 1994 2541 2106 
Q 2544 2222 2544 2253 
Q 2544 2597 2384 2738 
Q 2169 2928 1744 2928 
Q 1347 2928 1158 2789 
Q 969 2650 878 2297 
L 328 2372 
Q 403 2725 575 2942 
Q 747 3159 1072 3276 
Q 1397 3394 1825 3394 
Q 2250 3394 2515 3294 
Q 2781 3194 2906 3042 
Q 3031 2891 3081 2659 
Q 3109 2516 3109 2141 
L 3109 1391 
Q 3109 606 3145 398 
Q 3181 191 3288 0 
L 2700 0 
Q 2613 175 2588 409 
z
M 2541 1666 
Q 2234 1541 1622 1453 
Q 1275 1403 1131 1340 
Q 988 1278 909 1158 
Q 831 1038 831 891 
Q 831 666 1001 516 
Q 1172 366 1500 366 
Q 1825 366 2078 508 
Q 2331 650 2450 897 
Q 2541 1088 2541 1459 
L 2541 1666 
z
" transform="scale(0.015625)"/>
       <path id="ArialMT-74" d="M 1650 503 
L 1731 6 
Q 1494 -44 1306 -44 
Q 1000 -44 831 53 
Q 663 150 594 308 
Q 525 466 525 972 
L 525 2881 
L 113 2881 
L 113 3319 
L 525 3319 
L 525 4141 
L 1084 4478 
L 1084 3319 
L 1650 3319 
L 1650 2881 
L 1084 2881 
L 1084 941 
Q 1084 700 1114 631 
Q 1144 563 1211 522 
Q 1278 481 1403 481 
Q 1497 481 1650 503 
z
" transform="scale(0.015625)"/>
       <path id="ArialMT-65" d="M 2694 1069 
L 3275 997 
Q 3138 488 2766 206 
Q 2394 -75 1816 -75 
Q 1088 -75 661 373 
Q 234 822 234 1631 
Q 234 2469 665 2931 
Q 1097 3394 1784 3394 
Q 2450 3394 2872 2941 
Q 3294 2488 3294 1666 
Q 3294 1616 3291 1516 
L 816 1516 
Q 847 969 1125 678 
Q 1403 388 1819 388 
Q 2128 388 2347 550 
Q 2566 713 2694 1069 
z
M 847 1978 
L 2700 1978 
Q 2663 2397 2488 2606 
Q 2219 2931 1791 2931 
Q 1403 2931 1139 2672 
Q 875 2413 847 1978 
z
" transform="scale(0.015625)"/>
      </defs>
      <use xlink:href="#ArialMT-44"/>
      <use xlink:href="#ArialMT-61" x="72.216797"/>
      <use xlink:href="#ArialMT-74" x="127.832031"/>
      <use xlink:href="#ArialMT-65" x="155.615234"/>
     </g>
    </g>
   </g>
   <g id="matplotlib.axis_2">
    <g id="ytick_1">
     <g id="line2d_9">
      <path d="M 66.87975 244.246055 
L 848.07975 244.246055 
" clip-path="url(#pbdb7a6ba87)" style="fill: none; stroke: #cccccc; stroke-width: 0.8; stroke-linecap: round"/>
     </g>
     <g id="text_8">
      <!-- 0 -->
      <g style="fill: #262626" transform="translate(48.7925 250.54493) scale(0.176 -0.176)">
       <use xlink:href="#ArialMT-30"/>
      </g>
     </g>
    </g>
    <g id="ytick_2">
     <g id="line2d_10">
      <path d="M 66.87975 170.845681 
L 848.07975 170.845681 
" clip-path="url(#pbdb7a6ba87)" style="fill: none; stroke: #cccccc; stroke-width: 0.8; stroke-linecap: round"/>
     </g>
     <g id="text_9">
      <!-- 50 -->
      <g style="fill: #262626" transform="translate(39.00525 177.144556) scale(0.176 -0.176)">
       <defs>
        <path id="ArialMT-35" d="M 266 1200 
L 856 1250 
Q 922 819 1161 601 
Q 1400 384 1738 384 
Q 2144 384 2425 690 
Q 2706 997 2706 1503 
Q 2706 1984 2436 2262 
Q 2166 2541 1728 2541 
Q 1456 2541 1237 2417 
Q 1019 2294 894 2097 
L 366 2166 
L 809 4519 
L 3088 4519 
L 3088 3981 
L 1259 3981 
L 1013 2750 
Q 1425 3038 1878 3038 
Q 2478 3038 2890 2622 
Q 3303 2206 3303 1553 
Q 3303 931 2941 478 
Q 2500 -78 1738 -78 
Q 1113 -78 717 272 
Q 322 622 266 1200 
z
" transform="scale(0.015625)"/>
       </defs>
       <use xlink:href="#ArialMT-35"/>
       <use xlink:href="#ArialMT-30" x="55.615234"/>
      </g>
     </g>
    </g>
    <g id="ytick_3">
     <g id="line2d_11">
      <path d="M 66.87975 97.445307 
L 848.07975 97.445307 
" clip-path="url(#pbdb7a6ba87)" style="fill: none; stroke: #cccccc; stroke-width: 0.8; stroke-linecap: round"/>
     </g>
     <g id="text_10">
      <!-- 100 -->
      <g style="fill: #262626" transform="translate(29.218 103.744182) scale(0.176 -0.176)">
       <use xlink:href="#ArialMT-31"/>
       <use xlink:href="#ArialMT-30" x="55.615234"/>
       <use xlink:href="#ArialMT-30" x="111.230469"/>
      </g>
     </g>
    </g>
    <g id="text_11">
     <!-- Price (€/MWh) -->
     <g style="fill: #262626" transform="translate(21.177 199.3905) rotate(-90) scale(0.192 -0.192)">
      <defs>
       <path id="ArialMT-50" d="M 494 0 
L 494 4581 
L 2222 4581 
Q 2678 4581 2919 4538 
Q 3256 4481 3484 4323 
Q 3713 4166 3852 3881 
Q 3991 3597 3991 3256 
Q 3991 2672 3619 2267 
Q 3247 1863 2275 1863 
L 1100 1863 
L 1100 0 
L 494 0 
z
M 1100 2403 
L 2284 2403 
Q 2872 2403 3119 2622 
Q 3366 2841 3366 3238 
Q 3366 3525 3220 3729 
Q 3075 3934 2838 4000 
Q 2684 4041 2272 4041 
L 1100 4041 
L 1100 2403 
z
" transform="scale(0.015625)"/>
       <path id="ArialMT-72" d="M 416 0 
L 416 3319 
L 922 3319 
L 922 2816 
Q 1116 3169 1280 3281 
Q 1444 3394 1641 3394 
Q 1925 3394 2219 3213 
L 2025 2691 
Q 1819 2813 1613 2813 
Q 1428 2813 1281 2702 
Q 1134 2591 1072 2394 
Q 978 2094 978 1738 
L 978 0 
L 416 0 
z
" transform="scale(0.015625)"/>
       <path id="ArialMT-69" d="M 425 3934 
L 425 4581 
L 988 4581 
L 988 3934 
L 425 3934 
z
M 425 0 
L 425 3319 
L 988 3319 
L 988 0 
L 425 0 
z
" transform="scale(0.015625)"/>
       <path id="ArialMT-63" d="M 2588 1216 
L 3141 1144 
Q 3050 572 2676 248 
Q 2303 -75 1759 -75 
Q 1078 -75 664 370 
Q 250 816 250 1647 
Q 250 2184 428 2587 
Q 606 2991 970 3192 
Q 1334 3394 1763 3394 
Q 2303 3394 2647 3120 
Q 2991 2847 3088 2344 
L 2541 2259 
Q 2463 2594 2264 2762 
Q 2066 2931 1784 2931 
Q 1359 2931 1093 2626 
Q 828 2322 828 1663 
Q 828 994 1084 691 
Q 1341 388 1753 388 
Q 2084 388 2306 591 
Q 2528 794 2588 1216 
z
" transform="scale(0.015625)"/>
       <path id="ArialMT-20" transform="scale(0.015625)"/>
       <path id="ArialMT-28" d="M 1497 -1347 
Q 1031 -759 709 28 
Q 388 816 388 1659 
Q 388 2403 628 3084 
Q 909 3875 1497 4659 
L 1900 4659 
Q 1522 4009 1400 3731 
Q 1209 3300 1100 2831 
Q 966 2247 966 1656 
Q 966 153 1900 -1347 
L 1497 -1347 
z
" transform="scale(0.015625)"/>
       <path id="ArialMT-20ac" d="M 2469 4141 
Q 1944 4141 1588 3888 
Q 1375 3738 1203 3463 
Q 1028 3178 997 2922 
L 3128 2922 
L 3044 2503 
L 947 2503 
Q 944 2438 944 2378 
Q 944 2138 947 2091 
L 2959 2091 
L 2872 1672 
L 1013 1672 
Q 1144 956 1644 656 
Q 2003 441 2422 441 
Q 3006 441 3334 747 
L 3334 103 
Q 2944 -78 2472 -78 
Q 1059 -78 563 1097 
Q 463 1334 391 1672 
L -88 1672 
L 0 2091 
L 328 2091 
Q 319 2222 319 2375 
Q 319 2438 322 2503 
L -88 2503 
L 0 2922 
L 363 2922 
Q 556 3941 1372 4384 
Q 1875 4659 2481 4659 
Q 3063 4659 3459 4406 
L 3334 3825 
Q 2953 4141 2469 4141 
z
" transform="scale(0.015625)"/>
       <path id="ArialMT-2f" d="M 0 -78 
L 1328 4659 
L 1778 4659 
L 453 -78 
L 0 -78 
z
" transform="scale(0.015625)"/>
       <path id="ArialMT-4d" d="M 475 0 
L 475 4581 
L 1388 4581 
L 2472 1338 
Q 2622 884 2691 659 
Q 2769 909 2934 1394 
L 4031 4581 
L 4847 4581 
L 4847 0 
L 4263 0 
L 4263 3834 
L 2931 0 
L 2384 0 
L 1059 3900 
L 1059 0 
L 475 0 
z
" transform="scale(0.015625)"/>
       <path id="ArialMT-57" d="M 1294 0 
L 78 4581 
L 700 4581 
L 1397 1578 
Q 1509 1106 1591 641 
Q 1766 1375 1797 1488 
L 2669 4581 
L 3400 4581 
L 4056 2263 
Q 4303 1400 4413 641 
Q 4500 1075 4641 1638 
L 5359 4581 
L 5969 4581 
L 4713 0 
L 4128 0 
L 3163 3491 
Q 3041 3928 3019 4028 
Q 2947 3713 2884 3491 
L 1913 0 
L 1294 0 
z
" transform="scale(0.015625)"/>
       <path id="ArialMT-68" d="M 422 0 
L 422 4581 
L 984 4581 
L 984 2938 
Q 1378 3394 1978 3394 
Q 2347 3394 2619 3248 
Q 2891 3103 3008 2847 
Q 3125 2591 3125 2103 
L 3125 0 
L 2563 0 
L 2563 2103 
Q 2563 2525 2380 2717 
Q 2197 2909 1863 2909 
Q 1613 2909 1392 2779 
Q 1172 2650 1078 2428 
Q 984 2206 984 1816 
L 984 0 
L 422 0 
z
" transform="scale(0.015625)"/>
       <path id="ArialMT-29" d="M 791 -1347 
L 388 -1347 
Q 1322 153 1322 1656 
Q 1322 2244 1188 2822 
Q 1081 3291 891 3722 
Q 769 4003 388 4659 
L 791 4659 
Q 1378 3875 1659 3084 
Q 1900 2403 1900 1659 
Q 1900 816 1576 28 
Q 1253 -759 791 -1347 
z
" transform="scale(0.015625)"/>
      </defs>
      <use xlink:href="#ArialMT-50"/>
      <use xlink:href="#ArialMT-72" x="66.699219"/>
      <use xlink:href="#ArialMT-69" x="100"/>
      <use xlink:href="#ArialMT-63" x="122.216797"/>
      <use xlink:href="#ArialMT-65" x="172.216797"/>
      <use xlink:href="#ArialMT-20" x="227.832031"/>
      <use xlink:href="#ArialMT-28" x="255.615234"/>
      <use xlink:href="#ArialMT-20ac" x="288.916016"/>
      <use xlink:href="#ArialMT-2f" x="344.53125"/>
      <use xlink:href="#ArialMT-4d" x="372.314453"/>
      <use xlink:href="#ArialMT-57" x="455.615234"/>
      <use xlink:href="#ArialMT-68" x="550"/>
      <use xlink:href="#ArialMT-29" x="605.615234"/>
     </g>
    </g>
   </g>
   <g id="line2d_12">
    <path d="M 66.87975 216.412634 
L 67.2363 216.152796 
L 67.592849 218.40472 
L 67.949399 218.297555 
L 68.305948 216.353913 
L 68.662498 216.005995 
L 69.019047 215.198591 
L 69.375597 215.032707 
L 69.732146 215.61991 
L 70.088696 214.794889 
L 70.445245 214.794889 
L 70.801795 213.417898 
L 71.158344 170.845681 
L 71.514894 214.831589 
L 71.871443 215.473109 
L 72.227993 216.417038 
L 72.584542 170.845681 
L 72.941092 207.545868 
L 73.297641 213.417898 
L 73.654191 215.399708 
L 74.01074 216.318681 
L 74.36729 215.198591 
L 74.723839 215.252908 
L 75.080389 216.060312 
L 75.436938 214.885906 
L 76.150038 215.473109 
L 77.219686 215.913511 
L 77.576236 215.216207 
L 77.932785 215.289608 
L 78.289335 214.885906 
L 78.645884 216.647515 
L 79.002434 216.720915 
L 79.358983 216.226197 
L 79.715533 211.949891 
L 80.072082 218.837782 
L 80.428632 218.767318 
L 80.785181 217.63842 
L 81.141731 217.381518 
L 81.49828 215.76671 
L 81.85483 217.234718 
L 82.211379 215.032707 
L 82.567929 217.381518 
L 82.924478 217.271418 
L 83.281028 217.914405 
L 83.637577 216.977816 
L 83.994127 217.491619 
L 84.350677 215.363008 
L 85.063776 217.087917 
L 85.420325 217.454919 
L 85.776875 216.720915 
L 86.133424 217.918809 
L 86.489974 217.537127 
L 86.846523 216.464014 
L 87.203073 216.831016 
L 87.559622 215.969295 
L 87.916172 216.060312 
L 88.272721 216.353913 
L 88.629271 214.885906 
L 88.98582 215.840111 
L 89.34237 217.540063 
L 89.698919 215.032707 
L 90.055469 216.500714 
L 90.412018 215.646334 
L 90.768568 218.429676 
L 91.125117 218.225623 
L 91.481667 210.518583 
L 91.838216 215.65661 
L 92.194766 217.124617 
L 92.551315 217.67512 
L 92.907865 218.519224 
L 93.264415 216.060312 
L 93.620964 217.821921 
L 93.977514 218.996327 
L 94.334063 221.662228 
L 94.690613 220.170733 
L 95.047162 222.093823 
L 95.403712 219.73033 
L 96.47336 220.060632 
L 96.82991 220.757936 
L 97.186459 220.89446 
L 97.543009 223.880388 
L 98.256108 216.353913 
L 98.612657 220.390934 
L 98.969207 218.555924 
L 99.325756 219.363329 
L 99.682306 217.087917 
L 100.038855 219.595274 
L 100.395405 200.205831 
L 100.751954 218.996327 
L 101.108504 218.641069 
L 101.465054 200.536133 
L 101.821603 219.179828 
L 102.178153 98.913314 
L 102.534702 219.154872 
L 102.891252 219.301672 
L 103.247801 209.74788 
L 103.604351 219.558574 
L 103.9609 203.141846 
L 104.31745 216.537414 
L 104.673999 217.234718 
L 105.030549 220.87978 
L 105.387098 201.673838 
L 105.743648 220.365978 
L 106.100197 220.170733 
L 106.456747 221.099981 
L 106.813296 222.482845 
L 107.169846 222.666345 
L 107.526395 220.794636 
L 107.882945 220.684535 
L 108.239494 222.005742 
L 108.596044 210.628684 
L 108.952593 218.996327 
L 109.309143 218.409124 
L 109.665692 214.922606 
L 110.022242 220.757936 
L 110.378792 220.757936 
L 110.735341 221.785541 
L 111.091891 220.757936 
L 111.44844 221.051537 
L 111.80499 220.574435 
L 112.161539 222.592945 
L 112.518089 222.886547 
L 112.874638 220.904736 
L 113.231188 222.446144 
L 113.587737 221.785541 
L 113.944287 219.73033 
L 114.300836 222.556245 
L 114.657386 222.336044 
L 115.013935 222.959947 
L 115.370485 222.641389 
L 115.727034 216.353913 
L 116.083584 222.666345 
L 116.440133 223.987552 
L 117.153232 217.821921 
L 117.509782 219.803731 
L 117.866331 223.840751 
L 118.222881 215.179507 
L 118.579431 217.968721 
L 118.93598 221.980786 
L 119.29253 219.326628 
L 119.649079 222.592945 
L 120.005629 223.180148 
L 120.362178 222.152543 
L 120.718728 211.986591 
L 121.075277 213.417898 
L 121.431827 223.693951 
L 121.788376 221.124938 
L 122.144926 223.693951 
L 122.501475 222.372744 
L 122.858025 224.281154 
L 123.214574 223.594126 
L 123.571124 223.693951 
L 123.927673 224.574755 
L 124.284223 223.693951 
L 124.640772 224.868357 
L 124.997322 217.161317 
L 125.353871 222.776446 
L 125.710421 222.225943 
L 126.06697 223.594126 
L 126.42352 223.987552 
L 126.780069 223.253548 
L 127.136619 223.326949 
L 127.493169 223.767351 
L 127.849718 224.538055 
L 128.206268 216.353913 
L 128.562817 224.427954 
L 128.919367 220.060632 
L 129.275916 223.693951 
L 129.632466 224.171053 
L 129.989015 225.125258 
L 130.345565 224.868357 
L 130.702114 223.693951 
L 131.058664 224.281154 
L 131.415213 224.060953 
L 131.771763 221.491939 
L 132.128312 224.281154 
L 132.484862 224.427954 
L 132.841411 224.427954 
L 133.197961 217.234718 
L 133.55451 224.134353 
L 133.91106 225.308759 
L 134.267609 225.161958 
L 134.980708 225.161958 
L 135.337258 225.895962 
L 135.693808 226.262964 
L 136.050357 225.235359 
L 136.406907 225.895962 
L 136.763456 225.60236 
L 137.120006 226.116163 
L 137.476555 225.969362 
L 137.833105 224.574755 
L 138.189654 224.868357 
L 138.546204 223.51045 
L 138.902753 224.574755 
L 139.259303 225.125258 
L 139.615852 224.354554 
L 139.972402 221.491939 
L 140.328951 223.180148 
L 140.685501 220.978137 
L 141.04205 214.885906 
L 141.3986 211.656289 
L 141.755149 218.922926 
L 142.111699 221.491939 
L 142.468248 220.941437 
L 142.824798 223.804051 
L 143.181347 223.400349 
L 143.894446 224.721556 
L 144.250996 224.427954 
L 144.607546 224.721556 
L 144.964095 224.794956 
L 145.320645 224.501355 
L 145.677194 223.730651 
L 146.033744 223.400349 
L 146.390293 223.693951 
L 147.103392 222.959947 
L 147.459942 223.54715 
L 147.816491 224.574755 
L 148.52959 222.519545 
L 148.88614 223.253548 
L 149.242689 223.253548 
L 149.599239 223.400349 
L 149.955788 222.959947 
L 150.312338 223.693951 
L 151.025437 222.299344 
L 151.381986 223.143448 
L 151.738536 223.65725 
L 152.451635 222.225943 
L 152.808185 222.666345 
L 153.164734 221.63874 
L 153.877833 222.225943 
L 154.234383 222.225943 
L 154.590932 221.63874 
L 154.947482 222.225943 
L 155.304031 222.372744 
L 155.660581 221.785541 
L 156.01713 221.60204 
L 156.37368 220.941437 
L 157.086779 220.757936 
L 157.443328 222.225943 
L 157.799878 222.519545 
L 158.156427 221.748841 
L 158.512977 222.519545 
L 158.869526 222.299344 
L 159.226076 221.895642 
L 159.582625 221.858941 
L 159.939175 221.491939 
L 160.295724 222.987839 
L 160.652274 219.62023 
L 161.008823 221.938214 
L 161.365373 221.051537 
L 161.721923 220.611135 
L 162.078472 220.757936 
L 162.435022 221.455239 
L 162.791571 221.345139 
L 163.148121 221.932342 
L 163.50467 220.023932 
L 163.86122 222.005742 
L 164.217769 220.134033 
L 164.574319 221.932342 
L 164.930868 222.225943 
L 165.287418 221.67544 
L 165.643967 221.63874 
L 166.000517 222.079142 
L 166.357066 222.948203 
L 166.713616 222.955543 
L 167.070165 222.225943 
L 167.426715 222.629645 
L 167.783264 222.813146 
L 168.139814 219.950532 
L 168.496363 221.67544 
L 168.852913 221.088237 
L 169.209462 221.60204 
L 169.566012 221.67544 
L 169.922562 222.262643 
L 170.279111 221.969042 
L 170.99221 221.858941 
L 171.34876 221.345139 
L 171.705309 219.840431 
L 172.061859 221.051537 
L 172.418408 221.345139 
L 172.774958 223.042155 
L 173.131507 221.345139 
L 173.488057 221.345139 
L 174.201156 221.932342 
L 174.557705 221.712141 
L 174.914255 222.666345 
L 175.627354 222.776446 
L 175.983903 222.409444 
L 176.697002 222.959947 
L 177.053552 223.54715 
L 177.410101 223.804051 
L 177.766651 225.201594 
L 178.47975 224.171053 
L 178.8363 224.207753 
L 179.192849 224.427954 
L 179.905948 225.308759 
L 180.262498 226.919163 
L 180.619047 225.308759 
L 180.975597 225.895962 
L 181.332146 225.895962 
L 181.688696 225.198658 
L 182.045245 225.345459 
L 182.401795 226.629966 
L 182.758344 227.363969 
L 183.114894 226.042763 
L 183.471443 226.556565 
L 183.827993 226.116163 
L 184.184542 226.703366 
L 184.897641 225.639061 
L 185.254191 226.189563 
L 185.61074 223.804051 
L 185.96729 224.427954 
L 186.323839 224.207753 
L 187.036938 223.326949 
L 187.393488 224.648156 
L 187.750038 224.868357 
L 188.106587 223.987552 
L 188.463137 225.235359 
L 188.819686 225.088558 
L 189.532785 226.336364 
L 189.889335 225.895962 
L 190.245884 226.409765 
L 190.602434 226.116163 
L 190.958983 225.45556 
L 191.315533 225.60236 
L 192.028632 226.116163 
L 192.385181 225.161958 
L 192.741731 223.730651 
L 193.09828 225.015157 
L 193.45483 223.253548 
L 193.811379 225.139938 
L 194.524478 223.914152 
L 194.881028 223.47375 
L 195.237577 223.767351 
L 195.594127 222.813146 
L 195.950677 223.400349 
L 196.307226 224.501355 
L 197.020325 223.180148 
L 197.376875 225.004881 
L 197.733424 223.693951 
L 198.089974 224.281154 
L 199.159622 213.417898 
L 199.516172 218.225623 
L 199.872721 220.023932 
L 200.229271 219.143127 
L 200.58582 220.060632 
L 200.94237 219.289928 
L 201.298919 219.65693 
L 201.655469 219.143127 
L 202.012018 219.950532 
L 202.368568 219.73033 
L 202.725117 220.244133 
L 203.081667 218.409124 
L 203.438216 218.996327 
L 203.794766 214.151902 
L 204.151315 217.234718 
L 204.507865 217.418219 
L 204.864415 217.454919 
L 205.577514 217.234718 
L 205.934063 216.097012 
L 206.290613 217.857153 
L 206.647162 216.353913 
L 207.003712 215.76671 
L 207.360261 217.198018 
L 207.716811 214.885906 
L 208.07336 217.234718 
L 208.42991 216.500714 
L 208.786459 209.454278 
L 209.143009 213.124297 
L 209.499558 214.151902 
L 209.856108 216.133712 
L 210.212657 217.076173 
L 210.569207 216.207113 
L 210.925756 213.160997 
L 211.282306 213.417898 
L 211.638855 217.394731 
L 211.995405 216.82808 
L 212.351954 215.876811 
L 212.708504 212.023291 
L 213.065054 213.564699 
L 213.778153 217.758796 
L 214.134702 217.087917 
L 214.491252 215.913511 
L 214.847801 216.353913 
L 215.204351 215.546509 
L 215.5609 218.008358 
L 215.91745 217.821921 
L 216.273999 216.977816 
L 216.630549 215.252908 
L 216.987098 210.114881 
L 217.343648 215.473109 
L 217.700197 209.307477 
L 218.056747 207.545868 
L 218.413296 214.482204 
L 219.126395 214.665705 
L 219.482945 216.060312 
L 219.839494 212.353593 
L 220.196044 213.564699 
L 220.552593 210.518583 
L 220.909143 211.80309 
L 221.265692 217.087917 
L 221.622242 216.023612 
L 221.978792 217.087917 
L 222.335341 217.087917 
L 222.691891 218.409124 
L 223.04844 218.717405 
L 223.40499 215.179507 
L 223.761539 216.904416 
L 224.118089 213.417898 
L 224.474638 212.757295 
L 224.831188 216.353913 
L 225.187737 216.647515 
L 225.544287 217.553275 
L 225.900836 211.949891 
L 226.257386 211.949891 
L 226.613935 216.023612 
L 227.327034 217.717692 
L 227.683584 218.271131 
L 228.040133 213.381198 
L 228.396683 214.298703 
L 228.753232 216.679811 
L 229.109782 214.445504 
L 229.466331 207.545868 
L 229.822881 211.949891 
L 230.179431 210.628684 
L 230.53598 203.141846 
L 230.89253 209.454278 
L 231.249079 209.087276 
L 231.605629 201.673838 
L 231.962178 209.013876 
L 232.318728 208.867075 
L 232.675277 214.151902 
L 233.031827 213.381198 
L 233.744926 213.417898 
L 234.101475 210.481883 
L 234.458025 210.481883 
L 234.814574 213.014196 
L 235.171124 209.74788 
L 235.527673 209.013876 
L 235.884223 207.545868 
L 236.240772 210.481883 
L 236.597322 212.426993 
L 237.310421 210.481883 
L 237.66697 199.692028 
L 238.02352 185.525756 
L 238.380069 207.83947 
L 238.736619 209.123976 
L 239.093169 211.142487 
L 239.449718 211.362688 
L 239.806268 209.89468 
L 240.162817 213.050896 
L 240.519367 212.316893 
L 240.875916 211.069086 
L 241.232466 208.279872 
L 241.589015 209.270777 
L 241.945565 209.74788 
L 242.302114 208.867075 
L 242.658664 207.545868 
L 243.015213 207.545868 
L 243.371763 207.83947 
L 243.728312 211.290755 
L 244.084862 211.80309 
L 244.441411 209.74788 
L 244.797961 212.316893 
L 245.15451 212.573794 
L 245.51106 212.390293 
L 245.867609 214.298703 
L 246.224159 215.443749 
L 246.580708 215.436409 
L 246.937258 215.195655 
L 247.293808 215.179507 
L 247.650357 213.564699 
L 248.363456 215.583209 
L 249.433105 214.885906 
L 249.789654 215.179507 
L 250.502753 217.402071 
L 250.859303 215.61991 
L 251.928951 218.042122 
L 252.285501 219.119639 
L 252.64205 215.032707 
L 252.9986 216.647515 
L 254.068248 218.262323 
L 254.424798 217.821921 
L 254.781347 218.776126 
L 255.137897 218.555924 
L 255.494446 219.439665 
L 255.850996 218.445824 
L 256.207546 219.998976 
L 256.564095 218.372424 
L 256.920645 218.702725 
L 257.277194 219.326628 
L 257.633744 219.54683 
L 257.990293 219.289928 
L 258.346843 218.555924 
L 258.703392 219.840431 
L 259.416491 219.950532 
L 259.773041 221.265866 
L 260.12959 220.390934 
L 260.842689 221.781137 
L 261.199239 221.688652 
L 261.555788 221.098513 
L 261.912338 221.215954 
L 262.268887 220.097332 
L 262.625437 220.577371 
L 262.981986 219.65693 
L 263.338536 219.069727 
L 263.695085 219.586466 
L 264.051635 218.776126 
L 264.408185 218.776126 
L 264.764734 218.555924 
L 265.121284 220.417358 
L 265.834383 220.157521 
L 266.190932 220.36451 
L 266.904031 220.232389 
L 267.61713 220.175137 
L 267.97368 220.035676 
L 268.330229 219.289928 
L 268.686779 217.087917 
L 269.043328 218.188923 
L 269.399878 219.665738 
L 269.756427 217.60172 
L 270.112977 219.301672 
L 270.469526 218.555924 
L 270.826076 219.543894 
L 271.182625 217.821921 
L 271.539175 219.31048 
L 271.895724 219.219464 
L 272.608823 220.173669 
L 272.965373 218.409124 
L 273.321923 213.417898 
L 273.678472 218.409124 
L 274.035022 218.262323 
L 274.391571 218.702725 
L 274.748121 219.58353 
L 275.10467 218.445824 
L 275.46122 218.042122 
L 275.817769 219.885939 
L 276.174319 219.179828 
L 276.530868 220.250005 
L 276.887418 219.58353 
L 277.243967 219.913831 
L 277.600517 220.539203 
L 277.957066 219.803731 
L 278.313616 220.617007 
L 278.670165 220.562691 
L 279.026715 220.390934 
L 279.383264 220.023932 
L 279.739814 220.134033 
L 280.096363 220.822528 
L 280.452913 219.877131 
L 280.809462 220.900332 
L 281.522562 220.390934 
L 281.879111 221.161638 
L 282.235661 221.490471 
L 282.59221 221.356883 
L 282.94876 220.170733 
L 283.305309 219.803731 
L 283.661859 220.207433 
L 284.018408 220.807848 
L 284.374958 220.023932 
L 284.731507 220.170733 
L 286.157705 221.442027 
L 286.514255 221.051537 
L 287.227354 221.051537 
L 287.583903 221.377435 
L 287.940453 221.013369 
L 288.297002 221.246782 
L 288.653552 221.235038 
L 289.010101 221.099981 
L 289.366651 221.556532 
L 290.07975 219.289928 
L 290.4363 220.464334 
L 290.792849 220.794636 
L 291.149399 220.788764 
L 291.505948 217.895321 
L 291.862498 220.611135 
L 292.219047 221.841325 
L 292.575597 221.684248 
L 293.288696 220.986945 
L 294.714894 220.684535 
L 295.071443 221.381839 
L 295.427993 220.390934 
L 295.784542 221.117598 
L 296.141092 221.318715 
L 296.497641 220.757936 
L 297.21074 221.496343 
L 297.56729 221.455239 
L 297.923839 220.280833 
L 298.280389 220.501034 
L 298.636938 221.60204 
L 299.350038 221.124938 
L 299.706587 222.060058 
L 300.419686 222.120247 
L 300.776236 221.271738 
L 301.132785 221.235038 
L 301.489335 221.50662 
L 301.845884 220.757936 
L 302.202434 221.760585 
L 302.558983 221.590296 
L 302.915533 221.684248 
L 303.272082 220.794636 
L 303.628632 220.757936 
L 303.985181 220.060632 
L 304.341731 221.327523 
L 304.69828 221.663696 
L 305.05483 221.732693 
L 305.411379 220.464334 
L 305.767929 221.353947 
L 306.124478 221.569744 
L 306.481028 220.574435 
L 306.837577 221.497811 
L 307.194127 221.051537 
L 307.550677 221.665164 
L 307.907226 220.684535 
L 308.263776 220.390934 
L 308.620325 219.436729 
L 308.976875 219.73033 
L 309.333424 218.922926 
L 310.046523 220.07678 
L 310.403073 220.029804 
L 310.759622 220.589115 
L 311.472721 220.097332 
L 311.829271 219.106427 
L 312.18582 219.897683 
L 312.54237 220.01806 
L 312.898919 219.033027 
L 313.255469 219.740607 
L 313.612018 219.65693 
L 314.325117 218.629325 
L 314.681667 219.825751 
L 315.038216 219.850707 
L 315.394766 219.629038 
L 316.107865 219.574722 
L 316.464415 218.335723 
L 316.820964 218.482524 
L 317.534063 219.831623 
L 317.890613 218.592625 
L 318.247162 219.661334 
L 318.603712 218.005422 
L 318.960261 219.016879 
L 319.316811 217.418219 
L 320.02991 219.400029 
L 320.386459 217.60172 
L 320.743009 218.312235 
L 321.099558 217.014517 
L 321.456108 216.720915 
L 321.812657 217.087917 
L 322.169207 213.7115 
L 322.525756 218.031846 
L 322.882306 214.885906 
L 323.238855 217.567955 
L 323.595405 216.353913 
L 323.951954 217.904129 
L 324.308504 216.720915 
L 324.665054 219.282588 
L 325.378153 218.710065 
L 325.734702 217.124617 
L 326.091252 217.680992 
L 326.447801 217.234718 
L 326.804351 217.747052 
L 327.1609 218.555924 
L 327.51745 218.996327 
L 327.873999 217.087917 
L 328.230549 217.74852 
L 328.587098 217.124617 
L 328.943648 217.344818 
L 329.656747 216.060312 
L 330.013296 217.723564 
L 330.369846 216.353913 
L 330.726395 216.848632 
L 331.082945 217.570891 
L 331.796044 218.444356 
L 332.152593 217.821921 
L 332.509143 217.454919 
L 332.865692 218.812826 
L 333.222242 219.033027 
L 333.578792 217.234718 
L 333.935341 210.481883 
L 334.291891 217.858621 
L 334.64844 219.081471 
L 335.00499 217.381518 
L 335.361539 217.087917 
L 335.718089 217.161317 
L 336.074638 217.821921 
L 336.431188 217.308118 
L 336.787737 215.65661 
L 337.144287 214.665705 
L 337.500836 217.308118 
L 337.857386 214.996006 
L 338.213935 216.353913 
L 338.570485 216.353913 
L 339.283584 216.93084 
L 339.640133 216.353913 
L 339.996683 217.432899 
L 340.353232 214.225302 
L 340.709782 215.252908 
L 341.066331 214.298703 
L 341.422881 215.169231 
L 342.13598 214.665705 
L 342.49253 210.848885 
L 342.849079 214.005101 
L 343.205629 212.390293 
L 343.562178 214.866822 
L 343.918728 213.931701 
L 344.275277 215.116383 
L 344.631827 214.885906 
L 344.988376 215.577337 
L 345.344926 214.482204 
L 345.701475 214.802229 
L 346.058025 214.752317 
L 346.414574 214.225302 
L 346.771124 212.720595 
L 347.127673 213.234397 
L 347.484223 212.647194 
L 347.840772 210.665384 
L 348.197322 212.390293 
L 348.553871 210.591984 
L 348.910421 212.096692 
L 349.26697 212.977496 
L 349.62352 211.692989 
L 349.980069 212.537094 
L 350.336619 207.545868 
L 350.693169 210.775485 
L 351.049718 211.87649 
L 351.406268 210.481883 
L 351.762817 209.78458 
L 352.119367 209.380878 
L 352.475916 210.922286 
L 352.832466 195.801808 
L 353.189015 196.09541 
L 353.545565 206.554963 
L 353.902114 206.811865 
L 354.258664 210.812185 
L 354.615213 211.105786 
L 354.971763 209.270777 
L 355.328312 204.609853 
L 356.041411 212.757295 
L 356.397961 212.059991 
L 356.75451 213.050896 
L 357.11106 215.185379 
L 357.467609 215.230888 
L 357.824159 214.592304 
L 358.537258 211.949891 
L 358.893808 213.454598 
L 359.250357 214.005101 
L 359.606907 214.885906 
L 359.963456 215.399708 
L 360.320006 211.949891 
L 360.676555 200.242531 
L 361.033105 213.638099 
L 361.389654 214.225302 
L 361.746204 214.592304 
L 362.102753 215.179507 
L 362.459303 212.390293 
L 362.815852 211.80309 
L 363.172402 213.7115 
L 363.528951 214.518904 
L 363.885501 214.408803 
L 364.24205 207.582569 
L 364.5986 213.491299 
L 364.955149 213.7849 
L 365.311699 213.858301 
L 365.668248 204.609853 
L 366.024798 214.372103 
L 366.381347 212.390293 
L 366.737897 213.7849 
L 367.094446 211.949891 
L 367.450996 215.289608 
L 367.807546 215.216207 
L 368.520645 216.831016 
L 368.877194 217.234718 
L 369.590293 215.399708 
L 369.946843 217.752924 
L 370.303392 217.509235 
L 370.659942 216.977816 
L 371.016491 215.509809 
L 371.373041 212.683895 
L 371.72959 213.417898 
L 372.08614 216.353913 
L 372.442689 210.481883 
L 372.799239 211.949891 
L 373.155788 216.060312 
L 373.512338 213.564699 
L 373.868887 215.986911 
L 374.225437 215.840111 
L 374.938536 217.051217 
L 375.295085 214.959306 
L 375.651635 215.65661 
L 376.008185 215.876811 
L 376.364734 215.876811 
L 377.434383 216.647515 
L 378.147482 213.417898 
L 378.504031 207.87617 
L 378.860581 210.481883 
L 379.21713 209.874128 
L 379.57368 206.371462 
L 379.930229 205.710859 
L 380.286779 198.00382 
L 380.643328 194.884304 
L 380.999878 97.482007 
L 381.356427 37.257 
L 381.712977 90.105269 
L 382.069526 170.845681 
L 382.426076 200.939835 
L 382.782625 204.626001 
L 383.139175 213.197697 
L 383.495724 214.115202 
L 383.852274 215.913511 
L 384.208823 213.931701 
L 384.565373 214.335403 
L 384.921923 215.521553 
L 385.278472 198.737823 
L 385.635022 195.838509 
L 385.991571 205.784259 
L 386.348121 208.756975 
L 386.70467 205.343857 
L 387.06122 204.683254 
L 387.417769 209.182697 
L 387.774319 202.848244 
L 388.130868 210.481883 
L 388.487418 210.445183 
L 389.200517 213.108149 
L 389.557066 215.414388 
L 389.913616 215.473109 
L 390.270165 213.564699 
L 390.626715 216.258493 
L 390.983264 216.060312 
L 391.339814 215.728542 
L 391.696363 216.240877 
L 392.052913 216.280513 
L 392.409462 213.7115 
L 393.122562 216.102884 
L 393.479111 216.671003 
L 393.835661 211.949891 
L 394.19221 213.7115 
L 394.54876 214.592304 
L 394.905309 216.917628 
L 395.261859 214.445504 
L 395.618408 214.592304 
L 395.974958 213.050896 
L 396.331507 213.417898 
L 396.688057 212.683895 
L 397.044606 214.184198 
L 397.401156 214.303107 
L 397.757705 213.997761 
L 398.470804 215.734414 
L 398.827354 213.417898 
L 399.183903 212.683895 
L 399.540453 214.372103 
L 399.897002 214.830121 
L 400.253552 214.671577 
L 400.610101 213.931701 
L 400.966651 214.689193 
L 401.3232 214.424951 
L 401.67975 213.949317 
L 402.392849 213.977209 
L 402.749399 213.878853 
L 403.105948 213.197697 
L 403.462498 213.244673 
L 404.175597 213.933169 
L 405.245245 213.707096 
L 405.601795 213.646907 
L 405.958344 212.810143 
L 406.314894 212.773443 
L 406.671443 211.325988 
L 407.027993 211.72969 
L 407.384542 211.582889 
L 407.741092 209.013876 
L 408.097641 211.546189 
L 408.454191 210.812185 
L 408.81074 209.78458 
L 409.523839 210.936966 
L 410.236938 211.171847 
L 410.593488 210.995686 
L 410.950038 209.890276 
L 411.306587 210.041481 
L 411.663137 210.555284 
L 412.019686 211.336264 
L 412.376236 211.599037 
L 412.732785 211.171847 
L 413.089335 211.252587 
L 413.445884 210.188282 
L 413.802434 209.74788 
L 414.158983 210.22645 
L 414.515533 211.447832 
L 414.872082 211.462512 
L 415.228632 210.848885 
L 415.585181 211.110191 
L 415.941731 211.609313 
L 416.29828 211.76639 
L 416.65483 211.215887 
L 417.724478 211.509489 
L 418.081028 211.80309 
L 418.437577 211.380304 
L 418.794127 210.628684 
L 419.150677 210.198558 
L 419.507226 211.274607 
L 419.863776 211.271671 
L 420.576875 210.907605 
L 420.933424 211.061746 
L 421.289974 211.396452 
L 421.646523 211.942551 
L 422.003073 211.748774 
L 422.359622 211.935211 
L 422.716172 211.945487 
L 423.072721 212.077607 
L 423.78582 211.321584 
L 424.14237 211.221759 
L 424.498919 211.663629 
L 424.855469 211.647481 
L 425.568568 210.901733 
L 425.925117 207.545868 
L 426.281667 209.89468 
L 426.638216 210.954582 
L 426.994766 210.91201 
L 427.351315 211.017706 
L 427.707865 210.853289 
L 428.420964 210.078181 
L 428.777514 210.371783 
L 429.134063 211.030918 
L 429.847162 211.185059 
L 430.203712 210.910541 
L 430.560261 210.782825 
L 431.27336 210.954582 
L 432.343009 211.199739 
L 433.056108 210.889989 
L 433.769207 210.838609 
L 434.125756 211.183591 
L 434.482306 211.325988 
L 435.195405 210.408483 
L 435.908504 210.958986 
L 436.265054 211.210015 
L 436.621603 211.142487 
L 436.978153 210.481883 
L 437.334702 210.91935 
L 437.691252 210.916414 
L 438.047801 210.408483 
L 438.404351 210.188282 
L 438.7609 210.22645 
L 439.11745 210.58758 
L 439.473999 209.380878 
L 439.830549 209.674479 
L 440.187098 209.160677 
L 440.543648 206.077861 
L 440.900197 208.962496 
L 441.256747 208.756975 
L 441.613296 208.709998 
L 441.969846 208.378229 
L 442.326395 208.417865 
L 442.682945 208.26666 
L 443.039494 208.356208 
L 443.396044 206.885265 
L 444.109143 207.081978 
L 444.465692 206.518263 
L 444.822242 206.665064 
L 445.178792 206.481563 
L 445.535341 206.471287 
L 446.60499 204.574621 
L 446.961539 205.343857 
L 447.318089 205.343857 
L 448.031188 203.729049 
L 448.387737 204.147431 
L 448.744287 203.731985 
L 449.100836 202.886413 
L 449.457386 202.33591 
L 449.813935 202.375546 
L 450.170485 201.380237 
L 450.527034 200.939835 
L 450.883584 201.54025 
L 451.240133 202.393162 
L 451.596683 203.680605 
L 451.953232 204.188535 
L 452.309782 203.618948 
L 452.666331 201.857339 
L 453.022881 202.647127 
L 453.379431 200.939835 
L 453.73598 201.673838 
L 454.09253 197.269816 
L 454.449079 200.866434 
L 454.805629 198.737823 
L 455.162178 199.838829 
L 455.518728 198.627723 
L 456.588376 202.04084 
L 456.944926 203.288647 
L 457.658025 200.242531 
L 458.014574 202.407842 
L 458.371124 203.444255 
L 458.727673 203.774557 
L 459.084223 203.141846 
L 459.440772 203.508848 
L 459.797322 202.701444 
L 460.153871 202.554643 
L 460.86697 203.91255 
L 461.580069 206.847097 
L 461.936619 206.249618 
L 462.293169 205.050256 
L 462.649718 205.586078 
L 463.006268 204.352952 
L 463.362817 204.976855 
L 463.719367 206.152729 
L 464.075916 205.637459 
L 464.432466 203.87585 
L 464.789015 205.006215 
L 465.145565 204.169451 
L 465.502114 205.710859 
L 465.858664 205.710859 
L 466.215213 206.224662 
L 466.571763 203.435447 
L 466.928312 207.366771 
L 467.284862 205.564058 
L 467.641411 204.609853 
L 467.997961 204.389652 
L 468.71106 208.762847 
L 469.067609 209.030024 
L 469.424159 208.95222 
L 469.780708 207.692669 
L 470.137258 207.655969 
L 470.493808 207.986271 
L 470.850357 206.481563 
L 471.206907 207.582569 
L 471.563456 207.585505 
L 471.920006 207.766069 
L 472.276555 208.63513 
L 472.989654 204.903455 
L 473.346204 203.87585 
L 473.702753 199.178226 
L 474.059303 203.508848 
L 474.415852 204.670042 
L 474.772402 204.894647 
L 475.128951 204.463053 
L 475.485501 203.582248 
L 475.84205 205.747559 
L 476.1986 206.077861 
L 476.911699 206.077861 
L 477.268248 206.665064 
L 477.624798 206.224662 
L 477.981347 206.077861 
L 478.337897 206.187961 
L 478.694446 207.205291 
L 479.050996 206.948389 
L 479.407546 207.717625 
L 479.764095 207.902594 
L 480.120645 207.685329 
L 480.477194 203.87585 
L 480.833744 205.343857 
L 481.546843 209.85798 
L 481.903392 208.279872 
L 482.259942 208.279872 
L 482.616491 200.279231 
L 482.973041 207.94957 
L 483.68614 207.032066 
L 484.042689 204.756654 
L 484.399239 206.151261 
L 484.755788 204.242851 
L 485.112338 206.298062 
L 485.468887 205.710859 
L 485.825437 206.885265 
L 486.181986 203.765749 
L 486.538536 207.764601 
L 486.895085 208.25932 
L 487.251635 207.882042 
L 487.608185 206.811865 
L 487.964734 206.811865 
L 488.321284 205.050256 
L 488.677833 207.090786 
L 489.034383 207.619269 
L 489.390932 205.82096 
L 489.747482 210.076713 
L 490.104031 209.979825 
L 490.460581 211.215887 
L 490.81713 210.950178 
L 491.17368 209.197377 
L 491.530229 210.114881 
L 491.886779 209.931381 
L 492.243328 210.261682 
L 492.599878 209.82128 
L 492.956427 210.922286 
L 493.312977 204.609853 
L 493.669526 210.114881 
L 494.026076 209.380878 
L 494.739175 211.274607 
L 495.095724 206.187961 
L 495.452274 209.307477 
L 495.808823 210.408483 
L 496.165373 206.995366 
L 496.521923 187.067164 
L 496.878472 208.573474 
L 497.235022 200.572833 
L 497.591571 207.692669 
L 497.948121 209.013876 
L 498.30467 208.133071 
L 498.66122 209.013876 
L 499.017769 210.298382 
L 499.374319 211.105786 
L 499.730868 210.041481 
L 500.087418 199.508527 
L 500.443967 211.656289 
L 500.800517 207.91287 
L 501.157066 211.692989 
L 501.513616 211.949891 
L 502.226715 214.041801 
L 502.939814 213.124297 
L 503.652913 214.695065 
L 504.009462 214.482204 
L 504.366012 215.876811 
L 504.722562 215.142807 
L 505.079111 214.959306 
L 505.435661 215.61991 
L 505.79221 215.986911 
L 506.14876 215.363008 
L 506.505309 215.326308 
L 506.861859 216.280513 
L 507.218408 216.703299 
L 507.574958 215.399708 
L 507.931507 216.977816 
L 508.288057 215.80341 
L 508.644606 215.986911 
L 509.001156 216.500714 
L 509.357705 217.522447 
L 509.714255 216.647515 
L 510.070804 217.087917 
L 510.427354 218.042122 
L 510.783903 217.234718 
L 511.140453 215.80341 
L 511.853552 217.087917 
L 512.210101 217.23325 
L 512.566651 214.151902 
L 512.9232 216.353913 
L 513.27975 216.610815 
L 513.6363 217.60172 
L 513.992849 217.381518 
L 514.349399 216.941116 
L 514.705948 217.271418 
L 515.062498 216.574114 
L 515.419047 217.087917 
L 516.488696 219.436729 
L 516.845245 220.390934 
L 517.201795 220.537735 
L 517.558344 219.143127 
L 517.914894 219.326628 
L 518.271443 220.505438 
L 518.627993 220.787296 
L 518.984542 221.301098 
L 519.341092 222.082078 
L 519.697641 221.712141 
L 520.054191 220.978137 
L 520.41074 220.794636 
L 520.76729 221.481663 
L 521.123839 220.900332 
L 521.480389 221.425879 
L 521.836938 222.385956 
L 522.193488 222.234751 
L 522.550038 221.491939 
L 523.263137 222.509269 
L 523.619686 219.58353 
L 523.976236 219.289928 
L 524.332785 218.409124 
L 524.689335 218.225623 
L 525.045884 218.977243 
L 525.402434 218.092034 
L 525.758983 216.794315 
L 526.115533 218.178647 
L 526.472082 219.057983 
L 526.828632 218.859802 
L 527.185181 219.043303 
L 527.541731 219.444069 
L 528.25483 220.956117 
L 528.611379 220.79904 
L 528.967929 221.540384 
L 529.324478 221.345139 
L 530.394127 221.541852 
L 530.750677 221.986658 
L 531.463776 221.459643 
L 531.820325 221.433219 
L 532.176875 221.051537 
L 532.533424 221.030985 
L 532.889974 221.273206 
L 533.246523 221.69012 
L 533.603073 221.742969 
L 534.316172 221.27761 
L 535.029271 220.868036 
L 535.38582 221.210082 
L 535.74237 221.386243 
L 536.098919 221.161638 
L 536.455469 217.821921 
L 536.812018 221.810497 
L 537.525117 221.785541 
L 537.881667 222.494589 
L 538.238216 222.597349 
L 538.594766 222.438804 
L 538.951315 222.642857 
L 539.307865 224.044804 
L 540.020964 223.55449 
L 540.377514 221.418539 
L 540.734063 223.840751 
L 541.090613 223.253548 
L 541.447162 222.996647 
L 541.803712 225.294079 
L 542.160261 225.581808 
L 542.516811 224.574755 
L 543.22991 225.19719 
L 543.586459 225.615572 
L 543.943009 226.637306 
L 544.299558 228.666092 
L 545.012657 228.526631 
L 545.369207 228.714536 
L 545.725756 228.297622 
L 546.082306 227.412414 
L 546.438855 227.955576 
L 547.151954 227.744183 
L 547.508504 227.870432 
L 547.865054 226.854571 
L 548.221603 227.337545 
L 548.578153 227.587107 
L 548.934702 226.629966 
L 549.291252 227.736843 
L 549.647801 227.719227 
L 550.004351 227.519578 
L 550.3609 227.09092 
L 550.71745 227.314057 
L 551.073999 228.237434 
L 551.430549 228.817297 
L 551.787098 229.154939 
L 552.143648 227.694271 
L 552.500197 227.951172 
L 553.213296 229.203383 
L 553.569846 227.290569 
L 553.926395 229.624701 
L 554.282945 230.046019 
L 554.639494 230.176672 
L 554.996044 229.637913 
L 555.352593 226.886867 
L 555.709143 226.813467 
L 556.065692 227.657571 
L 556.422242 227.657571 
L 556.778792 228.246242 
L 557.135341 228.206606 
L 557.491891 225.161958 
L 557.84844 225.308759 
L 558.20499 225.901834 
L 558.561539 226.262964 
L 558.918089 224.501355 
L 559.274638 225.465836 
L 559.631188 225.511344 
L 559.987737 224.987265 
L 560.344287 224.100589 
L 560.700836 226.326088 
L 561.057386 227.265613 
L 561.413935 227.541598 
L 561.770485 228.184586 
L 562.127034 228.22569 
L 563.196683 226.629966 
L 563.553232 228.097973 
L 563.909782 228.208074 
L 564.266331 229.219531 
L 564.622881 229.243019 
L 564.979431 228.811425 
L 565.69253 229.077134 
L 566.405629 227.39333 
L 567.118728 227.396266 
L 567.475277 227.159916 
L 568.188376 229.203383 
L 569.258025 229.090346 
L 569.614574 229.176959 
L 569.971124 228.532503 
L 570.327673 227.584171 
L 570.684223 227.987873 
L 571.040772 229.13145 
L 571.397322 229.407436 
L 571.753871 229.125578 
L 572.110421 229.548365 
L 572.46697 229.676081 
L 572.82352 229.585065 
L 573.536619 228.833445 
L 573.893169 228.73362 
L 574.249718 227.363969 
L 574.606268 229.601213 
L 575.319367 228.244774 
L 575.675916 228.208074 
L 576.032466 228.849593 
L 576.389015 229.112366 
L 576.745565 229.162279 
L 577.102114 229.922706 
L 577.458664 230.377789 
L 577.815213 229.565981 
L 578.171763 232.625308 
L 578.528312 232.551908 
L 578.884862 232.346387 
L 579.241411 228.831977 
L 579.597961 231.292357 
L 579.95451 230.796171 
L 580.31106 229.482304 
L 581.024159 228.463507 
L 581.380708 226.373064 
L 581.737258 226.629966 
L 582.093808 227.744183 
L 582.450357 227.074772 
L 582.806907 227.013116 
L 583.520006 229.865454 
L 583.876555 229.599745 
L 584.233105 230.687538 
L 584.589654 230.728643 
L 584.946204 230.330813 
L 585.302753 228.097973 
L 585.659303 228.017233 
L 586.015852 225.308759 
L 586.372402 228.378363 
L 586.728951 229.34578 
L 587.085501 229.808202 
L 587.44205 229.226871 
L 587.7986 230.345493 
L 588.511699 227.363969 
L 588.868248 223.730651 
L 589.224798 226.519865 
L 589.581347 227.143768 
L 589.937897 226.041295 
L 590.650996 228.895101 
L 591.364095 228.097973 
L 591.720645 228.831977 
L 592.077194 229.822882 
L 592.433744 229.565981 
L 592.790293 228.624988 
L 593.146843 225.088558 
L 593.503392 226.409765 
L 593.859942 226.629966 
L 594.216491 226.629966 
L 594.573041 227.804372 
L 594.92959 228.244774 
L 595.28614 227.143768 
L 595.642689 227.51077 
L 595.999239 228.611776 
L 596.712338 228.464975 
L 597.068887 229.639381 
L 597.425437 223.070047 
L 597.781986 225.52896 
L 598.138536 226.923567 
L 598.495085 227.363969 
L 598.851635 227.43737 
L 599.208185 226.666666 
L 599.564734 227.363969 
L 599.921284 226.923567 
L 600.277833 223.877452 
L 600.634383 223.106748 
L 600.990932 223.180148 
L 601.347482 221.198338 
L 601.704031 222.225943 
L 602.060581 222.005742 
L 602.41713 217.087917 
L 602.77368 219.950532 
L 603.130229 220.170733 
L 603.486779 221.124938 
L 603.843328 219.58353 
L 604.199878 219.289928 
L 604.556427 217.821921 
L 604.912977 220.244133 
L 605.269526 217.785221 
L 605.626076 220.097332 
L 606.339175 218.996327 
L 606.695724 219.73033 
L 607.052274 219.767031 
L 607.408823 217.344818 
L 607.765373 218.115522 
L 608.121923 219.73033 
L 608.835022 219.400029 
L 609.191571 218.409124 
L 609.548121 216.060312 
L 610.26122 218.996327 
L 610.617769 219.877131 
L 610.974319 219.69363 
L 611.330868 220.390934 
L 612.043967 222.372744 
L 612.400517 219.289928 
L 612.757066 220.757936 
L 613.113616 221.381839 
L 613.470165 222.482845 
L 613.826715 222.152543 
L 614.183264 223.65725 
L 614.539814 223.730651 
L 614.896363 223.033347 
L 615.252913 223.840751 
L 615.609462 220.904736 
L 615.966012 223.987552 
L 616.322562 223.914152 
L 616.679111 224.427954 
L 617.035661 223.693951 
L 617.39221 224.244453 
L 617.74876 225.308759 
L 618.105309 227.070368 
L 618.461859 225.161958 
L 618.818408 225.56566 
L 619.174958 219.65693 
L 619.531507 223.47375 
L 619.888057 223.54715 
L 620.601156 225.806413 
L 620.957705 223.54715 
L 621.314255 224.794956 
L 621.670804 225.245635 
L 622.027354 225.229487 
L 622.383903 223.400349 
L 622.740453 223.804051 
L 623.097002 225.235359 
L 623.453552 225.382159 
L 624.166651 225.161958 
L 624.5232 224.427954 
L 625.2363 224.721556 
L 625.592849 226.042763 
L 625.949399 226.336364 
L 626.305948 225.932662 
L 626.662498 226.629966 
L 627.375597 226.079463 
L 627.732146 226.923567 
L 628.088696 226.629966 
L 628.445245 226.703366 
L 628.801795 227.033668 
L 629.158344 226.850167 
L 629.514894 227.363969 
L 630.227993 227.54747 
L 630.584542 227.143768 
L 631.297641 228.880421 
L 631.654191 229.106494 
L 632.01074 229.062454 
L 632.36729 228.244774 
L 632.723839 228.831977 
L 633.080389 228.538375 
L 633.436938 228.611776 
L 633.793488 228.501675 
L 634.150038 227.51077 
L 634.506587 228.171374 
L 634.863137 229.125578 
L 635.219686 227.363969 
L 635.576236 228.538375 
L 635.932785 227.841072 
L 636.289335 228.097973 
L 636.645884 230.320536 
L 637.002434 230.304388 
L 637.358983 227.657571 
L 637.715533 227.767671 
L 638.072082 227.363969 
L 638.428632 228.391575 
L 638.785181 228.391575 
L 639.49828 228.685176 
L 639.85483 227.070368 
L 640.211379 228.831977 
L 640.567929 227.51077 
L 641.281028 228.831977 
L 641.637577 228.831977 
L 641.994127 230.248604 
L 642.350677 228.428275 
L 642.707226 228.464975 
L 643.063776 228.831977 
L 643.420325 228.978778 
L 643.776875 229.272379 
L 644.489974 230.424765 
L 644.846523 228.134673 
L 645.559622 229.41918 
L 645.916172 229.565981 
L 646.272721 229.565981 
L 646.629271 228.097973 
L 646.98582 229.859582 
L 647.34237 230.035743 
L 647.698919 231.285017 
L 648.055469 230.299984 
L 648.412018 228.281474 
L 648.768568 229.712781 
L 649.125117 230.666986 
L 649.481667 230.666986 
L 649.838216 230.925356 
L 650.194766 231.39365 
L 650.551315 230.299984 
L 650.907865 231.652019 
L 651.264415 230.483485 
L 651.620964 232.824957 
L 651.977514 232.471167 
L 652.334063 230.960588 
L 652.690613 232.719261 
L 653.047162 232.208394 
L 653.403712 232.958546 
L 653.760261 232.915974 
L 654.116811 231.033988 
L 654.47336 233.33876 
L 654.82991 232.722197 
L 655.186459 231.511091 
L 655.543009 231.621191 
L 656.256108 233.233063 
L 656.612657 232.501996 
L 656.969207 233.293252 
L 657.325756 232.208394 
L 657.682306 232.208394 
L 658.038855 231.914793 
L 658.395405 233.393076 
L 658.751954 233.237467 
L 659.108504 233.79531 
L 659.465054 233.774758 
L 659.821603 232.979098 
L 660.178153 234.341409 
L 660.534702 234.615926 
L 660.891252 234.263605 
L 661.604351 235.211937 
L 661.9609 235.179641 
L 662.673999 234.737771 
L 663.030549 233.970003 
L 663.743648 234.984396 
L 664.100197 234.850808 
L 664.456747 235.203129 
L 664.813296 235.037245 
L 665.169846 234.337005 
L 665.526395 234.337005 
L 665.882945 235.238362 
L 666.239494 235.606831 
L 666.952593 235.746292 
L 667.309143 235.233958 
L 667.665692 233.970003 
L 668.022242 235.693444 
L 668.378792 235.874009 
L 668.735341 235.888689 
L 669.091891 236.312943 
L 669.44844 236.459744 
L 669.80499 236.315879 
L 670.161539 236.539016 
L 670.518089 237.223108 
L 670.874638 237.526985 
L 671.231188 238.767452 
L 671.587737 237.19962 
L 671.944287 236.208714 
L 672.300836 235.915113 
L 672.657386 238.027576 
L 673.013935 236.612417 
L 673.370485 237.126219 
L 673.727034 238.216949 
L 674.083584 237.529921 
L 674.440133 238.666159 
L 674.796683 238.857 
L 675.153232 238.605971 
L 675.866331 236.649117 
L 676.222881 236.172014 
L 676.579431 236.950058 
L 676.93598 236.914826 
L 677.29253 236.704901 
L 677.649079 236.141186 
L 678.362178 237.366972 
L 679.075277 237.136495 
L 679.431827 237.139431 
L 679.788376 236.663797 
L 680.144926 235.841713 
L 680.501475 236.374599 
L 680.858025 236.585992 
L 681.214574 236.415704 
L 681.927673 236.539016 
L 682.284223 236.172014 
L 682.640772 236.324687 
L 682.997322 235.805012 
L 683.353871 235.853457 
L 683.710421 236.675541 
L 684.42352 237.286232 
L 684.780069 236.972078 
L 685.493169 235.454159 
L 685.849718 235.542239 
L 686.206268 235.438011 
L 686.562817 236.421576 
L 686.919367 236.552228 
L 687.275916 236.220459 
L 687.632466 235.071009 
L 688.702114 236.415704 
L 689.058664 236.936846 
L 689.415213 237.104199 
L 689.771763 236.945654 
L 690.128312 235.805012 
L 690.841411 235.988513 
L 691.197961 236.649117 
L 691.91106 236.763621 
L 692.267609 236.530208 
L 692.624159 236.539016 
L 692.980708 236.812066 
L 693.337258 236.936846 
L 693.693808 236.729857 
L 694.406907 237.159983 
L 694.763456 236.834086 
L 695.120006 237.045479 
L 695.476555 236.995567 
L 695.833105 236.46268 
L 696.189654 236.641777 
L 696.546204 236.367259 
L 696.902753 236.298263 
L 697.259303 234.557206 
L 697.615852 235.25451 
L 697.972402 234.17112 
L 698.328951 234.12708 
L 699.04205 233.193427 
L 699.755149 233.164067 
L 700.468248 234.077168 
L 700.824798 234.668775 
L 701.181347 234.460318 
L 701.537897 233.953855 
L 701.894446 233.936239 
L 702.250996 232.281794 
L 702.607546 232.939462 
L 702.964095 231.767992 
L 703.320645 231.217489 
L 704.033744 234.624734 
L 704.390293 234.461786 
L 704.746843 233.864307 
L 705.103392 232.788257 
L 705.459942 232.267114 
L 705.816491 230.593586 
L 706.173041 231.442094 
L 706.52959 230.630286 
L 706.88614 230.650838 
L 707.599239 229.971151 
L 707.955788 228.617648 
L 708.312338 228.735088 
L 709.025437 227.764735 
L 709.381986 227.692803 
L 710.095085 228.231562 
L 710.451635 229.143194 
L 710.808185 229.10209 
L 711.164734 229.438264 
L 711.521284 230.401277 
L 711.877833 230.216308 
L 712.234383 229.557173 
L 712.590932 229.658465 
L 712.947482 229.350184 
L 713.304031 228.567736 
L 713.660581 228.190458 
L 714.01713 228.931801 
L 714.37368 228.865741 
L 715.086779 227.984937 
L 715.443328 227.90126 
L 715.799878 227.396266 
L 716.156427 226.042763 
L 716.512977 226.042763 
L 716.869526 226.409765 
L 717.226076 226.006062 
L 717.582625 225.969362 
L 717.939175 225.813753 
L 718.295724 224.758256 
L 718.652274 225.749161 
L 719.008823 225.161958 
L 719.365373 225.749161 
L 719.721923 224.538055 
L 720.078472 223.804051 
L 720.435022 223.840751 
L 720.791571 222.813146 
L 721.148121 223.253548 
L 721.50467 222.336044 
L 721.86122 224.060953 
L 722.574319 222.482845 
L 723.287418 223.529534 
L 723.643967 223.20804 
L 724.000517 221.491939 
L 724.357066 222.819018 
L 724.713616 221.932342 
L 725.070165 221.822241 
L 725.426715 222.225943 
L 725.783264 221.381839 
L 726.139814 221.271738 
L 726.496363 220.904736 
L 726.852913 221.858941 
L 727.209462 221.484599 
L 727.566012 221.932342 
L 727.922562 222.666345 
L 728.279111 222.921779 
L 728.99221 224.361894 
L 729.705309 224.565947 
L 730.418408 221.051537 
L 730.774958 221.60204 
L 731.131507 221.56534 
L 731.488057 222.959947 
L 731.844606 221.63874 
L 732.201156 222.813146 
L 732.557705 221.63874 
L 732.914255 222.225943 
L 733.270804 223.513386 
L 733.983903 222.959947 
L 734.340453 223.990488 
L 734.697002 222.299344 
L 735.053552 222.666345 
L 735.410101 223.978744 
L 735.766651 223.693951 
L 736.1232 223.253548 
L 736.47975 223.914152 
L 736.8363 225.279399 
L 737.192849 224.965245 
L 737.549399 222.225943 
L 737.905948 222.225943 
L 738.262498 222.079142 
L 738.619047 222.666345 
L 738.975597 221.60204 
L 739.332146 221.63874 
L 739.688696 219.73033 
L 740.045245 220.904736 
L 740.758344 221.491939 
L 741.114894 222.225943 
L 741.471443 211.215887 
L 741.827993 221.308439 
L 742.184542 220.317533 
L 742.541092 221.932342 
L 742.897641 220.757936 
L 743.254191 220.427634 
L 743.61074 219.65693 
L 743.96729 219.436729 
L 744.323839 219.73033 
L 744.680389 219.069727 
L 745.036938 219.253228 
L 745.393488 218.078822 
L 745.750038 219.985764 
L 746.106587 220.317533 
L 746.819686 220.611135 
L 747.176236 218.592625 
L 747.532785 219.179828 
L 747.889335 218.944946 
L 748.245884 217.087917 
L 748.958983 217.968721 
L 749.315533 218.115522 
L 749.672082 217.71182 
L 750.028632 215.106107 
L 750.385181 213.417898 
L 750.741731 213.491299 
L 751.09828 214.298703 
L 751.45483 213.491299 
L 751.811379 214.298703 
L 752.167929 212.170092 
L 752.524478 212.720595 
L 752.881028 214.885906 
L 753.237577 215.216207 
L 753.594127 211.656289 
L 753.950677 212.683895 
L 754.307226 212.977496 
L 755.020325 203.87585 
L 755.376875 204.609853 
L 755.733424 208.977176 
L 756.089974 211.656289 
L 756.803073 210.041481 
L 757.159622 211.986591 
L 757.516172 211.76639 
L 757.872721 211.949891 
L 758.229271 212.683895 
L 758.58582 207.545868 
L 758.94237 207.766069 
L 759.298919 208.573474 
L 759.655469 207.545868 
L 760.012018 211.215887 
L 760.368568 211.986591 
L 760.725117 211.656289 
L 761.081667 211.509489 
L 761.438216 211.949891 
L 761.794766 212.023291 
L 762.151315 212.537094 
L 762.864415 215.179507 
L 763.220964 214.885906 
L 763.577514 213.7115 
L 763.934063 214.005101 
L 764.290613 211.289287 
L 764.647162 206.811865 
L 765.003712 200.205831 
L 765.360261 210.188282 
L 765.716811 211.949891 
L 766.07336 214.408803 
L 766.42991 215.032707 
L 766.786459 214.005101 
L 767.499558 216.977816 
L 767.856108 217.124617 
L 768.212657 218.115522 
L 768.569207 216.904416 
L 768.925756 218.555924 
L 769.282306 219.289928 
L 769.638855 219.069727 
L 769.995405 220.023932 
L 770.351954 220.170733 
L 771.065054 219.994572 
L 771.421603 216.831016 
L 771.778153 218.996327 
L 772.134702 215.326308 
L 772.491252 218.188923 
L 772.847801 219.069727 
L 773.204351 218.555924 
L 773.5609 218.555924 
L 773.91745 218.115522 
L 774.273999 217.968721 
L 774.630549 217.67512 
L 774.987098 217.087917 
L 775.343648 217.234718 
L 775.700197 215.986911 
L 776.056747 216.817804 
L 776.413296 216.060312 
L 776.769846 214.298703 
L 777.482945 213.564699 
L 777.839494 216.097012 
L 778.196044 214.739105 
L 778.552593 215.76671 
L 779.265692 217.087917 
L 780.335341 215.61991 
L 781.04844 216.409698 
L 781.40499 216.277577 
L 781.761539 216.399421 
L 782.118089 216.314277 
L 782.474638 216.559434 
L 782.831188 215.216207 
L 783.187737 215.458429 
L 783.544287 212.977496 
L 783.900836 213.858301 
L 784.257386 213.417898 
L 784.613935 211.949891 
L 784.970485 211.986591 
L 786.040133 214.313383 
L 786.396683 214.151902 
L 786.753232 211.949891 
L 787.109782 210.812185 
L 787.466331 212.316893 
L 787.822881 212.830695 
L 788.179431 212.830695 
L 788.53598 211.949891 
L 789.249079 212.325701 
L 789.605629 211.215887 
L 789.962178 211.789878 
L 790.318728 212.064395 
L 790.675277 211.811898 
L 791.031827 211.904383 
L 791.388376 213.878853 
L 791.744926 213.981613 
L 792.101475 212.830695 
L 792.458025 212.830695 
L 792.814574 211.857406 
L 793.171124 209.307477 
L 793.527673 209.968081 
L 793.884223 207.692669 
L 794.240772 208.169772 
L 794.597322 206.958665 
L 794.953871 207.472468 
L 795.310421 205.343857 
L 795.66697 204.609853 
L 796.02352 205.93106 
L 796.736619 207.252267 
L 797.093169 207.871766 
L 797.449718 206.164473 
L 797.806268 203.435447 
L 798.162817 203.582248 
L 798.519367 204.169451 
L 798.875916 203.472148 
L 799.232466 203.865574 
L 799.589015 202.554643 
L 799.945565 203.288647 
L 800.302114 201.93074 
L 800.658664 207.619269 
L 801.371763 204.719954 
L 801.728312 206.077861 
L 802.084862 206.738464 
L 802.797961 203.582248 
L 803.15451 203.87585 
L 803.51106 205.343857 
L 803.867609 205.93106 
L 804.224159 205.93106 
L 804.580708 206.077861 
L 804.937258 206.538815 
L 805.293808 204.609853 
L 805.650357 205.490658 
L 806.006907 205.490658 
L 806.363456 205.050256 
L 806.720006 205.233757 
L 807.076555 205.195588 
L 807.433105 203.87585 
L 807.789654 201.747239 
L 808.146204 201.306837 
L 808.502753 201.669434 
L 808.859303 202.217001 
L 809.215852 202.30655 
L 809.572402 202.068732 
L 809.928951 201.177652 
L 810.285501 201.998268 
L 810.64205 202.112773 
L 810.9986 201.673838 
L 811.711699 199.838829 
L 812.068248 199.94893 
L 812.781347 198.40165 
L 813.137897 196.902814 
L 813.494446 196.766289 
L 813.850996 196.393415 
L 814.207546 196.475624 
L 814.564095 196.353779 
L 814.920645 195.989713 
L 815.277194 190.113279 
L 815.633744 191.691387 
L 815.990293 189.831422 
L 816.346843 190.616806 
L 816.703392 190.512577 
L 817.059942 188.461771 
L 817.416491 188.398647 
L 817.773041 188.461771 
L 818.12959 192.962682 
L 818.48614 190.883983 
L 818.842689 190.351097 
L 819.555788 190.271824 
L 819.912338 191.088036 
L 820.268887 191.339066 
L 820.625437 192.327035 
L 820.981986 192.801201 
L 821.338536 191.911589 
L 822.051635 191.654687 
L 822.408185 190.355501 
L 822.764734 191.786808 
L 823.121284 190.622678 
L 823.477833 190.571298 
L 823.834383 191.437422 
L 824.547482 190.870771 
L 825.260581 188.130001 
L 825.61713 185.048654 
L 825.97368 183.250344 
L 826.330229 184.204549 
L 826.686779 184.35135 
L 827.043328 184.35135 
L 827.399878 181.785273 
L 827.756427 182.626441 
L 828.112977 182.372476 
L 828.469526 180.974933 
L 828.826076 180.38773 
L 829.182625 180.632887 
L 829.539175 179.947328 
L 829.895724 180.218909 
L 830.252274 178.263523 
L 830.608823 175.249704 
L 830.965373 176.330157 
L 831.321923 177.977262 
L 831.678472 177.903861 
L 832.035022 174.148698 
L 832.391571 173.121093 
L 832.748121 174.361559 
L 833.10467 176.506318 
L 833.46122 183.273833 
L 833.817769 182.809942 
L 834.174319 182.149339 
L 834.530868 182.271183 
L 834.887418 181.051269 
L 835.243967 177.964049 
L 835.600517 176.719179 
L 835.957066 176.365389 
L 836.313616 173.047692 
L 836.670165 173.561495 
L 837.026715 173.451394 
L 837.383264 171.139283 
L 837.739814 170.127826 
L 838.096363 167.90673 
L 838.452913 167.87737 
L 838.809462 167.536792 
L 839.166012 167.84801 
L 839.522562 167.320995 
L 840.59221 162.420786 
L 840.94876 156.97301 
L 841.305309 158.80802 
L 841.661859 159.17649 
L 842.018408 158.125396 
L 842.374958 145.15555 
L 842.731507 145.268587 
L 843.088057 138.659617 
L 843.444606 141.558932 
L 843.801156 97.665508 
L 844.157705 147.797964 
L 844.514255 147.181401 
L 844.870804 135.585609 
L 845.227354 135.26118 
L 845.583903 139.814939 
L 845.940453 138.549517 
L 846.297002 142.946199 
L 846.653552 144.312914 
L 847.010101 142.116775 
L 847.7232 123.023869 
L 848.07975 103.317337 
L 848.07975 103.317337 
" clip-path="url(#pbdb7a6ba87)" style="fill: none; stroke: #4c72b0; stroke-width: 1.2; stroke-linecap: round"/>
   </g>
   <g id="patch_3">
    <path d="M 66.87975 248.937 
L 66.87975 27.177 
" style="fill: none; stroke: #cccccc; stroke-linejoin: miter; stroke-linecap: square"/>
   </g>
   <g id="patch_4">
    <path d="M 848.07975 248.937 
L 848.07975 27.177 
" style="fill: none; stroke: #cccccc; stroke-linejoin: miter; stroke-linecap: square"/>
   </g>
   <g id="patch_5">
    <path d="M 66.87975 248.937 
L 848.07975 248.937 
" style="fill: none; stroke: #cccccc; stroke-linejoin: miter; stroke-linecap: square"/>
   </g>
   <g id="patch_6">
    <path d="M 66.87975 27.177 
L 848.07975 27.177 
" style="fill: none; stroke: #cccccc; stroke-linejoin: miter; stroke-linecap: square"/>
   </g>
   <g id="text_12">
    <!-- NetConnect Germany Negative Energy Imbalance Fee (€/MWh) -->
    <g style="fill: #262626" transform="translate(185.38275 21.177) scale(0.192 -0.192)">
     <defs>
      <path id="ArialMT-4e" d="M 488 0 
L 488 4581 
L 1109 4581 
L 3516 984 
L 3516 4581 
L 4097 4581 
L 4097 0 
L 3475 0 
L 1069 3600 
L 1069 0 
L 488 0 
z
" transform="scale(0.015625)"/>
      <path id="ArialMT-43" d="M 3763 1606 
L 4369 1453 
Q 4178 706 3683 314 
Q 3188 -78 2472 -78 
Q 1731 -78 1267 223 
Q 803 525 561 1097 
Q 319 1669 319 2325 
Q 319 3041 592 3573 
Q 866 4106 1370 4382 
Q 1875 4659 2481 4659 
Q 3169 4659 3637 4309 
Q 4106 3959 4291 3325 
L 3694 3184 
Q 3534 3684 3231 3912 
Q 2928 4141 2469 4141 
Q 1941 4141 1586 3887 
Q 1231 3634 1087 3207 
Q 944 2781 944 2328 
Q 944 1744 1114 1308 
Q 1284 872 1643 656 
Q 2003 441 2422 441 
Q 2931 441 3284 734 
Q 3638 1028 3763 1606 
z
" transform="scale(0.015625)"/>
      <path id="ArialMT-6f" d="M 213 1659 
Q 213 2581 725 3025 
Q 1153 3394 1769 3394 
Q 2453 3394 2887 2945 
Q 3322 2497 3322 1706 
Q 3322 1066 3130 698 
Q 2938 331 2570 128 
Q 2203 -75 1769 -75 
Q 1072 -75 642 372 
Q 213 819 213 1659 
z
M 791 1659 
Q 791 1022 1069 705 
Q 1347 388 1769 388 
Q 2188 388 2466 706 
Q 2744 1025 2744 1678 
Q 2744 2294 2464 2611 
Q 2184 2928 1769 2928 
Q 1347 2928 1069 2612 
Q 791 2297 791 1659 
z
" transform="scale(0.015625)"/>
      <path id="ArialMT-6e" d="M 422 0 
L 422 3319 
L 928 3319 
L 928 2847 
Q 1294 3394 1984 3394 
Q 2284 3394 2536 3286 
Q 2788 3178 2913 3003 
Q 3038 2828 3088 2588 
Q 3119 2431 3119 2041 
L 3119 0 
L 2556 0 
L 2556 2019 
Q 2556 2363 2490 2533 
Q 2425 2703 2258 2804 
Q 2091 2906 1866 2906 
Q 1506 2906 1245 2678 
Q 984 2450 984 1813 
L 984 0 
L 422 0 
z
" transform="scale(0.015625)"/>
      <path id="ArialMT-47" d="M 2638 1797 
L 2638 2334 
L 4578 2338 
L 4578 638 
Q 4131 281 3656 101 
Q 3181 -78 2681 -78 
Q 2006 -78 1454 211 
Q 903 500 622 1047 
Q 341 1594 341 2269 
Q 341 2938 620 3517 
Q 900 4097 1425 4378 
Q 1950 4659 2634 4659 
Q 3131 4659 3532 4498 
Q 3934 4338 4162 4050 
Q 4391 3763 4509 3300 
L 3963 3150 
Q 3859 3500 3706 3700 
Q 3553 3900 3268 4020 
Q 2984 4141 2638 4141 
Q 2222 4141 1919 4014 
Q 1616 3888 1430 3681 
Q 1244 3475 1141 3228 
Q 966 2803 966 2306 
Q 966 1694 1177 1281 
Q 1388 869 1791 669 
Q 2194 469 2647 469 
Q 3041 469 3416 620 
Q 3791 772 3984 944 
L 3984 1797 
L 2638 1797 
z
" transform="scale(0.015625)"/>
      <path id="ArialMT-6d" d="M 422 0 
L 422 3319 
L 925 3319 
L 925 2853 
Q 1081 3097 1340 3245 
Q 1600 3394 1931 3394 
Q 2300 3394 2536 3241 
Q 2772 3088 2869 2813 
Q 3263 3394 3894 3394 
Q 4388 3394 4653 3120 
Q 4919 2847 4919 2278 
L 4919 0 
L 4359 0 
L 4359 2091 
Q 4359 2428 4304 2576 
Q 4250 2725 4106 2815 
Q 3963 2906 3769 2906 
Q 3419 2906 3187 2673 
Q 2956 2441 2956 1928 
L 2956 0 
L 2394 0 
L 2394 2156 
Q 2394 2531 2256 2718 
Q 2119 2906 1806 2906 
Q 1569 2906 1367 2781 
Q 1166 2656 1075 2415 
Q 984 2175 984 1722 
L 984 0 
L 422 0 
z
" transform="scale(0.015625)"/>
      <path id="ArialMT-79" d="M 397 -1278 
L 334 -750 
Q 519 -800 656 -800 
Q 844 -800 956 -737 
Q 1069 -675 1141 -563 
Q 1194 -478 1313 -144 
Q 1328 -97 1363 -6 
L 103 3319 
L 709 3319 
L 1400 1397 
Q 1534 1031 1641 628 
Q 1738 1016 1872 1384 
L 2581 3319 
L 3144 3319 
L 1881 -56 
Q 1678 -603 1566 -809 
Q 1416 -1088 1222 -1217 
Q 1028 -1347 759 -1347 
Q 597 -1347 397 -1278 
z
" transform="scale(0.015625)"/>
      <path id="ArialMT-67" d="M 319 -275 
L 866 -356 
Q 900 -609 1056 -725 
Q 1266 -881 1628 -881 
Q 2019 -881 2231 -725 
Q 2444 -569 2519 -288 
Q 2563 -116 2559 434 
Q 2191 0 1641 0 
Q 956 0 581 494 
Q 206 988 206 1678 
Q 206 2153 378 2554 
Q 550 2956 876 3175 
Q 1203 3394 1644 3394 
Q 2231 3394 2613 2919 
L 2613 3319 
L 3131 3319 
L 3131 450 
Q 3131 -325 2973 -648 
Q 2816 -972 2473 -1159 
Q 2131 -1347 1631 -1347 
Q 1038 -1347 672 -1080 
Q 306 -813 319 -275 
z
M 784 1719 
Q 784 1066 1043 766 
Q 1303 466 1694 466 
Q 2081 466 2343 764 
Q 2606 1063 2606 1700 
Q 2606 2309 2336 2618 
Q 2066 2928 1684 2928 
Q 1309 2928 1046 2623 
Q 784 2319 784 1719 
z
" transform="scale(0.015625)"/>
      <path id="ArialMT-76" d="M 1344 0 
L 81 3319 
L 675 3319 
L 1388 1331 
Q 1503 1009 1600 663 
Q 1675 925 1809 1294 
L 2547 3319 
L 3125 3319 
L 1869 0 
L 1344 0 
z
" transform="scale(0.015625)"/>
      <path id="ArialMT-45" d="M 506 0 
L 506 4581 
L 3819 4581 
L 3819 4041 
L 1113 4041 
L 1113 2638 
L 3647 2638 
L 3647 2100 
L 1113 2100 
L 1113 541 
L 3925 541 
L 3925 0 
L 506 0 
z
" transform="scale(0.015625)"/>
      <path id="ArialMT-49" d="M 597 0 
L 597 4581 
L 1203 4581 
L 1203 0 
L 597 0 
z
" transform="scale(0.015625)"/>
      <path id="ArialMT-62" d="M 941 0 
L 419 0 
L 419 4581 
L 981 4581 
L 981 2947 
Q 1338 3394 1891 3394 
Q 2197 3394 2470 3270 
Q 2744 3147 2920 2923 
Q 3097 2700 3197 2384 
Q 3297 2069 3297 1709 
Q 3297 856 2875 390 
Q 2453 -75 1863 -75 
Q 1275 -75 941 416 
L 941 0 
z
M 934 1684 
Q 934 1088 1097 822 
Q 1363 388 1816 388 
Q 2184 388 2453 708 
Q 2722 1028 2722 1663 
Q 2722 2313 2464 2622 
Q 2206 2931 1841 2931 
Q 1472 2931 1203 2611 
Q 934 2291 934 1684 
z
" transform="scale(0.015625)"/>
      <path id="ArialMT-6c" d="M 409 0 
L 409 4581 
L 972 4581 
L 972 0 
L 409 0 
z
" transform="scale(0.015625)"/>
      <path id="ArialMT-46" d="M 525 0 
L 525 4581 
L 3616 4581 
L 3616 4041 
L 1131 4041 
L 1131 2622 
L 3281 2622 
L 3281 2081 
L 1131 2081 
L 1131 0 
L 525 0 
z
" transform="scale(0.015625)"/>
     </defs>
     <use xlink:href="#ArialMT-4e"/>
     <use xlink:href="#ArialMT-65" x="72.216797"/>
     <use xlink:href="#ArialMT-74" x="127.832031"/>
     <use xlink:href="#ArialMT-43" x="155.615234"/>
     <use xlink:href="#ArialMT-6f" x="227.832031"/>
     <use xlink:href="#ArialMT-6e" x="283.447266"/>
     <use xlink:href="#ArialMT-6e" x="339.0625"/>
     <use xlink:href="#ArialMT-65" x="394.677734"/>
     <use xlink:href="#ArialMT-63" x="450.292969"/>
     <use xlink:href="#ArialMT-74" x="500.292969"/>
     <use xlink:href="#ArialMT-20" x="528.076172"/>
     <use xlink:href="#ArialMT-47" x="555.859375"/>
     <use xlink:href="#ArialMT-65" x="633.642578"/>
     <use xlink:href="#ArialMT-72" x="689.257812"/>
     <use xlink:href="#ArialMT-6d" x="722.558594"/>
     <use xlink:href="#ArialMT-61" x="805.859375"/>
     <use xlink:href="#ArialMT-6e" x="861.474609"/>
     <use xlink:href="#ArialMT-79" x="917.089844"/>
     <use xlink:href="#ArialMT-20" x="967.089844"/>
     <use xlink:href="#ArialMT-4e" x="994.873047"/>
     <use xlink:href="#ArialMT-65" x="1067.089844"/>
     <use xlink:href="#ArialMT-67" x="1122.705078"/>
     <use xlink:href="#ArialMT-61" x="1178.320312"/>
     <use xlink:href="#ArialMT-74" x="1233.935547"/>
     <use xlink:href="#ArialMT-69" x="1261.71875"/>
     <use xlink:href="#ArialMT-76" x="1283.935547"/>
     <use xlink:href="#ArialMT-65" x="1333.935547"/>
     <use xlink:href="#ArialMT-20" x="1389.550781"/>
     <use xlink:href="#ArialMT-45" x="1417.333984"/>
     <use xlink:href="#ArialMT-6e" x="1484.033203"/>
     <use xlink:href="#ArialMT-65" x="1539.648438"/>
     <use xlink:href="#ArialMT-72" x="1595.263672"/>
     <use xlink:href="#ArialMT-67" x="1628.564453"/>
     <use xlink:href="#ArialMT-79" x="1684.179688"/>
     <use xlink:href="#ArialMT-20" x="1734.179688"/>
     <use xlink:href="#ArialMT-49" x="1761.962891"/>
     <use xlink:href="#ArialMT-6d" x="1789.746094"/>
     <use xlink:href="#ArialMT-62" x="1873.046875"/>
     <use xlink:href="#ArialMT-61" x="1928.662109"/>
     <use xlink:href="#ArialMT-6c" x="1984.277344"/>
     <use xlink:href="#ArialMT-61" x="2006.494141"/>
     <use xlink:href="#ArialMT-6e" x="2062.109375"/>
     <use xlink:href="#ArialMT-63" x="2117.724609"/>
     <use xlink:href="#ArialMT-65" x="2167.724609"/>
     <use xlink:href="#ArialMT-20" x="2223.339844"/>
     <use xlink:href="#ArialMT-46" x="2251.123047"/>
     <use xlink:href="#ArialMT-65" x="2312.207031"/>
     <use xlink:href="#ArialMT-65" x="2367.822266"/>
     <use xlink:href="#ArialMT-20" x="2423.4375"/>
     <use xlink:href="#ArialMT-28" x="2451.220703"/>
     <use xlink:href="#ArialMT-20ac" x="2484.521484"/>
     <use xlink:href="#ArialMT-2f" x="2540.136719"/>
     <use xlink:href="#ArialMT-4d" x="2567.919922"/>
     <use xlink:href="#ArialMT-57" x="2651.220703"/>
     <use xlink:href="#ArialMT-68" x="2745.605469"/>
     <use xlink:href="#ArialMT-29" x="2801.220703"/>
    </g>
   </g>
  </g>
 </g>
 <defs>
  <clipPath id="pbdb7a6ba87">
   <rect x="66.87975" y="27.177" width="781.2" height="221.76"/>
  </clipPath>
 </defs>
</svg>
