<?xml version="1.0" encoding="utf-8" standalone="no"?>
<!DOCTYPE svg PUBLIC "-//W3C//DTD SVG 1.1//EN"
  "http://www.w3.org/Graphics/SVG/1.1/DTD/svg11.dtd">
<svg xmlns:xlink="http://www.w3.org/1999/xlink" width="854.82075pt" height="592.23725pt" viewBox="0 0 854.82075 592.23725" xmlns="http://www.w3.org/2000/svg" version="1.1">
 <metadata>
  <rdf:RDF xmlns:dc="http://purl.org/dc/elements/1.1/" xmlns:cc="http://creativecommons.org/ns#" xmlns:rdf="http://www.w3.org/1999/02/22-rdf-syntax-ns#">
   <cc:Work>
    <dc:type rdf:resource="http://purl.org/dc/dcmitype/StillImage"/>
    <dc:date>2023-05-11T17:56:48.759588</dc:date>
    <dc:format>image/svg+xml</dc:format>
    <dc:creator>
     <cc:Agent>
      <dc:title>Matplotlib v3.7.1, https://matplotlib.org/</dc:title>
     </cc:Agent>
    </dc:creator>
   </cc:Work>
  </rdf:RDF>
 </metadata>
 <defs>
  <style type="text/css">*{stroke-linejoin: round; stroke-linecap: butt}</style>
 </defs>
 <g id="figure_1">
  <g id="patch_1">
   <path d="M 0 592.23725 
L 854.82075 592.23725 
L 854.82075 0 
L 0 0 
z
" style="fill: #ffffff"/>
  </g>
  <g id="axes_1">
   <g id="patch_2">
    <path d="M 66.42075 320.937 
L 847.62075 320.937 
L 847.62075 27.177 
L 66.42075 27.177 
z
" style="fill: #ffffff"/>
   </g>
   <g id="matplotlib.axis_1">
    <g id="xtick_1">
     <g id="line2d_1">
      <path d="M 136.491279 320.937 
L 136.491279 27.177 
" clip-path="url(#pa9e922ad79)" style="fill: none; stroke: #cccccc; stroke-width: 0.8; stroke-linecap: round"/>
     </g>
     <g id="text_1">
      <!-- 2021-04 -->
      <g style="fill: #262626" transform="translate(78.811111 372.438847) rotate(-30) scale(0.176 -0.176)">
       <defs>
        <path id="ArialMT-32" d="M 3222 541 
L 3222 0 
L 194 0 
Q 188 203 259 391 
Q 375 700 629 1000 
Q 884 1300 1366 1694 
Q 2113 2306 2375 2664 
Q 2638 3022 2638 3341 
Q 2638 3675 2398 3904 
Q 2159 4134 1775 4134 
Q 1369 4134 1125 3890 
Q 881 3647 878 3216 
L 300 3275 
Q 359 3922 746 4261 
Q 1134 4600 1788 4600 
Q 2447 4600 2831 4234 
Q 3216 3869 3216 3328 
Q 3216 3053 3103 2787 
Q 2991 2522 2730 2228 
Q 2469 1934 1863 1422 
Q 1356 997 1212 845 
Q 1069 694 975 541 
L 3222 541 
z
" transform="scale(0.015625)"/>
        <path id="ArialMT-30" d="M 266 2259 
Q 266 3072 433 3567 
Q 600 4063 929 4331 
Q 1259 4600 1759 4600 
Q 2128 4600 2406 4451 
Q 2684 4303 2865 4023 
Q 3047 3744 3150 3342 
Q 3253 2941 3253 2259 
Q 3253 1453 3087 958 
Q 2922 463 2592 192 
Q 2263 -78 1759 -78 
Q 1097 -78 719 397 
Q 266 969 266 2259 
z
M 844 2259 
Q 844 1131 1108 757 
Q 1372 384 1759 384 
Q 2147 384 2411 759 
Q 2675 1134 2675 2259 
Q 2675 3391 2411 3762 
Q 2147 4134 1753 4134 
Q 1366 4134 1134 3806 
Q 844 3388 844 2259 
z
" transform="scale(0.015625)"/>
        <path id="ArialMT-31" d="M 2384 0 
L 1822 0 
L 1822 3584 
Q 1619 3391 1289 3197 
Q 959 3003 697 2906 
L 697 3450 
Q 1169 3672 1522 3987 
Q 1875 4303 2022 4600 
L 2384 4600 
L 2384 0 
z
" transform="scale(0.015625)"/>
        <path id="ArialMT-2d" d="M 203 1375 
L 203 1941 
L 1931 1941 
L 1931 1375 
L 203 1375 
z
" transform="scale(0.015625)"/>
        <path id="ArialMT-34" d="M 2069 0 
L 2069 1097 
L 81 1097 
L 81 1613 
L 2172 4581 
L 2631 4581 
L 2631 1613 
L 3250 1613 
L 3250 1097 
L 2631 1097 
L 2631 0 
L 2069 0 
z
M 2069 1613 
L 2069 3678 
L 634 1613 
L 2069 1613 
z
" transform="scale(0.015625)"/>
       </defs>
       <use xlink:href="#ArialMT-32"/>
       <use xlink:href="#ArialMT-30" x="55.615234"/>
       <use xlink:href="#ArialMT-32" x="111.230469"/>
       <use xlink:href="#ArialMT-31" x="166.845703"/>
       <use xlink:href="#ArialMT-2d" x="222.460938"/>
       <use xlink:href="#ArialMT-30" x="255.761719"/>
       <use xlink:href="#ArialMT-34" x="311.376953"/>
      </g>
     </g>
    </g>
    <g id="xtick_2">
     <g id="line2d_2">
      <path d="M 237.945825 320.937 
L 237.945825 27.177 
" clip-path="url(#pa9e922ad79)" style="fill: none; stroke: #cccccc; stroke-width: 0.8; stroke-linecap: round"/>
     </g>
     <g id="text_2">
      <!-- 2021-07 -->
      <g style="fill: #262626" transform="translate(180.265657 372.438847) rotate(-30) scale(0.176 -0.176)">
       <defs>
        <path id="ArialMT-37" d="M 303 3981 
L 303 4522 
L 3269 4522 
L 3269 4084 
Q 2831 3619 2401 2847 
Q 1972 2075 1738 1259 
Q 1569 684 1522 0 
L 944 0 
Q 953 541 1156 1306 
Q 1359 2072 1739 2783 
Q 2119 3494 2547 3981 
L 303 3981 
z
" transform="scale(0.015625)"/>
       </defs>
       <use xlink:href="#ArialMT-32"/>
       <use xlink:href="#ArialMT-30" x="55.615234"/>
       <use xlink:href="#ArialMT-32" x="111.230469"/>
       <use xlink:href="#ArialMT-31" x="166.845703"/>
       <use xlink:href="#ArialMT-2d" x="222.460938"/>
       <use xlink:href="#ArialMT-30" x="255.761719"/>
       <use xlink:href="#ArialMT-37" x="311.376953"/>
      </g>
     </g>
    </g>
    <g id="xtick_3">
     <g id="line2d_3">
      <path d="M 340.515255 320.937 
L 340.515255 27.177 
" clip-path="url(#pa9e922ad79)" style="fill: none; stroke: #cccccc; stroke-width: 0.8; stroke-linecap: round"/>
     </g>
     <g id="text_3">
      <!-- 2021-10 -->
      <g style="fill: #262626" transform="translate(282.835087 372.438847) rotate(-30) scale(0.176 -0.176)">
       <use xlink:href="#ArialMT-32"/>
       <use xlink:href="#ArialMT-30" x="55.615234"/>
       <use xlink:href="#ArialMT-32" x="111.230469"/>
       <use xlink:href="#ArialMT-31" x="166.845703"/>
       <use xlink:href="#ArialMT-2d" x="222.460938"/>
       <use xlink:href="#ArialMT-31" x="255.761719"/>
       <use xlink:href="#ArialMT-30" x="311.376953"/>
      </g>
     </g>
    </g>
    <g id="xtick_4">
     <g id="line2d_4">
      <path d="M 443.084686 320.937 
L 443.084686 27.177 
" clip-path="url(#pa9e922ad79)" style="fill: none; stroke: #cccccc; stroke-width: 0.8; stroke-linecap: round"/>
     </g>
     <g id="text_4">
      <!-- 2022-01 -->
      <g style="fill: #262626" transform="translate(385.404518 372.438847) rotate(-30) scale(0.176 -0.176)">
       <use xlink:href="#ArialMT-32"/>
       <use xlink:href="#ArialMT-30" x="55.615234"/>
       <use xlink:href="#ArialMT-32" x="111.230469"/>
       <use xlink:href="#ArialMT-32" x="166.845703"/>
       <use xlink:href="#ArialMT-2d" x="222.460938"/>
       <use xlink:href="#ArialMT-30" x="255.761719"/>
       <use xlink:href="#ArialMT-31" x="311.376953"/>
      </g>
     </g>
    </g>
    <g id="xtick_5">
     <g id="line2d_5">
      <path d="M 543.424346 320.937 
L 543.424346 27.177 
" clip-path="url(#pa9e922ad79)" style="fill: none; stroke: #cccccc; stroke-width: 0.8; stroke-linecap: round"/>
     </g>
     <g id="text_5">
      <!-- 2022-04 -->
      <g style="fill: #262626" transform="translate(485.744178 372.438847) rotate(-30) scale(0.176 -0.176)">
       <use xlink:href="#ArialMT-32"/>
       <use xlink:href="#ArialMT-30" x="55.615234"/>
       <use xlink:href="#ArialMT-32" x="111.230469"/>
       <use xlink:href="#ArialMT-32" x="166.845703"/>
       <use xlink:href="#ArialMT-2d" x="222.460938"/>
       <use xlink:href="#ArialMT-30" x="255.761719"/>
       <use xlink:href="#ArialMT-34" x="311.376953"/>
      </g>
     </g>
    </g>
    <g id="xtick_6">
     <g id="line2d_6">
      <path d="M 644.878892 320.937 
L 644.878892 27.177 
" clip-path="url(#pa9e922ad79)" style="fill: none; stroke: #cccccc; stroke-width: 0.8; stroke-linecap: round"/>
     </g>
     <g id="text_6">
      <!-- 2022-07 -->
      <g style="fill: #262626" transform="translate(587.198724 372.438847) rotate(-30) scale(0.176 -0.176)">
       <use xlink:href="#ArialMT-32"/>
       <use xlink:href="#ArialMT-30" x="55.615234"/>
       <use xlink:href="#ArialMT-32" x="111.230469"/>
       <use xlink:href="#ArialMT-32" x="166.845703"/>
       <use xlink:href="#ArialMT-2d" x="222.460938"/>
       <use xlink:href="#ArialMT-30" x="255.761719"/>
       <use xlink:href="#ArialMT-37" x="311.376953"/>
      </g>
     </g>
    </g>
    <g id="xtick_7">
     <g id="line2d_7">
      <path d="M 747.448322 320.937 
L 747.448322 27.177 
" clip-path="url(#pa9e922ad79)" style="fill: none; stroke: #cccccc; stroke-width: 0.8; stroke-linecap: round"/>
     </g>
     <g id="text_7">
      <!-- 2022-10 -->
      <g style="fill: #262626" transform="translate(689.768154 372.438847) rotate(-30) scale(0.176 -0.176)">
       <use xlink:href="#ArialMT-32"/>
       <use xlink:href="#ArialMT-30" x="55.615234"/>
       <use xlink:href="#ArialMT-32" x="111.230469"/>
       <use xlink:href="#ArialMT-32" x="166.845703"/>
       <use xlink:href="#ArialMT-2d" x="222.460938"/>
       <use xlink:href="#ArialMT-31" x="255.761719"/>
       <use xlink:href="#ArialMT-30" x="311.376953"/>
      </g>
     </g>
    </g>
    <g id="text_8">
     <!-- Date -->
     <g style="fill: #262626" transform="translate(436.74375 393.211203) scale(0.192 -0.192)">
      <defs>
       <path id="ArialMT-44" d="M 494 0 
L 494 4581 
L 2072 4581 
Q 2606 4581 2888 4516 
Q 3281 4425 3559 4188 
Q 3922 3881 4101 3404 
Q 4281 2928 4281 2316 
Q 4281 1794 4159 1391 
Q 4038 988 3847 723 
Q 3656 459 3429 307 
Q 3203 156 2883 78 
Q 2563 0 2147 0 
L 494 0 
z
M 1100 541 
L 2078 541 
Q 2531 541 2789 625 
Q 3047 709 3200 863 
Q 3416 1078 3536 1442 
Q 3656 1806 3656 2325 
Q 3656 3044 3420 3430 
Q 3184 3816 2847 3947 
Q 2603 4041 2063 4041 
L 1100 4041 
L 1100 541 
z
" transform="scale(0.015625)"/>
       <path id="ArialMT-61" d="M 2588 409 
Q 2275 144 1986 34 
Q 1697 -75 1366 -75 
Q 819 -75 525 192 
Q 231 459 231 875 
Q 231 1119 342 1320 
Q 453 1522 633 1644 
Q 813 1766 1038 1828 
Q 1203 1872 1538 1913 
Q 2219 1994 2541 2106 
Q 2544 2222 2544 2253 
Q 2544 2597 2384 2738 
Q 2169 2928 1744 2928 
Q 1347 2928 1158 2789 
Q 969 2650 878 2297 
L 328 2372 
Q 403 2725 575 2942 
Q 747 3159 1072 3276 
Q 1397 3394 1825 3394 
Q 2250 3394 2515 3294 
Q 2781 3194 2906 3042 
Q 3031 2891 3081 2659 
Q 3109 2516 3109 2141 
L 3109 1391 
Q 3109 606 3145 398 
Q 3181 191 3288 0 
L 2700 0 
Q 2613 175 2588 409 
z
M 2541 1666 
Q 2234 1541 1622 1453 
Q 1275 1403 1131 1340 
Q 988 1278 909 1158 
Q 831 1038 831 891 
Q 831 666 1001 516 
Q 1172 366 1500 366 
Q 1825 366 2078 508 
Q 2331 650 2450 897 
Q 2541 1088 2541 1459 
L 2541 1666 
z
" transform="scale(0.015625)"/>
       <path id="ArialMT-74" d="M 1650 503 
L 1731 6 
Q 1494 -44 1306 -44 
Q 1000 -44 831 53 
Q 663 150 594 308 
Q 525 466 525 972 
L 525 2881 
L 113 2881 
L 113 3319 
L 525 3319 
L 525 4141 
L 1084 4478 
L 1084 3319 
L 1650 3319 
L 1650 2881 
L 1084 2881 
L 1084 941 
Q 1084 700 1114 631 
Q 1144 563 1211 522 
Q 1278 481 1403 481 
Q 1497 481 1650 503 
z
" transform="scale(0.015625)"/>
       <path id="ArialMT-65" d="M 2694 1069 
L 3275 997 
Q 3138 488 2766 206 
Q 2394 -75 1816 -75 
Q 1088 -75 661 373 
Q 234 822 234 1631 
Q 234 2469 665 2931 
Q 1097 3394 1784 3394 
Q 2450 3394 2872 2941 
Q 3294 2488 3294 1666 
Q 3294 1616 3291 1516 
L 816 1516 
Q 847 969 1125 678 
Q 1403 388 1819 388 
Q 2128 388 2347 550 
Q 2566 713 2694 1069 
z
M 847 1978 
L 2700 1978 
Q 2663 2397 2488 2606 
Q 2219 2931 1791 2931 
Q 1403 2931 1139 2672 
Q 875 2413 847 1978 
z
" transform="scale(0.015625)"/>
      </defs>
      <use xlink:href="#ArialMT-44"/>
      <use xlink:href="#ArialMT-61" x="72.216797"/>
      <use xlink:href="#ArialMT-74" x="127.832031"/>
      <use xlink:href="#ArialMT-65" x="155.615234"/>
     </g>
    </g>
   </g>
   <g id="matplotlib.axis_2">
    <g id="ytick_1">
     <g id="line2d_8">
      <path d="M 66.42075 307.584273 
L 847.62075 307.584273 
" clip-path="url(#pa9e922ad79)" style="fill: none; stroke: #cccccc; stroke-width: 0.8; stroke-linecap: round"/>
     </g>
     <g id="text_9">
      <!-- 0 -->
      <g style="fill: #262626" transform="translate(48.3335 313.883148) scale(0.176 -0.176)">
       <use xlink:href="#ArialMT-30"/>
      </g>
     </g>
    </g>
    <g id="ytick_2">
     <g id="line2d_9">
      <path d="M 66.42075 265.505113 
L 847.62075 265.505113 
" clip-path="url(#pa9e922ad79)" style="fill: none; stroke: #cccccc; stroke-width: 0.8; stroke-linecap: round"/>
     </g>
     <g id="text_10">
      <!-- 50 -->
      <g style="fill: #262626" transform="translate(38.54625 271.803988) scale(0.176 -0.176)">
       <defs>
        <path id="ArialMT-35" d="M 266 1200 
L 856 1250 
Q 922 819 1161 601 
Q 1400 384 1738 384 
Q 2144 384 2425 690 
Q 2706 997 2706 1503 
Q 2706 1984 2436 2262 
Q 2166 2541 1728 2541 
Q 1456 2541 1237 2417 
Q 1019 2294 894 2097 
L 366 2166 
L 809 4519 
L 3088 4519 
L 3088 3981 
L 1259 3981 
L 1013 2750 
Q 1425 3038 1878 3038 
Q 2478 3038 2890 2622 
Q 3303 2206 3303 1553 
Q 3303 931 2941 478 
Q 2500 -78 1738 -78 
Q 1113 -78 717 272 
Q 322 622 266 1200 
z
" transform="scale(0.015625)"/>
       </defs>
       <use xlink:href="#ArialMT-35"/>
       <use xlink:href="#ArialMT-30" x="55.615234"/>
      </g>
     </g>
    </g>
    <g id="ytick_3">
     <g id="line2d_10">
      <path d="M 66.42075 223.425953 
L 847.62075 223.425953 
" clip-path="url(#pa9e922ad79)" style="fill: none; stroke: #cccccc; stroke-width: 0.8; stroke-linecap: round"/>
     </g>
     <g id="text_11">
      <!-- 100 -->
      <g style="fill: #262626" transform="translate(28.759 229.724828) scale(0.176 -0.176)">
       <use xlink:href="#ArialMT-31"/>
       <use xlink:href="#ArialMT-30" x="55.615234"/>
       <use xlink:href="#ArialMT-30" x="111.230469"/>
      </g>
     </g>
    </g>
    <g id="ytick_4">
     <g id="line2d_11">
      <path d="M 66.42075 181.346794 
L 847.62075 181.346794 
" clip-path="url(#pa9e922ad79)" style="fill: none; stroke: #cccccc; stroke-width: 0.8; stroke-linecap: round"/>
     </g>
     <g id="text_12">
      <!-- 150 -->
      <g style="fill: #262626" transform="translate(28.759 187.645669) scale(0.176 -0.176)">
       <use xlink:href="#ArialMT-31"/>
       <use xlink:href="#ArialMT-35" x="55.615234"/>
       <use xlink:href="#ArialMT-30" x="111.230469"/>
      </g>
     </g>
    </g>
    <g id="ytick_5">
     <g id="line2d_12">
      <path d="M 66.42075 139.267634 
L 847.62075 139.267634 
" clip-path="url(#pa9e922ad79)" style="fill: none; stroke: #cccccc; stroke-width: 0.8; stroke-linecap: round"/>
     </g>
     <g id="text_13">
      <!-- 200 -->
      <g style="fill: #262626" transform="translate(28.759 145.566509) scale(0.176 -0.176)">
       <use xlink:href="#ArialMT-32"/>
       <use xlink:href="#ArialMT-30" x="55.615234"/>
       <use xlink:href="#ArialMT-30" x="111.230469"/>
      </g>
     </g>
    </g>
    <g id="ytick_6">
     <g id="line2d_13">
      <path d="M 66.42075 97.188474 
L 847.62075 97.188474 
" clip-path="url(#pa9e922ad79)" style="fill: none; stroke: #cccccc; stroke-width: 0.8; stroke-linecap: round"/>
     </g>
     <g id="text_14">
      <!-- 250 -->
      <g style="fill: #262626" transform="translate(28.759 103.487349) scale(0.176 -0.176)">
       <use xlink:href="#ArialMT-32"/>
       <use xlink:href="#ArialMT-35" x="55.615234"/>
       <use xlink:href="#ArialMT-30" x="111.230469"/>
      </g>
     </g>
    </g>
    <g id="ytick_7">
     <g id="line2d_14">
      <path d="M 66.42075 55.109315 
L 847.62075 55.109315 
" clip-path="url(#pa9e922ad79)" style="fill: none; stroke: #cccccc; stroke-width: 0.8; stroke-linecap: round"/>
     </g>
     <g id="text_15">
      <!-- 300 -->
      <g style="fill: #262626" transform="translate(28.759 61.40819) scale(0.176 -0.176)">
       <defs>
        <path id="ArialMT-33" d="M 269 1209 
L 831 1284 
Q 928 806 1161 595 
Q 1394 384 1728 384 
Q 2125 384 2398 659 
Q 2672 934 2672 1341 
Q 2672 1728 2419 1979 
Q 2166 2231 1775 2231 
Q 1616 2231 1378 2169 
L 1441 2663 
Q 1497 2656 1531 2656 
Q 1891 2656 2178 2843 
Q 2466 3031 2466 3422 
Q 2466 3731 2256 3934 
Q 2047 4138 1716 4138 
Q 1388 4138 1169 3931 
Q 950 3725 888 3313 
L 325 3413 
Q 428 3978 793 4289 
Q 1159 4600 1703 4600 
Q 2078 4600 2393 4439 
Q 2709 4278 2876 4000 
Q 3044 3722 3044 3409 
Q 3044 3113 2884 2869 
Q 2725 2625 2413 2481 
Q 2819 2388 3044 2092 
Q 3269 1797 3269 1353 
Q 3269 753 2831 336 
Q 2394 -81 1725 -81 
Q 1122 -81 723 278 
Q 325 638 269 1209 
z
" transform="scale(0.015625)"/>
       </defs>
       <use xlink:href="#ArialMT-33"/>
       <use xlink:href="#ArialMT-30" x="55.615234"/>
       <use xlink:href="#ArialMT-30" x="111.230469"/>
      </g>
     </g>
    </g>
    <g id="text_16">
     <!-- EUR/MWh -->
     <g style="fill: #262626" transform="translate(20.943 219.39) rotate(-90) scale(0.192 -0.192)">
      <defs>
       <path id="ArialMT-45" d="M 506 0 
L 506 4581 
L 3819 4581 
L 3819 4041 
L 1113 4041 
L 1113 2638 
L 3647 2638 
L 3647 2100 
L 1113 2100 
L 1113 541 
L 3925 541 
L 3925 0 
L 506 0 
z
" transform="scale(0.015625)"/>
       <path id="ArialMT-55" d="M 3500 4581 
L 4106 4581 
L 4106 1934 
Q 4106 1244 3950 837 
Q 3794 431 3386 176 
Q 2978 -78 2316 -78 
Q 1672 -78 1262 144 
Q 853 366 678 786 
Q 503 1206 503 1934 
L 503 4581 
L 1109 4581 
L 1109 1938 
Q 1109 1341 1220 1058 
Q 1331 775 1601 622 
Q 1872 469 2263 469 
Q 2931 469 3215 772 
Q 3500 1075 3500 1938 
L 3500 4581 
z
" transform="scale(0.015625)"/>
       <path id="ArialMT-52" d="M 503 0 
L 503 4581 
L 2534 4581 
Q 3147 4581 3465 4457 
Q 3784 4334 3975 4021 
Q 4166 3709 4166 3331 
Q 4166 2844 3850 2509 
Q 3534 2175 2875 2084 
Q 3116 1969 3241 1856 
Q 3506 1613 3744 1247 
L 4541 0 
L 3778 0 
L 3172 953 
Q 2906 1366 2734 1584 
Q 2563 1803 2427 1890 
Q 2291 1978 2150 2013 
Q 2047 2034 1813 2034 
L 1109 2034 
L 1109 0 
L 503 0 
z
M 1109 2559 
L 2413 2559 
Q 2828 2559 3062 2645 
Q 3297 2731 3419 2920 
Q 3541 3109 3541 3331 
Q 3541 3656 3305 3865 
Q 3069 4075 2559 4075 
L 1109 4075 
L 1109 2559 
z
" transform="scale(0.015625)"/>
       <path id="ArialMT-2f" d="M 0 -78 
L 1328 4659 
L 1778 4659 
L 453 -78 
L 0 -78 
z
" transform="scale(0.015625)"/>
       <path id="ArialMT-4d" d="M 475 0 
L 475 4581 
L 1388 4581 
L 2472 1338 
Q 2622 884 2691 659 
Q 2769 909 2934 1394 
L 4031 4581 
L 4847 4581 
L 4847 0 
L 4263 0 
L 4263 3834 
L 2931 0 
L 2384 0 
L 1059 3900 
L 1059 0 
L 475 0 
z
" transform="scale(0.015625)"/>
       <path id="ArialMT-57" d="M 1294 0 
L 78 4581 
L 700 4581 
L 1397 1578 
Q 1509 1106 1591 641 
Q 1766 1375 1797 1488 
L 2669 4581 
L 3400 4581 
L 4056 2263 
Q 4303 1400 4413 641 
Q 4500 1075 4641 1638 
L 5359 4581 
L 5969 4581 
L 4713 0 
L 4128 0 
L 3163 3491 
Q 3041 3928 3019 4028 
Q 2947 3713 2884 3491 
L 1913 0 
L 1294 0 
z
" transform="scale(0.015625)"/>
       <path id="ArialMT-68" d="M 422 0 
L 422 4581 
L 984 4581 
L 984 2938 
Q 1378 3394 1978 3394 
Q 2347 3394 2619 3248 
Q 2891 3103 3008 2847 
Q 3125 2591 3125 2103 
L 3125 0 
L 2563 0 
L 2563 2103 
Q 2563 2525 2380 2717 
Q 2197 2909 1863 2909 
Q 1613 2909 1392 2779 
Q 1172 2650 1078 2428 
Q 984 2206 984 1816 
L 984 0 
L 422 0 
z
" transform="scale(0.015625)"/>
      </defs>
      <use xlink:href="#ArialMT-45"/>
      <use xlink:href="#ArialMT-55" x="66.699219"/>
      <use xlink:href="#ArialMT-52" x="138.916016"/>
      <use xlink:href="#ArialMT-2f" x="211.132812"/>
      <use xlink:href="#ArialMT-4d" x="238.916016"/>
      <use xlink:href="#ArialMT-57" x="322.216797"/>
      <use xlink:href="#ArialMT-68" x="416.601562"/>
     </g>
    </g>
   </g>
   <g id="LineCollection_1">
    <path d="M 477.646125 320.937 
L 477.646125 27.177 
" clip-path="url(#pa9e922ad79)" style="fill: none; stroke: #ff0000; stroke-opacity: 0.5; stroke-width: 1.2"/>
   </g>
   <g id="LineCollection_2">
    <path d="M 503.288482 320.937 
L 503.288482 27.177 
" clip-path="url(#pa9e922ad79)" style="fill: none; stroke: #ff0000; stroke-opacity: 0.5; stroke-width: 1.2"/>
   </g>
   <g id="LineCollection_3">
    <path d="M 695.048722 320.937 
L 695.048722 27.177 
" clip-path="url(#pa9e922ad79)" style="fill: none; stroke: #008000; stroke-opacity: 0.5; stroke-width: 1.2"/>
   </g>
   <g id="LineCollection_4">
    <path d="M 712.886884 320.937 
L 712.886884 27.177 
" clip-path="url(#pa9e922ad79)" style="fill: none; stroke: #ff0000; stroke-opacity: 0.5; stroke-width: 1.2"/>
   </g>
   <g id="LineCollection_5">
    <path d="M 719.576195 320.937 
L 719.576195 27.177 
" clip-path="url(#pa9e922ad79)" style="fill: none; stroke: #008000; stroke-opacity: 0.5; stroke-width: 1.2"/>
   </g>
   <g id="LineCollection_6">
    <path d="M 735.184586 320.937 
L 735.184586 27.177 
" clip-path="url(#pa9e922ad79)" style="fill: none; stroke: #008000; stroke-opacity: 0.5; stroke-width: 1.2"/>
   </g>
   <g id="line2d_15">
    <path d="M 101.929841 291.972904 
L 103.044726 292.793448 
L 104.159611 293.130081 
L 105.274496 292.856567 
L 106.389381 292.761889 
L 107.504266 292.530453 
L 108.619152 292.756418 
L 109.734037 292.267459 
L 111.963807 292.141221 
L 113.078692 291.594192 
L 114.193577 291.769241 
L 116.423347 290.668451 
L 117.538233 290.489614 
L 118.653118 290.510654 
L 119.768003 291.373276 
L 120.882888 290.794688 
L 121.997773 291.277336 
L 124.227543 291.794068 
L 125.342428 291.531073 
L 126.457313 291.068203 
L 128.687084 291.3434 
L 129.801969 291.504984 
L 130.916854 291.361915 
L 132.031739 291.45996 
L 133.146624 291.372435 
L 134.261509 291.734736 
L 135.376394 291.284489 
L 136.491279 291.086297 
L 137.606165 290.121421 
L 138.72105 290.247659 
L 139.835935 290.079342 
L 140.95082 289.484343 
L 142.065705 289.18516 
L 143.18059 289.2062 
L 144.295475 289.490234 
L 145.41036 290.330134 
L 146.525246 290.310778 
L 148.755016 289.053032 
L 149.869901 289.122041 
L 150.984786 289.505383 
L 152.099671 289.511274 
L 153.214556 289.069442 
L 155.444326 289.240284 
L 156.559212 288.965086 
L 157.674097 289.023576 
L 158.788982 288.933948 
L 159.903867 288.718923 
L 161.018752 288.719765 
L 162.133637 289.7486 
L 163.248522 290.177808 
L 164.363407 289.511274 
L 165.478292 289.563873 
L 166.593178 288.68526 
L 167.708063 287.512514 
L 168.822948 287.743949 
L 169.937833 286.807688 
L 171.052718 286.923405 
L 172.167603 286.292218 
L 173.282488 286.323777 
L 174.397373 285.724149 
L 175.512258 285.408556 
L 176.627144 285.576872 
L 177.742029 286.081822 
L 178.856914 286.292218 
L 179.971799 286.738678 
L 181.086684 285.222986 
L 182.201569 284.429374 
L 183.316454 284.461774 
L 184.431339 284.69321 
L 185.546225 284.349844 
L 186.66111 284.39571 
L 187.775995 283.830587 
L 188.89088 284.272418 
L 190.005765 284.430215 
L 191.12065 286.986524 
L 192.235535 286.029223 
L 193.35042 285.554149 
L 195.580191 286.131055 
L 197.809961 284.282938 
L 198.924846 284.261898 
L 200.039731 285.313877 
L 201.154616 285.781798 
L 204.499271 285.987144 
L 205.614157 284.798408 
L 206.729042 285.415709 
L 211.188582 285.179224 
L 212.303467 284.523631 
L 213.418352 283.406429 
L 214.533238 283.093781 
L 215.648123 283.148905 
L 216.763008 283.458607 
L 217.877893 283.490587 
L 218.992778 283.377815 
L 220.107663 282.721801 
L 221.222548 283.323112 
L 222.337433 283.398434 
L 223.452318 283.258731 
L 224.567204 282.659103 
L 225.682089 282.350663 
L 226.796974 282.298485 
L 227.911859 280.966679 
L 229.026744 281.270912 
L 230.141629 280.53663 
L 232.371399 280.146977 
L 233.486284 280.185269 
L 235.716055 279.971507 
L 236.83094 275.372676 
L 237.945825 277.413515 
L 239.06071 276.433492 
L 240.175595 276.653145 
L 241.29048 276.744457 
L 243.52025 275.513641 
L 244.635136 276.240769 
L 245.750021 278.241633 
L 246.864906 278.283712 
L 247.979791 276.728046 
L 250.209561 276.69312 
L 251.324446 277.073516 
L 252.439331 277.259926 
L 253.554217 277.792648 
L 254.669102 278.103193 
L 255.783987 277.533862 
L 256.898872 277.503565 
L 258.013757 277.324728 
L 259.128642 276.529011 
L 260.243527 277.444654 
L 261.358412 276.770546 
L 262.473297 276.79411 
L 263.588183 277.315471 
L 265.817953 277.129481 
L 266.932838 276.147353 
L 268.047723 275.445473 
L 269.162608 273.979435 
L 270.277493 272.861392 
L 271.392378 273.413891 
L 273.622149 273.303223 
L 274.737034 271.710947 
L 275.851919 272.195699 
L 276.966804 272.120378 
L 278.081689 271.630997 
L 279.196574 271.009067 
L 280.311459 271.084389 
L 281.426344 270.790676 
L 282.54123 270.940057 
L 284.771 268.537758 
L 285.885885 268.605926 
L 287.00077 269.52241 
L 288.115655 269.498846 
L 289.23054 268.350927 
L 290.345425 266.942116 
L 291.46031 267.586348 
L 292.575196 268.530184 
L 293.690081 272.560526 
L 295.919851 272.111541 
L 297.034736 272.048843 
L 298.149621 270.807929 
L 299.264506 269.228698 
L 300.379391 268.870183 
L 301.494276 268.639169 
L 302.609162 267.052364 
L 303.724047 267.197537 
L 304.838932 267.111275 
L 305.953817 265.547192 
L 307.068702 264.415684 
L 308.183587 263.824051 
L 311.528243 263.635957 
L 313.758013 262.496032 
L 314.872898 261.412915 
L 315.987783 259.976332 
L 317.102668 258.288537 
L 318.217553 258.307894 
L 319.332438 258.604552 
L 320.447323 255.915273 
L 321.562209 250.987803 
L 322.677094 250.72565 
L 323.791979 247.645034 
L 324.906864 250.951194 
L 326.021749 237.806506 
L 327.136634 252.496762 
L 329.366404 245.141324 
L 330.481289 245.074839 
L 331.596175 247.184688 
L 332.71106 247.284837 
L 333.825945 249.229736 
L 334.94083 249.812111 
L 336.055715 248.658721 
L 337.1706 242.308976 
L 338.285485 238.048041 
L 339.40037 229.422234 
L 340.515255 226.792286 
L 341.630141 231.006935 
L 342.745026 231.728172 
L 343.859911 229.679758 
L 344.974796 218.376454 
L 346.089681 192.287375 
L 347.204566 209.119039 
L 348.319451 218.207296 
L 349.434336 232.233963 
L 350.549222 231.872082 
L 351.664107 230.95644 
L 352.778992 233.229556 
L 353.893877 229.569511 
L 355.008762 222.668528 
L 356.123647 222.58437 
L 357.238532 226.78387 
L 358.353417 226.836048 
L 359.468302 226.710653 
L 360.583188 227.587582 
L 361.698073 231.809805 
L 363.927843 228.475452 
L 365.042728 223.699468 
L 366.157613 230.411094 
L 367.272498 226.792286 
L 368.387383 230.22847 
L 369.502268 229.064561 
L 370.617154 234.494455 
L 371.732039 241.393755 
L 372.846924 250.756368 
L 373.961809 250.945724 
L 375.076694 247.831866 
L 376.191579 250.017458 
L 377.306464 242.361575 
L 378.421349 240.468013 
L 379.536235 244.027068 
L 380.65112 245.344988 
L 381.766005 245.51078 
L 382.88089 238.911084 
L 385.11066 243.500237 
L 386.225545 245.307116 
L 387.34043 238.574451 
L 388.455315 242.151179 
L 389.570201 243.203158 
L 390.685086 239.584351 
L 391.799971 232.59921 
L 392.914856 223.888824 
L 394.029741 223.728923 
L 396.259511 232.932477 
L 397.374396 232.834012 
L 398.489281 232.430052 
L 399.604167 228.475452 
L 400.719052 228.517532 
L 402.948822 227.717186 
L 404.063707 230.622331 
L 405.178592 230.708173 
L 406.293477 226.371495 
L 407.408362 223.678428 
L 408.523248 225.325407 
L 409.638133 225.955752 
L 410.753018 227.170999 
L 411.867903 228.78768 
L 412.982788 229.040155 
L 414.097673 228.732135 
L 415.212558 227.886344 
L 417.442328 219.49071 
L 418.557214 217.703188 
L 419.672099 214.336855 
L 420.786984 216.314575 
L 421.901869 215.767546 
L 423.016754 206.84424 
L 424.131639 195.653708 
L 425.246524 197.068409 
L 426.361409 190.015101 
L 427.476294 190.604209 
L 428.59118 185.154958 
L 429.706065 175.287395 
L 430.82095 169.564629 
L 431.935835 146.757724 
L 433.05072 160.559689 
L 434.165605 193.048166 
L 435.28049 212.39953 
L 436.395375 214.962993 
L 437.51026 214.017053 
L 438.625146 214.558191 
L 439.740031 221.277391 
L 440.854916 225.424713 
L 441.969801 236.58074 
L 443.084686 245.132909 
L 444.199571 246.025828 
L 446.429341 224.688328 
L 447.544227 226.11902 
L 448.659112 223.678428 
L 449.773997 220.206898 
L 450.888882 229.761392 
L 452.003767 230.181342 
L 453.118652 228.980402 
L 454.233537 231.960448 
L 455.348422 236.748215 
L 456.463307 239.70638 
L 457.578193 230.705648 
L 459.807963 230.49946 
L 460.922848 227.465553 
L 462.037733 237.059601 
L 463.152618 240.56227 
L 464.267503 243.474148 
L 465.382388 237.396234 
L 466.497273 239.577618 
L 467.612159 239.445489 
L 468.727044 235.62891 
L 469.841929 227.633869 
L 470.956814 226.792286 
L 472.071699 228.724561 
L 473.186584 226.834365 
L 474.301469 228.044562 
L 475.416354 227.465553 
L 476.53124 228.214562 
L 477.646125 231.841785 
L 478.76101 241.87514 
L 479.875895 240.756676 
L 480.99078 238.469253 
L 482.105665 235.208118 
L 483.22055 237.252324 
L 484.335435 237.314601 
L 485.45032 238.069501 
L 486.565206 239.652519 
L 487.680091 242.361575 
L 488.794976 240.173459 
L 489.909861 239.500192 
L 491.024746 239.247717 
L 492.139631 241.703457 
L 493.254516 238.422124 
L 494.369401 245.486374 
L 495.484286 244.760087 
L 496.599172 243.455633 
L 497.714057 226.58189 
L 498.828942 239.416034 
L 499.943827 242.529892 
L 501.058712 232.052181 
L 502.173597 237.291036 
L 503.288482 230.555005 
L 504.403367 203.124442 
L 506.633138 215.851705 
L 507.748023 209.960622 
L 508.862908 199.861624 
L 509.977793 178.822044 
L 511.092678 141.792384 
L 512.207563 165.356713 
L 513.322448 136.532489 
L 514.437333 145.265597 
L 515.552219 139.640455 
L 516.667104 87.089476 
L 518.896874 171.013835 
L 520.011759 193.946977 
L 521.126644 201.465681 
L 522.241529 201.800632 
L 523.356414 200.182267 
L 524.471299 207.015081 
L 525.586185 203.901223 
L 526.70107 213.032401 
L 527.815955 215.430913 
L 528.93084 221.362391 
L 530.045725 221.62749 
L 531.16061 221.387639 
L 532.275495 225.287535 
L 533.39038 224.414814 
L 534.505265 209.960622 
L 535.620151 210.962106 
L 536.735036 222.156846 
L 537.849921 222.372291 
L 538.964806 218.460612 
L 540.079691 219.634621 
L 541.194576 205.247756 
L 542.309461 183.156197 
L 543.424346 165.356713 
L 544.539232 197.126479 
L 545.654117 203.227957 
L 546.769002 205.44132 
L 547.883887 193.128958 
L 548.998772 214.200518 
L 550.113657 214.370518 
L 551.228542 214.875468 
L 552.343427 213.747747 
L 553.458312 211.222997 
L 554.573198 215.925764 
L 555.688083 219.636304 
L 556.802968 219.015216 
L 557.917853 218.546454 
L 559.032738 220.059621 
L 560.147623 225.083872 
L 561.262508 226.273871 
L 562.377393 227.701196 
L 563.492278 226.774613 
L 564.607164 227.241692 
L 565.722049 225.159615 
L 566.836934 220.901204 
L 567.951819 225.64605 
L 569.066704 225.382634 
L 570.181589 220.059621 
L 571.296474 223.425953 
L 572.411359 204.826965 
L 573.526245 215.680022 
L 574.64113 220.210264 
L 576.8709 222.720707 
L 580.215555 222.654222 
L 581.33044 219.215513 
L 582.445325 221.145263 
L 583.560211 227.424315 
L 584.675096 227.565701 
L 585.789981 226.769563 
L 586.904866 232.36525 
L 588.019751 235.452177 
L 589.134636 234.081238 
L 590.249521 225.040951 
L 591.364406 229.172283 
L 592.479291 229.386046 
L 593.594177 228.658918 
L 594.709062 228.464512 
L 595.823947 227.953671 
L 596.938832 227.24085 
L 598.053717 230.284856 
L 599.168602 234.902623 
L 600.283487 235.16688 
L 601.398372 235.079356 
L 602.513257 238.629154 
L 604.743028 238.390986 
L 605.857913 237.895293 
L 608.087683 236.607671 
L 609.202568 235.610395 
L 610.317453 232.46119 
L 611.432338 230.930351 
L 612.547224 238.481035 
L 613.662109 238.77054 
L 614.776994 238.610639 
L 615.891879 238.739401 
L 618.121649 239.643261 
L 619.236534 240.311479 
L 620.351419 240.609399 
L 621.466304 235.654999 
L 622.58119 239.214054 
L 623.696075 240.749102 
L 624.81096 239.045737 
L 625.925845 236.990591 
L 627.04073 228.132087 
L 628.155615 215.104379 
L 629.2705 195.083956 
L 630.385385 206.688547 
L 631.50027 207.378645 
L 632.615156 206.253448 
L 633.730041 203.679887 
L 634.844926 201.888998 
L 635.959811 190.625248 
L 638.189581 198.292071 
L 639.304466 186.396293 
L 640.419351 189.762626 
L 641.534237 195.099105 
L 642.649122 187.237876 
L 643.764007 188.121538 
L 644.878892 181.303873 
L 645.993777 180.697091 
L 647.108662 180.867091 
L 648.223547 178.906202 
L 649.338432 167.90671 
L 650.453317 150.208215 
L 651.568203 145.161241 
L 652.683088 147.262674 
L 653.797973 155.630536 
L 654.912858 157.923009 
L 656.027743 157.747959 
L 657.142628 158.792364 
L 658.257513 154.416131 
L 659.372398 151.335095 
L 660.487283 156.904693 
L 661.602169 163.802309 
L 662.717054 161.148797 
L 663.831939 164.51513 
L 664.946824 169.143837 
L 666.061709 171.897498 
L 667.176594 171.416112 
L 668.291479 176.297294 
L 669.406364 167.881463 
L 670.52125 163.50523 
L 671.636135 166.005574 
L 672.75102 149.366632 
L 673.865905 118.901321 
L 674.98079 127.516608 
L 676.095675 132.241256 
L 677.21056 140.277534 
L 678.325445 140.561147 
L 679.44033 140.436593 
L 680.555216 135.823875 
L 681.670101 131.855811 
L 682.784986 134.324174 
L 683.899871 134.091897 
L 685.014756 139.744812 
L 686.129641 139.723772 
L 687.244526 137.514616 
L 689.474296 144.342381 
L 690.589182 129.168636 
L 691.704067 127.231311 
L 692.818952 133.597046 
L 693.933837 133.794818 
L 695.048722 132.869077 
L 696.163607 123.459335 
L 697.278492 106.244751 
L 698.393377 109.639698 
L 699.508262 106.079801 
L 700.623148 98.386889 
L 701.738033 98.154612 
L 702.852918 95.349615 
L 703.967803 66.144995 
L 705.082688 73.943946 
L 706.197573 63.359355 
L 707.312458 40.529727 
L 708.427343 46.076602 
L 709.542229 50.341746 
L 710.657114 51.459368 
L 711.771999 54.460454 
L 712.886884 83.355371 
L 715.116654 112.319298 
L 716.231539 139.922386 
L 717.346424 139.195258 
L 718.461309 110.233014 
L 719.576195 109.313163 
L 720.69108 102.083964 
L 721.805965 123.985325 
L 722.92085 137.852933 
L 724.035735 141.737681 
L 726.265505 141.565998 
L 727.38039 147.725545 
L 728.495275 144.180797 
L 729.610161 114.020138 
L 730.725046 127.798538 
L 731.839931 162.651023 
L 732.954816 162.66533 
L 734.069701 163.647457 
L 735.184586 167.344532 
L 736.299471 143.559708 
L 737.414356 149.669602 
L 738.529242 157.259841 
L 739.644127 162.522261 
L 740.759012 162.417063 
L 741.873897 161.914638 
L 742.988782 163.493448 
L 744.103667 144.160599 
L 745.218552 136.040162 
L 747.448322 166.279088 
L 748.563208 166.768048 
L 749.678093 169.987945 
L 750.792978 191.750445 
L 751.907863 218.06086 
L 753.022748 215.010121 
L 754.137633 203.703451 
L 755.252518 212.73953 
L 756.367403 215.02022 
L 757.482288 211.122849 
L 758.597174 202.386373 
L 759.712059 209.203197 
L 760.826944 206.594289 
L 761.941829 225.10912 
L 763.056714 246.828699 
L 764.171599 246.683105 
L 766.401369 245.938304 
L 767.516254 231.294756 
L 768.63114 246.1487 
L 769.746025 252.881365 
L 770.86091 269.357881 
L 771.975795 270.972879 
L 773.09068 270.775107 
L 774.205565 252.881365 
L 775.32045 231.841785 
L 776.435335 247.789787 
L 778.665106 266.346696 
L 779.779991 263.821947 
L 780.894876 234.829406 
L 782.009761 276.521437 
L 783.124646 280.737769 
L 784.239531 231.841785 
L 785.354416 228.138819 
L 786.469301 250.272457 
L 787.584187 252.839286 
L 788.699072 256.447995 
L 789.813957 243.834346 
L 790.928842 229.317036 
L 792.043727 228.504908 
L 793.158612 236.679205 
L 794.273497 248.371321 
L 795.388382 236.049701 
L 797.618153 199.020041 
L 798.733038 206.97216 
L 799.847923 216.348239 
L 800.962808 212.485372 
L 803.192578 212.485372 
L 804.307463 213.394282 
L 805.422348 208.979336 
L 806.537234 202.596769 
L 807.652119 200.070337 
L 808.767004 202.674195 
L 809.881889 203.395432 
L 810.996774 203.425729 
L 812.111659 199.335634 
L 812.111659 199.335634 
" clip-path="url(#pa9e922ad79)" style="fill: none; stroke: #4c72b0; stroke-width: 1.2; stroke-linecap: round"/>
   </g>
   <g id="patch_3">
    <path d="M 66.42075 320.937 
L 66.42075 27.177 
" style="fill: none; stroke: #cccccc; stroke-linejoin: miter; stroke-linecap: square"/>
   </g>
   <g id="patch_4">
    <path d="M 847.62075 320.937 
L 847.62075 27.177 
" style="fill: none; stroke: #cccccc; stroke-linejoin: miter; stroke-linecap: square"/>
   </g>
   <g id="patch_5">
    <path d="M 66.42075 320.937 
L 847.62075 320.937 
" style="fill: none; stroke: #cccccc; stroke-linejoin: miter; stroke-linecap: square"/>
   </g>
   <g id="patch_6">
    <path d="M 66.42075 27.177 
L 847.62075 27.177 
" style="fill: none; stroke: #cccccc; stroke-linejoin: miter; stroke-linecap: square"/>
   </g>
   <g id="text_17">
    <!-- 1 -->
    <g style="fill: #262626" transform="translate(477.646125 307.163481) scale(0.192 -0.192)">
     <use xlink:href="#ArialMT-31"/>
    </g>
   </g>
   <g id="text_18">
    <!-- 2 -->
    <g style="fill: #262626" transform="translate(503.288482 307.163481) scale(0.192 -0.192)">
     <use xlink:href="#ArialMT-32"/>
    </g>
   </g>
   <g id="text_19">
    <!-- 3 -->
    <g style="fill: #262626" transform="translate(695.048722 307.163481) scale(0.192 -0.192)">
     <use xlink:href="#ArialMT-33"/>
    </g>
   </g>
   <g id="text_20">
    <!-- 4 -->
    <g style="fill: #262626" transform="translate(712.886884 307.163481) scale(0.192 -0.192)">
     <use xlink:href="#ArialMT-34"/>
    </g>
   </g>
   <g id="text_21">
    <!-- 5 -->
    <g style="fill: #262626" transform="translate(719.576195 307.163481) scale(0.192 -0.192)">
     <use xlink:href="#ArialMT-35"/>
    </g>
   </g>
   <g id="text_22">
    <!-- 6 -->
    <g style="fill: #262626" transform="translate(735.184586 307.163481) scale(0.192 -0.192)">
     <defs>
      <path id="ArialMT-36" d="M 3184 3459 
L 2625 3416 
Q 2550 3747 2413 3897 
Q 2184 4138 1850 4138 
Q 1581 4138 1378 3988 
Q 1113 3794 959 3422 
Q 806 3050 800 2363 
Q 1003 2672 1297 2822 
Q 1591 2972 1913 2972 
Q 2475 2972 2870 2558 
Q 3266 2144 3266 1488 
Q 3266 1056 3080 686 
Q 2894 316 2569 119 
Q 2244 -78 1831 -78 
Q 1128 -78 684 439 
Q 241 956 241 2144 
Q 241 3472 731 4075 
Q 1159 4600 1884 4600 
Q 2425 4600 2770 4297 
Q 3116 3994 3184 3459 
z
M 888 1484 
Q 888 1194 1011 928 
Q 1134 663 1356 523 
Q 1578 384 1822 384 
Q 2178 384 2434 671 
Q 2691 959 2691 1453 
Q 2691 1928 2437 2201 
Q 2184 2475 1800 2475 
Q 1419 2475 1153 2201 
Q 888 1928 888 1484 
z
" transform="scale(0.015625)"/>
     </defs>
     <use xlink:href="#ArialMT-36"/>
    </g>
   </g>
   <g id="text_23">
    <!-- Natural gas imbalance prices in Germany -->
    <g style="fill: #262626" transform="translate(280.95525 21.177) scale(0.192 -0.192)">
     <defs>
      <path id="ArialMT-4e" d="M 488 0 
L 488 4581 
L 1109 4581 
L 3516 984 
L 3516 4581 
L 4097 4581 
L 4097 0 
L 3475 0 
L 1069 3600 
L 1069 0 
L 488 0 
z
" transform="scale(0.015625)"/>
      <path id="ArialMT-75" d="M 2597 0 
L 2597 488 
Q 2209 -75 1544 -75 
Q 1250 -75 995 37 
Q 741 150 617 320 
Q 494 491 444 738 
Q 409 903 409 1263 
L 409 3319 
L 972 3319 
L 972 1478 
Q 972 1038 1006 884 
Q 1059 663 1231 536 
Q 1403 409 1656 409 
Q 1909 409 2131 539 
Q 2353 669 2445 892 
Q 2538 1116 2538 1541 
L 2538 3319 
L 3100 3319 
L 3100 0 
L 2597 0 
z
" transform="scale(0.015625)"/>
      <path id="ArialMT-72" d="M 416 0 
L 416 3319 
L 922 3319 
L 922 2816 
Q 1116 3169 1280 3281 
Q 1444 3394 1641 3394 
Q 1925 3394 2219 3213 
L 2025 2691 
Q 1819 2813 1613 2813 
Q 1428 2813 1281 2702 
Q 1134 2591 1072 2394 
Q 978 2094 978 1738 
L 978 0 
L 416 0 
z
" transform="scale(0.015625)"/>
      <path id="ArialMT-6c" d="M 409 0 
L 409 4581 
L 972 4581 
L 972 0 
L 409 0 
z
" transform="scale(0.015625)"/>
      <path id="ArialMT-20" transform="scale(0.015625)"/>
      <path id="ArialMT-67" d="M 319 -275 
L 866 -356 
Q 900 -609 1056 -725 
Q 1266 -881 1628 -881 
Q 2019 -881 2231 -725 
Q 2444 -569 2519 -288 
Q 2563 -116 2559 434 
Q 2191 0 1641 0 
Q 956 0 581 494 
Q 206 988 206 1678 
Q 206 2153 378 2554 
Q 550 2956 876 3175 
Q 1203 3394 1644 3394 
Q 2231 3394 2613 2919 
L 2613 3319 
L 3131 3319 
L 3131 450 
Q 3131 -325 2973 -648 
Q 2816 -972 2473 -1159 
Q 2131 -1347 1631 -1347 
Q 1038 -1347 672 -1080 
Q 306 -813 319 -275 
z
M 784 1719 
Q 784 1066 1043 766 
Q 1303 466 1694 466 
Q 2081 466 2343 764 
Q 2606 1063 2606 1700 
Q 2606 2309 2336 2618 
Q 2066 2928 1684 2928 
Q 1309 2928 1046 2623 
Q 784 2319 784 1719 
z
" transform="scale(0.015625)"/>
      <path id="ArialMT-73" d="M 197 991 
L 753 1078 
Q 800 744 1014 566 
Q 1228 388 1613 388 
Q 2000 388 2187 545 
Q 2375 703 2375 916 
Q 2375 1106 2209 1216 
Q 2094 1291 1634 1406 
Q 1016 1563 777 1677 
Q 538 1791 414 1992 
Q 291 2194 291 2438 
Q 291 2659 392 2848 
Q 494 3038 669 3163 
Q 800 3259 1026 3326 
Q 1253 3394 1513 3394 
Q 1903 3394 2198 3281 
Q 2494 3169 2634 2976 
Q 2775 2784 2828 2463 
L 2278 2388 
Q 2241 2644 2061 2787 
Q 1881 2931 1553 2931 
Q 1166 2931 1000 2803 
Q 834 2675 834 2503 
Q 834 2394 903 2306 
Q 972 2216 1119 2156 
Q 1203 2125 1616 2013 
Q 2213 1853 2448 1751 
Q 2684 1650 2818 1456 
Q 2953 1263 2953 975 
Q 2953 694 2789 445 
Q 2625 197 2315 61 
Q 2006 -75 1616 -75 
Q 969 -75 630 194 
Q 291 463 197 991 
z
" transform="scale(0.015625)"/>
      <path id="ArialMT-69" d="M 425 3934 
L 425 4581 
L 988 4581 
L 988 3934 
L 425 3934 
z
M 425 0 
L 425 3319 
L 988 3319 
L 988 0 
L 425 0 
z
" transform="scale(0.015625)"/>
      <path id="ArialMT-6d" d="M 422 0 
L 422 3319 
L 925 3319 
L 925 2853 
Q 1081 3097 1340 3245 
Q 1600 3394 1931 3394 
Q 2300 3394 2536 3241 
Q 2772 3088 2869 2813 
Q 3263 3394 3894 3394 
Q 4388 3394 4653 3120 
Q 4919 2847 4919 2278 
L 4919 0 
L 4359 0 
L 4359 2091 
Q 4359 2428 4304 2576 
Q 4250 2725 4106 2815 
Q 3963 2906 3769 2906 
Q 3419 2906 3187 2673 
Q 2956 2441 2956 1928 
L 2956 0 
L 2394 0 
L 2394 2156 
Q 2394 2531 2256 2718 
Q 2119 2906 1806 2906 
Q 1569 2906 1367 2781 
Q 1166 2656 1075 2415 
Q 984 2175 984 1722 
L 984 0 
L 422 0 
z
" transform="scale(0.015625)"/>
      <path id="ArialMT-62" d="M 941 0 
L 419 0 
L 419 4581 
L 981 4581 
L 981 2947 
Q 1338 3394 1891 3394 
Q 2197 3394 2470 3270 
Q 2744 3147 2920 2923 
Q 3097 2700 3197 2384 
Q 3297 2069 3297 1709 
Q 3297 856 2875 390 
Q 2453 -75 1863 -75 
Q 1275 -75 941 416 
L 941 0 
z
M 934 1684 
Q 934 1088 1097 822 
Q 1363 388 1816 388 
Q 2184 388 2453 708 
Q 2722 1028 2722 1663 
Q 2722 2313 2464 2622 
Q 2206 2931 1841 2931 
Q 1472 2931 1203 2611 
Q 934 2291 934 1684 
z
" transform="scale(0.015625)"/>
      <path id="ArialMT-6e" d="M 422 0 
L 422 3319 
L 928 3319 
L 928 2847 
Q 1294 3394 1984 3394 
Q 2284 3394 2536 3286 
Q 2788 3178 2913 3003 
Q 3038 2828 3088 2588 
Q 3119 2431 3119 2041 
L 3119 0 
L 2556 0 
L 2556 2019 
Q 2556 2363 2490 2533 
Q 2425 2703 2258 2804 
Q 2091 2906 1866 2906 
Q 1506 2906 1245 2678 
Q 984 2450 984 1813 
L 984 0 
L 422 0 
z
" transform="scale(0.015625)"/>
      <path id="ArialMT-63" d="M 2588 1216 
L 3141 1144 
Q 3050 572 2676 248 
Q 2303 -75 1759 -75 
Q 1078 -75 664 370 
Q 250 816 250 1647 
Q 250 2184 428 2587 
Q 606 2991 970 3192 
Q 1334 3394 1763 3394 
Q 2303 3394 2647 3120 
Q 2991 2847 3088 2344 
L 2541 2259 
Q 2463 2594 2264 2762 
Q 2066 2931 1784 2931 
Q 1359 2931 1093 2626 
Q 828 2322 828 1663 
Q 828 994 1084 691 
Q 1341 388 1753 388 
Q 2084 388 2306 591 
Q 2528 794 2588 1216 
z
" transform="scale(0.015625)"/>
      <path id="ArialMT-70" d="M 422 -1272 
L 422 3319 
L 934 3319 
L 934 2888 
Q 1116 3141 1344 3267 
Q 1572 3394 1897 3394 
Q 2322 3394 2647 3175 
Q 2972 2956 3137 2557 
Q 3303 2159 3303 1684 
Q 3303 1175 3120 767 
Q 2938 359 2589 142 
Q 2241 -75 1856 -75 
Q 1575 -75 1351 44 
Q 1128 163 984 344 
L 984 -1272 
L 422 -1272 
z
M 931 1641 
Q 931 1000 1190 694 
Q 1450 388 1819 388 
Q 2194 388 2461 705 
Q 2728 1022 2728 1688 
Q 2728 2322 2467 2637 
Q 2206 2953 1844 2953 
Q 1484 2953 1207 2617 
Q 931 2281 931 1641 
z
" transform="scale(0.015625)"/>
      <path id="ArialMT-47" d="M 2638 1797 
L 2638 2334 
L 4578 2338 
L 4578 638 
Q 4131 281 3656 101 
Q 3181 -78 2681 -78 
Q 2006 -78 1454 211 
Q 903 500 622 1047 
Q 341 1594 341 2269 
Q 341 2938 620 3517 
Q 900 4097 1425 4378 
Q 1950 4659 2634 4659 
Q 3131 4659 3532 4498 
Q 3934 4338 4162 4050 
Q 4391 3763 4509 3300 
L 3963 3150 
Q 3859 3500 3706 3700 
Q 3553 3900 3268 4020 
Q 2984 4141 2638 4141 
Q 2222 4141 1919 4014 
Q 1616 3888 1430 3681 
Q 1244 3475 1141 3228 
Q 966 2803 966 2306 
Q 966 1694 1177 1281 
Q 1388 869 1791 669 
Q 2194 469 2647 469 
Q 3041 469 3416 620 
Q 3791 772 3984 944 
L 3984 1797 
L 2638 1797 
z
" transform="scale(0.015625)"/>
      <path id="ArialMT-79" d="M 397 -1278 
L 334 -750 
Q 519 -800 656 -800 
Q 844 -800 956 -737 
Q 1069 -675 1141 -563 
Q 1194 -478 1313 -144 
Q 1328 -97 1363 -6 
L 103 3319 
L 709 3319 
L 1400 1397 
Q 1534 1031 1641 628 
Q 1738 1016 1872 1384 
L 2581 3319 
L 3144 3319 
L 1881 -56 
Q 1678 -603 1566 -809 
Q 1416 -1088 1222 -1217 
Q 1028 -1347 759 -1347 
Q 597 -1347 397 -1278 
z
" transform="scale(0.015625)"/>
     </defs>
     <use xlink:href="#ArialMT-4e"/>
     <use xlink:href="#ArialMT-61" x="72.216797"/>
     <use xlink:href="#ArialMT-74" x="127.832031"/>
     <use xlink:href="#ArialMT-75" x="155.615234"/>
     <use xlink:href="#ArialMT-72" x="211.230469"/>
     <use xlink:href="#ArialMT-61" x="244.53125"/>
     <use xlink:href="#ArialMT-6c" x="300.146484"/>
     <use xlink:href="#ArialMT-20" x="322.363281"/>
     <use xlink:href="#ArialMT-67" x="350.146484"/>
     <use xlink:href="#ArialMT-61" x="405.761719"/>
     <use xlink:href="#ArialMT-73" x="461.376953"/>
     <use xlink:href="#ArialMT-20" x="511.376953"/>
     <use xlink:href="#ArialMT-69" x="539.160156"/>
     <use xlink:href="#ArialMT-6d" x="561.376953"/>
     <use xlink:href="#ArialMT-62" x="644.677734"/>
     <use xlink:href="#ArialMT-61" x="700.292969"/>
     <use xlink:href="#ArialMT-6c" x="755.908203"/>
     <use xlink:href="#ArialMT-61" x="778.125"/>
     <use xlink:href="#ArialMT-6e" x="833.740234"/>
     <use xlink:href="#ArialMT-63" x="889.355469"/>
     <use xlink:href="#ArialMT-65" x="939.355469"/>
     <use xlink:href="#ArialMT-20" x="994.970703"/>
     <use xlink:href="#ArialMT-70" x="1022.753906"/>
     <use xlink:href="#ArialMT-72" x="1078.369141"/>
     <use xlink:href="#ArialMT-69" x="1111.669922"/>
     <use xlink:href="#ArialMT-63" x="1133.886719"/>
     <use xlink:href="#ArialMT-65" x="1183.886719"/>
     <use xlink:href="#ArialMT-73" x="1239.501953"/>
     <use xlink:href="#ArialMT-20" x="1289.501953"/>
     <use xlink:href="#ArialMT-69" x="1317.285156"/>
     <use xlink:href="#ArialMT-6e" x="1339.501953"/>
     <use xlink:href="#ArialMT-20" x="1395.117188"/>
     <use xlink:href="#ArialMT-47" x="1422.900391"/>
     <use xlink:href="#ArialMT-65" x="1500.683594"/>
     <use xlink:href="#ArialMT-72" x="1556.298828"/>
     <use xlink:href="#ArialMT-6d" x="1589.599609"/>
     <use xlink:href="#ArialMT-61" x="1672.900391"/>
     <use xlink:href="#ArialMT-6e" x="1728.515625"/>
     <use xlink:href="#ArialMT-79" x="1784.130859"/>
    </g>
   </g>
   <g id="legend_1">
    <g id="patch_7">
     <path d="M 157.912875 585.03725 
L 756.128625 585.03725 
Q 759.648625 585.03725 759.648625 581.51725 
L 759.648625 406.697 
Q 759.648625 403.177 756.128625 403.177 
L 157.912875 403.177 
Q 154.392875 403.177 154.392875 406.697 
L 154.392875 581.51725 
Q 154.392875 585.03725 157.912875 585.03725 
z
" style="fill: #ffffff; opacity: 0.8; stroke: #cccccc; stroke-width: 0.8; stroke-linejoin: miter"/>
    </g>
    <g id="line2d_16">
     <path d="M 161.432875 416.86925 
L 196.632875 416.86925 
" style="fill: none; stroke: #ff0000; stroke-opacity: 0.5; stroke-width: 1.2"/>
    </g>
    <g id="text_24">
     <!-- 1: Policy draft to fill up natural gas storage -->
     <g style="fill: #262626" transform="translate(210.712875 423.02925) scale(0.176 -0.176)">
      <defs>
       <path id="ArialMT-3a" d="M 578 2678 
L 578 3319 
L 1219 3319 
L 1219 2678 
L 578 2678 
z
M 578 0 
L 578 641 
L 1219 641 
L 1219 0 
L 578 0 
z
" transform="scale(0.015625)"/>
       <path id="ArialMT-50" d="M 494 0 
L 494 4581 
L 2222 4581 
Q 2678 4581 2919 4538 
Q 3256 4481 3484 4323 
Q 3713 4166 3852 3881 
Q 3991 3597 3991 3256 
Q 3991 2672 3619 2267 
Q 3247 1863 2275 1863 
L 1100 1863 
L 1100 0 
L 494 0 
z
M 1100 2403 
L 2284 2403 
Q 2872 2403 3119 2622 
Q 3366 2841 3366 3238 
Q 3366 3525 3220 3729 
Q 3075 3934 2838 4000 
Q 2684 4041 2272 4041 
L 1100 4041 
L 1100 2403 
z
" transform="scale(0.015625)"/>
       <path id="ArialMT-6f" d="M 213 1659 
Q 213 2581 725 3025 
Q 1153 3394 1769 3394 
Q 2453 3394 2887 2945 
Q 3322 2497 3322 1706 
Q 3322 1066 3130 698 
Q 2938 331 2570 128 
Q 2203 -75 1769 -75 
Q 1072 -75 642 372 
Q 213 819 213 1659 
z
M 791 1659 
Q 791 1022 1069 705 
Q 1347 388 1769 388 
Q 2188 388 2466 706 
Q 2744 1025 2744 1678 
Q 2744 2294 2464 2611 
Q 2184 2928 1769 2928 
Q 1347 2928 1069 2612 
Q 791 2297 791 1659 
z
" transform="scale(0.015625)"/>
       <path id="ArialMT-64" d="M 2575 0 
L 2575 419 
Q 2259 -75 1647 -75 
Q 1250 -75 917 144 
Q 584 363 401 755 
Q 219 1147 219 1656 
Q 219 2153 384 2558 
Q 550 2963 881 3178 
Q 1213 3394 1622 3394 
Q 1922 3394 2156 3267 
Q 2391 3141 2538 2938 
L 2538 4581 
L 3097 4581 
L 3097 0 
L 2575 0 
z
M 797 1656 
Q 797 1019 1065 703 
Q 1334 388 1700 388 
Q 2069 388 2326 689 
Q 2584 991 2584 1609 
Q 2584 2291 2321 2609 
Q 2059 2928 1675 2928 
Q 1300 2928 1048 2622 
Q 797 2316 797 1656 
z
" transform="scale(0.015625)"/>
       <path id="ArialMT-66" d="M 556 0 
L 556 2881 
L 59 2881 
L 59 3319 
L 556 3319 
L 556 3672 
Q 556 4006 616 4169 
Q 697 4388 901 4523 
Q 1106 4659 1475 4659 
Q 1713 4659 2000 4603 
L 1916 4113 
Q 1741 4144 1584 4144 
Q 1328 4144 1222 4034 
Q 1116 3925 1116 3625 
L 1116 3319 
L 1763 3319 
L 1763 2881 
L 1116 2881 
L 1116 0 
L 556 0 
z
" transform="scale(0.015625)"/>
      </defs>
      <use xlink:href="#ArialMT-31"/>
      <use xlink:href="#ArialMT-3a" x="55.615234"/>
      <use xlink:href="#ArialMT-20" x="83.398438"/>
      <use xlink:href="#ArialMT-50" x="111.181641"/>
      <use xlink:href="#ArialMT-6f" x="177.880859"/>
      <use xlink:href="#ArialMT-6c" x="233.496094"/>
      <use xlink:href="#ArialMT-69" x="255.712891"/>
      <use xlink:href="#ArialMT-63" x="277.929688"/>
      <use xlink:href="#ArialMT-79" x="327.929688"/>
      <use xlink:href="#ArialMT-20" x="377.929688"/>
      <use xlink:href="#ArialMT-64" x="405.712891"/>
      <use xlink:href="#ArialMT-72" x="461.328125"/>
      <use xlink:href="#ArialMT-61" x="494.628906"/>
      <use xlink:href="#ArialMT-66" x="550.244141"/>
      <use xlink:href="#ArialMT-74" x="578.027344"/>
      <use xlink:href="#ArialMT-20" x="605.810547"/>
      <use xlink:href="#ArialMT-74" x="633.59375"/>
      <use xlink:href="#ArialMT-6f" x="661.376953"/>
      <use xlink:href="#ArialMT-20" x="716.992188"/>
      <use xlink:href="#ArialMT-66" x="744.775391"/>
      <use xlink:href="#ArialMT-69" x="772.558594"/>
      <use xlink:href="#ArialMT-6c" x="794.775391"/>
      <use xlink:href="#ArialMT-6c" x="816.992188"/>
      <use xlink:href="#ArialMT-20" x="839.208984"/>
      <use xlink:href="#ArialMT-75" x="866.992188"/>
      <use xlink:href="#ArialMT-70" x="922.607422"/>
      <use xlink:href="#ArialMT-20" x="978.222656"/>
      <use xlink:href="#ArialMT-6e" x="1006.005859"/>
      <use xlink:href="#ArialMT-61" x="1061.621094"/>
      <use xlink:href="#ArialMT-74" x="1117.236328"/>
      <use xlink:href="#ArialMT-75" x="1145.019531"/>
      <use xlink:href="#ArialMT-72" x="1200.634766"/>
      <use xlink:href="#ArialMT-61" x="1233.935547"/>
      <use xlink:href="#ArialMT-6c" x="1289.550781"/>
      <use xlink:href="#ArialMT-20" x="1311.767578"/>
      <use xlink:href="#ArialMT-67" x="1339.550781"/>
      <use xlink:href="#ArialMT-61" x="1395.166016"/>
      <use xlink:href="#ArialMT-73" x="1450.78125"/>
      <use xlink:href="#ArialMT-20" x="1500.78125"/>
      <use xlink:href="#ArialMT-73" x="1528.564453"/>
      <use xlink:href="#ArialMT-74" x="1578.564453"/>
      <use xlink:href="#ArialMT-6f" x="1606.347656"/>
      <use xlink:href="#ArialMT-72" x="1661.962891"/>
      <use xlink:href="#ArialMT-61" x="1695.263672"/>
      <use xlink:href="#ArialMT-67" x="1750.878906"/>
      <use xlink:href="#ArialMT-65" x="1806.494141"/>
     </g>
    </g>
    <g id="line2d_17">
     <path d="M 161.432875 441.97125 
L 196.632875 441.97125 
" style="fill: none; stroke: #ff0000; stroke-opacity: 0.5; stroke-width: 1.2"/>
    </g>
    <g id="text_25">
     <!-- 2: Ukraine invasion -->
     <g style="fill: #262626" transform="translate(210.712875 448.13125) scale(0.176 -0.176)">
      <defs>
       <path id="ArialMT-6b" d="M 425 0 
L 425 4581 
L 988 4581 
L 988 1969 
L 2319 3319 
L 3047 3319 
L 1778 2088 
L 3175 0 
L 2481 0 
L 1384 1697 
L 988 1316 
L 988 0 
L 425 0 
z
" transform="scale(0.015625)"/>
       <path id="ArialMT-76" d="M 1344 0 
L 81 3319 
L 675 3319 
L 1388 1331 
Q 1503 1009 1600 663 
Q 1675 925 1809 1294 
L 2547 3319 
L 3125 3319 
L 1869 0 
L 1344 0 
z
" transform="scale(0.015625)"/>
      </defs>
      <use xlink:href="#ArialMT-32"/>
      <use xlink:href="#ArialMT-3a" x="55.615234"/>
      <use xlink:href="#ArialMT-20" x="83.398438"/>
      <use xlink:href="#ArialMT-55" x="111.181641"/>
      <use xlink:href="#ArialMT-6b" x="183.398438"/>
      <use xlink:href="#ArialMT-72" x="233.398438"/>
      <use xlink:href="#ArialMT-61" x="266.699219"/>
      <use xlink:href="#ArialMT-69" x="322.314453"/>
      <use xlink:href="#ArialMT-6e" x="344.53125"/>
      <use xlink:href="#ArialMT-65" x="400.146484"/>
      <use xlink:href="#ArialMT-20" x="455.761719"/>
      <use xlink:href="#ArialMT-69" x="483.544922"/>
      <use xlink:href="#ArialMT-6e" x="505.761719"/>
      <use xlink:href="#ArialMT-76" x="561.376953"/>
      <use xlink:href="#ArialMT-61" x="611.376953"/>
      <use xlink:href="#ArialMT-73" x="666.992188"/>
      <use xlink:href="#ArialMT-69" x="716.992188"/>
      <use xlink:href="#ArialMT-6f" x="739.208984"/>
      <use xlink:href="#ArialMT-6e" x="794.824219"/>
     </g>
    </g>
    <g id="line2d_18">
     <path d="M 161.432875 467.0815 
L 196.632875 467.0815 
" style="fill: none; stroke: #008000; stroke-opacity: 0.5; stroke-width: 1.2"/>
    </g>
    <g id="text_26">
     <!-- 3: First talks on policies to lower natural gas consumption in Germany -->
     <g style="fill: #262626" transform="translate(210.712875 473.2415) scale(0.176 -0.176)">
      <defs>
       <path id="ArialMT-46" d="M 525 0 
L 525 4581 
L 3616 4581 
L 3616 4041 
L 1131 4041 
L 1131 2622 
L 3281 2622 
L 3281 2081 
L 1131 2081 
L 1131 0 
L 525 0 
z
" transform="scale(0.015625)"/>
       <path id="ArialMT-77" d="M 1034 0 
L 19 3319 
L 600 3319 
L 1128 1403 
L 1325 691 
Q 1338 744 1497 1375 
L 2025 3319 
L 2603 3319 
L 3100 1394 
L 3266 759 
L 3456 1400 
L 4025 3319 
L 4572 3319 
L 3534 0 
L 2950 0 
L 2422 1988 
L 2294 2553 
L 1622 0 
L 1034 0 
z
" transform="scale(0.015625)"/>
      </defs>
      <use xlink:href="#ArialMT-33"/>
      <use xlink:href="#ArialMT-3a" x="55.615234"/>
      <use xlink:href="#ArialMT-20" x="83.398438"/>
      <use xlink:href="#ArialMT-46" x="111.181641"/>
      <use xlink:href="#ArialMT-69" x="172.265625"/>
      <use xlink:href="#ArialMT-72" x="194.482422"/>
      <use xlink:href="#ArialMT-73" x="227.783203"/>
      <use xlink:href="#ArialMT-74" x="277.783203"/>
      <use xlink:href="#ArialMT-20" x="305.566406"/>
      <use xlink:href="#ArialMT-74" x="333.349609"/>
      <use xlink:href="#ArialMT-61" x="361.132812"/>
      <use xlink:href="#ArialMT-6c" x="416.748047"/>
      <use xlink:href="#ArialMT-6b" x="438.964844"/>
      <use xlink:href="#ArialMT-73" x="488.964844"/>
      <use xlink:href="#ArialMT-20" x="538.964844"/>
      <use xlink:href="#ArialMT-6f" x="566.748047"/>
      <use xlink:href="#ArialMT-6e" x="622.363281"/>
      <use xlink:href="#ArialMT-20" x="677.978516"/>
      <use xlink:href="#ArialMT-70" x="705.761719"/>
      <use xlink:href="#ArialMT-6f" x="761.376953"/>
      <use xlink:href="#ArialMT-6c" x="816.992188"/>
      <use xlink:href="#ArialMT-69" x="839.208984"/>
      <use xlink:href="#ArialMT-63" x="861.425781"/>
      <use xlink:href="#ArialMT-69" x="911.425781"/>
      <use xlink:href="#ArialMT-65" x="933.642578"/>
      <use xlink:href="#ArialMT-73" x="989.257812"/>
      <use xlink:href="#ArialMT-20" x="1039.257812"/>
      <use xlink:href="#ArialMT-74" x="1067.041016"/>
      <use xlink:href="#ArialMT-6f" x="1094.824219"/>
      <use xlink:href="#ArialMT-20" x="1150.439453"/>
      <use xlink:href="#ArialMT-6c" x="1178.222656"/>
      <use xlink:href="#ArialMT-6f" x="1200.439453"/>
      <use xlink:href="#ArialMT-77" x="1256.054688"/>
      <use xlink:href="#ArialMT-65" x="1328.271484"/>
      <use xlink:href="#ArialMT-72" x="1383.886719"/>
      <use xlink:href="#ArialMT-20" x="1417.1875"/>
      <use xlink:href="#ArialMT-6e" x="1444.970703"/>
      <use xlink:href="#ArialMT-61" x="1500.585938"/>
      <use xlink:href="#ArialMT-74" x="1556.201172"/>
      <use xlink:href="#ArialMT-75" x="1583.984375"/>
      <use xlink:href="#ArialMT-72" x="1639.599609"/>
      <use xlink:href="#ArialMT-61" x="1672.900391"/>
      <use xlink:href="#ArialMT-6c" x="1728.515625"/>
      <use xlink:href="#ArialMT-20" x="1750.732422"/>
      <use xlink:href="#ArialMT-67" x="1778.515625"/>
      <use xlink:href="#ArialMT-61" x="1834.130859"/>
      <use xlink:href="#ArialMT-73" x="1889.746094"/>
      <use xlink:href="#ArialMT-20" x="1939.746094"/>
      <use xlink:href="#ArialMT-63" x="1967.529297"/>
      <use xlink:href="#ArialMT-6f" x="2017.529297"/>
      <use xlink:href="#ArialMT-6e" x="2073.144531"/>
      <use xlink:href="#ArialMT-73" x="2128.759766"/>
      <use xlink:href="#ArialMT-75" x="2178.759766"/>
      <use xlink:href="#ArialMT-6d" x="2234.375"/>
      <use xlink:href="#ArialMT-70" x="2317.675781"/>
      <use xlink:href="#ArialMT-74" x="2373.291016"/>
      <use xlink:href="#ArialMT-69" x="2401.074219"/>
      <use xlink:href="#ArialMT-6f" x="2423.291016"/>
      <use xlink:href="#ArialMT-6e" x="2478.90625"/>
      <use xlink:href="#ArialMT-20" x="2534.521484"/>
      <use xlink:href="#ArialMT-69" x="2562.304688"/>
      <use xlink:href="#ArialMT-6e" x="2584.521484"/>
      <use xlink:href="#ArialMT-20" x="2640.136719"/>
      <use xlink:href="#ArialMT-47" x="2667.919922"/>
      <use xlink:href="#ArialMT-65" x="2745.703125"/>
      <use xlink:href="#ArialMT-72" x="2801.318359"/>
      <use xlink:href="#ArialMT-6d" x="2834.619141"/>
      <use xlink:href="#ArialMT-61" x="2917.919922"/>
      <use xlink:href="#ArialMT-6e" x="2973.535156"/>
      <use xlink:href="#ArialMT-79" x="3029.150391"/>
     </g>
    </g>
    <g id="line2d_19">
     <path d="M 161.432875 492.398 
L 196.632875 492.398 
" style="fill: none; stroke: #ff0000; stroke-opacity: 0.5; stroke-width: 1.2"/>
    </g>
    <g id="text_27">
     <!-- 4: Natural gas from russia to Germany is stopped -->
     <g style="fill: #262626" transform="translate(210.712875 498.558) scale(0.176 -0.176)">
      <use xlink:href="#ArialMT-34"/>
      <use xlink:href="#ArialMT-3a" x="55.615234"/>
      <use xlink:href="#ArialMT-20" x="83.398438"/>
      <use xlink:href="#ArialMT-4e" x="111.181641"/>
      <use xlink:href="#ArialMT-61" x="183.398438"/>
      <use xlink:href="#ArialMT-74" x="239.013672"/>
      <use xlink:href="#ArialMT-75" x="266.796875"/>
      <use xlink:href="#ArialMT-72" x="322.412109"/>
      <use xlink:href="#ArialMT-61" x="355.712891"/>
      <use xlink:href="#ArialMT-6c" x="411.328125"/>
      <use xlink:href="#ArialMT-20" x="433.544922"/>
      <use xlink:href="#ArialMT-67" x="461.328125"/>
      <use xlink:href="#ArialMT-61" x="516.943359"/>
      <use xlink:href="#ArialMT-73" x="572.558594"/>
      <use xlink:href="#ArialMT-20" x="622.558594"/>
      <use xlink:href="#ArialMT-66" x="650.341797"/>
      <use xlink:href="#ArialMT-72" x="678.125"/>
      <use xlink:href="#ArialMT-6f" x="711.425781"/>
      <use xlink:href="#ArialMT-6d" x="767.041016"/>
      <use xlink:href="#ArialMT-20" x="850.341797"/>
      <use xlink:href="#ArialMT-72" x="878.125"/>
      <use xlink:href="#ArialMT-75" x="911.425781"/>
      <use xlink:href="#ArialMT-73" x="967.041016"/>
      <use xlink:href="#ArialMT-73" x="1017.041016"/>
      <use xlink:href="#ArialMT-69" x="1067.041016"/>
      <use xlink:href="#ArialMT-61" x="1089.257812"/>
      <use xlink:href="#ArialMT-20" x="1144.873047"/>
      <use xlink:href="#ArialMT-74" x="1172.65625"/>
      <use xlink:href="#ArialMT-6f" x="1200.439453"/>
      <use xlink:href="#ArialMT-20" x="1256.054688"/>
      <use xlink:href="#ArialMT-47" x="1283.837891"/>
      <use xlink:href="#ArialMT-65" x="1361.621094"/>
      <use xlink:href="#ArialMT-72" x="1417.236328"/>
      <use xlink:href="#ArialMT-6d" x="1450.537109"/>
      <use xlink:href="#ArialMT-61" x="1533.837891"/>
      <use xlink:href="#ArialMT-6e" x="1589.453125"/>
      <use xlink:href="#ArialMT-79" x="1645.068359"/>
      <use xlink:href="#ArialMT-20" x="1695.068359"/>
      <use xlink:href="#ArialMT-69" x="1722.851562"/>
      <use xlink:href="#ArialMT-73" x="1745.068359"/>
      <use xlink:href="#ArialMT-20" x="1795.068359"/>
      <use xlink:href="#ArialMT-73" x="1822.851562"/>
      <use xlink:href="#ArialMT-74" x="1872.851562"/>
      <use xlink:href="#ArialMT-6f" x="1900.634766"/>
      <use xlink:href="#ArialMT-70" x="1956.25"/>
      <use xlink:href="#ArialMT-70" x="2011.865234"/>
      <use xlink:href="#ArialMT-65" x="2067.480469"/>
      <use xlink:href="#ArialMT-64" x="2123.095703"/>
     </g>
    </g>
    <g id="line2d_20">
     <path d="M 161.432875 517.7145 
L 196.632875 517.7145 
" style="fill: none; stroke: #008000; stroke-opacity: 0.5; stroke-width: 1.2"/>
    </g>
    <g id="text_28">
     <!-- 5: Natural gas from russia to Germany continues -->
     <g style="fill: #262626" transform="translate(210.712875 523.8745) scale(0.176 -0.176)">
      <use xlink:href="#ArialMT-35"/>
      <use xlink:href="#ArialMT-3a" x="55.615234"/>
      <use xlink:href="#ArialMT-20" x="83.398438"/>
      <use xlink:href="#ArialMT-4e" x="111.181641"/>
      <use xlink:href="#ArialMT-61" x="183.398438"/>
      <use xlink:href="#ArialMT-74" x="239.013672"/>
      <use xlink:href="#ArialMT-75" x="266.796875"/>
      <use xlink:href="#ArialMT-72" x="322.412109"/>
      <use xlink:href="#ArialMT-61" x="355.712891"/>
      <use xlink:href="#ArialMT-6c" x="411.328125"/>
      <use xlink:href="#ArialMT-20" x="433.544922"/>
      <use xlink:href="#ArialMT-67" x="461.328125"/>
      <use xlink:href="#ArialMT-61" x="516.943359"/>
      <use xlink:href="#ArialMT-73" x="572.558594"/>
      <use xlink:href="#ArialMT-20" x="622.558594"/>
      <use xlink:href="#ArialMT-66" x="650.341797"/>
      <use xlink:href="#ArialMT-72" x="678.125"/>
      <use xlink:href="#ArialMT-6f" x="711.425781"/>
      <use xlink:href="#ArialMT-6d" x="767.041016"/>
      <use xlink:href="#ArialMT-20" x="850.341797"/>
      <use xlink:href="#ArialMT-72" x="878.125"/>
      <use xlink:href="#ArialMT-75" x="911.425781"/>
      <use xlink:href="#ArialMT-73" x="967.041016"/>
      <use xlink:href="#ArialMT-73" x="1017.041016"/>
      <use xlink:href="#ArialMT-69" x="1067.041016"/>
      <use xlink:href="#ArialMT-61" x="1089.257812"/>
      <use xlink:href="#ArialMT-20" x="1144.873047"/>
      <use xlink:href="#ArialMT-74" x="1172.65625"/>
      <use xlink:href="#ArialMT-6f" x="1200.439453"/>
      <use xlink:href="#ArialMT-20" x="1256.054688"/>
      <use xlink:href="#ArialMT-47" x="1283.837891"/>
      <use xlink:href="#ArialMT-65" x="1361.621094"/>
      <use xlink:href="#ArialMT-72" x="1417.236328"/>
      <use xlink:href="#ArialMT-6d" x="1450.537109"/>
      <use xlink:href="#ArialMT-61" x="1533.837891"/>
      <use xlink:href="#ArialMT-6e" x="1589.453125"/>
      <use xlink:href="#ArialMT-79" x="1645.068359"/>
      <use xlink:href="#ArialMT-20" x="1695.068359"/>
      <use xlink:href="#ArialMT-63" x="1722.851562"/>
      <use xlink:href="#ArialMT-6f" x="1772.851562"/>
      <use xlink:href="#ArialMT-6e" x="1828.466797"/>
      <use xlink:href="#ArialMT-74" x="1884.082031"/>
      <use xlink:href="#ArialMT-69" x="1911.865234"/>
      <use xlink:href="#ArialMT-6e" x="1934.082031"/>
      <use xlink:href="#ArialMT-75" x="1989.697266"/>
      <use xlink:href="#ArialMT-65" x="2045.3125"/>
      <use xlink:href="#ArialMT-73" x="2100.927734"/>
     </g>
    </g>
    <g id="line2d_21">
     <path d="M 161.432875 543.031 
L 196.632875 543.031 
" style="fill: none; stroke: #008000; stroke-opacity: 0.5; stroke-width: 1.2"/>
    </g>
    <g id="text_29">
     <!-- 6: Natural gas storage at 90% -->
     <g style="fill: #262626" transform="translate(210.712875 549.191) scale(0.176 -0.176)">
      <defs>
       <path id="ArialMT-39" d="M 350 1059 
L 891 1109 
Q 959 728 1153 556 
Q 1347 384 1650 384 
Q 1909 384 2104 503 
Q 2300 622 2425 820 
Q 2550 1019 2634 1356 
Q 2719 1694 2719 2044 
Q 2719 2081 2716 2156 
Q 2547 1888 2255 1720 
Q 1963 1553 1622 1553 
Q 1053 1553 659 1965 
Q 266 2378 266 3053 
Q 266 3750 677 4175 
Q 1088 4600 1706 4600 
Q 2153 4600 2523 4359 
Q 2894 4119 3086 3673 
Q 3278 3228 3278 2384 
Q 3278 1506 3087 986 
Q 2897 466 2520 194 
Q 2144 -78 1638 -78 
Q 1100 -78 759 220 
Q 419 519 350 1059 
z
M 2653 3081 
Q 2653 3566 2395 3850 
Q 2138 4134 1775 4134 
Q 1400 4134 1122 3828 
Q 844 3522 844 3034 
Q 844 2597 1108 2323 
Q 1372 2050 1759 2050 
Q 2150 2050 2401 2323 
Q 2653 2597 2653 3081 
z
" transform="scale(0.015625)"/>
       <path id="ArialMT-25" d="M 372 3481 
Q 372 3972 619 4315 
Q 866 4659 1334 4659 
Q 1766 4659 2048 4351 
Q 2331 4044 2331 3447 
Q 2331 2866 2045 2552 
Q 1759 2238 1341 2238 
Q 925 2238 648 2547 
Q 372 2856 372 3481 
z
M 1350 4272 
Q 1141 4272 1002 4090 
Q 863 3909 863 3425 
Q 863 2984 1003 2804 
Q 1144 2625 1350 2625 
Q 1563 2625 1702 2806 
Q 1841 2988 1841 3469 
Q 1841 3913 1700 4092 
Q 1559 4272 1350 4272 
z
M 1353 -169 
L 3859 4659 
L 4316 4659 
L 1819 -169 
L 1353 -169 
z
M 3334 1075 
Q 3334 1569 3581 1911 
Q 3828 2253 4300 2253 
Q 4731 2253 5014 1945 
Q 5297 1638 5297 1041 
Q 5297 459 5011 145 
Q 4725 -169 4303 -169 
Q 3888 -169 3611 142 
Q 3334 453 3334 1075 
z
M 4316 1866 
Q 4103 1866 3964 1684 
Q 3825 1503 3825 1019 
Q 3825 581 3965 400 
Q 4106 219 4313 219 
Q 4528 219 4667 400 
Q 4806 581 4806 1063 
Q 4806 1506 4665 1686 
Q 4525 1866 4316 1866 
z
" transform="scale(0.015625)"/>
      </defs>
      <use xlink:href="#ArialMT-36"/>
      <use xlink:href="#ArialMT-3a" x="55.615234"/>
      <use xlink:href="#ArialMT-20" x="83.398438"/>
      <use xlink:href="#ArialMT-4e" x="111.181641"/>
      <use xlink:href="#ArialMT-61" x="183.398438"/>
      <use xlink:href="#ArialMT-74" x="239.013672"/>
      <use xlink:href="#ArialMT-75" x="266.796875"/>
      <use xlink:href="#ArialMT-72" x="322.412109"/>
      <use xlink:href="#ArialMT-61" x="355.712891"/>
      <use xlink:href="#ArialMT-6c" x="411.328125"/>
      <use xlink:href="#ArialMT-20" x="433.544922"/>
      <use xlink:href="#ArialMT-67" x="461.328125"/>
      <use xlink:href="#ArialMT-61" x="516.943359"/>
      <use xlink:href="#ArialMT-73" x="572.558594"/>
      <use xlink:href="#ArialMT-20" x="622.558594"/>
      <use xlink:href="#ArialMT-73" x="650.341797"/>
      <use xlink:href="#ArialMT-74" x="700.341797"/>
      <use xlink:href="#ArialMT-6f" x="728.125"/>
      <use xlink:href="#ArialMT-72" x="783.740234"/>
      <use xlink:href="#ArialMT-61" x="817.041016"/>
      <use xlink:href="#ArialMT-67" x="872.65625"/>
      <use xlink:href="#ArialMT-65" x="928.271484"/>
      <use xlink:href="#ArialMT-20" x="983.886719"/>
      <use xlink:href="#ArialMT-61" x="1011.669922"/>
      <use xlink:href="#ArialMT-74" x="1067.285156"/>
      <use xlink:href="#ArialMT-20" x="1095.068359"/>
      <use xlink:href="#ArialMT-39" x="1122.851562"/>
      <use xlink:href="#ArialMT-30" x="1178.466797"/>
      <use xlink:href="#ArialMT-25" x="1234.082031"/>
     </g>
    </g>
    <g id="line2d_22">
     <path d="M 161.432875 568.133 
L 179.032875 568.133 
L 196.632875 568.133 
" style="fill: none; stroke: #4c72b0; stroke-width: 1.2; stroke-linecap: round"/>
    </g>
    <g id="text_30">
     <!-- Natural gas imbalance prices -->
     <g style="fill: #262626" transform="translate(210.712875 574.293) scale(0.176 -0.176)">
      <use xlink:href="#ArialMT-4e"/>
      <use xlink:href="#ArialMT-61" x="72.216797"/>
      <use xlink:href="#ArialMT-74" x="127.832031"/>
      <use xlink:href="#ArialMT-75" x="155.615234"/>
      <use xlink:href="#ArialMT-72" x="211.230469"/>
      <use xlink:href="#ArialMT-61" x="244.53125"/>
      <use xlink:href="#ArialMT-6c" x="300.146484"/>
      <use xlink:href="#ArialMT-20" x="322.363281"/>
      <use xlink:href="#ArialMT-67" x="350.146484"/>
      <use xlink:href="#ArialMT-61" x="405.761719"/>
      <use xlink:href="#ArialMT-73" x="461.376953"/>
      <use xlink:href="#ArialMT-20" x="511.376953"/>
      <use xlink:href="#ArialMT-69" x="539.160156"/>
      <use xlink:href="#ArialMT-6d" x="561.376953"/>
      <use xlink:href="#ArialMT-62" x="644.677734"/>
      <use xlink:href="#ArialMT-61" x="700.292969"/>
      <use xlink:href="#ArialMT-6c" x="755.908203"/>
      <use xlink:href="#ArialMT-61" x="778.125"/>
      <use xlink:href="#ArialMT-6e" x="833.740234"/>
      <use xlink:href="#ArialMT-63" x="889.355469"/>
      <use xlink:href="#ArialMT-65" x="939.355469"/>
      <use xlink:href="#ArialMT-20" x="994.970703"/>
      <use xlink:href="#ArialMT-70" x="1022.753906"/>
      <use xlink:href="#ArialMT-72" x="1078.369141"/>
      <use xlink:href="#ArialMT-69" x="1111.669922"/>
      <use xlink:href="#ArialMT-63" x="1133.886719"/>
      <use xlink:href="#ArialMT-65" x="1183.886719"/>
      <use xlink:href="#ArialMT-73" x="1239.501953"/>
     </g>
    </g>
   </g>
  </g>
 </g>
 <defs>
  <clipPath id="pa9e922ad79">
   <rect x="66.42075" y="27.177" width="781.2" height="293.76"/>
  </clipPath>
 </defs>
</svg>
