<?xml version="1.0" encoding="utf-8" standalone="no"?>
<!DOCTYPE svg PUBLIC "-//W3C//DTD SVG 1.1//EN"
  "http://www.w3.org/Graphics/SVG/1.1/DTD/svg11.dtd">
<svg xmlns:xlink="http://www.w3.org/1999/xlink" width="894.687pt" height="280.53275pt" viewBox="0 0 894.687 280.53275" xmlns="http://www.w3.org/2000/svg" version="1.1">
 <metadata>
  <rdf:RDF xmlns:dc="http://purl.org/dc/elements/1.1/" xmlns:cc="http://creativecommons.org/ns#" xmlns:rdf="http://www.w3.org/1999/02/22-rdf-syntax-ns#">
   <cc:Work>
    <dc:type rdf:resource="http://purl.org/dc/dcmitype/StillImage"/>
    <dc:date>2023-05-11T12:54:53.221777</dc:date>
    <dc:format>image/svg+xml</dc:format>
    <dc:creator>
     <cc:Agent>
      <dc:title>Matplotlib v3.7.1, https://matplotlib.org/</dc:title>
     </cc:Agent>
    </dc:creator>
   </cc:Work>
  </rdf:RDF>
 </metadata>
 <defs>
  <style type="text/css">*{stroke-linejoin: round; stroke-linecap: butt}</style>
 </defs>
 <g id="figure_1">
  <g id="patch_1">
   <path d="M 0 280.53275 
L 894.687 280.53275 
L 894.687 0 
L 0 0 
z
" style="fill: #ffffff"/>
  </g>
  <g id="axes_1">
   <g id="patch_2">
    <path d="M 106.287 248.937 
L 887.487 248.937 
L 887.487 27.177 
L 106.287 27.177 
z
" style="fill: #ffffff"/>
   </g>
   <g id="matplotlib.axis_1">
    <g id="xtick_1">
     <g id="line2d_1">
      <path d="M 106.287 248.937 
L 106.287 27.177 
" clip-path="url(#p046f51c63b)" style="fill: none; stroke: #cccccc; stroke-width: 0.8; stroke-linecap: round"/>
     </g>
    </g>
    <g id="xtick_2">
     <g id="line2d_2">
      <path d="M 137.781479 248.937 
L 137.781479 27.177 
" clip-path="url(#p046f51c63b)" style="fill: none; stroke: #cccccc; stroke-width: 0.8; stroke-linecap: round"/>
     </g>
     <g id="text_1">
      <!-- 2017 -->
      <g style="fill: #262626" transform="translate(118.206979 269.83475) scale(0.176 -0.176)">
       <defs>
        <path id="ArialMT-32" d="M 3222 541 
L 3222 0 
L 194 0 
Q 188 203 259 391 
Q 375 700 629 1000 
Q 884 1300 1366 1694 
Q 2113 2306 2375 2664 
Q 2638 3022 2638 3341 
Q 2638 3675 2398 3904 
Q 2159 4134 1775 4134 
Q 1369 4134 1125 3890 
Q 881 3647 878 3216 
L 300 3275 
Q 359 3922 746 4261 
Q 1134 4600 1788 4600 
Q 2447 4600 2831 4234 
Q 3216 3869 3216 3328 
Q 3216 3053 3103 2787 
Q 2991 2522 2730 2228 
Q 2469 1934 1863 1422 
Q 1356 997 1212 845 
Q 1069 694 975 541 
L 3222 541 
z
" transform="scale(0.015625)"/>
        <path id="ArialMT-30" d="M 266 2259 
Q 266 3072 433 3567 
Q 600 4063 929 4331 
Q 1259 4600 1759 4600 
Q 2128 4600 2406 4451 
Q 2684 4303 2865 4023 
Q 3047 3744 3150 3342 
Q 3253 2941 3253 2259 
Q 3253 1453 3087 958 
Q 2922 463 2592 192 
Q 2263 -78 1759 -78 
Q 1097 -78 719 397 
Q 266 969 266 2259 
z
M 844 2259 
Q 844 1131 1108 757 
Q 1372 384 1759 384 
Q 2147 384 2411 759 
Q 2675 1134 2675 2259 
Q 2675 3391 2411 3762 
Q 2147 4134 1753 4134 
Q 1366 4134 1134 3806 
Q 844 3388 844 2259 
z
" transform="scale(0.015625)"/>
        <path id="ArialMT-31" d="M 2384 0 
L 1822 0 
L 1822 3584 
Q 1619 3391 1289 3197 
Q 959 3003 697 2906 
L 697 3450 
Q 1169 3672 1522 3987 
Q 1875 4303 2022 4600 
L 2384 4600 
L 2384 0 
z
" transform="scale(0.015625)"/>
        <path id="ArialMT-37" d="M 303 3981 
L 303 4522 
L 3269 4522 
L 3269 4084 
Q 2831 3619 2401 2847 
Q 1972 2075 1738 1259 
Q 1569 684 1522 0 
L 944 0 
Q 953 541 1156 1306 
Q 1359 2072 1739 2783 
Q 2119 3494 2547 3981 
L 303 3981 
z
" transform="scale(0.015625)"/>
       </defs>
       <use xlink:href="#ArialMT-32"/>
       <use xlink:href="#ArialMT-30" x="55.615234"/>
       <use xlink:href="#ArialMT-31" x="111.230469"/>
       <use xlink:href="#ArialMT-37" x="166.845703"/>
      </g>
     </g>
    </g>
    <g id="xtick_3">
     <g id="line2d_3">
      <path d="M 262.732399 248.937 
L 262.732399 27.177 
" clip-path="url(#p046f51c63b)" style="fill: none; stroke: #cccccc; stroke-width: 0.8; stroke-linecap: round"/>
     </g>
     <g id="text_2">
      <!-- 2018 -->
      <g style="fill: #262626" transform="translate(243.157899 269.83475) scale(0.176 -0.176)">
       <defs>
        <path id="ArialMT-38" d="M 1131 2484 
Q 781 2613 612 2850 
Q 444 3088 444 3419 
Q 444 3919 803 4259 
Q 1163 4600 1759 4600 
Q 2359 4600 2725 4251 
Q 3091 3903 3091 3403 
Q 3091 3084 2923 2848 
Q 2756 2613 2416 2484 
Q 2838 2347 3058 2040 
Q 3278 1734 3278 1309 
Q 3278 722 2862 322 
Q 2447 -78 1769 -78 
Q 1091 -78 675 323 
Q 259 725 259 1325 
Q 259 1772 486 2073 
Q 713 2375 1131 2484 
z
M 1019 3438 
Q 1019 3113 1228 2906 
Q 1438 2700 1772 2700 
Q 2097 2700 2305 2904 
Q 2513 3109 2513 3406 
Q 2513 3716 2298 3927 
Q 2084 4138 1766 4138 
Q 1444 4138 1231 3931 
Q 1019 3725 1019 3438 
z
M 838 1322 
Q 838 1081 952 856 
Q 1066 631 1291 507 
Q 1516 384 1775 384 
Q 2178 384 2440 643 
Q 2703 903 2703 1303 
Q 2703 1709 2433 1975 
Q 2163 2241 1756 2241 
Q 1359 2241 1098 1978 
Q 838 1716 838 1322 
z
" transform="scale(0.015625)"/>
       </defs>
       <use xlink:href="#ArialMT-32"/>
       <use xlink:href="#ArialMT-30" x="55.615234"/>
       <use xlink:href="#ArialMT-31" x="111.230469"/>
       <use xlink:href="#ArialMT-38" x="166.845703"/>
      </g>
     </g>
    </g>
    <g id="xtick_4">
     <g id="line2d_4">
      <path d="M 387.683319 248.937 
L 387.683319 27.177 
" clip-path="url(#p046f51c63b)" style="fill: none; stroke: #cccccc; stroke-width: 0.8; stroke-linecap: round"/>
     </g>
     <g id="text_3">
      <!-- 2019 -->
      <g style="fill: #262626" transform="translate(368.108819 269.83475) scale(0.176 -0.176)">
       <defs>
        <path id="ArialMT-39" d="M 350 1059 
L 891 1109 
Q 959 728 1153 556 
Q 1347 384 1650 384 
Q 1909 384 2104 503 
Q 2300 622 2425 820 
Q 2550 1019 2634 1356 
Q 2719 1694 2719 2044 
Q 2719 2081 2716 2156 
Q 2547 1888 2255 1720 
Q 1963 1553 1622 1553 
Q 1053 1553 659 1965 
Q 266 2378 266 3053 
Q 266 3750 677 4175 
Q 1088 4600 1706 4600 
Q 2153 4600 2523 4359 
Q 2894 4119 3086 3673 
Q 3278 3228 3278 2384 
Q 3278 1506 3087 986 
Q 2897 466 2520 194 
Q 2144 -78 1638 -78 
Q 1100 -78 759 220 
Q 419 519 350 1059 
z
M 2653 3081 
Q 2653 3566 2395 3850 
Q 2138 4134 1775 4134 
Q 1400 4134 1122 3828 
Q 844 3522 844 3034 
Q 844 2597 1108 2323 
Q 1372 2050 1759 2050 
Q 2150 2050 2401 2323 
Q 2653 2597 2653 3081 
z
" transform="scale(0.015625)"/>
       </defs>
       <use xlink:href="#ArialMT-32"/>
       <use xlink:href="#ArialMT-30" x="55.615234"/>
       <use xlink:href="#ArialMT-31" x="111.230469"/>
       <use xlink:href="#ArialMT-39" x="166.845703"/>
      </g>
     </g>
    </g>
    <g id="xtick_5">
     <g id="line2d_5">
      <path d="M 512.634239 248.937 
L 512.634239 27.177 
" clip-path="url(#p046f51c63b)" style="fill: none; stroke: #cccccc; stroke-width: 0.8; stroke-linecap: round"/>
     </g>
     <g id="text_4">
      <!-- 2020 -->
      <g style="fill: #262626" transform="translate(493.059739 269.83475) scale(0.176 -0.176)">
       <use xlink:href="#ArialMT-32"/>
       <use xlink:href="#ArialMT-30" x="55.615234"/>
       <use xlink:href="#ArialMT-32" x="111.230469"/>
       <use xlink:href="#ArialMT-30" x="166.845703"/>
      </g>
     </g>
    </g>
    <g id="xtick_6">
     <g id="line2d_6">
      <path d="M 637.927491 248.937 
L 637.927491 27.177 
" clip-path="url(#p046f51c63b)" style="fill: none; stroke: #cccccc; stroke-width: 0.8; stroke-linecap: round"/>
     </g>
     <g id="text_5">
      <!-- 2021 -->
      <g style="fill: #262626" transform="translate(618.352991 269.83475) scale(0.176 -0.176)">
       <use xlink:href="#ArialMT-32"/>
       <use xlink:href="#ArialMT-30" x="55.615234"/>
       <use xlink:href="#ArialMT-32" x="111.230469"/>
       <use xlink:href="#ArialMT-31" x="166.845703"/>
      </g>
     </g>
    </g>
    <g id="xtick_7">
     <g id="line2d_7">
      <path d="M 762.878411 248.937 
L 762.878411 27.177 
" clip-path="url(#p046f51c63b)" style="fill: none; stroke: #cccccc; stroke-width: 0.8; stroke-linecap: round"/>
     </g>
     <g id="text_6">
      <!-- 2022 -->
      <g style="fill: #262626" transform="translate(743.303911 269.83475) scale(0.176 -0.176)">
       <use xlink:href="#ArialMT-32"/>
       <use xlink:href="#ArialMT-30" x="55.615234"/>
       <use xlink:href="#ArialMT-32" x="111.230469"/>
       <use xlink:href="#ArialMT-32" x="166.845703"/>
      </g>
     </g>
    </g>
    <g id="xtick_8">
     <g id="line2d_8">
      <path d="M 887.487 248.937 
L 887.487 27.177 
" clip-path="url(#p046f51c63b)" style="fill: none; stroke: #cccccc; stroke-width: 0.8; stroke-linecap: round"/>
     </g>
    </g>
    <g id="xtick_9"/>
    <g id="xtick_10"/>
    <g id="xtick_11"/>
    <g id="xtick_12"/>
    <g id="xtick_13"/>
    <g id="xtick_14"/>
    <g id="xtick_15"/>
    <g id="xtick_16"/>
    <g id="xtick_17"/>
    <g id="xtick_18"/>
    <g id="xtick_19"/>
    <g id="xtick_20"/>
    <g id="xtick_21"/>
    <g id="xtick_22"/>
    <g id="xtick_23"/>
    <g id="xtick_24"/>
    <g id="xtick_25"/>
    <g id="xtick_26"/>
   </g>
   <g id="matplotlib.axis_2">
    <g id="ytick_1">
     <g id="line2d_9">
      <path d="M 106.287 246.341894 
L 887.487 246.341894 
" clip-path="url(#p046f51c63b)" style="fill: none; stroke: #cccccc; stroke-width: 0.8; stroke-linecap: round"/>
     </g>
     <g id="text_7">
      <!-- −600000 -->
      <g style="fill: #262626" transform="translate(28.984 252.640769) scale(0.176 -0.176)">
       <defs>
        <path id="ArialMT-2212" d="M 3381 1997 
L 356 1997 
L 356 2522 
L 3381 2522 
L 3381 1997 
z
" transform="scale(0.015625)"/>
        <path id="ArialMT-36" d="M 3184 3459 
L 2625 3416 
Q 2550 3747 2413 3897 
Q 2184 4138 1850 4138 
Q 1581 4138 1378 3988 
Q 1113 3794 959 3422 
Q 806 3050 800 2363 
Q 1003 2672 1297 2822 
Q 1591 2972 1913 2972 
Q 2475 2972 2870 2558 
Q 3266 2144 3266 1488 
Q 3266 1056 3080 686 
Q 2894 316 2569 119 
Q 2244 -78 1831 -78 
Q 1128 -78 684 439 
Q 241 956 241 2144 
Q 241 3472 731 4075 
Q 1159 4600 1884 4600 
Q 2425 4600 2770 4297 
Q 3116 3994 3184 3459 
z
M 888 1484 
Q 888 1194 1011 928 
Q 1134 663 1356 523 
Q 1578 384 1822 384 
Q 2178 384 2434 671 
Q 2691 959 2691 1453 
Q 2691 1928 2437 2201 
Q 2184 2475 1800 2475 
Q 1419 2475 1153 2201 
Q 888 1928 888 1484 
z
" transform="scale(0.015625)"/>
       </defs>
       <use xlink:href="#ArialMT-2212"/>
       <use xlink:href="#ArialMT-36" x="58.398438"/>
       <use xlink:href="#ArialMT-30" x="114.013672"/>
       <use xlink:href="#ArialMT-30" x="169.628906"/>
       <use xlink:href="#ArialMT-30" x="225.244141"/>
       <use xlink:href="#ArialMT-30" x="280.859375"/>
       <use xlink:href="#ArialMT-30" x="336.474609"/>
      </g>
     </g>
    </g>
    <g id="ytick_2">
     <g id="line2d_10">
      <path d="M 106.287 204.84575 
L 887.487 204.84575 
" clip-path="url(#p046f51c63b)" style="fill: none; stroke: #cccccc; stroke-width: 0.8; stroke-linecap: round"/>
     </g>
     <g id="text_8">
      <!-- −400000 -->
      <g style="fill: #262626" transform="translate(28.984 211.144625) scale(0.176 -0.176)">
       <defs>
        <path id="ArialMT-34" d="M 2069 0 
L 2069 1097 
L 81 1097 
L 81 1613 
L 2172 4581 
L 2631 4581 
L 2631 1613 
L 3250 1613 
L 3250 1097 
L 2631 1097 
L 2631 0 
L 2069 0 
z
M 2069 1613 
L 2069 3678 
L 634 1613 
L 2069 1613 
z
" transform="scale(0.015625)"/>
       </defs>
       <use xlink:href="#ArialMT-2212"/>
       <use xlink:href="#ArialMT-34" x="58.398438"/>
       <use xlink:href="#ArialMT-30" x="114.013672"/>
       <use xlink:href="#ArialMT-30" x="169.628906"/>
       <use xlink:href="#ArialMT-30" x="225.244141"/>
       <use xlink:href="#ArialMT-30" x="280.859375"/>
       <use xlink:href="#ArialMT-30" x="336.474609"/>
      </g>
     </g>
    </g>
    <g id="ytick_3">
     <g id="line2d_11">
      <path d="M 106.287 163.349606 
L 887.487 163.349606 
" clip-path="url(#p046f51c63b)" style="fill: none; stroke: #cccccc; stroke-width: 0.8; stroke-linecap: round"/>
     </g>
     <g id="text_9">
      <!-- −200000 -->
      <g style="fill: #262626" transform="translate(28.984 169.648481) scale(0.176 -0.176)">
       <use xlink:href="#ArialMT-2212"/>
       <use xlink:href="#ArialMT-32" x="58.398438"/>
       <use xlink:href="#ArialMT-30" x="114.013672"/>
       <use xlink:href="#ArialMT-30" x="169.628906"/>
       <use xlink:href="#ArialMT-30" x="225.244141"/>
       <use xlink:href="#ArialMT-30" x="280.859375"/>
       <use xlink:href="#ArialMT-30" x="336.474609"/>
      </g>
     </g>
    </g>
    <g id="ytick_4">
     <g id="line2d_12">
      <path d="M 106.287 121.853462 
L 887.487 121.853462 
" clip-path="url(#p046f51c63b)" style="fill: none; stroke: #cccccc; stroke-width: 0.8; stroke-linecap: round"/>
     </g>
     <g id="text_10">
      <!-- 0 -->
      <g style="fill: #262626" transform="translate(88.19975 128.152337) scale(0.176 -0.176)">
       <use xlink:href="#ArialMT-30"/>
      </g>
     </g>
    </g>
    <g id="ytick_5">
     <g id="line2d_13">
      <path d="M 106.287 80.357318 
L 887.487 80.357318 
" clip-path="url(#p046f51c63b)" style="fill: none; stroke: #cccccc; stroke-width: 0.8; stroke-linecap: round"/>
     </g>
     <g id="text_11">
      <!-- 200000 -->
      <g style="fill: #262626" transform="translate(39.2635 86.656193) scale(0.176 -0.176)">
       <use xlink:href="#ArialMT-32"/>
       <use xlink:href="#ArialMT-30" x="55.615234"/>
       <use xlink:href="#ArialMT-30" x="111.230469"/>
       <use xlink:href="#ArialMT-30" x="166.845703"/>
       <use xlink:href="#ArialMT-30" x="222.460938"/>
       <use xlink:href="#ArialMT-30" x="278.076172"/>
      </g>
     </g>
    </g>
    <g id="ytick_6">
     <g id="line2d_14">
      <path d="M 106.287 38.861174 
L 887.487 38.861174 
" clip-path="url(#p046f51c63b)" style="fill: none; stroke: #cccccc; stroke-width: 0.8; stroke-linecap: round"/>
     </g>
     <g id="text_12">
      <!-- 400000 -->
      <g style="fill: #262626" transform="translate(39.2635 45.160049) scale(0.176 -0.176)">
       <use xlink:href="#ArialMT-34"/>
       <use xlink:href="#ArialMT-30" x="55.615234"/>
       <use xlink:href="#ArialMT-30" x="111.230469"/>
       <use xlink:href="#ArialMT-30" x="166.845703"/>
       <use xlink:href="#ArialMT-30" x="222.460938"/>
       <use xlink:href="#ArialMT-30" x="278.076172"/>
      </g>
     </g>
    </g>
    <g id="text_13">
     <!-- Natural gas consumption [MWh] -->
     <g style="fill: #262626" transform="translate(20.943 274.638) rotate(-90) scale(0.192 -0.192)">
      <defs>
       <path id="ArialMT-4e" d="M 488 0 
L 488 4581 
L 1109 4581 
L 3516 984 
L 3516 4581 
L 4097 4581 
L 4097 0 
L 3475 0 
L 1069 3600 
L 1069 0 
L 488 0 
z
" transform="scale(0.015625)"/>
       <path id="ArialMT-61" d="M 2588 409 
Q 2275 144 1986 34 
Q 1697 -75 1366 -75 
Q 819 -75 525 192 
Q 231 459 231 875 
Q 231 1119 342 1320 
Q 453 1522 633 1644 
Q 813 1766 1038 1828 
Q 1203 1872 1538 1913 
Q 2219 1994 2541 2106 
Q 2544 2222 2544 2253 
Q 2544 2597 2384 2738 
Q 2169 2928 1744 2928 
Q 1347 2928 1158 2789 
Q 969 2650 878 2297 
L 328 2372 
Q 403 2725 575 2942 
Q 747 3159 1072 3276 
Q 1397 3394 1825 3394 
Q 2250 3394 2515 3294 
Q 2781 3194 2906 3042 
Q 3031 2891 3081 2659 
Q 3109 2516 3109 2141 
L 3109 1391 
Q 3109 606 3145 398 
Q 3181 191 3288 0 
L 2700 0 
Q 2613 175 2588 409 
z
M 2541 1666 
Q 2234 1541 1622 1453 
Q 1275 1403 1131 1340 
Q 988 1278 909 1158 
Q 831 1038 831 891 
Q 831 666 1001 516 
Q 1172 366 1500 366 
Q 1825 366 2078 508 
Q 2331 650 2450 897 
Q 2541 1088 2541 1459 
L 2541 1666 
z
" transform="scale(0.015625)"/>
       <path id="ArialMT-74" d="M 1650 503 
L 1731 6 
Q 1494 -44 1306 -44 
Q 1000 -44 831 53 
Q 663 150 594 308 
Q 525 466 525 972 
L 525 2881 
L 113 2881 
L 113 3319 
L 525 3319 
L 525 4141 
L 1084 4478 
L 1084 3319 
L 1650 3319 
L 1650 2881 
L 1084 2881 
L 1084 941 
Q 1084 700 1114 631 
Q 1144 563 1211 522 
Q 1278 481 1403 481 
Q 1497 481 1650 503 
z
" transform="scale(0.015625)"/>
       <path id="ArialMT-75" d="M 2597 0 
L 2597 488 
Q 2209 -75 1544 -75 
Q 1250 -75 995 37 
Q 741 150 617 320 
Q 494 491 444 738 
Q 409 903 409 1263 
L 409 3319 
L 972 3319 
L 972 1478 
Q 972 1038 1006 884 
Q 1059 663 1231 536 
Q 1403 409 1656 409 
Q 1909 409 2131 539 
Q 2353 669 2445 892 
Q 2538 1116 2538 1541 
L 2538 3319 
L 3100 3319 
L 3100 0 
L 2597 0 
z
" transform="scale(0.015625)"/>
       <path id="ArialMT-72" d="M 416 0 
L 416 3319 
L 922 3319 
L 922 2816 
Q 1116 3169 1280 3281 
Q 1444 3394 1641 3394 
Q 1925 3394 2219 3213 
L 2025 2691 
Q 1819 2813 1613 2813 
Q 1428 2813 1281 2702 
Q 1134 2591 1072 2394 
Q 978 2094 978 1738 
L 978 0 
L 416 0 
z
" transform="scale(0.015625)"/>
       <path id="ArialMT-6c" d="M 409 0 
L 409 4581 
L 972 4581 
L 972 0 
L 409 0 
z
" transform="scale(0.015625)"/>
       <path id="ArialMT-20" transform="scale(0.015625)"/>
       <path id="ArialMT-67" d="M 319 -275 
L 866 -356 
Q 900 -609 1056 -725 
Q 1266 -881 1628 -881 
Q 2019 -881 2231 -725 
Q 2444 -569 2519 -288 
Q 2563 -116 2559 434 
Q 2191 0 1641 0 
Q 956 0 581 494 
Q 206 988 206 1678 
Q 206 2153 378 2554 
Q 550 2956 876 3175 
Q 1203 3394 1644 3394 
Q 2231 3394 2613 2919 
L 2613 3319 
L 3131 3319 
L 3131 450 
Q 3131 -325 2973 -648 
Q 2816 -972 2473 -1159 
Q 2131 -1347 1631 -1347 
Q 1038 -1347 672 -1080 
Q 306 -813 319 -275 
z
M 784 1719 
Q 784 1066 1043 766 
Q 1303 466 1694 466 
Q 2081 466 2343 764 
Q 2606 1063 2606 1700 
Q 2606 2309 2336 2618 
Q 2066 2928 1684 2928 
Q 1309 2928 1046 2623 
Q 784 2319 784 1719 
z
" transform="scale(0.015625)"/>
       <path id="ArialMT-73" d="M 197 991 
L 753 1078 
Q 800 744 1014 566 
Q 1228 388 1613 388 
Q 2000 388 2187 545 
Q 2375 703 2375 916 
Q 2375 1106 2209 1216 
Q 2094 1291 1634 1406 
Q 1016 1563 777 1677 
Q 538 1791 414 1992 
Q 291 2194 291 2438 
Q 291 2659 392 2848 
Q 494 3038 669 3163 
Q 800 3259 1026 3326 
Q 1253 3394 1513 3394 
Q 1903 3394 2198 3281 
Q 2494 3169 2634 2976 
Q 2775 2784 2828 2463 
L 2278 2388 
Q 2241 2644 2061 2787 
Q 1881 2931 1553 2931 
Q 1166 2931 1000 2803 
Q 834 2675 834 2503 
Q 834 2394 903 2306 
Q 972 2216 1119 2156 
Q 1203 2125 1616 2013 
Q 2213 1853 2448 1751 
Q 2684 1650 2818 1456 
Q 2953 1263 2953 975 
Q 2953 694 2789 445 
Q 2625 197 2315 61 
Q 2006 -75 1616 -75 
Q 969 -75 630 194 
Q 291 463 197 991 
z
" transform="scale(0.015625)"/>
       <path id="ArialMT-63" d="M 2588 1216 
L 3141 1144 
Q 3050 572 2676 248 
Q 2303 -75 1759 -75 
Q 1078 -75 664 370 
Q 250 816 250 1647 
Q 250 2184 428 2587 
Q 606 2991 970 3192 
Q 1334 3394 1763 3394 
Q 2303 3394 2647 3120 
Q 2991 2847 3088 2344 
L 2541 2259 
Q 2463 2594 2264 2762 
Q 2066 2931 1784 2931 
Q 1359 2931 1093 2626 
Q 828 2322 828 1663 
Q 828 994 1084 691 
Q 1341 388 1753 388 
Q 2084 388 2306 591 
Q 2528 794 2588 1216 
z
" transform="scale(0.015625)"/>
       <path id="ArialMT-6f" d="M 213 1659 
Q 213 2581 725 3025 
Q 1153 3394 1769 3394 
Q 2453 3394 2887 2945 
Q 3322 2497 3322 1706 
Q 3322 1066 3130 698 
Q 2938 331 2570 128 
Q 2203 -75 1769 -75 
Q 1072 -75 642 372 
Q 213 819 213 1659 
z
M 791 1659 
Q 791 1022 1069 705 
Q 1347 388 1769 388 
Q 2188 388 2466 706 
Q 2744 1025 2744 1678 
Q 2744 2294 2464 2611 
Q 2184 2928 1769 2928 
Q 1347 2928 1069 2612 
Q 791 2297 791 1659 
z
" transform="scale(0.015625)"/>
       <path id="ArialMT-6e" d="M 422 0 
L 422 3319 
L 928 3319 
L 928 2847 
Q 1294 3394 1984 3394 
Q 2284 3394 2536 3286 
Q 2788 3178 2913 3003 
Q 3038 2828 3088 2588 
Q 3119 2431 3119 2041 
L 3119 0 
L 2556 0 
L 2556 2019 
Q 2556 2363 2490 2533 
Q 2425 2703 2258 2804 
Q 2091 2906 1866 2906 
Q 1506 2906 1245 2678 
Q 984 2450 984 1813 
L 984 0 
L 422 0 
z
" transform="scale(0.015625)"/>
       <path id="ArialMT-6d" d="M 422 0 
L 422 3319 
L 925 3319 
L 925 2853 
Q 1081 3097 1340 3245 
Q 1600 3394 1931 3394 
Q 2300 3394 2536 3241 
Q 2772 3088 2869 2813 
Q 3263 3394 3894 3394 
Q 4388 3394 4653 3120 
Q 4919 2847 4919 2278 
L 4919 0 
L 4359 0 
L 4359 2091 
Q 4359 2428 4304 2576 
Q 4250 2725 4106 2815 
Q 3963 2906 3769 2906 
Q 3419 2906 3187 2673 
Q 2956 2441 2956 1928 
L 2956 0 
L 2394 0 
L 2394 2156 
Q 2394 2531 2256 2718 
Q 2119 2906 1806 2906 
Q 1569 2906 1367 2781 
Q 1166 2656 1075 2415 
Q 984 2175 984 1722 
L 984 0 
L 422 0 
z
" transform="scale(0.015625)"/>
       <path id="ArialMT-70" d="M 422 -1272 
L 422 3319 
L 934 3319 
L 934 2888 
Q 1116 3141 1344 3267 
Q 1572 3394 1897 3394 
Q 2322 3394 2647 3175 
Q 2972 2956 3137 2557 
Q 3303 2159 3303 1684 
Q 3303 1175 3120 767 
Q 2938 359 2589 142 
Q 2241 -75 1856 -75 
Q 1575 -75 1351 44 
Q 1128 163 984 344 
L 984 -1272 
L 422 -1272 
z
M 931 1641 
Q 931 1000 1190 694 
Q 1450 388 1819 388 
Q 2194 388 2461 705 
Q 2728 1022 2728 1688 
Q 2728 2322 2467 2637 
Q 2206 2953 1844 2953 
Q 1484 2953 1207 2617 
Q 931 2281 931 1641 
z
" transform="scale(0.015625)"/>
       <path id="ArialMT-69" d="M 425 3934 
L 425 4581 
L 988 4581 
L 988 3934 
L 425 3934 
z
M 425 0 
L 425 3319 
L 988 3319 
L 988 0 
L 425 0 
z
" transform="scale(0.015625)"/>
       <path id="ArialMT-5b" d="M 434 -1272 
L 434 4581 
L 1675 4581 
L 1675 4116 
L 997 4116 
L 997 -806 
L 1675 -806 
L 1675 -1272 
L 434 -1272 
z
" transform="scale(0.015625)"/>
       <path id="ArialMT-4d" d="M 475 0 
L 475 4581 
L 1388 4581 
L 2472 1338 
Q 2622 884 2691 659 
Q 2769 909 2934 1394 
L 4031 4581 
L 4847 4581 
L 4847 0 
L 4263 0 
L 4263 3834 
L 2931 0 
L 2384 0 
L 1059 3900 
L 1059 0 
L 475 0 
z
" transform="scale(0.015625)"/>
       <path id="ArialMT-57" d="M 1294 0 
L 78 4581 
L 700 4581 
L 1397 1578 
Q 1509 1106 1591 641 
Q 1766 1375 1797 1488 
L 2669 4581 
L 3400 4581 
L 4056 2263 
Q 4303 1400 4413 641 
Q 4500 1075 4641 1638 
L 5359 4581 
L 5969 4581 
L 4713 0 
L 4128 0 
L 3163 3491 
Q 3041 3928 3019 4028 
Q 2947 3713 2884 3491 
L 1913 0 
L 1294 0 
z
" transform="scale(0.015625)"/>
       <path id="ArialMT-68" d="M 422 0 
L 422 4581 
L 984 4581 
L 984 2938 
Q 1378 3394 1978 3394 
Q 2347 3394 2619 3248 
Q 2891 3103 3008 2847 
Q 3125 2591 3125 2103 
L 3125 0 
L 2563 0 
L 2563 2103 
Q 2563 2525 2380 2717 
Q 2197 2909 1863 2909 
Q 1613 2909 1392 2779 
Q 1172 2650 1078 2428 
Q 984 2206 984 1816 
L 984 0 
L 422 0 
z
" transform="scale(0.015625)"/>
       <path id="ArialMT-5d" d="M 1363 -1272 
L 122 -1272 
L 122 -806 
L 800 -806 
L 800 4116 
L 122 4116 
L 122 4581 
L 1363 4581 
L 1363 -1272 
z
" transform="scale(0.015625)"/>
      </defs>
      <use xlink:href="#ArialMT-4e"/>
      <use xlink:href="#ArialMT-61" x="72.216797"/>
      <use xlink:href="#ArialMT-74" x="127.832031"/>
      <use xlink:href="#ArialMT-75" x="155.615234"/>
      <use xlink:href="#ArialMT-72" x="211.230469"/>
      <use xlink:href="#ArialMT-61" x="244.53125"/>
      <use xlink:href="#ArialMT-6c" x="300.146484"/>
      <use xlink:href="#ArialMT-20" x="322.363281"/>
      <use xlink:href="#ArialMT-67" x="350.146484"/>
      <use xlink:href="#ArialMT-61" x="405.761719"/>
      <use xlink:href="#ArialMT-73" x="461.376953"/>
      <use xlink:href="#ArialMT-20" x="511.376953"/>
      <use xlink:href="#ArialMT-63" x="539.160156"/>
      <use xlink:href="#ArialMT-6f" x="589.160156"/>
      <use xlink:href="#ArialMT-6e" x="644.775391"/>
      <use xlink:href="#ArialMT-73" x="700.390625"/>
      <use xlink:href="#ArialMT-75" x="750.390625"/>
      <use xlink:href="#ArialMT-6d" x="806.005859"/>
      <use xlink:href="#ArialMT-70" x="889.306641"/>
      <use xlink:href="#ArialMT-74" x="944.921875"/>
      <use xlink:href="#ArialMT-69" x="972.705078"/>
      <use xlink:href="#ArialMT-6f" x="994.921875"/>
      <use xlink:href="#ArialMT-6e" x="1050.537109"/>
      <use xlink:href="#ArialMT-20" x="1106.152344"/>
      <use xlink:href="#ArialMT-5b" x="1133.935547"/>
      <use xlink:href="#ArialMT-4d" x="1161.71875"/>
      <use xlink:href="#ArialMT-57" x="1245.019531"/>
      <use xlink:href="#ArialMT-68" x="1339.404297"/>
      <use xlink:href="#ArialMT-5d" x="1395.019531"/>
     </g>
    </g>
   </g>
   <g id="line2d_15">
    <path d="M 116.214607 150.215075 
L 116.556939 149.177456 
L 116.89927 147.63409 
L 117.241601 145.441643 
L 117.583933 145.560767 
L 117.926264 143.419602 
L 118.268595 143.568884 
L 118.610926 145.702366 
L 119.295589 138.834662 
L 119.63792 137.243482 
L 119.980252 134.57376 
L 120.322583 133.026616 
L 121.007245 136.575779 
L 121.349577 135.500234 
L 122.034239 129.621009 
L 122.718902 126.908789 
L 123.061233 129.524359 
L 123.403564 130.340095 
L 124.088227 120.687364 
L 124.430558 121.802227 
L 124.77289 124.495793 
L 125.115221 126.170896 
L 125.457552 129.338456 
L 125.799883 130.775772 
L 126.142215 129.923429 
L 126.826877 125.417711 
L 127.51154 116.088384 
L 128.196202 120.018217 
L 128.538534 117.562672 
L 128.880865 112.563466 
L 129.223196 110.036527 
L 129.907859 104.105404 
L 130.592521 108.219478 
L 131.277184 101.520709 
L 131.619515 99.303896 
L 131.961847 100.671454 
L 132.646509 109.17202 
L 132.98884 110.067903 
L 133.331172 105.099631 
L 133.673503 103.502086 
L 134.358166 108.261728 
L 134.700497 108.875829 
L 135.042828 110.52469 
L 135.38516 110.958144 
L 135.727491 110.515458 
L 136.069822 111.908218 
L 136.412153 112.451563 
L 136.754485 113.215635 
L 137.096816 117.251514 
L 137.781479 131.506599 
L 138.466141 123.886579 
L 138.808472 123.02341 
L 139.150804 125.819586 
L 139.835466 139.9059 
L 140.177798 141.778974 
L 140.86246 134.755193 
L 141.204791 134.45562 
L 141.547123 131.821329 
L 141.889454 132.84607 
L 142.231785 134.600237 
L 142.574117 135.124177 
L 142.916448 131.524904 
L 143.258779 129.920484 
L 143.60111 129.891392 
L 144.285773 126.104307 
L 144.628104 126.191335 
L 144.970436 127.373299 
L 145.312767 124.957811 
L 145.997429 114.791645 
L 146.339761 109.276752 
L 146.682092 106.482896 
L 147.024423 106.339451 
L 147.366755 103.616258 
L 148.051417 90.934921 
L 148.393748 89.684845 
L 148.73608 89.701832 
L 149.420742 91.253373 
L 149.763074 88.359049 
L 150.105405 83.758632 
L 150.447736 83.734985 
L 150.790067 86.34365 
L 151.132399 87.668904 
L 151.47473 87.70494 
L 151.817061 91.484822 
L 152.159393 93.143729 
L 152.844055 87.761658 
L 153.528718 85.257833 
L 153.871049 85.146514 
L 154.21338 87.998265 
L 154.555712 92.270863 
L 154.898043 90.355803 
L 155.240374 86.946215 
L 155.582706 86.208007 
L 155.925037 88.004885 
L 156.609699 99.687016 
L 156.952031 101.347788 
L 157.294362 97.368853 
L 157.636693 97.731424 
L 157.979025 100.953526 
L 158.321356 102.830871 
L 159.006018 104.453029 
L 159.34835 107.219559 
L 159.690681 106.563891 
L 160.033012 105.019504 
L 160.375344 105.50776 
L 160.717675 104.69811 
L 161.060006 105.690764 
L 161.744669 113.661417 
L 162.087 113.324862 
L 162.429331 111.742329 
L 162.771663 111.652974 
L 163.113994 113.151296 
L 163.456325 116.086006 
L 164.140988 126.152389 
L 164.82565 121.107737 
L 165.167982 124.61184 
L 165.852644 128.501614 
L 166.194975 132.697573 
L 166.537307 133.921774 
L 166.879638 129.946676 
L 167.221969 128.323299 
L 167.564301 130.012669 
L 167.906632 127.883482 
L 168.248963 125.044825 
L 168.591294 126.980727 
L 168.933626 130.161377 
L 169.275957 132.232813 
L 169.618288 132.786699 
L 170.645282 137.538811 
L 170.987613 141.123665 
L 171.329945 142.590413 
L 171.672276 139.896124 
L 172.014607 139.199923 
L 172.356939 139.952047 
L 172.69927 142.434221 
L 173.726264 157.047303 
L 174.068595 158.815498 
L 174.410926 159.06022 
L 174.753258 162.128349 
L 175.095589 163.24309 
L 175.43792 160.420485 
L 175.780252 162.67315 
L 176.122583 165.871237 
L 176.807245 160.39009 
L 177.149577 162.189872 
L 177.834239 166.27635 
L 178.518902 174.632962 
L 178.861233 175.859193 
L 180.230558 170.550064 
L 180.57289 169.831074 
L 180.915221 170.08939 
L 181.257552 170.845404 
L 181.599883 172.793561 
L 181.942215 173.612841 
L 182.284546 169.007182 
L 182.626877 165.976817 
L 182.969209 164.947386 
L 183.31154 162.49478 
L 183.653871 158.377775 
L 184.338534 144.842976 
L 185.023196 138.815542 
L 185.707859 145.707565 
L 186.05019 142.052674 
L 186.392521 135.540059 
L 186.734853 136.004738 
L 187.077184 137.556903 
L 187.419515 135.070646 
L 188.104178 135.578272 
L 189.473503 121.571689 
L 189.815834 121.312912 
L 190.158166 121.967654 
L 190.842828 124.988268 
L 191.18516 124.563129 
L 191.527491 125.377889 
L 192.212153 119.17457 
L 192.554485 121.4926 
L 192.896816 124.764605 
L 193.239147 124.147016 
L 193.92381 121.084911 
L 194.266141 123.52014 
L 194.608472 124.088984 
L 194.950804 126.713184 
L 195.293135 128.358036 
L 195.635466 123.319263 
L 195.977798 120.129907 
L 196.320129 120.67644 
L 196.66246 122.654947 
L 197.004791 121.931672 
L 197.347123 121.756445 
L 197.689454 124.588184 
L 198.031785 122.421602 
L 198.374117 118.542085 
L 198.716448 118.392441 
L 199.058779 117.497188 
L 199.40111 119.558607 
L 199.743442 122.808527 
L 200.085773 124.727145 
L 200.428104 121.307369 
L 201.112767 111.959932 
L 201.455098 109.645929 
L 201.797429 105.485035 
L 202.139761 106.877131 
L 202.482092 110.117308 
L 202.824423 108.801223 
L 203.166755 106.34001 
L 203.509086 105.369454 
L 203.851417 105.995815 
L 204.53608 108.213181 
L 204.878411 108.549427 
L 205.563074 103.798717 
L 206.247736 103.7602 
L 206.590067 104.361737 
L 207.27473 108.158696 
L 207.617061 106.539051 
L 207.959393 106.164723 
L 208.644055 107.992982 
L 208.986387 108.096592 
L 209.328718 111.207651 
L 209.671049 113.022272 
L 210.355712 109.290506 
L 210.698043 110.937257 
L 211.725037 119.346 
L 212.067368 121.892847 
L 212.409699 119.389611 
L 212.752031 118.252068 
L 213.436693 120.415513 
L 214.121356 125.840374 
L 214.463687 126.904038 
L 214.806018 125.615538 
L 215.14835 126.256164 
L 216.175344 129.692696 
L 216.860006 136.272802 
L 217.202337 135.797315 
L 217.887 133.670874 
L 218.229331 131.797929 
L 218.571663 131.919458 
L 219.256325 137.483748 
L 219.940988 133.377918 
L 220.283319 132.805956 
L 220.62565 130.947833 
L 220.967982 133.213395 
L 221.652644 140.613643 
L 221.994975 139.605067 
L 222.337307 136.262549 
L 222.679638 136.670539 
L 223.364301 139.189317 
L 223.706632 142.029516 
L 224.048963 143.510489 
L 224.391294 141.751814 
L 225.075957 143.566932 
L 225.76062 146.88096 
L 226.445282 154.336376 
L 226.787613 152.979971 
L 227.129945 149.929073 
L 227.814607 147.961439 
L 228.156939 149.147783 
L 228.49927 151.404396 
L 228.841601 152.775594 
L 229.868595 146.472071 
L 230.553258 143.342384 
L 230.895589 146.130021 
L 231.23792 147.672715 
L 231.922583 143.272855 
L 232.264914 143.883514 
L 233.291908 150.905142 
L 233.634239 151.891436 
L 233.976571 149.637533 
L 234.318902 145.923898 
L 235.003564 141.205533 
L 235.345896 139.877989 
L 235.688227 137.729536 
L 236.030558 136.290745 
L 236.715221 124.700418 
L 237.057552 123.684908 
L 237.742215 122.867921 
L 238.084546 124.994318 
L 238.426877 128.542343 
L 238.769209 127.852376 
L 239.11154 125.704189 
L 239.453871 124.302607 
L 239.796202 124.64812 
L 240.138534 127.564579 
L 240.823196 138.357394 
L 241.165528 140.863437 
L 241.507859 140.017617 
L 241.85019 138.704595 
L 242.192521 135.517786 
L 242.534853 133.962929 
L 242.877184 136.34441 
L 243.219515 135.986006 
L 244.246509 127.558275 
L 244.58884 126.288495 
L 244.931172 127.639443 
L 245.615834 133.736827 
L 246.300497 132.693938 
L 246.98516 132.326494 
L 247.327491 132.165202 
L 248.012153 137.451262 
L 248.354485 134.858058 
L 248.696816 128.390001 
L 249.039147 125.431752 
L 249.381479 124.869061 
L 249.72381 126.250618 
L 250.066141 130.3372 
L 250.408472 133.019228 
L 250.750804 129.568376 
L 251.777798 114.252657 
L 252.120129 112.349798 
L 252.804791 116.243979 
L 253.489454 105.931236 
L 253.831785 102.833973 
L 254.174117 102.120826 
L 254.516448 104.483417 
L 254.858779 109.20802 
L 255.20111 111.547806 
L 255.885773 99.988652 
L 256.228104 99.681532 
L 256.570436 97.473543 
L 256.912767 98.039317 
L 257.255098 100.488167 
L 257.597429 101.762094 
L 258.624423 89.616398 
L 258.966755 89.747871 
L 259.309086 91.259567 
L 259.993748 97.798552 
L 260.678411 99.243967 
L 261.020742 102.165171 
L 262.047736 114.550169 
L 262.732399 116.767903 
L 263.07473 116.988163 
L 263.759393 122.233887 
L 264.101724 123.792166 
L 264.444055 126.103659 
L 264.786387 129.46509 
L 265.128718 126.891504 
L 265.471049 122.849543 
L 266.155712 125.471511 
L 266.498043 125.487988 
L 267.182706 133.504726 
L 267.525037 132.067839 
L 267.867368 128.620144 
L 268.209699 129.353456 
L 268.552031 130.691291 
L 268.894362 132.549614 
L 269.236693 136.158457 
L 269.579025 138.065016 
L 269.921356 135.087983 
L 270.263687 130.177865 
L 270.94835 116.657355 
L 271.290681 114.118185 
L 271.633012 114.520812 
L 271.975344 112.740991 
L 272.317675 109.194502 
L 272.660006 109.661514 
L 273.002337 106.707505 
L 273.344669 105.357493 
L 273.687 105.509647 
L 274.371663 111.025316 
L 274.713994 107.95572 
L 275.056325 103.608402 
L 275.398656 101.269789 
L 275.740988 101.351224 
L 276.083319 102.517964 
L 276.42565 104.431635 
L 276.767982 105.027092 
L 277.452644 99.089497 
L 277.794975 99.710453 
L 278.137307 100.840668 
L 278.479638 99.169767 
L 279.164301 104.412203 
L 279.848963 98.871391 
L 280.191294 98.797275 
L 280.533626 99.840218 
L 281.218288 106.763148 
L 281.56062 110.221016 
L 281.902951 108.87776 
L 282.245282 109.421894 
L 282.587613 113.705049 
L 282.929945 114.015865 
L 283.614607 115.489161 
L 283.956939 114.6433 
L 284.29927 109.051049 
L 284.641601 105.72597 
L 284.983933 106.345403 
L 285.326264 106.363922 
L 285.668595 107.797933 
L 286.010926 109.760706 
L 286.353258 110.31329 
L 286.695589 110.079674 
L 287.03792 111.25438 
L 287.380252 114.441666 
L 287.722583 115.903649 
L 288.064914 116.655128 
L 288.749577 129.15909 
L 289.091908 127.689966 
L 289.434239 124.509675 
L 289.776571 124.083315 
L 290.461233 123.005377 
L 290.803564 125.712531 
L 291.145896 126.712284 
L 292.17289 117.629392 
L 292.515221 116.831079 
L 292.857552 116.44824 
L 293.199883 119.172503 
L 293.542215 123.065671 
L 293.884546 123.585092 
L 294.226877 119.994349 
L 294.569209 121.512833 
L 294.91154 124.265155 
L 295.253871 128.012195 
L 295.596202 129.376017 
L 295.938534 129.072177 
L 296.280865 127.83129 
L 296.623196 127.887739 
L 296.965528 129.727695 
L 297.307859 128.595306 
L 297.65019 127.919716 
L 297.992521 130.205109 
L 298.334853 131.447901 
L 299.019515 123.046493 
L 299.704178 120.525355 
L 300.046509 121.670679 
L 300.731172 125.829936 
L 301.073503 123.942782 
L 301.415834 124.75546 
L 301.758166 127.107347 
L 302.100497 131.03871 
L 302.442828 133.511913 
L 302.78516 133.615703 
L 303.127491 131.175452 
L 303.469822 129.601577 
L 303.812153 130.837429 
L 304.154485 131.154998 
L 304.839147 137.921585 
L 305.181479 137.630626 
L 305.866141 133.377075 
L 306.208472 131.670098 
L 306.550804 132.333844 
L 306.893135 134.181458 
L 307.577798 134.902109 
L 307.920129 133.388889 
L 308.26246 128.478542 
L 308.604791 126.739469 
L 308.947123 127.607675 
L 309.289454 129.792293 
L 310.316448 143.480134 
L 310.658779 142.971184 
L 311.343442 139.327031 
L 311.685773 135.725704 
L 312.028104 134.458642 
L 312.370436 132.299517 
L 312.712767 131.991148 
L 313.055098 131.201621 
L 313.397429 131.576451 
L 313.739761 130.263742 
L 314.082092 125.964659 
L 314.424423 124.540672 
L 314.766755 126.197966 
L 315.109086 127.247279 
L 315.451417 126.051315 
L 315.793748 125.322945 
L 316.13608 126.964153 
L 316.478411 129.255139 
L 316.820742 129.465593 
L 317.163074 129.441196 
L 317.505405 128.868063 
L 317.847736 128.868315 
L 318.190067 129.23828 
L 318.532399 132.636376 
L 318.87473 132.480401 
L 319.217061 129.54786 
L 319.559393 128.293967 
L 319.901724 124.304959 
L 320.244055 118.97033 
L 320.586387 116.663218 
L 320.928718 116.357037 
L 321.271049 116.556184 
L 321.955712 128.052701 
L 322.298043 130.611879 
L 322.640374 128.544529 
L 323.325037 122.724053 
L 323.667368 122.154307 
L 324.009699 122.096579 
L 324.352031 122.425877 
L 324.694362 121.562173 
L 325.036693 117.911875 
L 325.379025 116.11267 
L 325.721356 115.683727 
L 326.063687 115.931285 
L 326.406018 116.427193 
L 327.090681 119.965218 
L 327.775344 116.603887 
L 328.117675 116.526576 
L 328.802337 112.194282 
L 329.144669 113.269464 
L 329.487 116.22351 
L 329.829331 115.078405 
L 330.171663 115.785923 
L 330.513994 117.811261 
L 330.856325 118.113149 
L 331.198656 118.567814 
L 331.540988 121.433315 
L 331.883319 119.341462 
L 332.567982 111.931978 
L 332.910313 112.068743 
L 333.252644 113.395798 
L 333.937307 118.570255 
L 334.279638 120.353225 
L 334.621969 118.665192 
L 334.964301 118.41047 
L 335.306632 120.00407 
L 335.648963 119.977445 
L 335.991294 120.378114 
L 336.675957 123.164632 
L 337.36062 119.674421 
L 338.045282 119.628985 
L 338.387613 120.480236 
L 338.729945 123.748911 
L 339.072276 125.559358 
L 339.756939 122.859846 
L 340.09927 123.122866 
L 340.783933 123.176086 
L 341.468595 125.943081 
L 342.495589 120.916135 
L 342.83792 120.671014 
L 343.180252 119.711454 
L 343.864914 127.889937 
L 344.207245 125.299664 
L 344.549577 120.389745 
L 345.234239 118.445023 
L 345.576571 119.630315 
L 345.918902 122.403328 
L 346.261233 123.988455 
L 346.945896 118.736262 
L 347.630558 117.266953 
L 347.97289 117.044182 
L 348.315221 119.227248 
L 348.657552 118.642299 
L 348.999883 115.372926 
L 349.342215 113.374653 
L 349.684546 112.675871 
L 350.026877 112.269018 
L 350.369209 112.576881 
L 351.053871 116.238644 
L 351.396202 112.343245 
L 351.738534 110.666854 
L 352.080865 110.864255 
L 352.423196 111.619346 
L 352.765528 111.480535 
L 353.45019 123.558747 
L 353.792521 123.593531 
L 354.134853 123.472731 
L 354.477184 125.477533 
L 354.819515 126.357153 
L 355.161847 128.435079 
L 355.504178 134.474778 
L 355.846509 136.967171 
L 356.18884 136.678435 
L 356.531172 138.056408 
L 356.873503 140.684552 
L 357.215834 141.922752 
L 357.558166 142.309189 
L 357.900497 143.353893 
L 358.242828 146.437541 
L 358.58516 145.799404 
L 358.927491 144.768174 
L 359.269822 145.443721 
L 359.954485 140.962227 
L 360.639147 139.745176 
L 360.981479 135.88313 
L 361.32381 133.331095 
L 361.666141 135.165529 
L 362.008472 136.17535 
L 362.350804 138.478498 
L 363.035466 147.137793 
L 363.720129 139.837306 
L 364.404791 129.382461 
L 364.747123 128.876522 
L 365.431785 138.774601 
L 366.458779 127.299679 
L 367.143442 123.296835 
L 367.828104 126.992433 
L 368.170436 124.158039 
L 368.512767 119.708917 
L 368.855098 117.03723 
L 369.197429 117.000013 
L 369.539761 119.023278 
L 370.224423 128.557152 
L 370.909086 129.147542 
L 371.251417 131.850774 
L 371.93608 135.543425 
L 372.278411 138.24794 
L 372.620742 139.658501 
L 373.647736 126.823401 
L 373.990067 123.539161 
L 374.332399 122.825659 
L 374.67473 124.074856 
L 375.017061 123.241735 
L 375.701724 110.822629 
L 376.044055 109.975059 
L 376.386387 110.92341 
L 376.728718 110.711177 
L 377.071049 111.084886 
L 377.41338 111.761834 
L 377.755712 106.35719 
L 378.098043 104.83209 
L 378.440374 109.043875 
L 378.782706 109.505655 
L 379.125037 107.528558 
L 379.467368 110.603604 
L 379.809699 112.02192 
L 380.152031 109.984037 
L 380.494362 106.807691 
L 381.179025 103.0454 
L 381.521356 100.318888 
L 381.863687 100.367747 
L 382.206018 99.864483 
L 382.890681 86.433253 
L 383.233012 85.262022 
L 383.575344 85.049235 
L 383.917675 85.581863 
L 384.602337 92.641648 
L 385.629331 106.165759 
L 385.971663 107.763441 
L 386.313994 108.301593 
L 386.656325 110.522077 
L 386.998656 111.847503 
L 387.340988 111.787411 
L 387.683319 113.157546 
L 388.02565 117.703781 
L 388.367982 119.391595 
L 388.710313 117.853379 
L 389.052644 118.547702 
L 389.394975 122.011317 
L 390.079638 114.910202 
L 390.421969 113.873806 
L 390.764301 113.466943 
L 391.106632 114.298753 
L 391.791294 116.925649 
L 392.475957 112.129079 
L 392.818288 112.762121 
L 393.502951 115.27965 
L 394.187613 123.031937 
L 394.529945 120.535216 
L 394.872276 116.511141 
L 395.89927 98.473763 
L 396.583933 93.161158 
L 396.926264 88.995898 
L 397.610926 82.797502 
L 398.295589 74.540872 
L 398.63792 72.539399 
L 398.980252 72.068247 
L 399.322583 71.021534 
L 399.664914 67.86256 
L 400.007245 67.542634 
L 400.349577 67.794511 
L 400.691908 66.664798 
L 401.376571 70.288624 
L 401.718902 70.013506 
L 402.061233 69.388851 
L 402.745896 67.293638 
L 403.088227 68.096701 
L 403.430558 70.698167 
L 403.77289 71.964749 
L 404.457552 65.024139 
L 404.799883 66.270898 
L 405.142215 66.696958 
L 405.484546 68.267443 
L 405.826877 75.598743 
L 406.169209 79.702863 
L 406.51154 79.725205 
L 406.853871 80.065372 
L 407.538534 82.285553 
L 407.880865 85.164112 
L 408.223196 90.977524 
L 408.565528 94.373841 
L 408.907859 94.196196 
L 409.934853 98.996717 
L 410.619515 105.052487 
L 410.961847 108.498088 
L 411.304178 109.899593 
L 411.98884 108.423318 
L 412.331172 109.003708 
L 412.673503 110.332529 
L 413.358166 116.755011 
L 413.700497 117.740975 
L 414.042828 117.133174 
L 414.38516 117.379282 
L 414.727491 115.704329 
L 415.069822 114.954756 
L 415.754485 121.99415 
L 416.096816 119.896404 
L 416.439147 118.788862 
L 416.781479 119.816936 
L 417.466141 120.122222 
L 417.808472 123.194344 
L 418.150804 125.187145 
L 418.835466 122.588815 
L 419.177798 121.821534 
L 419.520129 120.362318 
L 419.86246 120.476213 
L 420.204791 122.713494 
L 420.547123 122.727415 
L 420.889454 120.98067 
L 421.231785 121.430699 
L 421.574117 122.690395 
L 422.258779 128.468937 
L 422.943442 135.19162 
L 424.312767 125.822354 
L 424.655098 127.186921 
L 425.339761 135.131246 
L 425.682092 135.240812 
L 426.709086 126.335132 
L 427.051417 129.613188 
L 427.73608 142.23345 
L 428.078411 142.413447 
L 428.420742 140.635577 
L 428.763074 141.29431 
L 429.105405 142.886164 
L 429.447736 147.158083 
L 430.132399 158.024943 
L 430.47473 158.422685 
L 430.817061 157.835013 
L 431.159393 156.996632 
L 431.844055 152.020652 
L 432.186387 153.490752 
L 432.528718 155.516174 
L 432.871049 153.655827 
L 433.21338 153.246204 
L 433.898043 159.864522 
L 434.240374 161.575656 
L 434.582706 162.329191 
L 434.925037 161.331487 
L 435.609699 156.418701 
L 435.952031 155.654528 
L 436.294362 155.238116 
L 436.636693 155.075435 
L 436.979025 158.036543 
L 437.321356 156.567012 
L 437.663687 150.334422 
L 438.006018 146.404579 
L 438.34835 146.307903 
L 438.690681 147.012786 
L 439.033012 142.352728 
L 439.375344 141.945977 
L 439.717675 140.5381 
L 440.402337 128.235544 
L 441.087 124.812758 
L 441.429331 124.512392 
L 441.771663 127.422893 
L 442.113994 127.700758 
L 442.456325 125.008879 
L 443.140988 116.108966 
L 443.483319 111.757758 
L 443.82565 108.871971 
L 444.167982 108.284323 
L 444.510313 108.282869 
L 445.194975 107.014861 
L 445.879638 106.670019 
L 446.221969 103.210493 
L 446.564301 104.634875 
L 446.906632 107.768007 
L 447.591294 103.383319 
L 447.933626 103.749383 
L 448.275957 102.162431 
L 448.618288 99.778365 
L 448.96062 99.62026 
L 449.302951 103.072552 
L 449.645282 101.79149 
L 449.987613 98.08007 
L 450.329945 98.037792 
L 450.672276 97.005033 
L 451.014607 96.944858 
L 451.69927 102.552453 
L 452.041601 101.259317 
L 452.383933 101.208406 
L 452.726264 99.099864 
L 453.068595 98.416891 
L 453.410926 99.33059 
L 454.095589 105.978864 
L 454.780252 103.777529 
L 455.122583 101.974594 
L 455.464914 101.342456 
L 455.807245 101.309172 
L 456.149577 102.440273 
L 456.491908 105.712957 
L 457.176571 101.172938 
L 457.518902 100.35381 
L 457.861233 100.367983 
L 458.203564 101.058629 
L 458.888227 105.444032 
L 459.57289 101.526302 
L 459.915221 101.488282 
L 460.257552 103.321259 
L 460.599883 103.917735 
L 460.942215 104.835356 
L 461.284546 106.816946 
L 462.31154 101.011348 
L 462.653871 100.243564 
L 462.996202 101.466425 
L 463.680865 109.282824 
L 464.365528 104.688736 
L 464.707859 104.788564 
L 465.05019 105.53767 
L 465.392521 106.958035 
L 466.077184 112.580436 
L 466.761847 106.221301 
L 467.104178 105.992814 
L 467.446509 104.49998 
L 467.78884 105.46291 
L 468.131172 108.14137 
L 468.473503 109.717874 
L 469.158166 104.198981 
L 469.500497 103.675878 
L 469.842828 103.482118 
L 470.18516 103.652591 
L 470.869822 107.492857 
L 471.212153 108.56185 
L 471.896816 104.97156 
L 472.239147 105.54799 
L 472.581479 107.439591 
L 473.266141 113.390823 
L 473.608472 112.180785 
L 473.950804 110.477241 
L 474.293135 111.58484 
L 474.977798 106.390598 
L 475.66246 110.115482 
L 476.004791 107.418661 
L 476.347123 106.86365 
L 477.031785 114.16688 
L 477.374117 116.400166 
L 477.716448 119.692517 
L 478.058779 119.363245 
L 478.743442 113.622022 
L 479.428104 112.147052 
L 479.770436 111.989907 
L 480.112767 114.84386 
L 480.455098 116.447781 
L 481.139761 111.694189 
L 481.482092 112.864636 
L 482.509086 123.149731 
L 482.851417 125.134218 
L 483.193748 122.784855 
L 483.53608 117.839529 
L 483.878411 115.209121 
L 484.220742 114.675291 
L 484.563074 114.712996 
L 484.905405 116.999901 
L 485.247736 116.903883 
L 485.590067 111.119008 
L 485.932399 108.651038 
L 486.27473 109.530792 
L 486.959393 104.042192 
L 487.301724 103.567767 
L 487.644055 102.382383 
L 487.986387 99.196722 
L 488.328718 98.682989 
L 488.671049 98.976474 
L 489.01338 98.259102 
L 489.355712 98.477412 
L 489.698043 100.917709 
L 490.040374 104.256596 
L 490.725037 103.866533 
L 491.067368 105.949174 
L 491.409699 109.388787 
L 491.752031 109.685222 
L 492.094362 104.797488 
L 492.436693 102.828802 
L 493.121356 95.08595 
L 493.463687 93.911666 
L 494.14835 96.77663 
L 494.490681 99.11071 
L 494.833012 103.09888 
L 495.175344 104.77815 
L 495.517675 105.276447 
L 495.860006 106.908174 
L 496.202337 107.334974 
L 496.544669 106.019423 
L 497.229331 110.487959 
L 497.913994 104.135303 
L 498.256325 104.748043 
L 498.598656 102.80921 
L 498.940988 101.824369 
L 499.62565 106.277479 
L 499.967982 104.671741 
L 500.652644 97.333724 
L 500.994975 94.25331 
L 501.337307 93.204107 
L 501.679638 94.398413 
L 502.021969 95.178901 
L 502.364301 94.178885 
L 502.706632 90.676695 
L 503.048963 89.705969 
L 503.391294 89.164791 
L 503.733626 89.044532 
L 504.418288 86.772188 
L 505.102951 79.387166 
L 505.445282 77.60948 
L 505.787613 77.731547 
L 506.472276 80.663804 
L 506.814607 81.315868 
L 507.49927 74.748052 
L 507.841601 75.706057 
L 508.526264 81.704819 
L 509.210926 92.583485 
L 509.553258 93.675792 
L 509.895589 95.165415 
L 510.23792 98.761026 
L 510.580252 104.252209 
L 510.922583 107.805587 
L 511.264914 113.573337 
L 511.607245 116.772962 
L 512.291908 110.099298 
L 512.976571 120.844506 
L 513.661233 122.49212 
L 514.003564 124.832498 
L 514.345896 126.007173 
L 514.688227 125.306927 
L 515.030558 123.772966 
L 515.37289 120.460637 
L 515.715221 119.075377 
L 516.399883 126.130248 
L 517.084546 123.315924 
L 517.426877 122.752243 
L 517.769209 123.342653 
L 518.11154 124.965986 
L 518.796202 125.532109 
L 520.85019 95.874214 
L 521.192521 93.741989 
L 521.877184 78.804219 
L 522.219515 77.553373 
L 522.561847 75.248158 
L 522.904178 68.172128 
L 523.246509 65.776496 
L 523.58884 68.170134 
L 523.931172 67.246455 
L 524.273503 65.975796 
L 524.615834 66.087278 
L 524.958166 65.618588 
L 525.300497 66.841613 
L 525.642828 71.020978 
L 525.98516 72.473588 
L 526.327491 67.804812 
L 526.669822 65.539038 
L 527.012153 66.736762 
L 527.354485 66.625502 
L 527.696816 66.783243 
L 528.039147 69.291265 
L 529.066141 63.532976 
L 529.408472 65.459402 
L 529.750804 66.452302 
L 530.093135 68.983562 
L 530.435466 73.104482 
L 530.777798 74.757213 
L 531.120129 74.901402 
L 531.46246 73.156941 
L 531.804791 77.131019 
L 532.147123 78.721788 
L 532.489454 79.645735 
L 532.831785 81.258672 
L 533.174117 85.258489 
L 533.516448 84.097108 
L 533.858779 81.422194 
L 534.20111 81.236326 
L 534.543442 78.79339 
L 534.885773 77.439442 
L 535.570436 83.186817 
L 535.912767 80.126163 
L 536.255098 80.197921 
L 536.597429 79.629856 
L 536.939761 77.500672 
L 537.282092 79.041155 
L 537.966755 88.834198 
L 538.309086 85.836957 
L 538.993748 87.03476 
L 539.33608 86.137259 
L 539.678411 88.224847 
L 540.363074 100.723658 
L 541.047736 104.088128 
L 541.390067 104.339966 
L 541.732399 106.497171 
L 542.07473 105.683187 
L 542.417061 109.619941 
L 543.101724 119.065962 
L 543.444055 120.24375 
L 543.786387 122.663717 
L 544.471049 124.924805 
L 545.155712 132.138051 
L 545.498043 129.612477 
L 545.840374 128.574812 
L 546.182706 130.143321 
L 546.525037 132.3851 
L 547.209699 145.910598 
L 547.552031 147.12871 
L 547.894362 149.550588 
L 548.579025 158.279762 
L 548.921356 158.469192 
L 549.263687 158.89835 
L 549.94835 164.233869 
L 550.290681 161.451265 
L 550.633012 157.737981 
L 551.317675 154.919461 
L 551.660006 155.839376 
L 552.344669 164.760165 
L 552.687 162.050518 
L 553.029331 157.483135 
L 553.371663 155.730681 
L 553.713994 156.814122 
L 554.056325 161.366991 
L 554.398656 167.635523 
L 554.740988 171.552699 
L 555.083319 170.975244 
L 555.42565 172.73416 
L 555.767982 175.980191 
L 556.110313 176.480963 
L 556.452644 175.892795 
L 556.794975 174.288297 
L 557.137307 171.03151 
L 557.479638 172.295707 
L 557.821969 175.235943 
L 558.506632 166.038659 
L 558.848963 165.684761 
L 559.191294 169.317331 
L 559.533626 171.600417 
L 559.875957 168.608082 
L 560.218288 162.459756 
L 560.56062 158.92493 
L 560.902951 158.360019 
L 561.245282 157.041501 
L 561.929945 164.785894 
L 562.614607 158.236724 
L 562.956939 157.557782 
L 563.29927 157.906287 
L 563.641601 157.64773 
L 563.983933 158.751354 
L 564.326264 157.169708 
L 565.010926 147.073966 
L 565.695589 141.839287 
L 566.03792 143.443023 
L 566.722583 151.569814 
L 567.064914 150.890631 
L 567.407245 148.885494 
L 568.091908 137.305024 
L 568.434239 135.638756 
L 568.776571 135.951651 
L 569.118902 134.039744 
L 569.803564 123.672312 
L 570.830558 121.474283 
L 571.515221 120.592837 
L 572.542215 105.482157 
L 572.884546 103.570075 
L 573.226877 103.783724 
L 573.569209 104.447712 
L 573.91154 104.480699 
L 574.596202 94.428997 
L 574.938534 92.254004 
L 575.623196 91.172796 
L 575.965528 92.681509 
L 576.307859 90.929838 
L 576.65019 86.706465 
L 576.992521 84.072855 
L 577.334853 84.327159 
L 578.019515 79.070292 
L 578.704178 81.317888 
L 579.046509 77.266795 
L 579.38884 75.781577 
L 579.731172 77.064728 
L 580.073503 80.259663 
L 580.415834 80.637984 
L 581.100497 85.935839 
L 581.78516 83.253763 
L 582.127491 82.326937 
L 582.469822 82.753551 
L 582.812153 83.670692 
L 583.496816 87.76834 
L 584.181479 84.317791 
L 584.52381 85.418476 
L 584.866141 86.144922 
L 585.208472 87.252601 
L 585.893135 92.480177 
L 586.577798 87.229098 
L 586.920129 86.474094 
L 587.26246 85.185799 
L 587.604791 84.920744 
L 588.289454 93.442004 
L 588.974117 89.833884 
L 589.316448 91.909741 
L 590.00111 94.055156 
L 590.343442 95.039209 
L 590.685773 97.398216 
L 591.028104 96.386328 
L 591.370436 94.945182 
L 591.712767 94.96859 
L 592.055098 96.390922 
L 592.397429 98.549106 
L 592.739761 101.743741 
L 593.082092 102.008363 
L 593.424423 100.286282 
L 593.766755 97.51065 
L 594.109086 98.136491 
L 594.793748 96.446871 
L 595.478411 99.97686 
L 596.163074 97.991403 
L 596.505405 99.221464 
L 596.847736 99.058356 
L 597.190067 98.616224 
L 597.532399 100.72656 
L 597.87473 104.358633 
L 598.217061 104.254437 
L 598.901724 99.273084 
L 599.586387 98.584024 
L 599.928718 98.838709 
L 600.271049 98.014439 
L 600.955712 93.68322 
L 601.298043 93.303802 
L 601.640374 94.414949 
L 602.325037 99.434716 
L 602.667368 100.496361 
L 603.352031 94.046026 
L 603.694362 92.250216 
L 604.036693 92.438932 
L 604.379025 95.264785 
L 605.063687 108.257303 
L 605.406018 107.848627 
L 605.74835 105.984836 
L 606.433012 104.243324 
L 606.775344 103.395319 
L 607.117675 105.423657 
L 607.460006 109.835134 
L 607.802337 109.17794 
L 608.144669 106.134341 
L 608.487 105.172606 
L 608.829331 105.908221 
L 609.171663 107.780106 
L 609.856325 117.357997 
L 610.198656 117.524614 
L 610.883319 119.342509 
L 611.567982 118.960663 
L 611.910313 120.262912 
L 612.252644 120.779779 
L 612.594975 117.955437 
L 613.279638 116.695952 
L 613.621969 116.143782 
L 613.964301 117.183733 
L 614.306632 119.566874 
L 614.648963 118.48156 
L 614.991294 112.517353 
L 615.333626 109.206269 
L 615.675957 108.135817 
L 616.018288 108.395555 
L 616.36062 108.22063 
L 617.045282 110.980679 
L 617.387613 105.488093 
L 617.729945 101.996343 
L 618.414607 103.44857 
L 618.756939 103.257111 
L 619.09927 105.441046 
L 619.441601 108.754414 
L 620.126264 99.669917 
L 621.153258 96.212074 
L 621.495589 97.461997 
L 621.83792 99.715624 
L 622.180252 97.469481 
L 622.522583 94.216265 
L 622.864914 94.241106 
L 623.207245 93.766593 
L 623.549577 96.829322 
L 623.891908 103.896607 
L 624.234239 106.267324 
L 624.918902 98.817979 
L 625.261233 97.005308 
L 625.603564 93.316544 
L 625.945896 91.842312 
L 626.630558 93.988384 
L 626.97289 91.48008 
L 627.315221 86.660282 
L 627.657552 87.381295 
L 627.999883 85.649436 
L 628.342215 81.921192 
L 629.026877 78.400888 
L 629.71154 66.808174 
L 630.396202 60.801616 
L 630.738534 59.190737 
L 631.080865 59.21973 
L 631.423196 58.675673 
L 631.765528 56.131544 
L 632.107859 52.011853 
L 632.45019 49.962398 
L 632.792521 49.383234 
L 633.134853 50.101372 
L 633.477184 52.593159 
L 633.819515 53.325925 
L 634.504178 46.855946 
L 634.846509 48.731325 
L 635.531172 60.263243 
L 636.215834 73.238992 
L 636.558166 72.225356 
L 636.900497 71.886959 
L 637.242828 73.889931 
L 637.927491 83.925157 
L 638.612153 90.057703 
L 639.296816 88.317076 
L 639.639147 89.829745 
L 639.981479 89.988304 
L 640.32381 90.656062 
L 641.008472 95.832896 
L 641.350804 96.055154 
L 641.693135 94.381378 
L 642.035466 94.415896 
L 642.377798 92.9807 
L 642.720129 92.503741 
L 643.06246 93.997994 
L 643.404791 93.931959 
L 644.089454 82.651196 
L 644.431785 79.072441 
L 644.774117 78.215857 
L 645.458779 74.767065 
L 645.80111 70.763945 
L 646.485773 56.948239 
L 647.512767 47.90983 
L 647.855098 47.399001 
L 648.197429 48.541107 
L 648.539761 45.028571 
L 648.882092 39.772572 
L 649.224423 37.257 
L 649.566755 37.892884 
L 649.909086 39.948791 
L 650.593748 50.538058 
L 650.93608 50.547765 
L 651.620742 47.875204 
L 651.963074 47.484203 
L 652.305405 48.385409 
L 652.990067 57.306849 
L 653.332399 53.543295 
L 653.67473 47.462143 
L 654.017061 46.008463 
L 654.359393 45.959553 
L 654.701724 47.036981 
L 655.386387 52.66446 
L 656.071049 46.965863 
L 656.41338 46.933472 
L 656.755712 48.2522 
L 657.098043 52.394494 
L 657.440374 60.243209 
L 657.782706 65.394427 
L 658.125037 63.275882 
L 658.467368 58.627001 
L 658.809699 59.336577 
L 659.152031 62.066947 
L 659.836693 71.76282 
L 660.179025 73.257597 
L 660.863687 64.913673 
L 661.206018 63.927385 
L 661.54835 62.261646 
L 661.890681 64.62427 
L 662.575344 74.198386 
L 662.917675 72.626671 
L 663.260006 70.257634 
L 663.602337 72.81733 
L 664.629331 87.48057 
L 664.971663 88.828558 
L 665.656325 82.308423 
L 665.998656 80.203633 
L 666.340988 79.281293 
L 666.683319 80.010046 
L 667.02565 85.383836 
L 667.367982 86.272375 
L 668.052644 72.772327 
L 668.394975 70.97227 
L 668.737307 72.769768 
L 669.421969 88.066613 
L 669.764301 93.12391 
L 670.791294 98.723844 
L 671.133626 99.315272 
L 671.475957 98.036892 
L 671.818288 100.119123 
L 672.16062 100.128036 
L 672.502951 99.150463 
L 672.845282 97.153902 
L 673.187613 96.980403 
L 673.529945 97.435817 
L 673.872276 97.647453 
L 674.214607 99.669499 
L 674.556939 100.546593 
L 674.89927 97.193199 
L 675.241601 96.559507 
L 675.583933 99.85529 
L 676.953258 118.556634 
L 677.63792 114.747389 
L 677.980252 116.499789 
L 678.322583 119.762145 
L 679.007245 128.645682 
L 679.349577 126.427031 
L 679.691908 122.554785 
L 680.034239 117.133842 
L 680.376571 114.573671 
L 680.718902 113.435207 
L 681.061233 114.574525 
L 681.403564 118.04132 
L 681.745896 119.103398 
L 682.088227 117.271628 
L 682.430558 116.766416 
L 682.77289 117.965554 
L 683.457552 124.695958 
L 684.142215 133.375168 
L 684.484546 133.975269 
L 684.826877 134.935599 
L 685.51154 139.479331 
L 685.853871 140.374533 
L 686.196202 142.779258 
L 686.538534 146.138731 
L 687.223196 144.882877 
L 687.565528 145.362106 
L 687.907859 146.245454 
L 688.592521 151.471187 
L 688.934853 151.773542 
L 689.277184 147.898333 
L 689.961847 138.22128 
L 690.304178 138.652882 
L 690.646509 137.202997 
L 690.98884 137.782559 
L 691.331172 137.001845 
L 691.673503 132.455224 
L 692.015834 133.011786 
L 692.358166 134.288098 
L 692.700497 134.042901 
L 693.38516 130.230379 
L 693.727491 130.117354 
L 694.412153 122.790994 
L 695.439147 117.540424 
L 696.12381 119.853304 
L 696.466141 116.172156 
L 697.150804 106.4017 
L 697.835466 98.397897 
L 698.177798 98.640351 
L 698.520129 99.606683 
L 699.204791 92.884258 
L 699.547123 92.051875 
L 700.231785 95.137404 
L 700.916448 97.473478 
L 701.258779 93.823916 
L 701.60111 93.160222 
L 701.943442 94.930336 
L 702.285773 93.401126 
L 702.970436 94.691412 
L 703.312767 96.142263 
L 704.339761 88.215889 
L 704.682092 88.663885 
L 705.024423 89.81989 
L 705.709086 95.06571 
L 706.393748 88.975729 
L 706.73608 86.874111 
L 707.078411 87.788527 
L 707.420742 90.496702 
L 708.105405 98.423988 
L 708.790067 95.991682 
L 709.47473 99.913618 
L 709.817061 102.31225 
L 710.159393 102.528428 
L 710.501724 106.082673 
L 710.844055 106.115732 
L 711.186387 105.657893 
L 711.528718 107.808504 
L 711.871049 107.211812 
L 712.21338 108.044168 
L 712.555712 111.923759 
L 712.898043 114.526063 
L 713.240374 115.26694 
L 713.582706 113.318083 
L 714.267368 115.62641 
L 714.952031 122.140774 
L 715.294362 124.236878 
L 715.636693 122.673761 
L 715.979025 123.803236 
L 716.321356 126.335381 
L 716.663687 126.741531 
L 717.006018 128.042757 
L 717.34835 130.204629 
L 717.690681 130.774988 
L 718.033012 129.385636 
L 718.375344 128.918057 
L 719.060006 131.850812 
L 719.402337 133.705768 
L 720.087 137.935215 
L 720.429331 138.087191 
L 720.771663 135.851667 
L 721.113994 134.784707 
L 721.456325 134.123881 
L 721.798656 134.185761 
L 722.483319 138.856894 
L 722.82565 137.239415 
L 723.510313 131.704777 
L 723.852644 131.916324 
L 724.194975 131.428886 
L 724.537307 130.601657 
L 724.879638 130.391788 
L 725.221969 128.025826 
L 725.906632 120.46809 
L 726.248963 116.793195 
L 726.591294 117.27569 
L 727.275957 126.808811 
L 727.618288 127.193732 
L 727.96062 128.281959 
L 728.302951 128.952628 
L 728.987613 126.590325 
L 729.329945 125.055989 
L 729.672276 121.778691 
L 730.014607 116.881704 
L 730.356939 115.215772 
L 730.69927 117.425066 
L 731.041601 120.785787 
L 731.726264 123.85118 
L 732.410926 122.727024 
L 732.753258 123.007528 
L 733.43792 128.266232 
L 733.780252 132.088021 
L 734.464914 143.185188 
L 734.807245 145.926007 
L 735.149577 146.445412 
L 735.491908 148.300467 
L 735.834239 150.839863 
L 736.861233 161.591896 
L 737.203564 158.805359 
L 737.888227 149.418009 
L 738.230558 148.259352 
L 738.57289 151.056318 
L 739.257552 158.596139 
L 739.599883 158.914691 
L 739.942215 158.251124 
L 740.284546 158.920124 
L 740.969209 158.258991 
L 741.31154 157.530844 
L 741.653871 156.088271 
L 741.996202 156.522057 
L 742.338534 157.953271 
L 742.680865 156.512492 
L 743.365528 151.991703 
L 743.707859 153.091944 
L 744.05019 153.498844 
L 744.734853 140.969972 
L 745.419515 135.730644 
L 745.761847 133.69735 
L 746.104178 134.417901 
L 746.446509 133.372921 
L 747.131172 122.605679 
L 747.473503 121.544757 
L 747.815834 121.073679 
L 748.158166 121.893464 
L 748.500497 122.044023 
L 748.842828 120.152048 
L 749.869822 107.167846 
L 750.212153 106.4405 
L 750.554485 106.267014 
L 750.896816 105.864685 
L 751.239147 104.643067 
L 751.581479 99.900626 
L 751.92381 97.324915 
L 752.266141 92.620473 
L 752.608472 90.214467 
L 752.950804 90.693574 
L 753.293135 91.717302 
L 753.635466 92.29605 
L 754.320129 84.316597 
L 754.66246 83.657208 
L 755.347123 81.03445 
L 755.689454 82.994527 
L 756.031785 83.868173 
L 756.374117 78.578997 
L 756.716448 75.446281 
L 757.40111 73.588018 
L 757.743442 73.500002 
L 758.428104 80.166745 
L 758.770436 78.795337 
L 759.112767 76.932432 
L 759.455098 78.119417 
L 760.139761 83.207057 
L 760.824423 97.224673 
L 761.166755 98.238405 
L 761.509086 97.623908 
L 761.851417 99.770977 
L 762.193748 100.863108 
L 763.220742 110.291193 
L 763.905405 109.780762 
L 764.590067 116.604011 
L 764.932399 119.715767 
L 765.27473 123.85047 
L 765.617061 125.669085 
L 766.301724 118.502968 
L 766.644055 119.989435 
L 766.986387 120.318836 
L 767.328718 120.226715 
L 767.671049 123.134621 
L 768.01338 125.082613 
L 768.698043 114.227685 
L 769.040374 113.430349 
L 769.725037 110.060944 
L 770.067368 107.48785 
L 770.409699 106.750568 
L 771.094362 89.38651 
L 771.779025 83.990199 
L 772.121356 81.741387 
L 772.463687 82.748 
L 772.806018 82.636392 
L 774.517675 67.305921 
L 774.860006 68.441406 
L 775.202337 68.212243 
L 775.887 64.269741 
L 776.571663 65.462408 
L 776.913994 68.148015 
L 777.598656 78.102063 
L 778.283319 71.487274 
L 778.967982 74.418719 
L 779.310313 74.815559 
L 779.652644 78.706052 
L 779.994975 81.041352 
L 780.337307 82.005373 
L 780.679638 82.286332 
L 781.364301 85.172531 
L 781.706632 87.764915 
L 782.391294 95.922013 
L 782.733626 95.913052 
L 783.075957 94.538951 
L 783.418288 94.501409 
L 783.76062 95.890395 
L 784.102951 99.294921 
L 784.787613 107.821402 
L 785.129945 104.882507 
L 785.472276 103.541767 
L 785.814607 103.100493 
L 786.156939 104.39128 
L 786.841601 112.895411 
L 787.183933 115.000065 
L 787.526264 111.308885 
L 787.868595 109.589512 
L 788.210926 113.586147 
L 788.553258 115.072023 
L 788.895589 117.668183 
L 789.23792 123.385761 
L 789.580252 126.35465 
L 790.264914 120.855657 
L 790.607245 120.764163 
L 790.949577 121.80242 
L 791.291908 125.054833 
L 791.634239 129.550999 
L 791.976571 131.122608 
L 792.661233 128.366463 
L 793.003564 130.073916 
L 794.37289 145.232489 
L 794.715221 143.300251 
L 795.057552 140.022222 
L 795.399883 139.367772 
L 795.742215 139.52414 
L 796.084546 142.877663 
L 796.426877 148.368311 
L 796.769209 151.052631 
L 797.11154 149.435539 
L 797.453871 146.177054 
L 797.796202 144.131486 
L 798.138534 145.009341 
L 798.480865 148.693082 
L 799.165528 160.793523 
L 799.507859 161.206522 
L 799.85019 161.329572 
L 801.561847 178.536975 
L 802.246509 176.867125 
L 802.931172 178.536282 
L 803.273503 178.587561 
L 803.615834 180.228006 
L 803.958166 180.934305 
L 804.642828 174.359469 
L 804.98516 174.41022 
L 805.327491 176.243929 
L 806.012153 181.773167 
L 806.354485 182.70188 
L 807.039147 171.249734 
L 807.381479 170.40356 
L 807.72381 170.907337 
L 808.066141 175.798925 
L 808.408472 178.155941 
L 808.750804 175.059511 
L 809.435466 159.346636 
L 809.777798 155.034989 
L 810.46246 150.775024 
L 810.804791 152.090464 
L 811.147123 152.363079 
L 811.831785 143.685542 
L 812.174117 143.641964 
L 812.516448 143.982743 
L 812.858779 145.905119 
L 813.543442 155.045429 
L 813.885773 153.841696 
L 814.228104 150.751608 
L 814.570436 150.82915 
L 814.912767 151.295846 
L 815.255098 149.26278 
L 815.597429 148.372684 
L 815.939761 148.016388 
L 816.282092 146.170004 
L 816.624423 142.783079 
L 816.966755 141.846097 
L 817.309086 144.496519 
L 817.651417 144.146788 
L 817.993748 146.902238 
L 818.33608 146.759392 
L 819.020742 143.914729 
L 819.363074 145.27888 
L 819.705405 148.643139 
L 820.047736 150.640028 
L 820.390067 153.524484 
L 820.732399 155.138457 
L 821.417061 148.753199 
L 821.759393 149.619647 
L 822.101724 149.250595 
L 822.444055 148.13844 
L 822.786387 148.986203 
L 823.128718 148.119538 
L 823.81338 137.073109 
L 824.155712 134.189804 
L 824.498043 133.634676 
L 824.840374 134.46992 
L 825.182706 136.443455 
L 825.525037 140.362345 
L 825.867368 141.643655 
L 826.209699 142.132767 
L 826.552031 142.360344 
L 827.579025 148.998109 
L 827.921356 153.298749 
L 828.263687 151.43943 
L 828.606018 150.195447 
L 828.94835 150.114196 
L 829.975344 153.19701 
L 830.317675 152.196735 
L 831.002337 148.405549 
L 831.344669 148.550405 
L 832.029331 150.947761 
L 832.713994 155.289797 
L 833.398656 153.159753 
L 833.740988 153.299336 
L 834.083319 152.114071 
L 834.42565 153.622571 
L 834.767982 156.669183 
L 835.110313 158.513832 
L 835.452644 157.333768 
L 835.794975 156.886949 
L 836.137307 157.309861 
L 836.479638 157.519792 
L 836.821969 159.310504 
L 837.164301 160.497913 
L 837.848963 161.267082 
L 838.191294 159.784595 
L 838.533626 161.855357 
L 839.218288 164.641732 
L 839.902951 169.22085 
L 840.245282 168.81675 
L 840.929945 169.556365 
L 841.272276 169.790782 
L 841.614607 170.729585 
L 841.956939 173.737346 
L 842.29927 175.607799 
L 842.983933 171.884337 
L 843.326264 171.107139 
L 843.668595 170.977102 
L 844.010926 171.622456 
L 844.353258 175.346664 
L 844.695589 175.394212 
L 845.03792 171.754327 
L 845.722583 168.169097 
L 846.064914 166.876486 
L 846.407245 167.022219 
L 846.749577 168.537537 
L 847.091908 169.3021 
L 847.434239 167.797032 
L 847.776571 167.420312 
L 848.118902 166.322865 
L 848.461233 165.784278 
L 848.803564 165.925491 
L 849.145896 167.859389 
L 849.488227 168.965356 
L 849.830558 166.955571 
L 850.17289 163.196434 
L 850.515221 162.123897 
L 850.857552 164.20681 
L 851.199883 168.89214 
L 851.884546 181.420504 
L 852.569209 183.454155 
L 854.280865 199.499314 
L 854.623196 200.380189 
L 854.965528 203.080807 
L 855.307859 207.829832 
L 855.65019 210.626981 
L 856.677184 222.019318 
L 857.019515 224.204703 
L 857.704178 224.687972 
L 858.046509 225.600045 
L 858.731172 232.743439 
L 859.073503 237.297024 
L 859.758166 235.603442 
L 860.442828 238.857 
L 860.78516 238.82786 
L 861.127491 237.871473 
L 861.469822 234.009742 
L 862.154485 218.020194 
L 862.496816 216.448826 
L 862.839147 216.843687 
L 863.181479 213.496984 
L 863.52381 211.389827 
L 863.866141 210.955552 
L 864.550804 203.326025 
L 865.235466 196.847474 
L 865.577798 191.541199 
L 866.604791 184.170628 
L 867.289454 181.914788 
L 867.631785 182.566584 
L 867.974117 184.10609 
L 868.316448 187.844635 
L 868.658779 189.441385 
L 869.00111 185.940144 
L 869.343442 181.223133 
L 869.685773 180.157749 
L 870.028104 181.005677 
L 870.370436 182.566681 
L 871.055098 192.644842 
L 871.397429 193.561418 
L 871.739761 193.839909 
L 872.424423 202.301616 
L 872.766755 204.156343 
L 873.109086 208.174518 
L 873.451417 213.963839 
L 873.793748 215.079569 
L 874.13608 214.48501 
L 874.478411 216.370534 
L 874.820742 217.034628 
L 875.163074 218.629426 
L 875.505405 222.343862 
L 875.847736 229.053632 
L 876.190067 229.378977 
L 876.532399 228.01655 
L 876.87473 225.763695 
L 877.217061 224.310785 
L 877.559393 223.566311 
L 877.901724 224.210222 
L 878.244055 224.383901 
L 878.928718 212.780226 
L 879.61338 210.319242 
L 879.955712 210.77393 
L 880.298043 211.453752 
L 880.640374 211.312529 
L 880.982706 207.58232 
L 881.325037 205.758866 
L 881.667368 205.467589 
L 882.009699 205.963678 
L 882.352031 204.953737 
L 883.036693 208.439836 
L 883.721356 193.062629 
L 884.063687 190.486952 
L 884.406018 189.989926 
L 884.74835 190.709224 
L 885.433012 196.885373 
L 885.775344 197.0511 
L 886.117675 198.156015 
L 887.144669 208.437331 
L 887.487 208.574778 
L 887.487 208.574778 
" clip-path="url(#p046f51c63b)" style="fill: none; stroke: #4c72b0; stroke-width: 1.2; stroke-linecap: round"/>
   </g>
   <g id="patch_3">
    <path d="M 106.287 248.937 
L 106.287 27.177 
" style="fill: none; stroke: #cccccc; stroke-linejoin: miter; stroke-linecap: square"/>
   </g>
   <g id="patch_4">
    <path d="M 887.487 248.937 
L 887.487 27.177 
" style="fill: none; stroke: #cccccc; stroke-linejoin: miter; stroke-linecap: square"/>
   </g>
   <g id="patch_5">
    <path d="M 106.287 248.937 
L 887.487 248.937 
" style="fill: none; stroke: #cccccc; stroke-linejoin: miter; stroke-linecap: square"/>
   </g>
   <g id="patch_6">
    <path d="M 106.287 27.177 
L 887.487 27.177 
" style="fill: none; stroke: #cccccc; stroke-linejoin: miter; stroke-linecap: square"/>
   </g>
   <g id="text_14">
    <!-- Residual of natural gas consumption -->
    <g style="fill: #262626" transform="translate(341.6055 21.177) scale(0.192 -0.192)">
     <defs>
      <path id="ArialMT-52" d="M 503 0 
L 503 4581 
L 2534 4581 
Q 3147 4581 3465 4457 
Q 3784 4334 3975 4021 
Q 4166 3709 4166 3331 
Q 4166 2844 3850 2509 
Q 3534 2175 2875 2084 
Q 3116 1969 3241 1856 
Q 3506 1613 3744 1247 
L 4541 0 
L 3778 0 
L 3172 953 
Q 2906 1366 2734 1584 
Q 2563 1803 2427 1890 
Q 2291 1978 2150 2013 
Q 2047 2034 1813 2034 
L 1109 2034 
L 1109 0 
L 503 0 
z
M 1109 2559 
L 2413 2559 
Q 2828 2559 3062 2645 
Q 3297 2731 3419 2920 
Q 3541 3109 3541 3331 
Q 3541 3656 3305 3865 
Q 3069 4075 2559 4075 
L 1109 4075 
L 1109 2559 
z
" transform="scale(0.015625)"/>
      <path id="ArialMT-65" d="M 2694 1069 
L 3275 997 
Q 3138 488 2766 206 
Q 2394 -75 1816 -75 
Q 1088 -75 661 373 
Q 234 822 234 1631 
Q 234 2469 665 2931 
Q 1097 3394 1784 3394 
Q 2450 3394 2872 2941 
Q 3294 2488 3294 1666 
Q 3294 1616 3291 1516 
L 816 1516 
Q 847 969 1125 678 
Q 1403 388 1819 388 
Q 2128 388 2347 550 
Q 2566 713 2694 1069 
z
M 847 1978 
L 2700 1978 
Q 2663 2397 2488 2606 
Q 2219 2931 1791 2931 
Q 1403 2931 1139 2672 
Q 875 2413 847 1978 
z
" transform="scale(0.015625)"/>
      <path id="ArialMT-64" d="M 2575 0 
L 2575 419 
Q 2259 -75 1647 -75 
Q 1250 -75 917 144 
Q 584 363 401 755 
Q 219 1147 219 1656 
Q 219 2153 384 2558 
Q 550 2963 881 3178 
Q 1213 3394 1622 3394 
Q 1922 3394 2156 3267 
Q 2391 3141 2538 2938 
L 2538 4581 
L 3097 4581 
L 3097 0 
L 2575 0 
z
M 797 1656 
Q 797 1019 1065 703 
Q 1334 388 1700 388 
Q 2069 388 2326 689 
Q 2584 991 2584 1609 
Q 2584 2291 2321 2609 
Q 2059 2928 1675 2928 
Q 1300 2928 1048 2622 
Q 797 2316 797 1656 
z
" transform="scale(0.015625)"/>
      <path id="ArialMT-66" d="M 556 0 
L 556 2881 
L 59 2881 
L 59 3319 
L 556 3319 
L 556 3672 
Q 556 4006 616 4169 
Q 697 4388 901 4523 
Q 1106 4659 1475 4659 
Q 1713 4659 2000 4603 
L 1916 4113 
Q 1741 4144 1584 4144 
Q 1328 4144 1222 4034 
Q 1116 3925 1116 3625 
L 1116 3319 
L 1763 3319 
L 1763 2881 
L 1116 2881 
L 1116 0 
L 556 0 
z
" transform="scale(0.015625)"/>
     </defs>
     <use xlink:href="#ArialMT-52"/>
     <use xlink:href="#ArialMT-65" x="72.216797"/>
     <use xlink:href="#ArialMT-73" x="127.832031"/>
     <use xlink:href="#ArialMT-69" x="177.832031"/>
     <use xlink:href="#ArialMT-64" x="200.048828"/>
     <use xlink:href="#ArialMT-75" x="255.664062"/>
     <use xlink:href="#ArialMT-61" x="311.279297"/>
     <use xlink:href="#ArialMT-6c" x="366.894531"/>
     <use xlink:href="#ArialMT-20" x="389.111328"/>
     <use xlink:href="#ArialMT-6f" x="416.894531"/>
     <use xlink:href="#ArialMT-66" x="472.509766"/>
     <use xlink:href="#ArialMT-20" x="500.292969"/>
     <use xlink:href="#ArialMT-6e" x="528.076172"/>
     <use xlink:href="#ArialMT-61" x="583.691406"/>
     <use xlink:href="#ArialMT-74" x="639.306641"/>
     <use xlink:href="#ArialMT-75" x="667.089844"/>
     <use xlink:href="#ArialMT-72" x="722.705078"/>
     <use xlink:href="#ArialMT-61" x="756.005859"/>
     <use xlink:href="#ArialMT-6c" x="811.621094"/>
     <use xlink:href="#ArialMT-20" x="833.837891"/>
     <use xlink:href="#ArialMT-67" x="861.621094"/>
     <use xlink:href="#ArialMT-61" x="917.236328"/>
     <use xlink:href="#ArialMT-73" x="972.851562"/>
     <use xlink:href="#ArialMT-20" x="1022.851562"/>
     <use xlink:href="#ArialMT-63" x="1050.634766"/>
     <use xlink:href="#ArialMT-6f" x="1100.634766"/>
     <use xlink:href="#ArialMT-6e" x="1156.25"/>
     <use xlink:href="#ArialMT-73" x="1211.865234"/>
     <use xlink:href="#ArialMT-75" x="1261.865234"/>
     <use xlink:href="#ArialMT-6d" x="1317.480469"/>
     <use xlink:href="#ArialMT-70" x="1400.78125"/>
     <use xlink:href="#ArialMT-74" x="1456.396484"/>
     <use xlink:href="#ArialMT-69" x="1484.179688"/>
     <use xlink:href="#ArialMT-6f" x="1506.396484"/>
     <use xlink:href="#ArialMT-6e" x="1562.011719"/>
    </g>
   </g>
  </g>
 </g>
 <defs>
  <clipPath id="p046f51c63b">
   <rect x="106.287" y="27.177" width="781.2" height="221.76"/>
  </clipPath>
 </defs>
</svg>
