<?xml version="1.0" encoding="utf-8" standalone="no"?>
<!DOCTYPE svg PUBLIC "-//W3C//DTD SVG 1.1//EN"
  "http://www.w3.org/Graphics/SVG/1.1/DTD/svg11.dtd">
<svg xmlns:xlink="http://www.w3.org/1999/xlink" width="863.724945pt" height="302.55075pt" viewBox="0 0 863.724945 302.55075" xmlns="http://www.w3.org/2000/svg" version="1.1">
 <metadata>
  <rdf:RDF xmlns:dc="http://purl.org/dc/elements/1.1/" xmlns:cc="http://creativecommons.org/ns#" xmlns:rdf="http://www.w3.org/1999/02/22-rdf-syntax-ns#">
   <cc:Work>
    <dc:type rdf:resource="http://purl.org/dc/dcmitype/StillImage"/>
    <dc:date>2023-05-11T10:57:37.586911</dc:date>
    <dc:format>image/svg+xml</dc:format>
    <dc:creator>
     <cc:Agent>
      <dc:title>Matplotlib v3.7.1, https://matplotlib.org/</dc:title>
     </cc:Agent>
    </dc:creator>
   </cc:Work>
  </rdf:RDF>
 </metadata>
 <defs>
  <style type="text/css">*{stroke-linejoin: round; stroke-linecap: butt}</style>
 </defs>
 <g id="figure_1">
  <g id="patch_1">
   <path d="M 0 302.55075 
L 863.724945 302.55075 
L 863.724945 0 
L 0 0 
z
" style="fill: #ffffff"/>
  </g>
  <g id="axes_1">
   <g id="patch_2">
    <path d="M 71.8025 248.937 
L 853.0025 248.937 
L 853.0025 27.177 
L 71.8025 27.177 
z
" style="fill: #ffffff"/>
   </g>
   <g id="matplotlib.axis_1">
    <g id="xtick_1">
     <g id="line2d_1">
      <path d="M 107.311591 248.937 
L 107.311591 27.177 
" clip-path="url(#p2e29241d94)" style="fill: none; stroke: #cccccc; stroke-width: 0.8; stroke-linecap: round"/>
     </g>
     <g id="text_1">
      <!-- 0 -->
      <g style="fill: #262626" transform="translate(102.417966 269.83475) scale(0.176 -0.176)">
       <defs>
        <path id="ArialMT-30" d="M 266 2259 
Q 266 3072 433 3567 
Q 600 4063 929 4331 
Q 1259 4600 1759 4600 
Q 2128 4600 2406 4451 
Q 2684 4303 2865 4023 
Q 3047 3744 3150 3342 
Q 3253 2941 3253 2259 
Q 3253 1453 3087 958 
Q 2922 463 2592 192 
Q 2263 -78 1759 -78 
Q 1097 -78 719 397 
Q 266 969 266 2259 
z
M 844 2259 
Q 844 1131 1108 757 
Q 1372 384 1759 384 
Q 2147 384 2411 759 
Q 2675 1134 2675 2259 
Q 2675 3391 2411 3762 
Q 2147 4134 1753 4134 
Q 1366 4134 1134 3806 
Q 844 3388 844 2259 
z
" transform="scale(0.015625)"/>
       </defs>
       <use xlink:href="#ArialMT-30"/>
      </g>
     </g>
    </g>
    <g id="xtick_2">
     <g id="line2d_2">
      <path d="M 228.918067 248.937 
L 228.918067 27.177 
" clip-path="url(#p2e29241d94)" style="fill: none; stroke: #cccccc; stroke-width: 0.8; stroke-linecap: round"/>
     </g>
     <g id="text_2">
      <!-- 500 -->
      <g style="fill: #262626" transform="translate(214.237192 269.83475) scale(0.176 -0.176)">
       <defs>
        <path id="ArialMT-35" d="M 266 1200 
L 856 1250 
Q 922 819 1161 601 
Q 1400 384 1738 384 
Q 2144 384 2425 690 
Q 2706 997 2706 1503 
Q 2706 1984 2436 2262 
Q 2166 2541 1728 2541 
Q 1456 2541 1237 2417 
Q 1019 2294 894 2097 
L 366 2166 
L 809 4519 
L 3088 4519 
L 3088 3981 
L 1259 3981 
L 1013 2750 
Q 1425 3038 1878 3038 
Q 2478 3038 2890 2622 
Q 3303 2206 3303 1553 
Q 3303 931 2941 478 
Q 2500 -78 1738 -78 
Q 1113 -78 717 272 
Q 322 622 266 1200 
z
" transform="scale(0.015625)"/>
       </defs>
       <use xlink:href="#ArialMT-35"/>
       <use xlink:href="#ArialMT-30" x="55.615234"/>
       <use xlink:href="#ArialMT-30" x="111.230469"/>
      </g>
     </g>
    </g>
    <g id="xtick_3">
     <g id="line2d_3">
      <path d="M 350.524542 248.937 
L 350.524542 27.177 
" clip-path="url(#p2e29241d94)" style="fill: none; stroke: #cccccc; stroke-width: 0.8; stroke-linecap: round"/>
     </g>
     <g id="text_3">
      <!-- 1000 -->
      <g style="fill: #262626" transform="translate(330.950042 269.83475) scale(0.176 -0.176)">
       <defs>
        <path id="ArialMT-31" d="M 2384 0 
L 1822 0 
L 1822 3584 
Q 1619 3391 1289 3197 
Q 959 3003 697 2906 
L 697 3450 
Q 1169 3672 1522 3987 
Q 1875 4303 2022 4600 
L 2384 4600 
L 2384 0 
z
" transform="scale(0.015625)"/>
       </defs>
       <use xlink:href="#ArialMT-31"/>
       <use xlink:href="#ArialMT-30" x="55.615234"/>
       <use xlink:href="#ArialMT-30" x="111.230469"/>
       <use xlink:href="#ArialMT-30" x="166.845703"/>
      </g>
     </g>
    </g>
    <g id="xtick_4">
     <g id="line2d_4">
      <path d="M 472.131018 248.937 
L 472.131018 27.177 
" clip-path="url(#p2e29241d94)" style="fill: none; stroke: #cccccc; stroke-width: 0.8; stroke-linecap: round"/>
     </g>
     <g id="text_4">
      <!-- 1500 -->
      <g style="fill: #262626" transform="translate(452.556518 269.83475) scale(0.176 -0.176)">
       <use xlink:href="#ArialMT-31"/>
       <use xlink:href="#ArialMT-35" x="55.615234"/>
       <use xlink:href="#ArialMT-30" x="111.230469"/>
       <use xlink:href="#ArialMT-30" x="166.845703"/>
      </g>
     </g>
    </g>
    <g id="xtick_5">
     <g id="line2d_5">
      <path d="M 593.737494 248.937 
L 593.737494 27.177 
" clip-path="url(#p2e29241d94)" style="fill: none; stroke: #cccccc; stroke-width: 0.8; stroke-linecap: round"/>
     </g>
     <g id="text_5">
      <!-- 2000 -->
      <g style="fill: #262626" transform="translate(574.162994 269.83475) scale(0.176 -0.176)">
       <defs>
        <path id="ArialMT-32" d="M 3222 541 
L 3222 0 
L 194 0 
Q 188 203 259 391 
Q 375 700 629 1000 
Q 884 1300 1366 1694 
Q 2113 2306 2375 2664 
Q 2638 3022 2638 3341 
Q 2638 3675 2398 3904 
Q 2159 4134 1775 4134 
Q 1369 4134 1125 3890 
Q 881 3647 878 3216 
L 300 3275 
Q 359 3922 746 4261 
Q 1134 4600 1788 4600 
Q 2447 4600 2831 4234 
Q 3216 3869 3216 3328 
Q 3216 3053 3103 2787 
Q 2991 2522 2730 2228 
Q 2469 1934 1863 1422 
Q 1356 997 1212 845 
Q 1069 694 975 541 
L 3222 541 
z
" transform="scale(0.015625)"/>
       </defs>
       <use xlink:href="#ArialMT-32"/>
       <use xlink:href="#ArialMT-30" x="55.615234"/>
       <use xlink:href="#ArialMT-30" x="111.230469"/>
       <use xlink:href="#ArialMT-30" x="166.845703"/>
      </g>
     </g>
    </g>
    <g id="xtick_6">
     <g id="line2d_6">
      <path d="M 715.343969 248.937 
L 715.343969 27.177 
" clip-path="url(#p2e29241d94)" style="fill: none; stroke: #cccccc; stroke-width: 0.8; stroke-linecap: round"/>
     </g>
     <g id="text_6">
      <!-- 2500 -->
      <g style="fill: #262626" transform="translate(695.769469 269.83475) scale(0.176 -0.176)">
       <use xlink:href="#ArialMT-32"/>
       <use xlink:href="#ArialMT-35" x="55.615234"/>
       <use xlink:href="#ArialMT-30" x="111.230469"/>
       <use xlink:href="#ArialMT-30" x="166.845703"/>
      </g>
     </g>
    </g>
    <g id="xtick_7">
     <g id="line2d_7">
      <path d="M 836.950445 248.937 
L 836.950445 27.177 
" clip-path="url(#p2e29241d94)" style="fill: none; stroke: #cccccc; stroke-width: 0.8; stroke-linecap: round"/>
     </g>
     <g id="text_7">
      <!-- 3000 -->
      <g style="fill: #262626" transform="translate(817.375945 269.83475) scale(0.176 -0.176)">
       <defs>
        <path id="ArialMT-33" d="M 269 1209 
L 831 1284 
Q 928 806 1161 595 
Q 1394 384 1728 384 
Q 2125 384 2398 659 
Q 2672 934 2672 1341 
Q 2672 1728 2419 1979 
Q 2166 2231 1775 2231 
Q 1616 2231 1378 2169 
L 1441 2663 
Q 1497 2656 1531 2656 
Q 1891 2656 2178 2843 
Q 2466 3031 2466 3422 
Q 2466 3731 2256 3934 
Q 2047 4138 1716 4138 
Q 1388 4138 1169 3931 
Q 950 3725 888 3313 
L 325 3413 
Q 428 3978 793 4289 
Q 1159 4600 1703 4600 
Q 2078 4600 2393 4439 
Q 2709 4278 2876 4000 
Q 3044 3722 3044 3409 
Q 3044 3113 2884 2869 
Q 2725 2625 2413 2481 
Q 2819 2388 3044 2092 
Q 3269 1797 3269 1353 
Q 3269 753 2831 336 
Q 2394 -81 1725 -81 
Q 1122 -81 723 278 
Q 325 638 269 1209 
z
" transform="scale(0.015625)"/>
       </defs>
       <use xlink:href="#ArialMT-33"/>
       <use xlink:href="#ArialMT-30" x="55.615234"/>
       <use xlink:href="#ArialMT-30" x="111.230469"/>
       <use xlink:href="#ArialMT-30" x="166.845703"/>
      </g>
     </g>
    </g>
    <g id="text_8">
     <!-- Lag (days) -->
     <g style="fill: #262626" transform="translate(417.05 291.30975) scale(0.192 -0.192)">
      <defs>
       <path id="ArialMT-4c" d="M 469 0 
L 469 4581 
L 1075 4581 
L 1075 541 
L 3331 541 
L 3331 0 
L 469 0 
z
" transform="scale(0.015625)"/>
       <path id="ArialMT-61" d="M 2588 409 
Q 2275 144 1986 34 
Q 1697 -75 1366 -75 
Q 819 -75 525 192 
Q 231 459 231 875 
Q 231 1119 342 1320 
Q 453 1522 633 1644 
Q 813 1766 1038 1828 
Q 1203 1872 1538 1913 
Q 2219 1994 2541 2106 
Q 2544 2222 2544 2253 
Q 2544 2597 2384 2738 
Q 2169 2928 1744 2928 
Q 1347 2928 1158 2789 
Q 969 2650 878 2297 
L 328 2372 
Q 403 2725 575 2942 
Q 747 3159 1072 3276 
Q 1397 3394 1825 3394 
Q 2250 3394 2515 3294 
Q 2781 3194 2906 3042 
Q 3031 2891 3081 2659 
Q 3109 2516 3109 2141 
L 3109 1391 
Q 3109 606 3145 398 
Q 3181 191 3288 0 
L 2700 0 
Q 2613 175 2588 409 
z
M 2541 1666 
Q 2234 1541 1622 1453 
Q 1275 1403 1131 1340 
Q 988 1278 909 1158 
Q 831 1038 831 891 
Q 831 666 1001 516 
Q 1172 366 1500 366 
Q 1825 366 2078 508 
Q 2331 650 2450 897 
Q 2541 1088 2541 1459 
L 2541 1666 
z
" transform="scale(0.015625)"/>
       <path id="ArialMT-67" d="M 319 -275 
L 866 -356 
Q 900 -609 1056 -725 
Q 1266 -881 1628 -881 
Q 2019 -881 2231 -725 
Q 2444 -569 2519 -288 
Q 2563 -116 2559 434 
Q 2191 0 1641 0 
Q 956 0 581 494 
Q 206 988 206 1678 
Q 206 2153 378 2554 
Q 550 2956 876 3175 
Q 1203 3394 1644 3394 
Q 2231 3394 2613 2919 
L 2613 3319 
L 3131 3319 
L 3131 450 
Q 3131 -325 2973 -648 
Q 2816 -972 2473 -1159 
Q 2131 -1347 1631 -1347 
Q 1038 -1347 672 -1080 
Q 306 -813 319 -275 
z
M 784 1719 
Q 784 1066 1043 766 
Q 1303 466 1694 466 
Q 2081 466 2343 764 
Q 2606 1063 2606 1700 
Q 2606 2309 2336 2618 
Q 2066 2928 1684 2928 
Q 1309 2928 1046 2623 
Q 784 2319 784 1719 
z
" transform="scale(0.015625)"/>
       <path id="ArialMT-20" transform="scale(0.015625)"/>
       <path id="ArialMT-28" d="M 1497 -1347 
Q 1031 -759 709 28 
Q 388 816 388 1659 
Q 388 2403 628 3084 
Q 909 3875 1497 4659 
L 1900 4659 
Q 1522 4009 1400 3731 
Q 1209 3300 1100 2831 
Q 966 2247 966 1656 
Q 966 153 1900 -1347 
L 1497 -1347 
z
" transform="scale(0.015625)"/>
       <path id="ArialMT-64" d="M 2575 0 
L 2575 419 
Q 2259 -75 1647 -75 
Q 1250 -75 917 144 
Q 584 363 401 755 
Q 219 1147 219 1656 
Q 219 2153 384 2558 
Q 550 2963 881 3178 
Q 1213 3394 1622 3394 
Q 1922 3394 2156 3267 
Q 2391 3141 2538 2938 
L 2538 4581 
L 3097 4581 
L 3097 0 
L 2575 0 
z
M 797 1656 
Q 797 1019 1065 703 
Q 1334 388 1700 388 
Q 2069 388 2326 689 
Q 2584 991 2584 1609 
Q 2584 2291 2321 2609 
Q 2059 2928 1675 2928 
Q 1300 2928 1048 2622 
Q 797 2316 797 1656 
z
" transform="scale(0.015625)"/>
       <path id="ArialMT-79" d="M 397 -1278 
L 334 -750 
Q 519 -800 656 -800 
Q 844 -800 956 -737 
Q 1069 -675 1141 -563 
Q 1194 -478 1313 -144 
Q 1328 -97 1363 -6 
L 103 3319 
L 709 3319 
L 1400 1397 
Q 1534 1031 1641 628 
Q 1738 1016 1872 1384 
L 2581 3319 
L 3144 3319 
L 1881 -56 
Q 1678 -603 1566 -809 
Q 1416 -1088 1222 -1217 
Q 1028 -1347 759 -1347 
Q 597 -1347 397 -1278 
z
" transform="scale(0.015625)"/>
       <path id="ArialMT-73" d="M 197 991 
L 753 1078 
Q 800 744 1014 566 
Q 1228 388 1613 388 
Q 2000 388 2187 545 
Q 2375 703 2375 916 
Q 2375 1106 2209 1216 
Q 2094 1291 1634 1406 
Q 1016 1563 777 1677 
Q 538 1791 414 1992 
Q 291 2194 291 2438 
Q 291 2659 392 2848 
Q 494 3038 669 3163 
Q 800 3259 1026 3326 
Q 1253 3394 1513 3394 
Q 1903 3394 2198 3281 
Q 2494 3169 2634 2976 
Q 2775 2784 2828 2463 
L 2278 2388 
Q 2241 2644 2061 2787 
Q 1881 2931 1553 2931 
Q 1166 2931 1000 2803 
Q 834 2675 834 2503 
Q 834 2394 903 2306 
Q 972 2216 1119 2156 
Q 1203 2125 1616 2013 
Q 2213 1853 2448 1751 
Q 2684 1650 2818 1456 
Q 2953 1263 2953 975 
Q 2953 694 2789 445 
Q 2625 197 2315 61 
Q 2006 -75 1616 -75 
Q 969 -75 630 194 
Q 291 463 197 991 
z
" transform="scale(0.015625)"/>
       <path id="ArialMT-29" d="M 791 -1347 
L 388 -1347 
Q 1322 153 1322 1656 
Q 1322 2244 1188 2822 
Q 1081 3291 891 3722 
Q 769 4003 388 4659 
L 791 4659 
Q 1378 3875 1659 3084 
Q 1900 2403 1900 1659 
Q 1900 816 1576 28 
Q 1253 -759 791 -1347 
z
" transform="scale(0.015625)"/>
      </defs>
      <use xlink:href="#ArialMT-4c"/>
      <use xlink:href="#ArialMT-61" x="55.615234"/>
      <use xlink:href="#ArialMT-67" x="111.230469"/>
      <use xlink:href="#ArialMT-20" x="166.845703"/>
      <use xlink:href="#ArialMT-28" x="194.628906"/>
      <use xlink:href="#ArialMT-64" x="227.929688"/>
      <use xlink:href="#ArialMT-61" x="283.544922"/>
      <use xlink:href="#ArialMT-79" x="339.160156"/>
      <use xlink:href="#ArialMT-73" x="389.160156"/>
      <use xlink:href="#ArialMT-29" x="439.160156"/>
     </g>
    </g>
   </g>
   <g id="matplotlib.axis_2">
    <g id="ytick_1">
     <g id="line2d_8">
      <path d="M 71.8025 244.521667 
L 853.0025 244.521667 
" clip-path="url(#p2e29241d94)" style="fill: none; stroke: #cccccc; stroke-width: 0.8; stroke-linecap: round"/>
     </g>
     <g id="text_9">
      <!-- −1.0 -->
      <g style="fill: #262626" transform="translate(28.759 250.820542) scale(0.176 -0.176)">
       <defs>
        <path id="ArialMT-2212" d="M 3381 1997 
L 356 1997 
L 356 2522 
L 3381 2522 
L 3381 1997 
z
" transform="scale(0.015625)"/>
        <path id="ArialMT-2e" d="M 581 0 
L 581 641 
L 1222 641 
L 1222 0 
L 581 0 
z
" transform="scale(0.015625)"/>
       </defs>
       <use xlink:href="#ArialMT-2212"/>
       <use xlink:href="#ArialMT-31" x="58.398438"/>
       <use xlink:href="#ArialMT-2e" x="114.013672"/>
       <use xlink:href="#ArialMT-30" x="141.796875"/>
      </g>
     </g>
    </g>
    <g id="ytick_2">
     <g id="line2d_9">
      <path d="M 71.8025 192.7055 
L 853.0025 192.7055 
" clip-path="url(#p2e29241d94)" style="fill: none; stroke: #cccccc; stroke-width: 0.8; stroke-linecap: round"/>
     </g>
     <g id="text_10">
      <!-- −0.5 -->
      <g style="fill: #262626" transform="translate(28.759 199.004375) scale(0.176 -0.176)">
       <use xlink:href="#ArialMT-2212"/>
       <use xlink:href="#ArialMT-30" x="58.398438"/>
       <use xlink:href="#ArialMT-2e" x="114.013672"/>
       <use xlink:href="#ArialMT-35" x="141.796875"/>
      </g>
     </g>
    </g>
    <g id="ytick_3">
     <g id="line2d_10">
      <path d="M 71.8025 140.889333 
L 853.0025 140.889333 
" clip-path="url(#p2e29241d94)" style="fill: none; stroke: #cccccc; stroke-width: 0.8; stroke-linecap: round"/>
     </g>
     <g id="text_11">
      <!-- 0.0 -->
      <g style="fill: #262626" transform="translate(39.0385 147.188208) scale(0.176 -0.176)">
       <use xlink:href="#ArialMT-30"/>
       <use xlink:href="#ArialMT-2e" x="55.615234"/>
       <use xlink:href="#ArialMT-30" x="83.398438"/>
      </g>
     </g>
    </g>
    <g id="ytick_4">
     <g id="line2d_11">
      <path d="M 71.8025 89.073167 
L 853.0025 89.073167 
" clip-path="url(#p2e29241d94)" style="fill: none; stroke: #cccccc; stroke-width: 0.8; stroke-linecap: round"/>
     </g>
     <g id="text_12">
      <!-- 0.5 -->
      <g style="fill: #262626" transform="translate(39.0385 95.372042) scale(0.176 -0.176)">
       <use xlink:href="#ArialMT-30"/>
       <use xlink:href="#ArialMT-2e" x="55.615234"/>
       <use xlink:href="#ArialMT-35" x="83.398438"/>
      </g>
     </g>
    </g>
    <g id="ytick_5">
     <g id="line2d_12">
      <path d="M 71.8025 37.257 
L 853.0025 37.257 
" clip-path="url(#p2e29241d94)" style="fill: none; stroke: #cccccc; stroke-width: 0.8; stroke-linecap: round"/>
     </g>
     <g id="text_13">
      <!-- 1.0 -->
      <g style="fill: #262626" transform="translate(39.0385 43.555875) scale(0.176 -0.176)">
       <use xlink:href="#ArialMT-31"/>
       <use xlink:href="#ArialMT-2e" x="55.615234"/>
       <use xlink:href="#ArialMT-30" x="83.398438"/>
      </g>
     </g>
    </g>
    <g id="text_14">
     <!-- Correlation coefficient -->
     <g style="fill: #262626" transform="translate(20.943 230.7285) rotate(-90) scale(0.192 -0.192)">
      <defs>
       <path id="ArialMT-43" d="M 3763 1606 
L 4369 1453 
Q 4178 706 3683 314 
Q 3188 -78 2472 -78 
Q 1731 -78 1267 223 
Q 803 525 561 1097 
Q 319 1669 319 2325 
Q 319 3041 592 3573 
Q 866 4106 1370 4382 
Q 1875 4659 2481 4659 
Q 3169 4659 3637 4309 
Q 4106 3959 4291 3325 
L 3694 3184 
Q 3534 3684 3231 3912 
Q 2928 4141 2469 4141 
Q 1941 4141 1586 3887 
Q 1231 3634 1087 3207 
Q 944 2781 944 2328 
Q 944 1744 1114 1308 
Q 1284 872 1643 656 
Q 2003 441 2422 441 
Q 2931 441 3284 734 
Q 3638 1028 3763 1606 
z
" transform="scale(0.015625)"/>
       <path id="ArialMT-6f" d="M 213 1659 
Q 213 2581 725 3025 
Q 1153 3394 1769 3394 
Q 2453 3394 2887 2945 
Q 3322 2497 3322 1706 
Q 3322 1066 3130 698 
Q 2938 331 2570 128 
Q 2203 -75 1769 -75 
Q 1072 -75 642 372 
Q 213 819 213 1659 
z
M 791 1659 
Q 791 1022 1069 705 
Q 1347 388 1769 388 
Q 2188 388 2466 706 
Q 2744 1025 2744 1678 
Q 2744 2294 2464 2611 
Q 2184 2928 1769 2928 
Q 1347 2928 1069 2612 
Q 791 2297 791 1659 
z
" transform="scale(0.015625)"/>
       <path id="ArialMT-72" d="M 416 0 
L 416 3319 
L 922 3319 
L 922 2816 
Q 1116 3169 1280 3281 
Q 1444 3394 1641 3394 
Q 1925 3394 2219 3213 
L 2025 2691 
Q 1819 2813 1613 2813 
Q 1428 2813 1281 2702 
Q 1134 2591 1072 2394 
Q 978 2094 978 1738 
L 978 0 
L 416 0 
z
" transform="scale(0.015625)"/>
       <path id="ArialMT-65" d="M 2694 1069 
L 3275 997 
Q 3138 488 2766 206 
Q 2394 -75 1816 -75 
Q 1088 -75 661 373 
Q 234 822 234 1631 
Q 234 2469 665 2931 
Q 1097 3394 1784 3394 
Q 2450 3394 2872 2941 
Q 3294 2488 3294 1666 
Q 3294 1616 3291 1516 
L 816 1516 
Q 847 969 1125 678 
Q 1403 388 1819 388 
Q 2128 388 2347 550 
Q 2566 713 2694 1069 
z
M 847 1978 
L 2700 1978 
Q 2663 2397 2488 2606 
Q 2219 2931 1791 2931 
Q 1403 2931 1139 2672 
Q 875 2413 847 1978 
z
" transform="scale(0.015625)"/>
       <path id="ArialMT-6c" d="M 409 0 
L 409 4581 
L 972 4581 
L 972 0 
L 409 0 
z
" transform="scale(0.015625)"/>
       <path id="ArialMT-74" d="M 1650 503 
L 1731 6 
Q 1494 -44 1306 -44 
Q 1000 -44 831 53 
Q 663 150 594 308 
Q 525 466 525 972 
L 525 2881 
L 113 2881 
L 113 3319 
L 525 3319 
L 525 4141 
L 1084 4478 
L 1084 3319 
L 1650 3319 
L 1650 2881 
L 1084 2881 
L 1084 941 
Q 1084 700 1114 631 
Q 1144 563 1211 522 
Q 1278 481 1403 481 
Q 1497 481 1650 503 
z
" transform="scale(0.015625)"/>
       <path id="ArialMT-69" d="M 425 3934 
L 425 4581 
L 988 4581 
L 988 3934 
L 425 3934 
z
M 425 0 
L 425 3319 
L 988 3319 
L 988 0 
L 425 0 
z
" transform="scale(0.015625)"/>
       <path id="ArialMT-6e" d="M 422 0 
L 422 3319 
L 928 3319 
L 928 2847 
Q 1294 3394 1984 3394 
Q 2284 3394 2536 3286 
Q 2788 3178 2913 3003 
Q 3038 2828 3088 2588 
Q 3119 2431 3119 2041 
L 3119 0 
L 2556 0 
L 2556 2019 
Q 2556 2363 2490 2533 
Q 2425 2703 2258 2804 
Q 2091 2906 1866 2906 
Q 1506 2906 1245 2678 
Q 984 2450 984 1813 
L 984 0 
L 422 0 
z
" transform="scale(0.015625)"/>
       <path id="ArialMT-63" d="M 2588 1216 
L 3141 1144 
Q 3050 572 2676 248 
Q 2303 -75 1759 -75 
Q 1078 -75 664 370 
Q 250 816 250 1647 
Q 250 2184 428 2587 
Q 606 2991 970 3192 
Q 1334 3394 1763 3394 
Q 2303 3394 2647 3120 
Q 2991 2847 3088 2344 
L 2541 2259 
Q 2463 2594 2264 2762 
Q 2066 2931 1784 2931 
Q 1359 2931 1093 2626 
Q 828 2322 828 1663 
Q 828 994 1084 691 
Q 1341 388 1753 388 
Q 2084 388 2306 591 
Q 2528 794 2588 1216 
z
" transform="scale(0.015625)"/>
       <path id="ArialMT-66" d="M 556 0 
L 556 2881 
L 59 2881 
L 59 3319 
L 556 3319 
L 556 3672 
Q 556 4006 616 4169 
Q 697 4388 901 4523 
Q 1106 4659 1475 4659 
Q 1713 4659 2000 4603 
L 1916 4113 
Q 1741 4144 1584 4144 
Q 1328 4144 1222 4034 
Q 1116 3925 1116 3625 
L 1116 3319 
L 1763 3319 
L 1763 2881 
L 1116 2881 
L 1116 0 
L 556 0 
z
" transform="scale(0.015625)"/>
      </defs>
      <use xlink:href="#ArialMT-43"/>
      <use xlink:href="#ArialMT-6f" x="72.216797"/>
      <use xlink:href="#ArialMT-72" x="127.832031"/>
      <use xlink:href="#ArialMT-72" x="161.132812"/>
      <use xlink:href="#ArialMT-65" x="194.433594"/>
      <use xlink:href="#ArialMT-6c" x="250.048828"/>
      <use xlink:href="#ArialMT-61" x="272.265625"/>
      <use xlink:href="#ArialMT-74" x="327.880859"/>
      <use xlink:href="#ArialMT-69" x="355.664062"/>
      <use xlink:href="#ArialMT-6f" x="377.880859"/>
      <use xlink:href="#ArialMT-6e" x="433.496094"/>
      <use xlink:href="#ArialMT-20" x="489.111328"/>
      <use xlink:href="#ArialMT-63" x="516.894531"/>
      <use xlink:href="#ArialMT-6f" x="566.894531"/>
      <use xlink:href="#ArialMT-65" x="622.509766"/>
      <use xlink:href="#ArialMT-66" x="678.125"/>
      <use xlink:href="#ArialMT-66" x="704.158203"/>
      <use xlink:href="#ArialMT-69" x="731.941406"/>
      <use xlink:href="#ArialMT-63" x="754.158203"/>
      <use xlink:href="#ArialMT-69" x="804.158203"/>
      <use xlink:href="#ArialMT-65" x="826.375"/>
      <use xlink:href="#ArialMT-6e" x="881.990234"/>
      <use xlink:href="#ArialMT-74" x="937.605469"/>
     </g>
    </g>
   </g>
   <g id="line2d_13">
    <path d="M 107.311591 248.937 
L 107.311591 27.177 
" clip-path="url(#p2e29241d94)" style="fill: none; stroke: #ff0000; stroke-width: 0.8; stroke-linecap: round"/>
   </g>
   <g id="line2d_14">
    <path d="M 196.084318 248.937 
L 196.084318 27.177 
" clip-path="url(#p2e29241d94)" style="fill: none; stroke: #ff0000; stroke-width: 0.8; stroke-linecap: round"/>
   </g>
   <g id="line2d_15">
    <path d="M 284.857045 248.937 
L 284.857045 27.177 
" clip-path="url(#p2e29241d94)" style="fill: none; stroke: #ff0000; stroke-width: 0.8; stroke-linecap: round"/>
   </g>
   <g id="line2d_16">
    <path d="M 373.629773 248.937 
L 373.629773 27.177 
" clip-path="url(#p2e29241d94)" style="fill: none; stroke: #ff0000; stroke-width: 0.8; stroke-linecap: round"/>
   </g>
   <g id="line2d_17">
    <path d="M 462.4025 248.937 
L 462.4025 27.177 
" clip-path="url(#p2e29241d94)" style="fill: none; stroke: #ff0000; stroke-width: 0.8; stroke-linecap: round"/>
   </g>
   <g id="line2d_18">
    <path d="M 551.175227 248.937 
L 551.175227 27.177 
" clip-path="url(#p2e29241d94)" style="fill: none; stroke: #ff0000; stroke-width: 0.8; stroke-linecap: round"/>
   </g>
   <g id="line2d_19">
    <path d="M 639.947955 248.937 
L 639.947955 27.177 
" clip-path="url(#p2e29241d94)" style="fill: none; stroke: #ff0000; stroke-width: 0.8; stroke-linecap: round"/>
   </g>
   <g id="line2d_20">
    <path d="M 728.720682 248.937 
L 728.720682 27.177 
" clip-path="url(#p2e29241d94)" style="fill: none; stroke: #ff0000; stroke-width: 0.8; stroke-linecap: round"/>
   </g>
   <g id="line2d_21">
    <path d="M 817.493409 248.937 
L 817.493409 27.177 
" clip-path="url(#p2e29241d94)" style="fill: none; stroke: #ff0000; stroke-width: 0.8; stroke-linecap: round"/>
   </g>
   <g id="line2d_22">
    <path d="M 107.311591 37.257 
L 107.554804 39.855707 
L 108.04123 46.8302 
L 108.527656 50.733727 
L 108.770869 50.920085 
L 109.014082 51.253518 
L 109.74372 57.556236 
L 109.986933 58.450136 
L 110.230146 58.693904 
L 110.716572 57.057892 
L 111.689424 61.319613 
L 111.932637 61.430147 
L 112.419063 60.167494 
L 113.391915 66.312919 
L 113.635128 66.971181 
L 114.121554 66.07146 
L 114.851192 70.910949 
L 115.094405 71.544063 
L 115.337618 71.762809 
L 115.580831 71.128059 
L 115.824044 70.881929 
L 116.553683 75.637146 
L 117.040109 76.76597 
L 117.283322 76.415379 
L 117.526535 76.616791 
L 118.256174 82.958981 
L 118.499387 83.92469 
L 118.7426 84.410442 
L 118.985813 83.977361 
L 119.229026 83.856558 
L 119.958664 89.203513 
L 120.44509 90.587125 
L 120.688303 90.226621 
L 120.931516 90.264174 
L 121.661155 96.285168 
L 122.147581 98.039969 
L 122.390794 97.763165 
L 122.634007 97.811885 
L 123.363646 103.891913 
L 123.850072 105.735416 
L 124.093285 105.619497 
L 124.336498 105.945978 
L 125.309349 114.872862 
L 125.552562 116.043228 
L 125.795775 116.266941 
L 126.038988 116.761557 
L 126.768627 123.49126 
L 127.255053 125.841828 
L 127.498266 126.03935 
L 127.741479 126.545692 
L 128.471118 133.396163 
L 128.957544 135.644595 
L 129.200757 135.755953 
L 129.443969 136.149062 
L 130.173608 142.697595 
L 130.660034 145.014359 
L 130.903247 145.041235 
L 131.14646 145.35914 
L 132.119312 153.904314 
L 132.362525 154.92157 
L 132.605738 155.011558 
L 132.848951 155.433108 
L 133.57859 161.742526 
L 134.065016 163.993864 
L 134.308229 164.163421 
L 134.551441 164.678785 
L 135.28108 171.693483 
L 135.767506 173.654583 
L 136.010719 173.504898 
L 136.253932 173.778046 
L 137.226784 182.10104 
L 137.469997 183.007722 
L 137.71321 182.954165 
L 137.956423 183.287289 
L 138.686062 189.688142 
L 139.172488 191.285259 
L 139.4157 190.932204 
L 139.658913 190.897774 
L 140.388552 196.207798 
L 140.874978 197.453932 
L 141.118191 197.131476 
L 141.361404 197.234339 
L 142.091043 202.956147 
L 142.577469 204.527147 
L 142.820682 204.261934 
L 143.063895 204.309758 
L 143.793534 209.713168 
L 144.036747 210.424465 
L 144.27996 210.633486 
L 144.523172 209.945425 
L 144.766385 209.658213 
L 145.496024 214.445859 
L 145.739237 215.010678 
L 145.98245 215.112866 
L 146.225663 214.339093 
L 146.468876 213.98029 
L 147.198515 218.498408 
L 147.441728 219.019916 
L 147.684941 219.064678 
L 148.171367 217.653703 
L 148.901006 221.612008 
L 149.144219 221.96805 
L 149.387432 221.766079 
L 149.873857 219.549386 
L 150.603496 222.475531 
L 150.846709 222.749132 
L 151.089922 222.604196 
L 151.576348 220.902044 
L 152.062774 223.514856 
L 152.305987 223.886815 
L 152.5492 223.741919 
L 152.792413 223.177851 
L 153.278839 220.762633 
L 153.765265 222.780766 
L 154.008478 222.935614 
L 154.251691 222.676919 
L 154.494903 222.031993 
L 154.981329 219.365539 
L 155.467755 221.121319 
L 155.710968 221.186759 
L 155.954181 220.863865 
L 156.197394 220.170518 
L 156.68382 217.446294 
L 157.170246 219.130477 
L 157.413459 219.021442 
L 157.656672 218.372618 
L 157.899885 217.275177 
L 158.386311 213.800285 
L 158.629524 214.32898 
L 158.872737 215.144889 
L 159.11595 214.913301 
L 159.359163 214.153735 
L 159.602375 212.93613 
L 160.088801 208.976457 
L 160.332014 209.175948 
L 160.575227 209.666494 
L 160.81844 209.219628 
L 161.061653 208.427753 
L 161.304866 207.242422 
L 161.791292 203.645249 
L 162.277718 204.655017 
L 162.520931 204.18008 
L 162.764144 203.269246 
L 163.007357 201.87832 
L 163.493783 197.636582 
L 163.736996 197.60431 
L 163.980209 197.836805 
L 164.466634 196.035158 
L 164.709847 194.589743 
L 165.196273 190.399066 
L 165.439486 190.357673 
L 165.682699 190.535195 
L 165.925912 189.708598 
L 166.412338 186.729256 
L 166.898764 182.202597 
L 167.141977 182.227443 
L 167.38519 182.566308 
L 167.628403 181.914941 
L 168.114829 179.107844 
L 168.601255 174.486961 
L 168.844468 174.464651 
L 169.087681 174.705003 
L 169.330894 173.910756 
L 169.817319 170.828489 
L 170.303745 165.975024 
L 170.546958 165.842907 
L 170.790171 166.00652 
L 171.033384 165.17964 
L 171.51981 161.952347 
L 172.006236 156.637772 
L 172.249449 156.190052 
L 172.492662 156.024051 
L 172.979088 153.426045 
L 173.465514 148.714633 
L 173.708727 146.40871 
L 173.95194 146.230093 
L 174.195153 146.354836 
L 174.438366 145.504392 
L 174.924791 142.414805 
L 175.411217 136.982928 
L 175.897643 136.09493 
L 176.384069 133.253545 
L 176.870495 128.221692 
L 177.113708 125.664994 
L 177.600134 124.849845 
L 178.08656 121.839757 
L 178.816199 115.143787 
L 179.059412 115.066046 
L 179.302625 115.254161 
L 179.545837 114.480825 
L 180.032263 111.495238 
L 180.518689 106.445304 
L 180.761902 106.02777 
L 181.005115 105.887005 
L 181.491541 103.237915 
L 181.734754 101.251839 
L 182.22118 95.751788 
L 182.464393 95.240748 
L 182.707606 95.053268 
L 183.194032 92.537843 
L 183.680458 88.465744 
L 183.923671 86.594305 
L 184.166884 86.860739 
L 184.410097 87.549911 
L 184.653309 87.349195 
L 184.896522 86.818475 
L 185.139735 85.815931 
L 185.626161 81.954242 
L 185.869374 82.027414 
L 186.112587 82.319553 
L 186.3558 81.685691 
L 186.842226 79.11451 
L 187.328652 74.544753 
L 187.571865 74.645915 
L 187.815078 75.144261 
L 188.058291 74.893326 
L 188.301504 74.408852 
L 188.544717 73.470555 
L 189.031143 69.992065 
L 189.274356 70.520105 
L 189.517568 71.351818 
L 189.760781 71.152284 
L 190.003994 70.475448 
L 190.247207 69.303709 
L 190.733633 65.661808 
L 190.976846 66.225896 
L 191.220059 67.158305 
L 191.463272 67.146115 
L 191.706485 66.751796 
L 191.949698 65.989825 
L 192.436124 62.937151 
L 192.92255 64.088682 
L 193.165763 63.757168 
L 193.652189 62.206226 
L 194.138615 58.870439 
L 194.62504 60.393041 
L 194.868253 60.290033 
L 195.111466 59.967847 
L 195.354679 59.349589 
L 195.841105 56.693971 
L 196.570744 59.798124 
L 196.813957 59.924921 
L 197.05717 59.588043 
L 197.543596 57.238166 
L 198.030022 59.572108 
L 198.273235 59.844102 
L 198.516448 59.715179 
L 198.759661 59.145561 
L 199.246087 56.750267 
L 200.218938 61.508554 
L 200.462151 61.871913 
L 200.705364 61.282171 
L 200.948577 61.052435 
L 201.678216 66.284999 
L 201.921429 67.192042 
L 202.164642 67.613041 
L 202.407855 67.070347 
L 202.651068 66.850709 
L 203.380707 71.44674 
L 203.62392 71.769776 
L 203.867133 71.637815 
L 204.353559 69.97806 
L 205.083197 74.576614 
L 205.32641 75.07535 
L 205.569623 75.085305 
L 205.812836 74.292081 
L 206.056049 73.985467 
L 206.785688 79.290203 
L 207.028901 79.946077 
L 207.272114 80.266862 
L 207.515327 79.958711 
L 207.75854 80.199341 
L 208.488179 86.3209 
L 208.974605 87.89532 
L 209.217818 87.540439 
L 209.461031 87.58368 
L 210.190669 93.666542 
L 210.677095 95.174724 
L 210.920308 94.839416 
L 211.163521 94.912925 
L 211.89316 101.432549 
L 212.379586 103.597958 
L 212.622799 103.648902 
L 212.866012 104.148713 
L 213.838864 113.810689 
L 214.082077 115.029046 
L 214.32529 115.158598 
L 214.568502 115.615251 
L 215.298141 122.693851 
L 215.784567 124.57659 
L 216.02778 124.33243 
L 216.270993 124.484312 
L 217.000632 131.141698 
L 217.487058 133.461946 
L 217.730271 133.62045 
L 217.973484 134.162852 
L 218.703123 141.935236 
L 219.189549 144.665481 
L 219.432762 144.887907 
L 219.675974 145.493088 
L 220.405613 152.640697 
L 220.892039 154.478814 
L 221.135252 154.16877 
L 221.378465 154.262631 
L 222.351317 162.116039 
L 222.59453 163.167422 
L 222.837743 163.346716 
L 223.080956 163.871102 
L 223.810595 170.636614 
L 224.297021 172.828486 
L 224.540233 172.964505 
L 224.783446 173.464332 
L 225.513085 180.063573 
L 225.999511 181.661414 
L 226.242724 181.319147 
L 226.485937 181.323991 
L 227.215576 187.223907 
L 227.702002 189.221224 
L 227.945215 189.268433 
L 228.188428 189.709934 
L 228.918067 195.942308 
L 229.16128 196.870695 
L 229.404493 197.351196 
L 229.647705 196.989372 
L 229.890918 197.074906 
L 230.620557 202.800038 
L 230.86377 203.515454 
L 231.106983 203.697465 
L 231.350196 202.935872 
L 231.593409 202.571287 
L 232.323048 207.809617 
L 232.809474 209.322098 
L 233.052687 208.921704 
L 233.2959 208.882601 
L 234.025539 214.073156 
L 234.268752 214.765043 
L 234.511965 215.061118 
L 234.755177 214.532886 
L 234.99839 214.397783 
L 235.728029 218.946083 
L 235.971242 219.293887 
L 236.214455 219.284362 
L 236.457668 218.403063 
L 236.700881 217.996514 
L 237.43052 222.390016 
L 237.673733 222.731611 
L 237.916946 222.631526 
L 238.403372 221.122891 
L 239.133011 224.710239 
L 239.376224 224.815642 
L 239.619436 224.472697 
L 240.105862 222.452078 
L 240.592288 224.830708 
L 240.835501 225.087635 
L 241.078714 224.83146 
L 241.321927 224.178333 
L 241.808353 221.704376 
L 242.537992 224.40813 
L 242.781205 224.325231 
L 243.024418 223.753663 
L 243.510844 221.081565 
L 243.99727 222.903115 
L 244.240483 222.90462 
L 244.483696 222.439389 
L 244.726908 221.508481 
L 245.213334 218.466522 
L 245.69976 220.471247 
L 245.942973 220.500887 
L 246.186186 219.977539 
L 246.429399 218.988301 
L 246.915825 215.567203 
L 247.159038 216.06632 
L 247.402251 216.92116 
L 247.645464 216.821438 
L 247.888677 216.255514 
L 248.13189 215.212309 
L 248.618316 211.648424 
L 248.861529 212.071255 
L 249.104742 212.768994 
L 249.347955 212.393726 
L 249.591167 211.523511 
L 249.83438 210.183616 
L 250.320806 206.222961 
L 250.564019 206.571442 
L 250.807232 207.212517 
L 251.050445 206.806529 
L 251.293658 205.993899 
L 251.536871 204.757513 
L 252.023297 200.988509 
L 252.26651 201.346391 
L 252.509723 201.929985 
L 252.752936 201.413552 
L 252.996149 200.325743 
L 253.239362 198.688297 
L 253.725788 193.950083 
L 253.969001 193.821781 
L 254.212214 193.994812 
L 254.455427 193.146353 
L 254.941852 190.028648 
L 255.428278 185.201854 
L 255.671491 185.194238 
L 255.914704 185.563808 
L 256.157917 184.92627 
L 256.644343 182.318018 
L 257.130769 177.841013 
L 257.373982 177.854434 
L 257.617195 178.033611 
L 257.860408 177.08244 
L 258.346834 173.760826 
L 258.83326 168.658177 
L 259.076473 168.428541 
L 259.319686 168.528608 
L 259.562899 167.570637 
L 260.049324 164.037304 
L 260.53575 158.435357 
L 260.778963 158.10271 
L 261.022176 158.265787 
L 261.265389 157.578163 
L 261.508602 156.520493 
L 261.751815 154.878366 
L 262.238241 150.334153 
L 262.724667 150.134016 
L 263.211093 147.253956 
L 263.697519 142.280888 
L 263.940732 139.846047 
L 264.183945 139.549098 
L 264.427158 139.540643 
L 264.913583 136.882588 
L 265.400009 132.249699 
L 265.643222 130.110169 
L 265.886435 130.112722 
L 266.129648 130.383242 
L 266.372861 129.571686 
L 266.859287 126.497299 
L 267.345713 121.936772 
L 267.588926 121.912154 
L 267.832139 122.076314 
L 268.075352 121.116848 
L 268.561778 117.407015 
L 269.048204 111.539538 
L 269.53463 110.241614 
L 270.021055 106.479185 
L 270.750694 99.0665 
L 270.993907 99.391706 
L 271.23712 100.212216 
L 271.480333 100.085571 
L 271.723546 99.527101 
L 271.966759 98.45346 
L 272.453185 94.821686 
L 272.939611 95.663852 
L 273.182824 95.011523 
L 273.66925 92.081953 
L 274.155676 87.419461 
L 274.398889 87.350046 
L 274.642101 87.427437 
L 275.128527 85.121813 
L 275.858166 79.449876 
L 276.344592 81.133321 
L 276.587805 80.976467 
L 276.831018 80.248386 
L 277.074231 78.870342 
L 277.560657 74.739223 
L 277.80387 74.963484 
L 278.047083 75.454296 
L 278.290296 74.974952 
L 278.533509 74.057785 
L 278.776722 72.602094 
L 279.263148 68.235234 
L 279.506361 68.446648 
L 279.749573 69.060164 
L 279.992786 68.756338 
L 280.235999 68.022342 
L 280.479212 66.783274 
L 280.965638 62.93787 
L 281.208851 63.618167 
L 281.452064 64.719406 
L 281.695277 64.748293 
L 281.93849 64.276643 
L 282.181703 63.224176 
L 282.668129 59.413386 
L 282.911342 59.796473 
L 283.154555 60.520845 
L 283.397768 60.413262 
L 283.640981 60.167545 
L 283.884194 59.500056 
L 284.37062 56.40656 
L 285.100258 58.487817 
L 285.343471 58.318827 
L 285.586684 57.667437 
L 286.07311 54.458225 
L 286.802749 56.770082 
L 287.045962 56.649657 
L 287.289175 56.304384 
L 287.775601 54.562936 
L 288.50524 58.945122 
L 288.991666 60.059359 
L 289.234879 59.612734 
L 289.478092 59.569136 
L 290.20773 64.689669 
L 290.694156 65.911694 
L 290.937369 65.418863 
L 291.180582 65.245665 
L 291.910221 69.948 
L 292.153434 70.413644 
L 292.396647 70.467605 
L 292.883073 68.980157 
L 293.612712 73.847357 
L 293.855925 74.565964 
L 294.099138 74.921985 
L 294.342351 74.45002 
L 294.585564 74.29853 
L 295.315202 79.295728 
L 295.558415 80.071596 
L 295.801628 80.401769 
L 296.044841 79.891868 
L 296.288054 79.778807 
L 297.017693 85.039789 
L 297.260906 85.539966 
L 297.504119 85.590564 
L 297.990545 84.169302 
L 298.720184 89.368501 
L 299.20661 90.86539 
L 299.449823 90.741776 
L 299.693035 91.236038 
L 300.422674 98.624258 
L 300.665887 99.885576 
L 300.9091 100.557453 
L 301.152313 100.380875 
L 301.395526 100.656257 
L 302.125165 107.109396 
L 302.611591 108.861748 
L 302.854804 108.717414 
L 303.098017 108.938448 
L 303.827656 115.219304 
L 304.314082 117.261692 
L 304.557295 117.394009 
L 304.800507 118.122968 
L 305.530146 126.190665 
L 306.016572 128.7637 
L 306.259785 128.980519 
L 306.502998 129.732434 
L 306.989424 135.27143 
L 307.47585 137.607352 
L 307.719063 138.085598 
L 307.962276 137.782265 
L 308.205489 138.078953 
L 308.935128 145.423123 
L 309.178341 146.653087 
L 309.421554 147.291222 
L 309.664767 146.938209 
L 309.907979 147.187744 
L 310.637618 154.70513 
L 311.124044 156.79165 
L 311.367257 156.537647 
L 311.61047 156.743379 
L 312.340109 163.532713 
L 312.826535 165.406449 
L 313.069748 165.207968 
L 313.312961 165.551125 
L 314.0426 173.294422 
L 314.529026 175.475459 
L 314.772238 175.465745 
L 315.015451 175.915069 
L 315.74509 183.245708 
L 316.231516 185.040573 
L 316.474729 184.720422 
L 316.717942 184.966903 
L 317.447581 191.36401 
L 317.690794 192.012584 
L 317.934007 192.073981 
L 318.17722 191.287246 
L 318.420433 191.189484 
L 319.150072 197.584298 
L 319.636498 199.287177 
L 319.87971 198.989519 
L 320.122923 199.134712 
L 320.852562 204.738572 
L 321.095775 205.349401 
L 321.338988 205.494799 
L 321.582201 204.753614 
L 321.825414 204.48104 
L 322.555053 210.107216 
L 322.798266 210.928088 
L 323.041479 211.233279 
L 323.284692 210.596735 
L 323.527905 210.417594 
L 324.257544 215.515463 
L 324.500757 216.037381 
L 324.743969 216.095745 
L 324.987182 215.25611 
L 325.230395 214.916383 
L 325.960034 219.669433 
L 326.203247 220.003936 
L 326.44646 219.872962 
L 326.689673 218.912283 
L 326.932886 218.479284 
L 327.419312 221.95322 
L 327.662525 222.554002 
L 327.905738 222.53966 
L 328.148951 222.006179 
L 328.635377 219.849017 
L 329.365016 223.728522 
L 329.608229 223.713082 
L 329.851441 223.057591 
L 330.337867 220.599387 
L 330.824293 223.229455 
L 331.067506 223.465471 
L 331.310719 223.137886 
L 331.553932 222.375217 
L 332.040358 219.714277 
L 332.769997 222.495274 
L 333.01321 222.333771 
L 333.256423 221.653905 
L 333.742849 218.811278 
L 334.229275 220.52393 
L 334.472488 220.365712 
L 334.7157 219.676728 
L 334.958913 218.546849 
L 335.445339 215.31208 
L 335.931765 217.116339 
L 336.174978 217.075431 
L 336.418191 216.511934 
L 336.661404 215.521532 
L 337.14783 212.71458 
L 337.634256 214.913128 
L 337.877469 214.805565 
L 338.120682 214.149243 
L 338.363895 213.029308 
L 338.850321 209.656003 
L 339.336747 210.856487 
L 339.57996 210.429942 
L 339.823172 209.413926 
L 340.066385 207.862559 
L 340.552811 203.616363 
L 340.796024 203.965741 
L 341.039237 204.616418 
L 341.28245 204.101297 
L 341.525663 203.013907 
L 341.768876 201.359434 
L 342.255302 196.981547 
L 342.498515 197.277607 
L 342.741728 197.97448 
L 342.984941 197.582429 
L 343.228154 196.564412 
L 343.471367 194.860964 
L 343.957793 190.083445 
L 344.201006 190.258157 
L 344.444219 190.723509 
L 344.687432 189.972168 
L 345.173857 186.539514 
L 345.660283 181.112817 
L 345.903496 180.658349 
L 346.146709 180.448162 
L 346.633135 177.590362 
L 347.119561 172.922779 
L 347.362774 170.726407 
L 347.605987 170.790328 
L 347.8492 171.157483 
L 348.092413 170.562829 
L 348.335626 169.580112 
L 348.578839 168.015677 
L 349.065265 163.478722 
L 349.308478 163.372165 
L 349.551691 163.464735 
L 350.038116 161.197143 
L 350.281329 159.387491 
L 350.767755 154.505137 
L 351.254181 154.249943 
L 351.740607 151.537413 
L 352.470246 144.515834 
L 352.713459 144.551061 
L 352.956672 144.822624 
L 353.199885 144.019507 
L 353.443098 142.519705 
L 353.929524 137.181989 
L 354.172737 134.564886 
L 354.41595 134.064935 
L 354.659163 133.882716 
L 355.145588 130.934391 
L 356.11844 123.170343 
L 356.361653 123.203882 
L 356.848079 120.583093 
L 357.334505 115.538954 
L 357.577718 113.17013 
L 357.820931 112.825104 
L 358.064144 112.729164 
L 358.55057 110.160021 
L 359.036996 105.482283 
L 359.280209 103.393459 
L 359.523422 103.521127 
L 359.766634 103.975784 
L 360.009847 103.256674 
L 360.496273 99.764343 
L 360.982699 94.573864 
L 361.225912 94.53927 
L 361.469125 94.849455 
L 361.712338 93.868123 
L 362.198764 90.53329 
L 362.68519 85.826559 
L 362.928403 85.927412 
L 363.171616 86.292569 
L 363.414829 85.543042 
L 363.901255 82.487137 
L 364.387681 77.875727 
L 364.630894 78.097884 
L 364.874106 78.657562 
L 365.117319 78.32966 
L 365.360532 77.772683 
L 365.603745 76.908621 
L 366.090171 74.359548 
L 366.576597 76.402185 
L 366.81981 76.201183 
L 367.063023 75.482492 
L 367.306236 74.286024 
L 367.792662 70.770323 
L 368.279088 71.908649 
L 368.522301 71.097322 
L 369.008727 67.579839 
L 369.495153 63.34977 
L 369.738366 63.958418 
L 369.981578 64.907714 
L 370.224791 64.645645 
L 370.468004 63.907552 
L 371.197643 59.859963 
L 371.684069 62.069681 
L 371.927282 62.014423 
L 372.170495 61.599512 
L 372.413708 60.70593 
L 372.900134 57.564518 
L 373.38656 59.660306 
L 373.629773 59.661724 
L 373.872986 59.281008 
L 374.116199 58.581448 
L 374.602625 56.289388 
L 375.08905 58.773473 
L 375.332263 58.90311 
L 375.818689 58.423053 
L 376.061902 57.599116 
L 376.305115 57.323595 
L 376.791541 60.828886 
L 377.034754 61.369585 
L 377.277967 61.330983 
L 377.52118 60.763927 
L 378.007606 58.480245 
L 378.494032 61.274658 
L 378.737245 61.648776 
L 379.223671 61.495293 
L 379.466884 60.775865 
L 379.710097 60.670854 
L 380.196522 64.940064 
L 380.439735 65.878929 
L 380.682948 66.234146 
L 380.926161 66.174687 
L 381.169374 65.652891 
L 381.412587 65.759713 
L 382.142226 71.589225 
L 382.385439 72.130266 
L 382.628652 72.331096 
L 382.871865 71.844012 
L 383.115078 71.871606 
L 383.844717 77.57875 
L 384.08793 78.068469 
L 384.331143 78.005203 
L 384.574356 77.119019 
L 384.817568 76.697399 
L 385.547207 81.541294 
L 386.033633 82.786283 
L 386.276846 82.541936 
L 386.520059 82.573804 
L 387.006485 86.492019 
L 387.492911 87.8957 
L 387.736124 88.091784 
L 387.979337 87.646805 
L 388.22255 87.813872 
L 388.952189 94.260969 
L 389.438615 95.718383 
L 389.681828 95.488097 
L 389.92504 95.717492 
L 390.654679 102.272231 
L 391.141105 104.430497 
L 391.384318 104.552832 
L 391.627531 105.165843 
L 392.35717 112.425752 
L 392.843596 114.806439 
L 393.086809 115.05702 
L 393.330022 115.730235 
L 394.059661 122.560655 
L 394.546087 124.482274 
L 394.7893 124.532382 
L 395.032512 125.056009 
L 395.762151 132.502977 
L 396.248577 135.414282 
L 396.49179 135.818559 
L 396.735003 136.530464 
L 397.464642 143.662339 
L 397.951068 145.715359 
L 398.194281 145.918096 
L 398.437494 146.664158 
L 398.92392 152.150968 
L 399.410346 154.361712 
L 399.653559 154.890875 
L 399.896771 154.76756 
L 400.139984 155.283909 
L 400.869623 162.834229 
L 401.356049 164.787922 
L 401.599262 164.694336 
L 401.842475 165.0689 
L 402.572114 171.717139 
L 403.05854 173.504039 
L 403.301753 173.431154 
L 403.544966 173.699296 
L 404.274605 179.647941 
L 404.517818 180.347684 
L 404.761031 180.694057 
L 405.004243 180.367835 
L 405.247456 180.601652 
L 405.977095 187.227318 
L 406.220308 188.257078 
L 406.463521 188.773296 
L 406.706734 188.498949 
L 406.949947 188.676934 
L 407.679586 194.603129 
L 408.166012 196.030811 
L 408.409225 195.864427 
L 408.652438 196.104121 
L 409.382077 201.923034 
L 409.62529 202.655473 
L 409.868502 203.013763 
L 410.111715 202.6198 
L 410.354928 202.640966 
L 411.084567 207.870006 
L 411.32778 208.459489 
L 411.570993 208.580064 
L 411.814206 207.881626 
L 412.057419 207.674671 
L 412.787058 212.336491 
L 413.273484 213.210092 
L 413.516697 212.829656 
L 413.75991 212.959369 
L 414.246336 217.002825 
L 414.732762 218.173479 
L 414.975974 218.305472 
L 415.219187 217.743147 
L 415.4624 217.68899 
L 415.948826 221.15225 
L 416.192039 221.742114 
L 416.435252 221.945027 
L 416.678465 221.784486 
L 417.164891 220.281808 
L 417.651317 222.792524 
L 417.89453 223.018053 
L 418.137743 222.885813 
L 418.380956 222.4066 
L 418.867382 220.645096 
L 419.353808 223.5334 
L 419.597021 223.975634 
L 419.840233 223.876287 
L 420.083446 223.343634 
L 420.326659 222.139318 
L 420.569872 221.501348 
L 421.056298 224.25996 
L 421.299511 224.5079 
L 421.542724 224.16905 
L 421.785937 223.30587 
L 422.272363 220.358335 
L 422.758789 221.931464 
L 423.002002 221.67557 
L 423.245215 220.992602 
L 423.488428 219.832726 
L 423.974854 216.746371 
L 424.46128 218.61053 
L 424.704493 218.614169 
L 424.947705 218.13766 
L 425.190918 217.171636 
L 425.677344 214.102214 
L 426.16377 215.281477 
L 426.406983 214.830818 
L 426.893409 212.898149 
L 427.379835 209.656237 
L 427.866261 210.972103 
L 428.109474 210.633022 
L 428.352687 210.000517 
L 428.5959 209.032573 
L 429.082326 205.831563 
L 429.568752 206.694311 
L 429.811965 206.20644 
L 430.055177 205.468872 
L 430.29839 204.355364 
L 430.784816 200.962772 
L 431.271242 201.451496 
L 431.757668 199.159081 
L 432.000881 197.565989 
L 432.487307 193.254975 
L 432.973733 192.921194 
L 433.460159 190.202689 
L 433.946585 185.783798 
L 434.189798 183.698644 
L 434.676224 183.486196 
L 435.162649 180.880452 
L 435.892288 175.045022 
L 436.378714 175.025078 
L 436.86514 172.377917 
L 437.351566 167.994022 
L 437.594779 165.843695 
L 438.081205 165.308694 
L 438.567631 162.765224 
L 439.29727 156.952486 
L 439.783696 157.448693 
L 440.270121 155.136572 
L 440.756547 150.687881 
L 440.99976 148.660703 
L 441.486186 148.345976 
L 441.972612 145.763811 
L 442.459038 141.493631 
L 442.702251 139.532675 
L 443.188677 139.543446 
L 443.675103 136.776676 
L 444.161529 132.206762 
L 444.404742 130.001063 
L 444.891167 128.741355 
L 445.377593 124.895563 
L 446.350445 116.355579 
L 446.593658 115.977222 
L 447.323297 112.529948 
L 447.809723 108.983279 
L 448.296149 109.435767 
L 448.782575 106.979377 
L 449.025788 105.337313 
L 449.512214 100.709626 
L 449.998639 100.55837 
L 450.485065 97.585292 
L 451.214704 90.898499 
L 451.457917 90.80867 
L 451.70113 90.916973 
L 452.187556 88.732571 
L 452.917195 83.886169 
L 453.403621 84.961391 
L 453.646834 84.387975 
L 454.13326 82.443317 
L 454.619686 79.049152 
L 455.106111 79.950651 
L 455.592537 78.084861 
L 455.83575 76.630017 
L 456.322176 72.797765 
L 456.565389 73.122685 
L 456.808602 73.679739 
L 457.051815 73.33648 
L 457.295028 72.762119 
L 457.538241 71.852652 
L 458.024667 68.688285 
L 458.511093 69.350776 
L 458.997519 67.692878 
L 459.240732 66.427922 
L 459.727158 63.027291 
L 460.213583 63.813746 
L 460.456796 62.934834 
L 460.943222 60.092149 
L 461.429648 56.071519 
L 461.916074 56.488178 
L 462.645713 54.265465 
L 462.888926 52.958947 
L 463.132139 52.373028 
L 463.861778 55.84554 
L 464.104991 56.195632 
L 464.348204 56.34291 
L 464.591417 55.928059 
L 464.83463 55.924362 
L 465.321055 59.150371 
L 465.564268 59.324628 
L 465.807481 59.167648 
L 466.050694 58.728027 
L 466.53712 56.807632 
L 467.023546 59.634593 
L 467.266759 59.98755 
L 467.509972 60.095948 
L 467.753185 59.911055 
L 467.996398 59.210658 
L 468.239611 59.155111 
L 468.726037 63.050121 
L 469.455676 65.331989 
L 469.698889 65.143006 
L 469.942101 65.202638 
L 470.428527 68.679023 
L 470.67174 69.05543 
L 470.914953 69.061808 
L 471.158166 68.9258 
L 471.401379 68.265218 
L 471.644592 68.092154 
L 472.131018 71.937464 
L 472.860657 74.06108 
L 473.10387 74.402297 
L 473.347083 75.297634 
L 473.833509 80.289321 
L 474.076722 81.173436 
L 474.319935 81.487288 
L 474.563148 81.401807 
L 474.806361 80.604836 
L 475.049573 80.221417 
L 475.535999 83.148865 
L 475.779212 83.359742 
L 476.265638 83.344608 
L 476.508851 83.082723 
L 476.752064 83.577962 
L 477.481703 90.199026 
L 477.968129 91.869742 
L 478.211342 92.119319 
L 478.454555 92.84165 
L 478.940981 97.329261 
L 479.427407 98.929569 
L 479.67062 98.909444 
L 479.913833 98.157382 
L 480.157045 97.97414 
L 480.886684 102.981518 
L 481.37311 104.912074 
L 481.616323 105.394922 
L 481.859536 106.501764 
L 482.589175 114.807435 
L 483.075601 117.552705 
L 483.562027 118.421244 
L 484.048453 122.688947 
L 484.534879 124.104401 
L 484.778092 124.395863 
L 485.021304 124.176185 
L 485.264517 124.591044 
L 485.994156 131.251742 
L 486.480582 134.334643 
L 486.723795 135.026899 
L 486.967008 136.060444 
L 487.696647 143.565546 
L 488.183073 145.664142 
L 488.426286 145.634588 
L 488.669499 145.863211 
L 489.399138 151.218752 
L 489.885564 152.875724 
L 490.128776 153.139712 
L 490.371989 153.926765 
L 491.101628 161.110969 
L 491.588054 162.923395 
L 491.831267 162.836536 
L 492.07448 163.246446 
L 492.804119 169.432035 
L 493.290545 171.288338 
L 493.533758 171.236718 
L 493.776971 171.63556 
L 494.749823 179.961587 
L 494.993035 181.079367 
L 495.236248 181.370905 
L 495.479461 182.106427 
L 496.2091 188.806895 
L 496.695526 190.630771 
L 496.938739 190.44811 
L 497.181952 190.536264 
L 497.668378 194.305035 
L 498.154804 195.626677 
L 498.398017 195.956673 
L 498.64123 195.50206 
L 498.884443 195.477117 
L 499.614082 200.960075 
L 500.100507 202.556824 
L 500.34372 202.410337 
L 500.586933 202.717622 
L 501.316572 208.19411 
L 501.559785 209.002628 
L 501.802998 209.2713 
L 502.046211 208.70568 
L 502.289424 208.645509 
L 503.019063 213.265198 
L 503.262276 213.716609 
L 503.505489 213.803488 
L 503.748702 213.207085 
L 503.991915 213.047296 
L 504.478341 216.191039 
L 504.721554 216.727519 
L 504.964767 216.942651 
L 505.207979 216.820012 
L 505.451192 216.018267 
L 505.694405 215.70221 
L 506.424044 219.795462 
L 506.667257 220.221479 
L 506.91047 220.17792 
L 507.396896 218.760285 
L 508.126535 222.464321 
L 508.369748 222.62971 
L 508.612961 222.224785 
L 509.099387 220.145633 
L 509.585813 222.186643 
L 509.829026 222.361041 
L 510.072238 222.204523 
L 510.315451 221.605407 
L 510.801877 219.18604 
L 511.288303 221.004687 
L 511.531516 220.933379 
L 511.774729 220.49279 
L 512.017942 219.691244 
L 512.504368 217.075827 
L 512.990794 218.66171 
L 513.234007 218.553244 
L 513.47722 218.112006 
L 513.720433 217.200801 
L 514.206859 214.1673 
L 514.693285 215.589052 
L 514.936498 215.567665 
L 515.17971 215.096616 
L 515.422923 214.062146 
L 515.909349 210.762882 
L 516.152562 211.225957 
L 516.395775 212.025538 
L 516.638988 211.873135 
L 516.882201 211.224806 
L 517.125414 210.068904 
L 517.61184 206.691552 
L 518.098266 207.677754 
L 518.341479 207.231873 
L 518.827905 205.256291 
L 519.314331 202.344555 
L 519.800757 203.891742 
L 520.043969 203.667836 
L 520.287182 202.941107 
L 520.530395 201.668125 
L 521.016821 197.757478 
L 521.503247 197.737634 
L 521.989673 194.995557 
L 522.719312 188.350703 
L 522.962525 188.511939 
L 523.205738 188.833939 
L 523.692164 186.80942 
L 523.935377 185.129754 
L 524.421803 180.345011 
L 524.908229 179.228139 
L 525.637867 173.244857 
L 526.124293 168.090549 
L 526.610719 167.204211 
L 527.097145 164.179825 
L 527.826784 157.643996 
L 528.31321 157.497657 
L 528.799636 155.017177 
L 529.529275 149.384086 
L 530.0157 149.852871 
L 530.502126 147.666032 
L 530.988552 143.26191 
L 531.231765 140.988467 
L 531.718191 139.697827 
L 532.204617 135.887902 
L 532.934256 127.834236 
L 533.177469 127.649297 
L 533.420682 127.753408 
L 533.663895 126.752283 
L 534.150321 123.35816 
L 534.636747 118.651514 
L 535.123172 118.42118 
L 535.609598 115.640067 
L 536.096024 111.340441 
L 536.339237 109.201762 
L 536.825663 108.275319 
L 537.555302 103.442773 
L 538.041728 98.270164 
L 538.284941 98.001706 
L 538.528154 98.204721 
L 539.01458 96.319178 
L 539.257793 95.19019 
L 539.744219 92.452263 
L 540.230644 94.075214 
L 540.473857 93.223958 
L 540.960283 90.091399 
L 541.446709 85.040984 
L 541.933135 84.526427 
L 542.419561 81.847339 
L 543.1492 75.84331 
L 543.635626 76.849217 
L 544.122052 75.077694 
L 544.365265 73.742851 
L 544.851691 70.339035 
L 545.338116 71.331912 
L 545.581329 70.816769 
L 545.824542 69.93649 
L 546.067755 68.540546 
L 546.554181 64.557654 
L 546.797394 65.158291 
L 547.040607 66.070286 
L 547.28382 65.969796 
L 547.527033 65.659107 
L 547.770246 64.920285 
L 548.256672 61.939407 
L 548.743098 63.257975 
L 548.986311 63.036786 
L 549.229524 62.501815 
L 549.472737 61.578535 
L 549.959163 58.723398 
L 550.202375 59.294401 
L 550.445588 59.556467 
L 550.932014 57.227184 
L 551.661653 52.626914 
L 552.148079 55.394117 
L 552.391292 55.579664 
L 552.877718 55.526298 
L 553.120931 54.721832 
L 553.364144 54.754585 
L 553.85057 59.134851 
L 554.093783 59.911974 
L 554.336996 60.101323 
L 554.580209 59.711441 
L 555.066634 57.563737 
L 555.55306 60.74641 
L 555.796273 61.088948 
L 556.039486 61.178313 
L 556.282699 60.833096 
L 556.525912 60.032897 
L 556.769125 59.921425 
L 557.498764 65.737736 
L 557.741977 66.303611 
L 557.98519 66.562785 
L 558.228403 65.838653 
L 558.471616 65.524332 
L 558.958042 69.415316 
L 559.201255 69.956352 
L 559.444468 69.949927 
L 559.687681 69.472575 
L 559.930894 68.086971 
L 560.174106 67.382739 
L 560.660532 69.868522 
L 560.903745 70.147401 
L 561.390171 70.846948 
L 561.633384 70.475061 
L 561.876597 70.568483 
L 562.363023 75.297147 
L 562.606236 76.32621 
L 562.849449 76.691814 
L 563.092662 76.548209 
L 563.335875 75.904629 
L 563.579088 75.90202 
L 564.065514 80.447972 
L 564.55194 82.054898 
L 564.795153 82.276924 
L 565.038366 81.563612 
L 565.281578 81.361712 
L 566.011217 86.310101 
L 566.497643 87.66948 
L 566.740856 87.201042 
L 566.984069 87.34793 
L 567.470495 91.270554 
L 567.713708 91.565647 
L 567.956921 91.569092 
L 568.200134 91.342377 
L 568.443347 90.679522 
L 568.68656 90.521223 
L 569.659412 97.782655 
L 569.902625 98.654135 
L 570.145837 98.746176 
L 570.38905 99.501182 
L 570.875476 105.805298 
L 571.118689 107.304313 
L 571.361902 108.108733 
L 571.605115 108.402177 
L 571.848328 108.057279 
L 572.091541 108.462033 
L 572.577967 113.225816 
L 573.064393 115.244009 
L 573.794032 118.074108 
L 574.766884 132.667881 
L 575.010097 134.401195 
L 575.496522 135.085405 
L 576.226161 141.552175 
L 576.712587 143.403285 
L 576.9558 143.144236 
L 577.199013 143.347773 
L 577.928652 149.83085 
L 578.415078 152.000134 
L 578.658291 152.200636 
L 578.901504 152.807757 
L 579.631143 159.714013 
L 580.117568 161.533225 
L 580.360781 161.263159 
L 580.603994 161.433027 
L 581.09042 166.121297 
L 581.576846 167.746453 
L 581.820059 168.390134 
L 582.063272 168.696762 
L 582.306485 169.666939 
L 582.792911 175.460351 
L 583.279337 178.00433 
L 583.52255 178.728004 
L 583.765763 178.656217 
L 584.008976 179.071511 
L 584.495402 183.568846 
L 584.738615 184.417911 
L 584.981828 184.562376 
L 585.22504 184.167381 
L 585.468253 182.983987 
L 585.711466 182.46682 
L 586.441105 187.54283 
L 586.927531 189.324539 
L 587.170744 189.356051 
L 587.413957 190.205552 
L 587.900383 196.037431 
L 588.386809 198.747826 
L 588.630022 199.497874 
L 588.873235 199.57086 
L 589.116448 199.998915 
L 589.602874 204.393125 
L 590.0893 206.177 
L 590.332512 206.411992 
L 590.575725 205.723653 
L 590.818938 205.557061 
L 591.548577 211.122876 
L 591.79179 212.032446 
L 592.035003 212.385689 
L 592.278216 211.85995 
L 592.521429 212.03163 
L 593.007855 216.288028 
L 593.251068 217.035586 
L 593.494281 217.26055 
L 593.737494 217.010259 
L 593.980707 216.191213 
L 594.22392 215.986641 
L 594.953559 220.952734 
L 595.196771 221.578431 
L 595.439984 221.795855 
L 595.683197 221.077247 
L 595.92641 220.837876 
L 596.412836 224.062773 
L 596.656049 224.541395 
L 596.899262 224.552673 
L 597.142475 224.011488 
L 597.628901 221.825703 
L 598.115327 224.356902 
L 598.35854 224.486935 
L 598.601753 224.1034 
L 598.844966 223.16613 
L 599.331392 220.130027 
L 599.817818 222.04437 
L 600.061031 222.020372 
L 600.304243 221.578184 
L 600.547456 220.788326 
L 601.033882 218.111785 
L 601.520308 220.031977 
L 601.763521 219.817234 
L 602.006734 219.273987 
L 602.249947 218.220103 
L 602.736373 214.956128 
L 603.222799 216.435226 
L 603.466012 216.003627 
L 603.709225 215.050571 
L 603.952438 213.613464 
L 604.438864 210.076732 
L 604.92529 211.616047 
L 605.168502 211.283566 
L 605.654928 209.484632 
L 606.141354 206.513266 
L 606.62778 208.978017 
L 606.870993 209.061346 
L 607.114206 208.673758 
L 607.357419 207.875343 
L 607.600632 206.324009 
L 607.843845 205.557834 
L 608.330271 208.5716 
L 608.573484 209.000223 
L 608.816697 208.795408 
L 609.05991 207.838661 
L 609.546336 205.33306 
L 610.032762 207.706388 
L 610.275974 207.636476 
L 610.519187 207.274706 
L 610.7624 206.452403 
L 611.005613 205.101845 
L 611.248826 204.833976 
L 611.735252 208.290463 
L 611.978465 208.484967 
L 612.221678 207.629946 
L 612.464891 205.892923 
L 612.951317 201.173652 
L 613.437743 202.732497 
L 613.680956 202.402453 
L 613.924169 201.520261 
L 614.653808 194.870774 
L 615.140233 195.038699 
L 615.626659 192.039146 
L 616.356298 184.169731 
L 616.842724 186.089468 
L 617.085937 185.342357 
L 617.32915 183.882819 
L 618.058789 175.172926 
L 618.302002 175.302802 
L 618.545215 175.574028 
L 619.031641 173.089536 
L 619.274854 171.298486 
L 619.518067 168.457014 
L 619.76128 166.995757 
L 620.247705 168.312161 
L 620.490918 167.60544 
L 620.977344 164.655685 
L 621.46377 161.125754 
L 621.950196 162.737894 
L 622.193409 161.242994 
L 623.166261 150.043324 
L 623.409474 150.529718 
L 623.652687 151.63188 
L 623.8959 151.439804 
L 624.139113 149.594821 
L 624.382326 146.652374 
L 624.868752 139.458467 
L 625.111965 139.798223 
L 625.355177 139.62555 
L 625.841603 134.445011 
L 626.571242 125.172336 
L 627.057668 129.338925 
L 627.300881 129.509934 
L 627.544094 128.514989 
L 627.787307 126.522452 
L 628.273733 119.683968 
L 628.516946 119.839975 
L 628.760159 121.009667 
L 629.003372 120.748378 
L 629.246585 120.158376 
L 629.489798 118.36571 
L 629.976224 113.929797 
L 630.219436 114.996421 
L 630.462649 116.589084 
L 630.949075 117.183571 
L 631.192288 116.602925 
L 631.678714 113.434462 
L 632.16514 118.290422 
L 632.408353 118.195703 
L 632.651566 117.915597 
L 632.894779 116.520808 
L 633.137992 113.796798 
L 633.381205 112.584014 
L 633.867631 115.930055 
L 634.59727 112.024913 
L 634.840483 109.408235 
L 635.083696 108.441667 
L 635.813334 115.931554 
L 636.056547 117.270345 
L 636.29976 116.307858 
L 636.786186 112.155881 
L 637.272612 116.199263 
L 637.515825 115.247115 
L 637.759038 112.814025 
L 638.245464 102.495659 
L 638.488677 97.677219 
L 638.73189 97.110987 
L 638.975103 96.064969 
L 640.191167 77.720145 
L 640.677593 84.27702 
L 640.920806 84.860091 
L 641.164019 84.470247 
L 641.407232 82.558726 
L 641.650445 79.722091 
L 641.893658 78.252168 
L 642.136871 80.282031 
L 642.380084 80.681402 
L 643.352936 71.88502 
L 643.596149 71.673279 
L 644.082575 82.655337 
L 644.812214 89.583956 
L 645.055427 90.700865 
L 645.298639 94.033929 
L 645.785065 114.437435 
L 646.028278 119.509358 
L 646.271491 122.043405 
L 646.514704 121.456379 
L 647.00113 113.090113 
L 647.487556 116.315745 
L 647.730769 116.078394 
L 647.973982 116.960503 
L 648.217195 116.794136 
L 648.460408 113.534343 
L 648.703621 112.226751 
L 649.190047 123.836965 
L 649.676473 130.806908 
L 650.649324 150.656614 
L 650.892537 157.291306 
L 651.13575 158.5396 
L 651.378963 158.718213 
L 651.622176 156.69325 
L 652.108602 143.344649 
L 652.351815 142.165413 
L 652.595028 140.020516 
L 652.838241 135.913753 
L 653.081454 135.535608 
L 653.324667 135.5655 
L 653.56788 133.61527 
L 653.811093 136.297368 
L 654.297519 155.758942 
L 654.540732 156.327159 
L 654.783945 155.767474 
L 655.027158 153.834451 
L 655.513583 144.084204 
L 655.756796 147.011512 
L 656.000009 148.079058 
L 656.486435 136.474672 
L 656.972861 117.671042 
L 657.216074 115.576701 
L 657.7025 130.654916 
L 658.188926 135.559948 
L 658.432139 134.129629 
L 658.918565 125.144578 
L 659.404991 131.896428 
L 659.648204 131.353479 
L 659.891417 129.277307 
L 660.13463 122.34179 
L 660.621055 101.967353 
L 661.350694 112.640134 
L 661.593907 112.041917 
L 661.83712 108.264569 
L 662.080333 100.994964 
L 662.323546 97.528874 
L 663.296398 141.721372 
L 663.539611 149.838367 
L 663.782824 150.469218 
L 664.026037 150.573126 
L 664.512463 175.280747 
L 664.755676 175.620384 
L 664.998889 171.245935 
L 665.728527 150.036496 
L 666.214953 159.719411 
L 666.458166 159.518815 
L 666.944592 166.504185 
L 667.187805 165.470279 
L 667.431018 163.807462 
L 667.917444 188.498417 
L 668.160657 187.730969 
L 668.40387 185.48332 
L 668.647083 178.807215 
L 669.133509 153.720522 
L 669.619935 184.093243 
L 669.863148 174.436586 
L 670.106361 156.325284 
L 670.349573 146.721223 
L 670.592786 143.598636 
L 670.835999 153.336114 
L 671.322425 194.625248 
L 671.565638 189.114676 
L 671.808851 190.098185 
L 672.052064 183.268322 
L 672.295277 170.158807 
L 672.53849 164.024852 
L 673.024916 189.507113 
L 673.268129 173.07804 
L 673.997768 73.699877 
L 674.240981 63.084702 
L 675.213833 148.902214 
L 675.457045 159.132454 
L 675.700258 155.694966 
L 675.943471 157.128831 
L 676.429897 225.402238 
L 676.67311 235.50146 
L 676.916323 238.857 
L 677.402749 215.584066 
L 677.645962 37.257 
L 677.645962 37.257 
" clip-path="url(#p2e29241d94)" style="fill: none; stroke: #4c72b0; stroke-width: 1.2; stroke-linecap: round"/>
   </g>
   <g id="patch_3">
    <path d="M 71.8025 248.937 
L 71.8025 27.177 
" style="fill: none; stroke: #cccccc; stroke-linejoin: miter; stroke-linecap: square"/>
   </g>
   <g id="patch_4">
    <path d="M 853.0025 248.937 
L 853.0025 27.177 
" style="fill: none; stroke: #cccccc; stroke-linejoin: miter; stroke-linecap: square"/>
   </g>
   <g id="patch_5">
    <path d="M 71.8025 248.937 
L 853.0025 248.937 
" style="fill: none; stroke: #cccccc; stroke-linejoin: miter; stroke-linecap: square"/>
   </g>
   <g id="patch_6">
    <path d="M 71.8025 27.177 
L 853.0025 27.177 
" style="fill: none; stroke: #cccccc; stroke-linejoin: miter; stroke-linecap: square"/>
   </g>
   <g id="text_15">
    <!-- Autocorrelation of consumption data -->
    <g style="fill: #262626" transform="translate(308.72 21.177) scale(0.192 -0.192)">
     <defs>
      <path id="ArialMT-41" d="M -9 0 
L 1750 4581 
L 2403 4581 
L 4278 0 
L 3588 0 
L 3053 1388 
L 1138 1388 
L 634 0 
L -9 0 
z
M 1313 1881 
L 2866 1881 
L 2388 3150 
Q 2169 3728 2063 4100 
Q 1975 3659 1816 3225 
L 1313 1881 
z
" transform="scale(0.015625)"/>
      <path id="ArialMT-75" d="M 2597 0 
L 2597 488 
Q 2209 -75 1544 -75 
Q 1250 -75 995 37 
Q 741 150 617 320 
Q 494 491 444 738 
Q 409 903 409 1263 
L 409 3319 
L 972 3319 
L 972 1478 
Q 972 1038 1006 884 
Q 1059 663 1231 536 
Q 1403 409 1656 409 
Q 1909 409 2131 539 
Q 2353 669 2445 892 
Q 2538 1116 2538 1541 
L 2538 3319 
L 3100 3319 
L 3100 0 
L 2597 0 
z
" transform="scale(0.015625)"/>
      <path id="ArialMT-6d" d="M 422 0 
L 422 3319 
L 925 3319 
L 925 2853 
Q 1081 3097 1340 3245 
Q 1600 3394 1931 3394 
Q 2300 3394 2536 3241 
Q 2772 3088 2869 2813 
Q 3263 3394 3894 3394 
Q 4388 3394 4653 3120 
Q 4919 2847 4919 2278 
L 4919 0 
L 4359 0 
L 4359 2091 
Q 4359 2428 4304 2576 
Q 4250 2725 4106 2815 
Q 3963 2906 3769 2906 
Q 3419 2906 3187 2673 
Q 2956 2441 2956 1928 
L 2956 0 
L 2394 0 
L 2394 2156 
Q 2394 2531 2256 2718 
Q 2119 2906 1806 2906 
Q 1569 2906 1367 2781 
Q 1166 2656 1075 2415 
Q 984 2175 984 1722 
L 984 0 
L 422 0 
z
" transform="scale(0.015625)"/>
      <path id="ArialMT-70" d="M 422 -1272 
L 422 3319 
L 934 3319 
L 934 2888 
Q 1116 3141 1344 3267 
Q 1572 3394 1897 3394 
Q 2322 3394 2647 3175 
Q 2972 2956 3137 2557 
Q 3303 2159 3303 1684 
Q 3303 1175 3120 767 
Q 2938 359 2589 142 
Q 2241 -75 1856 -75 
Q 1575 -75 1351 44 
Q 1128 163 984 344 
L 984 -1272 
L 422 -1272 
z
M 931 1641 
Q 931 1000 1190 694 
Q 1450 388 1819 388 
Q 2194 388 2461 705 
Q 2728 1022 2728 1688 
Q 2728 2322 2467 2637 
Q 2206 2953 1844 2953 
Q 1484 2953 1207 2617 
Q 931 2281 931 1641 
z
" transform="scale(0.015625)"/>
     </defs>
     <use xlink:href="#ArialMT-41"/>
     <use xlink:href="#ArialMT-75" x="66.699219"/>
     <use xlink:href="#ArialMT-74" x="122.314453"/>
     <use xlink:href="#ArialMT-6f" x="150.097656"/>
     <use xlink:href="#ArialMT-63" x="205.712891"/>
     <use xlink:href="#ArialMT-6f" x="255.712891"/>
     <use xlink:href="#ArialMT-72" x="311.328125"/>
     <use xlink:href="#ArialMT-72" x="344.628906"/>
     <use xlink:href="#ArialMT-65" x="377.929688"/>
     <use xlink:href="#ArialMT-6c" x="433.544922"/>
     <use xlink:href="#ArialMT-61" x="455.761719"/>
     <use xlink:href="#ArialMT-74" x="511.376953"/>
     <use xlink:href="#ArialMT-69" x="539.160156"/>
     <use xlink:href="#ArialMT-6f" x="561.376953"/>
     <use xlink:href="#ArialMT-6e" x="616.992188"/>
     <use xlink:href="#ArialMT-20" x="672.607422"/>
     <use xlink:href="#ArialMT-6f" x="700.390625"/>
     <use xlink:href="#ArialMT-66" x="756.005859"/>
     <use xlink:href="#ArialMT-20" x="783.789062"/>
     <use xlink:href="#ArialMT-63" x="811.572266"/>
     <use xlink:href="#ArialMT-6f" x="861.572266"/>
     <use xlink:href="#ArialMT-6e" x="917.1875"/>
     <use xlink:href="#ArialMT-73" x="972.802734"/>
     <use xlink:href="#ArialMT-75" x="1022.802734"/>
     <use xlink:href="#ArialMT-6d" x="1078.417969"/>
     <use xlink:href="#ArialMT-70" x="1161.71875"/>
     <use xlink:href="#ArialMT-74" x="1217.333984"/>
     <use xlink:href="#ArialMT-69" x="1245.117188"/>
     <use xlink:href="#ArialMT-6f" x="1267.333984"/>
     <use xlink:href="#ArialMT-6e" x="1322.949219"/>
     <use xlink:href="#ArialMT-20" x="1378.564453"/>
     <use xlink:href="#ArialMT-64" x="1406.347656"/>
     <use xlink:href="#ArialMT-61" x="1461.962891"/>
     <use xlink:href="#ArialMT-74" x="1517.578125"/>
     <use xlink:href="#ArialMT-61" x="1545.361328"/>
    </g>
   </g>
  </g>
 </g>
 <defs>
  <clipPath id="p2e29241d94">
   <rect x="71.8025" y="27.177" width="781.2" height="221.76"/>
  </clipPath>
 </defs>
</svg>
