<?xml version="1.0" encoding="utf-8" standalone="no"?>
<!DOCTYPE svg PUBLIC "-//W3C//DTD SVG 1.1//EN"
  "http://www.w3.org/Graphics/SVG/1.1/DTD/svg11.dtd">
<svg xmlns:xlink="http://www.w3.org/1999/xlink" width="855.05475pt" height="224.652828pt" viewBox="0 0 855.05475 224.652828" xmlns="http://www.w3.org/2000/svg" version="1.1">
 <metadata>
  <rdf:RDF xmlns:dc="http://purl.org/dc/elements/1.1/" xmlns:cc="http://creativecommons.org/ns#" xmlns:rdf="http://www.w3.org/1999/02/22-rdf-syntax-ns#">
   <cc:Work>
    <dc:type rdf:resource="http://purl.org/dc/dcmitype/StillImage"/>
    <dc:date>2023-05-11T17:20:31.813402</dc:date>
    <dc:format>image/svg+xml</dc:format>
    <dc:creator>
     <cc:Agent>
      <dc:title>Matplotlib v3.7.1, https://matplotlib.org/</dc:title>
     </cc:Agent>
    </dc:creator>
   </cc:Work>
  </rdf:RDF>
 </metadata>
 <defs>
  <style type="text/css">*{stroke-linejoin: round; stroke-linecap: butt}</style>
 </defs>
 <g id="figure_1">
  <g id="patch_1">
   <path d="M 0 224.652828 
L 855.05475 224.652828 
L 855.05475 0 
L 0 0 
z
" style="fill: #ffffff"/>
  </g>
  <g id="axes_1">
   <g id="patch_2">
    <path d="M 66.65475 154.08 
L 847.85475 154.08 
L 847.85475 7.2 
L 66.65475 7.2 
z
" style="fill: #ffffff"/>
   </g>
   <g id="matplotlib.axis_1">
    <g id="xtick_1">
     <g id="line2d_1">
      <path d="M 127.149205 154.08 
L 127.149205 7.2 
" clip-path="url(#p4bf2c65014)" style="fill: none; stroke: #cccccc; stroke-width: 0.8; stroke-linecap: round"/>
     </g>
     <g id="text_1">
      <!-- 2016 -->
      <g style="fill: #262626" transform="translate(91.496177 192.864472) rotate(-30) scale(0.176 -0.176)">
       <defs>
        <path id="ArialMT-32" d="M 3222 541 
L 3222 0 
L 194 0 
Q 188 203 259 391 
Q 375 700 629 1000 
Q 884 1300 1366 1694 
Q 2113 2306 2375 2664 
Q 2638 3022 2638 3341 
Q 2638 3675 2398 3904 
Q 2159 4134 1775 4134 
Q 1369 4134 1125 3890 
Q 881 3647 878 3216 
L 300 3275 
Q 359 3922 746 4261 
Q 1134 4600 1788 4600 
Q 2447 4600 2831 4234 
Q 3216 3869 3216 3328 
Q 3216 3053 3103 2787 
Q 2991 2522 2730 2228 
Q 2469 1934 1863 1422 
Q 1356 997 1212 845 
Q 1069 694 975 541 
L 3222 541 
z
" transform="scale(0.015625)"/>
        <path id="ArialMT-30" d="M 266 2259 
Q 266 3072 433 3567 
Q 600 4063 929 4331 
Q 1259 4600 1759 4600 
Q 2128 4600 2406 4451 
Q 2684 4303 2865 4023 
Q 3047 3744 3150 3342 
Q 3253 2941 3253 2259 
Q 3253 1453 3087 958 
Q 2922 463 2592 192 
Q 2263 -78 1759 -78 
Q 1097 -78 719 397 
Q 266 969 266 2259 
z
M 844 2259 
Q 844 1131 1108 757 
Q 1372 384 1759 384 
Q 2147 384 2411 759 
Q 2675 1134 2675 2259 
Q 2675 3391 2411 3762 
Q 2147 4134 1753 4134 
Q 1366 4134 1134 3806 
Q 844 3388 844 2259 
z
" transform="scale(0.015625)"/>
        <path id="ArialMT-31" d="M 2384 0 
L 1822 0 
L 1822 3584 
Q 1619 3391 1289 3197 
Q 959 3003 697 2906 
L 697 3450 
Q 1169 3672 1522 3987 
Q 1875 4303 2022 4600 
L 2384 4600 
L 2384 0 
z
" transform="scale(0.015625)"/>
        <path id="ArialMT-36" d="M 3184 3459 
L 2625 3416 
Q 2550 3747 2413 3897 
Q 2184 4138 1850 4138 
Q 1581 4138 1378 3988 
Q 1113 3794 959 3422 
Q 806 3050 800 2363 
Q 1003 2672 1297 2822 
Q 1591 2972 1913 2972 
Q 2475 2972 2870 2558 
Q 3266 2144 3266 1488 
Q 3266 1056 3080 686 
Q 2894 316 2569 119 
Q 2244 -78 1831 -78 
Q 1128 -78 684 439 
Q 241 956 241 2144 
Q 241 3472 731 4075 
Q 1159 4600 1884 4600 
Q 2425 4600 2770 4297 
Q 3116 3994 3184 3459 
z
M 888 1484 
Q 888 1194 1011 928 
Q 1134 663 1356 523 
Q 1578 384 1822 384 
Q 2178 384 2434 671 
Q 2691 959 2691 1453 
Q 2691 1928 2437 2201 
Q 2184 2475 1800 2475 
Q 1419 2475 1153 2201 
Q 888 1928 888 1484 
z
" transform="scale(0.015625)"/>
       </defs>
       <use xlink:href="#ArialMT-32"/>
       <use xlink:href="#ArialMT-30" x="55.615234"/>
       <use xlink:href="#ArialMT-31" x="111.230469"/>
       <use xlink:href="#ArialMT-36" x="166.845703"/>
      </g>
     </g>
    </g>
    <g id="xtick_2">
     <g id="line2d_2">
      <path d="M 226.547502 154.08 
L 226.547502 7.2 
" clip-path="url(#p4bf2c65014)" style="fill: none; stroke: #cccccc; stroke-width: 0.8; stroke-linecap: round"/>
     </g>
     <g id="text_2">
      <!-- 2017 -->
      <g style="fill: #262626" transform="translate(190.894473 192.864472) rotate(-30) scale(0.176 -0.176)">
       <defs>
        <path id="ArialMT-37" d="M 303 3981 
L 303 4522 
L 3269 4522 
L 3269 4084 
Q 2831 3619 2401 2847 
Q 1972 2075 1738 1259 
Q 1569 684 1522 0 
L 944 0 
Q 953 541 1156 1306 
Q 1359 2072 1739 2783 
Q 2119 3494 2547 3981 
L 303 3981 
z
" transform="scale(0.015625)"/>
       </defs>
       <use xlink:href="#ArialMT-32"/>
       <use xlink:href="#ArialMT-30" x="55.615234"/>
       <use xlink:href="#ArialMT-31" x="111.230469"/>
       <use xlink:href="#ArialMT-37" x="166.845703"/>
      </g>
     </g>
    </g>
    <g id="xtick_3">
     <g id="line2d_3">
      <path d="M 325.674218 154.08 
L 325.674218 7.2 
" clip-path="url(#p4bf2c65014)" style="fill: none; stroke: #cccccc; stroke-width: 0.8; stroke-linecap: round"/>
     </g>
     <g id="text_3">
      <!-- 2018 -->
      <g style="fill: #262626" transform="translate(290.02119 192.864472) rotate(-30) scale(0.176 -0.176)">
       <defs>
        <path id="ArialMT-38" d="M 1131 2484 
Q 781 2613 612 2850 
Q 444 3088 444 3419 
Q 444 3919 803 4259 
Q 1163 4600 1759 4600 
Q 2359 4600 2725 4251 
Q 3091 3903 3091 3403 
Q 3091 3084 2923 2848 
Q 2756 2613 2416 2484 
Q 2838 2347 3058 2040 
Q 3278 1734 3278 1309 
Q 3278 722 2862 322 
Q 2447 -78 1769 -78 
Q 1091 -78 675 323 
Q 259 725 259 1325 
Q 259 1772 486 2073 
Q 713 2375 1131 2484 
z
M 1019 3438 
Q 1019 3113 1228 2906 
Q 1438 2700 1772 2700 
Q 2097 2700 2305 2904 
Q 2513 3109 2513 3406 
Q 2513 3716 2298 3927 
Q 2084 4138 1766 4138 
Q 1444 4138 1231 3931 
Q 1019 3725 1019 3438 
z
M 838 1322 
Q 838 1081 952 856 
Q 1066 631 1291 507 
Q 1516 384 1775 384 
Q 2178 384 2440 643 
Q 2703 903 2703 1303 
Q 2703 1709 2433 1975 
Q 2163 2241 1756 2241 
Q 1359 2241 1098 1978 
Q 838 1716 838 1322 
z
" transform="scale(0.015625)"/>
       </defs>
       <use xlink:href="#ArialMT-32"/>
       <use xlink:href="#ArialMT-30" x="55.615234"/>
       <use xlink:href="#ArialMT-31" x="111.230469"/>
       <use xlink:href="#ArialMT-38" x="166.845703"/>
      </g>
     </g>
    </g>
    <g id="xtick_4">
     <g id="line2d_4">
      <path d="M 424.800935 154.08 
L 424.800935 7.2 
" clip-path="url(#p4bf2c65014)" style="fill: none; stroke: #cccccc; stroke-width: 0.8; stroke-linecap: round"/>
     </g>
     <g id="text_4">
      <!-- 2019 -->
      <g style="fill: #262626" transform="translate(389.147906 192.864472) rotate(-30) scale(0.176 -0.176)">
       <defs>
        <path id="ArialMT-39" d="M 350 1059 
L 891 1109 
Q 959 728 1153 556 
Q 1347 384 1650 384 
Q 1909 384 2104 503 
Q 2300 622 2425 820 
Q 2550 1019 2634 1356 
Q 2719 1694 2719 2044 
Q 2719 2081 2716 2156 
Q 2547 1888 2255 1720 
Q 1963 1553 1622 1553 
Q 1053 1553 659 1965 
Q 266 2378 266 3053 
Q 266 3750 677 4175 
Q 1088 4600 1706 4600 
Q 2153 4600 2523 4359 
Q 2894 4119 3086 3673 
Q 3278 3228 3278 2384 
Q 3278 1506 3087 986 
Q 2897 466 2520 194 
Q 2144 -78 1638 -78 
Q 1100 -78 759 220 
Q 419 519 350 1059 
z
M 2653 3081 
Q 2653 3566 2395 3850 
Q 2138 4134 1775 4134 
Q 1400 4134 1122 3828 
Q 844 3522 844 3034 
Q 844 2597 1108 2323 
Q 1372 2050 1759 2050 
Q 2150 2050 2401 2323 
Q 2653 2597 2653 3081 
z
" transform="scale(0.015625)"/>
       </defs>
       <use xlink:href="#ArialMT-32"/>
       <use xlink:href="#ArialMT-30" x="55.615234"/>
       <use xlink:href="#ArialMT-31" x="111.230469"/>
       <use xlink:href="#ArialMT-39" x="166.845703"/>
      </g>
     </g>
    </g>
    <g id="xtick_5">
     <g id="line2d_5">
      <path d="M 523.927651 154.08 
L 523.927651 7.2 
" clip-path="url(#p4bf2c65014)" style="fill: none; stroke: #cccccc; stroke-width: 0.8; stroke-linecap: round"/>
     </g>
     <g id="text_5">
      <!-- 2020 -->
      <g style="fill: #262626" transform="translate(488.274623 192.864472) rotate(-30) scale(0.176 -0.176)">
       <use xlink:href="#ArialMT-32"/>
       <use xlink:href="#ArialMT-30" x="55.615234"/>
       <use xlink:href="#ArialMT-32" x="111.230469"/>
       <use xlink:href="#ArialMT-30" x="166.845703"/>
      </g>
     </g>
    </g>
    <g id="xtick_6">
     <g id="line2d_6">
      <path d="M 623.325948 154.08 
L 623.325948 7.2 
" clip-path="url(#p4bf2c65014)" style="fill: none; stroke: #cccccc; stroke-width: 0.8; stroke-linecap: round"/>
     </g>
     <g id="text_6">
      <!-- 2021 -->
      <g style="fill: #262626" transform="translate(587.672919 192.864472) rotate(-30) scale(0.176 -0.176)">
       <use xlink:href="#ArialMT-32"/>
       <use xlink:href="#ArialMT-30" x="55.615234"/>
       <use xlink:href="#ArialMT-32" x="111.230469"/>
       <use xlink:href="#ArialMT-31" x="166.845703"/>
      </g>
     </g>
    </g>
    <g id="xtick_7">
     <g id="line2d_7">
      <path d="M 722.452664 154.08 
L 722.452664 7.2 
" clip-path="url(#p4bf2c65014)" style="fill: none; stroke: #cccccc; stroke-width: 0.8; stroke-linecap: round"/>
     </g>
     <g id="text_7">
      <!-- 2022 -->
      <g style="fill: #262626" transform="translate(686.799636 192.864472) rotate(-30) scale(0.176 -0.176)">
       <use xlink:href="#ArialMT-32"/>
       <use xlink:href="#ArialMT-30" x="55.615234"/>
       <use xlink:href="#ArialMT-32" x="111.230469"/>
       <use xlink:href="#ArialMT-32" x="166.845703"/>
      </g>
     </g>
    </g>
    <g id="xtick_8">
     <g id="line2d_8">
      <path d="M 821.579381 154.08 
L 821.579381 7.2 
" clip-path="url(#p4bf2c65014)" style="fill: none; stroke: #cccccc; stroke-width: 0.8; stroke-linecap: round"/>
     </g>
     <g id="text_8">
      <!-- 2023 -->
      <g style="fill: #262626" transform="translate(785.926352 192.864472) rotate(-30) scale(0.176 -0.176)">
       <defs>
        <path id="ArialMT-33" d="M 269 1209 
L 831 1284 
Q 928 806 1161 595 
Q 1394 384 1728 384 
Q 2125 384 2398 659 
Q 2672 934 2672 1341 
Q 2672 1728 2419 1979 
Q 2166 2231 1775 2231 
Q 1616 2231 1378 2169 
L 1441 2663 
Q 1497 2656 1531 2656 
Q 1891 2656 2178 2843 
Q 2466 3031 2466 3422 
Q 2466 3731 2256 3934 
Q 2047 4138 1716 4138 
Q 1388 4138 1169 3931 
Q 950 3725 888 3313 
L 325 3413 
Q 428 3978 793 4289 
Q 1159 4600 1703 4600 
Q 2078 4600 2393 4439 
Q 2709 4278 2876 4000 
Q 3044 3722 3044 3409 
Q 3044 3113 2884 2869 
Q 2725 2625 2413 2481 
Q 2819 2388 3044 2092 
Q 3269 1797 3269 1353 
Q 3269 753 2831 336 
Q 2394 -81 1725 -81 
Q 1122 -81 723 278 
Q 325 638 269 1209 
z
" transform="scale(0.015625)"/>
       </defs>
       <use xlink:href="#ArialMT-32"/>
       <use xlink:href="#ArialMT-30" x="55.615234"/>
       <use xlink:href="#ArialMT-32" x="111.230469"/>
       <use xlink:href="#ArialMT-33" x="166.845703"/>
      </g>
     </g>
    </g>
    <g id="text_9">
     <!-- Date -->
     <g style="fill: #262626" transform="translate(436.97775 213.636828) scale(0.192 -0.192)">
      <defs>
       <path id="ArialMT-44" d="M 494 0 
L 494 4581 
L 2072 4581 
Q 2606 4581 2888 4516 
Q 3281 4425 3559 4188 
Q 3922 3881 4101 3404 
Q 4281 2928 4281 2316 
Q 4281 1794 4159 1391 
Q 4038 988 3847 723 
Q 3656 459 3429 307 
Q 3203 156 2883 78 
Q 2563 0 2147 0 
L 494 0 
z
M 1100 541 
L 2078 541 
Q 2531 541 2789 625 
Q 3047 709 3200 863 
Q 3416 1078 3536 1442 
Q 3656 1806 3656 2325 
Q 3656 3044 3420 3430 
Q 3184 3816 2847 3947 
Q 2603 4041 2063 4041 
L 1100 4041 
L 1100 541 
z
" transform="scale(0.015625)"/>
       <path id="ArialMT-61" d="M 2588 409 
Q 2275 144 1986 34 
Q 1697 -75 1366 -75 
Q 819 -75 525 192 
Q 231 459 231 875 
Q 231 1119 342 1320 
Q 453 1522 633 1644 
Q 813 1766 1038 1828 
Q 1203 1872 1538 1913 
Q 2219 1994 2541 2106 
Q 2544 2222 2544 2253 
Q 2544 2597 2384 2738 
Q 2169 2928 1744 2928 
Q 1347 2928 1158 2789 
Q 969 2650 878 2297 
L 328 2372 
Q 403 2725 575 2942 
Q 747 3159 1072 3276 
Q 1397 3394 1825 3394 
Q 2250 3394 2515 3294 
Q 2781 3194 2906 3042 
Q 3031 2891 3081 2659 
Q 3109 2516 3109 2141 
L 3109 1391 
Q 3109 606 3145 398 
Q 3181 191 3288 0 
L 2700 0 
Q 2613 175 2588 409 
z
M 2541 1666 
Q 2234 1541 1622 1453 
Q 1275 1403 1131 1340 
Q 988 1278 909 1158 
Q 831 1038 831 891 
Q 831 666 1001 516 
Q 1172 366 1500 366 
Q 1825 366 2078 508 
Q 2331 650 2450 897 
Q 2541 1088 2541 1459 
L 2541 1666 
z
" transform="scale(0.015625)"/>
       <path id="ArialMT-74" d="M 1650 503 
L 1731 6 
Q 1494 -44 1306 -44 
Q 1000 -44 831 53 
Q 663 150 594 308 
Q 525 466 525 972 
L 525 2881 
L 113 2881 
L 113 3319 
L 525 3319 
L 525 4141 
L 1084 4478 
L 1084 3319 
L 1650 3319 
L 1650 2881 
L 1084 2881 
L 1084 941 
Q 1084 700 1114 631 
Q 1144 563 1211 522 
Q 1278 481 1403 481 
Q 1497 481 1650 503 
z
" transform="scale(0.015625)"/>
       <path id="ArialMT-65" d="M 2694 1069 
L 3275 997 
Q 3138 488 2766 206 
Q 2394 -75 1816 -75 
Q 1088 -75 661 373 
Q 234 822 234 1631 
Q 234 2469 665 2931 
Q 1097 3394 1784 3394 
Q 2450 3394 2872 2941 
Q 3294 2488 3294 1666 
Q 3294 1616 3291 1516 
L 816 1516 
Q 847 969 1125 678 
Q 1403 388 1819 388 
Q 2128 388 2347 550 
Q 2566 713 2694 1069 
z
M 847 1978 
L 2700 1978 
Q 2663 2397 2488 2606 
Q 2219 2931 1791 2931 
Q 1403 2931 1139 2672 
Q 875 2413 847 1978 
z
" transform="scale(0.015625)"/>
      </defs>
      <use xlink:href="#ArialMT-44"/>
      <use xlink:href="#ArialMT-61" x="72.216797"/>
      <use xlink:href="#ArialMT-74" x="127.832031"/>
      <use xlink:href="#ArialMT-65" x="155.615234"/>
     </g>
    </g>
   </g>
   <g id="matplotlib.axis_2">
    <g id="ytick_1">
     <g id="line2d_9">
      <path d="M 66.65475 148.257781 
L 847.85475 148.257781 
" clip-path="url(#p4bf2c65014)" style="fill: none; stroke: #cccccc; stroke-width: 0.8; stroke-linecap: round"/>
     </g>
     <g id="text_10">
      <!-- 0 -->
      <g style="fill: #262626" transform="translate(48.5675 154.556656) scale(0.176 -0.176)">
       <use xlink:href="#ArialMT-30"/>
      </g>
     </g>
    </g>
    <g id="ytick_2">
     <g id="line2d_10">
      <path d="M 66.65475 105.90945 
L 847.85475 105.90945 
" clip-path="url(#p4bf2c65014)" style="fill: none; stroke: #cccccc; stroke-width: 0.8; stroke-linecap: round"/>
     </g>
     <g id="text_11">
      <!-- 100 -->
      <g style="fill: #262626" transform="translate(28.993 112.208325) scale(0.176 -0.176)">
       <use xlink:href="#ArialMT-31"/>
       <use xlink:href="#ArialMT-30" x="55.615234"/>
       <use xlink:href="#ArialMT-30" x="111.230469"/>
      </g>
     </g>
    </g>
    <g id="ytick_3">
     <g id="line2d_11">
      <path d="M 66.65475 63.561119 
L 847.85475 63.561119 
" clip-path="url(#p4bf2c65014)" style="fill: none; stroke: #cccccc; stroke-width: 0.8; stroke-linecap: round"/>
     </g>
     <g id="text_12">
      <!-- 200 -->
      <g style="fill: #262626" transform="translate(28.993 69.859994) scale(0.176 -0.176)">
       <use xlink:href="#ArialMT-32"/>
       <use xlink:href="#ArialMT-30" x="55.615234"/>
       <use xlink:href="#ArialMT-30" x="111.230469"/>
      </g>
     </g>
    </g>
    <g id="ytick_4">
     <g id="line2d_12">
      <path d="M 66.65475 21.212788 
L 847.85475 21.212788 
" clip-path="url(#p4bf2c65014)" style="fill: none; stroke: #cccccc; stroke-width: 0.8; stroke-linecap: round"/>
     </g>
     <g id="text_13">
      <!-- 300 -->
      <g style="fill: #262626" transform="translate(28.993 27.511663) scale(0.176 -0.176)">
       <use xlink:href="#ArialMT-33"/>
       <use xlink:href="#ArialMT-30" x="55.615234"/>
       <use xlink:href="#ArialMT-30" x="111.230469"/>
      </g>
     </g>
    </g>
    <g id="text_14">
     <!-- Price [EUR/MWh] -->
     <g style="fill: #262626" transform="translate(21.177 155.8455) rotate(-90) scale(0.192 -0.192)">
      <defs>
       <path id="ArialMT-50" d="M 494 0 
L 494 4581 
L 2222 4581 
Q 2678 4581 2919 4538 
Q 3256 4481 3484 4323 
Q 3713 4166 3852 3881 
Q 3991 3597 3991 3256 
Q 3991 2672 3619 2267 
Q 3247 1863 2275 1863 
L 1100 1863 
L 1100 0 
L 494 0 
z
M 1100 2403 
L 2284 2403 
Q 2872 2403 3119 2622 
Q 3366 2841 3366 3238 
Q 3366 3525 3220 3729 
Q 3075 3934 2838 4000 
Q 2684 4041 2272 4041 
L 1100 4041 
L 1100 2403 
z
" transform="scale(0.015625)"/>
       <path id="ArialMT-72" d="M 416 0 
L 416 3319 
L 922 3319 
L 922 2816 
Q 1116 3169 1280 3281 
Q 1444 3394 1641 3394 
Q 1925 3394 2219 3213 
L 2025 2691 
Q 1819 2813 1613 2813 
Q 1428 2813 1281 2702 
Q 1134 2591 1072 2394 
Q 978 2094 978 1738 
L 978 0 
L 416 0 
z
" transform="scale(0.015625)"/>
       <path id="ArialMT-69" d="M 425 3934 
L 425 4581 
L 988 4581 
L 988 3934 
L 425 3934 
z
M 425 0 
L 425 3319 
L 988 3319 
L 988 0 
L 425 0 
z
" transform="scale(0.015625)"/>
       <path id="ArialMT-63" d="M 2588 1216 
L 3141 1144 
Q 3050 572 2676 248 
Q 2303 -75 1759 -75 
Q 1078 -75 664 370 
Q 250 816 250 1647 
Q 250 2184 428 2587 
Q 606 2991 970 3192 
Q 1334 3394 1763 3394 
Q 2303 3394 2647 3120 
Q 2991 2847 3088 2344 
L 2541 2259 
Q 2463 2594 2264 2762 
Q 2066 2931 1784 2931 
Q 1359 2931 1093 2626 
Q 828 2322 828 1663 
Q 828 994 1084 691 
Q 1341 388 1753 388 
Q 2084 388 2306 591 
Q 2528 794 2588 1216 
z
" transform="scale(0.015625)"/>
       <path id="ArialMT-20" transform="scale(0.015625)"/>
       <path id="ArialMT-5b" d="M 434 -1272 
L 434 4581 
L 1675 4581 
L 1675 4116 
L 997 4116 
L 997 -806 
L 1675 -806 
L 1675 -1272 
L 434 -1272 
z
" transform="scale(0.015625)"/>
       <path id="ArialMT-45" d="M 506 0 
L 506 4581 
L 3819 4581 
L 3819 4041 
L 1113 4041 
L 1113 2638 
L 3647 2638 
L 3647 2100 
L 1113 2100 
L 1113 541 
L 3925 541 
L 3925 0 
L 506 0 
z
" transform="scale(0.015625)"/>
       <path id="ArialMT-55" d="M 3500 4581 
L 4106 4581 
L 4106 1934 
Q 4106 1244 3950 837 
Q 3794 431 3386 176 
Q 2978 -78 2316 -78 
Q 1672 -78 1262 144 
Q 853 366 678 786 
Q 503 1206 503 1934 
L 503 4581 
L 1109 4581 
L 1109 1938 
Q 1109 1341 1220 1058 
Q 1331 775 1601 622 
Q 1872 469 2263 469 
Q 2931 469 3215 772 
Q 3500 1075 3500 1938 
L 3500 4581 
z
" transform="scale(0.015625)"/>
       <path id="ArialMT-52" d="M 503 0 
L 503 4581 
L 2534 4581 
Q 3147 4581 3465 4457 
Q 3784 4334 3975 4021 
Q 4166 3709 4166 3331 
Q 4166 2844 3850 2509 
Q 3534 2175 2875 2084 
Q 3116 1969 3241 1856 
Q 3506 1613 3744 1247 
L 4541 0 
L 3778 0 
L 3172 953 
Q 2906 1366 2734 1584 
Q 2563 1803 2427 1890 
Q 2291 1978 2150 2013 
Q 2047 2034 1813 2034 
L 1109 2034 
L 1109 0 
L 503 0 
z
M 1109 2559 
L 2413 2559 
Q 2828 2559 3062 2645 
Q 3297 2731 3419 2920 
Q 3541 3109 3541 3331 
Q 3541 3656 3305 3865 
Q 3069 4075 2559 4075 
L 1109 4075 
L 1109 2559 
z
" transform="scale(0.015625)"/>
       <path id="ArialMT-2f" d="M 0 -78 
L 1328 4659 
L 1778 4659 
L 453 -78 
L 0 -78 
z
" transform="scale(0.015625)"/>
       <path id="ArialMT-4d" d="M 475 0 
L 475 4581 
L 1388 4581 
L 2472 1338 
Q 2622 884 2691 659 
Q 2769 909 2934 1394 
L 4031 4581 
L 4847 4581 
L 4847 0 
L 4263 0 
L 4263 3834 
L 2931 0 
L 2384 0 
L 1059 3900 
L 1059 0 
L 475 0 
z
" transform="scale(0.015625)"/>
       <path id="ArialMT-57" d="M 1294 0 
L 78 4581 
L 700 4581 
L 1397 1578 
Q 1509 1106 1591 641 
Q 1766 1375 1797 1488 
L 2669 4581 
L 3400 4581 
L 4056 2263 
Q 4303 1400 4413 641 
Q 4500 1075 4641 1638 
L 5359 4581 
L 5969 4581 
L 4713 0 
L 4128 0 
L 3163 3491 
Q 3041 3928 3019 4028 
Q 2947 3713 2884 3491 
L 1913 0 
L 1294 0 
z
" transform="scale(0.015625)"/>
       <path id="ArialMT-68" d="M 422 0 
L 422 4581 
L 984 4581 
L 984 2938 
Q 1378 3394 1978 3394 
Q 2347 3394 2619 3248 
Q 2891 3103 3008 2847 
Q 3125 2591 3125 2103 
L 3125 0 
L 2563 0 
L 2563 2103 
Q 2563 2525 2380 2717 
Q 2197 2909 1863 2909 
Q 1613 2909 1392 2779 
Q 1172 2650 1078 2428 
Q 984 2206 984 1816 
L 984 0 
L 422 0 
z
" transform="scale(0.015625)"/>
       <path id="ArialMT-5d" d="M 1363 -1272 
L 122 -1272 
L 122 -806 
L 800 -806 
L 800 4116 
L 122 4116 
L 122 4581 
L 1363 4581 
L 1363 -1272 
z
" transform="scale(0.015625)"/>
      </defs>
      <use xlink:href="#ArialMT-50"/>
      <use xlink:href="#ArialMT-72" x="66.699219"/>
      <use xlink:href="#ArialMT-69" x="100"/>
      <use xlink:href="#ArialMT-63" x="122.216797"/>
      <use xlink:href="#ArialMT-65" x="172.216797"/>
      <use xlink:href="#ArialMT-20" x="227.832031"/>
      <use xlink:href="#ArialMT-5b" x="255.615234"/>
      <use xlink:href="#ArialMT-45" x="283.398438"/>
      <use xlink:href="#ArialMT-55" x="350.097656"/>
      <use xlink:href="#ArialMT-52" x="422.314453"/>
      <use xlink:href="#ArialMT-2f" x="494.53125"/>
      <use xlink:href="#ArialMT-4d" x="522.314453"/>
      <use xlink:href="#ArialMT-57" x="605.615234"/>
      <use xlink:href="#ArialMT-68" x="700"/>
      <use xlink:href="#ArialMT-5d" x="755.615234"/>
     </g>
    </g>
   </g>
   <g id="line2d_13">
    <path d="M 102.163841 140.284014 
L 102.435421 140.309423 
L 102.707001 140.68844 
L 102.978581 140.712579 
L 103.521741 140.002609 
L 103.793321 139.922359 
L 104.064901 139.433448 
L 104.336481 139.91516 
L 104.879641 139.880011 
L 105.151221 139.459068 
L 105.422801 132.27658 
L 105.694381 139.93824 
L 106.237542 140.223244 
L 106.509122 133.744161 
L 106.780702 139.043208 
L 107.323862 140.049404 
L 107.595442 140.219644 
L 107.867022 140.120126 
L 108.138602 140.145535 
L 108.410182 140.29206 
L 108.681762 139.940781 
L 108.953342 139.975294 
L 109.224922 140.187036 
L 109.496502 140.060838 
L 109.768082 138.882919 
L 110.039662 140.115467 
L 110.582822 140.157816 
L 110.854402 140.00515 
L 111.397562 140.337796 
L 111.669142 140.2982 
L 111.940723 139.74492 
L 112.212303 140.919874 
L 112.755463 140.581299 
L 113.027043 140.565418 
L 113.298623 140.364264 
L 113.570203 140.566265 
L 114.113363 140.148076 
L 114.656523 140.769326 
L 114.928103 140.528364 
L 115.199683 139.110542 
L 115.471263 140.068673 
L 115.742843 140.321916 
L 116.014423 140.211598 
L 116.286003 140.497449 
L 116.557583 140.391579 
L 116.829163 140.63487 
L 117.100743 140.550808 
L 117.372323 140.338643 
L 117.643903 140.316622 
L 117.915484 140.066132 
L 118.187064 140.205458 
L 118.458644 139.433448 
L 118.730224 139.953485 
L 119.001804 140.059356 
L 119.273384 140.409153 
L 119.544964 140.133465 
L 119.816544 139.200532 
L 120.088124 140.200799 
L 120.359704 140.643339 
L 120.631284 140.756833 
L 120.902864 139.619992 
L 121.446024 140.625765 
L 121.989184 140.905052 
L 122.260764 140.174543 
L 122.532344 140.878584 
L 122.803924 141.088844 
L 123.075504 141.840738 
L 123.347084 141.000336 
L 123.618664 141.852596 
L 123.890245 141.418526 
L 124.433405 141.42509 
L 124.704985 141.593212 
L 124.976565 141.593212 
L 125.248145 141.417043 
L 125.519725 142.345531 
L 125.791305 141.429113 
L 126.062885 140.984455 
L 126.334465 141.444993 
L 126.606045 140.989749 
L 127.420785 141.314349 
L 127.692365 137.511892 
L 127.963945 140.703898 
L 128.235525 140.822049 
L 128.507105 138.548579 
L 128.778685 141.227111 
L 129.050265 123.769012 
L 129.321845 141.384859 
L 129.593425 141.406033 
L 129.865006 140.010232 
L 130.136586 141.350557 
L 130.408166 139.211542 
L 130.679746 140.983608 
L 130.951326 141.115947 
L 131.222906 141.881393 
L 131.494486 138.924421 
L 131.766066 141.757947 
L 132.037646 141.698236 
L 132.309226 141.779333 
L 132.580806 142.089958 
L 132.852386 141.339122 
L 133.667126 142.163856 
L 133.938706 140.629364 
L 134.210286 140.815062 
L 134.481866 141.338276 
L 134.753446 140.015737 
L 135.025026 141.360297 
L 135.296606 141.355003 
L 135.568186 141.736138 
L 135.839767 141.878217 
L 136.111347 141.556158 
L 136.382927 141.460874 
L 136.654507 142.138447 
L 136.926087 142.334308 
L 137.469247 141.937293 
L 137.740827 141.646148 
L 138.012407 141.863183 
L 138.283987 141.85789 
L 138.555567 142.411382 
L 138.827147 142.329015 
L 139.098727 142.050151 
L 139.370307 140.846823 
L 139.641887 142.158774 
L 139.913467 142.552402 
L 140.456627 141.702683 
L 140.999787 142.497561 
L 141.271367 141.211231 
L 141.542947 141.460874 
L 141.814528 141.981335 
L 142.086108 141.804107 
L 142.357688 142.275232 
L 142.900848 142.365646 
L 143.172428 140.470982 
L 143.444008 140.465688 
L 143.715588 142.51323 
L 143.987168 142.139506 
L 144.258748 142.535886 
L 144.530328 142.273115 
L 144.801908 142.680718 
L 145.073488 142.558966 
L 145.345068 142.570612 
L 145.616648 142.699563 
L 145.888228 142.574 
L 146.159808 142.770496 
L 146.431388 141.668169 
L 146.702968 142.470458 
L 146.974548 142.361623 
L 147.789289 142.58734 
L 148.332449 142.619524 
L 148.604029 142.73577 
L 148.875609 141.527361 
L 149.147189 142.750381 
L 149.418769 142.112826 
L 149.690349 142.645568 
L 149.961929 142.532498 
L 150.233509 142.945818 
L 150.505089 142.907493 
L 150.776669 142.540756 
L 151.319829 142.604279 
L 151.591409 142.313558 
L 151.862989 142.727301 
L 152.406149 142.860486 
L 152.677729 141.854502 
L 152.949309 142.397831 
L 153.492469 143.008705 
L 153.764049 142.892459 
L 154.30721 143.061853 
L 154.57879 143.211977 
L 154.85037 142.955982 
L 155.12195 143.080698 
L 155.39353 142.934808 
L 155.93669 143.096578 
L 156.20827 142.802469 
L 156.47985 142.789553 
L 156.75143 142.590727 
L 157.29459 142.868321 
L 157.56617 142.647898 
L 157.83775 142.171479 
L 158.10933 142.390843 
L 158.38091 142.030882 
L 158.92407 140.309211 
L 159.19565 141.448169 
L 159.46723 142.013731 
L 159.73881 142.078101 
L 160.010391 142.538851 
L 160.281971 142.448014 
L 160.825131 142.775366 
L 161.368291 142.726877 
L 161.911451 142.681988 
L 162.454611 142.427051 
L 162.726191 142.539274 
L 163.269351 142.351671 
L 163.812511 142.657003 
L 164.355671 142.303606 
L 164.627251 142.443567 
L 165.985152 142.402277 
L 166.256732 142.306358 
L 166.799892 142.429804 
L 167.343052 142.13273 
L 167.614632 142.196041 
L 167.886212 142.043375 
L 168.429372 142.039564 
L 168.972532 141.875252 
L 169.515692 142.038717 
L 170.058852 141.862971 
L 170.330432 141.466167 
L 170.602012 141.725551 
L 170.873592 141.78992 
L 171.145172 142.051633 
L 171.416752 142.094828 
L 171.688332 141.98684 
L 171.959913 142.163221 
L 173.046233 141.885204 
L 173.317813 142.101816 
L 173.589393 141.604223 
L 173.860973 141.833116 
L 174.675713 141.602106 
L 174.947293 141.781874 
L 175.218873 141.766629 
L 175.490453 141.868053 
L 175.762033 141.63302 
L 176.033613 141.894944 
L 176.305193 141.654618 
L 176.576773 141.944492 
L 176.848353 142.037658 
L 177.391513 141.925647 
L 177.663093 141.93454 
L 178.206254 142.12299 
L 178.477834 142.015637 
L 179.020994 142.120661 
L 179.292574 141.687226 
L 179.564154 141.96736 
L 179.835734 141.857466 
L 181.193634 141.94788 
L 181.736794 141.855772 
L 182.008374 141.57352 
L 182.551534 141.757524 
L 182.823114 142.010979 
L 183.094694 141.751383 
L 183.366274 141.699295 
L 183.909435 141.892827 
L 184.181015 141.899814 
L 184.452595 142.098005 
L 185.810495 142.270786 
L 186.353655 142.435521 
L 186.625235 142.646204 
L 187.168395 142.551132 
L 187.711555 142.599409 
L 188.254715 142.903046 
L 188.526295 143.148455 
L 188.797875 142.924009 
L 189.069455 143.147184 
L 189.884196 142.960428 
L 190.155776 143.369937 
L 190.427356 143.468608 
L 190.698936 143.28037 
L 190.970516 143.251573 
L 191.242096 143.084932 
L 191.513676 143.229128 
L 192.328416 143.19525 
L 192.599996 142.837618 
L 192.871576 142.873402 
L 193.686316 142.645568 
L 194.229476 142.827666 
L 194.501056 142.622912 
L 194.772636 142.827243 
L 195.044216 142.873826 
L 195.587376 143.234846 
L 195.858957 143.197155 
L 196.130537 143.275923 
L 196.945277 143.154807 
L 197.488437 143.101872 
L 197.760017 142.72603 
L 198.031597 142.745934 
L 198.574757 142.482527 
L 198.846337 142.716078 
L 199.661077 142.366069 
L 199.932657 142.469823 
L 200.475817 142.212557 
L 200.747397 142.554943 
L 201.290557 142.29683 
L 201.562137 142.549861 
L 201.833717 142.334308 
L 202.105298 142.618677 
L 202.376878 142.014155 
L 202.920038 140.206305 
L 203.191618 140.60332 
L 203.463198 141.383588 
L 203.734778 141.258661 
L 204.549518 141.248285 
L 204.821098 141.115947 
L 205.092678 141.205937 
L 205.364258 141.122087 
L 205.635838 141.338276 
L 205.907418 140.93152 
L 206.178998 140.825649 
L 206.450578 139.15289 
L 206.722158 140.34923 
L 207.265318 140.788594 
L 208.080059 140.290154 
L 208.351639 140.513118 
L 208.623219 140.359817 
L 209.166379 140.492156 
L 209.437959 139.793408 
L 209.709539 140.449808 
L 209.981119 140.274274 
L 210.252699 138.98265 
L 210.524279 139.469655 
L 210.795859 139.692831 
L 211.339019 140.445149 
L 211.610599 140.264534 
L 211.882179 139.849096 
L 212.153759 139.85079 
L 212.425339 140.536622 
L 212.968499 140.274274 
L 213.240079 139.712311 
L 213.511659 139.900126 
L 214.05482 140.645457 
L 214.59798 140.481569 
L 214.86956 140.222185 
L 215.14114 140.120761 
L 215.6843 140.789441 
L 215.95588 140.158663 
L 216.22746 140.094293 
L 216.49904 139.168771 
L 216.77062 139.91516 
L 217.0422 139.248174 
L 217.31378 138.929714 
L 217.58536 139.772234 
L 218.12852 140.131772 
L 218.4001 140.360029 
L 218.67168 139.616392 
L 218.94326 139.785786 
L 219.21484 139.20879 
L 219.48642 139.611099 
L 219.758 140.473946 
L 220.301161 140.827131 
L 220.572741 140.762762 
L 220.844321 140.889171 
L 221.115901 140.658373 
L 221.387481 140.148076 
L 221.659061 140.383956 
L 221.930641 139.946921 
L 222.202221 139.798702 
L 222.473801 140.248653 
L 222.745381 140.359817 
L 223.016961 140.638469 
L 223.288541 139.579338 
L 223.560121 139.611099 
L 223.831701 140.142782 
L 224.103281 140.218162 
L 224.374861 140.571982 
L 224.646441 140.646939 
L 224.918021 139.465209 
L 225.189601 139.611099 
L 225.461181 140.120973 
L 225.732761 139.777528 
L 226.004342 138.528252 
L 226.275922 139.110542 
L 226.547502 138.84163 
L 226.819082 137.872912 
L 227.090662 138.792929 
L 227.362242 138.804575 
L 227.633822 137.761747 
L 227.905402 138.735759 
L 228.176982 138.905152 
L 228.448562 139.900338 
L 228.720142 139.597547 
L 228.991722 139.762282 
L 229.534882 138.803516 
L 229.806462 138.623536 
L 230.078042 139.264054 
L 230.349622 138.80881 
L 230.621202 138.58754 
L 230.892782 138.518724 
L 231.435942 139.221706 
L 231.979103 138.7347 
L 232.522263 134.845006 
L 232.793843 138.073007 
L 233.065423 138.338743 
L 233.337003 138.909387 
L 233.608583 138.687058 
L 233.880163 138.941148 
L 234.151743 139.551176 
L 234.966483 138.147117 
L 235.509643 138.427675 
L 235.781223 138.265692 
L 236.052803 137.856396 
L 236.324383 137.760689 
L 236.595963 137.898744 
L 236.867543 138.623747 
L 237.139123 138.830407 
L 237.410703 138.612949 
L 237.682283 139.068617 
L 237.953864 139.24288 
L 238.225444 139.15289 
L 238.768604 139.889751 
L 239.040184 140.032041 
L 239.311764 139.811618 
L 239.583344 139.947345 
L 239.854924 139.740896 
L 240.126504 139.798702 
L 240.398084 140.010444 
L 240.669664 140.052792 
L 240.941244 139.809289 
L 241.212824 139.851637 
L 242.027564 140.415717 
L 242.299144 140.232772 
L 242.570724 140.438373 
L 242.842304 140.449808 
L 243.385464 140.949306 
L 243.657044 140.361723 
L 243.928625 140.545091 
L 244.200205 140.51333 
L 245.014945 140.87689 
L 245.286525 141.10663 
L 245.558105 141.018122 
L 245.829685 141.107265 
L 246.101265 141.040567 
L 246.372845 141.241298 
L 246.644425 141.000971 
L 247.187585 141.116794 
L 248.002325 141.079739 
L 248.545485 141.349921 
L 248.817065 141.355638 
L 249.088645 141.684261 
L 249.360225 141.570768 
L 250.174966 141.764723 
L 250.446546 141.608458 
L 250.718126 141.615869 
L 250.989706 141.376812 
L 251.261286 141.446687 
L 251.804446 141.125899 
L 252.076026 141.165494 
L 252.347606 141.027227 
L 252.890766 140.999277 
L 253.162346 141.348651 
L 253.433926 141.373213 
L 253.705506 141.150884 
L 253.977086 141.302491 
L 254.520246 141.242145 
L 255.334986 141.330441 
L 255.606566 141.162318 
L 255.878146 140.782877 
L 256.149727 140.863551 
L 256.421307 141.217159 
L 256.692887 140.847035 
L 256.964467 141.091596 
L 257.236047 140.977679 
L 257.507627 141.098584 
L 257.779207 140.882819 
L 258.050787 141.106207 
L 258.322367 141.064705 
L 258.865527 141.333405 
L 259.137107 140.961164 
L 259.408687 140.208634 
L 259.680267 140.873926 
L 259.951847 140.859528 
L 260.495007 141.1115 
L 261.038167 140.96434 
L 261.309747 141.252732 
L 261.581327 141.129498 
L 261.852907 141.325994 
L 262.396068 141.440758 
L 262.667648 141.574156 
L 262.939228 141.397563 
L 263.753968 141.479719 
L 264.025548 141.359873 
L 265.926608 141.626668 
L 266.198188 141.709459 
L 266.469768 141.656311 
L 266.741348 141.425301 
L 267.012928 141.340816 
L 270.271889 141.654406 
L 270.543469 141.5966 
L 271.086629 141.682779 
L 271.901369 141.576908 
L 272.172949 141.424666 
L 272.444529 141.587284 
L 272.987689 141.613328 
L 273.259269 141.202337 
L 273.530849 141.648901 
L 273.802429 141.824646 
L 274.61717 141.653559 
L 275.70349 141.588342 
L 275.97507 141.685532 
L 276.24665 141.525243 
L 276.78981 141.611846 
L 277.33297 141.611634 
L 277.87613 141.689978 
L 278.14771 141.50661 
L 278.41929 141.569497 
L 278.69087 141.762394 
L 279.23403 141.696542 
L 279.77719 141.888169 
L 280.048771 141.861701 
L 280.320351 141.697601 
L 281.678251 141.768111 
L 281.949831 141.765994 
L 282.764571 141.472308 
L 283.307731 141.751172 
L 283.579311 141.839256 
L 283.850891 141.567168 
L 284.394051 141.773193 
L 284.665631 141.614387 
L 285.208791 141.638313 
L 285.480371 141.722798 
L 286.295112 141.341875 
L 286.566692 141.315619 
L 286.838272 141.13331 
L 287.381432 141.313713 
L 287.924592 141.385282 
L 288.467752 141.343569 
L 288.739332 141.128651 
L 289.282492 141.283223 
L 289.554072 141.110441 
L 290.097232 141.230287 
L 290.640392 141.036332 
L 290.911972 141.240874 
L 291.726712 141.19175 
L 291.998292 141.170364 
L 292.269873 140.942107 
L 292.813033 141.109383 
L 293.084613 141.252097 
L 293.356193 141.0033 
L 293.627773 141.164647 
L 293.899353 140.869691 
L 294.170933 140.997371 
L 294.442513 140.774407 
L 294.985673 141.08228 
L 295.257253 140.769326 
L 295.528833 140.783512 
L 296.615153 140.051521 
L 296.886733 140.676371 
L 297.158313 140.126055 
L 297.429893 140.586169 
L 297.701473 140.426304 
L 297.973053 140.697757 
L 298.244634 140.639952 
L 298.516214 141.063223 
L 299.059374 140.9474 
L 299.330954 140.603744 
L 300.145694 140.627035 
L 300.417274 140.942107 
L 300.688854 140.909922 
L 300.960434 140.733965 
L 301.503594 140.637622 
L 301.775174 140.16925 
L 302.046754 140.263051 
L 302.318334 140.201011 
L 302.589914 140.451501 
L 302.861494 140.121608 
L 303.947814 140.7346 
L 304.490975 140.779066 
L 304.762555 140.994619 
L 305.034135 141.010288 
L 305.305715 140.618777 
L 305.577295 139.554776 
L 305.848875 140.634658 
L 306.120455 140.938507 
L 306.392035 140.523917 
L 306.663615 139.047019 
L 306.935195 140.545091 
L 307.206775 140.773984 
L 308.021515 140.116314 
L 308.293095 140.529211 
L 308.564675 140.137489 
L 308.836255 140.249076 
L 309.379415 140.216892 
L 309.650995 140.331867 
L 309.922575 140.211598 
L 310.194156 140.420164 
L 310.465736 139.515603 
L 310.737316 139.763976 
L 311.008896 139.735179 
L 311.280476 139.9249 
L 311.552056 139.835757 
L 312.095216 139.057606 
L 312.366796 139.523438 
L 312.638376 139.285228 
L 312.909956 139.882763 
L 313.453116 139.821358 
L 313.996276 139.877258 
L 314.267856 139.565786 
L 314.811016 139.705324 
L 315.082596 139.375219 
L 315.354176 139.248809 
L 315.625756 139.248174 
L 316.168917 138.777048 
L 316.440497 139.205825 
L 316.712077 138.591775 
L 316.983657 139.015258 
L 317.255237 139.155854 
L 317.798397 138.972909 
L 318.069977 138.051833 
L 318.341557 138.671178 
L 318.613137 138.872332 
L 319.156297 138.534816 
L 319.427877 138.484421 
L 319.699457 138.561919 
L 319.971037 136.264522 
L 320.242617 135.543118 
L 320.514197 137.551911 
L 321.057357 138.628829 
L 321.328937 138.702939 
L 321.872097 137.70246 
L 322.415258 139.274641 
L 322.686838 139.174064 
L 322.958418 139.253467 
L 323.229998 139.746613 
L 323.501578 139.988634 
L 323.773158 139.855449 
L 324.044738 139.204978 
L 324.316318 139.0629 
L 324.859478 139.237587 
L 325.402638 140.01489 
L 325.674218 139.364632 
L 325.945798 137.427619 
L 326.217378 139.42286 
L 326.760538 139.692831 
L 327.032118 139.851637 
L 327.575278 138.856452 
L 327.846858 139.618722 
L 328.118439 139.57108 
L 328.390019 139.666363 
L 328.661599 138.099475 
L 328.933179 139.456316 
L 329.204759 139.338587 
L 329.476339 139.481089 
L 329.747919 138.260822 
L 330.019499 139.714005 
L 330.291079 139.555199 
L 330.562659 139.788115 
L 330.834239 139.42286 
L 331.105819 140.015737 
L 331.648979 139.957508 
L 331.920559 140.301588 
L 332.463719 140.21308 
L 332.735299 140.243359 
L 333.006879 140.593368 
L 333.278459 140.357065 
L 333.550039 140.382474 
L 333.821619 140.216892 
L 334.0932 139.502264 
L 334.63636 140.211598 
L 334.90794 139.161148 
L 335.4511 140.296295 
L 335.72268 139.72184 
L 335.99426 140.121608 
L 336.26584 140.111021 
L 336.809 140.380991 
L 337.08058 140.116314 
L 337.35216 140.021031 
L 338.43848 140.148076 
L 338.71006 139.618722 
L 338.98164 139.91516 
L 339.25322 139.396393 
L 339.5248 138.448849 
L 339.79638 138.55472 
L 340.339541 137.278976 
L 340.611121 137.194068 
L 341.154281 134.3093 
L 341.697441 58.055836 
L 342.240601 123.907491 
L 342.512181 135.642425 
L 342.783761 136.761691 
L 343.055341 139.121129 
L 343.598501 140.021031 
L 343.870081 139.671657 
L 344.141661 139.581667 
L 344.413241 139.795102 
L 344.956401 134.928644 
L 345.227981 134.875708 
L 345.499561 136.786677 
L 345.771141 136.506119 
L 346.314302 138.108368 
L 346.585882 136.463771 
L 346.857462 138.695528 
L 347.129042 138.38215 
L 348.215362 139.996892 
L 348.486942 139.576373 
L 348.758522 140.091964 
L 349.030102 123.441659 
L 349.301682 139.909655 
L 349.844842 139.901397 
L 350.116422 139.459704 
L 350.388002 139.625286 
L 350.931162 140.193812 
L 351.202742 139.172794 
L 351.474322 139.540589 
L 351.745902 139.534025 
L 352.017482 140.421011 
L 352.289063 140.004727 
L 352.560643 139.903302 
L 353.103803 137.458957 
L 353.375383 138.954911 
L 353.918543 139.53466 
L 354.190123 139.04596 
L 354.461703 139.831098 
L 354.733283 140.048769 
L 355.004863 139.696219 
L 355.276443 138.200052 
L 355.548023 139.512851 
L 355.819603 139.783668 
L 356.091183 139.764612 
L 356.362763 139.449328 
L 356.634343 139.675045 
L 356.905923 139.404015 
L 357.177503 139.37776 
L 357.449083 139.577008 
L 357.992243 139.520262 
L 358.263824 139.226999 
L 358.535404 139.254949 
L 359.078564 139.491465 
L 360.164884 139.459915 
L 360.436464 139.070522 
L 360.708044 139.164959 
L 361.251204 138.904093 
L 361.522784 138.953218 
L 361.794364 138.575259 
L 362.065944 138.90494 
L 362.609104 138.600668 
L 362.880684 137.363885 
L 363.152264 138.433392 
L 363.423844 138.632641 
L 363.967004 138.624806 
L 364.238585 138.301265 
L 364.781745 138.472987 
L 365.053325 138.729618 
L 365.596485 138.669907 
L 365.868065 138.306135 
L 366.139645 138.39189 
L 366.411225 138.217204 
L 366.954385 138.725807 
L 368.040705 138.784883 
L 368.312285 138.836548 
L 368.855445 138.735971 
L 369.670185 138.950888 
L 370.484926 138.459224 
L 370.756506 138.737876 
L 371.299666 138.686635 
L 371.571246 138.629676 
L 372.929146 138.86238 
L 373.200726 138.858569 
L 373.472306 138.705692 
L 373.743886 138.8465 
L 374.015466 138.694469 
L 374.287046 138.674142 
L 374.558626 138.831678 
L 375.101786 138.738511 
L 375.373366 138.609984 
L 375.644946 138.073007 
L 375.916526 138.441226 
L 376.188107 138.593892 
L 377.002847 138.547732 
L 377.817587 138.268022 
L 378.089167 138.608926 
L 378.632327 138.718608 
L 379.175487 138.58754 
L 379.447067 138.623536 
L 379.990227 138.388291 
L 380.261807 138.557684 
L 380.804967 138.597068 
L 381.076547 138.407136 
L 381.891287 138.513007 
L 382.162868 138.663343 
L 382.977608 138.597068 
L 383.792348 138.701033 
L 384.335508 138.511948 
L 385.964988 138.201323 
L 386.236568 138.319686 
L 386.508148 138.06115 
L 386.779728 137.634914 
L 387.051308 137.992546 
L 387.594468 137.95782 
L 388.137628 137.844962 
L 388.409209 137.796473 
L 388.952369 137.511892 
L 389.495529 137.470391 
L 390.038689 137.414703 
L 390.581849 137.272201 
L 391.396589 136.798323 
L 391.668169 137.003712 
L 391.939749 137.035473 
L 394.112389 136.025677 
L 394.38397 135.802078 
L 394.65555 135.899268 
L 395.47029 136.67763 
L 395.74187 136.597592 
L 396.01345 136.286331 
L 396.82819 136.095129 
L 397.09977 135.250279 
L 397.37135 135.854378 
L 397.64293 135.528296 
L 397.91451 135.638825 
L 398.18609 135.165159 
L 399.27241 136.424387 
L 399.81557 135.978247 
L 400.08715 136.082636 
L 400.358731 136.472452 
L 400.630311 136.567736 
L 400.901891 136.437938 
L 401.173471 136.550585 
L 401.445051 136.42968 
L 401.716631 136.167333 
L 402.531371 137.031874 
L 402.802951 137.46785 
L 403.889271 136.796629 
L 404.704011 137.083115 
L 404.975591 136.753433 
L 405.247171 136.928332 
L 405.518751 136.764868 
L 405.790331 137.014299 
L 406.061911 137.067235 
L 406.333492 137.268389 
L 406.605072 136.903135 
L 406.876652 137.593413 
L 407.148232 137.042884 
L 407.419812 136.823732 
L 407.691392 137.093702 
L 408.234552 138.006732 
L 408.777712 138.011602 
L 409.049292 137.517186 
L 409.592452 137.943633 
L 410.135612 137.46425 
L 410.950352 137.769582 
L 411.221932 136.691605 
L 411.493512 136.70198 
L 411.765092 136.484945 
L 412.036672 135.627391 
L 412.579833 136.819709 
L 413.122993 136.813145 
L 413.394573 137.033144 
L 413.666153 137.051354 
L 413.937733 137.340381 
L 414.752473 137.369178 
L 415.295633 137.141344 
L 415.567213 137.270718 
L 415.838793 137.542171 
L 416.110373 137.497705 
L 416.653533 137.706271 
L 416.925113 137.627291 
L 417.196693 136.898265 
L 417.468273 137.199573 
L 418.011433 138.290043 
L 418.283014 137.924788 
L 418.554594 137.750101 
L 418.826174 136.757457 
L 419.097754 137.889427 
L 419.640914 137.598283 
L 419.912494 137.224347 
L 420.455654 136.934896 
L 420.727234 137.35478 
L 420.998814 137.291257 
L 421.270394 137.572662 
L 421.541974 137.009006 
L 421.813554 137.490506 
L 422.085134 137.637667 
L 422.356714 137.586849 
L 422.899874 137.268389 
L 423.171454 137.220747 
L 423.714614 137.871853 
L 423.986194 137.707753 
L 424.257775 138.36394 
L 424.529355 138.38702 
L 424.800935 138.623536 
L 425.072515 138.172314 
L 425.344095 137.940669 
L 425.615675 138.401842 
L 426.430415 138.384691 
L 426.701995 138.818762 
L 426.973575 137.610987 
L 427.245155 138.511736 
L 427.516735 138.458801 
L 427.788315 138.522323 
L 428.059895 138.747828 
L 428.331475 137.846867 
L 428.874635 138.617607 
L 429.146215 137.880958 
L 429.417795 134.833995 
L 429.689375 138.178878 
L 430.232536 135.574456 
L 430.504116 137.496011 
L 430.775696 137.12017 
L 431.047276 127.295357 
L 431.318856 138.675836 
L 431.590436 138.86111 
L 431.862016 138.164903 
L 432.133596 137.030815 
L 432.405176 138.9511 
L 432.676756 138.411159 
L 432.948336 139.035797 
L 433.219916 139.136374 
L 433.491496 139.486383 
L 433.763076 139.24288 
L 434.034656 139.547365 
L 434.306236 139.481089 
L 434.849396 139.788962 
L 435.120976 139.761859 
L 435.392556 140.094505 
L 435.935716 139.743437 
L 436.478877 140.25924 
L 436.750457 140.042205 
L 437.565197 140.357276 
L 437.836777 140.142782 
L 438.108357 140.43922 
L 438.379937 139.708712 
L 438.651517 140.132195 
L 438.923097 140.243359 
L 439.194677 140.585957 
L 439.466257 140.427998 
L 440.009417 140.60332 
L 440.280997 140.523917 
L 440.552577 140.195718 
L 441.095737 140.488345 
L 441.367317 140.364899 
L 441.638897 139.82517 
L 441.910477 140.312175 
L 442.182057 140.398354 
L 442.453638 140.666843 
L 443.539958 140.312175 
L 444.626278 141.212077 
L 444.897858 141.462356 
L 445.169438 141.472943 
L 445.441018 141.183069 
L 445.712598 141.192386 
L 446.255758 141.577332 
L 446.527338 141.67685 
L 446.798918 141.327688 
L 447.070498 141.817023 
L 447.613658 141.668804 
L 448.428399 141.755195 
L 448.699979 142.055444 
L 448.971559 141.615657 
L 449.243139 141.682991 
L 449.786299 142.069208 
L 450.057879 141.544724 
L 450.329459 141.321124 
L 450.601039 140.296295 
L 450.872619 140.954388 
L 451.144199 141.022357 
L 451.687359 140.557372 
L 452.502099 140.982973 
L 453.045259 141.114041 
L 453.588419 141.551711 
L 453.859999 141.536042 
L 454.131579 141.786744 
L 454.94632 141.618833 
L 455.2179 141.637466 
L 455.48948 141.892615 
L 456.03264 141.758159 
L 456.30422 141.462991 
L 456.5758 141.661393 
L 457.11896 141.67685 
L 457.39054 141.844338 
L 458.47686 141.635137 
L 458.74844 141.583896 
L 459.56318 141.74249 
L 459.83476 141.209325 
L 460.10634 141.851749 
L 460.649501 141.844973 
L 460.921081 142.070902 
L 461.192661 142.065608 
L 461.464241 141.828669 
L 462.007401 142.443143 
L 462.550561 142.404183 
L 462.822141 142.112826 
L 463.093721 142.45606 
L 463.365301 142.085512 
L 463.908461 142.852017 
L 464.180041 142.923585 
L 464.451621 142.750592 
L 464.994781 142.768167 
L 465.537941 143.221718 
L 465.809521 143.681409 
L 466.081101 143.815441 
L 466.352682 143.523661 
L 466.624262 143.824969 
L 467.439002 143.36189 
L 467.710582 143.570244 
L 468.253742 143.580196 
L 468.525322 143.308532 
L 469.068482 143.502699 
L 469.340062 143.296674 
L 469.611642 143.287993 
L 469.883222 143.547376 
L 470.697962 143.451457 
L 471.241122 143.874517 
L 471.512702 145.873104 
L 471.784282 145.662569 
L 472.055862 143.78368 
L 472.327443 143.838944 
L 472.599023 145.878736 
L 472.870603 145.609126 
L 473.142183 143.904373 
L 473.413763 146.013595 
L 473.956923 145.949437 
L 474.228503 143.318907 
L 474.500083 143.329494 
L 474.771663 143.663622 
L 475.043243 143.6524 
L 475.314823 143.414402 
L 475.586403 143.498676 
L 475.857983 142.96424 
L 476.672723 143.157136 
L 476.944303 142.740429 
L 477.215883 142.922527 
L 477.487463 142.92422 
L 477.759043 142.78553 
L 478.030623 142.394019 
L 478.302204 143.066299 
L 478.573784 143.360197 
L 479.388524 143.607511 
L 479.660104 143.451245 
L 479.931684 143.4883 
L 480.203264 143.293286 
L 480.474844 143.610052 
L 480.746424 143.662987 
L 481.289584 143.942486 
L 481.561164 143.842968 
L 481.832744 143.926817 
L 482.104324 145.86023 
L 482.375904 143.736673 
L 482.647484 143.496346 
L 483.462224 143.398522 
L 484.005384 143.965142 
L 484.276964 145.868594 
L 484.548545 145.852692 
L 484.820125 143.753189 
L 485.091705 143.88214 
L 485.634865 143.560292 
L 485.906445 143.59523 
L 486.178025 143.888492 
L 486.449605 143.986105 
L 486.721185 145.867175 
L 487.264345 145.946113 
L 487.535925 145.933387 
L 487.807505 143.922159 
L 488.350665 143.825605 
L 488.622245 145.61154 
L 488.893825 145.944588 
L 489.165405 143.90649 
L 489.436985 143.790244 
L 490.251725 143.923006 
L 490.523306 145.876619 
L 491.066466 146.052682 
L 491.338046 145.970167 
L 491.609626 146.391067 
L 492.152786 146.376711 
L 492.424366 143.874729 
L 492.695946 146.208101 
L 492.967526 146.127787 
L 493.239106 143.994998 
L 493.782266 143.757424 
L 494.053846 143.357656 
L 494.597006 142.982026 
L 495.140166 143.125375 
L 495.411746 143.834921 
L 495.683326 144.007914 
L 495.954906 145.935991 
L 496.226486 144.073554 
L 496.498067 146.117856 
L 496.769647 146.054546 
L 497.041227 143.557116 
L 497.312807 143.607511 
L 497.584387 143.297521 
L 497.855967 143.794055 
L 498.127547 145.901096 
L 498.399127 143.846144 
L 498.670707 143.772034 
L 498.942287 146.056557 
L 499.213867 143.90649 
L 499.485447 143.689455 
L 499.757027 142.366069 
L 500.028607 143.198638 
L 500.571767 143.063758 
L 501.114927 143.875364 
L 501.386507 145.792473 
L 501.658087 143.599465 
L 501.929667 143.749166 
L 502.201247 145.998074 
L 502.472828 145.952931 
L 502.744408 143.852496 
L 503.015988 142.667801 
L 503.287568 143.228917 
L 503.559148 143.515191 
L 503.830728 143.281852 
L 504.102308 143.599465 
L 504.645468 143.355962 
L 505.460208 143.684161 
L 505.731788 143.864142 
L 506.003368 145.946303 
L 506.274948 142.450766 
L 506.546528 142.754827 
L 506.818108 143.2791 
L 507.089688 143.530225 
L 507.361268 142.962546 
L 507.632848 143.177464 
L 507.904428 143.644566 
L 508.176008 143.292439 
L 508.447589 142.074925 
L 508.990749 142.002297 
L 509.262329 141.460874 
L 509.533909 141.897909 
L 510.077069 140.863339 
L 510.348649 141.404127 
L 511.163389 141.401163 
L 511.434969 141.20149 
L 511.706549 140.86101 
L 511.978129 141.441182 
L 512.249709 141.118276 
L 513.607609 141.171211 
L 513.879189 140.662184 
L 514.150769 140.79537 
L 514.42235 141.187939 
L 514.69393 141.169729 
L 515.50867 140.539163 
L 515.78025 140.735024 
L 516.05183 141.152366 
L 516.32341 141.336582 
L 516.59499 141.20149 
L 517.13815 141.752019 
L 517.95289 141.504704 
L 518.49605 142.062855 
L 518.76763 142.016484 
L 519.03921 142.355482 
L 519.31079 142.339602 
L 519.58237 142.149034 
L 519.85395 142.434886 
L 520.12553 141.704377 
L 520.397111 142.371998 
L 520.668691 142.360776 
L 520.940271 142.561931 
L 521.211851 142.307841 
L 521.483431 142.493114 
L 522.026591 143.385394 
L 522.298171 142.551343 
L 522.569751 142.387244 
L 522.841331 141.61968 
L 523.112911 142.307841 
L 523.384491 142.365434 
L 523.656071 142.628417 
L 524.199231 142.339602 
L 524.470811 142.593692 
L 525.285551 142.302547 
L 525.557131 142.506031 
L 525.828711 142.85244 
L 526.100291 142.920409 
L 526.371872 142.861121 
L 526.643452 142.63604 
L 526.915032 142.561931 
L 527.186612 142.736194 
L 527.458192 142.745722 
L 527.729772 143.07011 
L 528.272932 142.89013 
L 528.544512 143.07011 
L 529.087672 143.064817 
L 529.359252 143.21833 
L 529.630832 143.07011 
L 529.902412 143.250091 
L 530.173992 143.112459 
L 531.531892 143.165394 
L 531.803472 143.502699 
L 532.346632 143.855884 
L 532.889793 143.535942 
L 533.976113 143.830687 
L 534.247693 143.530649 
L 534.519273 143.812477 
L 534.790853 143.758271 
L 535.062433 143.546529 
L 535.334013 143.811206 
L 535.605593 143.604758 
L 535.877173 143.684161 
L 536.148753 146.041312 
L 536.420333 146.043514 
L 536.691913 143.47242 
L 536.963493 143.604758 
L 537.235073 143.456539 
L 537.778233 143.6524 
L 538.049813 143.566221 
L 538.321393 143.842332 
L 538.592974 143.461833 
L 538.864554 143.737097 
L 539.136134 143.47242 
L 539.407714 143.662987 
L 539.679294 145.823599 
L 539.950874 145.830819 
L 540.222454 143.973189 
L 540.494034 143.710629 
L 540.765614 145.770621 
L 541.037194 143.853766 
L 541.308774 143.808242 
L 541.580354 145.888731 
L 541.851934 144.022948 
L 542.123514 146.062825 
L 542.395094 145.72948 
L 542.666674 143.90649 
L 542.938254 143.948838 
L 543.209834 145.93199 
L 543.481414 143.917077 
L 543.752994 143.6524 
L 544.024574 144.035229 
L 544.296154 145.997524 
L 544.567735 146.189129 
L 544.839315 146.054228 
L 545.110895 145.766556 
L 545.654055 146.106401 
L 546.197215 146.142143 
L 546.468795 146.221737 
L 546.740375 146.062274 
L 547.011955 146.261248 
L 547.283535 146.099033 
L 547.555115 146.449296 
L 547.826695 146.392951 
L 548.098275 146.155186 
L 548.369855 146.429349 
L 548.641435 146.345754 
L 549.184595 146.459798 
L 549.456175 146.196349 
L 549.727755 146.531388 
L 550.542496 146.272809 
L 551.085656 146.512903 
L 551.357236 146.408133 
L 551.628816 146.524739 
L 551.900396 146.364662 
L 552.443556 146.319413 
L 552.715136 146.538439 
L 553.801456 146.485482 
L 554.073036 146.67353 
L 555.430936 146.820521 
L 556.517257 146.720537 
L 557.331997 146.823676 
L 558.418317 146.830854 
L 559.233057 146.910786 
L 559.776217 146.64143 
L 560.047797 146.897828 
L 562.220437 147.196214 
L 562.492018 147.39108 
L 563.035178 147.026419 
L 563.306758 146.978671 
L 563.578338 147.277121 
L 563.849918 147.058201 
L 565.207818 147.403636 
L 565.479398 147.364358 
L 566.294138 146.988305 
L 566.837298 147.086214 
L 567.652038 147.086871 
L 568.195198 147.14457 
L 569.009939 147.054326 
L 569.281519 146.929377 
L 569.824679 147.04484 
L 571.725739 146.927218 
L 572.268899 147.102667 
L 572.812059 147.101989 
L 573.355219 146.861387 
L 574.169959 147.013545 
L 574.71312 146.980767 
L 574.9847 146.80896 
L 576.61418 147.094684 
L 576.88576 146.932808 
L 580.959461 147.105081 
L 581.502621 147.045624 
L 582.045781 146.99597 
L 582.317361 146.743151 
L 582.588941 146.829329 
L 582.860521 146.65388 
L 583.403681 146.575684 
L 583.946841 146.506762 
L 584.490001 146.555357 
L 585.304741 146.700696 
L 586.934222 146.203209 
L 587.477382 146.728138 
L 588.020542 146.608822 
L 588.835282 146.095496 
L 589.106862 146.219175 
L 589.378442 146.089335 
L 589.921602 146.035341 
L 590.193182 144.039252 
L 590.464762 143.64753 
L 590.736342 143.665105 
L 591.279502 143.369301 
L 591.822662 143.376924 
L 592.094242 143.512651 
L 592.365822 143.785797 
L 592.637403 143.763776 
L 592.908983 143.856942 
L 593.180563 144.104257 
L 593.995303 143.920677 
L 594.266883 143.83471 
L 594.538463 143.598618 
L 594.810043 143.517521 
L 595.081623 143.654306 
L 595.624783 143.545894 
L 596.982683 142.96424 
L 597.254263 142.974827 
L 597.797423 142.763085 
L 598.069003 142.842065 
L 598.340583 142.567224 
L 598.612164 142.868956 
L 598.883744 142.646627 
L 599.155324 142.741911 
L 599.426904 142.387244 
L 599.698484 142.282643 
L 599.970064 142.314405 
L 600.241644 142.027283 
L 600.513224 142.096099 
L 600.784804 141.93327 
L 601.056384 142.239025 
L 601.599544 141.995522 
L 601.871124 142.185877 
L 602.414284 142.004838 
L 602.685864 141.582625 
L 602.957444 141.796484 
L 603.500604 141.572038 
L 603.772184 141.69379 
L 604.315344 141.534984 
L 604.586925 141.566745 
L 604.858505 141.714964 
L 605.130085 141.612904 
L 605.944825 141.857678 
L 606.759565 142.488456 
L 607.031145 142.454789 
L 607.574305 141.736138 
L 607.845885 141.831422 
L 608.117465 141.789073 
L 608.389045 142.096099 
L 608.660625 141.94788 
L 608.932205 141.926706 
L 609.203785 141.767899 
L 609.746945 142.107109 
L 610.290105 142.048457 
L 610.561686 142.344048 
L 610.833266 141.842009 
L 611.104846 141.969054 
L 611.376426 142.30657 
L 612.191166 142.329015 
L 612.462746 142.557696 
L 612.734326 142.485915 
L 613.277486 141.407939 
L 613.549066 141.842009 
L 613.820646 141.910825 
L 614.092226 141.699083 
L 614.363806 141.677909 
L 614.635386 141.296774 
L 615.178546 141.6038 
L 615.450126 141.640854 
L 615.721706 141.916118 
L 615.993286 140.253946 
L 616.264866 141.70967 
L 616.536447 141.587919 
L 616.808027 141.778486 
L 617.079607 141.487342 
L 618.709087 141.02151 
L 618.980667 140.714485 
L 619.252247 141.208478 
L 620.066987 141.473578 
L 620.338567 141.079739 
L 620.881727 140.851058 
L 621.153307 140.650327 
L 621.968047 140.656256 
L 622.239627 140.576853 
L 622.782788 139.703418 
L 623.054368 139.700242 
L 623.325948 139.809289 
L 623.597528 139.700242 
L 623.869108 139.714005 
L 624.140688 139.099954 
L 624.412268 139.232293 
L 624.683848 139.941628 
L 624.955428 140.179837 
L 625.227008 139.306403 
L 625.498588 139.221706 
L 625.770168 139.406768 
L 626.041748 138.623536 
L 626.313328 137.46425 
L 626.584908 136.950777 
L 627.128068 138.792929 
L 627.671228 138.771755 
L 627.942808 139.115835 
L 628.214388 139.211119 
L 628.485968 139.15289 
L 628.757549 139.343457 
L 629.300709 138.231814 
L 629.572289 138.348272 
L 629.843869 137.988311 
L 630.115449 138.856452 
L 630.387029 139.264054 
L 630.930189 138.962322 
L 631.473349 139.057606 
L 631.744929 139.079839 
L 632.288089 140.144688 
L 632.559669 140.198258 
L 632.831249 139.788115 
L 633.102829 139.777528 
L 633.917569 137.141344 
L 634.189149 138.687058 
L 635.00389 140.101916 
L 635.27547 139.955814 
L 635.81863 140.47204 
L 636.09021 140.492156 
L 636.36179 140.804475 
L 636.63337 140.460395 
L 637.17653 141.071269 
L 637.44811 141.04459 
L 637.71969 141.311173 
L 638.53443 141.268189 
L 638.80601 140.703898 
L 639.07759 141.016216 
L 639.34917 140.402166 
L 639.62075 140.815062 
L 639.89233 140.984455 
L 640.707071 140.682723 
L 640.978651 140.796429 
L 641.250231 140.550385 
L 641.793391 140.486862 
L 642.064971 140.211598 
L 642.336551 140.299683 
L 642.879711 139.745767 
L 643.422871 139.666363 
L 643.694451 140.100434 
L 643.966031 139.809289 
L 644.509191 140.179837 
L 644.780771 140.312175 
L 645.595511 139.999857 
L 646.138671 140.166709 
L 646.410251 140.094717 
L 647.224992 140.28232 
L 648.039732 139.470502 
L 648.311312 139.534025 
L 648.582892 139.449328 
L 649.126052 138.999377 
L 649.397632 139.009964 
L 649.669212 139.15289 
L 649.940792 139.575526 
L 650.212372 139.565786 
L 650.755532 138.93289 
L 651.027112 138.967616 
L 651.298692 139.160513 
L 651.570272 139.163477 
L 651.841852 138.941148 
L 652.928173 138.918068 
L 653.742913 138.765191 
L 654.014493 139.282899 
L 654.286073 139.498876 
L 654.557653 139.163477 
L 654.829233 139.189945 
L 655.372393 138.157704 
L 655.643973 138.274162 
L 655.915553 137.803037 
L 656.187133 137.861266 
L 656.458713 137.543653 
L 656.730293 137.559534 
L 657.273453 137.098996 
L 657.545033 137.183693 
L 658.088193 137.543653 
L 658.359773 137.768311 
L 658.631354 137.005618 
L 658.902934 136.606273 
L 659.989254 136.589334 
L 660.260834 136.304965 
L 660.803994 136.606696 
L 661.075574 137.893027 
L 661.347154 137.411315 
L 661.618734 137.172258 
L 662.161894 137.462556 
L 662.705054 136.532587 
L 662.976634 136.522 
L 663.248214 137.051354 
L 663.519794 137.286811 
L 664.334534 137.390141 
L 664.606115 136.79197 
L 664.877695 137.102595 
L 665.964015 136.983597 
L 666.235595 136.653703 
L 666.507175 136.091529 
L 666.778755 135.934205 
L 667.050335 135.961943 
L 667.321915 136.117785 
L 667.865075 136.077131 
L 668.136655 135.747025 
L 668.408235 136.049604 
L 668.951395 136.017208 
L 669.494555 135.560269 
L 669.766135 135.534013 
L 670.037715 134.863851 
L 670.309295 135.01694 
L 670.580875 134.647451 
L 671.124036 134.451378 
L 671.667196 134.428087 
L 671.938776 134.363082 
L 672.210356 132.048957 
L 672.481936 133.075904 
L 672.753516 132.582758 
L 673.296676 132.739235 
L 673.839836 132.119891 
L 674.111416 132.48578 
L 674.382996 133.492612 
L 674.654576 133.513786 
L 674.926156 132.730977 
L 675.469316 132.713403 
L 676.555636 133.422949 
L 676.827217 133.136463 
L 677.370377 133.031227 
L 677.641957 132.630823 
L 677.913537 133.091573 
L 678.185117 132.752363 
L 678.456697 132.764221 
L 678.728277 133.026569 
L 679.271437 132.932979 
L 680.357757 130.785283 
L 680.629337 131.0633 
L 681.172497 131.007612 
L 681.444077 130.206382 
L 681.715657 130.450308 
L 681.987237 130.412406 
L 682.530397 129.853196 
L 682.801978 129.891098 
L 683.073558 129.743303 
L 683.345138 129.818471 
L 683.888298 128.609638 
L 684.159878 128.64394 
L 684.431458 129.105113 
L 684.703038 129.093256 
L 685.246198 127.806713 
L 685.789358 128.605826 
L 686.060938 130.633888 
L 686.604098 130.40796 
L 686.875678 130.37641 
L 687.690418 128.776914 
L 687.961998 128.660667 
L 688.233578 127.86219 
L 688.505158 127.935241 
L 688.776739 127.891833 
L 689.319899 126.535416 
L 689.591479 126.237708 
L 690.406219 126.143059 
L 690.949379 125.569451 
L 691.492539 124.301542 
L 691.764119 123.452246 
L 692.035699 123.461986 
L 692.307279 123.611264 
L 692.578859 122.258023 
L 692.850439 119.778529 
L 693.122019 119.646613 
L 693.393599 118.096453 
L 693.665179 119.760107 
L 693.936759 113.145721 
L 694.208339 120.537834 
L 694.7515 116.83659 
L 695.02308 116.803135 
L 695.29466 117.864807 
L 695.56624 117.915202 
L 695.83782 118.893872 
L 696.1094 119.186922 
L 696.38098 118.606538 
L 697.19572 108.926769 
L 697.4673 107.603383 
L 697.73888 109.724188 
L 698.01046 110.087113 
L 698.28204 109.056355 
L 698.55362 103.36855 
L 698.8252 90.240568 
L 699.09678 98.710234 
L 699.36836 103.28343 
L 699.63994 110.341626 
L 699.91152 110.159529 
L 700.1831 109.698779 
L 700.45468 110.842607 
L 700.726261 109.000878 
L 700.997841 105.528315 
L 701.269421 105.485967 
L 701.541001 107.599149 
L 702.084161 107.562306 
L 702.355741 108.003575 
L 702.627321 110.128191 
L 703.170481 108.45035 
L 703.442061 106.047082 
L 703.713641 109.424362 
L 703.985221 107.603383 
L 704.256801 109.332466 
L 704.528381 108.746788 
L 705.071541 114.950819 
L 705.343121 119.662071 
L 705.614701 119.757354 
L 705.886281 118.190466 
L 706.157861 119.290252 
L 706.429441 115.437825 
L 706.701022 114.484987 
L 706.972602 116.275898 
L 707.244182 116.939073 
L 707.515762 117.022499 
L 707.787342 113.701543 
L 708.602082 116.920016 
L 708.873662 113.53215 
L 709.145242 115.331954 
L 709.416822 115.861308 
L 709.688402 114.04033 
L 710.231562 106.142366 
L 710.503142 106.061904 
L 711.046302 110.693118 
L 711.317882 110.64357 
L 711.589462 110.440298 
L 711.861042 108.45035 
L 712.132622 108.471524 
L 712.675783 108.068792 
L 712.947363 109.530656 
L 713.218943 109.573851 
L 713.762103 106.036495 
L 714.033683 106.865252 
L 714.305263 107.182441 
L 714.848423 108.607462 
L 715.120003 108.734507 
L 715.391583 108.579512 
L 715.663163 108.153912 
L 716.206323 103.929242 
L 716.477903 103.029764 
L 716.749483 101.33583 
L 717.021063 102.331016 
L 717.292643 102.055752 
L 717.835803 91.934501 
L 718.107383 92.646376 
L 718.378963 89.097163 
L 718.650543 89.393601 
L 718.922124 86.651547 
L 719.193704 81.686205 
L 719.465284 78.806518 
L 719.736864 67.330121 
L 720.008444 74.275247 
L 720.551604 100.360972 
L 720.823184 101.650902 
L 721.094764 101.174907 
L 721.366344 101.447207 
L 722.181084 112.528918 
L 722.452664 116.832355 
L 722.724244 117.281671 
L 723.267404 106.544675 
L 723.538984 107.264597 
L 723.810564 106.036495 
L 724.082144 104.289627 
L 724.353724 109.097433 
L 724.625304 109.308751 
L 724.896885 108.70444 
L 725.168465 110.203994 
L 725.711625 114.101735 
L 725.983205 109.572581 
L 726.526365 109.468827 
L 726.797945 107.94217 
L 727.069525 112.76988 
L 727.612685 115.99767 
L 727.884265 112.939273 
L 728.155845 114.036942 
L 728.427425 113.970455 
L 728.699005 112.049958 
L 728.970585 108.026867 
L 729.242165 107.603383 
L 729.513745 108.575701 
L 729.785325 107.624558 
L 730.056905 108.233527 
L 730.328485 107.94217 
L 730.600065 108.31907 
L 730.871646 110.144283 
L 731.143226 115.193051 
L 731.414806 114.630242 
L 731.686386 113.479214 
L 731.957966 111.838216 
L 732.229546 112.866857 
L 732.501126 112.898195 
L 732.772706 113.27806 
L 733.044286 114.074632 
L 733.315866 115.437825 
L 733.587446 114.336768 
L 733.859026 113.997981 
L 734.130606 113.870936 
L 734.402186 115.106661 
L 734.673766 113.455499 
L 734.945346 117.010218 
L 735.216926 116.644752 
L 735.488506 115.988353 
L 735.760086 107.497513 
L 736.031666 113.955633 
L 736.303246 115.522521 
L 736.574826 110.250154 
L 736.846407 112.886338 
L 737.117987 109.496777 
L 737.389567 95.693762 
L 737.932727 102.0981 
L 738.204307 99.133717 
L 738.475887 94.051918 
L 738.747467 83.464835 
L 739.019047 64.831569 
L 739.290627 76.689102 
L 739.562207 62.184799 
L 739.833787 66.579285 
L 740.105367 63.748722 
L 740.376947 37.305154 
L 740.920107 79.535757 
L 741.191687 91.075677 
L 741.463267 94.859077 
L 741.734847 95.027623 
L 742.006427 94.213265 
L 742.278007 97.651526 
L 742.549587 96.084637 
L 742.821168 100.679431 
L 743.092748 101.886359 
L 743.364328 104.871069 
L 743.635908 105.004466 
L 743.907488 104.883774 
L 744.179068 106.846195 
L 744.450648 106.407043 
L 744.722228 99.133717 
L 744.993808 99.637662 
L 745.265388 105.270837 
L 745.536968 105.379249 
L 745.808548 103.410899 
L 746.080128 104.001658 
L 746.351708 96.762211 
L 746.894868 76.689102 
L 747.166448 92.675597 
L 747.438028 95.745851 
L 747.709608 96.859612 
L 747.981188 90.664051 
L 748.252768 101.267226 
L 748.524348 101.35277 
L 748.795929 101.60686 
L 749.067509 101.039392 
L 749.339089 99.768942 
L 749.882249 104.002505 
L 750.425409 103.454094 
L 750.696989 104.215517 
L 750.968569 106.743712 
L 751.511729 108.060745 
L 751.783309 107.59449 
L 752.054889 107.829523 
L 752.326469 106.781826 
L 752.598049 104.639 
L 752.869629 107.026599 
L 753.141209 106.894049 
L 753.412789 104.215517 
L 753.684369 105.90945 
L 753.955949 96.550469 
L 754.227529 102.01171 
L 754.499109 104.29132 
L 755.04227 105.554571 
L 755.85701 105.521116 
L 756.12859 103.790763 
L 756.40017 104.76181 
L 756.67175 107.921419 
L 756.94333 107.992565 
L 757.21491 107.591949 
L 757.48649 110.40769 
L 757.75807 111.961027 
L 758.02965 111.271172 
L 758.30123 106.722115 
L 758.57281 108.800994 
L 758.84439 108.908559 
L 759.11597 108.542669 
L 759.38755 108.444845 
L 759.93071 107.8291 
L 760.20229 109.360839 
L 760.47387 111.684492 
L 760.745451 111.817466 
L 761.017031 111.773424 
L 761.288611 113.559676 
L 761.831771 113.43983 
L 762.646511 112.542469 
L 762.918091 112.040642 
L 763.189671 110.455967 
L 763.461251 109.685651 
L 763.732831 113.485143 
L 764.004411 113.630821 
L 764.275991 113.55036 
L 764.547571 113.615152 
L 765.090731 114.069974 
L 765.362311 114.406219 
L 765.633891 114.556132 
L 765.905471 112.063086 
L 766.177051 113.853997 
L 766.448631 114.626431 
L 766.991792 112.735154 
L 767.263372 108.277569 
L 767.534952 101.722047 
L 767.806532 91.647803 
L 768.078112 97.487214 
L 768.349692 97.83447 
L 768.621272 97.268273 
L 769.164432 95.072089 
L 769.436012 89.404188 
L 769.979172 93.262121 
L 770.250752 87.276185 
L 770.522332 88.970118 
L 770.793912 91.655425 
L 771.065492 87.699668 
L 771.337072 88.144325 
L 771.608652 84.713687 
L 771.880232 84.408356 
L 772.151812 84.493899 
L 772.423392 83.507183 
L 772.694972 77.972256 
L 772.966553 69.066402 
L 773.238133 66.526773 
L 773.509713 67.584211 
L 773.781293 71.794905 
L 774.052873 72.948474 
L 774.324453 72.860389 
L 774.596033 73.385932 
L 775.139193 69.633446 
L 775.682353 75.906928 
L 775.953933 74.571685 
L 776.768673 79.980414 
L 777.040253 79.738182 
L 777.311833 82.194385 
L 777.583413 77.959552 
L 777.854993 75.757439 
L 778.126573 77.015608 
L 778.398153 68.642919 
L 778.669733 53.312823 
L 778.941314 57.648022 
L 779.212894 60.025457 
L 779.484474 64.069299 
L 779.756054 64.212013 
L 780.027634 64.149338 
L 780.570794 59.831502 
L 780.842374 61.073578 
L 781.113954 60.956697 
L 781.385534 63.801234 
L 781.657114 63.790647 
L 781.928694 62.679004 
L 782.471854 66.114724 
L 782.743434 58.47932 
L 783.015014 57.504461 
L 783.286594 60.707689 
L 783.558174 60.807207 
L 783.829754 60.341376 
L 784.101334 55.606409 
L 784.372914 46.944058 
L 784.644494 48.652389 
L 784.916075 46.861055 
L 785.187655 42.989994 
L 785.459235 42.873113 
L 785.730815 41.461643 
L 786.002395 26.765925 
L 786.273975 30.690345 
L 786.545555 25.364195 
L 786.817135 13.876364 
L 787.360295 18.813756 
L 787.631875 19.376141 
L 787.903455 20.886283 
L 788.175035 35.426159 
L 788.718195 50.00076 
L 788.989775 63.890589 
L 789.261355 63.5247 
L 789.532935 48.950945 
L 789.804515 48.488078 
L 790.076095 44.850356 
L 790.619255 62.849244 
L 790.890836 64.804043 
L 791.433996 64.717652 
L 791.705576 67.817127 
L 791.977156 66.033415 
L 792.248736 50.85662 
L 792.520316 57.789889 
L 792.791896 75.327603 
L 793.063476 75.334802 
L 793.335056 75.829007 
L 793.606636 77.689369 
L 793.878216 65.720884 
L 794.692956 75.26281 
L 794.964536 75.209875 
L 795.236116 74.957055 
L 795.507696 75.75151 
L 795.779276 66.023251 
L 796.050856 61.937061 
L 796.594016 77.15324 
L 796.865597 77.399283 
L 797.137177 79.019531 
L 797.680337 103.209744 
L 797.951917 101.674617 
L 798.223497 95.985119 
L 798.495077 100.532059 
L 798.766657 101.679699 
L 799.038237 99.718548 
L 799.309817 95.322367 
L 799.581397 98.752582 
L 799.852977 97.439784 
L 800.396137 117.685674 
L 800.667717 117.612411 
L 801.210877 117.237629 
L 801.482457 109.869019 
L 801.754037 117.3435 
L 802.025617 120.731366 
L 802.297197 129.022322 
L 802.568777 129.834987 
L 802.840358 129.735468 
L 803.383518 110.144283 
L 803.655098 118.169292 
L 804.198258 127.507099 
L 804.469838 126.236649 
L 804.741418 111.647649 
L 805.012998 132.627012 
L 805.284578 134.748663 
L 805.556158 110.144283 
L 805.827738 108.280957 
L 806.099318 119.418568 
L 806.642478 122.526088 
L 807.185638 108.873833 
L 807.457218 108.465172 
L 807.728798 112.578465 
L 808.000378 118.461919 
L 808.271958 112.2617 
L 808.815119 93.628434 
L 809.358279 102.347956 
L 809.629859 100.404167 
L 810.173019 100.404167 
L 810.444599 100.861529 
L 810.716179 98.639936 
L 810.987759 95.428238 
L 811.259339 94.156941 
L 811.530919 95.467199 
L 811.802499 95.830124 
L 812.074079 95.845369 
L 812.345659 93.78724 
L 812.345659 93.78724 
" clip-path="url(#p4bf2c65014)" style="fill: none; stroke: #4c72b0; stroke-width: 1.2; stroke-linecap: round"/>
   </g>
   <g id="patch_3">
    <path d="M 66.65475 154.08 
L 66.65475 7.2 
" style="fill: none; stroke: #cccccc; stroke-linejoin: miter; stroke-linecap: square"/>
   </g>
   <g id="patch_4">
    <path d="M 847.85475 154.08 
L 847.85475 7.2 
" style="fill: none; stroke: #cccccc; stroke-linejoin: miter; stroke-linecap: square"/>
   </g>
   <g id="patch_5">
    <path d="M 66.65475 154.08 
L 847.85475 154.08 
" style="fill: none; stroke: #cccccc; stroke-linejoin: miter; stroke-linecap: square"/>
   </g>
   <g id="patch_6">
    <path d="M 66.65475 7.2 
L 847.85475 7.2 
" style="fill: none; stroke: #cccccc; stroke-linejoin: miter; stroke-linecap: square"/>
   </g>
  </g>
 </g>
 <defs>
  <clipPath id="p4bf2c65014">
   <rect x="66.65475" y="7.2" width="781.2" height="146.88"/>
  </clipPath>
 </defs>
</svg>
