<?xml version="1.0" encoding="utf-8" standalone="no"?>
<!DOCTYPE svg PUBLIC "-//W3C//DTD SVG 1.1//EN"
  "http://www.w3.org/Graphics/SVG/1.1/DTD/svg11.dtd">
<svg xmlns:xlink="http://www.w3.org/1999/xlink" width="859.931226pt" height="302.10375pt" viewBox="0 0 859.931226 302.10375" xmlns="http://www.w3.org/2000/svg" version="1.1">
 <metadata>
  <rdf:RDF xmlns:dc="http://purl.org/dc/elements/1.1/" xmlns:cc="http://creativecommons.org/ns#" xmlns:rdf="http://www.w3.org/1999/02/22-rdf-syntax-ns#">
   <cc:Work>
    <dc:type rdf:resource="http://purl.org/dc/dcmitype/StillImage"/>
    <dc:date>2023-05-10T11:55:12.259495</dc:date>
    <dc:format>image/svg+xml</dc:format>
    <dc:creator>
     <cc:Agent>
      <dc:title>Matplotlib v3.7.1, https://matplotlib.org/</dc:title>
     </cc:Agent>
    </dc:creator>
   </cc:Work>
  </rdf:RDF>
 </metadata>
 <defs>
  <style type="text/css">*{stroke-linejoin: round; stroke-linecap: butt}</style>
 </defs>
 <g id="figure_1">
  <g id="patch_1">
   <path d="M 0 302.10375 
L 859.931226 302.10375 
L 859.931226 0 
L 0 0 
z
" style="fill: #ffffff"/>
  </g>
  <g id="axes_1">
   <g id="patch_2">
    <path d="M 66.65475 248.949 
L 847.85475 248.949 
L 847.85475 27.189 
L 66.65475 27.189 
z
" style="fill: #ffffff"/>
   </g>
   <g id="matplotlib.axis_1">
    <g id="xtick_1">
     <g id="line2d_1">
      <path d="M 66.65475 248.949 
L 66.65475 27.189 
" clip-path="url(#pcc9c528464)" style="fill: none; stroke: #cccccc; stroke-width: 0.8; stroke-linecap: round"/>
     </g>
    </g>
    <g id="xtick_2">
     <g id="line2d_2">
      <path d="M 162.191909 248.949 
L 162.191909 27.189 
" clip-path="url(#pcc9c528464)" style="fill: none; stroke: #cccccc; stroke-width: 0.8; stroke-linecap: round"/>
     </g>
     <g id="text_1">
      <!-- 2016 -->
      <g style="fill: #262626" transform="translate(142.617409 269.84675) scale(0.176 -0.176)">
       <defs>
        <path id="ArialMT-32" d="M 3222 541 
L 3222 0 
L 194 0 
Q 188 203 259 391 
Q 375 700 629 1000 
Q 884 1300 1366 1694 
Q 2113 2306 2375 2664 
Q 2638 3022 2638 3341 
Q 2638 3675 2398 3904 
Q 2159 4134 1775 4134 
Q 1369 4134 1125 3890 
Q 881 3647 878 3216 
L 300 3275 
Q 359 3922 746 4261 
Q 1134 4600 1788 4600 
Q 2447 4600 2831 4234 
Q 3216 3869 3216 3328 
Q 3216 3053 3103 2787 
Q 2991 2522 2730 2228 
Q 2469 1934 1863 1422 
Q 1356 997 1212 845 
Q 1069 694 975 541 
L 3222 541 
z
" transform="scale(0.015625)"/>
        <path id="ArialMT-30" d="M 266 2259 
Q 266 3072 433 3567 
Q 600 4063 929 4331 
Q 1259 4600 1759 4600 
Q 2128 4600 2406 4451 
Q 2684 4303 2865 4023 
Q 3047 3744 3150 3342 
Q 3253 2941 3253 2259 
Q 3253 1453 3087 958 
Q 2922 463 2592 192 
Q 2263 -78 1759 -78 
Q 1097 -78 719 397 
Q 266 969 266 2259 
z
M 844 2259 
Q 844 1131 1108 757 
Q 1372 384 1759 384 
Q 2147 384 2411 759 
Q 2675 1134 2675 2259 
Q 2675 3391 2411 3762 
Q 2147 4134 1753 4134 
Q 1366 4134 1134 3806 
Q 844 3388 844 2259 
z
" transform="scale(0.015625)"/>
        <path id="ArialMT-31" d="M 2384 0 
L 1822 0 
L 1822 3584 
Q 1619 3391 1289 3197 
Q 959 3003 697 2906 
L 697 3450 
Q 1169 3672 1522 3987 
Q 1875 4303 2022 4600 
L 2384 4600 
L 2384 0 
z
" transform="scale(0.015625)"/>
        <path id="ArialMT-36" d="M 3184 3459 
L 2625 3416 
Q 2550 3747 2413 3897 
Q 2184 4138 1850 4138 
Q 1581 4138 1378 3988 
Q 1113 3794 959 3422 
Q 806 3050 800 2363 
Q 1003 2672 1297 2822 
Q 1591 2972 1913 2972 
Q 2475 2972 2870 2558 
Q 3266 2144 3266 1488 
Q 3266 1056 3080 686 
Q 2894 316 2569 119 
Q 2244 -78 1831 -78 
Q 1128 -78 684 439 
Q 241 956 241 2144 
Q 241 3472 731 4075 
Q 1159 4600 1884 4600 
Q 2425 4600 2770 4297 
Q 3116 3994 3184 3459 
z
M 888 1484 
Q 888 1194 1011 928 
Q 1134 663 1356 523 
Q 1578 384 1822 384 
Q 2178 384 2434 671 
Q 2691 959 2691 1453 
Q 2691 1928 2437 2201 
Q 2184 2475 1800 2475 
Q 1419 2475 1153 2201 
Q 888 1928 888 1484 
z
" transform="scale(0.015625)"/>
       </defs>
       <use xlink:href="#ArialMT-32"/>
       <use xlink:href="#ArialMT-30" x="55.615234"/>
       <use xlink:href="#ArialMT-31" x="111.230469"/>
       <use xlink:href="#ArialMT-36" x="166.845703"/>
      </g>
     </g>
    </g>
    <g id="xtick_3">
     <g id="line2d_3">
      <path d="M 258.096519 248.949 
L 258.096519 27.189 
" clip-path="url(#pcc9c528464)" style="fill: none; stroke: #cccccc; stroke-width: 0.8; stroke-linecap: round"/>
     </g>
     <g id="text_2">
      <!-- 2017 -->
      <g style="fill: #262626" transform="translate(238.522019 269.84675) scale(0.176 -0.176)">
       <defs>
        <path id="ArialMT-37" d="M 303 3981 
L 303 4522 
L 3269 4522 
L 3269 4084 
Q 2831 3619 2401 2847 
Q 1972 2075 1738 1259 
Q 1569 684 1522 0 
L 944 0 
Q 953 541 1156 1306 
Q 1359 2072 1739 2783 
Q 2119 3494 2547 3981 
L 303 3981 
z
" transform="scale(0.015625)"/>
       </defs>
       <use xlink:href="#ArialMT-32"/>
       <use xlink:href="#ArialMT-30" x="55.615234"/>
       <use xlink:href="#ArialMT-31" x="111.230469"/>
       <use xlink:href="#ArialMT-37" x="166.845703"/>
      </g>
     </g>
    </g>
    <g id="xtick_4">
     <g id="line2d_4">
      <path d="M 353.633678 248.949 
L 353.633678 27.189 
" clip-path="url(#pcc9c528464)" style="fill: none; stroke: #cccccc; stroke-width: 0.8; stroke-linecap: round"/>
     </g>
     <g id="text_3">
      <!-- 2018 -->
      <g style="fill: #262626" transform="translate(334.059178 269.84675) scale(0.176 -0.176)">
       <defs>
        <path id="ArialMT-38" d="M 1131 2484 
Q 781 2613 612 2850 
Q 444 3088 444 3419 
Q 444 3919 803 4259 
Q 1163 4600 1759 4600 
Q 2359 4600 2725 4251 
Q 3091 3903 3091 3403 
Q 3091 3084 2923 2848 
Q 2756 2613 2416 2484 
Q 2838 2347 3058 2040 
Q 3278 1734 3278 1309 
Q 3278 722 2862 322 
Q 2447 -78 1769 -78 
Q 1091 -78 675 323 
Q 259 725 259 1325 
Q 259 1772 486 2073 
Q 713 2375 1131 2484 
z
M 1019 3438 
Q 1019 3113 1228 2906 
Q 1438 2700 1772 2700 
Q 2097 2700 2305 2904 
Q 2513 3109 2513 3406 
Q 2513 3716 2298 3927 
Q 2084 4138 1766 4138 
Q 1444 4138 1231 3931 
Q 1019 3725 1019 3438 
z
M 838 1322 
Q 838 1081 952 856 
Q 1066 631 1291 507 
Q 1516 384 1775 384 
Q 2178 384 2440 643 
Q 2703 903 2703 1303 
Q 2703 1709 2433 1975 
Q 2163 2241 1756 2241 
Q 1359 2241 1098 1978 
Q 838 1716 838 1322 
z
" transform="scale(0.015625)"/>
       </defs>
       <use xlink:href="#ArialMT-32"/>
       <use xlink:href="#ArialMT-30" x="55.615234"/>
       <use xlink:href="#ArialMT-31" x="111.230469"/>
       <use xlink:href="#ArialMT-38" x="166.845703"/>
      </g>
     </g>
    </g>
    <g id="xtick_5">
     <g id="line2d_5">
      <path d="M 449.538287 248.949 
L 449.538287 27.189 
" clip-path="url(#pcc9c528464)" style="fill: none; stroke: #cccccc; stroke-width: 0.8; stroke-linecap: round"/>
     </g>
     <g id="text_4">
      <!-- 2019 -->
      <g style="fill: #262626" transform="translate(429.963787 269.84675) scale(0.176 -0.176)">
       <defs>
        <path id="ArialMT-39" d="M 350 1059 
L 891 1109 
Q 959 728 1153 556 
Q 1347 384 1650 384 
Q 1909 384 2104 503 
Q 2300 622 2425 820 
Q 2550 1019 2634 1356 
Q 2719 1694 2719 2044 
Q 2719 2081 2716 2156 
Q 2547 1888 2255 1720 
Q 1963 1553 1622 1553 
Q 1053 1553 659 1965 
Q 266 2378 266 3053 
Q 266 3750 677 4175 
Q 1088 4600 1706 4600 
Q 2153 4600 2523 4359 
Q 2894 4119 3086 3673 
Q 3278 3228 3278 2384 
Q 3278 1506 3087 986 
Q 2897 466 2520 194 
Q 2144 -78 1638 -78 
Q 1100 -78 759 220 
Q 419 519 350 1059 
z
M 2653 3081 
Q 2653 3566 2395 3850 
Q 2138 4134 1775 4134 
Q 1400 4134 1122 3828 
Q 844 3522 844 3034 
Q 844 2597 1108 2323 
Q 1372 2050 1759 2050 
Q 2150 2050 2401 2323 
Q 2653 2597 2653 3081 
z
" transform="scale(0.015625)"/>
       </defs>
       <use xlink:href="#ArialMT-32"/>
       <use xlink:href="#ArialMT-30" x="55.615234"/>
       <use xlink:href="#ArialMT-31" x="111.230469"/>
       <use xlink:href="#ArialMT-39" x="166.845703"/>
      </g>
     </g>
    </g>
    <g id="xtick_6">
     <g id="line2d_6">
      <path d="M 545.442897 248.949 
L 545.442897 27.189 
" clip-path="url(#pcc9c528464)" style="fill: none; stroke: #cccccc; stroke-width: 0.8; stroke-linecap: round"/>
     </g>
     <g id="text_5">
      <!-- 2020 -->
      <g style="fill: #262626" transform="translate(525.868397 269.84675) scale(0.176 -0.176)">
       <use xlink:href="#ArialMT-32"/>
       <use xlink:href="#ArialMT-30" x="55.615234"/>
       <use xlink:href="#ArialMT-32" x="111.230469"/>
       <use xlink:href="#ArialMT-30" x="166.845703"/>
      </g>
     </g>
    </g>
    <g id="xtick_7">
     <g id="line2d_7">
      <path d="M 641.714957 248.949 
L 641.714957 27.189 
" clip-path="url(#pcc9c528464)" style="fill: none; stroke: #cccccc; stroke-width: 0.8; stroke-linecap: round"/>
     </g>
     <g id="text_6">
      <!-- 2021 -->
      <g style="fill: #262626" transform="translate(622.140457 269.84675) scale(0.176 -0.176)">
       <use xlink:href="#ArialMT-32"/>
       <use xlink:href="#ArialMT-30" x="55.615234"/>
       <use xlink:href="#ArialMT-32" x="111.230469"/>
       <use xlink:href="#ArialMT-31" x="166.845703"/>
      </g>
     </g>
    </g>
    <g id="xtick_8">
     <g id="line2d_8">
      <path d="M 737.619567 248.949 
L 737.619567 27.189 
" clip-path="url(#pcc9c528464)" style="fill: none; stroke: #cccccc; stroke-width: 0.8; stroke-linecap: round"/>
     </g>
     <g id="text_7">
      <!-- 2022 -->
      <g style="fill: #262626" transform="translate(718.045067 269.84675) scale(0.176 -0.176)">
       <use xlink:href="#ArialMT-32"/>
       <use xlink:href="#ArialMT-30" x="55.615234"/>
       <use xlink:href="#ArialMT-32" x="111.230469"/>
       <use xlink:href="#ArialMT-32" x="166.845703"/>
      </g>
     </g>
    </g>
    <g id="xtick_9">
     <g id="line2d_9">
      <path d="M 833.156726 248.949 
L 833.156726 27.189 
" clip-path="url(#pcc9c528464)" style="fill: none; stroke: #cccccc; stroke-width: 0.8; stroke-linecap: round"/>
     </g>
     <g id="text_8">
      <!-- 2023 -->
      <g style="fill: #262626" transform="translate(813.582226 269.84675) scale(0.176 -0.176)">
       <defs>
        <path id="ArialMT-33" d="M 269 1209 
L 831 1284 
Q 928 806 1161 595 
Q 1394 384 1728 384 
Q 2125 384 2398 659 
Q 2672 934 2672 1341 
Q 2672 1728 2419 1979 
Q 2166 2231 1775 2231 
Q 1616 2231 1378 2169 
L 1441 2663 
Q 1497 2656 1531 2656 
Q 1891 2656 2178 2843 
Q 2466 3031 2466 3422 
Q 2466 3731 2256 3934 
Q 2047 4138 1716 4138 
Q 1388 4138 1169 3931 
Q 950 3725 888 3313 
L 325 3413 
Q 428 3978 793 4289 
Q 1159 4600 1703 4600 
Q 2078 4600 2393 4439 
Q 2709 4278 2876 4000 
Q 3044 3722 3044 3409 
Q 3044 3113 2884 2869 
Q 2725 2625 2413 2481 
Q 2819 2388 3044 2092 
Q 3269 1797 3269 1353 
Q 3269 753 2831 336 
Q 2394 -81 1725 -81 
Q 1122 -81 723 278 
Q 325 638 269 1209 
z
" transform="scale(0.015625)"/>
       </defs>
       <use xlink:href="#ArialMT-32"/>
       <use xlink:href="#ArialMT-30" x="55.615234"/>
       <use xlink:href="#ArialMT-32" x="111.230469"/>
       <use xlink:href="#ArialMT-33" x="166.845703"/>
      </g>
     </g>
    </g>
    <g id="xtick_10">
     <g id="line2d_10">
      <path d="M 847.85475 248.949 
L 847.85475 27.189 
" clip-path="url(#pcc9c528464)" style="fill: none; stroke: #cccccc; stroke-width: 0.8; stroke-linecap: round"/>
     </g>
    </g>
    <g id="xtick_11"/>
    <g id="xtick_12"/>
    <g id="xtick_13"/>
    <g id="xtick_14"/>
    <g id="xtick_15"/>
    <g id="xtick_16"/>
    <g id="xtick_17"/>
    <g id="xtick_18"/>
    <g id="xtick_19"/>
    <g id="xtick_20"/>
    <g id="xtick_21"/>
    <g id="xtick_22"/>
    <g id="xtick_23"/>
    <g id="xtick_24"/>
    <g id="xtick_25"/>
    <g id="xtick_26"/>
    <g id="xtick_27"/>
    <g id="xtick_28"/>
    <g id="xtick_29"/>
    <g id="xtick_30"/>
    <g id="xtick_31"/>
    <g id="xtick_32"/>
    <g id="xtick_33"/>
    <g id="xtick_34"/>
    <g id="text_9">
     <!-- Date -->
     <g style="fill: #262626" transform="translate(436.97775 291.08775) scale(0.192 -0.192)">
      <defs>
       <path id="ArialMT-44" d="M 494 0 
L 494 4581 
L 2072 4581 
Q 2606 4581 2888 4516 
Q 3281 4425 3559 4188 
Q 3922 3881 4101 3404 
Q 4281 2928 4281 2316 
Q 4281 1794 4159 1391 
Q 4038 988 3847 723 
Q 3656 459 3429 307 
Q 3203 156 2883 78 
Q 2563 0 2147 0 
L 494 0 
z
M 1100 541 
L 2078 541 
Q 2531 541 2789 625 
Q 3047 709 3200 863 
Q 3416 1078 3536 1442 
Q 3656 1806 3656 2325 
Q 3656 3044 3420 3430 
Q 3184 3816 2847 3947 
Q 2603 4041 2063 4041 
L 1100 4041 
L 1100 541 
z
" transform="scale(0.015625)"/>
       <path id="ArialMT-61" d="M 2588 409 
Q 2275 144 1986 34 
Q 1697 -75 1366 -75 
Q 819 -75 525 192 
Q 231 459 231 875 
Q 231 1119 342 1320 
Q 453 1522 633 1644 
Q 813 1766 1038 1828 
Q 1203 1872 1538 1913 
Q 2219 1994 2541 2106 
Q 2544 2222 2544 2253 
Q 2544 2597 2384 2738 
Q 2169 2928 1744 2928 
Q 1347 2928 1158 2789 
Q 969 2650 878 2297 
L 328 2372 
Q 403 2725 575 2942 
Q 747 3159 1072 3276 
Q 1397 3394 1825 3394 
Q 2250 3394 2515 3294 
Q 2781 3194 2906 3042 
Q 3031 2891 3081 2659 
Q 3109 2516 3109 2141 
L 3109 1391 
Q 3109 606 3145 398 
Q 3181 191 3288 0 
L 2700 0 
Q 2613 175 2588 409 
z
M 2541 1666 
Q 2234 1541 1622 1453 
Q 1275 1403 1131 1340 
Q 988 1278 909 1158 
Q 831 1038 831 891 
Q 831 666 1001 516 
Q 1172 366 1500 366 
Q 1825 366 2078 508 
Q 2331 650 2450 897 
Q 2541 1088 2541 1459 
L 2541 1666 
z
" transform="scale(0.015625)"/>
       <path id="ArialMT-74" d="M 1650 503 
L 1731 6 
Q 1494 -44 1306 -44 
Q 1000 -44 831 53 
Q 663 150 594 308 
Q 525 466 525 972 
L 525 2881 
L 113 2881 
L 113 3319 
L 525 3319 
L 525 4141 
L 1084 4478 
L 1084 3319 
L 1650 3319 
L 1650 2881 
L 1084 2881 
L 1084 941 
Q 1084 700 1114 631 
Q 1144 563 1211 522 
Q 1278 481 1403 481 
Q 1497 481 1650 503 
z
" transform="scale(0.015625)"/>
       <path id="ArialMT-65" d="M 2694 1069 
L 3275 997 
Q 3138 488 2766 206 
Q 2394 -75 1816 -75 
Q 1088 -75 661 373 
Q 234 822 234 1631 
Q 234 2469 665 2931 
Q 1097 3394 1784 3394 
Q 2450 3394 2872 2941 
Q 3294 2488 3294 1666 
Q 3294 1616 3291 1516 
L 816 1516 
Q 847 969 1125 678 
Q 1403 388 1819 388 
Q 2128 388 2347 550 
Q 2566 713 2694 1069 
z
M 847 1978 
L 2700 1978 
Q 2663 2397 2488 2606 
Q 2219 2931 1791 2931 
Q 1403 2931 1139 2672 
Q 875 2413 847 1978 
z
" transform="scale(0.015625)"/>
      </defs>
      <use xlink:href="#ArialMT-44"/>
      <use xlink:href="#ArialMT-61" x="72.216797"/>
      <use xlink:href="#ArialMT-74" x="127.832031"/>
      <use xlink:href="#ArialMT-65" x="155.615234"/>
     </g>
    </g>
   </g>
   <g id="matplotlib.axis_2">
    <g id="ytick_1">
     <g id="line2d_11">
      <path d="M 66.65475 213.06368 
L 847.85475 213.06368 
" clip-path="url(#pcc9c528464)" style="fill: none; stroke: #cccccc; stroke-width: 0.8; stroke-linecap: round"/>
     </g>
     <g id="text_10">
      <!-- 25 -->
      <g style="fill: #262626" transform="translate(38.78025 219.362555) scale(0.176 -0.176)">
       <defs>
        <path id="ArialMT-35" d="M 266 1200 
L 856 1250 
Q 922 819 1161 601 
Q 1400 384 1738 384 
Q 2144 384 2425 690 
Q 2706 997 2706 1503 
Q 2706 1984 2436 2262 
Q 2166 2541 1728 2541 
Q 1456 2541 1237 2417 
Q 1019 2294 894 2097 
L 366 2166 
L 809 4519 
L 3088 4519 
L 3088 3981 
L 1259 3981 
L 1013 2750 
Q 1425 3038 1878 3038 
Q 2478 3038 2890 2622 
Q 3303 2206 3303 1553 
Q 3303 931 2941 478 
Q 2500 -78 1738 -78 
Q 1113 -78 717 272 
Q 322 622 266 1200 
z
" transform="scale(0.015625)"/>
       </defs>
       <use xlink:href="#ArialMT-32"/>
       <use xlink:href="#ArialMT-35" x="55.615234"/>
      </g>
     </g>
    </g>
    <g id="ytick_2">
     <g id="line2d_12">
      <path d="M 66.65475 172.438176 
L 847.85475 172.438176 
" clip-path="url(#pcc9c528464)" style="fill: none; stroke: #cccccc; stroke-width: 0.8; stroke-linecap: round"/>
     </g>
     <g id="text_11">
      <!-- 50 -->
      <g style="fill: #262626" transform="translate(38.78025 178.737051) scale(0.176 -0.176)">
       <use xlink:href="#ArialMT-35"/>
       <use xlink:href="#ArialMT-30" x="55.615234"/>
      </g>
     </g>
    </g>
    <g id="ytick_3">
     <g id="line2d_13">
      <path d="M 66.65475 131.812672 
L 847.85475 131.812672 
" clip-path="url(#pcc9c528464)" style="fill: none; stroke: #cccccc; stroke-width: 0.8; stroke-linecap: round"/>
     </g>
     <g id="text_12">
      <!-- 75 -->
      <g style="fill: #262626" transform="translate(38.78025 138.111547) scale(0.176 -0.176)">
       <use xlink:href="#ArialMT-37"/>
       <use xlink:href="#ArialMT-35" x="55.615234"/>
      </g>
     </g>
    </g>
    <g id="ytick_4">
     <g id="line2d_14">
      <path d="M 66.65475 91.187169 
L 847.85475 91.187169 
" clip-path="url(#pcc9c528464)" style="fill: none; stroke: #cccccc; stroke-width: 0.8; stroke-linecap: round"/>
     </g>
     <g id="text_13">
      <!-- 100 -->
      <g style="fill: #262626" transform="translate(28.993 97.486044) scale(0.176 -0.176)">
       <use xlink:href="#ArialMT-31"/>
       <use xlink:href="#ArialMT-30" x="55.615234"/>
       <use xlink:href="#ArialMT-30" x="111.230469"/>
      </g>
     </g>
    </g>
    <g id="ytick_5">
     <g id="line2d_15">
      <path d="M 66.65475 50.561665 
L 847.85475 50.561665 
" clip-path="url(#pcc9c528464)" style="fill: none; stroke: #cccccc; stroke-width: 0.8; stroke-linecap: round"/>
     </g>
     <g id="text_14">
      <!-- 125 -->
      <g style="fill: #262626" transform="translate(28.993 56.86054) scale(0.176 -0.176)">
       <use xlink:href="#ArialMT-31"/>
       <use xlink:href="#ArialMT-32" x="55.615234"/>
       <use xlink:href="#ArialMT-35" x="111.230469"/>
      </g>
     </g>
    </g>
    <g id="text_15">
     <!-- USD per Barrel -->
     <g style="fill: #262626" transform="translate(21.177 203.1525) rotate(-90) scale(0.192 -0.192)">
      <defs>
       <path id="ArialMT-55" d="M 3500 4581 
L 4106 4581 
L 4106 1934 
Q 4106 1244 3950 837 
Q 3794 431 3386 176 
Q 2978 -78 2316 -78 
Q 1672 -78 1262 144 
Q 853 366 678 786 
Q 503 1206 503 1934 
L 503 4581 
L 1109 4581 
L 1109 1938 
Q 1109 1341 1220 1058 
Q 1331 775 1601 622 
Q 1872 469 2263 469 
Q 2931 469 3215 772 
Q 3500 1075 3500 1938 
L 3500 4581 
z
" transform="scale(0.015625)"/>
       <path id="ArialMT-53" d="M 288 1472 
L 859 1522 
Q 900 1178 1048 958 
Q 1197 738 1509 602 
Q 1822 466 2213 466 
Q 2559 466 2825 569 
Q 3091 672 3220 851 
Q 3350 1031 3350 1244 
Q 3350 1459 3225 1620 
Q 3100 1781 2813 1891 
Q 2628 1963 1997 2114 
Q 1366 2266 1113 2400 
Q 784 2572 623 2826 
Q 463 3081 463 3397 
Q 463 3744 659 4045 
Q 856 4347 1234 4503 
Q 1613 4659 2075 4659 
Q 2584 4659 2973 4495 
Q 3363 4331 3572 4012 
Q 3781 3694 3797 3291 
L 3216 3247 
Q 3169 3681 2898 3903 
Q 2628 4125 2100 4125 
Q 1550 4125 1298 3923 
Q 1047 3722 1047 3438 
Q 1047 3191 1225 3031 
Q 1400 2872 2139 2705 
Q 2878 2538 3153 2413 
Q 3553 2228 3743 1945 
Q 3934 1663 3934 1294 
Q 3934 928 3725 604 
Q 3516 281 3123 101 
Q 2731 -78 2241 -78 
Q 1619 -78 1198 103 
Q 778 284 539 648 
Q 300 1013 288 1472 
z
" transform="scale(0.015625)"/>
       <path id="ArialMT-20" transform="scale(0.015625)"/>
       <path id="ArialMT-70" d="M 422 -1272 
L 422 3319 
L 934 3319 
L 934 2888 
Q 1116 3141 1344 3267 
Q 1572 3394 1897 3394 
Q 2322 3394 2647 3175 
Q 2972 2956 3137 2557 
Q 3303 2159 3303 1684 
Q 3303 1175 3120 767 
Q 2938 359 2589 142 
Q 2241 -75 1856 -75 
Q 1575 -75 1351 44 
Q 1128 163 984 344 
L 984 -1272 
L 422 -1272 
z
M 931 1641 
Q 931 1000 1190 694 
Q 1450 388 1819 388 
Q 2194 388 2461 705 
Q 2728 1022 2728 1688 
Q 2728 2322 2467 2637 
Q 2206 2953 1844 2953 
Q 1484 2953 1207 2617 
Q 931 2281 931 1641 
z
" transform="scale(0.015625)"/>
       <path id="ArialMT-72" d="M 416 0 
L 416 3319 
L 922 3319 
L 922 2816 
Q 1116 3169 1280 3281 
Q 1444 3394 1641 3394 
Q 1925 3394 2219 3213 
L 2025 2691 
Q 1819 2813 1613 2813 
Q 1428 2813 1281 2702 
Q 1134 2591 1072 2394 
Q 978 2094 978 1738 
L 978 0 
L 416 0 
z
" transform="scale(0.015625)"/>
       <path id="ArialMT-42" d="M 469 0 
L 469 4581 
L 2188 4581 
Q 2713 4581 3030 4442 
Q 3347 4303 3526 4014 
Q 3706 3725 3706 3409 
Q 3706 3116 3547 2856 
Q 3388 2597 3066 2438 
Q 3481 2316 3704 2022 
Q 3928 1728 3928 1328 
Q 3928 1006 3792 729 
Q 3656 453 3456 303 
Q 3256 153 2954 76 
Q 2653 0 2216 0 
L 469 0 
z
M 1075 2656 
L 2066 2656 
Q 2469 2656 2644 2709 
Q 2875 2778 2992 2937 
Q 3109 3097 3109 3338 
Q 3109 3566 3000 3739 
Q 2891 3913 2687 3977 
Q 2484 4041 1991 4041 
L 1075 4041 
L 1075 2656 
z
M 1075 541 
L 2216 541 
Q 2509 541 2628 563 
Q 2838 600 2978 687 
Q 3119 775 3209 942 
Q 3300 1109 3300 1328 
Q 3300 1584 3169 1773 
Q 3038 1963 2805 2039 
Q 2572 2116 2134 2116 
L 1075 2116 
L 1075 541 
z
" transform="scale(0.015625)"/>
       <path id="ArialMT-6c" d="M 409 0 
L 409 4581 
L 972 4581 
L 972 0 
L 409 0 
z
" transform="scale(0.015625)"/>
      </defs>
      <use xlink:href="#ArialMT-55"/>
      <use xlink:href="#ArialMT-53" x="72.216797"/>
      <use xlink:href="#ArialMT-44" x="138.916016"/>
      <use xlink:href="#ArialMT-20" x="211.132812"/>
      <use xlink:href="#ArialMT-70" x="238.916016"/>
      <use xlink:href="#ArialMT-65" x="294.53125"/>
      <use xlink:href="#ArialMT-72" x="350.146484"/>
      <use xlink:href="#ArialMT-20" x="383.447266"/>
      <use xlink:href="#ArialMT-42" x="411.230469"/>
      <use xlink:href="#ArialMT-61" x="477.929688"/>
      <use xlink:href="#ArialMT-72" x="533.544922"/>
      <use xlink:href="#ArialMT-72" x="566.845703"/>
      <use xlink:href="#ArialMT-65" x="600.146484"/>
      <use xlink:href="#ArialMT-6c" x="655.761719"/>
     </g>
    </g>
   </g>
   <g id="line2d_16">
    <path d="M 66.65475 163.695568 
L 67.022201 170.683154 
L 67.757102 173.965695 
L 68.124552 173.364438 
L 68.492003 176.273224 
L 68.859454 177.475739 
L 69.226904 180.352024 
L 69.594355 179.23076 
L 69.961806 176.240723 
L 70.329256 176.695729 
M 71.064157 178.141997 
L 71.431608 178.125747 
L 71.799059 178.792005 
L 72.166509 177.816993 
L 72.53396 178.824505 
L 73.268861 177.199485 
L 73.636312 177.946995 
L 74.003762 176.468226 
L 74.371213 169.610641 
L 74.738663 165.271837 
L 75.106114 164.199324 
L 75.473565 162.720556 
L 75.841015 162.883058 
L 76.208466 161.063035 
L 76.575917 163.02931 
L 76.943367 166.783106 
L 77.310818 162.314301 
L 77.678268 155.651718 
L 78.045719 153.636693 
L 78.41317 154.920459 
L 78.78062 155.01796 
L 79.148071 158.170499 
L 79.515521 154.579205 
L 79.882972 156.545479 
L 80.250423 155.651718 
L 80.617873 156.561729 
L 80.985324 153.929197 
L 81.352774 153.116687 
L 81.720225 154.96921 
L 82.087676 154.270451 
L 82.455126 157.520491 
L 82.822577 155.651718 
L 83.190028 157.569242 
L 83.557478 158.349251 
L 83.924929 162.769306 
L 84.292379 161.940546 
L 84.65983 161.615542 
L 85.027281 164.638079 
L 85.394731 169.188136 
L 85.762182 168.911882 
L 86.497083 167.628117 
L 86.864534 166.133098 
L 87.231984 166.230599 
L 87.599435 166.571853 
L 87.966885 165.645592 
L 88.334336 161.030535 
L 88.701787 161.973046 
L 89.069237 165.954346 
L 89.436688 166.441852 
L 89.804139 163.126811 
L 90.171589 163.126811 
M 90.90649 163.126811 
L 91.273941 160.169274 
L 91.641392 162.005547 
L 92.008842 162.623054 
L 92.376293 161.355539 
L 92.743743 160.835532 
L 93.111194 159.941771 
L 93.478645 157.292988 
L 93.846095 155.976722 
L 94.213546 154.059198 
L 94.580996 154.237951 
L 94.948447 155.992972 
L 95.315898 155.992972 
L 95.683348 151.865421 
L 96.050799 151.377915 
L 96.41825 151.540417 
L 96.7857 151.946672 
L 97.153151 149.736645 
L 97.520601 149.850396 
L 97.888052 149.476641 
L 98.255503 148.680382 
L 98.990404 146.080349 
L 99.725305 149.980398 
L 100.092756 151.605418 
L 100.460206 147.916622 
L 100.827657 145.901597 
L 101.562558 148.56663 
L 101.930009 147.819121 
L 102.297459 150.532905 
L 102.66491 150.467904 
L 103.032361 148.55038 
L 103.399811 148.55038 
M 104.134712 153.506691 
L 104.502163 153.994197 
L 104.869614 155.992972 
L 105.237064 151.052911 
L 105.604515 151.524167 
L 105.971965 151.085411 
L 106.339416 151.670419 
L 106.706867 155.635468 
L 107.074317 155.602967 
L 107.441768 154.026698 
L 108.176669 148.58288 
L 108.54412 150.077899 
L 108.91157 151.00416 
L 109.279021 154.579205 
L 109.646472 154.96921 
L 110.013922 154.96921 
L 110.381373 153.961697 
L 110.748823 157.146737 
L 111.483725 153.474191 
L 111.851175 153.539192 
L 112.218626 155.79797 
L 112.586076 155.960472 
L 112.953527 157.764244 
L 113.688428 153.506691 
L 114.055879 153.37669 
L 114.79078 160.754281 
L 115.158231 164.768081 
L 115.525681 163.175561 
L 115.893132 159.714268 
L 116.628033 160.039272 
L 116.995484 160.738031 
L 117.362934 160.510528 
L 117.730385 160.559279 
L 118.097836 162.070548 
L 118.465286 162.005547 
L 118.832737 162.785557 
L 119.200187 162.103048 
L 119.567638 163.07806 
L 119.935089 165.46684 
L 120.302539 165.824344 
L 120.66999 165.45059 
L 121.03744 164.751831 
L 121.404891 165.46684 
L 121.772342 167.09186 
L 122.139792 173.266936 
L 122.507243 173.933195 
L 122.874694 173.998196 
L 123.242144 176.013221 
L 123.609595 176.435726 
L 123.977045 175.20071 
L 124.344496 176.77698 
L 124.711947 175.216961 
L 125.446848 176.029471 
L 125.814298 176.061971 
L 126.181749 177.313237 
L 126.5492 179.344512 
L 126.91665 179.539514 
L 127.651552 186.104596 
L 128.019002 185.66584 
L 128.386453 185.828342 
L 129.121354 175.736967 
M 129.856255 174.3882 
L 130.223706 176.224473 
L 130.591156 171.771918 
L 131.326058 178.255748 
L 131.693508 174.258199 
L 132.060959 175.623216 
L 132.428409 176.061971 
L 133.163311 179.149509 
L 133.530761 179.084509 
L 133.898212 173.494439 
L 134.633113 176.858231 
L 135.000564 176.273224 
L 135.368014 177.816993 
L 135.735465 175.688217 
L 136.102916 177.215735 
L 136.470366 176.858231 
L 136.837817 178.873256 
L 137.205267 176.370725 
L 137.572718 176.841981 
L 137.940169 176.533227 
L 138.307619 178.044496 
L 138.67507 173.331937 
L 139.04252 170.260649 
L 139.409971 169.740643 
L 139.777422 168.976883 
L 140.144872 169.058134 
L 140.512323 170.894407 
L 140.879774 174.160698 
L 141.247224 175.281961 
L 141.614675 175.899469 
L 141.982125 174.128197 
L 142.349576 176.484476 
L 142.717027 177.426988 
L 143.819378 178.450751 
L 144.186829 178.011995 
L 144.55428 179.685766 
L 144.92173 176.338225 
L 145.289181 175.623216 
L 146.024082 175.834468 
L 146.391533 175.688217 
L 146.758983 177.378237 
L 147.126434 177.004483 
L 147.493885 178.792005 
L 147.861335 179.945769 
L 148.228786 178.223248 
L 148.596236 180.595777 
L 148.963687 180.595777 
L 149.331138 185.470838 
L 149.698588 188.233372 
L 150.066039 186.608352 
L 150.433489 186.332099 
L 150.80094 185.080833 
L 151.168391 184.642078 
L 151.535841 182.675803 
L 151.903292 181.570789 
L 152.270742 182.903306 
L 152.638193 182.919556 
L 153.005644 183.699566 
L 153.373094 182.627053 
L 153.740545 183.862068 
L 154.107996 185.568339 
L 154.475446 185.438337 
L 154.842897 186.348349 
L 155.210347 189.192134 
L 155.577798 189.598389 
L 156.312699 190.882155 
L 156.68015 193.579688 
L 157.0476 194.359698 
L 157.415051 192.490925 
L 158.149952 194.717202 
L 158.517403 193.953443 
L 158.884853 196.260972 
L 159.252304 196.390973 
L 159.619755 195.529713 
L 159.987205 193.205934 
M 160.722107 193.433437 
L 161.089557 193.807191 
L 161.457008 195.757215 
L 161.824458 194.197196 
M 162.55936 194.733453 
L 162.92681 195.903467 
L 163.294261 198.617251 
L 163.661711 199.137257 
L 164.396613 204.711076 
L 164.764063 206.336097 
L 165.131514 207.246108 
L 165.498964 206.823603 
L 165.866415 206.888603 
L 166.233866 209.228632 
L 166.601316 209.228632 
L 166.968767 211.42241 
L 167.336218 208.854878 
L 167.703668 204.19107 
L 168.071119 205.231083 
L 169.173471 200.047269 
L 169.540921 199.836016 
L 169.908372 200.95728 
L 170.275822 203.346059 
L 170.643273 201.071031 
L 171.010724 200.453524 
L 171.378174 201.119782 
L 171.745625 202.273546 
L 172.113075 204.694826 
L 172.480526 205.523586 
L 172.847977 206.856103 
L 173.215427 202.013543 
M 173.950329 203.167307 
L 174.317779 199.722265 
L 174.68523 199.738515 
L 175.05268 202.241046 
L 175.420131 199.104757 
L 175.787582 201.851041 
L 176.155032 202.501049 
L 176.522483 200.339772 
L 176.889933 195.578463 
L 177.257384 195.31846 
L 177.624835 195.627214 
L 177.992285 194.570951 
L 178.359736 195.594713 
L 179.094637 190.280897 
L 179.462088 190.053395 
L 179.829538 188.265872 
L 180.196989 190.914655 
L 180.56444 189.64714 
L 180.93189 191.840917 
L 181.299341 192.767178 
L 182.034242 189.842142 
L 182.401693 189.890893 
L 183.136594 187.810867 
L 183.504044 190.573401 
L 183.871495 191.402161 
M 184.606396 191.402161 
L 184.973847 193.969693 
L 185.708748 193.969693 
L 186.8111 195.383461 
L 187.178551 192.312173 
L 187.546001 193.319685 
L 187.913452 187.534613 
L 188.280902 186.120846 
L 188.648353 183.780817 
L 189.015804 184.122071 
L 189.383254 183.780817 
L 189.750705 186.543351 
L 190.118155 186.023345 
L 190.485606 183.780817 
L 190.853057 183.667065 
L 191.587958 182.237048 
L 191.955409 183.862068 
L 192.322859 182.285798 
L 192.69031 181.912044 
L 193.05776 179.588265 
L 193.425211 179.523264 
L 193.792662 179.23076 
L 194.160112 183.667065 
L 194.527563 183.683316 
L 194.895013 181.554539 
L 195.262464 181.213285 
L 195.629915 184.739579 
L 195.997365 182.172047 
L 196.364816 178.808255 
L 196.732266 178.239498 
L 197.099717 177.231986 
L 197.467168 174.891957 
L 198.202069 174.176948 
L 198.56952 177.296986 
L 198.93697 174.810706 
L 199.304421 176.061971 
L 200.406773 173.218186 
L 200.774223 173.916945 
M 201.509124 173.640691 
L 201.876575 174.37195 
L 202.244026 173.981945 
L 202.611476 174.875706 
L 202.978927 174.160698 
L 203.713828 171.251911 
L 204.081279 171.479414 
L 204.448729 172.925682 
L 204.81618 173.478189 
L 205.183631 175.883219 
L 205.551081 176.549477 
L 205.918532 179.490764 
L 206.285982 178.011995 
L 206.653433 174.583203 
L 207.020884 175.395713 
L 207.755785 174.664454 
L 208.490686 180.449526 
L 208.858137 178.467001 
L 209.225587 175.038208 
L 209.960488 176.256974 
L 210.327939 175.655716 
L 210.69539 179.523264 
L 211.06284 179.425763 
L 211.430291 179.052008 
L 211.797742 181.327036 
L 212.165192 182.123296 
L 212.532643 177.768242 
L 212.900093 181.099534 
L 213.267544 178.922007 
L 213.634995 178.532002 
L 214.002445 179.99452 
L 214.369896 179.425763 
L 214.737346 179.23076 
L 215.472248 181.798292 
L 215.839698 182.578302 
L 216.207149 182.903306 
L 216.94205 185.64959 
L 217.309501 187.453362 
L 217.676951 188.412124 
L 218.044402 188.688378 
L 218.411853 187.957119 
L 219.514204 183.423312 
L 219.881655 183.21206 
L 220.249106 185.129584 
L 220.616556 181.814542 
L 220.984007 180.368275 
L 221.351457 176.80948 
L 221.718908 175.249461 
L 222.086359 174.745705 
L 222.453809 173.315687 
L 222.82126 173.429438 
L 223.18871 175.525714 
L 223.556161 174.550702 
L 223.923612 176.403225 
L 224.291062 173.656941 
L 224.658513 172.990683 
L 225.025964 172.990683 
L 225.393414 175.785718 
L 225.760865 175.785718 
L 226.128315 180.482026 
L 226.863217 177.768242 
L 227.230667 178.597003 
L 227.598118 177.313237 
L 227.965568 173.689442 
L 228.333019 175.086959 
L 228.70047 175.98072 
L 229.06792 178.158247 
L 229.435371 179.507014 
L 229.802821 179.21451 
L 230.170272 180.140772 
L 230.537723 178.873256 
L 230.905173 180.173272 
L 231.272624 178.954507 
L 231.640075 176.971982 
L 232.007525 177.784493 
L 232.374976 177.946995 
L 232.742426 180.644528 
L 233.109877 179.767017 
L 233.477328 174.989458 
L 233.844778 175.298212 
L 234.212229 174.696954 
L 234.579679 174.37195 
L 235.314581 172.210673 
L 235.682031 171.641916 
L 236.049482 169.935645 
L 236.784383 173.201936 
L 237.151834 173.591941 
L 237.519284 174.274449 
L 238.254186 172.74693 
L 238.621636 169.431889 
L 238.989087 171.755668 
L 239.356537 171.983171 
L 239.723988 172.76318 
L 240.091439 173.933195 
L 240.458889 174.095697 
L 240.82634 173.851944 
L 241.561241 178.613253 
L 241.928692 179.312011 
L 242.296142 181.765792 
L 242.663593 182.4483 
L 243.031044 183.715816 
L 243.398494 184.089571 
L 243.765945 183.049558 
L 244.133395 182.3833 
L 244.500846 182.724554 
L 244.868297 186.072095 
L 245.235747 185.714591 
L 245.603198 181.944544 
L 245.970648 180.449526 
L 246.338099 181.262036 
L 246.70555 181.522039 
L 247.073 179.003258 
L 247.440451 178.775755 
L 247.807901 178.060746 
L 248.175352 176.435726 
L 248.542803 178.41825 
L 248.910253 177.898244 
L 249.277704 181.083283 
L 249.645155 175.769468 
L 250.012605 168.73313 
L 250.380056 168.619379 
L 250.747506 167.07561 
L 251.114957 168.68438 
L 251.849858 169.838144 
L 252.217309 168.879382 
L 252.584759 165.954346 
L 252.95221 167.10811 
L 253.319661 167.319363 
L 253.687111 169.643142 
L 254.054562 165.694343 
L 254.422012 166.701855 
L 254.789463 165.028084 
L 255.156914 167.546866 
L 255.524364 165.873095 
L 255.891815 166.051847 
M 256.994167 164.394326 
L 257.729068 164.378076 
M 258.463969 164.231824 
L 258.83142 165.011834 
L 259.19887 164.329326 
L 259.566321 162.850557 
L 260.301222 167.238112 
L 260.668673 166.571853 
L 261.036123 165.109335 
L 261.771025 165.45059 
L 262.138475 164.833082 
L 262.505926 166.31185 
L 262.873377 167.270612 
L 263.240827 164.248075 
L 263.608278 164.638079 
L 263.975728 164.800581 
L 264.343179 165.385589 
L 264.71063 162.866808 
L 265.07808 164.638079 
L 265.445531 164.68683 
L 266.180432 163.02931 
L 266.547883 162.785557 
L 266.915333 162.818057 
L 267.282784 164.280575 
L 267.650234 166.27935 
L 268.017685 165.255587 
L 268.385136 165.970596 
L 268.752586 163.988071 
L 269.120037 165.694343 
L 269.487488 164.378076 
L 270.222389 165.678092 
L 270.589839 165.158086 
L 270.95729 163.90682 
L 271.324741 162.135548 
L 271.692191 164.475577 
L 272.059642 162.980559 
L 272.427092 164.816832 
L 272.794543 164.881833 
L 273.161994 166.978108 
L 273.529444 163.143061 
L 273.896895 165.678092 
L 274.264345 165.743093 
L 274.631796 164.751831 
L 274.999247 164.946833 
L 275.366697 167.07561 
L 275.734148 171.381913 
L 276.101599 171.414414 
L 276.8365 173.088184 
L 277.20395 171.414414 
L 277.571401 171.528165 
L 277.938852 171.495665 
L 278.306302 171.349413 
L 279.041203 173.153185 
L 279.408654 172.161923 
L 279.776105 172.486927 
L 280.143555 172.243174 
L 280.878456 170.228149 
L 281.245907 168.781881 
L 281.613358 168.863132 
L 281.980808 169.123135 
L 282.348259 167.433114 
L 283.08316 166.555603 
L 283.818061 164.65433 
L 284.185512 164.751831 
L 284.552963 164.71933 
L 284.920413 164.231824 
M 285.655314 164.65433 
L 286.022765 168.213124 
L 286.390216 168.489377 
L 286.757666 171.365663 
L 287.125117 172.551928 
L 287.492567 173.331937 
L 287.860018 173.461939 
L 288.227469 172.454426 
L 288.594919 173.315687 
L 288.96237 173.315687 
L 289.329821 171.771918 
L 289.697271 173.55944 
L 290.064722 174.3557 
L 290.432172 176.451976 
L 290.799623 176.581978 
L 291.167074 177.946995 
L 291.534524 177.215735 
L 292.269425 173.770693 
L 292.636876 173.933195 
L 293.004327 170.3419 
L 293.371777 170.471902 
L 293.739228 169.578141 
L 294.106679 169.659392 
L 294.474129 167.92062 
L 294.84158 166.994359 
L 295.20903 167.254362 
L 295.576481 167.09186 
L 295.943932 168.781881 
L 296.311382 171.073159 
L 296.678833 168.781881 
L 297.413734 173.413188 
L 297.781185 171.771918 
L 298.148635 174.940707 
L 298.883536 175.509464 
L 299.618438 178.450751 
L 299.985888 177.898244 
L 300.353339 177.020733 
L 300.72079 177.394488 
L 301.08824 179.799517 
L 302.190592 179.052008 
L 302.558043 182.220798 
L 302.925493 181.180785 
L 303.292944 181.440788 
L 303.660394 181.960794 
L 304.027845 182.042045 
L 304.395296 178.662003 
L 304.762746 178.206998 
L 305.130197 177.280736 
L 305.497647 177.183235 
L 305.865098 173.851944 
L 306.232549 173.819443 
L 306.599999 176.370725 
L 306.96745 174.826956 
L 307.334901 178.174497 
L 308.437252 177.751992 
L 308.804703 176.256974 
L 309.172154 175.866969 
L 309.539604 176.240723 
L 309.907055 175.818218 
L 310.274505 175.13571 
L 310.641956 174.810706 
L 311.009407 176.549477 
L 311.376857 175.99697 
L 311.744308 173.754443 
L 312.111758 172.308175 
L 312.479209 171.349413 
L 312.84666 169.188136 
L 313.21411 169.204386 
L 313.581561 171.186911 
L 313.949012 169.041884 
L 314.316462 167.758118 
L 314.683913 168.408126 
L 315.051363 170.130648 
L 315.418814 168.895632 
L 315.786265 168.928133 
L 316.153715 168.229374 
L 316.521166 170.049397 
L 316.888616 170.3419 
L 317.256067 172.600678 
L 317.623518 171.804418 
L 317.990968 171.836919 
L 318.358419 170.878157 
L 318.725869 169.285637 
L 319.09332 168.71688 
L 319.460771 168.68438 
L 319.828221 169.626891 
L 320.195672 169.399389 
L 320.563123 169.399389 
L 320.930573 169.773143 
L 321.298024 169.334388 
L 321.665474 168.066872 
L 322.032925 167.319363 
L 322.400376 168.213124 
L 323.135277 165.158086 
L 323.502727 165.678092 
L 323.870178 165.044335 
L 324.237629 165.613092 
L 324.605079 164.215574 
L 324.97253 163.468065 
L 325.33998 161.45304 
L 326.074882 163.500565 
L 326.442332 161.745544 
L 327.177234 159.87677 
L 327.544684 159.178012 
L 327.912135 157.130486 
L 328.279585 156.561729 
L 328.647036 158.2355 
L 329.014487 158.137999 
L 329.749388 163.224312 
L 330.116838 162.493053 
L 330.484289 162.688055 
L 330.85174 160.916783 
L 331.21919 163.500565 
L 331.586641 163.84182 
L 331.954091 161.680543 
L 332.321542 162.476803 
L 332.688993 162.476803 
L 333.423894 160.266775 
L 333.791345 160.039272 
L 334.158795 159.356764 
L 334.526246 159.730519 
L 334.893696 159.616767 
L 335.261147 159.941771 
L 335.628598 159.698018 
L 335.996048 158.706756 
L 336.363499 158.21925 
L 336.730949 155.944222 
L 337.0984 155.131712 
L 337.465851 153.994197 
L 337.833301 154.595455 
L 338.200752 154.904209 
L 338.568202 153.880446 
L 338.935653 149.249139 
L 339.303104 149.102887 
L 339.670554 149.752895 
L 340.038005 148.891634 
L 340.405456 149.119137 
L 340.772906 151.410415 
L 341.140357 154.709206 
L 341.507807 154.1567 
L 341.875258 154.270451 
L 342.242709 154.010448 
L 342.610159 154.010448 
L 342.97761 152.482929 
L 343.34506 151.442916 
L 344.079962 150.370403 
L 344.447412 150.906659 
L 344.814863 150.402903 
L 345.182313 150.110399 
L 345.549764 150.451654 
L 345.917215 148.761633 
L 346.284665 150.581655 
L 346.652116 150.581655 
L 347.019567 152.531679 
L 347.387017 152.336677 
L 348.121918 147.055361 
L 348.489369 148.127875 
L 348.85682 150.240401 
L 349.591721 149.996648 
L 349.959171 148.956635 
L 350.326622 150.19165 
L 350.694073 148.989135 
L 351.061523 148.647881 
L 351.428974 148.696632 
M 352.531326 146.389103 
L 352.898776 145.137838 
L 353.266227 145.251589 
M 354.001128 145.381591 
L 354.736029 142.001549 
L 355.10348 143.171563 
L 355.838381 141.432792 
L 356.573282 139.352766 
L 356.940733 140.52278 
L 357.308184 139.434017 
L 357.675634 140.912785 
L 358.043085 141.254039 
L 358.410536 140.782784 
L 358.777986 142.277802 
L 359.145437 141.042787 
L 359.512887 140.246527 
L 359.880338 140.084025 
L 360.247789 138.182751 
L 360.615239 139.807772 
L 360.98269 142.521555 
L 361.35014 143.545318 
L 361.717591 143.545318 
L 362.085042 142.212801 
L 362.452492 144.081575 
L 362.819943 143.69157 
L 363.554844 146.860359 
L 364.289745 151.247913 
L 364.657196 152.61293 
L 365.024647 153.035436 
L 365.392097 152.466679 
L 365.759548 151.540417 
L 366.126998 149.200388 
L 366.494449 148.144125 
L 366.8619 148.58288 
L 367.22935 148.371628 
L 367.964251 144.747833 
L 368.331702 143.252814 
L 368.699153 143.854072 
L 369.434054 149.314139 
L 369.801504 149.265389 
L 370.168955 146.795358 
L 370.536406 146.97411 
L 370.903856 147.916622 
L 371.271307 149.899147 
L 371.638758 147.75412 
L 372.006208 148.826633 
L 372.373659 149.36289 
L 372.741109 150.321652 
L 373.10856 150.224151 
L 373.476011 148.58288 
L 373.843461 148.355378 
L 374.210912 146.437854 
L 374.578362 142.94406 
L 374.945813 141.595294 
L 375.313264 141.514043 
L 376.048165 142.164051 
L 376.415615 142.976561 
L 376.783066 141.530293 
M 377.885418 141.530293 
L 378.252869 146.372853 
L 378.620319 145.560343 
L 378.98777 145.609094 
L 379.35522 142.87906 
L 380.090122 135.485218 
L 380.457572 137.597744 
L 380.825023 134.770209 
L 381.192473 136.606482 
L 381.559924 137.158989 
L 381.927375 133.876448 
L 382.294825 132.056425 
L 382.662276 132.43018 
L 383.029726 132.560182 
L 383.397177 130.415155 
L 383.764628 133.778947 
L 384.132078 131.178915 
L 384.499529 131.276416 
L 384.86698 130.317654 
L 385.23443 132.056425 
L 385.601881 134.83521 
L 385.969331 134.331454 
L 386.336782 132.218927 
M 387.071683 133.177689 
L 387.439134 127.58762 
L 387.806584 127.60387 
L 388.174035 127.961375 
L 388.908936 125.410093 
L 389.276387 126.628858 
L 389.643837 123.54132 
L 390.011288 126.320104 
L 390.378739 126.385105 
L 390.746189 123.005063 
L 391.11364 125.816348 
L 391.481091 125.475094 
L 391.848541 129.21264 
M 392.583442 132.608932 
L 392.950893 130.366404 
L 393.318344 129.456393 
L 393.685794 132.560182 
L 394.053245 134.396454 
L 394.420695 135.208965 
L 394.788146 134.688958 
L 395.155597 131.438918 
L 395.523047 131.63392 
L 395.890498 132.495181 
L 396.625399 131.698921 
L 396.99285 132.186427 
L 397.3603 136.655232 
L 397.727751 132.023925 
L 398.095202 131.942674 
L 398.462652 133.031438 
L 398.830103 135.273965 
L 399.197553 133.973949 
L 399.565004 135.355216 
L 399.932455 134.120201 
L 400.299905 130.0414 
L 400.667356 129.765147 
L 401.034806 127.847623 
L 401.769708 130.398905 
L 402.137158 128.578882 
L 402.504609 128.41638 
L 402.87206 131.845173 
L 403.23951 128.432631 
L 403.606961 127.262616 
L 403.974411 131.243915 
L 404.341862 136.508981 
L 404.709313 133.25894 
L 405.076763 138.264002 
L 405.444214 138.524006 
L 405.811664 139.092763 
L 406.179115 136.785234 
L 406.546566 136.703983 
L 406.914016 134.331454 
L 407.648917 133.973949 
L 408.016368 132.608932 
L 408.383819 132.072676 
L 408.751269 131.828923 
L 409.11872 133.177689 
L 409.486171 136.232727 
L 409.853621 135.143964 
L 410.221072 135.907723 
L 410.588522 135.858973 
L 410.955973 136.183977 
L 411.323424 138.784009 
L 411.690874 139.044012 
L 412.058325 138.312753 
L 412.425775 138.930261 
L 412.793226 138.686508 
L 413.160677 142.570306 
L 414.630479 137.25649 
L 414.99793 135.127714 
L 415.732831 132.771434 
L 416.100282 132.771434 
L 416.467732 130.333904 
L 416.835183 130.073901 
L 417.202633 128.481381 
L 417.570084 128.660133 
L 417.937535 127.246366 
L 418.304985 127.733872 
L 419.039886 130.723909 
L 419.407337 130.918911 
L 420.142238 126.580108 
L 420.509689 123.655071 
L 420.877139 127.490119 
L 421.24459 127.148865 
L 421.612041 126.580108 
L 421.979491 124.906337 
L 422.346942 124.613833 
L 422.714393 125.263841 
L 423.081843 125.475094 
L 423.449294 122.241304 
L 423.816744 120.096277 
L 424.551646 121.185041 
L 424.919096 119.267517 
L 425.286547 115.659972 
L 425.653997 114.538708 
L 426.021448 114.831212 
L 426.388899 113.823699 
L 427.1238 116.829987 
L 427.49125 115.302468 
L 427.858701 117.479995 
L 428.226152 121.493794 
L 428.593602 122.533807 
L 428.961053 122.208803 
L 429.328504 122.826311 
L 429.695954 123.833823 
L 430.063405 123.200066 
L 430.798306 122.956313 
L 431.533207 128.010125 
L 431.900658 128.075126 
L 432.635559 127.652621 
L 433.00301 130.707659 
L 433.37046 132.072676 
L 433.737911 137.906498 
L 434.105361 138.134001 
L 434.472812 135.582719 
L 434.840263 138.89776 
L 435.207713 139.775271 
L 435.575164 141.091537 
L 435.942615 141.546543 
L 436.310065 140.246527 
L 436.677516 147.331615 
L 437.044966 148.257876 
L 437.412417 147.071612 
L 437.779868 147.591618 
L 438.147318 149.460391 
L 438.514769 153.750444 
L 438.882219 153.506691 
L 439.24967 154.384202 
L 439.617121 159.941771 
L 439.984571 156.675481 
L 440.352022 156.870483 
L 440.719472 159.486766 
L 441.086923 158.966759 
L 441.454374 159.909271 
L 441.821824 155.911721 
L 442.189275 154.20545 
L 442.556726 153.912946 
L 442.924176 159.714268 
L 443.291627 153.40919 
L 443.659077 155.716719 
L 444.026528 156.62673 
L 444.393979 156.285476 
L 444.761429 157.764244 
L 445.12888 158.528004 
L 445.49633 160.104273 
L 445.863781 163.89057 
L 446.231232 163.338063 
L 446.598682 167.823119 
L 446.966133 169.301887 
M 448.435935 170.016896 
L 448.803386 171.511915 
M 449.905738 165.840594 
L 450.273188 167.189361 
L 450.640639 163.273063 
L 451.00809 160.900533 
L 451.37554 161.209287 
L 451.742991 157.065486 
L 452.110441 155.424215 
L 452.477892 157.42299 
L 452.845343 158.137999 
L 453.212793 158.381752 
L 453.580244 156.496729 
L 453.947694 156.431728 
L 454.315145 152.872934 
L 454.682596 152.645431 
L 455.050046 154.725457 
L 455.417497 154.481704 
L 455.784948 154.416703 
L 456.152398 153.766695 
L 456.519849 156.659231 
L 457.25475 153.116687 
L 457.622201 152.190425 
L 457.989651 153.165437 
L 458.357102 152.515429 
L 458.724552 153.474191 
L 459.092003 152.58043 
L 459.459454 154.546704 
L 459.826904 153.961697 
L 460.194355 154.075448 
L 460.561806 151.995423 
L 461.296707 149.687894 
L 461.664157 147.006611 
L 462.031608 145.771596 
L 462.399059 146.665357 
L 462.766509 145.105337 
L 463.13396 144.959085 
L 463.50141 144.959085 
L 463.868861 149.655394 
L 464.236312 148.859134 
L 464.603762 147.169113 
L 464.971213 148.014123 
L 465.338663 150.15915 
L 465.706114 148.972885 
L 466.073565 149.297889 
L 466.808466 148.355378 
L 467.175917 146.990361 
L 467.543367 147.965373 
L 467.910818 147.526617 
L 468.278268 146.616606 
L 468.645719 146.14535 
L 469.01317 146.259102 
L 469.748071 144.601581 
L 470.115521 142.619056 
L 470.482972 142.700307 
L 470.850423 145.966598 
L 471.217873 144.211576 
L 471.585324 143.984073 
L 471.952774 144.244077 
L 472.320225 146.307852 
L 472.687676 143.301565 
L 473.055126 141.432792 
L 473.422577 140.45778 
L 473.790028 141.221539 
L 474.157478 140.262777 
L 474.524929 140.051525 
L 474.892379 138.117751 
L 475.25983 138.280253 
L 475.627281 137.28899 
L 475.994731 137.825247 
L 476.362182 137.386492 
L 476.729632 138.475255 
L 477.097083 138.735258 
L 477.464534 138.08525 
L 477.831984 138.784009 
M 478.566885 138.784009 
L 478.934336 132.803935 
L 479.301787 134.103951 
L 479.669237 131.910174 
L 480.036688 138.264002 
L 480.404139 137.955249 
L 480.771589 136.378979 
L 481.13904 136.671483 
L 481.50649 139.027762 
L 481.873941 136.768984 
L 482.241392 136.768984 
L 482.608842 138.345253 
L 482.976293 138.166501 
L 483.343743 138.946511 
L 484.078645 136.118976 
L 484.446095 135.826472 
L 484.813546 134.916461 
L 485.180996 132.300178 
L 485.915898 134.721458 
L 486.283348 135.160214 
L 486.650799 136.785234 
L 487.01825 142.586556 
L 487.3857 143.220314 
M 488.120601 139.629019 
L 488.488052 138.89776 
L 488.855503 140.669032 
L 489.222953 145.170338 
L 489.590404 151.052911 
L 489.957854 150.402903 
L 490.325305 152.710432 
L 490.692756 151.686669 
L 491.060206 149.525392 
L 491.427657 149.184138 
L 491.795107 150.402903 
L 492.162558 153.490441 
L 492.530009 150.857909 
L 492.897459 151.101662 
L 493.26491 152.027923 
L 493.632361 150.744157 
L 493.999811 151.556667 
L 494.367262 147.347865 
L 494.734712 146.454104 
L 495.102163 147.802871 
L 495.469614 146.047849 
L 495.837064 145.056587 
L 496.204515 145.170338 
L 496.571965 143.967823 
L 497.306867 151.76792 
L 497.674317 150.451654 
L 498.041768 150.305402 
L 498.776669 148.241626 
L 499.14412 149.200388 
L 499.51157 145.771596 
L 499.879021 143.772821 
L 500.246472 145.381591 
L 500.613922 145.040336 
L 500.981373 146.649106 
L 501.348823 150.224151 
L 501.716274 155.050461 
L 502.083725 154.497954 
L 502.451175 153.002935 
L 502.818626 152.482929 
L 503.186076 149.964148 
L 503.553527 150.549155 
L 503.920978 152.190425 
L 504.288428 152.466679 
L 504.655879 152.044173 
L 505.023329 149.574143 
L 505.39078 151.475416 
L 506.125681 157.292988 
L 506.493132 158.414252 
L 506.860583 164.264325 
L 507.595484 160.461778 
L 507.962934 160.851783 
L 508.330385 156.350477 
L 508.697836 159.665518 
L 509.065286 160.461778 
L 509.432737 157.812995 
L 509.800187 156.529229 
L 510.167638 157.764244 
L 510.535089 155.212963 
L 510.902539 156.496729 
L 511.26999 158.398002 
L 511.63744 158.398002 
L 512.004891 158.723006 
L 512.372342 155.505466 
L 512.739792 155.229213 
L 513.107243 154.497954 
L 513.474694 158.544254 
L 513.842144 159.551766 
L 514.577045 151.80042 
L 514.944496 154.107949 
L 515.311947 149.704144 
L 515.679397 148.599131 
L 516.046848 151.280414 
L 516.414298 154.952959 
L 516.781749 154.1567 
L 517.1492 142.505305 
L 517.51665 147.104112 
L 517.884101 149.216638 
L 518.251552 149.281639 
L 518.619002 147.689119 
L 519.353903 149.476641 
L 519.721354 152.271676 
L 520.088805 152.807933 
L 520.456255 152.157925 
L 520.823706 154.579205 
L 521.191156 156.090473 
L 521.558607 159.568017 
L 521.926058 159.421765 
L 522.293508 157.601742 
L 522.660959 157.065486 
L 523.028409 159.210512 
L 523.39586 156.675481 
L 523.763311 157.682993 
L 524.130761 155.229213 
L 524.498212 158.121749 
L 524.865663 157.504241 
L 525.600564 157.244238 
L 525.968014 156.252975 
L 526.335465 157.894246 
L 526.702916 155.375465 
L 527.070366 155.342964 
L 527.437817 153.40919 
L 527.805267 152.840433 
L 528.172718 155.554217 
L 528.540169 154.481704 
L 529.27507 157.325489 
L 529.64252 155.911721 
L 530.009971 152.092924 
L 530.377422 151.76792 
L 530.744872 152.759182 
L 531.112323 151.962922 
L 531.479774 152.937934 
L 531.847224 151.995423 
L 532.214675 152.629181 
L 532.582125 152.499179 
L 532.949576 152.190425 
L 533.317027 150.792908 
L 534.051928 152.336677 
L 534.786829 148.079124 
L 535.52173 148.599131 
L 536.256631 148.014123 
L 536.624082 148.58288 
L 536.991533 148.875384 
L 537.358983 150.98791 
L 537.726434 151.394165 
L 538.093885 147.656619 
L 538.461335 146.97411 
L 538.828786 145.625344 
L 539.196236 145.722845 
L 539.563687 145.511592 
L 539.931138 147.461616 
L 540.298588 145.34909 
L 541.40094 141.579044 
L 541.768391 141.367791 
L 542.135841 140.425279 
L 542.870742 144.016574 
L 543.238193 141.140288 
M 543.973094 141.140288 
L 544.340545 141.709045 
L 545.075446 143.561568 
M 545.810347 144.731583 
L 546.177798 141.432792 
L 546.545249 139.531518 
L 547.28015 144.309077 
L 547.6476 145.495342 
L 548.015051 145.186588 
L 548.382502 149.460391 
L 548.749952 148.956635 
L 549.117403 150.841658 
L 549.484853 148.664131 
L 549.852304 149.606643 
L 550.219755 148.664131 
L 550.587205 150.240401 
L 550.954656 152.759182 
L 551.322107 154.140449 
L 551.689557 157.260488 
L 552.057008 158.560504 
L 552.424458 157.211737 
L 552.791909 157.065486 
L 553.15936 159.893021 
L 553.52681 159.81177 
L 553.894261 165.938096 
L 554.261711 166.100598 
L 554.629162 163.728068 
L 554.996613 164.020572 
L 555.364063 165.076835 
L 555.731514 166.929358 
L 556.098964 165.938096 
L 556.466415 163.435565 
L 557.568767 159.714268 
L 557.936218 160.494278 
L 558.303668 156.64298 
L 558.671119 156.886733 
L 559.038569 158.463003 
L 559.773471 163.84182 
L 560.140921 164.378076 
L 560.508372 168.879382 
L 560.875822 170.3094 
L 561.243273 168.343125 
L 561.978174 169.415639 
L 562.345625 170.3419 
L 562.713075 179.588265 
L 563.080526 196.277222 
L 563.447977 195.887217 
L 563.815427 197.70724 
L 564.182878 203.281059 
L 564.550329 201.282284 
L 564.917779 208.22112 
L 565.28523 208.23737 
L 565.65268 216.654975 
L 566.020131 214.721201 
L 566.387582 212.169919 
L 566.755032 215.094955 
L 567.122483 213.87619 
L 567.489933 212.056167 
L 567.857384 215.419959 
L 568.224835 217.304983 
L 568.592285 222.505047 
L 568.959736 229.557635 
L 569.327187 229.362632 
L 570.062088 214.152443 
L 570.429538 216.996229 
L 570.796989 217.776238 
L 571.16444 212.706176 
L 571.53189 220.815026 
M 572.634242 218.361246 
L 573.001693 221.513785 
L 573.369143 223.317557 
L 573.736594 221.595036 
L 574.104044 225.478834 
L 574.471495 238.869 
L 574.838946 231.312656 
L 575.206396 229.21638 
L 575.573847 227.900114 
L 575.941298 229.037628 
L 576.308748 228.338869 
L 576.676199 224.666324 
L 577.043649 224.260069 
L 577.4111 223.642561 
L 577.778551 220.538773 
L 578.146001 212.316171 
L 578.513452 214.363696 
L 578.880902 214.314946 
M 579.615804 212.202419 
L 580.350705 208.367372 
L 580.718155 205.149832 
L 581.085606 203.39481 
L 581.453057 199.576013 
L 581.820507 199.966018 
L 582.187958 197.203483 
L 582.555409 197.170983 
L 582.922859 198.763503 
M 583.65776 198.51975 
L 584.025211 200.502274 
L 584.392662 198.470999 
L 584.760112 198.194746 
L 585.127563 193.985943 
L 585.495013 192.393424 
L 585.862464 191.970918 
L 586.229915 191.27216 
L 586.597365 187.063358 
L 586.964816 189.240885 
L 587.699717 186.770854 
L 588.067168 192.328423 
L 588.802069 189.598389 
L 589.16952 187.469613 
L 589.53697 187.924618 
L 589.904421 185.844592 
L 590.271871 184.902081 
L 590.639322 183.488313 
L 591.006773 184.268323 
L 591.374223 188.03837 
L 591.741674 186.770854 
L 592.109124 187.112108 
L 592.476575 186.120846 
L 592.844026 186.023345 
L 593.211476 185.145834 
L 593.578927 183.504563 
L 594.313828 184.252073 
L 595.048729 182.724554 
L 595.41618 184.86958 
L 595.783631 183.374562 
L 596.151081 184.05707 
L 596.518532 183.862068 
L 596.885982 182.253298 
L 597.988334 183.325811 
L 598.355785 181.684541 
L 598.723235 182.220798 
L 599.090686 183.878318 
L 599.458137 183.342061 
L 599.825587 183.179559 
L 600.193038 183.634565 
L 600.560488 182.984557 
L 600.927939 183.845818 
L 601.29539 183.602065 
L 601.66284 182.578302 
L 602.030291 182.204547 
L 602.397742 180.693279 
L 602.765192 180.498276 
L 603.132643 182.074546 
L 603.500093 181.879543 
L 603.867544 182.708304 
L 604.234995 180.417025 
L 604.602445 180.77453 
L 605.337346 180.709529 
L 605.704797 180.01077 
L 606.072248 180.222023 
L 606.807149 182.285798 
L 607.174599 181.489538 
L 607.54205 178.922007 
L 607.909501 179.279511 
L 608.276951 180.82328 
L 608.644402 180.205773 
M 609.379303 179.393262 
L 609.746754 184.300823 
L 610.114204 184.268323 
L 610.481655 186.900856 
L 610.849106 187.599614 
L 611.216556 191.077157 
L 611.584007 188.720878 
L 611.951457 189.874642 
L 612.318908 190.638402 
L 612.686359 191.012157 
L 613.053809 189.435887 
L 613.42126 186.689603 
L 613.78871 184.86958 
L 614.156161 185.178334 
L 614.523612 188.08712 
L 614.891062 187.323361 
L 615.625964 186.673353 
L 615.993414 187.209609 
L 616.360865 186.104596 
L 616.728315 188.152121 
L 617.095766 188.200872 
L 617.463217 189.094633 
L 617.830667 191.938418 
L 618.565568 186.624602 
L 618.933019 187.680865 
L 619.30047 185.438337 
L 619.66792 186.039595 
L 620.035371 187.875868 
L 620.402821 186.510851 
L 620.770272 185.747091 
L 621.872624 186.592102 
L 622.240075 186.055845 
L 622.607525 188.542126 
L 622.974976 186.608352 
L 623.342426 187.534613 
L 623.709877 190.215897 
L 624.077328 189.143383 
L 624.812229 194.278447 
L 625.179679 194.652202 
L 625.54713 192.295922 
L 625.914581 191.662165 
L 626.282031 189.208384 
L 626.649482 189.549638 
L 627.016933 191.808416 
L 627.384383 187.177109 
L 627.751834 185.032082 
L 628.119284 184.625827 
L 628.486735 185.178334 
L 628.854186 186.234597 
L 629.221636 184.284573 
L 629.589087 184.560827 
L 629.956537 183.959569 
L 630.323988 183.667065 
L 630.691439 182.529551 
L 631.058889 180.563277 
L 631.42634 177.914494 
L 631.79379 176.825731 
L 632.161241 178.41825 
L 632.528692 177.508239 
L 632.896142 177.57324 
L 633.263593 177.264486 
L 634.365945 173.900694 
L 634.733395 174.664454 
L 635.100846 174.3232 
L 635.468297 174.37195 
L 635.835747 171.90192 
L 636.203198 172.421926 
L 636.570648 171.999421 
L 636.938099 171.186911 
L 637.30555 171.089409 
L 637.673 170.488152 
L 638.040451 168.911882 
L 638.407901 171.446914 
L 638.775352 172.633179 
L 639.142803 170.731905 
L 639.510253 171.008158 
M 640.245155 171.008158 
L 640.612605 171.723167 
L 640.980056 171.235661 
L 641.347506 170.455652 
M 642.082408 171.836919 
L 642.449858 167.303113 
L 642.817309 166.2631 
L 643.184759 166.425602 
L 643.55221 163.484315 
L 643.919661 164.573079 
L 644.287111 162.720556 
L 644.654562 163.468065 
L 645.022012 163.07806 
L 645.389463 164.638079 
L 645.756914 165.596841 
L 646.124364 163.695568 
L 646.491815 163.240562 
L 646.859266 163.208062 
L 647.226716 163.955571 
L 647.594167 163.598067 
L 648.696519 164.524328 
L 649.063969 163.90682 
L 650.166321 158.446753 
L 650.901222 157.032985 
L 651.636123 154.98546 
L 652.003574 154.286701 
L 652.371025 154.416703 
L 653.105926 150.370403 
L 653.473377 149.752895 
L 653.840827 148.030374 
L 654.208278 149.541642 
L 654.575728 151.572917 
L 654.943179 148.501629 
L 655.31063 147.802871 
L 655.67808 145.056587 
L 656.045531 145.31659 
L 656.412981 146.665357 
L 657.147883 151.036661 
L 657.515333 148.55038 
L 658.250234 140.019024 
L 658.617685 143.187813 
L 658.985136 144.764083 
L 659.352586 143.951573 
L 659.720037 141.010286 
L 660.087488 141.774046 
L 660.454938 141.920298 
L 660.822389 143.269064 
L 661.189839 143.626569 
L 661.55729 152.759182 
L 661.924741 149.687894 
L 662.292191 149.866646 
L 662.659642 156.252975 
L 663.027092 150.1754 
L 663.394543 154.2217 
L 663.761994 150.061649 
L 664.129444 149.590393 
L 664.496895 150.857909 
L 665.231796 149.931647 
M 666.334148 153.799195 
L 666.701599 153.165437 
L 667.069049 152.791683 
L 667.4365 153.116687 
L 668.171401 151.589168 
L 668.538852 146.259102 
L 668.906302 146.226601 
L 669.273753 146.470354 
L 669.641203 145.560343 
L 670.376105 149.655394 
L 670.743555 147.949123 
L 671.111006 146.844109 
L 671.478456 147.250364 
L 672.213358 144.682832 
L 672.580808 142.765308 
L 672.948259 143.626569 
M 673.68316 141.709045 
L 674.050611 140.409029 
L 674.418061 142.180301 
L 674.785512 142.001549 
L 675.152963 142.196551 
L 675.520413 141.839047 
L 675.887864 140.555281 
L 676.255314 144.227826 
L 676.622765 141.172788 
L 676.990216 140.555281 
L 677.357666 141.546543 
L 678.092567 147.77037 
L 678.827469 142.229052 
L 679.56237 141.676545 
L 679.929821 140.864035 
L 680.297271 140.977786 
M 681.032172 139.889023 
L 681.399623 138.962761 
L 681.767074 138.784009 
L 682.134524 137.825247 
L 682.501975 138.491505 
L 682.869425 137.678995 
L 683.236876 137.808997 
L 684.339228 136.248977 
L 684.706679 134.445205 
L 685.074129 133.632695 
L 685.44158 135.192714 
L 685.80903 134.900211 
L 686.176481 132.641433 
L 686.911382 131.455168 
L 687.646283 129.456393 
L 688.013734 132.170177 
L 688.381185 131.195165 
L 688.748635 128.660133 
L 689.116086 129.066388 
L 689.850987 126.385105 
L 690.218438 130.496406 
L 690.585888 132.933936 
L 690.953339 131.698921 
L 691.32079 128.335129 
L 691.68824 128.936387 
L 692.055691 127.750122 
L 692.423141 130.610158 
L 692.790592 132.576432 
L 693.158043 132.690183 
L 693.525493 141.026537 
L 693.892944 139.889023 
L 694.260394 135.810222 
L 694.627845 133.031438 
L 694.995296 132.040175 
L 695.362746 132.153927 
L 695.730197 132.023925 
L 696.097647 131.666421 
L 696.832549 127.392618 
L 697.199999 133.583944 
L 697.56745 134.672708 
L 697.934901 138.329003 
L 698.302351 136.46023 
L 699.037252 140.50653 
L 699.404703 138.08525 
L 699.772154 136.703983 
L 700.139604 137.028987 
L 700.874505 139.824022 
L 701.609407 142.196551 
L 702.344308 147.234114 
L 702.711758 141.449042 
L 703.079209 137.971499 
L 703.44666 136.49273 
L 703.81411 139.255265 
L 704.181561 136.265228 
M 704.916462 134.331454 
L 705.283913 136.703983 
L 705.651363 134.152701 
L 706.386265 135.988974 
L 706.753715 137.467743 
L 707.121166 136.102726 
L 707.488616 137.792747 
L 707.856067 135.972724 
L 708.223518 135.111463 
L 708.590968 134.981462 
L 708.958419 132.072676 
L 709.325869 131.58517 
L 709.69332 132.39768 
L 710.060771 134.103951 
L 710.428221 134.00645 
L 710.795672 131.000162 
L 711.530573 127.880124 
L 711.898024 125.556345 
L 712.632925 127.165115 
L 713.000376 127.246366 
L 714.102727 119.267517 
L 714.470178 121.428794 
L 714.837629 119.885025 
L 715.205079 120.161278 
L 715.57253 117.593746 
L 715.93998 117.951251 
L 716.307431 117.951251 
L 716.674882 117.414994 
L 717.042332 116.098728 
L 717.409783 116.976238 
L 718.144684 114.327456 
L 718.512135 116.244979 
L 718.879585 114.863712 
L 719.247036 115.806224 
L 719.614487 115.383719 
L 720.349388 118.162503 
L 720.716838 118.650009 
L 721.084289 116.358731 
L 721.45174 116.504983 
L 721.81919 121.900049 
L 722.186641 123.443819 
L 722.554091 119.738773 
L 722.921542 118.455007 
L 723.288993 116.342481 
L 723.656443 118.958763 
L 724.023894 118.162503 
L 724.391345 118.975013 
L 724.758795 120.535033 
L 725.126246 119.056264 
L 725.493696 122.598808 
L 725.861147 119.706272 
L 726.228598 123.297567 
L 726.596048 122.111302 
L 726.963499 118.113753 
L 727.330949 119.836274 
L 727.6984 120.35628 
L 728.065851 136.086475 
L 728.433301 134.510206 
L 728.800752 138.540256 
L 729.168202 140.701533 
L 729.535653 139.027762 
L 729.903104 138.784009 
L 730.638005 130.935162 
L 731.005456 130.285153 
L 731.372906 133.275191 
L 731.740357 131.845173 
L 732.475258 134.461455 
L 732.842709 133.908948 
L 733.210159 132.39768 
L 733.57761 135.111463 
L 733.94506 139.109013 
L 734.679962 132.316429 
L 735.047412 129.765147 
L 735.414863 131.422668 
M 736.517215 125.913849 
L 736.884665 125.94635 
L 737.252116 128.172627 
L 737.987017 124.678834 
L 738.721918 120.453782 
L 739.089369 119.982526 
L 739.45682 121.15254 
L 739.82427 115.594971 
L 740.191721 114.213704 
L 740.559171 114.262455 
L 740.926622 112.036177 
L 741.294073 110.979914 
L 742.028974 108.022377 
L 742.396425 107.843625 
L 742.763875 107.843625 
L 743.131326 111.109916 
L 743.866227 105.454846 
L 744.233678 106.299856 
L 744.968579 103.618573 
L 745.336029 107.047365 
L 745.70348 105.113591 
L 746.070931 102.57856 
L 746.438381 96.289732 
L 746.805832 95.607223 
L 747.540733 99.39352 
L 748.275634 95.249719 
L 748.643085 88.489635 
L 749.010536 93.73845 
L 749.377986 95.34722 
L 749.745437 98.857264 
L 750.112887 97.394746 
L 750.480338 92.89344 
L 750.847789 93.250944 
L 751.215239 92.340933 
L 751.58269 89.090893 
L 751.95014 93.527198 
L 752.317591 86.182107 
L 753.052492 60.409287 
L 753.419943 66.226859 
L 753.787393 52.414188 
L 754.522295 37.269 
L 754.889745 64.244335 
L 755.257196 67.559376 
L 755.624647 61.758054 
L 755.992097 74.303209 
L 756.359548 82.834565 
L 756.726998 83.695826 
L 757.094449 69.249397 
L 757.4619 67.91688 
L 757.82935 54.965469 
L 758.196801 56.200485 
L 758.564251 46.466614 
L 758.931702 52.219185 
L 759.299153 54.347962 
L 759.666603 67.624376 
L 760.034054 70.403161 
L 760.401504 65.853104 
L 760.768955 79.340772 
L 761.136406 81.225795 
L 761.503856 77.943254 
L 761.871307 80.462036 
L 762.238758 89.870902 
L 762.606208 91.463422 
L 762.973659 89.139643 
L 763.341109 94.567211 
L 763.70856 84.00458 
L 764.076011 77.390748 
L 764.443461 73.5882 
M 765.545813 82.265808 
L 765.913264 82.980817 
L 766.280714 79.487024 
L 766.648165 82.818315 
L 767.015615 92.373433 
L 767.383066 86.49086 
L 767.750517 85.824602 
L 768.485418 77.602 
M 769.220319 83.159569 
L 769.58777 74.075706 
L 770.322671 68.664389 
L 770.690122 80.348284 
L 771.057572 86.945866 
L 771.425023 78.674513 
L 771.792473 78.089506 
L 772.159924 71.491924 
L 772.527375 67.039369 
L 772.894825 70.240659 
L 773.262276 74.871966 
L 773.629726 69.704402 
L 773.997177 69.038144 
L 774.364628 66.600614 
L 775.099529 64.520588 
L 775.46698 58.995519 
L 775.83443 56.752992 
L 776.201881 53.795455 
L 776.569331 49.700404 
L 776.936782 55.111721 
M 777.671683 49.456651 
L 778.039134 50.577915 
L 778.774035 43.73658 
L 779.141486 44.922845 
L 779.508936 46.596616 
L 779.876387 44.971596 
L 780.243837 47.279124 
L 780.611288 50.626666 
L 780.978739 49.294149 
L 781.346189 59.954281 
L 781.71364 61.530551 
L 782.081091 61.108046 
L 782.448541 65.934355 
L 782.815992 67.624376 
L 783.550893 59.190522 
L 783.918344 55.095471 
L 784.653245 59.04427 
L 785.020695 59.970532 
L 785.388146 55.761729 
L 785.755597 74.140707 
L 786.123047 77.309497 
L 786.490498 69.411899 
L 786.857948 68.518138 
L 787.225399 67.055619 
L 787.59285 79.844528 
L 787.9603 79.535774 
L 788.327751 78.609513 
L 789.062652 63.123071 
L 789.430103 66.876867 
L 789.797553 65.414349 
L 790.165004 70.37066 
L 790.532455 80.185782 
L 790.899905 77.813253 
L 791.267356 79.292021 
L 791.634806 75.521974 
L 792.002257 75.456974 
L 792.369708 72.483187 
L 792.737158 81.290796 
L 793.104609 80.608287 
L 793.83951 94.453459 
L 794.206961 90.683412 
L 794.574411 85.564599 
L 794.941862 84.995842 
L 795.309313 82.964567 
L 795.676763 79.503274 
L 796.044214 85.174594 
L 796.411664 94.030954 
L 796.779115 98.727262 
L 797.146566 95.704725 
L 797.514016 97.118492 
L 797.881467 96.95599 
L 798.248917 99.214768 
L 798.616368 92.015929 
L 798.983819 91.398421 
L 799.351269 93.120943 
L 799.71872 89.350896 
M 800.453621 92.259682 
L 800.821072 96.793488 
L 801.188522 103.797325 
L 801.555973 102.416058 
L 801.923424 100.579785 
L 802.290874 105.113591 
L 802.658325 112.588684 
L 803.025775 110.703661 
L 803.393226 104.707336 
L 803.760677 101.831051 
L 804.128127 104.122329 
L 804.495578 102.838563 
L 804.863028 108.607385 
L 805.230479 108.363632 
M 805.96538 108.054878 
L 806.332831 107.664873 
L 806.700282 106.787362 
L 807.067732 116.716235 
L 807.435183 119.54377 
L 808.170084 108.168629 
L 808.537535 108.396132 
L 808.904985 109.224892 
L 809.272436 106.332356 
L 809.639886 101.359795 
L 810.007337 100.368532 
L 810.374788 98.256006 
L 810.742238 93.007191 
L 811.84459 101.847301 
L 812.212041 99.052266 
L 812.579491 103.829825 
L 812.946942 105.747349 
L 813.314393 108.314881 
L 813.681843 105.259843 
L 814.049294 104.96734 
L 814.416744 104.479833 
L 814.784195 104.886089 
L 815.151646 104.577335 
L 815.886547 100.661036 
L 816.253997 99.897277 
L 816.621448 102.074804 
L 816.988899 99.117267 
L 817.356349 97.573498 
L 817.7238 98.841014 
L 818.09125 91.950928 
L 818.458701 91.398421 
L 819.193602 102.481059 
L 819.561053 100.531034 
L 819.928504 97.085992 
L 820.295954 101.603548 
L 820.663405 100.449783 
L 821.765757 109.176142 
L 822.133207 109.972402 
L 822.500658 109.631147 
L 822.868108 114.099953 
L 823.235559 114.603709 
L 823.60301 118.162503 
L 823.97046 118.000001 
L 824.337911 118.455007 
L 824.705361 114.571209 
L 825.072812 113.482445 
L 825.440263 113.05994 
L 826.542615 128.38388 
L 826.910065 130.155152 
L 827.277516 129.586395 
L 827.644966 126.937612 
L 828.012417 123.460069 
L 828.379868 118.276255 
L 828.747318 119.885025 
L 829.114769 123.362568 
L 829.482219 120.990038 
L 829.84967 124.581333 
L 830.217121 123.281317 
L 830.584571 124.37008 
L 830.952022 119.706272 
M 832.054374 120.925037 
L 832.421824 122.127552 
L 832.789275 119.105015 
M 833.524176 123.102564 
L 833.891627 131.308916 
L 834.259077 129.001388 
L 834.626528 129.521394 
L 835.361429 126.287604 
L 835.72888 121.883799 
L 836.09633 119.478769 
L 836.463781 118.113753 
L 836.831232 119.381268 
L 837.198682 116.569983 
L 837.566133 117.544995 
L 837.933583 115.432469 
L 838.301034 112.377431 
L 838.668485 111.43492 
L 839.035935 115.156216 
L 839.403386 115.432469 
L 839.770837 113.466195 
L 840.138287 114.977464 
L 840.505738 115.724973 
L 841.97554 125.556345 
L 842.342991 122.907562 
L 842.710441 118.942513 
L 843.077892 116.911238 
L 843.445343 118.065002 
L 843.812793 114.814962 
L 844.180244 113.969951 
L 844.915145 117.008739 
L 845.282596 117.447494 
L 845.650046 120.486282 
L 846.017497 119.153765 
L 846.384948 120.210029 
L 846.752398 124.418831 
L 847.119849 120.30753 
L 847.487299 119.933775 
L 847.85475 119.933775 
L 847.85475 119.933775 
" clip-path="url(#pcc9c528464)" style="fill: none; stroke: #4c72b0; stroke-width: 1.2; stroke-linecap: round"/>
   </g>
   <g id="patch_3">
    <path d="M 66.65475 248.949 
L 66.65475 27.189 
" style="fill: none; stroke: #cccccc; stroke-linejoin: miter; stroke-linecap: square"/>
   </g>
   <g id="patch_4">
    <path d="M 847.85475 248.949 
L 847.85475 27.189 
" style="fill: none; stroke: #cccccc; stroke-linejoin: miter; stroke-linecap: square"/>
   </g>
   <g id="patch_5">
    <path d="M 66.65475 248.949 
L 847.85475 248.949 
" style="fill: none; stroke: #cccccc; stroke-linejoin: miter; stroke-linecap: square"/>
   </g>
   <g id="patch_6">
    <path d="M 66.65475 27.189 
L 847.85475 27.189 
" style="fill: none; stroke: #cccccc; stroke-linejoin: miter; stroke-linecap: square"/>
   </g>
   <g id="text_16">
    <!-- Crude Oil Prices: Brent - Europe -->
    <g style="fill: #262626" transform="translate(319.60875 21.189) scale(0.192 -0.192)">
     <defs>
      <path id="ArialMT-43" d="M 3763 1606 
L 4369 1453 
Q 4178 706 3683 314 
Q 3188 -78 2472 -78 
Q 1731 -78 1267 223 
Q 803 525 561 1097 
Q 319 1669 319 2325 
Q 319 3041 592 3573 
Q 866 4106 1370 4382 
Q 1875 4659 2481 4659 
Q 3169 4659 3637 4309 
Q 4106 3959 4291 3325 
L 3694 3184 
Q 3534 3684 3231 3912 
Q 2928 4141 2469 4141 
Q 1941 4141 1586 3887 
Q 1231 3634 1087 3207 
Q 944 2781 944 2328 
Q 944 1744 1114 1308 
Q 1284 872 1643 656 
Q 2003 441 2422 441 
Q 2931 441 3284 734 
Q 3638 1028 3763 1606 
z
" transform="scale(0.015625)"/>
      <path id="ArialMT-75" d="M 2597 0 
L 2597 488 
Q 2209 -75 1544 -75 
Q 1250 -75 995 37 
Q 741 150 617 320 
Q 494 491 444 738 
Q 409 903 409 1263 
L 409 3319 
L 972 3319 
L 972 1478 
Q 972 1038 1006 884 
Q 1059 663 1231 536 
Q 1403 409 1656 409 
Q 1909 409 2131 539 
Q 2353 669 2445 892 
Q 2538 1116 2538 1541 
L 2538 3319 
L 3100 3319 
L 3100 0 
L 2597 0 
z
" transform="scale(0.015625)"/>
      <path id="ArialMT-64" d="M 2575 0 
L 2575 419 
Q 2259 -75 1647 -75 
Q 1250 -75 917 144 
Q 584 363 401 755 
Q 219 1147 219 1656 
Q 219 2153 384 2558 
Q 550 2963 881 3178 
Q 1213 3394 1622 3394 
Q 1922 3394 2156 3267 
Q 2391 3141 2538 2938 
L 2538 4581 
L 3097 4581 
L 3097 0 
L 2575 0 
z
M 797 1656 
Q 797 1019 1065 703 
Q 1334 388 1700 388 
Q 2069 388 2326 689 
Q 2584 991 2584 1609 
Q 2584 2291 2321 2609 
Q 2059 2928 1675 2928 
Q 1300 2928 1048 2622 
Q 797 2316 797 1656 
z
" transform="scale(0.015625)"/>
      <path id="ArialMT-4f" d="M 309 2231 
Q 309 3372 921 4017 
Q 1534 4663 2503 4663 
Q 3138 4663 3647 4359 
Q 4156 4056 4423 3514 
Q 4691 2972 4691 2284 
Q 4691 1588 4409 1038 
Q 4128 488 3612 205 
Q 3097 -78 2500 -78 
Q 1853 -78 1343 234 
Q 834 547 571 1087 
Q 309 1628 309 2231 
z
M 934 2222 
Q 934 1394 1379 917 
Q 1825 441 2497 441 
Q 3181 441 3623 922 
Q 4066 1403 4066 2288 
Q 4066 2847 3877 3264 
Q 3688 3681 3323 3911 
Q 2959 4141 2506 4141 
Q 1863 4141 1398 3698 
Q 934 3256 934 2222 
z
" transform="scale(0.015625)"/>
      <path id="ArialMT-69" d="M 425 3934 
L 425 4581 
L 988 4581 
L 988 3934 
L 425 3934 
z
M 425 0 
L 425 3319 
L 988 3319 
L 988 0 
L 425 0 
z
" transform="scale(0.015625)"/>
      <path id="ArialMT-50" d="M 494 0 
L 494 4581 
L 2222 4581 
Q 2678 4581 2919 4538 
Q 3256 4481 3484 4323 
Q 3713 4166 3852 3881 
Q 3991 3597 3991 3256 
Q 3991 2672 3619 2267 
Q 3247 1863 2275 1863 
L 1100 1863 
L 1100 0 
L 494 0 
z
M 1100 2403 
L 2284 2403 
Q 2872 2403 3119 2622 
Q 3366 2841 3366 3238 
Q 3366 3525 3220 3729 
Q 3075 3934 2838 4000 
Q 2684 4041 2272 4041 
L 1100 4041 
L 1100 2403 
z
" transform="scale(0.015625)"/>
      <path id="ArialMT-63" d="M 2588 1216 
L 3141 1144 
Q 3050 572 2676 248 
Q 2303 -75 1759 -75 
Q 1078 -75 664 370 
Q 250 816 250 1647 
Q 250 2184 428 2587 
Q 606 2991 970 3192 
Q 1334 3394 1763 3394 
Q 2303 3394 2647 3120 
Q 2991 2847 3088 2344 
L 2541 2259 
Q 2463 2594 2264 2762 
Q 2066 2931 1784 2931 
Q 1359 2931 1093 2626 
Q 828 2322 828 1663 
Q 828 994 1084 691 
Q 1341 388 1753 388 
Q 2084 388 2306 591 
Q 2528 794 2588 1216 
z
" transform="scale(0.015625)"/>
      <path id="ArialMT-73" d="M 197 991 
L 753 1078 
Q 800 744 1014 566 
Q 1228 388 1613 388 
Q 2000 388 2187 545 
Q 2375 703 2375 916 
Q 2375 1106 2209 1216 
Q 2094 1291 1634 1406 
Q 1016 1563 777 1677 
Q 538 1791 414 1992 
Q 291 2194 291 2438 
Q 291 2659 392 2848 
Q 494 3038 669 3163 
Q 800 3259 1026 3326 
Q 1253 3394 1513 3394 
Q 1903 3394 2198 3281 
Q 2494 3169 2634 2976 
Q 2775 2784 2828 2463 
L 2278 2388 
Q 2241 2644 2061 2787 
Q 1881 2931 1553 2931 
Q 1166 2931 1000 2803 
Q 834 2675 834 2503 
Q 834 2394 903 2306 
Q 972 2216 1119 2156 
Q 1203 2125 1616 2013 
Q 2213 1853 2448 1751 
Q 2684 1650 2818 1456 
Q 2953 1263 2953 975 
Q 2953 694 2789 445 
Q 2625 197 2315 61 
Q 2006 -75 1616 -75 
Q 969 -75 630 194 
Q 291 463 197 991 
z
" transform="scale(0.015625)"/>
      <path id="ArialMT-3a" d="M 578 2678 
L 578 3319 
L 1219 3319 
L 1219 2678 
L 578 2678 
z
M 578 0 
L 578 641 
L 1219 641 
L 1219 0 
L 578 0 
z
" transform="scale(0.015625)"/>
      <path id="ArialMT-6e" d="M 422 0 
L 422 3319 
L 928 3319 
L 928 2847 
Q 1294 3394 1984 3394 
Q 2284 3394 2536 3286 
Q 2788 3178 2913 3003 
Q 3038 2828 3088 2588 
Q 3119 2431 3119 2041 
L 3119 0 
L 2556 0 
L 2556 2019 
Q 2556 2363 2490 2533 
Q 2425 2703 2258 2804 
Q 2091 2906 1866 2906 
Q 1506 2906 1245 2678 
Q 984 2450 984 1813 
L 984 0 
L 422 0 
z
" transform="scale(0.015625)"/>
      <path id="ArialMT-2d" d="M 203 1375 
L 203 1941 
L 1931 1941 
L 1931 1375 
L 203 1375 
z
" transform="scale(0.015625)"/>
      <path id="ArialMT-45" d="M 506 0 
L 506 4581 
L 3819 4581 
L 3819 4041 
L 1113 4041 
L 1113 2638 
L 3647 2638 
L 3647 2100 
L 1113 2100 
L 1113 541 
L 3925 541 
L 3925 0 
L 506 0 
z
" transform="scale(0.015625)"/>
      <path id="ArialMT-6f" d="M 213 1659 
Q 213 2581 725 3025 
Q 1153 3394 1769 3394 
Q 2453 3394 2887 2945 
Q 3322 2497 3322 1706 
Q 3322 1066 3130 698 
Q 2938 331 2570 128 
Q 2203 -75 1769 -75 
Q 1072 -75 642 372 
Q 213 819 213 1659 
z
M 791 1659 
Q 791 1022 1069 705 
Q 1347 388 1769 388 
Q 2188 388 2466 706 
Q 2744 1025 2744 1678 
Q 2744 2294 2464 2611 
Q 2184 2928 1769 2928 
Q 1347 2928 1069 2612 
Q 791 2297 791 1659 
z
" transform="scale(0.015625)"/>
     </defs>
     <use xlink:href="#ArialMT-43"/>
     <use xlink:href="#ArialMT-72" x="72.216797"/>
     <use xlink:href="#ArialMT-75" x="105.517578"/>
     <use xlink:href="#ArialMT-64" x="161.132812"/>
     <use xlink:href="#ArialMT-65" x="216.748047"/>
     <use xlink:href="#ArialMT-20" x="272.363281"/>
     <use xlink:href="#ArialMT-4f" x="300.146484"/>
     <use xlink:href="#ArialMT-69" x="377.929688"/>
     <use xlink:href="#ArialMT-6c" x="400.146484"/>
     <use xlink:href="#ArialMT-20" x="422.363281"/>
     <use xlink:href="#ArialMT-50" x="450.146484"/>
     <use xlink:href="#ArialMT-72" x="516.845703"/>
     <use xlink:href="#ArialMT-69" x="550.146484"/>
     <use xlink:href="#ArialMT-63" x="572.363281"/>
     <use xlink:href="#ArialMT-65" x="622.363281"/>
     <use xlink:href="#ArialMT-73" x="677.978516"/>
     <use xlink:href="#ArialMT-3a" x="727.978516"/>
     <use xlink:href="#ArialMT-20" x="755.761719"/>
     <use xlink:href="#ArialMT-42" x="783.544922"/>
     <use xlink:href="#ArialMT-72" x="850.244141"/>
     <use xlink:href="#ArialMT-65" x="883.544922"/>
     <use xlink:href="#ArialMT-6e" x="939.160156"/>
     <use xlink:href="#ArialMT-74" x="994.775391"/>
     <use xlink:href="#ArialMT-20" x="1022.558594"/>
     <use xlink:href="#ArialMT-2d" x="1050.341797"/>
     <use xlink:href="#ArialMT-20" x="1083.642578"/>
     <use xlink:href="#ArialMT-45" x="1111.425781"/>
     <use xlink:href="#ArialMT-75" x="1178.125"/>
     <use xlink:href="#ArialMT-72" x="1233.740234"/>
     <use xlink:href="#ArialMT-6f" x="1267.041016"/>
     <use xlink:href="#ArialMT-70" x="1322.65625"/>
     <use xlink:href="#ArialMT-65" x="1378.271484"/>
    </g>
   </g>
  </g>
 </g>
 <defs>
  <clipPath id="pcc9c528464">
   <rect x="66.65475" y="27.189" width="781.2" height="221.76"/>
  </clipPath>
 </defs>
</svg>
