<?xml version="1.0" encoding="utf-8" standalone="no"?>
<!DOCTYPE svg PUBLIC "-//W3C//DTD SVG 1.1//EN"
  "http://www.w3.org/Graphics/SVG/1.1/DTD/svg11.dtd">
<svg xmlns:xlink="http://www.w3.org/1999/xlink" width="835.47125pt" height="316.3278pt" viewBox="0 0 835.47125 316.3278" xmlns="http://www.w3.org/2000/svg" version="1.1">
 <metadata>
  <rdf:RDF xmlns:dc="http://purl.org/dc/elements/1.1/" xmlns:cc="http://creativecommons.org/ns#" xmlns:rdf="http://www.w3.org/1999/02/22-rdf-syntax-ns#">
   <cc:Work>
    <dc:type rdf:resource="http://purl.org/dc/dcmitype/StillImage"/>
    <dc:date>2023-05-11T15:35:58.185022</dc:date>
    <dc:format>image/svg+xml</dc:format>
    <dc:creator>
     <cc:Agent>
      <dc:title>Matplotlib v3.7.1, https://matplotlib.org/</dc:title>
     </cc:Agent>
    </dc:creator>
   </cc:Work>
  </rdf:RDF>
 </metadata>
 <defs>
  <style type="text/css">*{stroke-linejoin: round; stroke-linecap: butt}</style>
 </defs>
 <g id="figure_1">
  <g id="patch_1">
   <path d="M 0 316.3278 
L 835.47125 316.3278 
L 835.47125 0 
L 0 0 
z
" style="fill: #ffffff"/>
  </g>
  <g id="axes_1">
   <g id="patch_2">
    <path d="M 47.07125 244.55775 
L 828.27125 244.55775 
L 828.27125 22.79775 
L 47.07125 22.79775 
z
" style="fill: #ffffff"/>
   </g>
   <g id="matplotlib.axis_1">
    <g id="xtick_1">
     <g id="line2d_1">
      <path d="M 47.07125 244.55775 
L 47.07125 22.79775 
" clip-path="url(#p8ec703c309)" style="fill: none; stroke: #cccccc; stroke-width: 0.8; stroke-linecap: round"/>
     </g>
     <g id="text_1">
      <!-- Jan -->
      <g style="fill: #262626" transform="translate(32.884 265.4555) scale(0.176 -0.176)">
       <defs>
        <path id="ArialMT-4a" d="M 184 1300 
L 731 1375 
Q 753 850 928 656 
Q 1103 463 1413 463 
Q 1641 463 1806 567 
Q 1972 672 2034 851 
Q 2097 1031 2097 1425 
L 2097 4581 
L 2703 4581 
L 2703 1459 
Q 2703 884 2564 568 
Q 2425 253 2123 87 
Q 1822 -78 1416 -78 
Q 813 -78 492 269 
Q 172 616 184 1300 
z
" transform="scale(0.015625)"/>
        <path id="ArialMT-61" d="M 2588 409 
Q 2275 144 1986 34 
Q 1697 -75 1366 -75 
Q 819 -75 525 192 
Q 231 459 231 875 
Q 231 1119 342 1320 
Q 453 1522 633 1644 
Q 813 1766 1038 1828 
Q 1203 1872 1538 1913 
Q 2219 1994 2541 2106 
Q 2544 2222 2544 2253 
Q 2544 2597 2384 2738 
Q 2169 2928 1744 2928 
Q 1347 2928 1158 2789 
Q 969 2650 878 2297 
L 328 2372 
Q 403 2725 575 2942 
Q 747 3159 1072 3276 
Q 1397 3394 1825 3394 
Q 2250 3394 2515 3294 
Q 2781 3194 2906 3042 
Q 3031 2891 3081 2659 
Q 3109 2516 3109 2141 
L 3109 1391 
Q 3109 606 3145 398 
Q 3181 191 3288 0 
L 2700 0 
Q 2613 175 2588 409 
z
M 2541 1666 
Q 2234 1541 1622 1453 
Q 1275 1403 1131 1340 
Q 988 1278 909 1158 
Q 831 1038 831 891 
Q 831 666 1001 516 
Q 1172 366 1500 366 
Q 1825 366 2078 508 
Q 2331 650 2450 897 
Q 2541 1088 2541 1459 
L 2541 1666 
z
" transform="scale(0.015625)"/>
        <path id="ArialMT-6e" d="M 422 0 
L 422 3319 
L 928 3319 
L 928 2847 
Q 1294 3394 1984 3394 
Q 2284 3394 2536 3286 
Q 2788 3178 2913 3003 
Q 3038 2828 3088 2588 
Q 3119 2431 3119 2041 
L 3119 0 
L 2556 0 
L 2556 2019 
Q 2556 2363 2490 2533 
Q 2425 2703 2258 2804 
Q 2091 2906 1866 2906 
Q 1506 2906 1245 2678 
Q 984 2450 984 1813 
L 984 0 
L 422 0 
z
" transform="scale(0.015625)"/>
       </defs>
       <use xlink:href="#ArialMT-4a"/>
       <use xlink:href="#ArialMT-61" x="50"/>
       <use xlink:href="#ArialMT-6e" x="105.615234"/>
      </g>
      <!-- 2021 -->
      <g style="fill: #262626" transform="translate(27.49675 284.0708) scale(0.176 -0.176)">
       <defs>
        <path id="ArialMT-32" d="M 3222 541 
L 3222 0 
L 194 0 
Q 188 203 259 391 
Q 375 700 629 1000 
Q 884 1300 1366 1694 
Q 2113 2306 2375 2664 
Q 2638 3022 2638 3341 
Q 2638 3675 2398 3904 
Q 2159 4134 1775 4134 
Q 1369 4134 1125 3890 
Q 881 3647 878 3216 
L 300 3275 
Q 359 3922 746 4261 
Q 1134 4600 1788 4600 
Q 2447 4600 2831 4234 
Q 3216 3869 3216 3328 
Q 3216 3053 3103 2787 
Q 2991 2522 2730 2228 
Q 2469 1934 1863 1422 
Q 1356 997 1212 845 
Q 1069 694 975 541 
L 3222 541 
z
" transform="scale(0.015625)"/>
        <path id="ArialMT-30" d="M 266 2259 
Q 266 3072 433 3567 
Q 600 4063 929 4331 
Q 1259 4600 1759 4600 
Q 2128 4600 2406 4451 
Q 2684 4303 2865 4023 
Q 3047 3744 3150 3342 
Q 3253 2941 3253 2259 
Q 3253 1453 3087 958 
Q 2922 463 2592 192 
Q 2263 -78 1759 -78 
Q 1097 -78 719 397 
Q 266 969 266 2259 
z
M 844 2259 
Q 844 1131 1108 757 
Q 1372 384 1759 384 
Q 2147 384 2411 759 
Q 2675 1134 2675 2259 
Q 2675 3391 2411 3762 
Q 2147 4134 1753 4134 
Q 1366 4134 1134 3806 
Q 844 3388 844 2259 
z
" transform="scale(0.015625)"/>
        <path id="ArialMT-31" d="M 2384 0 
L 1822 0 
L 1822 3584 
Q 1619 3391 1289 3197 
Q 959 3003 697 2906 
L 697 3450 
Q 1169 3672 1522 3987 
Q 1875 4303 2022 4600 
L 2384 4600 
L 2384 0 
z
" transform="scale(0.015625)"/>
       </defs>
       <use xlink:href="#ArialMT-32"/>
       <use xlink:href="#ArialMT-30" x="55.615234"/>
       <use xlink:href="#ArialMT-32" x="111.230469"/>
       <use xlink:href="#ArialMT-31" x="166.845703"/>
      </g>
     </g>
    </g>
    <g id="xtick_2">
     <g id="line2d_2">
      <path d="M 113.602019 244.55775 
L 113.602019 22.79775 
" clip-path="url(#p8ec703c309)" style="fill: none; stroke: #cccccc; stroke-width: 0.8; stroke-linecap: round"/>
     </g>
     <g id="text_2">
      <!-- Feb -->
      <g style="fill: #262626" transform="translate(98.439894 265.4555) scale(0.176 -0.176)">
       <defs>
        <path id="ArialMT-46" d="M 525 0 
L 525 4581 
L 3616 4581 
L 3616 4041 
L 1131 4041 
L 1131 2622 
L 3281 2622 
L 3281 2081 
L 1131 2081 
L 1131 0 
L 525 0 
z
" transform="scale(0.015625)"/>
        <path id="ArialMT-65" d="M 2694 1069 
L 3275 997 
Q 3138 488 2766 206 
Q 2394 -75 1816 -75 
Q 1088 -75 661 373 
Q 234 822 234 1631 
Q 234 2469 665 2931 
Q 1097 3394 1784 3394 
Q 2450 3394 2872 2941 
Q 3294 2488 3294 1666 
Q 3294 1616 3291 1516 
L 816 1516 
Q 847 969 1125 678 
Q 1403 388 1819 388 
Q 2128 388 2347 550 
Q 2566 713 2694 1069 
z
M 847 1978 
L 2700 1978 
Q 2663 2397 2488 2606 
Q 2219 2931 1791 2931 
Q 1403 2931 1139 2672 
Q 875 2413 847 1978 
z
" transform="scale(0.015625)"/>
        <path id="ArialMT-62" d="M 941 0 
L 419 0 
L 419 4581 
L 981 4581 
L 981 2947 
Q 1338 3394 1891 3394 
Q 2197 3394 2470 3270 
Q 2744 3147 2920 2923 
Q 3097 2700 3197 2384 
Q 3297 2069 3297 1709 
Q 3297 856 2875 390 
Q 2453 -75 1863 -75 
Q 1275 -75 941 416 
L 941 0 
z
M 934 1684 
Q 934 1088 1097 822 
Q 1363 388 1816 388 
Q 2184 388 2453 708 
Q 2722 1028 2722 1663 
Q 2722 2313 2464 2622 
Q 2206 2931 1841 2931 
Q 1472 2931 1203 2611 
Q 934 2291 934 1684 
z
" transform="scale(0.015625)"/>
       </defs>
       <use xlink:href="#ArialMT-46"/>
       <use xlink:href="#ArialMT-65" x="61.083984"/>
       <use xlink:href="#ArialMT-62" x="116.699219"/>
      </g>
     </g>
    </g>
    <g id="xtick_3">
     <g id="line2d_3">
      <path d="M 173.694327 244.55775 
L 173.694327 22.79775 
" clip-path="url(#p8ec703c309)" style="fill: none; stroke: #cccccc; stroke-width: 0.8; stroke-linecap: round"/>
     </g>
     <g id="text_3">
      <!-- Mar -->
      <g style="fill: #262626" transform="translate(158.540452 265.4555) scale(0.176 -0.176)">
       <defs>
        <path id="ArialMT-4d" d="M 475 0 
L 475 4581 
L 1388 4581 
L 2472 1338 
Q 2622 884 2691 659 
Q 2769 909 2934 1394 
L 4031 4581 
L 4847 4581 
L 4847 0 
L 4263 0 
L 4263 3834 
L 2931 0 
L 2384 0 
L 1059 3900 
L 1059 0 
L 475 0 
z
" transform="scale(0.015625)"/>
        <path id="ArialMT-72" d="M 416 0 
L 416 3319 
L 922 3319 
L 922 2816 
Q 1116 3169 1280 3281 
Q 1444 3394 1641 3394 
Q 1925 3394 2219 3213 
L 2025 2691 
Q 1819 2813 1613 2813 
Q 1428 2813 1281 2702 
Q 1134 2591 1072 2394 
Q 978 2094 978 1738 
L 978 0 
L 416 0 
z
" transform="scale(0.015625)"/>
       </defs>
       <use xlink:href="#ArialMT-4d"/>
       <use xlink:href="#ArialMT-61" x="83.300781"/>
       <use xlink:href="#ArialMT-72" x="138.916016"/>
      </g>
     </g>
    </g>
    <g id="xtick_4">
     <g id="line2d_4">
      <path d="M 240.225096 244.55775 
L 240.225096 22.79775 
" clip-path="url(#p8ec703c309)" style="fill: none; stroke: #cccccc; stroke-width: 0.8; stroke-linecap: round"/>
     </g>
     <g id="text_4">
      <!-- Apr -->
      <g style="fill: #262626" transform="translate(226.531471 265.4555) scale(0.176 -0.176)">
       <defs>
        <path id="ArialMT-41" d="M -9 0 
L 1750 4581 
L 2403 4581 
L 4278 0 
L 3588 0 
L 3053 1388 
L 1138 1388 
L 634 0 
L -9 0 
z
M 1313 1881 
L 2866 1881 
L 2388 3150 
Q 2169 3728 2063 4100 
Q 1975 3659 1816 3225 
L 1313 1881 
z
" transform="scale(0.015625)"/>
        <path id="ArialMT-70" d="M 422 -1272 
L 422 3319 
L 934 3319 
L 934 2888 
Q 1116 3141 1344 3267 
Q 1572 3394 1897 3394 
Q 2322 3394 2647 3175 
Q 2972 2956 3137 2557 
Q 3303 2159 3303 1684 
Q 3303 1175 3120 767 
Q 2938 359 2589 142 
Q 2241 -75 1856 -75 
Q 1575 -75 1351 44 
Q 1128 163 984 344 
L 984 -1272 
L 422 -1272 
z
M 931 1641 
Q 931 1000 1190 694 
Q 1450 388 1819 388 
Q 2194 388 2461 705 
Q 2728 1022 2728 1688 
Q 2728 2322 2467 2637 
Q 2206 2953 1844 2953 
Q 1484 2953 1207 2617 
Q 931 2281 931 1641 
z
" transform="scale(0.015625)"/>
       </defs>
       <use xlink:href="#ArialMT-41"/>
       <use xlink:href="#ArialMT-70" x="66.699219"/>
       <use xlink:href="#ArialMT-72" x="122.314453"/>
      </g>
     </g>
    </g>
    <g id="xtick_5">
     <g id="line2d_5">
      <path d="M 304.609712 244.55775 
L 304.609712 22.79775 
" clip-path="url(#p8ec703c309)" style="fill: none; stroke: #cccccc; stroke-width: 0.8; stroke-linecap: round"/>
     </g>
     <g id="text_5">
      <!-- May -->
      <g style="fill: #262626" transform="translate(287.985962 265.4555) scale(0.176 -0.176)">
       <defs>
        <path id="ArialMT-79" d="M 397 -1278 
L 334 -750 
Q 519 -800 656 -800 
Q 844 -800 956 -737 
Q 1069 -675 1141 -563 
Q 1194 -478 1313 -144 
Q 1328 -97 1363 -6 
L 103 3319 
L 709 3319 
L 1400 1397 
Q 1534 1031 1641 628 
Q 1738 1016 1872 1384 
L 2581 3319 
L 3144 3319 
L 1881 -56 
Q 1678 -603 1566 -809 
Q 1416 -1088 1222 -1217 
Q 1028 -1347 759 -1347 
Q 597 -1347 397 -1278 
z
" transform="scale(0.015625)"/>
       </defs>
       <use xlink:href="#ArialMT-4d"/>
       <use xlink:href="#ArialMT-61" x="83.300781"/>
       <use xlink:href="#ArialMT-79" x="138.916016"/>
      </g>
     </g>
    </g>
    <g id="xtick_6">
     <g id="line2d_6">
      <path d="M 371.140481 244.55775 
L 371.140481 22.79775 
" clip-path="url(#p8ec703c309)" style="fill: none; stroke: #cccccc; stroke-width: 0.8; stroke-linecap: round"/>
     </g>
     <g id="text_6">
      <!-- Jun -->
      <g style="fill: #262626" transform="translate(356.953231 265.4555) scale(0.176 -0.176)">
       <defs>
        <path id="ArialMT-75" d="M 2597 0 
L 2597 488 
Q 2209 -75 1544 -75 
Q 1250 -75 995 37 
Q 741 150 617 320 
Q 494 491 444 738 
Q 409 903 409 1263 
L 409 3319 
L 972 3319 
L 972 1478 
Q 972 1038 1006 884 
Q 1059 663 1231 536 
Q 1403 409 1656 409 
Q 1909 409 2131 539 
Q 2353 669 2445 892 
Q 2538 1116 2538 1541 
L 2538 3319 
L 3100 3319 
L 3100 0 
L 2597 0 
z
" transform="scale(0.015625)"/>
       </defs>
       <use xlink:href="#ArialMT-4a"/>
       <use xlink:href="#ArialMT-75" x="50"/>
       <use xlink:href="#ArialMT-6e" x="105.615234"/>
      </g>
     </g>
    </g>
    <g id="xtick_7">
     <g id="line2d_7">
      <path d="M 435.525096 244.55775 
L 435.525096 22.79775 
" clip-path="url(#p8ec703c309)" style="fill: none; stroke: #cccccc; stroke-width: 0.8; stroke-linecap: round"/>
     </g>
     <g id="text_7">
      <!-- Jul -->
      <g style="fill: #262626" transform="translate(424.276221 265.4555) scale(0.176 -0.176)">
       <defs>
        <path id="ArialMT-6c" d="M 409 0 
L 409 4581 
L 972 4581 
L 972 0 
L 409 0 
z
" transform="scale(0.015625)"/>
       </defs>
       <use xlink:href="#ArialMT-4a"/>
       <use xlink:href="#ArialMT-75" x="50"/>
       <use xlink:href="#ArialMT-6c" x="105.615234"/>
      </g>
     </g>
    </g>
    <g id="xtick_8">
     <g id="line2d_8">
      <path d="M 502.055865 244.55775 
L 502.055865 22.79775 
" clip-path="url(#p8ec703c309)" style="fill: none; stroke: #cccccc; stroke-width: 0.8; stroke-linecap: round"/>
     </g>
     <g id="text_8">
      <!-- Aug -->
      <g style="fill: #262626" transform="translate(486.39874 265.4555) scale(0.176 -0.176)">
       <defs>
        <path id="ArialMT-67" d="M 319 -275 
L 866 -356 
Q 900 -609 1056 -725 
Q 1266 -881 1628 -881 
Q 2019 -881 2231 -725 
Q 2444 -569 2519 -288 
Q 2563 -116 2559 434 
Q 2191 0 1641 0 
Q 956 0 581 494 
Q 206 988 206 1678 
Q 206 2153 378 2554 
Q 550 2956 876 3175 
Q 1203 3394 1644 3394 
Q 2231 3394 2613 2919 
L 2613 3319 
L 3131 3319 
L 3131 450 
Q 3131 -325 2973 -648 
Q 2816 -972 2473 -1159 
Q 2131 -1347 1631 -1347 
Q 1038 -1347 672 -1080 
Q 306 -813 319 -275 
z
M 784 1719 
Q 784 1066 1043 766 
Q 1303 466 1694 466 
Q 2081 466 2343 764 
Q 2606 1063 2606 1700 
Q 2606 2309 2336 2618 
Q 2066 2928 1684 2928 
Q 1309 2928 1046 2623 
Q 784 2319 784 1719 
z
" transform="scale(0.015625)"/>
       </defs>
       <use xlink:href="#ArialMT-41"/>
       <use xlink:href="#ArialMT-75" x="66.699219"/>
       <use xlink:href="#ArialMT-67" x="122.314453"/>
      </g>
     </g>
    </g>
    <g id="xtick_9">
     <g id="line2d_9">
      <path d="M 568.586635 244.55775 
L 568.586635 22.79775 
" clip-path="url(#p8ec703c309)" style="fill: none; stroke: #cccccc; stroke-width: 0.8; stroke-linecap: round"/>
     </g>
     <g id="text_9">
      <!-- Sep -->
      <g style="fill: #262626" transform="translate(552.92951 265.67) scale(0.176 -0.176)">
       <defs>
        <path id="ArialMT-53" d="M 288 1472 
L 859 1522 
Q 900 1178 1048 958 
Q 1197 738 1509 602 
Q 1822 466 2213 466 
Q 2559 466 2825 569 
Q 3091 672 3220 851 
Q 3350 1031 3350 1244 
Q 3350 1459 3225 1620 
Q 3100 1781 2813 1891 
Q 2628 1963 1997 2114 
Q 1366 2266 1113 2400 
Q 784 2572 623 2826 
Q 463 3081 463 3397 
Q 463 3744 659 4045 
Q 856 4347 1234 4503 
Q 1613 4659 2075 4659 
Q 2584 4659 2973 4495 
Q 3363 4331 3572 4012 
Q 3781 3694 3797 3291 
L 3216 3247 
Q 3169 3681 2898 3903 
Q 2628 4125 2100 4125 
Q 1550 4125 1298 3923 
Q 1047 3722 1047 3438 
Q 1047 3191 1225 3031 
Q 1400 2872 2139 2705 
Q 2878 2538 3153 2413 
Q 3553 2228 3743 1945 
Q 3934 1663 3934 1294 
Q 3934 928 3725 604 
Q 3516 281 3123 101 
Q 2731 -78 2241 -78 
Q 1619 -78 1198 103 
Q 778 284 539 648 
Q 300 1013 288 1472 
z
" transform="scale(0.015625)"/>
       </defs>
       <use xlink:href="#ArialMT-53"/>
       <use xlink:href="#ArialMT-65" x="66.699219"/>
       <use xlink:href="#ArialMT-70" x="122.314453"/>
      </g>
     </g>
    </g>
    <g id="xtick_10">
     <g id="line2d_10">
      <path d="M 632.97125 244.55775 
L 632.97125 22.79775 
" clip-path="url(#p8ec703c309)" style="fill: none; stroke: #cccccc; stroke-width: 0.8; stroke-linecap: round"/>
     </g>
     <g id="text_10">
      <!-- Oct -->
      <g style="fill: #262626" transform="translate(619.28175 265.4555) scale(0.176 -0.176)">
       <defs>
        <path id="ArialMT-4f" d="M 309 2231 
Q 309 3372 921 4017 
Q 1534 4663 2503 4663 
Q 3138 4663 3647 4359 
Q 4156 4056 4423 3514 
Q 4691 2972 4691 2284 
Q 4691 1588 4409 1038 
Q 4128 488 3612 205 
Q 3097 -78 2500 -78 
Q 1853 -78 1343 234 
Q 834 547 571 1087 
Q 309 1628 309 2231 
z
M 934 2222 
Q 934 1394 1379 917 
Q 1825 441 2497 441 
Q 3181 441 3623 922 
Q 4066 1403 4066 2288 
Q 4066 2847 3877 3264 
Q 3688 3681 3323 3911 
Q 2959 4141 2506 4141 
Q 1863 4141 1398 3698 
Q 934 3256 934 2222 
z
" transform="scale(0.015625)"/>
        <path id="ArialMT-63" d="M 2588 1216 
L 3141 1144 
Q 3050 572 2676 248 
Q 2303 -75 1759 -75 
Q 1078 -75 664 370 
Q 250 816 250 1647 
Q 250 2184 428 2587 
Q 606 2991 970 3192 
Q 1334 3394 1763 3394 
Q 2303 3394 2647 3120 
Q 2991 2847 3088 2344 
L 2541 2259 
Q 2463 2594 2264 2762 
Q 2066 2931 1784 2931 
Q 1359 2931 1093 2626 
Q 828 2322 828 1663 
Q 828 994 1084 691 
Q 1341 388 1753 388 
Q 2084 388 2306 591 
Q 2528 794 2588 1216 
z
" transform="scale(0.015625)"/>
        <path id="ArialMT-74" d="M 1650 503 
L 1731 6 
Q 1494 -44 1306 -44 
Q 1000 -44 831 53 
Q 663 150 594 308 
Q 525 466 525 972 
L 525 2881 
L 113 2881 
L 113 3319 
L 525 3319 
L 525 4141 
L 1084 4478 
L 1084 3319 
L 1650 3319 
L 1650 2881 
L 1084 2881 
L 1084 941 
Q 1084 700 1114 631 
Q 1144 563 1211 522 
Q 1278 481 1403 481 
Q 1497 481 1650 503 
z
" transform="scale(0.015625)"/>
       </defs>
       <use xlink:href="#ArialMT-4f"/>
       <use xlink:href="#ArialMT-63" x="77.783203"/>
       <use xlink:href="#ArialMT-74" x="127.783203"/>
      </g>
     </g>
    </g>
    <g id="xtick_11">
     <g id="line2d_11">
      <path d="M 699.502019 244.55775 
L 699.502019 22.79775 
" clip-path="url(#p8ec703c309)" style="fill: none; stroke: #cccccc; stroke-width: 0.8; stroke-linecap: round"/>
     </g>
     <g id="text_11">
      <!-- Nov -->
      <g style="fill: #262626" transform="translate(683.853144 265.4555) scale(0.176 -0.176)">
       <defs>
        <path id="ArialMT-4e" d="M 488 0 
L 488 4581 
L 1109 4581 
L 3516 984 
L 3516 4581 
L 4097 4581 
L 4097 0 
L 3475 0 
L 1069 3600 
L 1069 0 
L 488 0 
z
" transform="scale(0.015625)"/>
        <path id="ArialMT-6f" d="M 213 1659 
Q 213 2581 725 3025 
Q 1153 3394 1769 3394 
Q 2453 3394 2887 2945 
Q 3322 2497 3322 1706 
Q 3322 1066 3130 698 
Q 2938 331 2570 128 
Q 2203 -75 1769 -75 
Q 1072 -75 642 372 
Q 213 819 213 1659 
z
M 791 1659 
Q 791 1022 1069 705 
Q 1347 388 1769 388 
Q 2188 388 2466 706 
Q 2744 1025 2744 1678 
Q 2744 2294 2464 2611 
Q 2184 2928 1769 2928 
Q 1347 2928 1069 2612 
Q 791 2297 791 1659 
z
" transform="scale(0.015625)"/>
        <path id="ArialMT-76" d="M 1344 0 
L 81 3319 
L 675 3319 
L 1388 1331 
Q 1503 1009 1600 663 
Q 1675 925 1809 1294 
L 2547 3319 
L 3125 3319 
L 1869 0 
L 1344 0 
z
" transform="scale(0.015625)"/>
       </defs>
       <use xlink:href="#ArialMT-4e"/>
       <use xlink:href="#ArialMT-6f" x="72.216797"/>
       <use xlink:href="#ArialMT-76" x="127.832031"/>
      </g>
     </g>
    </g>
    <g id="xtick_12">
     <g id="line2d_12">
      <path d="M 763.886635 244.55775 
L 763.886635 22.79775 
" clip-path="url(#p8ec703c309)" style="fill: none; stroke: #cccccc; stroke-width: 0.8; stroke-linecap: round"/>
     </g>
     <g id="text_12">
      <!-- Dec -->
      <g style="fill: #262626" transform="translate(748.23776 265.4555) scale(0.176 -0.176)">
       <defs>
        <path id="ArialMT-44" d="M 494 0 
L 494 4581 
L 2072 4581 
Q 2606 4581 2888 4516 
Q 3281 4425 3559 4188 
Q 3922 3881 4101 3404 
Q 4281 2928 4281 2316 
Q 4281 1794 4159 1391 
Q 4038 988 3847 723 
Q 3656 459 3429 307 
Q 3203 156 2883 78 
Q 2563 0 2147 0 
L 494 0 
z
M 1100 541 
L 2078 541 
Q 2531 541 2789 625 
Q 3047 709 3200 863 
Q 3416 1078 3536 1442 
Q 3656 1806 3656 2325 
Q 3656 3044 3420 3430 
Q 3184 3816 2847 3947 
Q 2603 4041 2063 4041 
L 1100 4041 
L 1100 541 
z
" transform="scale(0.015625)"/>
       </defs>
       <use xlink:href="#ArialMT-44"/>
       <use xlink:href="#ArialMT-65" x="72.216797"/>
       <use xlink:href="#ArialMT-63" x="127.832031"/>
      </g>
     </g>
    </g>
    <g id="xtick_13">
     <g id="line2d_13">
      <path d="M 828.27125 244.55775 
L 828.27125 22.79775 
" clip-path="url(#p8ec703c309)" style="fill: none; stroke: #cccccc; stroke-width: 0.8; stroke-linecap: round"/>
     </g>
    </g>
    <g id="xtick_14"/>
    <g id="xtick_15"/>
    <g id="xtick_16"/>
    <g id="xtick_17"/>
    <g id="xtick_18"/>
    <g id="xtick_19"/>
    <g id="xtick_20"/>
    <g id="xtick_21"/>
    <g id="xtick_22"/>
    <g id="xtick_23"/>
    <g id="xtick_24"/>
    <g id="xtick_25"/>
    <g id="xtick_26"/>
    <g id="xtick_27"/>
    <g id="xtick_28"/>
    <g id="xtick_29"/>
    <g id="xtick_30"/>
    <g id="xtick_31"/>
    <g id="xtick_32"/>
    <g id="xtick_33"/>
    <g id="xtick_34"/>
    <g id="xtick_35"/>
    <g id="xtick_36"/>
    <g id="xtick_37"/>
    <g id="xtick_38"/>
    <g id="xtick_39"/>
    <g id="xtick_40"/>
    <g id="xtick_41"/>
    <g id="xtick_42"/>
    <g id="xtick_43"/>
    <g id="xtick_44"/>
    <g id="xtick_45"/>
    <g id="xtick_46"/>
    <g id="xtick_47"/>
    <g id="xtick_48"/>
    <g id="xtick_49"/>
    <g id="xtick_50"/>
    <g id="xtick_51"/>
    <g id="xtick_52"/>
    <g id="xtick_53"/>
    <g id="xtick_54"/>
    <g id="xtick_55"/>
    <g id="xtick_56"/>
    <g id="xtick_57"/>
    <g id="xtick_58"/>
    <g id="xtick_59"/>
    <g id="xtick_60"/>
    <g id="xtick_61"/>
    <g id="xtick_62"/>
    <g id="text_13">
     <!-- Date -->
     <g style="fill: #262626" transform="translate(417.39425 305.3118) scale(0.192 -0.192)">
      <use xlink:href="#ArialMT-44"/>
      <use xlink:href="#ArialMT-61" x="72.216797"/>
      <use xlink:href="#ArialMT-74" x="127.832031"/>
      <use xlink:href="#ArialMT-65" x="155.615234"/>
     </g>
    </g>
   </g>
   <g id="matplotlib.axis_2">
    <g id="ytick_1">
     <g id="line2d_14">
      <path d="M 47.07125 241.690705 
L 828.27125 241.690705 
" clip-path="url(#p8ec703c309)" style="fill: none; stroke: #cccccc; stroke-width: 0.8; stroke-linecap: round"/>
     </g>
     <g id="text_14">
      <!-- 1 -->
      <g style="fill: #262626" transform="translate(28.984 247.98958) scale(0.176 -0.176)">
       <use xlink:href="#ArialMT-31"/>
      </g>
     </g>
    </g>
    <g id="ytick_2">
     <g id="line2d_15">
      <path d="M 47.07125 200.95025 
L 828.27125 200.95025 
" clip-path="url(#p8ec703c309)" style="fill: none; stroke: #cccccc; stroke-width: 0.8; stroke-linecap: round"/>
     </g>
     <g id="text_15">
      <!-- 2 -->
      <g style="fill: #262626" transform="translate(28.984 207.249125) scale(0.176 -0.176)">
       <use xlink:href="#ArialMT-32"/>
      </g>
     </g>
    </g>
    <g id="ytick_3">
     <g id="line2d_16">
      <path d="M 47.07125 160.209795 
L 828.27125 160.209795 
" clip-path="url(#p8ec703c309)" style="fill: none; stroke: #cccccc; stroke-width: 0.8; stroke-linecap: round"/>
     </g>
     <g id="text_16">
      <!-- 3 -->
      <g style="fill: #262626" transform="translate(28.984 166.50867) scale(0.176 -0.176)">
       <defs>
        <path id="ArialMT-33" d="M 269 1209 
L 831 1284 
Q 928 806 1161 595 
Q 1394 384 1728 384 
Q 2125 384 2398 659 
Q 2672 934 2672 1341 
Q 2672 1728 2419 1979 
Q 2166 2231 1775 2231 
Q 1616 2231 1378 2169 
L 1441 2663 
Q 1497 2656 1531 2656 
Q 1891 2656 2178 2843 
Q 2466 3031 2466 3422 
Q 2466 3731 2256 3934 
Q 2047 4138 1716 4138 
Q 1388 4138 1169 3931 
Q 950 3725 888 3313 
L 325 3413 
Q 428 3978 793 4289 
Q 1159 4600 1703 4600 
Q 2078 4600 2393 4439 
Q 2709 4278 2876 4000 
Q 3044 3722 3044 3409 
Q 3044 3113 2884 2869 
Q 2725 2625 2413 2481 
Q 2819 2388 3044 2092 
Q 3269 1797 3269 1353 
Q 3269 753 2831 336 
Q 2394 -81 1725 -81 
Q 1122 -81 723 278 
Q 325 638 269 1209 
z
" transform="scale(0.015625)"/>
       </defs>
       <use xlink:href="#ArialMT-33"/>
      </g>
     </g>
    </g>
    <g id="ytick_4">
     <g id="line2d_17">
      <path d="M 47.07125 119.469339 
L 828.27125 119.469339 
" clip-path="url(#p8ec703c309)" style="fill: none; stroke: #cccccc; stroke-width: 0.8; stroke-linecap: round"/>
     </g>
     <g id="text_17">
      <!-- 4 -->
      <g style="fill: #262626" transform="translate(28.984 125.768214) scale(0.176 -0.176)">
       <defs>
        <path id="ArialMT-34" d="M 2069 0 
L 2069 1097 
L 81 1097 
L 81 1613 
L 2172 4581 
L 2631 4581 
L 2631 1613 
L 3250 1613 
L 3250 1097 
L 2631 1097 
L 2631 0 
L 2069 0 
z
M 2069 1613 
L 2069 3678 
L 634 1613 
L 2069 1613 
z
" transform="scale(0.015625)"/>
       </defs>
       <use xlink:href="#ArialMT-34"/>
      </g>
     </g>
    </g>
    <g id="ytick_5">
     <g id="line2d_18">
      <path d="M 47.07125 78.728884 
L 828.27125 78.728884 
" clip-path="url(#p8ec703c309)" style="fill: none; stroke: #cccccc; stroke-width: 0.8; stroke-linecap: round"/>
     </g>
     <g id="text_18">
      <!-- 5 -->
      <g style="fill: #262626" transform="translate(28.984 85.027759) scale(0.176 -0.176)">
       <defs>
        <path id="ArialMT-35" d="M 266 1200 
L 856 1250 
Q 922 819 1161 601 
Q 1400 384 1738 384 
Q 2144 384 2425 690 
Q 2706 997 2706 1503 
Q 2706 1984 2436 2262 
Q 2166 2541 1728 2541 
Q 1456 2541 1237 2417 
Q 1019 2294 894 2097 
L 366 2166 
L 809 4519 
L 3088 4519 
L 3088 3981 
L 1259 3981 
L 1013 2750 
Q 1425 3038 1878 3038 
Q 2478 3038 2890 2622 
Q 3303 2206 3303 1553 
Q 3303 931 2941 478 
Q 2500 -78 1738 -78 
Q 1113 -78 717 272 
Q 322 622 266 1200 
z
" transform="scale(0.015625)"/>
       </defs>
       <use xlink:href="#ArialMT-35"/>
      </g>
     </g>
    </g>
    <g id="ytick_6">
     <g id="line2d_19">
      <path d="M 47.07125 37.988429 
L 828.27125 37.988429 
" clip-path="url(#p8ec703c309)" style="fill: none; stroke: #cccccc; stroke-width: 0.8; stroke-linecap: round"/>
     </g>
     <g id="text_19">
      <!-- 6 -->
      <g style="fill: #262626" transform="translate(28.984 44.287304) scale(0.176 -0.176)">
       <defs>
        <path id="ArialMT-36" d="M 3184 3459 
L 2625 3416 
Q 2550 3747 2413 3897 
Q 2184 4138 1850 4138 
Q 1581 4138 1378 3988 
Q 1113 3794 959 3422 
Q 806 3050 800 2363 
Q 1003 2672 1297 2822 
Q 1591 2972 1913 2972 
Q 2475 2972 2870 2558 
Q 3266 2144 3266 1488 
Q 3266 1056 3080 686 
Q 2894 316 2569 119 
Q 2244 -78 1831 -78 
Q 1128 -78 684 439 
Q 241 956 241 2144 
Q 241 3472 731 4075 
Q 1159 4600 1884 4600 
Q 2425 4600 2770 4297 
Q 3116 3994 3184 3459 
z
M 888 1484 
Q 888 1194 1011 928 
Q 1134 663 1356 523 
Q 1578 384 1822 384 
Q 2178 384 2434 671 
Q 2691 959 2691 1453 
Q 2691 1928 2437 2201 
Q 2184 2475 1800 2475 
Q 1419 2475 1153 2201 
Q 888 1928 888 1484 
z
" transform="scale(0.015625)"/>
       </defs>
       <use xlink:href="#ArialMT-36"/>
      </g>
     </g>
    </g>
    <g id="text_20">
     <!-- Natural gas consumption [MWh] -->
     <g style="fill: #262626" transform="translate(20.943 270.25875) rotate(-90) scale(0.192 -0.192)">
      <defs>
       <path id="ArialMT-20" transform="scale(0.015625)"/>
       <path id="ArialMT-73" d="M 197 991 
L 753 1078 
Q 800 744 1014 566 
Q 1228 388 1613 388 
Q 2000 388 2187 545 
Q 2375 703 2375 916 
Q 2375 1106 2209 1216 
Q 2094 1291 1634 1406 
Q 1016 1563 777 1677 
Q 538 1791 414 1992 
Q 291 2194 291 2438 
Q 291 2659 392 2848 
Q 494 3038 669 3163 
Q 800 3259 1026 3326 
Q 1253 3394 1513 3394 
Q 1903 3394 2198 3281 
Q 2494 3169 2634 2976 
Q 2775 2784 2828 2463 
L 2278 2388 
Q 2241 2644 2061 2787 
Q 1881 2931 1553 2931 
Q 1166 2931 1000 2803 
Q 834 2675 834 2503 
Q 834 2394 903 2306 
Q 972 2216 1119 2156 
Q 1203 2125 1616 2013 
Q 2213 1853 2448 1751 
Q 2684 1650 2818 1456 
Q 2953 1263 2953 975 
Q 2953 694 2789 445 
Q 2625 197 2315 61 
Q 2006 -75 1616 -75 
Q 969 -75 630 194 
Q 291 463 197 991 
z
" transform="scale(0.015625)"/>
       <path id="ArialMT-6d" d="M 422 0 
L 422 3319 
L 925 3319 
L 925 2853 
Q 1081 3097 1340 3245 
Q 1600 3394 1931 3394 
Q 2300 3394 2536 3241 
Q 2772 3088 2869 2813 
Q 3263 3394 3894 3394 
Q 4388 3394 4653 3120 
Q 4919 2847 4919 2278 
L 4919 0 
L 4359 0 
L 4359 2091 
Q 4359 2428 4304 2576 
Q 4250 2725 4106 2815 
Q 3963 2906 3769 2906 
Q 3419 2906 3187 2673 
Q 2956 2441 2956 1928 
L 2956 0 
L 2394 0 
L 2394 2156 
Q 2394 2531 2256 2718 
Q 2119 2906 1806 2906 
Q 1569 2906 1367 2781 
Q 1166 2656 1075 2415 
Q 984 2175 984 1722 
L 984 0 
L 422 0 
z
" transform="scale(0.015625)"/>
       <path id="ArialMT-69" d="M 425 3934 
L 425 4581 
L 988 4581 
L 988 3934 
L 425 3934 
z
M 425 0 
L 425 3319 
L 988 3319 
L 988 0 
L 425 0 
z
" transform="scale(0.015625)"/>
       <path id="ArialMT-5b" d="M 434 -1272 
L 434 4581 
L 1675 4581 
L 1675 4116 
L 997 4116 
L 997 -806 
L 1675 -806 
L 1675 -1272 
L 434 -1272 
z
" transform="scale(0.015625)"/>
       <path id="ArialMT-57" d="M 1294 0 
L 78 4581 
L 700 4581 
L 1397 1578 
Q 1509 1106 1591 641 
Q 1766 1375 1797 1488 
L 2669 4581 
L 3400 4581 
L 4056 2263 
Q 4303 1400 4413 641 
Q 4500 1075 4641 1638 
L 5359 4581 
L 5969 4581 
L 4713 0 
L 4128 0 
L 3163 3491 
Q 3041 3928 3019 4028 
Q 2947 3713 2884 3491 
L 1913 0 
L 1294 0 
z
" transform="scale(0.015625)"/>
       <path id="ArialMT-68" d="M 422 0 
L 422 4581 
L 984 4581 
L 984 2938 
Q 1378 3394 1978 3394 
Q 2347 3394 2619 3248 
Q 2891 3103 3008 2847 
Q 3125 2591 3125 2103 
L 3125 0 
L 2563 0 
L 2563 2103 
Q 2563 2525 2380 2717 
Q 2197 2909 1863 2909 
Q 1613 2909 1392 2779 
Q 1172 2650 1078 2428 
Q 984 2206 984 1816 
L 984 0 
L 422 0 
z
" transform="scale(0.015625)"/>
       <path id="ArialMT-5d" d="M 1363 -1272 
L 122 -1272 
L 122 -806 
L 800 -806 
L 800 4116 
L 122 4116 
L 122 4581 
L 1363 4581 
L 1363 -1272 
z
" transform="scale(0.015625)"/>
      </defs>
      <use xlink:href="#ArialMT-4e"/>
      <use xlink:href="#ArialMT-61" x="72.216797"/>
      <use xlink:href="#ArialMT-74" x="127.832031"/>
      <use xlink:href="#ArialMT-75" x="155.615234"/>
      <use xlink:href="#ArialMT-72" x="211.230469"/>
      <use xlink:href="#ArialMT-61" x="244.53125"/>
      <use xlink:href="#ArialMT-6c" x="300.146484"/>
      <use xlink:href="#ArialMT-20" x="322.363281"/>
      <use xlink:href="#ArialMT-67" x="350.146484"/>
      <use xlink:href="#ArialMT-61" x="405.761719"/>
      <use xlink:href="#ArialMT-73" x="461.376953"/>
      <use xlink:href="#ArialMT-20" x="511.376953"/>
      <use xlink:href="#ArialMT-63" x="539.160156"/>
      <use xlink:href="#ArialMT-6f" x="589.160156"/>
      <use xlink:href="#ArialMT-6e" x="644.775391"/>
      <use xlink:href="#ArialMT-73" x="700.390625"/>
      <use xlink:href="#ArialMT-75" x="750.390625"/>
      <use xlink:href="#ArialMT-6d" x="806.005859"/>
      <use xlink:href="#ArialMT-70" x="889.306641"/>
      <use xlink:href="#ArialMT-74" x="944.921875"/>
      <use xlink:href="#ArialMT-69" x="972.705078"/>
      <use xlink:href="#ArialMT-6f" x="994.921875"/>
      <use xlink:href="#ArialMT-6e" x="1050.537109"/>
      <use xlink:href="#ArialMT-20" x="1106.152344"/>
      <use xlink:href="#ArialMT-5b" x="1133.935547"/>
      <use xlink:href="#ArialMT-4d" x="1161.71875"/>
      <use xlink:href="#ArialMT-57" x="1245.019531"/>
      <use xlink:href="#ArialMT-68" x="1339.404297"/>
      <use xlink:href="#ArialMT-5d" x="1395.019531"/>
     </g>
    </g>
    <g id="text_21">
     <!-- 1e6 -->
     <g style="fill: #262626" transform="translate(47.07125 19.79775) scale(0.176 -0.176)">
      <use xlink:href="#ArialMT-31"/>
      <use xlink:href="#ArialMT-65" x="55.615234"/>
      <use xlink:href="#ArialMT-36" x="111.230469"/>
     </g>
    </g>
   </g>
   <g id="line2d_20">
    <path d="M 47.07125 114.35645 
L 49.217404 113.607631 
L 51.363558 112.153912 
L 53.509712 110.149049 
L 55.655865 112.607569 
L 57.802019 111.273274 
L 59.948173 108.578014 
L 62.094327 106.724881 
L 64.240481 102.914648 
L 66.386635 97.68541 
L 68.532788 96.400798 
L 70.678942 116.047453 
L 72.825096 114.419976 
L 74.97125 107.752475 
L 77.117404 95.397421 
L 79.263558 88.864314 
L 81.409712 92.139719 
L 83.555865 114.765896 
L 85.702019 125.494143 
L 87.848173 142.164029 
L 89.994327 154.176489 
L 92.140481 144.264681 
L 94.286635 117.705209 
L 96.432788 108.437489 
L 98.578942 102.392575 
L 100.725096 108.46857 
L 102.87125 110.16308 
L 105.017404 125.897636 
L 107.163558 130.934513 
L 111.455865 91.193892 
L 113.602019 105.906279 
L 115.748173 132.526107 
L 117.894327 153.475541 
L 120.040481 138.772539 
L 122.186635 130.759731 
L 124.332788 118.442444 
L 126.478942 91.265153 
L 128.625096 69.633123 
L 130.77125 55.130386 
L 132.917404 55.147209 
L 135.063558 57.580023 
L 137.209712 49.869295 
L 139.355865 48.617072 
L 141.502019 58.763192 
L 143.648173 88.08106 
L 145.794327 130.061461 
L 147.940481 147.344754 
L 150.086635 148.057026 
L 152.232788 149.309395 
L 154.378942 161.907551 
L 156.525096 165.397853 
L 158.67125 157.877253 
L 160.817404 177.770065 
L 162.963558 186.159141 
L 165.109712 181.938757 
L 167.255865 153.361133 
L 169.402019 134.904947 
L 171.548173 132.52768 
L 173.694327 135.019899 
L 175.840481 140.106543 
L 177.986635 148.026858 
L 180.132788 143.357778 
L 182.278942 117.631054 
L 184.425096 111.695481 
L 186.57125 118.157069 
L 188.717404 116.538683 
L 190.863558 117.754037 
L 193.009712 133.244846 
L 195.155865 158.793803 
L 197.302019 149.818523 
L 199.448173 147.18848 
L 201.594327 135.635381 
L 203.740481 135.075681 
L 205.886635 132.076283 
L 208.032788 122.206652 
L 210.178942 117.060393 
L 214.47125 108.543561 
L 216.617404 132.300254 
L 218.763558 134.974095 
L 220.909712 141.194956 
L 223.055865 155.132561 
L 225.202019 164.380413 
L 227.348173 175.787201 
L 229.494327 151.040364 
L 231.640481 160.196598 
L 233.786635 191.692488 
L 235.932788 197.477865 
L 238.078942 204.730351 
L 240.225096 192.068503 
L 242.37125 152.549836 
L 244.517404 144.294297 
L 246.663558 140.694963 
L 248.809712 128.501088 
L 250.955865 110.23014 
L 253.102019 115.290703 
L 255.248173 127.825705 
L 257.394327 155.531234 
L 259.540481 161.021817 
L 261.686635 168.969383 
L 263.832788 129.611969 
L 265.978942 128.123863 
L 268.125096 126.153516 
L 270.27125 129.421521 
L 272.417404 139.394975 
L 276.709712 157.383158 
L 278.855865 163.688798 
L 281.002019 172.556561 
L 283.148173 172.446356 
L 285.294327 156.978552 
L 289.586635 161.554197 
L 291.732788 154.613514 
L 293.878942 151.397686 
L 296.025096 161.848117 
L 298.17125 185.102483 
L 300.317404 178.509887 
L 302.463558 162.066199 
L 304.609712 166.33289 
L 306.755865 155.09088 
L 308.902019 158.490959 
L 311.048173 173.775102 
L 313.194327 156.123805 
L 315.340481 153.335882 
L 317.486635 150.997891 
L 319.632788 173.352361 
L 321.778942 222.67375 
L 323.925096 222.788909 
L 326.07125 210.206677 
L 328.217404 190.349637 
L 330.363558 183.876031 
L 332.509712 183.985141 
L 334.655865 181.984787 
L 336.802019 184.886159 
L 338.948173 183.983028 
L 341.094327 180.865291 
L 343.240481 178.212809 
L 345.386635 185.281228 
L 347.532788 194.728573 
L 349.678942 185.123524 
L 351.825096 183.196007 
L 353.97125 196.666287 
L 356.117404 177.420223 
L 358.263558 178.579404 
L 360.409712 179.248833 
L 362.555865 188.627318 
L 364.702019 190.30242 
L 366.848173 198.1083 
L 368.994327 207.247759 
L 373.286635 233.76772 
L 375.432788 223.467735 
L 377.578942 223.600816 
L 379.725096 222.651076 
L 381.87125 224.84844 
L 384.017404 229.282909 
L 386.163558 222.600864 
L 388.309712 223.039658 
L 390.455865 223.263056 
L 392.602019 223.84563 
L 394.748173 222.670118 
L 396.894327 217.726893 
L 399.040481 222.771027 
L 401.186635 223.318965 
L 403.332788 224.950779 
L 405.478942 227.513685 
L 407.625096 227.704272 
L 409.77125 227.421708 
L 411.917404 226.068604 
L 414.063558 223.77561 
L 416.209712 222.805549 
L 418.355865 227.29408 
L 420.502019 224.748803 
L 422.648173 226.268587 
L 424.794327 222.837959 
L 426.940481 224.019107 
L 429.086635 225.363464 
L 431.232788 223.42885 
L 433.378942 221.045839 
L 435.525096 210.903036 
L 437.67125 223.116788 
L 439.817404 222.489868 
L 441.963558 222.829124 
L 444.109712 232.363712 
L 446.255865 223.593807 
L 448.402019 222.549895 
L 450.548173 233.087037 
L 452.694327 223.941854 
L 454.840481 233.816778 
L 456.986635 222.636931 
L 459.132788 223.77862 
L 461.278942 223.615502 
L 463.425096 233.912716 
L 465.57125 222.799474 
L 469.863558 223.866058 
L 472.009712 223.834396 
L 474.155865 232.797183 
L 476.302019 227.497649 
L 478.448173 232.507652 
L 480.594327 222.834326 
L 482.740481 223.084693 
L 484.886635 224.161317 
L 487.032788 224.318004 
L 489.178942 224.102014 
L 491.325096 223.740981 
L 493.47125 222.830506 
L 495.617404 222.547178 
L 497.763558 223.254672 
L 499.909712 234.47775 
L 502.055865 219.48979 
L 504.202019 217.340111 
L 506.348173 216.647247 
L 510.640481 226.345584 
L 512.786635 229.183682 
L 514.932788 229.302938 
L 517.078942 223.377792 
L 519.225096 224.899106 
L 521.37125 228.533862 
L 523.517404 222.57395 
L 525.663558 224.041243 
L 527.809712 225.092003 
L 529.955865 224.4043 
L 532.102019 224.190629 
L 534.248173 224.838651 
L 536.394327 205.141204 
L 538.540481 216.971666 
L 540.686635 226.195005 
L 542.832788 228.635671 
L 544.978942 222.649006 
L 547.125096 227.435488 
L 551.417404 211.221044 
L 553.563558 212.194403 
L 555.709712 206.822734 
L 557.855865 201.751049 
L 562.148173 207.170219 
L 564.294327 214.232689 
L 566.440481 214.424446 
L 568.586635 212.56322 
L 570.732788 214.617445 
L 572.878942 220.071224 
L 575.025096 216.729507 
L 577.17125 218.732474 
L 579.317404 223.728515 
L 581.463558 226.835297 
L 583.609712 232.399971 
L 585.755865 223.219608 
L 587.902019 223.363562 
L 590.048173 234.261611 
L 592.194327 226.783299 
L 594.340481 218.357929 
L 596.486635 229.875075 
L 598.632788 234.395314 
L 600.778942 219.466245 
L 602.925096 207.189121 
L 605.07125 205.306839 
L 607.217404 194.859907 
L 609.363558 189.360004 
L 611.509712 189.368202 
L 613.655865 194.502952 
L 615.802019 206.095462 
L 617.948173 212.281544 
L 622.240481 230.708889 
L 624.386635 225.617877 
L 626.532788 202.478956 
L 628.678942 192.810555 
L 630.825096 180.246022 
L 632.97125 191.781202 
L 637.263558 225.145213 
L 639.409712 195.780014 
L 641.555865 190.470086 
L 643.702019 184.067812 
L 645.848173 179.501243 
L 647.994327 179.899731 
L 650.140481 169.12551 
L 652.286635 156.139979 
L 654.432788 163.921772 
L 656.578942 164.347181 
L 658.725096 157.61383 
L 660.87125 173.353086 
L 663.017404 173.356746 
L 665.163558 160.064075 
L 667.309712 163.816275 
L 669.455865 171.725926 
L 671.602019 188.931397 
L 673.748173 210.770498 
L 675.894327 184.376444 
L 678.040481 155.81291 
L 680.186635 153.715226 
L 682.332788 150.07813 
L 684.478942 156.417152 
L 686.625096 175.354106 
L 688.77125 179.448904 
L 690.917404 169.5578 
L 693.063558 166.870298 
L 695.209712 170.858213 
L 697.355865 194.08189 
L 699.502019 173.685703 
L 701.648173 157.930805 
L 703.794327 150.78341 
L 705.940481 150.66648 
L 708.086635 154.054856 
L 710.232788 152.249098 
L 712.378942 154.761213 
L 714.525096 153.861607 
L 716.67125 149.121016 
L 718.817404 136.001413 
L 720.963558 137.476643 
L 723.109712 137.119879 
L 725.255865 144.881058 
L 727.402019 155.106682 
L 729.548173 145.439778 
L 731.694327 139.545225 
L 733.840481 142.25154 
L 738.132788 165.380781 
L 740.278942 163.017152 
L 742.425096 145.459645 
L 744.57125 130.250394 
L 746.717404 128.514958 
L 748.863558 133.35742 
L 751.009712 122.689003 
L 753.155865 121.476368 
L 755.302019 119.705618 
L 757.448173 112.863292 
L 759.594327 113.652024 
L 761.740481 128.837879 
L 763.886635 148.322689 
L 766.032788 120.478255 
L 768.178942 109.943906 
L 770.325096 124.1784 
L 772.47125 121.398931 
L 774.617404 111.76646 
L 776.763558 114.554216 
L 778.909712 116.154975 
L 781.055865 113.086747 
L 783.202019 111.010735 
L 785.348173 110.300887 
L 787.494327 126.202132 
L 789.640481 149.478165 
L 791.786635 146.632317 
L 793.932788 151.804702 
L 796.078942 149.575328 
L 798.225096 141.096481 
L 800.37125 136.568927 
L 802.517404 135.87774 
L 804.663558 112.132004 
L 806.809712 90.115738 
L 808.955865 82.812871 
L 811.102019 102.60353 
L 813.248173 139.455069 
L 815.394327 96.508916 
L 817.540481 86.115397 
L 819.686635 114.317825 
L 821.832788 136.924558 
L 823.978942 150.355177 
L 826.125096 182.541053 
L 828.27125 187.308462 
L 828.27125 187.308462 
" clip-path="url(#p8ec703c309)" style="fill: none; stroke: #1f77b4; stroke-width: 1.2; stroke-linecap: round"/>
   </g>
   <g id="line2d_21">
    <path d="M 47.07125 120.243612 
L 49.217404 114.903907 
L 51.363558 113.413851 
L 53.509712 93.916481 
L 55.655865 91.174144 
L 57.802019 90.675248 
L 59.948173 84.339503 
L 62.094327 84.536644 
L 64.240481 93.779651 
L 66.386635 93.585008 
L 68.532788 85.049291 
L 70.678942 93.648462 
L 72.825096 93.552181 
L 74.97125 78.064247 
L 77.117404 73.404416 
L 79.263558 83.406267 
L 81.409712 86.57706 
L 83.555865 87.013447 
L 85.702019 102.076912 
L 87.848173 119.282582 
L 89.994327 131.06771 
L 92.140481 125.854301 
L 94.286635 125.071857 
L 96.432788 110.460411 
L 98.578942 85.434842 
L 100.725096 85.954535 
L 102.87125 88.699987 
L 105.017404 98.422181 
L 107.163558 113.250333 
L 109.309712 112.024056 
L 111.455865 103.808898 
L 113.602019 86.511139 
L 115.748173 102.824356 
L 117.894327 122.424412 
L 120.040481 121.084939 
L 122.186635 122.272503 
L 124.332788 123.855362 
L 126.478942 101.804035 
L 128.625096 60.555313 
L 130.77125 44.024146 
L 132.917404 35.05819 
L 135.063558 32.87775 
L 137.209712 34.310265 
L 139.355865 49.353711 
L 141.502019 58.899145 
L 143.648173 60.452921 
L 145.794327 88.676356 
L 147.940481 111.029061 
L 150.086635 124.35168 
L 152.232788 132.774791 
L 154.378942 158.296161 
L 156.525096 160.640063 
L 158.67125 148.792906 
L 160.817404 162.675063 
L 162.963558 169.010604 
L 165.109712 167.192994 
L 167.255865 156.299191 
L 169.402019 153.664182 
L 171.548173 145.187957 
L 173.694327 123.026942 
L 175.840481 125.336232 
L 177.986635 132.811643 
L 180.132788 129.739906 
L 182.278942 115.282819 
L 184.425096 122.420795 
L 186.57125 118.475174 
L 188.717404 100.16235 
L 190.863558 100.930333 
L 193.009712 118.357081 
L 195.155865 137.875134 
L 197.302019 143.647095 
L 199.448173 153.825158 
L 201.594327 145.135969 
L 203.740481 126.553765 
L 208.032788 109.657004 
L 210.178942 103.364859 
L 212.325096 104.184995 
L 214.47125 115.734017 
L 216.617404 123.706285 
L 218.763558 110.725054 
L 220.909712 118.66644 
L 223.055865 133.64946 
L 225.202019 143.852152 
L 227.348173 162.931553 
L 229.494327 167.950164 
L 231.640481 168.368807 
L 233.786635 167.812143 
L 235.932788 173.252533 
L 238.078942 182.133736 
L 240.225096 187.886773 
L 242.37125 184.364202 
L 244.517404 173.756485 
L 246.663558 168.137917 
L 248.809712 149.211109 
L 250.955865 118.506459 
L 253.102019 113.95917 
L 255.248173 114.485946 
L 259.540481 152.369015 
L 261.686635 162.850458 
L 263.832788 130.490024 
L 265.978942 125.863247 
L 268.125096 116.609558 
L 270.27125 118.284829 
L 272.417404 128.092021 
L 274.563558 146.496043 
L 276.709712 154.02606 
L 278.855865 151.125301 
L 281.002019 160.229679 
L 283.148173 167.611895 
L 285.294327 161.673395 
L 287.440481 161.991075 
L 289.586635 172.565844 
L 291.732788 169.001151 
L 293.878942 156.085585 
L 296.025096 159.80298 
L 298.17125 171.545058 
L 300.317404 173.502229 
L 302.463558 169.866605 
L 304.609712 184.084689 
L 306.755865 173.835761 
L 308.902019 165.142779 
L 311.048173 169.284726 
L 313.194327 161.75254 
L 315.340481 154.90581 
L 317.486635 156.377782 
L 319.632788 180.434565 
L 321.778942 206.511808 
L 323.925096 203.345636 
L 326.07125 201.111686 
L 328.217404 198.291493 
L 330.363558 201.249962 
L 332.509712 194.45365 
L 334.655865 197.982161 
L 336.802019 197.576053 
L 338.948173 185.733862 
L 341.094327 183.165244 
L 343.240481 181.00453 
L 345.386635 184.365042 
L 347.532788 195.167506 
L 349.678942 203.983964 
L 351.825096 205.660751 
L 353.97125 204.528303 
L 356.117404 187.55959 
L 358.263558 186.090311 
L 360.409712 182.407262 
L 362.555865 188.886951 
L 364.702019 202.261111 
L 366.848173 207.689796 
L 368.994327 202.171734 
L 371.140481 207.463513 
L 373.286635 214.921535 
L 375.432788 221.519808 
L 377.578942 220.688668 
L 379.725096 227.635047 
L 381.87125 225.629352 
L 384.017404 209.582185 
L 386.163558 209.717481 
L 388.309712 211.114797 
L 390.455865 212.723675 
L 392.602019 219.236047 
L 394.748173 230.136935 
L 396.894327 227.529599 
L 399.040481 217.772873 
L 401.186635 213.846752 
L 403.332788 215.82701 
L 405.478942 218.509699 
L 407.625096 221.74483 
L 409.77125 233.198151 
L 411.917404 233.439471 
L 414.063558 220.951388 
L 416.209712 212.475284 
L 418.355865 210.39595 
L 420.502019 208.86236 
L 422.648173 212.657031 
L 424.794327 227.424619 
L 426.940481 229.971144 
L 429.086635 217.090577 
L 431.232788 213.64191 
L 433.378942 211.066465 
L 435.525096 207.807664 
L 437.67125 212.779953 
L 439.817404 226.778452 
L 441.963558 227.441652 
L 444.109712 215.849088 
L 446.255865 220.465073 
L 448.402019 213.276439 
L 450.548173 211.195486 
L 452.694327 215.543851 
L 454.840481 227.351272 
L 456.986635 226.573925 
L 459.132788 216.690004 
L 461.278942 215.040806 
L 463.425096 215.155237 
L 465.57125 215.966289 
L 467.717404 221.061604 
L 469.863558 231.879503 
L 472.009712 231.759251 
L 474.155865 220.124009 
L 476.302019 217.44368 
L 478.448173 217.303357 
L 480.594327 217.890641 
L 482.740481 222.139704 
L 484.886635 233.03913 
L 487.032788 232.63972 
L 489.178942 222.006052 
L 491.325096 222.047574 
L 493.47125 224.855719 
L 495.617404 225.565218 
L 497.763558 227.404999 
L 499.909712 232.655824 
L 502.055865 230.090065 
L 504.202019 221.823437 
L 506.348173 218.562768 
L 508.494327 217.67284 
L 510.640481 219.701899 
L 512.786635 224.813411 
L 514.932788 230.265025 
L 517.078942 230.309267 
L 519.225096 222.79791 
L 521.37125 220.990656 
L 523.517404 221.353454 
L 525.663558 223.196169 
L 527.809712 228.106775 
L 529.955865 234.173247 
L 532.102019 234.224161 
L 534.248173 223.644191 
L 536.394327 219.719496 
L 538.540481 219.214688 
L 540.686635 218.533553 
L 542.832788 221.096553 
L 544.978942 230.440332 
L 547.125096 229.850335 
L 549.27125 220.088009 
L 551.417404 216.788377 
L 553.563558 217.951553 
L 555.709712 214.552289 
L 557.855865 214.703319 
L 560.002019 222.160549 
L 562.148173 221.642361 
L 564.294327 213.30601 
L 566.440481 211.855845 
L 568.586635 210.761371 
L 570.732788 212.640214 
L 572.878942 216.589798 
L 575.025096 225.715237 
L 577.17125 226.249186 
L 579.317404 215.162462 
L 581.463558 214.665104 
L 583.609712 216.797365 
L 585.755865 216.922574 
L 587.902019 219.271698 
L 590.048173 228.543551 
L 592.194327 228.561788 
L 594.340481 214.189627 
L 596.486635 214.348068 
L 598.632788 214.240785 
L 600.778942 212.396709 
L 602.925096 212.27439 
L 605.07125 222.790702 
L 607.217404 218.332551 
L 609.363558 199.418795 
L 611.509712 198.193507 
L 613.655865 199.147198 
L 615.802019 205.650891 
L 617.948173 210.134897 
L 620.094327 220.150904 
L 622.240481 224.355473 
L 624.386635 214.381799 
L 626.532788 207.13754 
L 628.678942 204.898238 
L 630.825096 197.474528 
L 632.97125 200.682036 
L 635.117404 213.649418 
L 637.263558 218.0585 
L 639.409712 201.748927 
L 641.555865 199.639175 
L 643.702019 190.425585 
L 645.848173 183.384846 
L 647.994327 186.810266 
L 650.140481 194.203973 
L 652.286635 186.043073 
L 654.432788 174.349143 
L 656.578942 169.185348 
L 658.725096 164.373165 
L 660.87125 172.784979 
L 665.163558 180.788078 
L 667.309712 180.929294 
L 669.455865 172.795044 
L 671.602019 182.783909 
L 673.748173 195.15104 
L 675.894327 186.376411 
L 678.040481 176.933335 
L 680.186635 175.21916 
L 682.332788 170.398054 
L 684.478942 156.984851 
L 686.625096 165.09179 
L 688.77125 172.153727 
L 690.917404 172.307815 
L 693.063558 176.971993 
L 695.209712 183.797402 
L 697.355865 194.484908 
L 699.502019 181.618524 
L 701.648173 159.27499 
L 703.794327 148.265082 
L 705.940481 145.009137 
L 708.086635 148.608297 
L 710.232788 162.613926 
L 712.378942 164.068686 
L 714.525096 142.422598 
L 716.67125 141.73734 
L 718.817404 129.579574 
L 720.963558 128.300529 
L 723.109712 131.901624 
L 725.255865 148.557527 
L 727.402019 152.312524 
L 729.548173 130.834881 
L 731.694327 128.56019 
L 733.840481 137.071052 
L 735.986635 144.703432 
L 738.132788 154.590459 
L 740.278942 165.904018 
L 742.425096 155.434949 
L 744.57125 127.285873 
L 746.717404 117.190265 
L 748.863558 113.551718 
L 751.009712 108.142083 
L 753.155865 113.159232 
L 755.302019 120.085625 
L 757.448173 115.768756 
L 759.594327 98.654759 
L 761.740481 114.068068 
L 763.886635 128.542894 
L 766.032788 107.649302 
L 768.178942 110.247868 
L 770.325096 124.551564 
L 772.47125 119.361626 
L 774.617404 98.247897 
L 776.763558 100.740249 
L 778.909712 100.831682 
L 781.055865 96.556183 
L 783.202019 98.285813 
L 785.348173 112.671065 
L 787.494327 126.130297 
L 789.640481 121.997505 
L 791.786635 125.384162 
L 793.932788 132.394705 
L 796.078942 132.44886 
L 798.225096 135.397515 
L 800.37125 146.755905 
L 802.517404 145.249963 
L 804.663558 106.940273 
L 806.809712 89.117162 
L 808.955865 86.840566 
L 811.102019 107.314018 
L 813.248173 133.584119 
L 815.394327 122.433786 
L 817.540481 119.900507 
L 819.686635 120.669461 
L 821.832788 136.210184 
L 823.978942 148.005722 
L 826.125096 174.204695 
L 828.27125 187.639266 
L 828.27125 187.639266 
" clip-path="url(#p8ec703c309)" style="fill: none; stroke: #ff7f0e; stroke-width: 1.2; stroke-linecap: round"/>
   </g>
   <g id="patch_3">
    <path d="M 47.07125 244.55775 
L 47.07125 22.79775 
" style="fill: none; stroke: #cccccc; stroke-linejoin: miter; stroke-linecap: square"/>
   </g>
   <g id="patch_4">
    <path d="M 828.27125 244.55775 
L 828.27125 22.79775 
" style="fill: none; stroke: #cccccc; stroke-linejoin: miter; stroke-linecap: square"/>
   </g>
   <g id="patch_5">
    <path d="M 47.07125 244.55775 
L 828.27125 244.55775 
" style="fill: none; stroke: #cccccc; stroke-linejoin: miter; stroke-linecap: square"/>
   </g>
   <g id="patch_6">
    <path d="M 47.07125 22.79775 
L 828.27125 22.79775 
" style="fill: none; stroke: #cccccc; stroke-linejoin: miter; stroke-linecap: square"/>
   </g>
   <g id="legend_1">
    <g id="patch_7">
     <path d="M 304.833875 87.08175 
L 570.508625 87.08175 
Q 574.028625 87.08175 574.028625 83.56175 
L 574.028625 35.11775 
Q 574.028625 31.59775 570.508625 31.59775 
L 304.833875 31.59775 
Q 301.313875 31.59775 301.313875 35.11775 
L 301.313875 83.56175 
Q 301.313875 87.08175 304.833875 87.08175 
z
" style="fill: #ffffff; opacity: 0.8; stroke: #cccccc; stroke-width: 0.8; stroke-linejoin: miter"/>
    </g>
    <g id="line2d_22">
     <path d="M 308.353875 45.0755 
L 325.953875 45.0755 
L 343.553875 45.0755 
" style="fill: none; stroke: #1f77b4; stroke-width: 1.2; stroke-linecap: round"/>
    </g>
    <g id="text_22">
     <!-- Modelled gas consumption -->
     <g style="fill: #262626" transform="translate(357.633875 51.2355) scale(0.176 -0.176)">
      <defs>
       <path id="ArialMT-64" d="M 2575 0 
L 2575 419 
Q 2259 -75 1647 -75 
Q 1250 -75 917 144 
Q 584 363 401 755 
Q 219 1147 219 1656 
Q 219 2153 384 2558 
Q 550 2963 881 3178 
Q 1213 3394 1622 3394 
Q 1922 3394 2156 3267 
Q 2391 3141 2538 2938 
L 2538 4581 
L 3097 4581 
L 3097 0 
L 2575 0 
z
M 797 1656 
Q 797 1019 1065 703 
Q 1334 388 1700 388 
Q 2069 388 2326 689 
Q 2584 991 2584 1609 
Q 2584 2291 2321 2609 
Q 2059 2928 1675 2928 
Q 1300 2928 1048 2622 
Q 797 2316 797 1656 
z
" transform="scale(0.015625)"/>
      </defs>
      <use xlink:href="#ArialMT-4d"/>
      <use xlink:href="#ArialMT-6f" x="83.300781"/>
      <use xlink:href="#ArialMT-64" x="138.916016"/>
      <use xlink:href="#ArialMT-65" x="194.53125"/>
      <use xlink:href="#ArialMT-6c" x="250.146484"/>
      <use xlink:href="#ArialMT-6c" x="272.363281"/>
      <use xlink:href="#ArialMT-65" x="294.580078"/>
      <use xlink:href="#ArialMT-64" x="350.195312"/>
      <use xlink:href="#ArialMT-20" x="405.810547"/>
      <use xlink:href="#ArialMT-67" x="433.59375"/>
      <use xlink:href="#ArialMT-61" x="489.208984"/>
      <use xlink:href="#ArialMT-73" x="544.824219"/>
      <use xlink:href="#ArialMT-20" x="594.824219"/>
      <use xlink:href="#ArialMT-63" x="622.607422"/>
      <use xlink:href="#ArialMT-6f" x="672.607422"/>
      <use xlink:href="#ArialMT-6e" x="728.222656"/>
      <use xlink:href="#ArialMT-73" x="783.837891"/>
      <use xlink:href="#ArialMT-75" x="833.837891"/>
      <use xlink:href="#ArialMT-6d" x="889.453125"/>
      <use xlink:href="#ArialMT-70" x="972.753906"/>
      <use xlink:href="#ArialMT-74" x="1028.369141"/>
      <use xlink:href="#ArialMT-69" x="1056.152344"/>
      <use xlink:href="#ArialMT-6f" x="1078.369141"/>
      <use xlink:href="#ArialMT-6e" x="1133.984375"/>
     </g>
    </g>
    <g id="line2d_23">
     <path d="M 308.353875 70.1775 
L 325.953875 70.1775 
L 343.553875 70.1775 
" style="fill: none; stroke: #ff7f0e; stroke-width: 1.2; stroke-linecap: round"/>
    </g>
    <g id="text_23">
     <!-- Actual gas consumption -->
     <g style="fill: #262626" transform="translate(357.633875 76.3375) scale(0.176 -0.176)">
      <use xlink:href="#ArialMT-41"/>
      <use xlink:href="#ArialMT-63" x="66.699219"/>
      <use xlink:href="#ArialMT-74" x="116.699219"/>
      <use xlink:href="#ArialMT-75" x="144.482422"/>
      <use xlink:href="#ArialMT-61" x="200.097656"/>
      <use xlink:href="#ArialMT-6c" x="255.712891"/>
      <use xlink:href="#ArialMT-20" x="277.929688"/>
      <use xlink:href="#ArialMT-67" x="305.712891"/>
      <use xlink:href="#ArialMT-61" x="361.328125"/>
      <use xlink:href="#ArialMT-73" x="416.943359"/>
      <use xlink:href="#ArialMT-20" x="466.943359"/>
      <use xlink:href="#ArialMT-63" x="494.726562"/>
      <use xlink:href="#ArialMT-6f" x="544.726562"/>
      <use xlink:href="#ArialMT-6e" x="600.341797"/>
      <use xlink:href="#ArialMT-73" x="655.957031"/>
      <use xlink:href="#ArialMT-75" x="705.957031"/>
      <use xlink:href="#ArialMT-6d" x="761.572266"/>
      <use xlink:href="#ArialMT-70" x="844.873047"/>
      <use xlink:href="#ArialMT-74" x="900.488281"/>
      <use xlink:href="#ArialMT-69" x="928.271484"/>
      <use xlink:href="#ArialMT-6f" x="950.488281"/>
      <use xlink:href="#ArialMT-6e" x="1006.103516"/>
     </g>
    </g>
   </g>
  </g>
 </g>
 <defs>
  <clipPath id="p8ec703c309">
   <rect x="47.07125" y="22.79775" width="781.2" height="221.76"/>
  </clipPath>
 </defs>
</svg>
