<?xml version="1.0" encoding="utf-8" standalone="no"?>
<!DOCTYPE svg PUBLIC "-//W3C//DTD SVG 1.1//EN"
  "http://www.w3.org/Graphics/SVG/1.1/DTD/svg11.dtd">
<svg xmlns:xlink="http://www.w3.org/1999/xlink" width="835.70525pt" height="302.55075pt" viewBox="0 0 835.70525 302.55075" xmlns="http://www.w3.org/2000/svg" version="1.1">
 <metadata>
  <rdf:RDF xmlns:dc="http://purl.org/dc/elements/1.1/" xmlns:cc="http://creativecommons.org/ns#" xmlns:rdf="http://www.w3.org/1999/02/22-rdf-syntax-ns#">
   <cc:Work>
    <dc:type rdf:resource="http://purl.org/dc/dcmitype/StillImage"/>
    <dc:date>2023-05-11T10:57:40.445797</dc:date>
    <dc:format>image/svg+xml</dc:format>
    <dc:creator>
     <cc:Agent>
      <dc:title>Matplotlib v3.7.1, https://matplotlib.org/</dc:title>
     </cc:Agent>
    </dc:creator>
   </cc:Work>
  </rdf:RDF>
 </metadata>
 <defs>
  <style type="text/css">*{stroke-linejoin: round; stroke-linecap: butt}</style>
 </defs>
 <g id="figure_1">
  <g id="patch_1">
   <path d="M 0 302.55075 
L 835.70525 302.55075 
L 835.70525 0 
L 0 0 
z
" style="fill: #ffffff"/>
  </g>
  <g id="axes_1">
   <g id="patch_2">
    <path d="M 47.30525 248.937 
L 828.50525 248.937 
L 828.50525 27.177 
L 47.30525 27.177 
z
" style="fill: #ffffff"/>
   </g>
   <g id="matplotlib.axis_1">
    <g id="xtick_1">
     <g id="line2d_1">
      <path d="M 82.814341 248.937 
L 82.814341 27.177 
" clip-path="url(#p31836f5b1e)" style="fill: none; stroke: #cccccc; stroke-width: 0.8; stroke-linecap: round"/>
     </g>
     <g id="text_1">
      <!-- 0 -->
      <g style="fill: #262626" transform="translate(77.920716 269.83475) scale(0.176 -0.176)">
       <defs>
        <path id="ArialMT-30" d="M 266 2259 
Q 266 3072 433 3567 
Q 600 4063 929 4331 
Q 1259 4600 1759 4600 
Q 2128 4600 2406 4451 
Q 2684 4303 2865 4023 
Q 3047 3744 3150 3342 
Q 3253 2941 3253 2259 
Q 3253 1453 3087 958 
Q 2922 463 2592 192 
Q 2263 -78 1759 -78 
Q 1097 -78 719 397 
Q 266 969 266 2259 
z
M 844 2259 
Q 844 1131 1108 757 
Q 1372 384 1759 384 
Q 2147 384 2411 759 
Q 2675 1134 2675 2259 
Q 2675 3391 2411 3762 
Q 2147 4134 1753 4134 
Q 1366 4134 1134 3806 
Q 844 3388 844 2259 
z
" transform="scale(0.015625)"/>
       </defs>
       <use xlink:href="#ArialMT-30"/>
      </g>
     </g>
    </g>
    <g id="xtick_2">
     <g id="line2d_2">
      <path d="M 234.17449 248.937 
L 234.17449 27.177 
" clip-path="url(#p31836f5b1e)" style="fill: none; stroke: #cccccc; stroke-width: 0.8; stroke-linecap: round"/>
     </g>
     <g id="text_2">
      <!-- 500 -->
      <g style="fill: #262626" transform="translate(219.493615 269.83475) scale(0.176 -0.176)">
       <defs>
        <path id="ArialMT-35" d="M 266 1200 
L 856 1250 
Q 922 819 1161 601 
Q 1400 384 1738 384 
Q 2144 384 2425 690 
Q 2706 997 2706 1503 
Q 2706 1984 2436 2262 
Q 2166 2541 1728 2541 
Q 1456 2541 1237 2417 
Q 1019 2294 894 2097 
L 366 2166 
L 809 4519 
L 3088 4519 
L 3088 3981 
L 1259 3981 
L 1013 2750 
Q 1425 3038 1878 3038 
Q 2478 3038 2890 2622 
Q 3303 2206 3303 1553 
Q 3303 931 2941 478 
Q 2500 -78 1738 -78 
Q 1113 -78 717 272 
Q 322 622 266 1200 
z
" transform="scale(0.015625)"/>
       </defs>
       <use xlink:href="#ArialMT-35"/>
       <use xlink:href="#ArialMT-30" x="55.615234"/>
       <use xlink:href="#ArialMT-30" x="111.230469"/>
      </g>
     </g>
    </g>
    <g id="xtick_3">
     <g id="line2d_3">
      <path d="M 385.534639 248.937 
L 385.534639 27.177 
" clip-path="url(#p31836f5b1e)" style="fill: none; stroke: #cccccc; stroke-width: 0.8; stroke-linecap: round"/>
     </g>
     <g id="text_3">
      <!-- 1000 -->
      <g style="fill: #262626" transform="translate(365.960139 269.83475) scale(0.176 -0.176)">
       <defs>
        <path id="ArialMT-31" d="M 2384 0 
L 1822 0 
L 1822 3584 
Q 1619 3391 1289 3197 
Q 959 3003 697 2906 
L 697 3450 
Q 1169 3672 1522 3987 
Q 1875 4303 2022 4600 
L 2384 4600 
L 2384 0 
z
" transform="scale(0.015625)"/>
       </defs>
       <use xlink:href="#ArialMT-31"/>
       <use xlink:href="#ArialMT-30" x="55.615234"/>
       <use xlink:href="#ArialMT-30" x="111.230469"/>
       <use xlink:href="#ArialMT-30" x="166.845703"/>
      </g>
     </g>
    </g>
    <g id="xtick_4">
     <g id="line2d_4">
      <path d="M 536.894787 248.937 
L 536.894787 27.177 
" clip-path="url(#p31836f5b1e)" style="fill: none; stroke: #cccccc; stroke-width: 0.8; stroke-linecap: round"/>
     </g>
     <g id="text_4">
      <!-- 1500 -->
      <g style="fill: #262626" transform="translate(517.320287 269.83475) scale(0.176 -0.176)">
       <use xlink:href="#ArialMT-31"/>
       <use xlink:href="#ArialMT-35" x="55.615234"/>
       <use xlink:href="#ArialMT-30" x="111.230469"/>
       <use xlink:href="#ArialMT-30" x="166.845703"/>
      </g>
     </g>
    </g>
    <g id="xtick_5">
     <g id="line2d_5">
      <path d="M 688.254936 248.937 
L 688.254936 27.177 
" clip-path="url(#p31836f5b1e)" style="fill: none; stroke: #cccccc; stroke-width: 0.8; stroke-linecap: round"/>
     </g>
     <g id="text_5">
      <!-- 2000 -->
      <g style="fill: #262626" transform="translate(668.680436 269.83475) scale(0.176 -0.176)">
       <defs>
        <path id="ArialMT-32" d="M 3222 541 
L 3222 0 
L 194 0 
Q 188 203 259 391 
Q 375 700 629 1000 
Q 884 1300 1366 1694 
Q 2113 2306 2375 2664 
Q 2638 3022 2638 3341 
Q 2638 3675 2398 3904 
Q 2159 4134 1775 4134 
Q 1369 4134 1125 3890 
Q 881 3647 878 3216 
L 300 3275 
Q 359 3922 746 4261 
Q 1134 4600 1788 4600 
Q 2447 4600 2831 4234 
Q 3216 3869 3216 3328 
Q 3216 3053 3103 2787 
Q 2991 2522 2730 2228 
Q 2469 1934 1863 1422 
Q 1356 997 1212 845 
Q 1069 694 975 541 
L 3222 541 
z
" transform="scale(0.015625)"/>
       </defs>
       <use xlink:href="#ArialMT-32"/>
       <use xlink:href="#ArialMT-30" x="55.615234"/>
       <use xlink:href="#ArialMT-30" x="111.230469"/>
       <use xlink:href="#ArialMT-30" x="166.845703"/>
      </g>
     </g>
    </g>
    <g id="text_6">
     <!-- Time (days) -->
     <g style="fill: #262626" transform="translate(387.59675 291.30975) scale(0.192 -0.192)">
      <defs>
       <path id="ArialMT-54" d="M 1659 0 
L 1659 4041 
L 150 4041 
L 150 4581 
L 3781 4581 
L 3781 4041 
L 2266 4041 
L 2266 0 
L 1659 0 
z
" transform="scale(0.015625)"/>
       <path id="ArialMT-69" d="M 425 3934 
L 425 4581 
L 988 4581 
L 988 3934 
L 425 3934 
z
M 425 0 
L 425 3319 
L 988 3319 
L 988 0 
L 425 0 
z
" transform="scale(0.015625)"/>
       <path id="ArialMT-6d" d="M 422 0 
L 422 3319 
L 925 3319 
L 925 2853 
Q 1081 3097 1340 3245 
Q 1600 3394 1931 3394 
Q 2300 3394 2536 3241 
Q 2772 3088 2869 2813 
Q 3263 3394 3894 3394 
Q 4388 3394 4653 3120 
Q 4919 2847 4919 2278 
L 4919 0 
L 4359 0 
L 4359 2091 
Q 4359 2428 4304 2576 
Q 4250 2725 4106 2815 
Q 3963 2906 3769 2906 
Q 3419 2906 3187 2673 
Q 2956 2441 2956 1928 
L 2956 0 
L 2394 0 
L 2394 2156 
Q 2394 2531 2256 2718 
Q 2119 2906 1806 2906 
Q 1569 2906 1367 2781 
Q 1166 2656 1075 2415 
Q 984 2175 984 1722 
L 984 0 
L 422 0 
z
" transform="scale(0.015625)"/>
       <path id="ArialMT-65" d="M 2694 1069 
L 3275 997 
Q 3138 488 2766 206 
Q 2394 -75 1816 -75 
Q 1088 -75 661 373 
Q 234 822 234 1631 
Q 234 2469 665 2931 
Q 1097 3394 1784 3394 
Q 2450 3394 2872 2941 
Q 3294 2488 3294 1666 
Q 3294 1616 3291 1516 
L 816 1516 
Q 847 969 1125 678 
Q 1403 388 1819 388 
Q 2128 388 2347 550 
Q 2566 713 2694 1069 
z
M 847 1978 
L 2700 1978 
Q 2663 2397 2488 2606 
Q 2219 2931 1791 2931 
Q 1403 2931 1139 2672 
Q 875 2413 847 1978 
z
" transform="scale(0.015625)"/>
       <path id="ArialMT-20" transform="scale(0.015625)"/>
       <path id="ArialMT-28" d="M 1497 -1347 
Q 1031 -759 709 28 
Q 388 816 388 1659 
Q 388 2403 628 3084 
Q 909 3875 1497 4659 
L 1900 4659 
Q 1522 4009 1400 3731 
Q 1209 3300 1100 2831 
Q 966 2247 966 1656 
Q 966 153 1900 -1347 
L 1497 -1347 
z
" transform="scale(0.015625)"/>
       <path id="ArialMT-64" d="M 2575 0 
L 2575 419 
Q 2259 -75 1647 -75 
Q 1250 -75 917 144 
Q 584 363 401 755 
Q 219 1147 219 1656 
Q 219 2153 384 2558 
Q 550 2963 881 3178 
Q 1213 3394 1622 3394 
Q 1922 3394 2156 3267 
Q 2391 3141 2538 2938 
L 2538 4581 
L 3097 4581 
L 3097 0 
L 2575 0 
z
M 797 1656 
Q 797 1019 1065 703 
Q 1334 388 1700 388 
Q 2069 388 2326 689 
Q 2584 991 2584 1609 
Q 2584 2291 2321 2609 
Q 2059 2928 1675 2928 
Q 1300 2928 1048 2622 
Q 797 2316 797 1656 
z
" transform="scale(0.015625)"/>
       <path id="ArialMT-61" d="M 2588 409 
Q 2275 144 1986 34 
Q 1697 -75 1366 -75 
Q 819 -75 525 192 
Q 231 459 231 875 
Q 231 1119 342 1320 
Q 453 1522 633 1644 
Q 813 1766 1038 1828 
Q 1203 1872 1538 1913 
Q 2219 1994 2541 2106 
Q 2544 2222 2544 2253 
Q 2544 2597 2384 2738 
Q 2169 2928 1744 2928 
Q 1347 2928 1158 2789 
Q 969 2650 878 2297 
L 328 2372 
Q 403 2725 575 2942 
Q 747 3159 1072 3276 
Q 1397 3394 1825 3394 
Q 2250 3394 2515 3294 
Q 2781 3194 2906 3042 
Q 3031 2891 3081 2659 
Q 3109 2516 3109 2141 
L 3109 1391 
Q 3109 606 3145 398 
Q 3181 191 3288 0 
L 2700 0 
Q 2613 175 2588 409 
z
M 2541 1666 
Q 2234 1541 1622 1453 
Q 1275 1403 1131 1340 
Q 988 1278 909 1158 
Q 831 1038 831 891 
Q 831 666 1001 516 
Q 1172 366 1500 366 
Q 1825 366 2078 508 
Q 2331 650 2450 897 
Q 2541 1088 2541 1459 
L 2541 1666 
z
" transform="scale(0.015625)"/>
       <path id="ArialMT-79" d="M 397 -1278 
L 334 -750 
Q 519 -800 656 -800 
Q 844 -800 956 -737 
Q 1069 -675 1141 -563 
Q 1194 -478 1313 -144 
Q 1328 -97 1363 -6 
L 103 3319 
L 709 3319 
L 1400 1397 
Q 1534 1031 1641 628 
Q 1738 1016 1872 1384 
L 2581 3319 
L 3144 3319 
L 1881 -56 
Q 1678 -603 1566 -809 
Q 1416 -1088 1222 -1217 
Q 1028 -1347 759 -1347 
Q 597 -1347 397 -1278 
z
" transform="scale(0.015625)"/>
       <path id="ArialMT-73" d="M 197 991 
L 753 1078 
Q 800 744 1014 566 
Q 1228 388 1613 388 
Q 2000 388 2187 545 
Q 2375 703 2375 916 
Q 2375 1106 2209 1216 
Q 2094 1291 1634 1406 
Q 1016 1563 777 1677 
Q 538 1791 414 1992 
Q 291 2194 291 2438 
Q 291 2659 392 2848 
Q 494 3038 669 3163 
Q 800 3259 1026 3326 
Q 1253 3394 1513 3394 
Q 1903 3394 2198 3281 
Q 2494 3169 2634 2976 
Q 2775 2784 2828 2463 
L 2278 2388 
Q 2241 2644 2061 2787 
Q 1881 2931 1553 2931 
Q 1166 2931 1000 2803 
Q 834 2675 834 2503 
Q 834 2394 903 2306 
Q 972 2216 1119 2156 
Q 1203 2125 1616 2013 
Q 2213 1853 2448 1751 
Q 2684 1650 2818 1456 
Q 2953 1263 2953 975 
Q 2953 694 2789 445 
Q 2625 197 2315 61 
Q 2006 -75 1616 -75 
Q 969 -75 630 194 
Q 291 463 197 991 
z
" transform="scale(0.015625)"/>
       <path id="ArialMT-29" d="M 791 -1347 
L 388 -1347 
Q 1322 153 1322 1656 
Q 1322 2244 1188 2822 
Q 1081 3291 891 3722 
Q 769 4003 388 4659 
L 791 4659 
Q 1378 3875 1659 3084 
Q 1900 2403 1900 1659 
Q 1900 816 1576 28 
Q 1253 -759 791 -1347 
z
" transform="scale(0.015625)"/>
      </defs>
      <use xlink:href="#ArialMT-54"/>
      <use xlink:href="#ArialMT-69" x="57.333984"/>
      <use xlink:href="#ArialMT-6d" x="79.550781"/>
      <use xlink:href="#ArialMT-65" x="162.851562"/>
      <use xlink:href="#ArialMT-20" x="218.466797"/>
      <use xlink:href="#ArialMT-28" x="246.25"/>
      <use xlink:href="#ArialMT-64" x="279.550781"/>
      <use xlink:href="#ArialMT-61" x="335.166016"/>
      <use xlink:href="#ArialMT-79" x="390.78125"/>
      <use xlink:href="#ArialMT-73" x="440.78125"/>
      <use xlink:href="#ArialMT-29" x="490.78125"/>
     </g>
    </g>
   </g>
   <g id="matplotlib.axis_2">
    <g id="ytick_1">
     <g id="line2d_6">
      <path d="M 47.30525 199.345468 
L 828.50525 199.345468 
" clip-path="url(#p31836f5b1e)" style="fill: none; stroke: #cccccc; stroke-width: 0.8; stroke-linecap: round"/>
     </g>
     <g id="text_7">
      <!-- 2 -->
      <g style="fill: #262626" transform="translate(29.218 205.644343) scale(0.176 -0.176)">
       <use xlink:href="#ArialMT-32"/>
      </g>
     </g>
    </g>
    <g id="ytick_2">
     <g id="line2d_7">
      <path d="M 47.30525 127.099575 
L 828.50525 127.099575 
" clip-path="url(#p31836f5b1e)" style="fill: none; stroke: #cccccc; stroke-width: 0.8; stroke-linecap: round"/>
     </g>
     <g id="text_8">
      <!-- 4 -->
      <g style="fill: #262626" transform="translate(29.218 133.39845) scale(0.176 -0.176)">
       <defs>
        <path id="ArialMT-34" d="M 2069 0 
L 2069 1097 
L 81 1097 
L 81 1613 
L 2172 4581 
L 2631 4581 
L 2631 1613 
L 3250 1613 
L 3250 1097 
L 2631 1097 
L 2631 0 
L 2069 0 
z
M 2069 1613 
L 2069 3678 
L 634 1613 
L 2069 1613 
z
" transform="scale(0.015625)"/>
       </defs>
       <use xlink:href="#ArialMT-34"/>
      </g>
     </g>
    </g>
    <g id="ytick_3">
     <g id="line2d_8">
      <path d="M 47.30525 54.853682 
L 828.50525 54.853682 
" clip-path="url(#p31836f5b1e)" style="fill: none; stroke: #cccccc; stroke-width: 0.8; stroke-linecap: round"/>
     </g>
     <g id="text_9">
      <!-- 6 -->
      <g style="fill: #262626" transform="translate(29.218 61.152557) scale(0.176 -0.176)">
       <defs>
        <path id="ArialMT-36" d="M 3184 3459 
L 2625 3416 
Q 2550 3747 2413 3897 
Q 2184 4138 1850 4138 
Q 1581 4138 1378 3988 
Q 1113 3794 959 3422 
Q 806 3050 800 2363 
Q 1003 2672 1297 2822 
Q 1591 2972 1913 2972 
Q 2475 2972 2870 2558 
Q 3266 2144 3266 1488 
Q 3266 1056 3080 686 
Q 2894 316 2569 119 
Q 2244 -78 1831 -78 
Q 1128 -78 684 439 
Q 241 956 241 2144 
Q 241 3472 731 4075 
Q 1159 4600 1884 4600 
Q 2425 4600 2770 4297 
Q 3116 3994 3184 3459 
z
M 888 1484 
Q 888 1194 1011 928 
Q 1134 663 1356 523 
Q 1578 384 1822 384 
Q 2178 384 2434 671 
Q 2691 959 2691 1453 
Q 2691 1928 2437 2201 
Q 2184 2475 1800 2475 
Q 1419 2475 1153 2201 
Q 888 1928 888 1484 
z
" transform="scale(0.015625)"/>
       </defs>
       <use xlink:href="#ArialMT-36"/>
      </g>
     </g>
    </g>
    <g id="text_10">
     <!-- Consumption (MWh) -->
     <g style="fill: #262626" transform="translate(21.177 226.074) rotate(-90) scale(0.192 -0.192)">
      <defs>
       <path id="ArialMT-43" d="M 3763 1606 
L 4369 1453 
Q 4178 706 3683 314 
Q 3188 -78 2472 -78 
Q 1731 -78 1267 223 
Q 803 525 561 1097 
Q 319 1669 319 2325 
Q 319 3041 592 3573 
Q 866 4106 1370 4382 
Q 1875 4659 2481 4659 
Q 3169 4659 3637 4309 
Q 4106 3959 4291 3325 
L 3694 3184 
Q 3534 3684 3231 3912 
Q 2928 4141 2469 4141 
Q 1941 4141 1586 3887 
Q 1231 3634 1087 3207 
Q 944 2781 944 2328 
Q 944 1744 1114 1308 
Q 1284 872 1643 656 
Q 2003 441 2422 441 
Q 2931 441 3284 734 
Q 3638 1028 3763 1606 
z
" transform="scale(0.015625)"/>
       <path id="ArialMT-6f" d="M 213 1659 
Q 213 2581 725 3025 
Q 1153 3394 1769 3394 
Q 2453 3394 2887 2945 
Q 3322 2497 3322 1706 
Q 3322 1066 3130 698 
Q 2938 331 2570 128 
Q 2203 -75 1769 -75 
Q 1072 -75 642 372 
Q 213 819 213 1659 
z
M 791 1659 
Q 791 1022 1069 705 
Q 1347 388 1769 388 
Q 2188 388 2466 706 
Q 2744 1025 2744 1678 
Q 2744 2294 2464 2611 
Q 2184 2928 1769 2928 
Q 1347 2928 1069 2612 
Q 791 2297 791 1659 
z
" transform="scale(0.015625)"/>
       <path id="ArialMT-6e" d="M 422 0 
L 422 3319 
L 928 3319 
L 928 2847 
Q 1294 3394 1984 3394 
Q 2284 3394 2536 3286 
Q 2788 3178 2913 3003 
Q 3038 2828 3088 2588 
Q 3119 2431 3119 2041 
L 3119 0 
L 2556 0 
L 2556 2019 
Q 2556 2363 2490 2533 
Q 2425 2703 2258 2804 
Q 2091 2906 1866 2906 
Q 1506 2906 1245 2678 
Q 984 2450 984 1813 
L 984 0 
L 422 0 
z
" transform="scale(0.015625)"/>
       <path id="ArialMT-75" d="M 2597 0 
L 2597 488 
Q 2209 -75 1544 -75 
Q 1250 -75 995 37 
Q 741 150 617 320 
Q 494 491 444 738 
Q 409 903 409 1263 
L 409 3319 
L 972 3319 
L 972 1478 
Q 972 1038 1006 884 
Q 1059 663 1231 536 
Q 1403 409 1656 409 
Q 1909 409 2131 539 
Q 2353 669 2445 892 
Q 2538 1116 2538 1541 
L 2538 3319 
L 3100 3319 
L 3100 0 
L 2597 0 
z
" transform="scale(0.015625)"/>
       <path id="ArialMT-70" d="M 422 -1272 
L 422 3319 
L 934 3319 
L 934 2888 
Q 1116 3141 1344 3267 
Q 1572 3394 1897 3394 
Q 2322 3394 2647 3175 
Q 2972 2956 3137 2557 
Q 3303 2159 3303 1684 
Q 3303 1175 3120 767 
Q 2938 359 2589 142 
Q 2241 -75 1856 -75 
Q 1575 -75 1351 44 
Q 1128 163 984 344 
L 984 -1272 
L 422 -1272 
z
M 931 1641 
Q 931 1000 1190 694 
Q 1450 388 1819 388 
Q 2194 388 2461 705 
Q 2728 1022 2728 1688 
Q 2728 2322 2467 2637 
Q 2206 2953 1844 2953 
Q 1484 2953 1207 2617 
Q 931 2281 931 1641 
z
" transform="scale(0.015625)"/>
       <path id="ArialMT-74" d="M 1650 503 
L 1731 6 
Q 1494 -44 1306 -44 
Q 1000 -44 831 53 
Q 663 150 594 308 
Q 525 466 525 972 
L 525 2881 
L 113 2881 
L 113 3319 
L 525 3319 
L 525 4141 
L 1084 4478 
L 1084 3319 
L 1650 3319 
L 1650 2881 
L 1084 2881 
L 1084 941 
Q 1084 700 1114 631 
Q 1144 563 1211 522 
Q 1278 481 1403 481 
Q 1497 481 1650 503 
z
" transform="scale(0.015625)"/>
       <path id="ArialMT-4d" d="M 475 0 
L 475 4581 
L 1388 4581 
L 2472 1338 
Q 2622 884 2691 659 
Q 2769 909 2934 1394 
L 4031 4581 
L 4847 4581 
L 4847 0 
L 4263 0 
L 4263 3834 
L 2931 0 
L 2384 0 
L 1059 3900 
L 1059 0 
L 475 0 
z
" transform="scale(0.015625)"/>
       <path id="ArialMT-57" d="M 1294 0 
L 78 4581 
L 700 4581 
L 1397 1578 
Q 1509 1106 1591 641 
Q 1766 1375 1797 1488 
L 2669 4581 
L 3400 4581 
L 4056 2263 
Q 4303 1400 4413 641 
Q 4500 1075 4641 1638 
L 5359 4581 
L 5969 4581 
L 4713 0 
L 4128 0 
L 3163 3491 
Q 3041 3928 3019 4028 
Q 2947 3713 2884 3491 
L 1913 0 
L 1294 0 
z
" transform="scale(0.015625)"/>
       <path id="ArialMT-68" d="M 422 0 
L 422 4581 
L 984 4581 
L 984 2938 
Q 1378 3394 1978 3394 
Q 2347 3394 2619 3248 
Q 2891 3103 3008 2847 
Q 3125 2591 3125 2103 
L 3125 0 
L 2563 0 
L 2563 2103 
Q 2563 2525 2380 2717 
Q 2197 2909 1863 2909 
Q 1613 2909 1392 2779 
Q 1172 2650 1078 2428 
Q 984 2206 984 1816 
L 984 0 
L 422 0 
z
" transform="scale(0.015625)"/>
      </defs>
      <use xlink:href="#ArialMT-43"/>
      <use xlink:href="#ArialMT-6f" x="72.216797"/>
      <use xlink:href="#ArialMT-6e" x="127.832031"/>
      <use xlink:href="#ArialMT-73" x="183.447266"/>
      <use xlink:href="#ArialMT-75" x="233.447266"/>
      <use xlink:href="#ArialMT-6d" x="289.0625"/>
      <use xlink:href="#ArialMT-70" x="372.363281"/>
      <use xlink:href="#ArialMT-74" x="427.978516"/>
      <use xlink:href="#ArialMT-69" x="455.761719"/>
      <use xlink:href="#ArialMT-6f" x="477.978516"/>
      <use xlink:href="#ArialMT-6e" x="533.59375"/>
      <use xlink:href="#ArialMT-20" x="589.208984"/>
      <use xlink:href="#ArialMT-28" x="616.992188"/>
      <use xlink:href="#ArialMT-4d" x="650.292969"/>
      <use xlink:href="#ArialMT-57" x="733.59375"/>
      <use xlink:href="#ArialMT-68" x="827.978516"/>
      <use xlink:href="#ArialMT-29" x="883.59375"/>
     </g>
    </g>
    <g id="text_11">
     <!-- 1e6 -->
     <g style="fill: #262626" transform="translate(47.30525 24.177) scale(0.176 -0.176)">
      <use xlink:href="#ArialMT-31"/>
      <use xlink:href="#ArialMT-65" x="55.615234"/>
      <use xlink:href="#ArialMT-36" x="111.230469"/>
     </g>
    </g>
   </g>
   <g id="line2d_9">
    <path d="M 82.814341 211.662155 
L 83.117061 208.70447 
L 83.419782 202.352285 
L 84.025222 180.858704 
L 84.327942 174.849406 
L 84.630663 176.012421 
L 84.933383 182.724616 
L 85.236103 177.976188 
L 85.538824 162.575333 
L 85.841544 160.515187 
L 86.144264 160.06608 
L 86.446984 163.947158 
L 86.749705 170.907999 
L 87.052425 184.508166 
L 87.355145 187.613889 
L 87.657866 176.977409 
L 87.960586 177.204863 
L 88.566027 162.788159 
L 88.868747 159.391485 
L 89.171467 167.219948 
L 89.474187 166.111666 
L 89.776908 161.21228 
L 90.079628 161.422743 
L 90.382348 161.790736 
L 90.987789 174.228016 
L 91.290509 179.99514 
L 91.59323 180.32611 
L 91.89595 172.298391 
L 92.19867 173.588342 
L 92.804111 149.844412 
L 93.106831 150.437796 
L 93.409551 162.198492 
L 93.712272 156.290515 
L 94.014992 132.436456 
L 94.317712 122.408982 
L 94.620433 119.858084 
L 94.923153 119.56439 
L 95.225873 120.425624 
L 95.528593 127.914791 
L 95.831314 124.229084 
L 96.134034 111.725806 
L 96.436754 124.319071 
L 96.739475 145.230646 
L 97.042195 157.813671 
L 97.344915 161.838567 
L 97.647635 163.808435 
L 97.950356 166.598108 
L 98.253076 162.102878 
L 98.555796 163.436624 
L 98.858517 161.146507 
L 99.161237 154.667229 
L 99.463957 144.980214 
L 99.766678 148.724407 
L 100.069398 146.008353 
L 100.372118 113.172155 
L 100.674838 103.426398 
L 100.977559 108.397469 
L 101.280279 121.201203 
L 101.582999 122.453676 
L 101.88572 125.187344 
L 102.18844 117.186376 
L 102.49116 95.226429 
L 102.793881 94.365456 
L 103.096601 103.748582 
L 104.004762 152.159629 
L 104.307482 156.630507 
L 104.610202 139.197495 
L 104.912923 131.564286 
L 105.215643 133.3196 
L 105.518363 130.263407 
L 105.821084 120.406449 
L 106.426524 135.139449 
L 107.031965 113.237813 
L 107.334685 114.92895 
L 107.637405 121.455391 
L 107.940126 134.997718 
L 108.242846 158.138086 
L 108.545566 170.25852 
L 108.848287 171.25821 
L 109.453727 145.446401 
L 109.756447 132.261915 
L 110.059168 124.780287 
L 110.361888 128.517817 
L 110.664608 127.976228 
L 110.967329 111.970569 
L 111.270049 115.740987 
L 111.572769 115.805695 
L 111.875489 95.771703 
L 112.17821 85.197882 
L 112.78365 102.435644 
L 113.086371 92.582982 
L 113.389091 98.633661 
L 113.691811 112.123667 
L 113.994532 118.023101 
L 114.297252 115.911854 
L 114.599972 123.6141 
L 114.902692 112.93743 
L 115.205413 84.939142 
L 115.508133 79.628411 
L 115.810853 76.945881 
L 116.113574 77.103364 
L 116.416294 85.154913 
L 116.719014 98.343228 
L 117.021735 94.780049 
L 117.324455 78.446084 
L 117.627175 78.535112 
L 117.929895 78.358464 
L 118.535336 92.110023 
L 118.838056 110.504739 
L 119.140777 118.538169 
L 119.443497 112.596363 
L 119.746217 110.886853 
L 120.048938 113.476153 
L 120.351658 126.331503 
L 120.654378 133.774698 
L 120.957098 145.178856 
L 121.259819 142.23191 
L 121.562539 119.761128 
L 122.4707 93.452674 
L 122.77342 97.241823 
L 123.07614 116.032104 
L 123.378861 116.300688 
L 123.681581 106.370455 
L 123.984301 108.483603 
L 124.287022 117.537404 
L 124.589742 132.011549 
L 124.892462 135.543049 
L 125.195183 146.075756 
L 125.497903 147.92115 
L 125.800623 147.1029 
L 126.406064 161.511581 
L 126.708784 161.918568 
L 127.011504 146.073524 
L 127.616945 158.202123 
L 127.919665 158.698368 
L 128.222386 151.958877 
L 128.827826 147.531584 
L 129.130546 149.457757 
L 129.433267 170.509631 
L 129.735987 168.252222 
L 130.038707 147.514695 
L 130.341428 136.940762 
L 130.644148 141.833634 
L 130.946868 151.567055 
L 131.249589 150.003444 
L 131.552309 160.559293 
L 131.855029 160.842885 
L 132.157749 147.331261 
L 132.46047 156.044109 
L 133.368631 166.871194 
L 133.671351 174.916674 
L 133.974071 178.968794 
L 134.882232 159.155075 
L 135.184952 160.749154 
L 135.487673 163.184882 
L 135.790393 177.833307 
L 136.093113 174.96545 
L 136.395834 167.241719 
L 136.698554 177.676443 
L 137.606715 199.043134 
L 137.909435 206.051347 
L 138.212155 202.851639 
L 138.514876 185.0961 
L 139.423037 169.868108 
L 139.725757 172.894383 
L 140.331197 196.310094 
L 140.936638 177.83685 
L 141.239358 180.695501 
L 141.542079 178.851685 
L 141.844799 186.179934 
L 142.147519 187.771353 
L 142.45024 181.69332 
L 142.75296 171.117612 
L 143.05568 148.372259 
L 143.3584 138.524471 
L 143.661121 141.142585 
L 144.266561 171.089068 
L 144.569282 169.290662 
L 144.872002 166.024528 
L 145.477443 151.62525 
L 145.780163 151.478039 
L 146.082883 157.451361 
L 146.688324 186.545401 
L 146.991044 187.245717 
L 147.293764 175.80757 
L 147.596485 178.638177 
L 147.899205 175.594733 
L 148.201925 177.679426 
L 148.504645 194.637595 
L 148.807366 196.595543 
L 149.110086 180.277371 
L 149.412806 173.80641 
L 149.715527 173.880949 
L 150.623688 211.781794 
L 150.926408 214.137095 
L 151.229128 204.863544 
L 151.531848 207.261742 
L 151.834569 212.373628 
L 152.137289 213.234132 
L 152.440009 211.218356 
L 152.74273 216.195333 
L 153.04545 215.326295 
L 153.34817 207.247294 
L 153.650891 211.138632 
L 153.953611 209.91333 
L 154.256331 218.519227 
L 154.559051 217.465454 
L 154.861772 225.041305 
L 155.164492 226.48092 
L 155.467212 216.015689 
L 155.769933 215.862598 
L 156.072653 215.09754 
L 156.375373 213.461819 
L 156.678094 216.748443 
L 156.980814 226.532406 
L 157.283534 227.302759 
L 157.586254 224.247799 
L 157.888975 212.901773 
L 158.191695 210.016657 
L 158.494415 210.359643 
L 158.797136 212.004908 
L 159.099856 221.880026 
L 159.402576 225.993067 
L 159.705297 216.708538 
L 160.008017 213.42895 
L 160.310737 214.293559 
L 160.613457 220.974283 
L 160.916178 219.20751 
L 161.218898 222.91879 
L 161.521618 223.82466 
L 161.824339 215.623274 
L 162.127059 216.449378 
L 162.429779 215.414432 
L 163.03522 220.360367 
L 163.33794 227.464264 
L 163.64066 226.633525 
L 163.943381 212.705773 
L 164.246101 212.025144 
L 164.548821 213.048661 
L 164.851542 212.1061 
L 165.154262 216.07692 
L 165.456982 221.749368 
L 165.759702 221.155486 
L 166.062423 211.398258 
L 166.365143 211.243354 
L 166.667863 210.665519 
L 166.970584 211.520477 
L 167.273304 214.723083 
L 167.576024 225.009635 
L 167.878745 224.698342 
L 168.181465 212.626181 
L 168.484185 211.489826 
L 168.786905 211.645995 
L 169.089626 208.26273 
L 169.392346 209.848335 
L 169.695066 218.569934 
L 169.997787 221.49486 
L 170.300507 211.786856 
L 170.905948 215.934478 
L 171.208668 215.055663 
L 171.511388 218.263007 
L 171.814108 227.851075 
L 172.116829 226.801379 
L 172.419549 213.148436 
L 172.722269 211.816734 
L 173.02499 211.903701 
L 173.32771 213.494198 
L 173.63043 217.896201 
L 173.93315 226.801496 
L 174.235871 228.999908 
L 174.538591 219.278038 
L 174.841311 219.185897 
L 175.144032 218.564937 
L 175.749472 222.667653 
L 176.052193 227.076756 
L 176.354913 225.357626 
L 176.657633 217.817536 
L 176.960353 217.720546 
L 177.263074 218.838503 
L 177.565794 213.850166 
L 177.868514 213.348092 
L 178.171235 221.152025 
L 178.473955 222.204571 
L 178.776675 218.199394 
L 179.079396 221.031002 
L 179.382116 218.317771 
L 179.684836 219.078904 
L 179.987556 220.699893 
L 180.290277 225.273563 
L 180.592997 223.217958 
L 180.895717 213.40958 
L 181.198438 212.470498 
L 181.501158 214.214832 
L 181.803878 214.818516 
L 182.106599 217.709474 
L 182.409319 226.538895 
L 182.712039 226.306814 
L 183.014759 215.616772 
L 183.31748 216.421738 
L 183.6202 216.752953 
L 183.92292 212.653711 
L 184.225641 211.01958 
L 184.528361 216.364632 
L 184.831081 214.044038 
L 185.133801 204.664493 
L 185.739242 211.514664 
L 186.041962 208.916488 
L 186.344683 211.14295 
L 186.647403 215.805381 
L 186.950123 214.563214 
L 187.252844 205.430813 
L 187.555564 203.261533 
L 187.858284 205.035213 
L 188.161004 198.976312 
L 188.463725 195.706472 
L 188.766445 200.586167 
L 189.069165 198.279641 
L 189.371886 183.491942 
L 189.674606 182.271449 
L 190.280047 188.23406 
L 190.582767 192.59496 
L 190.885487 203.36405 
L 191.188207 203.749479 
L 191.490928 191.874679 
L 191.793648 191.935632 
L 192.096368 193.657505 
L 192.399089 196.105656 
L 193.004529 210.401995 
L 193.30725 208.70286 
L 193.91269 202.051783 
L 194.21541 191.047486 
L 194.518131 188.91008 
L 194.820851 184.388582 
L 195.123571 192.017236 
L 195.426292 190.799649 
L 195.729012 175.932039 
L 196.334453 190.388076 
L 196.939893 194.016044 
L 197.242613 205.63829 
L 197.545334 206.971731 
L 197.848054 199.71415 
L 198.150774 196.852665 
L 198.453495 192.199244 
L 198.756215 192.460227 
L 199.058935 194.640228 
L 199.361655 201.892368 
L 199.664376 195.59708 
L 199.967096 177.942497 
L 200.269816 181.686713 
L 200.572537 188.201404 
L 200.875257 186.588359 
L 201.177977 186.066287 
L 201.480698 187.328054 
L 201.783418 185.844996 
L 202.086138 167.105975 
L 202.388858 167.211328 
L 202.691579 169.543995 
L 202.994299 168.185464 
L 203.297019 165.191318 
L 203.59974 181.67739 
L 203.90246 173.71491 
L 204.20518 147.496971 
L 204.507901 142.518331 
L 204.810621 139.503386 
L 205.113341 144.460742 
L 205.718782 159.398994 
L 206.021502 151.665891 
L 206.324222 133.024556 
L 206.626943 132.696632 
L 206.929663 132.798847 
L 207.232383 135.696554 
L 207.535104 140.419478 
L 207.837824 151.95511 
L 208.140544 150.964598 
L 208.443264 133.627309 
L 208.745985 142.164366 
L 209.351425 163.522892 
L 209.654146 162.363569 
L 209.956866 159.825786 
L 210.259586 151.293644 
L 210.562306 135.090475 
L 210.865027 130.525332 
L 211.167747 116.368499 
L 211.470467 110.690245 
L 211.773188 107.881921 
L 212.075908 117.058505 
L 212.378628 120.778554 
L 212.681349 117.974065 
L 213.286789 130.714027 
L 213.589509 134.135675 
L 213.89223 129.239439 
L 214.19495 129.346952 
L 214.49767 126.167786 
L 214.800391 115.98496 
L 215.103111 115.153179 
L 215.405831 119.639193 
L 215.708552 121.949141 
L 216.011272 117.94363 
L 216.313992 128.355728 
L 216.616712 126.386352 
L 216.919433 108.50711 
L 217.222153 109.214965 
L 217.524873 118.006819 
L 218.433034 164.505881 
L 218.735755 172.621691 
L 219.341195 162.66551 
L 219.643915 147.231476 
L 219.946636 138.396425 
L 220.249356 134.689894 
L 220.854797 171.905988 
L 221.157517 167.812554 
L 221.460237 151.686826 
L 221.762958 152.027894 
L 222.065678 150.937046 
L 222.671118 155.54999 
L 222.973839 143.946918 
L 223.276559 125.349749 
L 223.882 128.145428 
L 224.18472 123.483353 
L 224.48744 126.622748 
L 224.79016 134.740705 
L 225.395601 119.733274 
L 225.698321 124.953521 
L 226.001042 119.877233 
L 226.303762 126.050879 
L 226.606482 119.861252 
L 226.909203 127.955803 
L 227.211923 125.394313 
L 227.514643 118.992277 
L 227.817363 131.731686 
L 228.120084 151.794694 
L 228.422804 152.391131 
L 228.725524 148.917789 
L 229.330965 162.120017 
L 229.633685 155.276729 
L 229.936406 142.495349 
L 230.239126 146.728033 
L 230.541846 134.338427 
L 230.844566 128.768584 
L 231.147287 128.821804 
L 231.450007 120.520253 
L 231.752727 97.633039 
L 232.055448 90.092988 
L 232.358168 88.148916 
L 232.660888 87.494344 
L 232.963609 96.917993 
L 233.266329 115.182332 
L 233.569049 121.920375 
L 233.871769 110.453251 
L 234.17449 105.634199 
L 234.47721 103.674889 
L 234.77993 108.454059 
L 235.385371 122.999201 
L 235.688091 122.397055 
L 235.990811 104.167956 
L 236.293532 101.605341 
L 237.201693 98.369069 
L 237.504413 107.071138 
L 237.807133 96.754732 
L 238.109854 76.709166 
L 238.412574 70.786968 
L 238.715294 67.766184 
L 239.018014 70.786153 
L 239.320735 76.510733 
L 239.926175 116.091261 
L 240.531616 122.319249 
L 241.439777 142.449316 
L 241.742497 164.760291 
L 242.045217 176.094751 
L 243.861539 127.680007 
L 244.46698 94.876176 
L 244.7697 98.005352 
L 245.375141 112.931963 
L 245.677861 125.850738 
L 245.980581 150.520585 
L 246.283302 152.163974 
L 246.586022 138.051521 
L 247.191463 145.433065 
L 247.494183 147.103329 
L 247.796903 161.933575 
L 248.099623 161.032578 
L 248.402344 159.019566 
L 248.705064 164.075429 
L 249.310505 180.552237 
L 249.613225 172.767625 
L 249.915945 171.646342 
L 250.218665 189.837878 
L 250.521386 197.367296 
L 250.824106 195.431594 
L 251.126826 196.877175 
L 251.429547 194.424694 
L 251.732267 198.288692 
L 252.034987 195.192075 
L 252.337708 204.737736 
L 252.640428 204.938885 
L 252.943148 195.653138 
L 253.245868 198.040842 
L 254.45675 220.477148 
L 254.75947 221.48744 
L 255.06219 210.282209 
L 255.667631 202.384556 
L 255.970351 191.718429 
L 256.273071 194.30343 
L 256.878512 212.708659 
L 257.483953 202.728046 
L 257.786673 193.038554 
L 258.089393 191.66338 
L 258.392114 195.412842 
L 258.694834 208.718506 
L 258.997554 214.451674 
L 259.300274 210.832514 
L 259.602995 213.769391 
L 259.905715 215.56358 
L 260.208435 219.788933 
L 260.511156 214.114605 
L 260.813876 221.362696 
L 261.116596 221.827876 
L 261.419316 214.510649 
L 262.024757 208.723712 
L 262.630198 204.897139 
L 263.235638 219.053091 
L 263.538359 221.218614 
L 263.841079 214.404609 
L 264.143799 214.91736 
L 264.446519 215.160704 
L 264.74924 217.520278 
L 265.05196 225.605902 
L 265.35468 226.507108 
L 265.657401 220.486982 
L 266.262841 219.599044 
L 266.565562 225.252774 
L 266.868282 222.15002 
L 267.171002 226.01878 
L 267.473722 225.734374 
L 267.776443 217.991676 
L 268.079163 215.31191 
L 268.381883 217.388481 
L 268.684604 216.808 
L 268.987324 218.506113 
L 269.290044 227.083325 
L 269.592765 227.623599 
L 269.895485 217.59587 
L 270.500925 210.538937 
L 270.803646 211.55332 
L 271.106366 213.853609 
L 271.409086 222.900546 
L 271.711807 222.861559 
L 272.014527 214.757016 
L 272.317247 214.919402 
L 272.619968 216.947275 
L 273.225408 210.076639 
L 273.528128 215.305007 
L 273.830849 213.652217 
L 274.133569 207.555222 
L 274.436289 209.682588 
L 274.73901 213.709877 
L 275.04173 214.864212 
L 275.34445 218.795957 
L 275.64717 225.342669 
L 275.949891 224.001758 
L 276.252611 217.109059 
L 276.555331 216.519999 
L 276.858052 216.381025 
L 277.160772 217.317579 
L 277.463492 219.016976 
L 277.766213 226.079346 
L 278.068933 224.870083 
L 278.371653 215.958661 
L 278.674373 212.527032 
L 278.977094 211.560946 
L 279.279814 213.369297 
L 279.582534 216.512507 
L 279.885255 224.602738 
L 280.187975 225.165667 
L 280.490695 217.61985 
L 280.793416 218.160508 
L 281.096136 218.468817 
L 281.398856 217.528037 
L 281.701576 219.277698 
L 282.004297 225.14394 
L 282.307017 226.383446 
L 282.609737 217.920332 
L 282.912458 217.870598 
L 283.215178 218.847384 
L 283.517898 220.227259 
L 283.820619 223.41366 
L 284.123339 229.870823 
L 284.426059 229.394479 
L 284.728779 220.709655 
L 285.0315 220.638581 
L 285.33422 219.03789 
L 285.63694 219.261861 
L 285.939661 221.553163 
L 286.242381 228.631637 
L 286.545101 228.135585 
L 286.847821 219.469273 
L 287.150542 220.662338 
L 287.453262 220.032127 
L 288.058703 221.377556 
L 288.361423 226.372854 
L 288.664143 225.646178 
L 288.966864 217.920668 
L 289.269584 217.395378 
L 289.572304 218.132365 
L 289.875024 218.185154 
L 290.177745 218.628659 
L 290.480465 225.618122 
L 290.783185 225.519045 
L 291.085906 215.76848 
L 291.388626 213.930445 
L 291.994067 215.615092 
L 292.296787 217.437735 
L 292.599507 220.706176 
L 292.902227 219.030433 
L 293.204948 212.178977 
L 293.507668 208.472159 
L 293.810388 211.262283 
L 294.113109 210.108124 
L 294.415829 208.243216 
L 294.718549 218.125374 
L 295.02127 219.52181 
L 295.32399 210.727816 
L 295.92943 212.416273 
L 296.232151 212.395417 
L 296.534871 213.927717 
L 296.837591 220.663482 
L 297.140312 221.425088 
L 297.443032 214.418368 
L 297.745752 215.422428 
L 298.048473 213.795874 
L 298.351193 208.447637 
L 298.653913 210.628605 
L 298.956633 218.023103 
L 299.259354 218.738769 
L 299.562074 211.617959 
L 299.864794 216.236446 
L 300.167515 216.552282 
L 300.470235 217.719099 
L 300.772955 217.930425 
L 301.075675 218.850747 
L 301.378396 212.744324 
L 301.681116 193.834628 
L 301.983836 185.255698 
L 302.286557 186.984004 
L 302.589277 194.570422 
L 302.891997 192.958097 
L 303.194718 195.43923 
L 303.497438 194.723495 
L 303.800158 180.196398 
L 304.102878 179.147904 
L 304.405599 190.01103 
L 304.708319 182.905103 
L 305.011039 192.203258 
L 305.31376 206.474985 
L 305.61648 202.487956 
L 305.9192 188.218827 
L 306.221921 186.877818 
L 306.827361 200.175661 
L 307.130081 205.571166 
L 307.432802 216.316117 
L 307.735522 215.616443 
L 308.038242 201.089645 
L 308.340963 197.149606 
L 308.643683 195.53578 
L 308.946403 192.099942 
L 309.249124 186.599811 
L 309.551844 192.039712 
L 309.854564 189.215488 
L 310.157284 173.972951 
L 310.460005 174.212404 
L 311.065445 178.602793 
L 311.368166 177.262609 
L 311.973606 163.205581 
L 312.276326 149.180253 
L 312.579047 155.199902 
L 312.881767 158.358411 
L 313.184487 166.866652 
L 313.487208 163.183691 
L 314.092648 172.084711 
L 314.395369 163.98979 
L 314.698089 168.473109 
L 315.000809 169.871058 
L 315.303529 167.38245 
L 315.60625 170.106905 
L 315.90897 185.4749 
L 316.21169 187.825753 
L 316.514411 179.004004 
L 316.817131 174.088551 
L 317.422572 148.889596 
L 317.725292 147.204883 
L 318.028012 147.3379 
L 318.330732 139.634958 
L 318.633453 125.779718 
L 319.238893 112.37268 
L 319.541614 110.350717 
L 319.844334 114.945366 
L 320.147054 133.174187 
L 320.449775 137.629361 
L 320.752495 118.851924 
L 321.055215 113.595912 
L 321.357935 117.659263 
L 321.660656 128.125052 
L 321.963376 134.364472 
L 322.568817 165.144851 
L 322.871537 164.374043 
L 323.476978 138.189016 
L 324.082418 160.361455 
L 324.385138 166.872607 
L 324.687859 164.541159 
L 324.990579 139.212558 
L 325.59602 112.031716 
L 325.89874 104.737935 
L 326.20146 100.588411 
L 326.50418 110.071211 
L 326.806901 111.763409 
L 327.109621 108.651344 
L 327.715062 121.684358 
L 328.623223 165.895724 
L 328.925943 167.151645 
L 329.531383 149.740656 
L 330.136824 132.102268 
L 330.439544 132.036177 
L 331.044985 150.474988 
L 331.347705 156.915329 
L 331.650426 157.154183 
L 331.953146 132.478766 
L 332.255866 117.177952 
L 332.558586 121.810623 
L 332.861307 137.919151 
L 333.164027 138.674564 
L 333.466747 130.380697 
L 333.769468 131.738952 
L 334.374908 103.414642 
L 334.677629 112.074687 
L 334.980349 134.821199 
L 335.283069 145.281484 
L 335.585789 123.737892 
L 335.88851 125.965948 
L 336.19123 127.186607 
L 336.49395 123.601047 
L 336.796671 107.906524 
L 337.099391 110.845789 
L 337.402111 101.1518 
L 337.704831 79.058941 
L 338.007552 78.884234 
L 338.612992 70.447564 
L 338.915713 80.004854 
L 339.218433 116.601715 
L 339.521153 127.587065 
L 339.823874 112.428174 
L 340.429314 97.767593 
L 340.732034 97.048778 
L 341.034755 101.855818 
L 341.337475 117.312234 
L 341.640195 115.936609 
L 341.942916 105.378923 
L 342.245636 103.177545 
L 342.548356 110.26013 
L 342.851077 120.291981 
L 343.456517 153.575492 
L 343.759237 154.363033 
L 344.061958 132.157783 
L 344.364678 123.521422 
L 344.667398 124.661581 
L 344.970119 126.349117 
L 345.272839 136.26449 
L 345.575559 152.325885 
L 345.87828 156.096363 
L 346.181 146.684188 
L 346.48372 147.025051 
L 346.78644 146.182811 
L 347.089161 150.293016 
L 347.391881 149.64972 
L 347.694601 149.663263 
L 347.997322 146.957131 
L 348.300042 141.562105 
L 349.208203 160.027254 
L 349.510923 155.83442 
L 350.116364 174.37772 
L 350.721804 153.789675 
L 351.024525 161.884239 
L 351.327245 163.765759 
L 351.629965 160.471653 
L 351.932685 171.208609 
L 352.235406 163.688951 
L 352.538126 138.875158 
L 352.840846 142.352608 
L 353.143567 141.602836 
L 353.446287 142.582392 
L 354.051728 168.673468 
L 354.354448 167.910815 
L 354.657168 145.883966 
L 354.959888 138.31643 
L 355.262609 143.948949 
L 355.868049 166.969569 
L 356.17077 180.072668 
L 356.47349 175.501646 
L 356.77621 154.739083 
L 357.078931 148.124253 
L 357.381651 149.344596 
L 357.684371 156.349324 
L 357.987091 168.398628 
L 358.289812 188.760028 
L 358.592532 180.90599 
L 358.895252 169.192453 
L 359.197973 174.467791 
L 359.803413 160.265328 
L 360.106134 162.85316 
L 360.408854 186.772828 
L 360.711574 191.111197 
L 361.619735 166.463495 
L 362.225176 144.111753 
L 362.527896 148.603489 
L 362.830616 149.665763 
L 363.133336 154.50676 
L 363.738777 176.578255 
L 364.344218 207.48177 
L 364.949658 215.401124 
L 365.252379 215.430575 
L 365.555099 206.099207 
L 365.857819 207.490616 
L 366.160539 205.68495 
L 366.46326 199.642102 
L 366.76598 200.209589 
L 367.371421 176.226999 
L 367.674141 183.094161 
L 367.976861 196.551224 
L 368.582302 179.038957 
L 369.187742 171.854562 
L 369.490463 158.399312 
L 369.793183 161.814654 
L 370.398624 180.641785 
L 370.701344 184.427607 
L 371.004064 191.761834 
L 371.306785 188.309567 
L 371.609505 176.153766 
L 371.912225 173.987947 
L 372.214945 175.192679 
L 372.517666 175.649107 
L 373.425827 210.876336 
L 373.728547 201.705002 
L 374.031267 199.989446 
L 374.333988 196.60836 
L 374.636708 197.658165 
L 375.544869 214.250159 
L 375.847589 203.811632 
L 376.150309 197.471242 
L 376.45303 195.853989 
L 376.75575 211.113784 
L 377.05847 211.774617 
L 377.36119 221.242448 
L 377.663911 225.36786 
L 377.966631 214.427387 
L 378.572072 217.194148 
L 378.874792 211.105493 
L 379.177512 215.588289 
L 379.480233 222.795969 
L 379.782953 223.985541 
L 380.085673 221.261104 
L 380.388393 209.704923 
L 380.691114 208.714967 
L 380.993834 209.272044 
L 381.296554 212.716698 
L 381.599275 222.551438 
L 381.901995 220.755101 
L 382.204715 212.585782 
L 383.112876 217.282699 
L 383.415596 215.726657 
L 383.718317 223.065758 
L 384.021037 225.527969 
L 384.323757 216.557938 
L 384.626478 215.367727 
L 384.929198 216.93838 
L 385.231918 215.214591 
L 385.534639 215.440547 
L 385.837359 226.34797 
L 386.140079 228.488562 
L 386.442799 216.298971 
L 386.74552 212.782993 
L 387.04824 211.702585 
L 387.653681 214.137169 
L 387.956401 225.200811 
L 388.259121 222.034368 
L 388.561841 207.375292 
L 388.864562 205.032971 
L 389.167282 205.562868 
L 389.470002 205.618884 
L 389.772723 210.719146 
L 390.075443 221.160316 
L 390.378163 220.303667 
L 390.680884 208.489114 
L 390.983604 207.95518 
L 391.286324 207.662805 
L 391.589044 209.11193 
L 391.891765 212.786811 
L 392.194485 224.850358 
L 392.497205 224.037344 
L 392.799926 214.093569 
L 393.102646 214.695609 
L 393.405366 214.686272 
L 393.708087 216.911829 
L 394.010807 220.5177 
L 394.313527 228.722735 
L 394.616247 227.273011 
L 394.918968 215.678334 
L 395.221688 215.288035 
L 395.827129 213.551939 
L 396.129849 215.677466 
L 396.432569 222.926796 
L 396.73529 224.507949 
L 397.03801 215.028427 
L 397.34073 215.641685 
L 397.64345 214.391826 
L 398.248891 218.287726 
L 398.551611 229.612173 
L 398.854332 228.518853 
L 399.157052 212.835039 
L 399.459772 209.952092 
L 399.762493 209.590129 
L 400.065213 213.889484 
L 400.367933 215.285061 
L 400.670653 224.97123 
L 400.973374 225.769832 
L 401.276094 213.605959 
L 401.578814 209.130996 
L 401.881535 208.704016 
L 402.184255 211.364015 
L 402.486975 215.052087 
L 402.789695 226.446584 
L 403.092416 226.500721 
L 403.395136 214.814334 
L 403.697856 214.140843 
L 404.000577 214.669688 
L 404.303297 213.910415 
L 404.606017 216.415354 
L 404.908738 227.702852 
L 405.211458 224.968223 
L 405.514178 210.709338 
L 405.816898 208.250812 
L 406.119619 209.327419 
L 406.422339 205.916209 
L 406.725059 205.19292 
L 407.02778 210.713579 
L 407.3305 207.765244 
L 407.63322 194.880373 
L 407.935941 196.973556 
L 408.541381 204.528922 
L 408.844101 206.338253 
L 409.146822 214.827511 
L 409.449542 217.876382 
L 409.752262 201.841736 
L 410.054983 200.435609 
L 410.660423 184.284679 
L 410.963144 185.801223 
L 411.265864 202.576158 
L 411.568584 209.027916 
L 411.871304 196.451726 
L 412.174025 197.181527 
L 412.476745 194.722848 
L 412.779465 197.347949 
L 413.082186 202.561914 
L 413.384906 214.117489 
L 413.687626 214.049926 
L 413.990346 199.121682 
L 414.595787 187.776286 
L 414.898507 186.360006 
L 415.201228 179.838362 
L 415.503948 183.479659 
L 415.806668 178.012453 
L 416.109389 164.985112 
L 416.412109 173.82592 
L 417.017549 178.803264 
L 417.92571 208.848252 
L 418.228431 196.091877 
L 418.531151 194.1836 
L 418.833871 189.630561 
L 419.136592 187.937769 
L 419.742032 195.11432 
L 420.044752 195.275485 
L 420.347473 184.711854 
L 420.650193 181.200074 
L 420.952913 181.369217 
L 421.558354 189.252811 
L 421.861074 201.356449 
L 422.163795 194.051199 
L 422.466515 165.593948 
L 423.071955 142.774951 
L 423.374676 140.243655 
L 423.677396 151.785678 
L 423.980116 177.800969 
L 424.282837 180.282079 
L 424.585557 168.206632 
L 424.888277 163.027236 
L 425.190998 154.234389 
L 425.493718 152.478864 
L 425.796438 147.872369 
L 426.099158 154.409262 
L 426.401879 146.901866 
L 426.704599 131.79889 
L 427.007319 130.005156 
L 427.31004 125.244712 
L 427.61276 128.13191 
L 428.2182 144.390625 
L 428.520921 142.209548 
L 428.823641 132.08479 
L 429.429082 121.615261 
L 429.731802 124.540354 
L 430.034522 132.678055 
L 430.337243 151.289758 
L 430.639963 149.196426 
L 430.942683 133.893093 
L 431.850844 158.985374 
L 432.153564 148.220643 
L 432.456285 142.52778 
L 432.759005 130.786527 
L 433.061725 112.200575 
L 433.667166 111.669342 
L 433.969886 108.079052 
L 434.272606 124.348889 
L 434.575327 148.205826 
L 434.878047 158.080774 
L 435.483488 129.016405 
L 435.786208 120.346413 
L 436.088928 118.157871 
L 436.391649 121.950111 
L 436.694369 140.595636 
L 436.997089 150.962095 
L 437.299809 140.862976 
L 437.60253 154.738254 
L 437.90525 149.81447 
L 438.510691 160.097723 
L 438.813411 162.328702 
L 439.116131 161.454819 
L 439.418851 158.903287 
L 439.721572 163.406675 
L 440.024292 161.51325 
L 440.327012 154.68218 
L 440.932453 132.094161 
L 441.235173 127.513558 
L 441.537894 127.02951 
L 441.840614 131.930115 
L 442.143334 129.837867 
L 442.446054 119.281392 
L 442.748775 134.262738 
L 443.051495 138.119531 
L 443.354215 138.844208 
L 443.656936 124.53195 
L 443.959656 123.747691 
L 444.262376 131.366676 
L 444.565097 147.908397 
L 444.867817 147.5321 
L 445.170537 146.878627 
L 445.473257 143.893178 
L 445.775978 131.413632 
L 446.078698 144.036943 
L 446.381418 150.325041 
L 446.684139 144.105556 
L 446.986859 145.026494 
L 447.289579 143.689349 
L 447.5923 132.355295 
L 447.89502 109.631784 
L 448.19774 102.468652 
L 448.50046 99.828437 
L 448.803181 99.322227 
L 449.105901 100.744288 
L 449.408621 116.694508 
L 449.711342 123.760635 
L 450.014062 122.504001 
L 450.316782 124.817996 
L 450.619502 124.077484 
L 450.922223 137.59487 
L 451.527663 173.398832 
L 451.830384 169.038912 
L 452.133104 157.831567 
L 452.738545 124.473984 
L 453.041265 115.809379 
L 453.343985 119.664636 
L 453.949426 157.947784 
L 454.554866 138.451898 
L 455.160307 121.453068 
L 455.463027 129.10301 
L 455.765748 155.71732 
L 456.068468 172.515704 
L 456.371188 157.530106 
L 456.673908 149.851785 
L 456.976629 137.362113 
L 457.582069 141.787727 
L 457.88479 161.661985 
L 458.18751 162.935509 
L 458.49023 151.631448 
L 458.792951 147.871968 
L 459.095671 127.985364 
L 459.398391 118.924185 
L 459.701111 126.73635 
L 460.003832 152.956269 
L 460.306552 154.959055 
L 460.609272 138.303676 
L 460.911993 130.183188 
L 461.214713 127.30657 
L 461.517433 131.038544 
L 461.820154 132.794953 
L 462.425594 153.790141 
L 462.728314 142.276309 
L 463.031035 150.671202 
L 463.333755 164.121215 
L 463.636475 163.000825 
L 463.939196 153.709705 
L 464.241916 156.720089 
L 464.544636 164.14907 
L 464.847356 157.769249 
L 465.150077 163.763226 
L 465.452797 172.746544 
L 465.755517 170.494731 
L 466.058238 170.726675 
L 466.360958 164.078548 
L 466.663678 150.893012 
L 466.966399 131.407759 
L 467.269119 131.442893 
L 467.571839 133.641144 
L 467.874559 140.881908 
L 468.48 176.25563 
L 469.085441 137.031336 
L 469.388161 130.478561 
L 469.690881 134.167345 
L 470.599042 166.915382 
L 470.901762 182.39727 
L 472.112644 201.055925 
L 472.415364 203.892261 
L 472.718084 205.504674 
L 473.020805 211.88087 
L 473.323525 197.430216 
L 473.626245 172.571943 
L 473.928965 174.458314 
L 474.534406 189.891095 
L 474.837126 203.755939 
L 475.139847 202.440701 
L 475.442567 193.015679 
L 476.048007 195.837124 
L 476.350728 194.99151 
L 476.653448 203.278848 
L 476.956168 203.36477 
L 477.258889 200.372833 
L 477.561609 195.162887 
L 477.864329 195.971572 
L 478.16705 195.089316 
L 478.46977 197.537899 
L 478.77249 202.669812 
L 479.07521 198.081751 
L 479.377931 196.502141 
L 479.680651 184.412978 
L 479.983371 180.855804 
L 480.286092 181.574078 
L 480.588812 185.334242 
L 481.194253 211.732741 
L 481.496973 216.575573 
L 481.799693 190.286089 
L 482.102413 178.355692 
L 482.405134 171.639618 
L 482.707854 172.158994 
L 483.010574 179.228156 
L 483.313295 195.351338 
L 483.616015 201.729855 
L 483.918735 200.819959 
L 484.221456 201.591138 
L 484.524176 203.512567 
L 484.826896 218.396817 
L 485.129616 219.12298 
L 485.432337 218.927954 
L 485.735057 215.833958 
L 486.037777 200.080022 
L 486.340498 197.624681 
L 486.643218 202.375034 
L 486.945938 202.378919 
L 487.248659 206.04257 
L 487.551379 217.449754 
L 488.156819 221.809929 
L 488.45954 210.1318 
L 488.76226 209.73243 
L 489.367701 204.612682 
L 489.670421 211.775247 
L 489.973141 208.553336 
L 490.275861 194.784981 
L 490.578582 195.804728 
L 490.881302 199.159381 
L 491.486743 216.296755 
L 491.789463 224.386615 
L 492.092183 221.123917 
L 492.394904 207.53221 
L 492.697624 205.308559 
L 493.000344 206.154248 
L 493.303064 205.448222 
L 493.605785 208.464242 
L 493.908505 219.487332 
L 494.211225 220.130542 
L 494.513946 208.422601 
L 494.816666 207.81652 
L 495.422107 209.732441 
L 495.724827 214.249615 
L 496.027547 224.49077 
L 496.330267 223.999527 
L 496.632988 212.258223 
L 496.935708 212.213984 
L 497.541149 206.72147 
L 497.843869 212.164846 
L 498.146589 225.933811 
L 498.44931 226.5041 
L 498.75203 212.733993 
L 499.05475 206.113243 
L 499.35747 203.611505 
L 499.962911 208.213157 
L 500.265631 213.260959 
L 500.568352 214.72622 
L 500.871072 207.199451 
L 501.173792 206.671119 
L 501.779233 204.625785 
L 502.081953 208.594876 
L 502.384673 217.74028 
L 502.687394 220.549711 
L 502.990114 211.422276 
L 503.595555 207.93642 
L 503.898275 209.679116 
L 504.200995 213.296105 
L 504.503715 220.82026 
L 504.806436 222.713384 
L 505.109156 214.577255 
L 505.411876 215.643381 
L 506.017317 211.738927 
L 506.320037 216.728756 
L 506.622758 223.991855 
L 506.925478 221.493535 
L 507.228198 211.722372 
L 507.530918 209.874883 
L 507.833639 212.079799 
L 508.136359 212.448156 
L 508.439079 215.65456 
L 508.7418 223.397999 
L 509.04452 224.429925 
L 509.34724 216.680392 
L 509.952681 216.551319 
L 510.255401 216.200738 
L 510.558121 216.455138 
L 510.860842 221.644899 
L 511.163562 222.964762 
L 511.466282 213.565769 
L 511.769003 211.907997 
L 512.071723 211.996856 
L 512.374443 213.647741 
L 512.677164 219.014483 
L 512.979884 227.889229 
L 513.282604 224.196985 
L 513.585324 210.15348 
L 513.888045 211.974881 
L 514.190765 216.854132 
L 514.493485 208.739994 
L 514.796206 211.123138 
L 515.098926 217.140676 
L 515.401646 215.036159 
L 515.704366 204.893689 
L 516.007087 201.423064 
L 516.309807 201.256175 
L 516.612527 204.081397 
L 516.915248 209.691404 
L 517.217968 220.02807 
L 517.520688 214.650712 
L 517.823409 203.339301 
L 518.126129 205.65836 
L 518.428849 206.871185 
L 518.731569 203.982524 
L 519.03429 207.463429 
L 519.33701 218.683287 
L 519.63973 218.520394 
L 519.942451 210.421556 
L 520.245171 209.720975 
L 520.547891 211.229889 
L 521.153332 205.275209 
L 521.456052 211.180338 
L 521.758772 210.767557 
L 522.061493 201.767894 
L 522.364213 202.813584 
L 522.666933 205.221493 
L 522.969654 205.941895 
L 523.272374 199.594221 
L 523.575094 201.276633 
L 523.877815 195.320872 
L 524.180535 181.841036 
L 524.483255 182.461277 
L 524.785975 188.190356 
L 525.088696 187.031228 
L 525.694136 205.263433 
L 525.996857 202.475967 
L 526.299577 183.94184 
L 526.602297 184.987093 
L 526.905017 181.38551 
L 527.207738 185.280319 
L 527.510458 184.014774 
L 527.813178 189.201893 
L 528.115899 180.781221 
L 528.418619 160.165266 
L 528.721339 157.391036 
L 529.02406 159.821989 
L 529.32678 154.997899 
L 529.6295 156.894399 
L 529.93222 167.445506 
L 530.234941 170.114608 
L 530.537661 155.808914 
L 531.445822 186.398231 
L 531.748542 185.302037 
L 532.051263 195.743206 
L 532.353983 195.621176 
L 532.656703 173.400977 
L 532.959423 170.764367 
L 533.262144 172.594031 
L 533.564864 171.559947 
L 534.473025 196.122923 
L 534.775745 194.937709 
L 535.381186 162.459841 
L 535.683906 151.448469 
L 535.986626 148.758487 
L 536.289347 159.908526 
L 536.592067 162.379615 
L 536.894787 147.948052 
L 537.197508 142.751883 
L 537.802948 152.490557 
L 538.105669 158.669186 
L 538.408389 177.048419 
L 538.711109 183.243609 
L 539.013829 167.453987 
L 539.31655 164.204394 
L 539.61927 164.957094 
L 539.92199 158.867592 
L 540.224711 136.453289 
L 540.527431 147.33206 
L 540.830151 148.79199 
L 541.132871 130.810857 
L 541.435592 127.013245 
L 541.738312 121.202094 
L 542.041032 119.466451 
L 542.343753 119.733181 
L 542.646473 126.857115 
L 542.949193 116.599502 
L 543.251914 99.83536 
L 543.554634 103.00453 
L 543.857354 97.777482 
L 544.462795 109.741536 
L 544.765515 119.722813 
L 545.068235 121.562123 
L 545.370956 111.455504 
L 546.279117 98.374348 
L 546.581837 104.505193 
L 546.884557 123.218068 
L 547.187277 131.507996 
L 547.489998 127.875847 
L 548.095438 138.039176 
L 548.398159 138.71794 
L 548.700879 140.177284 
L 549.003599 150.578215 
L 549.30632 149.287277 
L 549.60904 146.474766 
L 549.91176 161.984859 
L 550.21448 165.353276 
L 550.517201 165.235137 
L 550.819921 146.507062 
L 551.122641 139.837963 
L 551.425362 137.133558 
L 551.728082 125.544109 
L 552.030802 123.411096 
L 552.636243 128.34939 
L 552.938963 127.786092 
L 553.241683 123.051588 
L 553.544404 121.730414 
L 553.847124 104.442869 
L 554.149844 102.011347 
L 554.452565 101.568996 
L 554.755285 95.951342 
L 555.058005 96.126139 
L 555.360725 104.321548 
L 555.663446 104.148965 
L 555.966166 96.580683 
L 556.268886 104.205227 
L 556.571607 104.119858 
L 556.874327 90.387321 
L 557.177047 86.255634 
L 557.479768 95.123878 
L 557.782488 97.935296 
L 558.085208 98.322222 
L 558.993369 137.383391 
L 559.296089 132.760868 
L 559.59881 132.067106 
L 559.90153 119.111716 
L 560.20425 96.922536 
L 560.506971 97.383327 
L 560.809691 99.81761 
L 561.112411 108.437895 
L 561.415131 121.585429 
L 561.717852 120.498138 
L 562.020572 113.214082 
L 562.323292 97.876846 
L 562.928733 129.719721 
L 563.231453 128.532064 
L 563.836894 130.988488 
L 564.139614 111.43645 
L 564.442334 74.862844 
L 564.745055 60.205314 
L 565.047775 52.255556 
L 565.350495 50.322246 
L 565.653216 51.5924 
L 566.258656 73.394385 
L 566.561376 74.772057 
L 567.166817 119.615915 
L 567.469537 131.428553 
L 567.772258 138.896992 
L 568.074978 161.525779 
L 568.377698 163.604024 
L 568.680419 153.09962 
L 568.983139 165.408378 
L 569.285859 171.025851 
L 569.588579 169.414248 
L 569.8913 159.755145 
L 570.19402 157.418787 
L 570.49674 149.903254 
L 570.799461 130.253961 
L 571.102181 132.301516 
L 571.404901 138.929667 
L 571.707622 136.206079 
L 572.010342 123.387554 
L 572.313062 129.716514 
L 572.615782 126.218089 
L 572.918503 109.980834 
L 573.221223 110.661773 
L 573.826664 143.419264 
L 574.129384 148.537033 
L 574.432104 157.561518 
L 574.734825 149.857158 
L 575.037545 133.381055 
L 575.945706 112.820371 
L 576.248426 113.547553 
L 576.853867 130.856307 
L 577.156587 119.346364 
L 577.459307 126.387676 
L 578.367468 165.635797 
L 578.670188 170.0856 
L 578.972909 170.456795 
L 579.275629 169.963223 
L 579.578349 174.787001 
L 580.18379 187.762601 
L 580.48651 184.639277 
L 580.78923 175.233836 
L 581.091951 170.252074 
L 581.394671 153.470423 
L 581.697391 126.245827 
L 582.000112 122.213927 
L 582.302832 122.680998 
L 582.908273 156.270413 
L 583.210993 165.563893 
L 583.513713 136.871179 
L 583.816433 132.7688 
L 584.119154 124.563921 
L 584.421874 126.049317 
L 584.724594 134.744965 
L 585.027315 151.063082 
L 585.330035 157.73965 
L 585.632755 155.167662 
L 586.238196 169.785671 
L 586.540916 164.520238 
L 586.843636 164.801913 
L 587.146357 174.178141 
L 587.449077 171.017469 
L 587.751797 159.565749 
L 588.054518 162.861816 
L 588.357238 173.273051 
L 588.659958 175.008396 
L 588.962679 171.784833 
L 589.265399 184.391444 
L 589.870839 167.596404 
L 590.17356 171.268904 
L 590.779 158.519689 
L 591.081721 159.824828 
L 591.687161 204.276682 
L 592.292602 199.488607 
L 592.595322 196.988054 
L 592.898042 199.611211 
L 593.200763 193.585191 
L 593.503483 196.713782 
L 593.806203 196.353702 
L 594.108924 185.853701 
L 594.714364 181.660389 
L 595.017084 184.640022 
L 595.622525 202.035343 
L 595.925245 203.522083 
L 596.227966 202.517986 
L 596.530686 187.472501 
L 596.833406 186.16975 
L 597.136127 182.904136 
L 597.438847 188.649419 
L 597.741567 200.507757 
L 598.044287 205.321157 
L 598.347008 200.42851 
L 598.649728 205.120521 
L 599.255169 217.58368 
L 599.557889 216.846741 
L 599.860609 223.00582 
L 600.16333 221.22745 
L 600.46605 206.999063 
L 600.76877 207.119025 
L 601.374211 209.784497 
L 601.676931 215.55876 
L 601.979651 225.224145 
L 602.282372 222.912324 
L 602.585092 214.261421 
L 602.887812 210.780286 
L 603.493253 214.914736 
L 603.795973 217.783198 
L 604.098693 227.938404 
L 604.401414 228.152373 
L 605.006854 209.56426 
L 605.612295 206.360823 
L 605.915015 209.725407 
L 606.217735 222.819242 
L 606.520456 225.077145 
L 606.823176 213.656457 
L 607.731337 205.425666 
L 608.034057 209.834397 
L 608.336778 222.246311 
L 608.639498 222.834344 
L 608.942218 212.555678 
L 609.244938 216.648489 
L 609.547659 210.274612 
L 609.850379 208.429513 
L 610.153099 212.285036 
L 610.45582 222.754208 
L 610.75854 222.064965 
L 611.06126 213.301285 
L 611.363981 211.839006 
L 611.666701 211.940468 
L 611.969421 212.659595 
L 612.272141 217.177408 
L 612.574862 226.769211 
L 612.877582 226.662588 
L 613.180302 216.346081 
L 613.483023 213.969539 
L 613.785743 213.84512 
L 614.088463 214.365842 
L 614.391184 218.133317 
L 614.693904 227.797406 
L 614.996624 227.443265 
L 615.299344 218.014813 
L 615.602065 218.051629 
L 615.904785 220.5415 
L 616.207505 221.170585 
L 616.510226 222.801845 
L 616.812946 227.457544 
L 617.115666 225.182587 
L 617.418386 217.852896 
L 617.721107 214.96179 
L 618.023827 214.172726 
L 618.326547 215.971812 
L 618.931988 225.337718 
L 619.234708 225.376945 
L 619.537429 218.716922 
L 619.840149 217.114502 
L 620.142869 217.436181 
L 620.445589 219.070043 
L 621.05103 228.802983 
L 621.35375 228.848126 
L 621.656471 219.467286 
L 621.959191 215.987415 
L 622.564632 214.935886 
L 622.867352 217.208397 
L 623.170072 225.493155 
L 623.472792 224.970028 
L 623.775513 216.314161 
L 624.078233 213.388508 
L 624.380953 214.41985 
L 624.683674 211.405857 
L 624.986394 211.539769 
L 625.289114 218.1518 
L 625.591835 217.692343 
L 625.894555 210.300831 
L 626.499995 208.044601 
L 626.802716 209.710496 
L 627.105436 213.212435 
L 627.408156 221.3036 
L 627.710877 221.777032 
L 628.013597 211.946873 
L 628.316317 211.505886 
L 628.619037 213.396477 
L 628.921758 213.507495 
L 629.224478 215.59037 
L 629.527198 223.811355 
L 629.829919 223.827524 
L 630.132639 211.084299 
L 630.435359 211.224782 
L 630.73808 211.129659 
L 631.0408 209.49459 
L 631.34352 209.386134 
L 631.64624 218.710532 
L 631.948961 214.757665 
L 632.251681 197.987588 
L 632.554401 196.901174 
L 632.857122 197.746774 
L 634.068003 220.097952 
L 634.673443 204.831493 
L 634.976164 202.845993 
L 635.278884 196.263683 
L 635.581604 199.107654 
L 635.884325 210.605317 
L 636.187045 214.514675 
L 636.489765 200.053624 
L 636.792486 198.18299 
L 637.397926 183.770921 
L 637.700646 186.808106 
L 638.003367 193.363813 
L 638.306087 186.127866 
L 638.608807 175.759321 
L 639.214248 166.914017 
L 639.516968 174.37244 
L 640.122409 181.46847 
L 640.425129 181.593681 
L 640.727849 174.381364 
L 641.33329 194.203539 
L 641.938731 178.050622 
L 642.241451 176.530731 
L 642.544171 172.256048 
L 642.846891 160.363092 
L 643.452332 173.812733 
L 643.755052 173.949357 
L 644.057773 178.084898 
L 644.360493 184.136718 
L 644.663213 193.612906 
L 644.965934 182.204793 
L 645.268654 162.393667 
L 645.571374 152.631619 
L 645.874094 149.744701 
L 646.176815 152.935934 
L 646.479535 165.35417 
L 646.782255 166.644048 
L 647.084976 147.45132 
L 647.387696 146.843729 
L 647.690416 136.06392 
L 647.993137 134.929841 
L 648.295857 138.12279 
L 648.598577 152.890918 
L 648.901297 156.220325 
L 649.204018 137.176951 
L 649.506738 135.160072 
L 650.414899 158.240079 
L 650.717619 168.271364 
L 651.02034 158.988856 
L 651.32306 134.030186 
L 651.62578 125.07881 
L 651.9285 121.852655 
L 652.231221 117.056146 
L 652.533941 121.504653 
L 652.836661 127.646011 
L 653.139382 123.818415 
L 653.442102 108.644112 
L 654.047542 135.144737 
L 654.350263 116.619217 
L 654.652983 118.923262 
L 654.955703 131.605783 
L 655.258424 127.00407 
L 655.561144 108.283364 
L 655.863864 110.493234 
L 656.166585 110.574303 
L 656.469305 106.783388 
L 656.772025 108.316982 
L 657.377466 133.005582 
L 657.680186 129.341199 
L 657.982906 132.344014 
L 658.285627 138.559985 
L 658.588347 138.608002 
L 658.891067 141.222458 
L 659.193788 151.293492 
L 659.496508 149.958232 
L 659.799228 115.990549 
L 660.101948 100.187503 
L 660.404669 98.168935 
L 661.010109 139.614591 
L 661.31283 129.728033 
L 661.61555 127.481875 
L 661.91827 128.163675 
L 662.523711 152.401655 
L 662.826431 175.631245 
L 663.129151 187.543146 
L 663.431872 187.865799 
L 663.734592 183.339258 
L 664.945473 124.359938 
L 665.248194 121.266525 
L 665.550914 129.168953 
L 665.853634 127.345803 
L 666.156354 105.903973 
L 666.459075 101.701085 
L 666.761795 101.575302 
L 667.064515 108.134223 
L 667.367236 111.778652 
L 667.972676 129.835893 
L 668.275396 121.583584 
L 668.578117 116.582462 
L 668.880837 121.418449 
L 669.183557 114.881289 
L 669.486278 113.319082 
L 669.788998 127.041397 
L 670.091718 130.347408 
L 670.394439 113.684526 
L 670.697159 108.848792 
L 670.999879 110.650121 
L 671.302599 118.92312 
L 671.60532 123.136677 
L 671.90804 145.937919 
L 672.21076 143.737201 
L 672.513481 122.673032 
L 673.421642 133.104173 
L 674.027082 146.261993 
L 674.329802 146.329238 
L 674.632523 130.0691 
L 674.935243 138.484323 
L 675.237963 142.69011 
L 675.843404 129.149973 
L 676.448845 139.869318 
L 676.751565 138.712863 
L 677.054285 139.839918 
L 677.357005 151.739601 
L 677.659726 155.07548 
L 677.962446 155.822796 
L 678.567887 160.795662 
L 678.870607 142.490598 
L 679.173327 140.738164 
L 679.476047 140.071328 
L 679.778768 143.508425 
L 680.081488 136.332483 
L 680.384208 139.461203 
L 680.686929 136.96288 
L 680.989649 124.039908 
L 681.292369 118.205702 
L 681.59509 119.7201 
L 681.89781 123.813733 
L 682.20053 122.632476 
L 682.50325 131.821082 
L 682.805971 127.127745 
L 683.108691 113.728457 
L 684.622293 159.997849 
L 684.925013 164.460619 
L 685.227733 151.149036 
L 685.530453 148.645527 
L 685.833174 160.546672 
L 686.135894 155.479762 
L 686.438614 158.39722 
L 686.741335 167.133335 
L 687.044055 167.161832 
L 687.346775 157.697392 
L 687.649496 160.553497 
L 687.952216 165.798038 
L 688.254936 167.920709 
L 688.557656 175.018101 
L 688.860377 188.776487 
L 689.163097 185.738389 
L 690.676699 141.455406 
L 690.979419 140.563644 
L 691.584859 136.340919 
L 692.1903 166.39679 
L 692.49302 168.679373 
L 692.795741 162.760456 
L 693.098461 166.340826 
L 693.401181 160.424193 
L 693.703901 158.07698 
L 694.006622 176.678048 
L 694.612062 196.480896 
L 694.914783 199.528076 
L 695.217503 194.964655 
L 695.822944 191.158199 
L 696.125664 181.491556 
L 696.428384 180.836157 
L 696.731104 183.489981 
L 697.033825 191.382949 
L 697.336545 202.983175 
L 697.639265 197.338782 
L 697.941986 179.751828 
L 698.244706 177.172935 
L 698.547426 180.610518 
L 699.455587 198.407126 
L 699.758307 199.703886 
L 700.061028 192.085395 
L 700.363748 191.324036 
L 700.666468 192.162597 
L 700.969189 194.868713 
L 701.271909 200.93319 
L 701.574629 214.237642 
L 701.87735 212.345232 
L 702.18007 206.562135 
L 702.78551 216.490329 
L 703.088231 214.142613 
L 703.390951 215.328401 
L 703.693671 221.518611 
L 703.996392 222.66996 
L 704.299112 214.459893 
L 704.601832 211.905496 
L 704.904552 216.147256 
L 705.207273 217.058376 
L 705.812713 226.079602 
L 706.115434 222.678952 
L 706.418154 215.741339 
L 706.720874 211.903834 
L 707.023595 215.609462 
L 707.326315 222.210835 
L 707.629035 218.130703 
L 707.931755 216.756757 
L 708.234476 209.070103 
L 708.537196 195.972553 
L 709.445357 206.391914 
L 709.748077 214.683501 
L 710.050798 226.271411 
L 710.353518 230.356449 
L 710.656238 227.935435 
L 710.958958 215.131227 
L 711.261679 213.710929 
L 711.564399 213.381482 
L 711.867119 217.733324 
L 712.16984 227.604446 
L 712.47256 227.630488 
L 712.77528 216.827851 
L 713.078001 213.289528 
L 713.380721 217.115221 
L 713.683441 225.34033 
L 713.986161 226.707512 
L 714.288882 234.492912 
L 714.591602 232.188683 
L 714.894322 219.714975 
L 715.197043 217.954217 
L 715.499763 216.960123 
L 715.802483 221.776731 
L 716.105203 223.515329 
L 716.407924 233.086596 
L 716.710644 231.159843 
L 717.013364 220.928828 
L 717.316085 221.054416 
L 717.618805 219.037855 
L 718.224246 223.595505 
L 718.526966 232.037789 
L 718.829686 232.269402 
L 719.132406 223.64809 
L 719.435127 223.013741 
L 719.737847 223.080034 
L 720.040567 222.405772 
L 720.343288 223.908621 
L 720.646008 230.750635 
L 720.948728 228.942634 
L 721.251449 218.132238 
L 721.856889 223.593408 
L 722.159609 225.05284 
L 722.46233 225.286006 
L 722.76505 232.990236 
L 723.06777 230.737889 
L 723.370491 221.937429 
L 723.673211 225.630294 
L 723.975931 226.175637 
L 724.278652 222.229016 
L 724.581372 224.060327 
L 724.884092 232.850379 
L 725.186812 234.317514 
L 725.792253 224.082139 
L 726.094973 223.755648 
L 726.700414 226.770094 
L 727.003134 235.405177 
L 727.305855 235.880191 
L 727.608575 226.852356 
L 727.911295 229.439634 
L 728.516736 228.969775 
L 728.819456 232.129009 
L 729.122176 236.656847 
L 729.424897 235.726825 
L 729.727617 229.584241 
L 730.030337 229.79047 
L 730.333057 229.760928 
L 730.635778 229.181931 
L 730.938498 231.096342 
L 731.241218 237.664114 
L 731.543939 238.857 
L 731.846659 228.889036 
L 732.149379 225.171737 
L 732.4521 223.989942 
L 732.75482 223.834793 
L 733.05754 226.517742 
L 733.36026 236.400009 
L 733.662981 232.860749 
L 733.965701 222.876182 
L 734.268421 223.769739 
L 734.571142 223.90551 
L 734.873862 225.41946 
L 735.176582 225.531839 
L 735.479303 234.228651 
L 735.782023 235.24773 
L 736.084743 223.373844 
L 736.387463 223.334885 
L 736.690184 221.20363 
L 736.992904 221.434473 
L 737.598345 234.808872 
L 737.901065 234.429465 
L 738.203785 228.208206 
L 738.809226 223.895036 
L 739.414666 225.421078 
L 739.717387 228.902488 
L 740.020107 227.06186 
L 740.322827 219.693915 
L 740.625548 220.304791 
L 740.928268 218.83505 
L 741.230988 221.264312 
L 741.533708 218.697468 
L 741.836429 219.603339 
L 742.139149 214.48865 
L 742.74459 196.380685 
L 743.04731 196.325765 
L 743.35003 198.52571 
L 743.652751 202.225155 
L 743.955471 214.468912 
L 744.258191 213.89332 
L 745.166352 189.914072 
L 745.469072 187.85892 
L 745.771793 196.35414 
L 746.074513 209.251442 
L 746.377233 214.292942 
L 746.679954 210.963796 
L 746.982674 204.960213 
L 747.285394 212.028417 
L 747.588114 210.356459 
L 747.890835 210.235492 
L 748.193555 212.938385 
L 748.496275 209.480516 
L 749.101716 193.187828 
L 749.404436 192.278391 
L 749.707157 192.535386 
L 750.009877 199.568243 
L 750.312597 216.74634 
L 750.615317 218.03063 
L 750.918038 209.872009 
L 751.220758 204.88147 
L 751.523478 197.563449 
L 752.128919 200.09362 
L 752.431639 210.865127 
L 752.73436 214.898619 
L 753.3398 200.070289 
L 753.64252 200.816585 
L 754.550681 216.739818 
L 754.853402 216.891714 
L 755.156122 210.496941 
L 755.458842 211.645198 
L 755.761562 198.069449 
L 756.367003 189.170993 
L 756.669723 192.821035 
L 756.972444 191.806404 
L 757.275164 190.393322 
L 757.577884 194.129943 
L 757.880605 195.738327 
L 758.183325 193.817438 
L 758.486045 189.32789 
L 758.788765 189.090397 
L 759.091486 184.106411 
L 759.394206 171.786071 
L 759.696926 178.991 
L 759.999647 178.404708 
L 760.302367 177.026318 
L 760.605087 165.361249 
L 761.210528 154.585257 
L 761.513248 142.749298 
L 761.815968 147.992802 
L 762.118689 157.321686 
L 762.724129 162.220937 
L 763.02685 171.288439 
L 763.32957 168.365206 
L 763.63229 150.187209 
L 764.237731 143.963928 
L 764.540451 137.51069 
L 764.843171 137.342061 
L 765.448612 141.769265 
L 765.751332 129.72005 
L 766.054053 130.665019 
L 766.356773 130.587857 
L 766.659493 125.696306 
L 766.962213 122.892633 
L 767.264934 127.521897 
L 767.567654 120.751044 
L 767.870374 103.484903 
L 768.173095 99.147261 
L 768.475815 98.11656 
L 768.778535 97.919696 
L 769.081256 98.584863 
L 769.383976 108.566262 
L 769.686696 114.030633 
L 769.989416 124.409825 
L 770.594857 158.534743 
L 770.897577 172.161069 
L 771.503018 188.855288 
L 771.805738 190.615324 
L 772.108459 188.655516 
L 772.411179 172.955715 
L 772.713899 176.88517 
L 773.016619 183.850606 
L 773.31934 186.582997 
L 773.62206 206.807114 
L 773.92478 206.934555 
L 774.530221 180.249335 
L 774.832941 181.82988 
L 775.135662 179.051992 
L 775.741102 186.996388 
L 776.043822 183.157722 
L 776.346543 166.485049 
L 776.649263 163.068722 
L 777.254704 171.521391 
L 777.557424 171.547911 
L 777.860144 179.074014 
L 778.162865 172.463364 
L 778.768305 135.305588 
L 779.071025 123.940289 
L 779.373746 119.647696 
L 779.676466 117.941311 
L 779.979186 128.620188 
L 780.281907 127.405144 
L 780.584627 114.917057 
L 780.887347 116.440448 
L 781.190067 113.570398 
L 781.492788 115.739164 
L 781.795508 118.77398 
L 782.400949 131.477654 
L 782.703669 131.021811 
L 783.006389 134.193574 
L 783.91455 158.235113 
L 784.21727 157.285599 
L 784.519991 148.554271 
L 784.822711 37.257 
L 785.125431 113.698093 
L 785.428152 115.159069 
L 785.730872 113.892265 
L 786.033592 126.002414 
L 786.336313 147.690333 
L 786.639033 152.920788 
L 786.941753 143.176254 
L 787.244473 142.210626 
L 787.547194 146.170878 
L 787.849914 155.136367 
L 788.152634 173.069069 
L 788.455355 181.856494 
L 789.060795 173.54491 
L 789.363516 166.511347 
L 789.666236 166.21762 
L 789.968956 163.469969 
L 790.271676 165.499948 
L 790.574397 159.667937 
L 791.179837 122.756754 
L 791.482558 122.459792 
L 792.087998 131.231052 
L 792.390718 136.846275 
L 792.693439 205.057296 
L 792.996159 202.368516 
L 792.996159 202.368516 
" clip-path="url(#p31836f5b1e)" style="fill: none; stroke: #4c72b0; stroke-width: 1.2; stroke-linecap: round"/>
   </g>
   <g id="line2d_10">
    <path d="M 82.814341 192.271496 
L 87.052425 180.499571 
L 94.620433 159.389054 
L 97.647635 151.627149 
L 100.069398 145.941657 
L 102.18844 141.441728 
L 104.307482 137.453635 
L 106.123804 134.486708 
L 107.940126 131.970074 
L 109.453727 130.236354 
L 110.967329 128.84689 
L 112.17821 127.990184 
L 113.389091 127.364496 
L 114.599972 126.972791 
L 115.810853 126.816926 
L 117.021735 126.89764 
L 118.232616 127.21455 
L 119.443497 127.766155 
L 120.654378 128.549839 
L 121.865259 129.561889 
L 123.378861 131.140682 
L 124.892462 133.057036 
L 126.708784 135.782094 
L 128.525106 138.943637 
L 130.644148 143.138575 
L 132.76319 147.82074 
L 135.184952 153.680995 
L 138.212155 161.606349 
L 142.45024 173.397953 
L 149.715527 193.676352 
L 152.74273 201.469497 
L 155.467212 207.864332 
L 157.586254 212.329782 
L 159.705297 216.27901 
L 161.521618 219.209556 
L 163.33794 221.687387 
L 164.851542 223.387217 
L 166.365143 224.741647 
L 167.576024 225.569676 
L 168.786905 226.166255 
L 169.997787 226.528559 
L 171.208668 226.654869 
L 172.419549 226.544586 
L 173.63043 226.198234 
L 174.841311 225.617454 
L 176.052193 224.804999 
L 177.565794 223.469605 
L 179.079396 221.7882 
L 180.592997 219.773234 
L 182.409319 216.936145 
L 184.225641 213.670571 
L 186.344683 209.365851 
L 188.766445 203.870657 
L 191.490928 197.079957 
L 194.820851 188.135713 
L 201.177977 170.209763 
L 205.416061 158.585863 
L 208.443264 150.88816 
L 210.865027 145.269872 
L 212.984069 140.83923 
L 215.103111 136.929161 
L 216.919433 134.035213 
L 218.735755 131.59637 
L 220.249356 129.930554 
L 221.762958 128.611259 
L 222.973839 127.811969 
L 224.18472 127.244542 
L 225.395601 126.911667 
L 226.606482 126.814921 
L 227.817363 126.954764 
L 229.028245 127.330532 
L 230.239126 127.940445 
L 231.450007 128.781611 
L 232.963609 130.152094 
L 234.47721 131.867456 
L 235.990811 133.914998 
L 237.807133 136.789015 
L 239.623455 140.088785 
L 241.742497 144.429465 
L 244.16426 149.959932 
L 246.888742 156.782102 
L 250.218665 165.751962 
L 262.932918 200.719431 
L 265.657401 207.187959 
L 268.079163 212.329782 
L 270.198205 216.27901 
L 272.014527 219.209556 
L 273.830849 221.687387 
L 275.34445 223.387217 
L 276.858052 224.741647 
L 278.068933 225.569676 
L 279.279814 226.166255 
L 280.490695 226.528559 
L 281.701576 226.654869 
L 282.912458 226.544586 
L 284.123339 226.198234 
L 285.33422 225.617454 
L 286.545101 224.804999 
L 288.058703 223.469605 
L 289.572304 221.7882 
L 291.085906 219.773234 
L 292.902227 216.936145 
L 294.718549 213.670571 
L 296.837591 209.365851 
L 299.259354 203.870657 
L 301.983836 197.079957 
L 305.31376 188.135713 
L 311.670886 170.209763 
L 315.90897 158.585863 
L 318.936173 150.88816 
L 321.357935 145.269872 
L 323.476978 140.83923 
L 325.59602 136.929161 
L 327.412341 134.035213 
L 329.228663 131.59637 
L 330.742265 129.930554 
L 332.255866 128.611259 
L 333.466747 127.811969 
L 334.677629 127.244542 
L 335.88851 126.911667 
L 337.099391 126.814921 
L 338.310272 126.954764 
L 339.521153 127.330532 
L 340.732034 127.940445 
L 341.942916 128.781611 
L 343.456517 130.152094 
L 344.970119 131.867456 
L 346.48372 133.914998 
L 348.300042 136.789015 
L 350.116364 140.088785 
L 352.235406 144.429465 
L 354.657168 149.959932 
L 357.381651 156.782102 
L 360.711574 165.751962 
L 373.425827 200.719431 
L 376.150309 207.187959 
L 378.572072 212.329782 
L 380.691114 216.27901 
L 382.507436 219.209556 
L 384.323757 221.687387 
L 385.837359 223.387217 
L 387.35096 224.741647 
L 388.561841 225.569676 
L 389.772723 226.166255 
L 390.983604 226.528559 
L 392.194485 226.654869 
L 393.405366 226.544586 
L 394.616247 226.198234 
L 395.827129 225.617454 
L 397.03801 224.804999 
L 398.551611 223.469605 
L 400.065213 221.7882 
L 401.578814 219.773234 
L 403.395136 216.936145 
L 405.211458 213.670571 
L 407.3305 209.365851 
L 409.752262 203.870657 
L 412.476745 197.079957 
L 415.806668 188.135713 
L 422.163795 170.209763 
L 426.401879 158.585863 
L 429.429082 150.88816 
L 431.850844 145.269872 
L 433.969886 140.83923 
L 436.088928 136.929161 
L 437.90525 134.035213 
L 439.721572 131.59637 
L 441.235173 129.930554 
L 442.748775 128.611259 
L 443.959656 127.811969 
L 445.170537 127.244542 
L 446.381418 126.911667 
L 447.5923 126.814921 
L 448.803181 126.954764 
L 450.014062 127.330532 
L 451.224943 127.940445 
L 452.435824 128.781611 
L 453.949426 130.152094 
L 455.463027 131.867456 
L 456.976629 133.914998 
L 458.792951 136.789015 
L 460.609272 140.088785 
L 462.728314 144.429465 
L 465.150077 149.959932 
L 467.874559 156.782102 
L 471.204483 165.751962 
L 483.918735 200.719431 
L 486.643218 207.187959 
L 489.06498 212.329782 
L 491.184022 216.27901 
L 493.000344 219.209556 
L 494.816666 221.687387 
L 496.330267 223.387217 
L 497.843869 224.741647 
L 499.05475 225.569676 
L 500.265631 226.166255 
L 501.476512 226.528559 
L 502.687394 226.654869 
L 503.898275 226.544586 
L 505.109156 226.198234 
L 506.320037 225.617454 
L 507.530918 224.804999 
L 509.04452 223.469605 
L 510.558121 221.7882 
L 512.071723 219.773234 
L 513.888045 216.936145 
L 515.704366 213.670571 
L 517.823409 209.365851 
L 520.245171 203.870657 
L 522.969654 197.079957 
L 526.299577 188.135713 
L 532.656703 170.209763 
L 536.894787 158.585863 
L 539.92199 150.88816 
L 542.343753 145.269872 
L 544.462795 140.83923 
L 546.581837 136.929161 
L 548.398159 134.035213 
L 550.21448 131.59637 
L 551.728082 129.930554 
L 553.241683 128.611259 
L 554.452565 127.811969 
L 555.663446 127.244542 
L 556.874327 126.911667 
L 558.085208 126.814921 
L 559.296089 126.954764 
L 560.506971 127.330532 
L 561.717852 127.940445 
L 562.928733 128.781611 
L 564.442334 130.152094 
L 565.955936 131.867456 
L 567.469537 133.914998 
L 569.285859 136.789015 
L 571.102181 140.088785 
L 573.221223 144.429465 
L 575.642985 149.959932 
L 578.367468 156.782102 
L 581.697391 165.751962 
L 594.411644 200.719431 
L 597.136127 207.187959 
L 599.557889 212.329782 
L 601.676931 216.27901 
L 603.493253 219.209556 
L 605.309575 221.687387 
L 606.823176 223.387217 
L 608.336778 224.741647 
L 609.547659 225.569676 
L 610.75854 226.166255 
L 611.969421 226.528559 
L 613.180302 226.654869 
L 614.391184 226.544586 
L 615.602065 226.198234 
L 616.812946 225.617454 
L 618.023827 224.804999 
L 619.537429 223.469605 
L 621.05103 221.7882 
L 622.564632 219.773234 
L 624.380953 216.936145 
L 626.197275 213.670571 
L 628.316317 209.365851 
L 630.73808 203.870657 
L 633.462562 197.079957 
L 636.792486 188.135713 
L 643.149612 170.209763 
L 647.387696 158.585863 
L 650.414899 150.88816 
L 652.836661 145.269872 
L 654.955703 140.83923 
L 657.074745 136.929161 
L 658.891067 134.035213 
L 660.707389 131.59637 
L 662.220991 129.930554 
L 663.734592 128.611259 
L 664.945473 127.811969 
L 666.156354 127.244542 
L 667.367236 126.911667 
L 668.578117 126.814921 
L 669.788998 126.954764 
L 670.999879 127.330532 
L 672.21076 127.940445 
L 673.421642 128.781611 
L 674.935243 130.152094 
L 676.448845 131.867456 
L 677.962446 133.914998 
L 679.778768 136.789015 
L 681.59509 140.088785 
L 683.714132 144.429465 
L 686.135894 149.959932 
L 688.860377 156.782102 
L 692.1903 165.751962 
L 704.904552 200.719431 
L 707.629035 207.187959 
L 710.050798 212.329782 
L 712.16984 216.27901 
L 713.986161 219.209556 
L 715.802483 221.687387 
L 717.316085 223.387217 
L 718.829686 224.741647 
L 720.040567 225.569676 
L 721.251449 226.166255 
L 722.46233 226.528559 
L 723.673211 226.654869 
L 724.884092 226.544586 
L 726.094973 226.198234 
L 727.305855 225.617454 
L 728.516736 224.804999 
L 730.030337 223.469605 
L 731.543939 221.7882 
L 733.05754 219.773234 
L 734.873862 216.936145 
L 736.690184 213.670571 
L 738.809226 209.365851 
L 741.230988 203.870657 
L 743.955471 197.079957 
L 747.285394 188.135713 
L 753.64252 170.209763 
L 757.880605 158.585863 
L 760.907808 150.88816 
L 763.32957 145.269872 
L 765.448612 140.83923 
L 767.567654 136.929161 
L 769.383976 134.035213 
L 771.200298 131.59637 
L 772.713899 129.930554 
L 774.227501 128.611259 
L 775.438382 127.811969 
L 776.649263 127.244542 
L 777.860144 126.911667 
L 779.071025 126.814921 
L 780.281907 126.954764 
L 781.492788 127.330532 
L 782.703669 127.940445 
L 783.91455 128.781611 
L 785.428152 130.152094 
L 786.941753 131.867456 
L 788.455355 133.914998 
L 790.271676 136.789015 
L 792.087998 140.088785 
L 792.996159 141.887504 
L 792.996159 141.887504 
" clip-path="url(#p31836f5b1e)" style="fill: none; stroke: #dd8452; stroke-width: 1.2; stroke-linecap: round"/>
   </g>
   <g id="patch_3">
    <path d="M 47.30525 248.937 
L 47.30525 27.177 
" style="fill: none; stroke: #cccccc; stroke-linejoin: miter; stroke-linecap: square"/>
   </g>
   <g id="patch_4">
    <path d="M 828.50525 248.937 
L 828.50525 27.177 
" style="fill: none; stroke: #cccccc; stroke-linejoin: miter; stroke-linecap: square"/>
   </g>
   <g id="patch_5">
    <path d="M 47.30525 248.937 
L 828.50525 248.937 
" style="fill: none; stroke: #cccccc; stroke-linejoin: miter; stroke-linecap: square"/>
   </g>
   <g id="patch_6">
    <path d="M 47.30525 27.177 
L 828.50525 27.177 
" style="fill: none; stroke: #cccccc; stroke-linejoin: miter; stroke-linecap: square"/>
   </g>
   <g id="text_12">
    <!-- Seasonality of consumption data -->
    <g style="fill: #262626" transform="translate(299.15975 21.177) scale(0.192 -0.192)">
     <defs>
      <path id="ArialMT-53" d="M 288 1472 
L 859 1522 
Q 900 1178 1048 958 
Q 1197 738 1509 602 
Q 1822 466 2213 466 
Q 2559 466 2825 569 
Q 3091 672 3220 851 
Q 3350 1031 3350 1244 
Q 3350 1459 3225 1620 
Q 3100 1781 2813 1891 
Q 2628 1963 1997 2114 
Q 1366 2266 1113 2400 
Q 784 2572 623 2826 
Q 463 3081 463 3397 
Q 463 3744 659 4045 
Q 856 4347 1234 4503 
Q 1613 4659 2075 4659 
Q 2584 4659 2973 4495 
Q 3363 4331 3572 4012 
Q 3781 3694 3797 3291 
L 3216 3247 
Q 3169 3681 2898 3903 
Q 2628 4125 2100 4125 
Q 1550 4125 1298 3923 
Q 1047 3722 1047 3438 
Q 1047 3191 1225 3031 
Q 1400 2872 2139 2705 
Q 2878 2538 3153 2413 
Q 3553 2228 3743 1945 
Q 3934 1663 3934 1294 
Q 3934 928 3725 604 
Q 3516 281 3123 101 
Q 2731 -78 2241 -78 
Q 1619 -78 1198 103 
Q 778 284 539 648 
Q 300 1013 288 1472 
z
" transform="scale(0.015625)"/>
      <path id="ArialMT-6c" d="M 409 0 
L 409 4581 
L 972 4581 
L 972 0 
L 409 0 
z
" transform="scale(0.015625)"/>
      <path id="ArialMT-66" d="M 556 0 
L 556 2881 
L 59 2881 
L 59 3319 
L 556 3319 
L 556 3672 
Q 556 4006 616 4169 
Q 697 4388 901 4523 
Q 1106 4659 1475 4659 
Q 1713 4659 2000 4603 
L 1916 4113 
Q 1741 4144 1584 4144 
Q 1328 4144 1222 4034 
Q 1116 3925 1116 3625 
L 1116 3319 
L 1763 3319 
L 1763 2881 
L 1116 2881 
L 1116 0 
L 556 0 
z
" transform="scale(0.015625)"/>
      <path id="ArialMT-63" d="M 2588 1216 
L 3141 1144 
Q 3050 572 2676 248 
Q 2303 -75 1759 -75 
Q 1078 -75 664 370 
Q 250 816 250 1647 
Q 250 2184 428 2587 
Q 606 2991 970 3192 
Q 1334 3394 1763 3394 
Q 2303 3394 2647 3120 
Q 2991 2847 3088 2344 
L 2541 2259 
Q 2463 2594 2264 2762 
Q 2066 2931 1784 2931 
Q 1359 2931 1093 2626 
Q 828 2322 828 1663 
Q 828 994 1084 691 
Q 1341 388 1753 388 
Q 2084 388 2306 591 
Q 2528 794 2588 1216 
z
" transform="scale(0.015625)"/>
     </defs>
     <use xlink:href="#ArialMT-53"/>
     <use xlink:href="#ArialMT-65" x="66.699219"/>
     <use xlink:href="#ArialMT-61" x="122.314453"/>
     <use xlink:href="#ArialMT-73" x="177.929688"/>
     <use xlink:href="#ArialMT-6f" x="227.929688"/>
     <use xlink:href="#ArialMT-6e" x="283.544922"/>
     <use xlink:href="#ArialMT-61" x="339.160156"/>
     <use xlink:href="#ArialMT-6c" x="394.775391"/>
     <use xlink:href="#ArialMT-69" x="416.992188"/>
     <use xlink:href="#ArialMT-74" x="439.208984"/>
     <use xlink:href="#ArialMT-79" x="466.992188"/>
     <use xlink:href="#ArialMT-20" x="516.992188"/>
     <use xlink:href="#ArialMT-6f" x="544.775391"/>
     <use xlink:href="#ArialMT-66" x="600.390625"/>
     <use xlink:href="#ArialMT-20" x="628.173828"/>
     <use xlink:href="#ArialMT-63" x="655.957031"/>
     <use xlink:href="#ArialMT-6f" x="705.957031"/>
     <use xlink:href="#ArialMT-6e" x="761.572266"/>
     <use xlink:href="#ArialMT-73" x="817.1875"/>
     <use xlink:href="#ArialMT-75" x="867.1875"/>
     <use xlink:href="#ArialMT-6d" x="922.802734"/>
     <use xlink:href="#ArialMT-70" x="1006.103516"/>
     <use xlink:href="#ArialMT-74" x="1061.71875"/>
     <use xlink:href="#ArialMT-69" x="1089.501953"/>
     <use xlink:href="#ArialMT-6f" x="1111.71875"/>
     <use xlink:href="#ArialMT-6e" x="1167.333984"/>
     <use xlink:href="#ArialMT-20" x="1222.949219"/>
     <use xlink:href="#ArialMT-64" x="1250.732422"/>
     <use xlink:href="#ArialMT-61" x="1306.347656"/>
     <use xlink:href="#ArialMT-74" x="1361.962891"/>
     <use xlink:href="#ArialMT-61" x="1389.746094"/>
    </g>
   </g>
   <g id="legend_1">
    <g id="patch_7">
     <path d="M 365.71775 91.0485 
L 510.09275 91.0485 
Q 513.61275 91.0485 513.61275 87.5285 
L 513.61275 39.497 
Q 513.61275 35.977 510.09275 35.977 
L 365.71775 35.977 
Q 362.19775 35.977 362.19775 39.497 
L 362.19775 87.5285 
Q 362.19775 91.0485 365.71775 91.0485 
z
" style="fill: #ffffff; opacity: 0.8; stroke: #cccccc; stroke-width: 0.8; stroke-linejoin: miter"/>
    </g>
    <g id="line2d_11">
     <path d="M 369.23775 49.45475 
L 386.83775 49.45475 
L 404.43775 49.45475 
" style="fill: none; stroke: #4c72b0; stroke-width: 1.2; stroke-linecap: round"/>
    </g>
    <g id="text_13">
     <!-- Actual data -->
     <g style="fill: #262626" transform="translate(418.51775 55.61475) scale(0.176 -0.176)">
      <defs>
       <path id="ArialMT-41" d="M -9 0 
L 1750 4581 
L 2403 4581 
L 4278 0 
L 3588 0 
L 3053 1388 
L 1138 1388 
L 634 0 
L -9 0 
z
M 1313 1881 
L 2866 1881 
L 2388 3150 
Q 2169 3728 2063 4100 
Q 1975 3659 1816 3225 
L 1313 1881 
z
" transform="scale(0.015625)"/>
      </defs>
      <use xlink:href="#ArialMT-41"/>
      <use xlink:href="#ArialMT-63" x="66.699219"/>
      <use xlink:href="#ArialMT-74" x="116.699219"/>
      <use xlink:href="#ArialMT-75" x="144.482422"/>
      <use xlink:href="#ArialMT-61" x="200.097656"/>
      <use xlink:href="#ArialMT-6c" x="255.712891"/>
      <use xlink:href="#ArialMT-20" x="277.929688"/>
      <use xlink:href="#ArialMT-64" x="305.712891"/>
      <use xlink:href="#ArialMT-61" x="361.328125"/>
      <use xlink:href="#ArialMT-74" x="416.943359"/>
      <use xlink:href="#ArialMT-61" x="444.726562"/>
     </g>
    </g>
    <g id="line2d_12">
     <path d="M 369.23775 74.3505 
L 386.83775 74.3505 
L 404.43775 74.3505 
" style="fill: none; stroke: #dd8452; stroke-width: 1.2; stroke-linecap: round"/>
    </g>
    <g id="text_14">
     <!-- Model -->
     <g style="fill: #262626" transform="translate(418.51775 80.5105) scale(0.176 -0.176)">
      <use xlink:href="#ArialMT-4d"/>
      <use xlink:href="#ArialMT-6f" x="83.300781"/>
      <use xlink:href="#ArialMT-64" x="138.916016"/>
      <use xlink:href="#ArialMT-65" x="194.53125"/>
      <use xlink:href="#ArialMT-6c" x="250.146484"/>
     </g>
    </g>
   </g>
  </g>
 </g>
 <defs>
  <clipPath id="p31836f5b1e">
   <rect x="47.30525" y="27.177" width="781.2" height="221.76"/>
  </clipPath>
 </defs>
</svg>
