<?xml version="1.0" encoding="utf-8" standalone="no"?>
<!DOCTYPE svg PUBLIC "-//W3C//DTD SVG 1.1//EN"
  "http://www.w3.org/Graphics/SVG/1.1/DTD/svg11.dtd">
<svg xmlns:xlink="http://www.w3.org/1999/xlink" width="854.82075pt" height="293.355828pt" viewBox="0 0 854.82075 293.355828" xmlns="http://www.w3.org/2000/svg" version="1.1">
 <metadata>
  <rdf:RDF xmlns:dc="http://purl.org/dc/elements/1.1/" xmlns:cc="http://creativecommons.org/ns#" xmlns:rdf="http://www.w3.org/1999/02/22-rdf-syntax-ns#">
   <cc:Work>
    <dc:type rdf:resource="http://purl.org/dc/dcmitype/StillImage"/>
    <dc:date>2023-05-10T19:27:14.157082</dc:date>
    <dc:format>image/svg+xml</dc:format>
    <dc:creator>
     <cc:Agent>
      <dc:title>Matplotlib v3.7.1, https://matplotlib.org/</dc:title>
     </cc:Agent>
    </dc:creator>
   </cc:Work>
  </rdf:RDF>
 </metadata>
 <defs>
  <style type="text/css">*{stroke-linejoin: round; stroke-linecap: butt}</style>
 </defs>
 <g id="figure_1">
  <g id="patch_1">
   <path d="M 0 293.355828 
L 854.82075 293.355828 
L 854.82075 0 
L 0 0 
z
" style="fill: #ffffff"/>
  </g>
  <g id="axes_1">
   <g id="patch_2">
    <path d="M 66.42075 222.783 
L 847.62075 222.783 
L 847.62075 26.943 
L 66.42075 26.943 
z
" style="fill: #ffffff"/>
   </g>
   <g id="matplotlib.axis_1">
    <g id="xtick_1">
     <g id="line2d_1">
      <path d="M 101.579998 222.783 
L 101.579998 26.943 
" clip-path="url(#p5d32ed5fc7)" style="fill: none; stroke: #cccccc; stroke-width: 0.8; stroke-linecap: round"/>
     </g>
     <g id="text_1">
      <!-- 2012 -->
      <g style="fill: #262626" transform="translate(65.926969 261.567472) rotate(-30) scale(0.176 -0.176)">
       <defs>
        <path id="ArialMT-32" d="M 3222 541 
L 3222 0 
L 194 0 
Q 188 203 259 391 
Q 375 700 629 1000 
Q 884 1300 1366 1694 
Q 2113 2306 2375 2664 
Q 2638 3022 2638 3341 
Q 2638 3675 2398 3904 
Q 2159 4134 1775 4134 
Q 1369 4134 1125 3890 
Q 881 3647 878 3216 
L 300 3275 
Q 359 3922 746 4261 
Q 1134 4600 1788 4600 
Q 2447 4600 2831 4234 
Q 3216 3869 3216 3328 
Q 3216 3053 3103 2787 
Q 2991 2522 2730 2228 
Q 2469 1934 1863 1422 
Q 1356 997 1212 845 
Q 1069 694 975 541 
L 3222 541 
z
" transform="scale(0.015625)"/>
        <path id="ArialMT-30" d="M 266 2259 
Q 266 3072 433 3567 
Q 600 4063 929 4331 
Q 1259 4600 1759 4600 
Q 2128 4600 2406 4451 
Q 2684 4303 2865 4023 
Q 3047 3744 3150 3342 
Q 3253 2941 3253 2259 
Q 3253 1453 3087 958 
Q 2922 463 2592 192 
Q 2263 -78 1759 -78 
Q 1097 -78 719 397 
Q 266 969 266 2259 
z
M 844 2259 
Q 844 1131 1108 757 
Q 1372 384 1759 384 
Q 2147 384 2411 759 
Q 2675 1134 2675 2259 
Q 2675 3391 2411 3762 
Q 2147 4134 1753 4134 
Q 1366 4134 1134 3806 
Q 844 3388 844 2259 
z
" transform="scale(0.015625)"/>
        <path id="ArialMT-31" d="M 2384 0 
L 1822 0 
L 1822 3584 
Q 1619 3391 1289 3197 
Q 959 3003 697 2906 
L 697 3450 
Q 1169 3672 1522 3987 
Q 1875 4303 2022 4600 
L 2384 4600 
L 2384 0 
z
" transform="scale(0.015625)"/>
       </defs>
       <use xlink:href="#ArialMT-32"/>
       <use xlink:href="#ArialMT-30" x="55.615234"/>
       <use xlink:href="#ArialMT-31" x="111.230469"/>
       <use xlink:href="#ArialMT-32" x="166.845703"/>
      </g>
     </g>
    </g>
    <g id="xtick_2">
     <g id="line2d_2">
      <path d="M 229.447709 222.783 
L 229.447709 26.943 
" clip-path="url(#p5d32ed5fc7)" style="fill: none; stroke: #cccccc; stroke-width: 0.8; stroke-linecap: round"/>
     </g>
     <g id="text_2">
      <!-- 2014 -->
      <g style="fill: #262626" transform="translate(193.794681 261.567472) rotate(-30) scale(0.176 -0.176)">
       <defs>
        <path id="ArialMT-34" d="M 2069 0 
L 2069 1097 
L 81 1097 
L 81 1613 
L 2172 4581 
L 2631 4581 
L 2631 1613 
L 3250 1613 
L 3250 1097 
L 2631 1097 
L 2631 0 
L 2069 0 
z
M 2069 1613 
L 2069 3678 
L 634 1613 
L 2069 1613 
z
" transform="scale(0.015625)"/>
       </defs>
       <use xlink:href="#ArialMT-32"/>
       <use xlink:href="#ArialMT-30" x="55.615234"/>
       <use xlink:href="#ArialMT-31" x="111.230469"/>
       <use xlink:href="#ArialMT-34" x="166.845703"/>
      </g>
     </g>
    </g>
    <g id="xtick_3">
     <g id="line2d_3">
      <path d="M 357.140499 222.783 
L 357.140499 26.943 
" clip-path="url(#p5d32ed5fc7)" style="fill: none; stroke: #cccccc; stroke-width: 0.8; stroke-linecap: round"/>
     </g>
     <g id="text_3">
      <!-- 2016 -->
      <g style="fill: #262626" transform="translate(321.487471 261.567472) rotate(-30) scale(0.176 -0.176)">
       <defs>
        <path id="ArialMT-36" d="M 3184 3459 
L 2625 3416 
Q 2550 3747 2413 3897 
Q 2184 4138 1850 4138 
Q 1581 4138 1378 3988 
Q 1113 3794 959 3422 
Q 806 3050 800 2363 
Q 1003 2672 1297 2822 
Q 1591 2972 1913 2972 
Q 2475 2972 2870 2558 
Q 3266 2144 3266 1488 
Q 3266 1056 3080 686 
Q 2894 316 2569 119 
Q 2244 -78 1831 -78 
Q 1128 -78 684 439 
Q 241 956 241 2144 
Q 241 3472 731 4075 
Q 1159 4600 1884 4600 
Q 2425 4600 2770 4297 
Q 3116 3994 3184 3459 
z
M 888 1484 
Q 888 1194 1011 928 
Q 1134 663 1356 523 
Q 1578 384 1822 384 
Q 2178 384 2434 671 
Q 2691 959 2691 1453 
Q 2691 1928 2437 2201 
Q 2184 2475 1800 2475 
Q 1419 2475 1153 2201 
Q 888 1928 888 1484 
z
" transform="scale(0.015625)"/>
       </defs>
       <use xlink:href="#ArialMT-32"/>
       <use xlink:href="#ArialMT-30" x="55.615234"/>
       <use xlink:href="#ArialMT-31" x="111.230469"/>
       <use xlink:href="#ArialMT-36" x="166.845703"/>
      </g>
     </g>
    </g>
    <g id="xtick_4">
     <g id="line2d_4">
      <path d="M 485.008211 222.783 
L 485.008211 26.943 
" clip-path="url(#p5d32ed5fc7)" style="fill: none; stroke: #cccccc; stroke-width: 0.8; stroke-linecap: round"/>
     </g>
     <g id="text_4">
      <!-- 2018 -->
      <g style="fill: #262626" transform="translate(449.355182 261.567472) rotate(-30) scale(0.176 -0.176)">
       <defs>
        <path id="ArialMT-38" d="M 1131 2484 
Q 781 2613 612 2850 
Q 444 3088 444 3419 
Q 444 3919 803 4259 
Q 1163 4600 1759 4600 
Q 2359 4600 2725 4251 
Q 3091 3903 3091 3403 
Q 3091 3084 2923 2848 
Q 2756 2613 2416 2484 
Q 2838 2347 3058 2040 
Q 3278 1734 3278 1309 
Q 3278 722 2862 322 
Q 2447 -78 1769 -78 
Q 1091 -78 675 323 
Q 259 725 259 1325 
Q 259 1772 486 2073 
Q 713 2375 1131 2484 
z
M 1019 3438 
Q 1019 3113 1228 2906 
Q 1438 2700 1772 2700 
Q 2097 2700 2305 2904 
Q 2513 3109 2513 3406 
Q 2513 3716 2298 3927 
Q 2084 4138 1766 4138 
Q 1444 4138 1231 3931 
Q 1019 3725 1019 3438 
z
M 838 1322 
Q 838 1081 952 856 
Q 1066 631 1291 507 
Q 1516 384 1775 384 
Q 2178 384 2440 643 
Q 2703 903 2703 1303 
Q 2703 1709 2433 1975 
Q 2163 2241 1756 2241 
Q 1359 2241 1098 1978 
Q 838 1716 838 1322 
z
" transform="scale(0.015625)"/>
       </defs>
       <use xlink:href="#ArialMT-32"/>
       <use xlink:href="#ArialMT-30" x="55.615234"/>
       <use xlink:href="#ArialMT-31" x="111.230469"/>
       <use xlink:href="#ArialMT-38" x="166.845703"/>
      </g>
     </g>
    </g>
    <g id="xtick_5">
     <g id="line2d_5">
      <path d="M 612.701001 222.783 
L 612.701001 26.943 
" clip-path="url(#p5d32ed5fc7)" style="fill: none; stroke: #cccccc; stroke-width: 0.8; stroke-linecap: round"/>
     </g>
     <g id="text_5">
      <!-- 2020 -->
      <g style="fill: #262626" transform="translate(577.047972 261.567472) rotate(-30) scale(0.176 -0.176)">
       <use xlink:href="#ArialMT-32"/>
       <use xlink:href="#ArialMT-30" x="55.615234"/>
       <use xlink:href="#ArialMT-32" x="111.230469"/>
       <use xlink:href="#ArialMT-30" x="166.845703"/>
      </g>
     </g>
    </g>
    <g id="xtick_6">
     <g id="line2d_6">
      <path d="M 740.568712 222.783 
L 740.568712 26.943 
" clip-path="url(#p5d32ed5fc7)" style="fill: none; stroke: #cccccc; stroke-width: 0.8; stroke-linecap: round"/>
     </g>
     <g id="text_6">
      <!-- 2022 -->
      <g style="fill: #262626" transform="translate(704.915684 261.567472) rotate(-30) scale(0.176 -0.176)">
       <use xlink:href="#ArialMT-32"/>
       <use xlink:href="#ArialMT-30" x="55.615234"/>
       <use xlink:href="#ArialMT-32" x="111.230469"/>
       <use xlink:href="#ArialMT-32" x="166.845703"/>
      </g>
     </g>
    </g>
    <g id="text_7">
     <!-- Date -->
     <g style="fill: #262626" transform="translate(436.74375 282.339828) scale(0.192 -0.192)">
      <defs>
       <path id="ArialMT-44" d="M 494 0 
L 494 4581 
L 2072 4581 
Q 2606 4581 2888 4516 
Q 3281 4425 3559 4188 
Q 3922 3881 4101 3404 
Q 4281 2928 4281 2316 
Q 4281 1794 4159 1391 
Q 4038 988 3847 723 
Q 3656 459 3429 307 
Q 3203 156 2883 78 
Q 2563 0 2147 0 
L 494 0 
z
M 1100 541 
L 2078 541 
Q 2531 541 2789 625 
Q 3047 709 3200 863 
Q 3416 1078 3536 1442 
Q 3656 1806 3656 2325 
Q 3656 3044 3420 3430 
Q 3184 3816 2847 3947 
Q 2603 4041 2063 4041 
L 1100 4041 
L 1100 541 
z
" transform="scale(0.015625)"/>
       <path id="ArialMT-61" d="M 2588 409 
Q 2275 144 1986 34 
Q 1697 -75 1366 -75 
Q 819 -75 525 192 
Q 231 459 231 875 
Q 231 1119 342 1320 
Q 453 1522 633 1644 
Q 813 1766 1038 1828 
Q 1203 1872 1538 1913 
Q 2219 1994 2541 2106 
Q 2544 2222 2544 2253 
Q 2544 2597 2384 2738 
Q 2169 2928 1744 2928 
Q 1347 2928 1158 2789 
Q 969 2650 878 2297 
L 328 2372 
Q 403 2725 575 2942 
Q 747 3159 1072 3276 
Q 1397 3394 1825 3394 
Q 2250 3394 2515 3294 
Q 2781 3194 2906 3042 
Q 3031 2891 3081 2659 
Q 3109 2516 3109 2141 
L 3109 1391 
Q 3109 606 3145 398 
Q 3181 191 3288 0 
L 2700 0 
Q 2613 175 2588 409 
z
M 2541 1666 
Q 2234 1541 1622 1453 
Q 1275 1403 1131 1340 
Q 988 1278 909 1158 
Q 831 1038 831 891 
Q 831 666 1001 516 
Q 1172 366 1500 366 
Q 1825 366 2078 508 
Q 2331 650 2450 897 
Q 2541 1088 2541 1459 
L 2541 1666 
z
" transform="scale(0.015625)"/>
       <path id="ArialMT-74" d="M 1650 503 
L 1731 6 
Q 1494 -44 1306 -44 
Q 1000 -44 831 53 
Q 663 150 594 308 
Q 525 466 525 972 
L 525 2881 
L 113 2881 
L 113 3319 
L 525 3319 
L 525 4141 
L 1084 4478 
L 1084 3319 
L 1650 3319 
L 1650 2881 
L 1084 2881 
L 1084 941 
Q 1084 700 1114 631 
Q 1144 563 1211 522 
Q 1278 481 1403 481 
Q 1497 481 1650 503 
z
" transform="scale(0.015625)"/>
       <path id="ArialMT-65" d="M 2694 1069 
L 3275 997 
Q 3138 488 2766 206 
Q 2394 -75 1816 -75 
Q 1088 -75 661 373 
Q 234 822 234 1631 
Q 234 2469 665 2931 
Q 1097 3394 1784 3394 
Q 2450 3394 2872 2941 
Q 3294 2488 3294 1666 
Q 3294 1616 3291 1516 
L 816 1516 
Q 847 969 1125 678 
Q 1403 388 1819 388 
Q 2128 388 2347 550 
Q 2566 713 2694 1069 
z
M 847 1978 
L 2700 1978 
Q 2663 2397 2488 2606 
Q 2219 2931 1791 2931 
Q 1403 2931 1139 2672 
Q 875 2413 847 1978 
z
" transform="scale(0.015625)"/>
      </defs>
      <use xlink:href="#ArialMT-44"/>
      <use xlink:href="#ArialMT-61" x="72.216797"/>
      <use xlink:href="#ArialMT-74" x="127.832031"/>
      <use xlink:href="#ArialMT-65" x="155.615234"/>
     </g>
    </g>
   </g>
   <g id="matplotlib.axis_2">
    <g id="ytick_1">
     <g id="line2d_7">
      <path d="M 66.42075 218.854789 
L 847.62075 218.854789 
" clip-path="url(#p5d32ed5fc7)" style="fill: none; stroke: #cccccc; stroke-width: 0.8; stroke-linecap: round"/>
     </g>
     <g id="text_8">
      <!-- 0 -->
      <g style="fill: #262626" transform="translate(48.3335 225.153664) scale(0.176 -0.176)">
       <use xlink:href="#ArialMT-30"/>
      </g>
     </g>
    </g>
    <g id="ytick_2">
     <g id="line2d_8">
      <path d="M 66.42075 171.933968 
L 847.62075 171.933968 
" clip-path="url(#p5d32ed5fc7)" style="fill: none; stroke: #cccccc; stroke-width: 0.8; stroke-linecap: round"/>
     </g>
     <g id="text_9">
      <!-- 25 -->
      <g style="fill: #262626" transform="translate(38.54625 178.232843) scale(0.176 -0.176)">
       <defs>
        <path id="ArialMT-35" d="M 266 1200 
L 856 1250 
Q 922 819 1161 601 
Q 1400 384 1738 384 
Q 2144 384 2425 690 
Q 2706 997 2706 1503 
Q 2706 1984 2436 2262 
Q 2166 2541 1728 2541 
Q 1456 2541 1237 2417 
Q 1019 2294 894 2097 
L 366 2166 
L 809 4519 
L 3088 4519 
L 3088 3981 
L 1259 3981 
L 1013 2750 
Q 1425 3038 1878 3038 
Q 2478 3038 2890 2622 
Q 3303 2206 3303 1553 
Q 3303 931 2941 478 
Q 2500 -78 1738 -78 
Q 1113 -78 717 272 
Q 322 622 266 1200 
z
" transform="scale(0.015625)"/>
       </defs>
       <use xlink:href="#ArialMT-32"/>
       <use xlink:href="#ArialMT-35" x="55.615234"/>
      </g>
     </g>
    </g>
    <g id="ytick_3">
     <g id="line2d_9">
      <path d="M 66.42075 125.013147 
L 847.62075 125.013147 
" clip-path="url(#p5d32ed5fc7)" style="fill: none; stroke: #cccccc; stroke-width: 0.8; stroke-linecap: round"/>
     </g>
     <g id="text_10">
      <!-- 50 -->
      <g style="fill: #262626" transform="translate(38.54625 131.312022) scale(0.176 -0.176)">
       <use xlink:href="#ArialMT-35"/>
       <use xlink:href="#ArialMT-30" x="55.615234"/>
      </g>
     </g>
    </g>
    <g id="ytick_4">
     <g id="line2d_10">
      <path d="M 66.42075 78.092326 
L 847.62075 78.092326 
" clip-path="url(#p5d32ed5fc7)" style="fill: none; stroke: #cccccc; stroke-width: 0.8; stroke-linecap: round"/>
     </g>
     <g id="text_11">
      <!-- 75 -->
      <g style="fill: #262626" transform="translate(38.54625 84.391201) scale(0.176 -0.176)">
       <defs>
        <path id="ArialMT-37" d="M 303 3981 
L 303 4522 
L 3269 4522 
L 3269 4084 
Q 2831 3619 2401 2847 
Q 1972 2075 1738 1259 
Q 1569 684 1522 0 
L 944 0 
Q 953 541 1156 1306 
Q 1359 2072 1739 2783 
Q 2119 3494 2547 3981 
L 303 3981 
z
" transform="scale(0.015625)"/>
       </defs>
       <use xlink:href="#ArialMT-37"/>
       <use xlink:href="#ArialMT-35" x="55.615234"/>
      </g>
     </g>
    </g>
    <g id="ytick_5">
     <g id="line2d_11">
      <path d="M 66.42075 31.171504 
L 847.62075 31.171504 
" clip-path="url(#p5d32ed5fc7)" style="fill: none; stroke: #cccccc; stroke-width: 0.8; stroke-linecap: round"/>
     </g>
     <g id="text_12">
      <!-- 100 -->
      <g style="fill: #262626" transform="translate(28.759 37.470379) scale(0.176 -0.176)">
       <use xlink:href="#ArialMT-31"/>
       <use xlink:href="#ArialMT-30" x="55.615234"/>
       <use xlink:href="#ArialMT-30" x="111.230469"/>
      </g>
     </g>
    </g>
    <g id="text_13">
     <!-- Price €/tCO2e -->
     <g style="fill: #262626" transform="translate(20.943 185.151) rotate(-90) scale(0.192 -0.192)">
      <defs>
       <path id="ArialMT-50" d="M 494 0 
L 494 4581 
L 2222 4581 
Q 2678 4581 2919 4538 
Q 3256 4481 3484 4323 
Q 3713 4166 3852 3881 
Q 3991 3597 3991 3256 
Q 3991 2672 3619 2267 
Q 3247 1863 2275 1863 
L 1100 1863 
L 1100 0 
L 494 0 
z
M 1100 2403 
L 2284 2403 
Q 2872 2403 3119 2622 
Q 3366 2841 3366 3238 
Q 3366 3525 3220 3729 
Q 3075 3934 2838 4000 
Q 2684 4041 2272 4041 
L 1100 4041 
L 1100 2403 
z
" transform="scale(0.015625)"/>
       <path id="ArialMT-72" d="M 416 0 
L 416 3319 
L 922 3319 
L 922 2816 
Q 1116 3169 1280 3281 
Q 1444 3394 1641 3394 
Q 1925 3394 2219 3213 
L 2025 2691 
Q 1819 2813 1613 2813 
Q 1428 2813 1281 2702 
Q 1134 2591 1072 2394 
Q 978 2094 978 1738 
L 978 0 
L 416 0 
z
" transform="scale(0.015625)"/>
       <path id="ArialMT-69" d="M 425 3934 
L 425 4581 
L 988 4581 
L 988 3934 
L 425 3934 
z
M 425 0 
L 425 3319 
L 988 3319 
L 988 0 
L 425 0 
z
" transform="scale(0.015625)"/>
       <path id="ArialMT-63" d="M 2588 1216 
L 3141 1144 
Q 3050 572 2676 248 
Q 2303 -75 1759 -75 
Q 1078 -75 664 370 
Q 250 816 250 1647 
Q 250 2184 428 2587 
Q 606 2991 970 3192 
Q 1334 3394 1763 3394 
Q 2303 3394 2647 3120 
Q 2991 2847 3088 2344 
L 2541 2259 
Q 2463 2594 2264 2762 
Q 2066 2931 1784 2931 
Q 1359 2931 1093 2626 
Q 828 2322 828 1663 
Q 828 994 1084 691 
Q 1341 388 1753 388 
Q 2084 388 2306 591 
Q 2528 794 2588 1216 
z
" transform="scale(0.015625)"/>
       <path id="ArialMT-20" transform="scale(0.015625)"/>
       <path id="ArialMT-20ac" d="M 2469 4141 
Q 1944 4141 1588 3888 
Q 1375 3738 1203 3463 
Q 1028 3178 997 2922 
L 3128 2922 
L 3044 2503 
L 947 2503 
Q 944 2438 944 2378 
Q 944 2138 947 2091 
L 2959 2091 
L 2872 1672 
L 1013 1672 
Q 1144 956 1644 656 
Q 2003 441 2422 441 
Q 3006 441 3334 747 
L 3334 103 
Q 2944 -78 2472 -78 
Q 1059 -78 563 1097 
Q 463 1334 391 1672 
L -88 1672 
L 0 2091 
L 328 2091 
Q 319 2222 319 2375 
Q 319 2438 322 2503 
L -88 2503 
L 0 2922 
L 363 2922 
Q 556 3941 1372 4384 
Q 1875 4659 2481 4659 
Q 3063 4659 3459 4406 
L 3334 3825 
Q 2953 4141 2469 4141 
z
" transform="scale(0.015625)"/>
       <path id="ArialMT-2f" d="M 0 -78 
L 1328 4659 
L 1778 4659 
L 453 -78 
L 0 -78 
z
" transform="scale(0.015625)"/>
       <path id="ArialMT-43" d="M 3763 1606 
L 4369 1453 
Q 4178 706 3683 314 
Q 3188 -78 2472 -78 
Q 1731 -78 1267 223 
Q 803 525 561 1097 
Q 319 1669 319 2325 
Q 319 3041 592 3573 
Q 866 4106 1370 4382 
Q 1875 4659 2481 4659 
Q 3169 4659 3637 4309 
Q 4106 3959 4291 3325 
L 3694 3184 
Q 3534 3684 3231 3912 
Q 2928 4141 2469 4141 
Q 1941 4141 1586 3887 
Q 1231 3634 1087 3207 
Q 944 2781 944 2328 
Q 944 1744 1114 1308 
Q 1284 872 1643 656 
Q 2003 441 2422 441 
Q 2931 441 3284 734 
Q 3638 1028 3763 1606 
z
" transform="scale(0.015625)"/>
       <path id="ArialMT-4f" d="M 309 2231 
Q 309 3372 921 4017 
Q 1534 4663 2503 4663 
Q 3138 4663 3647 4359 
Q 4156 4056 4423 3514 
Q 4691 2972 4691 2284 
Q 4691 1588 4409 1038 
Q 4128 488 3612 205 
Q 3097 -78 2500 -78 
Q 1853 -78 1343 234 
Q 834 547 571 1087 
Q 309 1628 309 2231 
z
M 934 2222 
Q 934 1394 1379 917 
Q 1825 441 2497 441 
Q 3181 441 3623 922 
Q 4066 1403 4066 2288 
Q 4066 2847 3877 3264 
Q 3688 3681 3323 3911 
Q 2959 4141 2506 4141 
Q 1863 4141 1398 3698 
Q 934 3256 934 2222 
z
" transform="scale(0.015625)"/>
      </defs>
      <use xlink:href="#ArialMT-50"/>
      <use xlink:href="#ArialMT-72" x="66.699219"/>
      <use xlink:href="#ArialMT-69" x="100"/>
      <use xlink:href="#ArialMT-63" x="122.216797"/>
      <use xlink:href="#ArialMT-65" x="172.216797"/>
      <use xlink:href="#ArialMT-20" x="227.832031"/>
      <use xlink:href="#ArialMT-20ac" x="255.615234"/>
      <use xlink:href="#ArialMT-2f" x="311.230469"/>
      <use xlink:href="#ArialMT-74" x="339.013672"/>
      <use xlink:href="#ArialMT-43" x="366.796875"/>
      <use xlink:href="#ArialMT-4f" x="439.013672"/>
      <use xlink:href="#ArialMT-32" x="516.796875"/>
      <use xlink:href="#ArialMT-65" x="572.412109"/>
     </g>
    </g>
   </g>
   <g id="line2d_12">
    <path d="M 101.929841 207.011974 
L 103.154292 206.036021 
L 104.378744 206.317545 
L 105.603195 205.904642 
L 105.953038 204.853616 
L 106.827647 204.478249 
L 108.052098 203.051856 
L 109.276549 204.590859 
L 110.850844 202.319891 
L 111.725452 201.644232 
L 114.174355 204.497018 
L 114.524198 204.215493 
L 115.74865 205.810801 
L 116.623258 205.904642 
L 117.847709 207.593792 
L 119.072161 206.580302 
L 120.296612 205.773264 
L 120.646455 205.679422 
L 121.521063 205.604349 
L 123.969966 206.655375 
L 125.194418 206.674144 
L 126.418869 206.37385 
L 127.643321 206.561534 
L 128.867772 207.087047 
L 130.442067 206.48646 
L 131.316675 204.984994 
L 132.541126 203.840126 
L 133.765578 203.633674 
L 136.21448 204.440713 
L 138.663383 206.392619 
L 139.887835 205.322824 
L 141.112286 204.759774 
L 142.336737 204.590859 
L 143.561189 203.370918 
L 144.78564 203.389686 
L 147.234543 205.247751 
L 148.458995 205.322824 
L 149.683446 204.234261 
L 150.907897 204.121651 
L 151.257741 204.609628 
L 152.132349 204.290566 
L 153.3568 204.121651 
L 153.881565 204.703469 
L 154.581252 203.614906 
L 154.756173 205.698191 
L 155.106016 203.915199 
L 155.805703 203.389686 
L 156.330468 203.46476 
L 157.030154 202.845405 
L 157.030154 202.920478 
L 157.554919 206.186167 
L 158.254606 206.542765 
L 158.254606 206.71168 
L 158.779371 206.186167 
L 159.8289 206.317545 
L 160.003822 207.16212 
L 160.703509 207.931622 
L 161.228274 206.805522 
L 161.753038 206.411387 
L 161.92796 205.885874 
L 162.277803 206.561534 
L 162.452725 206.523997 
L 162.97749 207.04951 
L 163.152411 206.749217 
L 166.650844 207.255962 
L 166.825766 206.9369 
L 167.350531 208.063 
L 167.875295 208.438367 
L 168.050217 208.025463 
L 168.40006 208.794965 
L 169.099747 210.033674 
L 169.274668 209.695845 
L 169.624512 210.258894 
L 169.799433 211.572677 
L 170.49912 211.572677 
L 171.023885 212.942765 
L 171.723571 211.159774 
L 172.248336 210.746871 
L 172.773101 210.990859 
L 173.297866 209.470625 
L 173.472788 209.545698 
L 173.997553 209.207868 
L 174.172474 210.765639 
L 174.522317 210.071211 
L 175.222004 209.921065 
L 175.396926 211.103469 
L 175.396926 210.803176 
L 175.746769 210.634261 
L 175.92169 210.146284 
L 176.446455 210.333968 
L 176.621377 210.709334 
L 176.621377 210.577956 
L 176.97122 211.122238 
L 177.146142 211.065933 
L 177.670907 211.328689 
L 177.845828 211.985581 
L 178.195672 212.54863 
L 178.370593 212.342179 
L 178.895358 212.342179 
L 179.07028 212.623704 
L 179.595045 210.915786 
L 180.11981 211.159774 
L 180.294731 209.996138 
L 180.294731 210.333968 
L 180.644574 209.996138 
L 181.519183 210.596724 
L 181.869026 210.052443 
L 182.043947 209.376783 
L 182.743634 209.658308 
L 183.093477 210.784408 
L 183.793164 210.071211 
L 183.968085 210.089979 
L 184.317929 213.693499 
L 184.49285 213.036607 
L 185.192537 213.881182 
L 185.192537 213.67473 
L 185.367458 213.243059 
L 185.54238 213.393205 
L 185.54238 213.318132 
L 185.717302 213.318132 
L 186.242067 213.149217 
L 186.416988 212.792619 
L 186.766832 213.411974 
L 186.941753 213.318132 
L 187.466518 212.004349 
L 187.64144 211.948044 
L 188.166205 212.248337 
L 188.690969 212.792619 
L 188.865891 212.792619 
L 189.390656 212.192032 
L 190.090342 212.304642 
L 190.440186 212.848924 
L 190.615107 212.66124 
L 191.314794 212.285874 
L 191.664637 212.004349 
L 191.839559 211.422531 
L 192.364324 211.722824 
L 192.539245 211.535141 
L 192.889089 211.535141 
L 193.06401 211.122238 
L 193.588775 211.084701 
L 193.763697 211.403762 
L 194.11354 210.315199 
L 194.288462 210.596724 
L 194.813226 210.127516 
L 194.988148 210.165053 
L 195.337991 210.784408 
L 195.512913 210.728103 
L 196.037678 210.990859 
L 196.2126 211.272384 
L 196.562443 210.765639 
L 196.737364 210.765639 
L 197.262129 211.234848 
L 197.786894 210.315199 
L 197.961816 210.596724 
L 198.486581 211.047164 
L 198.661502 210.972091 
L 199.186267 211.441299 
L 199.711032 211.366226 
L 199.885954 211.141006 
L 200.935484 211.159774 
L 201.110405 210.859481 
L 201.63517 210.821944 
L 202.159935 210.897018 
L 202.334857 210.728103 
L 202.6847 210.671798 
L 202.859621 210.784408 
L 203.559308 210.615493 
L 204.084073 210.446578 
L 204.608838 210.596724 
L 204.783759 210.821944 
L 205.308524 210.728103 
L 206.008211 210.821944 
L 206.532976 210.427809 
L 207.232662 210.521651 
L 207.582505 210.277663 
L 208.457114 210.634261 
L 209.506643 208.757428 
L 209.681565 209.226636 
L 210.20633 208.776196 
L 211.25586 208.719891 
L 211.430781 208.907575 
L 211.955546 209.020185 
L 211.955546 208.776196 
L 212.130468 208.588513 
L 212.480311 208.85127 
L 212.655233 208.757428 
L 213.179998 209.1891 
L 213.354919 209.376783 
L 213.879684 209.245405 
L 214.404449 209.376783 
L 214.579371 209.695845 
L 215.104136 210.258894 
L 215.6289 210.333968 
L 215.6289 210.296431 
L 215.803822 209.339246 
L 216.153665 208.96388 
L 216.853352 209.883528 
L 216.853352 209.583235 
L 217.028274 210.146284 
L 217.553038 210.202589 
L 218.077803 209.75215 
L 218.252725 209.883528 
L 218.602568 209.714613 
L 218.77749 210.165053 
L 219.302255 210.258894 
L 219.302255 210.146284 
L 219.477176 210.033674 
L 220.001941 209.883528 
L 220.526706 210.502883 
L 220.526706 210.465346 
L 220.701628 210.277663 
L 221.051471 210.165053 
L 221.226393 210.484114 
L 221.751158 210.728103 
L 221.751158 210.634261 
L 221.926079 210.521651 
L 222.450844 210.446578 
L 222.975609 210.634261 
L 222.975609 210.634261 
L 223.500374 210.577956 
L 223.675295 210.671798 
L 224.20006 210.728103 
L 224.20006 210.671798 
L 224.374982 210.465346 
L 224.724825 210.427809 
L 224.899747 210.033674 
L 225.424512 210.014906 
L 225.424512 210.127516 
L 225.599433 209.845991 
L 225.949277 209.902296 
L 226.124198 209.770918 
L 226.823885 210.033674 
L 230.672161 210.052443 
L 231.022004 210.502883 
L 231.546769 210.371504 
L 232.071534 209.451856 
L 232.246455 209.395551 
L 232.77122 209.376783 
L 232.946142 209.602003 
L 233.295985 209.433088 
L 233.470907 209.52693 
L 234.170593 208.588513 
L 234.695358 208.344525 
L 235.220123 208.569745 
L 235.395045 207.72517 
L 235.744888 207.575023 
L 235.91981 206.749217 
L 236.969339 207.199657 
L 237.144261 207.011974 
L 237.843947 206.204935 
L 238.193791 205.867106 
L 238.368712 205.998484 
L 238.893477 205.529276 
L 239.418242 206.71168 
L 239.593164 206.036021 
L 240.117929 205.773264 
L 240.29285 206.37385 
L 240.467772 205.923411 
L 240.642694 206.26124 
L 240.817615 206.242472 
L 241.34238 205.848337 
L 241.867145 206.636607 
L 242.042067 207.237194 
L 242.566832 207.312267 
L 242.741753 207.593792 
L 243.091596 207.593792 
L 243.266518 207.406109 
L 243.791283 207.443645 
L 245.015734 211.028396 
L 245.190656 209.658308 
L 245.540499 210.221358 
L 245.715421 209.939833 
L 246.240186 209.996138 
L 246.415107 209.41432 
L 246.764951 209.470625 
L 246.939872 208.982648 
L 247.464637 208.907575 
L 247.639559 209.038953 
L 247.989402 208.607282 
L 248.86401 208.306988 
L 249.213853 208.025463 
L 249.388775 208.494672 
L 249.91354 209.07649 
L 250.088462 208.73866 
L 250.613226 208.945111 
L 251.137991 209.41432 
L 251.312913 209.001416 
L 251.662756 209.30171 
L 251.837678 209.282941 
L 252.537364 208.832501 
L 252.887208 209.939833 
L 253.761816 210.240126 
L 254.111659 209.038953 
L 254.286581 209.320478 
L 254.811346 209.508161 
L 254.986267 209.376783 
L 255.511032 209.282941 
L 256.035797 209.583235 
L 256.210719 209.114026 
L 256.560562 208.532208 
L 256.735484 208.701123 
L 257.43517 208.62605 
L 257.785013 208.719891 
L 257.959935 208.28822 
L 258.4847 208.194378 
L 258.659621 208.438367 
L 259.009465 208.344525 
L 259.184386 208.419598 
L 259.709151 208.269452 
L 259.884073 207.894085 
L 260.408838 208.156842 
L 261.458368 207.650097 
L 261.633289 207.762707 
L 262.158054 208.532208 
L 262.682819 208.119305 
L 262.857741 208.269452 
L 263.382505 208.156842 
L 263.557427 207.819012 
L 263.90727 207.462413 
L 264.082192 207.593792 
L 264.606957 207.556255 
L 264.781879 207.406109 
L 265.131722 207.406109 
L 265.306643 207.61256 
L 266.356173 207.38734 
L 266.531095 207.04951 
L 267.05586 207.087047 
L 267.230781 207.27473 
L 267.580625 207.218425 
L 267.755546 207.72517 
L 268.280311 207.687633 
L 268.805076 207.180889 
L 268.979998 207.255962 
L 269.504763 206.955669 
L 269.679684 207.068279 
L 270.029527 206.786754 
L 270.204449 206.955669 
L 270.904136 207.105815 
L 271.4289 206.843059 
L 271.953665 207.124584 
L 272.128587 206.9369 
L 272.303509 208.156842 
L 272.47843 207.124584 
L 272.653352 207.518718 
L 273.178117 207.124584 
L 273.353038 207.16212 
L 273.877803 207.481182 
L 274.402568 207.687633 
L 274.57749 207.95039 
L 274.927333 207.912853 
L 275.102255 207.706402 
L 275.62702 207.631328 
L 276.151784 208.119305 
L 276.326706 207.969158 
L 276.851471 207.875317 
L 277.201314 208.532208 
L 277.376236 208.081768 
L 278.250844 208.213147 
L 278.600687 207.481182 
L 279.300374 207.819012 
L 279.475295 207.575023 
L 280.00006 207.16212 
L 280.524825 207.537487 
L 280.699747 207.312267 
L 281.04959 207.293499 
L 281.224512 206.9369 
L 281.749277 206.974437 
L 281.924198 207.105815 
L 282.09912 207.743938 
L 282.274042 206.880595 
L 282.973728 207.030742 
L 283.14865 206.542765 
L 284.722944 206.129862 
L 284.897866 206.280009 
L 285.422631 206.392619 
L 285.597553 205.885874 
L 285.947396 205.848337 
L 286.122317 205.942179 
L 286.822004 205.623117 
L 286.996926 205.904642 
L 287.171847 205.548044 
L 287.346769 205.679422 
L 287.871534 205.810801 
L 288.046455 205.716959 
L 288.57122 206.355082 
L 289.270907 206.467692 
L 289.795672 206.392619 
L 290.320437 206.467692 
L 290.495358 205.848337 
L 294.693477 206.26124 
L 295.218242 206.48646 
L 295.743007 205.529276 
L 295.917929 205.623117 
L 296.442694 205.604349 
L 296.617615 205.247751 
L 296.967458 205.679422 
L 297.14238 206.073557 
L 297.667145 206.167399 
L 297.842067 206.054789 
L 298.016988 206.542765 
L 298.016988 206.167399 
L 298.19191 205.867106 
L 299.066518 205.604349 
L 299.416361 205.960947 
L 299.591283 205.867106 
L 300.465891 205.960947 
L 300.640813 205.172677 
L 300.815734 205.060067 
L 301.340499 204.478249 
L 301.515421 204.553323 
L 302.040186 205.228982 
L 302.564951 205.341592 
L 302.739872 204.478249 
L 302.914794 205.060067 
L 303.089716 205.172677 
L 303.264637 205.848337 
L 303.789402 205.904642 
L 303.964324 206.054789 
L 304.314167 205.792032 
L 304.489089 206.280009 
L 305.188775 206.336314 
L 305.363697 206.692912 
L 305.538618 206.448924 
L 305.71354 207.105815 
L 306.413226 206.749217 
L 306.76307 206.280009 
L 306.937991 206.280009 
L 307.637678 205.679422 
L 307.8126 205.942179 
L 307.8126 206.14863 
L 307.987521 205.716959 
L 308.162443 205.904642 
L 308.862129 206.111094 
L 309.211973 205.454202 
L 310.086581 205.566812 
L 310.436424 205.491739 
L 310.611346 205.792032 
L 311.311032 206.14863 
L 312.360562 205.942179 
L 312.535484 205.585581 
L 312.710405 206.186167 
L 313.060248 205.210214 
L 313.585013 205.097604 
L 313.759935 205.416666 
L 314.109778 204.741006 
L 314.984386 204.778543 
L 315.159308 205.247751 
L 315.33423 204.778543 
L 315.509151 204.909921 
L 316.033916 204.778543 
L 316.208838 204.553323 
L 316.733603 204.816079 
L 317.433289 204.759774 
L 317.783132 205.153909 
L 317.958054 205.247751 
L 318.657741 205.191446 
L 319.182505 205.304056 
L 319.882192 205.228982 
L 320.406957 204.966226 
L 320.931722 205.003762 
L 321.106643 204.816079 
L 321.456487 204.628396 
L 321.631408 204.741006 
L 322.156173 204.703469 
L 322.331095 204.816079 
L 323.380625 204.909921 
L 324.080311 204.778543 
L 324.779998 205.041299 
L 324.954919 205.416666 
L 325.129841 204.928689 
L 325.304763 204.928689 
L 326.004449 205.060067 
L 327.053979 204.515786 
L 327.2289 204.365639 
L 327.578744 204.421944 
L 327.753665 204.590859 
L 328.27843 204.290566 
L 328.453352 203.990273 
L 328.803195 203.765053 
L 329.677803 203.933968 
L 329.852725 203.783821 
L 330.027647 203.840126 
L 330.202568 204.177956 
L 330.902255 203.952736 
L 331.42702 204.234261 
L 331.951784 204.253029 
L 332.476549 203.502296 
L 332.651471 203.558601 
L 333.176236 203.35215 
L 333.351158 203.521065 
L 333.875922 203.258308 
L 334.400687 203.689979 
L 334.575609 203.427223 
L 335.100374 203.765053 
L 335.80006 203.877663 
L 336.324825 203.727516 
L 336.84959 203.802589 
L 337.024512 203.671211 
L 337.199433 203.952736 
L 337.374355 203.370918 
L 337.549277 203.427223 
L 338.773728 203.539833 
L 339.473415 203.877663 
L 339.648336 203.765053 
L 339.998179 203.952736 
L 340.697866 204.084114 
L 341.047709 203.46476 
L 341.222631 203.652443 
L 341.922317 203.539833 
L 342.097239 203.896431 
L 342.447082 203.539833 
L 343.146769 203.277076 
L 343.496612 202.976783 
L 343.671534 203.145698 
L 344.37122 203.23954 
L 344.895985 202.864173 
L 345.42075 202.807868 
L 345.595672 202.657721 
L 346.645201 202.826636 
L 346.820123 202.751563 
L 346.995045 203.370918 
L 347.344888 202.995551 
L 348.044574 203.314613 
L 348.569339 203.202003 
L 349.793791 202.732795 
L 350.318556 202.976783 
L 350.493477 202.657721 
L 350.843321 202.695258 
L 351.018242 202.826636 
L 351.717929 202.864173 
L 352.067772 203.01432 
L 352.242694 202.7891 
L 353.292223 203.23954 
L 353.467145 203.877663 
L 353.99191 203.990273 
L 354.166832 203.746284 
L 354.516675 203.614906 
L 358.955311 204.872384 
L 359.130233 205.641886 
L 359.480076 205.623117 
L 359.654998 206.26124 
L 360.179763 206.617839 
L 360.354684 206.073557 
L 360.529606 206.523997 
L 360.704527 207.518718 
L 360.879449 206.974437 
L 361.579136 207.969158 
L 362.1039 207.481182 
L 362.803587 208.40083 
L 362.978509 208.156842 
L 363.15343 208.438367 
L 363.328352 208.438367 
L 364.028038 209.114026 
L 364.377882 210.127516 
L 364.552803 209.583235 
L 365.077568 209.52693 
L 365.25249 209.883528 
L 365.427411 209.845991 
L 365.602333 209.057721 
L 365.777255 208.982648 
L 366.476941 209.207868 
L 366.826784 209.883528 
L 367.001706 209.320478 
L 367.526471 209.75215 
L 367.701393 209.658308 
L 367.876314 209.845991 
L 368.051236 209.695845 
L 368.226158 209.845991 
L 368.925844 209.470625 
L 369.450609 209.451856 
L 369.975374 209.620771 
L 370.150295 209.827223 
L 370.325217 209.583235 
L 371.72459 209.921065 
L 372.77412 209.902296 
L 373.123963 209.132795 
L 373.648728 209.320478 
L 373.82365 208.982648 
L 374.348415 209.038953 
L 374.873179 208.682355 
L 375.048101 208.28822 
L 375.223023 208.682355 
L 375.572866 208.457135 
L 376.097631 208.757428 
L 376.797317 208.081768 
L 377.322082 207.743938 
L 377.497004 207.443645 
L 377.671926 205.829569 
L 378.021769 207.04951 
L 378.721455 207.819012 
L 379.24622 207.349804 
L 379.770985 207.668865 
L 379.945907 208.250683 
L 380.120828 208.119305 
L 380.29575 207.518718 
L 380.470672 208.063 
L 381.170358 207.706402 
L 381.520201 207.83778 
L 381.695123 207.687633 
L 382.219888 207.875317 
L 382.39481 208.100537 
L 382.919574 207.781475 
L 383.619261 207.593792 
L 384.144026 207.668865 
L 384.843712 207.331035 
L 385.193556 207.49995 
L 385.368477 207.72517 
L 386.068164 208.006695 
L 386.418007 207.931622 
L 386.592929 208.194378 
L 387.117694 208.044232 
L 387.467537 208.438367 
L 387.642458 208.344525 
L 387.81738 209.545698 
L 388.517067 209.845991 
L 389.041832 210.690566 
L 389.741518 209.733381 
L 389.91644 210.427809 
L 390.091361 210.033674 
L 390.266283 210.502883 
L 390.791048 210.502883 
L 390.965969 210.352736 
L 391.315813 209.86476 
L 391.490734 210.127516 
L 392.015499 209.52693 
L 392.365342 210.127516 
L 392.540264 210.033674 
L 392.715186 210.221358 
L 393.414872 210.390273 
L 393.764716 210.258894 
L 393.939637 210.634261 
L 394.464402 210.634261 
L 394.639324 210.746871 
L 395.164089 209.939833 
L 395.688853 209.86476 
L 395.863775 209.714613 
L 396.213618 209.939833 
L 396.38854 209.733381 
L 397.088226 209.883528 
L 397.43807 210.315199 
L 397.612991 210.014906 
L 398.837443 210.014906 
L 400.061894 210.746871 
L 400.761581 211.460067 
L 401.286346 211.216079 
L 401.811111 211.460067 
L 401.986032 211.403762 
L 402.335875 211.460067 
L 402.510797 210.859481 
L 403.035562 210.915786 
L 403.210484 210.784408 
L 403.735248 210.634261 
L 404.609857 210.277663 
L 404.784778 209.358015 
L 404.9597 209.470625 
L 405.659386 209.151563 
L 406.00923 208.194378 
L 406.184151 208.306988 
L 406.708916 208.475903 
L 406.883838 208.382062 
L 407.408603 208.250683 
L 408.108289 207.800243 
L 408.633054 208.382062 
L 409.157819 207.743938 
L 409.332741 208.006695 
L 409.682584 207.781475 
L 409.857505 208.156842 
L 410.38227 208.044232 
L 411.081957 206.580302 
L 411.606722 206.730449 
L 411.781643 207.406109 
L 412.306408 207.875317 
L 412.831173 208.457135 
L 413.355938 208.344525 
L 413.53086 208.100537 
L 414.230546 208.682355 
L 414.405468 208.607282 
L 414.755311 209.376783 
L 415.280076 209.845991 
L 415.454998 210.296431 
L 416.679449 211.065933 
L 417.029292 210.915786 
L 417.204214 210.446578 
L 417.728979 210.127516 
L 417.9039 209.808455 
L 418.253744 209.545698 
L 418.428665 210.240126 
L 422.561189 209.470625 
L 422.736111 208.344525 
L 423.260875 209.358015 
L 423.78564 209.545698 
L 423.960562 209.845991 
L 424.310405 209.695845 
L 424.485327 209.170331 
L 425.010092 208.832501 
L 425.534857 209.602003 
L 425.709778 209.376783 
L 426.234543 209.489393 
L 426.409465 209.095258 
L 426.93423 209.057721 
L 427.633916 209.320478 
L 428.158681 208.907575 
L 428.858368 209.564466 
L 429.208211 209.545698 
L 429.383132 209.75215 
L 430.082819 209.30171 
L 430.432662 209.151563 
L 430.607584 208.888806 
L 431.132349 208.945111 
L 431.30727 209.1891 
L 431.657114 208.081768 
L 431.832035 208.438367 
L 432.531722 208.663587 
L 433.056487 209.320478 
L 433.756173 209.170331 
L 434.106016 209.339246 
L 434.280938 209.226636 
L 434.805703 209.376783 
L 434.980625 209.602003 
L 435.330468 209.508161 
L 435.505389 209.695845 
L 436.205076 210.165053 
L 436.379998 210.014906 
L 436.554919 210.165053 
L 436.729841 209.75215 
L 437.254606 210.033674 
L 437.429527 209.883528 
L 437.779371 209.733381 
L 437.954292 209.358015 
L 438.653979 209.902296 
L 439.003822 209.602003 
L 440.228274 209.921065 
L 441.102882 210.183821 
L 441.277803 210.427809 
L 441.452725 210.277663 
L 441.627647 210.371504 
L 442.327333 210.446578 
L 442.677176 210.690566 
L 442.852098 210.371504 
L 443.551784 210.653029 
L 443.726706 210.427809 
L 444.076549 210.859481 
L 444.776236 210.502883 
L 445.301001 209.902296 
L 446.000687 209.695845 
L 446.175609 209.827223 
L 447.225139 209.282941 
L 447.749904 209.339246 
L 448.44959 209.170331 
L 448.624512 209.52693 
L 448.974355 209.508161 
L 449.674042 209.489393 
L 450.723571 209.770918 
L 450.898493 209.489393 
L 451.073415 209.564466 
L 451.248336 209.827223 
L 451.423258 209.714613 
L 452.122944 209.845991 
L 452.472788 209.376783 
L 453.172474 209.508161 
L 453.522317 209.282941 
L 453.697239 209.339246 
L 453.872161 209.020185 
L 454.396926 208.532208 
L 454.571847 208.776196 
L 454.92169 208.607282 
L 455.096612 208.96388 
L 455.796299 208.607282 
L 456.845828 209.395551 
L 457.02075 209.245405 
L 457.370593 209.095258 
L 457.545515 209.358015 
L 458.07028 209.038953 
L 458.245201 208.344525 
L 458.420123 208.926343 
L 458.595045 208.757428 
L 459.294731 209.020185 
L 459.469653 208.982648 
L 459.819496 208.719891 
L 459.994418 208.813733 
L 460.519183 208.701123 
L 460.869026 208.306988 
L 461.043947 207.781475 
L 461.218869 207.969158 
L 461.743634 207.95039 
L 461.918556 208.063 
L 462.268399 207.631328 
L 462.443321 207.72517 
L 463.143007 207.462413 
L 464.192537 207.969158 
L 464.892223 205.904642 
L 465.416988 206.092326 
L 465.59191 206.37385 
L 465.941753 204.928689 
L 466.116675 205.792032 
L 466.64144 205.998484 
L 466.816361 205.810801 
L 467.341126 206.655375 
L 468.040813 205.773264 
L 468.215734 206.26124 
L 468.390656 206.036021 
L 468.565578 205.548044 
L 469.615107 205.867106 
L 469.790029 206.14863 
L 470.314794 205.867106 
L 470.489716 205.904642 
L 470.664637 204.966226 
L 471.539245 205.247751 
L 472.06401 204.102883 
L 472.238932 204.665933 
L 472.938618 204.947457 
L 473.11354 204.947457 
L 473.11354 205.078836 
L 473.288462 204.853616 
L 473.463383 205.247751 
L 474.16307 205.510507 
L 474.512913 204.741006 
L 475.2126 204.009041 
L 475.387521 204.046578 
L 475.562443 204.759774 
L 475.737364 204.234261 
L 475.912286 205.060067 
L 476.611973 205.228982 
L 476.961816 204.440713 
L 477.136737 204.909921 
L 477.661502 205.116372 
L 477.836424 204.759774 
L 478.011346 204.853616 
L 478.011346 205.041299 
L 478.186267 205.022531 
L 478.361189 204.403176 
L 478.885954 204.421944 
L 479.060875 204.609628 
L 479.410719 204.590859 
L 479.58564 204.778543 
L 480.110405 204.534554 
L 480.460248 205.003762 
L 480.460248 205.266519 
L 480.810092 205.266519 
L 481.334857 205.529276 
L 481.509778 205.022531 
L 481.859621 205.792032 
L 482.034543 205.585581 
L 486.232662 204.159188 
L 486.407584 204.440713 
L 486.757427 204.046578 
L 486.932349 204.234261 
L 487.457114 204.365639 
L 487.632035 204.271798 
L 487.981879 203.35215 
L 488.1568 202.714026 
L 488.681565 202.526343 
L 489.20633 201.32517 
L 489.381252 201.925757 
L 489.906016 201.850683 
L 490.25586 202.376196 
L 490.430781 201.268865 
L 490.605703 201.88822 
L 491.130468 202.601416 
L 491.305389 202.263587 
L 492.354919 201.813147 
L 492.704763 200.31168 
L 493.054606 200.968572 
L 493.579371 200.87473 
L 493.754292 200.64951 
L 494.104136 200.912267 
L 494.279057 200.687047 
L 494.978744 200.949804 
L 495.153665 200.105229 
L 495.503509 200.292912 
L 496.028274 199.992619 
L 496.72796 198.021944 
L 497.252725 197.609041 
L 497.427647 198.153323 
L 497.602568 197.740419 
L 497.952411 198.265933 
L 498.477176 198.284701 
L 498.652098 197.890566 
L 499.001941 195.319305 
L 499.176863 195.638367 
L 499.701628 194.831328 
L 499.876549 193.967985 
L 500.051471 192.485287 
L 501.450844 195.112853 
L 501.625766 195.056548 
L 502.325452 194.268279 
L 502.500374 193.423704 
L 502.675295 194.174437 
L 502.850217 192.954496 
L 503.549904 192.916959 
L 503.899747 192.597897 
L 504.074668 194.36212 
L 504.774355 194.962707 
L 505.124198 193.723997 
L 505.29912 193.930449 
L 505.823885 193.79907 
L 506.34865 194.887633 
L 506.523571 194.868865 
L 507.223258 193.498777 
L 507.398179 192.729276 
L 508.272788 192.203762 
L 508.447709 191.265346 
L 509.672161 189.050683 
L 509.847082 189.31344 
L 510.022004 188.393792 
L 510.196926 189.031915 
L 510.896612 188.356255 
L 511.421377 190.889979 
L 511.946142 190.176783 
L 512.121063 188.168572 
L 512.295985 189.388513 
L 512.470907 188.562707 
L 512.645828 189.238367 
L 513.170593 189.388513 
L 513.345515 190.55215 
L 513.695358 189.87649 
L 513.87028 191.415493 
L 514.395045 191.603176 
L 514.569966 191.922238 
L 514.744888 191.772091 
L 514.744888 192.184994 
L 514.91981 192.203762 
L 515.094731 191.115199 
L 515.619496 190.645991 
L 515.794418 190.965053 
L 516.144261 190.289393 
L 516.319183 190.983821 
L 516.843947 190.796138 
L 517.193791 190.045405 
L 517.368712 189.951563 
L 517.543634 189.670038 
L 518.068399 189.106988 
L 518.243321 188.543938 
L 518.593164 188.41256 
L 518.768085 189.20083 
L 519.29285 188.562707 
L 519.467772 189.069452 
L 519.992537 187.136314 
L 520.517302 186.573264 
L 520.692223 186.104056 
L 521.216988 187.117545 
L 521.916675 187.192619 
L 522.266518 185.860067 
L 522.44144 185.784994 
L 522.966205 185.784994 
L 523.141126 186.066519 
L 523.490969 186.066519 
L 523.665891 185.597311 
L 524.365578 185.015493 
L 524.715421 185.071798 
L 524.890342 184.884114 
L 525.415107 184.696431 
L 525.590029 184.03954 
L 526.114794 180.285874 
L 526.81448 178.878249 
L 526.989402 179.628982 
L 527.164324 179.272384 
L 527.339245 179.234848 
L 527.86401 180.473557 
L 528.038932 180.379716 
L 529.088462 172.215493 
L 529.438305 174.655375 
L 529.788148 182.23778 
L 530.837678 177.939833 
L 531.537364 176.832501 
L 531.712286 177.75215 
L 531.887208 180.567399 
L 532.062129 181.56212 
L 532.237051 180.755082 
L 532.761816 180.004349 
L 532.936737 178.596724 
L 533.286581 179.159774 
L 533.461502 179.178543 
L 533.986267 177.395551 
L 534.336111 180.604935 
L 534.336111 180.004349 
L 534.511032 184.002003 
L 534.685954 181.411974 
L 535.210719 181.261827 
L 535.38564 185.259481 
L 535.735484 184.077076 
L 535.910405 182.875903 
L 536.43517 183.007282 
L 536.610092 184.133381 
L 536.785013 183.007282 
L 536.959935 183.720478 
L 537.134857 183.232501 
L 537.659621 185.240713 
L 537.834543 187.192619 
L 538.184386 189.106988 
L 538.359308 188.543938 
L 538.884073 188.07473 
L 539.058995 186.967399 
L 539.408838 182.143938 
L 539.583759 182.725757 
L 540.108524 181.299364 
L 540.283446 181.768572 
L 540.633289 184.208455 
L 541.332976 184.26476 
L 541.682819 181.130449 
L 541.857741 180.755082 
L 542.557427 181.862413 
L 542.732349 181.749804 
L 543.082192 182.538073 
L 543.781879 180.342179 
L 544.131722 180.923997 
L 544.306643 184.03954 
L 545.00633 181.749804 
L 545.181252 179.872971 
L 545.531095 177.789686 
L 546.230781 174.9369 
L 549.904136 175.668865 
L 550.4289 178.690566 
L 551.128587 177.658308 
L 551.303509 176.532208 
L 551.47843 176.044232 
L 551.653352 174.655375 
L 552.52796 173.022531 
L 552.877803 172.684701 
L 553.752411 176.757428 
L 553.927333 175.856548 
L 554.277176 178.728103 
L 554.801941 178.728103 
L 554.976863 175.819012 
L 555.326706 174.186167 
L 556.026393 177.939833 
L 556.201314 178.108748 
L 556.376236 181.299364 
L 556.551158 179.704056 
L 556.726079 181.3369 
L 557.250844 181.055375 
L 557.425766 180.830155 
L 557.775609 181.599657 
L 557.950531 184.414906 
L 558.475295 183.908161 
L 558.825139 180.736314 
L 559.174982 178.859481 
L 559.699747 177.339246 
L 559.874668 175.95039 
L 560.224512 177.508161 
L 560.399433 175.912853 
L 561.09912 176.663587 
L 561.274042 177.602003 
L 561.448963 177.132795 
L 561.623885 176.119305 
L 562.323571 178.784408 
L 562.673415 179.253616 
L 562.848336 180.116959 
L 563.373101 180.192032 
L 563.722944 178.596724 
L 563.897866 178.409041 
L 564.072788 177.883528 
L 564.597553 179.328689 
L 564.772474 178.690566 
L 565.297239 173.491739 
L 565.822004 173.679422 
L 566.171847 169.663 
L 566.346769 170.282355 
L 566.52169 168.705815 
L 567.046455 168.180302 
L 567.221377 168.555669 
L 568.445828 167.86124 
L 568.62075 168.142765 
L 568.795672 167.316959 
L 568.970593 168.574437 
L 569.495358 170.413733 
L 569.67028 170.33866 
L 570.020123 171.858894 
L 570.195045 173.210214 
L 570.894731 170.714026 
L 571.069653 169.118718 
L 571.069653 170.394965 
L 571.244574 168.5369 
L 571.944261 171.46476 
L 572.119183 171.877663 
L 572.469026 170.413733 
L 572.643947 171.915199 
L 573.168712 172.102883 
L 573.343634 171.915199 
L 573.518556 170.714026 
L 573.693477 169.963293 
L 573.868399 170.7891 
L 574.568085 171.370918 
L 575.792537 174.073557 
L 575.967458 173.022531 
L 576.14238 173.679422 
L 576.317302 173.360361 
L 577.016988 171.708748 
L 577.366832 172.084114 
L 577.541753 172.553323 
L 578.066518 172.346871 
L 578.24144 171.971504 
L 578.416361 171.971504 
L 578.591283 172.196724 
L 578.766205 172.177956 
L 579.290969 170.732795 
L 579.815734 167.992619 
L 579.990656 169.306402 
L 580.515421 168.705815 
L 580.690342 167.767399 
L 580.865264 169.43778 
L 581.040186 169.644232 
L 581.215107 170.357428 
L 581.739872 168.931035 
L 581.914794 168.780889 
L 582.264637 165.365053 
L 582.439559 165.834261 
L 582.964324 164.145111 
L 583.139245 164.238953 
L 583.314167 166.359774 
L 583.314167 165.609041 
L 583.489089 166.322238 
L 583.66401 166.021944 
L 584.363697 164.332795 
L 584.71354 163.563293 
L 584.888462 165.346284 
L 585.413226 164.802003 
L 585.588148 165.965639 
L 585.76307 166.228396 
L 585.937991 164.61432 
L 586.112913 164.238953 
L 586.637678 164.764466 
L 586.8126 165.402589 
L 587.162443 165.027223 
L 587.337364 165.609041 
L 587.862129 166.866519 
L 588.037051 167.992619 
L 588.211973 167.898777 
L 588.561816 169.831915 
L 589.086581 169.587927 
L 589.261502 168.292912 
L 589.786267 171.314613 
L 590.485954 171.46476 
L 590.660875 170.057135 
L 590.835797 170.188513 
L 591.010719 168.555669 
L 591.710405 172.271798 
L 592.23517 171.070625 
L 592.759935 171.915199 
L 592.934857 170.995551 
L 593.109778 168.780889 
L 593.109778 169.419012 
L 593.2847 169.024877 
L 593.459621 169.644232 
L 594.159308 168.64951 
L 594.509151 170.882941 
L 594.684073 169.738073 
L 595.208838 170.188513 
L 595.558681 171.614906 
L 595.908524 171.370918 
L 596.433289 171.877663 
L 596.608211 173.060067 
L 596.958054 173.754496 
L 597.132976 174.918132 
L 597.657741 176.119305 
L 597.832662 174.993205 
L 598.007584 177.264173 
L 598.007584 176.96388 
L 598.357427 174.523997 
L 598.882192 174.14863 
L 599.406957 170.132208 
L 599.581879 170.732795 
L 600.106643 170.244818 
L 600.281565 170.620185 
L 600.631408 172.665933 
L 600.80633 172.196724 
L 601.331095 172.534554 
L 601.506016 171.183235 
L 601.85586 170.150977 
L 602.555546 172.065346 
L 602.730468 170.432501 
L 602.905389 171.746284 
L 602.905389 171.596138 
L 603.255233 172.647164 
L 603.779998 171.539833 
L 604.304763 173.285287 
L 604.479684 174.918132 
L 605.004449 174.918132 
L 605.179371 174.523997 
L 605.354292 175.04951 
L 605.704136 173.210214 
L 606.2289 172.834848 
L 606.403822 173.266519 
L 606.928587 171.877663 
L 607.628274 173.041299 
L 607.803195 173.623117 
L 608.153038 172.497018 
L 608.677803 173.060067 
L 608.852725 171.971504 
L 609.202568 172.647164 
L 609.37749 171.314613 
L 609.902255 173.416666 
L 614.100374 173.792032 
L 614.275295 172.909921 
L 614.80006 173.754496 
L 614.974982 174.298777 
L 615.499747 171.915199 
L 616.024512 170.807868 
L 616.199433 171.746284 
L 616.724198 172.909921 
L 617.248963 173.735727 
L 617.423885 172.778543 
L 617.773728 174.298777 
L 617.94865 174.786754 
L 618.473415 175.312267 
L 618.648336 175.068279 
L 618.998179 174.9369 
L 619.173101 175.368572 
L 619.697866 175.856548 
L 620.222631 174.71168 
L 620.397553 173.304056 
L 620.922317 173.604349 
L 621.097239 172.309334 
L 621.447082 170.995551 
L 621.622004 171.652443 
L 622.146769 172.609628 
L 622.846455 174.82429 
L 623.37122 173.885874 
L 623.546142 175.199657 
L 623.895985 173.998484 
L 624.070907 175.011974 
L 624.595672 176.344525 
L 624.770593 174.26124 
L 624.945515 174.580302 
L 625.120437 175.969158 
L 625.295358 176.100537 
L 625.820123 180.116959 
M 626.344888 188.769158 
L 626.51981 188.168572 
L 627.044574 191.453029 
L 627.394418 187.042472 
L 627.569339 188.262413 
L 627.744261 187.793205 
L 628.269026 188.224877 
L 628.443947 186.197897 
L 628.793791 185.972677 
L 628.968712 185.259481 
L 629.493477 184.396138 
L 629.668399 179.234848 
L 629.843321 181.186754 
L 629.843321 179.929276 
L 630.018242 178.690566 
L 630.89285 180.99907 
L 631.242694 181.130449 
L 631.417615 177.808455 
L 631.94238 178.990859 
L 632.292223 181.78734 
L 632.642067 180.398484 
L 633.166832 180.567399 
L 633.341753 181.3369 
L 633.691596 181.374437 
L 634.741126 183.47649 
L 634.741126 185.541006 
L 634.916048 183.194965 
L 635.090969 182.481768 
L 636.140499 184.37737 
L 636.315421 183.157428 
L 636.840186 182.631915 
L 637.015107 181.280595 
L 637.190029 181.11168 
L 638.239559 178.596724 
L 638.589402 179.535141 
L 638.764324 178.127516 
L 639.46401 179.159774 
L 639.638932 177.602003 
L 639.813853 177.996138 
L 639.988775 176.62605 
L 640.51354 176.325757 
L 640.688462 177.001416 
L 641.213226 177.282941 
L 641.737991 177.939833 
L 641.912913 175.931622 
L 642.087835 176.044232 
L 642.437678 173.472971 
L 642.962443 173.529276 
L 643.137364 172.215493 
L 643.487208 171.652443 
L 643.662129 172.121651 
L 644.186894 172.421944 
L 644.536737 167.992619 
L 644.711659 167.711094 
L 644.886581 168.180302 
L 645.586267 163.788513 
L 645.936111 165.402589 
L 646.111032 166.941592 
L 646.635797 162.47473 
L 646.810719 164.05127 
L 646.98564 162.906402 
L 647.335484 168.461827 
L 647.860248 168.461827 
L 648.03517 169.419012 
L 648.385013 168.630742 
L 648.559935 168.98734 
L 649.259621 171.877663 
L 649.434543 170.132208 
L 649.609465 171.295845 
L 649.784386 169.494085 
L 650.309151 170.413733 
L 650.484073 170.150977 
L 650.833916 168.274144 
L 651.008838 169.756842 
L 651.533603 168.330449 
L 651.708524 168.724584 
L 651.883446 170.90171 
L 652.058368 170.169745 
L 652.233289 171.46476 
L 652.758054 171.145698 
L 652.932976 169.963293 
L 653.282819 170.620185 
L 653.457741 171.258308 
L 653.982505 168.931035 
L 654.332349 165.515199 
L 654.50727 166.247164 
L 654.682192 163.48822 
L 655.381879 165.777956 
L 655.906643 164.802003 
L 656.431408 168.367985 
L 656.60633 167.711094 
L 656.781252 170.019598 
L 657.131095 166.209628 
L 657.65586 165.06476 
L 657.830781 162.568572 
L 658.180625 164.238953 
L 658.355546 165.627809 
L 659.055233 168.64951 
L 659.230154 167.598484 
L 659.405076 169.531622 
L 659.579998 169.681768 
L 660.104763 169.531622 
L 660.279684 168.011387 
L 660.804449 169.850683 
L 661.329214 168.574437 
L 661.504136 168.780889 
L 661.679057 167.373264 
L 661.679057 168.630742 
L 662.0289 170.057135 
L 663.07843 171.652443 
L 663.253352 171.070625 
L 663.778117 172.215493 
L 664.302882 174.561534 
L 664.477803 172.084114 
L 665.002568 173.191446 
L 665.17749 174.655375 
L 665.527333 175.556255 
L 665.702255 174.843059 
L 666.22702 175.650097 
L 666.401941 173.060067 
L 666.576863 174.129862 
L 666.751784 170.90171 
L 666.926706 171.558601 
L 667.451471 171.164466 
L 667.626393 169.175023 
L 667.976236 170.244818 
L 668.151158 169.475317 
L 668.675922 168.799657 
L 669.025766 167.392032 
L 669.200687 168.705815 
L 669.375609 168.555669 
L 669.900374 167.711094 
L 670.075295 168.236607 
L 670.60006 165.871798 
L 671.124825 164.764466 
L 671.299747 163.976196 
L 671.474668 164.61432 
L 671.64959 164.238953 
L 671.824512 162.549804 
L 672.349277 163.506988 
L 672.874042 162.47473 
L 673.048963 161.705229 
L 673.573728 160.823117 
L 681.620123 155.96212 
L 682.144888 157.557428 
L 682.31981 156.543938 
L 682.494731 147.535141 
L 682.669653 150.331622 
L 682.844574 148.267106 
L 683.369339 146.371504 
L 683.544261 148.323411 
L 683.719183 148.098191 
L 683.894104 144.494672 
L 684.069026 147.910507 
L 684.768712 143.424877 
L 684.943634 146.746871 
L 685.118556 147.516372 
L 685.293477 146.859481 
L 685.818242 149.712267 
L 686.343007 145.883528 
L 686.517929 148.454789 
L 687.042694 148.173264 
L 687.217615 148.942765 
L 687.392537 148.360947 
L 687.567458 149.599657 
L 687.74238 147.384994 
L 688.267145 146.765639 
L 688.616988 141.904642 
L 688.79191 142.054789 
L 688.966832 140.928689 
L 689.491596 138.45127 
L 689.84144 140.928689 
L 689.84144 140.215493 
L 690.016361 137.494085 
L 690.191283 140.196724 
L 690.890969 140.459481 
L 691.065891 142.017252 
L 691.240813 142.48646 
L 691.415734 142.167399 
L 691.940499 142.448924 
L 692.115421 139.558601 
L 692.290342 139.539833 
L 692.465264 139.952736 
L 693.339872 138.057135 
L 693.514794 136.968572 
L 693.864637 137.813147 
L 694.564324 136.08646 
L 694.739245 136.461827 
L 694.739245 137.156255 
L 695.089089 135.335727 
L 695.613853 135.035434 
L 695.788775 135.898777 
L 695.963697 134.678836 
L 696.138618 131.394378 
L 696.31354 131.750977 
L 696.838305 130.193205 
L 697.013226 131.48822 
L 697.188148 128.766812 
L 697.36307 130.174437 
L 698.237678 126.270625 
L 698.4126 127.603176 
L 698.587521 126.045405 
L 698.762443 126.026636 
L 699.287208 121.616079 
L 699.462129 122.028982 
L 699.637051 117.092912 
L 700.511659 114.559188 
L 700.686581 114.634261 
L 701.036424 123.436607 
L 701.211346 119.92693 
L 701.911032 119.213733 
L 702.085954 117.374437 
L 702.435797 122.986167 
L 703.135484 120.170918 
L 703.310405 122.197897 
L 703.485327 121.447164 
L 703.660248 125.857721 
L 704.185013 127.715786 
L 704.534857 118.068865 
L 704.8847 119.157428 
L 705.409465 118.256548 
L 705.584386 122.798484 
L 705.759308 123.455375 
L 705.93423 123.436607 
L 706.109151 122.179129 
L 706.633916 121.090566 
L 707.333603 114.333968 
L 707.858368 115.516372 
L 708.208211 114.559188 
L 708.383132 109.979716 
L 708.558054 111.668865 
L 709.082819 110.167399 
L 709.257741 111.593792 
L 709.607584 122.967399 
L 709.782505 117.78734 
L 710.30727 120.321065 
L 710.482192 120.433674 
L 710.657114 121.259481 
L 710.832035 120.733968 
L 711.006957 118.763293 
L 711.531722 118.35039 
L 711.706643 121.747457 
L 711.881565 121.822531 
L 712.056487 122.310507 
L 712.231408 124.769158 
L 712.756173 121.653616 
L 713.106016 118.538073 
L 713.280938 117.468279 
L 713.45586 119.382648 
L 713.980625 116.379716 
L 714.155546 117.186754 
L 714.330468 115.628982 
L 714.505389 115.929276 
L 714.680311 112.40083 
L 715.205076 113.75215 
L 715.379998 111.687633 
L 715.554919 112.457135 
L 715.729841 111.199657 
L 715.904763 114.502883 
L 716.604449 111.124584 
L 716.779371 110.561534 
L 717.129214 116.755082 
L 717.653979 113.845991 
L 717.8289 114.277663 
L 718.003822 112.569745 
L 718.178744 114.484114 
L 718.353665 110.918132 
L 719.053352 106.038367 
L 719.228274 103.823704 
L 719.578117 103.898777 
L 720.102882 100.858308 
L 720.277803 103.035434 
L 720.452725 102.622531 
L 720.627647 102.528689 
L 720.802568 102.772677 
L 721.327333 102.660067 
L 721.502255 103.410801 
L 721.677176 106.244818 
L 721.677176 105.644232 
L 722.02702 106.995551 
L 722.551784 108.947457 
L 722.726706 105.663 
L 722.901628 106.207282 
L 723.076549 107.277076 
L 723.251471 103.917545 
L 723.951158 96.860654 
L 724.126079 102.810214 
L 724.301001 103.673557 
L 724.475922 102.416079 
L 725.000687 99.563293 
L 725.175609 99.37561 
L 725.525452 108.140419 
L 725.700374 106.394965 
L 726.225139 107.502296 
L 726.40006 108.384408 
L 726.574982 106.939246 
L 726.574982 108.590859 
L 726.749904 107.314613 
L 726.924825 104.349217 
L 727.44959 108.403176 
L 727.799433 113.75215 
L 727.974355 111.687633 
L 728.149277 107.183235 
L 728.674042 108.234261 
L 729.023885 108.271798 
L 729.198806 108.253029 
L 729.373728 107.370918 
L 729.898493 106.282355 
L 730.073415 110.37385 
L 730.248336 106.657721 
L 730.423258 106.601416 
L 730.598179 104.274144 
L 731.122944 106.132208 
L 731.297866 106.038367 
L 731.472788 105.77561 
L 731.472788 103.373264 
L 731.822631 99.619598 
L 732.347396 97.986754 
L 732.522317 92.168572 
L 732.697239 92.844232 
L 732.872161 94.026636 
L 733.047082 88.959188 
L 733.746769 87.70171 
L 733.92169 88.396138 
L 734.096612 83.441299 
L 734.271534 83.816666 
L 735.321063 74.150977 
L 735.495985 71.035434 
L 736.02075 68.708161 
L 736.370593 54.725757 
L 736.545515 59.455375 
L 736.720437 69.027223 
L 737.245201 59.323997 
L 737.420123 68.72693 
L 737.595045 70.040713 
L 737.944888 64.485287 
L 738.469653 78.899364 
L 742.143007 63.621944 
L 742.317929 65.142179 
L 742.667772 70.491152 
L 742.842694 65.855375 
L 743.367458 68.314026 
L 743.54238 70.172091 
L 743.717302 67.394378 
L 743.892223 67.206695 
L 744.067145 61.144525 
L 744.59191 57.916372 
L 744.766832 60.29995 
L 745.291596 51.347457 
L 745.816361 53.637194 
M 746.166205 46.918132 
L 746.341126 44.966226 
L 746.516048 41.21256 
L 747.040813 43.370918 
L 747.215734 35.844818 
L 747.390656 37.684114 
L 747.565578 48.813733 
L 747.740499 49.97737 
L 748.265264 48.569745 
L 748.440186 49.282941 
L 748.615107 53.599657 
L 748.790029 54.631915 
L 749.489716 53.712267 
L 749.664637 52.942765 
L 749.839559 44.684701 
L 750.01448 53.693499 
L 750.189402 55.758015 
L 750.889089 68.783235 
M 751.238932 98.981475 
L 751.413853 92.694085 
L 751.938618 110.167399 
L 752.638305 75.277076 
L 753.16307 71.335727 
L 753.337991 77.060067 
L 753.512913 77.623117 
L 753.862756 70.190859 
L 754.387521 72.912267 
L 754.562443 70.491152 
L 754.912286 75.933968 
L 755.087208 71.523411 
L 755.611973 67.281768 
L 755.786894 67.750977 
L 755.961816 73.925757 
L 756.136737 70.115786 
L 756.311659 72.461827 
L 756.836424 73.400243 
L 757.011346 71.842472 
L 757.186267 71.823704 
L 757.361189 74.094672 
L 757.536111 68.314026 
L 758.060875 70.547457 
L 758.235797 73.663 
L 758.410719 73.831915 
L 758.58564 70.960361 
L 759.460248 69.834261 
L 759.985013 54.819598 
L 760.509778 57.803762 
L 760.859621 68.72693 
L 761.034543 67.675903 
L 761.209465 63.340419 
L 761.73423 63.377956 
L 762.258995 54.068865 
L 762.433916 48.494672 
L 762.958681 49.733381 
L 763.133603 56.508748 
L 763.308524 51.816666 
L 763.483446 55.664173 
L 763.658368 52.285874 
L 764.183132 52.173264 
L 764.358054 49.320478 
L 764.882819 66.549804 
L 765.407584 70.660067 
L 765.582505 70.810214 
L 765.757427 67.901123 
L 766.632035 61.670038 
L 766.806957 61.895258 
L 768.031408 65.536314 
L 768.20633 70.378543 
L 768.556173 67.338073 
L 769.080938 68.520478 
L 769.605703 57.541006 
L 769.780625 63.077663 
L 770.305389 62.120478 
L 770.480311 60.712853 
L 770.655233 62.965053 
L 770.830154 66.69995 
L 771.005076 63.265346 
L 771.529841 63.058894 
L 772.229527 53.280595 
L 772.929214 62.364466 
L 773.104136 63.772091 
L 773.279057 62.402003 
L 773.453979 63.772091 
L 773.978744 62.32693 
L 774.153665 61.407282 
L 774.503509 63.077663 
L 774.67843 61.745111 
L 775.203195 62.458308 
L 775.378117 61.932795 
L 775.72796 73.21256 
L 775.902882 72.349217 
L 776.427647 76.046578 
L 777.127333 72.5369 
L 777.652098 69.646578 
L 777.82702 67.750977 
L 778.001941 62.233088 
L 778.176863 61.557428 
L 778.351784 60.262413 
L 778.876549 60.07473 
L 779.051471 61.08822 
L 779.576236 55.007282 
L 780.275922 48.73866 
L 780.450844 42.301123 
L 780.625766 42.432501 
L 780.800687 37.045991 
L 781.325452 35.863587 
L 781.500374 45.210214 
L 781.850217 51.253616 
L 782.025139 50.765639 
L 782.549904 52.173264 
L 782.724825 59.080009 
L 782.899747 70.660067 
L 783.074668 74.319891 
L 783.24959 71.692326 
L 783.774355 80.438367 
L 784.124198 89.240713 
L 784.474042 96.466519 
L 784.998806 95.058894 
L 785.173728 86.57561 
L 785.34865 90.685874 
L 785.523571 85.89995 
L 785.698493 85.599657 
L 786.223258 85.393205 
L 786.398179 86.763293 
L 786.573101 86.744525 
L 786.748023 87.70171 
L 786.922944 92.055962 
L 787.447709 94.946284 
L 787.622631 91.793205 
L 787.797553 97.404935 
L 787.972474 97.423704 
L 788.147396 93.350977 
L 788.672161 97.892912 
L 788.847082 94.66476 
L 789.196926 95.434261 
L 789.371847 92.131035 
L 789.896612 93.08822 
L 790.246455 95.434261 
L 790.596299 91.793205 
L 791.121063 94.514613 
L 791.295985 92.900537 
L 791.470907 90.066519 
L 791.645828 93.08822 
L 791.82075 91.417839 
L 792.345515 91.192619 
L 792.695358 75.258308 
L 792.87028 74.150977 
L 793.045201 67.281768 
L 793.569966 71.166812 
L 793.744888 71.035434 
L 794.094731 75.033088 
L 794.269653 72.19907 
L 794.969339 76.177956 
L 795.144261 77.435434 
L 795.319183 84.436021 
L 795.494104 81.226636 
L 796.018869 78.37385 
L 796.193791 78.223704 
L 796.543634 81.264173 
L 796.718556 83.309921 
L 797.593164 79.819012 
L 797.943007 69.909334 
L 798.467772 73.193792 
L 798.642694 70.810214 
L 798.992537 57.240713 
L 799.167458 58.929862 
L 799.692223 58.028982 
L 800.216988 53.862413 
L 800.39191 53.205522 
L 800.916675 53.036607 
L 801.091596 51.797897 
L 801.44144 57.146871 
L 801.616361 62.308161 
L 802.141126 61.013147 
L 805.81448 77.585581 
L 805.989402 71.316959 
L 806.514167 75.427223 
L 807.038932 77.998484 
L 807.213853 78.017252 
L 807.388775 75.746284 
L 807.563697 64.841886 
L 807.738618 66.81256 
L 808.263383 65.855375 
L 808.438305 67.056548 
L 808.613226 71.917545 
L 808.96307 56.114613 
L 809.487835 58.94863 
L 809.662756 56.170918 
L 809.837678 46.355082 
L 810.0126 43.370918 
L 810.187521 47.781475 
L 810.712286 46.59907 
L 810.887208 54.594378 
L 811.237051 54.894672 
L 811.411973 50.502883 
L 811.936737 52.079422 
L 812.111659 50.014906 
L 812.111659 50.014906 
" clip-path="url(#p5d32ed5fc7)" style="fill: none; stroke: #4c72b0; stroke-width: 1.2; stroke-linecap: round"/>
   </g>
   <g id="patch_3">
    <path d="M 66.42075 222.783 
L 66.42075 26.943 
" style="fill: none; stroke: #cccccc; stroke-linejoin: miter; stroke-linecap: square"/>
   </g>
   <g id="patch_4">
    <path d="M 847.62075 222.783 
L 847.62075 26.943 
" style="fill: none; stroke: #cccccc; stroke-linejoin: miter; stroke-linecap: square"/>
   </g>
   <g id="patch_5">
    <path d="M 66.42075 222.783 
L 847.62075 222.783 
" style="fill: none; stroke: #cccccc; stroke-linejoin: miter; stroke-linecap: square"/>
   </g>
   <g id="patch_6">
    <path d="M 66.42075 26.943 
L 847.62075 26.943 
" style="fill: none; stroke: #cccccc; stroke-linejoin: miter; stroke-linecap: square"/>
   </g>
   <g id="text_14">
    <!-- Average emission price at EUA Auctions at EEX -->
    <g style="fill: #262626" transform="translate(253.35675 20.943) scale(0.192 -0.192)">
     <defs>
      <path id="ArialMT-41" d="M -9 0 
L 1750 4581 
L 2403 4581 
L 4278 0 
L 3588 0 
L 3053 1388 
L 1138 1388 
L 634 0 
L -9 0 
z
M 1313 1881 
L 2866 1881 
L 2388 3150 
Q 2169 3728 2063 4100 
Q 1975 3659 1816 3225 
L 1313 1881 
z
" transform="scale(0.015625)"/>
      <path id="ArialMT-76" d="M 1344 0 
L 81 3319 
L 675 3319 
L 1388 1331 
Q 1503 1009 1600 663 
Q 1675 925 1809 1294 
L 2547 3319 
L 3125 3319 
L 1869 0 
L 1344 0 
z
" transform="scale(0.015625)"/>
      <path id="ArialMT-67" d="M 319 -275 
L 866 -356 
Q 900 -609 1056 -725 
Q 1266 -881 1628 -881 
Q 2019 -881 2231 -725 
Q 2444 -569 2519 -288 
Q 2563 -116 2559 434 
Q 2191 0 1641 0 
Q 956 0 581 494 
Q 206 988 206 1678 
Q 206 2153 378 2554 
Q 550 2956 876 3175 
Q 1203 3394 1644 3394 
Q 2231 3394 2613 2919 
L 2613 3319 
L 3131 3319 
L 3131 450 
Q 3131 -325 2973 -648 
Q 2816 -972 2473 -1159 
Q 2131 -1347 1631 -1347 
Q 1038 -1347 672 -1080 
Q 306 -813 319 -275 
z
M 784 1719 
Q 784 1066 1043 766 
Q 1303 466 1694 466 
Q 2081 466 2343 764 
Q 2606 1063 2606 1700 
Q 2606 2309 2336 2618 
Q 2066 2928 1684 2928 
Q 1309 2928 1046 2623 
Q 784 2319 784 1719 
z
" transform="scale(0.015625)"/>
      <path id="ArialMT-6d" d="M 422 0 
L 422 3319 
L 925 3319 
L 925 2853 
Q 1081 3097 1340 3245 
Q 1600 3394 1931 3394 
Q 2300 3394 2536 3241 
Q 2772 3088 2869 2813 
Q 3263 3394 3894 3394 
Q 4388 3394 4653 3120 
Q 4919 2847 4919 2278 
L 4919 0 
L 4359 0 
L 4359 2091 
Q 4359 2428 4304 2576 
Q 4250 2725 4106 2815 
Q 3963 2906 3769 2906 
Q 3419 2906 3187 2673 
Q 2956 2441 2956 1928 
L 2956 0 
L 2394 0 
L 2394 2156 
Q 2394 2531 2256 2718 
Q 2119 2906 1806 2906 
Q 1569 2906 1367 2781 
Q 1166 2656 1075 2415 
Q 984 2175 984 1722 
L 984 0 
L 422 0 
z
" transform="scale(0.015625)"/>
      <path id="ArialMT-73" d="M 197 991 
L 753 1078 
Q 800 744 1014 566 
Q 1228 388 1613 388 
Q 2000 388 2187 545 
Q 2375 703 2375 916 
Q 2375 1106 2209 1216 
Q 2094 1291 1634 1406 
Q 1016 1563 777 1677 
Q 538 1791 414 1992 
Q 291 2194 291 2438 
Q 291 2659 392 2848 
Q 494 3038 669 3163 
Q 800 3259 1026 3326 
Q 1253 3394 1513 3394 
Q 1903 3394 2198 3281 
Q 2494 3169 2634 2976 
Q 2775 2784 2828 2463 
L 2278 2388 
Q 2241 2644 2061 2787 
Q 1881 2931 1553 2931 
Q 1166 2931 1000 2803 
Q 834 2675 834 2503 
Q 834 2394 903 2306 
Q 972 2216 1119 2156 
Q 1203 2125 1616 2013 
Q 2213 1853 2448 1751 
Q 2684 1650 2818 1456 
Q 2953 1263 2953 975 
Q 2953 694 2789 445 
Q 2625 197 2315 61 
Q 2006 -75 1616 -75 
Q 969 -75 630 194 
Q 291 463 197 991 
z
" transform="scale(0.015625)"/>
      <path id="ArialMT-6f" d="M 213 1659 
Q 213 2581 725 3025 
Q 1153 3394 1769 3394 
Q 2453 3394 2887 2945 
Q 3322 2497 3322 1706 
Q 3322 1066 3130 698 
Q 2938 331 2570 128 
Q 2203 -75 1769 -75 
Q 1072 -75 642 372 
Q 213 819 213 1659 
z
M 791 1659 
Q 791 1022 1069 705 
Q 1347 388 1769 388 
Q 2188 388 2466 706 
Q 2744 1025 2744 1678 
Q 2744 2294 2464 2611 
Q 2184 2928 1769 2928 
Q 1347 2928 1069 2612 
Q 791 2297 791 1659 
z
" transform="scale(0.015625)"/>
      <path id="ArialMT-6e" d="M 422 0 
L 422 3319 
L 928 3319 
L 928 2847 
Q 1294 3394 1984 3394 
Q 2284 3394 2536 3286 
Q 2788 3178 2913 3003 
Q 3038 2828 3088 2588 
Q 3119 2431 3119 2041 
L 3119 0 
L 2556 0 
L 2556 2019 
Q 2556 2363 2490 2533 
Q 2425 2703 2258 2804 
Q 2091 2906 1866 2906 
Q 1506 2906 1245 2678 
Q 984 2450 984 1813 
L 984 0 
L 422 0 
z
" transform="scale(0.015625)"/>
      <path id="ArialMT-70" d="M 422 -1272 
L 422 3319 
L 934 3319 
L 934 2888 
Q 1116 3141 1344 3267 
Q 1572 3394 1897 3394 
Q 2322 3394 2647 3175 
Q 2972 2956 3137 2557 
Q 3303 2159 3303 1684 
Q 3303 1175 3120 767 
Q 2938 359 2589 142 
Q 2241 -75 1856 -75 
Q 1575 -75 1351 44 
Q 1128 163 984 344 
L 984 -1272 
L 422 -1272 
z
M 931 1641 
Q 931 1000 1190 694 
Q 1450 388 1819 388 
Q 2194 388 2461 705 
Q 2728 1022 2728 1688 
Q 2728 2322 2467 2637 
Q 2206 2953 1844 2953 
Q 1484 2953 1207 2617 
Q 931 2281 931 1641 
z
" transform="scale(0.015625)"/>
      <path id="ArialMT-45" d="M 506 0 
L 506 4581 
L 3819 4581 
L 3819 4041 
L 1113 4041 
L 1113 2638 
L 3647 2638 
L 3647 2100 
L 1113 2100 
L 1113 541 
L 3925 541 
L 3925 0 
L 506 0 
z
" transform="scale(0.015625)"/>
      <path id="ArialMT-55" d="M 3500 4581 
L 4106 4581 
L 4106 1934 
Q 4106 1244 3950 837 
Q 3794 431 3386 176 
Q 2978 -78 2316 -78 
Q 1672 -78 1262 144 
Q 853 366 678 786 
Q 503 1206 503 1934 
L 503 4581 
L 1109 4581 
L 1109 1938 
Q 1109 1341 1220 1058 
Q 1331 775 1601 622 
Q 1872 469 2263 469 
Q 2931 469 3215 772 
Q 3500 1075 3500 1938 
L 3500 4581 
z
" transform="scale(0.015625)"/>
      <path id="ArialMT-75" d="M 2597 0 
L 2597 488 
Q 2209 -75 1544 -75 
Q 1250 -75 995 37 
Q 741 150 617 320 
Q 494 491 444 738 
Q 409 903 409 1263 
L 409 3319 
L 972 3319 
L 972 1478 
Q 972 1038 1006 884 
Q 1059 663 1231 536 
Q 1403 409 1656 409 
Q 1909 409 2131 539 
Q 2353 669 2445 892 
Q 2538 1116 2538 1541 
L 2538 3319 
L 3100 3319 
L 3100 0 
L 2597 0 
z
" transform="scale(0.015625)"/>
      <path id="ArialMT-58" d="M 28 0 
L 1800 2388 
L 238 4581 
L 959 4581 
L 1791 3406 
Q 2050 3041 2159 2844 
Q 2313 3094 2522 3366 
L 3444 4581 
L 4103 4581 
L 2494 2422 
L 4228 0 
L 3478 0 
L 2325 1634 
Q 2228 1775 2125 1941 
Q 1972 1691 1906 1597 
L 756 0 
L 28 0 
z
" transform="scale(0.015625)"/>
     </defs>
     <use xlink:href="#ArialMT-41"/>
     <use xlink:href="#ArialMT-76" x="64.949219"/>
     <use xlink:href="#ArialMT-65" x="114.949219"/>
     <use xlink:href="#ArialMT-72" x="170.564453"/>
     <use xlink:href="#ArialMT-61" x="203.865234"/>
     <use xlink:href="#ArialMT-67" x="259.480469"/>
     <use xlink:href="#ArialMT-65" x="315.095703"/>
     <use xlink:href="#ArialMT-20" x="370.710938"/>
     <use xlink:href="#ArialMT-65" x="398.494141"/>
     <use xlink:href="#ArialMT-6d" x="454.109375"/>
     <use xlink:href="#ArialMT-69" x="537.410156"/>
     <use xlink:href="#ArialMT-73" x="559.626953"/>
     <use xlink:href="#ArialMT-73" x="609.626953"/>
     <use xlink:href="#ArialMT-69" x="659.626953"/>
     <use xlink:href="#ArialMT-6f" x="681.84375"/>
     <use xlink:href="#ArialMT-6e" x="737.458984"/>
     <use xlink:href="#ArialMT-20" x="793.074219"/>
     <use xlink:href="#ArialMT-70" x="820.857422"/>
     <use xlink:href="#ArialMT-72" x="876.472656"/>
     <use xlink:href="#ArialMT-69" x="909.773438"/>
     <use xlink:href="#ArialMT-63" x="931.990234"/>
     <use xlink:href="#ArialMT-65" x="981.990234"/>
     <use xlink:href="#ArialMT-20" x="1037.605469"/>
     <use xlink:href="#ArialMT-61" x="1065.388672"/>
     <use xlink:href="#ArialMT-74" x="1121.003906"/>
     <use xlink:href="#ArialMT-20" x="1148.787109"/>
     <use xlink:href="#ArialMT-45" x="1176.570312"/>
     <use xlink:href="#ArialMT-55" x="1243.269531"/>
     <use xlink:href="#ArialMT-41" x="1315.486328"/>
     <use xlink:href="#ArialMT-20" x="1376.685547"/>
     <use xlink:href="#ArialMT-41" x="1398.96875"/>
     <use xlink:href="#ArialMT-75" x="1465.667969"/>
     <use xlink:href="#ArialMT-63" x="1521.283203"/>
     <use xlink:href="#ArialMT-74" x="1571.283203"/>
     <use xlink:href="#ArialMT-69" x="1599.066406"/>
     <use xlink:href="#ArialMT-6f" x="1621.283203"/>
     <use xlink:href="#ArialMT-6e" x="1676.898438"/>
     <use xlink:href="#ArialMT-73" x="1732.513672"/>
     <use xlink:href="#ArialMT-20" x="1782.513672"/>
     <use xlink:href="#ArialMT-61" x="1810.296875"/>
     <use xlink:href="#ArialMT-74" x="1865.912109"/>
     <use xlink:href="#ArialMT-20" x="1893.695312"/>
     <use xlink:href="#ArialMT-45" x="1921.478516"/>
     <use xlink:href="#ArialMT-45" x="1988.177734"/>
     <use xlink:href="#ArialMT-58" x="2054.876953"/>
    </g>
   </g>
  </g>
 </g>
 <defs>
  <clipPath id="p5d32ed5fc7">
   <rect x="66.42075" y="26.943" width="781.2" height="195.84"/>
  </clipPath>
 </defs>
</svg>
