<?xml version="1.0" encoding="utf-8" standalone="no"?>
<!DOCTYPE svg PUBLIC "-//W3C//DTD SVG 1.1//EN"
  "http://www.w3.org/Graphics/SVG/1.1/DTD/svg11.dtd">
<svg xmlns:xlink="http://www.w3.org/1999/xlink" width="854.82075pt" height="320.70705pt" viewBox="0 0 854.82075 320.70705" xmlns="http://www.w3.org/2000/svg" version="1.1">
 <metadata>
  <rdf:RDF xmlns:dc="http://purl.org/dc/elements/1.1/" xmlns:cc="http://creativecommons.org/ns#" xmlns:rdf="http://www.w3.org/1999/02/22-rdf-syntax-ns#">
   <cc:Work>
    <dc:type rdf:resource="http://purl.org/dc/dcmitype/StillImage"/>
    <dc:date>2023-05-10T11:14:15.564231</dc:date>
    <dc:format>image/svg+xml</dc:format>
    <dc:creator>
     <cc:Agent>
      <dc:title>Matplotlib v3.7.1, https://matplotlib.org/</dc:title>
     </cc:Agent>
    </dc:creator>
   </cc:Work>
  </rdf:RDF>
 </metadata>
 <defs>
  <style type="text/css">*{stroke-linejoin: round; stroke-linecap: butt}</style>
 </defs>
 <g id="figure_1">
  <g id="patch_1">
   <path d="M 0 320.70705 
L 854.82075 320.70705 
L 854.82075 0 
L 0 0 
z
" style="fill: #ffffff"/>
  </g>
  <g id="axes_1">
   <g id="patch_2">
    <path d="M 46.84625 248.937 
L 828.04625 248.937 
L 828.04625 27.177 
L 46.84625 27.177 
z
" style="fill: #ffffff"/>
   </g>
   <g id="matplotlib.axis_1">
    <g id="xtick_1">
     <g id="line2d_1">
      <path d="M 46.84625 248.937 
L 46.84625 27.177 
" clip-path="url(#pb95a63b3d6)" style="fill: none; stroke: #cccccc; stroke-width: 0.8; stroke-linecap: round"/>
     </g>
     <g id="text_1">
      <!-- Jun -->
      <g style="fill: #262626" transform="translate(32.659 269.83475) scale(0.176 -0.176)">
       <defs>
        <path id="ArialMT-4a" d="M 184 1300 
L 731 1375 
Q 753 850 928 656 
Q 1103 463 1413 463 
Q 1641 463 1806 567 
Q 1972 672 2034 851 
Q 2097 1031 2097 1425 
L 2097 4581 
L 2703 4581 
L 2703 1459 
Q 2703 884 2564 568 
Q 2425 253 2123 87 
Q 1822 -78 1416 -78 
Q 813 -78 492 269 
Q 172 616 184 1300 
z
" transform="scale(0.015625)"/>
        <path id="ArialMT-75" d="M 2597 0 
L 2597 488 
Q 2209 -75 1544 -75 
Q 1250 -75 995 37 
Q 741 150 617 320 
Q 494 491 444 738 
Q 409 903 409 1263 
L 409 3319 
L 972 3319 
L 972 1478 
Q 972 1038 1006 884 
Q 1059 663 1231 536 
Q 1403 409 1656 409 
Q 1909 409 2131 539 
Q 2353 669 2445 892 
Q 2538 1116 2538 1541 
L 2538 3319 
L 3100 3319 
L 3100 0 
L 2597 0 
z
" transform="scale(0.015625)"/>
        <path id="ArialMT-6e" d="M 422 0 
L 422 3319 
L 928 3319 
L 928 2847 
Q 1294 3394 1984 3394 
Q 2284 3394 2536 3286 
Q 2788 3178 2913 3003 
Q 3038 2828 3088 2588 
Q 3119 2431 3119 2041 
L 3119 0 
L 2556 0 
L 2556 2019 
Q 2556 2363 2490 2533 
Q 2425 2703 2258 2804 
Q 2091 2906 1866 2906 
Q 1506 2906 1245 2678 
Q 984 2450 984 1813 
L 984 0 
L 422 0 
z
" transform="scale(0.015625)"/>
       </defs>
       <use xlink:href="#ArialMT-4a"/>
       <use xlink:href="#ArialMT-75" x="50"/>
       <use xlink:href="#ArialMT-6e" x="105.615234"/>
      </g>
     </g>
    </g>
    <g id="xtick_2">
     <g id="line2d_2">
      <path d="M 156.360269 248.937 
L 156.360269 27.177 
" clip-path="url(#pb95a63b3d6)" style="fill: none; stroke: #cccccc; stroke-width: 0.8; stroke-linecap: round"/>
     </g>
     <g id="text_2">
      <!-- Jul -->
      <g style="fill: #262626" transform="translate(145.111394 269.83475) scale(0.176 -0.176)">
       <defs>
        <path id="ArialMT-6c" d="M 409 0 
L 409 4581 
L 972 4581 
L 972 0 
L 409 0 
z
" transform="scale(0.015625)"/>
       </defs>
       <use xlink:href="#ArialMT-4a"/>
       <use xlink:href="#ArialMT-75" x="50"/>
       <use xlink:href="#ArialMT-6c" x="105.615234"/>
      </g>
     </g>
    </g>
    <g id="xtick_3">
     <g id="line2d_3">
      <path d="M 269.524755 248.937 
L 269.524755 27.177 
" clip-path="url(#pb95a63b3d6)" style="fill: none; stroke: #cccccc; stroke-width: 0.8; stroke-linecap: round"/>
     </g>
     <g id="text_3">
      <!-- Aug -->
      <g style="fill: #262626" transform="translate(253.86763 269.83475) scale(0.176 -0.176)">
       <defs>
        <path id="ArialMT-41" d="M -9 0 
L 1750 4581 
L 2403 4581 
L 4278 0 
L 3588 0 
L 3053 1388 
L 1138 1388 
L 634 0 
L -9 0 
z
M 1313 1881 
L 2866 1881 
L 2388 3150 
Q 2169 3728 2063 4100 
Q 1975 3659 1816 3225 
L 1313 1881 
z
" transform="scale(0.015625)"/>
        <path id="ArialMT-67" d="M 319 -275 
L 866 -356 
Q 900 -609 1056 -725 
Q 1266 -881 1628 -881 
Q 2019 -881 2231 -725 
Q 2444 -569 2519 -288 
Q 2563 -116 2559 434 
Q 2191 0 1641 0 
Q 956 0 581 494 
Q 206 988 206 1678 
Q 206 2153 378 2554 
Q 550 2956 876 3175 
Q 1203 3394 1644 3394 
Q 2231 3394 2613 2919 
L 2613 3319 
L 3131 3319 
L 3131 450 
Q 3131 -325 2973 -648 
Q 2816 -972 2473 -1159 
Q 2131 -1347 1631 -1347 
Q 1038 -1347 672 -1080 
Q 306 -813 319 -275 
z
M 784 1719 
Q 784 1066 1043 766 
Q 1303 466 1694 466 
Q 2081 466 2343 764 
Q 2606 1063 2606 1700 
Q 2606 2309 2336 2618 
Q 2066 2928 1684 2928 
Q 1309 2928 1046 2623 
Q 784 2319 784 1719 
z
" transform="scale(0.015625)"/>
       </defs>
       <use xlink:href="#ArialMT-41"/>
       <use xlink:href="#ArialMT-75" x="66.699219"/>
       <use xlink:href="#ArialMT-67" x="122.314453"/>
      </g>
     </g>
    </g>
    <g id="xtick_4">
     <g id="line2d_4">
      <path d="M 382.689241 248.937 
L 382.689241 27.177 
" clip-path="url(#pb95a63b3d6)" style="fill: none; stroke: #cccccc; stroke-width: 0.8; stroke-linecap: round"/>
     </g>
     <g id="text_4">
      <!-- Sep -->
      <g style="fill: #262626" transform="translate(367.032116 270.04925) scale(0.176 -0.176)">
       <defs>
        <path id="ArialMT-53" d="M 288 1472 
L 859 1522 
Q 900 1178 1048 958 
Q 1197 738 1509 602 
Q 1822 466 2213 466 
Q 2559 466 2825 569 
Q 3091 672 3220 851 
Q 3350 1031 3350 1244 
Q 3350 1459 3225 1620 
Q 3100 1781 2813 1891 
Q 2628 1963 1997 2114 
Q 1366 2266 1113 2400 
Q 784 2572 623 2826 
Q 463 3081 463 3397 
Q 463 3744 659 4045 
Q 856 4347 1234 4503 
Q 1613 4659 2075 4659 
Q 2584 4659 2973 4495 
Q 3363 4331 3572 4012 
Q 3781 3694 3797 3291 
L 3216 3247 
Q 3169 3681 2898 3903 
Q 2628 4125 2100 4125 
Q 1550 4125 1298 3923 
Q 1047 3722 1047 3438 
Q 1047 3191 1225 3031 
Q 1400 2872 2139 2705 
Q 2878 2538 3153 2413 
Q 3553 2228 3743 1945 
Q 3934 1663 3934 1294 
Q 3934 928 3725 604 
Q 3516 281 3123 101 
Q 2731 -78 2241 -78 
Q 1619 -78 1198 103 
Q 778 284 539 648 
Q 300 1013 288 1472 
z
" transform="scale(0.015625)"/>
        <path id="ArialMT-65" d="M 2694 1069 
L 3275 997 
Q 3138 488 2766 206 
Q 2394 -75 1816 -75 
Q 1088 -75 661 373 
Q 234 822 234 1631 
Q 234 2469 665 2931 
Q 1097 3394 1784 3394 
Q 2450 3394 2872 2941 
Q 3294 2488 3294 1666 
Q 3294 1616 3291 1516 
L 816 1516 
Q 847 969 1125 678 
Q 1403 388 1819 388 
Q 2128 388 2347 550 
Q 2566 713 2694 1069 
z
M 847 1978 
L 2700 1978 
Q 2663 2397 2488 2606 
Q 2219 2931 1791 2931 
Q 1403 2931 1139 2672 
Q 875 2413 847 1978 
z
" transform="scale(0.015625)"/>
        <path id="ArialMT-70" d="M 422 -1272 
L 422 3319 
L 934 3319 
L 934 2888 
Q 1116 3141 1344 3267 
Q 1572 3394 1897 3394 
Q 2322 3394 2647 3175 
Q 2972 2956 3137 2557 
Q 3303 2159 3303 1684 
Q 3303 1175 3120 767 
Q 2938 359 2589 142 
Q 2241 -75 1856 -75 
Q 1575 -75 1351 44 
Q 1128 163 984 344 
L 984 -1272 
L 422 -1272 
z
M 931 1641 
Q 931 1000 1190 694 
Q 1450 388 1819 388 
Q 2194 388 2461 705 
Q 2728 1022 2728 1688 
Q 2728 2322 2467 2637 
Q 2206 2953 1844 2953 
Q 1484 2953 1207 2617 
Q 931 2281 931 1641 
z
" transform="scale(0.015625)"/>
       </defs>
       <use xlink:href="#ArialMT-53"/>
       <use xlink:href="#ArialMT-65" x="66.699219"/>
       <use xlink:href="#ArialMT-70" x="122.314453"/>
      </g>
     </g>
    </g>
    <g id="xtick_5">
     <g id="line2d_5">
      <path d="M 492.203259 248.937 
L 492.203259 27.177 
" clip-path="url(#pb95a63b3d6)" style="fill: none; stroke: #cccccc; stroke-width: 0.8; stroke-linecap: round"/>
     </g>
     <g id="text_5">
      <!-- Oct -->
      <g style="fill: #262626" transform="translate(478.513759 269.83475) scale(0.176 -0.176)">
       <defs>
        <path id="ArialMT-4f" d="M 309 2231 
Q 309 3372 921 4017 
Q 1534 4663 2503 4663 
Q 3138 4663 3647 4359 
Q 4156 4056 4423 3514 
Q 4691 2972 4691 2284 
Q 4691 1588 4409 1038 
Q 4128 488 3612 205 
Q 3097 -78 2500 -78 
Q 1853 -78 1343 234 
Q 834 547 571 1087 
Q 309 1628 309 2231 
z
M 934 2222 
Q 934 1394 1379 917 
Q 1825 441 2497 441 
Q 3181 441 3623 922 
Q 4066 1403 4066 2288 
Q 4066 2847 3877 3264 
Q 3688 3681 3323 3911 
Q 2959 4141 2506 4141 
Q 1863 4141 1398 3698 
Q 934 3256 934 2222 
z
" transform="scale(0.015625)"/>
        <path id="ArialMT-63" d="M 2588 1216 
L 3141 1144 
Q 3050 572 2676 248 
Q 2303 -75 1759 -75 
Q 1078 -75 664 370 
Q 250 816 250 1647 
Q 250 2184 428 2587 
Q 606 2991 970 3192 
Q 1334 3394 1763 3394 
Q 2303 3394 2647 3120 
Q 2991 2847 3088 2344 
L 2541 2259 
Q 2463 2594 2264 2762 
Q 2066 2931 1784 2931 
Q 1359 2931 1093 2626 
Q 828 2322 828 1663 
Q 828 994 1084 691 
Q 1341 388 1753 388 
Q 2084 388 2306 591 
Q 2528 794 2588 1216 
z
" transform="scale(0.015625)"/>
        <path id="ArialMT-74" d="M 1650 503 
L 1731 6 
Q 1494 -44 1306 -44 
Q 1000 -44 831 53 
Q 663 150 594 308 
Q 525 466 525 972 
L 525 2881 
L 113 2881 
L 113 3319 
L 525 3319 
L 525 4141 
L 1084 4478 
L 1084 3319 
L 1650 3319 
L 1650 2881 
L 1084 2881 
L 1084 941 
Q 1084 700 1114 631 
Q 1144 563 1211 522 
Q 1278 481 1403 481 
Q 1497 481 1650 503 
z
" transform="scale(0.015625)"/>
       </defs>
       <use xlink:href="#ArialMT-4f"/>
       <use xlink:href="#ArialMT-63" x="77.783203"/>
       <use xlink:href="#ArialMT-74" x="127.783203"/>
      </g>
     </g>
    </g>
    <g id="xtick_6">
     <g id="line2d_6">
      <path d="M 605.367745 248.937 
L 605.367745 27.177 
" clip-path="url(#pb95a63b3d6)" style="fill: none; stroke: #cccccc; stroke-width: 0.8; stroke-linecap: round"/>
     </g>
     <g id="text_6">
      <!-- Nov -->
      <g style="fill: #262626" transform="translate(589.71887 269.83475) scale(0.176 -0.176)">
       <defs>
        <path id="ArialMT-4e" d="M 488 0 
L 488 4581 
L 1109 4581 
L 3516 984 
L 3516 4581 
L 4097 4581 
L 4097 0 
L 3475 0 
L 1069 3600 
L 1069 0 
L 488 0 
z
" transform="scale(0.015625)"/>
        <path id="ArialMT-6f" d="M 213 1659 
Q 213 2581 725 3025 
Q 1153 3394 1769 3394 
Q 2453 3394 2887 2945 
Q 3322 2497 3322 1706 
Q 3322 1066 3130 698 
Q 2938 331 2570 128 
Q 2203 -75 1769 -75 
Q 1072 -75 642 372 
Q 213 819 213 1659 
z
M 791 1659 
Q 791 1022 1069 705 
Q 1347 388 1769 388 
Q 2188 388 2466 706 
Q 2744 1025 2744 1678 
Q 2744 2294 2464 2611 
Q 2184 2928 1769 2928 
Q 1347 2928 1069 2612 
Q 791 2297 791 1659 
z
" transform="scale(0.015625)"/>
        <path id="ArialMT-76" d="M 1344 0 
L 81 3319 
L 675 3319 
L 1388 1331 
Q 1503 1009 1600 663 
Q 1675 925 1809 1294 
L 2547 3319 
L 3125 3319 
L 1869 0 
L 1344 0 
z
" transform="scale(0.015625)"/>
       </defs>
       <use xlink:href="#ArialMT-4e"/>
       <use xlink:href="#ArialMT-6f" x="72.216797"/>
       <use xlink:href="#ArialMT-76" x="127.832031"/>
      </g>
     </g>
    </g>
    <g id="xtick_7">
     <g id="line2d_7">
      <path d="M 714.881764 248.937 
L 714.881764 27.177 
" clip-path="url(#pb95a63b3d6)" style="fill: none; stroke: #cccccc; stroke-width: 0.8; stroke-linecap: round"/>
     </g>
     <g id="text_7">
      <!-- Dec -->
      <g style="fill: #262626" transform="translate(699.232889 269.83475) scale(0.176 -0.176)">
       <defs>
        <path id="ArialMT-44" d="M 494 0 
L 494 4581 
L 2072 4581 
Q 2606 4581 2888 4516 
Q 3281 4425 3559 4188 
Q 3922 3881 4101 3404 
Q 4281 2928 4281 2316 
Q 4281 1794 4159 1391 
Q 4038 988 3847 723 
Q 3656 459 3429 307 
Q 3203 156 2883 78 
Q 2563 0 2147 0 
L 494 0 
z
M 1100 541 
L 2078 541 
Q 2531 541 2789 625 
Q 3047 709 3200 863 
Q 3416 1078 3536 1442 
Q 3656 1806 3656 2325 
Q 3656 3044 3420 3430 
Q 3184 3816 2847 3947 
Q 2603 4041 2063 4041 
L 1100 4041 
L 1100 541 
z
" transform="scale(0.015625)"/>
       </defs>
       <use xlink:href="#ArialMT-44"/>
       <use xlink:href="#ArialMT-65" x="72.216797"/>
       <use xlink:href="#ArialMT-63" x="127.832031"/>
      </g>
     </g>
    </g>
    <g id="xtick_8">
     <g id="line2d_8">
      <path d="M 828.04625 248.937 
L 828.04625 27.177 
" clip-path="url(#pb95a63b3d6)" style="fill: none; stroke: #cccccc; stroke-width: 0.8; stroke-linecap: round"/>
     </g>
     <g id="text_8">
      <!-- Jan -->
      <g style="fill: #262626" transform="translate(813.859 269.83475) scale(0.176 -0.176)">
       <defs>
        <path id="ArialMT-61" d="M 2588 409 
Q 2275 144 1986 34 
Q 1697 -75 1366 -75 
Q 819 -75 525 192 
Q 231 459 231 875 
Q 231 1119 342 1320 
Q 453 1522 633 1644 
Q 813 1766 1038 1828 
Q 1203 1872 1538 1913 
Q 2219 1994 2541 2106 
Q 2544 2222 2544 2253 
Q 2544 2597 2384 2738 
Q 2169 2928 1744 2928 
Q 1347 2928 1158 2789 
Q 969 2650 878 2297 
L 328 2372 
Q 403 2725 575 2942 
Q 747 3159 1072 3276 
Q 1397 3394 1825 3394 
Q 2250 3394 2515 3294 
Q 2781 3194 2906 3042 
Q 3031 2891 3081 2659 
Q 3109 2516 3109 2141 
L 3109 1391 
Q 3109 606 3145 398 
Q 3181 191 3288 0 
L 2700 0 
Q 2613 175 2588 409 
z
M 2541 1666 
Q 2234 1541 1622 1453 
Q 1275 1403 1131 1340 
Q 988 1278 909 1158 
Q 831 1038 831 891 
Q 831 666 1001 516 
Q 1172 366 1500 366 
Q 1825 366 2078 508 
Q 2331 650 2450 897 
Q 2541 1088 2541 1459 
L 2541 1666 
z
" transform="scale(0.015625)"/>
       </defs>
       <use xlink:href="#ArialMT-4a"/>
       <use xlink:href="#ArialMT-61" x="50"/>
       <use xlink:href="#ArialMT-6e" x="105.615234"/>
      </g>
      <!-- 2022 -->
      <g style="fill: #262626" transform="translate(808.47175 288.45005) scale(0.176 -0.176)">
       <defs>
        <path id="ArialMT-32" d="M 3222 541 
L 3222 0 
L 194 0 
Q 188 203 259 391 
Q 375 700 629 1000 
Q 884 1300 1366 1694 
Q 2113 2306 2375 2664 
Q 2638 3022 2638 3341 
Q 2638 3675 2398 3904 
Q 2159 4134 1775 4134 
Q 1369 4134 1125 3890 
Q 881 3647 878 3216 
L 300 3275 
Q 359 3922 746 4261 
Q 1134 4600 1788 4600 
Q 2447 4600 2831 4234 
Q 3216 3869 3216 3328 
Q 3216 3053 3103 2787 
Q 2991 2522 2730 2228 
Q 2469 1934 1863 1422 
Q 1356 997 1212 845 
Q 1069 694 975 541 
L 3222 541 
z
" transform="scale(0.015625)"/>
        <path id="ArialMT-30" d="M 266 2259 
Q 266 3072 433 3567 
Q 600 4063 929 4331 
Q 1259 4600 1759 4600 
Q 2128 4600 2406 4451 
Q 2684 4303 2865 4023 
Q 3047 3744 3150 3342 
Q 3253 2941 3253 2259 
Q 3253 1453 3087 958 
Q 2922 463 2592 192 
Q 2263 -78 1759 -78 
Q 1097 -78 719 397 
Q 266 969 266 2259 
z
M 844 2259 
Q 844 1131 1108 757 
Q 1372 384 1759 384 
Q 2147 384 2411 759 
Q 2675 1134 2675 2259 
Q 2675 3391 2411 3762 
Q 2147 4134 1753 4134 
Q 1366 4134 1134 3806 
Q 844 3388 844 2259 
z
" transform="scale(0.015625)"/>
       </defs>
       <use xlink:href="#ArialMT-32"/>
       <use xlink:href="#ArialMT-30" x="55.615234"/>
       <use xlink:href="#ArialMT-32" x="111.230469"/>
       <use xlink:href="#ArialMT-32" x="166.845703"/>
      </g>
     </g>
    </g>
    <g id="xtick_9"/>
    <g id="xtick_10"/>
    <g id="xtick_11"/>
    <g id="xtick_12"/>
    <g id="xtick_13"/>
    <g id="xtick_14"/>
    <g id="xtick_15"/>
    <g id="xtick_16"/>
    <g id="xtick_17"/>
    <g id="xtick_18"/>
    <g id="xtick_19"/>
    <g id="xtick_20"/>
    <g id="xtick_21"/>
    <g id="xtick_22"/>
    <g id="xtick_23"/>
    <g id="xtick_24"/>
    <g id="xtick_25"/>
    <g id="xtick_26"/>
    <g id="xtick_27"/>
    <g id="xtick_28"/>
    <g id="xtick_29"/>
    <g id="xtick_30"/>
    <g id="xtick_31"/>
    <g id="xtick_32"/>
    <g id="xtick_33"/>
    <g id="xtick_34"/>
    <g id="xtick_35"/>
    <g id="xtick_36"/>
    <g id="xtick_37"/>
    <g id="text_9">
     <!-- Date -->
     <g style="fill: #262626" transform="translate(417.16925 309.69105) scale(0.192 -0.192)">
      <use xlink:href="#ArialMT-44"/>
      <use xlink:href="#ArialMT-61" x="72.216797"/>
      <use xlink:href="#ArialMT-74" x="127.832031"/>
      <use xlink:href="#ArialMT-65" x="155.615234"/>
     </g>
    </g>
   </g>
   <g id="matplotlib.axis_2">
    <g id="ytick_1">
     <g id="line2d_9">
      <path d="M 46.84625 248.937 
L 828.04625 248.937 
" clip-path="url(#pb95a63b3d6)" style="fill: none; stroke: #cccccc; stroke-width: 0.8; stroke-linecap: round"/>
     </g>
     <g id="text_10">
      <!-- 0 -->
      <g style="fill: #262626" transform="translate(28.759 255.235875) scale(0.176 -0.176)">
       <use xlink:href="#ArialMT-30"/>
      </g>
     </g>
    </g>
    <g id="ytick_2">
     <g id="line2d_10">
      <path d="M 46.84625 204.585 
L 828.04625 204.585 
" clip-path="url(#pb95a63b3d6)" style="fill: none; stroke: #cccccc; stroke-width: 0.8; stroke-linecap: round"/>
     </g>
     <g id="text_11">
      <!-- 1 -->
      <g style="fill: #262626" transform="translate(28.759 210.883875) scale(0.176 -0.176)">
       <defs>
        <path id="ArialMT-31" d="M 2384 0 
L 1822 0 
L 1822 3584 
Q 1619 3391 1289 3197 
Q 959 3003 697 2906 
L 697 3450 
Q 1169 3672 1522 3987 
Q 1875 4303 2022 4600 
L 2384 4600 
L 2384 0 
z
" transform="scale(0.015625)"/>
       </defs>
       <use xlink:href="#ArialMT-31"/>
      </g>
     </g>
    </g>
    <g id="ytick_3">
     <g id="line2d_11">
      <path d="M 46.84625 160.233 
L 828.04625 160.233 
" clip-path="url(#pb95a63b3d6)" style="fill: none; stroke: #cccccc; stroke-width: 0.8; stroke-linecap: round"/>
     </g>
     <g id="text_12">
      <!-- 2 -->
      <g style="fill: #262626" transform="translate(28.759 166.531875) scale(0.176 -0.176)">
       <use xlink:href="#ArialMT-32"/>
      </g>
     </g>
    </g>
    <g id="ytick_4">
     <g id="line2d_12">
      <path d="M 46.84625 115.881 
L 828.04625 115.881 
" clip-path="url(#pb95a63b3d6)" style="fill: none; stroke: #cccccc; stroke-width: 0.8; stroke-linecap: round"/>
     </g>
     <g id="text_13">
      <!-- 3 -->
      <g style="fill: #262626" transform="translate(28.759 122.179875) scale(0.176 -0.176)">
       <defs>
        <path id="ArialMT-33" d="M 269 1209 
L 831 1284 
Q 928 806 1161 595 
Q 1394 384 1728 384 
Q 2125 384 2398 659 
Q 2672 934 2672 1341 
Q 2672 1728 2419 1979 
Q 2166 2231 1775 2231 
Q 1616 2231 1378 2169 
L 1441 2663 
Q 1497 2656 1531 2656 
Q 1891 2656 2178 2843 
Q 2466 3031 2466 3422 
Q 2466 3731 2256 3934 
Q 2047 4138 1716 4138 
Q 1388 4138 1169 3931 
Q 950 3725 888 3313 
L 325 3413 
Q 428 3978 793 4289 
Q 1159 4600 1703 4600 
Q 2078 4600 2393 4439 
Q 2709 4278 2876 4000 
Q 3044 3722 3044 3409 
Q 3044 3113 2884 2869 
Q 2725 2625 2413 2481 
Q 2819 2388 3044 2092 
Q 3269 1797 3269 1353 
Q 3269 753 2831 336 
Q 2394 -81 1725 -81 
Q 1122 -81 723 278 
Q 325 638 269 1209 
z
" transform="scale(0.015625)"/>
       </defs>
       <use xlink:href="#ArialMT-33"/>
      </g>
     </g>
    </g>
    <g id="ytick_5">
     <g id="line2d_13">
      <path d="M 46.84625 71.529 
L 828.04625 71.529 
" clip-path="url(#pb95a63b3d6)" style="fill: none; stroke: #cccccc; stroke-width: 0.8; stroke-linecap: round"/>
     </g>
     <g id="text_14">
      <!-- 4 -->
      <g style="fill: #262626" transform="translate(28.759 77.827875) scale(0.176 -0.176)">
       <defs>
        <path id="ArialMT-34" d="M 2069 0 
L 2069 1097 
L 81 1097 
L 81 1613 
L 2172 4581 
L 2631 4581 
L 2631 1613 
L 3250 1613 
L 3250 1097 
L 2631 1097 
L 2631 0 
L 2069 0 
z
M 2069 1613 
L 2069 3678 
L 634 1613 
L 2069 1613 
z
" transform="scale(0.015625)"/>
       </defs>
       <use xlink:href="#ArialMT-34"/>
      </g>
     </g>
    </g>
    <g id="ytick_6">
     <g id="line2d_14">
      <path d="M 46.84625 27.177 
L 828.04625 27.177 
" clip-path="url(#pb95a63b3d6)" style="fill: none; stroke: #cccccc; stroke-width: 0.8; stroke-linecap: round"/>
     </g>
     <g id="text_15">
      <!-- 5 -->
      <g style="fill: #262626" transform="translate(28.759 33.475875) scale(0.176 -0.176)">
       <defs>
        <path id="ArialMT-35" d="M 266 1200 
L 856 1250 
Q 922 819 1161 601 
Q 1400 384 1738 384 
Q 2144 384 2425 690 
Q 2706 997 2706 1503 
Q 2706 1984 2436 2262 
Q 2166 2541 1728 2541 
Q 1456 2541 1237 2417 
Q 1019 2294 894 2097 
L 366 2166 
L 809 4519 
L 3088 4519 
L 3088 3981 
L 1259 3981 
L 1013 2750 
Q 1425 3038 1878 3038 
Q 2478 3038 2890 2622 
Q 3303 2206 3303 1553 
Q 3303 931 2941 478 
Q 2500 -78 1738 -78 
Q 1113 -78 717 272 
Q 322 622 266 1200 
z
" transform="scale(0.015625)"/>
       </defs>
       <use xlink:href="#ArialMT-35"/>
      </g>
     </g>
    </g>
    <g id="text_16">
     <!-- MWh -->
     <g style="fill: #262626" transform="translate(20.943 160.4535) rotate(-90) scale(0.192 -0.192)">
      <defs>
       <path id="ArialMT-4d" d="M 475 0 
L 475 4581 
L 1388 4581 
L 2472 1338 
Q 2622 884 2691 659 
Q 2769 909 2934 1394 
L 4031 4581 
L 4847 4581 
L 4847 0 
L 4263 0 
L 4263 3834 
L 2931 0 
L 2384 0 
L 1059 3900 
L 1059 0 
L 475 0 
z
" transform="scale(0.015625)"/>
       <path id="ArialMT-57" d="M 1294 0 
L 78 4581 
L 700 4581 
L 1397 1578 
Q 1509 1106 1591 641 
Q 1766 1375 1797 1488 
L 2669 4581 
L 3400 4581 
L 4056 2263 
Q 4303 1400 4413 641 
Q 4500 1075 4641 1638 
L 5359 4581 
L 5969 4581 
L 4713 0 
L 4128 0 
L 3163 3491 
Q 3041 3928 3019 4028 
Q 2947 3713 2884 3491 
L 1913 0 
L 1294 0 
z
" transform="scale(0.015625)"/>
       <path id="ArialMT-68" d="M 422 0 
L 422 4581 
L 984 4581 
L 984 2938 
Q 1378 3394 1978 3394 
Q 2347 3394 2619 3248 
Q 2891 3103 3008 2847 
Q 3125 2591 3125 2103 
L 3125 0 
L 2563 0 
L 2563 2103 
Q 2563 2525 2380 2717 
Q 2197 2909 1863 2909 
Q 1613 2909 1392 2779 
Q 1172 2650 1078 2428 
Q 984 2206 984 1816 
L 984 0 
L 422 0 
z
" transform="scale(0.015625)"/>
      </defs>
      <use xlink:href="#ArialMT-4d"/>
      <use xlink:href="#ArialMT-57" x="83.300781"/>
      <use xlink:href="#ArialMT-68" x="177.685547"/>
     </g>
    </g>
    <g id="text_17">
     <!-- 1e6 -->
     <g style="fill: #262626" transform="translate(46.84625 24.177) scale(0.176 -0.176)">
      <defs>
       <path id="ArialMT-36" d="M 3184 3459 
L 2625 3416 
Q 2550 3747 2413 3897 
Q 2184 4138 1850 4138 
Q 1581 4138 1378 3988 
Q 1113 3794 959 3422 
Q 806 3050 800 2363 
Q 1003 2672 1297 2822 
Q 1591 2972 1913 2972 
Q 2475 2972 2870 2558 
Q 3266 2144 3266 1488 
Q 3266 1056 3080 686 
Q 2894 316 2569 119 
Q 2244 -78 1831 -78 
Q 1128 -78 684 439 
Q 241 956 241 2144 
Q 241 3472 731 4075 
Q 1159 4600 1884 4600 
Q 2425 4600 2770 4297 
Q 3116 3994 3184 3459 
z
M 888 1484 
Q 888 1194 1011 928 
Q 1134 663 1356 523 
Q 1578 384 1822 384 
Q 2178 384 2434 671 
Q 2691 959 2691 1453 
Q 2691 1928 2437 2201 
Q 2184 2475 1800 2475 
Q 1419 2475 1153 2201 
Q 888 1928 888 1484 
z
" transform="scale(0.015625)"/>
      </defs>
      <use xlink:href="#ArialMT-31"/>
      <use xlink:href="#ArialMT-65" x="55.615234"/>
      <use xlink:href="#ArialMT-36" x="111.230469"/>
     </g>
    </g>
   </g>
   <g id="line2d_15">
    <path d="M 855.82075 72.707733 
L 853.599521 74.069796 
L 849.949054 64.367141 
L 846.298586 68.165255 
L 842.648119 87.255509 
L 838.997652 105.146373 
L 835.347185 122.35344 
L 831.696717 140.580466 
L 828.04625 146.138184 
L 824.395783 145.742028 
L 820.745315 131.116515 
L 817.094848 102.595066 
L 813.444381 89.753881 
L 809.793914 72.835509 
L 806.143446 71.99839 
L 802.492979 74.756238 
L 798.842512 86.895021 
L 795.192044 58.296138 
L 791.541577 36.007763 
L 787.89111 38.486174 
L 784.240643 57.889262 
L 780.590175 99.595014 
L 776.939708 101.234455 
L 773.289241 88.869171 
L 769.638773 85.659124 
L 765.988306 85.600169 
L 762.337839 77.968157 
L 758.687371 74.281281 
L 755.036904 78.780435 
L 751.386437 64.128075 
L 747.73597 48.467604 
L 744.085502 46.584646 
L 740.435035 51.239158 
L 736.784568 51.13962 
L 733.1341 48.426327 
L 729.483633 71.411738 
L 725.833166 77.061752 
L 722.182699 61.490067 
L 718.532231 58.661144 
L 714.881764 81.406904 
L 711.231297 65.648919 
L 707.580829 48.869256 
L 703.930362 67.500368 
L 700.279895 72.199918 
L 696.629428 64.659516 
L 692.97896 59.197609 
L 689.328493 65.086795 
L 685.678026 69.047891 
L 682.027558 80.038451 
L 678.377091 110.682876 
L 674.726624 122.080003 
L 671.076157 109.763523 
L 667.425689 99.000035 
L 663.775222 90.691063 
L 660.124755 81.425733 
L 656.474287 83.90207 
L 652.82382 107.283655 
L 649.173353 103.195787 
L 645.522886 85.063378 
L 641.872418 81.143054 
L 638.221951 82.535483 
L 634.571484 95.771006 
L 630.921016 96.51701 
L 627.270549 120.081973 
L 623.620082 118.498252 
L 619.969614 103.251057 
L 616.319147 99.33284 
L 612.66868 102.877417 
L 609.018213 114.863327 
L 605.367745 139.187563 
L 601.717278 153.194521 
L 598.066811 141.559593 
L 594.416343 134.129127 
L 590.765876 129.051481 
L 587.115409 128.883734 
L 583.464942 121.195772 
L 579.814474 112.370172 
L 576.164007 126.972424 
L 572.51354 132.22091 
L 568.863072 134.087043 
L 565.212605 144.367225 
L 561.562138 153.919704 
L 557.911671 140.456256 
L 554.261203 129.581902 
L 550.610736 138.437234 
L 546.960269 138.2835 
L 539.659334 129.570945 
L 536.008867 120.413443 
L 532.3584 125.652215 
L 528.707932 131.273768 
L 525.057465 144.004338 
L 521.406998 152.888682 
L 517.75653 144.83954 
L 514.106063 141.110465 
L 510.455596 148.775349 
L 506.805129 158.805701 
L 503.154661 161.102478 
L 499.504194 178.857856 
L 495.853727 174.057919 
L 492.203259 159.94101 
L 492.203259 159.94101 
" clip-path="url(#pb95a63b3d6)" style="fill: none; stroke: #4c72b0; stroke-width: 1.2; stroke-linecap: round"/>
   </g>
   <g id="line2d_16">
    <path d="M 43.195783 161.562766 
L 46.84625 167.323649 
L 50.496717 175.442807 
L 54.147185 182.626001 
L 57.797652 181.721182 
L 61.448119 189.283341 
L 65.098586 187.099846 
L 68.749054 169.630136 
L 72.399521 169.777426 
L 76.049988 171.29861 
L 79.700456 173.050111 
L 83.350923 180.13979 
L 87.00139 192.007015 
L 90.651857 189.168546 
L 94.302325 178.546909 
L 97.952792 174.272747 
L 101.603259 176.42855 
L 105.253727 179.349053 
L 108.904194 182.87097 
L 112.554661 195.339601 
L 116.205129 195.602314 
L 119.855596 182.007191 
L 123.506063 172.779702 
L 127.15653 170.516039 
L 130.806998 168.8465 
L 134.457465 172.977559 
L 138.107932 189.05426 
L 141.7584 191.826528 
L 145.408867 177.804129 
L 149.059334 174.049745 
L 152.709801 171.245993 
L 156.360269 167.698308 
L 160.010736 173.111378 
L 163.661203 188.350811 
L 167.311671 189.072802 
L 170.962138 176.452585 
L 174.612605 181.477766 
L 178.263072 173.651877 
L 181.91354 171.386452 
L 185.564007 176.120289 
L 189.214474 188.97441 
L 192.864942 188.128153 
L 196.515409 177.368046 
L 200.165876 175.572651 
L 203.816343 175.697226 
L 207.466811 176.580175 
L 211.117278 182.127178 
L 214.767745 193.904058 
L 218.418213 193.773146 
L 222.06868 181.106468 
L 225.719147 178.188533 
L 229.369614 178.035771 
L 233.020082 178.675117 
L 236.670549 183.300849 
L 240.321016 195.166484 
L 243.971484 194.731667 
L 247.621951 183.155349 
L 251.272418 183.200552 
L 254.922886 186.257633 
L 258.573353 187.030027 
L 262.22382 189.0329 
L 265.874287 194.749199 
L 269.524755 191.955991 
L 273.175222 182.956546 
L 276.825689 179.406826 
L 280.476157 178.438008 
L 284.126624 180.646939 
L 287.777091 186.211574 
L 291.427558 192.146461 
L 295.078026 192.194624 
L 298.728493 184.017403 
L 302.37896 182.049941 
L 306.029428 182.4449 
L 309.679895 184.450968 
L 313.330362 189.796887 
L 316.980829 196.401137 
L 320.631297 196.456565 
L 324.281764 184.938705 
L 327.932231 180.666095 
L 331.582699 180.116537 
L 335.233166 179.375021 
L 338.883633 182.165226 
L 342.5341 192.337308 
L 346.184568 191.69501 
L 349.835035 181.067276 
L 353.485502 177.47514 
L 357.13597 178.741428 
L 360.786437 175.040828 
L 364.436904 175.205246 
L 368.087371 183.323542 
L 371.737839 182.759418 
L 375.388306 173.684069 
L 379.038773 172.10535 
L 382.689241 170.913854 
L 386.339708 172.959252 
L 389.990175 177.258957 
L 393.640643 187.193344 
L 397.29111 187.774627 
L 400.941577 175.705091 
L 404.592044 175.163644 
L 408.242512 177.484925 
L 411.892979 177.621232 
L 415.543446 180.178601 
L 419.193914 190.272382 
L 422.844381 190.292235 
L 426.494848 174.646016 
L 430.145315 174.818503 
L 433.795783 174.701709 
L 437.44625 172.69416 
L 441.096717 172.560998 
L 444.747185 184.009557 
L 448.397652 179.156201 
L 452.048119 158.565786 
L 455.698586 157.231878 
L 459.349054 158.270112 
L 462.999521 165.350342 
L 466.649988 170.231845 
L 470.300456 181.135747 
L 473.950923 185.71304 
L 477.60139 174.855224 
L 481.251857 166.968779 
L 484.902325 164.530968 
L 488.552792 156.449163 
" clip-path="url(#pb95a63b3d6)" style="fill: none; stroke: #dd8452; stroke-width: 1.2; stroke-linecap: round"/>
   </g>
   <g id="line2d_17">
    <path d="M 43.195783 207.022852 
L 46.84625 209.167094 
L 50.496717 211.893766 
L 54.147185 213.801745 
L 57.797652 214.601411 
L 61.448119 217.852058 
L 65.098586 217.462914 
L 68.749054 211.301312 
L 72.399521 211.580996 
L 76.049988 212.05401 
L 79.700456 212.446836 
L 83.350923 215.026969 
L 87.00139 219.124827 
L 90.651857 217.969059 
L 94.302325 214.502639 
L 97.952792 211.330274 
L 101.603259 212.415789 
L 105.253727 214.589747 
L 108.904194 215.755583 
L 112.554661 221.070683 
L 116.205129 221.388199 
L 119.855596 215.312108 
L 123.506063 210.764475 
L 127.15653 209.738348 
L 130.806998 209.029248 
L 134.457465 210.942283 
L 138.107932 217.726941 
L 141.7584 218.820484 
L 145.408867 212.74253 
L 149.059334 211.164752 
L 152.709801 209.946492 
L 156.360269 208.405215 
L 160.010736 210.5609 
L 163.661203 217.159723 
L 167.311671 217.829527 
L 170.962138 211.675111 
L 174.612605 214.880829 
L 178.263072 210.739993 
L 181.91354 209.333458 
L 185.564007 211.452331 
L 189.214474 217.516358 
L 192.864942 217.535651 
L 196.515409 212.895279 
L 200.165876 212.650367 
L 203.816343 213.127905 
L 207.466811 213.870623 
L 211.117278 215.779977 
L 214.767745 220.324194 
L 218.418213 219.966007 
L 222.06868 214.040092 
L 225.719147 213.160326 
L 229.369614 213.253066 
L 233.020082 214.672286 
L 236.670549 215.800068 
L 240.321016 220.120264 
L 243.971484 220.405669 
L 247.621951 216.604836 
L 251.272418 216.247447 
L 254.922886 217.267055 
L 258.573353 217.673408 
L 262.22382 218.351151 
L 265.874287 219.887904 
L 269.524755 218.714039 
L 273.175222 215.235423 
L 276.825689 214.771013 
L 280.476157 214.524549 
L 284.126624 215.049056 
L 287.777091 216.714873 
L 291.427558 218.878053 
L 295.078026 219.394709 
L 298.728493 215.995129 
L 302.37896 214.407992 
L 306.029428 214.90163 
L 309.679895 216.133108 
L 313.330362 217.698911 
L 316.980829 220.431127 
L 320.631297 220.378836 
L 324.281764 215.66373 
L 327.932231 214.186809 
L 331.582699 213.525964 
L 335.233166 213.032193 
L 338.883633 214.197941 
L 342.5341 217.950608 
L 346.184568 218.010572 
L 349.835035 214.622079 
L 353.485502 213.368248 
L 357.13597 213.542507 
L 360.786437 211.898113 
L 364.436904 212.343495 
L 368.087371 215.724493 
L 371.737839 215.980892 
L 375.388306 212.142714 
L 379.038773 212.164801 
L 382.689241 211.956746 
L 386.339708 212.351124 
L 389.990175 213.681418 
L 393.640643 216.89064 
L 397.29111 217.367513 
L 400.941577 212.912532 
L 404.592044 212.712149 
L 408.242512 214.065196 
L 411.892979 214.216968 
L 415.543446 215.094384 
L 419.193914 217.90191 
L 422.844381 218.83512 
L 426.494848 212.506666 
L 430.145315 211.810739 
L 433.795783 211.791756 
L 437.44625 210.913587 
L 441.096717 210.880412 
L 444.747185 215.287005 
L 448.397652 212.92974 
L 452.048119 204.624296 
L 455.698586 204.817138 
L 459.349054 206.764502 
L 462.999521 209.075418 
L 466.649988 210.690452 
L 470.300456 215.259994 
L 473.950923 217.145841 
L 477.60139 213.439611 
L 481.251857 210.355461 
L 484.902325 208.575438 
L 488.552792 206.498035 
" clip-path="url(#pb95a63b3d6)" style="fill: none; stroke: #55a868; stroke-opacity: 0.7; stroke-width: 1.2; stroke-linecap: round"/>
   </g>
   <g id="line2d_18">
    <path d="M 43.195783 203.476914 
L 46.84625 207.093555 
L 50.496717 212.486041 
L 54.147185 217.761256 
L 57.797652 216.056771 
L 61.448119 220.368283 
L 65.098586 218.573932 
L 68.749054 207.265824 
L 72.399521 207.13343 
L 76.049988 208.1816 
L 79.700456 209.540276 
L 83.350923 214.049821 
L 87.00139 221.819188 
L 90.651857 220.136487 
L 94.302325 212.981269 
L 97.952792 211.879473 
L 101.603259 212.949761 
L 105.253727 213.696306 
L 108.904194 216.052387 
L 112.554661 223.205918 
L 116.205129 223.151115 
L 119.855596 215.632083 
L 123.506063 210.952226 
L 127.15653 209.714692 
L 130.806998 208.754252 
L 134.457465 210.972277 
L 138.107932 220.264319 
L 141.7584 221.943044 
L 145.408867 213.998599 
L 149.059334 211.821993 
L 152.709801 210.236502 
L 156.360269 208.230093 
L 160.010736 211.487478 
L 163.661203 220.128087 
L 167.311671 220.180274 
L 170.962138 213.714475 
L 174.612605 215.533937 
L 178.263072 211.848884 
L 181.91354 210.989994 
L 185.564007 213.604958 
L 189.214474 220.395052 
L 192.864942 219.529502 
L 196.515409 213.409768 
L 200.165876 211.859284 
L 203.816343 211.506321 
L 207.466811 211.646552 
L 211.117278 215.284201 
L 214.767745 222.516864 
L 218.418213 222.744139 
L 222.06868 216.003376 
L 225.719147 213.965207 
L 229.369614 213.719705 
L 233.020082 212.939831 
L 236.670549 216.43778 
L 240.321016 223.98322 
L 243.971484 223.262998 
L 247.621951 215.487513 
L 251.272418 215.890105 
L 254.922886 217.927577 
L 258.573353 218.293619 
L 262.22382 219.618749 
L 265.874287 223.798295 
L 269.524755 222.178951 
L 273.175222 216.658123 
L 276.825689 213.572813 
L 280.476157 212.850459 
L 284.126624 214.534882 
L 287.777091 218.433701 
L 291.427558 222.205408 
L 295.078026 221.736915 
L 298.728493 216.959274 
L 302.37896 216.578949 
L 306.029428 216.48027 
L 309.679895 217.25486 
L 313.330362 221.034977 
L 316.980829 224.90701 
L 320.631297 225.014729 
L 324.281764 218.211975 
L 327.932231 215.416286 
L 331.582699 215.527573 
L 335.233166 215.279828 
L 338.883633 216.904284 
L 342.5341 223.3237 
L 346.184568 222.621437 
L 349.835035 215.382197 
L 353.485502 213.043891 
L 357.13597 214.135921 
L 360.786437 212.079715 
L 364.436904 211.79875 
L 368.087371 216.536049 
L 371.737839 215.715526 
L 375.388306 210.478355 
L 379.038773 208.877549 
L 382.689241 207.894108 
L 386.339708 209.545128 
L 389.990175 212.514539 
L 393.640643 219.239705 
L 397.29111 219.344115 
L 400.941577 211.72956 
L 404.592044 211.388494 
L 408.242512 212.356729 
L 411.892979 212.341264 
L 415.543446 214.021217 
L 419.193914 221.307472 
L 422.844381 220.394115 
L 426.494848 211.07635 
L 430.145315 211.944764 
L 433.795783 211.846953 
L 437.44625 210.717573 
L 441.096717 210.617586 
L 444.747185 217.659552 
L 448.397652 215.16346 
L 452.048119 202.87849 
L 455.698586 201.35174 
L 459.349054 200.44261 
L 462.999521 205.211923 
L 466.649988 208.478393 
L 470.300456 214.812753 
L 473.950923 217.504199 
L 477.60139 210.352613 
L 481.251857 205.550318 
L 484.902325 204.89253 
L 488.552792 198.888129 
" clip-path="url(#pb95a63b3d6)" style="fill: none; stroke: #c44e52; stroke-opacity: 0.7; stroke-width: 1.2; stroke-linecap: round"/>
   </g>
   <g id="patch_3">
    <path d="M 46.84625 248.937 
L 46.84625 27.177 
" style="fill: none; stroke: #cccccc; stroke-linejoin: miter; stroke-linecap: square"/>
   </g>
   <g id="patch_4">
    <path d="M 828.04625 248.937 
L 828.04625 27.177 
" style="fill: none; stroke: #cccccc; stroke-linejoin: miter; stroke-linecap: square"/>
   </g>
   <g id="patch_5">
    <path d="M 46.84625 248.937 
L 828.04625 248.937 
" style="fill: none; stroke: #cccccc; stroke-linejoin: miter; stroke-linecap: square"/>
   </g>
   <g id="patch_6">
    <path d="M 46.84625 27.177 
L 828.04625 27.177 
" style="fill: none; stroke: #cccccc; stroke-linejoin: miter; stroke-linecap: square"/>
   </g>
   <g id="text_18">
    <!-- Combined historic natural gas consumption in Germany -->
    <g style="fill: #262626" transform="translate(201.08075 21.177) scale(0.192 -0.192)">
     <defs>
      <path id="ArialMT-43" d="M 3763 1606 
L 4369 1453 
Q 4178 706 3683 314 
Q 3188 -78 2472 -78 
Q 1731 -78 1267 223 
Q 803 525 561 1097 
Q 319 1669 319 2325 
Q 319 3041 592 3573 
Q 866 4106 1370 4382 
Q 1875 4659 2481 4659 
Q 3169 4659 3637 4309 
Q 4106 3959 4291 3325 
L 3694 3184 
Q 3534 3684 3231 3912 
Q 2928 4141 2469 4141 
Q 1941 4141 1586 3887 
Q 1231 3634 1087 3207 
Q 944 2781 944 2328 
Q 944 1744 1114 1308 
Q 1284 872 1643 656 
Q 2003 441 2422 441 
Q 2931 441 3284 734 
Q 3638 1028 3763 1606 
z
" transform="scale(0.015625)"/>
      <path id="ArialMT-6d" d="M 422 0 
L 422 3319 
L 925 3319 
L 925 2853 
Q 1081 3097 1340 3245 
Q 1600 3394 1931 3394 
Q 2300 3394 2536 3241 
Q 2772 3088 2869 2813 
Q 3263 3394 3894 3394 
Q 4388 3394 4653 3120 
Q 4919 2847 4919 2278 
L 4919 0 
L 4359 0 
L 4359 2091 
Q 4359 2428 4304 2576 
Q 4250 2725 4106 2815 
Q 3963 2906 3769 2906 
Q 3419 2906 3187 2673 
Q 2956 2441 2956 1928 
L 2956 0 
L 2394 0 
L 2394 2156 
Q 2394 2531 2256 2718 
Q 2119 2906 1806 2906 
Q 1569 2906 1367 2781 
Q 1166 2656 1075 2415 
Q 984 2175 984 1722 
L 984 0 
L 422 0 
z
" transform="scale(0.015625)"/>
      <path id="ArialMT-62" d="M 941 0 
L 419 0 
L 419 4581 
L 981 4581 
L 981 2947 
Q 1338 3394 1891 3394 
Q 2197 3394 2470 3270 
Q 2744 3147 2920 2923 
Q 3097 2700 3197 2384 
Q 3297 2069 3297 1709 
Q 3297 856 2875 390 
Q 2453 -75 1863 -75 
Q 1275 -75 941 416 
L 941 0 
z
M 934 1684 
Q 934 1088 1097 822 
Q 1363 388 1816 388 
Q 2184 388 2453 708 
Q 2722 1028 2722 1663 
Q 2722 2313 2464 2622 
Q 2206 2931 1841 2931 
Q 1472 2931 1203 2611 
Q 934 2291 934 1684 
z
" transform="scale(0.015625)"/>
      <path id="ArialMT-69" d="M 425 3934 
L 425 4581 
L 988 4581 
L 988 3934 
L 425 3934 
z
M 425 0 
L 425 3319 
L 988 3319 
L 988 0 
L 425 0 
z
" transform="scale(0.015625)"/>
      <path id="ArialMT-64" d="M 2575 0 
L 2575 419 
Q 2259 -75 1647 -75 
Q 1250 -75 917 144 
Q 584 363 401 755 
Q 219 1147 219 1656 
Q 219 2153 384 2558 
Q 550 2963 881 3178 
Q 1213 3394 1622 3394 
Q 1922 3394 2156 3267 
Q 2391 3141 2538 2938 
L 2538 4581 
L 3097 4581 
L 3097 0 
L 2575 0 
z
M 797 1656 
Q 797 1019 1065 703 
Q 1334 388 1700 388 
Q 2069 388 2326 689 
Q 2584 991 2584 1609 
Q 2584 2291 2321 2609 
Q 2059 2928 1675 2928 
Q 1300 2928 1048 2622 
Q 797 2316 797 1656 
z
" transform="scale(0.015625)"/>
      <path id="ArialMT-20" transform="scale(0.015625)"/>
      <path id="ArialMT-73" d="M 197 991 
L 753 1078 
Q 800 744 1014 566 
Q 1228 388 1613 388 
Q 2000 388 2187 545 
Q 2375 703 2375 916 
Q 2375 1106 2209 1216 
Q 2094 1291 1634 1406 
Q 1016 1563 777 1677 
Q 538 1791 414 1992 
Q 291 2194 291 2438 
Q 291 2659 392 2848 
Q 494 3038 669 3163 
Q 800 3259 1026 3326 
Q 1253 3394 1513 3394 
Q 1903 3394 2198 3281 
Q 2494 3169 2634 2976 
Q 2775 2784 2828 2463 
L 2278 2388 
Q 2241 2644 2061 2787 
Q 1881 2931 1553 2931 
Q 1166 2931 1000 2803 
Q 834 2675 834 2503 
Q 834 2394 903 2306 
Q 972 2216 1119 2156 
Q 1203 2125 1616 2013 
Q 2213 1853 2448 1751 
Q 2684 1650 2818 1456 
Q 2953 1263 2953 975 
Q 2953 694 2789 445 
Q 2625 197 2315 61 
Q 2006 -75 1616 -75 
Q 969 -75 630 194 
Q 291 463 197 991 
z
" transform="scale(0.015625)"/>
      <path id="ArialMT-72" d="M 416 0 
L 416 3319 
L 922 3319 
L 922 2816 
Q 1116 3169 1280 3281 
Q 1444 3394 1641 3394 
Q 1925 3394 2219 3213 
L 2025 2691 
Q 1819 2813 1613 2813 
Q 1428 2813 1281 2702 
Q 1134 2591 1072 2394 
Q 978 2094 978 1738 
L 978 0 
L 416 0 
z
" transform="scale(0.015625)"/>
      <path id="ArialMT-47" d="M 2638 1797 
L 2638 2334 
L 4578 2338 
L 4578 638 
Q 4131 281 3656 101 
Q 3181 -78 2681 -78 
Q 2006 -78 1454 211 
Q 903 500 622 1047 
Q 341 1594 341 2269 
Q 341 2938 620 3517 
Q 900 4097 1425 4378 
Q 1950 4659 2634 4659 
Q 3131 4659 3532 4498 
Q 3934 4338 4162 4050 
Q 4391 3763 4509 3300 
L 3963 3150 
Q 3859 3500 3706 3700 
Q 3553 3900 3268 4020 
Q 2984 4141 2638 4141 
Q 2222 4141 1919 4014 
Q 1616 3888 1430 3681 
Q 1244 3475 1141 3228 
Q 966 2803 966 2306 
Q 966 1694 1177 1281 
Q 1388 869 1791 669 
Q 2194 469 2647 469 
Q 3041 469 3416 620 
Q 3791 772 3984 944 
L 3984 1797 
L 2638 1797 
z
" transform="scale(0.015625)"/>
      <path id="ArialMT-79" d="M 397 -1278 
L 334 -750 
Q 519 -800 656 -800 
Q 844 -800 956 -737 
Q 1069 -675 1141 -563 
Q 1194 -478 1313 -144 
Q 1328 -97 1363 -6 
L 103 3319 
L 709 3319 
L 1400 1397 
Q 1534 1031 1641 628 
Q 1738 1016 1872 1384 
L 2581 3319 
L 3144 3319 
L 1881 -56 
Q 1678 -603 1566 -809 
Q 1416 -1088 1222 -1217 
Q 1028 -1347 759 -1347 
Q 597 -1347 397 -1278 
z
" transform="scale(0.015625)"/>
     </defs>
     <use xlink:href="#ArialMT-43"/>
     <use xlink:href="#ArialMT-6f" x="72.216797"/>
     <use xlink:href="#ArialMT-6d" x="127.832031"/>
     <use xlink:href="#ArialMT-62" x="211.132812"/>
     <use xlink:href="#ArialMT-69" x="266.748047"/>
     <use xlink:href="#ArialMT-6e" x="288.964844"/>
     <use xlink:href="#ArialMT-65" x="344.580078"/>
     <use xlink:href="#ArialMT-64" x="400.195312"/>
     <use xlink:href="#ArialMT-20" x="455.810547"/>
     <use xlink:href="#ArialMT-68" x="483.59375"/>
     <use xlink:href="#ArialMT-69" x="539.208984"/>
     <use xlink:href="#ArialMT-73" x="561.425781"/>
     <use xlink:href="#ArialMT-74" x="611.425781"/>
     <use xlink:href="#ArialMT-6f" x="639.208984"/>
     <use xlink:href="#ArialMT-72" x="694.824219"/>
     <use xlink:href="#ArialMT-69" x="728.125"/>
     <use xlink:href="#ArialMT-63" x="750.341797"/>
     <use xlink:href="#ArialMT-20" x="800.341797"/>
     <use xlink:href="#ArialMT-6e" x="828.125"/>
     <use xlink:href="#ArialMT-61" x="883.740234"/>
     <use xlink:href="#ArialMT-74" x="939.355469"/>
     <use xlink:href="#ArialMT-75" x="967.138672"/>
     <use xlink:href="#ArialMT-72" x="1022.753906"/>
     <use xlink:href="#ArialMT-61" x="1056.054688"/>
     <use xlink:href="#ArialMT-6c" x="1111.669922"/>
     <use xlink:href="#ArialMT-20" x="1133.886719"/>
     <use xlink:href="#ArialMT-67" x="1161.669922"/>
     <use xlink:href="#ArialMT-61" x="1217.285156"/>
     <use xlink:href="#ArialMT-73" x="1272.900391"/>
     <use xlink:href="#ArialMT-20" x="1322.900391"/>
     <use xlink:href="#ArialMT-63" x="1350.683594"/>
     <use xlink:href="#ArialMT-6f" x="1400.683594"/>
     <use xlink:href="#ArialMT-6e" x="1456.298828"/>
     <use xlink:href="#ArialMT-73" x="1511.914062"/>
     <use xlink:href="#ArialMT-75" x="1561.914062"/>
     <use xlink:href="#ArialMT-6d" x="1617.529297"/>
     <use xlink:href="#ArialMT-70" x="1700.830078"/>
     <use xlink:href="#ArialMT-74" x="1756.445312"/>
     <use xlink:href="#ArialMT-69" x="1784.228516"/>
     <use xlink:href="#ArialMT-6f" x="1806.445312"/>
     <use xlink:href="#ArialMT-6e" x="1862.060547"/>
     <use xlink:href="#ArialMT-20" x="1917.675781"/>
     <use xlink:href="#ArialMT-69" x="1945.458984"/>
     <use xlink:href="#ArialMT-6e" x="1967.675781"/>
     <use xlink:href="#ArialMT-20" x="2023.291016"/>
     <use xlink:href="#ArialMT-47" x="2051.074219"/>
     <use xlink:href="#ArialMT-65" x="2128.857422"/>
     <use xlink:href="#ArialMT-72" x="2184.472656"/>
     <use xlink:href="#ArialMT-6d" x="2217.773438"/>
     <use xlink:href="#ArialMT-61" x="2301.074219"/>
     <use xlink:href="#ArialMT-6e" x="2356.689453"/>
     <use xlink:href="#ArialMT-79" x="2412.304688"/>
    </g>
   </g>
   <g id="legend_1">
    <g id="patch_7">
     <path d="M 59.16625 141.89875 
L 391.15725 141.89875 
Q 394.67725 141.89875 394.67725 138.37875 
L 394.67725 39.497 
Q 394.67725 35.977 391.15725 35.977 
L 59.16625 35.977 
Q 55.64625 35.977 55.64625 39.497 
L 55.64625 138.37875 
Q 55.64625 141.89875 59.16625 141.89875 
z
" style="fill: #ffffff; opacity: 0.8; stroke: #cccccc; stroke-width: 0.8; stroke-linejoin: miter"/>
    </g>
    <g id="line2d_19">
     <path d="M 62.68625 49.45475 
L 80.28625 49.45475 
L 97.88625 49.45475 
" style="fill: none; stroke: #4c72b0; stroke-width: 1.2; stroke-linecap: round"/>
    </g>
    <g id="text_19">
     <!-- Trading Hub Europe -->
     <g style="fill: #262626" transform="translate(111.96625 55.61475) scale(0.176 -0.176)">
      <defs>
       <path id="ArialMT-54" d="M 1659 0 
L 1659 4041 
L 150 4041 
L 150 4581 
L 3781 4581 
L 3781 4041 
L 2266 4041 
L 2266 0 
L 1659 0 
z
" transform="scale(0.015625)"/>
       <path id="ArialMT-48" d="M 513 0 
L 513 4581 
L 1119 4581 
L 1119 2700 
L 3500 2700 
L 3500 4581 
L 4106 4581 
L 4106 0 
L 3500 0 
L 3500 2159 
L 1119 2159 
L 1119 0 
L 513 0 
z
" transform="scale(0.015625)"/>
       <path id="ArialMT-45" d="M 506 0 
L 506 4581 
L 3819 4581 
L 3819 4041 
L 1113 4041 
L 1113 2638 
L 3647 2638 
L 3647 2100 
L 1113 2100 
L 1113 541 
L 3925 541 
L 3925 0 
L 506 0 
z
" transform="scale(0.015625)"/>
      </defs>
      <use xlink:href="#ArialMT-54"/>
      <use xlink:href="#ArialMT-72" x="57.333984"/>
      <use xlink:href="#ArialMT-61" x="90.634766"/>
      <use xlink:href="#ArialMT-64" x="146.25"/>
      <use xlink:href="#ArialMT-69" x="201.865234"/>
      <use xlink:href="#ArialMT-6e" x="224.082031"/>
      <use xlink:href="#ArialMT-67" x="279.697266"/>
      <use xlink:href="#ArialMT-20" x="335.3125"/>
      <use xlink:href="#ArialMT-48" x="363.095703"/>
      <use xlink:href="#ArialMT-75" x="435.3125"/>
      <use xlink:href="#ArialMT-62" x="490.927734"/>
      <use xlink:href="#ArialMT-20" x="546.542969"/>
      <use xlink:href="#ArialMT-45" x="574.326172"/>
      <use xlink:href="#ArialMT-75" x="641.025391"/>
      <use xlink:href="#ArialMT-72" x="696.640625"/>
      <use xlink:href="#ArialMT-6f" x="729.941406"/>
      <use xlink:href="#ArialMT-70" x="785.556641"/>
      <use xlink:href="#ArialMT-65" x="841.171875"/>
     </g>
    </g>
    <g id="line2d_20">
     <path d="M 62.68625 74.78225 
L 80.28625 74.78225 
L 97.88625 74.78225 
" style="fill: none; stroke: #dd8452; stroke-width: 1.2; stroke-linecap: round"/>
    </g>
    <g id="text_20">
     <!-- GASPOOL + NetConnect Germany -->
     <g style="fill: #262626" transform="translate(111.96625 80.94225) scale(0.176 -0.176)">
      <defs>
       <path id="ArialMT-50" d="M 494 0 
L 494 4581 
L 2222 4581 
Q 2678 4581 2919 4538 
Q 3256 4481 3484 4323 
Q 3713 4166 3852 3881 
Q 3991 3597 3991 3256 
Q 3991 2672 3619 2267 
Q 3247 1863 2275 1863 
L 1100 1863 
L 1100 0 
L 494 0 
z
M 1100 2403 
L 2284 2403 
Q 2872 2403 3119 2622 
Q 3366 2841 3366 3238 
Q 3366 3525 3220 3729 
Q 3075 3934 2838 4000 
Q 2684 4041 2272 4041 
L 1100 4041 
L 1100 2403 
z
" transform="scale(0.015625)"/>
       <path id="ArialMT-4c" d="M 469 0 
L 469 4581 
L 1075 4581 
L 1075 541 
L 3331 541 
L 3331 0 
L 469 0 
z
" transform="scale(0.015625)"/>
       <path id="ArialMT-2b" d="M 1603 741 
L 1603 1997 
L 356 1997 
L 356 2522 
L 1603 2522 
L 1603 3769 
L 2134 3769 
L 2134 2522 
L 3381 2522 
L 3381 1997 
L 2134 1997 
L 2134 741 
L 1603 741 
z
" transform="scale(0.015625)"/>
      </defs>
      <use xlink:href="#ArialMT-47"/>
      <use xlink:href="#ArialMT-41" x="77.783203"/>
      <use xlink:href="#ArialMT-53" x="144.482422"/>
      <use xlink:href="#ArialMT-50" x="211.181641"/>
      <use xlink:href="#ArialMT-4f" x="277.880859"/>
      <use xlink:href="#ArialMT-4f" x="355.664062"/>
      <use xlink:href="#ArialMT-4c" x="433.447266"/>
      <use xlink:href="#ArialMT-20" x="485.3125"/>
      <use xlink:href="#ArialMT-2b" x="513.095703"/>
      <use xlink:href="#ArialMT-20" x="571.494141"/>
      <use xlink:href="#ArialMT-4e" x="599.277344"/>
      <use xlink:href="#ArialMT-65" x="671.494141"/>
      <use xlink:href="#ArialMT-74" x="727.109375"/>
      <use xlink:href="#ArialMT-43" x="754.892578"/>
      <use xlink:href="#ArialMT-6f" x="827.109375"/>
      <use xlink:href="#ArialMT-6e" x="882.724609"/>
      <use xlink:href="#ArialMT-6e" x="938.339844"/>
      <use xlink:href="#ArialMT-65" x="993.955078"/>
      <use xlink:href="#ArialMT-63" x="1049.570312"/>
      <use xlink:href="#ArialMT-74" x="1099.570312"/>
      <use xlink:href="#ArialMT-20" x="1127.353516"/>
      <use xlink:href="#ArialMT-47" x="1155.136719"/>
      <use xlink:href="#ArialMT-65" x="1232.919922"/>
      <use xlink:href="#ArialMT-72" x="1288.535156"/>
      <use xlink:href="#ArialMT-6d" x="1321.835938"/>
      <use xlink:href="#ArialMT-61" x="1405.136719"/>
      <use xlink:href="#ArialMT-6e" x="1460.751953"/>
      <use xlink:href="#ArialMT-79" x="1516.367188"/>
     </g>
    </g>
    <g id="line2d_21">
     <path d="M 62.68625 99.88425 
L 80.28625 99.88425 
L 97.88625 99.88425 
" style="fill: none; stroke: #55a868; stroke-opacity: 0.7; stroke-width: 1.2; stroke-linecap: round"/>
    </g>
    <g id="text_21">
     <!-- GASPOOL -->
     <g style="fill: #262626" transform="translate(111.96625 106.04425) scale(0.176 -0.176)">
      <use xlink:href="#ArialMT-47"/>
      <use xlink:href="#ArialMT-41" x="77.783203"/>
      <use xlink:href="#ArialMT-53" x="144.482422"/>
      <use xlink:href="#ArialMT-50" x="211.181641"/>
      <use xlink:href="#ArialMT-4f" x="277.880859"/>
      <use xlink:href="#ArialMT-4f" x="355.664062"/>
      <use xlink:href="#ArialMT-4c" x="433.447266"/>
     </g>
    </g>
    <g id="line2d_22">
     <path d="M 62.68625 124.9945 
L 80.28625 124.9945 
L 97.88625 124.9945 
" style="fill: none; stroke: #c44e52; stroke-opacity: 0.7; stroke-width: 1.2; stroke-linecap: round"/>
    </g>
    <g id="text_22">
     <!-- NetConnect Germany -->
     <g style="fill: #262626" transform="translate(111.96625 131.1545) scale(0.176 -0.176)">
      <use xlink:href="#ArialMT-4e"/>
      <use xlink:href="#ArialMT-65" x="72.216797"/>
      <use xlink:href="#ArialMT-74" x="127.832031"/>
      <use xlink:href="#ArialMT-43" x="155.615234"/>
      <use xlink:href="#ArialMT-6f" x="227.832031"/>
      <use xlink:href="#ArialMT-6e" x="283.447266"/>
      <use xlink:href="#ArialMT-6e" x="339.0625"/>
      <use xlink:href="#ArialMT-65" x="394.677734"/>
      <use xlink:href="#ArialMT-63" x="450.292969"/>
      <use xlink:href="#ArialMT-74" x="500.292969"/>
      <use xlink:href="#ArialMT-20" x="528.076172"/>
      <use xlink:href="#ArialMT-47" x="555.859375"/>
      <use xlink:href="#ArialMT-65" x="633.642578"/>
      <use xlink:href="#ArialMT-72" x="689.257812"/>
      <use xlink:href="#ArialMT-6d" x="722.558594"/>
      <use xlink:href="#ArialMT-61" x="805.859375"/>
      <use xlink:href="#ArialMT-6e" x="861.474609"/>
      <use xlink:href="#ArialMT-79" x="917.089844"/>
     </g>
    </g>
   </g>
  </g>
 </g>
 <defs>
  <clipPath id="pb95a63b3d6">
   <rect x="46.84625" y="27.177" width="781.2" height="221.76"/>
  </clipPath>
 </defs>
</svg>
