<?xml version="1.0" encoding="utf-8" standalone="no"?>
<!DOCTYPE svg PUBLIC "-//W3C//DTD SVG 1.1//EN"
  "http://www.w3.org/Graphics/SVG/1.1/DTD/svg11.dtd">
<svg xmlns:xlink="http://www.w3.org/1999/xlink" width="944.3755pt" height="335.97275pt" viewBox="0 0 944.3755 335.97275" xmlns="http://www.w3.org/2000/svg" version="1.1">
 <metadata>
  <rdf:RDF xmlns:dc="http://purl.org/dc/elements/1.1/" xmlns:cc="http://creativecommons.org/ns#" xmlns:rdf="http://www.w3.org/1999/02/22-rdf-syntax-ns#">
   <cc:Work>
    <dc:type rdf:resource="http://purl.org/dc/dcmitype/StillImage"/>
    <dc:date>2023-05-12T11:35:36.283664</dc:date>
    <dc:format>image/svg+xml</dc:format>
    <dc:creator>
     <cc:Agent>
      <dc:title>Matplotlib v3.7.1, https://matplotlib.org/</dc:title>
     </cc:Agent>
    </dc:creator>
   </cc:Work>
  </rdf:RDF>
 </metadata>
 <defs>
  <style type="text/css">*{stroke-linejoin: round; stroke-linecap: butt}</style>
 </defs>
 <g id="figure_1">
  <g id="patch_1">
   <path d="M 0 335.97275 
L 944.3755 335.97275 
L 944.3755 0 
L 0 0 
z
" style="fill: #ffffff"/>
  </g>
  <g id="axes_1">
   <g id="patch_2">
    <path d="M 56.8795 304.377 
L 838.0795 304.377 
L 838.0795 27.177 
L 56.8795 27.177 
z
" style="fill: #ffffff"/>
   </g>
   <g id="matplotlib.axis_1">
    <g id="xtick_1">
     <g id="line2d_1">
      <path d="M 56.8795 304.377 
L 56.8795 27.177 
" clip-path="url(#p80a1730574)" style="fill: none; stroke: #cccccc; stroke-width: 0.8; stroke-linecap: round"/>
     </g>
     <g id="text_1">
      <!-- 2018 -->
      <g style="fill: #262626" transform="translate(37.305 325.27475) scale(0.176 -0.176)">
       <defs>
        <path id="ArialMT-32" d="M 3222 541 
L 3222 0 
L 194 0 
Q 188 203 259 391 
Q 375 700 629 1000 
Q 884 1300 1366 1694 
Q 2113 2306 2375 2664 
Q 2638 3022 2638 3341 
Q 2638 3675 2398 3904 
Q 2159 4134 1775 4134 
Q 1369 4134 1125 3890 
Q 881 3647 878 3216 
L 300 3275 
Q 359 3922 746 4261 
Q 1134 4600 1788 4600 
Q 2447 4600 2831 4234 
Q 3216 3869 3216 3328 
Q 3216 3053 3103 2787 
Q 2991 2522 2730 2228 
Q 2469 1934 1863 1422 
Q 1356 997 1212 845 
Q 1069 694 975 541 
L 3222 541 
z
" transform="scale(0.015625)"/>
        <path id="ArialMT-30" d="M 266 2259 
Q 266 3072 433 3567 
Q 600 4063 929 4331 
Q 1259 4600 1759 4600 
Q 2128 4600 2406 4451 
Q 2684 4303 2865 4023 
Q 3047 3744 3150 3342 
Q 3253 2941 3253 2259 
Q 3253 1453 3087 958 
Q 2922 463 2592 192 
Q 2263 -78 1759 -78 
Q 1097 -78 719 397 
Q 266 969 266 2259 
z
M 844 2259 
Q 844 1131 1108 757 
Q 1372 384 1759 384 
Q 2147 384 2411 759 
Q 2675 1134 2675 2259 
Q 2675 3391 2411 3762 
Q 2147 4134 1753 4134 
Q 1366 4134 1134 3806 
Q 844 3388 844 2259 
z
" transform="scale(0.015625)"/>
        <path id="ArialMT-31" d="M 2384 0 
L 1822 0 
L 1822 3584 
Q 1619 3391 1289 3197 
Q 959 3003 697 2906 
L 697 3450 
Q 1169 3672 1522 3987 
Q 1875 4303 2022 4600 
L 2384 4600 
L 2384 0 
z
" transform="scale(0.015625)"/>
        <path id="ArialMT-38" d="M 1131 2484 
Q 781 2613 612 2850 
Q 444 3088 444 3419 
Q 444 3919 803 4259 
Q 1163 4600 1759 4600 
Q 2359 4600 2725 4251 
Q 3091 3903 3091 3403 
Q 3091 3084 2923 2848 
Q 2756 2613 2416 2484 
Q 2838 2347 3058 2040 
Q 3278 1734 3278 1309 
Q 3278 722 2862 322 
Q 2447 -78 1769 -78 
Q 1091 -78 675 323 
Q 259 725 259 1325 
Q 259 1772 486 2073 
Q 713 2375 1131 2484 
z
M 1019 3438 
Q 1019 3113 1228 2906 
Q 1438 2700 1772 2700 
Q 2097 2700 2305 2904 
Q 2513 3109 2513 3406 
Q 2513 3716 2298 3927 
Q 2084 4138 1766 4138 
Q 1444 4138 1231 3931 
Q 1019 3725 1019 3438 
z
M 838 1322 
Q 838 1081 952 856 
Q 1066 631 1291 507 
Q 1516 384 1775 384 
Q 2178 384 2440 643 
Q 2703 903 2703 1303 
Q 2703 1709 2433 1975 
Q 2163 2241 1756 2241 
Q 1359 2241 1098 1978 
Q 838 1716 838 1322 
z
" transform="scale(0.015625)"/>
       </defs>
       <use xlink:href="#ArialMT-32"/>
       <use xlink:href="#ArialMT-30" x="55.615234"/>
       <use xlink:href="#ArialMT-31" x="111.230469"/>
       <use xlink:href="#ArialMT-38" x="166.845703"/>
      </g>
     </g>
    </g>
    <g id="xtick_2">
     <g id="line2d_2">
      <path d="M 209.359714 304.377 
L 209.359714 27.177 
" clip-path="url(#p80a1730574)" style="fill: none; stroke: #cccccc; stroke-width: 0.8; stroke-linecap: round"/>
     </g>
     <g id="text_2">
      <!-- 2019 -->
      <g style="fill: #262626" transform="translate(189.785214 325.27475) scale(0.176 -0.176)">
       <defs>
        <path id="ArialMT-39" d="M 350 1059 
L 891 1109 
Q 959 728 1153 556 
Q 1347 384 1650 384 
Q 1909 384 2104 503 
Q 2300 622 2425 820 
Q 2550 1019 2634 1356 
Q 2719 1694 2719 2044 
Q 2719 2081 2716 2156 
Q 2547 1888 2255 1720 
Q 1963 1553 1622 1553 
Q 1053 1553 659 1965 
Q 266 2378 266 3053 
Q 266 3750 677 4175 
Q 1088 4600 1706 4600 
Q 2153 4600 2523 4359 
Q 2894 4119 3086 3673 
Q 3278 3228 3278 2384 
Q 3278 1506 3087 986 
Q 2897 466 2520 194 
Q 2144 -78 1638 -78 
Q 1100 -78 759 220 
Q 419 519 350 1059 
z
M 2653 3081 
Q 2653 3566 2395 3850 
Q 2138 4134 1775 4134 
Q 1400 4134 1122 3828 
Q 844 3522 844 3034 
Q 844 2597 1108 2323 
Q 1372 2050 1759 2050 
Q 2150 2050 2401 2323 
Q 2653 2597 2653 3081 
z
" transform="scale(0.015625)"/>
       </defs>
       <use xlink:href="#ArialMT-32"/>
       <use xlink:href="#ArialMT-30" x="55.615234"/>
       <use xlink:href="#ArialMT-31" x="111.230469"/>
       <use xlink:href="#ArialMT-39" x="166.845703"/>
      </g>
     </g>
    </g>
    <g id="xtick_3">
     <g id="line2d_3">
      <path d="M 361.839928 304.377 
L 361.839928 27.177 
" clip-path="url(#p80a1730574)" style="fill: none; stroke: #cccccc; stroke-width: 0.8; stroke-linecap: round"/>
     </g>
     <g id="text_3">
      <!-- 2020 -->
      <g style="fill: #262626" transform="translate(342.265428 325.27475) scale(0.176 -0.176)">
       <use xlink:href="#ArialMT-32"/>
       <use xlink:href="#ArialMT-30" x="55.615234"/>
       <use xlink:href="#ArialMT-32" x="111.230469"/>
       <use xlink:href="#ArialMT-30" x="166.845703"/>
      </g>
     </g>
    </g>
    <g id="xtick_4">
     <g id="line2d_4">
      <path d="M 514.737896 304.377 
L 514.737896 27.177 
" clip-path="url(#p80a1730574)" style="fill: none; stroke: #cccccc; stroke-width: 0.8; stroke-linecap: round"/>
     </g>
     <g id="text_4">
      <!-- 2021 -->
      <g style="fill: #262626" transform="translate(495.163396 325.27475) scale(0.176 -0.176)">
       <use xlink:href="#ArialMT-32"/>
       <use xlink:href="#ArialMT-30" x="55.615234"/>
       <use xlink:href="#ArialMT-32" x="111.230469"/>
       <use xlink:href="#ArialMT-31" x="166.845703"/>
      </g>
     </g>
    </g>
    <g id="xtick_5">
     <g id="line2d_5">
      <path d="M 667.21811 304.377 
L 667.21811 27.177 
" clip-path="url(#p80a1730574)" style="fill: none; stroke: #cccccc; stroke-width: 0.8; stroke-linecap: round"/>
     </g>
     <g id="text_5">
      <!-- 2022 -->
      <g style="fill: #262626" transform="translate(647.64361 325.27475) scale(0.176 -0.176)">
       <use xlink:href="#ArialMT-32"/>
       <use xlink:href="#ArialMT-30" x="55.615234"/>
       <use xlink:href="#ArialMT-32" x="111.230469"/>
       <use xlink:href="#ArialMT-32" x="166.845703"/>
      </g>
     </g>
    </g>
    <g id="xtick_6">
     <g id="line2d_6">
      <path d="M 819.698324 304.377 
L 819.698324 27.177 
" clip-path="url(#p80a1730574)" style="fill: none; stroke: #cccccc; stroke-width: 0.8; stroke-linecap: round"/>
     </g>
     <g id="text_6">
      <!-- 2023 -->
      <g style="fill: #262626" transform="translate(800.123824 325.27475) scale(0.176 -0.176)">
       <defs>
        <path id="ArialMT-33" d="M 269 1209 
L 831 1284 
Q 928 806 1161 595 
Q 1394 384 1728 384 
Q 2125 384 2398 659 
Q 2672 934 2672 1341 
Q 2672 1728 2419 1979 
Q 2166 2231 1775 2231 
Q 1616 2231 1378 2169 
L 1441 2663 
Q 1497 2656 1531 2656 
Q 1891 2656 2178 2843 
Q 2466 3031 2466 3422 
Q 2466 3731 2256 3934 
Q 2047 4138 1716 4138 
Q 1388 4138 1169 3931 
Q 950 3725 888 3313 
L 325 3413 
Q 428 3978 793 4289 
Q 1159 4600 1703 4600 
Q 2078 4600 2393 4439 
Q 2709 4278 2876 4000 
Q 3044 3722 3044 3409 
Q 3044 3113 2884 2869 
Q 2725 2625 2413 2481 
Q 2819 2388 3044 2092 
Q 3269 1797 3269 1353 
Q 3269 753 2831 336 
Q 2394 -81 1725 -81 
Q 1122 -81 723 278 
Q 325 638 269 1209 
z
" transform="scale(0.015625)"/>
       </defs>
       <use xlink:href="#ArialMT-32"/>
       <use xlink:href="#ArialMT-30" x="55.615234"/>
       <use xlink:href="#ArialMT-32" x="111.230469"/>
       <use xlink:href="#ArialMT-33" x="166.845703"/>
      </g>
     </g>
    </g>
    <g id="xtick_7">
     <g id="line2d_7">
      <path d="M 838.0795 304.377 
L 838.0795 27.177 
" clip-path="url(#p80a1730574)" style="fill: none; stroke: #cccccc; stroke-width: 0.8; stroke-linecap: round"/>
     </g>
    </g>
    <g id="xtick_8"/>
    <g id="xtick_9"/>
    <g id="xtick_10"/>
    <g id="xtick_11"/>
    <g id="xtick_12"/>
    <g id="xtick_13"/>
    <g id="xtick_14"/>
    <g id="xtick_15"/>
    <g id="xtick_16"/>
    <g id="xtick_17"/>
    <g id="xtick_18"/>
    <g id="xtick_19"/>
    <g id="xtick_20"/>
    <g id="xtick_21"/>
    <g id="xtick_22"/>
   </g>
   <g id="matplotlib.axis_2">
    <g id="ytick_1">
     <g id="line2d_8">
      <path d="M 56.8795 256.060148 
L 838.0795 256.060148 
" clip-path="url(#p80a1730574)" style="fill: none; stroke: #cccccc; stroke-width: 0.8; stroke-linecap: round"/>
     </g>
     <g id="line2d_9">
      <defs>
       <path id="m7fdebd7132" d="M 0 0 
L -4.8 0 
" style="stroke: #262626"/>
      </defs>
      <g>
       <use xlink:href="#m7fdebd7132" x="56.8795" y="256.060148" style="fill: #262626; stroke: #262626"/>
      </g>
     </g>
     <g id="text_7">
      <!-- 20 -->
      <g style="fill: #262626" transform="translate(29.005 262.359023) scale(0.176 -0.176)">
       <use xlink:href="#ArialMT-32"/>
       <use xlink:href="#ArialMT-30" x="55.615234"/>
      </g>
     </g>
    </g>
    <g id="ytick_2">
     <g id="line2d_10">
      <path d="M 56.8795 194.949115 
L 838.0795 194.949115 
" clip-path="url(#p80a1730574)" style="fill: none; stroke: #cccccc; stroke-width: 0.8; stroke-linecap: round"/>
     </g>
     <g id="line2d_11">
      <g>
       <use xlink:href="#m7fdebd7132" x="56.8795" y="194.949115" style="fill: #262626; stroke: #262626"/>
      </g>
     </g>
     <g id="text_8">
      <!-- 40 -->
      <g style="fill: #262626" transform="translate(29.005 201.24799) scale(0.176 -0.176)">
       <defs>
        <path id="ArialMT-34" d="M 2069 0 
L 2069 1097 
L 81 1097 
L 81 1613 
L 2172 4581 
L 2631 4581 
L 2631 1613 
L 3250 1613 
L 3250 1097 
L 2631 1097 
L 2631 0 
L 2069 0 
z
M 2069 1613 
L 2069 3678 
L 634 1613 
L 2069 1613 
z
" transform="scale(0.015625)"/>
       </defs>
       <use xlink:href="#ArialMT-34"/>
       <use xlink:href="#ArialMT-30" x="55.615234"/>
      </g>
     </g>
    </g>
    <g id="ytick_3">
     <g id="line2d_12">
      <path d="M 56.8795 133.838083 
L 838.0795 133.838083 
" clip-path="url(#p80a1730574)" style="fill: none; stroke: #cccccc; stroke-width: 0.8; stroke-linecap: round"/>
     </g>
     <g id="line2d_13">
      <g>
       <use xlink:href="#m7fdebd7132" x="56.8795" y="133.838083" style="fill: #262626; stroke: #262626"/>
      </g>
     </g>
     <g id="text_9">
      <!-- 60 -->
      <g style="fill: #262626" transform="translate(29.005 140.136958) scale(0.176 -0.176)">
       <defs>
        <path id="ArialMT-36" d="M 3184 3459 
L 2625 3416 
Q 2550 3747 2413 3897 
Q 2184 4138 1850 4138 
Q 1581 4138 1378 3988 
Q 1113 3794 959 3422 
Q 806 3050 800 2363 
Q 1003 2672 1297 2822 
Q 1591 2972 1913 2972 
Q 2475 2972 2870 2558 
Q 3266 2144 3266 1488 
Q 3266 1056 3080 686 
Q 2894 316 2569 119 
Q 2244 -78 1831 -78 
Q 1128 -78 684 439 
Q 241 956 241 2144 
Q 241 3472 731 4075 
Q 1159 4600 1884 4600 
Q 2425 4600 2770 4297 
Q 3116 3994 3184 3459 
z
M 888 1484 
Q 888 1194 1011 928 
Q 1134 663 1356 523 
Q 1578 384 1822 384 
Q 2178 384 2434 671 
Q 2691 959 2691 1453 
Q 2691 1928 2437 2201 
Q 2184 2475 1800 2475 
Q 1419 2475 1153 2201 
Q 888 1928 888 1484 
z
" transform="scale(0.015625)"/>
       </defs>
       <use xlink:href="#ArialMT-36"/>
       <use xlink:href="#ArialMT-30" x="55.615234"/>
      </g>
     </g>
    </g>
    <g id="ytick_4">
     <g id="line2d_14">
      <path d="M 56.8795 72.72705 
L 838.0795 72.72705 
" clip-path="url(#p80a1730574)" style="fill: none; stroke: #cccccc; stroke-width: 0.8; stroke-linecap: round"/>
     </g>
     <g id="line2d_15">
      <g>
       <use xlink:href="#m7fdebd7132" x="56.8795" y="72.72705" style="fill: #262626; stroke: #262626"/>
      </g>
     </g>
     <g id="text_10">
      <!-- 80 -->
      <g style="fill: #262626" transform="translate(29.005 79.025925) scale(0.176 -0.176)">
       <use xlink:href="#ArialMT-38"/>
       <use xlink:href="#ArialMT-30" x="55.615234"/>
      </g>
     </g>
    </g>
    <g id="text_11">
     <!-- Price of EUA [EUR/tCO2e] -->
     <g style="fill: #262626" transform="translate(21.189 278.8815) rotate(-90) scale(0.192 -0.192)">
      <defs>
       <path id="ArialMT-50" d="M 494 0 
L 494 4581 
L 2222 4581 
Q 2678 4581 2919 4538 
Q 3256 4481 3484 4323 
Q 3713 4166 3852 3881 
Q 3991 3597 3991 3256 
Q 3991 2672 3619 2267 
Q 3247 1863 2275 1863 
L 1100 1863 
L 1100 0 
L 494 0 
z
M 1100 2403 
L 2284 2403 
Q 2872 2403 3119 2622 
Q 3366 2841 3366 3238 
Q 3366 3525 3220 3729 
Q 3075 3934 2838 4000 
Q 2684 4041 2272 4041 
L 1100 4041 
L 1100 2403 
z
" transform="scale(0.015625)"/>
       <path id="ArialMT-72" d="M 416 0 
L 416 3319 
L 922 3319 
L 922 2816 
Q 1116 3169 1280 3281 
Q 1444 3394 1641 3394 
Q 1925 3394 2219 3213 
L 2025 2691 
Q 1819 2813 1613 2813 
Q 1428 2813 1281 2702 
Q 1134 2591 1072 2394 
Q 978 2094 978 1738 
L 978 0 
L 416 0 
z
" transform="scale(0.015625)"/>
       <path id="ArialMT-69" d="M 425 3934 
L 425 4581 
L 988 4581 
L 988 3934 
L 425 3934 
z
M 425 0 
L 425 3319 
L 988 3319 
L 988 0 
L 425 0 
z
" transform="scale(0.015625)"/>
       <path id="ArialMT-63" d="M 2588 1216 
L 3141 1144 
Q 3050 572 2676 248 
Q 2303 -75 1759 -75 
Q 1078 -75 664 370 
Q 250 816 250 1647 
Q 250 2184 428 2587 
Q 606 2991 970 3192 
Q 1334 3394 1763 3394 
Q 2303 3394 2647 3120 
Q 2991 2847 3088 2344 
L 2541 2259 
Q 2463 2594 2264 2762 
Q 2066 2931 1784 2931 
Q 1359 2931 1093 2626 
Q 828 2322 828 1663 
Q 828 994 1084 691 
Q 1341 388 1753 388 
Q 2084 388 2306 591 
Q 2528 794 2588 1216 
z
" transform="scale(0.015625)"/>
       <path id="ArialMT-65" d="M 2694 1069 
L 3275 997 
Q 3138 488 2766 206 
Q 2394 -75 1816 -75 
Q 1088 -75 661 373 
Q 234 822 234 1631 
Q 234 2469 665 2931 
Q 1097 3394 1784 3394 
Q 2450 3394 2872 2941 
Q 3294 2488 3294 1666 
Q 3294 1616 3291 1516 
L 816 1516 
Q 847 969 1125 678 
Q 1403 388 1819 388 
Q 2128 388 2347 550 
Q 2566 713 2694 1069 
z
M 847 1978 
L 2700 1978 
Q 2663 2397 2488 2606 
Q 2219 2931 1791 2931 
Q 1403 2931 1139 2672 
Q 875 2413 847 1978 
z
" transform="scale(0.015625)"/>
       <path id="ArialMT-20" transform="scale(0.015625)"/>
       <path id="ArialMT-6f" d="M 213 1659 
Q 213 2581 725 3025 
Q 1153 3394 1769 3394 
Q 2453 3394 2887 2945 
Q 3322 2497 3322 1706 
Q 3322 1066 3130 698 
Q 2938 331 2570 128 
Q 2203 -75 1769 -75 
Q 1072 -75 642 372 
Q 213 819 213 1659 
z
M 791 1659 
Q 791 1022 1069 705 
Q 1347 388 1769 388 
Q 2188 388 2466 706 
Q 2744 1025 2744 1678 
Q 2744 2294 2464 2611 
Q 2184 2928 1769 2928 
Q 1347 2928 1069 2612 
Q 791 2297 791 1659 
z
" transform="scale(0.015625)"/>
       <path id="ArialMT-66" d="M 556 0 
L 556 2881 
L 59 2881 
L 59 3319 
L 556 3319 
L 556 3672 
Q 556 4006 616 4169 
Q 697 4388 901 4523 
Q 1106 4659 1475 4659 
Q 1713 4659 2000 4603 
L 1916 4113 
Q 1741 4144 1584 4144 
Q 1328 4144 1222 4034 
Q 1116 3925 1116 3625 
L 1116 3319 
L 1763 3319 
L 1763 2881 
L 1116 2881 
L 1116 0 
L 556 0 
z
" transform="scale(0.015625)"/>
       <path id="ArialMT-45" d="M 506 0 
L 506 4581 
L 3819 4581 
L 3819 4041 
L 1113 4041 
L 1113 2638 
L 3647 2638 
L 3647 2100 
L 1113 2100 
L 1113 541 
L 3925 541 
L 3925 0 
L 506 0 
z
" transform="scale(0.015625)"/>
       <path id="ArialMT-55" d="M 3500 4581 
L 4106 4581 
L 4106 1934 
Q 4106 1244 3950 837 
Q 3794 431 3386 176 
Q 2978 -78 2316 -78 
Q 1672 -78 1262 144 
Q 853 366 678 786 
Q 503 1206 503 1934 
L 503 4581 
L 1109 4581 
L 1109 1938 
Q 1109 1341 1220 1058 
Q 1331 775 1601 622 
Q 1872 469 2263 469 
Q 2931 469 3215 772 
Q 3500 1075 3500 1938 
L 3500 4581 
z
" transform="scale(0.015625)"/>
       <path id="ArialMT-41" d="M -9 0 
L 1750 4581 
L 2403 4581 
L 4278 0 
L 3588 0 
L 3053 1388 
L 1138 1388 
L 634 0 
L -9 0 
z
M 1313 1881 
L 2866 1881 
L 2388 3150 
Q 2169 3728 2063 4100 
Q 1975 3659 1816 3225 
L 1313 1881 
z
" transform="scale(0.015625)"/>
       <path id="ArialMT-5b" d="M 434 -1272 
L 434 4581 
L 1675 4581 
L 1675 4116 
L 997 4116 
L 997 -806 
L 1675 -806 
L 1675 -1272 
L 434 -1272 
z
" transform="scale(0.015625)"/>
       <path id="ArialMT-52" d="M 503 0 
L 503 4581 
L 2534 4581 
Q 3147 4581 3465 4457 
Q 3784 4334 3975 4021 
Q 4166 3709 4166 3331 
Q 4166 2844 3850 2509 
Q 3534 2175 2875 2084 
Q 3116 1969 3241 1856 
Q 3506 1613 3744 1247 
L 4541 0 
L 3778 0 
L 3172 953 
Q 2906 1366 2734 1584 
Q 2563 1803 2427 1890 
Q 2291 1978 2150 2013 
Q 2047 2034 1813 2034 
L 1109 2034 
L 1109 0 
L 503 0 
z
M 1109 2559 
L 2413 2559 
Q 2828 2559 3062 2645 
Q 3297 2731 3419 2920 
Q 3541 3109 3541 3331 
Q 3541 3656 3305 3865 
Q 3069 4075 2559 4075 
L 1109 4075 
L 1109 2559 
z
" transform="scale(0.015625)"/>
       <path id="ArialMT-2f" d="M 0 -78 
L 1328 4659 
L 1778 4659 
L 453 -78 
L 0 -78 
z
" transform="scale(0.015625)"/>
       <path id="ArialMT-74" d="M 1650 503 
L 1731 6 
Q 1494 -44 1306 -44 
Q 1000 -44 831 53 
Q 663 150 594 308 
Q 525 466 525 972 
L 525 2881 
L 113 2881 
L 113 3319 
L 525 3319 
L 525 4141 
L 1084 4478 
L 1084 3319 
L 1650 3319 
L 1650 2881 
L 1084 2881 
L 1084 941 
Q 1084 700 1114 631 
Q 1144 563 1211 522 
Q 1278 481 1403 481 
Q 1497 481 1650 503 
z
" transform="scale(0.015625)"/>
       <path id="ArialMT-43" d="M 3763 1606 
L 4369 1453 
Q 4178 706 3683 314 
Q 3188 -78 2472 -78 
Q 1731 -78 1267 223 
Q 803 525 561 1097 
Q 319 1669 319 2325 
Q 319 3041 592 3573 
Q 866 4106 1370 4382 
Q 1875 4659 2481 4659 
Q 3169 4659 3637 4309 
Q 4106 3959 4291 3325 
L 3694 3184 
Q 3534 3684 3231 3912 
Q 2928 4141 2469 4141 
Q 1941 4141 1586 3887 
Q 1231 3634 1087 3207 
Q 944 2781 944 2328 
Q 944 1744 1114 1308 
Q 1284 872 1643 656 
Q 2003 441 2422 441 
Q 2931 441 3284 734 
Q 3638 1028 3763 1606 
z
" transform="scale(0.015625)"/>
       <path id="ArialMT-4f" d="M 309 2231 
Q 309 3372 921 4017 
Q 1534 4663 2503 4663 
Q 3138 4663 3647 4359 
Q 4156 4056 4423 3514 
Q 4691 2972 4691 2284 
Q 4691 1588 4409 1038 
Q 4128 488 3612 205 
Q 3097 -78 2500 -78 
Q 1853 -78 1343 234 
Q 834 547 571 1087 
Q 309 1628 309 2231 
z
M 934 2222 
Q 934 1394 1379 917 
Q 1825 441 2497 441 
Q 3181 441 3623 922 
Q 4066 1403 4066 2288 
Q 4066 2847 3877 3264 
Q 3688 3681 3323 3911 
Q 2959 4141 2506 4141 
Q 1863 4141 1398 3698 
Q 934 3256 934 2222 
z
" transform="scale(0.015625)"/>
       <path id="ArialMT-5d" d="M 1363 -1272 
L 122 -1272 
L 122 -806 
L 800 -806 
L 800 4116 
L 122 4116 
L 122 4581 
L 1363 4581 
L 1363 -1272 
z
" transform="scale(0.015625)"/>
      </defs>
      <use xlink:href="#ArialMT-50"/>
      <use xlink:href="#ArialMT-72" x="66.699219"/>
      <use xlink:href="#ArialMT-69" x="100"/>
      <use xlink:href="#ArialMT-63" x="122.216797"/>
      <use xlink:href="#ArialMT-65" x="172.216797"/>
      <use xlink:href="#ArialMT-20" x="227.832031"/>
      <use xlink:href="#ArialMT-6f" x="255.615234"/>
      <use xlink:href="#ArialMT-66" x="311.230469"/>
      <use xlink:href="#ArialMT-20" x="339.013672"/>
      <use xlink:href="#ArialMT-45" x="366.796875"/>
      <use xlink:href="#ArialMT-55" x="433.496094"/>
      <use xlink:href="#ArialMT-41" x="505.712891"/>
      <use xlink:href="#ArialMT-20" x="566.912109"/>
      <use xlink:href="#ArialMT-5b" x="594.695312"/>
      <use xlink:href="#ArialMT-45" x="622.478516"/>
      <use xlink:href="#ArialMT-55" x="689.177734"/>
      <use xlink:href="#ArialMT-52" x="761.394531"/>
      <use xlink:href="#ArialMT-2f" x="833.611328"/>
      <use xlink:href="#ArialMT-74" x="861.394531"/>
      <use xlink:href="#ArialMT-43" x="889.177734"/>
      <use xlink:href="#ArialMT-4f" x="961.394531"/>
      <use xlink:href="#ArialMT-32" x="1039.177734"/>
      <use xlink:href="#ArialMT-65" x="1094.792969"/>
      <use xlink:href="#ArialMT-5d" x="1150.408203"/>
     </g>
    </g>
   </g>
   <g id="line2d_16">
    <path d="M 56.8795 289.751679 
L 58.132762 285.372055 
L 59.386024 280.19595 
L 60.639286 274.94804 
L 61.892548 270.512058 
L 63.981318 263.797993 
L 65.23458 260.776052 
L 66.487842 258.353509 
L 67.32335 257.053202 
L 68.158858 256.112092 
L 68.994366 255.554624 
L 70.247628 255.529161 
L 71.083136 255.698574 
L 71.50089 255.887679 
L 73.58966 257.488109 
L 75.260676 258.475052 
L 76.096184 259.27357 
L 76.513939 259.61002 
L 77.349447 259.952921 
L 79.020463 260.305837 
L 80.691479 260.829355 
L 82.780249 261.069725 
L 83.615757 261.048336 
L 84.451265 261.193984 
L 85.704527 260.729031 
L 86.122281 260.469309 
L 86.957789 259.551625 
L 89.464313 256.802647 
L 90.299821 256.404407 
L 91.970837 255.898204 
L 94.059607 254.179965 
L 94.895115 253.42779 
L 95.730623 253.048392 
L 96.566131 252.83043 
L 96.983885 252.660677 
L 97.819393 252.855214 
L 98.237147 252.711263 
L 99.072655 252.140894 
L 99.908163 251.60074 
L 100.743671 250.880988 
L 101.579179 250.757238 
L 102.832441 250.745016 
L 104.503457 250.393627 
L 104.921211 250.454738 
L 107.009981 251.495323 
L 109.516505 253.156525 
L 110.352013 253.490938 
L 110.769767 253.887549 
L 112.440783 256.306459 
L 113.694045 258.190886 
L 114.529553 258.910468 
L 116.20057 260.243707 
L 119.542602 262.998796 
L 120.37811 263.38108 
L 123.720142 264.433683 
L 126.64442 265.744209 
L 129.568698 267.0418 
L 134.163992 269.279483 
L 135.417254 270.089204 
L 137.08827 270.829666 
L 138.759286 271.418029 
L 140.430302 271.538554 
L 145.861104 270.850545 
L 146.696612 270.678077 
L 148.785382 269.96851 
L 150.456398 269.79672 
L 151.291906 269.893139 
L 152.127414 270.239435 
L 152.962922 270.81286 
L 154.633939 272.027951 
L 155.469447 272.487048 
L 157.140463 273.243042 
L 158.811479 274.5498 
L 159.646987 275.009151 
L 161.735757 275.843317 
L 165.077789 276.661865 
L 166.331051 276.687158 
L 169.255329 276.705492 
L 170.508591 276.941788 
L 171.761853 277.527944 
L 173.850623 278.933158 
L 178.863671 282.428031 
L 180.116933 283.613075 
L 180.952441 284.435019 
L 182.623457 285.579153 
L 183.458965 285.954137 
L 185.965489 286.848904 
L 188.054259 287.897977 
L 189.307521 288.251912 
L 190.978537 288.568671 
L 192.231799 288.812096 
L 193.902816 288.998485 
L 195.991586 289.470059 
L 197.662602 290.071493 
L 198.915864 290.514803 
L 203.511158 291.777 
L 204.346666 291.581445 
L 205.182174 291.143482 
L 206.017682 290.383159 
L 206.85319 289.258207 
L 207.688698 287.762005 
L 208.524206 285.924091 
L 209.777468 282.506456 
L 211.03073 278.215443 
L 212.701746 271.402582 
L 216.879286 254.809663 
L 218.132548 250.921728 
L 219.38581 247.596779 
L 220.639072 244.990394 
L 221.47458 243.759006 
L 222.310088 242.899378 
L 223.145596 242.457341 
L 223.981104 242.367712 
L 224.398858 242.438499 
L 225.234366 242.793452 
L 226.487628 243.013452 
L 228.158644 242.935026 
L 231.500676 242.330027 
L 234.842709 241.86049 
L 235.678217 241.616046 
L 238.602495 240.072992 
L 239.020249 240.086233 
L 239.855757 240.464103 
L 241.109019 241.174689 
L 241.944527 241.717388 
L 242.780035 242.166555 
L 243.615543 242.62998 
L 244.868805 243.089331 
L 245.704313 243.19322 
L 249.046345 242.786322 
L 250.717361 242.634563 
L 251.135115 242.571415 
L 251.970623 242.084564 
L 253.641639 240.501788 
L 254.477147 239.666706 
L 256.148163 238.536559 
L 256.983671 238.227948 
L 258.236933 238.196374 
L 258.654687 238.183134 
L 259.490195 237.906606 
L 260.743457 237.743389 
L 261.996719 237.918319 
L 262.414473 237.980958 
L 262.832227 237.840403 
L 264.503243 237.956514 
L 265.338751 237.936143 
L 267.427521 237.470885 
L 268.263029 236.936978 
L 269.516291 235.816609 
L 271.187307 234.271858 
L 272.44057 233.628664 
L 273.693832 232.919182 
L 276.200356 230.994609 
L 277.453618 230.147033 
L 278.70688 229.814996 
L 281.213404 229.493145 
L 283.302174 229.793607 
L 286.226452 231.180828 
L 287.479714 231.752216 
L 289.986238 233.461967 
L 292.492762 235.4311 
L 294.163778 237.062765 
L 295.41704 238.286004 
L 295.834794 238.725324 
L 297.50581 239.745539 
L 299.176826 240.055168 
L 300.847842 240.506881 
L 302.101104 240.971325 
L 302.936612 241.031417 
L 303.77212 240.918362 
L 304.607628 240.805646 
L 307.114152 239.90952 
L 308.785168 239.188919 
L 309.202922 239.199105 
L 310.873939 238.810031 
L 311.709447 238.71429 
L 312.544955 238.454569 
L 316.304741 236.77045 
L 317.140249 236.650944 
L 317.975757 236.693552 
L 319.229019 237.261036 
L 320.482281 237.964407 
L 321.317789 238.88642 
L 322.153297 239.476481 
L 323.824313 241.245306 
L 325.077575 243.145519 
L 326.330837 245.139097 
L 327.166345 246.157105 
L 329.672869 248.847518 
L 330.508377 249.543675 
L 331.343885 249.929693 
L 332.597147 250.402285 
L 333.014901 250.558118 
L 334.268163 250.636544 
L 335.103671 250.857562 
L 335.939179 251.208441 
L 337.610195 252.201835 
L 339.281211 252.496356 
L 340.534473 253.134627 
L 341.787735 253.212883 
L 343.876505 252.77543 
L 344.712013 252.994411 
L 345.547521 253.012405 
L 347.218537 252.365986 
L 347.636291 252.090986 
L 348.889553 250.517886 
L 350.142816 248.799648 
L 351.396078 247.969217 
L 353.067094 247.252011 
L 353.902602 247.217891 
L 354.320356 247.13607 
L 355.991372 247.262844 
L 356.409126 247.144835 
L 358.91565 245.219606 
L 361.00442 243.251553 
L 362.257682 241.910351 
L 363.09319 240.590029 
L 364.764206 237.348459 
L 366.435222 234.008232 
L 367.688484 231.939623 
L 369.3595 229.845089 
L 370.195008 229.124488 
L 371.030516 228.680739 
L 372.283778 228.540831 
L 373.119286 228.63847 
L 374.790302 229.259951 
L 375.62581 229.85407 
L 376.461318 230.704162 
L 377.71458 232.08612 
L 379.385596 233.87226 
L 381.056612 236.00809 
L 381.89212 237.091793 
L 383.145382 238.649615 
L 383.98089 239.476651 
L 384.816398 240.122391 
L 385.651906 240.685631 
L 387.740676 242.050444 
L 388.576184 242.291323 
L 390.664955 242.690072 
L 391.500463 242.450721 
L 391.918217 242.25924 
L 393.171479 241.358531 
L 394.842495 240.254288 
L 397.349019 238.387346 
L 398.184527 237.785063 
L 400.691051 235.82934 
L 402.779821 233.880408 
L 403.615329 233.841093 
L 406.121853 234.084111 
L 406.957361 233.893309 
L 409.463885 232.699946 
L 409.881639 232.51899 
L 411.134901 232.493187 
L 411.970409 232.750872 
L 412.805917 233.278057 
L 415.312441 235.393924 
L 417.401211 235.434156 
L 417.818965 235.386285 
L 419.907735 235.847674 
L 421.578751 236.955821 
L 422.414259 237.375619 
L 423.667521 237.799662 
L 426.591799 237.757394 
L 430.351586 236.824432 
L 432.022602 235.594063 
L 432.85811 235.147952 
L 434.94688 233.75513 
L 435.782388 233.538186 
L 437.03565 233.087747 
L 437.453404 232.946682 
L 438.706666 232.988187 
L 439.959928 233.50763 
L 441.630944 234.566379 
L 442.048698 234.922181 
L 442.884206 236.035081 
L 443.719714 237.500727 
L 445.39073 240.202853 
L 447.897254 244.001923 
L 450.821532 247.638199 
L 452.910302 250.133905 
L 454.999072 252.671541 
L 455.83458 253.43441 
L 456.670088 254.082866 
L 458.758858 256.013296 
L 460.01212 256.71811 
L 461.265382 257.212091 
L 462.10089 257.503387 
L 463.771906 257.843062 
L 464.607414 257.689266 
L 465.442922 257.309359 
L 467.113939 256.328018 
L 467.949447 255.993944 
L 468.784955 255.708759 
L 469.202709 255.451414 
L 470.455971 255.489778 
L 471.291479 255.789222 
L 472.544741 256.682462 
L 475.051265 258.875584 
L 475.886773 259.918291 
L 477.557789 261.485025 
L 478.393297 261.788798 
L 478.811051 261.692548 
L 480.899821 260.036609 
L 481.735329 259.651439 
L 482.988591 257.965114 
L 484.659607 255.48876 
L 487.583885 249.978072 
L 488.837147 246.974295 
L 489.672655 245.281435 
L 490.508163 244.24433 
L 490.925917 243.968311 
L 491.761425 243.987154 
L 493.432441 244.234144 
L 494.267949 244.124654 
L 497.192227 244.079839 
L 498.863243 243.94845 
L 502.205275 243.859839 
L 503.458537 243.760873 
L 505.129553 243.374007 
L 505.965061 243.166738 
L 507.218324 242.951492 
L 508.053832 242.445208 
L 508.88934 241.570678 
L 509.724848 240.388334 
L 510.560356 238.75864 
L 511.813618 235.495688 
L 513.06688 231.42294 
L 514.320142 226.448221 
L 515.573404 220.170236 
L 516.826666 212.738028 
L 518.497682 201.385081 
L 520.586452 184.939859 
L 527.68827 127.009257 
L 529.77704 110.002883 
L 531.86581 94.918902 
L 533.119072 88.353341 
L 533.95458 84.872956 
L 534.790088 82.314552 
L 535.625596 80.517541 
L 536.04335 79.915634 
L 536.878858 79.198753 
L 537.714366 79.408944 
L 538.549874 80.082102 
L 538.967628 80.611392 
L 539.385382 81.418058 
L 541.056398 87.140087 
L 541.474152 88.757493 
L 542.727414 94.885911 
L 543.145168 96.749797 
L 544.816184 106.397192 
L 546.487201 114.129265 
L 547.740463 118.847037 
L 549.411479 124.379623 
L 551.500249 129.881653 
L 551.918003 131.227114 
L 553.589019 134.660128 
L 554.424527 135.727941 
L 556.095543 136.68399 
L 558.184313 137.187986 
L 558.602067 137.028588 
L 559.437575 136.291181 
L 560.690837 135.223775 
L 561.526345 134.678869 
L 562.361853 133.769333 
L 563.197361 132.693779 
L 564.032869 132.277205 
L 564.868377 131.611859 
L 566.121639 130.955068 
L 567.792655 130.934969 
L 569.463671 130.380217 
L 570.716933 129.583431 
L 571.552441 129.564554 
L 572.387949 129.833782 
L 572.805703 130.022208 
L 574.058965 129.802718 
L 574.476719 129.928165 
L 575.312227 130.580355 
L 576.147735 131.356466 
L 576.983243 131.954844 
L 579.907521 134.858637 
L 580.743029 135.877154 
L 581.578537 136.40882 
L 582.414045 137.388091 
L 584.085061 139.573353 
L 585.338324 141.231499 
L 588.680356 146.303715 
L 589.515864 146.97339 
L 590.351372 147.527973 
L 592.440142 149.908247 
L 593.693404 150.856487 
L 596.199928 153.452687 
L 596.617682 153.741946 
L 598.706452 155.715832 
L 599.54196 155.184166 
L 601.63073 153.519909 
L 602.466238 153.216391 
L 603.301746 152.588985 
L 604.555008 151.35556 
L 605.390516 151.162042 
L 607.89704 152.059356 
L 608.732548 151.845467 
L 609.568056 151.884171 
L 609.98581 151.752782 
L 610.403564 151.486949 
L 610.821318 151.601023 
L 611.239072 152.153059 
L 612.492334 154.703766 
L 614.16335 156.843331 
L 615.416612 157.95708 
L 615.834366 158.30032 
L 616.669874 158.594671 
L 617.505382 158.649332 
L 618.34089 158.490443 
L 618.758644 158.578375 
L 619.176398 158.516245 
L 620.42966 157.154488 
L 621.682922 156.897822 
L 622.100676 157.042451 
L 623.353939 158.157388 
L 624.607201 158.139394 
L 625.024955 158.329857 
L 628.366987 162.134528 
L 630.455757 166.593596 
L 631.709019 169.002389 
L 633.797789 174.722382 
L 634.633297 176.613768 
L 636.722067 179.829227 
L 639.228591 183.977648 
L 640.481853 185.575701 
L 640.899607 186.060855 
L 641.735115 186.64141 
L 642.152869 186.750052 
L 644.241639 187.848013 
L 644.659393 187.930853 
L 645.494901 188.460142 
L 647.165917 190.537917 
L 649.672441 193.717728 
L 650.925703 194.566153 
L 651.761211 195.139578 
L 654.267735 197.512723 
L 655.103243 198.046426 
L 655.938751 198.639203 
L 657.609767 200.311608 
L 658.445275 200.663676 
L 659.280783 200.781145 
L 659.698537 200.952256 
L 660.116291 200.960404 
L 660.951799 201.836329 
L 662.205061 203.144105 
L 662.622816 203.311239 
L 663.458324 203.038761 
L 663.876078 202.55739 
L 664.293832 201.73695 
L 665.12934 199.277134 
L 665.964848 196.042275 
L 667.21811 189.584003 
L 668.053618 184.175919 
L 669.30688 173.96315 
L 670.560142 161.339066 
L 672.648912 136.984792 
L 675.57319 98.73205 
L 676.826452 85.652106 
L 678.079714 74.870083 
L 678.915222 70.333123 
L 679.75073 66.950093 
L 680.168484 65.469945 
L 680.586238 64.5122 
L 681.003992 64.06056 
L 681.421746 63.909286 
L 681.8395 64.009489 
L 682.257254 64.361168 
L 682.675008 64.964324 
L 684.346024 68.964648 
L 685.181532 71.550663 
L 686.01704 74.522696 
L 686.852548 77.541581 
L 688.10581 80.861947 
L 689.359072 83.544721 
L 690.612334 85.597034 
L 691.865596 85.336293 
L 692.28335 85.44833 
L 692.701104 85.976941 
L 693.536612 87.476198 
L 696.46089 91.587103 
L 698.54966 95.660493 
L 698.967414 96.19827 
L 701.056184 100.921134 
L 703.144955 107.500755 
L 704.815971 112.640193 
L 705.233725 113.356211 
L 706.486987 113.74121 
L 706.904741 113.539544 
L 707.740249 112.934036 
L 708.158003 112.729993 
L 709.411265 111.456167 
L 709.829019 110.988668 
L 710.246773 110.928575 
L 710.664527 110.716927 
L 712.335543 109.307096 
L 712.753297 109.183855 
L 713.588805 109.488392 
L 714.424313 109.250059 
L 714.842067 108.897312 
L 715.259821 108.283486 
L 716.095329 106.160896 
L 717.766345 101.303588 
L 718.601853 97.280445 
L 719.855115 91.167983 
L 721.108377 85.124442 
L 723.614901 69.706536 
L 724.450409 65.582152 
L 725.703671 60.023425 
L 726.956933 54.523092 
L 727.792441 51.594651 
L 728.210195 50.527857 
L 730.298965 47.678657 
L 730.716719 47.935323 
L 731.134473 48.422174 
L 731.969981 49.975413 
L 733.223243 52.747817 
L 733.640997 54.230778 
L 734.894259 60.107622 
L 736.147521 65.350949 
L 736.565275 66.679095 
L 736.983029 67.522427 
L 737.818537 68.420759 
L 738.654045 68.774185 
L 739.071799 68.809833 
L 739.907307 69.034925 
L 743.24934 69.476453 
L 744.084848 69.216731 
L 744.502602 68.912194 
L 745.755864 66.891456 
L 748.262388 63.297618 
L 749.51565 61.92262 
L 749.933404 61.694132 
L 750.351158 61.623176 
L 750.768912 61.685305 
L 751.186666 61.418454 
L 752.022174 61.268053 
L 752.857682 61.500614 
L 753.69319 62.157388 
L 754.528698 62.634563 
L 755.78196 63.697895 
L 756.199714 63.844562 
L 757.035222 63.879191 
L 758.288484 66.022151 
L 759.123992 67.011132 
L 759.9595 67.490344 
L 760.377254 67.460298 
L 761.630516 66.52428 
L 762.466024 65.401874 
L 763.301532 64.465857 
L 763.719286 64.294407 
L 764.972548 63.010396 
L 765.390302 62.399795 
L 767.061318 58.529939 
L 767.479072 57.719539 
L 768.31458 56.85346 
L 768.732334 56.734293 
L 769.567842 57.392934 
L 770.40335 57.410928 
L 770.821104 57.000126 
L 772.49212 54.181889 
L 772.909874 53.76226 
L 773.327628 53.562291 
L 773.745382 54.193093 
L 774.163136 55.05374 
L 774.998644 57.550125 
L 775.834152 59.517901 
L 776.66966 61.220861 
L 777.087414 62.429841 
L 777.922922 64.276922 
L 779.593939 69.178027 
L 780.429447 70.764877 
L 781.264955 71.233055 
L 782.100463 71.179753 
L 782.935971 71.621959 
L 784.606987 74.803298 
L 785.860249 77.386257 
L 786.695757 78.13996 
L 787.531265 78.188849 
L 787.949019 78.118911 
L 788.366773 78.319219 
L 788.784527 79.233847 
L 790.455543 86.257542 
L 791.708805 89.346196 
L 792.544313 88.976474 
L 794.215329 86.560551 
L 794.633083 85.5787 
L 795.468591 82.994213 
L 796.304099 80.835975 
L 797.975115 77.025702 
L 799.228377 72.568671 
L 800.063885 69.863489 
L 800.481639 68.641268 
L 800.899393 66.601178 
L 801.734901 60.323717 
L 802.570409 53.25385 
L 803.823671 44.728521 
L 804.241425 42.813709 
L 805.076933 40.994128 
L 805.912441 40.030611 
L 806.330195 39.828944 
L 806.747949 39.777 
L 807.165703 40.379962 
L 807.583457 41.184251 
L 808.836719 42.170515 
L 810.507735 45.319771 
L 813.432013 52.88277 
L 814.267521 55.788939 
L 815.520783 59.128172 
L 816.356291 60.730591 
L 817.191799 61.812959 
L 818.027307 62.390046 
L 818.862816 62.946157 
L 819.28057 63.11494 
L 820.951586 62.055294 
L 821.36934 61.591965 
L 822.204848 59.891672 
L 823.875864 55.934248 
L 825.129126 53.52868 
L 825.964634 52.416799 
L 827.63565 48.675348 
L 828.053404 48.021363 
L 828.471158 47.580103 
L 828.888912 47.351567 
L 829.306666 47.308935 
L 829.72442 47.14767 
L 830.142174 47.347493 
L 831.395436 49.489144 
L 833.066452 51.934894 
L 834.319714 55.825339 
L 836.408484 62.745072 
L 837.243992 64.950162 
L 837.661746 65.846797 
L 838.0795 67.089048 
L 838.0795 67.089048 
" clip-path="url(#p80a1730574)" style="fill: none; stroke: #dd8452; stroke-width: 1.2; stroke-linecap: round"/>
   </g>
   <g id="patch_3">
    <path d="M 56.8795 304.377 
L 56.8795 27.177 
" style="fill: none; stroke: #cccccc; stroke-linejoin: miter; stroke-linecap: square"/>
   </g>
   <g id="patch_4">
    <path d="M 838.0795 304.377 
L 838.0795 27.177 
" style="fill: none; stroke: #cccccc; stroke-linejoin: miter; stroke-linecap: square"/>
   </g>
   <g id="patch_5">
    <path d="M 56.8795 304.377 
L 838.0795 304.377 
" style="fill: none; stroke: #cccccc; stroke-linejoin: miter; stroke-linecap: square"/>
   </g>
   <g id="patch_6">
    <path d="M 56.8795 27.177 
L 838.0795 27.177 
" style="fill: none; stroke: #cccccc; stroke-linejoin: miter; stroke-linecap: square"/>
   </g>
   <g id="text_12">
    <!-- EUA prices and consumption residuals (30d rolling mean) -->
    <g style="fill: #262626" transform="translate(203.101 21.177) scale(0.192 -0.192)">
     <defs>
      <path id="ArialMT-70" d="M 422 -1272 
L 422 3319 
L 934 3319 
L 934 2888 
Q 1116 3141 1344 3267 
Q 1572 3394 1897 3394 
Q 2322 3394 2647 3175 
Q 2972 2956 3137 2557 
Q 3303 2159 3303 1684 
Q 3303 1175 3120 767 
Q 2938 359 2589 142 
Q 2241 -75 1856 -75 
Q 1575 -75 1351 44 
Q 1128 163 984 344 
L 984 -1272 
L 422 -1272 
z
M 931 1641 
Q 931 1000 1190 694 
Q 1450 388 1819 388 
Q 2194 388 2461 705 
Q 2728 1022 2728 1688 
Q 2728 2322 2467 2637 
Q 2206 2953 1844 2953 
Q 1484 2953 1207 2617 
Q 931 2281 931 1641 
z
" transform="scale(0.015625)"/>
      <path id="ArialMT-73" d="M 197 991 
L 753 1078 
Q 800 744 1014 566 
Q 1228 388 1613 388 
Q 2000 388 2187 545 
Q 2375 703 2375 916 
Q 2375 1106 2209 1216 
Q 2094 1291 1634 1406 
Q 1016 1563 777 1677 
Q 538 1791 414 1992 
Q 291 2194 291 2438 
Q 291 2659 392 2848 
Q 494 3038 669 3163 
Q 800 3259 1026 3326 
Q 1253 3394 1513 3394 
Q 1903 3394 2198 3281 
Q 2494 3169 2634 2976 
Q 2775 2784 2828 2463 
L 2278 2388 
Q 2241 2644 2061 2787 
Q 1881 2931 1553 2931 
Q 1166 2931 1000 2803 
Q 834 2675 834 2503 
Q 834 2394 903 2306 
Q 972 2216 1119 2156 
Q 1203 2125 1616 2013 
Q 2213 1853 2448 1751 
Q 2684 1650 2818 1456 
Q 2953 1263 2953 975 
Q 2953 694 2789 445 
Q 2625 197 2315 61 
Q 2006 -75 1616 -75 
Q 969 -75 630 194 
Q 291 463 197 991 
z
" transform="scale(0.015625)"/>
      <path id="ArialMT-61" d="M 2588 409 
Q 2275 144 1986 34 
Q 1697 -75 1366 -75 
Q 819 -75 525 192 
Q 231 459 231 875 
Q 231 1119 342 1320 
Q 453 1522 633 1644 
Q 813 1766 1038 1828 
Q 1203 1872 1538 1913 
Q 2219 1994 2541 2106 
Q 2544 2222 2544 2253 
Q 2544 2597 2384 2738 
Q 2169 2928 1744 2928 
Q 1347 2928 1158 2789 
Q 969 2650 878 2297 
L 328 2372 
Q 403 2725 575 2942 
Q 747 3159 1072 3276 
Q 1397 3394 1825 3394 
Q 2250 3394 2515 3294 
Q 2781 3194 2906 3042 
Q 3031 2891 3081 2659 
Q 3109 2516 3109 2141 
L 3109 1391 
Q 3109 606 3145 398 
Q 3181 191 3288 0 
L 2700 0 
Q 2613 175 2588 409 
z
M 2541 1666 
Q 2234 1541 1622 1453 
Q 1275 1403 1131 1340 
Q 988 1278 909 1158 
Q 831 1038 831 891 
Q 831 666 1001 516 
Q 1172 366 1500 366 
Q 1825 366 2078 508 
Q 2331 650 2450 897 
Q 2541 1088 2541 1459 
L 2541 1666 
z
" transform="scale(0.015625)"/>
      <path id="ArialMT-6e" d="M 422 0 
L 422 3319 
L 928 3319 
L 928 2847 
Q 1294 3394 1984 3394 
Q 2284 3394 2536 3286 
Q 2788 3178 2913 3003 
Q 3038 2828 3088 2588 
Q 3119 2431 3119 2041 
L 3119 0 
L 2556 0 
L 2556 2019 
Q 2556 2363 2490 2533 
Q 2425 2703 2258 2804 
Q 2091 2906 1866 2906 
Q 1506 2906 1245 2678 
Q 984 2450 984 1813 
L 984 0 
L 422 0 
z
" transform="scale(0.015625)"/>
      <path id="ArialMT-64" d="M 2575 0 
L 2575 419 
Q 2259 -75 1647 -75 
Q 1250 -75 917 144 
Q 584 363 401 755 
Q 219 1147 219 1656 
Q 219 2153 384 2558 
Q 550 2963 881 3178 
Q 1213 3394 1622 3394 
Q 1922 3394 2156 3267 
Q 2391 3141 2538 2938 
L 2538 4581 
L 3097 4581 
L 3097 0 
L 2575 0 
z
M 797 1656 
Q 797 1019 1065 703 
Q 1334 388 1700 388 
Q 2069 388 2326 689 
Q 2584 991 2584 1609 
Q 2584 2291 2321 2609 
Q 2059 2928 1675 2928 
Q 1300 2928 1048 2622 
Q 797 2316 797 1656 
z
" transform="scale(0.015625)"/>
      <path id="ArialMT-75" d="M 2597 0 
L 2597 488 
Q 2209 -75 1544 -75 
Q 1250 -75 995 37 
Q 741 150 617 320 
Q 494 491 444 738 
Q 409 903 409 1263 
L 409 3319 
L 972 3319 
L 972 1478 
Q 972 1038 1006 884 
Q 1059 663 1231 536 
Q 1403 409 1656 409 
Q 1909 409 2131 539 
Q 2353 669 2445 892 
Q 2538 1116 2538 1541 
L 2538 3319 
L 3100 3319 
L 3100 0 
L 2597 0 
z
" transform="scale(0.015625)"/>
      <path id="ArialMT-6d" d="M 422 0 
L 422 3319 
L 925 3319 
L 925 2853 
Q 1081 3097 1340 3245 
Q 1600 3394 1931 3394 
Q 2300 3394 2536 3241 
Q 2772 3088 2869 2813 
Q 3263 3394 3894 3394 
Q 4388 3394 4653 3120 
Q 4919 2847 4919 2278 
L 4919 0 
L 4359 0 
L 4359 2091 
Q 4359 2428 4304 2576 
Q 4250 2725 4106 2815 
Q 3963 2906 3769 2906 
Q 3419 2906 3187 2673 
Q 2956 2441 2956 1928 
L 2956 0 
L 2394 0 
L 2394 2156 
Q 2394 2531 2256 2718 
Q 2119 2906 1806 2906 
Q 1569 2906 1367 2781 
Q 1166 2656 1075 2415 
Q 984 2175 984 1722 
L 984 0 
L 422 0 
z
" transform="scale(0.015625)"/>
      <path id="ArialMT-6c" d="M 409 0 
L 409 4581 
L 972 4581 
L 972 0 
L 409 0 
z
" transform="scale(0.015625)"/>
      <path id="ArialMT-28" d="M 1497 -1347 
Q 1031 -759 709 28 
Q 388 816 388 1659 
Q 388 2403 628 3084 
Q 909 3875 1497 4659 
L 1900 4659 
Q 1522 4009 1400 3731 
Q 1209 3300 1100 2831 
Q 966 2247 966 1656 
Q 966 153 1900 -1347 
L 1497 -1347 
z
" transform="scale(0.015625)"/>
      <path id="ArialMT-67" d="M 319 -275 
L 866 -356 
Q 900 -609 1056 -725 
Q 1266 -881 1628 -881 
Q 2019 -881 2231 -725 
Q 2444 -569 2519 -288 
Q 2563 -116 2559 434 
Q 2191 0 1641 0 
Q 956 0 581 494 
Q 206 988 206 1678 
Q 206 2153 378 2554 
Q 550 2956 876 3175 
Q 1203 3394 1644 3394 
Q 2231 3394 2613 2919 
L 2613 3319 
L 3131 3319 
L 3131 450 
Q 3131 -325 2973 -648 
Q 2816 -972 2473 -1159 
Q 2131 -1347 1631 -1347 
Q 1038 -1347 672 -1080 
Q 306 -813 319 -275 
z
M 784 1719 
Q 784 1066 1043 766 
Q 1303 466 1694 466 
Q 2081 466 2343 764 
Q 2606 1063 2606 1700 
Q 2606 2309 2336 2618 
Q 2066 2928 1684 2928 
Q 1309 2928 1046 2623 
Q 784 2319 784 1719 
z
" transform="scale(0.015625)"/>
      <path id="ArialMT-29" d="M 791 -1347 
L 388 -1347 
Q 1322 153 1322 1656 
Q 1322 2244 1188 2822 
Q 1081 3291 891 3722 
Q 769 4003 388 4659 
L 791 4659 
Q 1378 3875 1659 3084 
Q 1900 2403 1900 1659 
Q 1900 816 1576 28 
Q 1253 -759 791 -1347 
z
" transform="scale(0.015625)"/>
     </defs>
     <use xlink:href="#ArialMT-45"/>
     <use xlink:href="#ArialMT-55" x="66.699219"/>
     <use xlink:href="#ArialMT-41" x="138.916016"/>
     <use xlink:href="#ArialMT-20" x="200.115234"/>
     <use xlink:href="#ArialMT-70" x="227.898438"/>
     <use xlink:href="#ArialMT-72" x="283.513672"/>
     <use xlink:href="#ArialMT-69" x="316.814453"/>
     <use xlink:href="#ArialMT-63" x="339.03125"/>
     <use xlink:href="#ArialMT-65" x="389.03125"/>
     <use xlink:href="#ArialMT-73" x="444.646484"/>
     <use xlink:href="#ArialMT-20" x="494.646484"/>
     <use xlink:href="#ArialMT-61" x="522.429688"/>
     <use xlink:href="#ArialMT-6e" x="578.044922"/>
     <use xlink:href="#ArialMT-64" x="633.660156"/>
     <use xlink:href="#ArialMT-20" x="689.275391"/>
     <use xlink:href="#ArialMT-63" x="717.058594"/>
     <use xlink:href="#ArialMT-6f" x="767.058594"/>
     <use xlink:href="#ArialMT-6e" x="822.673828"/>
     <use xlink:href="#ArialMT-73" x="878.289062"/>
     <use xlink:href="#ArialMT-75" x="928.289062"/>
     <use xlink:href="#ArialMT-6d" x="983.904297"/>
     <use xlink:href="#ArialMT-70" x="1067.205078"/>
     <use xlink:href="#ArialMT-74" x="1122.820312"/>
     <use xlink:href="#ArialMT-69" x="1150.603516"/>
     <use xlink:href="#ArialMT-6f" x="1172.820312"/>
     <use xlink:href="#ArialMT-6e" x="1228.435547"/>
     <use xlink:href="#ArialMT-20" x="1284.050781"/>
     <use xlink:href="#ArialMT-72" x="1311.833984"/>
     <use xlink:href="#ArialMT-65" x="1345.134766"/>
     <use xlink:href="#ArialMT-73" x="1400.75"/>
     <use xlink:href="#ArialMT-69" x="1450.75"/>
     <use xlink:href="#ArialMT-64" x="1472.966797"/>
     <use xlink:href="#ArialMT-75" x="1528.582031"/>
     <use xlink:href="#ArialMT-61" x="1584.197266"/>
     <use xlink:href="#ArialMT-6c" x="1639.8125"/>
     <use xlink:href="#ArialMT-73" x="1662.029297"/>
     <use xlink:href="#ArialMT-20" x="1712.029297"/>
     <use xlink:href="#ArialMT-28" x="1739.8125"/>
     <use xlink:href="#ArialMT-33" x="1773.113281"/>
     <use xlink:href="#ArialMT-30" x="1828.728516"/>
     <use xlink:href="#ArialMT-64" x="1884.34375"/>
     <use xlink:href="#ArialMT-20" x="1939.958984"/>
     <use xlink:href="#ArialMT-72" x="1967.742188"/>
     <use xlink:href="#ArialMT-6f" x="2001.042969"/>
     <use xlink:href="#ArialMT-6c" x="2056.658203"/>
     <use xlink:href="#ArialMT-6c" x="2078.875"/>
     <use xlink:href="#ArialMT-69" x="2101.091797"/>
     <use xlink:href="#ArialMT-6e" x="2123.308594"/>
     <use xlink:href="#ArialMT-67" x="2178.923828"/>
     <use xlink:href="#ArialMT-20" x="2234.539062"/>
     <use xlink:href="#ArialMT-6d" x="2262.322266"/>
     <use xlink:href="#ArialMT-65" x="2345.623047"/>
     <use xlink:href="#ArialMT-61" x="2401.238281"/>
     <use xlink:href="#ArialMT-6e" x="2456.853516"/>
     <use xlink:href="#ArialMT-29" x="2512.46875"/>
    </g>
   </g>
   <g id="legend_1">
    <g id="patch_7">
     <path d="M 69.1995 66.15275 
L 165.61725 66.15275 
Q 169.13725 66.15275 169.13725 62.63275 
L 169.13725 39.497 
Q 169.13725 35.977 165.61725 35.977 
L 69.1995 35.977 
Q 65.6795 35.977 65.6795 39.497 
L 65.6795 62.63275 
Q 65.6795 66.15275 69.1995 66.15275 
z
" style="fill: #ffffff; opacity: 0.8; stroke: #cccccc; stroke-width: 0.8; stroke-linejoin: miter"/>
    </g>
    <g id="line2d_17">
     <path d="M 72.7195 49.45475 
L 90.3195 49.45475 
L 107.9195 49.45475 
" style="fill: none; stroke: #dd8452; stroke-width: 1.2; stroke-linecap: round"/>
    </g>
    <g id="text_13">
     <!-- Price -->
     <g style="fill: #262626" transform="translate(121.9995 55.61475) scale(0.176 -0.176)">
      <use xlink:href="#ArialMT-50"/>
      <use xlink:href="#ArialMT-72" x="66.699219"/>
      <use xlink:href="#ArialMT-69" x="100"/>
      <use xlink:href="#ArialMT-63" x="122.216797"/>
      <use xlink:href="#ArialMT-65" x="172.216797"/>
     </g>
    </g>
   </g>
  </g>
  <g id="axes_2">
   <g id="matplotlib.axis_3">
    <g id="ytick_5">
     <g id="line2d_18">
      <path d="M 56.8795 301.133118 
L 838.0795 301.133118 
" clip-path="url(#p80a1730574)" style="fill: none; stroke: #cccccc; stroke-width: 0.8; stroke-linecap: round"/>
     </g>
     <g id="line2d_19">
      <defs>
       <path id="mb9477dda57" d="M 0 0 
L 4.8 0 
" style="stroke: #262626"/>
      </defs>
      <g>
       <use xlink:href="#mb9477dda57" x="838.0795" y="301.133118" style="fill: #262626; stroke: #262626"/>
      </g>
     </g>
     <g id="text_14">
      <!-- −600000 -->
      <g style="fill: #262626" transform="translate(846.3795 307.431993) scale(0.176 -0.176)">
       <defs>
        <path id="ArialMT-2212" d="M 3381 1997 
L 356 1997 
L 356 2522 
L 3381 2522 
L 3381 1997 
z
" transform="scale(0.015625)"/>
       </defs>
       <use xlink:href="#ArialMT-2212"/>
       <use xlink:href="#ArialMT-36" x="58.398438"/>
       <use xlink:href="#ArialMT-30" x="114.013672"/>
       <use xlink:href="#ArialMT-30" x="169.628906"/>
       <use xlink:href="#ArialMT-30" x="225.244141"/>
       <use xlink:href="#ArialMT-30" x="280.859375"/>
       <use xlink:href="#ArialMT-30" x="336.474609"/>
      </g>
     </g>
    </g>
    <g id="ytick_6">
     <g id="line2d_20">
      <path d="M 56.8795 249.262938 
L 838.0795 249.262938 
" clip-path="url(#p80a1730574)" style="fill: none; stroke: #cccccc; stroke-width: 0.8; stroke-linecap: round"/>
     </g>
     <g id="line2d_21">
      <g>
       <use xlink:href="#mb9477dda57" x="838.0795" y="249.262938" style="fill: #262626; stroke: #262626"/>
      </g>
     </g>
     <g id="text_15">
      <!-- −400000 -->
      <g style="fill: #262626" transform="translate(846.3795 255.561813) scale(0.176 -0.176)">
       <use xlink:href="#ArialMT-2212"/>
       <use xlink:href="#ArialMT-34" x="58.398438"/>
       <use xlink:href="#ArialMT-30" x="114.013672"/>
       <use xlink:href="#ArialMT-30" x="169.628906"/>
       <use xlink:href="#ArialMT-30" x="225.244141"/>
       <use xlink:href="#ArialMT-30" x="280.859375"/>
       <use xlink:href="#ArialMT-30" x="336.474609"/>
      </g>
     </g>
    </g>
    <g id="ytick_7">
     <g id="line2d_22">
      <path d="M 56.8795 197.392758 
L 838.0795 197.392758 
" clip-path="url(#p80a1730574)" style="fill: none; stroke: #cccccc; stroke-width: 0.8; stroke-linecap: round"/>
     </g>
     <g id="line2d_23">
      <g>
       <use xlink:href="#mb9477dda57" x="838.0795" y="197.392758" style="fill: #262626; stroke: #262626"/>
      </g>
     </g>
     <g id="text_16">
      <!-- −200000 -->
      <g style="fill: #262626" transform="translate(846.3795 203.691633) scale(0.176 -0.176)">
       <use xlink:href="#ArialMT-2212"/>
       <use xlink:href="#ArialMT-32" x="58.398438"/>
       <use xlink:href="#ArialMT-30" x="114.013672"/>
       <use xlink:href="#ArialMT-30" x="169.628906"/>
       <use xlink:href="#ArialMT-30" x="225.244141"/>
       <use xlink:href="#ArialMT-30" x="280.859375"/>
       <use xlink:href="#ArialMT-30" x="336.474609"/>
      </g>
     </g>
    </g>
    <g id="ytick_8">
     <g id="line2d_24">
      <path d="M 56.8795 145.522578 
L 838.0795 145.522578 
" clip-path="url(#p80a1730574)" style="fill: none; stroke: #cccccc; stroke-width: 0.8; stroke-linecap: round"/>
     </g>
     <g id="line2d_25">
      <g>
       <use xlink:href="#mb9477dda57" x="838.0795" y="145.522578" style="fill: #262626; stroke: #262626"/>
      </g>
     </g>
     <g id="text_17">
      <!-- 0 -->
      <g style="fill: #262626" transform="translate(846.3795 151.821453) scale(0.176 -0.176)">
       <use xlink:href="#ArialMT-30"/>
      </g>
     </g>
    </g>
    <g id="ytick_9">
     <g id="line2d_26">
      <path d="M 56.8795 93.652398 
L 838.0795 93.652398 
" clip-path="url(#p80a1730574)" style="fill: none; stroke: #cccccc; stroke-width: 0.8; stroke-linecap: round"/>
     </g>
     <g id="line2d_27">
      <g>
       <use xlink:href="#mb9477dda57" x="838.0795" y="93.652398" style="fill: #262626; stroke: #262626"/>
      </g>
     </g>
     <g id="text_18">
      <!-- 200000 -->
      <g style="fill: #262626" transform="translate(846.3795 99.951273) scale(0.176 -0.176)">
       <use xlink:href="#ArialMT-32"/>
       <use xlink:href="#ArialMT-30" x="55.615234"/>
       <use xlink:href="#ArialMT-30" x="111.230469"/>
       <use xlink:href="#ArialMT-30" x="166.845703"/>
       <use xlink:href="#ArialMT-30" x="222.460938"/>
       <use xlink:href="#ArialMT-30" x="278.076172"/>
      </g>
     </g>
    </g>
    <g id="ytick_10">
     <g id="line2d_28">
      <path d="M 56.8795 41.782217 
L 838.0795 41.782217 
" clip-path="url(#p80a1730574)" style="fill: none; stroke: #cccccc; stroke-width: 0.8; stroke-linecap: round"/>
     </g>
     <g id="line2d_29">
      <g>
       <use xlink:href="#mb9477dda57" x="838.0795" y="41.782217" style="fill: #262626; stroke: #262626"/>
      </g>
     </g>
     <g id="text_19">
      <!-- 400000 -->
      <g style="fill: #262626" transform="translate(846.3795 48.081092) scale(0.176 -0.176)">
       <use xlink:href="#ArialMT-34"/>
       <use xlink:href="#ArialMT-30" x="55.615234"/>
       <use xlink:href="#ArialMT-30" x="111.230469"/>
       <use xlink:href="#ArialMT-30" x="166.845703"/>
       <use xlink:href="#ArialMT-30" x="222.460938"/>
       <use xlink:href="#ArialMT-30" x="278.076172"/>
      </g>
     </g>
    </g>
    <g id="text_20">
     <!-- Consumption [MWh] delta between model and actual consumption -->
     <g style="fill: #262626" transform="translate(933.3595 448.0485) rotate(-90) scale(0.192 -0.192)">
      <defs>
       <path id="ArialMT-4d" d="M 475 0 
L 475 4581 
L 1388 4581 
L 2472 1338 
Q 2622 884 2691 659 
Q 2769 909 2934 1394 
L 4031 4581 
L 4847 4581 
L 4847 0 
L 4263 0 
L 4263 3834 
L 2931 0 
L 2384 0 
L 1059 3900 
L 1059 0 
L 475 0 
z
" transform="scale(0.015625)"/>
       <path id="ArialMT-57" d="M 1294 0 
L 78 4581 
L 700 4581 
L 1397 1578 
Q 1509 1106 1591 641 
Q 1766 1375 1797 1488 
L 2669 4581 
L 3400 4581 
L 4056 2263 
Q 4303 1400 4413 641 
Q 4500 1075 4641 1638 
L 5359 4581 
L 5969 4581 
L 4713 0 
L 4128 0 
L 3163 3491 
Q 3041 3928 3019 4028 
Q 2947 3713 2884 3491 
L 1913 0 
L 1294 0 
z
" transform="scale(0.015625)"/>
       <path id="ArialMT-68" d="M 422 0 
L 422 4581 
L 984 4581 
L 984 2938 
Q 1378 3394 1978 3394 
Q 2347 3394 2619 3248 
Q 2891 3103 3008 2847 
Q 3125 2591 3125 2103 
L 3125 0 
L 2563 0 
L 2563 2103 
Q 2563 2525 2380 2717 
Q 2197 2909 1863 2909 
Q 1613 2909 1392 2779 
Q 1172 2650 1078 2428 
Q 984 2206 984 1816 
L 984 0 
L 422 0 
z
" transform="scale(0.015625)"/>
       <path id="ArialMT-62" d="M 941 0 
L 419 0 
L 419 4581 
L 981 4581 
L 981 2947 
Q 1338 3394 1891 3394 
Q 2197 3394 2470 3270 
Q 2744 3147 2920 2923 
Q 3097 2700 3197 2384 
Q 3297 2069 3297 1709 
Q 3297 856 2875 390 
Q 2453 -75 1863 -75 
Q 1275 -75 941 416 
L 941 0 
z
M 934 1684 
Q 934 1088 1097 822 
Q 1363 388 1816 388 
Q 2184 388 2453 708 
Q 2722 1028 2722 1663 
Q 2722 2313 2464 2622 
Q 2206 2931 1841 2931 
Q 1472 2931 1203 2611 
Q 934 2291 934 1684 
z
" transform="scale(0.015625)"/>
       <path id="ArialMT-77" d="M 1034 0 
L 19 3319 
L 600 3319 
L 1128 1403 
L 1325 691 
Q 1338 744 1497 1375 
L 2025 3319 
L 2603 3319 
L 3100 1394 
L 3266 759 
L 3456 1400 
L 4025 3319 
L 4572 3319 
L 3534 0 
L 2950 0 
L 2422 1988 
L 2294 2553 
L 1622 0 
L 1034 0 
z
" transform="scale(0.015625)"/>
      </defs>
      <use xlink:href="#ArialMT-43"/>
      <use xlink:href="#ArialMT-6f" x="72.216797"/>
      <use xlink:href="#ArialMT-6e" x="127.832031"/>
      <use xlink:href="#ArialMT-73" x="183.447266"/>
      <use xlink:href="#ArialMT-75" x="233.447266"/>
      <use xlink:href="#ArialMT-6d" x="289.0625"/>
      <use xlink:href="#ArialMT-70" x="372.363281"/>
      <use xlink:href="#ArialMT-74" x="427.978516"/>
      <use xlink:href="#ArialMT-69" x="455.761719"/>
      <use xlink:href="#ArialMT-6f" x="477.978516"/>
      <use xlink:href="#ArialMT-6e" x="533.59375"/>
      <use xlink:href="#ArialMT-20" x="589.208984"/>
      <use xlink:href="#ArialMT-5b" x="616.992188"/>
      <use xlink:href="#ArialMT-4d" x="644.775391"/>
      <use xlink:href="#ArialMT-57" x="728.076172"/>
      <use xlink:href="#ArialMT-68" x="822.460938"/>
      <use xlink:href="#ArialMT-5d" x="878.076172"/>
      <use xlink:href="#ArialMT-20" x="905.859375"/>
      <use xlink:href="#ArialMT-64" x="933.642578"/>
      <use xlink:href="#ArialMT-65" x="989.257812"/>
      <use xlink:href="#ArialMT-6c" x="1044.873047"/>
      <use xlink:href="#ArialMT-74" x="1067.089844"/>
      <use xlink:href="#ArialMT-61" x="1094.873047"/>
      <use xlink:href="#ArialMT-20" x="1150.488281"/>
      <use xlink:href="#ArialMT-62" x="1178.271484"/>
      <use xlink:href="#ArialMT-65" x="1233.886719"/>
      <use xlink:href="#ArialMT-74" x="1289.501953"/>
      <use xlink:href="#ArialMT-77" x="1317.285156"/>
      <use xlink:href="#ArialMT-65" x="1389.501953"/>
      <use xlink:href="#ArialMT-65" x="1445.117188"/>
      <use xlink:href="#ArialMT-6e" x="1500.732422"/>
      <use xlink:href="#ArialMT-20" x="1556.347656"/>
      <use xlink:href="#ArialMT-6d" x="1584.130859"/>
      <use xlink:href="#ArialMT-6f" x="1667.431641"/>
      <use xlink:href="#ArialMT-64" x="1723.046875"/>
      <use xlink:href="#ArialMT-65" x="1778.662109"/>
      <use xlink:href="#ArialMT-6c" x="1834.277344"/>
      <use xlink:href="#ArialMT-20" x="1856.494141"/>
      <use xlink:href="#ArialMT-61" x="1884.277344"/>
      <use xlink:href="#ArialMT-6e" x="1939.892578"/>
      <use xlink:href="#ArialMT-64" x="1995.507812"/>
      <use xlink:href="#ArialMT-20" x="2051.123047"/>
      <use xlink:href="#ArialMT-61" x="2078.90625"/>
      <use xlink:href="#ArialMT-63" x="2134.521484"/>
      <use xlink:href="#ArialMT-74" x="2184.521484"/>
      <use xlink:href="#ArialMT-75" x="2212.304688"/>
      <use xlink:href="#ArialMT-61" x="2267.919922"/>
      <use xlink:href="#ArialMT-6c" x="2323.535156"/>
      <use xlink:href="#ArialMT-20" x="2345.751953"/>
      <use xlink:href="#ArialMT-63" x="2373.535156"/>
      <use xlink:href="#ArialMT-6f" x="2423.535156"/>
      <use xlink:href="#ArialMT-6e" x="2479.150391"/>
      <use xlink:href="#ArialMT-73" x="2534.765625"/>
      <use xlink:href="#ArialMT-75" x="2584.765625"/>
      <use xlink:href="#ArialMT-6d" x="2640.380859"/>
      <use xlink:href="#ArialMT-70" x="2723.681641"/>
      <use xlink:href="#ArialMT-74" x="2779.296875"/>
      <use xlink:href="#ArialMT-69" x="2807.080078"/>
      <use xlink:href="#ArialMT-6f" x="2829.296875"/>
      <use xlink:href="#ArialMT-6e" x="2884.912109"/>
     </g>
    </g>
   </g>
   <g id="line2d_30">
    <path d="M 56.8795 139.165628 
L 57.297254 139.440953 
L 58.132762 145.998108 
L 58.550516 147.945957 
L 58.96827 150.835324 
L 59.386024 155.037112 
L 59.803778 151.82013 
L 60.221532 146.767678 
L 60.639286 148.683235 
L 61.05704 150.045139 
L 61.474794 150.065735 
L 62.310302 160.086658 
L 62.728056 158.290549 
L 63.14581 153.98093 
L 63.563564 154.89757 
L 63.981318 156.569864 
L 64.399072 158.892767 
L 64.816826 163.403822 
L 65.23458 165.78702 
L 65.652334 162.065728 
L 66.070088 155.928082 
L 66.905596 139.027444 
L 67.32335 135.853482 
L 67.741104 136.356765 
L 68.158858 134.131988 
L 68.576612 129.698878 
L 68.994366 130.282643 
L 69.41212 126.590131 
L 69.829874 124.902616 
L 70.247628 125.092809 
L 71.083136 131.987395 
L 71.50089 128.1504 
L 71.918644 122.716253 
L 72.336398 119.792986 
L 72.754152 119.89478 
L 73.171906 121.353205 
L 73.58966 123.745294 
L 74.007414 124.489616 
L 74.842922 117.067622 
L 75.260676 117.843816 
L 75.67843 119.256584 
L 76.096184 117.167959 
L 76.931693 123.721004 
L 77.767201 116.794989 
L 78.184955 116.702344 
L 78.602709 118.006023 
L 79.020463 121.777696 
L 79.855971 130.98202 
L 80.273725 129.30295 
L 80.691479 129.983118 
L 81.109233 135.337061 
L 81.526987 135.725581 
L 82.362495 137.567201 
L 82.780249 136.509875 
L 83.198003 129.519561 
L 83.615757 125.363213 
L 84.033511 126.137503 
L 84.451265 126.160653 
L 84.869019 127.953166 
L 85.286773 130.406633 
L 85.704527 131.097362 
L 86.122281 130.805343 
L 86.540035 132.273724 
L 86.957789 136.257833 
L 87.375543 138.085311 
L 87.793297 139.02466 
L 88.628805 154.654613 
L 89.046559 152.818207 
L 89.464313 148.842844 
L 89.882067 148.309893 
L 90.717575 146.962471 
L 91.135329 150.346414 
L 91.553083 151.596105 
L 92.806345 140.24249 
L 93.224099 139.244599 
L 93.641853 138.766049 
L 94.059607 142.171378 
L 94.477361 147.037839 
L 94.895115 147.687115 
L 95.312869 143.198686 
L 95.730623 145.096791 
L 96.148377 148.537194 
L 96.566131 153.220993 
L 96.983885 154.925772 
L 97.401639 154.545971 
L 97.819393 152.994862 
L 98.237147 153.065424 
L 98.654901 155.365369 
L 99.072655 153.949882 
L 99.490409 153.105395 
L 99.908163 155.962136 
L 100.325917 157.515626 
L 101.161425 147.013866 
L 101.579179 145.150309 
L 101.996933 143.862443 
L 102.414687 145.294098 
L 102.832441 148.318689 
L 103.250195 150.49317 
L 103.667949 148.134228 
L 104.085703 149.150075 
L 104.503457 152.089934 
L 104.921211 157.004137 
L 105.338965 160.095641 
L 105.756719 160.225379 
L 106.174473 157.175065 
L 106.592227 155.207721 
L 107.009981 156.752536 
L 107.427735 157.149497 
L 107.845489 162.185996 
L 108.263243 165.607731 
L 108.680997 165.244033 
L 109.516505 159.927094 
L 109.934259 157.793373 
L 110.352013 158.623055 
L 110.769767 160.932573 
L 111.605275 161.833386 
L 112.023029 159.941862 
L 112.440783 153.803928 
L 112.858537 151.630087 
L 113.276291 152.715344 
L 113.694045 155.446117 
L 114.947307 172.555918 
L 115.365061 171.91973 
L 116.20057 167.364539 
L 116.618324 162.86288 
L 117.036078 161.279052 
L 117.453832 158.580146 
L 117.871586 158.194685 
L 118.28934 157.207776 
L 118.707094 157.676314 
L 119.124848 156.035428 
L 119.542602 150.661573 
L 119.960356 148.88159 
L 120.37811 150.953207 
L 120.795864 152.264849 
L 121.213618 150.769893 
L 121.631372 149.859431 
L 122.049126 151.910942 
L 122.46688 154.774673 
L 122.884634 155.037741 
L 123.302388 155.007244 
L 123.720142 154.290829 
L 124.137896 154.291143 
L 124.55565 154.7536 
L 124.973404 159.00122 
L 125.391158 158.806252 
L 125.808912 155.140575 
L 126.226666 153.573209 
L 126.64442 148.586949 
L 127.062174 141.918663 
L 127.479928 139.034773 
L 127.897682 138.652046 
L 128.315436 138.90098 
L 129.150944 153.271626 
L 129.568698 156.470599 
L 129.986452 153.886411 
L 130.82196 146.610816 
L 131.239714 145.898633 
L 131.657468 145.826473 
L 132.075222 146.238096 
L 132.492976 145.158466 
L 132.91073 140.595594 
L 133.328484 138.346587 
L 133.746238 137.810409 
L 134.163992 138.119856 
L 134.581746 138.739742 
L 135.417254 143.162273 
L 136.252762 138.960609 
L 136.670516 138.86397 
L 137.506024 133.448603 
L 137.923778 134.79258 
L 138.341532 138.485138 
L 138.759286 137.053757 
L 139.17704 137.938153 
L 139.594794 140.469826 
L 140.012548 140.847186 
L 140.430302 141.415518 
L 140.848056 144.997393 
L 141.26581 142.382578 
L 141.683564 137.032601 
L 142.101318 133.120722 
L 142.519072 133.291679 
L 142.936826 134.950497 
L 143.772334 141.418569 
L 144.190088 143.647282 
L 144.607842 141.53724 
L 145.025596 141.218837 
L 145.44335 143.210837 
L 145.861104 143.177557 
L 146.278858 143.678392 
L 147.114366 147.16154 
L 147.949874 142.798776 
L 148.785382 142.741981 
L 149.203136 143.806045 
L 149.62089 147.891889 
L 150.038644 150.154948 
L 150.874152 146.780558 
L 151.291906 147.109333 
L 152.127414 147.175857 
L 152.962922 150.634601 
L 153.380676 148.300194 
L 153.79843 145.255063 
L 154.216184 144.350919 
L 154.633939 144.044518 
L 155.051693 142.845067 
L 155.887201 153.068171 
L 156.304955 149.830329 
L 156.722709 143.692931 
L 157.558217 141.262028 
L 157.975971 142.743643 
L 158.393725 146.20991 
L 158.811479 148.191318 
L 159.646987 141.626078 
L 160.482495 139.789441 
L 160.900249 139.510977 
L 161.318003 142.23981 
L 161.735757 141.508623 
L 162.153511 137.421908 
L 162.571265 134.924067 
L 162.989019 134.050589 
L 163.406773 133.542023 
L 163.824527 133.926851 
L 164.242281 136.609749 
L 164.660035 138.504054 
L 165.077789 133.634806 
L 165.495543 131.539318 
L 165.913297 131.786069 
L 166.331051 132.729933 
L 166.748805 132.556418 
L 167.584313 147.654183 
L 168.002067 147.697664 
L 168.419821 147.546664 
L 168.837575 150.052666 
L 169.255329 151.152191 
L 169.673083 153.749599 
L 170.090837 161.299223 
L 170.508591 164.414714 
L 170.926345 164.053794 
L 171.344099 165.77626 
L 171.761853 169.06144 
L 172.179607 170.60919 
L 172.597361 171.092237 
L 173.015115 172.398116 
L 173.432869 176.252676 
L 173.850623 175.455005 
L 174.268377 174.165967 
L 174.686131 175.010401 
L 175.521639 169.408534 
L 176.357147 167.88722 
L 176.774901 163.059663 
L 177.192655 159.869619 
L 177.610409 162.162661 
L 178.028163 163.424938 
L 178.445917 166.303872 
L 179.281425 177.127992 
L 180.116933 168.002383 
L 180.952441 154.933826 
L 181.370195 154.301403 
L 181.787949 161.532748 
L 182.205703 166.674001 
L 183.458965 152.330348 
L 184.294473 147.326794 
L 185.129981 151.946292 
L 185.547735 148.403299 
L 185.965489 142.841896 
L 186.383243 139.502288 
L 186.800997 139.455766 
L 187.218751 141.984848 
L 188.054259 153.90219 
L 188.889767 154.640178 
L 189.307521 158.019217 
L 190.143029 162.635031 
L 190.560783 166.015675 
L 190.978537 167.778876 
L 192.231799 151.735001 
L 192.649553 147.629702 
L 193.067307 146.737824 
L 193.485061 148.29932 
L 193.902816 147.257919 
L 194.738324 131.734037 
L 195.156078 130.674574 
L 195.573832 131.860012 
L 195.991586 131.594721 
L 196.40934 132.061857 
L 196.827094 132.908043 
L 197.244848 126.152238 
L 197.662602 124.245863 
L 198.080356 129.510594 
L 198.49811 130.087819 
L 198.915864 127.616447 
L 199.333618 131.460255 
L 199.751372 133.23315 
L 200.169126 130.685796 
L 200.58688 126.715363 
L 201.422388 122.0125 
L 201.840142 118.60436 
L 202.257896 118.665434 
L 202.67565 118.036354 
L 203.511158 101.247317 
L 203.928912 99.783277 
L 204.346666 99.517294 
L 204.76442 100.183079 
L 205.182174 104.050441 
L 206.435436 119.044947 
L 206.85319 125.912949 
L 207.270944 127.910051 
L 207.688698 128.582741 
L 208.106452 131.358346 
L 208.524206 133.015128 
L 208.94196 132.940013 
L 209.359714 134.652683 
L 209.777468 140.335477 
L 210.195222 142.445244 
L 210.612976 140.522474 
L 211.03073 141.390378 
L 211.448484 145.719896 
L 212.283992 136.843503 
L 212.701746 135.548008 
L 213.1195 135.039428 
L 213.537254 136.079191 
L 214.372762 139.362812 
L 215.20827 133.367099 
L 215.626024 134.158401 
L 216.461532 137.305313 
L 217.29704 146.995671 
L 217.714794 143.87477 
L 218.132548 138.844676 
L 219.38581 116.297954 
L 220.221318 109.657198 
L 220.639072 104.450622 
L 221.47458 96.702628 
L 222.310088 86.38184 
L 222.727842 83.879998 
L 223.145596 83.291059 
L 223.56335 81.982667 
L 223.981104 78.033951 
L 224.398858 77.634043 
L 224.816612 77.948888 
L 225.234366 76.536748 
L 226.069874 81.06653 
L 226.487628 80.722633 
L 226.905382 79.941813 
L 227.74089 77.322798 
L 228.158644 78.326626 
L 228.576398 81.578459 
L 228.994152 83.161686 
L 229.82966 74.485924 
L 230.247414 76.044373 
L 230.665168 76.576948 
L 231.082922 78.540054 
L 231.500676 87.704178 
L 231.91843 92.834328 
L 232.336184 92.862256 
L 232.753939 93.287465 
L 233.589447 96.062692 
L 234.007201 99.660889 
L 234.424955 106.927655 
L 234.842709 111.173051 
L 235.260463 110.950995 
L 236.513725 116.951646 
L 236.931479 120.256589 
L 237.766987 128.82836 
L 238.184741 130.580241 
L 239.020249 128.734897 
L 239.438003 129.460385 
L 239.855757 131.121412 
L 240.691265 139.149514 
L 241.109019 140.381968 
L 241.526773 139.622217 
L 241.944527 139.929852 
L 242.362281 137.836162 
L 242.780035 136.899195 
L 243.615543 145.698437 
L 244.033297 143.076255 
L 244.451051 141.691828 
L 244.868805 142.97692 
L 245.704313 143.358528 
L 246.122067 147.19868 
L 246.539821 149.689681 
L 246.957575 147.78859 
L 247.375329 146.441768 
L 247.793083 145.482668 
L 248.210837 143.658647 
L 248.628591 143.801017 
L 249.046345 146.597617 
L 249.464099 146.615019 
L 249.881853 144.431588 
L 250.299607 144.994124 
L 250.717361 146.568743 
L 251.135115 149.687619 
L 252.388377 162.195275 
L 253.641639 151.972291 
L 254.059393 150.483692 
L 254.477147 152.189401 
L 255.312655 162.119807 
L 255.730409 162.256764 
L 256.983671 151.124665 
L 257.401425 155.222235 
L 258.236933 170.997562 
L 258.654687 171.222559 
L 259.072441 169.000221 
L 259.490195 169.823638 
L 259.907949 171.813455 
L 260.325703 177.153354 
L 261.161211 190.736929 
L 261.578965 191.234106 
L 261.996719 190.499517 
L 262.414473 189.45154 
L 263.249981 183.231565 
L 263.667735 185.06919 
L 264.085489 187.600967 
L 264.503243 185.275534 
L 264.920997 184.763505 
L 265.756505 193.036403 
L 266.174259 195.17532 
L 266.592013 196.117238 
L 267.009767 194.870109 
L 267.845275 188.729126 
L 268.263029 187.77391 
L 268.680783 187.253396 
L 269.098537 187.050044 
L 269.516291 190.751429 
L 269.934045 188.914515 
L 270.351799 181.123777 
L 270.769553 176.211474 
L 271.187307 176.090629 
L 271.605061 176.971733 
L 272.022816 171.14666 
L 272.44057 170.638222 
L 272.858324 168.878374 
L 273.693832 153.50018 
L 274.52934 149.221698 
L 274.947094 148.84624 
L 275.364848 152.484366 
L 275.782602 152.831698 
L 276.200356 149.466849 
L 276.61811 142.902364 
L 277.871372 129.295714 
L 278.289126 128.561154 
L 278.70688 128.559337 
L 279.124634 127.613405 
L 279.542388 126.974326 
L 280.377896 126.543274 
L 280.79565 122.218866 
L 281.213404 123.999344 
L 281.631158 127.915759 
L 282.466666 122.434899 
L 282.88442 122.892479 
L 283.302174 120.908789 
L 283.719928 117.928706 
L 284.137682 117.731076 
L 284.555436 122.04644 
L 284.97319 120.445112 
L 285.390944 115.805837 
L 285.808698 115.75299 
L 286.226452 114.462041 
L 286.644206 114.386823 
L 287.479714 121.396316 
L 287.897468 119.779896 
L 288.315222 119.716257 
L 288.732976 117.08058 
L 289.15073 116.226863 
L 289.568484 117.368988 
L 290.403992 125.67933 
L 291.2395 122.927662 
L 291.657254 120.673992 
L 292.075008 119.88382 
L 292.492762 119.842215 
L 292.910516 121.256091 
L 293.32827 125.346946 
L 294.163778 119.671923 
L 294.581532 118.648013 
L 294.999286 118.665729 
L 295.41704 119.529036 
L 296.252548 125.01079 
L 297.088056 120.113627 
L 297.50581 120.066103 
L 297.923564 122.357324 
L 298.341318 123.102918 
L 298.759072 124.249945 
L 299.176826 126.726932 
L 300.430088 119.469935 
L 300.847842 118.510205 
L 301.265596 120.038781 
L 302.101104 129.80928 
L 302.936612 124.06667 
L 303.354366 124.191454 
L 303.77212 125.127837 
L 304.189874 126.903294 
L 305.025382 133.931295 
L 305.443136 129.289624 
L 305.86089 125.982376 
L 306.278644 125.696767 
L 306.696398 123.830725 
L 307.114152 125.034387 
L 307.531906 128.382463 
L 307.94966 130.353093 
L 308.785168 123.454476 
L 309.202922 122.800598 
L 309.620676 122.558397 
L 310.03843 122.771488 
L 310.873939 127.571822 
L 311.291693 128.908062 
L 312.127201 124.4202 
L 312.544955 125.140738 
L 312.962709 127.505238 
L 313.798217 134.944279 
L 314.215971 133.431731 
L 314.633725 131.302301 
L 315.051479 132.6868 
L 315.469233 128.916423 
L 315.886987 126.193998 
L 316.722495 130.850103 
L 317.140249 127.479077 
L 317.558003 126.785313 
L 317.975757 132.083311 
L 318.393511 135.91435 
L 318.811265 138.705958 
L 319.229019 142.821396 
L 319.646773 142.409806 
L 320.482281 135.233278 
L 320.900035 134.45351 
L 321.317789 133.389566 
L 321.735543 133.193133 
L 322.153297 136.760575 
L 322.571051 138.765476 
L 322.988805 136.198006 
L 323.406559 132.823486 
L 323.824313 134.286545 
L 325.077575 147.142914 
L 325.495329 149.623522 
L 325.913083 146.686819 
L 326.330837 140.505162 
L 326.748591 137.217151 
L 327.166345 136.549864 
L 327.584099 136.596995 
L 328.001853 139.455627 
L 328.419607 139.335604 
L 328.837361 132.104511 
L 329.255115 129.019548 
L 329.672869 130.11924 
L 330.508377 123.25849 
L 330.926131 122.665458 
L 331.343885 121.183729 
L 331.761639 117.201652 
L 332.179393 116.559486 
L 332.597147 116.926342 
L 333.014901 116.029628 
L 333.432655 116.302515 
L 333.850409 119.352886 
L 334.268163 123.526495 
L 334.685917 123.195888 
L 335.103671 123.038917 
L 335.521425 125.642217 
L 335.939179 129.941734 
L 336.356933 130.312278 
L 336.774687 124.20261 
L 337.192441 121.741752 
L 338.027949 112.063187 
L 338.445703 110.595332 
L 339.281211 114.176537 
L 339.698965 117.094138 
L 340.116719 122.07935 
L 340.534473 124.178438 
L 340.952227 124.801309 
L 341.369981 126.840968 
L 341.787735 127.374467 
L 342.205489 125.730029 
L 343.040997 131.315699 
L 343.458751 126.575004 
L 343.876505 123.374879 
L 344.294259 124.140804 
L 344.712013 121.717262 
L 345.129767 120.486211 
L 345.965275 126.052598 
L 346.383029 124.045426 
L 347.218537 114.872905 
L 347.636291 111.022388 
L 348.054045 109.710884 
L 348.471799 111.203767 
L 348.889553 112.179376 
L 349.307307 110.929356 
L 349.725061 106.551619 
L 350.142816 105.338211 
L 350.56057 104.661739 
L 350.978324 104.511415 
L 351.813832 101.670985 
L 352.64934 92.439707 
L 353.067094 90.2176 
L 353.484848 90.370184 
L 354.320356 94.035505 
L 354.73811 94.850585 
L 355.573618 86.640815 
L 355.991372 87.838321 
L 356.82688 95.336774 
L 357.662388 108.935106 
L 358.080142 110.300491 
L 358.497896 112.162519 
L 358.91565 116.657032 
L 359.333404 123.521012 
L 359.751158 127.962734 
L 360.168912 135.172421 
L 360.586666 139.171953 
L 361.00442 134.204978 
L 361.422174 130.829872 
L 362.257682 144.261383 
L 363.09319 146.3209 
L 363.510944 149.246372 
L 363.928698 150.714716 
L 364.346452 149.839409 
L 364.764206 147.921957 
L 365.18196 143.781546 
L 365.599714 142.049971 
L 366.017468 147.148009 
L 366.435222 150.868561 
L 367.27073 147.350656 
L 367.688484 146.646053 
L 368.106238 147.384066 
L 368.523992 149.413233 
L 368.941746 149.699616 
L 369.3595 150.120886 
L 371.866024 113.048518 
L 372.283778 110.383236 
L 373.119286 91.711024 
L 373.53704 90.147467 
L 373.954794 87.265947 
L 374.372548 78.420911 
L 374.790302 75.42637 
L 375.208056 78.418418 
L 375.62581 77.263819 
L 376.043564 75.675494 
L 376.461318 75.814848 
L 376.879072 75.228985 
L 377.296826 76.757766 
L 377.71458 81.981973 
L 378.132334 83.797734 
L 378.550088 77.961765 
L 378.967842 75.129548 
L 379.385596 76.626702 
L 379.80335 76.487628 
L 380.221104 76.684803 
L 380.638858 79.819832 
L 381.056612 77.293846 
L 381.474366 74.069761 
L 381.89212 72.62197 
L 382.309874 75.030002 
L 382.727628 76.271127 
L 383.145382 79.435202 
L 383.563136 84.586353 
L 383.98089 86.652267 
L 384.398644 86.832502 
L 384.816398 84.651926 
L 385.234152 89.619523 
L 385.651906 91.607985 
L 386.06966 92.762919 
L 386.487414 94.77909 
L 386.905168 99.778861 
L 387.322922 98.327135 
L 387.740676 94.983493 
L 388.15843 94.751157 
L 388.576184 91.697488 
L 388.993939 90.005053 
L 389.829447 97.189271 
L 390.247201 93.363454 
L 390.664955 93.453151 
L 391.082709 92.74307 
L 391.500463 90.08159 
L 391.918217 92.007193 
L 392.335971 99.088312 
L 392.753725 104.248497 
L 393.171479 100.501946 
L 394.006987 101.9992 
L 394.424741 100.877324 
L 394.842495 103.486808 
L 395.678003 119.110322 
L 396.513511 123.31591 
L 396.931265 123.630708 
L 397.349019 126.327213 
L 397.766773 125.309733 
L 398.184527 130.230677 
L 398.602281 137.129896 
L 399.020035 142.038202 
L 399.437789 143.510437 
L 399.855543 146.535396 
L 400.691051 149.361757 
L 401.526559 158.378314 
L 401.944313 155.221346 
L 402.362067 153.924265 
L 402.779821 155.884901 
L 403.197575 158.687125 
L 404.033083 175.593998 
L 404.450837 177.116637 
L 404.868591 180.143985 
L 405.704099 191.055452 
L 406.121853 191.29224 
L 406.539607 191.828688 
L 407.375115 198.498086 
L 407.792869 195.019831 
L 408.210623 190.378226 
L 409.046131 186.855077 
L 409.463885 188.00497 
L 410.299393 199.155956 
L 410.717147 195.768898 
L 411.134901 190.059669 
L 411.552655 187.869101 
L 411.970409 189.223403 
L 412.388163 194.914488 
L 412.805917 202.750153 
L 413.223671 207.646624 
L 413.641425 206.924805 
L 414.059179 209.12345 
L 414.476933 213.180988 
L 414.894687 213.806954 
L 415.312441 213.071744 
L 415.730195 211.066121 
L 416.147949 206.995138 
L 416.565703 208.575384 
L 416.983457 212.250678 
L 417.818965 200.754074 
L 418.236719 200.311702 
L 418.654473 204.852414 
L 419.072227 207.706271 
L 419.489981 203.965853 
L 419.907735 196.280444 
L 420.325489 191.861913 
L 420.743243 191.155773 
L 421.160997 189.507626 
L 421.996505 199.188118 
L 422.832013 191.001655 
L 423.249767 190.152977 
L 423.667521 190.588609 
L 424.085275 190.265412 
L 424.503029 191.644942 
L 424.920783 189.667885 
L 425.756291 177.048208 
L 426.591799 170.504859 
L 427.009553 172.509528 
L 427.845061 182.668017 
L 428.262816 181.819039 
L 428.68057 179.312617 
L 429.098324 170.960323 
L 429.516078 164.83703 
L 429.933832 162.754194 
L 430.351586 163.145314 
L 430.76934 160.75543 
L 431.604848 147.79614 
L 432.85811 145.048604 
L 433.693618 143.946796 
L 434.94688 125.058446 
L 435.364634 122.668344 
L 435.782388 122.935405 
L 436.200142 123.76539 
L 436.617896 123.806623 
L 437.453404 111.241996 
L 437.871158 108.523255 
L 438.706666 107.171745 
L 439.12442 109.057636 
L 439.542174 106.868047 
L 439.959928 101.588831 
L 440.377682 98.296818 
L 440.795436 98.614699 
L 441.630944 92.043615 
L 442.466452 94.853109 
L 442.884206 89.789243 
L 443.30196 87.932721 
L 443.719714 89.536659 
L 444.137468 93.530329 
L 444.555222 94.00323 
L 444.972976 97.953133 
L 445.39073 100.625549 
L 446.226238 97.272953 
L 446.643992 96.114421 
L 447.061746 96.647688 
L 447.4795 97.794115 
L 448.315008 102.916175 
L 449.150516 98.602988 
L 449.56827 99.978845 
L 449.986024 100.886902 
L 450.403778 102.271501 
L 451.239286 108.805971 
L 452.074794 102.242123 
L 452.492548 101.298368 
L 452.910302 99.687999 
L 453.328056 99.35668 
L 454.163564 110.008255 
L 454.999072 105.498105 
L 455.416826 108.092926 
L 455.83458 109.695039 
L 456.670088 112.004761 
L 457.087842 114.953519 
L 457.505596 113.688661 
L 457.92335 111.887227 
L 458.341104 111.916487 
L 458.758858 113.694403 
L 459.176612 116.392132 
L 459.594366 120.385426 
L 460.01212 120.716204 
L 460.429874 118.563602 
L 460.847628 115.094062 
L 461.265382 115.876364 
L 462.10089 113.764339 
L 462.936398 118.176825 
L 463.354152 116.708959 
L 463.771906 115.695004 
L 464.18966 117.23258 
L 464.607414 117.028696 
L 465.025168 116.47603 
L 465.442922 119.11395 
L 465.860676 123.654041 
L 466.27843 123.523797 
L 466.696184 120.823388 
L 467.113939 117.297105 
L 467.949447 116.43578 
L 468.367201 116.754137 
L 468.784955 115.723799 
L 469.620463 110.309775 
L 470.038217 109.835502 
L 470.455971 111.224436 
L 471.291479 117.499144 
L 471.709233 118.826201 
L 472.126987 114.105566 
L 472.544741 110.763283 
L 472.962495 108.51852 
L 473.380249 108.754415 
L 473.798003 112.286731 
L 474.215757 121.782911 
L 474.633511 128.527379 
L 475.051265 128.016533 
L 475.469019 125.686796 
L 476.304527 123.509905 
L 476.722281 122.449899 
L 477.140035 124.985322 
L 477.557789 130.499667 
L 477.975543 129.678174 
L 478.393297 125.873677 
L 478.811051 124.671508 
L 479.228805 125.591027 
L 479.646559 127.930883 
L 480.482067 139.903246 
L 480.899821 140.111517 
L 481.317575 141.081752 
L 481.735329 142.383887 
L 482.570837 141.906578 
L 482.988591 143.53439 
L 483.406345 144.180473 
L 483.824099 140.650046 
L 484.241853 139.711875 
L 485.077361 138.385477 
L 485.495115 139.685416 
L 485.912869 142.664343 
L 486.330623 141.3077 
L 486.748377 133.852441 
L 487.166131 129.713586 
L 487.583885 128.375522 
L 488.001639 128.700194 
L 488.419393 128.481538 
L 489.254901 131.931598 
L 489.672655 125.065867 
L 490.090409 120.701179 
L 490.925917 122.516462 
L 491.343671 122.277139 
L 491.761425 125.007058 
L 492.179179 129.148768 
L 493.014687 117.793147 
L 494.267949 113.470843 
L 494.685703 115.033247 
L 495.103457 117.85028 
L 495.521211 115.042601 
L 495.938965 110.976081 
L 496.356719 111.007132 
L 496.774473 110.413991 
L 497.192227 114.242403 
L 497.609981 123.076509 
L 498.027735 126.039905 
L 498.863243 116.728224 
L 499.280997 114.462385 
L 499.698751 109.85143 
L 500.116505 108.008639 
L 500.952013 110.69123 
L 501.369767 107.55585 
L 501.787521 101.531102 
L 502.205275 102.432369 
L 502.623029 100.267545 
L 503.040783 95.60724 
L 503.876291 91.20686 
L 504.711799 76.715968 
L 505.547307 69.20777 
L 505.965061 67.194171 
L 506.382816 67.230412 
L 506.80057 66.550341 
L 507.218324 63.37018 
L 507.636078 58.220566 
L 508.053832 55.658747 
L 508.471586 54.934792 
L 508.88934 55.832465 
L 509.307094 58.947199 
L 509.724848 59.863156 
L 510.560356 51.775683 
L 510.97811 54.119906 
L 511.813618 68.534804 
L 512.649126 84.75449 
L 513.06688 83.487445 
L 513.484634 83.064448 
L 513.902388 85.568164 
L 514.737896 98.112196 
L 515.573404 105.777879 
L 516.408912 103.602095 
L 516.826666 105.492931 
L 517.24442 105.69113 
L 517.662174 106.525828 
L 518.497682 112.99687 
L 518.915436 113.274692 
L 519.33319 111.182473 
L 519.750944 111.22562 
L 520.168698 109.431625 
L 520.586452 108.835427 
L 521.004206 110.703242 
L 521.42196 110.620698 
L 522.257468 96.519745 
L 522.675222 92.046301 
L 523.092976 90.975571 
L 523.928484 86.664581 
L 524.346238 81.660681 
L 525.181746 64.391049 
L 525.5995 60.752686 
L 526.017254 56.012748 
L 526.435008 53.093037 
L 526.852762 52.454501 
L 527.270516 53.882134 
L 527.68827 49.491463 
L 528.106024 42.921464 
L 528.523778 39.777 
L 528.941532 40.571855 
L 529.359286 43.141739 
L 530.194794 56.378322 
L 530.612548 56.390457 
L 531.448056 53.049755 
L 531.86581 52.561004 
L 532.283564 53.687511 
L 532.701318 60.143597 
L 533.119072 64.839311 
L 533.536826 60.134869 
L 533.95458 52.533429 
L 534.372334 50.716329 
L 534.790088 50.655191 
L 535.207842 52.001977 
L 535.625596 56.139277 
L 536.04335 59.036325 
L 536.878858 51.913078 
L 537.296612 51.87259 
L 537.714366 53.520999 
L 538.13212 58.698867 
L 538.549874 68.509761 
L 538.967628 74.948784 
L 539.385382 72.300602 
L 539.803136 66.489501 
L 540.22089 67.376472 
L 540.638644 70.789433 
L 541.474152 82.909275 
L 541.891906 84.777747 
L 542.727414 74.347841 
L 543.145168 73.114982 
L 543.562922 71.032807 
L 543.980676 73.986088 
L 544.816184 85.953733 
L 545.233939 83.989089 
L 545.651693 81.027792 
L 546.069447 84.227413 
L 547.322709 102.556463 
L 547.740463 104.241447 
L 548.575971 96.091278 
L 548.993725 93.460292 
L 549.411479 92.307367 
L 549.829233 93.218308 
L 550.246987 99.935545 
L 550.664741 101.046219 
L 551.500249 84.171159 
L 551.918003 81.921087 
L 552.335757 84.167959 
L 553.171265 103.289016 
L 553.589019 109.610637 
L 554.424527 113.418084 
L 554.842281 116.610555 
L 555.260035 117.34984 
L 555.677789 115.751866 
L 556.095543 118.354654 
L 556.513297 118.365795 
L 556.931051 117.143828 
L 557.348805 114.648128 
L 557.766559 114.431253 
L 558.184313 115.000521 
L 558.602067 115.265067 
L 559.019821 117.792624 
L 559.437575 118.888991 
L 559.855329 114.697249 
L 560.273083 113.905133 
L 560.690837 118.024862 
L 562.361853 141.401542 
L 563.197361 136.639986 
L 563.615115 138.830486 
L 564.032869 142.908432 
L 564.450623 149.358609 
L 564.868377 154.012853 
L 565.286131 151.239538 
L 565.703885 146.399231 
L 566.121639 139.623053 
L 566.539393 136.422839 
L 566.957147 134.999758 
L 567.374901 136.423907 
L 567.792655 140.7574 
L 568.210409 142.084997 
L 568.628163 139.795285 
L 569.045917 139.16377 
L 569.463671 140.662693 
L 570.299179 149.075697 
L 571.134687 159.924709 
L 571.552441 160.674836 
L 571.970195 161.875249 
L 572.805703 167.554914 
L 573.223457 168.673916 
L 573.641211 171.679823 
L 574.058965 175.879164 
L 574.476719 175.21082 
L 574.894473 174.309347 
L 575.312227 174.908382 
L 575.729981 176.012567 
L 576.565489 182.544734 
L 576.983243 182.922677 
L 577.400997 178.078666 
L 578.236505 165.98235 
L 578.654259 166.521852 
L 579.072013 164.709497 
L 579.489767 165.433948 
L 579.907521 164.458056 
L 580.325275 158.774781 
L 580.743029 159.470483 
L 581.160783 161.065873 
L 581.578537 160.759377 
L 582.414045 155.993724 
L 582.831799 155.852442 
L 583.667307 146.694492 
L 584.92057 140.13128 
L 585.756078 143.02238 
L 586.173832 138.420945 
L 587.00934 126.207876 
L 587.844848 116.203121 
L 588.262602 116.506189 
L 588.680356 117.714104 
L 589.515864 109.311073 
L 589.933618 108.270594 
L 590.769126 112.127505 
L 591.604634 115.047597 
L 592.022388 110.485645 
L 592.440142 109.656028 
L 592.857896 111.86867 
L 593.27565 109.957157 
L 594.111158 111.570015 
L 594.528912 113.383579 
L 595.782174 103.475611 
L 596.199928 104.035606 
L 596.617682 105.480612 
L 597.45319 112.037887 
L 598.288698 104.425411 
L 598.706452 101.798389 
L 599.124206 102.941409 
L 599.54196 106.326628 
L 600.377468 116.235735 
L 601.212976 113.195353 
L 602.048484 118.097773 
L 602.466238 121.096062 
L 602.883992 121.366285 
L 603.301746 125.809091 
L 603.7195 125.850415 
L 604.137254 125.278116 
L 604.555008 127.96638 
L 604.972762 127.220515 
L 605.390516 128.26096 
L 605.80827 133.110449 
L 606.226024 136.363328 
L 606.643778 137.289425 
L 607.061532 134.853353 
L 607.479286 136.098555 
L 607.89704 137.738763 
L 608.732548 145.881718 
L 609.150302 148.501847 
L 609.568056 146.547951 
L 609.98581 147.959795 
L 610.403564 151.124977 
L 610.821318 151.632663 
L 611.239072 153.259196 
L 611.656826 155.961536 
L 612.07458 156.674485 
L 612.492334 154.937795 
L 612.910088 154.353322 
L 613.745596 158.019264 
L 614.16335 160.33796 
L 614.581104 163.434504 
L 614.998858 165.624769 
L 615.416612 165.814738 
L 615.834366 163.020334 
L 616.25212 161.686634 
L 616.669874 160.860601 
L 617.087628 160.937952 
L 617.923136 166.776868 
L 618.34089 164.755018 
L 618.758644 160.701689 
L 619.176398 157.836721 
L 619.594152 158.101156 
L 620.011906 157.491858 
L 620.42966 156.457821 
L 620.847414 156.195485 
L 621.265168 153.238033 
L 622.100676 143.790863 
L 622.51843 139.197244 
L 622.936184 139.800362 
L 623.771693 151.716764 
L 624.189447 152.197915 
L 624.607201 153.558199 
L 625.024955 154.396535 
L 625.442709 153.120823 
L 626.278217 149.525736 
L 626.695971 145.429114 
L 627.113725 139.30788 
L 627.531479 137.225466 
L 627.949233 139.987083 
L 628.366987 144.187983 
L 628.784741 146.459068 
L 629.202495 148.019725 
L 630.038003 146.61453 
L 630.455757 146.96516 
L 631.291265 153.53854 
L 631.709019 158.315776 
L 632.544527 172.187235 
L 632.962281 175.613258 
L 633.380035 176.262515 
L 633.797789 178.581334 
L 634.215543 181.755578 
L 635.051051 192.643359 
L 635.468805 195.19562 
L 635.886559 191.712449 
L 636.722067 179.978261 
L 637.139821 178.52994 
L 637.557575 182.026147 
L 638.393083 191.450923 
L 638.810837 191.849114 
L 639.228591 191.019655 
L 639.646345 191.855905 
L 640.481853 191.029489 
L 640.899607 190.119305 
L 641.317361 188.316089 
L 641.735115 188.858321 
L 642.152869 190.647338 
L 642.570623 188.846365 
L 643.406131 183.195379 
L 643.823885 184.57068 
L 644.241639 185.079305 
L 645.077147 169.418216 
L 645.912655 162.869054 
L 646.330409 160.327438 
L 646.748163 161.228127 
L 647.165917 159.921901 
L 648.001425 146.462848 
L 648.419179 145.136696 
L 648.836933 144.547849 
L 649.254687 145.57258 
L 649.672441 145.760778 
L 650.090195 143.39581 
L 650.507949 138.20366 
L 650.925703 131.488746 
L 651.343457 127.165558 
L 651.761211 126.256375 
L 652.178965 126.039517 
L 652.596719 125.536607 
L 653.014473 124.009583 
L 653.432227 118.081533 
L 653.849981 114.861893 
L 654.267735 108.981341 
L 654.685489 105.973834 
L 655.103243 106.572717 
L 655.520997 107.852377 
L 655.938751 108.575812 
L 656.774259 98.601496 
L 657.192013 97.777261 
L 657.609767 95.836312 
L 658.027521 94.498812 
L 658.445275 96.948909 
L 658.863029 98.040967 
L 659.280783 91.429496 
L 659.698537 87.513601 
L 660.534045 85.190772 
L 660.951799 85.080752 
L 661.787307 93.414181 
L 662.205061 91.699921 
L 662.622816 89.37129 
L 663.04057 90.855021 
L 663.876078 97.214572 
L 664.711586 114.736591 
L 665.12934 116.003756 
L 665.547094 115.235635 
L 665.964848 117.919471 
L 666.382602 119.284635 
L 667.635864 131.069742 
L 668.053618 130.659463 
L 668.471372 130.431702 
L 669.30688 138.960764 
L 669.724634 142.850459 
L 670.142388 148.018837 
L 670.560142 150.292106 
L 670.977896 145.061757 
L 671.39565 141.334459 
L 671.813404 143.192543 
L 672.231158 143.604295 
L 672.648912 143.489144 
L 673.066666 147.124027 
L 673.48442 149.559016 
L 674.319928 135.990356 
L 674.737682 134.993686 
L 675.57319 130.781929 
L 675.990944 127.565563 
L 676.408698 126.64396 
L 677.244206 104.938887 
L 677.66196 100.986401 
L 678.497468 95.382483 
L 678.915222 96.64075 
L 679.332976 96.50124 
L 681.421746 77.338152 
L 681.8395 78.757507 
L 682.257254 78.471054 
L 683.092762 73.542926 
L 683.92827 75.033761 
L 684.346024 78.390768 
L 684.763778 85.724194 
L 685.181532 90.833328 
L 686.01704 82.564843 
L 686.434794 84.136822 
L 686.852548 86.229148 
L 687.270302 86.725199 
L 687.688056 91.588315 
L 688.10581 94.50744 
L 688.523564 95.712466 
L 688.941318 96.063665 
L 689.776826 99.671414 
L 690.19458 102.911894 
L 691.030088 113.108267 
L 691.447842 113.097065 
L 691.865596 111.379438 
L 692.28335 111.332511 
L 692.701104 113.068743 
L 693.118858 117.324401 
L 693.536612 123.612469 
L 693.954366 127.982502 
L 694.37212 124.308883 
L 694.789874 122.632959 
L 695.207628 122.081366 
L 695.625382 123.69485 
L 696.46089 134.325013 
L 696.878644 136.955832 
L 697.296398 132.341856 
L 697.714152 130.19264 
L 698.131906 135.188434 
L 698.54966 137.045779 
L 698.967414 140.290979 
L 699.385168 147.437951 
L 699.802922 151.149062 
L 700.63843 144.275322 
L 701.056184 144.160954 
L 701.473939 145.458775 
L 701.891693 149.524291 
L 702.309447 155.144499 
L 702.727201 157.10901 
L 703.144955 155.601665 
L 703.562709 153.663829 
L 703.980463 155.798145 
L 704.815971 166.048418 
L 705.233725 171.147637 
L 705.651479 174.746361 
L 706.069233 172.331064 
L 706.486987 168.233528 
L 706.904741 167.415464 
L 707.322495 167.610925 
L 707.740249 171.802828 
L 708.158003 178.666139 
L 708.575757 182.021539 
L 708.993511 180.000174 
L 709.411265 175.927068 
L 709.829019 173.370107 
L 710.246773 174.467426 
L 710.664527 179.072102 
L 711.500035 194.197653 
L 711.917789 194.713903 
L 712.335543 194.867715 
L 714.424313 216.376969 
L 715.259821 214.289656 
L 716.095329 216.376103 
L 716.513083 216.440201 
L 716.930837 218.490757 
L 717.348591 219.373631 
L 718.184099 211.155086 
L 718.601853 211.218526 
L 719.019607 213.510662 
L 719.855115 220.422209 
L 720.272869 221.5831 
L 721.108377 207.267918 
L 721.526131 206.2102 
L 721.943885 206.839921 
L 722.361639 212.954407 
L 722.779393 215.900676 
L 723.197147 212.030138 
L 724.032655 192.389045 
L 724.450409 186.999486 
L 725.285917 181.67453 
L 725.703671 183.31883 
L 726.121425 183.659598 
L 726.956933 172.812678 
L 727.374687 172.758205 
L 727.792441 173.184179 
L 728.210195 175.587148 
L 729.045703 187.012536 
L 729.463457 185.507871 
L 729.881211 181.64526 
L 730.298965 181.742188 
L 730.716719 182.325557 
L 731.134473 179.784225 
L 731.552227 178.671605 
L 731.969981 178.226236 
L 732.387735 175.918255 
L 732.805489 171.684599 
L 733.223243 170.513371 
L 733.640997 173.826398 
L 734.058751 173.389235 
L 734.476505 176.833547 
L 734.894259 176.65499 
L 735.312013 174.564201 
L 735.729767 173.099161 
L 736.147521 174.80435 
L 736.565275 179.009674 
L 736.983029 181.505786 
L 737.400783 185.111355 
L 737.818537 187.128822 
L 738.654045 179.147249 
L 739.071799 180.230308 
L 739.489553 179.768994 
L 739.907307 178.3788 
L 740.325061 179.438504 
L 740.742816 178.355172 
L 741.578324 164.547136 
L 741.996078 160.943005 
L 742.413832 160.249095 
L 742.831586 161.293151 
L 743.24934 163.760068 
L 743.667094 168.658681 
L 744.084848 170.260319 
L 744.502602 170.871708 
L 744.920356 171.156181 
L 746.173618 179.453387 
L 746.591372 184.829187 
L 747.009126 182.505038 
L 747.42688 180.950059 
L 747.844634 180.848495 
L 749.097896 184.702013 
L 749.51565 183.451669 
L 750.351158 178.712686 
L 750.768912 178.893756 
L 751.60442 181.890451 
L 752.439928 187.317996 
L 753.275436 184.655442 
L 753.69319 184.82992 
L 754.110944 183.348338 
L 754.528698 185.233964 
L 754.946452 189.042228 
L 755.364206 191.34804 
L 755.78196 189.872959 
L 756.199714 189.314436 
L 756.617468 189.843076 
L 757.035222 190.10549 
L 757.452976 192.343881 
L 757.87073 193.828141 
L 758.706238 194.789602 
L 759.123992 192.936494 
L 759.541746 195.524946 
L 760.377254 199.007915 
L 761.212762 204.731813 
L 761.630516 204.226688 
L 762.466024 205.151206 
L 762.883778 205.444228 
L 763.301532 206.617731 
L 763.719286 210.377433 
L 764.13704 212.715499 
L 764.972548 208.061172 
L 765.390302 207.089674 
L 765.808056 206.927127 
L 766.22581 207.73382 
L 766.643564 212.389081 
L 767.061318 212.448515 
L 767.479072 207.898659 
L 767.896826 205.247323 
L 768.732334 201.801357 
L 769.150088 201.983524 
L 769.567842 203.877671 
L 769.985596 204.833375 
L 770.40335 202.95204 
L 770.821104 202.481139 
L 771.238858 201.109332 
L 771.656612 200.436098 
L 772.074366 200.612614 
L 772.49212 203.029986 
L 772.909874 204.412446 
L 773.327628 201.900214 
L 773.745382 197.201293 
L 774.163136 195.860621 
L 774.58089 198.464262 
L 774.998644 204.320925 
L 775.834152 219.98138 
L 776.251906 221.46176 
L 776.66966 222.523444 
L 778.75843 242.579893 
L 779.176184 243.680986 
L 779.593939 247.056759 
L 780.011693 252.99304 
L 780.429447 256.489476 
L 781.682709 270.729897 
L 782.100463 273.461629 
L 782.518217 273.847399 
L 782.935971 274.065715 
L 783.353725 275.205806 
L 784.189233 284.135049 
L 784.606987 289.82703 
L 785.442495 287.710053 
L 786.278003 291.777 
L 786.695757 291.740576 
L 787.113511 290.545091 
L 787.531265 285.717928 
L 788.366773 265.730993 
L 788.784527 263.766783 
L 789.202281 264.260359 
L 789.620035 260.07698 
L 790.037789 257.443034 
L 790.455543 256.90019 
L 791.291051 247.363281 
L 791.708805 243.865168 
L 792.126559 239.265092 
L 792.544313 232.632249 
L 793.379821 226.15953 
L 793.797575 223.419035 
L 794.633083 220.599235 
L 795.050837 221.413981 
L 795.468591 223.338362 
L 795.886345 228.011544 
L 796.304099 230.007481 
L 796.721853 225.63093 
L 797.139607 219.734666 
L 797.557361 218.402936 
L 797.975115 219.462846 
L 798.392869 221.414101 
L 799.228377 234.011803 
L 799.646131 235.157523 
L 800.063885 235.505636 
L 800.899393 246.08277 
L 801.317147 248.401179 
L 801.734901 253.423898 
L 802.152655 260.660548 
L 802.570409 262.055212 
L 802.988163 261.312012 
L 803.405917 263.668918 
L 803.823671 264.499035 
L 804.241425 266.492533 
L 804.659179 271.135577 
L 805.076933 279.52279 
L 805.494687 279.929472 
L 805.912441 278.226438 
L 806.330195 275.410369 
L 806.747949 273.594232 
L 807.165703 272.663639 
L 807.583457 273.468527 
L 808.001211 273.685626 
L 808.836719 259.181032 
L 809.672227 256.104802 
L 810.089981 256.673162 
L 810.507735 257.52294 
L 810.925489 257.346411 
L 811.343243 252.68365 
L 811.760997 250.404333 
L 812.178751 250.040236 
L 812.596505 250.660347 
L 813.014259 249.397921 
L 813.849767 253.755545 
L 814.685275 234.534036 
L 815.103029 231.31444 
L 815.520783 230.693158 
L 815.938537 231.59228 
L 816.774045 239.312466 
L 817.191799 239.519625 
L 817.609553 240.900769 
L 818.027307 245.262645 
L 818.445061 248.30935 
L 818.862816 253.752414 
L 819.28057 253.924223 
L 819.28057 253.924223 
" clip-path="url(#p80a1730574)" style="fill: none; stroke: #4c72b0; stroke-width: 1.2; stroke-linecap: round"/>
   </g>
   <g id="patch_8">
    <path d="M 56.8795 304.377 
L 56.8795 27.177 
" style="fill: none; stroke: #cccccc; stroke-linejoin: miter; stroke-linecap: square"/>
   </g>
   <g id="patch_9">
    <path d="M 838.0795 304.377 
L 838.0795 27.177 
" style="fill: none; stroke: #cccccc; stroke-linejoin: miter; stroke-linecap: square"/>
   </g>
   <g id="patch_10">
    <path d="M 56.8795 304.377 
L 838.0795 304.377 
" style="fill: none; stroke: #cccccc; stroke-linejoin: miter; stroke-linecap: square"/>
   </g>
   <g id="patch_11">
    <path d="M 56.8795 27.177 
L 838.0795 27.177 
" style="fill: none; stroke: #cccccc; stroke-linejoin: miter; stroke-linecap: square"/>
   </g>
   <g id="legend_2">
    <g id="patch_12">
     <path d="M 69.1995 94.08725 
L 229.21375 94.08725 
Q 232.73375 94.08725 232.73375 90.56725 
L 232.73375 67.217 
Q 232.73375 63.697 229.21375 63.697 
L 69.1995 63.697 
Q 65.6795 63.697 65.6795 67.217 
L 65.6795 90.56725 
Q 65.6795 94.08725 69.1995 94.08725 
z
" style="fill: #ffffff; opacity: 0.8; stroke: #cccccc; stroke-width: 0.8; stroke-linejoin: miter"/>
    </g>
    <g id="line2d_31">
     <path d="M 72.7195 77.38925 
L 90.3195 77.38925 
L 107.9195 77.38925 
" style="fill: none; stroke: #4c72b0; stroke-width: 1.2; stroke-linecap: round"/>
    </g>
    <g id="text_21">
     <!-- Consumption -->
     <g style="fill: #262626" transform="translate(121.9995 83.54925) scale(0.176 -0.176)">
      <use xlink:href="#ArialMT-43"/>
      <use xlink:href="#ArialMT-6f" x="72.216797"/>
      <use xlink:href="#ArialMT-6e" x="127.832031"/>
      <use xlink:href="#ArialMT-73" x="183.447266"/>
      <use xlink:href="#ArialMT-75" x="233.447266"/>
      <use xlink:href="#ArialMT-6d" x="289.0625"/>
      <use xlink:href="#ArialMT-70" x="372.363281"/>
      <use xlink:href="#ArialMT-74" x="427.978516"/>
      <use xlink:href="#ArialMT-69" x="455.761719"/>
      <use xlink:href="#ArialMT-6f" x="477.978516"/>
      <use xlink:href="#ArialMT-6e" x="533.59375"/>
     </g>
    </g>
   </g>
  </g>
 </g>
 <defs>
  <clipPath id="p80a1730574">
   <rect x="56.8795" y="27.177" width="781.2" height="277.2"/>
  </clipPath>
 </defs>
</svg>
