<?xml version="1.0" encoding="utf-8" standalone="no"?>
<!DOCTYPE svg PUBLIC "-//W3C//DTD SVG 1.1//EN"
  "http://www.w3.org/Graphics/SVG/1.1/DTD/svg11.dtd">
<svg xmlns:xlink="http://www.w3.org/1999/xlink" width="845.98475pt" height="302.55075pt" viewBox="0 0 845.98475 302.55075" xmlns="http://www.w3.org/2000/svg" version="1.1">
 <metadata>
  <rdf:RDF xmlns:dc="http://purl.org/dc/elements/1.1/" xmlns:cc="http://creativecommons.org/ns#" xmlns:rdf="http://www.w3.org/1999/02/22-rdf-syntax-ns#">
   <cc:Work>
    <dc:type rdf:resource="http://purl.org/dc/dcmitype/StillImage"/>
    <dc:date>2023-05-11T10:57:43.906518</dc:date>
    <dc:format>image/svg+xml</dc:format>
    <dc:creator>
     <cc:Agent>
      <dc:title>Matplotlib v3.7.1, https://matplotlib.org/</dc:title>
     </cc:Agent>
    </dc:creator>
   </cc:Work>
  </rdf:RDF>
 </metadata>
 <defs>
  <style type="text/css">*{stroke-linejoin: round; stroke-linecap: butt}</style>
 </defs>
 <g id="figure_1">
  <g id="patch_1">
   <path d="M 0 302.55075 
L 845.98475 302.55075 
L 845.98475 0 
L 0 0 
z
" style="fill: #ffffff"/>
  </g>
  <g id="axes_1">
   <g id="patch_2">
    <path d="M 57.58475 248.937 
L 838.78475 248.937 
L 838.78475 27.177 
L 57.58475 27.177 
z
" style="fill: #ffffff"/>
   </g>
   <g id="matplotlib.axis_1">
    <g id="xtick_1">
     <g id="line2d_1">
      <path d="M 57.58475 248.937 
L 57.58475 27.177 
" clip-path="url(#pe2e45fe4fa)" style="fill: none; stroke: #cccccc; stroke-width: 0.8; stroke-linecap: round"/>
     </g>
    </g>
    <g id="xtick_2">
     <g id="line2d_2">
      <path d="M 88.220044 248.937 
L 88.220044 27.177 
" clip-path="url(#pe2e45fe4fa)" style="fill: none; stroke: #cccccc; stroke-width: 0.8; stroke-linecap: round"/>
     </g>
     <g id="text_1">
      <!-- 2017 -->
      <g style="fill: #262626" transform="translate(68.645544 269.83475) scale(0.176 -0.176)">
       <defs>
        <path id="ArialMT-32" d="M 3222 541 
L 3222 0 
L 194 0 
Q 188 203 259 391 
Q 375 700 629 1000 
Q 884 1300 1366 1694 
Q 2113 2306 2375 2664 
Q 2638 3022 2638 3341 
Q 2638 3675 2398 3904 
Q 2159 4134 1775 4134 
Q 1369 4134 1125 3890 
Q 881 3647 878 3216 
L 300 3275 
Q 359 3922 746 4261 
Q 1134 4600 1788 4600 
Q 2447 4600 2831 4234 
Q 3216 3869 3216 3328 
Q 3216 3053 3103 2787 
Q 2991 2522 2730 2228 
Q 2469 1934 1863 1422 
Q 1356 997 1212 845 
Q 1069 694 975 541 
L 3222 541 
z
" transform="scale(0.015625)"/>
        <path id="ArialMT-30" d="M 266 2259 
Q 266 3072 433 3567 
Q 600 4063 929 4331 
Q 1259 4600 1759 4600 
Q 2128 4600 2406 4451 
Q 2684 4303 2865 4023 
Q 3047 3744 3150 3342 
Q 3253 2941 3253 2259 
Q 3253 1453 3087 958 
Q 2922 463 2592 192 
Q 2263 -78 1759 -78 
Q 1097 -78 719 397 
Q 266 969 266 2259 
z
M 844 2259 
Q 844 1131 1108 757 
Q 1372 384 1759 384 
Q 2147 384 2411 759 
Q 2675 1134 2675 2259 
Q 2675 3391 2411 3762 
Q 2147 4134 1753 4134 
Q 1366 4134 1134 3806 
Q 844 3388 844 2259 
z
" transform="scale(0.015625)"/>
        <path id="ArialMT-31" d="M 2384 0 
L 1822 0 
L 1822 3584 
Q 1619 3391 1289 3197 
Q 959 3003 697 2906 
L 697 3450 
Q 1169 3672 1522 3987 
Q 1875 4303 2022 4600 
L 2384 4600 
L 2384 0 
z
" transform="scale(0.015625)"/>
        <path id="ArialMT-37" d="M 303 3981 
L 303 4522 
L 3269 4522 
L 3269 4084 
Q 2831 3619 2401 2847 
Q 1972 2075 1738 1259 
Q 1569 684 1522 0 
L 944 0 
Q 953 541 1156 1306 
Q 1359 2072 1739 2783 
Q 2119 3494 2547 3981 
L 303 3981 
z
" transform="scale(0.015625)"/>
       </defs>
       <use xlink:href="#ArialMT-32"/>
       <use xlink:href="#ArialMT-30" x="55.615234"/>
       <use xlink:href="#ArialMT-31" x="111.230469"/>
       <use xlink:href="#ArialMT-37" x="166.845703"/>
      </g>
     </g>
    </g>
    <g id="xtick_3">
     <g id="line2d_3">
      <path d="M 209.762244 248.937 
L 209.762244 27.177 
" clip-path="url(#pe2e45fe4fa)" style="fill: none; stroke: #cccccc; stroke-width: 0.8; stroke-linecap: round"/>
     </g>
     <g id="text_2">
      <!-- 2018 -->
      <g style="fill: #262626" transform="translate(190.187744 269.83475) scale(0.176 -0.176)">
       <defs>
        <path id="ArialMT-38" d="M 1131 2484 
Q 781 2613 612 2850 
Q 444 3088 444 3419 
Q 444 3919 803 4259 
Q 1163 4600 1759 4600 
Q 2359 4600 2725 4251 
Q 3091 3903 3091 3403 
Q 3091 3084 2923 2848 
Q 2756 2613 2416 2484 
Q 2838 2347 3058 2040 
Q 3278 1734 3278 1309 
Q 3278 722 2862 322 
Q 2447 -78 1769 -78 
Q 1091 -78 675 323 
Q 259 725 259 1325 
Q 259 1772 486 2073 
Q 713 2375 1131 2484 
z
M 1019 3438 
Q 1019 3113 1228 2906 
Q 1438 2700 1772 2700 
Q 2097 2700 2305 2904 
Q 2513 3109 2513 3406 
Q 2513 3716 2298 3927 
Q 2084 4138 1766 4138 
Q 1444 4138 1231 3931 
Q 1019 3725 1019 3438 
z
M 838 1322 
Q 838 1081 952 856 
Q 1066 631 1291 507 
Q 1516 384 1775 384 
Q 2178 384 2440 643 
Q 2703 903 2703 1303 
Q 2703 1709 2433 1975 
Q 2163 2241 1756 2241 
Q 1359 2241 1098 1978 
Q 838 1716 838 1322 
z
" transform="scale(0.015625)"/>
       </defs>
       <use xlink:href="#ArialMT-32"/>
       <use xlink:href="#ArialMT-30" x="55.615234"/>
       <use xlink:href="#ArialMT-31" x="111.230469"/>
       <use xlink:href="#ArialMT-38" x="166.845703"/>
      </g>
     </g>
    </g>
    <g id="xtick_4">
     <g id="line2d_4">
      <path d="M 331.304443 248.937 
L 331.304443 27.177 
" clip-path="url(#pe2e45fe4fa)" style="fill: none; stroke: #cccccc; stroke-width: 0.8; stroke-linecap: round"/>
     </g>
     <g id="text_3">
      <!-- 2019 -->
      <g style="fill: #262626" transform="translate(311.729943 269.83475) scale(0.176 -0.176)">
       <defs>
        <path id="ArialMT-39" d="M 350 1059 
L 891 1109 
Q 959 728 1153 556 
Q 1347 384 1650 384 
Q 1909 384 2104 503 
Q 2300 622 2425 820 
Q 2550 1019 2634 1356 
Q 2719 1694 2719 2044 
Q 2719 2081 2716 2156 
Q 2547 1888 2255 1720 
Q 1963 1553 1622 1553 
Q 1053 1553 659 1965 
Q 266 2378 266 3053 
Q 266 3750 677 4175 
Q 1088 4600 1706 4600 
Q 2153 4600 2523 4359 
Q 2894 4119 3086 3673 
Q 3278 3228 3278 2384 
Q 3278 1506 3087 986 
Q 2897 466 2520 194 
Q 2144 -78 1638 -78 
Q 1100 -78 759 220 
Q 419 519 350 1059 
z
M 2653 3081 
Q 2653 3566 2395 3850 
Q 2138 4134 1775 4134 
Q 1400 4134 1122 3828 
Q 844 3522 844 3034 
Q 844 2597 1108 2323 
Q 1372 2050 1759 2050 
Q 2150 2050 2401 2323 
Q 2653 2597 2653 3081 
z
" transform="scale(0.015625)"/>
       </defs>
       <use xlink:href="#ArialMT-32"/>
       <use xlink:href="#ArialMT-30" x="55.615234"/>
       <use xlink:href="#ArialMT-31" x="111.230469"/>
       <use xlink:href="#ArialMT-39" x="166.845703"/>
      </g>
     </g>
    </g>
    <g id="xtick_5">
     <g id="line2d_5">
      <path d="M 452.846643 248.937 
L 452.846643 27.177 
" clip-path="url(#pe2e45fe4fa)" style="fill: none; stroke: #cccccc; stroke-width: 0.8; stroke-linecap: round"/>
     </g>
     <g id="text_4">
      <!-- 2020 -->
      <g style="fill: #262626" transform="translate(433.272143 269.83475) scale(0.176 -0.176)">
       <use xlink:href="#ArialMT-32"/>
       <use xlink:href="#ArialMT-30" x="55.615234"/>
       <use xlink:href="#ArialMT-32" x="111.230469"/>
       <use xlink:href="#ArialMT-30" x="166.845703"/>
      </g>
     </g>
    </g>
    <g id="xtick_6">
     <g id="line2d_6">
      <path d="M 574.721834 248.937 
L 574.721834 27.177 
" clip-path="url(#pe2e45fe4fa)" style="fill: none; stroke: #cccccc; stroke-width: 0.8; stroke-linecap: round"/>
     </g>
     <g id="text_5">
      <!-- 2021 -->
      <g style="fill: #262626" transform="translate(555.147334 269.83475) scale(0.176 -0.176)">
       <use xlink:href="#ArialMT-32"/>
       <use xlink:href="#ArialMT-30" x="55.615234"/>
       <use xlink:href="#ArialMT-32" x="111.230469"/>
       <use xlink:href="#ArialMT-31" x="166.845703"/>
      </g>
     </g>
    </g>
    <g id="xtick_7">
     <g id="line2d_7">
      <path d="M 696.264034 248.937 
L 696.264034 27.177 
" clip-path="url(#pe2e45fe4fa)" style="fill: none; stroke: #cccccc; stroke-width: 0.8; stroke-linecap: round"/>
     </g>
     <g id="text_6">
      <!-- 2022 -->
      <g style="fill: #262626" transform="translate(676.689534 269.83475) scale(0.176 -0.176)">
       <use xlink:href="#ArialMT-32"/>
       <use xlink:href="#ArialMT-30" x="55.615234"/>
       <use xlink:href="#ArialMT-32" x="111.230469"/>
       <use xlink:href="#ArialMT-32" x="166.845703"/>
      </g>
     </g>
    </g>
    <g id="xtick_8">
     <g id="line2d_8">
      <path d="M 817.806233 248.937 
L 817.806233 27.177 
" clip-path="url(#pe2e45fe4fa)" style="fill: none; stroke: #cccccc; stroke-width: 0.8; stroke-linecap: round"/>
     </g>
     <g id="text_7">
      <!-- 2023 -->
      <g style="fill: #262626" transform="translate(798.231733 269.83475) scale(0.176 -0.176)">
       <defs>
        <path id="ArialMT-33" d="M 269 1209 
L 831 1284 
Q 928 806 1161 595 
Q 1394 384 1728 384 
Q 2125 384 2398 659 
Q 2672 934 2672 1341 
Q 2672 1728 2419 1979 
Q 2166 2231 1775 2231 
Q 1616 2231 1378 2169 
L 1441 2663 
Q 1497 2656 1531 2656 
Q 1891 2656 2178 2843 
Q 2466 3031 2466 3422 
Q 2466 3731 2256 3934 
Q 2047 4138 1716 4138 
Q 1388 4138 1169 3931 
Q 950 3725 888 3313 
L 325 3413 
Q 428 3978 793 4289 
Q 1159 4600 1703 4600 
Q 2078 4600 2393 4439 
Q 2709 4278 2876 4000 
Q 3044 3722 3044 3409 
Q 3044 3113 2884 2869 
Q 2725 2625 2413 2481 
Q 2819 2388 3044 2092 
Q 3269 1797 3269 1353 
Q 3269 753 2831 336 
Q 2394 -81 1725 -81 
Q 1122 -81 723 278 
Q 325 638 269 1209 
z
" transform="scale(0.015625)"/>
       </defs>
       <use xlink:href="#ArialMT-32"/>
       <use xlink:href="#ArialMT-30" x="55.615234"/>
       <use xlink:href="#ArialMT-32" x="111.230469"/>
       <use xlink:href="#ArialMT-33" x="166.845703"/>
      </g>
     </g>
    </g>
    <g id="xtick_9">
     <g id="line2d_9">
      <path d="M 838.78475 248.937 
L 838.78475 27.177 
" clip-path="url(#pe2e45fe4fa)" style="fill: none; stroke: #cccccc; stroke-width: 0.8; stroke-linecap: round"/>
     </g>
    </g>
    <g id="xtick_10"/>
    <g id="xtick_11"/>
    <g id="xtick_12"/>
    <g id="xtick_13"/>
    <g id="xtick_14"/>
    <g id="xtick_15"/>
    <g id="xtick_16"/>
    <g id="xtick_17"/>
    <g id="xtick_18"/>
    <g id="xtick_19"/>
    <g id="xtick_20"/>
    <g id="xtick_21"/>
    <g id="xtick_22"/>
    <g id="xtick_23"/>
    <g id="xtick_24"/>
    <g id="xtick_25"/>
    <g id="xtick_26"/>
    <g id="xtick_27"/>
    <g id="text_8">
     <!-- Time (days) -->
     <g style="fill: #262626" transform="translate(397.87625 291.30975) scale(0.192 -0.192)">
      <defs>
       <path id="ArialMT-54" d="M 1659 0 
L 1659 4041 
L 150 4041 
L 150 4581 
L 3781 4581 
L 3781 4041 
L 2266 4041 
L 2266 0 
L 1659 0 
z
" transform="scale(0.015625)"/>
       <path id="ArialMT-69" d="M 425 3934 
L 425 4581 
L 988 4581 
L 988 3934 
L 425 3934 
z
M 425 0 
L 425 3319 
L 988 3319 
L 988 0 
L 425 0 
z
" transform="scale(0.015625)"/>
       <path id="ArialMT-6d" d="M 422 0 
L 422 3319 
L 925 3319 
L 925 2853 
Q 1081 3097 1340 3245 
Q 1600 3394 1931 3394 
Q 2300 3394 2536 3241 
Q 2772 3088 2869 2813 
Q 3263 3394 3894 3394 
Q 4388 3394 4653 3120 
Q 4919 2847 4919 2278 
L 4919 0 
L 4359 0 
L 4359 2091 
Q 4359 2428 4304 2576 
Q 4250 2725 4106 2815 
Q 3963 2906 3769 2906 
Q 3419 2906 3187 2673 
Q 2956 2441 2956 1928 
L 2956 0 
L 2394 0 
L 2394 2156 
Q 2394 2531 2256 2718 
Q 2119 2906 1806 2906 
Q 1569 2906 1367 2781 
Q 1166 2656 1075 2415 
Q 984 2175 984 1722 
L 984 0 
L 422 0 
z
" transform="scale(0.015625)"/>
       <path id="ArialMT-65" d="M 2694 1069 
L 3275 997 
Q 3138 488 2766 206 
Q 2394 -75 1816 -75 
Q 1088 -75 661 373 
Q 234 822 234 1631 
Q 234 2469 665 2931 
Q 1097 3394 1784 3394 
Q 2450 3394 2872 2941 
Q 3294 2488 3294 1666 
Q 3294 1616 3291 1516 
L 816 1516 
Q 847 969 1125 678 
Q 1403 388 1819 388 
Q 2128 388 2347 550 
Q 2566 713 2694 1069 
z
M 847 1978 
L 2700 1978 
Q 2663 2397 2488 2606 
Q 2219 2931 1791 2931 
Q 1403 2931 1139 2672 
Q 875 2413 847 1978 
z
" transform="scale(0.015625)"/>
       <path id="ArialMT-20" transform="scale(0.015625)"/>
       <path id="ArialMT-28" d="M 1497 -1347 
Q 1031 -759 709 28 
Q 388 816 388 1659 
Q 388 2403 628 3084 
Q 909 3875 1497 4659 
L 1900 4659 
Q 1522 4009 1400 3731 
Q 1209 3300 1100 2831 
Q 966 2247 966 1656 
Q 966 153 1900 -1347 
L 1497 -1347 
z
" transform="scale(0.015625)"/>
       <path id="ArialMT-64" d="M 2575 0 
L 2575 419 
Q 2259 -75 1647 -75 
Q 1250 -75 917 144 
Q 584 363 401 755 
Q 219 1147 219 1656 
Q 219 2153 384 2558 
Q 550 2963 881 3178 
Q 1213 3394 1622 3394 
Q 1922 3394 2156 3267 
Q 2391 3141 2538 2938 
L 2538 4581 
L 3097 4581 
L 3097 0 
L 2575 0 
z
M 797 1656 
Q 797 1019 1065 703 
Q 1334 388 1700 388 
Q 2069 388 2326 689 
Q 2584 991 2584 1609 
Q 2584 2291 2321 2609 
Q 2059 2928 1675 2928 
Q 1300 2928 1048 2622 
Q 797 2316 797 1656 
z
" transform="scale(0.015625)"/>
       <path id="ArialMT-61" d="M 2588 409 
Q 2275 144 1986 34 
Q 1697 -75 1366 -75 
Q 819 -75 525 192 
Q 231 459 231 875 
Q 231 1119 342 1320 
Q 453 1522 633 1644 
Q 813 1766 1038 1828 
Q 1203 1872 1538 1913 
Q 2219 1994 2541 2106 
Q 2544 2222 2544 2253 
Q 2544 2597 2384 2738 
Q 2169 2928 1744 2928 
Q 1347 2928 1158 2789 
Q 969 2650 878 2297 
L 328 2372 
Q 403 2725 575 2942 
Q 747 3159 1072 3276 
Q 1397 3394 1825 3394 
Q 2250 3394 2515 3294 
Q 2781 3194 2906 3042 
Q 3031 2891 3081 2659 
Q 3109 2516 3109 2141 
L 3109 1391 
Q 3109 606 3145 398 
Q 3181 191 3288 0 
L 2700 0 
Q 2613 175 2588 409 
z
M 2541 1666 
Q 2234 1541 1622 1453 
Q 1275 1403 1131 1340 
Q 988 1278 909 1158 
Q 831 1038 831 891 
Q 831 666 1001 516 
Q 1172 366 1500 366 
Q 1825 366 2078 508 
Q 2331 650 2450 897 
Q 2541 1088 2541 1459 
L 2541 1666 
z
" transform="scale(0.015625)"/>
       <path id="ArialMT-79" d="M 397 -1278 
L 334 -750 
Q 519 -800 656 -800 
Q 844 -800 956 -737 
Q 1069 -675 1141 -563 
Q 1194 -478 1313 -144 
Q 1328 -97 1363 -6 
L 103 3319 
L 709 3319 
L 1400 1397 
Q 1534 1031 1641 628 
Q 1738 1016 1872 1384 
L 2581 3319 
L 3144 3319 
L 1881 -56 
Q 1678 -603 1566 -809 
Q 1416 -1088 1222 -1217 
Q 1028 -1347 759 -1347 
Q 597 -1347 397 -1278 
z
" transform="scale(0.015625)"/>
       <path id="ArialMT-73" d="M 197 991 
L 753 1078 
Q 800 744 1014 566 
Q 1228 388 1613 388 
Q 2000 388 2187 545 
Q 2375 703 2375 916 
Q 2375 1106 2209 1216 
Q 2094 1291 1634 1406 
Q 1016 1563 777 1677 
Q 538 1791 414 1992 
Q 291 2194 291 2438 
Q 291 2659 392 2848 
Q 494 3038 669 3163 
Q 800 3259 1026 3326 
Q 1253 3394 1513 3394 
Q 1903 3394 2198 3281 
Q 2494 3169 2634 2976 
Q 2775 2784 2828 2463 
L 2278 2388 
Q 2241 2644 2061 2787 
Q 1881 2931 1553 2931 
Q 1166 2931 1000 2803 
Q 834 2675 834 2503 
Q 834 2394 903 2306 
Q 972 2216 1119 2156 
Q 1203 2125 1616 2013 
Q 2213 1853 2448 1751 
Q 2684 1650 2818 1456 
Q 2953 1263 2953 975 
Q 2953 694 2789 445 
Q 2625 197 2315 61 
Q 2006 -75 1616 -75 
Q 969 -75 630 194 
Q 291 463 197 991 
z
" transform="scale(0.015625)"/>
       <path id="ArialMT-29" d="M 791 -1347 
L 388 -1347 
Q 1322 153 1322 1656 
Q 1322 2244 1188 2822 
Q 1081 3291 891 3722 
Q 769 4003 388 4659 
L 791 4659 
Q 1378 3875 1659 3084 
Q 1900 2403 1900 1659 
Q 1900 816 1576 28 
Q 1253 -759 791 -1347 
z
" transform="scale(0.015625)"/>
      </defs>
      <use xlink:href="#ArialMT-54"/>
      <use xlink:href="#ArialMT-69" x="57.333984"/>
      <use xlink:href="#ArialMT-6d" x="79.550781"/>
      <use xlink:href="#ArialMT-65" x="162.851562"/>
      <use xlink:href="#ArialMT-20" x="218.466797"/>
      <use xlink:href="#ArialMT-28" x="246.25"/>
      <use xlink:href="#ArialMT-64" x="279.550781"/>
      <use xlink:href="#ArialMT-61" x="335.166016"/>
      <use xlink:href="#ArialMT-79" x="390.78125"/>
      <use xlink:href="#ArialMT-73" x="440.78125"/>
      <use xlink:href="#ArialMT-29" x="490.78125"/>
     </g>
    </g>
   </g>
   <g id="matplotlib.axis_2">
    <g id="ytick_1">
     <g id="line2d_10">
      <path d="M 57.58475 238.286331 
L 838.78475 238.286331 
" clip-path="url(#pe2e45fe4fa)" style="fill: none; stroke: #cccccc; stroke-width: 0.8; stroke-linecap: round"/>
     </g>
     <g id="text_9">
      <!-- −2 -->
      <g style="fill: #262626" transform="translate(29.218 244.585206) scale(0.176 -0.176)">
       <defs>
        <path id="ArialMT-2212" d="M 3381 1997 
L 356 1997 
L 356 2522 
L 3381 2522 
L 3381 1997 
z
" transform="scale(0.015625)"/>
       </defs>
       <use xlink:href="#ArialMT-2212"/>
       <use xlink:href="#ArialMT-32" x="58.398438"/>
      </g>
     </g>
    </g>
    <g id="ytick_2">
     <g id="line2d_11">
      <path d="M 57.58475 194.274037 
L 838.78475 194.274037 
" clip-path="url(#pe2e45fe4fa)" style="fill: none; stroke: #cccccc; stroke-width: 0.8; stroke-linecap: round"/>
     </g>
     <g id="text_10">
      <!-- −1 -->
      <g style="fill: #262626" transform="translate(29.218 200.572912) scale(0.176 -0.176)">
       <use xlink:href="#ArialMT-2212"/>
       <use xlink:href="#ArialMT-31" x="58.398438"/>
      </g>
     </g>
    </g>
    <g id="ytick_3">
     <g id="line2d_12">
      <path d="M 57.58475 150.261743 
L 838.78475 150.261743 
" clip-path="url(#pe2e45fe4fa)" style="fill: none; stroke: #cccccc; stroke-width: 0.8; stroke-linecap: round"/>
     </g>
     <g id="text_11">
      <!-- 0 -->
      <g style="fill: #262626" transform="translate(39.4975 156.560618) scale(0.176 -0.176)">
       <use xlink:href="#ArialMT-30"/>
      </g>
     </g>
    </g>
    <g id="ytick_4">
     <g id="line2d_13">
      <path d="M 57.58475 106.249449 
L 838.78475 106.249449 
" clip-path="url(#pe2e45fe4fa)" style="fill: none; stroke: #cccccc; stroke-width: 0.8; stroke-linecap: round"/>
     </g>
     <g id="text_12">
      <!-- 1 -->
      <g style="fill: #262626" transform="translate(39.4975 112.548324) scale(0.176 -0.176)">
       <use xlink:href="#ArialMT-31"/>
      </g>
     </g>
    </g>
    <g id="ytick_5">
     <g id="line2d_14">
      <path d="M 57.58475 62.237155 
L 838.78475 62.237155 
" clip-path="url(#pe2e45fe4fa)" style="fill: none; stroke: #cccccc; stroke-width: 0.8; stroke-linecap: round"/>
     </g>
     <g id="text_13">
      <!-- 2 -->
      <g style="fill: #262626" transform="translate(39.4975 68.53603) scale(0.176 -0.176)">
       <use xlink:href="#ArialMT-32"/>
      </g>
     </g>
    </g>
    <g id="text_14">
     <!-- Consumption (MWh) -->
     <g style="fill: #262626" transform="translate(21.177 226.074) rotate(-90) scale(0.192 -0.192)">
      <defs>
       <path id="ArialMT-43" d="M 3763 1606 
L 4369 1453 
Q 4178 706 3683 314 
Q 3188 -78 2472 -78 
Q 1731 -78 1267 223 
Q 803 525 561 1097 
Q 319 1669 319 2325 
Q 319 3041 592 3573 
Q 866 4106 1370 4382 
Q 1875 4659 2481 4659 
Q 3169 4659 3637 4309 
Q 4106 3959 4291 3325 
L 3694 3184 
Q 3534 3684 3231 3912 
Q 2928 4141 2469 4141 
Q 1941 4141 1586 3887 
Q 1231 3634 1087 3207 
Q 944 2781 944 2328 
Q 944 1744 1114 1308 
Q 1284 872 1643 656 
Q 2003 441 2422 441 
Q 2931 441 3284 734 
Q 3638 1028 3763 1606 
z
" transform="scale(0.015625)"/>
       <path id="ArialMT-6f" d="M 213 1659 
Q 213 2581 725 3025 
Q 1153 3394 1769 3394 
Q 2453 3394 2887 2945 
Q 3322 2497 3322 1706 
Q 3322 1066 3130 698 
Q 2938 331 2570 128 
Q 2203 -75 1769 -75 
Q 1072 -75 642 372 
Q 213 819 213 1659 
z
M 791 1659 
Q 791 1022 1069 705 
Q 1347 388 1769 388 
Q 2188 388 2466 706 
Q 2744 1025 2744 1678 
Q 2744 2294 2464 2611 
Q 2184 2928 1769 2928 
Q 1347 2928 1069 2612 
Q 791 2297 791 1659 
z
" transform="scale(0.015625)"/>
       <path id="ArialMT-6e" d="M 422 0 
L 422 3319 
L 928 3319 
L 928 2847 
Q 1294 3394 1984 3394 
Q 2284 3394 2536 3286 
Q 2788 3178 2913 3003 
Q 3038 2828 3088 2588 
Q 3119 2431 3119 2041 
L 3119 0 
L 2556 0 
L 2556 2019 
Q 2556 2363 2490 2533 
Q 2425 2703 2258 2804 
Q 2091 2906 1866 2906 
Q 1506 2906 1245 2678 
Q 984 2450 984 1813 
L 984 0 
L 422 0 
z
" transform="scale(0.015625)"/>
       <path id="ArialMT-75" d="M 2597 0 
L 2597 488 
Q 2209 -75 1544 -75 
Q 1250 -75 995 37 
Q 741 150 617 320 
Q 494 491 444 738 
Q 409 903 409 1263 
L 409 3319 
L 972 3319 
L 972 1478 
Q 972 1038 1006 884 
Q 1059 663 1231 536 
Q 1403 409 1656 409 
Q 1909 409 2131 539 
Q 2353 669 2445 892 
Q 2538 1116 2538 1541 
L 2538 3319 
L 3100 3319 
L 3100 0 
L 2597 0 
z
" transform="scale(0.015625)"/>
       <path id="ArialMT-70" d="M 422 -1272 
L 422 3319 
L 934 3319 
L 934 2888 
Q 1116 3141 1344 3267 
Q 1572 3394 1897 3394 
Q 2322 3394 2647 3175 
Q 2972 2956 3137 2557 
Q 3303 2159 3303 1684 
Q 3303 1175 3120 767 
Q 2938 359 2589 142 
Q 2241 -75 1856 -75 
Q 1575 -75 1351 44 
Q 1128 163 984 344 
L 984 -1272 
L 422 -1272 
z
M 931 1641 
Q 931 1000 1190 694 
Q 1450 388 1819 388 
Q 2194 388 2461 705 
Q 2728 1022 2728 1688 
Q 2728 2322 2467 2637 
Q 2206 2953 1844 2953 
Q 1484 2953 1207 2617 
Q 931 2281 931 1641 
z
" transform="scale(0.015625)"/>
       <path id="ArialMT-74" d="M 1650 503 
L 1731 6 
Q 1494 -44 1306 -44 
Q 1000 -44 831 53 
Q 663 150 594 308 
Q 525 466 525 972 
L 525 2881 
L 113 2881 
L 113 3319 
L 525 3319 
L 525 4141 
L 1084 4478 
L 1084 3319 
L 1650 3319 
L 1650 2881 
L 1084 2881 
L 1084 941 
Q 1084 700 1114 631 
Q 1144 563 1211 522 
Q 1278 481 1403 481 
Q 1497 481 1650 503 
z
" transform="scale(0.015625)"/>
       <path id="ArialMT-4d" d="M 475 0 
L 475 4581 
L 1388 4581 
L 2472 1338 
Q 2622 884 2691 659 
Q 2769 909 2934 1394 
L 4031 4581 
L 4847 4581 
L 4847 0 
L 4263 0 
L 4263 3834 
L 2931 0 
L 2384 0 
L 1059 3900 
L 1059 0 
L 475 0 
z
" transform="scale(0.015625)"/>
       <path id="ArialMT-57" d="M 1294 0 
L 78 4581 
L 700 4581 
L 1397 1578 
Q 1509 1106 1591 641 
Q 1766 1375 1797 1488 
L 2669 4581 
L 3400 4581 
L 4056 2263 
Q 4303 1400 4413 641 
Q 4500 1075 4641 1638 
L 5359 4581 
L 5969 4581 
L 4713 0 
L 4128 0 
L 3163 3491 
Q 3041 3928 3019 4028 
Q 2947 3713 2884 3491 
L 1913 0 
L 1294 0 
z
" transform="scale(0.015625)"/>
       <path id="ArialMT-68" d="M 422 0 
L 422 4581 
L 984 4581 
L 984 2938 
Q 1378 3394 1978 3394 
Q 2347 3394 2619 3248 
Q 2891 3103 3008 2847 
Q 3125 2591 3125 2103 
L 3125 0 
L 2563 0 
L 2563 2103 
Q 2563 2525 2380 2717 
Q 2197 2909 1863 2909 
Q 1613 2909 1392 2779 
Q 1172 2650 1078 2428 
Q 984 2206 984 1816 
L 984 0 
L 422 0 
z
" transform="scale(0.015625)"/>
      </defs>
      <use xlink:href="#ArialMT-43"/>
      <use xlink:href="#ArialMT-6f" x="72.216797"/>
      <use xlink:href="#ArialMT-6e" x="127.832031"/>
      <use xlink:href="#ArialMT-73" x="183.447266"/>
      <use xlink:href="#ArialMT-75" x="233.447266"/>
      <use xlink:href="#ArialMT-6d" x="289.0625"/>
      <use xlink:href="#ArialMT-70" x="372.363281"/>
      <use xlink:href="#ArialMT-74" x="427.978516"/>
      <use xlink:href="#ArialMT-69" x="455.761719"/>
      <use xlink:href="#ArialMT-6f" x="477.978516"/>
      <use xlink:href="#ArialMT-6e" x="533.59375"/>
      <use xlink:href="#ArialMT-20" x="589.208984"/>
      <use xlink:href="#ArialMT-28" x="616.992188"/>
      <use xlink:href="#ArialMT-4d" x="650.292969"/>
      <use xlink:href="#ArialMT-57" x="733.59375"/>
      <use xlink:href="#ArialMT-68" x="827.978516"/>
      <use xlink:href="#ArialMT-29" x="883.59375"/>
     </g>
    </g>
    <g id="text_15">
     <!-- 1e6 -->
     <g style="fill: #262626" transform="translate(57.58475 24.177) scale(0.176 -0.176)">
      <defs>
       <path id="ArialMT-36" d="M 3184 3459 
L 2625 3416 
Q 2550 3747 2413 3897 
Q 2184 4138 1850 4138 
Q 1581 4138 1378 3988 
Q 1113 3794 959 3422 
Q 806 3050 800 2363 
Q 1003 2672 1297 2822 
Q 1591 2972 1913 2972 
Q 2475 2972 2870 2558 
Q 3266 2144 3266 1488 
Q 3266 1056 3080 686 
Q 2894 316 2569 119 
Q 2244 -78 1831 -78 
Q 1128 -78 684 439 
Q 241 956 241 2144 
Q 241 3472 731 4075 
Q 1159 4600 1884 4600 
Q 2425 4600 2770 4297 
Q 3116 3994 3184 3459 
z
M 888 1484 
Q 888 1194 1011 928 
Q 1134 663 1356 523 
Q 1578 384 1822 384 
Q 2178 384 2434 671 
Q 2691 959 2691 1453 
Q 2691 1928 2437 2201 
Q 2184 2475 1800 2475 
Q 1419 2475 1153 2201 
Q 888 1928 888 1484 
z
" transform="scale(0.015625)"/>
      </defs>
      <use xlink:href="#ArialMT-31"/>
      <use xlink:href="#ArialMT-65" x="55.615234"/>
      <use xlink:href="#ArialMT-36" x="111.230469"/>
     </g>
    </g>
   </g>
   <g id="line2d_15">
    <path d="M 57.58475 166.266736 
L 57.917742 164.731368 
L 58.250735 164.001571 
L 58.916719 148.252929 
L 59.249712 138.020994 
L 59.582704 133.56338 
L 59.915696 138.09501 
L 60.248689 134.408704 
L 60.581681 122.682782 
L 60.914673 127.62715 
L 61.91365 134.58364 
L 62.246643 147.525731 
L 62.579635 153.424931 
L 62.912627 147.517769 
L 63.24562 155.26103 
L 63.578612 147.919049 
L 64.244597 127.873056 
L 64.577589 133.785895 
L 64.910581 134.551579 
L 65.243574 135.633174 
L 65.576566 143.35223 
L 65.909558 146.840407 
L 66.242551 152.486977 
L 66.575543 153.246583 
L 67.241527 159.140662 
L 67.57452 156.394207 
L 67.907512 165.409885 
L 68.906489 131.426846 
L 69.239481 142.091397 
L 69.572474 136.965512 
L 69.905466 114.904815 
L 70.238458 110.097827 
L 70.571451 109.973273 
L 70.904443 106.666614 
L 71.237435 101.792009 
L 71.570428 107.210347 
L 71.90342 104.74827 
L 72.236412 96.471555 
L 73.235389 159.920734 
L 73.901374 157.48477 
L 74.234366 162.854606 
L 74.567359 164.275288 
L 74.900351 173.201453 
L 75.233343 173.281362 
L 75.566336 162.321043 
L 75.899328 144.473479 
L 76.23232 145.204203 
L 76.565313 143.795081 
L 76.898305 110.612502 
L 77.231297 105.965054 
L 77.56429 114.815956 
L 77.897282 127.272332 
L 78.230274 122.673993 
L 78.563267 122.092342 
L 78.896259 114.161271 
L 79.229251 94.145922 
L 79.562244 100.237697 
L 81.227205 167.079425 
L 81.560198 152.484637 
L 81.89319 150.22862 
L 82.226182 154.975975 
L 82.559175 147.92021 
L 82.892167 129.594902 
L 83.225159 135.678775 
L 83.558152 145.059868 
L 83.891144 135.421105 
L 84.224136 131.854925 
L 84.890121 140.929264 
L 85.223113 151.004746 
L 85.889098 191.259721 
L 86.22209 198.906958 
L 86.888075 176.671429 
L 87.554059 141.396589 
L 87.887052 141.61737 
L 88.220044 142.349564 
L 88.553036 129.159218 
L 88.886029 140.459845 
L 89.219021 142.806975 
L 89.885006 95.177859 
L 90.217998 102.481354 
L 90.55099 112.99576 
L 90.883983 107.179607 
L 91.549967 139.716364 
L 91.88296 143.105073 
L 92.215952 133.747078 
L 92.548944 138.552224 
L 92.881937 126.688692 
L 93.214929 98.638589 
L 93.547921 98.626097 
L 93.880914 97.376721 
L 94.213906 93.643575 
L 94.546898 96.541995 
L 94.879891 107.905339 
L 95.212883 104.582817 
L 95.545875 90.618465 
L 95.878868 97.058997 
L 96.21186 98.736805 
L 96.544852 103.939503 
L 96.877845 104.403491 
L 97.210837 121.984772 
L 97.543829 132.666252 
L 97.876822 131.238653 
L 98.542806 140.286442 
L 98.875799 151.774437 
L 99.208791 153.682213 
L 99.541783 162.62293 
L 99.874776 159.803121 
L 100.207768 138.114316 
L 100.54076 134.309445 
L 101.206745 109.497545 
L 101.539737 106.833376 
L 101.87273 124.654215 
L 102.205722 125.63379 
L 102.538714 119.106763 
L 102.871707 127.650127 
L 103.537691 153.4374 
L 103.870684 150.345048 
L 104.203676 157.991508 
L 104.536668 160.779913 
L 104.86966 165.243591 
L 105.202653 180.20978 
L 105.535645 190.079709 
L 105.868637 186.056762 
L 106.20163 159.248952 
L 106.534622 160.643627 
L 107.200607 175.131115 
L 107.866591 170.898303 
L 108.532576 158.730989 
L 108.865568 178.991309 
L 109.198561 176.580726 
L 109.531553 156.577239 
L 109.864545 149.357559 
L 110.53053 163.700507 
L 110.863522 154.106979 
L 111.196515 161.492462 
L 111.529507 162.092982 
L 111.862499 150.810312 
L 112.195492 167.008099 
L 112.528484 172.631387 
L 112.861476 172.818271 
L 113.194469 168.79896 
L 113.860453 178.170082 
L 114.193446 176.077279 
L 114.526438 172.960939 
L 114.85943 165.732883 
L 115.192423 162.823122 
L 115.525415 157.961945 
L 115.858407 170.196995 
L 116.524392 162.464434 
L 116.857384 180.634409 
L 117.190377 189.53661 
L 117.523369 192.984716 
L 117.856361 194.912287 
L 118.189354 197.790082 
L 118.522346 193.966971 
L 118.855338 177.339657 
L 119.188331 176.62283 
L 119.521323 173.531388 
L 119.854315 160.245215 
L 120.187308 156.017025 
L 120.853292 178.895169 
L 121.186285 174.150061 
L 121.519277 166.749761 
L 121.852269 171.195141 
L 122.185262 163.982557 
L 122.518254 164.97455 
L 122.851246 161.199244 
L 123.517231 145.895997 
L 123.850223 123.556457 
L 124.183215 112.509686 
L 124.516208 110.725101 
L 125.182192 133.55056 
L 125.515185 131.383854 
L 125.848177 132.365952 
L 126.181169 128.727326 
L 126.847154 116.006991 
L 127.180146 115.350798 
L 127.513139 126.218193 
L 127.846131 145.129475 
L 128.179123 150.959709 
L 128.512116 142.416875 
L 128.845108 146.841784 
L 129.1781 138.187741 
L 129.511093 132.817609 
L 129.844085 147.798291 
L 130.177077 150.249807 
L 130.51007 135.375006 
L 130.843062 132.91664 
L 131.176054 134.01808 
L 131.509047 145.482954 
L 131.842039 149.311234 
L 132.175031 161.775385 
L 132.508024 164.75383 
L 132.841016 158.507041 
L 133.507001 174.189547 
L 133.839993 170.379549 
L 134.172985 160.10491 
L 134.505978 160.583213 
L 134.83897 159.689854 
L 135.171962 154.95718 
L 135.504955 165.231699 
L 135.837947 164.860743 
L 136.170939 170.552106 
L 136.503932 161.515785 
L 136.836924 165.228609 
L 137.169916 167.217984 
L 137.502909 159.649581 
L 137.835901 165.069795 
L 138.168893 165.334791 
L 138.501886 158.624661 
L 138.834878 154.95532 
L 139.16787 161.438829 
L 139.833855 164.238654 
L 140.166847 156.106591 
L 140.49984 153.875314 
L 141.165824 144.085152 
L 141.831809 156.1927 
L 142.164801 150.240834 
L 142.497793 152.032718 
L 142.830786 154.467294 
L 143.163778 158.07686 
L 143.49677 148.44024 
L 143.829763 147.717388 
L 144.162755 149.333795 
L 144.495747 144.805356 
L 144.82874 151.704569 
L 145.161732 151.930852 
L 145.494724 150.351524 
L 145.827717 146.158464 
L 146.160709 149.678689 
L 146.493701 149.28977 
L 146.826694 137.895902 
L 147.159686 143.071892 
L 147.492678 145.919757 
L 147.825671 140.462851 
L 148.158663 138.040705 
L 148.491655 139.933073 
L 148.824648 139.94979 
L 149.15764 133.755139 
L 149.490632 139.690267 
L 149.823625 140.706354 
L 150.489609 134.322055 
L 150.822602 141.957518 
L 151.155594 142.44038 
L 151.488586 133.547587 
L 151.821579 138.409796 
L 152.154571 140.443545 
L 152.487563 132.256661 
L 152.820556 127.173188 
L 153.48654 137.577184 
L 153.819533 131.690028 
L 154.152525 141.085982 
L 154.485517 145.084713 
L 154.81851 140.075031 
L 155.151502 137.093398 
L 155.484494 144.128371 
L 155.817487 143.962489 
L 156.150479 133.3949 
L 156.483471 138.270568 
L 156.816464 140.47163 
L 157.482448 137.196262 
L 157.815441 143.524994 
L 158.148433 147.442065 
L 158.481425 141.789321 
L 158.814418 148.300212 
L 159.14741 149.763363 
L 159.480402 148.75105 
L 159.813395 144.433649 
L 160.146387 145.407682 
L 160.479379 144.674623 
L 160.812371 141.802685 
L 161.145364 148.429655 
L 161.478356 152.132927 
L 162.144341 135.355917 
L 162.477333 140.585722 
L 162.810325 143.348474 
L 163.143318 144.90153 
L 163.47631 155.213978 
L 163.809302 154.365773 
L 164.142295 151.840845 
L 164.475287 147.410999 
L 164.808279 148.818842 
L 165.141272 147.907464 
L 165.474264 142.501748 
L 166.140249 153.023521 
L 166.806233 147.640549 
L 167.139226 154.34006 
L 167.472218 155.755734 
L 167.80521 149.379854 
L 168.138203 157.4367 
L 168.471195 160.509193 
L 169.13718 144.081939 
L 169.470172 146.633635 
L 169.803164 145.600821 
L 170.136157 140.916397 
L 170.469149 153.091274 
L 170.802141 159.192796 
L 171.135134 152.874152 
L 171.468126 149.477314 
L 171.801118 151.284542 
L 172.134111 151.651347 
L 172.467103 147.352096 
L 173.133088 156.96342 
L 173.799072 136.49115 
L 174.132065 138.638757 
L 174.465057 137.782657 
L 174.798049 126.665122 
L 175.464034 138.731663 
L 175.797026 139.667935 
L 176.130019 139.01395 
L 176.463011 148.400199 
L 176.796003 150.885084 
L 177.128996 143.375824 
L 177.79498 155.892835 
L 178.127973 155.921816 
L 178.460965 157.672673 
L 178.793957 163.739148 
L 179.126949 163.731591 
L 179.459942 165.7963 
L 179.792934 170.055067 
L 180.125926 159.654103 
L 180.458919 154.135274 
L 180.791911 142.747519 
L 181.124903 148.39195 
L 181.457896 149.00412 
L 181.790888 137.924699 
L 182.12388 155.518688 
L 182.456873 166.022913 
L 182.789865 165.445937 
L 183.122857 161.69686 
L 183.45585 172.227379 
L 183.788842 175.965866 
L 184.121834 174.174514 
L 184.454827 178.153464 
L 185.453804 169.773358 
L 185.786796 174.984505 
L 186.119788 169.431136 
L 186.452781 154.972886 
L 187.118765 177.977976 
L 187.451758 173.126425 
L 187.78475 166.633509 
L 188.117742 164.535965 
L 188.450735 164.833664 
L 188.783727 149.039806 
L 189.449712 162.480796 
L 189.782704 157.918572 
L 190.115696 148.390764 
L 190.448689 164.817511 
L 190.781681 157.1935 
L 191.114673 132.258027 
L 191.447666 133.608228 
L 191.780658 132.924249 
L 192.11365 136.021745 
L 192.779635 144.605526 
L 193.112627 137.219218 
L 193.44562 121.471288 
L 193.778612 128.442094 
L 194.111604 131.508215 
L 194.444597 132.046372 
L 194.777589 131.831571 
L 195.110581 142.133158 
L 195.443574 142.906273 
L 195.776566 128.689488 
L 196.442551 163.767582 
L 196.775543 172.249283 
L 197.77452 149.405036 
L 198.107512 136.499301 
L 198.440504 138.175289 
L 199.106489 113.682008 
L 199.439481 104.148051 
L 200.105466 117.791129 
L 200.438458 121.127585 
L 200.771451 137.665307 
L 201.104443 146.523448 
L 201.437435 147.472903 
L 201.770428 135.305885 
L 202.10342 131.446149 
L 202.436412 129.310334 
L 202.769405 123.563374 
L 203.102397 129.608607 
L 203.435389 137.69761 
L 203.768382 137.194705 
L 204.101374 126.013729 
L 204.434366 134.608585 
L 204.767359 133.844943 
L 205.100351 118.617547 
L 205.433343 126.43434 
L 207.098305 193.699968 
L 207.431297 193.986908 
L 207.76429 194.857219 
L 208.430274 164.154246 
L 208.763267 153.114773 
L 209.096259 170.335551 
L 209.429251 195.552101 
L 209.762244 196.892842 
L 210.095236 183.969241 
L 210.428228 186.670463 
L 211.094213 177.514536 
L 211.427205 176.223315 
L 212.09319 146.920959 
L 212.426182 154.971657 
L 212.759175 159.091157 
L 213.092167 149.629564 
L 213.425159 146.686872 
L 213.758152 152.016461 
L 214.091144 142.139295 
L 214.424136 140.975357 
L 214.757129 153.811844 
L 215.090121 149.663924 
L 215.423113 153.278908 
L 215.756105 138.843866 
L 216.089098 144.018973 
L 216.755082 140.089652 
L 217.421067 188.317221 
L 217.754059 185.010932 
L 218.087052 173.759537 
L 218.420044 177.629556 
L 218.753036 185.943432 
L 219.086029 183.435202 
L 219.419021 174.087287 
L 219.752013 181.030596 
L 220.417998 147.847751 
L 220.75099 142.975853 
L 221.083983 133.649292 
L 221.416975 111.47033 
L 221.749967 108.386204 
L 222.08296 107.682029 
L 222.415952 102.605927 
L 222.748944 106.823667 
L 223.081937 124.0204 
L 223.414929 132.898968 
L 223.747921 124.51585 
L 224.080914 124.629336 
L 224.413906 123.789731 
L 224.746898 125.218083 
L 225.412883 130.38985 
L 225.745875 130.211784 
L 226.078868 113.477496 
L 226.41186 116.228872 
L 226.744852 116.248555 
L 227.410837 101.731851 
L 227.743829 107.056601 
L 228.076822 94.936793 
L 228.409814 75.88465 
L 228.742806 74.439261 
L 229.075799 72.093845 
L 229.741783 70.55651 
L 230.407768 113.758291 
L 231.406745 142.505197 
L 231.739737 147.398596 
L 232.07273 145.695398 
L 232.405722 167.415021 
L 232.738714 181.491373 
L 233.404699 173.955382 
L 233.737691 161.370979 
L 234.070684 153.225787 
L 235.06966 99.344005 
L 235.402653 81.718005 
L 236.068637 100.508531 
L 236.40163 105.487048 
L 236.734622 113.406767 
L 237.067614 137.859992 
L 237.400607 139.991879 
L 237.733599 127.855163 
L 238.066591 137.605324 
L 238.399584 143.347546 
L 238.732576 140.484861 
L 239.065568 150.681141 
L 239.398561 143.928384 
L 239.731553 141.556904 
L 240.064545 152.728525 
L 240.73053 179.215911 
L 241.063522 164.793105 
L 241.396515 155.515787 
L 241.729507 171.989284 
L 242.062499 181.210273 
L 242.395492 183.831394 
L 242.728484 190.981959 
L 243.061476 188.958989 
L 243.394469 188.703261 
L 243.727461 176.9957 
L 244.060453 182.913686 
L 244.393446 183.186678 
L 244.726438 176.835421 
L 245.392423 192.821965 
L 245.725415 194.650028 
L 246.058407 192.276346 
L 246.3914 194.771777 
L 246.724392 196.026539 
L 247.057384 187.334655 
L 247.390377 186.834614 
L 247.723369 184.041539 
L 248.056361 166.076263 
L 248.389354 161.289529 
L 249.055338 178.039604 
L 249.388331 177.676347 
L 249.721323 176.24305 
L 250.054315 165.409706 
L 250.387308 158.784253 
L 250.7203 155.438145 
L 251.386285 173.010285 
L 251.719277 173.602761 
L 252.052269 182.601401 
L 252.385262 185.792243 
L 252.718254 186.025018 
L 253.051246 171.233551 
L 253.384238 174.417494 
L 253.717231 175.086026 
L 254.050223 171.215561 
L 254.383215 172.91594 
L 254.716208 170.681557 
L 255.0492 163.492348 
L 255.382192 153.325702 
L 255.715185 157.714643 
L 256.381169 172.875663 
L 256.714162 170.0973 
L 257.047154 171.834266 
L 257.713139 162.438952 
L 258.046131 166.762388 
L 258.379123 168.085016 
L 258.712116 165.921546 
L 259.045108 170.873056 
L 259.3781 171.620845 
L 259.711093 173.780483 
L 260.044085 162.314356 
L 260.377077 161.578583 
L 260.71007 161.536973 
L 261.043062 157.356693 
L 261.376054 159.770772 
L 261.709047 163.571763 
L 262.375031 152.694068 
L 262.708024 157.784996 
L 263.041016 158.839595 
L 263.374008 151.968125 
L 263.707001 153.118001 
L 264.372985 147.201108 
L 264.705978 142.50498 
L 265.03897 148.268106 
L 265.371962 148.718126 
L 265.704955 144.292345 
L 266.037947 150.367386 
L 266.370939 154.309763 
L 266.703932 145.948697 
L 267.036924 134.108279 
L 267.369916 135.327261 
L 268.035901 132.051307 
L 268.701886 147.123131 
L 269.36787 141.717758 
L 269.700863 144.658379 
L 270.033855 143.747859 
L 270.366847 141.026205 
L 270.69984 146.415111 
L 271.032832 147.948574 
L 271.365824 144.88377 
L 271.698816 139.79727 
L 272.031809 143.486816 
L 272.364801 142.857957 
L 272.697793 137.798522 
L 273.030786 139.846412 
L 273.363778 140.495003 
L 273.69677 138.61575 
L 274.029763 135.412178 
L 274.362755 140.478252 
L 274.695747 142.133173 
L 275.02874 138.862453 
L 275.361732 145.875331 
L 275.694724 148.202038 
L 276.360709 138.323137 
L 277.026694 143.410677 
L 277.359686 139.148389 
L 277.692678 145.568025 
L 278.025671 148.835284 
L 278.358663 146.685604 
L 278.691655 143.786371 
L 279.024648 147.114433 
L 279.35764 147.75476 
L 279.690632 143.347791 
L 280.023625 149.866639 
L 280.356617 150.118434 
L 281.022602 142.819479 
L 281.355594 147.028443 
L 281.688586 147.768231 
L 282.021579 143.506831 
L 282.354571 151.688429 
L 282.687563 153.244647 
L 283.020556 150.469657 
L 283.353548 144.762587 
L 283.68654 146.553582 
L 284.019533 147.131878 
L 284.352525 144.135547 
L 284.685517 150.341544 
L 285.01851 153.680826 
L 285.351502 150.27672 
L 285.684494 144.396233 
L 286.017487 148.731642 
L 286.350479 150.188407 
L 286.683471 144.837592 
L 287.349456 153.072036 
L 287.682448 150.80213 
L 288.015441 146.710699 
L 288.348433 146.619999 
L 288.681425 146.262197 
L 289.014418 144.548932 
L 289.34741 147.094469 
L 289.680402 153.148961 
L 290.013395 148.485645 
L 290.346387 140.001535 
L 290.679379 148.067918 
L 291.012371 151.550817 
L 291.345364 147.566919 
L 291.678356 155.898075 
L 292.011348 159.529109 
L 292.677333 152.083814 
L 293.010325 156.405416 
L 293.343318 159.202077 
L 293.67631 157.481458 
L 294.009302 165.945536 
L 294.342295 166.794455 
L 294.675287 157.193655 
L 295.008279 153.808462 
L 295.341272 159.010054 
L 295.674264 161.826403 
L 296.007256 160.040691 
L 296.340249 172.980743 
L 296.673241 176.26663 
L 297.006233 174.672332 
L 297.339226 168.954033 
L 297.672218 166.332331 
L 298.00521 160.899617 
L 298.338203 144.811394 
L 298.671195 141.73087 
L 299.33718 153.077664 
L 299.670172 145.190789 
L 300.003164 144.522174 
L 300.336157 145.70689 
L 300.669149 135.005834 
L 301.002141 141.14579 
L 301.335134 157.383136 
L 301.668126 145.80593 
L 302.001118 151.251659 
L 302.334111 164.985912 
L 302.667103 162.219972 
L 303.000095 151.866231 
L 303.333088 157.680695 
L 303.66608 170.472768 
L 303.999072 174.02066 
L 304.332065 174.735946 
L 304.665057 184.195588 
L 304.998049 185.455256 
L 305.331042 174.80571 
L 305.664034 177.469495 
L 305.997026 178.547522 
L 306.330019 171.480316 
L 306.663011 158.929841 
L 306.996003 161.933142 
L 307.328996 160.609429 
L 307.661988 149.090832 
L 308.327973 162.582751 
L 308.660965 162.355531 
L 308.993957 154.867873 
L 309.326949 143.141895 
L 309.659942 136.215548 
L 309.992934 126.167836 
L 310.325926 140.953044 
L 310.991911 155.291242 
L 311.324903 144.928365 
L 311.657896 146.583819 
L 311.990888 154.200234 
L 312.32388 151.35098 
L 312.656873 164.235038 
L 312.989865 168.933418 
L 313.322857 162.964703 
L 313.65585 160.373066 
L 313.988842 175.404382 
L 314.321834 180.311233 
L 314.654827 176.53464 
L 314.987819 177.923398 
L 315.986796 139.172119 
L 316.319788 135.589254 
L 316.652781 128.192721 
L 316.985773 118.22754 
L 317.318765 116.404629 
L 317.98475 106.592526 
L 318.317742 106.166265 
L 318.650735 124.566092 
L 318.983727 131.915908 
L 319.316719 115.884551 
L 319.649712 116.729898 
L 320.315696 134.129044 
L 320.648689 135.630717 
L 321.314673 171.087763 
L 321.647666 176.914581 
L 322.31365 154.909836 
L 322.979635 172.530432 
L 323.312627 176.486497 
L 323.64562 175.397333 
L 323.978612 151.21071 
L 325.310581 104.272703 
L 325.643574 111.750213 
L 326.309558 118.243153 
L 327.97452 183.507712 
L 328.307512 186.579904 
L 328.640504 180.938443 
L 328.973497 178.686923 
L 329.306489 170.801162 
L 329.639481 156.096034 
L 329.972474 149.508871 
L 330.638458 169.10181 
L 330.971451 183.294035 
L 331.304443 190.326284 
L 331.970428 140.281729 
L 332.30342 139.29989 
L 332.636412 154.507103 
L 332.969405 156.732719 
L 333.302397 152.851192 
L 333.635389 161.12521 
L 333.968382 147.345366 
L 334.301374 125.03163 
L 334.634366 128.833182 
L 334.967359 152.004147 
L 335.300351 165.929843 
L 335.633343 145.780113 
L 335.966336 154.988893 
L 336.299328 158.531196 
L 336.63232 150.273556 
L 336.965313 124.275746 
L 337.298305 123.187662 
L 337.631297 112.431374 
L 337.96429 91.486373 
L 338.297282 97.641535 
L 338.630274 94.363367 
L 338.963267 85.276189 
L 339.296259 89.919266 
L 339.629251 129.713807 
L 339.962244 144.027541 
L 340.295236 131.40535 
L 340.961221 121.589424 
L 341.294213 116.573787 
L 341.627205 115.304689 
L 341.960198 129.217563 
L 342.29319 128.346965 
L 342.626182 121.207647 
L 342.959175 124.6454 
L 343.958152 153.275962 
L 344.291144 171.183574 
L 344.624136 172.82874 
L 344.957129 151.378845 
L 345.290121 146.857774 
L 345.623113 149.810904 
L 345.956105 147.488599 
L 346.289098 152.206353 
L 346.62209 166.620669 
L 346.955082 171.785989 
L 347.288075 165.809882 
L 347.621067 172.114324 
L 348.287052 173.059894 
L 348.620044 164.803681 
L 348.953036 159.557094 
L 349.286029 156.72427 
L 349.619021 155.536807 
L 350.285006 181.108292 
L 350.617998 180.577507 
L 350.95099 167.89563 
L 351.283983 174.691961 
L 351.616975 185.492267 
L 351.949967 176.675834 
L 352.28296 171.385742 
L 352.615952 182.503315 
L 352.948944 180.11229 
L 353.281937 168.434349 
L 353.614929 176.064056 
L 353.947921 167.180166 
L 354.280914 142.149514 
L 354.613906 151.9906 
L 354.946898 152.248969 
L 355.279891 148.67739 
L 355.612883 155.019754 
L 355.945875 167.192032 
L 356.278868 166.464365 
L 356.61186 144.754543 
L 356.944852 141.065355 
L 358.276822 174.799171 
L 358.609814 169.367451 
L 358.942806 149.135991 
L 359.275799 146.547436 
L 359.608791 149.076715 
L 359.941783 152.720474 
L 360.274776 159.535077 
L 360.607768 178.694823 
L 361.273753 159.958168 
L 361.606745 171.810236 
L 361.939737 164.588643 
L 362.27273 150.570816 
L 362.605722 145.817262 
L 362.938714 169.274198 
L 363.271707 174.611169 
L 363.604699 169.740386 
L 363.937691 167.484531 
L 364.270684 155.924406 
L 364.936668 115.797901 
L 365.26966 115.560303 
L 365.602653 116.884315 
L 365.935645 127.746635 
L 366.60163 160.967443 
L 367.267614 185.703938 
L 367.600607 185.022752 
L 368.266591 194.653431 
L 368.599584 188.657704 
L 368.932576 191.306529 
L 369.265568 184.135276 
L 369.598561 168.834455 
L 369.931553 163.81387 
L 370.597538 139.596844 
L 371.263522 170.715749 
L 371.929507 136.506591 
L 372.262499 126.731904 
L 372.595492 122.119308 
L 372.928484 110.722531 
L 373.261476 120.2989 
L 373.594469 133.873282 
L 373.927461 139.315962 
L 374.260453 136.044651 
L 374.593446 139.327136 
L 374.926438 135.215943 
L 375.25943 125.443161 
L 375.925415 130.774165 
L 376.258407 126.455897 
L 376.5914 134.290272 
L 376.924392 149.526818 
L 377.257384 156.086921 
L 377.590377 150.005216 
L 377.923369 153.429618 
L 378.922346 145.290136 
L 379.255338 147.01269 
L 379.588331 153.996989 
L 379.921323 146.43938 
L 380.254315 144.298737 
L 380.587308 143.502697 
L 380.9203 157.35491 
L 381.253292 150.462628 
L 381.919277 161.855968 
L 382.252269 153.767101 
L 382.585262 161.069467 
L 382.918254 164.06265 
L 383.251246 151.98908 
L 383.584238 149.840302 
L 383.917231 153.2491 
L 384.583215 157.094105 
L 384.916208 148.773404 
L 385.2492 148.91963 
L 385.915185 141.722538 
L 386.248177 148.430698 
L 386.581169 146.724558 
L 386.914162 142.204683 
L 387.247154 149.808784 
L 387.580146 152.441629 
L 387.913139 150.790973 
L 388.246131 141.487763 
L 388.912116 148.853413 
L 389.245108 143.467452 
L 389.911093 151.471107 
L 390.577077 138.010533 
L 390.91007 146.247411 
L 391.243062 149.561812 
L 391.576054 140.369355 
L 391.909047 142.174943 
L 392.242039 142.544115 
L 392.575031 139.886072 
L 392.908024 134.112716 
L 393.241016 142.659931 
L 393.574008 139.628873 
L 393.907001 127.548848 
L 394.572985 133.359811 
L 394.905978 129.327706 
L 395.23897 128.490766 
L 395.571962 136.403342 
L 395.904955 136.310721 
L 396.237947 127.821009 
L 396.570939 133.506622 
L 396.903932 135.083457 
L 397.569916 130.426082 
L 397.902909 140.441141 
L 398.235901 140.527594 
L 398.568893 134.443251 
L 398.901886 141.639008 
L 399.234878 143.686788 
L 399.56787 142.549528 
L 399.900863 140.143446 
L 400.233855 145.583222 
L 400.566847 145.01972 
L 400.89984 137.049564 
L 401.232832 143.161704 
L 401.565824 144.105643 
L 402.231809 135.421756 
L 402.897793 143.074599 
L 403.230786 137.805026 
L 403.563778 145.262916 
L 403.89677 146.046975 
L 404.229763 144.752861 
L 404.562755 140.638354 
L 404.895747 150.123927 
L 405.22874 150.238741 
L 405.561732 137.529345 
L 405.894724 140.846243 
L 406.560709 144.583817 
L 406.893701 139.847206 
L 407.226694 147.452299 
L 407.559686 149.986954 
L 407.892678 141.680064 
L 408.225671 143.170092 
L 408.558663 145.18666 
L 408.891655 145.053764 
L 409.224648 143.220129 
L 409.55764 153.015365 
L 409.890632 154.750556 
L 410.223625 147.131884 
L 410.556617 153.358905 
L 410.889609 156.644109 
L 411.555594 149.274358 
L 411.888586 159.039467 
L 412.221579 157.475731 
L 412.554571 146.82027 
L 413.220556 155.015903 
L 413.88654 140.666861 
L 414.219533 143.495961 
L 414.552525 141.760637 
L 414.885517 132.866517 
L 415.551502 150.079601 
L 415.884494 151.576104 
L 416.217487 147.727543 
L 416.883471 159.901757 
L 417.216464 147.245606 
L 417.549456 152.835715 
L 418.548433 128.887474 
L 418.881425 145.574613 
L 419.214418 155.434636 
L 419.54741 147.055265 
L 419.880402 155.308894 
L 420.213395 155.264224 
L 420.546387 155.494966 
L 420.879379 155.918486 
L 421.212371 166.299709 
L 421.545364 168.267964 
L 421.878356 157.072245 
L 422.211348 157.954633 
L 422.877333 149.007248 
L 423.210325 135.173372 
L 423.543318 135.951063 
L 423.87631 131.377555 
L 424.209302 122.532998 
L 424.542295 140.749505 
L 424.875287 146.434647 
L 425.208279 146.945647 
L 425.541272 153.124407 
L 426.207256 176.16719 
L 426.540249 167.673063 
L 426.873241 172.810995 
L 427.206233 170.306826 
L 427.539226 165.362613 
L 427.872218 163.358575 
L 428.20521 164.632202 
L 428.538203 166.946084 
L 428.871195 161.12878 
L 429.870172 169.840104 
L 430.203164 168.435508 
L 430.536157 179.552132 
L 430.869149 172.761076 
L 431.202141 145.132132 
L 432.201118 121.829343 
L 432.534111 130.020511 
L 432.867103 158.066356 
L 433.200095 163.176116 
L 433.533088 155.481763 
L 433.86608 156.59783 
L 434.199072 148.885099 
L 434.532065 143.815251 
L 434.865057 132.297536 
L 435.198049 136.575277 
L 435.531042 129.477363 
L 435.864034 118.054547 
L 436.197026 123.253942 
L 436.530019 120.41049 
L 436.863011 120.951508 
L 437.196003 123.906066 
L 437.528996 131.07148 
L 437.861988 130.411325 
L 438.19498 125.000169 
L 438.527973 126.8334 
L 438.860965 122.472162 
L 439.193957 122.999721 
L 439.526949 126.900181 
L 439.859942 145.776628 
L 440.192934 145.158099 
L 440.525926 133.370221 
L 441.191911 168.158593 
L 441.524903 170.922162 
L 441.857896 151.717532 
L 442.52388 128.453813 
L 442.856873 112.586908 
L 443.189865 119.392304 
L 443.522857 121.864078 
L 443.85585 114.296303 
L 444.188842 127.944642 
L 444.521834 153.048241 
L 444.854827 166.844972 
L 445.520811 145.207319 
L 446.186796 131.340615 
L 446.519788 129.689734 
L 447.185773 162.642243 
L 447.518765 156.92451 
L 447.851758 180.815197 
L 448.18475 177.364728 
L 448.517742 180.30854 
L 448.850735 180.124214 
L 449.183727 178.674114 
L 449.516719 179.16737 
L 449.849712 182.536675 
L 450.182704 194.898589 
L 450.515696 195.029237 
L 450.848689 183.201391 
L 451.514673 144.907779 
L 451.847666 140.769835 
L 452.180658 146.542369 
L 452.51365 159.271613 
L 452.846643 159.042566 
L 453.179635 142.557456 
L 453.512627 154.201845 
L 453.84562 154.498967 
L 454.178612 156.704664 
L 454.511604 145.507912 
L 454.844597 151.189149 
L 455.177589 162.670183 
L 455.510581 179.078952 
L 456.176566 166.566656 
L 456.509558 164.127939 
L 456.842551 155.039807 
L 457.175543 176.932161 
L 457.508535 186.666632 
L 457.841527 175.217816 
L 458.507512 163.201895 
L 458.840504 150.46537 
L 459.173497 128.77 
L 459.506489 126.428456 
L 459.839481 125.158562 
L 460.505466 115.293765 
L 460.838458 129.950299 
L 461.171451 139.506721 
L 461.504443 143.840915 
L 461.837435 152.920771 
L 462.170428 153.840143 
L 462.50342 166.187612 
L 463.169405 197.801148 
L 463.502397 193.311954 
L 463.835389 185.398485 
L 464.834366 137.790206 
L 465.167359 135.257362 
L 465.833343 177.581255 
L 466.166336 169.56122 
L 466.499328 165.467241 
L 466.83232 156.84964 
L 467.165313 141.974171 
L 467.498305 143.947917 
L 468.16429 192.290466 
L 468.497282 179.539456 
L 468.830274 176.088921 
L 469.163267 162.33953 
L 469.496259 160.259509 
L 469.829251 155.800994 
L 470.162244 174.767716 
L 470.495236 176.798502 
L 470.828228 168.426062 
L 471.161221 169.644391 
L 471.827205 131.160857 
L 472.160198 133.119748 
L 472.49319 159.717144 
L 472.826182 162.536882 
L 473.159175 147.546148 
L 473.492167 143.354154 
L 473.825159 141.117211 
L 474.158152 140.993366 
L 474.491144 135.481344 
L 475.157129 155.911818 
L 475.490121 147.097537 
L 476.156105 180.512084 
L 476.489098 174.392864 
L 476.82209 155.338905 
L 477.155082 153.486733 
L 477.488075 162.749961 
L 477.821067 160.114446 
L 478.487052 185.013652 
L 479.153036 169.924167 
L 479.819021 140.317069 
L 480.152013 121.649934 
L 480.817998 130.899733 
L 481.15099 134.838282 
L 481.816975 164.436329 
L 482.48296 121.762268 
L 482.815952 119.208687 
L 483.148944 124.70662 
L 483.481937 133.085415 
L 483.814929 133.619008 
L 484.147921 146.094944 
L 484.480914 165.013475 
L 485.479891 194.719671 
L 485.812883 194.144442 
L 486.478868 185.92746 
L 486.81186 193.728101 
L 487.144852 181.087244 
L 487.477845 156.176932 
L 487.810837 159.429776 
L 488.143829 164.140296 
L 488.476822 165.318168 
L 488.809814 176.492636 
L 489.142806 174.913586 
L 489.475799 168.389711 
L 489.808791 175.777111 
L 490.141783 178.15291 
L 490.474776 172.150112 
L 490.807768 174.307642 
L 491.14076 168.698424 
L 491.473753 165.083235 
L 491.806745 163.703943 
L 492.139737 170.073314 
L 492.47273 169.964179 
L 493.138714 166.320951 
L 493.471707 155.036641 
L 493.804699 153.164078 
L 494.137691 143.427107 
L 494.470684 144.503209 
L 494.803676 146.37239 
L 495.136668 146.027023 
L 495.46966 153.661345 
L 495.802653 164.641559 
L 496.135645 170.630729 
L 496.468637 143.630734 
L 497.134622 127.399566 
L 497.467614 123.150444 
L 497.800607 123.920588 
L 498.133599 137.9543 
L 498.466591 145.865404 
L 498.799584 149.840797 
L 499.132576 156.286113 
L 499.465568 159.720753 
L 499.798561 173.0325 
L 500.464545 160.348941 
L 500.797538 156.783063 
L 501.13053 142.738648 
L 501.463522 145.320811 
L 501.796515 152.272085 
L 502.462499 144.280096 
L 502.795492 152.705491 
L 503.128484 155.803643 
L 503.461476 163.527569 
L 503.794469 154.952976 
L 504.127461 155.711789 
L 504.793446 137.18219 
L 505.126438 140.522741 
L 505.45943 136.966307 
L 505.792423 125.509667 
L 506.7914 145.237234 
L 507.124392 146.70191 
L 507.457384 151.269456 
L 507.790377 147.761872 
L 508.123369 136.620344 
L 508.789354 142.228893 
L 509.455338 133.150508 
L 509.788331 141.39804 
L 510.121323 142.75671 
L 510.454315 134.01878 
L 510.787308 139.236516 
L 511.1203 141.785009 
L 511.453292 138.763899 
L 511.786285 136.957244 
L 512.119277 144.365609 
L 512.452269 144.45653 
L 512.785262 135.793315 
L 513.118254 141.811826 
L 513.451246 139.904866 
L 513.784238 132.54764 
L 514.117231 131.988066 
L 514.450223 143.814037 
L 514.783215 145.31833 
L 515.116208 134.303862 
L 515.782192 131.172898 
L 516.115185 129.876835 
L 516.448177 125.592543 
L 516.781169 126.915978 
L 517.114162 129.634491 
L 517.447154 126.351102 
L 517.780146 132.025587 
L 518.113139 132.435423 
L 518.446131 127.455673 
L 518.779123 125.348098 
L 519.445108 136.271689 
L 519.7781 131.163954 
L 520.111093 135.021127 
L 520.444085 135.402148 
L 520.777077 133.658584 
L 521.11007 131.248087 
L 521.776054 139.331881 
L 522.109047 135.55777 
L 522.442039 143.426606 
L 522.775031 143.055753 
L 523.108024 137.094361 
L 523.441016 136.481475 
L 523.774008 140.880289 
L 524.107001 139.145558 
L 524.439993 133.50321 
L 525.105978 142.92166 
L 525.771962 137.087502 
L 526.104955 142.192985 
L 526.437947 144.880331 
L 526.770939 141.821321 
L 527.103932 148.507867 
L 527.436924 150.885313 
L 527.769916 146.957074 
L 528.102909 140.813784 
L 528.435901 142.92431 
L 528.768893 146.078081 
L 529.101886 141.124084 
L 529.434878 146.030892 
L 529.76787 148.660419 
L 530.100863 147.282636 
L 530.433855 147.479082 
L 530.766847 154.189198 
L 531.09984 151.344916 
L 531.432832 140.839626 
L 532.098816 158.663338 
L 532.431809 145.491882 
L 532.764801 142.155921 
L 533.097793 145.486352 
L 533.430786 144.676803 
L 533.763778 139.023457 
L 534.429763 144.444831 
L 534.762755 144.696663 
L 535.095747 145.385618 
L 535.42874 154.070308 
L 535.761732 149.363442 
L 536.094724 142.374648 
L 536.427717 152.418075 
L 536.760709 156.704134 
L 537.093701 150.078209 
L 537.426694 148.255483 
L 537.759686 158.097025 
L 538.092678 159.822567 
L 538.425671 156.825369 
L 539.091655 167.98605 
L 539.75764 151.703109 
L 540.090632 155.137715 
L 540.423625 156.625503 
L 540.756617 152.595597 
L 541.422602 167.103365 
L 541.755594 165.006069 
L 542.088586 151.335796 
L 542.421579 149.680756 
L 542.754571 144.468329 
L 543.087563 135.031158 
L 543.753548 153.163878 
L 544.08654 148.821936 
L 544.752525 161.479606 
L 545.085517 160.166684 
L 545.41851 144.608528 
L 545.751502 153.323095 
L 546.084494 151.958684 
L 546.417487 153.80538 
L 546.750479 146.399332 
L 547.083471 149.082419 
L 547.416464 140.930539 
L 547.749456 122.858302 
L 548.082448 126.939485 
L 548.415441 132.943272 
L 548.748433 124.182826 
L 549.081425 120.643256 
L 549.414418 129.873514 
L 549.74741 135.242955 
L 550.080402 124.866502 
L 550.746387 166.558194 
L 551.079379 169.766088 
L 551.412371 162.578877 
L 551.745364 171.671683 
L 552.078356 173.634729 
L 552.411348 153.607382 
L 553.077333 163.113429 
L 553.410325 158.957249 
L 553.743318 164.228642 
L 554.742295 187.039166 
L 555.408279 157.905069 
L 555.741272 141.563255 
L 556.074264 132.386301 
L 556.407256 142.290682 
L 556.740249 147.356844 
L 557.073241 136.75863 
L 557.406233 137.819332 
L 557.739226 146.27457 
L 558.072218 149.679428 
L 558.40521 151.262173 
L 558.738203 169.926767 
L 559.071195 179.480527 
L 559.404187 167.175808 
L 560.070172 174.379543 
L 560.403164 163.933028 
L 560.736157 130.618441 
L 561.069149 140.082921 
L 561.402141 143.803809 
L 561.735134 128.763665 
L 562.068126 131.407425 
L 562.734111 121.953661 
L 563.067103 116.201153 
L 563.400095 121.016413 
L 564.06608 96.74942 
L 564.399072 107.802052 
L 564.732065 104.191338 
L 565.065057 107.577325 
L 565.398049 109.425846 
L 565.731042 117.636478 
L 566.064034 121.655951 
L 566.397026 116.043211 
L 566.730019 118.059262 
L 567.063011 114.673499 
L 567.396003 106.597269 
L 567.728996 107.810124 
L 568.061988 126.562876 
L 568.39498 138.343935 
L 568.727973 140.520489 
L 569.060965 154.180066 
L 569.393957 162.46755 
L 569.726949 159.917215 
L 570.059942 155.333963 
L 570.392934 163.853881 
L 570.725926 163.854875 
L 571.058919 166.922225 
L 571.391911 192.7109 
L 571.724903 199.268888 
L 572.057896 195.636522 
L 572.390888 166.344774 
L 572.72388 153.953453 
L 573.056873 152.118262 
L 573.389865 144.376846 
L 574.05585 153.679215 
L 574.388842 153.30153 
L 574.721834 146.023574 
L 575.054827 135.87041 
L 575.387819 135.600892 
L 575.720811 120.796573 
L 576.053804 124.488379 
L 576.386796 126.165123 
L 576.719788 115.592573 
L 577.052781 109.091279 
L 577.385773 114.568834 
L 577.718765 115.57519 
L 578.051758 112.488861 
L 578.38475 128.308643 
L 578.717742 130.295633 
L 579.050735 109.710883 
L 579.383727 97.837285 
L 580.382704 115.005975 
L 581.048689 158.235638 
L 581.381681 166.988146 
L 581.714673 154.390422 
L 582.047666 148.785831 
L 582.380658 133.9659 
L 582.71365 112.813702 
L 583.379635 124.45879 
L 583.712627 130.857354 
L 584.04562 139.785634 
L 584.711604 125.542357 
L 585.044597 112.614495 
L 585.710581 159.282724 
L 586.376566 147.678463 
L 586.709558 144.382634 
L 587.042551 121.279748 
L 587.375543 82.356934 
L 588.041527 62.443944 
L 588.707512 49.959714 
L 589.373497 72.003979 
L 589.706489 79.205939 
L 590.372474 141.248011 
L 590.705466 151.182592 
L 591.038458 152.840169 
L 591.371451 175.178149 
L 591.704443 178.20437 
L 592.037435 170.82102 
L 592.370428 191.631539 
L 592.70342 199.853697 
L 593.036412 193.327481 
L 593.369405 174.013375 
L 594.035389 157.06781 
L 594.368382 138.442722 
L 595.034366 156.009441 
L 595.367359 148.032924 
L 595.700351 124.775346 
L 596.033343 127.058827 
L 596.366336 123.098444 
L 596.699328 108.541032 
L 597.03232 114.997932 
L 597.698305 151.361299 
L 598.031297 149.874108 
L 598.36429 155.360224 
L 598.697282 146.195389 
L 599.030274 131.268721 
L 599.363267 127.856218 
L 599.696259 119.685418 
L 600.029251 108.071971 
L 600.362244 101.164026 
L 601.028228 116.828812 
L 601.361221 107.887141 
L 602.027205 139.197043 
L 602.360198 145.342976 
L 602.69319 158.102453 
L 603.026182 157.889017 
L 603.359175 158.441482 
L 603.692167 162.869805 
L 604.358152 184.787211 
L 604.691144 186.079751 
L 605.024136 174.377742 
L 605.357129 157.240712 
L 605.690121 151.230846 
L 606.023113 135.77552 
L 606.356105 108.005251 
L 607.02209 99.682586 
L 608.021067 138.333974 
L 608.354059 108.342686 
L 608.687052 108.723232 
L 609.020044 99.682384 
L 609.353036 96.520653 
L 609.686029 99.174146 
L 610.019021 113.338274 
L 610.352013 121.496735 
L 610.685006 123.32258 
L 611.017998 138.530759 
L 611.35099 147.457743 
L 612.016975 128.470994 
L 612.349967 134.179524 
L 612.68296 130.356854 
L 613.015952 121.370367 
L 613.348944 130.767861 
L 613.681937 144.41593 
L 614.014929 141.570061 
L 614.347921 129.716807 
L 614.680914 139.3788 
L 615.013906 128.354791 
L 615.346898 123.951843 
L 615.679891 133.831962 
L 616.012883 126.683969 
L 616.345875 114.355389 
L 616.678868 108.050253 
L 617.01186 128.373522 
L 617.344852 156.627545 
L 617.677845 158.231874 
L 618.010837 161.262736 
L 618.676822 157.552758 
L 619.009814 142.360146 
L 619.342806 140.553381 
L 619.675799 140.24605 
L 620.008791 132.528447 
L 620.341783 135.250595 
L 621.007768 132.798922 
L 621.673753 140.643538 
L 622.006745 142.648855 
L 622.339737 146.56544 
L 622.67273 133.79724 
L 623.005722 133.362647 
L 623.338714 124.621219 
L 623.671707 123.901125 
L 624.337691 138.998444 
L 624.670684 138.25413 
L 625.336668 158.902746 
L 625.66966 161.350302 
L 626.002653 152.815865 
L 626.335645 154.920698 
L 626.668637 153.109799 
L 627.00163 141.079169 
L 627.334622 146.957129 
L 627.667614 149.791076 
L 628.000607 146.94144 
L 628.333599 146.434621 
L 628.666591 152.907325 
L 628.999584 150.543644 
L 629.332576 145.40718 
L 629.665568 146.997438 
L 629.998561 150.562337 
L 630.331553 148.975224 
L 630.664545 145.031693 
L 630.997538 152.206139 
L 631.33053 153.026017 
L 631.663522 145.046129 
L 631.996515 141.829409 
L 632.329507 141.118196 
L 632.662499 135.08676 
L 632.995492 131.859296 
L 633.328484 142.726761 
L 633.661476 146.150517 
L 633.994469 137.861098 
L 634.327461 140.190929 
L 634.660453 139.059988 
L 634.993446 131.281839 
L 635.326438 129.444406 
L 635.65943 139.599609 
L 635.992423 141.108106 
L 636.325415 134.330127 
L 636.658407 145.492924 
L 637.324392 133.1157 
L 637.657384 130.726613 
L 637.990377 138.637658 
L 638.323369 138.71327 
L 638.656361 133.904937 
L 638.989354 138.423577 
L 639.322346 140.444331 
L 639.655338 137.309577 
L 639.988331 135.852571 
L 640.321323 142.820016 
L 640.654315 143.731095 
L 640.987308 137.156567 
L 641.3203 140.687175 
L 641.653292 142.558724 
L 642.319277 137.063173 
L 642.652269 144.244772 
L 642.985262 144.980301 
L 643.318254 139.613722 
L 643.984238 151.393043 
L 644.317231 148.400101 
L 644.650223 143.677417 
L 644.983215 144.881719 
L 645.316208 143.401549 
L 645.6492 140.716385 
L 645.982192 143.869755 
L 646.315185 145.180622 
L 646.981169 142.670544 
L 647.647154 145.674605 
L 647.980146 143.926184 
L 648.313139 148.769871 
L 648.646131 151.553572 
L 649.312116 148.861984 
L 649.9781 152.77121 
L 650.311093 147.823339 
L 650.977077 152.454471 
L 651.643062 144.724916 
L 651.976054 150.700974 
L 652.309047 151.702904 
L 652.642039 147.747053 
L 653.308024 155.069427 
L 653.974008 142.007103 
L 654.307001 146.047921 
L 654.639993 147.228973 
L 654.972985 144.913859 
L 655.305978 150.464536 
L 655.63897 151.991731 
L 655.971962 150.818126 
L 656.304955 148.925912 
L 656.637947 154.862208 
L 656.970939 157.271716 
L 657.303932 152.07567 
L 657.969916 163.844773 
L 658.635901 157.325207 
L 658.968893 163.502099 
L 659.301886 165.435246 
L 659.634878 156.769001 
L 659.96787 164.223651 
L 660.300863 166.980219 
L 660.966847 155.809355 
L 661.29984 163.401003 
L 661.632832 160.566809 
L 661.965824 147.060948 
L 662.298816 153.085602 
L 662.964801 161.094675 
L 663.297793 159.995194 
L 663.963778 173.683169 
L 664.29677 169.888727 
L 664.629763 169.462422 
L 664.962755 170.02814 
L 665.295747 159.072969 
L 665.62874 156.639854 
L 665.961732 166.980027 
L 666.294724 173.821813 
L 666.627717 163.221886 
L 666.960709 168.379612 
L 667.293701 161.446039 
L 667.626694 150.937603 
L 667.959686 148.770807 
L 668.292678 153.118486 
L 668.958663 140.818435 
L 669.291655 142.699275 
L 669.624648 140.540866 
L 669.95764 146.744108 
L 670.290632 145.14198 
L 670.623625 145.91263 
L 670.956617 148.182157 
L 671.289609 146.448173 
L 671.955594 181.11166 
L 672.954571 147.220155 
L 673.287563 144.125335 
L 673.620556 136.682777 
L 673.953548 152.89962 
L 674.28654 163.564106 
L 674.619533 160.837289 
L 674.952525 160.011235 
L 675.285517 163.740996 
L 675.61851 177.381646 
L 675.951502 170.509048 
L 676.284494 153.807048 
L 676.950479 138.485437 
L 677.283471 136.479553 
L 677.616464 147.934786 
L 677.949456 151.567727 
L 678.282448 135.174761 
L 678.615441 141.83275 
L 678.948433 131.669254 
L 679.281425 127.325274 
L 679.614418 125.277669 
L 679.94741 139.550176 
L 680.280402 145.62023 
L 680.613395 129.35938 
L 680.946387 134.248446 
L 681.279379 146.359649 
L 681.945364 156.272433 
L 682.278356 164.713929 
L 682.611348 155.35606 
L 682.944341 131.82458 
L 683.277333 128.199353 
L 683.610325 127.118303 
L 683.943318 118.187282 
L 684.27631 117.54098 
L 684.609302 121.170427 
L 684.942295 118.384521 
L 685.275287 106.698282 
L 685.941272 148.96032 
L 686.274264 123.220686 
L 686.607256 119.878768 
L 686.940249 131.393563 
L 687.273241 127.578449 
L 687.606233 111.483667 
L 687.939226 121.290408 
L 688.272218 124.068749 
L 688.60521 116.189635 
L 688.938203 111.815369 
L 689.271195 123.3232 
L 689.604187 139.558478 
L 689.93718 141.710496 
L 690.603164 162.536723 
L 691.269149 156.072693 
L 691.602141 164.206239 
L 691.935134 164.16896 
L 692.268126 129.292645 
L 692.601118 116.94533 
L 692.934111 116.955964 
L 693.600095 157.524348 
L 693.933088 141.22942 
L 694.26608 139.969231 
L 694.599072 147.195925 
L 694.932065 170.776949 
L 695.265057 185.874042 
L 695.598049 210.588269 
L 695.931042 218.527327 
L 696.597026 210.395537 
L 697.596003 172.660552 
L 697.928996 150.006196 
L 698.261988 139.540627 
L 698.59498 144.678991 
L 698.927973 143.692117 
L 699.260965 123.720089 
L 699.593957 125.147202 
L 699.926949 127.10289 
L 700.259942 131.259274 
L 700.592934 128.878105 
L 701.258919 147.372805 
L 701.591911 143.345232 
L 701.924903 143.67393 
L 702.257896 151.549088 
L 702.92388 130.772095 
L 703.256873 142.750064 
L 703.589865 147.761015 
L 703.922857 133.359989 
L 704.25585 133.764313 
L 704.588842 137.8163 
L 704.921834 143.809522 
L 705.254827 141.870358 
L 705.587819 164.785033 
L 705.920811 162.961782 
L 706.253804 143.073759 
L 706.586796 153.08333 
L 706.919788 159.01445 
L 707.252781 159.478878 
L 707.585773 161.989018 
L 707.918765 163.32598 
L 708.251758 164.144313 
L 708.58475 149.988411 
L 708.917742 166.293143 
L 709.250735 173.031195 
L 709.583727 161.632086 
L 709.916719 144.890665 
L 710.249712 145.629135 
L 710.582704 153.464343 
L 710.915696 157.594778 
L 711.248689 164.904422 
L 711.581681 180.902475 
L 711.914673 180.524567 
L 712.247666 174.008571 
L 712.580658 171.806997 
L 712.91365 175.359041 
L 713.246643 158.486308 
L 713.579635 162.179419 
L 713.912627 162.759365 
L 714.24562 162.398921 
L 714.578612 146.124539 
L 714.911604 144.615442 
L 715.244597 141.978508 
L 715.577589 131.562433 
L 715.910581 130.18272 
L 716.243574 133.322053 
L 716.576566 133.664675 
L 716.909558 124.598778 
L 717.242551 130.37904 
L 717.575543 124.975131 
L 717.908535 113.887637 
L 718.57452 142.383281 
L 718.907512 151.756185 
L 719.240504 149.872865 
L 719.573497 159.166257 
L 719.906489 164.836575 
L 720.239481 153.776008 
L 720.572474 156.286625 
L 720.905466 171.91665 
L 721.238458 160.936798 
L 721.571451 156.706893 
L 721.904443 161.781344 
L 722.237435 161.979481 
L 722.570428 155.538654 
L 723.236412 171.969326 
L 723.569405 169.687232 
L 723.902397 170.490022 
L 724.235389 181.625392 
L 724.568382 178.030884 
L 724.901374 172.570295 
L 725.234366 169.600278 
L 725.900351 143.143729 
L 726.233343 122.762908 
L 726.566336 116.004134 
L 726.899328 113.632498 
L 727.23232 115.919997 
L 727.898305 158.923845 
L 728.231297 156.754135 
L 728.56429 141.619472 
L 728.897282 140.279702 
L 729.230274 133.107912 
L 729.563267 135.218491 
L 729.896259 163.26311 
L 730.229251 177.93575 
L 730.562244 183.378746 
L 730.895236 179.151336 
L 731.228228 167.874236 
L 731.561221 165.893071 
L 731.894213 168.220576 
L 732.227205 161.815312 
L 732.560198 161.968332 
L 732.89319 160.227639 
L 733.226182 161.902426 
L 733.559175 170.319406 
L 733.892167 163.468979 
L 734.225159 147.005412 
L 734.558152 149.242639 
L 734.891144 154.391482 
L 735.224136 156.270079 
L 735.557129 153.130796 
L 735.890121 157.48174 
L 736.223113 159.105988 
L 736.556105 154.807725 
L 736.889098 159.281283 
L 737.22209 161.287448 
L 737.555082 159.647657 
L 737.888075 159.136078 
L 738.221067 169.675231 
L 738.887052 165.418739 
L 739.220044 178.130794 
L 739.553036 183.976235 
L 740.219021 169.806591 
L 740.885006 173.248925 
L 741.217998 168.313274 
L 741.55099 170.689653 
L 741.883983 176.9338 
L 742.549967 170.717636 
L 742.88296 170.825454 
L 743.548944 163.543421 
L 743.881937 164.420812 
L 744.214929 170.077943 
L 744.547921 173.34773 
L 744.880914 160.645329 
L 745.546898 144.367579 
L 745.879891 133.614672 
L 746.212883 143.805296 
L 746.545875 148.483579 
L 746.878868 148.467372 
L 747.21186 150.920683 
L 747.544852 159.627167 
L 747.877845 164.947192 
L 748.210837 167.289418 
L 748.543829 157.407048 
L 748.876822 156.987277 
L 749.209814 151.984265 
L 749.542806 149.730279 
L 749.875799 156.439376 
L 750.208791 156.909689 
L 750.541783 149.136898 
L 750.874776 150.642652 
L 751.54076 162.235571 
L 751.873753 156.447541 
L 752.206745 160.719113 
L 752.539737 158.455159 
L 752.87273 148.75246 
L 753.205722 152.531291 
L 753.538714 152.839104 
L 753.871707 154.316756 
L 754.204699 149.091823 
L 754.537691 155.650891 
L 754.870684 153.959439 
L 755.203676 147.102789 
L 755.536668 153.29442 
L 755.86966 152.471821 
L 756.202653 150.866149 
L 756.535645 146.523988 
L 756.868637 151.825338 
L 757.20163 152.882238 
L 757.534622 148.106168 
L 757.867614 153.491889 
L 758.200607 155.327691 
L 758.866591 145.079454 
L 759.199584 148.553409 
L 759.532576 147.248122 
L 759.865568 139.928218 
L 760.198561 149.789895 
L 760.531553 154.743726 
L 760.864545 152.493008 
L 761.197538 145.797598 
L 761.53053 150.447222 
L 761.863522 148.725933 
L 762.196515 143.980541 
L 762.529507 154.888106 
L 762.862499 157.557672 
L 763.195492 148.846212 
L 763.528484 144.224055 
L 763.861476 150.32274 
L 764.194469 153.259356 
L 764.527461 154.001902 
L 764.860453 153.425797 
L 765.193446 155.158932 
L 765.526438 152.932511 
L 765.85943 148.326525 
L 766.192423 154.36161 
L 766.525415 156.214362 
L 766.858407 151.442592 
L 767.1914 161.253327 
L 767.524392 163.232779 
L 768.190377 156.526165 
L 768.523369 157.67949 
L 768.856361 157.942332 
L 769.189354 156.807378 
L 769.522346 163.837854 
L 769.855338 166.176865 
L 770.521323 157.783502 
L 771.187308 164.507001 
L 771.5203 158.827647 
L 771.853292 161.193287 
L 772.186285 162.243108 
L 772.852269 155.5292 
L 773.185262 163.436287 
L 773.518254 160.748138 
L 773.851246 155.158348 
L 774.184238 163.250579 
L 774.517231 166.013321 
L 774.850223 164.543909 
L 775.183215 158.412775 
L 775.516208 164.979557 
L 775.8492 167.948117 
L 776.182192 160.15792 
L 776.515185 167.214214 
L 776.848177 167.313716 
L 777.181169 164.378515 
L 777.514162 165.359273 
L 777.847154 170.567329 
L 778.180146 171.925265 
L 778.513139 171.114067 
L 778.846131 175.823944 
L 779.179123 175.837995 
L 779.512116 173.602481 
L 779.845108 168.481868 
L 780.1781 168.872987 
L 780.511093 168.532992 
L 780.844085 166.405438 
L 781.177077 174.422903 
L 781.51007 175.494576 
L 781.843062 175.400836 
L 782.176054 166.261063 
L 782.509047 163.586285 
L 783.508024 151.522722 
L 783.841016 154.383078 
L 784.174008 154.072925 
L 784.507001 152.629114 
L 784.839993 163.827637 
L 785.172985 165.156585 
L 786.171962 153.285551 
L 786.504955 147.840378 
L 786.837947 152.287149 
L 787.503932 172.543507 
L 787.836924 175.502004 
L 788.169916 175.619716 
L 788.502909 187.247472 
L 789.168893 176.286075 
L 789.501886 175.93627 
L 790.16787 172.335216 
L 790.500863 168.473003 
L 790.833855 170.403203 
L 791.166847 167.830537 
L 791.49984 170.546708 
L 791.832832 187.849519 
L 792.165824 191.530531 
L 792.498816 188.643138 
L 792.831809 190.029213 
L 793.164801 184.158523 
L 793.497793 182.930412 
L 793.830786 178.511005 
L 794.49677 195.03816 
L 794.829763 194.249907 
L 795.162755 191.481762 
L 795.82874 199.284268 
L 796.827717 204.720238 
L 797.160709 203.95979 
L 797.493701 212.798944 
L 797.826694 199.27307 
L 798.159686 190.989576 
L 798.492678 179.626503 
L 799.158663 181.234726 
L 799.491655 186.510499 
L 799.824648 198.467749 
L 800.15764 203.404613 
L 800.490632 198.108822 
L 800.823625 186.707969 
L 801.489609 178.653684 
L 801.822602 170.592168 
L 802.155594 186.725358 
L 802.488586 188.93638 
L 802.821579 184.247758 
L 803.154571 164.048462 
L 803.487563 152.543942 
L 803.820556 149.109208 
L 804.153548 141.576331 
L 804.819533 169.482713 
L 805.152525 169.207498 
L 805.485517 166.32015 
L 805.81851 173.525937 
L 806.151502 171.853271 
L 806.484494 156.518922 
L 806.817487 159.26114 
L 807.150479 158.933969 
L 807.483471 147.915532 
L 807.816464 141.573423 
L 808.149456 140.341184 
L 808.482448 144.847245 
L 808.815441 136.894198 
L 809.148433 145.173165 
L 809.481425 147.772305 
L 810.14741 128.921149 
L 810.480402 130.542948 
L 810.813395 124.00284 
L 811.146387 109.596997 
L 811.812371 112.67988 
L 812.145364 109.093016 
L 812.478356 103.572806 
L 813.144341 119.875541 
L 813.477333 139.047305 
L 813.810325 169.773939 
L 814.143318 190.034317 
L 814.47631 203.180704 
L 814.809302 206.719651 
L 815.142295 212.847605 
L 815.808279 220.509949 
L 816.141272 208.190295 
L 816.807256 220.264055 
L 817.140249 217.03588 
L 817.473241 237.326857 
L 817.806233 238.857 
L 818.472218 219.326723 
L 818.80521 223.503297 
L 819.138203 216.425989 
L 819.471195 214.276342 
L 819.804187 214.954327 
L 820.13718 211.529519 
L 820.470172 197.386069 
L 820.803164 199.7894 
L 821.136157 206.689074 
L 821.469149 208.397919 
L 821.802141 201.626647 
L 822.135134 206.199213 
L 822.468126 199.271742 
L 822.801118 179.54993 
L 823.467103 154.637281 
L 824.133088 136.455435 
L 824.46608 144.743264 
L 824.799072 144.263722 
L 825.132065 134.967226 
L 825.465057 143.137441 
L 826.131042 140.089332 
L 826.464034 136.731777 
L 826.797026 140.987162 
L 827.796003 163.530047 
L 828.128996 174.510037 
L 828.461988 177.509795 
L 828.79498 183.202449 
L 829.127973 177.074107 
L 829.460965 167.189366 
L 829.793957 37.257 
L 830.126949 136.461561 
L 830.459942 139.872146 
L 830.792934 134.016352 
L 831.125926 141.473807 
L 831.458919 162.808549 
L 831.791911 169.81722 
L 832.124903 163.500116 
L 832.790888 174.616636 
L 833.12388 181.113631 
L 833.456873 195.551971 
L 833.789865 201.056358 
L 834.122857 197.11112 
L 834.45585 196.899351 
L 834.788842 194.172881 
L 835.121834 195.22221 
L 835.454827 187.340859 
L 835.787819 182.297419 
L 836.120811 169.884778 
L 836.786796 130.676319 
L 837.452781 142.534296 
L 837.785773 143.419556 
L 838.118765 142.647526 
L 838.451758 220.353658 
L 838.78475 217.404689 
L 838.78475 217.404689 
" clip-path="url(#pe2e45fe4fa)" style="fill: none; stroke: #4c72b0; stroke-width: 1.2; stroke-linecap: round"/>
   </g>
   <g id="patch_3">
    <path d="M 57.58475 248.937 
L 57.58475 27.177 
" style="fill: none; stroke: #cccccc; stroke-linejoin: miter; stroke-linecap: square"/>
   </g>
   <g id="patch_4">
    <path d="M 838.78475 248.937 
L 838.78475 27.177 
" style="fill: none; stroke: #cccccc; stroke-linejoin: miter; stroke-linecap: square"/>
   </g>
   <g id="patch_5">
    <path d="M 57.58475 248.937 
L 838.78475 248.937 
" style="fill: none; stroke: #cccccc; stroke-linejoin: miter; stroke-linecap: square"/>
   </g>
   <g id="patch_6">
    <path d="M 57.58475 27.177 
L 838.78475 27.177 
" style="fill: none; stroke: #cccccc; stroke-linejoin: miter; stroke-linecap: square"/>
   </g>
   <g id="text_16">
    <!-- Residuals of consumption data -->
    <g style="fill: #262626" transform="translate(316.91525 21.177) scale(0.192 -0.192)">
     <defs>
      <path id="ArialMT-52" d="M 503 0 
L 503 4581 
L 2534 4581 
Q 3147 4581 3465 4457 
Q 3784 4334 3975 4021 
Q 4166 3709 4166 3331 
Q 4166 2844 3850 2509 
Q 3534 2175 2875 2084 
Q 3116 1969 3241 1856 
Q 3506 1613 3744 1247 
L 4541 0 
L 3778 0 
L 3172 953 
Q 2906 1366 2734 1584 
Q 2563 1803 2427 1890 
Q 2291 1978 2150 2013 
Q 2047 2034 1813 2034 
L 1109 2034 
L 1109 0 
L 503 0 
z
M 1109 2559 
L 2413 2559 
Q 2828 2559 3062 2645 
Q 3297 2731 3419 2920 
Q 3541 3109 3541 3331 
Q 3541 3656 3305 3865 
Q 3069 4075 2559 4075 
L 1109 4075 
L 1109 2559 
z
" transform="scale(0.015625)"/>
      <path id="ArialMT-6c" d="M 409 0 
L 409 4581 
L 972 4581 
L 972 0 
L 409 0 
z
" transform="scale(0.015625)"/>
      <path id="ArialMT-66" d="M 556 0 
L 556 2881 
L 59 2881 
L 59 3319 
L 556 3319 
L 556 3672 
Q 556 4006 616 4169 
Q 697 4388 901 4523 
Q 1106 4659 1475 4659 
Q 1713 4659 2000 4603 
L 1916 4113 
Q 1741 4144 1584 4144 
Q 1328 4144 1222 4034 
Q 1116 3925 1116 3625 
L 1116 3319 
L 1763 3319 
L 1763 2881 
L 1116 2881 
L 1116 0 
L 556 0 
z
" transform="scale(0.015625)"/>
      <path id="ArialMT-63" d="M 2588 1216 
L 3141 1144 
Q 3050 572 2676 248 
Q 2303 -75 1759 -75 
Q 1078 -75 664 370 
Q 250 816 250 1647 
Q 250 2184 428 2587 
Q 606 2991 970 3192 
Q 1334 3394 1763 3394 
Q 2303 3394 2647 3120 
Q 2991 2847 3088 2344 
L 2541 2259 
Q 2463 2594 2264 2762 
Q 2066 2931 1784 2931 
Q 1359 2931 1093 2626 
Q 828 2322 828 1663 
Q 828 994 1084 691 
Q 1341 388 1753 388 
Q 2084 388 2306 591 
Q 2528 794 2588 1216 
z
" transform="scale(0.015625)"/>
     </defs>
     <use xlink:href="#ArialMT-52"/>
     <use xlink:href="#ArialMT-65" x="72.216797"/>
     <use xlink:href="#ArialMT-73" x="127.832031"/>
     <use xlink:href="#ArialMT-69" x="177.832031"/>
     <use xlink:href="#ArialMT-64" x="200.048828"/>
     <use xlink:href="#ArialMT-75" x="255.664062"/>
     <use xlink:href="#ArialMT-61" x="311.279297"/>
     <use xlink:href="#ArialMT-6c" x="366.894531"/>
     <use xlink:href="#ArialMT-73" x="389.111328"/>
     <use xlink:href="#ArialMT-20" x="439.111328"/>
     <use xlink:href="#ArialMT-6f" x="466.894531"/>
     <use xlink:href="#ArialMT-66" x="522.509766"/>
     <use xlink:href="#ArialMT-20" x="550.292969"/>
     <use xlink:href="#ArialMT-63" x="578.076172"/>
     <use xlink:href="#ArialMT-6f" x="628.076172"/>
     <use xlink:href="#ArialMT-6e" x="683.691406"/>
     <use xlink:href="#ArialMT-73" x="739.306641"/>
     <use xlink:href="#ArialMT-75" x="789.306641"/>
     <use xlink:href="#ArialMT-6d" x="844.921875"/>
     <use xlink:href="#ArialMT-70" x="928.222656"/>
     <use xlink:href="#ArialMT-74" x="983.837891"/>
     <use xlink:href="#ArialMT-69" x="1011.621094"/>
     <use xlink:href="#ArialMT-6f" x="1033.837891"/>
     <use xlink:href="#ArialMT-6e" x="1089.453125"/>
     <use xlink:href="#ArialMT-20" x="1145.068359"/>
     <use xlink:href="#ArialMT-64" x="1172.851562"/>
     <use xlink:href="#ArialMT-61" x="1228.466797"/>
     <use xlink:href="#ArialMT-74" x="1284.082031"/>
     <use xlink:href="#ArialMT-61" x="1311.865234"/>
    </g>
   </g>
  </g>
 </g>
 <defs>
  <clipPath id="pe2e45fe4fa">
   <rect x="57.58475" y="27.177" width="781.2" height="221.76"/>
  </clipPath>
 </defs>
</svg>
