<?xml version="1.0" encoding="utf-8" standalone="no"?>
<!DOCTYPE svg PUBLIC "-//W3C//DTD SVG 1.1//EN"
  "http://www.w3.org/Graphics/SVG/1.1/DTD/svg11.dtd">
<svg xmlns:xlink="http://www.w3.org/1999/xlink" width="835.70525pt" height="302.55075pt" viewBox="0 0 835.70525 302.55075" xmlns="http://www.w3.org/2000/svg" version="1.1">
 <metadata>
  <rdf:RDF xmlns:dc="http://purl.org/dc/elements/1.1/" xmlns:cc="http://creativecommons.org/ns#" xmlns:rdf="http://www.w3.org/1999/02/22-rdf-syntax-ns#">
   <cc:Work>
    <dc:type rdf:resource="http://purl.org/dc/dcmitype/StillImage"/>
    <dc:date>2023-05-11T10:57:42.440988</dc:date>
    <dc:format>image/svg+xml</dc:format>
    <dc:creator>
     <cc:Agent>
      <dc:title>Matplotlib v3.7.1, https://matplotlib.org/</dc:title>
     </cc:Agent>
    </dc:creator>
   </cc:Work>
  </rdf:RDF>
 </metadata>
 <defs>
  <style type="text/css">*{stroke-linejoin: round; stroke-linecap: butt}</style>
 </defs>
 <g id="figure_1">
  <g id="patch_1">
   <path d="M 0 302.55075 
L 835.70525 302.55075 
L 835.70525 0 
L 0 0 
z
" style="fill: #ffffff"/>
  </g>
  <g id="axes_1">
   <g id="patch_2">
    <path d="M 47.30525 248.937 
L 828.50525 248.937 
L 828.50525 27.177 
L 47.30525 27.177 
z
" style="fill: #ffffff"/>
   </g>
   <g id="matplotlib.axis_1">
    <g id="xtick_1">
     <g id="line2d_1">
      <path d="M 82.814341 248.937 
L 82.814341 27.177 
" clip-path="url(#p42456c4e09)" style="fill: none; stroke: #cccccc; stroke-width: 0.8; stroke-linecap: round"/>
     </g>
     <g id="text_1">
      <!-- 0 -->
      <g style="fill: #262626" transform="translate(77.920716 269.83475) scale(0.176 -0.176)">
       <defs>
        <path id="ArialMT-30" d="M 266 2259 
Q 266 3072 433 3567 
Q 600 4063 929 4331 
Q 1259 4600 1759 4600 
Q 2128 4600 2406 4451 
Q 2684 4303 2865 4023 
Q 3047 3744 3150 3342 
Q 3253 2941 3253 2259 
Q 3253 1453 3087 958 
Q 2922 463 2592 192 
Q 2263 -78 1759 -78 
Q 1097 -78 719 397 
Q 266 969 266 2259 
z
M 844 2259 
Q 844 1131 1108 757 
Q 1372 384 1759 384 
Q 2147 384 2411 759 
Q 2675 1134 2675 2259 
Q 2675 3391 2411 3762 
Q 2147 4134 1753 4134 
Q 1366 4134 1134 3806 
Q 844 3388 844 2259 
z
" transform="scale(0.015625)"/>
       </defs>
       <use xlink:href="#ArialMT-30"/>
      </g>
     </g>
    </g>
    <g id="xtick_2">
     <g id="line2d_2">
      <path d="M 225.135347 248.937 
L 225.135347 27.177 
" clip-path="url(#p42456c4e09)" style="fill: none; stroke: #cccccc; stroke-width: 0.8; stroke-linecap: round"/>
     </g>
     <g id="text_2">
      <!-- 100 -->
      <g style="fill: #262626" transform="translate(210.454472 269.83475) scale(0.176 -0.176)">
       <defs>
        <path id="ArialMT-31" d="M 2384 0 
L 1822 0 
L 1822 3584 
Q 1619 3391 1289 3197 
Q 959 3003 697 2906 
L 697 3450 
Q 1169 3672 1522 3987 
Q 1875 4303 2022 4600 
L 2384 4600 
L 2384 0 
z
" transform="scale(0.015625)"/>
       </defs>
       <use xlink:href="#ArialMT-31"/>
       <use xlink:href="#ArialMT-30" x="55.615234"/>
       <use xlink:href="#ArialMT-30" x="111.230469"/>
      </g>
     </g>
    </g>
    <g id="xtick_3">
     <g id="line2d_3">
      <path d="M 367.456352 248.937 
L 367.456352 27.177 
" clip-path="url(#p42456c4e09)" style="fill: none; stroke: #cccccc; stroke-width: 0.8; stroke-linecap: round"/>
     </g>
     <g id="text_3">
      <!-- 200 -->
      <g style="fill: #262626" transform="translate(352.775477 269.83475) scale(0.176 -0.176)">
       <defs>
        <path id="ArialMT-32" d="M 3222 541 
L 3222 0 
L 194 0 
Q 188 203 259 391 
Q 375 700 629 1000 
Q 884 1300 1366 1694 
Q 2113 2306 2375 2664 
Q 2638 3022 2638 3341 
Q 2638 3675 2398 3904 
Q 2159 4134 1775 4134 
Q 1369 4134 1125 3890 
Q 881 3647 878 3216 
L 300 3275 
Q 359 3922 746 4261 
Q 1134 4600 1788 4600 
Q 2447 4600 2831 4234 
Q 3216 3869 3216 3328 
Q 3216 3053 3103 2787 
Q 2991 2522 2730 2228 
Q 2469 1934 1863 1422 
Q 1356 997 1212 845 
Q 1069 694 975 541 
L 3222 541 
z
" transform="scale(0.015625)"/>
       </defs>
       <use xlink:href="#ArialMT-32"/>
       <use xlink:href="#ArialMT-30" x="55.615234"/>
       <use xlink:href="#ArialMT-30" x="111.230469"/>
      </g>
     </g>
    </g>
    <g id="xtick_4">
     <g id="line2d_4">
      <path d="M 509.777358 248.937 
L 509.777358 27.177 
" clip-path="url(#p42456c4e09)" style="fill: none; stroke: #cccccc; stroke-width: 0.8; stroke-linecap: round"/>
     </g>
     <g id="text_4">
      <!-- 300 -->
      <g style="fill: #262626" transform="translate(495.096483 269.83475) scale(0.176 -0.176)">
       <defs>
        <path id="ArialMT-33" d="M 269 1209 
L 831 1284 
Q 928 806 1161 595 
Q 1394 384 1728 384 
Q 2125 384 2398 659 
Q 2672 934 2672 1341 
Q 2672 1728 2419 1979 
Q 2166 2231 1775 2231 
Q 1616 2231 1378 2169 
L 1441 2663 
Q 1497 2656 1531 2656 
Q 1891 2656 2178 2843 
Q 2466 3031 2466 3422 
Q 2466 3731 2256 3934 
Q 2047 4138 1716 4138 
Q 1388 4138 1169 3931 
Q 950 3725 888 3313 
L 325 3413 
Q 428 3978 793 4289 
Q 1159 4600 1703 4600 
Q 2078 4600 2393 4439 
Q 2709 4278 2876 4000 
Q 3044 3722 3044 3409 
Q 3044 3113 2884 2869 
Q 2725 2625 2413 2481 
Q 2819 2388 3044 2092 
Q 3269 1797 3269 1353 
Q 3269 753 2831 336 
Q 2394 -81 1725 -81 
Q 1122 -81 723 278 
Q 325 638 269 1209 
z
" transform="scale(0.015625)"/>
       </defs>
       <use xlink:href="#ArialMT-33"/>
       <use xlink:href="#ArialMT-30" x="55.615234"/>
       <use xlink:href="#ArialMT-30" x="111.230469"/>
      </g>
     </g>
    </g>
    <g id="xtick_5">
     <g id="line2d_5">
      <path d="M 652.098363 248.937 
L 652.098363 27.177 
" clip-path="url(#p42456c4e09)" style="fill: none; stroke: #cccccc; stroke-width: 0.8; stroke-linecap: round"/>
     </g>
     <g id="text_5">
      <!-- 400 -->
      <g style="fill: #262626" transform="translate(637.417488 269.83475) scale(0.176 -0.176)">
       <defs>
        <path id="ArialMT-34" d="M 2069 0 
L 2069 1097 
L 81 1097 
L 81 1613 
L 2172 4581 
L 2631 4581 
L 2631 1613 
L 3250 1613 
L 3250 1097 
L 2631 1097 
L 2631 0 
L 2069 0 
z
M 2069 1613 
L 2069 3678 
L 634 1613 
L 2069 1613 
z
" transform="scale(0.015625)"/>
       </defs>
       <use xlink:href="#ArialMT-34"/>
       <use xlink:href="#ArialMT-30" x="55.615234"/>
       <use xlink:href="#ArialMT-30" x="111.230469"/>
      </g>
     </g>
    </g>
    <g id="xtick_6">
     <g id="line2d_6">
      <path d="M 794.419369 248.937 
L 794.419369 27.177 
" clip-path="url(#p42456c4e09)" style="fill: none; stroke: #cccccc; stroke-width: 0.8; stroke-linecap: round"/>
     </g>
     <g id="text_6">
      <!-- 500 -->
      <g style="fill: #262626" transform="translate(779.738494 269.83475) scale(0.176 -0.176)">
       <defs>
        <path id="ArialMT-35" d="M 266 1200 
L 856 1250 
Q 922 819 1161 601 
Q 1400 384 1738 384 
Q 2144 384 2425 690 
Q 2706 997 2706 1503 
Q 2706 1984 2436 2262 
Q 2166 2541 1728 2541 
Q 1456 2541 1237 2417 
Q 1019 2294 894 2097 
L 366 2166 
L 809 4519 
L 3088 4519 
L 3088 3981 
L 1259 3981 
L 1013 2750 
Q 1425 3038 1878 3038 
Q 2478 3038 2890 2622 
Q 3303 2206 3303 1553 
Q 3303 931 2941 478 
Q 2500 -78 1738 -78 
Q 1113 -78 717 272 
Q 322 622 266 1200 
z
" transform="scale(0.015625)"/>
       </defs>
       <use xlink:href="#ArialMT-35"/>
       <use xlink:href="#ArialMT-30" x="55.615234"/>
       <use xlink:href="#ArialMT-30" x="111.230469"/>
      </g>
     </g>
    </g>
    <g id="text_7">
     <!-- Time (days) -->
     <g style="fill: #262626" transform="translate(387.59675 291.30975) scale(0.192 -0.192)">
      <defs>
       <path id="ArialMT-54" d="M 1659 0 
L 1659 4041 
L 150 4041 
L 150 4581 
L 3781 4581 
L 3781 4041 
L 2266 4041 
L 2266 0 
L 1659 0 
z
" transform="scale(0.015625)"/>
       <path id="ArialMT-69" d="M 425 3934 
L 425 4581 
L 988 4581 
L 988 3934 
L 425 3934 
z
M 425 0 
L 425 3319 
L 988 3319 
L 988 0 
L 425 0 
z
" transform="scale(0.015625)"/>
       <path id="ArialMT-6d" d="M 422 0 
L 422 3319 
L 925 3319 
L 925 2853 
Q 1081 3097 1340 3245 
Q 1600 3394 1931 3394 
Q 2300 3394 2536 3241 
Q 2772 3088 2869 2813 
Q 3263 3394 3894 3394 
Q 4388 3394 4653 3120 
Q 4919 2847 4919 2278 
L 4919 0 
L 4359 0 
L 4359 2091 
Q 4359 2428 4304 2576 
Q 4250 2725 4106 2815 
Q 3963 2906 3769 2906 
Q 3419 2906 3187 2673 
Q 2956 2441 2956 1928 
L 2956 0 
L 2394 0 
L 2394 2156 
Q 2394 2531 2256 2718 
Q 2119 2906 1806 2906 
Q 1569 2906 1367 2781 
Q 1166 2656 1075 2415 
Q 984 2175 984 1722 
L 984 0 
L 422 0 
z
" transform="scale(0.015625)"/>
       <path id="ArialMT-65" d="M 2694 1069 
L 3275 997 
Q 3138 488 2766 206 
Q 2394 -75 1816 -75 
Q 1088 -75 661 373 
Q 234 822 234 1631 
Q 234 2469 665 2931 
Q 1097 3394 1784 3394 
Q 2450 3394 2872 2941 
Q 3294 2488 3294 1666 
Q 3294 1616 3291 1516 
L 816 1516 
Q 847 969 1125 678 
Q 1403 388 1819 388 
Q 2128 388 2347 550 
Q 2566 713 2694 1069 
z
M 847 1978 
L 2700 1978 
Q 2663 2397 2488 2606 
Q 2219 2931 1791 2931 
Q 1403 2931 1139 2672 
Q 875 2413 847 1978 
z
" transform="scale(0.015625)"/>
       <path id="ArialMT-20" transform="scale(0.015625)"/>
       <path id="ArialMT-28" d="M 1497 -1347 
Q 1031 -759 709 28 
Q 388 816 388 1659 
Q 388 2403 628 3084 
Q 909 3875 1497 4659 
L 1900 4659 
Q 1522 4009 1400 3731 
Q 1209 3300 1100 2831 
Q 966 2247 966 1656 
Q 966 153 1900 -1347 
L 1497 -1347 
z
" transform="scale(0.015625)"/>
       <path id="ArialMT-64" d="M 2575 0 
L 2575 419 
Q 2259 -75 1647 -75 
Q 1250 -75 917 144 
Q 584 363 401 755 
Q 219 1147 219 1656 
Q 219 2153 384 2558 
Q 550 2963 881 3178 
Q 1213 3394 1622 3394 
Q 1922 3394 2156 3267 
Q 2391 3141 2538 2938 
L 2538 4581 
L 3097 4581 
L 3097 0 
L 2575 0 
z
M 797 1656 
Q 797 1019 1065 703 
Q 1334 388 1700 388 
Q 2069 388 2326 689 
Q 2584 991 2584 1609 
Q 2584 2291 2321 2609 
Q 2059 2928 1675 2928 
Q 1300 2928 1048 2622 
Q 797 2316 797 1656 
z
" transform="scale(0.015625)"/>
       <path id="ArialMT-61" d="M 2588 409 
Q 2275 144 1986 34 
Q 1697 -75 1366 -75 
Q 819 -75 525 192 
Q 231 459 231 875 
Q 231 1119 342 1320 
Q 453 1522 633 1644 
Q 813 1766 1038 1828 
Q 1203 1872 1538 1913 
Q 2219 1994 2541 2106 
Q 2544 2222 2544 2253 
Q 2544 2597 2384 2738 
Q 2169 2928 1744 2928 
Q 1347 2928 1158 2789 
Q 969 2650 878 2297 
L 328 2372 
Q 403 2725 575 2942 
Q 747 3159 1072 3276 
Q 1397 3394 1825 3394 
Q 2250 3394 2515 3294 
Q 2781 3194 2906 3042 
Q 3031 2891 3081 2659 
Q 3109 2516 3109 2141 
L 3109 1391 
Q 3109 606 3145 398 
Q 3181 191 3288 0 
L 2700 0 
Q 2613 175 2588 409 
z
M 2541 1666 
Q 2234 1541 1622 1453 
Q 1275 1403 1131 1340 
Q 988 1278 909 1158 
Q 831 1038 831 891 
Q 831 666 1001 516 
Q 1172 366 1500 366 
Q 1825 366 2078 508 
Q 2331 650 2450 897 
Q 2541 1088 2541 1459 
L 2541 1666 
z
" transform="scale(0.015625)"/>
       <path id="ArialMT-79" d="M 397 -1278 
L 334 -750 
Q 519 -800 656 -800 
Q 844 -800 956 -737 
Q 1069 -675 1141 -563 
Q 1194 -478 1313 -144 
Q 1328 -97 1363 -6 
L 103 3319 
L 709 3319 
L 1400 1397 
Q 1534 1031 1641 628 
Q 1738 1016 1872 1384 
L 2581 3319 
L 3144 3319 
L 1881 -56 
Q 1678 -603 1566 -809 
Q 1416 -1088 1222 -1217 
Q 1028 -1347 759 -1347 
Q 597 -1347 397 -1278 
z
" transform="scale(0.015625)"/>
       <path id="ArialMT-73" d="M 197 991 
L 753 1078 
Q 800 744 1014 566 
Q 1228 388 1613 388 
Q 2000 388 2187 545 
Q 2375 703 2375 916 
Q 2375 1106 2209 1216 
Q 2094 1291 1634 1406 
Q 1016 1563 777 1677 
Q 538 1791 414 1992 
Q 291 2194 291 2438 
Q 291 2659 392 2848 
Q 494 3038 669 3163 
Q 800 3259 1026 3326 
Q 1253 3394 1513 3394 
Q 1903 3394 2198 3281 
Q 2494 3169 2634 2976 
Q 2775 2784 2828 2463 
L 2278 2388 
Q 2241 2644 2061 2787 
Q 1881 2931 1553 2931 
Q 1166 2931 1000 2803 
Q 834 2675 834 2503 
Q 834 2394 903 2306 
Q 972 2216 1119 2156 
Q 1203 2125 1616 2013 
Q 2213 1853 2448 1751 
Q 2684 1650 2818 1456 
Q 2953 1263 2953 975 
Q 2953 694 2789 445 
Q 2625 197 2315 61 
Q 2006 -75 1616 -75 
Q 969 -75 630 194 
Q 291 463 197 991 
z
" transform="scale(0.015625)"/>
       <path id="ArialMT-29" d="M 791 -1347 
L 388 -1347 
Q 1322 153 1322 1656 
Q 1322 2244 1188 2822 
Q 1081 3291 891 3722 
Q 769 4003 388 4659 
L 791 4659 
Q 1378 3875 1659 3084 
Q 1900 2403 1900 1659 
Q 1900 816 1576 28 
Q 1253 -759 791 -1347 
z
" transform="scale(0.015625)"/>
      </defs>
      <use xlink:href="#ArialMT-54"/>
      <use xlink:href="#ArialMT-69" x="57.333984"/>
      <use xlink:href="#ArialMT-6d" x="79.550781"/>
      <use xlink:href="#ArialMT-65" x="162.851562"/>
      <use xlink:href="#ArialMT-20" x="218.466797"/>
      <use xlink:href="#ArialMT-28" x="246.25"/>
      <use xlink:href="#ArialMT-64" x="279.550781"/>
      <use xlink:href="#ArialMT-61" x="335.166016"/>
      <use xlink:href="#ArialMT-79" x="390.78125"/>
      <use xlink:href="#ArialMT-73" x="440.78125"/>
      <use xlink:href="#ArialMT-29" x="490.78125"/>
     </g>
    </g>
   </g>
   <g id="matplotlib.axis_2">
    <g id="ytick_1">
     <g id="line2d_7">
      <path d="M 47.30525 242.196844 
L 828.50525 242.196844 
" clip-path="url(#p42456c4e09)" style="fill: none; stroke: #cccccc; stroke-width: 0.8; stroke-linecap: round"/>
     </g>
     <g id="text_8">
      <!-- 1 -->
      <g style="fill: #262626" transform="translate(29.218 248.495719) scale(0.176 -0.176)">
       <use xlink:href="#ArialMT-31"/>
      </g>
     </g>
    </g>
    <g id="ytick_2">
     <g id="line2d_8">
      <path d="M 47.30525 195.496663 
L 828.50525 195.496663 
" clip-path="url(#p42456c4e09)" style="fill: none; stroke: #cccccc; stroke-width: 0.8; stroke-linecap: round"/>
     </g>
     <g id="text_9">
      <!-- 2 -->
      <g style="fill: #262626" transform="translate(29.218 201.795538) scale(0.176 -0.176)">
       <use xlink:href="#ArialMT-32"/>
      </g>
     </g>
    </g>
    <g id="ytick_3">
     <g id="line2d_9">
      <path d="M 47.30525 148.796482 
L 828.50525 148.796482 
" clip-path="url(#p42456c4e09)" style="fill: none; stroke: #cccccc; stroke-width: 0.8; stroke-linecap: round"/>
     </g>
     <g id="text_10">
      <!-- 3 -->
      <g style="fill: #262626" transform="translate(29.218 155.095357) scale(0.176 -0.176)">
       <use xlink:href="#ArialMT-33"/>
      </g>
     </g>
    </g>
    <g id="ytick_4">
     <g id="line2d_10">
      <path d="M 47.30525 102.096301 
L 828.50525 102.096301 
" clip-path="url(#p42456c4e09)" style="fill: none; stroke: #cccccc; stroke-width: 0.8; stroke-linecap: round"/>
     </g>
     <g id="text_11">
      <!-- 4 -->
      <g style="fill: #262626" transform="translate(29.218 108.395176) scale(0.176 -0.176)">
       <use xlink:href="#ArialMT-34"/>
      </g>
     </g>
    </g>
    <g id="ytick_5">
     <g id="line2d_11">
      <path d="M 47.30525 55.39612 
L 828.50525 55.39612 
" clip-path="url(#p42456c4e09)" style="fill: none; stroke: #cccccc; stroke-width: 0.8; stroke-linecap: round"/>
     </g>
     <g id="text_12">
      <!-- 5 -->
      <g style="fill: #262626" transform="translate(29.218 61.694995) scale(0.176 -0.176)">
       <use xlink:href="#ArialMT-35"/>
      </g>
     </g>
    </g>
    <g id="text_13">
     <!-- Consumption (MWh) -->
     <g style="fill: #262626" transform="translate(21.177 226.074) rotate(-90) scale(0.192 -0.192)">
      <defs>
       <path id="ArialMT-43" d="M 3763 1606 
L 4369 1453 
Q 4178 706 3683 314 
Q 3188 -78 2472 -78 
Q 1731 -78 1267 223 
Q 803 525 561 1097 
Q 319 1669 319 2325 
Q 319 3041 592 3573 
Q 866 4106 1370 4382 
Q 1875 4659 2481 4659 
Q 3169 4659 3637 4309 
Q 4106 3959 4291 3325 
L 3694 3184 
Q 3534 3684 3231 3912 
Q 2928 4141 2469 4141 
Q 1941 4141 1586 3887 
Q 1231 3634 1087 3207 
Q 944 2781 944 2328 
Q 944 1744 1114 1308 
Q 1284 872 1643 656 
Q 2003 441 2422 441 
Q 2931 441 3284 734 
Q 3638 1028 3763 1606 
z
" transform="scale(0.015625)"/>
       <path id="ArialMT-6f" d="M 213 1659 
Q 213 2581 725 3025 
Q 1153 3394 1769 3394 
Q 2453 3394 2887 2945 
Q 3322 2497 3322 1706 
Q 3322 1066 3130 698 
Q 2938 331 2570 128 
Q 2203 -75 1769 -75 
Q 1072 -75 642 372 
Q 213 819 213 1659 
z
M 791 1659 
Q 791 1022 1069 705 
Q 1347 388 1769 388 
Q 2188 388 2466 706 
Q 2744 1025 2744 1678 
Q 2744 2294 2464 2611 
Q 2184 2928 1769 2928 
Q 1347 2928 1069 2612 
Q 791 2297 791 1659 
z
" transform="scale(0.015625)"/>
       <path id="ArialMT-6e" d="M 422 0 
L 422 3319 
L 928 3319 
L 928 2847 
Q 1294 3394 1984 3394 
Q 2284 3394 2536 3286 
Q 2788 3178 2913 3003 
Q 3038 2828 3088 2588 
Q 3119 2431 3119 2041 
L 3119 0 
L 2556 0 
L 2556 2019 
Q 2556 2363 2490 2533 
Q 2425 2703 2258 2804 
Q 2091 2906 1866 2906 
Q 1506 2906 1245 2678 
Q 984 2450 984 1813 
L 984 0 
L 422 0 
z
" transform="scale(0.015625)"/>
       <path id="ArialMT-75" d="M 2597 0 
L 2597 488 
Q 2209 -75 1544 -75 
Q 1250 -75 995 37 
Q 741 150 617 320 
Q 494 491 444 738 
Q 409 903 409 1263 
L 409 3319 
L 972 3319 
L 972 1478 
Q 972 1038 1006 884 
Q 1059 663 1231 536 
Q 1403 409 1656 409 
Q 1909 409 2131 539 
Q 2353 669 2445 892 
Q 2538 1116 2538 1541 
L 2538 3319 
L 3100 3319 
L 3100 0 
L 2597 0 
z
" transform="scale(0.015625)"/>
       <path id="ArialMT-70" d="M 422 -1272 
L 422 3319 
L 934 3319 
L 934 2888 
Q 1116 3141 1344 3267 
Q 1572 3394 1897 3394 
Q 2322 3394 2647 3175 
Q 2972 2956 3137 2557 
Q 3303 2159 3303 1684 
Q 3303 1175 3120 767 
Q 2938 359 2589 142 
Q 2241 -75 1856 -75 
Q 1575 -75 1351 44 
Q 1128 163 984 344 
L 984 -1272 
L 422 -1272 
z
M 931 1641 
Q 931 1000 1190 694 
Q 1450 388 1819 388 
Q 2194 388 2461 705 
Q 2728 1022 2728 1688 
Q 2728 2322 2467 2637 
Q 2206 2953 1844 2953 
Q 1484 2953 1207 2617 
Q 931 2281 931 1641 
z
" transform="scale(0.015625)"/>
       <path id="ArialMT-74" d="M 1650 503 
L 1731 6 
Q 1494 -44 1306 -44 
Q 1000 -44 831 53 
Q 663 150 594 308 
Q 525 466 525 972 
L 525 2881 
L 113 2881 
L 113 3319 
L 525 3319 
L 525 4141 
L 1084 4478 
L 1084 3319 
L 1650 3319 
L 1650 2881 
L 1084 2881 
L 1084 941 
Q 1084 700 1114 631 
Q 1144 563 1211 522 
Q 1278 481 1403 481 
Q 1497 481 1650 503 
z
" transform="scale(0.015625)"/>
       <path id="ArialMT-4d" d="M 475 0 
L 475 4581 
L 1388 4581 
L 2472 1338 
Q 2622 884 2691 659 
Q 2769 909 2934 1394 
L 4031 4581 
L 4847 4581 
L 4847 0 
L 4263 0 
L 4263 3834 
L 2931 0 
L 2384 0 
L 1059 3900 
L 1059 0 
L 475 0 
z
" transform="scale(0.015625)"/>
       <path id="ArialMT-57" d="M 1294 0 
L 78 4581 
L 700 4581 
L 1397 1578 
Q 1509 1106 1591 641 
Q 1766 1375 1797 1488 
L 2669 4581 
L 3400 4581 
L 4056 2263 
Q 4303 1400 4413 641 
Q 4500 1075 4641 1638 
L 5359 4581 
L 5969 4581 
L 4713 0 
L 4128 0 
L 3163 3491 
Q 3041 3928 3019 4028 
Q 2947 3713 2884 3491 
L 1913 0 
L 1294 0 
z
" transform="scale(0.015625)"/>
       <path id="ArialMT-68" d="M 422 0 
L 422 4581 
L 984 4581 
L 984 2938 
Q 1378 3394 1978 3394 
Q 2347 3394 2619 3248 
Q 2891 3103 3008 2847 
Q 3125 2591 3125 2103 
L 3125 0 
L 2563 0 
L 2563 2103 
Q 2563 2525 2380 2717 
Q 2197 2909 1863 2909 
Q 1613 2909 1392 2779 
Q 1172 2650 1078 2428 
Q 984 2206 984 1816 
L 984 0 
L 422 0 
z
" transform="scale(0.015625)"/>
      </defs>
      <use xlink:href="#ArialMT-43"/>
      <use xlink:href="#ArialMT-6f" x="72.216797"/>
      <use xlink:href="#ArialMT-6e" x="127.832031"/>
      <use xlink:href="#ArialMT-73" x="183.447266"/>
      <use xlink:href="#ArialMT-75" x="233.447266"/>
      <use xlink:href="#ArialMT-6d" x="289.0625"/>
      <use xlink:href="#ArialMT-70" x="372.363281"/>
      <use xlink:href="#ArialMT-74" x="427.978516"/>
      <use xlink:href="#ArialMT-69" x="455.761719"/>
      <use xlink:href="#ArialMT-6f" x="477.978516"/>
      <use xlink:href="#ArialMT-6e" x="533.59375"/>
      <use xlink:href="#ArialMT-20" x="589.208984"/>
      <use xlink:href="#ArialMT-28" x="616.992188"/>
      <use xlink:href="#ArialMT-4d" x="650.292969"/>
      <use xlink:href="#ArialMT-57" x="733.59375"/>
      <use xlink:href="#ArialMT-68" x="827.978516"/>
      <use xlink:href="#ArialMT-29" x="883.59375"/>
     </g>
    </g>
    <g id="text_14">
     <!-- 1e6 -->
     <g style="fill: #262626" transform="translate(47.30525 24.177) scale(0.176 -0.176)">
      <defs>
       <path id="ArialMT-36" d="M 3184 3459 
L 2625 3416 
Q 2550 3747 2413 3897 
Q 2184 4138 1850 4138 
Q 1581 4138 1378 3988 
Q 1113 3794 959 3422 
Q 806 3050 800 2363 
Q 1003 2672 1297 2822 
Q 1591 2972 1913 2972 
Q 2475 2972 2870 2558 
Q 3266 2144 3266 1488 
Q 3266 1056 3080 686 
Q 2894 316 2569 119 
Q 2244 -78 1831 -78 
Q 1128 -78 684 439 
Q 241 956 241 2144 
Q 241 3472 731 4075 
Q 1159 4600 1884 4600 
Q 2425 4600 2770 4297 
Q 3116 3994 3184 3459 
z
M 888 1484 
Q 888 1194 1011 928 
Q 1134 663 1356 523 
Q 1578 384 1822 384 
Q 2178 384 2434 671 
Q 2691 959 2691 1453 
Q 2691 1928 2437 2201 
Q 2184 2475 1800 2475 
Q 1419 2475 1153 2201 
Q 888 1928 888 1484 
z
" transform="scale(0.015625)"/>
      </defs>
      <use xlink:href="#ArialMT-31"/>
      <use xlink:href="#ArialMT-65" x="55.615234"/>
      <use xlink:href="#ArialMT-36" x="111.230469"/>
     </g>
    </g>
   </g>
   <g id="line2d_12">
    <path d="M 82.814341 211.419825 
L 84.237551 207.596094 
L 85.660761 199.383913 
L 87.083971 183.569875 
L 88.507181 171.596751 
L 89.930391 163.827859 
L 91.353601 165.331418 
L 92.776811 174.009025 
L 94.200021 167.8702 
L 95.623231 147.959789 
L 97.046441 145.296407 
L 98.469652 144.715795 
L 99.892862 149.7333 
L 101.316072 158.73236 
L 102.739282 176.31482 
L 104.162492 180.329935 
L 105.585702 166.578966 
L 107.008912 166.873021 
L 108.432122 155.851178 
L 109.855332 148.234932 
L 111.278542 143.843672 
L 112.701752 153.964403 
L 114.124962 152.531603 
L 115.548172 146.197617 
L 116.971382 146.469706 
L 118.394592 146.945452 
L 119.817802 156.001517 
L 122.664222 170.480326 
L 124.087433 170.908208 
L 125.510643 160.529875 
L 126.933853 162.19754 
L 128.357063 145.540057 
L 129.780273 131.5011 
L 131.203483 132.268234 
L 132.626693 147.472604 
L 134.049903 139.8347 
L 135.473113 108.995884 
L 136.896323 96.032245 
L 138.319533 92.734413 
L 139.742743 92.354722 
L 141.165953 93.468137 
L 142.589163 103.150222 
L 144.012373 98.385295 
L 145.435583 82.220907 
L 146.858793 98.501632 
L 148.282004 125.536368 
L 149.705214 141.803854 
L 151.128424 147.007289 
L 152.551634 149.553958 
L 153.974844 153.160481 
L 155.398054 147.348992 
L 156.821264 149.073275 
L 158.244474 146.112585 
L 159.667684 137.736096 
L 161.090894 125.212607 
L 162.514104 130.053144 
L 163.937314 126.541797 
L 165.360524 84.090763 
L 166.783734 71.491331 
L 168.206944 77.917992 
L 169.630154 94.470813 
L 171.053364 96.090026 
L 172.476574 99.624145 
L 173.899785 89.280398 
L 175.322995 60.890313 
L 176.746205 59.777237 
L 178.169415 71.907855 
L 179.592625 93.203443 
L 181.015835 109.488882 
L 182.439045 134.49424 
L 183.862255 140.274246 
L 185.285465 117.736637 
L 186.708675 107.868332 
L 188.131885 110.137624 
L 189.555095 106.18654 
L 190.978305 93.443346 
L 192.401515 104.255907 
L 193.824725 112.490347 
L 195.247935 95.322143 
L 196.671145 84.175647 
L 198.094355 86.36197 
L 199.517566 94.799431 
L 200.940776 112.307115 
L 202.363986 142.223263 
L 203.787196 157.892705 
L 205.210406 159.185116 
L 206.633616 139.994345 
L 208.056826 125.815299 
L 209.480036 108.770236 
L 210.903246 99.097897 
L 212.326456 103.929821 
L 213.749666 103.229648 
L 215.172876 82.537338 
L 216.596086 87.411781 
L 218.019296 87.495437 
L 219.442506 61.595249 
L 220.865716 47.925286 
L 222.288926 60.401451 
L 223.712137 70.210473 
L 225.135347 57.472832 
L 226.558557 65.295223 
L 227.981767 82.735266 
L 229.404977 90.362126 
L 230.828187 87.632679 
L 232.251397 97.590236 
L 233.674607 83.787309 
L 235.097817 47.590784 
L 236.521027 40.725007 
L 237.944237 37.257 
L 239.367447 37.460596 
L 240.790657 47.869735 
L 242.213867 64.919748 
L 243.637077 60.313227 
L 245.060287 39.19648 
L 246.483497 39.311577 
L 247.906707 39.083203 
L 249.329918 48.901937 
L 250.753128 56.861386 
L 252.176338 80.642297 
L 253.599548 91.028012 
L 255.022758 83.346373 
L 256.445968 81.136298 
L 257.869178 84.483777 
L 259.292388 101.103328 
L 260.715598 110.725981 
L 262.138808 125.469413 
L 263.562018 121.659566 
L 264.985228 92.609067 
L 266.408438 82.114613 
L 267.831648 68.845152 
L 269.254858 58.597181 
L 270.678068 63.495838 
L 272.101278 87.78814 
L 273.524488 88.135368 
L 274.947699 75.297444 
L 276.370909 78.029347 
L 277.794119 89.73421 
L 279.217329 108.446559 
L 280.640539 113.012126 
L 282.063749 126.628937 
L 283.486959 129.014684 
L 284.910169 127.956841 
L 287.756589 146.584558 
L 289.179799 147.110714 
L 290.603009 126.62605 
L 292.026219 133.721599 
L 293.449429 142.30605 
L 294.872639 142.947601 
L 296.295849 134.234706 
L 297.719059 130.946595 
L 299.142269 128.511049 
L 300.56548 131.001228 
L 301.98869 158.217345 
L 303.4119 155.298939 
L 304.83511 128.489213 
L 306.25832 114.819106 
L 307.68153 121.14467 
L 309.10474 133.728153 
L 310.52795 131.706699 
L 311.95116 145.353428 
L 313.37437 145.720059 
L 314.79758 128.252068 
L 316.22079 139.516143 
L 317.644 144.262341 
L 319.06721 149.539141 
L 320.49042 153.51353 
L 321.91363 163.914823 
L 323.33684 169.153452 
L 324.760051 161.512169 
L 327.606471 143.538038 
L 329.029681 145.598883 
L 330.452891 148.747821 
L 331.876101 167.685482 
L 333.299311 163.977881 
L 334.722521 153.992549 
L 336.145731 167.482686 
L 338.992151 184.700042 
L 340.415361 195.105802 
L 341.838571 204.166104 
L 343.261781 200.029483 
L 344.684991 177.074907 
L 346.108201 170.569712 
L 347.531411 166.24112 
L 348.954621 157.387976 
L 350.377832 161.300381 
L 351.801042 179.77459 
L 353.224252 191.572495 
L 354.647462 181.257464 
L 356.070672 167.690062 
L 357.493882 171.38576 
L 358.917092 169.002052 
L 360.340302 178.476101 
L 361.763512 180.533507 
L 363.186722 172.675753 
L 364.609932 159.00335 
L 366.033142 129.597883 
L 367.456352 116.866544 
L 368.879562 120.251273 
L 370.302772 142.58772 
L 371.725982 158.966447 
L 373.149192 156.641447 
L 374.572402 152.418949 
L 377.418823 133.803388 
L 378.842033 133.613072 
L 380.265243 141.335455 
L 381.688453 158.922389 
L 383.111663 178.948582 
L 384.534873 179.853958 
L 385.958083 165.066584 
L 387.381293 168.726027 
L 388.804503 164.791426 
L 390.227713 167.486542 
L 391.650923 189.410268 
L 393.074133 191.941527 
L 394.497343 170.845197 
L 395.920553 162.47946 
L 397.343763 162.575826 
L 398.766973 179.949981 
L 400.190184 192.364219 
L 401.613394 211.574495 
L 403.036604 214.619457 
L 404.459814 202.630498 
L 405.883024 205.730918 
L 407.306234 212.339625 
L 408.729444 213.452095 
L 410.152654 210.846075 
L 411.575864 217.280372 
L 412.999074 216.156868 
L 414.422284 205.712239 
L 415.845494 210.743008 
L 417.268704 209.158922 
L 418.691914 220.28473 
L 420.115124 218.9224 
L 421.538334 228.716551 
L 422.961544 230.577703 
L 424.384754 217.048125 
L 425.807965 216.850208 
L 427.231175 215.861131 
L 428.654385 213.746452 
L 430.077595 217.99544 
L 431.500805 230.644265 
L 432.924015 231.640187 
L 434.347225 227.690697 
L 435.770435 213.022418 
L 437.193645 209.292504 
L 438.616855 209.735921 
L 440.040065 211.86294 
L 441.463275 224.629612 
L 442.886485 229.947 
L 444.309695 217.94385 
L 445.732905 213.703958 
L 447.156115 214.821735 
L 448.579325 223.458655 
L 450.002535 221.17455 
L 451.425746 225.972538 
L 452.848956 227.143658 
L 454.272166 216.540807 
L 455.695376 217.608804 
L 457.118586 216.270814 
L 458.541796 219.288109 
L 459.965006 222.664978 
L 461.388216 231.848982 
L 462.811426 230.774992 
L 464.234636 212.769026 
L 465.657846 211.889101 
L 467.081056 213.212316 
L 468.504266 211.993761 
L 469.927476 217.127286 
L 471.350686 224.460695 
L 472.773896 223.692917 
L 474.197106 211.078655 
L 475.620316 210.878394 
L 477.043527 210.131362 
L 478.466737 211.236661 
L 479.889947 215.377029 
L 481.313157 228.675607 
L 482.736367 228.273164 
L 484.159577 212.666129 
L 485.582787 211.197036 
L 487.005997 211.398932 
L 488.429207 207.025007 
L 489.852417 209.074896 
L 491.275627 220.350285 
L 492.698837 224.131664 
L 494.122047 211.581039 
L 495.545257 214.789524 
L 496.968467 216.943136 
L 498.391677 215.806993 
L 499.814887 219.953486 
L 501.238098 232.349055 
L 502.661308 230.991997 
L 504.084518 213.341306 
L 505.507728 211.619666 
L 506.930938 211.732098 
L 508.354148 213.788311 
L 509.777358 219.479274 
L 511.200568 230.992148 
L 512.623778 233.83428 
L 514.046988 221.265729 
L 515.470198 221.146609 
L 516.893408 220.343825 
L 518.316618 223.183676 
L 519.739828 225.647865 
L 521.163038 231.348007 
L 522.586248 229.125495 
L 524.009458 219.377575 
L 525.432668 219.252186 
L 526.855879 220.697494 
L 528.279089 214.248512 
L 529.702299 213.599424 
L 531.125509 223.688443 
L 532.548719 225.049187 
L 533.971929 219.871246 
L 535.395139 223.531983 
L 536.818349 220.024285 
L 538.241559 221.008287 
L 539.664769 223.103922 
L 541.087979 229.016816 
L 542.511189 226.359306 
L 543.934399 213.678917 
L 545.357609 212.46486 
L 546.780819 214.719957 
L 548.204029 215.500406 
L 549.627239 219.237871 
L 551.050449 230.652654 
L 552.47366 230.352616 
L 553.89687 216.532401 
L 555.32008 217.573071 
L 556.74329 218.001269 
L 558.1665 212.70172 
L 559.58971 210.589096 
L 561.01292 217.499243 
L 562.43613 214.499152 
L 563.85934 202.373163 
L 565.28255 207.684365 
L 566.70576 211.229147 
L 568.12897 207.870193 
L 569.55218 210.748589 
L 570.97539 216.776237 
L 572.3986 215.170349 
L 573.82181 203.36387 
L 575.24502 200.559398 
L 576.668231 202.852434 
L 578.091441 195.019414 
L 579.514651 190.792125 
L 580.937861 197.100654 
L 582.361071 194.118749 
L 583.784281 175.001032 
L 585.207491 173.423164 
L 586.630701 176.947376 
L 588.053911 181.1317 
L 589.477121 186.769525 
L 590.900331 200.691935 
L 592.323541 201.190222 
L 593.746751 185.838336 
L 595.169961 185.917137 
L 596.593171 188.143196 
L 598.016381 191.308195 
L 599.439591 199.443199 
L 600.862801 209.790674 
L 602.286012 207.594012 
L 603.709222 202.35264 
L 605.132432 198.995419 
L 606.555642 184.768931 
L 607.978852 182.005667 
L 609.402062 176.16022 
L 610.825272 186.022635 
L 612.248482 184.448525 
L 613.671692 165.227499 
L 615.094902 175.989342 
L 616.518112 183.916439 
L 619.364532 188.60672 
L 620.787742 203.6321 
L 622.210952 205.355987 
L 623.634162 195.9733 
L 625.057372 192.273937 
L 626.480582 186.257938 
L 627.903793 186.59534 
L 629.327003 189.413672 
L 630.750213 198.789326 
L 632.173423 190.650701 
L 633.596633 167.826644 
L 635.019843 172.667211 
L 636.443053 181.089483 
L 637.866263 179.004119 
L 639.289473 178.329178 
L 640.712683 179.960406 
L 642.135893 178.04309 
L 643.559103 153.817058 
L 644.982313 153.953259 
L 646.405523 156.968959 
L 647.828733 155.212634 
L 649.251943 151.341765 
L 650.675153 172.655158 
L 652.098363 162.361168 
L 653.521574 128.4663 
L 654.944784 122.029854 
L 656.367994 118.132097 
L 657.791204 124.541026 
L 659.214414 135.450709 
L 660.637624 143.853379 
L 662.060834 133.85593 
L 663.484044 109.756187 
L 664.907254 109.332243 
L 666.330464 109.464388 
L 667.753674 113.210578 
L 669.176884 119.316432 
L 670.600094 134.229836 
L 672.023304 132.94929 
L 673.446514 110.535433 
L 674.869724 121.572245 
L 676.292934 136.942657 
L 677.716145 149.184804 
L 679.139355 147.686018 
L 680.562565 144.40514 
L 681.985775 133.374685 
L 683.408985 112.427032 
L 684.832195 106.525161 
L 686.255405 88.223036 
L 687.678615 80.88212 
L 689.101825 77.251486 
L 690.525035 89.115084 
L 691.948245 93.924408 
L 693.371455 90.298731 
L 694.794665 100.255797 
L 696.217875 106.769108 
L 697.641085 111.192655 
L 699.064295 104.862743 
L 700.487505 105.001736 
L 701.910715 100.891673 
L 703.333926 87.727191 
L 704.757136 86.651855 
L 706.180346 92.451428 
L 707.603556 95.437757 
L 709.026766 90.259384 
L 710.449976 103.72027 
L 711.873186 101.174237 
L 713.296396 78.059737 
L 714.719606 78.97486 
L 716.142816 90.341076 
L 717.566026 110.387296 
L 718.989236 127.900422 
L 720.412446 150.455624 
L 721.835656 160.947842 
L 724.682076 148.076371 
L 726.105286 128.123066 
L 727.528496 116.701004 
L 728.951707 111.909156 
L 730.374917 134.761247 
L 731.798127 160.022571 
L 733.221337 154.730531 
L 734.644547 133.882996 
L 736.067757 134.323931 
L 737.490967 132.913671 
L 738.914177 135.539455 
L 740.337387 138.877341 
L 741.760597 123.876749 
L 743.183807 99.834104 
L 744.607017 101.37192 
L 746.030227 103.448391 
L 747.453437 97.421205 
L 748.876647 101.479852 
L 750.299857 111.974845 
L 751.723067 100.260531 
L 753.146278 92.573057 
L 754.569488 99.321856 
L 755.992698 92.75917 
L 757.415908 100.740533 
L 758.839118 92.738509 
L 760.262328 103.203242 
L 761.685538 99.891717 
L 763.108748 91.615088 
L 764.531958 108.084749 
L 765.955168 134.022449 
L 767.378378 134.79353 
L 768.801588 130.303151 
L 770.224798 139.516509 
L 771.648008 147.371151 
L 773.071218 138.524065 
L 774.494428 122.000143 
L 775.917638 127.472208 
L 777.340848 111.454775 
L 778.764059 104.254016 
L 780.187269 104.322819 
L 781.610479 93.590474 
L 783.033689 64.001607 
L 784.456899 54.253738 
L 785.880109 51.740418 
L 787.303319 50.89418 
L 788.726529 63.077187 
L 790.149739 86.689544 
L 791.572949 95.400568 
L 792.996159 80.575732 
L 792.996159 80.575732 
" clip-path="url(#p42456c4e09)" style="fill: none; stroke: #4c72b0; stroke-width: 1.2; stroke-linecap: round"/>
   </g>
   <g id="line2d_13">
    <path d="M 82.814341 194.437386 
L 84.237551 192.24279 
L 87.083971 176.923577 
L 88.507181 173.728247 
L 89.930391 176.816166 
L 91.353601 183.049571 
L 92.776811 186.918796 
L 94.200021 184.691405 
L 97.046441 169.313323 
L 98.469652 166.091937 
L 99.892862 169.156063 
L 101.316072 175.367945 
L 102.739282 179.217924 
L 104.162492 176.973567 
L 107.008912 161.568421 
L 108.432122 158.336944 
L 109.855332 161.393276 
L 111.278542 167.599665 
L 112.701752 171.446452 
L 114.124962 169.201207 
L 116.971382 153.801193 
L 118.394592 150.575734 
L 119.817802 153.640385 
L 121.241012 159.85739 
L 122.664222 163.717087 
L 124.087433 161.487042 
L 126.933853 146.124282 
L 128.357063 142.920865 
L 129.780273 146.009826 
L 131.203483 152.253402 
L 132.626693 156.141924 
L 134.049903 153.942949 
L 136.896323 138.649023 
L 138.319533 135.483352 
L 139.742743 138.612262 
L 141.165953 144.89798 
L 142.589163 148.830822 
L 144.012373 146.678335 
L 146.858793 131.483827 
L 148.282004 128.371057 
L 149.705214 131.554977 
L 151.128424 137.897795 
L 152.551634 141.889812 
L 153.974844 139.798556 
L 156.821264 124.732608 
L 158.244474 121.687128 
L 159.667684 124.940319 
L 161.090894 131.354368 
L 162.514104 135.419555 
L 163.937314 133.403386 
L 166.783734 118.493275 
L 168.206944 115.528499 
L 169.630154 118.864218 
L 171.053364 125.362595 
L 172.476574 129.513887 
L 173.899785 127.585572 
L 176.746205 112.856315 
L 178.169415 109.984485 
L 179.592625 113.414792 
L 181.015835 120.009373 
L 182.439045 124.258455 
L 183.862255 122.429487 
L 186.708675 107.903478 
L 188.131885 105.135488 
L 189.555095 108.671073 
L 190.978305 115.372337 
L 192.401515 119.729476 
L 193.824725 118.009907 
L 196.671145 103.706593 
L 198.094355 101.051832 
L 199.517566 104.701856 
L 200.940776 111.518736 
L 202.363986 115.992632 
L 203.787196 114.390928 
L 206.633616 100.326525 
L 208.056826 97.79274 
L 209.480036 101.564706 
L 210.903246 108.504457 
L 212.326456 113.102117 
L 213.749666 111.625034 
L 216.596086 97.812294 
L 218.019296 95.405477 
L 219.442506 99.305118 
L 220.865716 106.373214 
L 222.288926 111.09985 
L 223.712137 109.752337 
L 226.558557 96.200363 
L 227.981767 93.924664 
L 229.404977 97.955863 
L 230.828187 105.155916 
L 232.251397 110.01487 
L 233.674607 108.799996 
L 236.521027 95.514108 
L 237.944237 93.371778 
L 239.367447 97.536508 
L 240.790657 104.870217 
L 242.213867 109.862912 
L 243.637077 108.781824 
L 246.483497 95.763483 
L 247.906707 93.754836 
L 249.329918 98.053135 
L 250.753128 105.52026 
L 252.176338 110.646179 
L 253.599548 109.698082 
L 256.445968 96.944871 
L 257.869178 95.068282 
L 259.292388 99.498252 
L 260.715598 107.096619 
L 262.138808 112.353312 
L 263.562018 111.535484 
L 266.408438 99.041138 
L 267.831648 97.29307 
L 269.254858 101.8509 
L 270.678068 109.576431 
L 272.101278 114.959553 
L 273.524488 114.267382 
L 276.370909 102.021884 
L 277.794119 100.396933 
L 279.217329 105.076961 
L 280.640539 112.923733 
L 282.063749 118.427105 
L 283.486959 117.854156 
L 286.333379 105.84388 
L 287.756589 104.334858 
L 289.179799 109.129648 
L 290.603009 117.089982 
L 292.026219 122.70568 
L 293.449429 122.24379 
L 296.295849 110.451697 
L 297.719059 109.049734 
L 299.142269 113.950187 
L 300.56548 122.014754 
L 301.98869 127.733228 
L 303.4119 127.372622 
L 306.25832 115.77851 
L 307.68153 114.473185 
L 309.10474 119.468667 
L 310.52795 127.62663 
L 311.95116 133.436835 
L 313.37437 133.166272 
L 316.22079 121.747066 
L 317.644 120.526555 
L 319.06721 125.605058 
L 320.49042 133.844221 
L 321.91363 139.733786 
L 323.33684 139.540716 
L 326.183261 128.270807 
L 327.606471 127.122056 
L 329.029681 132.270364 
L 330.452891 140.577358 
L 331.876101 146.532758 
L 333.299311 146.403508 
L 336.145731 135.255122 
L 337.568941 134.164036 
L 338.992151 139.367923 
L 340.415361 147.728393 
L 341.838571 153.735149 
L 343.261781 153.655122 
L 344.684991 148.343311 
L 346.108201 142.59872 
L 347.531411 141.550368 
L 348.954621 146.794801 
L 350.377832 155.193616 
L 351.801042 161.236506 
L 353.224252 161.190389 
L 354.647462 155.910256 
L 356.070672 150.1951 
L 357.493882 149.173933 
L 358.917092 154.443291 
L 360.340302 162.864765 
L 361.763512 168.92804 
L 363.186722 168.900029 
L 364.609932 163.635718 
L 366.033142 157.934095 
L 367.456352 156.924167 
L 368.879562 162.202468 
L 370.302772 170.630586 
L 371.725982 176.698204 
L 373.149192 176.672233 
L 374.572402 171.407659 
L 375.995613 165.70347 
L 377.418823 164.688674 
L 378.842033 169.959806 
L 380.265243 178.378456 
L 381.688453 184.43431 
L 383.111663 184.394284 
L 384.534873 179.113366 
L 385.958083 173.390549 
L 387.381293 172.354848 
L 388.804503 177.602803 
L 390.227713 185.996012 
L 391.650923 192.024167 
L 393.074133 191.954193 
L 394.497343 186.641086 
L 395.920553 180.883851 
L 397.343763 179.81151 
L 398.766973 185.020617 
L 400.190184 193.372778 
L 401.613394 199.3577 
L 403.036604 199.24232 
L 404.459814 193.881649 
L 405.883024 188.074702 
L 407.306234 186.95052 
L 408.729444 192.105669 
L 410.152654 200.401773 
L 411.575864 206.328556 
L 412.999074 206.152971 
L 414.422284 200.730046 
L 415.845494 194.858817 
L 417.268704 193.668342 
L 418.691914 198.755208 
L 420.115124 206.981059 
L 421.538334 212.835639 
L 422.961544 212.585923 
L 424.384754 207.08696 
L 425.807965 201.13781 
L 427.231175 199.867553 
L 428.654385 204.8728 
L 430.077595 213.01522 
L 431.500805 218.78458 
L 432.924015 218.447881 
L 434.347225 212.860199 
L 435.770435 206.820618 
L 437.193645 205.458248 
L 438.616855 210.369724 
L 440.040065 218.416744 
L 441.463275 224.089103 
L 442.886485 223.653832 
L 445.732905 211.824827 
L 447.156115 210.359346 
L 448.579325 215.166259 
L 450.002535 223.107295 
L 451.425746 228.672281 
L 452.848956 228.128277 
L 455.695376 216.077863 
L 457.118586 214.49977 
L 458.541796 219.192845 
L 459.965006 227.018849 
L 461.388216 232.467644 
L 462.811426 231.806325 
L 465.657846 219.518045 
L 467.081056 217.819473 
L 468.504266 222.391085 
L 469.927476 230.094678 
L 471.350686 235.42015 
L 472.773896 234.634634 
L 475.620316 222.095483 
L 477.043527 220.270311 
L 478.466737 224.714596 
L 479.889947 232.290174 
L 481.313157 237.486982 
L 482.736367 236.572188 
L 485.582787 223.772797 
L 487.005997 221.81674 
L 488.429207 226.129682 
L 489.852417 233.573499 
L 491.275627 238.638163 
L 492.698837 237.590886 
L 495.545257 224.525662 
L 496.968467 222.436333 
L 498.391677 226.615821 
L 499.814887 233.926038 
L 501.238098 238.857 
L 502.661308 237.675955 
L 505.507728 224.343158 
L 506.930938 222.120105 
L 508.354148 226.165962 
L 509.777358 233.342682 
L 511.200568 238.140318 
L 512.623778 236.82616 
L 515.470198 223.227934 
L 516.893408 220.872642 
L 518.316618 224.786629 
L 519.739828 231.831888 
L 521.163038 236.498512 
L 522.586248 235.053827 
L 525.432668 221.196162 
L 526.855879 218.712034 
L 528.279089 222.497826 
L 529.702299 229.415568 
L 531.125509 233.955391 
L 532.548719 232.384659 
L 535.395139 218.277308 
L 536.818349 215.669617 
L 538.241559 219.332747 
L 539.664769 226.128765 
L 541.087979 230.547837 
L 542.511189 228.857365 
L 545.357609 214.513704 
L 546.780819 211.789513 
L 548.204029 215.337293 
L 549.627239 222.019145 
L 551.050449 226.325269 
L 552.47366 224.5231 
L 555.32008 209.959931 
L 556.74329 207.127994 
L 558.1665 210.569409 
L 559.58971 217.146309 
L 561.01292 221.348925 
L 562.43613 219.444722 
L 565.28255 204.68203 
L 566.70576 201.752663 
L 568.12897 205.098241 
L 569.55218 211.580925 
L 570.97539 215.690974 
L 572.3986 213.695881 
L 575.24502 198.756545 
L 576.668231 195.741477 
L 578.091441 199.003135 
L 579.514651 205.403705 
L 580.937861 209.433471 
L 582.361071 207.359949 
L 585.207491 192.26941 
L 586.630701 189.181613 
L 588.053911 192.372486 
L 589.477121 198.704235 
L 590.900331 202.667166 
L 592.323541 200.528813 
L 595.169961 185.314706 
L 596.593171 182.168206 
L 598.016381 185.302454 
L 599.439591 191.579675 
L 600.862801 195.490187 
L 602.286012 193.301543 
L 605.132432 177.993292 
L 606.555642 174.802968 
L 607.978852 177.895575 
L 609.402062 184.133348 
L 610.825272 188.00662 
L 612.248482 185.782953 
L 615.094902 170.411349 
L 616.518112 167.192714 
L 617.941322 170.259265 
L 619.364532 176.473245 
L 620.787742 180.324994 
L 622.210952 178.08208 
L 625.057372 162.678834 
L 626.480582 159.447812 
L 627.903793 162.504272 
L 629.327003 168.710458 
L 630.750213 172.556714 
L 632.173423 170.310609 
L 635.019843 154.907888 
L 636.443053 151.680584 
L 637.866263 154.743062 
L 639.289473 160.957567 
L 640.712683 164.814438 
L 642.135893 162.581243 
L 644.982313 147.21121 
L 646.405523 144.003672 
L 647.828733 147.088193 
L 649.251943 153.327008 
L 650.675153 157.210451 
L 652.098363 155.00608 
L 654.944784 139.700421 
L 656.367994 136.528414 
L 657.791204 139.650679 
L 659.214414 145.929444 
L 660.637624 149.855029 
L 662.060834 147.694979 
L 664.907254 132.484447 
L 666.330464 129.363218 
L 667.753674 132.538385 
L 669.176884 138.872159 
L 670.600094 142.854844 
L 672.023304 140.753969 
L 674.869724 125.667938 
L 676.292934 122.611999 
L 677.716145 125.854456 
L 679.139355 132.257501 
L 680.562565 136.311417 
L 681.985775 134.283712 
L 684.832195 119.34975 
L 686.255405 116.372666 
L 687.678615 119.695827 
L 689.101825 126.1814 
L 690.525035 130.319644 
L 691.948245 128.378044 
L 694.794665 113.621515 
L 696.217875 110.735706 
L 697.641085 114.151813 
L 699.064295 120.731974 
L 700.487505 124.966422 
L 701.910715 123.122611 
L 704.757136 108.566304 
L 706.180346 105.782869 
L 707.603556 109.302816 
L 709.026766 115.988255 
L 710.449976 120.329386 
L 711.873186 118.593633 
L 714.719606 104.257434 
L 716.142816 101.585984 
L 717.566026 105.21916 
L 718.989236 112.019039 
L 720.412446 116.475785 
L 721.835656 114.856789 
L 724.682076 100.757391 
L 726.105286 98.205916 
L 727.528496 101.960068 
L 728.951707 108.881888 
L 730.374917 113.461506 
L 731.798127 111.966273 
L 734.644547 98.116938 
L 736.067757 95.691685 
L 737.490967 99.572805 
L 738.914177 106.6223 
L 740.337387 111.330263 
L 741.760597 109.964007 
L 744.607017 96.374365 
L 746.030227 94.079753 
L 747.453437 98.091992 
L 748.876647 105.273045 
L 750.299857 110.112965 
L 751.723067 108.879027 
L 754.569488 95.554947 
L 755.992698 93.393499 
L 757.415908 97.539106 
L 758.839118 104.85369 
L 760.262328 109.827266 
L 761.685538 108.727069 
L 764.531958 95.670565 
L 765.955168 93.642874 
L 767.378378 97.922164 
L 768.801588 105.370317 
L 770.224798 110.477309 
L 771.648008 109.510336 
L 774.494428 96.719543 
L 775.917638 94.824262 
L 777.340848 99.23561 
L 778.764059 106.815434 
L 780.187269 112.053668 
L 781.610479 111.217469 
L 784.456899 98.686669 
L 785.880109 96.920529 
L 787.303319 101.460398 
L 788.726529 109.168083 
L 790.149739 114.53348 
L 791.572949 113.82371 
L 792.996159 107.89396 
L 792.996159 107.89396 
" clip-path="url(#p42456c4e09)" style="fill: none; stroke: #dd8452; stroke-width: 1.2; stroke-linecap: round"/>
   </g>
   <g id="patch_3">
    <path d="M 47.30525 248.937 
L 47.30525 27.177 
" style="fill: none; stroke: #cccccc; stroke-linejoin: miter; stroke-linecap: square"/>
   </g>
   <g id="patch_4">
    <path d="M 828.50525 248.937 
L 828.50525 27.177 
" style="fill: none; stroke: #cccccc; stroke-linejoin: miter; stroke-linecap: square"/>
   </g>
   <g id="patch_5">
    <path d="M 47.30525 248.937 
L 828.50525 248.937 
" style="fill: none; stroke: #cccccc; stroke-linejoin: miter; stroke-linecap: square"/>
   </g>
   <g id="patch_6">
    <path d="M 47.30525 27.177 
L 828.50525 27.177 
" style="fill: none; stroke: #cccccc; stroke-linejoin: miter; stroke-linecap: square"/>
   </g>
   <g id="text_15">
    <!-- Yearly and weekly seasonality of consumption data -->
    <g style="fill: #262626" transform="translate(221.06975 21.177) scale(0.192 -0.192)">
     <defs>
      <path id="ArialMT-59" d="M 1784 0 
L 1784 1941 
L 19 4581 
L 756 4581 
L 1659 3200 
Q 1909 2813 2125 2425 
Q 2331 2784 2625 3234 
L 3513 4581 
L 4219 4581 
L 2391 1941 
L 2391 0 
L 1784 0 
z
" transform="scale(0.015625)"/>
      <path id="ArialMT-72" d="M 416 0 
L 416 3319 
L 922 3319 
L 922 2816 
Q 1116 3169 1280 3281 
Q 1444 3394 1641 3394 
Q 1925 3394 2219 3213 
L 2025 2691 
Q 1819 2813 1613 2813 
Q 1428 2813 1281 2702 
Q 1134 2591 1072 2394 
Q 978 2094 978 1738 
L 978 0 
L 416 0 
z
" transform="scale(0.015625)"/>
      <path id="ArialMT-6c" d="M 409 0 
L 409 4581 
L 972 4581 
L 972 0 
L 409 0 
z
" transform="scale(0.015625)"/>
      <path id="ArialMT-77" d="M 1034 0 
L 19 3319 
L 600 3319 
L 1128 1403 
L 1325 691 
Q 1338 744 1497 1375 
L 2025 3319 
L 2603 3319 
L 3100 1394 
L 3266 759 
L 3456 1400 
L 4025 3319 
L 4572 3319 
L 3534 0 
L 2950 0 
L 2422 1988 
L 2294 2553 
L 1622 0 
L 1034 0 
z
" transform="scale(0.015625)"/>
      <path id="ArialMT-6b" d="M 425 0 
L 425 4581 
L 988 4581 
L 988 1969 
L 2319 3319 
L 3047 3319 
L 1778 2088 
L 3175 0 
L 2481 0 
L 1384 1697 
L 988 1316 
L 988 0 
L 425 0 
z
" transform="scale(0.015625)"/>
      <path id="ArialMT-66" d="M 556 0 
L 556 2881 
L 59 2881 
L 59 3319 
L 556 3319 
L 556 3672 
Q 556 4006 616 4169 
Q 697 4388 901 4523 
Q 1106 4659 1475 4659 
Q 1713 4659 2000 4603 
L 1916 4113 
Q 1741 4144 1584 4144 
Q 1328 4144 1222 4034 
Q 1116 3925 1116 3625 
L 1116 3319 
L 1763 3319 
L 1763 2881 
L 1116 2881 
L 1116 0 
L 556 0 
z
" transform="scale(0.015625)"/>
      <path id="ArialMT-63" d="M 2588 1216 
L 3141 1144 
Q 3050 572 2676 248 
Q 2303 -75 1759 -75 
Q 1078 -75 664 370 
Q 250 816 250 1647 
Q 250 2184 428 2587 
Q 606 2991 970 3192 
Q 1334 3394 1763 3394 
Q 2303 3394 2647 3120 
Q 2991 2847 3088 2344 
L 2541 2259 
Q 2463 2594 2264 2762 
Q 2066 2931 1784 2931 
Q 1359 2931 1093 2626 
Q 828 2322 828 1663 
Q 828 994 1084 691 
Q 1341 388 1753 388 
Q 2084 388 2306 591 
Q 2528 794 2588 1216 
z
" transform="scale(0.015625)"/>
     </defs>
     <use xlink:href="#ArialMT-59"/>
     <use xlink:href="#ArialMT-65" x="57.574219"/>
     <use xlink:href="#ArialMT-61" x="113.189453"/>
     <use xlink:href="#ArialMT-72" x="168.804688"/>
     <use xlink:href="#ArialMT-6c" x="202.105469"/>
     <use xlink:href="#ArialMT-79" x="224.322266"/>
     <use xlink:href="#ArialMT-20" x="274.322266"/>
     <use xlink:href="#ArialMT-61" x="302.105469"/>
     <use xlink:href="#ArialMT-6e" x="357.720703"/>
     <use xlink:href="#ArialMT-64" x="413.335938"/>
     <use xlink:href="#ArialMT-20" x="468.951172"/>
     <use xlink:href="#ArialMT-77" x="496.734375"/>
     <use xlink:href="#ArialMT-65" x="568.951172"/>
     <use xlink:href="#ArialMT-65" x="624.566406"/>
     <use xlink:href="#ArialMT-6b" x="680.181641"/>
     <use xlink:href="#ArialMT-6c" x="730.181641"/>
     <use xlink:href="#ArialMT-79" x="752.398438"/>
     <use xlink:href="#ArialMT-20" x="802.398438"/>
     <use xlink:href="#ArialMT-73" x="830.181641"/>
     <use xlink:href="#ArialMT-65" x="880.181641"/>
     <use xlink:href="#ArialMT-61" x="935.796875"/>
     <use xlink:href="#ArialMT-73" x="991.412109"/>
     <use xlink:href="#ArialMT-6f" x="1041.412109"/>
     <use xlink:href="#ArialMT-6e" x="1097.027344"/>
     <use xlink:href="#ArialMT-61" x="1152.642578"/>
     <use xlink:href="#ArialMT-6c" x="1208.257812"/>
     <use xlink:href="#ArialMT-69" x="1230.474609"/>
     <use xlink:href="#ArialMT-74" x="1252.691406"/>
     <use xlink:href="#ArialMT-79" x="1280.474609"/>
     <use xlink:href="#ArialMT-20" x="1330.474609"/>
     <use xlink:href="#ArialMT-6f" x="1358.257812"/>
     <use xlink:href="#ArialMT-66" x="1413.873047"/>
     <use xlink:href="#ArialMT-20" x="1441.65625"/>
     <use xlink:href="#ArialMT-63" x="1469.439453"/>
     <use xlink:href="#ArialMT-6f" x="1519.439453"/>
     <use xlink:href="#ArialMT-6e" x="1575.054688"/>
     <use xlink:href="#ArialMT-73" x="1630.669922"/>
     <use xlink:href="#ArialMT-75" x="1680.669922"/>
     <use xlink:href="#ArialMT-6d" x="1736.285156"/>
     <use xlink:href="#ArialMT-70" x="1819.585938"/>
     <use xlink:href="#ArialMT-74" x="1875.201172"/>
     <use xlink:href="#ArialMT-69" x="1902.984375"/>
     <use xlink:href="#ArialMT-6f" x="1925.201172"/>
     <use xlink:href="#ArialMT-6e" x="1980.816406"/>
     <use xlink:href="#ArialMT-20" x="2036.431641"/>
     <use xlink:href="#ArialMT-64" x="2064.214844"/>
     <use xlink:href="#ArialMT-61" x="2119.830078"/>
     <use xlink:href="#ArialMT-74" x="2175.445312"/>
     <use xlink:href="#ArialMT-61" x="2203.228516"/>
    </g>
   </g>
   <g id="legend_1">
    <g id="patch_7">
     <path d="M 671.81025 240.137 
L 816.18525 240.137 
Q 819.70525 240.137 819.70525 236.617 
L 819.70525 188.5855 
Q 819.70525 185.0655 816.18525 185.0655 
L 671.81025 185.0655 
Q 668.29025 185.0655 668.29025 188.5855 
L 668.29025 236.617 
Q 668.29025 240.137 671.81025 240.137 
z
" style="fill: #ffffff; opacity: 0.8; stroke: #cccccc; stroke-width: 0.8; stroke-linejoin: miter"/>
    </g>
    <g id="line2d_14">
     <path d="M 675.33025 198.54325 
L 692.93025 198.54325 
L 710.53025 198.54325 
" style="fill: none; stroke: #4c72b0; stroke-width: 1.2; stroke-linecap: round"/>
    </g>
    <g id="text_16">
     <!-- Actual data -->
     <g style="fill: #262626" transform="translate(724.61025 204.70325) scale(0.176 -0.176)">
      <defs>
       <path id="ArialMT-41" d="M -9 0 
L 1750 4581 
L 2403 4581 
L 4278 0 
L 3588 0 
L 3053 1388 
L 1138 1388 
L 634 0 
L -9 0 
z
M 1313 1881 
L 2866 1881 
L 2388 3150 
Q 2169 3728 2063 4100 
Q 1975 3659 1816 3225 
L 1313 1881 
z
" transform="scale(0.015625)"/>
      </defs>
      <use xlink:href="#ArialMT-41"/>
      <use xlink:href="#ArialMT-63" x="66.699219"/>
      <use xlink:href="#ArialMT-74" x="116.699219"/>
      <use xlink:href="#ArialMT-75" x="144.482422"/>
      <use xlink:href="#ArialMT-61" x="200.097656"/>
      <use xlink:href="#ArialMT-6c" x="255.712891"/>
      <use xlink:href="#ArialMT-20" x="277.929688"/>
      <use xlink:href="#ArialMT-64" x="305.712891"/>
      <use xlink:href="#ArialMT-61" x="361.328125"/>
      <use xlink:href="#ArialMT-74" x="416.943359"/>
      <use xlink:href="#ArialMT-61" x="444.726562"/>
     </g>
    </g>
    <g id="line2d_15">
     <path d="M 675.33025 223.439 
L 692.93025 223.439 
L 710.53025 223.439 
" style="fill: none; stroke: #dd8452; stroke-width: 1.2; stroke-linecap: round"/>
    </g>
    <g id="text_17">
     <!-- Model -->
     <g style="fill: #262626" transform="translate(724.61025 229.599) scale(0.176 -0.176)">
      <use xlink:href="#ArialMT-4d"/>
      <use xlink:href="#ArialMT-6f" x="83.300781"/>
      <use xlink:href="#ArialMT-64" x="138.916016"/>
      <use xlink:href="#ArialMT-65" x="194.53125"/>
      <use xlink:href="#ArialMT-6c" x="250.146484"/>
     </g>
    </g>
   </g>
  </g>
 </g>
 <defs>
  <clipPath id="p42456c4e09">
   <rect x="47.30525" y="27.177" width="781.2" height="221.76"/>
  </clipPath>
 </defs>
</svg>
