<?xml version="1.0" encoding="utf-8" standalone="no"?>
<!DOCTYPE svg PUBLIC "-//W3C//DTD SVG 1.1//EN"
  "http://www.w3.org/Graphics/SVG/1.1/DTD/svg11.dtd">
<svg xmlns:xlink="http://www.w3.org/1999/xlink" width="835.70525pt" height="302.31675pt" viewBox="0 0 835.70525 302.31675" xmlns="http://www.w3.org/2000/svg" version="1.1">
 <metadata>
  <rdf:RDF xmlns:dc="http://purl.org/dc/elements/1.1/" xmlns:cc="http://creativecommons.org/ns#" xmlns:rdf="http://www.w3.org/1999/02/22-rdf-syntax-ns#">
   <cc:Work>
    <dc:type rdf:resource="http://purl.org/dc/dcmitype/StillImage"/>
    <dc:date>2023-05-11T10:57:39.526564</dc:date>
    <dc:format>image/svg+xml</dc:format>
    <dc:creator>
     <cc:Agent>
      <dc:title>Matplotlib v3.7.1, https://matplotlib.org/</dc:title>
     </cc:Agent>
    </dc:creator>
   </cc:Work>
  </rdf:RDF>
 </metadata>
 <defs>
  <style type="text/css">*{stroke-linejoin: round; stroke-linecap: butt}</style>
 </defs>
 <g id="figure_1">
  <g id="patch_1">
   <path d="M 0 302.31675 
L 835.70525 302.31675 
L 835.70525 0 
L 0 0 
z
" style="fill: #ffffff"/>
  </g>
  <g id="axes_1">
   <g id="patch_2">
    <path d="M 47.30525 248.703 
L 828.50525 248.703 
L 828.50525 26.943 
L 47.30525 26.943 
z
" style="fill: #ffffff"/>
   </g>
   <g id="matplotlib.axis_1">
    <g id="xtick_1">
     <g id="line2d_1">
      <path d="M 82.814341 248.703 
L 82.814341 26.943 
" clip-path="url(#p7291476724)" style="fill: none; stroke: #cccccc; stroke-width: 0.8; stroke-linecap: round"/>
     </g>
     <g id="text_1">
      <!-- 0 -->
      <g style="fill: #262626" transform="translate(77.920716 269.60075) scale(0.176 -0.176)">
       <defs>
        <path id="ArialMT-30" d="M 266 2259 
Q 266 3072 433 3567 
Q 600 4063 929 4331 
Q 1259 4600 1759 4600 
Q 2128 4600 2406 4451 
Q 2684 4303 2865 4023 
Q 3047 3744 3150 3342 
Q 3253 2941 3253 2259 
Q 3253 1453 3087 958 
Q 2922 463 2592 192 
Q 2263 -78 1759 -78 
Q 1097 -78 719 397 
Q 266 969 266 2259 
z
M 844 2259 
Q 844 1131 1108 757 
Q 1372 384 1759 384 
Q 2147 384 2411 759 
Q 2675 1134 2675 2259 
Q 2675 3391 2411 3762 
Q 2147 4134 1753 4134 
Q 1366 4134 1134 3806 
Q 844 3388 844 2259 
z
" transform="scale(0.015625)"/>
       </defs>
       <use xlink:href="#ArialMT-30"/>
      </g>
     </g>
    </g>
    <g id="xtick_2">
     <g id="line2d_2">
      <path d="M 224.850705 248.703 
L 224.850705 26.943 
" clip-path="url(#p7291476724)" style="fill: none; stroke: #cccccc; stroke-width: 0.8; stroke-linecap: round"/>
     </g>
     <g id="text_2">
      <!-- 200 -->
      <g style="fill: #262626" transform="translate(210.16983 269.60075) scale(0.176 -0.176)">
       <defs>
        <path id="ArialMT-32" d="M 3222 541 
L 3222 0 
L 194 0 
Q 188 203 259 391 
Q 375 700 629 1000 
Q 884 1300 1366 1694 
Q 2113 2306 2375 2664 
Q 2638 3022 2638 3341 
Q 2638 3675 2398 3904 
Q 2159 4134 1775 4134 
Q 1369 4134 1125 3890 
Q 881 3647 878 3216 
L 300 3275 
Q 359 3922 746 4261 
Q 1134 4600 1788 4600 
Q 2447 4600 2831 4234 
Q 3216 3869 3216 3328 
Q 3216 3053 3103 2787 
Q 2991 2522 2730 2228 
Q 2469 1934 1863 1422 
Q 1356 997 1212 845 
Q 1069 694 975 541 
L 3222 541 
z
" transform="scale(0.015625)"/>
       </defs>
       <use xlink:href="#ArialMT-32"/>
       <use xlink:href="#ArialMT-30" x="55.615234"/>
       <use xlink:href="#ArialMT-30" x="111.230469"/>
      </g>
     </g>
    </g>
    <g id="xtick_3">
     <g id="line2d_3">
      <path d="M 366.887068 248.703 
L 366.887068 26.943 
" clip-path="url(#p7291476724)" style="fill: none; stroke: #cccccc; stroke-width: 0.8; stroke-linecap: round"/>
     </g>
     <g id="text_3">
      <!-- 400 -->
      <g style="fill: #262626" transform="translate(352.206193 269.60075) scale(0.176 -0.176)">
       <defs>
        <path id="ArialMT-34" d="M 2069 0 
L 2069 1097 
L 81 1097 
L 81 1613 
L 2172 4581 
L 2631 4581 
L 2631 1613 
L 3250 1613 
L 3250 1097 
L 2631 1097 
L 2631 0 
L 2069 0 
z
M 2069 1613 
L 2069 3678 
L 634 1613 
L 2069 1613 
z
" transform="scale(0.015625)"/>
       </defs>
       <use xlink:href="#ArialMT-34"/>
       <use xlink:href="#ArialMT-30" x="55.615234"/>
       <use xlink:href="#ArialMT-30" x="111.230469"/>
      </g>
     </g>
    </g>
    <g id="xtick_4">
     <g id="line2d_4">
      <path d="M 508.923432 248.703 
L 508.923432 26.943 
" clip-path="url(#p7291476724)" style="fill: none; stroke: #cccccc; stroke-width: 0.8; stroke-linecap: round"/>
     </g>
     <g id="text_4">
      <!-- 600 -->
      <g style="fill: #262626" transform="translate(494.242557 269.60075) scale(0.176 -0.176)">
       <defs>
        <path id="ArialMT-36" d="M 3184 3459 
L 2625 3416 
Q 2550 3747 2413 3897 
Q 2184 4138 1850 4138 
Q 1581 4138 1378 3988 
Q 1113 3794 959 3422 
Q 806 3050 800 2363 
Q 1003 2672 1297 2822 
Q 1591 2972 1913 2972 
Q 2475 2972 2870 2558 
Q 3266 2144 3266 1488 
Q 3266 1056 3080 686 
Q 2894 316 2569 119 
Q 2244 -78 1831 -78 
Q 1128 -78 684 439 
Q 241 956 241 2144 
Q 241 3472 731 4075 
Q 1159 4600 1884 4600 
Q 2425 4600 2770 4297 
Q 3116 3994 3184 3459 
z
M 888 1484 
Q 888 1194 1011 928 
Q 1134 663 1356 523 
Q 1578 384 1822 384 
Q 2178 384 2434 671 
Q 2691 959 2691 1453 
Q 2691 1928 2437 2201 
Q 2184 2475 1800 2475 
Q 1419 2475 1153 2201 
Q 888 1928 888 1484 
z
" transform="scale(0.015625)"/>
       </defs>
       <use xlink:href="#ArialMT-36"/>
       <use xlink:href="#ArialMT-30" x="55.615234"/>
       <use xlink:href="#ArialMT-30" x="111.230469"/>
      </g>
     </g>
    </g>
    <g id="xtick_5">
     <g id="line2d_5">
      <path d="M 650.959795 248.703 
L 650.959795 26.943 
" clip-path="url(#p7291476724)" style="fill: none; stroke: #cccccc; stroke-width: 0.8; stroke-linecap: round"/>
     </g>
     <g id="text_5">
      <!-- 800 -->
      <g style="fill: #262626" transform="translate(636.27892 269.60075) scale(0.176 -0.176)">
       <defs>
        <path id="ArialMT-38" d="M 1131 2484 
Q 781 2613 612 2850 
Q 444 3088 444 3419 
Q 444 3919 803 4259 
Q 1163 4600 1759 4600 
Q 2359 4600 2725 4251 
Q 3091 3903 3091 3403 
Q 3091 3084 2923 2848 
Q 2756 2613 2416 2484 
Q 2838 2347 3058 2040 
Q 3278 1734 3278 1309 
Q 3278 722 2862 322 
Q 2447 -78 1769 -78 
Q 1091 -78 675 323 
Q 259 725 259 1325 
Q 259 1772 486 2073 
Q 713 2375 1131 2484 
z
M 1019 3438 
Q 1019 3113 1228 2906 
Q 1438 2700 1772 2700 
Q 2097 2700 2305 2904 
Q 2513 3109 2513 3406 
Q 2513 3716 2298 3927 
Q 2084 4138 1766 4138 
Q 1444 4138 1231 3931 
Q 1019 3725 1019 3438 
z
M 838 1322 
Q 838 1081 952 856 
Q 1066 631 1291 507 
Q 1516 384 1775 384 
Q 2178 384 2440 643 
Q 2703 903 2703 1303 
Q 2703 1709 2433 1975 
Q 2163 2241 1756 2241 
Q 1359 2241 1098 1978 
Q 838 1716 838 1322 
z
" transform="scale(0.015625)"/>
       </defs>
       <use xlink:href="#ArialMT-38"/>
       <use xlink:href="#ArialMT-30" x="55.615234"/>
       <use xlink:href="#ArialMT-30" x="111.230469"/>
      </g>
     </g>
    </g>
    <g id="xtick_6">
     <g id="line2d_6">
      <path d="M 792.996159 248.703 
L 792.996159 26.943 
" clip-path="url(#p7291476724)" style="fill: none; stroke: #cccccc; stroke-width: 0.8; stroke-linecap: round"/>
     </g>
     <g id="text_6">
      <!-- 1000 -->
      <g style="fill: #262626" transform="translate(773.421659 269.60075) scale(0.176 -0.176)">
       <defs>
        <path id="ArialMT-31" d="M 2384 0 
L 1822 0 
L 1822 3584 
Q 1619 3391 1289 3197 
Q 959 3003 697 2906 
L 697 3450 
Q 1169 3672 1522 3987 
Q 1875 4303 2022 4600 
L 2384 4600 
L 2384 0 
z
" transform="scale(0.015625)"/>
       </defs>
       <use xlink:href="#ArialMT-31"/>
       <use xlink:href="#ArialMT-30" x="55.615234"/>
       <use xlink:href="#ArialMT-30" x="111.230469"/>
       <use xlink:href="#ArialMT-30" x="166.845703"/>
      </g>
     </g>
    </g>
    <g id="text_7">
     <!-- Time (days) -->
     <g style="fill: #262626" transform="translate(387.59675 291.07575) scale(0.192 -0.192)">
      <defs>
       <path id="ArialMT-54" d="M 1659 0 
L 1659 4041 
L 150 4041 
L 150 4581 
L 3781 4581 
L 3781 4041 
L 2266 4041 
L 2266 0 
L 1659 0 
z
" transform="scale(0.015625)"/>
       <path id="ArialMT-69" d="M 425 3934 
L 425 4581 
L 988 4581 
L 988 3934 
L 425 3934 
z
M 425 0 
L 425 3319 
L 988 3319 
L 988 0 
L 425 0 
z
" transform="scale(0.015625)"/>
       <path id="ArialMT-6d" d="M 422 0 
L 422 3319 
L 925 3319 
L 925 2853 
Q 1081 3097 1340 3245 
Q 1600 3394 1931 3394 
Q 2300 3394 2536 3241 
Q 2772 3088 2869 2813 
Q 3263 3394 3894 3394 
Q 4388 3394 4653 3120 
Q 4919 2847 4919 2278 
L 4919 0 
L 4359 0 
L 4359 2091 
Q 4359 2428 4304 2576 
Q 4250 2725 4106 2815 
Q 3963 2906 3769 2906 
Q 3419 2906 3187 2673 
Q 2956 2441 2956 1928 
L 2956 0 
L 2394 0 
L 2394 2156 
Q 2394 2531 2256 2718 
Q 2119 2906 1806 2906 
Q 1569 2906 1367 2781 
Q 1166 2656 1075 2415 
Q 984 2175 984 1722 
L 984 0 
L 422 0 
z
" transform="scale(0.015625)"/>
       <path id="ArialMT-65" d="M 2694 1069 
L 3275 997 
Q 3138 488 2766 206 
Q 2394 -75 1816 -75 
Q 1088 -75 661 373 
Q 234 822 234 1631 
Q 234 2469 665 2931 
Q 1097 3394 1784 3394 
Q 2450 3394 2872 2941 
Q 3294 2488 3294 1666 
Q 3294 1616 3291 1516 
L 816 1516 
Q 847 969 1125 678 
Q 1403 388 1819 388 
Q 2128 388 2347 550 
Q 2566 713 2694 1069 
z
M 847 1978 
L 2700 1978 
Q 2663 2397 2488 2606 
Q 2219 2931 1791 2931 
Q 1403 2931 1139 2672 
Q 875 2413 847 1978 
z
" transform="scale(0.015625)"/>
       <path id="ArialMT-20" transform="scale(0.015625)"/>
       <path id="ArialMT-28" d="M 1497 -1347 
Q 1031 -759 709 28 
Q 388 816 388 1659 
Q 388 2403 628 3084 
Q 909 3875 1497 4659 
L 1900 4659 
Q 1522 4009 1400 3731 
Q 1209 3300 1100 2831 
Q 966 2247 966 1656 
Q 966 153 1900 -1347 
L 1497 -1347 
z
" transform="scale(0.015625)"/>
       <path id="ArialMT-64" d="M 2575 0 
L 2575 419 
Q 2259 -75 1647 -75 
Q 1250 -75 917 144 
Q 584 363 401 755 
Q 219 1147 219 1656 
Q 219 2153 384 2558 
Q 550 2963 881 3178 
Q 1213 3394 1622 3394 
Q 1922 3394 2156 3267 
Q 2391 3141 2538 2938 
L 2538 4581 
L 3097 4581 
L 3097 0 
L 2575 0 
z
M 797 1656 
Q 797 1019 1065 703 
Q 1334 388 1700 388 
Q 2069 388 2326 689 
Q 2584 991 2584 1609 
Q 2584 2291 2321 2609 
Q 2059 2928 1675 2928 
Q 1300 2928 1048 2622 
Q 797 2316 797 1656 
z
" transform="scale(0.015625)"/>
       <path id="ArialMT-61" d="M 2588 409 
Q 2275 144 1986 34 
Q 1697 -75 1366 -75 
Q 819 -75 525 192 
Q 231 459 231 875 
Q 231 1119 342 1320 
Q 453 1522 633 1644 
Q 813 1766 1038 1828 
Q 1203 1872 1538 1913 
Q 2219 1994 2541 2106 
Q 2544 2222 2544 2253 
Q 2544 2597 2384 2738 
Q 2169 2928 1744 2928 
Q 1347 2928 1158 2789 
Q 969 2650 878 2297 
L 328 2372 
Q 403 2725 575 2942 
Q 747 3159 1072 3276 
Q 1397 3394 1825 3394 
Q 2250 3394 2515 3294 
Q 2781 3194 2906 3042 
Q 3031 2891 3081 2659 
Q 3109 2516 3109 2141 
L 3109 1391 
Q 3109 606 3145 398 
Q 3181 191 3288 0 
L 2700 0 
Q 2613 175 2588 409 
z
M 2541 1666 
Q 2234 1541 1622 1453 
Q 1275 1403 1131 1340 
Q 988 1278 909 1158 
Q 831 1038 831 891 
Q 831 666 1001 516 
Q 1172 366 1500 366 
Q 1825 366 2078 508 
Q 2331 650 2450 897 
Q 2541 1088 2541 1459 
L 2541 1666 
z
" transform="scale(0.015625)"/>
       <path id="ArialMT-79" d="M 397 -1278 
L 334 -750 
Q 519 -800 656 -800 
Q 844 -800 956 -737 
Q 1069 -675 1141 -563 
Q 1194 -478 1313 -144 
Q 1328 -97 1363 -6 
L 103 3319 
L 709 3319 
L 1400 1397 
Q 1534 1031 1641 628 
Q 1738 1016 1872 1384 
L 2581 3319 
L 3144 3319 
L 1881 -56 
Q 1678 -603 1566 -809 
Q 1416 -1088 1222 -1217 
Q 1028 -1347 759 -1347 
Q 597 -1347 397 -1278 
z
" transform="scale(0.015625)"/>
       <path id="ArialMT-73" d="M 197 991 
L 753 1078 
Q 800 744 1014 566 
Q 1228 388 1613 388 
Q 2000 388 2187 545 
Q 2375 703 2375 916 
Q 2375 1106 2209 1216 
Q 2094 1291 1634 1406 
Q 1016 1563 777 1677 
Q 538 1791 414 1992 
Q 291 2194 291 2438 
Q 291 2659 392 2848 
Q 494 3038 669 3163 
Q 800 3259 1026 3326 
Q 1253 3394 1513 3394 
Q 1903 3394 2198 3281 
Q 2494 3169 2634 2976 
Q 2775 2784 2828 2463 
L 2278 2388 
Q 2241 2644 2061 2787 
Q 1881 2931 1553 2931 
Q 1166 2931 1000 2803 
Q 834 2675 834 2503 
Q 834 2394 903 2306 
Q 972 2216 1119 2156 
Q 1203 2125 1616 2013 
Q 2213 1853 2448 1751 
Q 2684 1650 2818 1456 
Q 2953 1263 2953 975 
Q 2953 694 2789 445 
Q 2625 197 2315 61 
Q 2006 -75 1616 -75 
Q 969 -75 630 194 
Q 291 463 197 991 
z
" transform="scale(0.015625)"/>
       <path id="ArialMT-29" d="M 791 -1347 
L 388 -1347 
Q 1322 153 1322 1656 
Q 1322 2244 1188 2822 
Q 1081 3291 891 3722 
Q 769 4003 388 4659 
L 791 4659 
Q 1378 3875 1659 3084 
Q 1900 2403 1900 1659 
Q 1900 816 1576 28 
Q 1253 -759 791 -1347 
z
" transform="scale(0.015625)"/>
      </defs>
      <use xlink:href="#ArialMT-54"/>
      <use xlink:href="#ArialMT-69" x="57.333984"/>
      <use xlink:href="#ArialMT-6d" x="79.550781"/>
      <use xlink:href="#ArialMT-65" x="162.851562"/>
      <use xlink:href="#ArialMT-20" x="218.466797"/>
      <use xlink:href="#ArialMT-28" x="246.25"/>
      <use xlink:href="#ArialMT-64" x="279.550781"/>
      <use xlink:href="#ArialMT-61" x="335.166016"/>
      <use xlink:href="#ArialMT-79" x="390.78125"/>
      <use xlink:href="#ArialMT-73" x="440.78125"/>
      <use xlink:href="#ArialMT-29" x="490.78125"/>
     </g>
    </g>
   </g>
   <g id="matplotlib.axis_2">
    <g id="ytick_1">
     <g id="line2d_7">
      <path d="M 47.30525 208.390297 
L 828.50525 208.390297 
" clip-path="url(#p7291476724)" style="fill: none; stroke: #cccccc; stroke-width: 0.8; stroke-linecap: round"/>
     </g>
     <g id="text_8">
      <!-- 0 -->
      <g style="fill: #262626" transform="translate(29.218 214.689172) scale(0.176 -0.176)">
       <use xlink:href="#ArialMT-30"/>
      </g>
     </g>
    </g>
    <g id="ytick_2">
     <g id="line2d_8">
      <path d="M 47.30525 137.79123 
L 828.50525 137.79123 
" clip-path="url(#p7291476724)" style="fill: none; stroke: #cccccc; stroke-width: 0.8; stroke-linecap: round"/>
     </g>
     <g id="text_9">
      <!-- 1 -->
      <g style="fill: #262626" transform="translate(29.218 144.090105) scale(0.176 -0.176)">
       <use xlink:href="#ArialMT-31"/>
      </g>
     </g>
    </g>
    <g id="ytick_3">
     <g id="line2d_9">
      <path d="M 47.30525 67.192163 
L 828.50525 67.192163 
" clip-path="url(#p7291476724)" style="fill: none; stroke: #cccccc; stroke-width: 0.8; stroke-linecap: round"/>
     </g>
     <g id="text_10">
      <!-- 2 -->
      <g style="fill: #262626" transform="translate(29.218 73.491038) scale(0.176 -0.176)">
       <use xlink:href="#ArialMT-32"/>
      </g>
     </g>
    </g>
    <g id="text_11">
     <!-- Natural gas consumption (MWh) -->
     <g style="fill: #262626" transform="translate(21.177 275.463) rotate(-90) scale(0.192 -0.192)">
      <defs>
       <path id="ArialMT-4e" d="M 488 0 
L 488 4581 
L 1109 4581 
L 3516 984 
L 3516 4581 
L 4097 4581 
L 4097 0 
L 3475 0 
L 1069 3600 
L 1069 0 
L 488 0 
z
" transform="scale(0.015625)"/>
       <path id="ArialMT-74" d="M 1650 503 
L 1731 6 
Q 1494 -44 1306 -44 
Q 1000 -44 831 53 
Q 663 150 594 308 
Q 525 466 525 972 
L 525 2881 
L 113 2881 
L 113 3319 
L 525 3319 
L 525 4141 
L 1084 4478 
L 1084 3319 
L 1650 3319 
L 1650 2881 
L 1084 2881 
L 1084 941 
Q 1084 700 1114 631 
Q 1144 563 1211 522 
Q 1278 481 1403 481 
Q 1497 481 1650 503 
z
" transform="scale(0.015625)"/>
       <path id="ArialMT-75" d="M 2597 0 
L 2597 488 
Q 2209 -75 1544 -75 
Q 1250 -75 995 37 
Q 741 150 617 320 
Q 494 491 444 738 
Q 409 903 409 1263 
L 409 3319 
L 972 3319 
L 972 1478 
Q 972 1038 1006 884 
Q 1059 663 1231 536 
Q 1403 409 1656 409 
Q 1909 409 2131 539 
Q 2353 669 2445 892 
Q 2538 1116 2538 1541 
L 2538 3319 
L 3100 3319 
L 3100 0 
L 2597 0 
z
" transform="scale(0.015625)"/>
       <path id="ArialMT-72" d="M 416 0 
L 416 3319 
L 922 3319 
L 922 2816 
Q 1116 3169 1280 3281 
Q 1444 3394 1641 3394 
Q 1925 3394 2219 3213 
L 2025 2691 
Q 1819 2813 1613 2813 
Q 1428 2813 1281 2702 
Q 1134 2591 1072 2394 
Q 978 2094 978 1738 
L 978 0 
L 416 0 
z
" transform="scale(0.015625)"/>
       <path id="ArialMT-6c" d="M 409 0 
L 409 4581 
L 972 4581 
L 972 0 
L 409 0 
z
" transform="scale(0.015625)"/>
       <path id="ArialMT-67" d="M 319 -275 
L 866 -356 
Q 900 -609 1056 -725 
Q 1266 -881 1628 -881 
Q 2019 -881 2231 -725 
Q 2444 -569 2519 -288 
Q 2563 -116 2559 434 
Q 2191 0 1641 0 
Q 956 0 581 494 
Q 206 988 206 1678 
Q 206 2153 378 2554 
Q 550 2956 876 3175 
Q 1203 3394 1644 3394 
Q 2231 3394 2613 2919 
L 2613 3319 
L 3131 3319 
L 3131 450 
Q 3131 -325 2973 -648 
Q 2816 -972 2473 -1159 
Q 2131 -1347 1631 -1347 
Q 1038 -1347 672 -1080 
Q 306 -813 319 -275 
z
M 784 1719 
Q 784 1066 1043 766 
Q 1303 466 1694 466 
Q 2081 466 2343 764 
Q 2606 1063 2606 1700 
Q 2606 2309 2336 2618 
Q 2066 2928 1684 2928 
Q 1309 2928 1046 2623 
Q 784 2319 784 1719 
z
" transform="scale(0.015625)"/>
       <path id="ArialMT-63" d="M 2588 1216 
L 3141 1144 
Q 3050 572 2676 248 
Q 2303 -75 1759 -75 
Q 1078 -75 664 370 
Q 250 816 250 1647 
Q 250 2184 428 2587 
Q 606 2991 970 3192 
Q 1334 3394 1763 3394 
Q 2303 3394 2647 3120 
Q 2991 2847 3088 2344 
L 2541 2259 
Q 2463 2594 2264 2762 
Q 2066 2931 1784 2931 
Q 1359 2931 1093 2626 
Q 828 2322 828 1663 
Q 828 994 1084 691 
Q 1341 388 1753 388 
Q 2084 388 2306 591 
Q 2528 794 2588 1216 
z
" transform="scale(0.015625)"/>
       <path id="ArialMT-6f" d="M 213 1659 
Q 213 2581 725 3025 
Q 1153 3394 1769 3394 
Q 2453 3394 2887 2945 
Q 3322 2497 3322 1706 
Q 3322 1066 3130 698 
Q 2938 331 2570 128 
Q 2203 -75 1769 -75 
Q 1072 -75 642 372 
Q 213 819 213 1659 
z
M 791 1659 
Q 791 1022 1069 705 
Q 1347 388 1769 388 
Q 2188 388 2466 706 
Q 2744 1025 2744 1678 
Q 2744 2294 2464 2611 
Q 2184 2928 1769 2928 
Q 1347 2928 1069 2612 
Q 791 2297 791 1659 
z
" transform="scale(0.015625)"/>
       <path id="ArialMT-6e" d="M 422 0 
L 422 3319 
L 928 3319 
L 928 2847 
Q 1294 3394 1984 3394 
Q 2284 3394 2536 3286 
Q 2788 3178 2913 3003 
Q 3038 2828 3088 2588 
Q 3119 2431 3119 2041 
L 3119 0 
L 2556 0 
L 2556 2019 
Q 2556 2363 2490 2533 
Q 2425 2703 2258 2804 
Q 2091 2906 1866 2906 
Q 1506 2906 1245 2678 
Q 984 2450 984 1813 
L 984 0 
L 422 0 
z
" transform="scale(0.015625)"/>
       <path id="ArialMT-70" d="M 422 -1272 
L 422 3319 
L 934 3319 
L 934 2888 
Q 1116 3141 1344 3267 
Q 1572 3394 1897 3394 
Q 2322 3394 2647 3175 
Q 2972 2956 3137 2557 
Q 3303 2159 3303 1684 
Q 3303 1175 3120 767 
Q 2938 359 2589 142 
Q 2241 -75 1856 -75 
Q 1575 -75 1351 44 
Q 1128 163 984 344 
L 984 -1272 
L 422 -1272 
z
M 931 1641 
Q 931 1000 1190 694 
Q 1450 388 1819 388 
Q 2194 388 2461 705 
Q 2728 1022 2728 1688 
Q 2728 2322 2467 2637 
Q 2206 2953 1844 2953 
Q 1484 2953 1207 2617 
Q 931 2281 931 1641 
z
" transform="scale(0.015625)"/>
       <path id="ArialMT-4d" d="M 475 0 
L 475 4581 
L 1388 4581 
L 2472 1338 
Q 2622 884 2691 659 
Q 2769 909 2934 1394 
L 4031 4581 
L 4847 4581 
L 4847 0 
L 4263 0 
L 4263 3834 
L 2931 0 
L 2384 0 
L 1059 3900 
L 1059 0 
L 475 0 
z
" transform="scale(0.015625)"/>
       <path id="ArialMT-57" d="M 1294 0 
L 78 4581 
L 700 4581 
L 1397 1578 
Q 1509 1106 1591 641 
Q 1766 1375 1797 1488 
L 2669 4581 
L 3400 4581 
L 4056 2263 
Q 4303 1400 4413 641 
Q 4500 1075 4641 1638 
L 5359 4581 
L 5969 4581 
L 4713 0 
L 4128 0 
L 3163 3491 
Q 3041 3928 3019 4028 
Q 2947 3713 2884 3491 
L 1913 0 
L 1294 0 
z
" transform="scale(0.015625)"/>
       <path id="ArialMT-68" d="M 422 0 
L 422 4581 
L 984 4581 
L 984 2938 
Q 1378 3394 1978 3394 
Q 2347 3394 2619 3248 
Q 2891 3103 3008 2847 
Q 3125 2591 3125 2103 
L 3125 0 
L 2563 0 
L 2563 2103 
Q 2563 2525 2380 2717 
Q 2197 2909 1863 2909 
Q 1613 2909 1392 2779 
Q 1172 2650 1078 2428 
Q 984 2206 984 1816 
L 984 0 
L 422 0 
z
" transform="scale(0.015625)"/>
      </defs>
      <use xlink:href="#ArialMT-4e"/>
      <use xlink:href="#ArialMT-61" x="72.216797"/>
      <use xlink:href="#ArialMT-74" x="127.832031"/>
      <use xlink:href="#ArialMT-75" x="155.615234"/>
      <use xlink:href="#ArialMT-72" x="211.230469"/>
      <use xlink:href="#ArialMT-61" x="244.53125"/>
      <use xlink:href="#ArialMT-6c" x="300.146484"/>
      <use xlink:href="#ArialMT-20" x="322.363281"/>
      <use xlink:href="#ArialMT-67" x="350.146484"/>
      <use xlink:href="#ArialMT-61" x="405.761719"/>
      <use xlink:href="#ArialMT-73" x="461.376953"/>
      <use xlink:href="#ArialMT-20" x="511.376953"/>
      <use xlink:href="#ArialMT-63" x="539.160156"/>
      <use xlink:href="#ArialMT-6f" x="589.160156"/>
      <use xlink:href="#ArialMT-6e" x="644.775391"/>
      <use xlink:href="#ArialMT-73" x="700.390625"/>
      <use xlink:href="#ArialMT-75" x="750.390625"/>
      <use xlink:href="#ArialMT-6d" x="806.005859"/>
      <use xlink:href="#ArialMT-70" x="889.306641"/>
      <use xlink:href="#ArialMT-74" x="944.921875"/>
      <use xlink:href="#ArialMT-69" x="972.705078"/>
      <use xlink:href="#ArialMT-6f" x="994.921875"/>
      <use xlink:href="#ArialMT-6e" x="1050.537109"/>
      <use xlink:href="#ArialMT-20" x="1106.152344"/>
      <use xlink:href="#ArialMT-28" x="1133.935547"/>
      <use xlink:href="#ArialMT-4d" x="1167.236328"/>
      <use xlink:href="#ArialMT-57" x="1250.537109"/>
      <use xlink:href="#ArialMT-68" x="1344.921875"/>
      <use xlink:href="#ArialMT-29" x="1400.537109"/>
     </g>
    </g>
   </g>
   <g id="line2d_10">
    <path d="M 82.814341 66.486173 
L 83.525234 64.994138 
L 84.236126 64.271847 
L 84.947019 63.970825 
L 85.657912 63.441127 
L 86.368804 62.22193 
L 87.79059 58.499674 
L 88.501483 57.169192 
L 89.212375 56.610227 
L 89.923268 56.470785 
L 90.634161 56.100433 
L 91.345053 55.041227 
L 92.766839 51.655111 
L 93.477732 50.501445 
L 94.188624 50.120697 
L 94.899517 50.15736 
L 95.61041 49.960538 
L 96.321302 49.075179 
L 97.743088 46.051882 
L 98.453981 45.0878 
L 99.164873 44.897635 
L 99.875766 45.12238 
L 100.586659 45.110693 
L 101.297551 44.410432 
L 102.719337 41.771347 
L 103.43023 41.006938 
L 104.141122 41.01702 
L 104.852015 41.439095 
L 105.562908 41.621403 
L 106.2738 41.114724 
L 107.695586 38.875646 
L 108.406479 38.318173 
L 109.117371 38.535321 
L 109.828264 39.161116 
L 110.539157 39.5434 
L 111.250049 39.235894 
L 112.671835 37.406796 
L 113.382727 37.060589 
L 114.09362 37.48868 
L 114.804513 38.321629 
L 115.515406 38.906909 
L 116.226298 38.801194 
L 117.648084 37.386079 
L 118.358976 37.252474 
L 119.069869 37.892384 
L 119.780762 38.932918 
L 120.491655 39.721205 
L 121.202547 39.816891 
L 122.624333 38.813735 
L 123.335225 38.891054 
L 124.046118 39.740646 
L 124.757011 40.986186 
L 125.467904 41.974481 
L 126.178796 42.268172 
L 127.600582 41.668956 
L 128.311474 41.952533 
L 129.022367 43.006687 
L 129.73326 44.451678 
L 130.444153 45.63402 
L 131.155045 46.119364 
L 132.576831 45.910191 
L 133.287723 46.392436 
L 133.998616 47.643127 
L 135.420402 50.646667 
L 136.131294 51.314451 
L 137.55308 51.475748 
L 138.263972 52.146262 
L 138.974865 53.582671 
L 140.39665 56.939606 
L 141.107543 57.777886 
L 142.529329 58.28469 
L 143.240221 59.130415 
L 143.951114 60.739086 
L 145.372899 64.421415 
L 146.083792 65.415692 
L 147.505578 66.238013 
L 148.21647 67.243419 
L 148.927363 69.008461 
L 150.349148 72.983394 
L 151.060041 74.116825 
L 152.481827 75.220084 
L 153.192719 76.367399 
L 153.903612 78.270709 
L 155.325397 82.501148 
L 156.03629 83.75479 
L 157.458076 85.10032 
L 158.168968 86.369786 
L 158.879861 88.391316 
L 160.301646 92.83639 
L 161.012539 94.189477 
L 162.434325 95.735089 
L 163.145217 97.105248 
L 164.567003 101.686093 
L 165.277895 103.838956 
L 165.988788 105.269198 
L 167.410574 106.969792 
L 168.121466 108.417802 
L 170.965037 116.83289 
L 172.386822 118.641114 
L 173.097715 120.143077 
L 175.230393 127.199229 
L 175.941286 128.71246 
L 177.363071 130.579396 
L 178.073964 132.110707 
L 180.206642 139.217516 
L 180.917535 140.735221 
L 182.33932 142.611099 
L 183.050213 144.146805 
L 185.182891 151.229218 
L 185.893784 152.726407 
L 187.315569 154.561328 
L 188.026462 156.076488 
L 190.15914 163.059804 
L 190.870033 164.511708 
L 192.291818 166.256371 
L 193.002711 167.726421 
L 195.135389 174.537376 
L 195.846282 175.919809 
L 197.268067 177.526227 
L 197.97896 178.927335 
L 200.111638 185.495165 
L 200.822531 186.784871 
L 202.244316 188.207072 
L 202.955209 189.516485 
L 205.087887 195.773954 
L 205.79878 196.948951 
L 207.220565 198.143642 
L 207.931458 199.340019 
L 210.064136 205.224394 
L 210.775029 206.264288 
L 212.196814 207.19149 
L 212.907707 208.255208 
L 215.040385 213.709169 
L 215.751278 214.595456 
L 217.173063 215.219082 
L 217.883956 216.132527 
L 220.016634 221.105 
L 220.727527 221.82133 
L 222.149312 222.109714 
L 222.860205 222.85753 
L 223.571098 224.301758 
L 224.28199 226.001744 
L 224.992883 227.304429 
L 225.703776 227.836845 
L 227.125561 227.7632 
L 227.836454 228.332517 
L 228.547347 229.595256 
L 229.258239 231.107784 
L 229.969132 232.217381 
L 230.680025 232.554526 
L 232.10181 232.097335 
L 232.812703 232.477956 
L 233.523596 233.549375 
L 234.234488 234.864999 
L 234.945381 235.772478 
L 235.656274 235.905755 
L 237.078059 235.049086 
L 237.788952 235.233633 
L 238.499845 236.106737 
L 239.210737 237.218869 
L 239.92163 237.918073 
L 240.632523 237.841772 
L 242.054308 236.575508 
L 242.765201 236.55953 
L 243.476094 237.230267 
L 244.186986 238.135267 
L 244.897879 238.623 
L 245.608772 238.33438 
L 247.030557 236.654369 
L 247.74145 236.43641 
L 248.452343 236.903723 
L 249.163235 237.600955 
L 249.874128 237.877026 
L 250.585021 237.376359 
L 252.006806 235.284474 
L 252.717699 234.866089 
L 253.428592 235.131935 
L 254.139484 235.623775 
L 254.850377 235.691005 
L 255.56127 234.981567 
L 256.983055 232.48568 
L 257.693948 231.871415 
L 258.40484 231.940735 
L 259.115733 232.232537 
L 259.826626 232.096712 
L 260.537519 231.18474 
L 261.959304 228.298609 
L 262.670197 227.495935 
L 263.381089 227.376583 
L 264.091982 227.476596 
L 264.802875 227.14639 
L 265.513768 226.040988 
L 266.935553 222.784056 
L 267.646446 221.803262 
L 268.357338 221.505888 
L 269.068231 221.425143 
L 269.779124 220.911985 
L 270.490017 219.624992 
L 271.911802 216.02211 
L 272.622695 214.876149 
L 273.333587 214.414048 
L 274.04448 214.16619 
L 274.755373 213.484101 
L 275.466266 212.029923 
L 276.888051 208.110983 
L 277.598944 206.815291 
L 278.309836 206.204204 
L 279.020729 205.805297 
L 279.731622 204.970686 
L 280.442515 203.366083 
L 281.8643 199.165591 
L 282.575193 197.737855 
L 283.286085 196.995744 
L 283.996978 196.464039 
L 284.707871 195.495461 
L 285.418764 193.759307 
L 286.840549 189.315877 
L 287.551442 187.775782 
L 288.262334 186.922568 
L 288.973227 186.278233 
L 289.68412 185.196125 
L 290.395012 183.349128 
L 291.816798 178.704927 
L 292.527691 177.073871 
L 293.238583 176.131143 
L 293.949476 175.395971 
L 294.660369 174.22235 
L 295.371261 172.286757 
L 296.793047 167.486889 
L 297.50394 165.78767 
L 298.214832 164.778371 
L 298.925725 163.975464 
L 299.636618 162.733608 
L 300.34751 160.732881 
L 301.769296 155.824734 
L 302.480189 154.081219 
L 303.191081 153.029313 
L 303.901974 152.182745 
L 304.612867 150.896855 
L 305.323759 148.855327 
L 306.745545 143.887887 
L 307.456438 142.124665 
L 308.16733 141.05479 
L 308.878223 140.189255 
L 309.589116 138.884104 
L 310.300008 136.826629 
L 311.721794 131.849764 
L 312.432687 130.091791 
L 313.143579 129.028896 
L 313.854472 128.169352 
L 314.565365 126.869922 
L 315.276257 124.821513 
L 316.698043 119.885255 
L 317.408936 118.157488 
L 318.119828 117.126475 
L 318.830721 116.297779 
L 319.541614 115.028899 
L 320.252506 113.014365 
L 321.674292 108.16818 
L 322.385184 106.495217 
L 323.096077 105.520575 
L 323.80697 104.74712 
L 324.517863 103.533107 
L 325.228755 101.576692 
L 326.650541 96.868764 
L 327.361433 95.274485 
L 328.072326 94.379937 
L 328.783219 93.685299 
L 329.494112 92.549602 
L 330.205004 90.674631 
L 331.62679 86.151162 
L 332.337682 84.658385 
L 333.048575 83.866538 
L 333.759468 83.273134 
L 334.470361 82.237994 
L 335.181253 80.466538 
L 336.603039 76.171078 
L 337.313931 74.801221 
L 338.024824 74.133244 
L 338.735717 73.662002 
L 339.44661 72.748127 
L 340.157502 71.100682 
L 341.579288 67.073496 
L 342.29018 65.846272 
L 343.001073 65.321584 
L 343.711966 64.991641 
L 344.422859 64.217907 
L 345.133751 62.713094 
L 346.555537 58.990578 
L 347.266429 57.923707 
L 347.977322 57.559692 
L 348.688215 57.388115 
L 349.399107 56.771292 
L 350.11 55.425587 
L 351.531786 52.039741 
L 352.242678 51.14869 
L 352.953571 50.960449 
L 353.664464 50.961988 
L 354.375356 50.516493 
L 355.086249 49.343989 
L 356.508035 46.321953 
L 357.218927 45.619715 
L 357.92982 45.619843 
L 358.640713 45.806711 
L 359.351605 45.544401 
L 360.062498 44.556605 
L 361.484284 41.920263 
L 362.195176 41.417164 
L 362.906069 41.615569 
L 363.616962 41.997271 
L 364.327854 41.927268 
L 365.038747 41.13293 
L 366.460533 38.898595 
L 367.171425 38.602149 
L 367.882318 39.005904 
L 368.593211 39.589094 
L 369.304103 39.717656 
L 370.014996 39.122644 
L 370.725889 38.103177 
L 371.436782 37.300822 
L 372.147674 37.215618 
L 372.858567 37.828861 
L 373.56946 38.617245 
L 374.280352 38.947671 
L 374.991245 38.554887 
L 375.702138 37.741604 
L 376.413031 37.150124 
L 377.123923 37.277759 
L 377.834816 38.101633 
L 378.545709 39.095916 
L 379.256601 39.6285 
L 379.967494 39.437836 
L 380.678387 38.830218 
L 381.389279 38.448655 
L 382.100172 38.787713 
L 384.23285 41.750245 
L 384.943743 41.758588 
L 385.654636 41.353112 
L 386.365528 41.177507 
L 387.076421 41.72358 
L 389.209099 45.282072 
L 389.919992 45.483346 
L 390.630885 45.273535 
L 391.341777 45.296992 
L 392.05267 46.04274 
L 394.185348 50.172653 
L 394.896241 50.557908 
L 395.607134 50.534431 
L 396.318026 50.74721 
L 397.028919 51.682473 
L 399.161597 56.350914 
L 399.87249 56.90846 
L 400.583383 57.059262 
L 401.294275 57.448927 
L 402.005168 58.560869 
L 404.137846 63.727072 
L 404.848739 64.442643 
L 405.559632 64.753127 
L 406.270524 65.304722 
L 406.981417 66.578018 
L 409.114095 72.193931 
L 409.824988 73.050899 
L 410.535881 73.504132 
L 411.246773 74.200405 
L 411.957666 75.617465 
L 414.090344 81.628451 
L 414.801237 82.608062 
L 415.51213 83.185027 
L 416.223022 84.006674 
L 416.933915 85.547896 
L 419.066593 91.893523 
L 419.777486 92.975175 
L 420.488379 93.655045 
L 421.199271 94.580996 
L 421.910164 96.225054 
L 424.042842 102.839975 
L 424.753735 104.001512 
L 425.464628 104.761953 
L 426.17552 105.769676 
L 426.886413 107.493829 
L 429.019091 114.308727 
L 429.729984 115.526767 
L 430.440877 116.344266 
L 431.151769 117.410096 
L 431.862662 119.190515 
L 433.99534 126.133112 
L 434.706233 127.383385 
L 435.417126 128.233586 
L 436.128018 129.333069 
L 436.838911 131.145189 
L 438.971589 138.141294 
L 439.682482 139.398992 
L 440.393374 140.257059 
L 441.104267 141.365307 
L 441.81516 143.184179 
L 443.947838 150.158764 
L 444.658731 151.398906 
L 445.369623 152.239877 
L 446.080516 153.331931 
L 446.791409 155.132588 
L 448.213194 160.05894 
L 448.924087 162.010881 
L 449.63498 163.208673 
L 450.345872 164.007826 
L 451.056765 165.059018 
L 451.767658 166.816835 
L 453.189443 171.637247 
L 453.900336 173.525402 
L 454.611229 174.6566 
L 455.322121 175.389814 
L 456.033014 176.376127 
L 456.743907 178.06718 
L 458.165692 182.734145 
L 458.876585 184.534992 
L 459.587478 185.576253 
L 460.29837 186.220357 
L 461.009263 187.118774 
L 461.720156 188.720188 
L 463.141941 193.188443 
L 463.852834 194.879652 
L 464.563727 195.808874 
L 465.274619 196.341986 
L 465.985512 197.130823 
L 466.696405 198.621104 
L 468.11819 202.848284 
L 468.829083 204.409045 
L 469.539976 205.205688 
L 470.250868 205.607532 
L 470.961761 206.266757 
L 471.672654 207.626104 
L 473.094439 211.573358 
L 473.805332 212.984681 
L 474.516225 213.630067 
L 475.227117 213.882267 
L 475.93801 214.393789 
L 476.648903 215.604381 
L 478.070688 219.236938 
L 478.781581 220.481928 
L 479.492474 220.959512 
L 480.203366 221.045863 
L 480.914259 221.393795 
L 481.625152 222.440052 
L 483.046937 225.727722 
L 483.75783 226.791824 
L 484.468723 227.087435 
L 485.179615 226.994137 
L 485.890508 227.165028 
L 486.601401 228.033834 
L 488.023186 230.951448 
L 488.734079 231.822663 
L 489.444972 231.924709 
L 490.155864 231.640567 
L 490.866757 231.623597 
L 491.57765 232.304496 
L 492.999435 234.832269 
L 493.710328 235.501321 
L 494.421221 235.400959 
L 495.132113 234.917549 
L 495.843006 234.704689 
L 496.553899 235.19003 
L 497.975684 237.31385 
L 498.686577 237.774327 
L 499.397469 237.465591 
L 500.108362 236.77738 
L 500.819255 236.363506 
L 501.530148 236.648559 
L 502.951933 238.360188 
L 503.662826 238.608634 
L 504.373718 238.088522 
L 505.084611 237.19295 
L 505.795504 236.57592 
L 506.506397 236.658942 
L 507.928182 237.956139 
L 508.639075 237.992099 
L 509.349967 237.260618 
L 510.06086 236.158138 
L 510.771753 235.338821 
L 511.482646 235.221084 
L 512.904431 236.107632 
L 513.615324 235.933665 
L 514.326216 234.99383 
L 515.037109 233.687897 
L 515.748002 232.670163 
L 516.458895 232.355934 
L 517.88068 232.841587 
L 518.591573 232.463224 
L 519.302465 231.321017 
L 520.013358 229.818042 
L 520.724251 228.608705 
L 521.435144 228.105183 
L 522.856929 228.205523 
L 523.567822 227.63119 
L 524.278714 226.295468 
L 524.989607 224.604725 
L 525.7005 223.213445 
L 526.411393 222.530656 
L 527.833178 222.266866 
L 528.544071 221.507759 
L 529.254963 219.990132 
L 530.676749 216.562764 
L 531.387641 215.713416 
L 532.809427 215.111971 
L 533.52032 214.181894 
L 534.231212 212.496552 
L 535.652998 208.753287 
L 536.36389 207.752587 
L 537.785676 206.844866 
L 538.496569 205.760031 
L 539.207461 203.923539 
L 540.629247 199.898477 
L 541.340139 198.763908 
L 542.761925 197.585742 
L 543.472818 196.364532 
L 544.18371 194.395591 
L 545.605496 190.126991 
L 546.316388 188.878057 
L 547.738174 187.469203 
L 548.449067 186.131905 
L 550.581745 179.580805 
L 551.292637 178.23875 
L 552.714423 176.642314 
L 553.425316 175.210825 
L 555.557994 168.413154 
L 556.268886 167.00065 
L 557.690672 165.262461 
L 558.401564 163.759969 
L 560.534243 156.786303 
L 561.245135 155.327124 
L 562.666921 153.495065 
L 563.377813 151.945713 
L 565.510492 144.869193 
L 566.221384 143.387867 
L 567.64317 141.511178 
L 568.354062 139.939712 
L 570.486741 132.834982 
L 571.197633 131.356434 
L 572.619419 129.484999 
L 573.330311 127.916407 
L 575.46299 120.85853 
L 576.173882 119.407722 
L 577.595668 117.59134 
L 578.30656 116.050491 
L 580.439239 109.113859 
L 581.150131 107.715425 
L 582.571917 106.003085 
L 583.282809 104.514368 
L 585.415488 97.771622 
L 586.12638 96.449511 
L 587.548166 94.888684 
L 588.259058 93.47565 
L 590.391736 86.996627 
L 591.102629 85.773754 
L 592.524415 84.409696 
L 593.235307 83.094721 
L 595.367985 76.945438 
L 596.078878 75.843351 
L 597.500664 74.718448 
L 598.211556 73.522404 
L 600.344234 67.764101 
L 601.055127 66.802669 
L 602.476913 65.955821 
L 603.187805 64.897771 
L 605.320483 59.586023 
L 606.031376 58.783147 
L 607.453162 58.249198 
L 608.164054 57.346125 
L 610.296732 52.530033 
L 611.007625 51.901384 
L 612.429411 51.710619 
L 613.140303 50.977172 
L 615.272981 46.698655 
L 615.983874 46.257447 
L 617.40566 46.435147 
L 618.116552 45.883436 
L 620.24923 42.176618 
L 620.960123 41.933415 
L 622.381908 42.499494 
L 623.092801 42.138904 
L 623.803694 41.098464 
L 624.514587 39.84557 
L 625.225479 39.029622 
L 625.936372 38.992187 
L 627.358157 39.960897 
L 628.06905 39.797961 
L 628.779943 38.957492 
L 629.490836 37.909695 
L 630.201728 37.303391 
L 630.912621 37.47657 
L 632.334406 38.856294 
L 633.045299 38.894594 
L 633.756192 38.257277 
L 634.467085 37.41734 
L 635.177977 37.023 
L 635.88887 37.408653 
L 637.310655 39.201784 
L 638.021548 39.441897 
L 638.732441 39.007908 
L 639.443334 38.375586 
L 640.154226 38.192515 
L 640.865119 38.789488 
L 642.286904 40.992392 
L 642.997797 41.431886 
L 643.70869 41.19839 
L 644.419583 40.770431 
L 645.130475 40.794934 
L 645.841368 41.599077 
L 647.263153 44.202145 
L 647.974046 44.835609 
L 648.684939 44.796807 
L 649.395831 44.566999 
L 650.106724 44.792433 
L 650.817617 45.796658 
L 652.239402 48.784445 
L 652.950295 49.603573 
L 653.661188 49.750779 
L 654.37208 49.710044 
L 655.082973 50.126914 
L 655.793866 51.3213 
L 657.215651 54.672749 
L 657.926544 55.666457 
L 658.637437 55.988231 
L 659.348329 56.124757 
L 660.059222 56.720855 
L 660.770115 58.09279 
L 662.1919 61.781535 
L 662.902793 62.936124 
L 663.613686 63.418436 
L 664.324578 63.717845 
L 665.035471 64.478428 
L 665.746364 66.012794 
L 667.168149 70.007546 
L 667.879042 71.306899 
L 668.589935 71.933333 
L 669.300827 72.378897 
L 670.01172 73.286901 
L 670.722613 74.966291 
L 672.144398 79.231289 
L 672.855291 80.657107 
L 673.566184 81.4091 
L 674.277076 81.981979 
L 674.987969 83.018266 
L 675.698862 84.823241 
L 677.120647 89.31877 
L 677.83154 90.850838 
L 678.542433 91.707952 
L 679.253325 92.38747 
L 679.964218 93.53111 
L 680.675111 95.440476 
L 682.096896 100.123445 
L 682.807789 101.739925 
L 684.940467 104.67266 
L 685.65136 106.663779 
L 687.073145 111.488348 
L 687.784038 113.166095 
L 689.916716 116.28101 
L 690.627609 118.330129 
L 692.049394 123.248371 
L 692.760287 124.963271 
L 694.892965 128.18747 
L 695.603858 130.270064 
L 697.025643 135.232662 
L 697.736536 136.959983 
L 699.869214 140.21902 
L 700.580107 142.31015 
L 702.001892 147.267112 
L 702.712785 148.981862 
L 704.845463 152.200822 
L 705.556356 154.275496 
L 706.978141 159.17688 
L 707.689034 160.854171 
L 709.821712 163.95876 
L 710.532605 165.992297 
L 711.95439 170.78894 
L 712.665283 172.404349 
L 714.797961 175.321975 
L 715.508854 177.290361 
L 716.930639 181.934588 
L 717.641532 183.464512 
L 719.77421 186.125341 
L 720.485103 188.005582 
L 721.906888 192.4519 
L 722.617781 193.873898 
L 723.328673 194.608648 
L 724.039566 195.176756 
L 724.750459 196.21187 
L 725.461352 197.982323 
L 726.883137 202.188079 
L 727.59403 203.481202 
L 728.304922 204.086391 
L 729.015815 204.526767 
L 729.726708 205.434991 
L 730.437601 207.075678 
L 731.859386 211.001682 
L 732.570279 212.146773 
L 733.281171 212.60355 
L 733.992064 212.897635 
L 734.702957 213.660681 
L 735.41385 215.15358 
L 736.835635 218.76467 
L 737.546528 219.744644 
L 738.25742 220.036268 
L 738.968313 220.167649 
L 739.679206 220.76941 
L 740.390098 222.098717 
L 741.811884 225.36427 
L 742.522777 226.164364 
L 743.233669 226.276447 
L 743.944562 226.231095 
L 744.655455 226.657882 
L 745.366347 227.810239 
L 746.788133 230.704617 
L 747.499026 231.312601 
L 748.209918 231.233318 
L 748.920811 230.999793 
L 749.631704 231.240531 
L 750.342596 232.205222 
L 751.764382 234.708141 
L 752.475275 235.1145 
L 753.186167 234.834759 
L 753.89706 234.404378 
L 754.607953 234.450771 
L 755.318845 235.219875 
L 756.029738 236.390534 
L 756.740631 237.3167 
L 757.451524 237.514767 
L 758.162416 237.028347 
L 758.873309 236.39531 
L 759.584202 236.241955 
L 760.295094 236.810465 
L 761.005987 237.776162 
L 761.71688 238.492422 
L 762.427773 238.47848 
L 763.849558 236.94359 
L 764.560451 236.588063 
L 765.271343 236.953952 
L 765.982236 237.713075 
L 766.693129 238.218255 
L 767.404021 237.99159 
L 768.825807 236.041182 
L 769.5367 235.48407 
L 770.247592 235.648327 
L 770.958485 236.202277 
L 771.669378 236.498217 
L 772.38027 236.061124 
L 773.802056 233.701135 
L 774.512949 232.946028 
L 775.223841 232.912637 
L 775.934734 233.265809 
L 776.645627 233.357335 
L 777.356519 232.715091 
L 778.778305 229.957386 
L 779.489198 229.010825 
L 780.20009 228.786713 
L 780.910983 228.946429 
L 781.621876 228.841283 
L 782.332768 228.002066 
L 784.465447 223.735654 
L 785.176339 223.330587 
L 785.887232 223.30699 
L 786.598125 223.015718 
L 787.309017 221.99049 
L 789.441696 217.197181 
L 790.152588 216.62362 
L 790.863481 216.429529 
L 791.574374 215.965326 
L 792.285266 214.767673 
L 792.996159 212.909274 
L 792.996159 212.909274 
" clip-path="url(#p7291476724)" style="fill: none; stroke: #4c72b0; stroke-width: 1.2; stroke-linecap: round"/>
   </g>
   <g id="patch_3">
    <path d="M 47.30525 248.703 
L 47.30525 26.943 
" style="fill: none; stroke: #cccccc; stroke-linejoin: miter; stroke-linecap: square"/>
   </g>
   <g id="patch_4">
    <path d="M 828.50525 248.703 
L 828.50525 26.943 
" style="fill: none; stroke: #cccccc; stroke-linejoin: miter; stroke-linecap: square"/>
   </g>
   <g id="patch_5">
    <path d="M 47.30525 248.703 
L 828.50525 248.703 
" style="fill: none; stroke: #cccccc; stroke-linejoin: miter; stroke-linecap: square"/>
   </g>
   <g id="patch_6">
    <path d="M 47.30525 26.943 
L 828.50525 26.943 
" style="fill: none; stroke: #cccccc; stroke-linejoin: miter; stroke-linecap: square"/>
   </g>
   <g id="text_12">
    <!-- Modelled seasonality -->
    <g style="fill: #262626" transform="translate(348.25775 20.943) scale(0.192 -0.192)">
     <use xlink:href="#ArialMT-4d"/>
     <use xlink:href="#ArialMT-6f" x="83.300781"/>
     <use xlink:href="#ArialMT-64" x="138.916016"/>
     <use xlink:href="#ArialMT-65" x="194.53125"/>
     <use xlink:href="#ArialMT-6c" x="250.146484"/>
     <use xlink:href="#ArialMT-6c" x="272.363281"/>
     <use xlink:href="#ArialMT-65" x="294.580078"/>
     <use xlink:href="#ArialMT-64" x="350.195312"/>
     <use xlink:href="#ArialMT-20" x="405.810547"/>
     <use xlink:href="#ArialMT-73" x="433.59375"/>
     <use xlink:href="#ArialMT-65" x="483.59375"/>
     <use xlink:href="#ArialMT-61" x="539.208984"/>
     <use xlink:href="#ArialMT-73" x="594.824219"/>
     <use xlink:href="#ArialMT-6f" x="644.824219"/>
     <use xlink:href="#ArialMT-6e" x="700.439453"/>
     <use xlink:href="#ArialMT-61" x="756.054688"/>
     <use xlink:href="#ArialMT-6c" x="811.669922"/>
     <use xlink:href="#ArialMT-69" x="833.886719"/>
     <use xlink:href="#ArialMT-74" x="856.103516"/>
     <use xlink:href="#ArialMT-79" x="883.886719"/>
    </g>
   </g>
  </g>
 </g>
 <defs>
  <clipPath id="p7291476724">
   <rect x="47.30525" y="26.943" width="781.2" height="221.76"/>
  </clipPath>
 </defs>
</svg>
