<?xml version="1.0" encoding="utf-8" standalone="no"?>
<!DOCTYPE svg PUBLIC "-//W3C//DTD SVG 1.1//EN"
  "http://www.w3.org/Graphics/SVG/1.1/DTD/svg11.dtd">
<svg xmlns:xlink="http://www.w3.org/1999/xlink" width="859.190686pt" height="302.09175pt" viewBox="0 0 859.190686 302.09175" xmlns="http://www.w3.org/2000/svg" version="1.1">
 <metadata>
  <rdf:RDF xmlns:dc="http://purl.org/dc/elements/1.1/" xmlns:cc="http://creativecommons.org/ns#" xmlns:rdf="http://www.w3.org/1999/02/22-rdf-syntax-ns#">
   <cc:Work>
    <dc:type rdf:resource="http://purl.org/dc/dcmitype/StillImage"/>
    <dc:date>2023-05-10T12:21:45.161693</dc:date>
    <dc:format>image/svg+xml</dc:format>
    <dc:creator>
     <cc:Agent>
      <dc:title>Matplotlib v3.7.1, https://matplotlib.org/</dc:title>
     </cc:Agent>
    </dc:creator>
   </cc:Work>
  </rdf:RDF>
 </metadata>
 <defs>
  <style type="text/css">*{stroke-linejoin: round; stroke-linecap: butt}</style>
 </defs>
 <g id="figure_1">
  <g id="patch_1">
   <path d="M 0 302.09175 
L 859.190686 302.09175 
L 859.190686 0 
L 0 0 
z
" style="fill: #ffffff"/>
  </g>
  <g id="axes_1">
   <g id="patch_2">
    <path d="M 66.42075 248.937 
L 847.62075 248.937 
L 847.62075 27.177 
L 66.42075 27.177 
z
" style="fill: #ffffff"/>
   </g>
   <g id="matplotlib.axis_1">
    <g id="xtick_1">
     <g id="line2d_1">
      <path d="M 66.42075 248.937 
L 66.42075 27.177 
" clip-path="url(#pbb9a77b74b)" style="fill: none; stroke: #cccccc; stroke-width: 0.8; stroke-linecap: round"/>
     </g>
     <g id="text_1">
      <!-- 2015 -->
      <g style="fill: #262626" transform="translate(46.84625 269.83475) scale(0.176 -0.176)">
       <defs>
        <path id="ArialMT-32" d="M 3222 541 
L 3222 0 
L 194 0 
Q 188 203 259 391 
Q 375 700 629 1000 
Q 884 1300 1366 1694 
Q 2113 2306 2375 2664 
Q 2638 3022 2638 3341 
Q 2638 3675 2398 3904 
Q 2159 4134 1775 4134 
Q 1369 4134 1125 3890 
Q 881 3647 878 3216 
L 300 3275 
Q 359 3922 746 4261 
Q 1134 4600 1788 4600 
Q 2447 4600 2831 4234 
Q 3216 3869 3216 3328 
Q 3216 3053 3103 2787 
Q 2991 2522 2730 2228 
Q 2469 1934 1863 1422 
Q 1356 997 1212 845 
Q 1069 694 975 541 
L 3222 541 
z
" transform="scale(0.015625)"/>
        <path id="ArialMT-30" d="M 266 2259 
Q 266 3072 433 3567 
Q 600 4063 929 4331 
Q 1259 4600 1759 4600 
Q 2128 4600 2406 4451 
Q 2684 4303 2865 4023 
Q 3047 3744 3150 3342 
Q 3253 2941 3253 2259 
Q 3253 1453 3087 958 
Q 2922 463 2592 192 
Q 2263 -78 1759 -78 
Q 1097 -78 719 397 
Q 266 969 266 2259 
z
M 844 2259 
Q 844 1131 1108 757 
Q 1372 384 1759 384 
Q 2147 384 2411 759 
Q 2675 1134 2675 2259 
Q 2675 3391 2411 3762 
Q 2147 4134 1753 4134 
Q 1366 4134 1134 3806 
Q 844 3388 844 2259 
z
" transform="scale(0.015625)"/>
        <path id="ArialMT-31" d="M 2384 0 
L 1822 0 
L 1822 3584 
Q 1619 3391 1289 3197 
Q 959 3003 697 2906 
L 697 3450 
Q 1169 3672 1522 3987 
Q 1875 4303 2022 4600 
L 2384 4600 
L 2384 0 
z
" transform="scale(0.015625)"/>
        <path id="ArialMT-35" d="M 266 1200 
L 856 1250 
Q 922 819 1161 601 
Q 1400 384 1738 384 
Q 2144 384 2425 690 
Q 2706 997 2706 1503 
Q 2706 1984 2436 2262 
Q 2166 2541 1728 2541 
Q 1456 2541 1237 2417 
Q 1019 2294 894 2097 
L 366 2166 
L 809 4519 
L 3088 4519 
L 3088 3981 
L 1259 3981 
L 1013 2750 
Q 1425 3038 1878 3038 
Q 2478 3038 2890 2622 
Q 3303 2206 3303 1553 
Q 3303 931 2941 478 
Q 2500 -78 1738 -78 
Q 1113 -78 717 272 
Q 322 622 266 1200 
z
" transform="scale(0.015625)"/>
       </defs>
       <use xlink:href="#ArialMT-32"/>
       <use xlink:href="#ArialMT-30" x="55.615234"/>
       <use xlink:href="#ArialMT-31" x="111.230469"/>
       <use xlink:href="#ArialMT-35" x="166.845703"/>
      </g>
     </g>
    </g>
    <g id="xtick_2">
     <g id="line2d_2">
      <path d="M 162.104643 248.937 
L 162.104643 27.177 
" clip-path="url(#pbb9a77b74b)" style="fill: none; stroke: #cccccc; stroke-width: 0.8; stroke-linecap: round"/>
     </g>
     <g id="text_2">
      <!-- 2016 -->
      <g style="fill: #262626" transform="translate(142.530143 269.83475) scale(0.176 -0.176)">
       <defs>
        <path id="ArialMT-36" d="M 3184 3459 
L 2625 3416 
Q 2550 3747 2413 3897 
Q 2184 4138 1850 4138 
Q 1581 4138 1378 3988 
Q 1113 3794 959 3422 
Q 806 3050 800 2363 
Q 1003 2672 1297 2822 
Q 1591 2972 1913 2972 
Q 2475 2972 2870 2558 
Q 3266 2144 3266 1488 
Q 3266 1056 3080 686 
Q 2894 316 2569 119 
Q 2244 -78 1831 -78 
Q 1128 -78 684 439 
Q 241 956 241 2144 
Q 241 3472 731 4075 
Q 1159 4600 1884 4600 
Q 2425 4600 2770 4297 
Q 3116 3994 3184 3459 
z
M 888 1484 
Q 888 1194 1011 928 
Q 1134 663 1356 523 
Q 1578 384 1822 384 
Q 2178 384 2434 671 
Q 2691 959 2691 1453 
Q 2691 1928 2437 2201 
Q 2184 2475 1800 2475 
Q 1419 2475 1153 2201 
Q 888 1928 888 1484 
z
" transform="scale(0.015625)"/>
       </defs>
       <use xlink:href="#ArialMT-32"/>
       <use xlink:href="#ArialMT-30" x="55.615234"/>
       <use xlink:href="#ArialMT-31" x="111.230469"/>
       <use xlink:href="#ArialMT-36" x="166.845703"/>
      </g>
     </g>
    </g>
    <g id="xtick_3">
     <g id="line2d_3">
      <path d="M 258.050683 248.937 
L 258.050683 27.177 
" clip-path="url(#pbb9a77b74b)" style="fill: none; stroke: #cccccc; stroke-width: 0.8; stroke-linecap: round"/>
     </g>
     <g id="text_3">
      <!-- 2017 -->
      <g style="fill: #262626" transform="translate(238.476183 269.83475) scale(0.176 -0.176)">
       <defs>
        <path id="ArialMT-37" d="M 303 3981 
L 303 4522 
L 3269 4522 
L 3269 4084 
Q 2831 3619 2401 2847 
Q 1972 2075 1738 1259 
Q 1569 684 1522 0 
L 944 0 
Q 953 541 1156 1306 
Q 1359 2072 1739 2783 
Q 2119 3494 2547 3981 
L 303 3981 
z
" transform="scale(0.015625)"/>
       </defs>
       <use xlink:href="#ArialMT-32"/>
       <use xlink:href="#ArialMT-30" x="55.615234"/>
       <use xlink:href="#ArialMT-31" x="111.230469"/>
       <use xlink:href="#ArialMT-37" x="166.845703"/>
      </g>
     </g>
    </g>
    <g id="xtick_4">
     <g id="line2d_4">
      <path d="M 353.734576 248.937 
L 353.734576 27.177 
" clip-path="url(#pbb9a77b74b)" style="fill: none; stroke: #cccccc; stroke-width: 0.8; stroke-linecap: round"/>
     </g>
     <g id="text_4">
      <!-- 2018 -->
      <g style="fill: #262626" transform="translate(334.160076 269.83475) scale(0.176 -0.176)">
       <defs>
        <path id="ArialMT-38" d="M 1131 2484 
Q 781 2613 612 2850 
Q 444 3088 444 3419 
Q 444 3919 803 4259 
Q 1163 4600 1759 4600 
Q 2359 4600 2725 4251 
Q 3091 3903 3091 3403 
Q 3091 3084 2923 2848 
Q 2756 2613 2416 2484 
Q 2838 2347 3058 2040 
Q 3278 1734 3278 1309 
Q 3278 722 2862 322 
Q 2447 -78 1769 -78 
Q 1091 -78 675 323 
Q 259 725 259 1325 
Q 259 1772 486 2073 
Q 713 2375 1131 2484 
z
M 1019 3438 
Q 1019 3113 1228 2906 
Q 1438 2700 1772 2700 
Q 2097 2700 2305 2904 
Q 2513 3109 2513 3406 
Q 2513 3716 2298 3927 
Q 2084 4138 1766 4138 
Q 1444 4138 1231 3931 
Q 1019 3725 1019 3438 
z
M 838 1322 
Q 838 1081 952 856 
Q 1066 631 1291 507 
Q 1516 384 1775 384 
Q 2178 384 2440 643 
Q 2703 903 2703 1303 
Q 2703 1709 2433 1975 
Q 2163 2241 1756 2241 
Q 1359 2241 1098 1978 
Q 838 1716 838 1322 
z
" transform="scale(0.015625)"/>
       </defs>
       <use xlink:href="#ArialMT-32"/>
       <use xlink:href="#ArialMT-30" x="55.615234"/>
       <use xlink:href="#ArialMT-31" x="111.230469"/>
       <use xlink:href="#ArialMT-38" x="166.845703"/>
      </g>
     </g>
    </g>
    <g id="xtick_5">
     <g id="line2d_5">
      <path d="M 449.418468 248.937 
L 449.418468 27.177 
" clip-path="url(#pbb9a77b74b)" style="fill: none; stroke: #cccccc; stroke-width: 0.8; stroke-linecap: round"/>
     </g>
     <g id="text_5">
      <!-- 2019 -->
      <g style="fill: #262626" transform="translate(429.843968 269.83475) scale(0.176 -0.176)">
       <defs>
        <path id="ArialMT-39" d="M 350 1059 
L 891 1109 
Q 959 728 1153 556 
Q 1347 384 1650 384 
Q 1909 384 2104 503 
Q 2300 622 2425 820 
Q 2550 1019 2634 1356 
Q 2719 1694 2719 2044 
Q 2719 2081 2716 2156 
Q 2547 1888 2255 1720 
Q 1963 1553 1622 1553 
Q 1053 1553 659 1965 
Q 266 2378 266 3053 
Q 266 3750 677 4175 
Q 1088 4600 1706 4600 
Q 2153 4600 2523 4359 
Q 2894 4119 3086 3673 
Q 3278 3228 3278 2384 
Q 3278 1506 3087 986 
Q 2897 466 2520 194 
Q 2144 -78 1638 -78 
Q 1100 -78 759 220 
Q 419 519 350 1059 
z
M 2653 3081 
Q 2653 3566 2395 3850 
Q 2138 4134 1775 4134 
Q 1400 4134 1122 3828 
Q 844 3522 844 3034 
Q 844 2597 1108 2323 
Q 1372 2050 1759 2050 
Q 2150 2050 2401 2323 
Q 2653 2597 2653 3081 
z
" transform="scale(0.015625)"/>
       </defs>
       <use xlink:href="#ArialMT-32"/>
       <use xlink:href="#ArialMT-30" x="55.615234"/>
       <use xlink:href="#ArialMT-31" x="111.230469"/>
       <use xlink:href="#ArialMT-39" x="166.845703"/>
      </g>
     </g>
    </g>
    <g id="xtick_6">
     <g id="line2d_6">
      <path d="M 545.102361 248.937 
L 545.102361 27.177 
" clip-path="url(#pbb9a77b74b)" style="fill: none; stroke: #cccccc; stroke-width: 0.8; stroke-linecap: round"/>
     </g>
     <g id="text_6">
      <!-- 2020 -->
      <g style="fill: #262626" transform="translate(525.527861 269.83475) scale(0.176 -0.176)">
       <use xlink:href="#ArialMT-32"/>
       <use xlink:href="#ArialMT-30" x="55.615234"/>
       <use xlink:href="#ArialMT-32" x="111.230469"/>
       <use xlink:href="#ArialMT-30" x="166.845703"/>
      </g>
     </g>
    </g>
    <g id="xtick_7">
     <g id="line2d_7">
      <path d="M 641.048401 248.937 
L 641.048401 27.177 
" clip-path="url(#pbb9a77b74b)" style="fill: none; stroke: #cccccc; stroke-width: 0.8; stroke-linecap: round"/>
     </g>
     <g id="text_7">
      <!-- 2021 -->
      <g style="fill: #262626" transform="translate(621.473901 269.83475) scale(0.176 -0.176)">
       <use xlink:href="#ArialMT-32"/>
       <use xlink:href="#ArialMT-30" x="55.615234"/>
       <use xlink:href="#ArialMT-32" x="111.230469"/>
       <use xlink:href="#ArialMT-31" x="166.845703"/>
      </g>
     </g>
    </g>
    <g id="xtick_8">
     <g id="line2d_8">
      <path d="M 736.732294 248.937 
L 736.732294 27.177 
" clip-path="url(#pbb9a77b74b)" style="fill: none; stroke: #cccccc; stroke-width: 0.8; stroke-linecap: round"/>
     </g>
     <g id="text_8">
      <!-- 2022 -->
      <g style="fill: #262626" transform="translate(717.157794 269.83475) scale(0.176 -0.176)">
       <use xlink:href="#ArialMT-32"/>
       <use xlink:href="#ArialMT-30" x="55.615234"/>
       <use xlink:href="#ArialMT-32" x="111.230469"/>
       <use xlink:href="#ArialMT-32" x="166.845703"/>
      </g>
     </g>
    </g>
    <g id="xtick_9">
     <g id="line2d_9">
      <path d="M 832.416186 248.937 
L 832.416186 27.177 
" clip-path="url(#pbb9a77b74b)" style="fill: none; stroke: #cccccc; stroke-width: 0.8; stroke-linecap: round"/>
     </g>
     <g id="text_9">
      <!-- 2023 -->
      <g style="fill: #262626" transform="translate(812.841686 269.83475) scale(0.176 -0.176)">
       <defs>
        <path id="ArialMT-33" d="M 269 1209 
L 831 1284 
Q 928 806 1161 595 
Q 1394 384 1728 384 
Q 2125 384 2398 659 
Q 2672 934 2672 1341 
Q 2672 1728 2419 1979 
Q 2166 2231 1775 2231 
Q 1616 2231 1378 2169 
L 1441 2663 
Q 1497 2656 1531 2656 
Q 1891 2656 2178 2843 
Q 2466 3031 2466 3422 
Q 2466 3731 2256 3934 
Q 2047 4138 1716 4138 
Q 1388 4138 1169 3931 
Q 950 3725 888 3313 
L 325 3413 
Q 428 3978 793 4289 
Q 1159 4600 1703 4600 
Q 2078 4600 2393 4439 
Q 2709 4278 2876 4000 
Q 3044 3722 3044 3409 
Q 3044 3113 2884 2869 
Q 2725 2625 2413 2481 
Q 2819 2388 3044 2092 
Q 3269 1797 3269 1353 
Q 3269 753 2831 336 
Q 2394 -81 1725 -81 
Q 1122 -81 723 278 
Q 325 638 269 1209 
z
" transform="scale(0.015625)"/>
       </defs>
       <use xlink:href="#ArialMT-32"/>
       <use xlink:href="#ArialMT-30" x="55.615234"/>
       <use xlink:href="#ArialMT-32" x="111.230469"/>
       <use xlink:href="#ArialMT-33" x="166.845703"/>
      </g>
     </g>
    </g>
    <g id="xtick_10">
     <g id="line2d_10">
      <path d="M 847.62075 248.937 
L 847.62075 27.177 
" clip-path="url(#pbb9a77b74b)" style="fill: none; stroke: #cccccc; stroke-width: 0.8; stroke-linecap: round"/>
     </g>
    </g>
    <g id="xtick_11"/>
    <g id="xtick_12"/>
    <g id="xtick_13"/>
    <g id="xtick_14"/>
    <g id="xtick_15"/>
    <g id="xtick_16"/>
    <g id="xtick_17"/>
    <g id="xtick_18"/>
    <g id="xtick_19"/>
    <g id="xtick_20"/>
    <g id="xtick_21"/>
    <g id="xtick_22"/>
    <g id="xtick_23"/>
    <g id="xtick_24"/>
    <g id="xtick_25"/>
    <g id="xtick_26"/>
    <g id="xtick_27"/>
    <g id="xtick_28"/>
    <g id="xtick_29"/>
    <g id="xtick_30"/>
    <g id="xtick_31"/>
    <g id="xtick_32"/>
    <g id="xtick_33"/>
    <g id="xtick_34"/>
    <g id="text_10">
     <!-- Date -->
     <g style="fill: #262626" transform="translate(436.74375 291.07575) scale(0.192 -0.192)">
      <defs>
       <path id="ArialMT-44" d="M 494 0 
L 494 4581 
L 2072 4581 
Q 2606 4581 2888 4516 
Q 3281 4425 3559 4188 
Q 3922 3881 4101 3404 
Q 4281 2928 4281 2316 
Q 4281 1794 4159 1391 
Q 4038 988 3847 723 
Q 3656 459 3429 307 
Q 3203 156 2883 78 
Q 2563 0 2147 0 
L 494 0 
z
M 1100 541 
L 2078 541 
Q 2531 541 2789 625 
Q 3047 709 3200 863 
Q 3416 1078 3536 1442 
Q 3656 1806 3656 2325 
Q 3656 3044 3420 3430 
Q 3184 3816 2847 3947 
Q 2603 4041 2063 4041 
L 1100 4041 
L 1100 541 
z
" transform="scale(0.015625)"/>
       <path id="ArialMT-61" d="M 2588 409 
Q 2275 144 1986 34 
Q 1697 -75 1366 -75 
Q 819 -75 525 192 
Q 231 459 231 875 
Q 231 1119 342 1320 
Q 453 1522 633 1644 
Q 813 1766 1038 1828 
Q 1203 1872 1538 1913 
Q 2219 1994 2541 2106 
Q 2544 2222 2544 2253 
Q 2544 2597 2384 2738 
Q 2169 2928 1744 2928 
Q 1347 2928 1158 2789 
Q 969 2650 878 2297 
L 328 2372 
Q 403 2725 575 2942 
Q 747 3159 1072 3276 
Q 1397 3394 1825 3394 
Q 2250 3394 2515 3294 
Q 2781 3194 2906 3042 
Q 3031 2891 3081 2659 
Q 3109 2516 3109 2141 
L 3109 1391 
Q 3109 606 3145 398 
Q 3181 191 3288 0 
L 2700 0 
Q 2613 175 2588 409 
z
M 2541 1666 
Q 2234 1541 1622 1453 
Q 1275 1403 1131 1340 
Q 988 1278 909 1158 
Q 831 1038 831 891 
Q 831 666 1001 516 
Q 1172 366 1500 366 
Q 1825 366 2078 508 
Q 2331 650 2450 897 
Q 2541 1088 2541 1459 
L 2541 1666 
z
" transform="scale(0.015625)"/>
       <path id="ArialMT-74" d="M 1650 503 
L 1731 6 
Q 1494 -44 1306 -44 
Q 1000 -44 831 53 
Q 663 150 594 308 
Q 525 466 525 972 
L 525 2881 
L 113 2881 
L 113 3319 
L 525 3319 
L 525 4141 
L 1084 4478 
L 1084 3319 
L 1650 3319 
L 1650 2881 
L 1084 2881 
L 1084 941 
Q 1084 700 1114 631 
Q 1144 563 1211 522 
Q 1278 481 1403 481 
Q 1497 481 1650 503 
z
" transform="scale(0.015625)"/>
       <path id="ArialMT-65" d="M 2694 1069 
L 3275 997 
Q 3138 488 2766 206 
Q 2394 -75 1816 -75 
Q 1088 -75 661 373 
Q 234 822 234 1631 
Q 234 2469 665 2931 
Q 1097 3394 1784 3394 
Q 2450 3394 2872 2941 
Q 3294 2488 3294 1666 
Q 3294 1616 3291 1516 
L 816 1516 
Q 847 969 1125 678 
Q 1403 388 1819 388 
Q 2128 388 2347 550 
Q 2566 713 2694 1069 
z
M 847 1978 
L 2700 1978 
Q 2663 2397 2488 2606 
Q 2219 2931 1791 2931 
Q 1403 2931 1139 2672 
Q 875 2413 847 1978 
z
" transform="scale(0.015625)"/>
      </defs>
      <use xlink:href="#ArialMT-44"/>
      <use xlink:href="#ArialMT-61" x="72.216797"/>
      <use xlink:href="#ArialMT-74" x="127.832031"/>
      <use xlink:href="#ArialMT-65" x="155.615234"/>
     </g>
    </g>
   </g>
   <g id="matplotlib.axis_2">
    <g id="ytick_1">
     <g id="line2d_11">
      <path d="M 66.42075 226.106042 
L 847.62075 226.106042 
" clip-path="url(#pbb9a77b74b)" style="fill: none; stroke: #cccccc; stroke-width: 0.8; stroke-linecap: round"/>
     </g>
     <g id="text_11">
      <!-- 0 -->
      <g style="fill: #262626" transform="translate(48.3335 232.404917) scale(0.176 -0.176)">
       <use xlink:href="#ArialMT-30"/>
      </g>
     </g>
    </g>
    <g id="ytick_2">
     <g id="line2d_12">
      <path d="M 66.42075 172.372551 
L 847.62075 172.372551 
" clip-path="url(#pbb9a77b74b)" style="fill: none; stroke: #cccccc; stroke-width: 0.8; stroke-linecap: round"/>
     </g>
     <g id="text_12">
      <!-- 200 -->
      <g style="fill: #262626" transform="translate(28.759 178.671426) scale(0.176 -0.176)">
       <use xlink:href="#ArialMT-32"/>
       <use xlink:href="#ArialMT-30" x="55.615234"/>
       <use xlink:href="#ArialMT-30" x="111.230469"/>
      </g>
     </g>
    </g>
    <g id="ytick_3">
     <g id="line2d_13">
      <path d="M 66.42075 118.63906 
L 847.62075 118.63906 
" clip-path="url(#pbb9a77b74b)" style="fill: none; stroke: #cccccc; stroke-width: 0.8; stroke-linecap: round"/>
     </g>
     <g id="text_13">
      <!-- 400 -->
      <g style="fill: #262626" transform="translate(28.759 124.937935) scale(0.176 -0.176)">
       <defs>
        <path id="ArialMT-34" d="M 2069 0 
L 2069 1097 
L 81 1097 
L 81 1613 
L 2172 4581 
L 2631 4581 
L 2631 1613 
L 3250 1613 
L 3250 1097 
L 2631 1097 
L 2631 0 
L 2069 0 
z
M 2069 1613 
L 2069 3678 
L 634 1613 
L 2069 1613 
z
" transform="scale(0.015625)"/>
       </defs>
       <use xlink:href="#ArialMT-34"/>
       <use xlink:href="#ArialMT-30" x="55.615234"/>
       <use xlink:href="#ArialMT-30" x="111.230469"/>
      </g>
     </g>
    </g>
    <g id="ytick_4">
     <g id="line2d_14">
      <path d="M 66.42075 64.905568 
L 847.62075 64.905568 
" clip-path="url(#pbb9a77b74b)" style="fill: none; stroke: #cccccc; stroke-width: 0.8; stroke-linecap: round"/>
     </g>
     <g id="text_14">
      <!-- 600 -->
      <g style="fill: #262626" transform="translate(28.759 71.204443) scale(0.176 -0.176)">
       <use xlink:href="#ArialMT-36"/>
       <use xlink:href="#ArialMT-30" x="55.615234"/>
       <use xlink:href="#ArialMT-30" x="111.230469"/>
      </g>
     </g>
    </g>
    <g id="text_15">
     <!-- Euro/MWhe -->
     <g style="fill: #262626" transform="translate(20.943 188.736) rotate(-90) scale(0.192 -0.192)">
      <defs>
       <path id="ArialMT-45" d="M 506 0 
L 506 4581 
L 3819 4581 
L 3819 4041 
L 1113 4041 
L 1113 2638 
L 3647 2638 
L 3647 2100 
L 1113 2100 
L 1113 541 
L 3925 541 
L 3925 0 
L 506 0 
z
" transform="scale(0.015625)"/>
       <path id="ArialMT-75" d="M 2597 0 
L 2597 488 
Q 2209 -75 1544 -75 
Q 1250 -75 995 37 
Q 741 150 617 320 
Q 494 491 444 738 
Q 409 903 409 1263 
L 409 3319 
L 972 3319 
L 972 1478 
Q 972 1038 1006 884 
Q 1059 663 1231 536 
Q 1403 409 1656 409 
Q 1909 409 2131 539 
Q 2353 669 2445 892 
Q 2538 1116 2538 1541 
L 2538 3319 
L 3100 3319 
L 3100 0 
L 2597 0 
z
" transform="scale(0.015625)"/>
       <path id="ArialMT-72" d="M 416 0 
L 416 3319 
L 922 3319 
L 922 2816 
Q 1116 3169 1280 3281 
Q 1444 3394 1641 3394 
Q 1925 3394 2219 3213 
L 2025 2691 
Q 1819 2813 1613 2813 
Q 1428 2813 1281 2702 
Q 1134 2591 1072 2394 
Q 978 2094 978 1738 
L 978 0 
L 416 0 
z
" transform="scale(0.015625)"/>
       <path id="ArialMT-6f" d="M 213 1659 
Q 213 2581 725 3025 
Q 1153 3394 1769 3394 
Q 2453 3394 2887 2945 
Q 3322 2497 3322 1706 
Q 3322 1066 3130 698 
Q 2938 331 2570 128 
Q 2203 -75 1769 -75 
Q 1072 -75 642 372 
Q 213 819 213 1659 
z
M 791 1659 
Q 791 1022 1069 705 
Q 1347 388 1769 388 
Q 2188 388 2466 706 
Q 2744 1025 2744 1678 
Q 2744 2294 2464 2611 
Q 2184 2928 1769 2928 
Q 1347 2928 1069 2612 
Q 791 2297 791 1659 
z
" transform="scale(0.015625)"/>
       <path id="ArialMT-2f" d="M 0 -78 
L 1328 4659 
L 1778 4659 
L 453 -78 
L 0 -78 
z
" transform="scale(0.015625)"/>
       <path id="ArialMT-4d" d="M 475 0 
L 475 4581 
L 1388 4581 
L 2472 1338 
Q 2622 884 2691 659 
Q 2769 909 2934 1394 
L 4031 4581 
L 4847 4581 
L 4847 0 
L 4263 0 
L 4263 3834 
L 2931 0 
L 2384 0 
L 1059 3900 
L 1059 0 
L 475 0 
z
" transform="scale(0.015625)"/>
       <path id="ArialMT-57" d="M 1294 0 
L 78 4581 
L 700 4581 
L 1397 1578 
Q 1509 1106 1591 641 
Q 1766 1375 1797 1488 
L 2669 4581 
L 3400 4581 
L 4056 2263 
Q 4303 1400 4413 641 
Q 4500 1075 4641 1638 
L 5359 4581 
L 5969 4581 
L 4713 0 
L 4128 0 
L 3163 3491 
Q 3041 3928 3019 4028 
Q 2947 3713 2884 3491 
L 1913 0 
L 1294 0 
z
" transform="scale(0.015625)"/>
       <path id="ArialMT-68" d="M 422 0 
L 422 4581 
L 984 4581 
L 984 2938 
Q 1378 3394 1978 3394 
Q 2347 3394 2619 3248 
Q 2891 3103 3008 2847 
Q 3125 2591 3125 2103 
L 3125 0 
L 2563 0 
L 2563 2103 
Q 2563 2525 2380 2717 
Q 2197 2909 1863 2909 
Q 1613 2909 1392 2779 
Q 1172 2650 1078 2428 
Q 984 2206 984 1816 
L 984 0 
L 422 0 
z
" transform="scale(0.015625)"/>
      </defs>
      <use xlink:href="#ArialMT-45"/>
      <use xlink:href="#ArialMT-75" x="66.699219"/>
      <use xlink:href="#ArialMT-72" x="122.314453"/>
      <use xlink:href="#ArialMT-6f" x="155.615234"/>
      <use xlink:href="#ArialMT-2f" x="211.230469"/>
      <use xlink:href="#ArialMT-4d" x="239.013672"/>
      <use xlink:href="#ArialMT-57" x="322.314453"/>
      <use xlink:href="#ArialMT-68" x="416.699219"/>
      <use xlink:href="#ArialMT-65" x="472.314453"/>
     </g>
    </g>
   </g>
   <g id="line2d_15">
    <path d="M 66.42075 216.471627 
L 67.469341 216.385654 
L 67.731488 217.060009 
L 67.993636 215.738165 
L 68.255784 218.56992 
L 68.517931 219.529063 
L 69.042227 225.705728 
L 69.304374 220.044905 
L 69.828669 218.669327 
L 70.090817 219.453836 
L 70.352965 217.000902 
L 70.615112 217.707498 
L 70.87726 218.803661 
L 71.139408 214.620509 
L 71.401555 213.478672 
L 71.663703 214.034814 
L 72.187998 214.752156 
L 72.450146 218.164232 
L 72.712294 218.467827 
L 72.974441 216.103553 
L 73.498737 218.725747 
L 73.760884 218.870828 
L 74.023032 215.818766 
L 74.28518 218.105126 
L 74.547327 218.250206 
L 74.809475 214.695736 
L 75.33377 213.078357 
L 75.858065 215.550098 
L 76.382361 222.524705 
L 76.906656 214.177207 
L 77.168804 213.054177 
L 77.430951 213.169704 
L 77.955247 217.30987 
L 78.217394 218.242146 
L 78.74169 214.556028 
L 79.003837 214.494235 
L 79.528133 217.801531 
L 79.79028 217.860638 
L 80.052428 217.304497 
L 80.314576 217.514057 
L 80.576723 216.756415 
L 80.838871 214.196014 
L 81.101018 216.133106 
L 81.363166 215.644132 
L 81.625314 218.365733 
L 81.887461 223.148014 
L 82.149609 218.967548 
L 82.411757 218.688134 
L 82.673904 219.064268 
L 82.936052 216.272814 
L 83.1982 215.335164 
L 83.460347 218.583354 
L 83.722495 219.975051 
L 83.984643 215.603832 
L 84.24679 215.958473 
L 84.508938 216.713428 
L 84.771086 215.528605 
L 85.033233 216.21908 
L 85.557529 218.800974 
L 85.819676 217.814965 
L 86.081824 217.476444 
L 86.343971 216.296994 
L 86.606119 216.071313 
L 86.868267 216.622081 
L 87.392562 219.032028 
L 87.65471 214.99127 
L 87.916857 213.156271 
L 88.179005 215.547411 
L 88.441153 215.13635 
L 88.965448 219.013222 
L 89.227596 223.462355 
L 89.489743 221.081961 
L 89.751891 221.546756 
L 90.014039 220.549999 
L 90.276186 217.49525 
L 90.538334 219.62041 
L 90.800482 218.559174 
L 91.062629 219.319502 
L 91.324777 219.005162 
L 91.849072 214.773649 
L 92.11122 214.754842 
L 92.373367 216.525361 
L 92.897663 226.084549 
L 93.15981 219.639217 
L 93.421958 217.49525 
L 93.684106 218.825154 
L 93.946253 216.799402 
L 94.208401 216.071313 
L 94.470549 218.999788 
L 94.732696 219.797731 
L 94.994844 217.32599 
L 95.256992 217.992285 
L 95.519139 216.399087 
L 96.043435 217.164789 
L 96.305582 219.066955 
L 96.56773 219.813851 
L 96.829878 216.630141 
L 97.092025 216.213707 
L 97.354173 217.420024 
L 97.61632 216.740295 
L 97.878468 219.902511 
L 98.140616 219.126062 
L 98.402763 221.767063 
L 98.664911 217.524804 
L 98.927059 218.913815 
L 99.189206 219.265769 
L 99.451354 218.373793 
L 99.713502 218.215279 
L 100.237797 225.036746 
L 100.499945 218.183039 
L 100.762092 218.301253 
L 101.02424 218.927248 
L 101.286388 220.660153 
L 101.548535 217.887505 
L 101.810683 220.893894 
L 102.072831 222.583812 
L 102.334978 218.046019 
L 102.597126 218.242146 
L 102.859273 216.767162 
L 103.121421 216.939109 
L 103.383569 217.734365 
L 103.907864 220.861654 
L 104.170012 219.609663 
L 104.432159 217.266883 
L 104.694307 217.45495 
L 104.956455 217.917058 
L 105.218602 217.892878 
L 105.742898 222.143197 
L 106.005045 217.45495 
L 106.267193 220.412979 
L 106.529341 218.177666 
L 106.791488 218.54574 
L 107.053636 218.185726 
L 107.577931 221.135695 
L 107.840079 217.855265 
L 108.102227 216.963289 
L 108.364374 217.385097 
L 108.626522 216.442074 
L 108.888669 216.710741 
L 109.412965 221.022854 
L 109.675112 217.41465 
L 109.93726 216.068626 
L 110.199408 217.637644 
L 110.461555 217.35823 
L 110.723703 217.339423 
L 111.247998 219.795044 
L 111.510146 217.119116 
L 111.772294 217.613464 
L 112.034441 217.745111 
L 112.296589 216.286247 
L 112.558737 216.423267 
L 113.083032 220.211478 
L 113.34518 216.444761 
L 113.607327 216.533421 
L 113.869475 217.127176 
L 114.131622 216.965976 
L 114.39377 213.98108 
L 114.655918 217.17285 
L 114.918065 218.583354 
L 115.442361 213.341652 
L 115.704508 218.215279 
L 115.966656 218.36842 
L 116.228804 217.191656 
L 116.490951 217.336737 
L 116.753099 218.653207 
L 117.015247 215.098737 
L 117.277394 214.719916 
L 117.539542 213.314785 
L 117.80169 213.913913 
L 118.063837 215.789212 
L 118.325985 216.036386 
L 118.588133 218.40066 
L 118.85028 214.585582 
L 119.112428 213.85212 
L 119.636723 213.352398 
L 119.898871 214.290048 
L 120.161018 222.384998 
L 120.423166 222.567692 
L 120.685314 217.863325 
L 120.947461 219.456523 
L 121.209609 218.841274 
L 121.471757 219.349056 
L 121.733904 217.890192 
L 121.996052 220.262525 
L 122.2582 221.382869 
L 122.520347 218.191099 
L 122.782495 217.113743 
L 123.044643 216.767162 
L 123.568938 216.917615 
L 123.831086 218.57798 
L 124.093233 218.795601 
L 124.617529 215.687118 
L 124.879676 216.022953 
L 125.403971 217.785411 
L 125.666119 217.395844 
L 125.928267 218.067512 
L 126.190414 215.249191 
L 126.452562 215.939666 
L 126.71471 215.523231 
L 126.976857 216.192213 
L 127.501153 219.018595 
L 127.7633 221.635416 
L 128.025448 217.823025 
L 128.287596 218.919188 
L 128.549743 218.411406 
L 128.811891 217.540924 
L 129.074039 215.004703 
L 129.336186 218.126619 
L 129.598334 218.959488 
L 129.860482 216.581781 
L 130.122629 215.598458 
L 130.384777 215.939666 
L 130.646924 215.19277 
L 130.909072 217.328677 
L 131.433367 225.334967 
L 131.695515 217.094936 
L 131.957663 216.573721 
L 132.481958 217.076129 
L 132.744106 216.922989 
L 133.268401 219.077702 
L 133.530549 217.092249 
L 133.792696 218.338866 
L 134.054844 217.18897 
L 134.316992 218.551114 
L 134.579139 216.149227 
L 135.103435 220.120132 
L 135.365582 216.216393 
L 135.62773 217.049262 
L 135.889878 214.558715 
L 136.152025 217.522117 
L 136.414173 216.501181 
L 136.67632 217.32599 
L 136.938468 219.182482 
L 137.200616 216.748355 
L 137.462763 216.880002 
L 137.987059 215.598458 
L 138.249206 216.006833 
L 138.511354 218.33618 
L 138.773502 217.731678 
L 139.035649 215.582338 
L 139.297797 216.08206 
L 139.559945 215.14441 
L 139.822092 213.392698 
L 140.08424 214.241688 
L 140.608535 220.176552 
L 140.870683 216.549541 
L 141.132831 214.779022 
L 141.394978 214.072427 
L 141.657126 215.448004 
L 141.919273 213.277171 
L 142.181421 215.281431 
L 142.443569 215.958473 
L 142.705716 212.549083 
L 142.967864 213.115971 
L 143.492159 216.127733 
L 143.754307 215.818766 
L 144.016455 217.387783 
L 144.278602 217.043889 
L 144.54075 215.528605 
L 145.065045 214.741409 
L 145.327193 212.758643 
L 146.113636 217.594657 
L 146.375784 215.305611 
L 146.637931 214.92679 
L 146.900079 214.752156 
L 147.162227 214.324974 
L 147.948669 220.211478 
L 148.210817 218.470513 
L 148.472965 218.191099 
L 148.735112 216.697308 
L 148.99726 216.25938 
L 149.259408 217.637644 
L 149.521555 220.450592 
L 149.783703 219.698324 
L 150.045851 217.914372 
L 150.307998 217.868698 
L 150.570146 220.466713 
L 150.832294 219.260396 
L 151.094441 215.842946 
L 151.356589 218.153486 
L 151.618737 219.134122 
L 151.880884 212.707596 
L 152.143032 216.699995 
L 152.667327 212.355642 
L 153.45377 223.088907 
L 153.978065 216.474314 
L 154.240213 216.2755 
L 154.502361 214.730662 
L 155.026656 219.819224 
L 155.288804 221.261968 
L 155.550951 215.187397 
L 155.813099 216.791342 
L 156.075247 216.751042 
L 156.337394 218.231399 
L 156.599542 219.023968 
L 156.86169 219.230842 
L 157.123837 218.61828 
L 157.385985 214.875743 
L 157.648133 214.623195 
L 158.172428 217.35017 
L 158.434576 217.363603 
L 158.696723 218.948741 
L 158.958871 221.436602 
L 159.221018 219.829971 
L 159.483166 221.208235 
L 159.745314 220.68702 
L 160.531757 224.25761 
L 160.793904 221.759003 
L 161.056052 217.919745 
L 161.3182 217.720931 
L 161.842495 220.101325 
L 162.104643 219.421596 
L 162.36679 221.404362 
L 162.628938 222.229171 
L 162.891086 218.599474 
L 163.153233 217.116429 
L 163.415381 217.078816 
L 163.677529 217.29375 
L 163.939676 218.704254 
L 164.201824 218.459767 
L 164.463971 220.509699 
L 164.726119 217.078816 
L 164.988267 218.201846 
L 165.250414 218.234086 
L 165.512562 217.076129 
L 165.77471 216.565661 
L 166.036857 218.567234 
L 166.299005 218.663954 
L 166.8233 213.220751 
L 167.085448 212.973577 
L 167.347596 212.105781 
L 167.609743 217.202403 
L 167.871891 218.5135 
L 168.134039 219.080388 
L 168.396186 218.48932 
L 168.658334 219.357116 
L 168.920482 220.907327 
L 169.182629 219.099195 
L 169.444777 220.101325 
L 169.706924 222.930393 
L 169.969072 222.779939 
L 170.23122 220.533879 
L 170.493367 221.546756 
L 171.017663 218.948741 
L 171.27981 218.693507 
L 171.541958 221.87453 
L 171.804106 223.424741 
L 172.066253 222.777253 
L 172.852696 219.139495 
L 173.114844 218.430213 
L 173.639139 221.93901 
L 174.163435 217.44689 
L 174.425582 219.077702 
L 174.68773 218.607534 
L 174.949878 218.795601 
L 175.212025 222.393058 
L 175.474173 223.868043 
L 175.73632 220.69508 
L 175.998468 219.51563 
L 176.260616 219.60429 
L 176.522763 218.642461 
L 176.784911 218.56992 
L 177.309206 221.189428 
L 177.571354 219.63653 
L 177.833502 219.52369 
L 178.095649 219.53981 
L 178.357797 218.508127 
L 178.619945 219.453836 
L 179.14424 220.359246 
L 179.406388 218.196473 
L 179.668535 218.470513 
L 179.930683 219.233529 
L 180.192831 219.053522 
L 180.454978 218.526933 
L 180.717126 218.661267 
L 180.979273 219.993858 
L 181.241421 218.744554 
L 181.503569 218.811721 
L 181.765716 219.257709 
L 182.027864 218.712314 
L 182.290012 219.289949 
L 182.552159 219.574737 
L 182.814307 221.267342 
L 183.076455 219.314129 
L 183.338602 218.45708 
L 183.60075 218.994415 
L 183.862898 218.620967 
L 184.125045 219.220096 
L 184.649341 223.271601 
L 184.911488 225.703041 
L 185.173636 219.883704 
L 185.435784 218.814408 
L 185.697931 218.6344 
L 185.960079 218.682761 
L 186.222227 220.391486 
L 186.484374 221.321075 
L 186.746522 218.795601 
L 187.008669 218.919188 
L 187.270817 220.104011 
L 187.532965 219.832657 
L 187.795112 218.406033 
L 188.319408 221.044348 
L 188.843703 218.492007 
L 189.105851 218.430213 
L 189.630146 219.351743 
L 189.892294 221.073901 
L 190.154441 221.079274 
L 190.416589 219.719817 
L 190.678737 220.587613 
L 191.203032 218.967548 
L 191.46518 219.104569 
L 191.989475 221.807363 
L 192.251622 219.005162 
L 192.51377 218.822468 
L 192.775918 219.085762 
L 193.038065 218.019152 
L 193.300213 219.246962 
L 193.562361 219.61235 
L 193.824508 221.079274 
L 194.086656 218.57798 
L 194.348804 218.524247 
L 194.610951 218.747241 
L 194.873099 220.944941 
L 195.135247 220.087891 
L 195.397394 222.277531 
L 195.659542 229.539613 
L 195.92169 220.125505 
L 196.183837 218.849334 
L 196.445985 219.432343 
L 196.97028 218.951428 
L 197.232428 222.586499 
L 197.494576 224.099097 
L 198.018871 218.019152 
L 198.281018 217.892878 
L 198.543166 217.140609 
L 199.067461 220.464026 
L 199.329609 224.416124 
L 199.591757 218.250206 
L 199.853904 218.183039 
L 200.116052 217.857952 
L 200.3782 218.728434 
L 200.640347 218.341553 
L 200.902495 219.983111 
L 201.164643 222.476345 
L 201.42679 219.343683 
L 201.688938 218.33618 
L 201.951086 217.957358 
L 202.213233 218.341553 
L 202.475381 218.279759 
L 202.999676 220.635973 
L 203.261824 217.898252 
L 203.523971 218.263639 
L 203.786119 218.341553 
L 204.048267 217.868698 
L 204.310414 219.013222 
L 204.572562 219.120689 
L 204.83471 220.087891 
L 205.096857 218.158859 
L 205.621153 217.882132 
L 205.8833 217.917058 
L 206.145448 218.61828 
L 206.669743 221.310328 
L 207.194039 217.156729 
L 207.456186 217.379723 
L 207.718334 218.239459 
L 207.980482 217.793471 
L 208.242629 218.913815 
L 208.504777 221.549442 
L 208.766924 218.575294 
L 209.029072 217.274943 
L 209.29122 218.739181 
L 209.553367 218.083632 
L 209.815515 218.954115 
L 210.33981 222.043791 
L 210.601958 217.728991 
L 211.126253 221.334508 
L 211.388401 218.153486 
L 211.650549 218.583354 
L 212.174844 222.00349 
L 212.436992 219.238902 
L 212.699139 218.013779 
L 212.961287 217.44689 
L 213.223435 219.424283 
L 213.485582 218.980982 
L 213.74773 219.496823 
L 214.009878 220.281332 
L 214.272025 218.040645 
L 214.534173 217.395844 
L 214.79632 218.212593 
L 215.058468 217.258823 
L 215.320616 217.508684 
L 215.844911 218.838588 
L 216.107059 217.199716 
L 216.369206 217.25345 
L 216.631354 217.127176 
L 217.417797 218.709627 
L 217.679945 219.367863 
L 217.942092 218.067512 
L 218.20424 217.39047 
L 218.466388 218.293193 
L 218.728535 218.5135 
L 218.990683 217.616151 
L 219.514978 222.051851 
L 220.039273 218.381853 
L 220.301421 218.534994 
L 220.563569 218.36036 
L 220.825716 218.637087 
L 221.087864 221.020168 
L 221.350012 220.222225 
L 221.612159 218.564547 
L 221.874307 218.150799 
L 222.136455 218.102439 
L 222.398602 217.831085 
L 222.66075 217.879445 
L 223.185045 221.981997 
L 223.447193 218.422153 
L 223.709341 217.629584 
L 223.971488 218.177666 
L 224.233636 218.381853 
L 224.495784 218.113186 
L 225.020079 220.262525 
L 225.282227 218.287819 
L 225.544374 217.47107 
L 225.806522 217.884818 
L 226.068669 217.691378 
L 226.330817 217.788098 
L 226.592965 218.260953 
L 226.855112 219.62041 
L 227.11726 216.133106 
L 227.379408 217.274943 
L 227.641555 217.825711 
L 227.903703 217.793471 
L 228.165851 217.296437 
L 228.427998 218.623654 
L 228.690146 218.776794 
L 228.952294 217.162103 
L 229.214441 217.597344 
L 229.476589 218.295879 
L 229.738737 218.607534 
L 230.000884 217.24539 
L 230.263032 218.830528 
L 230.52518 219.402789 
L 230.787327 216.748355 
L 231.049475 216.820895 
L 231.311622 216.689248 
L 231.835918 217.750485 
L 232.098065 218.269013 
L 232.360213 219.886391 
L 232.622361 216.151913 
L 232.884508 216.920302 
L 233.146656 219.598917 
L 233.408804 219.953558 
L 233.670951 216.901495 
L 233.933099 217.210463 
L 234.195247 218.070199 
L 234.457394 217.954672 
L 234.719542 217.986912 
L 234.98169 218.333493 
L 235.243837 217.44689 
L 235.505985 215.746225 
L 236.03028 217.113743 
L 236.292428 212.610876 
L 236.554576 215.885932 
L 236.816723 216.197587 
L 237.341018 218.260953 
L 237.603166 217.363603 
L 237.865314 217.097623 
L 238.127461 214.813949 
L 238.389609 215.386211 
L 238.913904 215.173964 
L 239.176052 215.378151 
L 239.700347 216.818208 
L 240.224643 211.898907 
L 240.748938 215.571591 
L 241.011086 216.388341 
L 241.273233 216.826268 
L 241.535381 216.21908 
L 241.797529 214.558715 
L 242.059676 216.839702 
L 242.321824 217.143296 
L 242.583971 213.88436 
L 242.846119 215.211577 
L 243.108267 215.719359 
L 243.370414 216.820895 
L 243.632562 215.593085 
L 243.89471 211.552326 
L 244.156857 213.153584 
L 244.419005 212.154141 
L 244.681153 213.266425 
L 244.9433 215.488305 
L 245.205448 216.159973 
L 245.467596 215.426511 
L 245.729743 215.259937 
L 245.991891 214.639315 
L 246.516186 219.456523 
L 246.778334 217.629584 
L 247.040482 226.192016 
L 247.302629 216.898809 
L 247.564777 215.687118 
L 247.826924 213.93272 
L 248.089072 215.405018 
L 248.35122 214.658122 
L 248.613367 215.832199 
L 248.875515 217.699438 
L 249.137663 215.03963 
L 249.39981 214.706482 
L 249.924106 218.903068 
L 250.186253 215.448004 
L 250.448401 215.06381 
L 250.710549 215.826826 
L 251.234844 210.488403 
L 251.496992 216.033699 
L 251.759139 217.876758 
L 252.021287 216.493121 
L 252.545582 218.395286 
L 252.80773 213.223438 
L 253.069878 212.919844 
L 253.332025 209.948382 
L 253.594173 212.723716 
L 253.85632 211.761887 
L 254.118468 213.604946 
L 254.380616 214.322288 
L 254.642763 210.70871 
L 255.167059 215.316357 
L 255.429206 214.01332 
L 255.691354 216.060566 
L 255.953502 224.15283 
L 256.477797 229.542299 
L 256.739945 224.512844 
L 257.002092 214.779022 
L 257.26424 213.698979 
L 257.526388 214.822009 
L 258.050683 218.105126 
L 258.312831 213.621066 
L 258.837126 218.52962 
L 259.099273 212.629683 
L 259.361421 212.836557 
L 259.623569 215.789212 
L 259.885716 214.580209 
L 260.147864 211.168132 
L 260.410012 211.361572 
L 260.672159 216.756415 
L 260.934307 216.665068 
L 261.196455 215.474871 
L 261.458602 217.162103 
L 261.72075 216.353414 
L 261.982898 204.529359 
L 262.245045 203.253189 
L 262.507193 207.366487 
L 262.769341 208.070396 
L 263.031488 209.201486 
L 263.293636 213.220751 
L 263.555784 214.988583 
L 264.080079 198.750322 
L 264.342227 203.118855 
L 264.604374 213.048804 
L 264.866522 214.290048 
L 265.128669 214.757529 
L 265.390817 215.985339 
L 265.915112 207.385294 
L 266.17726 212.479229 
L 266.439408 213.954213 
L 266.701555 213.196571 
L 266.963703 213.94884 
L 267.225851 214.330348 
L 267.487998 209.5212 
L 267.750146 211.8398 
L 268.012294 209.924202 
L 268.274441 210.671097 
L 268.536589 214.026754 
L 269.060884 217.234643 
L 269.323032 214.693049 
L 269.58518 214.502295 
L 269.847327 213.438372 
L 270.109475 215.20083 
L 270.371622 214.518415 
L 270.63377 215.356658 
L 270.895918 218.4732 
L 271.420213 217.210463 
L 271.682361 219.950871 
L 272.206656 218.131992 
L 272.468804 218.36036 
L 272.730951 222.301711 
L 272.993099 218.486633 
L 273.255247 217.874072 
L 273.517394 216.546854 
L 273.779542 218.787541 
L 274.04169 215.773092 
L 274.303837 217.129863 
L 274.565985 221.200175 
L 274.828133 215.673685 
L 275.09028 214.115414 
L 275.352428 216.358787 
L 275.614576 215.947726 
L 275.876723 216.952542 
L 276.138871 217.312557 
L 276.401018 221.073901 
L 276.663166 216.321174 
L 276.925314 216.904182 
L 277.449609 216.952542 
L 277.973904 220.764933 
L 278.236052 222.527392 
L 278.4982 218.207219 
L 278.760347 217.788098 
L 279.022495 216.579094 
L 279.284643 216.931049 
L 279.54679 216.853135 
L 279.808938 218.532307 
L 280.071086 218.596787 
L 280.333233 216.710741 
L 280.595381 216.863882 
L 280.857529 217.694064 
L 281.119676 217.129863 
L 281.643971 217.884818 
L 281.906119 218.099752 
L 282.168267 216.028326 
L 282.430414 215.746225 
L 282.692562 217.742425 
L 282.95471 217.761231 
L 283.216857 216.826268 
L 283.479005 216.842389 
L 283.741153 218.701567 
L 284.0033 218.760674 
L 284.265448 217.078816 
L 284.527596 218.852021 
L 284.789743 217.978852 
L 285.051891 217.890192 
L 285.314039 222.774566 
L 286.100482 216.861195 
L 286.362629 216.10624 
L 286.624777 216.2352 
L 287.149072 222.707399 
L 287.41122 222.672472 
L 287.673367 217.653764 
L 288.197663 215.359344 
L 288.45981 216.2352 
L 288.721958 216.205647 
L 288.984106 218.059452 
L 289.246253 229.117805 
L 289.508401 231.761492 
L 289.770549 218.008405 
L 290.032696 216.871942 
L 290.294844 217.24539 
L 290.556992 215.754285 
L 291.081287 218.588727 
L 291.605582 215.405018 
L 291.86773 215.689805 
L 292.129878 217.084189 
L 292.392025 216.466254 
L 292.91632 218.534994 
L 293.178468 216.321174 
L 293.702763 217.44689 
L 294.227059 216.960602 
L 294.751354 220.883147 
L 295.013502 216.345354 
L 295.275649 217.256136 
L 295.537797 217.296437 
L 295.799945 218.744554 
L 296.062092 217.218523 
L 296.586388 220.404919 
L 296.848535 216.06594 
L 297.110683 216.337294 
L 297.372831 217.226583 
L 297.634978 216.358787 
L 297.897126 216.302367 
L 298.421421 220.026098 
L 298.683569 218.709627 
L 299.207864 222.476345 
L 299.470012 218.016465 
L 299.732159 217.022396 
L 299.994307 217.906312 
L 300.256455 220.58224 
L 300.518602 219.367863 
L 300.78075 217.234643 
L 301.042898 216.022953 
L 301.305045 217.586597 
L 301.567193 220.877774 
L 301.829341 219.179795 
L 302.091488 218.403346 
L 302.353636 215.872499 
L 302.615784 216.557601 
L 302.877931 215.413078 
L 303.402227 217.965419 
L 303.664374 220.219538 
L 303.926522 220.963747 
L 304.188669 217.264196 
L 304.450817 215.724732 
L 304.712965 216.549541 
L 304.975112 215.928919 
L 305.499408 218.61828 
L 305.761555 219.58817 
L 306.023703 217.307183 
L 306.810146 215.520545 
L 307.072294 216.017579 
L 307.334441 216.957916 
L 307.596589 217.210463 
L 307.858737 215.362031 
L 308.383032 216.933735 
L 308.64518 216.823582 
L 308.907327 216.22714 
L 309.169475 217.385097 
L 309.431622 217.968105 
L 309.69377 216.006833 
L 309.955918 216.039073 
L 310.218065 216.442074 
L 310.480213 216.13848 
L 310.742361 216.399087 
L 311.266656 218.226026 
L 311.528804 215.708612 
L 311.790951 217.033142 
L 312.053099 217.24539 
L 312.315247 216.957916 
L 312.577394 217.812278 
L 313.10169 224.604191 
L 313.363837 217.452264 
L 313.625985 216.820895 
L 313.888133 217.223896 
L 314.412428 219.486076 
L 314.674576 218.62634 
L 314.936723 220.713887 
L 315.198871 217.215836 
L 315.461018 217.769291 
L 315.723166 217.866012 
L 315.985314 216.576408 
L 316.247461 216.063253 
L 316.509609 220.477459 
L 316.771757 220.426412 
L 317.033904 217.30987 
L 317.296052 218.841274 
L 317.5582 216.450134 
L 317.820347 217.121803 
L 318.082495 217.20509 
L 318.344643 222.411865 
L 318.60679 223.645049 
L 318.868938 217.890192 
L 319.131086 216.116986 
L 319.655381 216.468941 
L 319.917529 215.912799 
L 320.441824 217.951985 
L 320.703971 215.756972 
L 320.966119 215.974593 
L 321.228267 216.409834 
L 321.490414 215.738165 
L 321.752562 215.684432 
L 322.276857 217.823025 
L 322.539005 216.272814 
L 322.801153 216.022953 
L 323.0633 217.790785 
L 323.325448 216.904182 
L 323.587596 218.868141 
L 323.849743 217.347483 
L 324.111891 220.609106 
L 324.374039 220.120132 
L 324.636186 218.072885 
L 324.898334 222.978753 
L 325.422629 216.32386 
L 325.684777 216.1949 
L 325.946924 217.111056 
L 326.209072 214.797829 
L 326.47122 215.066497 
L 326.733367 215.544725 
L 326.995515 215.552785 
L 327.257663 215.308297 
L 327.51981 216.417894 
L 327.781958 216.689248 
L 328.044106 214.690362 
L 328.306253 215.265311 
L 328.568401 215.141724 
L 328.830549 215.246504 
L 329.092696 215.622638 
L 329.616992 218.056765 
L 329.879139 221.237788 
L 330.141287 219.421596 
L 330.403435 218.760674 
L 330.665582 221.210921 
L 330.92773 218.61828 
L 331.189878 224.402691 
L 331.714173 214.746782 
L 331.97632 216.26744 
L 332.238468 217.097623 
L 332.500616 218.908441 
L 332.762763 215.533978 
L 333.024911 217.522117 
L 333.287059 218.086319 
L 333.549206 215.617265 
L 333.811354 215.893992 
L 334.073502 211.971448 
L 334.859945 217.234643 
L 335.122092 220.028785 
L 335.38424 214.894549 
L 335.646388 216.2352 
L 335.908535 216.662381 
L 336.170683 215.461438 
L 336.432831 218.134679 
L 336.957126 238.857 
L 337.219273 217.19703 
L 337.481421 216.21102 
L 337.743569 217.879445 
L 338.005716 216.772535 
L 338.267864 212.554456 
L 338.530012 217.084189 
L 338.792159 217.728991 
L 339.054307 212.344895 
L 339.316455 212.022494 
L 339.578602 207.984422 
L 340.365045 219.808477 
L 340.889341 213.741966 
L 341.151488 215.362031 
L 341.413636 208.691018 
L 341.675784 213.376578 
L 341.937931 214.642002 
L 342.200079 221.103454 
L 342.462227 223.438175 
L 342.724374 215.504425 
L 342.986522 212.960144 
L 343.248669 217.780038 
L 343.510817 219.63653 
L 343.772965 214.480802 
L 344.035112 215.582338 
L 344.29726 221.138381 
L 344.821555 215.896679 
L 345.083703 206.791539 
L 345.607998 209.663594 
L 345.870146 215.362031 
L 346.132294 217.393157 
L 346.394441 216.549541 
L 346.656589 216.619395 
L 346.918737 217.530177 
L 347.180884 217.124489 
L 347.443032 217.852578 
L 347.70518 221.887963 
L 347.967327 221.401675 
L 348.229475 214.805889 
L 348.75377 219.040088 
L 349.015918 217.516744 
L 349.278065 213.642559 
L 349.540213 216.1143 
L 349.802361 216.595214 
L 350.064508 211.060665 
L 350.326656 209.803301 
L 350.588804 209.620607 
L 350.850951 214.601702 
L 351.113099 215.512485 
L 351.637394 228.870631 
L 351.899542 224.16895 
L 352.16169 227.113545 
L 352.423837 216.619395 
L 352.685985 217.591971 
L 353.472428 225.442434 
L 353.734576 232.642722 
L 353.996723 217.23733 
L 354.258871 223.790129 
L 354.521018 218.011092 
L 354.783166 217.377037 
L 355.045314 216.3561 
L 355.307461 219.856837 
L 355.569609 217.976165 
L 355.831757 217.785411 
L 356.093904 214.91873 
L 356.356052 213.330905 
L 356.6182 214.787082 
L 356.880347 217.207776 
L 357.404643 219.332936 
L 357.66679 218.438273 
L 357.928938 218.40872 
L 358.191086 217.766605 
L 358.453233 215.23307 
L 358.715381 216.444761 
L 358.977529 216.861195 
L 359.239676 215.842946 
L 359.501824 216.32386 
L 359.763971 219.786984 
L 360.288267 213.98108 
L 360.550414 217.704811 
L 360.812562 224.733152 
L 361.07471 221.519889 
L 361.336857 216.310427 
L 361.599005 218.317373 
L 362.1233 215.179337 
L 362.385448 215.321731 
L 362.647596 217.089563 
L 362.909743 213.943467 
L 363.171891 213.465239 
L 363.434039 213.352398 
L 363.696186 212.780137 
L 363.958334 215.125603 
L 364.220482 215.732792 
L 364.482629 223.083534 
L 364.744777 217.065383 
L 365.006924 215.434571 
L 365.269072 215.464124 
L 365.53122 216.877315 
L 365.793367 215.203517 
L 366.055515 215.203517 
L 366.317663 216.29162 
L 366.57981 212.498036 
L 367.104106 213.524345 
L 367.366253 213.373892 
L 367.628401 214.228254 
L 367.890549 219.743997 
L 368.414844 213.467925 
L 368.676992 213.132091 
L 369.201287 218.043332 
L 369.463435 215.20083 
L 369.725582 216.871942 
L 369.98773 217.750485 
L 370.249878 212.766703 
L 370.512025 212.691476 
L 370.774173 213.126718 
L 371.03632 216.264754 
L 371.298468 215.950413 
L 371.560616 216.775222 
L 371.822763 218.3926 
L 372.084911 215.026197 
L 372.347059 215.383524 
L 372.609206 213.631812 
L 372.871354 219.639217 
L 373.133502 218.215279 
L 373.395649 225.208693 
L 373.657797 225.254367 
L 373.919945 212.820437 
L 374.182092 214.547968 
L 374.44424 212.266982 
L 374.706388 214.300794 
L 374.968535 211.925774 
L 375.230683 214.985896 
L 375.492831 215.931606 
L 375.754978 211.901594 
L 376.279273 215.477558 
L 376.541421 215.585025 
L 376.803569 219.007848 
L 377.065716 219.058895 
L 377.327864 219.74937 
L 377.590012 218.868141 
L 377.852159 216.630141 
L 378.114307 216.229827 
L 378.376455 217.39047 
L 378.638602 216.906869 
L 378.90075 221.589743 
L 379.162898 219.601603 
L 379.425045 214.727976 
L 379.687193 216.697308 
L 379.949341 217.581224 
L 380.211488 217.984225 
L 380.473636 215.705925 
L 380.997931 217.567791 
L 381.260079 213.548526 
L 381.784374 215.04769 
L 382.308669 215.727419 
L 382.832965 221.267342 
L 383.095112 217.062696 
L 383.35726 216.976722 
L 383.619408 218.825154 
L 383.881555 217.702124 
L 384.143703 215.662938 
L 384.930146 222.9089 
L 385.192294 226.906671 
L 385.454441 215.302924 
L 385.716589 215.348597 
L 385.978737 215.259937 
L 386.503032 220.939567 
L 386.76518 216.748355 
L 387.027327 218.733807 
L 387.289475 216.141166 
L 387.551622 219.206662 
L 387.81377 214.642002 
L 388.338065 221.76169 
L 388.600213 216.485061 
L 388.862361 214.537222 
L 389.124508 215.165904 
L 389.386656 216.568348 
L 389.648804 215.402331 
L 389.910951 216.587154 
L 390.173099 222.194244 
L 390.435247 224.09641 
L 390.697394 214.311541 
L 390.959542 214.792456 
L 391.22169 215.636072 
L 391.483837 215.149784 
L 392.008133 217.401217 
L 392.27028 214.252434 
L 392.532428 214.521102 
L 392.794576 213.481359 
L 393.056723 214.760216 
L 393.318871 212.387882 
L 393.843166 217.44689 
L 394.105314 213.341652 
L 394.367461 212.385195 
L 394.629609 212.836557 
L 394.891757 212.69685 
L 395.153904 212.828497 
L 395.416052 214.733349 
L 395.6782 215.601145 
L 395.940347 213.038057 
L 396.202495 212.774763 
L 396.464643 213.070297 
L 396.72679 214.478115 
L 396.988938 212.747896 
L 397.251086 215.359344 
L 397.513233 219.617723 
L 397.775381 214.174521 
L 398.037529 213.484045 
L 398.299676 213.647932 
L 398.561824 218.494693 
L 398.823971 220.404919 
L 399.086119 219.354429 
L 399.348267 217.530177 
L 399.610414 213.833313 
L 399.872562 212.855363 
L 400.396857 214.05362 
L 400.659005 214.104667 
L 400.921153 215.469498 
L 401.1833 218.166919 
L 401.445448 213.091791 
L 401.707596 212.618936 
L 401.969743 211.80756 
L 402.231891 212.221308 
L 402.494039 213.279858 
L 402.756186 217.433457 
L 403.018334 216.802088 
L 403.280482 213.545839 
L 403.542629 211.850547 
L 403.804777 211.944581 
L 404.066924 211.802187 
L 404.329072 212.350269 
L 404.853367 213.814506 
L 405.115515 211.689347 
L 405.63981 212.74521 
L 406.164106 211.71084 
L 406.688401 213.588826 
L 406.950549 211.345452 
L 407.474844 210.477656 
L 407.736992 211.358886 
L 407.999139 211.740394 
L 408.261287 213.639872 
L 408.523435 213.98108 
L 408.785582 211.318586 
L 409.04773 210.958571 
L 409.309878 210.977378 
L 409.834173 209.212233 
L 410.09632 212.430869 
L 410.358468 212.586696 
L 410.620616 209.123572 
L 410.882763 208.911325 
L 411.144911 210.988125 
L 411.407059 211.769947 
L 411.669206 213.604946 
L 412.193502 214.599015 
L 412.455649 211.068725 
L 412.717797 211.318586 
L 412.979945 211.73502 
L 413.50424 210.39437 
L 414.028535 212.86611 
L 414.552831 208.298763 
L 414.814978 208.441157 
L 415.077126 209.094019 
L 415.863569 213.502852 
L 416.125716 213.290605 
L 416.387864 208.314883 
L 416.912159 210.625424 
L 417.174307 208.691018 
L 417.698602 211.882787 
L 417.96075 208.916699 
L 418.222898 208.202043 
L 418.485045 208.218163 
L 418.747193 208.527131 
L 419.009341 209.427167 
L 419.271488 212.629683 
L 419.533636 212.892977 
L 419.795784 208.755498 
L 420.057931 210.60393 
L 420.582227 206.955426 
L 420.844374 208.833412 
L 421.106522 212.089661 
L 421.368669 213.607632 
L 421.630817 209.244473 
L 421.892965 210.536763 
L 422.155112 210.703337 
L 422.41726 210.42661 
L 422.679408 215.893992 
L 422.941555 218.916501 
L 423.203703 214.459308 
L 423.465851 215.214264 
L 423.727998 209.338506 
L 423.990146 214.147654 
L 424.252294 211.396499 
L 424.514441 212.127275 
L 424.776589 213.911227 
L 425.038737 214.891863 
L 425.300884 209.948382 
L 425.82518 220.104011 
L 426.087327 208.586238 
L 426.349475 209.881215 
L 426.87377 211.259479 
L 427.398065 206.939306 
L 427.660213 209.873155 
L 427.922361 211.224552 
L 428.184508 210.853791 
L 428.708804 218.295879 
L 428.970951 209.642101 
L 429.233099 206.788852 
L 429.495247 207.038713 
L 429.757394 209.185366 
L 430.019542 207.750682 
L 430.28169 210.37825 
L 430.543837 211.289032 
L 430.805985 211.229925 
L 431.068133 217.581224 
L 431.33028 213.373892 
L 431.592428 212.72909 
L 431.854576 210.848418 
L 432.378871 214.671555 
L 432.641018 214.257808 
L 432.903166 217.119116 
L 433.165314 213.752713 
L 433.427461 213.218065 
L 433.689609 211.342766 
L 433.951757 212.170261 
L 434.213904 213.373892 
L 434.476052 210.673784 
L 434.7382 210.397056 
L 435.000347 211.052605 
L 435.262495 209.150439 
L 435.524643 210.206302 
L 435.78679 214.625882 
L 436.048938 215.415764 
L 436.311086 211.259479 
L 436.573233 211.853234 
L 436.835381 209.389553 
L 437.097529 209.110139 
L 437.359676 210.614677 
L 437.621824 213.126718 
L 437.883971 213.376578 
L 438.408267 213.352398 
L 438.670414 211.178879 
L 438.932562 205.088187 
L 439.19471 204.486372 
L 439.456857 209.588367 
L 439.719005 211.667853 
L 439.981153 206.259577 
L 440.2433 205.87807 
L 440.505448 211.960701 
L 440.767596 212.618936 
L 441.029743 210.566317 
L 441.554039 218.089006 
L 441.816186 213.954213 
L 442.340482 210.284216 
L 442.602629 211.455606 
L 442.864777 214.948283 
L 443.126924 223.04592 
L 443.389072 223.645049 
L 443.913367 211.068725 
L 444.175515 207.29126 
L 444.437663 208.344437 
L 444.69981 206.893633 
L 444.961958 211.724273 
L 445.224106 212.581323 
L 445.486253 207.473954 
L 445.748401 210.260036 
L 446.010549 210.856478 
L 446.272696 210.896778 
L 446.796992 215.722045 
L 447.321287 213.739279 
L 447.583435 220.985241 
L 447.845582 213.121344 
L 448.10773 209.953755 
L 448.369878 209.967188 
L 448.894173 216.681188 
L 449.15632 211.667853 
L 449.418468 227.954475 
L 449.942763 210.512583 
L 450.467059 214.510355 
L 450.729206 211.498593 
L 450.991354 212.500722 
L 451.253502 216.815522 
L 451.515649 215.06381 
L 451.777797 207.909196 
L 452.039945 212.702223 
L 452.302092 215.410391 
L 452.56424 222.344698 
L 452.826388 216.914929 
L 453.088535 213.962273 
L 453.350683 213.994513 
L 453.612831 214.419008 
L 453.874978 209.405673 
L 454.137126 211.278285 
L 454.399273 211.538893 
L 454.661421 207.342307 
L 454.923569 209.190739 
L 455.447864 203.024821 
L 455.972159 213.097164 
L 456.234307 216.428641 
L 456.758602 209.916141 
L 457.02075 211.8398 
L 457.282898 210.069282 
L 457.545045 211.127832 
L 457.807193 212.68073 
L 458.331488 214.373335 
L 458.593636 211.563073 
L 458.855784 212.280415 
L 459.117931 214.287361 
L 459.380079 215.292177 
L 459.642227 224.021183 
L 459.904374 218.833214 
L 460.166522 217.100309 
L 460.428669 213.586139 
L 460.690817 213.838686 
L 460.952965 212.88223 
L 461.215112 213.406132 
L 461.47726 215.566218 
L 461.739408 215.571591 
L 462.001555 213.677486 
L 462.263703 215.01545 
L 462.525851 213.833313 
L 462.787998 214.443188 
L 463.050146 213.462552 
L 463.312294 215.324417 
L 463.574441 215.351284 
L 463.836589 214.190641 
L 464.098737 214.080487 
L 464.360884 214.354528 
L 464.623032 215.182024 
L 464.88518 213.733906 
L 465.147327 215.262624 
L 465.409475 223.615495 
L 465.671622 222.530079 
L 465.93377 217.280316 
L 466.195918 216.888062 
L 466.458065 218.44902 
L 466.720213 218.846648 
L 466.982361 224.528964 
L 467.244508 220.899267 
L 467.506656 215.501738 
L 467.768804 216.657008 
L 468.030951 221.065841 
L 468.293099 217.500624 
L 468.817394 221.493022 
L 469.079542 225.767521 
L 469.34169 217.288377 
L 469.603837 213.935407 
L 469.865985 214.988583 
L 470.128133 215.375464 
L 470.39028 215.243817 
L 470.914576 217.280316 
L 471.176723 217.331363 
L 471.701018 215.351284 
L 471.963166 214.660809 
L 472.225314 215.418451 
L 472.487461 216.662381 
L 472.749609 218.500067 
L 473.011757 215.950413 
L 473.273904 216.928362 
L 473.536052 214.676929 
L 473.7982 214.816636 
L 474.060347 214.625882 
L 474.322495 215.893992 
L 474.584643 215.869812 
L 474.84679 214.255121 
L 475.108938 214.765589 
L 475.371086 214.604389 
L 475.633233 214.040187 
L 475.895381 213.93272 
L 476.419676 216.09012 
L 476.681824 214.864996 
L 477.468267 215.20889 
L 477.730414 217.046576 
L 477.992562 216.769848 
L 478.25471 217.884818 
L 478.516857 230.493382 
L 478.779005 221.490336 
L 479.041153 216.729548 
L 479.565448 214.518415 
L 479.827596 217.532864 
L 480.089743 216.517301 
L 480.351891 214.564089 
L 480.614039 214.553342 
L 480.876186 219.424283 
L 481.138334 215.808019 
L 481.400482 215.07993 
L 481.662629 215.593085 
L 481.924777 217.852578 
L 482.186924 214.091234 
L 482.449072 212.546396 
L 482.71122 215.695178 
L 482.973367 213.80376 
L 483.235515 214.01332 
L 483.497663 216.21102 
L 483.75981 220.885834 
L 484.021958 215.466811 
L 484.284106 215.10411 
L 484.546253 215.173964 
L 484.808401 215.410391 
L 485.070549 214.556028 
L 485.332696 216.071313 
L 485.594844 216.643575 
L 485.856992 213.698979 
L 486.381287 215.292177 
L 486.643435 215.11217 
L 486.905582 215.190084 
L 487.16773 216.361474 
L 487.429878 220.72732 
L 487.692025 216.205647 
L 487.954173 214.464682 
L 488.21632 214.964403 
L 488.478468 221.76975 
L 488.740616 216.450134 
L 489.264911 220.316259 
L 489.527059 215.990713 
L 489.789206 215.789212 
L 490.313502 216.087433 
L 490.575649 217.060009 
L 490.837797 236.785574 
L 491.099945 219.811164 
L 491.362092 217.710184 
L 491.62424 213.94884 
L 491.886388 214.453935 
L 492.148535 215.703239 
L 492.410683 214.907983 
L 492.672831 217.970792 
L 492.934978 217.672571 
L 493.197126 214.886489 
L 493.459273 214.727976 
L 493.721421 215.109483 
L 493.983569 216.26744 
L 494.245716 215.700552 
L 494.770012 220.509699 
L 495.032159 216.831642 
L 495.294307 215.028883 
L 495.818602 216.479687 
L 496.08075 214.389455 
L 496.342898 217.280316 
L 496.605045 222.062597 
L 496.867193 217.242703 
L 497.129341 217.111056 
L 497.391488 216.796715 
L 497.653636 216.976722 
L 497.915784 216.485061 
L 498.440079 219.357116 
L 498.702227 216.552228 
L 498.964374 215.974593 
L 499.488669 213.723159 
L 499.750817 213.921973 
L 500.012965 216.1949 
L 500.275112 216.498494 
L 500.53726 214.956343 
L 500.799408 214.518415 
L 501.061555 213.77152 
L 501.323703 214.354528 
L 501.585851 214.018694 
L 501.847998 216.818208 
L 502.110146 217.573164 
L 502.372294 214.615135 
L 502.896589 212.436242 
L 503.158737 212.73715 
L 503.420884 214.147654 
L 503.683032 216.565661 
L 503.94518 217.387783 
L 504.207327 213.798386 
L 504.469475 214.161087 
L 504.731622 213.078357 
L 504.99377 214.075114 
L 505.255918 214.397515 
L 505.518065 216.37222 
L 505.780213 216.648948 
L 506.042361 213.653306 
L 506.304508 214.838129 
L 506.566656 215.219637 
L 506.828804 216.718802 
L 507.090951 215.789212 
L 507.353099 222.978753 
L 507.615247 222.094837 
L 507.877394 214.897236 
L 508.139542 215.955786 
L 508.40169 215.765032 
L 508.663837 217.900938 
L 508.925985 216.549541 
L 509.188133 218.991728 
L 509.45028 218.717687 
L 509.974576 215.356658 
L 510.236723 214.916043 
L 510.498871 216.404461 
L 510.761018 216.017579 
L 511.023166 217.522117 
L 511.285314 217.774665 
L 511.547461 213.760773 
L 511.809609 213.634499 
L 512.071757 212.433556 
L 512.333904 214.239001 
L 512.596052 214.969776 
L 512.8582 217.242703 
L 513.120347 217.992285 
L 513.382495 215.539351 
L 513.644643 216.589841 
L 514.168938 217.608091 
L 514.431086 217.274943 
L 514.693233 216.393714 
L 514.955381 216.13848 
L 515.217529 213.9569 
L 515.479676 216.25938 
L 515.741824 217.062696 
L 516.003971 215.918172 
L 516.266119 215.469498 
L 516.528267 216.490434 
L 516.790414 219.695637 
L 517.052562 213.384638 
L 517.31471 217.178223 
L 517.576857 216.1949 
L 517.839005 214.244374 
L 518.101153 214.752156 
L 518.625448 218.153486 
L 518.887596 214.06168 
L 519.149743 213.406132 
L 519.411891 213.551212 
L 519.674039 215.050377 
L 519.936186 215.845632 
L 520.460482 223.10234 
L 520.984777 214.666182 
L 521.246924 215.270684 
L 521.509072 215.12023 
L 521.77122 214.502295 
L 522.295515 217.589284 
L 522.557663 214.088547 
L 522.81981 216.858509 
L 523.081958 216.665068 
L 523.868401 220.171178 
L 524.130549 220.853594 
L 524.392696 215.915486 
L 524.654844 214.204074 
L 524.916992 215.638758 
L 525.179139 214.252434 
L 525.441287 216.716115 
L 525.703435 217.202403 
L 525.965582 216.732235 
L 526.22773 214.155714 
L 526.489878 213.610319 
L 526.752025 214.451248 
L 527.014173 215.883246 
L 527.27632 216.503868 
L 527.538468 221.538696 
L 527.800616 219.61235 
L 528.062763 214.582895 
L 528.324911 213.169704 
L 528.587059 213.223438 
L 528.849206 214.655435 
L 529.111354 217.551671 
L 529.373502 218.843961 
L 529.635649 218.806348 
L 529.897797 215.711299 
L 530.159945 214.515728 
L 530.422092 212.167575 
L 530.68424 214.698422 
L 530.946388 213.336278 
L 531.208535 214.961716 
L 531.470683 215.12023 
L 531.732831 215.114857 
L 531.994978 214.733349 
L 532.257126 213.416878 
L 532.519273 214.018694 
L 532.781421 215.840259 
L 533.043569 215.958473 
L 533.305716 216.262067 
L 534.092159 211.7995 
L 534.354307 212.686103 
L 534.616455 214.429755 
L 534.878602 218.105126 
L 535.14075 216.834329 
L 535.402898 212.361015 
L 535.665045 213.414192 
L 536.189341 217.930492 
L 536.451488 215.198144 
L 536.713636 214.792456 
L 536.975784 214.730662 
L 537.500079 212.366389 
L 537.762227 213.212691 
L 538.024374 214.993956 
L 538.548669 219.561303 
L 538.810817 230.646523 
L 539.072965 219.413536 
L 539.335112 215.405018 
L 539.59726 215.649505 
L 539.859408 214.212134 
L 540.121555 216.22714 
L 540.383703 220.246405 
L 540.645851 222.371565 
L 540.907998 215.098737 
L 541.170146 216.361474 
L 541.432294 215.22501 
L 541.956589 218.301253 
L 542.218737 218.551114 
L 543.00518 220.343126 
L 543.791622 215.955786 
L 544.578065 219.091135 
L 544.840213 217.113743 
L 545.102361 216.785968 
L 545.364508 215.818766 
L 545.626656 219.075015 
L 545.888804 220.531193 
L 546.150951 216.597901 
L 546.675247 215.351284 
L 546.937394 216.914929 
L 547.199542 216.447447 
L 547.46169 216.665068 
L 547.723837 217.683318 
L 547.985985 220.034158 
L 548.248133 215.974593 
L 548.51028 219.902511 
L 548.772428 219.263082 
L 549.034576 215.861752 
L 549.296723 216.25132 
L 549.558871 217.428084 
L 549.821018 216.987469 
L 550.083166 214.153027 
L 550.345314 214.913356 
L 550.869609 212.301909 
L 551.131757 212.608189 
L 551.656052 217.070756 
L 551.9182 216.039073 
L 552.180347 217.694064 
L 552.442495 217.084189 
L 552.704643 217.613464 
L 552.96679 220.063711 
L 553.228938 224.324777 
L 553.753233 218.620967 
L 554.015381 218.564547 
L 554.277529 216.369534 
L 554.539676 216.111613 
L 554.801824 216.33998 
L 555.063971 218.5941 
L 555.326119 225.998575 
L 555.588267 223.808936 
L 555.850414 223.072787 
L 556.112562 220.625226 
L 556.37471 215.985339 
L 556.636857 216.415207 
L 556.899005 220.995987 
L 557.161153 228.542856 
L 557.4233 220.692393 
L 557.685448 220.203418 
L 557.947596 217.763918 
L 558.471891 219.577423 
L 558.734039 226.656811 
L 558.996186 224.18507 
L 559.258334 218.341553 
L 559.520482 219.456523 
L 560.044777 215.799959 
L 560.306924 218.091692 
L 560.569072 223.771322 
L 560.83122 223.859983 
L 561.093367 217.17285 
L 561.617663 215.461438 
L 562.404106 218.406033 
L 562.666253 221.463469 
L 562.928401 216.14654 
L 563.190549 220.128192 
L 563.452696 219.926691 
L 563.714844 222.814866 
L 563.976992 221.364062 
L 564.239139 218.199159 
L 564.501287 224.792259 
L 564.763435 217.664511 
L 565.025582 218.572607 
L 565.28773 218.956801 
L 565.549878 218.414093 
L 565.812025 219.429656 
L 566.33632 226.31023 
L 566.598468 221.493022 
L 567.122763 219.905198 
L 567.647059 220.308199 
L 568.171354 224.749272 
L 568.433502 219.760117 
L 568.695649 219.349056 
L 568.957797 219.778924 
L 569.219945 220.818667 
L 569.482092 219.969678 
L 569.74424 220.901954 
L 570.006388 225.592888 
L 570.268535 221.122261 
L 570.792831 218.956801 
L 571.054978 219.719817 
L 571.317126 219.934751 
L 571.579273 220.560746 
L 571.841421 223.10234 
L 572.103569 230.420842 
L 572.365716 220.437159 
L 572.627864 220.635973 
L 572.890012 219.279202 
L 573.152159 218.661267 
L 573.414307 220.805234 
L 573.676455 224.354331 
L 573.938602 225.447807 
L 574.20075 230.450395 
L 574.725045 218.58604 
L 574.987193 220.821354 
L 575.249341 221.350628 
L 575.511488 221.033601 
L 575.773636 219.249649 
L 576.035784 219.437716 
L 576.297931 219.950871 
L 576.560079 220.979867 
L 576.822227 224.22537 
L 577.084374 222.648292 
L 577.346522 222.207678 
L 577.608669 219.093822 
L 577.870817 220.216852 
L 578.132965 220.353872 
L 578.395112 219.65265 
L 578.65726 219.730564 
L 578.919408 220.222225 
L 579.181555 223.088907 
L 579.443703 221.96319 
L 579.967998 218.220653 
L 580.230146 219.977738 
L 580.492294 220.423726 
L 580.754441 221.565562 
L 581.016589 223.599375 
L 581.278737 220.805234 
L 581.540884 219.625783 
L 581.803032 217.519431 
L 582.06518 220.893894 
L 582.327327 221.175995 
L 582.589475 223.661169 
L 582.851622 232.820042 
L 583.11377 220.891207 
L 583.375918 218.725747 
L 583.638065 220.071771 
L 583.900213 220.579553 
L 584.162361 220.058338 
L 584.686656 225.732595 
L 584.948804 224.28179 
L 585.210951 218.322746 
L 585.473099 218.430213 
L 585.997394 219.856837 
L 586.259542 223.98357 
L 587.045985 216.296994 
L 587.308133 217.696751 
L 587.57028 219.754744 
L 587.832428 220.520446 
L 588.356723 221.038974 
L 588.618871 217.621524 
L 589.143166 216.208333 
L 589.405314 217.567791 
L 589.667461 218.097066 
L 590.191757 220.977181 
L 590.453904 218.027212 
L 590.9782 216.622081 
L 591.240347 216.820895 
L 591.502495 216.689248 
L 592.02679 221.522576 
L 592.288938 218.725747 
L 592.551086 221.114201 
L 592.813233 217.22121 
L 593.075381 215.539351 
L 593.337529 216.990156 
L 593.861824 230.066201 
L 594.123971 221.928264 
L 594.386119 217.436144 
L 594.648267 214.940223 
L 594.910414 214.727976 
L 595.696857 219.521003 
L 595.959005 216.826268 
L 596.221153 216.21102 
L 596.4833 214.867683 
L 596.745448 214.169147 
L 597.269743 218.341553 
L 597.531891 218.674701 
L 597.794039 217.25345 
L 598.056186 217.557044 
L 598.318334 216.796715 
L 598.580482 216.646261 
L 598.842629 217.648391 
L 599.104777 219.472643 
L 599.366924 222.559632 
L 599.629072 217.608091 
L 599.89122 219.803104 
L 600.153367 220.329692 
L 600.415515 216.479687 
L 600.677663 215.926233 
L 600.93981 218.494693 
L 601.201958 218.580667 
L 601.464106 216.17878 
L 601.726253 216.33998 
L 601.988401 218.236773 
L 602.250549 217.003589 
L 602.512696 216.377594 
L 603.036992 218.46514 
L 603.299139 216.071313 
L 603.561287 216.562974 
L 603.823435 216.342667 
L 604.34773 215.06381 
L 604.609878 217.659138 
L 604.872025 218.4329 
L 605.134173 215.149784 
L 605.39632 214.690362 
L 605.658468 215.945039 
L 605.920616 215.856379 
L 606.707059 221.654223 
L 606.969206 213.82794 
L 607.231354 216.503868 
L 607.493502 221.022854 
L 607.755649 213.293291 
L 608.279945 216.501181 
L 608.542092 217.194343 
L 608.80424 211.369632 
L 609.066388 212.694163 
L 609.328535 212.678043 
L 609.590683 215.563531 
L 609.852831 215.558158 
L 610.114978 217.240016 
L 610.377126 216.742982 
L 610.639273 214.483488 
L 610.901421 215.928919 
L 611.163569 216.34804 
L 611.425716 213.075671 
L 611.687864 213.322845 
L 612.212159 220.673586 
L 612.474307 211.69472 
L 612.736455 207.084386 
L 612.998602 212.062794 
L 613.785045 216.173407 
L 614.047193 216.04982 
L 614.309341 209.542694 
L 615.095784 215.770405 
L 615.357931 214.996643 
L 615.620079 217.696751 
L 615.882227 217.551671 
L 616.406522 210.265409 
L 617.455112 221.189428 
L 617.71726 224.340897 
L 617.979408 217.22121 
L 618.503703 216.33192 
L 618.765851 218.285133 
L 619.027998 214.969776 
L 619.290146 217.887505 
L 619.552294 217.387783 
L 619.814441 213.427625 
L 620.076589 213.994513 
L 620.338737 216.619395 
L 620.863032 213.406132 
L 621.387327 217.823025 
L 621.649475 214.204074 
L 621.911622 216.694621 
L 622.17377 217.868698 
L 622.435918 216.837015 
L 622.698065 214.056307 
L 623.222361 222.092151 
L 623.484508 215.775779 
L 624.008804 217.855265 
L 624.270951 217.352857 
L 624.533099 217.844518 
L 624.795247 217.892878 
L 625.057394 221.823483 
L 625.843837 215.319044 
L 626.105985 215.697865 
L 626.368133 215.203517 
L 626.63028 216.36416 
L 626.892428 216.296994 
L 627.154576 214.034814 
L 627.416723 213.097164 
L 627.941018 215.093363 
L 628.203166 215.122917 
L 628.465314 216.673128 
L 628.727461 224.195817 
L 628.989609 218.086319 
L 629.251757 215.649505 
L 629.513904 216.670441 
L 629.776052 218.688134 
L 630.0382 214.451248 
L 630.300347 218.250206 
L 630.562495 217.796158 
L 630.824643 214.392141 
L 631.08679 214.781709 
L 631.348938 213.492105 
L 631.873233 208.682958 
L 632.135381 213.621066 
L 632.397529 213.854806 
L 632.659676 212.240115 
L 632.921824 211.498593 
L 633.183971 206.294504 
L 633.446119 213.333592 
L 633.708267 214.768276 
L 633.970414 213.642559 
L 634.232562 214.676929 
L 634.49471 214.032127 
L 635.019005 205.945236 
L 635.281153 207.465894 
L 635.5433 213.841373 
L 635.805448 213.755399 
L 636.067596 214.607075 
L 636.329743 214.521102 
L 636.591891 212.492662 
L 636.854039 212.747896 
L 637.116186 214.0778 
L 637.378334 214.744096 
L 637.640482 217.41465 
L 637.902629 215.259937 
L 638.164777 216.108926 
L 638.426924 218.250206 
L 638.689072 214.727976 
L 638.95122 219.252336 
L 639.213367 216.611335 
L 639.475515 221.482276 
L 639.737663 229.593346 
L 639.99981 215.187397 
L 640.261958 213.698979 
L 640.524106 213.454492 
L 640.786253 213.419565 
L 641.048401 213.150898 
L 641.310549 212.527589 
L 641.572696 215.918172 
L 642.096992 211.162758 
L 642.359139 211.877414 
L 642.621287 207.054833 
L 642.883435 205.01296 
L 643.145582 210.168689 
L 643.669878 213.459865 
L 643.932025 213.545839 
L 644.194173 214.666182 
L 644.45632 207.014533 
L 644.718468 206.418091 
L 644.980616 211.219179 
L 645.242763 211.57382 
L 645.504911 211.224552 
L 646.029206 216.420581 
L 646.291354 218.201846 
L 646.553502 214.281988 
L 646.815649 212.207875 
L 647.077797 212.876857 
L 647.339945 209.711954 
L 647.602092 209.663594 
L 648.126388 211.294406 
L 648.388535 212.764017 
L 648.650683 213.081044 
L 648.912831 213.156271 
L 649.174978 210.609304 
L 649.437126 211.54964 
L 649.699273 214.161087 
L 649.961421 211.992941 
L 650.223569 212.355642 
L 650.747864 220.79986 
L 651.272159 208.782365 
L 651.796455 204.85176 
L 652.058602 209.445973 
L 652.582898 213.857493 
L 652.845045 212.385195 
L 653.107193 212.065481 
L 653.369341 212.758643 
L 653.631488 213.96496 
L 653.893636 213.261051 
L 654.155784 217.186283 
L 654.417931 217.027769 
L 654.680079 212.68073 
L 655.204374 215.692492 
L 655.466522 213.596886 
L 655.728669 213.322845 
L 656.252965 214.792456 
L 656.515112 212.715656 
L 656.77726 211.7189 
L 657.039408 212.129961 
L 657.301555 211.60606 
L 657.563703 211.6786 
L 657.825851 214.126161 
L 658.087998 214.040187 
L 658.350146 209.550754 
L 658.612294 209.650161 
L 658.874441 212.87417 
L 659.136589 218.739181 
L 659.398737 220.018038 
L 659.660884 223.255481 
L 659.923032 221.364062 
L 660.18518 212.812377 
L 660.447327 211.049918 
L 660.709475 210.56363 
L 660.971622 208.570118 
L 661.758065 216.479687 
L 662.020213 209.800614 
L 662.282361 209.437913 
L 662.544508 211.106338 
L 662.806656 210.319143 
L 663.068804 212.409375 
L 663.330951 219.461896 
L 663.593099 221.329135 
L 663.855247 214.660809 
L 664.117394 210.977378 
L 664.379542 210.388996 
L 664.64169 212.038614 
L 664.903837 216.562974 
L 665.165985 215.380838 
L 665.428133 219.773551 
L 665.69028 230.240835 
L 665.952428 215.781152 
L 666.476723 210.590497 
L 666.738871 211.133205 
L 667.001018 210.61199 
L 667.263166 213.048804 
L 667.525314 209.182679 
L 667.787461 210.657664 
L 668.049609 207.253647 
L 668.573904 208.983865 
L 668.836052 209.542694 
L 669.0982 209.40836 
L 669.360347 205.706122 
L 669.622495 205.719556 
L 670.14679 213.419565 
L 670.408938 209.43254 
L 670.933233 215.988026 
L 671.195381 209.445973 
L 671.457529 210.058535 
L 671.719676 209.57762 
L 671.981824 210.061222 
L 672.243971 207.29126 
L 672.768267 214.343781 
L 673.030414 209.601801 
L 673.292562 218.3926 
L 673.55471 216.995529 
L 673.816857 208.11607 
L 674.079005 207.127373 
L 674.341153 213.672113 
L 674.6033 224.400004 
L 674.865448 210.133762 
L 675.127596 206.877513 
L 675.389743 207.549181 
L 675.651891 209.069839 
L 675.914039 206.874826 
L 676.438334 215.251877 
L 676.700482 206.11987 
L 676.962629 206.084944 
L 677.224777 205.281628 
L 677.486924 208.121443 
L 678.01122 227.833574 
L 678.273367 219.966991 
L 678.535515 217.35823 
L 678.797663 209.881215 
L 679.321958 206.643772 
L 679.584106 206.275697 
L 680.108401 215.915486 
L 680.370549 207.938749 
L 680.632696 207.707695 
L 681.156992 209.26328 
L 681.419139 206.694819 
L 681.681287 209.558814 
L 681.943435 210.034355 
L 682.205582 205.222521 
L 682.46773 205.450888 
L 682.729878 205.303121 
L 682.992025 204.865193 
L 683.254173 205.209088 
L 683.51632 216.855822 
L 683.778468 219.816537 
L 684.040616 205.95867 
L 684.302763 203.927544 
L 684.564911 203.449316 
L 684.827059 205.141921 
L 685.089206 204.470252 
L 685.613502 210.56363 
L 685.875649 205.098934 
L 686.662092 200.582634 
L 686.92424 201.899105 
L 687.448535 208.578178 
L 687.710683 202.234939 
L 687.972831 201.455803 
L 688.234978 201.31341 
L 688.497126 201.880298 
L 688.759273 200.147393 
L 689.021421 203.59977 
L 689.283569 204.086058 
L 689.545716 200.802941 
L 689.807864 204.515926 
L 690.070012 199.311837 
L 690.332159 196.880396 
L 690.856455 204.480999 
L 691.118602 205.297748 
L 691.38075 200.859362 
L 691.642898 200.789508 
L 691.905045 202.608387 
L 692.167193 202.003885 
L 692.429341 203.403642 
L 692.953636 213.556586 
L 693.215784 201.839998 
L 693.477931 201.54715 
L 693.740079 201.928658 
L 694.002227 202.51704 
L 694.264374 202.256432 
L 694.788669 209.40836 
L 695.050817 202.245686 
L 695.312965 202.643313 
L 695.575112 205.354168 
L 695.83726 213.615692 
L 696.099408 208.723258 
L 696.361555 218.209906 
L 696.885851 204.067251 
L 697.147998 200.150079 
L 697.410146 199.728272 
L 697.672294 201.138776 
L 698.196589 210.767817 
L 698.458737 223.854609 
L 698.720884 207.25902 
L 698.983032 201.367143 
L 699.24518 198.898089 
L 699.507327 197.573558 
L 699.769475 200.905035 
L 700.031622 209.193426 
L 700.29377 209.580307 
L 700.555918 208.210103 
L 700.818065 210.544823 
L 701.342361 200.918468 
L 701.604508 198.468221 
L 702.128804 205.265508 
L 702.390951 200.800255 
L 702.653099 200.418747 
L 702.915247 203.67231 
L 703.177394 200.969515 
L 703.439542 200.313967 
L 703.70169 203.551409 
L 703.963837 204.341292 
L 704.225985 197.173244 
L 704.75028 195.969614 
L 705.012428 194.325369 
L 705.798871 199.865292 
L 706.061018 191.622574 
L 706.323166 191.695115 
L 706.585314 192.689184 
L 707.109609 188.543645 
L 707.371757 192.178716 
L 707.633904 197.646099 
L 707.896052 187.88541 
L 708.1582 187.345388 
L 708.420347 180.999463 
L 708.682495 183.492697 
L 708.944643 183.629717 
L 709.468938 200.418747 
L 709.731086 184.943501 
L 709.993233 186.415799 
L 710.255381 187.039107 
L 710.517529 207.25096 
L 710.779676 195.90782 
L 711.041824 191.077179 
L 711.303971 192.608584 
L 711.828267 184.145559 
L 712.352562 195.571986 
L 712.876857 200.617561 
L 713.139005 213.473299 
L 713.401153 182.630275 
L 713.6633 184.064959 
L 713.925448 172.630472 
L 714.187596 146.728242 
L 714.711891 188.527525 
L 714.974039 187.068661 
L 715.236186 182.082193 
L 715.498334 179.905986 
L 715.760482 175.816868 
L 716.022629 182.753862 
L 716.284777 193.315179 
L 716.546924 184.4196 
L 716.809072 187.713463 
L 717.07122 175.27416 
L 717.333367 187.114334 
L 717.595515 209.507767 
L 717.857663 208.868338 
L 718.11981 206.590038 
L 718.381958 187.487782 
L 718.644106 200.30322 
L 718.906253 178.498169 
L 719.168401 179.113418 
L 719.430549 186.544759 
L 719.692696 185.746817 
L 720.216992 203.836197 
L 720.479139 209.556127 
L 720.741287 199.491844 
L 721.003435 171.249521 
L 721.265582 174.006049 
L 721.52773 180.491682 
L 721.789878 183.412097 
L 722.052025 206.315998 
L 722.314173 216.047133 
L 722.57632 177.348272 
L 722.838468 182.939242 
L 723.362763 174.949072 
L 723.624911 182.036519 
L 723.887059 182.992976 
L 724.149206 180.832889 
L 724.411354 164.675228 
L 724.673502 162.176621 
L 725.197797 188.833806 
L 725.459945 190.346404 
L 725.722092 196.880396 
L 725.98424 186.036978 
L 726.246388 163.544138 
L 726.508535 160.881644 
L 726.770683 152.410559 
L 727.032831 161.225538 
L 727.294978 175.779254 
L 727.557126 170.87876 
L 727.819273 172.490765 
L 728.081421 155.11604 
L 728.343569 192.683811 
L 728.605716 202.667493 
L 728.867864 172.396731 
L 729.130012 186.136385 
L 729.392159 173.796489 
L 729.654307 182.501314 
L 729.916455 155.543221 
L 730.178602 168.538666 
L 730.44075 175.489094 
L 730.702898 151.354696 
L 730.965045 161.427039 
L 731.227193 163.288904 
L 731.489341 176.375696 
L 731.751488 154.981706 
L 732.013636 146.129114 
L 732.275784 146.671822 
L 732.537931 133.063815 
L 732.800079 135.025088 
L 733.062227 158.925745 
L 733.324374 193.100245 
L 733.586522 135.683323 
L 733.848669 109.211518 
L 734.110817 114.660094 
L 734.635112 172.606292 
L 734.89726 172.853466 
L 735.683703 197.683712 
L 735.945851 184.736627 
L 736.470146 222.350071 
L 736.732294 203.84157 
L 736.994441 214.018694 
L 737.256589 204.499806 
L 737.518737 184.736627 
L 737.780884 197.186677 
L 738.043032 173.632601 
L 738.30518 180.795276 
L 738.567327 182.420714 
L 738.829475 185.48621 
L 739.091622 155.677555 
L 739.35377 157.638828 
L 739.615918 163.683845 
L 739.878065 178.299355 
L 740.140213 176.937211 
L 740.402361 168.030885 
L 740.664508 192.001395 
L 740.926656 190.12341 
L 741.188804 162.958443 
L 741.713099 194.158795 
L 741.975247 183.267016 
L 742.499542 173.936196 
L 743.023837 146.306434 
L 743.285985 163.847733 
L 743.548133 194.228649 
L 743.81028 178.72385 
L 744.072428 202.785707 
L 744.334576 209.908081 
L 744.596723 173.234974 
L 744.858871 187.135828 
L 745.121018 187.074034 
L 745.383166 174.306957 
L 745.907461 203.215575 
L 746.169609 211.81562 
L 747.2182 174.529951 
L 747.480347 176.338083 
L 748.004643 204.115611 
L 748.26679 197.901333 
L 748.528938 184.664087 
L 749.053233 207.06558 
L 749.315381 194.478509 
L 749.577529 215.12023 
L 750.101824 204.95654 
L 750.363971 193.086812 
L 750.626119 190.781645 
L 750.888267 193.183532 
L 751.150414 193.258759 
L 751.412562 165.029869 
L 751.67471 177.302599 
L 751.936857 170.526806 
L 752.985448 129.571138 
L 753.247596 133.276063 
L 753.509743 134.69194 
L 754.034039 95.402011 
L 754.296186 107.107852 
L 754.820482 204.720113 
L 755.082629 191.703175 
L 755.344777 194.669263 
L 755.606924 150.011359 
L 755.869072 145.312365 
L 756.13122 161.279272 
L 756.393367 165.032556 
L 756.655515 164.680602 
L 757.17981 212.592069 
L 757.441958 169.607963 
L 757.704106 162.654849 
L 757.966253 162.584996 
L 758.490549 160.74731 
L 758.752696 175.190873 
L 759.014844 172.745999 
L 759.801287 153.92853 
L 760.325582 182.796848 
L 760.58773 179.661499 
L 760.849878 181.692625 
L 761.112025 207.624408 
L 761.374173 174.701898 
L 761.898468 207.723815 
L 762.160616 191.093299 
L 762.422763 211.520086 
L 762.684911 203.024821 
L 762.947059 165.868112 
L 763.209206 177.117218 
L 763.471354 165.062109 
L 763.733502 165.225997 
L 764.257797 186.848354 
L 764.519945 198.2506 
L 764.782092 191.329727 
L 765.04424 169.073315 
L 765.306388 171.633715 
L 765.568535 172.431658 
L 765.830683 181.198277 
L 766.092831 201.633124 
L 766.354978 194.986291 
L 766.617126 165.521531 
L 766.879273 162.181994 
L 767.141421 166.2738 
L 767.403569 164.352827 
L 767.665716 165.013749 
L 767.927864 171.89701 
L 768.190012 173.777682 
L 768.452159 167.705797 
L 768.714307 167.052935 
L 768.976455 163.656979 
L 769.238602 163.09815 
L 769.50075 165.473171 
L 770.025045 179.868373 
L 770.287193 167.703111 
L 770.811488 184.5405 
L 771.073636 179.349845 
L 771.860079 186.76238 
L 772.122227 168.699867 
L 772.384374 165.510784 
L 772.646522 170.639646 
L 772.908669 169.186155 
L 773.170817 171.545055 
L 773.432965 197.143691 
L 773.695112 181.783972 
L 773.95726 177.412752 
L 774.219408 180.134354 
L 774.481555 180.161221 
L 774.743703 208.760871 
L 775.005851 214.843503 
L 775.267998 213.011191 
L 775.792294 165.553771 
L 776.054441 169.153915 
L 776.316589 168.952414 
L 776.578737 175.644921 
L 776.840884 176.491223 
L 777.36518 189.508161 
L 777.627327 200.18232 
L 777.889475 176.300469 
L 778.151622 174.903398 
L 778.41377 176.193002 
L 778.675918 175.951202 
L 778.938065 190.24431 
L 779.200213 194.937931 
L 779.724508 173.224227 
L 779.986656 168.380153 
L 780.248804 170.803533 
L 780.510951 158.42065 
L 781.035247 183.844651 
L 781.297394 153.748523 
L 781.559542 148.195167 
L 781.82169 139.173313 
L 782.083837 148.058146 
L 782.345985 151.728144 
L 782.87028 171.821783 
L 783.132428 141.266233 
L 783.394576 137.064274 
L 783.656723 141.091599 
L 783.918871 138.918079 
L 784.181018 141.572514 
L 784.443166 167.65475 
L 784.705314 171.343555 
L 784.967461 146.231207 
L 785.229609 140.777258 
L 785.491757 146.618089 
L 785.753904 169.406462 
L 786.016052 144.259188 
L 786.2782 191.982589 
L 786.540347 189.884296 
L 786.802495 124.356303 
L 787.064643 124.230029 
L 787.32679 131.527037 
L 787.588938 128.617369 
L 787.851086 136.741873 
L 788.113233 181.423958 
L 788.375381 164.403874 
L 788.637529 119.101168 
L 788.899676 122.34667 
L 789.161824 134.990161 
L 789.423971 119.044747 
L 789.686119 124.221969 
L 790.210414 157.754355 
L 790.472562 142.60957 
L 790.73471 139.823489 
L 790.996857 111.135177 
L 791.259005 99.569043 
L 791.521153 107.749967 
L 792.045448 140.653671 
L 792.307596 107.865494 
L 792.569743 120.860939 
L 792.831891 122.438017 
L 793.094039 113.808419 
L 793.356186 122.327864 
L 793.618334 151.929644 
L 793.880482 154.108537 
L 794.142629 128.937083 
L 794.404777 130.011753 
L 794.666924 132.085866 
L 794.929072 129.528152 
L 795.19122 111.183538 
L 795.715515 137.292641 
L 796.501958 75.499126 
L 796.764106 73.253066 
L 797.026253 84.878307 
L 797.550549 121.186027 
L 797.812696 79.808552 
L 798.074844 59.626253 
L 798.336992 55.623107 
L 798.599139 64.040459 
L 798.861287 37.257 
L 799.123435 69.408435 
L 799.385582 120.363905 
L 799.64773 50.513052 
L 799.909878 49.954224 
L 800.434173 69.717402 
L 800.958468 147.402598 
L 801.220616 142.55315 
L 801.482763 113.706325 
L 802.007059 101.097761 
L 802.269206 102.86828 
L 802.531354 128.329895 
L 802.793502 123.327307 
L 803.055649 123.539554 
L 803.317797 109.093305 
L 803.579945 122.094123 
L 803.842092 105.342707 
L 804.366388 166.975022 
L 804.628535 203.946351 
L 804.890683 197.178617 
L 805.152831 134.906874 
L 805.414978 127.145071 
L 805.677126 124.799604 
L 805.939273 117.263482 
L 806.201421 123.609407 
L 806.725716 145.100117 
L 806.987864 155.274554 
L 807.250012 144.022761 
L 807.512159 119.289235 
L 807.774307 109.168532 
L 808.036455 138.982559 
L 808.298602 204.043071 
L 808.56075 183.135369 
L 808.822898 175.881348 
L 809.085045 151.290216 
L 809.347193 196.211414 
L 809.609341 195.340932 
L 809.871488 181.007523 
L 810.133636 185.042908 
L 810.395784 185.282022 
L 810.920079 161.803173 
L 811.182227 152.582506 
L 811.444374 155.669495 
L 811.706522 157.066566 
L 811.968669 186.6576 
L 812.230817 198.922269 
L 812.492965 176.077475 
L 812.755112 177.925907 
L 813.01726 178.726536 
L 813.279408 187.97407 
L 813.541555 181.912932 
L 814.065851 197.194737 
L 814.327998 197.312951 
L 814.590146 198.809429 
L 814.852294 192.108862 
L 815.376589 197.702519 
L 815.638737 198.21836 
L 816.163032 190.531784 
L 816.42518 206.224651 
L 816.687327 204.400399 
L 816.949475 198.683155 
L 817.211622 176.147329 
L 817.735918 210.077342 
L 818.260213 199.303777 
L 818.522361 191.756908 
L 818.784508 189.989076 
L 819.046656 191.19002 
L 819.308804 182.329367 
L 819.570951 188.91978 
L 819.833099 178.903857 
L 820.095247 179.884493 
L 820.357394 186.539386 
L 820.619542 199.612744 
L 821.143837 167.961031 
L 821.405985 171.128621 
L 821.668133 165.927219 
L 821.93028 172.689579 
L 822.192428 176.021055 
L 822.454576 161.295392 
L 822.716723 156.11011 
L 822.978871 162.001987 
L 823.241018 182.407281 
L 823.765314 123.657768 
L 824.027461 118.6713 
L 824.289609 118.974894 
L 824.551757 132.725294 
L 824.813904 153.047301 
L 825.076052 160.293262 
L 825.3382 129.264857 
L 825.600347 119.740596 
L 825.862495 142.770771 
L 826.124643 120.108671 
L 826.38679 113.526318 
L 826.648938 128.91559 
L 826.911086 135.248082 
L 827.173233 110.382909 
L 827.435381 107.639814 
L 827.697529 109.407646 
L 827.959676 109.493619 
L 828.221824 104.896719 
L 828.483971 149.850158 
L 828.746119 173.05228 
L 829.008267 172.461211 
L 829.270414 179.129538 
L 829.532562 168.146412 
L 829.79471 175.749701 
L 830.056857 175.37088 
L 830.319005 194.459703 
L 830.581153 198.255974 
L 830.8433 210.469596 
L 831.105448 199.913652 
L 831.629743 221.073901 
L 831.891891 220.781053 
L 832.154039 226.44725 
L 832.416186 216.882689 
L 832.678334 175.069972 
L 832.940482 187.589876 
L 833.202629 211.017678 
L 833.464777 196.566056 
L 833.726924 194.529556 
L 833.989072 203.124228 
L 834.25122 198.258661 
L 834.513367 177.404692 
L 834.775515 193.965355 
L 835.29981 207.653961 
L 835.561958 207.0011 
L 835.824106 218.677387 
L 836.086253 218.013779 
L 836.348401 161.574806 
L 836.610549 189.825189 
L 836.872696 185.255156 
L 837.134844 187.468975 
L 837.396992 177.342899 
L 837.659139 185.60711 
L 837.921287 161.97512 
L 838.183435 149.971058 
L 838.70773 178.635189 
L 838.969878 179.363278 
L 839.232025 179.392832 
L 839.494173 185.658157 
L 839.75632 180.583028 
L 840.018468 204.79534 
L 840.280616 196.614416 
L 840.542763 201.162956 
L 840.804911 189.148147 
L 841.067059 198.637482 
L 841.329206 186.472219 
L 841.591354 190.706418 
L 841.853502 179.626572 
L 842.115649 179.486865 
L 842.639945 190.349091 
L 842.902092 192.640824 
L 843.16424 197.108764 
L 843.688535 182.200407 
L 844.474978 189.446368 
L 844.737126 205.176848 
L 845.261421 195.800353 
L 845.523569 209.921515 
L 845.785716 192.208269 
L 846.047864 186.227732 
L 846.310012 186.8591 
L 846.834307 201.939405 
L 847.096455 196.415602 
L 847.358602 185.069775 
L 847.62075 186.340572 
L 847.62075 186.340572 
" clip-path="url(#pbb9a77b74b)" style="fill: none; stroke: #4c72b0; stroke-width: 1.2; stroke-linecap: round"/>
   </g>
   <g id="patch_3">
    <path d="M 66.42075 248.937 
L 66.42075 27.177 
" style="fill: none; stroke: #cccccc; stroke-linejoin: miter; stroke-linecap: square"/>
   </g>
   <g id="patch_4">
    <path d="M 847.62075 248.937 
L 847.62075 27.177 
" style="fill: none; stroke: #cccccc; stroke-linejoin: miter; stroke-linecap: square"/>
   </g>
   <g id="patch_5">
    <path d="M 66.42075 248.937 
L 847.62075 248.937 
" style="fill: none; stroke: #cccccc; stroke-linejoin: miter; stroke-linecap: square"/>
   </g>
   <g id="patch_6">
    <path d="M 66.42075 27.177 
L 847.62075 27.177 
" style="fill: none; stroke: #cccccc; stroke-linejoin: miter; stroke-linecap: square"/>
   </g>
   <g id="text_16">
    <!-- German Wholesale Electricity Prices in EUR/MWhe -->
    <g style="fill: #262626" transform="translate(238.30425 21.177) scale(0.192 -0.192)">
     <defs>
      <path id="ArialMT-47" d="M 2638 1797 
L 2638 2334 
L 4578 2338 
L 4578 638 
Q 4131 281 3656 101 
Q 3181 -78 2681 -78 
Q 2006 -78 1454 211 
Q 903 500 622 1047 
Q 341 1594 341 2269 
Q 341 2938 620 3517 
Q 900 4097 1425 4378 
Q 1950 4659 2634 4659 
Q 3131 4659 3532 4498 
Q 3934 4338 4162 4050 
Q 4391 3763 4509 3300 
L 3963 3150 
Q 3859 3500 3706 3700 
Q 3553 3900 3268 4020 
Q 2984 4141 2638 4141 
Q 2222 4141 1919 4014 
Q 1616 3888 1430 3681 
Q 1244 3475 1141 3228 
Q 966 2803 966 2306 
Q 966 1694 1177 1281 
Q 1388 869 1791 669 
Q 2194 469 2647 469 
Q 3041 469 3416 620 
Q 3791 772 3984 944 
L 3984 1797 
L 2638 1797 
z
" transform="scale(0.015625)"/>
      <path id="ArialMT-6d" d="M 422 0 
L 422 3319 
L 925 3319 
L 925 2853 
Q 1081 3097 1340 3245 
Q 1600 3394 1931 3394 
Q 2300 3394 2536 3241 
Q 2772 3088 2869 2813 
Q 3263 3394 3894 3394 
Q 4388 3394 4653 3120 
Q 4919 2847 4919 2278 
L 4919 0 
L 4359 0 
L 4359 2091 
Q 4359 2428 4304 2576 
Q 4250 2725 4106 2815 
Q 3963 2906 3769 2906 
Q 3419 2906 3187 2673 
Q 2956 2441 2956 1928 
L 2956 0 
L 2394 0 
L 2394 2156 
Q 2394 2531 2256 2718 
Q 2119 2906 1806 2906 
Q 1569 2906 1367 2781 
Q 1166 2656 1075 2415 
Q 984 2175 984 1722 
L 984 0 
L 422 0 
z
" transform="scale(0.015625)"/>
      <path id="ArialMT-6e" d="M 422 0 
L 422 3319 
L 928 3319 
L 928 2847 
Q 1294 3394 1984 3394 
Q 2284 3394 2536 3286 
Q 2788 3178 2913 3003 
Q 3038 2828 3088 2588 
Q 3119 2431 3119 2041 
L 3119 0 
L 2556 0 
L 2556 2019 
Q 2556 2363 2490 2533 
Q 2425 2703 2258 2804 
Q 2091 2906 1866 2906 
Q 1506 2906 1245 2678 
Q 984 2450 984 1813 
L 984 0 
L 422 0 
z
" transform="scale(0.015625)"/>
      <path id="ArialMT-20" transform="scale(0.015625)"/>
      <path id="ArialMT-6c" d="M 409 0 
L 409 4581 
L 972 4581 
L 972 0 
L 409 0 
z
" transform="scale(0.015625)"/>
      <path id="ArialMT-73" d="M 197 991 
L 753 1078 
Q 800 744 1014 566 
Q 1228 388 1613 388 
Q 2000 388 2187 545 
Q 2375 703 2375 916 
Q 2375 1106 2209 1216 
Q 2094 1291 1634 1406 
Q 1016 1563 777 1677 
Q 538 1791 414 1992 
Q 291 2194 291 2438 
Q 291 2659 392 2848 
Q 494 3038 669 3163 
Q 800 3259 1026 3326 
Q 1253 3394 1513 3394 
Q 1903 3394 2198 3281 
Q 2494 3169 2634 2976 
Q 2775 2784 2828 2463 
L 2278 2388 
Q 2241 2644 2061 2787 
Q 1881 2931 1553 2931 
Q 1166 2931 1000 2803 
Q 834 2675 834 2503 
Q 834 2394 903 2306 
Q 972 2216 1119 2156 
Q 1203 2125 1616 2013 
Q 2213 1853 2448 1751 
Q 2684 1650 2818 1456 
Q 2953 1263 2953 975 
Q 2953 694 2789 445 
Q 2625 197 2315 61 
Q 2006 -75 1616 -75 
Q 969 -75 630 194 
Q 291 463 197 991 
z
" transform="scale(0.015625)"/>
      <path id="ArialMT-63" d="M 2588 1216 
L 3141 1144 
Q 3050 572 2676 248 
Q 2303 -75 1759 -75 
Q 1078 -75 664 370 
Q 250 816 250 1647 
Q 250 2184 428 2587 
Q 606 2991 970 3192 
Q 1334 3394 1763 3394 
Q 2303 3394 2647 3120 
Q 2991 2847 3088 2344 
L 2541 2259 
Q 2463 2594 2264 2762 
Q 2066 2931 1784 2931 
Q 1359 2931 1093 2626 
Q 828 2322 828 1663 
Q 828 994 1084 691 
Q 1341 388 1753 388 
Q 2084 388 2306 591 
Q 2528 794 2588 1216 
z
" transform="scale(0.015625)"/>
      <path id="ArialMT-69" d="M 425 3934 
L 425 4581 
L 988 4581 
L 988 3934 
L 425 3934 
z
M 425 0 
L 425 3319 
L 988 3319 
L 988 0 
L 425 0 
z
" transform="scale(0.015625)"/>
      <path id="ArialMT-79" d="M 397 -1278 
L 334 -750 
Q 519 -800 656 -800 
Q 844 -800 956 -737 
Q 1069 -675 1141 -563 
Q 1194 -478 1313 -144 
Q 1328 -97 1363 -6 
L 103 3319 
L 709 3319 
L 1400 1397 
Q 1534 1031 1641 628 
Q 1738 1016 1872 1384 
L 2581 3319 
L 3144 3319 
L 1881 -56 
Q 1678 -603 1566 -809 
Q 1416 -1088 1222 -1217 
Q 1028 -1347 759 -1347 
Q 597 -1347 397 -1278 
z
" transform="scale(0.015625)"/>
      <path id="ArialMT-50" d="M 494 0 
L 494 4581 
L 2222 4581 
Q 2678 4581 2919 4538 
Q 3256 4481 3484 4323 
Q 3713 4166 3852 3881 
Q 3991 3597 3991 3256 
Q 3991 2672 3619 2267 
Q 3247 1863 2275 1863 
L 1100 1863 
L 1100 0 
L 494 0 
z
M 1100 2403 
L 2284 2403 
Q 2872 2403 3119 2622 
Q 3366 2841 3366 3238 
Q 3366 3525 3220 3729 
Q 3075 3934 2838 4000 
Q 2684 4041 2272 4041 
L 1100 4041 
L 1100 2403 
z
" transform="scale(0.015625)"/>
      <path id="ArialMT-55" d="M 3500 4581 
L 4106 4581 
L 4106 1934 
Q 4106 1244 3950 837 
Q 3794 431 3386 176 
Q 2978 -78 2316 -78 
Q 1672 -78 1262 144 
Q 853 366 678 786 
Q 503 1206 503 1934 
L 503 4581 
L 1109 4581 
L 1109 1938 
Q 1109 1341 1220 1058 
Q 1331 775 1601 622 
Q 1872 469 2263 469 
Q 2931 469 3215 772 
Q 3500 1075 3500 1938 
L 3500 4581 
z
" transform="scale(0.015625)"/>
      <path id="ArialMT-52" d="M 503 0 
L 503 4581 
L 2534 4581 
Q 3147 4581 3465 4457 
Q 3784 4334 3975 4021 
Q 4166 3709 4166 3331 
Q 4166 2844 3850 2509 
Q 3534 2175 2875 2084 
Q 3116 1969 3241 1856 
Q 3506 1613 3744 1247 
L 4541 0 
L 3778 0 
L 3172 953 
Q 2906 1366 2734 1584 
Q 2563 1803 2427 1890 
Q 2291 1978 2150 2013 
Q 2047 2034 1813 2034 
L 1109 2034 
L 1109 0 
L 503 0 
z
M 1109 2559 
L 2413 2559 
Q 2828 2559 3062 2645 
Q 3297 2731 3419 2920 
Q 3541 3109 3541 3331 
Q 3541 3656 3305 3865 
Q 3069 4075 2559 4075 
L 1109 4075 
L 1109 2559 
z
" transform="scale(0.015625)"/>
     </defs>
     <use xlink:href="#ArialMT-47"/>
     <use xlink:href="#ArialMT-65" x="77.783203"/>
     <use xlink:href="#ArialMT-72" x="133.398438"/>
     <use xlink:href="#ArialMT-6d" x="166.699219"/>
     <use xlink:href="#ArialMT-61" x="250"/>
     <use xlink:href="#ArialMT-6e" x="305.615234"/>
     <use xlink:href="#ArialMT-20" x="361.230469"/>
     <use xlink:href="#ArialMT-57" x="389.013672"/>
     <use xlink:href="#ArialMT-68" x="483.398438"/>
     <use xlink:href="#ArialMT-6f" x="539.013672"/>
     <use xlink:href="#ArialMT-6c" x="594.628906"/>
     <use xlink:href="#ArialMT-65" x="616.845703"/>
     <use xlink:href="#ArialMT-73" x="672.460938"/>
     <use xlink:href="#ArialMT-61" x="722.460938"/>
     <use xlink:href="#ArialMT-6c" x="778.076172"/>
     <use xlink:href="#ArialMT-65" x="800.292969"/>
     <use xlink:href="#ArialMT-20" x="855.908203"/>
     <use xlink:href="#ArialMT-45" x="883.691406"/>
     <use xlink:href="#ArialMT-6c" x="950.390625"/>
     <use xlink:href="#ArialMT-65" x="972.607422"/>
     <use xlink:href="#ArialMT-63" x="1028.222656"/>
     <use xlink:href="#ArialMT-74" x="1078.222656"/>
     <use xlink:href="#ArialMT-72" x="1106.005859"/>
     <use xlink:href="#ArialMT-69" x="1139.306641"/>
     <use xlink:href="#ArialMT-63" x="1161.523438"/>
     <use xlink:href="#ArialMT-69" x="1211.523438"/>
     <use xlink:href="#ArialMT-74" x="1233.740234"/>
     <use xlink:href="#ArialMT-79" x="1261.523438"/>
     <use xlink:href="#ArialMT-20" x="1311.523438"/>
     <use xlink:href="#ArialMT-50" x="1339.306641"/>
     <use xlink:href="#ArialMT-72" x="1406.005859"/>
     <use xlink:href="#ArialMT-69" x="1439.306641"/>
     <use xlink:href="#ArialMT-63" x="1461.523438"/>
     <use xlink:href="#ArialMT-65" x="1511.523438"/>
     <use xlink:href="#ArialMT-73" x="1567.138672"/>
     <use xlink:href="#ArialMT-20" x="1617.138672"/>
     <use xlink:href="#ArialMT-69" x="1644.921875"/>
     <use xlink:href="#ArialMT-6e" x="1667.138672"/>
     <use xlink:href="#ArialMT-20" x="1722.753906"/>
     <use xlink:href="#ArialMT-45" x="1750.537109"/>
     <use xlink:href="#ArialMT-55" x="1817.236328"/>
     <use xlink:href="#ArialMT-52" x="1889.453125"/>
     <use xlink:href="#ArialMT-2f" x="1961.669922"/>
     <use xlink:href="#ArialMT-4d" x="1989.453125"/>
     <use xlink:href="#ArialMT-57" x="2072.753906"/>
     <use xlink:href="#ArialMT-68" x="2167.138672"/>
     <use xlink:href="#ArialMT-65" x="2222.753906"/>
    </g>
   </g>
  </g>
 </g>
 <defs>
  <clipPath id="pbb9a77b74b">
   <rect x="66.42075" y="27.177" width="781.2" height="221.76"/>
  </clipPath>
 </defs>
</svg>
