<?xml version="1.0" encoding="utf-8" standalone="no"?>
<!DOCTYPE svg PUBLIC "-//W3C//DTD SVG 1.1//EN"
  "http://www.w3.org/Graphics/SVG/1.1/DTD/svg11.dtd">
<svg xmlns:xlink="http://www.w3.org/1999/xlink" width="855.27975pt" height="302.09175pt" viewBox="0 0 855.27975 302.09175" xmlns="http://www.w3.org/2000/svg" version="1.1">
 <metadata>
  <rdf:RDF xmlns:dc="http://purl.org/dc/elements/1.1/" xmlns:cc="http://creativecommons.org/ns#" xmlns:rdf="http://www.w3.org/1999/02/22-rdf-syntax-ns#">
   <cc:Work>
    <dc:type rdf:resource="http://purl.org/dc/dcmitype/StillImage"/>
    <dc:date>2023-05-10T19:50:30.839216</dc:date>
    <dc:format>image/svg+xml</dc:format>
    <dc:creator>
     <cc:Agent>
      <dc:title>Matplotlib v3.7.1, https://matplotlib.org/</dc:title>
     </cc:Agent>
    </dc:creator>
   </cc:Work>
  </rdf:RDF>
 </metadata>
 <defs>
  <style type="text/css">*{stroke-linejoin: round; stroke-linecap: butt}</style>
 </defs>
 <g id="figure_1">
  <g id="patch_1">
   <path d="M 0 302.09175 
L 855.27975 302.09175 
L 855.27975 0 
L 0 0 
z
" style="fill: #ffffff"/>
  </g>
  <g id="axes_1">
   <g id="patch_2">
    <path d="M 66.87975 248.937 
L 848.07975 248.937 
L 848.07975 27.177 
L 66.87975 27.177 
z
" style="fill: #ffffff"/>
   </g>
   <g id="matplotlib.axis_1">
    <g id="xtick_1">
     <g id="line2d_1">
      <path d="M 66.87975 248.937 
L 66.87975 27.177 
" clip-path="url(#p0f6daa3611)" style="fill: none; stroke: #cccccc; stroke-width: 0.8; stroke-linecap: round"/>
     </g>
    </g>
    <g id="xtick_2">
     <g id="line2d_2">
      <path d="M 131.056657 248.937 
L 131.056657 27.177 
" clip-path="url(#p0f6daa3611)" style="fill: none; stroke: #cccccc; stroke-width: 0.8; stroke-linecap: round"/>
     </g>
     <g id="text_1">
      <!-- 2012 -->
      <g style="fill: #262626" transform="translate(111.482157 269.83475) scale(0.176 -0.176)">
       <defs>
        <path id="ArialMT-32" d="M 3222 541 
L 3222 0 
L 194 0 
Q 188 203 259 391 
Q 375 700 629 1000 
Q 884 1300 1366 1694 
Q 2113 2306 2375 2664 
Q 2638 3022 2638 3341 
Q 2638 3675 2398 3904 
Q 2159 4134 1775 4134 
Q 1369 4134 1125 3890 
Q 881 3647 878 3216 
L 300 3275 
Q 359 3922 746 4261 
Q 1134 4600 1788 4600 
Q 2447 4600 2831 4234 
Q 3216 3869 3216 3328 
Q 3216 3053 3103 2787 
Q 2991 2522 2730 2228 
Q 2469 1934 1863 1422 
Q 1356 997 1212 845 
Q 1069 694 975 541 
L 3222 541 
z
" transform="scale(0.015625)"/>
        <path id="ArialMT-30" d="M 266 2259 
Q 266 3072 433 3567 
Q 600 4063 929 4331 
Q 1259 4600 1759 4600 
Q 2128 4600 2406 4451 
Q 2684 4303 2865 4023 
Q 3047 3744 3150 3342 
Q 3253 2941 3253 2259 
Q 3253 1453 3087 958 
Q 2922 463 2592 192 
Q 2263 -78 1759 -78 
Q 1097 -78 719 397 
Q 266 969 266 2259 
z
M 844 2259 
Q 844 1131 1108 757 
Q 1372 384 1759 384 
Q 2147 384 2411 759 
Q 2675 1134 2675 2259 
Q 2675 3391 2411 3762 
Q 2147 4134 1753 4134 
Q 1366 4134 1134 3806 
Q 844 3388 844 2259 
z
" transform="scale(0.015625)"/>
        <path id="ArialMT-31" d="M 2384 0 
L 1822 0 
L 1822 3584 
Q 1619 3391 1289 3197 
Q 959 3003 697 2906 
L 697 3450 
Q 1169 3672 1522 3987 
Q 1875 4303 2022 4600 
L 2384 4600 
L 2384 0 
z
" transform="scale(0.015625)"/>
       </defs>
       <use xlink:href="#ArialMT-32"/>
       <use xlink:href="#ArialMT-30" x="55.615234"/>
       <use xlink:href="#ArialMT-31" x="111.230469"/>
       <use xlink:href="#ArialMT-32" x="166.845703"/>
      </g>
     </g>
    </g>
    <g id="xtick_3">
     <g id="line2d_3">
      <path d="M 259.5863 248.937 
L 259.5863 27.177 
" clip-path="url(#p0f6daa3611)" style="fill: none; stroke: #cccccc; stroke-width: 0.8; stroke-linecap: round"/>
     </g>
     <g id="text_2">
      <!-- 2014 -->
      <g style="fill: #262626" transform="translate(240.0118 269.83475) scale(0.176 -0.176)">
       <defs>
        <path id="ArialMT-34" d="M 2069 0 
L 2069 1097 
L 81 1097 
L 81 1613 
L 2172 4581 
L 2631 4581 
L 2631 1613 
L 3250 1613 
L 3250 1097 
L 2631 1097 
L 2631 0 
L 2069 0 
z
M 2069 1613 
L 2069 3678 
L 634 1613 
L 2069 1613 
z
" transform="scale(0.015625)"/>
       </defs>
       <use xlink:href="#ArialMT-32"/>
       <use xlink:href="#ArialMT-30" x="55.615234"/>
       <use xlink:href="#ArialMT-31" x="111.230469"/>
       <use xlink:href="#ArialMT-34" x="166.845703"/>
      </g>
     </g>
    </g>
    <g id="xtick_4">
     <g id="line2d_4">
      <path d="M 387.940115 248.937 
L 387.940115 27.177 
" clip-path="url(#p0f6daa3611)" style="fill: none; stroke: #cccccc; stroke-width: 0.8; stroke-linecap: round"/>
     </g>
     <g id="text_3">
      <!-- 2016 -->
      <g style="fill: #262626" transform="translate(368.365615 269.83475) scale(0.176 -0.176)">
       <defs>
        <path id="ArialMT-36" d="M 3184 3459 
L 2625 3416 
Q 2550 3747 2413 3897 
Q 2184 4138 1850 4138 
Q 1581 4138 1378 3988 
Q 1113 3794 959 3422 
Q 806 3050 800 2363 
Q 1003 2672 1297 2822 
Q 1591 2972 1913 2972 
Q 2475 2972 2870 2558 
Q 3266 2144 3266 1488 
Q 3266 1056 3080 686 
Q 2894 316 2569 119 
Q 2244 -78 1831 -78 
Q 1128 -78 684 439 
Q 241 956 241 2144 
Q 241 3472 731 4075 
Q 1159 4600 1884 4600 
Q 2425 4600 2770 4297 
Q 3116 3994 3184 3459 
z
M 888 1484 
Q 888 1194 1011 928 
Q 1134 663 1356 523 
Q 1578 384 1822 384 
Q 2178 384 2434 671 
Q 2691 959 2691 1453 
Q 2691 1928 2437 2201 
Q 2184 2475 1800 2475 
Q 1419 2475 1153 2201 
Q 888 1928 888 1484 
z
" transform="scale(0.015625)"/>
       </defs>
       <use xlink:href="#ArialMT-32"/>
       <use xlink:href="#ArialMT-30" x="55.615234"/>
       <use xlink:href="#ArialMT-31" x="111.230469"/>
       <use xlink:href="#ArialMT-36" x="166.845703"/>
      </g>
     </g>
    </g>
    <g id="xtick_5">
     <g id="line2d_5">
      <path d="M 516.469757 248.937 
L 516.469757 27.177 
" clip-path="url(#p0f6daa3611)" style="fill: none; stroke: #cccccc; stroke-width: 0.8; stroke-linecap: round"/>
     </g>
     <g id="text_4">
      <!-- 2018 -->
      <g style="fill: #262626" transform="translate(496.895257 269.83475) scale(0.176 -0.176)">
       <defs>
        <path id="ArialMT-38" d="M 1131 2484 
Q 781 2613 612 2850 
Q 444 3088 444 3419 
Q 444 3919 803 4259 
Q 1163 4600 1759 4600 
Q 2359 4600 2725 4251 
Q 3091 3903 3091 3403 
Q 3091 3084 2923 2848 
Q 2756 2613 2416 2484 
Q 2838 2347 3058 2040 
Q 3278 1734 3278 1309 
Q 3278 722 2862 322 
Q 2447 -78 1769 -78 
Q 1091 -78 675 323 
Q 259 725 259 1325 
Q 259 1772 486 2073 
Q 713 2375 1131 2484 
z
M 1019 3438 
Q 1019 3113 1228 2906 
Q 1438 2700 1772 2700 
Q 2097 2700 2305 2904 
Q 2513 3109 2513 3406 
Q 2513 3716 2298 3927 
Q 2084 4138 1766 4138 
Q 1444 4138 1231 3931 
Q 1019 3725 1019 3438 
z
M 838 1322 
Q 838 1081 952 856 
Q 1066 631 1291 507 
Q 1516 384 1775 384 
Q 2178 384 2440 643 
Q 2703 903 2703 1303 
Q 2703 1709 2433 1975 
Q 2163 2241 1756 2241 
Q 1359 2241 1098 1978 
Q 838 1716 838 1322 
z
" transform="scale(0.015625)"/>
       </defs>
       <use xlink:href="#ArialMT-32"/>
       <use xlink:href="#ArialMT-30" x="55.615234"/>
       <use xlink:href="#ArialMT-31" x="111.230469"/>
       <use xlink:href="#ArialMT-38" x="166.845703"/>
      </g>
     </g>
    </g>
    <g id="xtick_6">
     <g id="line2d_6">
      <path d="M 644.823572 248.937 
L 644.823572 27.177 
" clip-path="url(#p0f6daa3611)" style="fill: none; stroke: #cccccc; stroke-width: 0.8; stroke-linecap: round"/>
     </g>
     <g id="text_5">
      <!-- 2020 -->
      <g style="fill: #262626" transform="translate(625.249072 269.83475) scale(0.176 -0.176)">
       <use xlink:href="#ArialMT-32"/>
       <use xlink:href="#ArialMT-30" x="55.615234"/>
       <use xlink:href="#ArialMT-32" x="111.230469"/>
       <use xlink:href="#ArialMT-30" x="166.845703"/>
      </g>
     </g>
    </g>
    <g id="xtick_7">
     <g id="line2d_7">
      <path d="M 773.353214 248.937 
L 773.353214 27.177 
" clip-path="url(#p0f6daa3611)" style="fill: none; stroke: #cccccc; stroke-width: 0.8; stroke-linecap: round"/>
     </g>
     <g id="text_6">
      <!-- 2022 -->
      <g style="fill: #262626" transform="translate(753.778714 269.83475) scale(0.176 -0.176)">
       <use xlink:href="#ArialMT-32"/>
       <use xlink:href="#ArialMT-30" x="55.615234"/>
       <use xlink:href="#ArialMT-32" x="111.230469"/>
       <use xlink:href="#ArialMT-32" x="166.845703"/>
      </g>
     </g>
    </g>
    <g id="xtick_8">
     <g id="line2d_8">
      <path d="M 848.07975 248.937 
L 848.07975 27.177 
" clip-path="url(#p0f6daa3611)" style="fill: none; stroke: #cccccc; stroke-width: 0.8; stroke-linecap: round"/>
     </g>
    </g>
    <g id="xtick_9"/>
    <g id="xtick_10"/>
    <g id="xtick_11"/>
    <g id="xtick_12"/>
    <g id="xtick_13"/>
    <g id="xtick_14"/>
    <g id="text_7">
     <!-- Date -->
     <g style="fill: #262626" transform="translate(437.20275 291.07575) scale(0.192 -0.192)">
      <defs>
       <path id="ArialMT-44" d="M 494 0 
L 494 4581 
L 2072 4581 
Q 2606 4581 2888 4516 
Q 3281 4425 3559 4188 
Q 3922 3881 4101 3404 
Q 4281 2928 4281 2316 
Q 4281 1794 4159 1391 
Q 4038 988 3847 723 
Q 3656 459 3429 307 
Q 3203 156 2883 78 
Q 2563 0 2147 0 
L 494 0 
z
M 1100 541 
L 2078 541 
Q 2531 541 2789 625 
Q 3047 709 3200 863 
Q 3416 1078 3536 1442 
Q 3656 1806 3656 2325 
Q 3656 3044 3420 3430 
Q 3184 3816 2847 3947 
Q 2603 4041 2063 4041 
L 1100 4041 
L 1100 541 
z
" transform="scale(0.015625)"/>
       <path id="ArialMT-61" d="M 2588 409 
Q 2275 144 1986 34 
Q 1697 -75 1366 -75 
Q 819 -75 525 192 
Q 231 459 231 875 
Q 231 1119 342 1320 
Q 453 1522 633 1644 
Q 813 1766 1038 1828 
Q 1203 1872 1538 1913 
Q 2219 1994 2541 2106 
Q 2544 2222 2544 2253 
Q 2544 2597 2384 2738 
Q 2169 2928 1744 2928 
Q 1347 2928 1158 2789 
Q 969 2650 878 2297 
L 328 2372 
Q 403 2725 575 2942 
Q 747 3159 1072 3276 
Q 1397 3394 1825 3394 
Q 2250 3394 2515 3294 
Q 2781 3194 2906 3042 
Q 3031 2891 3081 2659 
Q 3109 2516 3109 2141 
L 3109 1391 
Q 3109 606 3145 398 
Q 3181 191 3288 0 
L 2700 0 
Q 2613 175 2588 409 
z
M 2541 1666 
Q 2234 1541 1622 1453 
Q 1275 1403 1131 1340 
Q 988 1278 909 1158 
Q 831 1038 831 891 
Q 831 666 1001 516 
Q 1172 366 1500 366 
Q 1825 366 2078 508 
Q 2331 650 2450 897 
Q 2541 1088 2541 1459 
L 2541 1666 
z
" transform="scale(0.015625)"/>
       <path id="ArialMT-74" d="M 1650 503 
L 1731 6 
Q 1494 -44 1306 -44 
Q 1000 -44 831 53 
Q 663 150 594 308 
Q 525 466 525 972 
L 525 2881 
L 113 2881 
L 113 3319 
L 525 3319 
L 525 4141 
L 1084 4478 
L 1084 3319 
L 1650 3319 
L 1650 2881 
L 1084 2881 
L 1084 941 
Q 1084 700 1114 631 
Q 1144 563 1211 522 
Q 1278 481 1403 481 
Q 1497 481 1650 503 
z
" transform="scale(0.015625)"/>
       <path id="ArialMT-65" d="M 2694 1069 
L 3275 997 
Q 3138 488 2766 206 
Q 2394 -75 1816 -75 
Q 1088 -75 661 373 
Q 234 822 234 1631 
Q 234 2469 665 2931 
Q 1097 3394 1784 3394 
Q 2450 3394 2872 2941 
Q 3294 2488 3294 1666 
Q 3294 1616 3291 1516 
L 816 1516 
Q 847 969 1125 678 
Q 1403 388 1819 388 
Q 2128 388 2347 550 
Q 2566 713 2694 1069 
z
M 847 1978 
L 2700 1978 
Q 2663 2397 2488 2606 
Q 2219 2931 1791 2931 
Q 1403 2931 1139 2672 
Q 875 2413 847 1978 
z
" transform="scale(0.015625)"/>
      </defs>
      <use xlink:href="#ArialMT-44"/>
      <use xlink:href="#ArialMT-61" x="72.216797"/>
      <use xlink:href="#ArialMT-74" x="127.832031"/>
      <use xlink:href="#ArialMT-65" x="155.615234"/>
     </g>
    </g>
   </g>
   <g id="matplotlib.axis_2">
    <g id="ytick_1">
     <g id="line2d_9">
      <path d="M 66.87975 211.881803 
L 848.07975 211.881803 
" clip-path="url(#p0f6daa3611)" style="fill: none; stroke: #cccccc; stroke-width: 0.8; stroke-linecap: round"/>
     </g>
     <g id="text_8">
      <!-- 50 -->
      <g style="fill: #262626" transform="translate(39.00525 218.180678) scale(0.176 -0.176)">
       <defs>
        <path id="ArialMT-35" d="M 266 1200 
L 856 1250 
Q 922 819 1161 601 
Q 1400 384 1738 384 
Q 2144 384 2425 690 
Q 2706 997 2706 1503 
Q 2706 1984 2436 2262 
Q 2166 2541 1728 2541 
Q 1456 2541 1237 2417 
Q 1019 2294 894 2097 
L 366 2166 
L 809 4519 
L 3088 4519 
L 3088 3981 
L 1259 3981 
L 1013 2750 
Q 1425 3038 1878 3038 
Q 2478 3038 2890 2622 
Q 3303 2206 3303 1553 
Q 3303 931 2941 478 
Q 2500 -78 1738 -78 
Q 1113 -78 717 272 
Q 322 622 266 1200 
z
" transform="scale(0.015625)"/>
       </defs>
       <use xlink:href="#ArialMT-35"/>
       <use xlink:href="#ArialMT-30" x="55.615234"/>
      </g>
     </g>
    </g>
    <g id="ytick_2">
     <g id="line2d_10">
      <path d="M 66.87975 167.207863 
L 848.07975 167.207863 
" clip-path="url(#p0f6daa3611)" style="fill: none; stroke: #cccccc; stroke-width: 0.8; stroke-linecap: round"/>
     </g>
     <g id="text_9">
      <!-- 100 -->
      <g style="fill: #262626" transform="translate(29.218 173.506738) scale(0.176 -0.176)">
       <use xlink:href="#ArialMT-31"/>
       <use xlink:href="#ArialMT-30" x="55.615234"/>
       <use xlink:href="#ArialMT-30" x="111.230469"/>
      </g>
     </g>
    </g>
    <g id="ytick_3">
     <g id="line2d_11">
      <path d="M 66.87975 122.533923 
L 848.07975 122.533923 
" clip-path="url(#p0f6daa3611)" style="fill: none; stroke: #cccccc; stroke-width: 0.8; stroke-linecap: round"/>
     </g>
     <g id="text_10">
      <!-- 150 -->
      <g style="fill: #262626" transform="translate(29.218 128.832798) scale(0.176 -0.176)">
       <use xlink:href="#ArialMT-31"/>
       <use xlink:href="#ArialMT-35" x="55.615234"/>
       <use xlink:href="#ArialMT-30" x="111.230469"/>
      </g>
     </g>
    </g>
    <g id="ytick_4">
     <g id="line2d_12">
      <path d="M 66.87975 77.859983 
L 848.07975 77.859983 
" clip-path="url(#p0f6daa3611)" style="fill: none; stroke: #cccccc; stroke-width: 0.8; stroke-linecap: round"/>
     </g>
     <g id="text_11">
      <!-- 200 -->
      <g style="fill: #262626" transform="translate(29.218 84.158858) scale(0.176 -0.176)">
       <use xlink:href="#ArialMT-32"/>
       <use xlink:href="#ArialMT-30" x="55.615234"/>
       <use xlink:href="#ArialMT-30" x="111.230469"/>
      </g>
     </g>
    </g>
    <g id="ytick_5">
     <g id="line2d_13">
      <path d="M 66.87975 33.186043 
L 848.07975 33.186043 
" clip-path="url(#p0f6daa3611)" style="fill: none; stroke: #cccccc; stroke-width: 0.8; stroke-linecap: round"/>
     </g>
     <g id="text_12">
      <!-- 250 -->
      <g style="fill: #262626" transform="translate(29.218 39.484918) scale(0.176 -0.176)">
       <use xlink:href="#ArialMT-32"/>
       <use xlink:href="#ArialMT-35" x="55.615234"/>
       <use xlink:href="#ArialMT-30" x="111.230469"/>
      </g>
     </g>
    </g>
    <g id="text_13">
     <!-- Gas in storage (TWh) -->
     <g style="fill: #262626" transform="translate(21.177 229.809) rotate(-90) scale(0.192 -0.192)">
      <defs>
       <path id="ArialMT-47" d="M 2638 1797 
L 2638 2334 
L 4578 2338 
L 4578 638 
Q 4131 281 3656 101 
Q 3181 -78 2681 -78 
Q 2006 -78 1454 211 
Q 903 500 622 1047 
Q 341 1594 341 2269 
Q 341 2938 620 3517 
Q 900 4097 1425 4378 
Q 1950 4659 2634 4659 
Q 3131 4659 3532 4498 
Q 3934 4338 4162 4050 
Q 4391 3763 4509 3300 
L 3963 3150 
Q 3859 3500 3706 3700 
Q 3553 3900 3268 4020 
Q 2984 4141 2638 4141 
Q 2222 4141 1919 4014 
Q 1616 3888 1430 3681 
Q 1244 3475 1141 3228 
Q 966 2803 966 2306 
Q 966 1694 1177 1281 
Q 1388 869 1791 669 
Q 2194 469 2647 469 
Q 3041 469 3416 620 
Q 3791 772 3984 944 
L 3984 1797 
L 2638 1797 
z
" transform="scale(0.015625)"/>
       <path id="ArialMT-73" d="M 197 991 
L 753 1078 
Q 800 744 1014 566 
Q 1228 388 1613 388 
Q 2000 388 2187 545 
Q 2375 703 2375 916 
Q 2375 1106 2209 1216 
Q 2094 1291 1634 1406 
Q 1016 1563 777 1677 
Q 538 1791 414 1992 
Q 291 2194 291 2438 
Q 291 2659 392 2848 
Q 494 3038 669 3163 
Q 800 3259 1026 3326 
Q 1253 3394 1513 3394 
Q 1903 3394 2198 3281 
Q 2494 3169 2634 2976 
Q 2775 2784 2828 2463 
L 2278 2388 
Q 2241 2644 2061 2787 
Q 1881 2931 1553 2931 
Q 1166 2931 1000 2803 
Q 834 2675 834 2503 
Q 834 2394 903 2306 
Q 972 2216 1119 2156 
Q 1203 2125 1616 2013 
Q 2213 1853 2448 1751 
Q 2684 1650 2818 1456 
Q 2953 1263 2953 975 
Q 2953 694 2789 445 
Q 2625 197 2315 61 
Q 2006 -75 1616 -75 
Q 969 -75 630 194 
Q 291 463 197 991 
z
" transform="scale(0.015625)"/>
       <path id="ArialMT-20" transform="scale(0.015625)"/>
       <path id="ArialMT-69" d="M 425 3934 
L 425 4581 
L 988 4581 
L 988 3934 
L 425 3934 
z
M 425 0 
L 425 3319 
L 988 3319 
L 988 0 
L 425 0 
z
" transform="scale(0.015625)"/>
       <path id="ArialMT-6e" d="M 422 0 
L 422 3319 
L 928 3319 
L 928 2847 
Q 1294 3394 1984 3394 
Q 2284 3394 2536 3286 
Q 2788 3178 2913 3003 
Q 3038 2828 3088 2588 
Q 3119 2431 3119 2041 
L 3119 0 
L 2556 0 
L 2556 2019 
Q 2556 2363 2490 2533 
Q 2425 2703 2258 2804 
Q 2091 2906 1866 2906 
Q 1506 2906 1245 2678 
Q 984 2450 984 1813 
L 984 0 
L 422 0 
z
" transform="scale(0.015625)"/>
       <path id="ArialMT-6f" d="M 213 1659 
Q 213 2581 725 3025 
Q 1153 3394 1769 3394 
Q 2453 3394 2887 2945 
Q 3322 2497 3322 1706 
Q 3322 1066 3130 698 
Q 2938 331 2570 128 
Q 2203 -75 1769 -75 
Q 1072 -75 642 372 
Q 213 819 213 1659 
z
M 791 1659 
Q 791 1022 1069 705 
Q 1347 388 1769 388 
Q 2188 388 2466 706 
Q 2744 1025 2744 1678 
Q 2744 2294 2464 2611 
Q 2184 2928 1769 2928 
Q 1347 2928 1069 2612 
Q 791 2297 791 1659 
z
" transform="scale(0.015625)"/>
       <path id="ArialMT-72" d="M 416 0 
L 416 3319 
L 922 3319 
L 922 2816 
Q 1116 3169 1280 3281 
Q 1444 3394 1641 3394 
Q 1925 3394 2219 3213 
L 2025 2691 
Q 1819 2813 1613 2813 
Q 1428 2813 1281 2702 
Q 1134 2591 1072 2394 
Q 978 2094 978 1738 
L 978 0 
L 416 0 
z
" transform="scale(0.015625)"/>
       <path id="ArialMT-67" d="M 319 -275 
L 866 -356 
Q 900 -609 1056 -725 
Q 1266 -881 1628 -881 
Q 2019 -881 2231 -725 
Q 2444 -569 2519 -288 
Q 2563 -116 2559 434 
Q 2191 0 1641 0 
Q 956 0 581 494 
Q 206 988 206 1678 
Q 206 2153 378 2554 
Q 550 2956 876 3175 
Q 1203 3394 1644 3394 
Q 2231 3394 2613 2919 
L 2613 3319 
L 3131 3319 
L 3131 450 
Q 3131 -325 2973 -648 
Q 2816 -972 2473 -1159 
Q 2131 -1347 1631 -1347 
Q 1038 -1347 672 -1080 
Q 306 -813 319 -275 
z
M 784 1719 
Q 784 1066 1043 766 
Q 1303 466 1694 466 
Q 2081 466 2343 764 
Q 2606 1063 2606 1700 
Q 2606 2309 2336 2618 
Q 2066 2928 1684 2928 
Q 1309 2928 1046 2623 
Q 784 2319 784 1719 
z
" transform="scale(0.015625)"/>
       <path id="ArialMT-28" d="M 1497 -1347 
Q 1031 -759 709 28 
Q 388 816 388 1659 
Q 388 2403 628 3084 
Q 909 3875 1497 4659 
L 1900 4659 
Q 1522 4009 1400 3731 
Q 1209 3300 1100 2831 
Q 966 2247 966 1656 
Q 966 153 1900 -1347 
L 1497 -1347 
z
" transform="scale(0.015625)"/>
       <path id="ArialMT-54" d="M 1659 0 
L 1659 4041 
L 150 4041 
L 150 4581 
L 3781 4581 
L 3781 4041 
L 2266 4041 
L 2266 0 
L 1659 0 
z
" transform="scale(0.015625)"/>
       <path id="ArialMT-57" d="M 1294 0 
L 78 4581 
L 700 4581 
L 1397 1578 
Q 1509 1106 1591 641 
Q 1766 1375 1797 1488 
L 2669 4581 
L 3400 4581 
L 4056 2263 
Q 4303 1400 4413 641 
Q 4500 1075 4641 1638 
L 5359 4581 
L 5969 4581 
L 4713 0 
L 4128 0 
L 3163 3491 
Q 3041 3928 3019 4028 
Q 2947 3713 2884 3491 
L 1913 0 
L 1294 0 
z
" transform="scale(0.015625)"/>
       <path id="ArialMT-68" d="M 422 0 
L 422 4581 
L 984 4581 
L 984 2938 
Q 1378 3394 1978 3394 
Q 2347 3394 2619 3248 
Q 2891 3103 3008 2847 
Q 3125 2591 3125 2103 
L 3125 0 
L 2563 0 
L 2563 2103 
Q 2563 2525 2380 2717 
Q 2197 2909 1863 2909 
Q 1613 2909 1392 2779 
Q 1172 2650 1078 2428 
Q 984 2206 984 1816 
L 984 0 
L 422 0 
z
" transform="scale(0.015625)"/>
       <path id="ArialMT-29" d="M 791 -1347 
L 388 -1347 
Q 1322 153 1322 1656 
Q 1322 2244 1188 2822 
Q 1081 3291 891 3722 
Q 769 4003 388 4659 
L 791 4659 
Q 1378 3875 1659 3084 
Q 1900 2403 1900 1659 
Q 1900 816 1576 28 
Q 1253 -759 791 -1347 
z
" transform="scale(0.015625)"/>
      </defs>
      <use xlink:href="#ArialMT-47"/>
      <use xlink:href="#ArialMT-61" x="77.783203"/>
      <use xlink:href="#ArialMT-73" x="133.398438"/>
      <use xlink:href="#ArialMT-20" x="183.398438"/>
      <use xlink:href="#ArialMT-69" x="211.181641"/>
      <use xlink:href="#ArialMT-6e" x="233.398438"/>
      <use xlink:href="#ArialMT-20" x="289.013672"/>
      <use xlink:href="#ArialMT-73" x="316.796875"/>
      <use xlink:href="#ArialMT-74" x="366.796875"/>
      <use xlink:href="#ArialMT-6f" x="394.580078"/>
      <use xlink:href="#ArialMT-72" x="450.195312"/>
      <use xlink:href="#ArialMT-61" x="483.496094"/>
      <use xlink:href="#ArialMT-67" x="539.111328"/>
      <use xlink:href="#ArialMT-65" x="594.726562"/>
      <use xlink:href="#ArialMT-20" x="650.341797"/>
      <use xlink:href="#ArialMT-28" x="678.125"/>
      <use xlink:href="#ArialMT-54" x="711.425781"/>
      <use xlink:href="#ArialMT-57" x="772.509766"/>
      <use xlink:href="#ArialMT-68" x="866.894531"/>
      <use xlink:href="#ArialMT-29" x="922.509766"/>
     </g>
    </g>
   </g>
   <g id="line2d_14">
    <path d="M 848.07975 104.470283 
L 847.200614 98.832968 
L 846.145651 96.86249 
L 845.969824 96.882146 
L 845.793997 97.017955 
L 845.61817 96.867851 
L 845.090689 94.826252 
L 844.739034 93.4947 
L 844.563207 92.889904 
L 844.035726 88.315114 
L 843.684071 85.924969 
L 843.332417 83.761589 
L 843.15659 83.314671 
L 842.804936 81.403162 
L 842.629109 82.090247 
L 842.101627 77.94665 
L 841.222491 67.448363 
L 839.991701 57.450425 
L 838.760911 56.085457 
L 838.409257 56.58938 
L 838.057603 57.058992 
L 837.705949 57.314706 
L 837.530121 57.561842 
L 836.826813 60.682495 
L 836.475159 61.657281 
L 835.947677 63.931363 
L 835.420196 64.799914 
L 835.244369 64.561087 
L 834.716887 62.130824 
L 834.189406 55.85771 
L 833.837751 50.951618 
L 832.782788 44.556275 
L 832.431134 43.291288 
L 832.255307 42.848301 
L 831.727826 40.510335 
L 831.376171 39.096852 
L 831.024517 39.399294 
L 830.672863 39.030913 
L 829.793727 37.542824 
L 829.6179 37.323385 
L 829.090418 37.410678 
L 828.914591 37.257 
L 828.38711 37.954718 
L 828.035456 38.306212 
L 827.683801 38.427815 
L 827.332147 39.064865 
L 826.980493 38.978287 
L 826.804666 39.208894 
L 826.628838 39.82182 
L 826.453011 40.026784 
L 825.749703 42.209017 
L 825.398048 42.440339 
L 825.222221 42.874748 
L 824.870567 44.396432 
L 824.343086 44.859432 
L 823.991431 45.858788 
L 823.46395 47.934429 
L 822.936468 48.925833 
L 822.584814 50.232278 
L 822.23316 51.847866 
L 821.529851 54.381861 
L 821.178197 55.924542 
L 820.826543 56.364312 
L 820.474888 56.643792 
L 820.299061 56.885389 
L 819.947407 58.074877 
L 819.068271 59.756583 
L 818.364963 62.384304 
L 817.837481 63.410911 
L 817.134173 66.392182 
L 816.958346 66.621091 
L 816.606691 68.243202 
L 815.903383 72.345342 
L 815.551728 73.644371 
L 815.200074 75.626107 
L 814.496766 79.726996 
L 813.969284 83.124628 
L 813.441803 86.535751 
L 812.914321 89.727168 
L 811.859358 97.713528 
L 810.101087 108.662396 
L 809.221951 112.506857 
L 808.870297 114.322763 
L 808.518643 114.955972 
L 808.166988 115.328016 
L 807.991161 115.312112 
L 807.639507 116.267688 
L 807.112025 116.529477 
L 806.936198 116.395277 
L 806.760371 116.575045 
L 806.23289 119.001912 
L 805.529581 121.458174 
L 805.0021 123.840903 
L 804.122964 126.041006 
L 803.595483 128.106282 
L 803.419655 128.677215 
L 803.243828 131.123292 
L 802.892174 132.931604 
L 802.364693 135.835946 
L 801.837211 138.120124 
L 801.30973 141.840927 
L 800.958075 142.894964 
L 800.606421 145.287522 
L 799.903113 150.305567 
L 799.551458 151.421879 
L 799.375631 151.862364 
L 798.144841 159.173612 
L 797.61736 163.130025 
L 796.914051 166.903901 
L 796.38657 170.659461 
L 796.034915 171.873252 
L 795.683261 173.144493 
L 794.804125 177.899319 
L 793.749163 182.790222 
L 793.221681 183.586759 
L 792.6942 186.349574 
L 792.166718 188.265639 
L 790.935928 194.523743 
L 790.760101 194.924379 
L 789.880965 198.19755 
L 789.529311 197.79057 
L 789.177657 197.755635 
L 789.00183 198.032881 
L 788.826003 197.510018 
L 788.650175 197.759209 
L 788.298521 198.688516 
L 787.595213 201.588391 
L 787.243558 201.994477 
L 787.067731 201.868943 
L 786.716077 202.726594 
L 785.836941 201.619663 
L 785.485287 202.212575 
L 785.30946 202.144135 
L 785.133633 202.382426 
L 784.781978 200.590107 
L 784.430324 198.686819 
L 784.07867 197.140743 
L 783.023707 191.613147 
L 782.672052 190.520065 
L 781.089608 185.235048 
L 780.562127 183.675302 
L 780.034645 181.168558 
L 779.507164 179.510351 
L 779.331337 179.274741 
L 778.979682 178.124387 
L 777.92472 172.457944 
L 777.573065 169.292259 
L 777.045584 163.916644 
L 776.69393 160.57271 
L 775.990621 154.042631 
L 775.638967 151.9233 
L 774.584004 140.914926 
L 774.23235 138.787106 
L 773.880695 136.47112 
L 773.704868 136.176897 
L 773.529041 136.336294 
L 773.177387 137.825187 
L 772.825732 139.150037 
L 772.649905 139.487236 
L 772.298251 139.021734 
L 771.77077 137.566972 
L 771.419115 134.275753 
L 771.067461 130.657968 
L 770.53998 128.848137 
L 770.012498 126.706201 
L 769.30919 123.509959 
L 768.605881 117.93349 
L 768.254227 116.363469 
L 766.495955 104.426771 
L 766.144301 102.591833 
L 765.968474 102.688508 
L 765.61682 103.232189 
L 765.440992 103.119254 
L 765.265165 102.855678 
L 764.913511 101.760183 
L 764.561857 101.984268 
L 764.034375 100.075797 
L 763.682721 99.002014 
L 763.331067 99.272291 
L 762.979412 98.280083 
L 762.627758 97.037612 
L 762.100277 97.834059 
L 761.748622 97.913936 
L 761.572795 98.72861 
L 761.396968 98.712884 
L 761.221141 98.36952 
L 760.69366 98.284015 
L 760.517832 98.142756 
L 760.166178 98.966275 
L 759.814524 99.426238 
L 759.287042 100.15755 
L 759.111215 99.871905 
L 758.935388 100.449539 
L 758.759561 100.385923 
L 757.704598 103.675802 
L 757.528771 104.401306 
L 757.177117 106.734537 
L 756.649635 109.308649 
L 756.297981 111.188708 
L 755.770499 114.432572 
L 755.418845 115.426478 
L 754.891364 116.738819 
L 754.539709 117.802506 
L 754.363882 118.090831 
L 754.188055 119.538982 
L 754.012228 118.797573 
L 753.660574 120.12698 
L 752.957265 122.873891 
L 752.605611 123.782291 
L 752.078129 125.754824 
L 751.550648 127.294378 
L 749.440722 136.66295 
L 748.913241 138.084296 
L 748.209932 140.674223 
L 747.682451 142.25568 
L 745.045044 153.812918 
L 744.693389 155.617656 
L 744.341735 155.712811 
L 743.990081 156.269895 
L 743.462599 157.733056 
L 743.110945 157.758252 
L 742.935118 157.86538 
L 742.583464 159.373215 
L 742.231809 160.888555 
L 741.880155 161.539008 
L 741.528501 162.929261 
L 740.825192 166.355037 
L 740.297711 168.292903 
L 739.770229 170.651509 
L 739.242748 171.910956 
L 738.187785 176.80731 
L 738.011958 177.249492 
L 736.956995 181.271845 
L 736.605341 182.57132 
L 735.374551 189.872471 
L 735.022897 191.587593 
L 734.847069 191.887445 
L 734.671242 191.932744 
L 734.319588 192.387078 
L 733.264625 195.882903 
L 732.912971 196.322852 
L 731.682181 200.723503 
L 731.506354 201.670144 
L 731.330527 201.988848 
L 731.154699 201.65978 
L 730.803045 200.700452 
L 730.627218 200.746466 
L 730.451391 200.477886 
L 730.099736 200.638534 
L 729.923909 200.457694 
L 729.748082 200.515412 
L 729.220601 201.563999 
L 728.868946 202.409319 
L 728.165638 202.869997 
L 727.989811 202.750628 
L 727.638156 202.718999 
L 727.462329 202.410928 
L 727.110675 200.538553 
L 726.759021 198.436108 
L 726.407366 198.415112 
L 726.231539 198.045569 
L 725.704058 195.917928 
L 725.528231 195.970464 
L 724.824922 197.826845 
L 724.473268 200.12255 
L 724.297441 199.724594 
L 723.769959 200.660335 
L 723.594132 200.597702 
L 723.418305 200.402834 
L 721.835861 196.791482 
L 721.660034 196.506641 
L 721.308379 196.317849 
L 721.132552 196.056149 
L 720.956725 195.537127 
L 720.429244 192.80746 
L 719.550108 189.289119 
L 719.374281 188.486328 
L 719.022626 188.13671 
L 718.495145 187.989286 
L 718.319318 187.775298 
L 718.143491 187.342944 
L 717.791836 187.131368 
L 717.264355 185.872546 
L 717.088528 184.992648 
L 716.033565 171.374959 
L 715.681911 166.60807 
L 715.154429 163.561576 
L 714.626948 160.481933 
L 712.692849 141.652761 
L 712.341195 139.094731 
L 711.637886 129.642887 
L 710.758751 115.948537 
L 709.352134 98.463872 
L 708.121344 90.785851 
L 707.769689 89.555352 
L 707.242208 88.462538 
L 706.890554 87.211042 
L 706.714726 86.830688 
L 706.187245 84.64104 
L 705.835591 82.396174 
L 705.483936 80.646832 
L 702.494875 55.902205 
L 702.143221 54.564489 
L 701.791566 53.96693 
L 701.615739 53.345158 
L 701.088258 52.978206 
L 700.912431 52.876528 
L 700.560776 53.126524 
L 700.033295 52.286564 
L 699.857468 51.497801 
L 699.681641 51.278363 
L 699.329986 51.237263 
L 699.154159 50.998347 
L 698.802505 50.130868 
L 698.626678 50.187783 
L 698.099196 51.292569 
L 697.923369 51.265497 
L 697.571715 50.709664 
L 697.220061 49.949671 
L 696.868406 50.349502 
L 696.516752 50.27168 
L 696.340925 50.215212 
L 694.758481 48.669762 
L 694.230999 49.060302 
L 693.527691 49.148131 
L 693.000209 49.97442 
L 692.824382 49.991039 
L 692.296901 49.121148 
L 691.945246 48.927977 
L 691.066111 49.452896 
L 690.538629 50.418032 
L 689.835321 50.931872 
L 689.483666 51.711075 
L 688.604531 52.205704 
L 688.077049 53.135816 
L 687.725395 53.414671 
L 687.373741 53.361151 
L 686.494605 54.194767 
L 686.142951 54.478715 
L 685.439642 56.224215 
L 685.087988 56.664878 
L 684.384679 58.226679 
L 684.033025 58.833709 
L 683.681371 59.408216 
L 683.153889 60.82429 
L 682.450581 61.836334 
L 682.098926 62.793875 
L 681.219791 63.52206 
L 681.043963 63.978807 
L 680.692309 63.330588 
L 679.989001 61.630476 
L 679.637346 61.326604 
L 678.934038 60.123982 
L 678.75821 60.382912 
L 678.406556 61.137633 
L 678.230729 61.256109 
L 677.879075 61.017639 
L 677.703248 60.943212 
L 677.52742 61.014512 
L 676.999939 63.039403 
L 676.824112 63.121692 
L 676.29663 63.917335 
L 675.769149 65.128893 
L 675.06584 65.976268 
L 674.714186 67.109824 
L 673.83505 68.135985 
L 673.307569 69.862633 
L 673.131742 70.131838 
L 672.780088 70.215735 
L 672.60426 70.359407 
L 672.076779 71.372254 
L 671.549298 72.229905 
L 671.021816 73.850765 
L 670.845989 73.96781 
L 670.494335 73.864971 
L 670.14268 74.6557 
L 669.791026 76.203205 
L 669.439372 77.773405 
L 668.91189 79.119966 
L 668.560236 80.449105 
L 668.208582 80.741898 
L 668.032755 80.790236 
L 667.856928 80.488061 
L 667.6811 81.024863 
L 667.153619 84.106918 
L 666.801965 84.701707 
L 666.45031 85.282736 
L 665.395348 88.664018 
L 665.21952 88.959402 
L 663.812903 93.750414 
L 663.461249 95.048638 
L 663.285422 95.3828 
L 662.933768 95.44436 
L 662.406286 97.584331 
L 661.878805 99.032303 
L 661.175496 100.233139 
L 660.999669 99.997081 
L 660.823842 100.085268 
L 660.648015 101.118308 
L 660.29636 98.891669 
L 660.120533 98.736562 
L 659.944706 98.83547 
L 659.768879 98.516408 
L 658.889743 95.110467 
L 658.186435 93.93036 
L 657.483126 92.921623 
L 657.307299 92.560836 
L 656.955645 92.382855 
L 656.076509 90.585176 
L 655.197373 86.895019 
L 655.021546 86.783423 
L 654.494065 83.241673 
L 653.966583 82.255809 
L 653.790756 82.106419 
L 652.91162 79.860928 
L 652.735793 79.896399 
L 652.559966 79.773367 
L 652.208312 78.348358 
L 651.856657 76.792097 
L 651.329176 75.268894 
L 651.153349 74.272755 
L 650.801695 71.546751 
L 650.45004 70.039988 
L 649.922559 69.467179 
L 648.691769 61.804973 
L 647.812633 55.126397 
L 646.933497 52.568993 
L 646.230189 50.746922 
L 646.054362 50.37586 
L 645.52688 48.048973 
L 644.999399 46.783896 
L 644.647745 45.4653 
L 643.768609 44.583347 
L 642.713646 45.070919 
L 642.361992 45.074403 
L 641.83451 44.61453 
L 641.482856 44.70218 
L 640.60372 43.124297 
L 640.252066 43.581668 
L 639.724585 42.696231 
L 639.548757 42.622251 
L 639.021276 41.835453 
L 638.845449 41.808738 
L 638.493795 42.09626 
L 637.966313 42.007001 
L 637.790486 42.178549 
L 637.614659 42.078748 
L 637.263005 41.147296 
L 636.91135 40.856915 
L 636.559696 40.934469 
L 636.208042 40.693588 
L 635.68056 40.050283 
L 635.153079 40.166256 
L 634.977252 40.289824 
L 634.801425 40.136772 
L 634.625597 40.14115 
L 634.44977 40.27946 
L 634.098116 40.989776 
L 633.922289 40.909988 
L 633.570635 40.338251 
L 633.21898 40.191989 
L 632.515672 40.819657 
L 631.98819 40.906504 
L 631.636536 41.357085 
L 631.109055 41.519341 
L 630.7574 41.782113 
L 630.405746 42.381994 
L 629.52661 42.577756 
L 629.174956 42.971512 
L 628.823302 43.105087 
L 628.29582 43.819512 
L 627.944166 44.723981 
L 627.592512 45.008643 
L 627.240857 44.953248 
L 627.06503 45.042328 
L 626.713376 45.506668 
L 626.010067 45.553844 
L 625.658413 46.096096 
L 625.306759 46.499949 
L 624.779277 46.833395 
L 624.427623 47.019954 
L 624.075969 47.290678 
L 623.724314 47.876085 
L 623.196833 49.258297 
L 622.845179 50.230848 
L 622.493524 50.701176 
L 621.966043 52.004046 
L 620.735253 56.103863 
L 620.383599 57.559429 
L 619.504463 60.379874 
L 619.152809 61.997428 
L 617.570364 66.327316 
L 616.867056 67.932808 
L 615.98792 68.000623 
L 615.636266 68.494627 
L 614.932957 67.865975 
L 614.75713 68.314412 
L 614.229649 70.418466 
L 613.877994 71.057392 
L 613.52634 71.273704 
L 612.998859 73.206298 
L 612.647204 74.164822 
L 612.29555 75.194735 
L 611.768069 77.814862 
L 608.427353 92.053251 
L 607.196563 99.383976 
L 606.669082 103.176972 
L 606.317427 104.449286 
L 605.438292 108.895147 
L 604.734983 111.963979 
L 604.383329 113.331716 
L 603.68002 114.796932 
L 602.625057 117.3731 
L 602.44923 117.597363 
L 601.745922 119.535408 
L 601.394267 120.813172 
L 601.21844 121.138219 
L 600.690959 123.334569 
L 600.163477 126.166629 
L 599.460169 131.030281 
L 598.932687 132.855658 
L 598.581033 133.067144 
L 598.229379 132.876923 
L 598.053551 132.696351 
L 597.877724 132.676515 
L 597.701897 132.792757 
L 597.350243 133.704731 
L 597.174416 134.093126 
L 596.998589 134.002259 
L 596.822761 133.040072 
L 596.646934 133.499856 
L 596.29528 136.510344 
L 596.119453 135.858372 
L 595.943626 136.419387 
L 595.767799 136.490419 
L 595.416144 136.341387 
L 595.240317 136.093893 
L 595.06449 136.12713 
L 594.712836 137.238618 
L 594.537009 137.402125 
L 594.361181 137.379252 
L 593.8337 136.691452 
L 593.482046 137.195552 
L 593.306219 137.233347 
L 592.954564 137.021413 
L 592.60291 136.530536 
L 591.899601 136.922863 
L 591.547947 136.590042 
L 591.37212 136.591739 
L 591.020466 136.842807 
L 590.844639 136.477106 
L 590.492984 136.463615 
L 590.317157 136.664469 
L 589.965503 136.276967 
L 589.789676 136.187976 
L 589.613849 135.888929 
L 589.438021 128.722872 
L 588.91054 128.023903 
L 588.558886 128.123258 
L 588.383059 127.889524 
L 588.031404 126.744799 
L 587.67975 125.296738 
L 587.328096 124.957484 
L 586.976441 124.215539 
L 586.624787 122.37542 
L 586.273133 120.543163 
L 585.921479 118.698844 
L 585.21817 113.66963 
L 584.866516 112.450389 
L 583.459899 99.068221 
L 582.75659 96.261536 
L 582.580763 96.150476 
L 582.404936 95.750555 
L 581.701627 92.468629 
L 581.349973 91.697646 
L 581.174146 91.406819 
L 580.646664 88.942515 
L 580.470837 89.156056 
L 579.943356 88.823682 
L 579.415874 86.737945 
L 578.888393 85.673187 
L 578.712566 85.538271 
L 578.536739 85.240832 
L 578.185084 83.647313 
L 577.130121 76.725801 
L 576.778467 74.705645 
L 576.60264 74.252294 
L 576.075159 74.465121 
L 575.899331 74.224685 
L 575.547677 72.963897 
L 575.196023 73.14992 
L 575.020196 73.009912 
L 574.492714 71.085626 
L 573.965233 68.963704 
L 573.789406 68.441197 
L 573.261924 65.059022 
L 572.91027 63.189418 
L 572.031134 61.405141 
L 571.855307 61.378962 
L 571.67948 61.491987 
L 571.327826 62.074088 
L 570.800344 61.950342 
L 570.44869 61.963118 
L 569.745381 62.396545 
L 569.393727 62.296118 
L 569.2179 61.917372 
L 569.042073 61.886637 
L 568.514591 62.445061 
L 567.811283 64.623273 
L 566.75632 69.306085 
L 566.053011 74.315463 
L 565.349703 76.443551 
L 564.998048 78.138212 
L 563.415604 81.408702 
L 563.06395 81.780746 
L 562.360641 84.688573 
L 560.954024 90.64486 
L 560.426543 92.419577 
L 560.074888 93.633547 
L 559.37158 95.323741 
L 558.844098 97.146169 
L 558.316617 98.88747 
L 556.558346 109.107885 
L 554.800074 120.964974 
L 554.272593 124.114308 
L 553.920938 126.220059 
L 553.393457 128.983053 
L 552.690148 132.127473 
L 551.98684 133.709734 
L 551.459358 135.393406 
L 551.283531 135.767773 
L 551.107704 136.629087 
L 550.931877 136.743899 
L 550.580223 138.873595 
L 550.228568 140.882225 
L 549.52526 143.974644 
L 548.646124 150.182177 
L 548.29447 152.539175 
L 547.766988 156.570193 
L 547.239507 158.773423 
L 544.777927 168.257164 
L 542.668001 177.466608 
L 542.14052 180.654629 
L 541.613038 184.415014 
L 541.261384 186.439726 
L 540.558075 191.01541 
L 539.67894 196.194817 
L 538.799804 203.031091 
L 538.096495 207.217665 
L 537.041533 211.009142 
L 536.689878 212.333992 
L 535.98657 215.287476 
L 535.459088 218.795095 
L 534.931607 221.132793 
L 534.75578 221.343118 
L 534.404125 222.265992 
L 533.876644 222.892142 
L 533.52499 223.499261 
L 533.173335 224.537305 
L 532.470027 224.913549 
L 532.118373 224.78587 
L 531.766718 224.834654 
L 531.239237 223.915354 
L 530.887583 223.342187 
L 530.711755 223.013655 
L 530.360101 220.957314 
L 529.480965 214.553036 
L 528.60183 212.220253 
L 528.426003 212.211318 
L 528.250175 212.016093 
L 528.074348 211.518425 
L 527.019385 203.28475 
L 525.612768 181.112895 
L 524.90946 171.94196 
L 524.381978 168.119032 
L 523.151188 155.842187 
L 522.44788 145.595861 
L 521.744571 140.517596 
L 521.21709 138.536128 
L 521.041262 138.370477 
L 520.865435 137.915875 
L 520.513781 136.302252 
L 520.337954 136.008387 
L 519.9863 133.971881 
L 519.458818 130.294233 
L 518.579682 123.59886 
L 518.052201 120.304961 
L 517.348892 115.542898 
L 516.997238 114.536483 
L 516.469757 112.577978 
L 516.118102 112.6818 
L 515.942275 112.204236 
L 515.238967 108.615042 
L 514.711485 107.778835 
L 514.184004 102.817794 
L 513.656522 97.01036 
L 513.304868 93.815727 
L 512.074078 81.101524 
L 511.019115 73.302973 
L 510.315807 66.13084 
L 509.964152 64.008917 
L 509.436671 62.446848 
L 509.260844 62.154591 
L 508.030054 57.040318 
L 507.6784 54.556 
L 507.150918 53.40922 
L 506.44761 50.403111 
L 506.095955 50.750764 
L 505.744301 50.4485 
L 505.21682 50.261048 
L 504.689338 51.720635 
L 504.337684 52.414868 
L 503.810202 53.735161 
L 503.282721 55.601371 
L 502.931067 56.905046 
L 502.579412 59.073072 
L 502.227758 61.263346 
L 501.876104 62.422992 
L 501.52445 62.826398 
L 501.172795 63.810922 
L 500.996968 63.922339 
L 500.645314 64.887564 
L 500.117832 68.151799 
L 499.766178 69.937149 
L 498.887042 72.57443 
L 498.711215 73.442981 
L 498.535388 73.72121 
L 498.183734 73.349344 
L 497.83208 72.505364 
L 497.480425 72.658149 
L 497.304598 72.487584 
L 496.952944 72.566389 
L 496.60129 72.857216 
L 496.073808 76.009141 
L 494.315537 83.976649 
L 490.798994 104.86663 
L 490.447339 106.57246 
L 489.744031 111.603371 
L 489.216549 114.666038 
L 488.513241 119.752702 
L 487.809932 124.094026 
L 487.282451 127.647213 
L 487.106624 128.737078 
L 486.930797 129.05194 
L 483.765908 145.167528 
L 483.590081 146.649809 
L 483.062599 147.810795 
L 482.535118 149.86124 
L 482.007637 151.098083 
L 481.128501 154.04415 
L 480.776847 155.436458 
L 480.425192 157.670155 
L 479.897711 160.683144 
L 479.370229 163.691309 
L 478.842748 167.712857 
L 478.139439 171.15007 
L 477.436131 176.16061 
L 476.556995 180.344592 
L 475.853687 182.494124 
L 474.974551 184.622033 
L 474.798724 184.673944 
L 474.622897 184.585757 
L 474.447069 184.662954 
L 474.095415 185.367373 
L 473.392107 185.883089 
L 472.864625 186.971346 
L 472.161317 187.045773 
L 471.809662 187.345713 
L 471.458008 187.733483 
L 470.930527 187.176489 
L 470.578872 187.543708 
L 470.227218 188.116696 
L 469.699736 188.406719 
L 469.523909 188.736413 
L 469.172255 189.707714 
L 468.644774 190.076185 
L 468.293119 190.641042 
L 468.117292 193.446208 
L 467.941465 194.075038 
L 467.765638 192.614022 
L 467.413984 193.686018 
L 467.238156 194.104881 
L 467.062329 194.189136 
L 466.710675 195.11746 
L 466.534848 195.304286 
L 466.183194 195.200375 
L 466.007366 195.898271 
L 465.831539 195.555801 
L 465.479885 196.435252 
L 464.952404 196.528531 
L 464.776576 196.460091 
L 464.600749 196.227697 
L 464.249095 196.467417 
L 463.897441 196.021303 
L 463.369959 194.56538 
L 463.018305 194.495688 
L 461.787515 191.375571 
L 461.435861 190.204399 
L 460.732552 188.27243 
L 460.556725 187.754748 
L 459.853416 183.917078 
L 459.677589 182.420501 
L 459.501762 181.963397 
L 459.325935 180.730754 
L 458.798454 174.787511 
L 458.270972 171.489324 
L 457.919318 170.134631 
L 457.391836 166.666504 
L 456.688528 160.691096 
L 454.226948 129.044703 
L 452.996158 114.938102 
L 452.468676 109.191425 
L 452.292849 108.39328 
L 451.941195 105.39691 
L 451.413714 102.114447 
L 451.237886 101.31532 
L 451.062059 101.047813 
L 450.886232 101.030926 
L 450.710405 100.652001 
L 450.358751 98.692513 
L 449.479615 92.223012 
L 448.424652 84.970912 
L 448.072998 82.917698 
L 447.721344 79.68125 
L 447.018035 72.401363 
L 446.490554 67.288163 
L 446.138899 63.211576 
L 445.259764 59.73916 
L 444.556455 58.523046 
L 444.028973 56.752797 
L 442.270702 45.110232 
L 442.094875 44.897316 
L 441.567393 43.483028 
L 441.215739 43.183802 
L 440.688258 43.590424 
L 440.336603 43.245363 
L 439.633295 42.470985 
L 439.281641 42.248241 
L 438.929986 42.42372 
L 438.754159 42.56891 
L 438.402505 43.26913 
L 438.226678 43.379474 
L 438.050851 43.353831 
L 437.875023 43.137967 
L 437.523369 43.12108 
L 436.995888 43.611957 
L 436.820061 43.728646 
L 436.468406 44.785631 
L 436.292579 45.048403 
L 436.116752 45.514442 
L 435.940925 48.100527 
L 435.765098 48.325683 
L 434.182653 52.095539 
L 433.830999 52.529501 
L 431.896901 57.724902 
L 431.369419 58.363382 
L 430.841938 59.679297 
L 430.314456 60.638268 
L 429.962802 61.632531 
L 429.259493 63.408499 
L 428.907839 64.296349 
L 428.204531 67.533155 
L 427.677049 69.137753 
L 427.149568 71.303903 
L 426.622086 72.614994 
L 419.237346 105.602589 
L 416.599939 116.041459 
L 415.89663 118.082701 
L 414.66584 120.621342 
L 414.314186 127.478256 
L 414.138359 121.869264 
L 412.731742 127.315732 
L 412.380088 129.028263 
L 411.149298 133.433649 
L 410.270162 138.33724 
L 409.74268 141.208434 
L 409.039372 142.59824 
L 408.863545 142.830634 
L 408.51189 142.423208 
L 408.160236 141.554031 
L 407.984409 141.533124 
L 407.632755 141.970929 
L 405.698656 144.177732 
L 404.995348 144.672987 
L 404.81952 144.725792 
L 404.643693 160.636237 
L 404.467866 157.132013 
L 403.940385 158.03389 
L 403.764558 159.322108 
L 403.58873 158.661113 
L 403.061249 158.388959 
L 402.709595 158.451502 
L 402.35794 158.153885 
L 401.830459 157.445177 
L 401.478805 157.134425 
L 401.12715 156.172774 
L 400.423842 153.916115 
L 400.248015 153.673535 
L 399.720533 151.491303 
L 399.193052 149.068635 
L 398.489743 146.416968 
L 397.962262 144.276908 
L 397.786435 143.797557 
L 397.083126 140.393313 
L 396.907299 140.155826 
L 396.731472 140.115977 
L 396.555645 139.822916 
L 396.20399 138.216799 
L 395.676509 135.391976 
L 395.149028 133.880746 
L 394.621546 132.138373 
L 394.445719 131.812968 
L 394.094065 131.623104 
L 393.039102 128.33537 
L 392.687448 127.587171 
L 391.632485 124.954893 
L 391.105003 119.623594 
L 390.577522 115.173891 
L 389.522559 110.529231 
L 389.170905 109.849562 
L 388.81925 108.485755 
L 388.115942 105.446409 
L 387.764287 104.983855 
L 387.58846 109.315351 
L 387.060979 108.871738 
L 385.830189 109.495029 
L 385.302707 110.275215 
L 385.12688 110.226342 
L 384.775226 109.336258 
L 384.423572 108.529625 
L 384.247745 108.231114 
L 383.89609 107.042787 
L 383.544436 106.658145 
L 382.489473 105.772618 
L 382.313646 105.460079 
L 382.137819 104.605109 
L 381.786165 103.989145 
L 381.43451 102.822083 
L 380.731202 100.277366 
L 380.555375 100.172918 
L 380.379547 101.142164 
L 380.20372 101.288962 
L 379.852066 102.024206 
L 379.676239 102.236497 
L 379.148757 103.205921 
L 378.621276 104.05276 
L 377.917967 106.648942 
L 377.566313 106.812627 
L 377.214659 106.657609 
L 377.038832 107.103097 
L 376.863005 108.081278 
L 376.687177 108.041339 
L 376.51135 109.322677 
L 375.808042 109.450981 
L 375.456387 109.573566 
L 375.104733 109.302216 
L 374.753079 108.928921 
L 374.225597 108.769614 
L 373.522289 108.174557 
L 372.81898 109.437757 
L 372.291499 110.781192 
L 371.764017 112.600047 
L 370.884882 114.772272 
L 370.533227 115.906812 
L 370.181573 116.464521 
L 369.654092 118.10745 
L 369.302437 119.350011 
L 368.599129 121.134646 
L 368.071647 122.850214 
L 367.192512 125.007608 
L 366.840857 125.997672 
L 366.489203 126.771961 
L 366.137549 127.740581 
L 365.610067 129.500198 
L 364.906759 130.938163 
L 364.20345 133.645136 
L 363.675969 134.595172 
L 362.796833 137.823221 
L 362.445179 139.177288 
L 361.74187 142.344849 
L 356.642883 164.950935 
L 356.291229 166.230129 
L 355.58792 169.868107 
L 354.35713 175.3303 
L 353.829649 176.463588 
L 352.950513 178.742674 
L 352.423032 180.145168 
L 351.89555 181.674625 
L 351.368069 182.825962 
L 350.488933 185.762112 
L 350.137279 186.586882 
L 349.609797 188.578178 
L 349.082316 189.640703 
L 348.379007 192.313813 
L 347.851526 192.914945 
L 347.675699 193.263581 
L 346.97239 195.496384 
L 345.917427 198.307001 
L 345.565773 199.141063 
L 344.862464 201.43775 
L 344.686637 201.862689 
L 344.51081 201.980092 
L 344.159156 201.667374 
L 343.983329 201.6789 
L 343.455847 202.166025 
L 342.576712 202.204802 
L 341.697576 201.952037 
L 341.521749 201.654955 
L 340.994267 201.546576 
L 340.81844 201.406121 
L 340.290959 200.324655 
L 339.939304 199.820018 
L 339.763477 199.415272 
L 339.58765 198.635533 
L 339.411823 198.610694 
L 339.060169 198.21944 
L 338.708514 198.230608 
L 337.829379 196.635838 
L 337.301897 196.170067 
L 336.422761 195.42026 
L 335.89528 194.27482 
L 335.719453 193.85837 
L 335.367799 193.672705 
L 335.191971 193.730245 
L 335.016144 193.575137 
L 334.66449 191.953205 
L 333.785354 186.674711 
L 332.378737 178.192827 
L 331.323774 169.944231 
L 330.268811 160.648746 
L 328.334713 142.174016 
L 327.455577 135.620796 
L 326.224787 125.791189 
L 325.697306 122.710385 
L 325.345651 121.10936 
L 324.993997 120.041832 
L 324.466516 117.090314 
L 324.114861 114.930329 
L 323.763207 113.082436 
L 322.708244 107.357917 
L 322.35659 106.586845 
L 322.004936 106.256258 
L 321.477454 105.46535 
L 321.301627 105.297287 
L 321.1258 104.91604 
L 320.422491 101.87026 
L 320.246664 101.42629 
L 319.719183 98.768459 
L 319.367529 96.488658 
L 319.015874 95.261376 
L 318.488393 90.470364 
L 318.136739 87.837192 
L 317.43343 85.355644 
L 316.905949 82.949774 
L 316.554294 82.242943 
L 315.850986 79.396319 
L 315.675159 79.043038 
L 315.323504 79.0098 
L 314.796023 78.488724 
L 313.916887 78.071648 
L 313.565233 77.720779 
L 313.213578 77.739899 
L 312.861924 78.299842 
L 312.686097 81.934514 
L 312.158616 81.675763 
L 311.982788 81.72955 
L 311.631134 82.245087 
L 310.927826 81.986872 
L 310.751998 82.109278 
L 310.224517 83.00231 
L 309.521208 83.329949 
L 309.169554 84.010244 
L 308.466246 84.584036 
L 308.290418 84.77533 
L 307.411283 86.801204 
L 307.235456 87.95808 
L 306.883801 88.601742 
L 306.707974 88.946893 
L 306.004666 89.199837 
L 305.828838 89.403997 
L 305.12553 90.908704 
L 304.598048 91.299244 
L 304.070567 92.42744 
L 303.89474 92.510801 
L 303.543086 92.796 
L 303.367258 92.937705 
L 302.839777 94.12764 
L 302.136468 94.878252 
L 301.43316 96.102943 
L 301.081506 96.176923 
L 300.905678 96.426025 
L 300.378197 97.717549 
L 300.026543 98.105497 
L 299.674888 98.777125 
L 296.158346 109.515668 
L 295.806691 110.519135 
L 295.455037 111.45827 
L 294.751728 112.541256 
L 294.224247 113.933564 
L 294.04842 114.177841 
L 293.696766 114.187758 
L 293.520938 114.469651 
L 293.169284 115.557551 
L 292.81763 115.800577 
L 292.641803 115.921107 
L 292.290148 116.583622 
L 291.762667 117.983256 
L 290.707704 120.223655 
L 290.531877 120.277889 
L 290.35605 120.172011 
L 290.180223 119.9297 
L 290.004396 119.909507 
L 289.12526 121.167972 
L 288.949433 121.170921 
L 288.597778 121.548237 
L 288.070297 122.598611 
L 287.718643 122.935363 
L 287.191161 124.669873 
L 286.839507 125.746336 
L 286.487853 126.083089 
L 285.43289 128.996455 
L 285.257063 129.027727 
L 284.729581 130.314336 
L 284.377927 131.151883 
L 283.674618 132.515064 
L 283.147137 133.859571 
L 282.619655 134.452036 
L 282.443828 134.684341 
L 280.685557 139.098841 
L 280.333903 140.124733 
L 279.103113 143.05722 
L 277.872323 146.361751 
L 277.696495 146.446811 
L 276.465705 148.253782 
L 276.289878 156.201455 
L 275.58657 157.369321 
L 275.410743 157.607612 
L 275.234915 157.452772 
L 274.707434 157.925154 
L 274.531607 158.091162 
L 274.179953 157.516388 
L 274.004125 156.823048 
L 273.828298 156.652394 
L 273.652471 155.487297 
L 273.12499 155.579683 
L 272.070027 155.415551 
L 271.8942 151.917045 
L 271.542545 151.775339 
L 271.015064 152.052229 
L 270.66341 151.847979 
L 269.43262 150.461836 
L 269.256793 150.435479 
L 268.729311 150.101586 
L 267.850175 149.709527 
L 267.674348 149.314073 
L 267.322694 149.339627 
L 266.267731 147.616285 
L 265.916077 147.3402 
L 265.564423 146.856828 
L 265.036941 145.825217 
L 264.861114 145.724969 
L 263.806151 141.535 
L 263.630324 141.267582 
L 263.102843 139.084367 
L 262.751188 137.407039 
L 262.04788 136.267407 
L 260.81709 133.467065 
L 260.289608 132.694832 
L 259.937954 132.659361 
L 259.5863 132.226649 
L 259.410472 134.430861 
L 258.179682 132.545353 
L 258.003855 132.476376 
L 257.12472 130.192555 
L 256.597238 128.455721 
L 256.245584 127.789544 
L 255.718102 125.615352 
L 254.838967 122.327529 
L 254.487312 120.331051 
L 254.135658 118.492539 
L 253.608177 116.789926 
L 252.904868 113.246121 
L 252.553214 112.680817 
L 252.025732 110.819701 
L 251.498251 109.901919 
L 250.443288 108.573674 
L 250.091634 108.611111 
L 249.73998 108.681159 
L 249.212498 108.371301 
L 248.860844 108.609592 
L 248.685017 110.366618 
L 248.333362 110.414776 
L 247.981708 110.957386 
L 247.454227 112.207541 
L 246.926745 113.117728 
L 245.871782 114.638965 
L 245.520128 114.897985 
L 244.992647 115.697112 
L 244.81682 115.85365 
L 244.113511 117.628188 
L 243.58603 119.139597 
L 243.410202 119.515037 
L 243.234375 159.700139 
L 243.058548 159.915467 
L 242.531067 160.87694 
L 242.179412 161.30849 
L 241.300277 162.574371 
L 240.948622 162.793988 
L 240.421141 163.431396 
L 240.069487 163.984281 
L 239.366178 164.6283 
L 238.66287 166.236473 
L 237.959561 167.51245 
L 237.43208 168.763409 
L 236.728771 170.478978 
L 236.377117 171.247012 
L 235.673808 172.360734 
L 235.146327 173.845963 
L 234.618845 174.73426 
L 234.091364 176.20162 
L 233.563882 177.83347 
L 233.388055 178.528865 
L 233.212228 177.445879 
L 232.508919 180.342359 
L 231.981438 182.130478 
L 231.278129 185.057335 
L 228.113241 197.554334 
L 227.585759 199.659192 
L 227.234105 200.861546 
L 226.354969 204.425454 
L 223.893389 211.135123 
L 223.541735 212.012787 
L 222.486772 215.64451 
L 222.310945 215.906031 
L 222.135118 215.947935 
L 220.728501 218.198073 
L 220.552674 218.371407 
L 220.376847 218.232382 
L 220.201019 218.235331 
L 220.025192 218.441992 
L 219.673538 219.439651 
L 218.970229 221.832387 
L 217.915267 225.661837 
L 216.860304 229.920246 
L 216.508649 231.031019 
L 216.332822 232.903661 
L 214.750378 236.031909 
L 213.871242 237.722639 
L 213.343761 238.709844 
L 213.167934 238.857 
L 212.816279 238.805 
L 212.464625 238.472536 
L 211.409662 236.497054 
L 211.233835 235.350274 
L 210.530527 233.513729 
L 210.003045 231.680221 
L 208.068946 223.792858 
L 207.365638 219.596724 
L 206.838156 218.547691 
L 206.310675 217.584253 
L 205.431539 214.926511 
L 204.024922 208.078085 
L 203.849095 209.148919 
L 203.673268 208.717101 
L 203.497441 211.357688 
L 203.145786 210.586527 
L 202.618305 208.766242 
L 202.090824 207.008591 
L 201.387515 204.766674 
L 200.860034 203.695214 
L 200.508379 203.389108 
L 200.156725 202.989634 
L 199.453416 200.931595 
L 197.343491 192.191317 
L 196.816009 191.025685 
L 196.112701 189.611754 
L 195.233565 188.398678 
L 194.881911 188.439778 
L 194.530256 188.455771 
L 194.178602 188.359097 
L 193.826948 188.3943 
L 193.651121 188.39162 
L 193.475294 188.275199 
L 193.299466 186.506111 
L 192.947812 186.072238 
L 192.244504 185.586811 
L 192.068676 184.962895 
L 191.365368 181.112359 
L 190.837886 178.728825 
L 190.662059 177.639138 
L 190.486232 177.430332 
L 189.607096 174.217383 
L 189.255442 173.457926 
L 188.727961 173.145834 
L 188.552134 173.127428 
L 187.848825 172.703293 
L 187.321344 172.355283 
L 186.618035 171.437859 
L 186.266381 171.359948 
L 185.035591 171.331893 
L 184.683936 171.445097 
L 184.508109 171.441701 
L 183.804801 170.087813 
L 183.453146 169.956918 
L 182.925665 169.782958 
L 182.574011 170.321547 
L 182.046529 170.662141 
L 181.694875 170.817338 
L 181.519048 170.67188 
L 180.815739 170.959044 
L 180.464085 170.640072 
L 180.288258 170.497384 
L 179.409122 170.855222 
L 179.233295 170.866212 
L 179.057468 171.415969 
L 178.178332 172.020318 
L 177.650851 171.965727 
L 177.475023 171.993961 
L 177.123369 171.828042 
L 176.595888 171.88165 
L 175.540925 172.514769 
L 175.365098 172.605279 
L 174.837616 173.439163 
L 174.661789 173.576848 
L 173.958481 174.566822 
L 172.727691 176.270686 
L 172.024382 177.241987 
L 171.848555 177.389322 
L 171.321073 178.535566 
L 168.683666 182.778965 
L 167.804531 184.41689 
L 167.628703 185.623444 
L 164.639642 190.685537 
L 164.287988 190.905333 
L 163.584679 191.757801 
L 163.233025 192.011013 
L 162.881371 192.829886 
L 162.529716 193.26787 
L 162.002235 193.642148 
L 161.826408 194.202002 
L 159.892309 195.961529 
L 159.540655 196.13406 
L 159.013173 196.887263 
L 158.661519 197.386718 
L 158.134038 198.020015 
L 155.672458 202.242417 
L 155.144976 203.480243 
L 154.793322 203.694946 
L 154.617495 203.627756 
L 153.210878 204.959308 
L 152.331742 205.343861 
L 151.452606 206.278708 
L 151.100952 206.355904 
L 150.749298 206.362606 
L 150.397643 206.569446 
L 150.221816 206.501988 
L 149.694335 206.00307 
L 149.518508 205.937935 
L 149.166853 206.014417 
L 148.639372 205.961612 
L 147.584409 206.129408 
L 147.232755 206.480366 
L 147.056928 206.432297 
L 146.705273 206.720176 
L 145.122829 208.869439 
L 144.947002 209.309388 
L 144.243693 209.805447 
L 143.716212 210.232888 
L 142.837076 210.557489 
L 142.661249 210.410422 
L 142.485422 209.483974 
L 141.95794 209.216645 
L 141.430459 209.277133 
L 141.078805 209.042059 
L 140.902978 208.83236 
L 140.551323 208.878821 
L 140.199669 208.431634 
L 138.968879 205.959736 
L 138.617225 204.485585 
L 137.913916 199.785708 
L 137.210608 193.721936 
L 135.979818 186.501912 
L 135.100682 185.280169 
L 134.749028 184.814309 
L 134.397373 184.634273 
L 134.045719 184.046096 
L 133.518238 182.492783 
L 132.814929 181.826516 
L 131.232485 180.668121 
L 131.056657 180.247024 
L 130.88083 180.303492 
L 129.122559 179.313428 
L 128.770905 178.48017 
L 128.41925 177.84169 
L 128.067596 177.307926 
L 127.715942 176.465286 
L 127.364287 175.858167 
L 126.836806 175.228175 
L 126.485152 174.724074 
L 126.133497 174.080948 
L 125.430189 173.65467 
L 123.49609 172.735101 
L 123.144436 172.683816 
L 122.441127 171.903898 
L 121.913646 171.900056 
L 121.737819 172.009686 
L 121.386165 171.794626 
L 120.682856 171.715285 
L 119.627893 172.151749 
L 119.100412 171.975108 
L 118.397103 171.973857 
L 117.869622 171.751202 
L 117.166313 171.813925 
L 116.990486 172.017102 
L 116.638832 172.063473 
L 115.935523 172.543361 
L 115.583869 172.643877 
L 114.704733 173.124926 
L 114.353079 173.230446 
L 113.473943 173.280749 
L 113.122289 173.22714 
L 112.594807 173.466056 
L 112.243153 173.932363 
L 112.067326 174.342023 
L 111.539845 174.780006 
L 110.836536 175.688049 
L 110.660709 175.679025 
L 109.078265 177.328208 
L 108.72661 177.609922 
L 107.671647 178.577649 
L 106.792512 179.425471 
L 105.03424 181.079657 
L 104.682586 181.538101 
L 104.330932 182.294878 
L 103.979277 182.580702 
L 103.451796 183.051208 
L 103.100142 183.901799 
L 101.869352 184.965933 
L 101.34187 185.321001 
L 100.638562 186.218769 
L 99.759426 187.381631 
L 99.583599 187.640025 
L 99.407772 188.438349 
L 98.88029 189.267586 
L 98.528636 189.819667 
L 98.176982 189.948596 
L 97.825327 190.391672 
L 97.122019 191.510218 
L 95.18792 194.797148 
L 94.836266 195.350926 
L 94.660439 195.324747 
L 92.902167 197.839354 
L 91.319723 201.608047 
L 89.913106 204.513462 
L 89.737279 204.543483 
L 89.03397 205.885041 
L 88.682316 206.369039 
L 88.154834 206.631007 
L 87.80318 207.26082 
L 87.451526 208.10757 
L 87.275699 208.221578 
L 86.396563 210.45733 
L 85.517427 212.445141 
L 85.165773 213.047971 
L 84.814119 213.371053 
L 83.934983 215.161049 
L 82.88002 217.359275 
L 82.704193 217.679408 
L 82.528366 228.631224 
L 82.000884 229.03052 
L 81.64923 229.26622 
L 81.473403 229.449472 
L 81.297576 230.409426 
L 80.945922 230.550596 
L 80.594267 230.528795 
L 80.242613 230.557118 
L 79.890959 230.516822 
L 79.011823 231.237591 
L 78.660169 231.270114 
L 77.253551 229.877806 
L 76.901897 229.381211 
L 76.72607 229.380585 
L 76.550243 229.191168 
L 76.198589 228.236843 
L 75.671107 226.719537 
L 74.440317 225.454729 
L 74.088663 225.38736 
L 73.209527 224.633086 
L 72.857873 224.67222 
L 72.506219 224.022929 
L 71.099601 220.193836 
L 70.923774 220.071876 
L 69.692984 218.097735 
L 69.517157 217.984084 
L 68.989676 218.397944 
L 68.813849 218.304128 
L 68.286367 217.509915 
L 67.934713 217.69969 
L 67.583059 217.161369 
L 67.055577 215.975544 
L 66.87975 215.853495 
L 66.87975 215.853495 
" clip-path="url(#p0f6daa3611)" style="fill: none; stroke: #4c72b0; stroke-width: 1.2; stroke-linecap: round"/>
   </g>
   <g id="patch_3">
    <path d="M 66.87975 248.937 
L 66.87975 27.177 
" style="fill: none; stroke: #cccccc; stroke-linejoin: miter; stroke-linecap: square"/>
   </g>
   <g id="patch_4">
    <path d="M 848.07975 248.937 
L 848.07975 27.177 
" style="fill: none; stroke: #cccccc; stroke-linejoin: miter; stroke-linecap: square"/>
   </g>
   <g id="patch_5">
    <path d="M 66.87975 248.937 
L 848.07975 248.937 
" style="fill: none; stroke: #cccccc; stroke-linejoin: miter; stroke-linecap: square"/>
   </g>
   <g id="patch_6">
    <path d="M 66.87975 27.177 
L 848.07975 27.177 
" style="fill: none; stroke: #cccccc; stroke-linejoin: miter; stroke-linecap: square"/>
   </g>
   <g id="text_14">
    <!-- German natural gas storage levels -->
    <g style="fill: #262626" transform="translate(310.74825 21.177) scale(0.192 -0.192)">
     <defs>
      <path id="ArialMT-6d" d="M 422 0 
L 422 3319 
L 925 3319 
L 925 2853 
Q 1081 3097 1340 3245 
Q 1600 3394 1931 3394 
Q 2300 3394 2536 3241 
Q 2772 3088 2869 2813 
Q 3263 3394 3894 3394 
Q 4388 3394 4653 3120 
Q 4919 2847 4919 2278 
L 4919 0 
L 4359 0 
L 4359 2091 
Q 4359 2428 4304 2576 
Q 4250 2725 4106 2815 
Q 3963 2906 3769 2906 
Q 3419 2906 3187 2673 
Q 2956 2441 2956 1928 
L 2956 0 
L 2394 0 
L 2394 2156 
Q 2394 2531 2256 2718 
Q 2119 2906 1806 2906 
Q 1569 2906 1367 2781 
Q 1166 2656 1075 2415 
Q 984 2175 984 1722 
L 984 0 
L 422 0 
z
" transform="scale(0.015625)"/>
      <path id="ArialMT-75" d="M 2597 0 
L 2597 488 
Q 2209 -75 1544 -75 
Q 1250 -75 995 37 
Q 741 150 617 320 
Q 494 491 444 738 
Q 409 903 409 1263 
L 409 3319 
L 972 3319 
L 972 1478 
Q 972 1038 1006 884 
Q 1059 663 1231 536 
Q 1403 409 1656 409 
Q 1909 409 2131 539 
Q 2353 669 2445 892 
Q 2538 1116 2538 1541 
L 2538 3319 
L 3100 3319 
L 3100 0 
L 2597 0 
z
" transform="scale(0.015625)"/>
      <path id="ArialMT-6c" d="M 409 0 
L 409 4581 
L 972 4581 
L 972 0 
L 409 0 
z
" transform="scale(0.015625)"/>
      <path id="ArialMT-76" d="M 1344 0 
L 81 3319 
L 675 3319 
L 1388 1331 
Q 1503 1009 1600 663 
Q 1675 925 1809 1294 
L 2547 3319 
L 3125 3319 
L 1869 0 
L 1344 0 
z
" transform="scale(0.015625)"/>
     </defs>
     <use xlink:href="#ArialMT-47"/>
     <use xlink:href="#ArialMT-65" x="77.783203"/>
     <use xlink:href="#ArialMT-72" x="133.398438"/>
     <use xlink:href="#ArialMT-6d" x="166.699219"/>
     <use xlink:href="#ArialMT-61" x="250"/>
     <use xlink:href="#ArialMT-6e" x="305.615234"/>
     <use xlink:href="#ArialMT-20" x="361.230469"/>
     <use xlink:href="#ArialMT-6e" x="389.013672"/>
     <use xlink:href="#ArialMT-61" x="444.628906"/>
     <use xlink:href="#ArialMT-74" x="500.244141"/>
     <use xlink:href="#ArialMT-75" x="528.027344"/>
     <use xlink:href="#ArialMT-72" x="583.642578"/>
     <use xlink:href="#ArialMT-61" x="616.943359"/>
     <use xlink:href="#ArialMT-6c" x="672.558594"/>
     <use xlink:href="#ArialMT-20" x="694.775391"/>
     <use xlink:href="#ArialMT-67" x="722.558594"/>
     <use xlink:href="#ArialMT-61" x="778.173828"/>
     <use xlink:href="#ArialMT-73" x="833.789062"/>
     <use xlink:href="#ArialMT-20" x="883.789062"/>
     <use xlink:href="#ArialMT-73" x="911.572266"/>
     <use xlink:href="#ArialMT-74" x="961.572266"/>
     <use xlink:href="#ArialMT-6f" x="989.355469"/>
     <use xlink:href="#ArialMT-72" x="1044.970703"/>
     <use xlink:href="#ArialMT-61" x="1078.271484"/>
     <use xlink:href="#ArialMT-67" x="1133.886719"/>
     <use xlink:href="#ArialMT-65" x="1189.501953"/>
     <use xlink:href="#ArialMT-20" x="1245.117188"/>
     <use xlink:href="#ArialMT-6c" x="1272.900391"/>
     <use xlink:href="#ArialMT-65" x="1295.117188"/>
     <use xlink:href="#ArialMT-76" x="1350.732422"/>
     <use xlink:href="#ArialMT-65" x="1400.732422"/>
     <use xlink:href="#ArialMT-6c" x="1456.347656"/>
     <use xlink:href="#ArialMT-73" x="1478.564453"/>
    </g>
   </g>
  </g>
 </g>
 <defs>
  <clipPath id="p0f6daa3611">
   <rect x="66.87975" y="27.177" width="781.2" height="221.76"/>
  </clipPath>
 </defs>
</svg>
