<?xml version="1.0" encoding="utf-8" standalone="no"?>
<!DOCTYPE svg PUBLIC "-//W3C//DTD SVG 1.1//EN"
  "http://www.w3.org/Graphics/SVG/1.1/DTD/svg11.dtd">
<svg xmlns:xlink="http://www.w3.org/1999/xlink" width="860.4275pt" height="280.53275pt" viewBox="0 0 860.4275 280.53275" xmlns="http://www.w3.org/2000/svg" version="1.1">
 <metadata>
  <rdf:RDF xmlns:dc="http://purl.org/dc/elements/1.1/" xmlns:cc="http://creativecommons.org/ns#" xmlns:rdf="http://www.w3.org/1999/02/22-rdf-syntax-ns#">
   <cc:Work>
    <dc:type rdf:resource="http://purl.org/dc/dcmitype/StillImage"/>
    <dc:date>2023-05-11T12:54:51.484174</dc:date>
    <dc:format>image/svg+xml</dc:format>
    <dc:creator>
     <cc:Agent>
      <dc:title>Matplotlib v3.7.1, https://matplotlib.org/</dc:title>
     </cc:Agent>
    </dc:creator>
   </cc:Work>
  </rdf:RDF>
 </metadata>
 <defs>
  <style type="text/css">*{stroke-linejoin: round; stroke-linecap: butt}</style>
 </defs>
 <g id="figure_1">
  <g id="patch_1">
   <path d="M 0 280.53275 
L 860.4275 280.53275 
L 860.4275 0 
L 0 0 
z
" style="fill: #ffffff"/>
  </g>
  <g id="axes_1">
   <g id="patch_2">
    <path d="M 72.0275 248.937 
L 853.2275 248.937 
L 853.2275 27.177 
L 72.0275 27.177 
z
" style="fill: #ffffff"/>
   </g>
   <g id="matplotlib.axis_1">
    <g id="xtick_1">
     <g id="line2d_1">
      <path d="M 72.0275 248.937 
L 72.0275 27.177 
" clip-path="url(#paa8ea5bb30)" style="fill: none; stroke: #cccccc; stroke-width: 0.8; stroke-linecap: round"/>
     </g>
    </g>
    <g id="xtick_2">
     <g id="line2d_2">
      <path d="M 103.521979 248.937 
L 103.521979 27.177 
" clip-path="url(#paa8ea5bb30)" style="fill: none; stroke: #cccccc; stroke-width: 0.8; stroke-linecap: round"/>
     </g>
     <g id="text_1">
      <!-- 2017 -->
      <g style="fill: #262626" transform="translate(83.947479 269.83475) scale(0.176 -0.176)">
       <defs>
        <path id="ArialMT-32" d="M 3222 541 
L 3222 0 
L 194 0 
Q 188 203 259 391 
Q 375 700 629 1000 
Q 884 1300 1366 1694 
Q 2113 2306 2375 2664 
Q 2638 3022 2638 3341 
Q 2638 3675 2398 3904 
Q 2159 4134 1775 4134 
Q 1369 4134 1125 3890 
Q 881 3647 878 3216 
L 300 3275 
Q 359 3922 746 4261 
Q 1134 4600 1788 4600 
Q 2447 4600 2831 4234 
Q 3216 3869 3216 3328 
Q 3216 3053 3103 2787 
Q 2991 2522 2730 2228 
Q 2469 1934 1863 1422 
Q 1356 997 1212 845 
Q 1069 694 975 541 
L 3222 541 
z
" transform="scale(0.015625)"/>
        <path id="ArialMT-30" d="M 266 2259 
Q 266 3072 433 3567 
Q 600 4063 929 4331 
Q 1259 4600 1759 4600 
Q 2128 4600 2406 4451 
Q 2684 4303 2865 4023 
Q 3047 3744 3150 3342 
Q 3253 2941 3253 2259 
Q 3253 1453 3087 958 
Q 2922 463 2592 192 
Q 2263 -78 1759 -78 
Q 1097 -78 719 397 
Q 266 969 266 2259 
z
M 844 2259 
Q 844 1131 1108 757 
Q 1372 384 1759 384 
Q 2147 384 2411 759 
Q 2675 1134 2675 2259 
Q 2675 3391 2411 3762 
Q 2147 4134 1753 4134 
Q 1366 4134 1134 3806 
Q 844 3388 844 2259 
z
" transform="scale(0.015625)"/>
        <path id="ArialMT-31" d="M 2384 0 
L 1822 0 
L 1822 3584 
Q 1619 3391 1289 3197 
Q 959 3003 697 2906 
L 697 3450 
Q 1169 3672 1522 3987 
Q 1875 4303 2022 4600 
L 2384 4600 
L 2384 0 
z
" transform="scale(0.015625)"/>
        <path id="ArialMT-37" d="M 303 3981 
L 303 4522 
L 3269 4522 
L 3269 4084 
Q 2831 3619 2401 2847 
Q 1972 2075 1738 1259 
Q 1569 684 1522 0 
L 944 0 
Q 953 541 1156 1306 
Q 1359 2072 1739 2783 
Q 2119 3494 2547 3981 
L 303 3981 
z
" transform="scale(0.015625)"/>
       </defs>
       <use xlink:href="#ArialMT-32"/>
       <use xlink:href="#ArialMT-30" x="55.615234"/>
       <use xlink:href="#ArialMT-31" x="111.230469"/>
       <use xlink:href="#ArialMT-37" x="166.845703"/>
      </g>
     </g>
    </g>
    <g id="xtick_3">
     <g id="line2d_3">
      <path d="M 228.472899 248.937 
L 228.472899 27.177 
" clip-path="url(#paa8ea5bb30)" style="fill: none; stroke: #cccccc; stroke-width: 0.8; stroke-linecap: round"/>
     </g>
     <g id="text_2">
      <!-- 2018 -->
      <g style="fill: #262626" transform="translate(208.898399 269.83475) scale(0.176 -0.176)">
       <defs>
        <path id="ArialMT-38" d="M 1131 2484 
Q 781 2613 612 2850 
Q 444 3088 444 3419 
Q 444 3919 803 4259 
Q 1163 4600 1759 4600 
Q 2359 4600 2725 4251 
Q 3091 3903 3091 3403 
Q 3091 3084 2923 2848 
Q 2756 2613 2416 2484 
Q 2838 2347 3058 2040 
Q 3278 1734 3278 1309 
Q 3278 722 2862 322 
Q 2447 -78 1769 -78 
Q 1091 -78 675 323 
Q 259 725 259 1325 
Q 259 1772 486 2073 
Q 713 2375 1131 2484 
z
M 1019 3438 
Q 1019 3113 1228 2906 
Q 1438 2700 1772 2700 
Q 2097 2700 2305 2904 
Q 2513 3109 2513 3406 
Q 2513 3716 2298 3927 
Q 2084 4138 1766 4138 
Q 1444 4138 1231 3931 
Q 1019 3725 1019 3438 
z
M 838 1322 
Q 838 1081 952 856 
Q 1066 631 1291 507 
Q 1516 384 1775 384 
Q 2178 384 2440 643 
Q 2703 903 2703 1303 
Q 2703 1709 2433 1975 
Q 2163 2241 1756 2241 
Q 1359 2241 1098 1978 
Q 838 1716 838 1322 
z
" transform="scale(0.015625)"/>
       </defs>
       <use xlink:href="#ArialMT-32"/>
       <use xlink:href="#ArialMT-30" x="55.615234"/>
       <use xlink:href="#ArialMT-31" x="111.230469"/>
       <use xlink:href="#ArialMT-38" x="166.845703"/>
      </g>
     </g>
    </g>
    <g id="xtick_4">
     <g id="line2d_4">
      <path d="M 353.423819 248.937 
L 353.423819 27.177 
" clip-path="url(#paa8ea5bb30)" style="fill: none; stroke: #cccccc; stroke-width: 0.8; stroke-linecap: round"/>
     </g>
     <g id="text_3">
      <!-- 2019 -->
      <g style="fill: #262626" transform="translate(333.849319 269.83475) scale(0.176 -0.176)">
       <defs>
        <path id="ArialMT-39" d="M 350 1059 
L 891 1109 
Q 959 728 1153 556 
Q 1347 384 1650 384 
Q 1909 384 2104 503 
Q 2300 622 2425 820 
Q 2550 1019 2634 1356 
Q 2719 1694 2719 2044 
Q 2719 2081 2716 2156 
Q 2547 1888 2255 1720 
Q 1963 1553 1622 1553 
Q 1053 1553 659 1965 
Q 266 2378 266 3053 
Q 266 3750 677 4175 
Q 1088 4600 1706 4600 
Q 2153 4600 2523 4359 
Q 2894 4119 3086 3673 
Q 3278 3228 3278 2384 
Q 3278 1506 3087 986 
Q 2897 466 2520 194 
Q 2144 -78 1638 -78 
Q 1100 -78 759 220 
Q 419 519 350 1059 
z
M 2653 3081 
Q 2653 3566 2395 3850 
Q 2138 4134 1775 4134 
Q 1400 4134 1122 3828 
Q 844 3522 844 3034 
Q 844 2597 1108 2323 
Q 1372 2050 1759 2050 
Q 2150 2050 2401 2323 
Q 2653 2597 2653 3081 
z
" transform="scale(0.015625)"/>
       </defs>
       <use xlink:href="#ArialMT-32"/>
       <use xlink:href="#ArialMT-30" x="55.615234"/>
       <use xlink:href="#ArialMT-31" x="111.230469"/>
       <use xlink:href="#ArialMT-39" x="166.845703"/>
      </g>
     </g>
    </g>
    <g id="xtick_5">
     <g id="line2d_5">
      <path d="M 478.374739 248.937 
L 478.374739 27.177 
" clip-path="url(#paa8ea5bb30)" style="fill: none; stroke: #cccccc; stroke-width: 0.8; stroke-linecap: round"/>
     </g>
     <g id="text_4">
      <!-- 2020 -->
      <g style="fill: #262626" transform="translate(458.800239 269.83475) scale(0.176 -0.176)">
       <use xlink:href="#ArialMT-32"/>
       <use xlink:href="#ArialMT-30" x="55.615234"/>
       <use xlink:href="#ArialMT-32" x="111.230469"/>
       <use xlink:href="#ArialMT-30" x="166.845703"/>
      </g>
     </g>
    </g>
    <g id="xtick_6">
     <g id="line2d_6">
      <path d="M 603.667991 248.937 
L 603.667991 27.177 
" clip-path="url(#paa8ea5bb30)" style="fill: none; stroke: #cccccc; stroke-width: 0.8; stroke-linecap: round"/>
     </g>
     <g id="text_5">
      <!-- 2021 -->
      <g style="fill: #262626" transform="translate(584.093491 269.83475) scale(0.176 -0.176)">
       <use xlink:href="#ArialMT-32"/>
       <use xlink:href="#ArialMT-30" x="55.615234"/>
       <use xlink:href="#ArialMT-32" x="111.230469"/>
       <use xlink:href="#ArialMT-31" x="166.845703"/>
      </g>
     </g>
    </g>
    <g id="xtick_7">
     <g id="line2d_7">
      <path d="M 728.618911 248.937 
L 728.618911 27.177 
" clip-path="url(#paa8ea5bb30)" style="fill: none; stroke: #cccccc; stroke-width: 0.8; stroke-linecap: round"/>
     </g>
     <g id="text_6">
      <!-- 2022 -->
      <g style="fill: #262626" transform="translate(709.044411 269.83475) scale(0.176 -0.176)">
       <use xlink:href="#ArialMT-32"/>
       <use xlink:href="#ArialMT-30" x="55.615234"/>
       <use xlink:href="#ArialMT-32" x="111.230469"/>
       <use xlink:href="#ArialMT-32" x="166.845703"/>
      </g>
     </g>
    </g>
    <g id="xtick_8">
     <g id="line2d_8">
      <path d="M 853.2275 248.937 
L 853.2275 27.177 
" clip-path="url(#paa8ea5bb30)" style="fill: none; stroke: #cccccc; stroke-width: 0.8; stroke-linecap: round"/>
     </g>
    </g>
    <g id="xtick_9"/>
    <g id="xtick_10"/>
    <g id="xtick_11"/>
    <g id="xtick_12"/>
    <g id="xtick_13"/>
    <g id="xtick_14"/>
    <g id="xtick_15"/>
    <g id="xtick_16"/>
    <g id="xtick_17"/>
    <g id="xtick_18"/>
    <g id="xtick_19"/>
    <g id="xtick_20"/>
    <g id="xtick_21"/>
    <g id="xtick_22"/>
    <g id="xtick_23"/>
    <g id="xtick_24"/>
    <g id="xtick_25"/>
    <g id="xtick_26"/>
   </g>
   <g id="matplotlib.axis_2">
    <g id="ytick_1">
     <g id="line2d_9">
      <path d="M 72.0275 225.116485 
L 853.2275 225.116485 
" clip-path="url(#paa8ea5bb30)" style="fill: none; stroke: #cccccc; stroke-width: 0.8; stroke-linecap: round"/>
     </g>
     <g id="text_7">
      <!-- −1.0 -->
      <g style="fill: #262626" transform="translate(28.984 231.41536) scale(0.176 -0.176)">
       <defs>
        <path id="ArialMT-2212" d="M 3381 1997 
L 356 1997 
L 356 2522 
L 3381 2522 
L 3381 1997 
z
" transform="scale(0.015625)"/>
        <path id="ArialMT-2e" d="M 581 0 
L 581 641 
L 1222 641 
L 1222 0 
L 581 0 
z
" transform="scale(0.015625)"/>
       </defs>
       <use xlink:href="#ArialMT-2212"/>
       <use xlink:href="#ArialMT-31" x="58.398438"/>
       <use xlink:href="#ArialMT-2e" x="114.013672"/>
       <use xlink:href="#ArialMT-30" x="141.796875"/>
      </g>
     </g>
    </g>
    <g id="ytick_2">
     <g id="line2d_10">
      <path d="M 72.0275 178.520267 
L 853.2275 178.520267 
" clip-path="url(#paa8ea5bb30)" style="fill: none; stroke: #cccccc; stroke-width: 0.8; stroke-linecap: round"/>
     </g>
     <g id="text_8">
      <!-- −0.5 -->
      <g style="fill: #262626" transform="translate(28.984 184.819142) scale(0.176 -0.176)">
       <defs>
        <path id="ArialMT-35" d="M 266 1200 
L 856 1250 
Q 922 819 1161 601 
Q 1400 384 1738 384 
Q 2144 384 2425 690 
Q 2706 997 2706 1503 
Q 2706 1984 2436 2262 
Q 2166 2541 1728 2541 
Q 1456 2541 1237 2417 
Q 1019 2294 894 2097 
L 366 2166 
L 809 4519 
L 3088 4519 
L 3088 3981 
L 1259 3981 
L 1013 2750 
Q 1425 3038 1878 3038 
Q 2478 3038 2890 2622 
Q 3303 2206 3303 1553 
Q 3303 931 2941 478 
Q 2500 -78 1738 -78 
Q 1113 -78 717 272 
Q 322 622 266 1200 
z
" transform="scale(0.015625)"/>
       </defs>
       <use xlink:href="#ArialMT-2212"/>
       <use xlink:href="#ArialMT-30" x="58.398438"/>
       <use xlink:href="#ArialMT-2e" x="114.013672"/>
       <use xlink:href="#ArialMT-35" x="141.796875"/>
      </g>
     </g>
    </g>
    <g id="ytick_3">
     <g id="line2d_11">
      <path d="M 72.0275 131.924049 
L 853.2275 131.924049 
" clip-path="url(#paa8ea5bb30)" style="fill: none; stroke: #cccccc; stroke-width: 0.8; stroke-linecap: round"/>
     </g>
     <g id="text_9">
      <!-- 0.0 -->
      <g style="fill: #262626" transform="translate(39.2635 138.222924) scale(0.176 -0.176)">
       <use xlink:href="#ArialMT-30"/>
       <use xlink:href="#ArialMT-2e" x="55.615234"/>
       <use xlink:href="#ArialMT-30" x="83.398438"/>
      </g>
     </g>
    </g>
    <g id="ytick_4">
     <g id="line2d_12">
      <path d="M 72.0275 85.327831 
L 853.2275 85.327831 
" clip-path="url(#paa8ea5bb30)" style="fill: none; stroke: #cccccc; stroke-width: 0.8; stroke-linecap: round"/>
     </g>
     <g id="text_10">
      <!-- 0.5 -->
      <g style="fill: #262626" transform="translate(39.2635 91.626706) scale(0.176 -0.176)">
       <use xlink:href="#ArialMT-30"/>
       <use xlink:href="#ArialMT-2e" x="55.615234"/>
       <use xlink:href="#ArialMT-35" x="83.398438"/>
      </g>
     </g>
    </g>
    <g id="ytick_5">
     <g id="line2d_13">
      <path d="M 72.0275 38.731613 
L 853.2275 38.731613 
" clip-path="url(#paa8ea5bb30)" style="fill: none; stroke: #cccccc; stroke-width: 0.8; stroke-linecap: round"/>
     </g>
     <g id="text_11">
      <!-- 1.0 -->
      <g style="fill: #262626" transform="translate(39.2635 45.030488) scale(0.176 -0.176)">
       <use xlink:href="#ArialMT-31"/>
       <use xlink:href="#ArialMT-2e" x="55.615234"/>
       <use xlink:href="#ArialMT-30" x="83.398438"/>
      </g>
     </g>
    </g>
    <g id="text_12">
     <!-- Natural gas consumption [MWh] -->
     <g style="fill: #262626" transform="translate(20.943 274.638) rotate(-90) scale(0.192 -0.192)">
      <defs>
       <path id="ArialMT-4e" d="M 488 0 
L 488 4581 
L 1109 4581 
L 3516 984 
L 3516 4581 
L 4097 4581 
L 4097 0 
L 3475 0 
L 1069 3600 
L 1069 0 
L 488 0 
z
" transform="scale(0.015625)"/>
       <path id="ArialMT-61" d="M 2588 409 
Q 2275 144 1986 34 
Q 1697 -75 1366 -75 
Q 819 -75 525 192 
Q 231 459 231 875 
Q 231 1119 342 1320 
Q 453 1522 633 1644 
Q 813 1766 1038 1828 
Q 1203 1872 1538 1913 
Q 2219 1994 2541 2106 
Q 2544 2222 2544 2253 
Q 2544 2597 2384 2738 
Q 2169 2928 1744 2928 
Q 1347 2928 1158 2789 
Q 969 2650 878 2297 
L 328 2372 
Q 403 2725 575 2942 
Q 747 3159 1072 3276 
Q 1397 3394 1825 3394 
Q 2250 3394 2515 3294 
Q 2781 3194 2906 3042 
Q 3031 2891 3081 2659 
Q 3109 2516 3109 2141 
L 3109 1391 
Q 3109 606 3145 398 
Q 3181 191 3288 0 
L 2700 0 
Q 2613 175 2588 409 
z
M 2541 1666 
Q 2234 1541 1622 1453 
Q 1275 1403 1131 1340 
Q 988 1278 909 1158 
Q 831 1038 831 891 
Q 831 666 1001 516 
Q 1172 366 1500 366 
Q 1825 366 2078 508 
Q 2331 650 2450 897 
Q 2541 1088 2541 1459 
L 2541 1666 
z
" transform="scale(0.015625)"/>
       <path id="ArialMT-74" d="M 1650 503 
L 1731 6 
Q 1494 -44 1306 -44 
Q 1000 -44 831 53 
Q 663 150 594 308 
Q 525 466 525 972 
L 525 2881 
L 113 2881 
L 113 3319 
L 525 3319 
L 525 4141 
L 1084 4478 
L 1084 3319 
L 1650 3319 
L 1650 2881 
L 1084 2881 
L 1084 941 
Q 1084 700 1114 631 
Q 1144 563 1211 522 
Q 1278 481 1403 481 
Q 1497 481 1650 503 
z
" transform="scale(0.015625)"/>
       <path id="ArialMT-75" d="M 2597 0 
L 2597 488 
Q 2209 -75 1544 -75 
Q 1250 -75 995 37 
Q 741 150 617 320 
Q 494 491 444 738 
Q 409 903 409 1263 
L 409 3319 
L 972 3319 
L 972 1478 
Q 972 1038 1006 884 
Q 1059 663 1231 536 
Q 1403 409 1656 409 
Q 1909 409 2131 539 
Q 2353 669 2445 892 
Q 2538 1116 2538 1541 
L 2538 3319 
L 3100 3319 
L 3100 0 
L 2597 0 
z
" transform="scale(0.015625)"/>
       <path id="ArialMT-72" d="M 416 0 
L 416 3319 
L 922 3319 
L 922 2816 
Q 1116 3169 1280 3281 
Q 1444 3394 1641 3394 
Q 1925 3394 2219 3213 
L 2025 2691 
Q 1819 2813 1613 2813 
Q 1428 2813 1281 2702 
Q 1134 2591 1072 2394 
Q 978 2094 978 1738 
L 978 0 
L 416 0 
z
" transform="scale(0.015625)"/>
       <path id="ArialMT-6c" d="M 409 0 
L 409 4581 
L 972 4581 
L 972 0 
L 409 0 
z
" transform="scale(0.015625)"/>
       <path id="ArialMT-20" transform="scale(0.015625)"/>
       <path id="ArialMT-67" d="M 319 -275 
L 866 -356 
Q 900 -609 1056 -725 
Q 1266 -881 1628 -881 
Q 2019 -881 2231 -725 
Q 2444 -569 2519 -288 
Q 2563 -116 2559 434 
Q 2191 0 1641 0 
Q 956 0 581 494 
Q 206 988 206 1678 
Q 206 2153 378 2554 
Q 550 2956 876 3175 
Q 1203 3394 1644 3394 
Q 2231 3394 2613 2919 
L 2613 3319 
L 3131 3319 
L 3131 450 
Q 3131 -325 2973 -648 
Q 2816 -972 2473 -1159 
Q 2131 -1347 1631 -1347 
Q 1038 -1347 672 -1080 
Q 306 -813 319 -275 
z
M 784 1719 
Q 784 1066 1043 766 
Q 1303 466 1694 466 
Q 2081 466 2343 764 
Q 2606 1063 2606 1700 
Q 2606 2309 2336 2618 
Q 2066 2928 1684 2928 
Q 1309 2928 1046 2623 
Q 784 2319 784 1719 
z
" transform="scale(0.015625)"/>
       <path id="ArialMT-73" d="M 197 991 
L 753 1078 
Q 800 744 1014 566 
Q 1228 388 1613 388 
Q 2000 388 2187 545 
Q 2375 703 2375 916 
Q 2375 1106 2209 1216 
Q 2094 1291 1634 1406 
Q 1016 1563 777 1677 
Q 538 1791 414 1992 
Q 291 2194 291 2438 
Q 291 2659 392 2848 
Q 494 3038 669 3163 
Q 800 3259 1026 3326 
Q 1253 3394 1513 3394 
Q 1903 3394 2198 3281 
Q 2494 3169 2634 2976 
Q 2775 2784 2828 2463 
L 2278 2388 
Q 2241 2644 2061 2787 
Q 1881 2931 1553 2931 
Q 1166 2931 1000 2803 
Q 834 2675 834 2503 
Q 834 2394 903 2306 
Q 972 2216 1119 2156 
Q 1203 2125 1616 2013 
Q 2213 1853 2448 1751 
Q 2684 1650 2818 1456 
Q 2953 1263 2953 975 
Q 2953 694 2789 445 
Q 2625 197 2315 61 
Q 2006 -75 1616 -75 
Q 969 -75 630 194 
Q 291 463 197 991 
z
" transform="scale(0.015625)"/>
       <path id="ArialMT-63" d="M 2588 1216 
L 3141 1144 
Q 3050 572 2676 248 
Q 2303 -75 1759 -75 
Q 1078 -75 664 370 
Q 250 816 250 1647 
Q 250 2184 428 2587 
Q 606 2991 970 3192 
Q 1334 3394 1763 3394 
Q 2303 3394 2647 3120 
Q 2991 2847 3088 2344 
L 2541 2259 
Q 2463 2594 2264 2762 
Q 2066 2931 1784 2931 
Q 1359 2931 1093 2626 
Q 828 2322 828 1663 
Q 828 994 1084 691 
Q 1341 388 1753 388 
Q 2084 388 2306 591 
Q 2528 794 2588 1216 
z
" transform="scale(0.015625)"/>
       <path id="ArialMT-6f" d="M 213 1659 
Q 213 2581 725 3025 
Q 1153 3394 1769 3394 
Q 2453 3394 2887 2945 
Q 3322 2497 3322 1706 
Q 3322 1066 3130 698 
Q 2938 331 2570 128 
Q 2203 -75 1769 -75 
Q 1072 -75 642 372 
Q 213 819 213 1659 
z
M 791 1659 
Q 791 1022 1069 705 
Q 1347 388 1769 388 
Q 2188 388 2466 706 
Q 2744 1025 2744 1678 
Q 2744 2294 2464 2611 
Q 2184 2928 1769 2928 
Q 1347 2928 1069 2612 
Q 791 2297 791 1659 
z
" transform="scale(0.015625)"/>
       <path id="ArialMT-6e" d="M 422 0 
L 422 3319 
L 928 3319 
L 928 2847 
Q 1294 3394 1984 3394 
Q 2284 3394 2536 3286 
Q 2788 3178 2913 3003 
Q 3038 2828 3088 2588 
Q 3119 2431 3119 2041 
L 3119 0 
L 2556 0 
L 2556 2019 
Q 2556 2363 2490 2533 
Q 2425 2703 2258 2804 
Q 2091 2906 1866 2906 
Q 1506 2906 1245 2678 
Q 984 2450 984 1813 
L 984 0 
L 422 0 
z
" transform="scale(0.015625)"/>
       <path id="ArialMT-6d" d="M 422 0 
L 422 3319 
L 925 3319 
L 925 2853 
Q 1081 3097 1340 3245 
Q 1600 3394 1931 3394 
Q 2300 3394 2536 3241 
Q 2772 3088 2869 2813 
Q 3263 3394 3894 3394 
Q 4388 3394 4653 3120 
Q 4919 2847 4919 2278 
L 4919 0 
L 4359 0 
L 4359 2091 
Q 4359 2428 4304 2576 
Q 4250 2725 4106 2815 
Q 3963 2906 3769 2906 
Q 3419 2906 3187 2673 
Q 2956 2441 2956 1928 
L 2956 0 
L 2394 0 
L 2394 2156 
Q 2394 2531 2256 2718 
Q 2119 2906 1806 2906 
Q 1569 2906 1367 2781 
Q 1166 2656 1075 2415 
Q 984 2175 984 1722 
L 984 0 
L 422 0 
z
" transform="scale(0.015625)"/>
       <path id="ArialMT-70" d="M 422 -1272 
L 422 3319 
L 934 3319 
L 934 2888 
Q 1116 3141 1344 3267 
Q 1572 3394 1897 3394 
Q 2322 3394 2647 3175 
Q 2972 2956 3137 2557 
Q 3303 2159 3303 1684 
Q 3303 1175 3120 767 
Q 2938 359 2589 142 
Q 2241 -75 1856 -75 
Q 1575 -75 1351 44 
Q 1128 163 984 344 
L 984 -1272 
L 422 -1272 
z
M 931 1641 
Q 931 1000 1190 694 
Q 1450 388 1819 388 
Q 2194 388 2461 705 
Q 2728 1022 2728 1688 
Q 2728 2322 2467 2637 
Q 2206 2953 1844 2953 
Q 1484 2953 1207 2617 
Q 931 2281 931 1641 
z
" transform="scale(0.015625)"/>
       <path id="ArialMT-69" d="M 425 3934 
L 425 4581 
L 988 4581 
L 988 3934 
L 425 3934 
z
M 425 0 
L 425 3319 
L 988 3319 
L 988 0 
L 425 0 
z
" transform="scale(0.015625)"/>
       <path id="ArialMT-5b" d="M 434 -1272 
L 434 4581 
L 1675 4581 
L 1675 4116 
L 997 4116 
L 997 -806 
L 1675 -806 
L 1675 -1272 
L 434 -1272 
z
" transform="scale(0.015625)"/>
       <path id="ArialMT-4d" d="M 475 0 
L 475 4581 
L 1388 4581 
L 2472 1338 
Q 2622 884 2691 659 
Q 2769 909 2934 1394 
L 4031 4581 
L 4847 4581 
L 4847 0 
L 4263 0 
L 4263 3834 
L 2931 0 
L 2384 0 
L 1059 3900 
L 1059 0 
L 475 0 
z
" transform="scale(0.015625)"/>
       <path id="ArialMT-57" d="M 1294 0 
L 78 4581 
L 700 4581 
L 1397 1578 
Q 1509 1106 1591 641 
Q 1766 1375 1797 1488 
L 2669 4581 
L 3400 4581 
L 4056 2263 
Q 4303 1400 4413 641 
Q 4500 1075 4641 1638 
L 5359 4581 
L 5969 4581 
L 4713 0 
L 4128 0 
L 3163 3491 
Q 3041 3928 3019 4028 
Q 2947 3713 2884 3491 
L 1913 0 
L 1294 0 
z
" transform="scale(0.015625)"/>
       <path id="ArialMT-68" d="M 422 0 
L 422 4581 
L 984 4581 
L 984 2938 
Q 1378 3394 1978 3394 
Q 2347 3394 2619 3248 
Q 2891 3103 3008 2847 
Q 3125 2591 3125 2103 
L 3125 0 
L 2563 0 
L 2563 2103 
Q 2563 2525 2380 2717 
Q 2197 2909 1863 2909 
Q 1613 2909 1392 2779 
Q 1172 2650 1078 2428 
Q 984 2206 984 1816 
L 984 0 
L 422 0 
z
" transform="scale(0.015625)"/>
       <path id="ArialMT-5d" d="M 1363 -1272 
L 122 -1272 
L 122 -806 
L 800 -806 
L 800 4116 
L 122 4116 
L 122 4581 
L 1363 4581 
L 1363 -1272 
z
" transform="scale(0.015625)"/>
      </defs>
      <use xlink:href="#ArialMT-4e"/>
      <use xlink:href="#ArialMT-61" x="72.216797"/>
      <use xlink:href="#ArialMT-74" x="127.832031"/>
      <use xlink:href="#ArialMT-75" x="155.615234"/>
      <use xlink:href="#ArialMT-72" x="211.230469"/>
      <use xlink:href="#ArialMT-61" x="244.53125"/>
      <use xlink:href="#ArialMT-6c" x="300.146484"/>
      <use xlink:href="#ArialMT-20" x="322.363281"/>
      <use xlink:href="#ArialMT-67" x="350.146484"/>
      <use xlink:href="#ArialMT-61" x="405.761719"/>
      <use xlink:href="#ArialMT-73" x="461.376953"/>
      <use xlink:href="#ArialMT-20" x="511.376953"/>
      <use xlink:href="#ArialMT-63" x="539.160156"/>
      <use xlink:href="#ArialMT-6f" x="589.160156"/>
      <use xlink:href="#ArialMT-6e" x="644.775391"/>
      <use xlink:href="#ArialMT-73" x="700.390625"/>
      <use xlink:href="#ArialMT-75" x="750.390625"/>
      <use xlink:href="#ArialMT-6d" x="806.005859"/>
      <use xlink:href="#ArialMT-70" x="889.306641"/>
      <use xlink:href="#ArialMT-74" x="944.921875"/>
      <use xlink:href="#ArialMT-69" x="972.705078"/>
      <use xlink:href="#ArialMT-6f" x="994.921875"/>
      <use xlink:href="#ArialMT-6e" x="1050.537109"/>
      <use xlink:href="#ArialMT-20" x="1106.152344"/>
      <use xlink:href="#ArialMT-5b" x="1133.935547"/>
      <use xlink:href="#ArialMT-4d" x="1161.71875"/>
      <use xlink:href="#ArialMT-57" x="1245.019531"/>
      <use xlink:href="#ArialMT-68" x="1339.404297"/>
      <use xlink:href="#ArialMT-5d" x="1395.019531"/>
     </g>
    </g>
    <g id="text_13">
     <!-- 1e6 -->
     <g style="fill: #262626" transform="translate(72.0275 24.177) scale(0.176 -0.176)">
      <defs>
       <path id="ArialMT-65" d="M 2694 1069 
L 3275 997 
Q 3138 488 2766 206 
Q 2394 -75 1816 -75 
Q 1088 -75 661 373 
Q 234 822 234 1631 
Q 234 2469 665 2931 
Q 1097 3394 1784 3394 
Q 2450 3394 2872 2941 
Q 3294 2488 3294 1666 
Q 3294 1616 3291 1516 
L 816 1516 
Q 847 969 1125 678 
Q 1403 388 1819 388 
Q 2128 388 2347 550 
Q 2566 713 2694 1069 
z
M 847 1978 
L 2700 1978 
Q 2663 2397 2488 2606 
Q 2219 2931 1791 2931 
Q 1403 2931 1139 2672 
Q 875 2413 847 1978 
z
" transform="scale(0.015625)"/>
       <path id="ArialMT-36" d="M 3184 3459 
L 2625 3416 
Q 2550 3747 2413 3897 
Q 2184 4138 1850 4138 
Q 1581 4138 1378 3988 
Q 1113 3794 959 3422 
Q 806 3050 800 2363 
Q 1003 2672 1297 2822 
Q 1591 2972 1913 2972 
Q 2475 2972 2870 2558 
Q 3266 2144 3266 1488 
Q 3266 1056 3080 686 
Q 2894 316 2569 119 
Q 2244 -78 1831 -78 
Q 1128 -78 684 439 
Q 241 956 241 2144 
Q 241 3472 731 4075 
Q 1159 4600 1884 4600 
Q 2425 4600 2770 4297 
Q 3116 3994 3184 3459 
z
M 888 1484 
Q 888 1194 1011 928 
Q 1134 663 1356 523 
Q 1578 384 1822 384 
Q 2178 384 2434 671 
Q 2691 959 2691 1453 
Q 2691 1928 2437 2201 
Q 2184 2475 1800 2475 
Q 1419 2475 1153 2201 
Q 888 1928 888 1484 
z
" transform="scale(0.015625)"/>
      </defs>
      <use xlink:href="#ArialMT-31"/>
      <use xlink:href="#ArialMT-65" x="55.615234"/>
      <use xlink:href="#ArialMT-36" x="111.230469"/>
     </g>
    </g>
   </g>
   <g id="line2d_14">
    <path d="M 72.0275 162.634172 
L 72.369831 174.496313 
L 72.712163 177.37247 
L 73.054494 149.672993 
L 73.396825 171.381456 
L 73.739156 147.884452 
L 74.081488 132.950131 
L 74.423819 173.011943 
L 74.76615 179.770779 
L 75.108482 142.850413 
L 75.450813 135.231405 
L 75.793144 135.098185 
L 76.135475 144.538647 
L 76.477807 138.643088 
L 76.820138 144.750628 
L 77.162469 143.862943 
L 77.504801 121.371162 
L 77.847132 115.49051 
L 78.189463 134.040835 
L 78.874126 141.500925 
L 79.216457 164.768972 
L 79.558788 163.205108 
L 79.90112 111.16313 
L 80.243451 98.732709 
L 80.585782 124.757859 
L 80.928113 124.657222 
L 81.270445 126.25715 
L 81.955107 171.291395 
L 82.297439 148.652404 
L 82.63977 153.699673 
L 82.982101 147.829559 
L 83.324433 151.278181 
L 83.666764 142.529562 
L 84.009095 149.896005 
L 84.351426 161.698494 
L 84.693758 129.698426 
L 85.036089 130.54296 
L 85.37842 121.409495 
L 85.720752 99.257289 
L 86.063083 114.250637 
L 86.405414 169.600252 
L 86.747745 161.405946 
L 87.432408 104.022744 
L 87.774739 81.989647 
L 88.117071 95.349147 
L 88.459402 117.635415 
L 88.801733 172.971025 
L 89.144064 152.492849 
L 89.486396 96.38217 
L 89.828727 101.522741 
L 90.171058 126.185751 
L 90.51339 135.028129 
L 90.855721 147.329623 
L 91.198052 167.339645 
L 91.540383 145.624778 
L 91.882715 139.291361 
L 92.225046 143.629897 
L 92.909709 78.928403 
L 93.25204 96.889477 
L 93.594371 177.197883 
L 93.936702 169.563801 
L 94.279034 116.80788 
L 94.621365 94.334913 
L 94.963696 95.648289 
L 95.306028 83.203481 
L 95.648359 88.827932 
L 95.99069 127.834294 
L 96.333021 141.110187 
L 96.675353 117.942772 
L 97.017684 122.798469 
L 97.360015 100.386576 
L 97.702347 122.450391 
L 98.044678 134.030683 
L 98.387009 157.85203 
L 99.071672 106.024267 
L 99.414003 130.966152 
L 99.756334 132.511636 
L 100.098666 129.528769 
L 100.440997 134.460685 
L 100.783328 157.246284 
L 101.12566 153.170355 
L 101.467991 161.374521 
L 101.810322 164.392016 
L 102.152653 146.612862 
L 102.494985 153.925661 
L 103.179647 185.432634 
L 103.521979 182.470487 
L 103.86431 127.70163 
L 104.548972 105.176801 
L 104.891304 132.012986 
L 105.233635 188.931424 
L 105.575966 179.731417 
L 105.918298 114.067343 
L 106.260629 76.236126 
L 106.945291 113.906072 
L 107.287623 87.30177 
L 107.972285 146.087545 
L 108.314617 141.0907 
L 108.656948 109.352335 
L 108.999279 108.087996 
L 109.34161 105.632253 
L 109.683942 108.931056 
L 110.026273 103.516309 
L 110.710936 150.387482 
L 111.395598 93.776147 
L 111.737929 83.781102 
L 112.080261 90.07962 
L 112.422592 108.966055 
L 112.764923 151.992748 
L 113.107255 133.288246 
L 113.449586 101.835807 
L 113.791917 95.188114 
L 114.134248 110.857036 
L 114.47658 116.610261 
L 114.818911 115.781752 
L 115.161242 142.314833 
L 115.503574 149.930817 
L 115.845905 117.741464 
L 116.188236 113.748694 
L 116.530567 111.387521 
L 116.872899 115.921516 
L 117.21523 114.39164 
L 117.557561 138.235144 
L 117.899893 136.548346 
L 118.242224 110.537652 
L 118.584555 104.117959 
L 118.926887 90.769414 
L 119.269218 92.932222 
L 119.611549 104.132251 
L 119.95388 147.357989 
L 120.296212 161.088962 
L 120.638543 104.896295 
L 120.980874 104.44377 
L 121.323206 114.750674 
L 121.665537 117.988816 
L 122.007868 153.870156 
L 122.350199 177.40562 
L 123.034862 98.377157 
L 123.377193 138.173848 
L 123.719525 145.253172 
L 124.061856 120.485059 
L 124.746518 126.273907 
L 125.08885 153.060349 
L 125.431181 133.479799 
L 126.115844 124.32065 
L 126.458175 102.838768 
L 126.800506 124.763393 
L 127.142837 164.325216 
L 127.485169 173.39136 
L 127.8275 133.700106 
L 128.169831 115.223939 
L 128.512163 109.333605 
L 128.854494 124.307644 
L 129.196825 130.314207 
L 129.539156 171.424043 
L 129.881488 161.283507 
L 130.223819 113.81887 
L 130.56615 126.652119 
L 130.908482 152.113577 
L 131.250813 131.366851 
L 131.593144 140.241735 
L 131.935475 174.528771 
L 132.277807 170.366087 
L 132.620138 123.84175 
L 132.962469 109.46995 
L 133.304801 121.141171 
L 133.647132 109.483361 
L 133.989463 107.002675 
L 134.331794 146.571051 
L 134.674126 165.910546 
L 135.016457 154.186218 
L 135.358788 160.523881 
L 135.70112 154.235221 
L 136.043451 154.002137 
L 136.385782 142.717541 
L 136.728113 151.144164 
L 137.070445 144.527614 
L 137.412776 128.020057 
L 137.755107 164.010157 
L 138.097439 143.834867 
L 138.43977 148.670876 
L 138.782101 178.738121 
L 139.124433 179.785105 
L 139.466764 202.341417 
L 139.809095 195.250221 
L 140.151426 164.581098 
L 140.493758 155.161473 
L 140.836089 141.673095 
L 141.17842 114.079378 
L 141.520752 161.721193 
L 141.863083 183.3355 
L 142.205414 136.024533 
L 142.547745 135.012656 
L 142.890077 148.093549 
L 143.232408 142.36538 
L 143.574739 143.310445 
L 143.917071 165.095536 
L 144.601733 163.094334 
L 145.286396 130.154759 
L 145.628727 142.48238 
L 146.31339 144.313848 
L 146.655721 146.198308 
L 146.998052 161.331342 
L 147.340383 170.778761 
L 148.025046 101.94956 
L 148.367377 103.001124 
L 148.709709 134.799448 
L 149.05204 145.689603 
L 149.736702 101.946179 
L 150.079034 113.265979 
L 150.421365 116.242561 
L 150.763696 122.281196 
L 151.106028 186.093496 
L 151.448359 162.527998 
L 151.79069 112.472066 
L 152.133021 95.578942 
L 152.475353 142.28601 
L 152.817684 155.927868 
L 153.160015 114.591593 
L 153.502347 145.532228 
L 153.844678 146.983777 
L 154.187009 118.704968 
L 154.52934 121.019461 
L 154.871672 100.110919 
L 155.214003 110.950365 
L 155.556334 126.667786 
L 155.898666 151.304929 
L 156.240997 165.065819 
L 156.583328 163.291459 
L 156.92566 140.469614 
L 157.267991 172.310126 
L 157.610322 125.188562 
L 157.952653 101.061097 
L 158.294985 133.184678 
L 158.637316 147.090934 
L 158.979647 126.477518 
L 159.321979 121.520087 
L 159.66431 107.217134 
L 160.006641 134.760547 
L 160.348972 120.931063 
L 160.691304 151.603288 
L 161.033635 144.44534 
L 161.375966 118.196755 
L 161.718298 119.551872 
L 162.060629 119.836529 
L 162.40296 122.239037 
L 162.745291 132.539984 
L 163.087623 153.566709 
L 163.429954 152.748868 
L 163.772285 116.337845 
L 164.114617 94.70784 
L 164.456948 116.688546 
L 164.799279 108.956051 
L 165.14161 127.888246 
L 165.483942 154.742565 
L 165.826273 152.520901 
L 166.168604 105.223928 
L 166.510936 91.99011 
L 166.853267 110.411791 
L 167.195598 109.288748 
L 167.537929 116.242678 
L 167.880261 143.946855 
L 168.222592 144.722019 
L 168.564923 115.450622 
L 168.907255 113.926442 
L 169.249586 113.399417 
L 169.591917 129.960205 
L 169.934248 123.336547 
L 170.27658 148.519826 
L 170.618911 125.461934 
L 170.961242 113.849789 
L 171.303574 118.183696 
L 171.645905 117.969637 
L 171.988236 119.259985 
L 172.330567 127.942149 
L 172.672899 152.624726 
L 173.01523 153.317778 
L 173.357561 131.742224 
L 173.699893 147.704847 
L 174.384555 108.025348 
L 174.726887 118.084673 
L 175.069218 150.877127 
L 175.411549 152.34001 
L 175.75388 128.872963 
L 176.438543 127.413667 
L 176.780874 132.190918 
L 177.123206 139.320452 
L 177.465537 153.485879 
L 177.807868 150.561088 
L 178.150199 110.216107 
L 178.492531 129.393787 
L 178.834862 132.316189 
L 179.177193 126.212982 
L 179.519525 150.482198 
L 179.861856 165.976648 
L 180.204187 137.669279 
L 180.546518 131.157464 
L 180.88885 134.094285 
L 181.231181 129.930429 
L 181.573512 130.812378 
L 181.915844 135.567084 
L 182.258175 161.470983 
L 182.600506 174.397141 
L 182.942837 146.217611 
L 183.285169 139.666367 
L 183.6275 116.740142 
L 184.312163 129.293449 
L 184.654494 149.911874 
L 184.996825 151.176166 
L 185.339156 124.552566 
L 185.681488 123.339095 
L 186.023819 121.165856 
L 186.36615 103.067557 
L 186.708482 157.941784 
L 187.050813 186.673328 
L 187.393144 184.555327 
L 188.077807 105.521129 
L 188.420138 115.713714 
L 188.762469 147.414559 
L 189.104801 148.235602 
L 189.447132 164.484251 
L 189.789463 170.438102 
L 190.131794 142.278748 
L 190.474126 149.450982 
L 190.816457 143.83422 
L 191.158788 156.970106 
L 191.50112 151.710666 
L 191.843451 186.848928 
L 192.185782 179.991196 
L 192.528113 143.193616 
L 192.870445 133.286731 
L 193.212776 131.821943 
L 193.555107 127.548444 
L 193.897439 132.725954 
L 194.23977 152.874731 
L 194.582101 147.770137 
L 194.924433 118.372355 
L 195.266764 114.355188 
L 195.609095 107.973998 
L 195.951426 103.948227 
L 196.293758 98.384638 
L 196.97842 178.729366 
L 197.320752 151.552197 
L 197.663083 160.388977 
L 198.347745 136.453005 
L 199.032408 171.263372 
L 199.374739 161.525777 
L 199.717071 134.113223 
L 200.401733 109.013692 
L 200.744064 119.136747 
L 201.086396 125.945751 
L 201.428727 128.02001 
L 201.771058 132.323159 
L 202.11339 101.026334 
L 202.455721 109.635794 
L 202.798052 129.509769 
L 203.140383 127.059862 
L 203.482715 127.040024 
L 204.167377 180.535077 
L 204.509709 143.577537 
L 205.194371 99.486238 
L 205.536702 119.010916 
L 206.221365 171.782566 
L 206.563696 175.98194 
L 206.906028 174.399134 
L 207.248359 167.332062 
L 207.59069 133.859414 
L 207.933021 117.44718 
L 208.275353 127.172533 
L 208.617684 168.543112 
L 209.302347 135.552353 
L 209.644678 126.306359 
L 209.987009 91.481189 
L 210.32934 103.287304 
L 210.671672 127.217527 
L 211.014003 162.336787 
L 211.356334 164.907083 
L 211.698666 119.821224 
L 212.040997 126.469176 
L 212.383328 97.896059 
L 212.72566 107.814803 
L 213.067991 127.336388 
L 213.410322 166.003489 
L 213.752653 159.325298 
L 214.437316 93.378943 
L 215.121979 111.241447 
L 215.46431 118.102514 
L 215.806641 174.077033 
L 216.148972 183.41281 
L 216.491304 125.282825 
L 216.833635 103.099115 
L 217.175966 100.3624 
L 217.518298 107.874494 
L 217.860629 108.218657 
L 218.20296 144.924403 
L 218.545291 152.168848 
L 218.887623 95.906711 
L 219.229954 84.392667 
L 219.572285 93.81718 
L 219.914617 116.696807 
L 220.256948 123.31676 
L 220.599279 166.950658 
L 220.94161 158.745816 
L 221.283942 79.584456 
L 221.626273 91.901458 
L 221.968604 115.682821 
L 222.310936 96.716848 
L 222.653267 105.519775 
L 222.995598 140.812706 
L 223.337929 144.502382 
L 223.680261 108.181803 
L 224.022592 88.50307 
L 224.364923 86.240672 
L 224.707255 95.150522 
L 225.391917 151.430608 
L 225.734248 166.025239 
L 226.07658 185.396173 
L 226.418911 191.570429 
L 226.761242 164.645638 
L 227.103574 159.056473 
L 227.445905 167.082209 
L 227.788236 152.083401 
L 228.130567 121.013992 
L 228.472899 162.012721 
L 228.81523 155.13682 
L 229.157561 131.885261 
L 229.499893 119.099498 
L 229.842224 114.814767 
L 230.184555 147.843848 
L 230.526887 168.611561 
L 231.211549 104.280969 
L 231.55388 100.233941 
L 231.896212 106.582621 
L 232.238543 115.904843 
L 232.580874 152.524727 
L 232.923206 157.736305 
L 233.265537 121.450862 
L 233.607868 98.045174 
L 233.950199 118.063079 
L 234.292531 106.53021 
L 234.634862 111.281302 
L 234.977193 143.779175 
L 235.319525 149.776043 
L 235.661856 111.315508 
L 236.346518 89.685637 
L 236.68885 105.094022 
L 237.031181 130.43069 
L 237.373512 164.48181 
L 237.715844 143.09937 
L 238.058175 104.294973 
L 238.400506 127.306914 
L 238.742837 122.207865 
L 239.085169 136.9456 
L 239.4275 133.935515 
L 239.769831 152.610499 
L 240.112163 155.626618 
L 240.454494 106.481481 
L 240.796825 110.032074 
L 241.139156 100.759474 
L 241.481488 105.378302 
L 241.823819 115.955592 
L 242.16615 132.369069 
L 242.508482 123.928541 
L 242.850813 108.491417 
L 243.193144 121.761367 
L 243.535475 129.818149 
L 244.220138 95.547932 
L 244.562469 142.533387 
L 244.904801 145.919208 
L 245.247132 109.213868 
L 245.931794 110.316804 
L 246.274126 113.915617 
L 246.616457 130.343848 
L 247.30112 177.024968 
L 247.643451 146.381622 
L 247.985782 150.431503 
L 248.328113 162.009864 
L 248.670445 131.495123 
L 249.012776 132.356386 
L 249.355107 146.649531 
L 249.697439 122.537655 
L 250.03977 77.255715 
L 250.382101 110.821657 
L 250.724433 114.828248 
L 251.066764 110.281623 
L 251.751426 131.826393 
L 252.093758 123.401578 
L 252.436089 129.221128 
L 253.120752 151.439649 
L 253.463083 141.461376 
L 253.805414 139.94422 
L 254.147745 198.455207 
L 254.490077 178.856486 
L 254.832408 122.737148 
L 255.174739 103.065247 
L 255.517071 103.468721 
L 255.859402 101.255497 
L 256.201733 104.215942 
L 256.544064 150.394131 
L 256.886396 143.815374 
L 257.228727 114.221248 
L 257.571058 123.869236 
L 257.91339 120.646747 
L 258.598052 156.851154 
L 258.940383 168.204181 
L 259.282715 184.816272 
L 259.625046 153.648658 
L 259.967377 74.152907 
L 260.309709 97.71706 
L 260.65204 147.908811 
L 260.994371 165.319072 
L 261.336702 128.65894 
L 261.679034 115.988352 
L 262.021365 115.105619 
L 262.363696 124.162221 
L 262.706028 154.014276 
L 263.048359 124.498747 
L 263.39069 142.336171 
L 263.733021 172.25672 
L 264.075353 156.690662 
L 264.417684 135.128429 
L 264.760015 128.975489 
L 265.102347 102.648217 
L 265.444678 89.182204 
L 265.787009 118.901797 
L 266.12934 133.860235 
L 266.471672 127.656598 
L 266.814003 124.965007 
L 267.156334 154.766093 
L 267.498666 145.912587 
L 267.840997 176.843785 
L 268.183328 153.972813 
L 268.52566 141.072903 
L 268.867991 123.969121 
L 269.210322 146.996435 
L 269.552653 201.46921 
L 270.237316 128.445788 
L 270.579647 134.602974 
L 270.921979 143.988181 
L 271.26431 132.425382 
L 271.606641 104.236642 
L 271.948972 92.987079 
L 272.633635 149.058561 
L 272.975966 159.463177 
L 273.318298 128.760511 
L 273.660629 121.945755 
L 274.00296 106.090496 
L 274.345291 133.256903 
L 275.372285 169.830776 
L 275.714617 172.344704 
L 276.056948 152.998436 
L 276.74161 104.434836 
L 277.083942 99.082324 
L 277.426273 106.238724 
L 278.110936 147.749884 
L 278.453267 149.817587 
L 278.795598 130.434139 
L 279.137929 129.019909 
L 279.480261 129.307867 
L 279.822592 143.539673 
L 280.164923 138.739835 
L 280.507255 150.777587 
L 280.849586 148.742318 
L 281.191917 127.872732 
L 281.534248 122.610702 
L 281.87658 126.351694 
L 282.218911 123.857778 
L 282.561242 126.885332 
L 282.903574 148.729813 
L 283.245905 151.740301 
L 283.588236 128.7639 
L 283.930567 126.930989 
L 284.272899 151.879354 
L 284.957561 107.311794 
L 285.299893 141.516887 
L 285.642224 116.079461 
L 285.984555 100.461347 
L 286.326887 121.910432 
L 286.669218 122.876462 
L 287.011549 107.118309 
L 287.35388 177.295929 
L 287.696212 182.939043 
L 288.038543 163.32367 
L 288.380874 119.892635 
L 289.065537 95.258891 
L 289.407868 121.342664 
L 289.750199 128.52999 
L 290.092531 147.976924 
L 290.777193 101.590352 
L 291.119525 124.498278 
L 291.461856 122.09279 
L 291.804187 125.946516 
L 292.146518 133.033984 
L 292.48885 151.173767 
L 292.831181 147.243727 
L 293.173512 125.049384 
L 293.515844 130.127273 
L 293.858175 127.722137 
L 294.200506 95.73727 
L 294.885169 145.643091 
L 295.2275 147.117144 
L 295.569831 126.086758 
L 295.912163 125.613156 
L 296.254494 127.752489 
L 296.596825 125.978333 
L 296.939156 129.003011 
L 297.281488 145.730518 
L 297.623819 149.108517 
L 297.96615 125.266898 
L 298.308482 121.154068 
L 298.650813 121.735527 
L 298.993144 124.444621 
L 299.335475 133.186187 
L 299.677807 153.140442 
L 300.020138 152.555257 
L 300.362469 125.230917 
L 300.704801 123.669188 
L 301.047132 123.063885 
L 301.389463 124.13952 
L 301.731794 127.491739 
L 302.074126 146.292206 
L 302.416457 150.23623 
L 302.758788 126.656286 
L 303.10112 124.731117 
L 303.443451 125.142689 
L 303.785782 129.421721 
L 304.128113 139.192622 
L 304.470445 139.782202 
L 304.812776 149.091548 
L 305.155107 128.084407 
L 305.497439 128.300287 
L 305.83977 129.630919 
L 306.182101 126.205726 
L 306.524433 127.877045 
L 306.866764 147.462574 
L 307.209095 144.803626 
L 307.551426 120.565881 
L 307.893758 116.282354 
L 308.236089 115.520325 
L 308.57842 117.851103 
L 308.920752 108.805583 
L 309.263083 187.315868 
L 309.605414 180.518829 
L 309.947745 118.236884 
L 310.290077 86.394806 
L 310.632408 111.314924 
L 310.974739 111.380324 
L 311.659402 161.505477 
L 312.001733 148.851098 
L 312.344064 111.951539 
L 313.028727 115.532545 
L 313.371058 116.056123 
L 313.71339 122.140883 
L 314.055721 158.838223 
L 314.740383 95.727874 
L 315.082715 122.165108 
L 315.425046 118.668415 
L 315.767377 122.818007 
L 316.109709 133.779317 
L 316.45204 155.127069 
L 316.794371 148.297436 
L 317.136702 94.972634 
L 317.479034 122.214501 
L 317.821365 123.225831 
L 318.163696 126.457099 
L 318.506028 113.64986 
L 318.848359 198.849424 
L 319.19069 190.559441 
L 319.533021 187.784582 
L 319.875353 178.891066 
L 320.217684 145.251307 
L 320.560015 98.247562 
L 321.244678 192.764403 
L 321.92934 157.614802 
L 322.271672 167.419079 
L 322.956334 130.488925 
L 323.298666 120.739728 
L 323.640997 130.133356 
L 323.983328 163.692595 
L 324.32566 150.239425 
L 324.667991 117.414836 
L 325.352653 92.670001 
L 325.694985 87.776039 
L 326.037316 113.630192 
L 326.379647 126.567535 
L 326.721979 103.08656 
L 327.06431 113.909125 
L 327.406641 119.691371 
L 328.091304 154.260418 
L 328.433635 179.476487 
L 328.775966 177.313241 
L 329.118298 152.76178 
L 329.460629 138.274059 
L 329.80296 112.114631 
L 330.145291 113.683467 
L 330.487623 138.433859 
L 330.829954 176.200637 
L 331.172285 194.736803 
L 331.514617 139.746134 
L 331.856948 107.694725 
L 332.199279 120.935573 
L 332.54161 138.890979 
L 332.883942 121.955765 
L 333.226273 158.423227 
L 333.568604 142.603084 
L 333.910936 91.940303 
L 334.595598 114.238826 
L 334.937929 116.913342 
L 335.280261 132.093982 
L 335.622592 159.090327 
L 335.964923 149.823297 
L 336.307255 117.977345 
L 336.991917 139.512218 
L 337.334248 136.34922 
L 337.67658 147.009226 
L 338.018911 172.264645 
L 338.361242 173.267532 
L 338.703574 118.796521 
L 339.388236 105.973889 
L 339.730567 94.019402 
L 340.072899 102.500289 
L 340.41523 130.516216 
L 340.757561 127.207674 
L 341.099893 90.565719 
L 341.784555 128.325248 
L 342.126887 120.473609 
L 342.469218 118.075765 
L 342.811549 143.926652 
L 343.15388 131.07755 
L 343.496212 85.596421 
L 344.180874 148.693506 
L 344.523206 109.96372 
L 344.865537 87.597719 
L 345.207868 158.349159 
L 345.550199 151.205579 
L 346.577193 95.535767 
L 346.919525 101.92105 
L 347.261856 102.772868 
L 347.604187 137.007587 
L 347.946518 140.227811 
L 348.28885 85.073774 
L 348.631181 79.474504 
L 348.973512 103.01434 
L 349.658175 113.150977 
L 350.685169 186.814158 
L 351.0275 179.108912 
L 351.369831 164.601998 
L 351.712163 134.554577 
L 352.054494 135.576774 
L 352.396825 150.394316 
L 352.739156 135.935688 
L 353.423819 149.539929 
L 354.108482 144.795633 
L 354.450813 127.966268 
L 354.793144 119.319618 
L 355.135475 134.269437 
L 355.477807 107.642739 
L 355.820138 106.225488 
L 356.162469 117.664857 
L 356.504801 101.540058 
L 356.847132 106.744287 
L 357.189463 121.413627 
L 357.531794 118.677348 
L 357.874126 107.854277 
L 358.216457 104.748021 
L 358.558788 93.603921 
L 358.90112 94.424233 
L 359.243451 121.987965 
L 359.585782 164.206735 
L 359.928113 162.367879 
L 360.270445 102.066167 
L 360.612776 101.716327 
L 360.955107 103.057372 
L 361.297439 87.528209 
L 361.63977 96.888404 
L 361.982101 101.015549 
L 362.666764 94.268027 
L 363.009095 99.040168 
L 363.351426 96.489944 
L 363.693758 94.8365 
L 364.036089 90.302811 
L 364.37842 117.826063 
L 364.720752 121.61757 
L 365.405414 91.702724 
L 365.747745 103.331782 
L 366.090077 109.619483 
L 366.432408 102.442145 
L 366.774739 124.696994 
L 367.117071 132.417883 
L 367.459402 117.70646 
L 367.801733 110.2602 
L 368.144064 93.550447 
L 368.486396 90.819162 
L 368.828727 104.425082 
L 369.171058 129.478611 
L 369.51339 139.054981 
L 369.855721 112.931687 
L 370.198052 120.119202 
L 370.540383 118.866063 
L 370.882715 107.457427 
L 371.225046 124.219436 
L 371.567377 186.31642 
L 371.909709 152.190831 
L 372.25204 101.316608 
L 372.594371 102.112914 
L 372.936702 110.93297 
L 373.279034 112.291848 
L 373.621365 135.278104 
L 373.963696 173.171405 
L 374.306028 136.067693 
L 374.648359 115.432322 
L 374.99069 143.536825 
L 375.333021 130.697603 
L 375.675353 108.987508 
L 376.017684 138.958681 
L 376.360015 155.593216 
L 377.044678 143.582078 
L 377.387009 121.617738 
L 377.72934 108.614007 
L 378.071672 118.080873 
L 378.414003 111.456126 
L 378.756334 136.592773 
L 379.098666 145.193493 
L 379.440997 142.764331 
L 380.12566 116.247959 
L 380.467991 97.549458 
L 380.810322 108.765667 
L 381.152653 154.251983 
L 381.494985 172.27971 
L 381.837316 158.049594 
L 382.521979 115.169751 
L 382.86431 104.321752 
L 383.206641 112.837823 
L 383.548972 153.688248 
L 383.891304 162.130812 
L 384.233635 152.67786 
L 384.575966 121.549109 
L 384.918298 105.093331 
L 385.260629 123.874085 
L 385.945291 139.134543 
L 386.287623 139.146269 
L 386.629954 132.056081 
L 386.972285 154.935199 
L 387.314617 160.556291 
L 387.656948 155.238863 
L 387.999279 152.857912 
L 388.34161 167.31325 
L 388.683942 152.810949 
L 389.026273 102.510769 
L 389.368604 106.968687 
L 389.710936 104.868537 
L 390.053267 114.818023 
L 390.737929 151.46948 
L 391.080261 161.894292 
L 391.422592 155.728366 
L 392.107255 106.405079 
L 392.449586 110.998019 
L 393.134248 193.853851 
L 393.47658 193.361956 
L 393.818911 156.113686 
L 394.161242 138.174259 
L 394.503574 161.554198 
L 394.845905 142.999119 
L 395.188236 162.656825 
L 395.530567 207.602312 
L 395.872899 194.933496 
L 396.21523 144.494058 
L 396.899893 120.759012 
L 397.242224 116.334519 
L 397.584555 132.106351 
L 397.926887 175.048249 
L 398.269218 180.150182 
L 398.611549 142.245341 
L 399.296212 152.116241 
L 399.638543 146.544106 
L 399.980874 127.92582 
L 400.665537 121.191393 
L 401.007868 118.051761 
L 401.350199 129.112914 
L 401.692531 145.431253 
L 402.377193 104.212967 
L 402.719525 150.898528 
L 403.061856 139.539354 
L 403.404187 109.870595 
L 403.746518 140.407888 
L 404.08885 154.81099 
L 404.431181 147.672461 
L 404.773512 98.760571 
L 405.115844 137.518216 
L 405.458175 143.685873 
L 405.800506 116.484298 
L 406.142837 120.276328 
L 406.485169 120.309641 
L 406.8275 109.290348 
L 407.169831 116.711621 
L 407.512163 155.553104 
L 407.854494 135.850548 
L 408.196825 138.77556 
L 408.539156 109.385788 
L 408.881488 93.084674 
L 409.223819 88.659436 
L 409.908482 138.625626 
L 410.593144 114.774763 
L 410.935475 114.302194 
L 411.277807 115.221696 
L 411.620138 127.296279 
L 411.962469 98.814628 
L 412.304801 143.772581 
L 412.647132 146.431473 
L 412.989463 119.49181 
L 413.331794 111.863024 
L 413.674126 114.803256 
L 414.358788 122.686045 
L 414.70112 145.542024 
L 415.043451 145.279708 
L 415.728113 93.675015 
L 416.070445 115.914612 
L 416.412776 106.360044 
L 416.755107 119.498801 
L 417.097439 147.312081 
L 417.43977 154.251425 
L 417.782101 138.128276 
L 418.124433 135.164526 
L 418.466764 110.363267 
L 418.809095 100.182818 
L 419.151426 105.396642 
L 419.493758 139.45415 
L 419.836089 152.020512 
L 420.17842 122.748132 
L 420.520752 114.121055 
L 420.863083 90.480463 
L 421.205414 105.784232 
L 421.547745 114.773197 
L 421.890077 142.537696 
L 422.232408 142.913583 
L 422.574739 116.472751 
L 423.259402 108.454174 
L 423.601733 112.053999 
L 423.944064 124.109612 
L 424.286396 151.144289 
L 424.628727 149.658364 
L 424.971058 120.374282 
L 425.31339 117.656602 
L 425.655721 119.743779 
L 425.998052 118.374115 
L 426.340383 123.952034 
L 426.682715 118.724864 
L 427.025046 146.200437 
L 427.367377 119.532504 
L 427.709709 121.18074 
L 428.05204 120.748939 
L 428.394371 124.818749 
L 428.736702 126.841141 
L 429.079034 156.170165 
L 429.421365 154.734154 
L 429.763696 104.337626 
L 430.106028 125.232352 
L 430.448359 124.093299 
L 430.79069 124.215157 
L 431.133021 109.619681 
L 431.475353 148.493029 
L 431.817684 147.825445 
L 432.160015 92.501013 
L 432.502347 107.261829 
L 432.844678 113.393926 
L 433.187009 92.439481 
L 433.871672 148.145874 
L 434.214003 145.352777 
L 434.556334 114.264705 
L 434.898666 112.171647 
L 435.240997 113.325546 
L 435.583328 115.045709 
L 435.92566 122.040877 
L 436.267991 147.510069 
L 436.610322 146.563125 
L 437.294985 123.127216 
L 437.637316 94.227089 
L 437.979647 128.948053 
L 438.66431 165.509633 
L 439.006641 166.342263 
L 439.348972 139.865078 
L 439.691304 131.779143 
L 440.033635 119.262363 
L 440.375966 84.588116 
L 440.718298 94.74587 
L 441.060629 152.976837 
L 441.745291 112.153747 
L 442.087623 140.346753 
L 442.429954 149.612822 
L 442.772285 148.559992 
L 443.456948 136.803435 
L 443.799279 116.992611 
L 444.14161 106.30019 
L 444.483942 109.83631 
L 445.168604 100.702446 
L 445.510936 111.208028 
L 445.853267 153.502322 
L 446.195598 143.653484 
L 446.537929 119.833032 
L 446.880261 110.186191 
L 447.222592 148.900988 
L 447.564923 171.176524 
L 447.907255 151.792362 
L 448.591917 172.978658 
L 449.27658 99.704702 
L 449.618911 104.420696 
L 449.961242 124.585869 
L 450.645905 115.403842 
L 451.330567 75.026481 
L 452.01523 124.008298 
L 452.357561 102.834522 
L 452.699893 113.166949 
L 453.042224 142.167186 
L 453.384555 127.514274 
L 453.726887 93.877101 
L 454.069218 110.07013 
L 454.411549 110.254857 
L 454.75388 100.169834 
L 455.096212 108.800591 
L 455.780874 156.199056 
L 456.465537 141.96135 
L 456.807868 147.896314 
L 457.150199 156.534488 
L 457.492531 152.895414 
L 457.834862 105.315 
L 458.177193 125.264595 
L 458.519525 108.249999 
L 458.861856 122.318496 
L 459.204187 118.028996 
L 459.546518 117.112314 
L 459.88885 125.618066 
L 460.231181 156.03727 
L 460.573512 173.510447 
L 461.258175 100.166507 
L 461.600506 97.013773 
L 461.942837 103.545804 
L 462.285169 106.281439 
L 462.6275 136.39461 
L 462.969831 139.819747 
L 463.312163 91.063034 
L 463.654494 93.017295 
L 463.996825 102.133687 
L 464.339156 83.944623 
L 464.681488 96.98427 
L 465.023819 128.610858 
L 465.36615 140.364584 
L 465.708482 111.948009 
L 466.050813 99.951375 
L 466.393144 107.307364 
L 466.735475 100.45322 
L 467.420138 172.627596 
L 467.762469 163.412372 
L 468.104801 91.839924 
L 468.447132 78.073094 
L 469.131794 115.026202 
L 469.474126 116.408517 
L 469.816457 99.848481 
L 470.158788 112.262394 
L 470.50112 103.788103 
L 470.843451 126.247489 
L 471.528113 101.811344 
L 471.870445 118.643019 
L 472.212776 121.428308 
L 472.555107 115.067902 
L 472.897439 93.24118 
L 473.23977 94.472789 
L 473.582101 103.972021 
L 473.924433 139.607826 
L 474.266764 136.375617 
L 474.609095 158.986074 
L 474.951426 168.531286 
L 475.293758 143.329548 
L 475.636089 160.437037 
L 475.97842 160.398347 
L 476.320752 173.944288 
L 476.663083 155.188621 
L 477.005414 178.172824 
L 477.347745 176.872947 
L 477.690077 119.08417 
L 478.032408 127.029121 
L 478.374739 168.654451 
L 478.717071 146.048719 
L 479.059402 107.656 
L 479.401733 124.741155 
L 479.744064 147.944775 
L 480.086396 115.677061 
L 480.428727 102.826681 
L 480.771058 83.118194 
L 481.11339 81.614332 
L 481.455721 95.411526 
L 481.798052 156.767607 
L 482.140383 158.750144 
L 482.482715 100.473718 
L 482.825046 98.099878 
L 483.167377 85.645647 
L 483.509709 102.428483 
L 484.194371 142.695001 
L 484.536702 140.916865 
L 484.879034 89.627231 
L 485.221365 94.878035 
L 485.906028 74.757051 
L 486.59069 126.097705 
L 486.933021 126.45719 
L 487.275353 69.4665 
L 487.960015 102.229199 
L 488.302347 95.966674 
L 488.644678 73.305964 
L 488.987009 113.767909 
L 489.32934 139.909941 
L 489.671672 112.294711 
L 490.014003 130.822816 
L 490.356334 117.179278 
L 490.698666 96.511139 
L 491.040997 99.598287 
L 491.383328 137.930678 
L 492.067991 93.856519 
L 492.410322 128.21917 
L 492.752653 116.61287 
L 493.094985 96.600672 
L 493.437316 87.771178 
L 493.779647 136.22373 
L 494.121979 98.61637 
L 494.46431 107.939737 
L 494.806641 125.309836 
L 495.491304 108.257224 
L 495.833635 117.142061 
L 496.175966 130.285866 
L 496.518298 119.867287 
L 496.860629 128.040625 
L 497.20296 102.95083 
L 497.545291 123.016627 
L 497.887623 105.730351 
L 498.229954 114.679254 
L 498.572285 117.700768 
L 498.914617 127.202926 
L 499.256948 98.118465 
L 499.94161 109.790162 
L 500.283942 97.904609 
L 500.626273 98.935019 
L 500.968604 140.853509 
L 501.310936 132.700973 
L 501.653267 96.688805 
L 501.995598 115.952155 
L 502.337929 86.201927 
L 502.680261 99.528722 
L 503.364923 172.934315 
L 503.707255 143.397386 
L 504.049586 95.836343 
L 504.734248 115.660248 
L 505.07658 113.216136 
L 505.418911 143.715487 
L 505.761242 199.057075 
L 506.103574 194.761902 
L 506.445905 154.961991 
L 506.788236 140.52692 
L 507.130567 131.43411 
L 507.472899 132.018852 
L 507.81523 112.048311 
L 508.157561 158.777558 
L 508.499893 189.052052 
L 508.842224 170.611747 
L 509.184555 143.073449 
L 509.869218 117.896892 
L 510.211549 126.226977 
L 510.55388 151.738229 
L 510.896212 142.298853 
L 511.238543 106.821761 
L 511.580874 118.718591 
L 511.923206 117.824234 
L 512.607868 182.421866 
L 512.950199 185.562944 
L 513.292531 153.784531 
L 513.634862 205.568781 
L 513.977193 204.914705 
L 514.661856 109.588636 
L 515.004187 121.44309 
L 515.68885 178.832226 
L 516.373512 144.725929 
L 517.058175 123.844875 
L 517.400506 143.829829 
L 517.742837 187.194306 
L 518.085169 177.079209 
L 518.4275 122.265461 
L 518.769831 127.507221 
L 519.112163 146.997672 
L 519.454494 157.672666 
L 519.796825 192.076423 
L 520.139156 202.364465 
L 520.481488 179.010376 
L 520.823819 143.957101 
L 521.16615 165.999991 
L 521.508482 150.561564 
L 521.850813 125.466424 
L 522.193144 109.898754 
L 522.877807 138.537134 
L 523.220138 202.597817 
L 523.562469 193.403784 
L 523.904801 147.157434 
L 524.247132 139.393976 
L 524.589463 147.174666 
L 524.931794 158.536992 
L 525.274126 152.207342 
L 525.616457 109.673473 
L 525.958788 95.984399 
L 526.643451 137.11383 
L 526.985782 115.898047 
L 527.328113 177.547645 
L 527.670445 194.481658 
L 528.012776 144.429237 
L 528.355107 131.595137 
L 528.697439 113.116818 
L 529.03977 132.203281 
L 529.382101 143.513644 
L 529.724433 172.54384 
L 530.066764 170.763975 
L 530.751426 109.913195 
L 531.093758 109.273217 
L 531.436089 130.147324 
L 531.77842 172.171671 
L 532.120752 181.427741 
L 532.463083 163.444788 
L 532.805414 115.387524 
L 533.147745 111.518196 
L 533.490077 112.561044 
L 533.832408 127.395384 
L 534.174739 124.704704 
L 534.517071 143.610195 
L 535.544064 78.439835 
L 535.886396 99.447456 
L 536.228727 86.506868 
L 536.571058 104.01604 
L 536.91339 130.759103 
L 537.255721 110.375404 
L 537.598052 105.385614 
L 537.940383 103.259567 
L 538.282715 104.19911 
L 538.625046 105.830107 
L 538.967377 115.995708 
L 539.309709 141.15042 
L 539.65204 143.958138 
L 539.994371 104.472067 
L 540.336702 103.390501 
L 540.679034 106.115245 
L 541.021365 101.545543 
L 541.363696 103.071752 
L 541.706028 150.477008 
L 542.048359 148.568152 
L 542.39069 124.518395 
L 542.733021 127.957268 
L 543.075353 118.81424 
L 543.417684 74.497508 
L 543.760015 78.746198 
L 544.102347 143.597013 
L 544.444678 138.789106 
L 544.787009 89.022298 
L 545.471672 109.895113 
L 545.814003 121.491134 
L 546.156334 104.545281 
L 546.498666 129.086364 
L 546.840997 132.824386 
L 547.52566 92.534969 
L 547.867991 92.896768 
L 548.210322 109.008132 
L 548.552653 116.557461 
L 548.894985 135.155391 
L 549.237316 141.885644 
L 549.579647 118.934484 
L 549.921979 119.678411 
L 550.26431 119.303641 
L 550.606641 113.179259 
L 550.948972 121.041066 
L 551.291304 137.731107 
L 551.633635 137.327021 
L 551.975966 110.820396 
L 552.318298 117.467234 
L 553.00296 110.597675 
L 553.345291 115.242661 
L 553.687623 132.456409 
L 554.029954 135.610052 
L 554.372285 117.278521 
L 554.714617 116.488698 
L 555.056948 116.994172 
L 555.399279 118.669484 
L 555.74161 121.53368 
L 556.083942 134.751105 
L 556.426273 136.332564 
L 556.768604 115.451329 
L 557.110936 113.405137 
L 557.453267 112.774358 
L 557.795598 111.700697 
L 558.137929 121.97798 
L 558.480261 152.055383 
L 558.822592 120.123214 
L 559.507255 104.484402 
L 559.849586 127.367604 
L 560.191917 107.731903 
L 560.534248 108.482759 
L 560.87658 137.80676 
L 561.218911 143.979662 
L 561.561242 121.907685 
L 561.903574 126.396697 
L 562.245905 127.395298 
L 562.588236 115.269378 
L 562.930567 108.387151 
L 563.61523 164.184323 
L 564.299893 106.499951 
L 564.642224 79.265598 
L 564.984555 111.442841 
L 565.326887 112.755047 
L 565.669218 122.101329 
L 566.011549 110.42676 
L 566.35388 108.253496 
L 566.696212 104.467617 
L 567.038543 110.33872 
L 567.723206 143.980171 
L 568.065537 148.135525 
L 568.407868 136.2835 
L 568.750199 101.167471 
L 569.092531 84.093787 
L 569.434862 87.752301 
L 569.777193 107.027324 
L 570.461856 210.099635 
L 570.804187 181.187357 
L 571.146518 132.299901 
L 571.48885 118.865355 
L 571.831181 111.512154 
L 572.173512 113.325592 
L 572.515844 115.968561 
L 573.200506 167.831168 
L 573.542837 130.178556 
L 574.2275 118.093146 
L 574.569831 116.412256 
L 574.912163 104.48898 
L 575.254494 172.107184 
L 575.596825 181.151409 
L 575.939156 124.346471 
L 576.281488 120.885781 
L 576.623819 122.29036 
L 576.96615 101.163777 
L 577.308482 108.497229 
L 577.650813 145.925303 
L 577.993144 150.944879 
L 578.335475 110.077925 
L 578.677807 126.17012 
L 579.020138 94.309464 
L 579.362469 76.653378 
L 579.704801 101.765488 
L 580.047132 139.139822 
L 580.389463 150.821103 
L 580.731794 129.732798 
L 581.074126 136.570973 
L 581.416457 117.875721 
L 581.758788 122.365285 
L 582.10112 109.155064 
L 582.443451 129.755498 
L 582.785782 136.729915 
L 583.128113 68.589136 
L 583.470445 120.780333 
L 583.812776 139.853953 
L 584.155107 133.065425 
L 584.497439 115.513265 
L 584.83977 145.84047 
L 585.182101 149.136138 
L 585.524433 113.748973 
L 585.866764 117.097324 
L 586.209095 107.784302 
L 586.551426 102.572294 
L 587.236089 118.00631 
L 587.57842 138.864523 
L 587.920752 115.658845 
L 588.263083 107.108262 
L 588.605414 110.412652 
L 588.947745 119.776129 
L 589.290077 135.579301 
L 589.632408 171.884031 
L 590.317071 88.468823 
L 590.659402 101.113246 
L 591.001733 105.307314 
L 591.344064 86.8654 
L 591.686396 98.010651 
L 592.028727 135.707664 
L 592.371058 124.730707 
L 593.055721 71.783826 
L 593.398052 78.30469 
L 593.740383 97.443779 
L 594.082715 89.616393 
L 594.425046 106.848032 
L 594.767377 94.295062 
L 595.109709 64.423756 
L 595.45204 74.342692 
L 595.794371 72.17125 
L 596.136702 77.737535 
L 596.479034 86.077934 
L 596.821365 102.962968 
L 597.163696 103.240985 
L 597.506028 83.724544 
L 597.848359 83.352275 
L 598.19069 88.042726 
L 598.533021 99.30411 
L 598.875353 120.089466 
L 599.217684 153.352602 
L 599.560015 145.453217 
L 599.902347 127.806717 
L 600.244678 90.605835 
L 600.587009 113.739287 
L 600.92934 171.318624 
L 601.271672 190.49289 
L 601.614003 187.386127 
L 601.956334 172.336277 
L 602.298666 122.049071 
L 602.640997 120.170848 
L 602.983328 122.946225 
L 603.32566 139.921012 
L 603.667991 145.390737 
L 604.010322 134.889237 
L 604.352653 134.806119 
L 604.694985 94.792591 
L 605.037316 82.895803 
L 605.379647 84.806748 
L 605.721979 76.479259 
L 606.06431 81.169194 
L 606.406641 111.028048 
L 606.748972 122.544517 
L 607.091304 105.957854 
L 607.433635 80.687102 
L 607.775966 84.189663 
L 608.118298 64.013213 
L 608.460629 81.615782 
L 608.80296 119.438947 
L 609.145291 119.199652 
L 609.487623 68.441243 
L 609.829954 78.357913 
L 610.172285 79.583501 
L 610.514617 79.063487 
L 610.856948 89.810918 
L 611.199279 148.775013 
L 611.54161 136.551416 
L 611.883942 93.133799 
L 612.226273 80.423944 
L 612.568604 82.827937 
L 612.910936 69.074859 
L 613.253267 91.472077 
L 613.595598 133.037664 
L 613.937929 160.780454 
L 614.280261 87.558313 
L 614.622592 63.982281 
L 614.964923 60.895623 
L 615.991917 144.30592 
L 616.334248 156.031391 
L 616.67658 111.158859 
L 617.018911 106.518896 
L 617.361242 85.971088 
L 617.703574 75.418421 
L 618.045905 96.333285 
L 618.388236 133.609085 
L 618.730567 132.235037 
L 619.072899 68.7256 
L 619.41523 37.257 
L 619.757561 48.853109 
L 620.099893 77.698858 
L 620.442224 94.101692 
L 620.784555 123.663116 
L 621.126887 121.040762 
L 621.469218 111.143907 
L 621.811549 97.394734 
L 622.15388 92.697341 
L 622.496212 98.193607 
L 623.180874 174.835174 
L 623.523206 160.884012 
L 623.865537 104.490559 
L 624.207868 98.137454 
L 624.550199 97.11975 
L 624.892531 100.77362 
L 625.577193 156.457847 
L 625.919525 132.651703 
L 626.261856 94.463732 
L 626.604187 93.440386 
L 626.946518 97.868782 
L 627.28885 84.073291 
L 627.973512 147.105229 
L 628.315844 153.656328 
L 628.658175 112.430449 
L 629.000506 100.312594 
L 629.342837 103.217146 
L 629.685169 100.59597 
L 630.0275 112.426081 
L 630.369831 148.371977 
L 631.054494 76.455176 
L 631.396825 80.390817 
L 632.081488 84.966334 
L 632.423819 102.517182 
L 632.76615 170.604653 
L 633.108482 150.617705 
L 633.450813 77.298554 
L 633.793144 76.509407 
L 634.135475 80.235044 
L 634.477807 122.358482 
L 634.820138 204.698352 
L 635.504801 194.698893 
L 635.847132 179.297533 
L 636.874126 101.409793 
L 637.216457 80.642797 
L 637.558788 112.13105 
L 637.90112 117.927212 
L 638.243451 133.93257 
L 638.585782 126.752964 
L 638.928113 110.092564 
L 639.270445 106.449238 
L 639.612776 106.068917 
L 639.955107 127.842745 
L 640.297439 124.2448 
L 640.63977 103.185469 
L 640.982101 103.726716 
L 641.666764 142.663346 
L 642.009095 138.042981 
L 642.351426 157.112825 
L 642.693758 164.83529 
L 643.720752 100.91189 
L 644.063083 120.469198 
L 644.747745 172.530699 
L 645.090077 174.802339 
L 645.774739 121.652463 
L 646.117071 144.799594 
L 646.459402 135.515208 
L 646.801733 144.230371 
L 647.144064 148.124355 
L 647.486396 94.954146 
L 647.828727 87.448209 
L 648.171058 111.119559 
L 648.51339 150.090781 
L 648.855721 171.666337 
L 649.198052 155.870416 
L 649.540383 168.51751 
L 649.882715 160.951759 
L 650.225046 135.929025 
L 650.909709 138.310019 
L 651.25204 129.828305 
L 651.594371 132.928095 
L 651.936702 175.066678 
L 652.279034 183.311402 
L 652.621365 149.908148 
L 652.963696 155.117513 
L 653.306028 149.104999 
L 653.648359 139.14885 
L 653.99069 132.517949 
L 654.333021 159.279157 
L 654.675353 153.841401 
L 655.017684 120.31281 
L 655.702347 88.814027 
L 656.044678 127.468231 
L 656.387009 125.262608 
L 656.72934 143.324715 
L 657.071672 133.710358 
L 657.414003 86.859299 
L 657.756334 102.45374 
L 658.098666 104.646327 
L 658.440997 107.815565 
L 658.783328 121.379781 
L 659.12566 149.004144 
L 659.467991 154.347414 
L 659.810322 120.490938 
L 660.152653 110.256678 
L 660.494985 111.053731 
L 660.837316 111.327733 
L 661.179647 118.292023 
L 661.521979 145.13747 
L 661.86431 148.784662 
L 662.548972 108.293913 
L 662.891304 93.27014 
L 663.233635 95.584339 
L 663.575966 100.788066 
L 663.918298 142.415881 
L 664.260629 145.539135 
L 664.60296 113.000097 
L 664.945291 109.536749 
L 665.287623 109.096562 
L 665.629954 124.843488 
L 665.972285 108.278884 
L 666.314617 141.734042 
L 666.656948 142.475053 
L 666.999279 94.147396 
L 667.34161 124.767174 
L 667.683942 110.711327 
L 668.026273 81.847855 
L 668.368604 112.713896 
L 668.710936 117.13442 
L 669.053267 140.92979 
L 669.395598 115.709075 
L 669.737929 112.309718 
L 670.080261 89.01694 
L 670.422592 116.293365 
L 670.764923 126.63073 
L 671.107255 150.254537 
L 671.449586 150.051891 
L 671.791917 102.934587 
L 672.134248 108.925928 
L 672.47658 97.144731 
L 672.818911 120.615536 
L 673.161242 129.762417 
L 673.503574 152.231751 
L 673.845905 150.959698 
L 674.188236 127.129606 
L 674.530567 128.050436 
L 674.872899 136.556657 
L 675.557561 141.417784 
L 675.899893 127.756455 
L 676.242224 156.171825 
L 676.584555 142.17951 
L 676.926887 136.305738 
L 677.269218 123.126571 
L 677.611549 116.726841 
L 677.95388 121.927199 
L 678.638543 147.779566 
L 678.980874 127.117632 
L 679.323206 114.669218 
L 679.665537 129.132205 
L 680.007868 129.990972 
L 680.350199 138.820242 
L 680.692531 154.270191 
L 681.034862 154.87542 
L 681.377193 129.191762 
L 681.719525 165.271407 
L 682.404187 114.398732 
L 682.746518 114.678567 
L 683.08885 149.746449 
L 683.431181 137.447931 
L 683.773512 133.510435 
L 684.115844 144.659138 
L 684.458175 145.093338 
L 684.800506 149.605149 
L 685.485169 172.208102 
L 685.8275 165.028592 
L 686.169831 129.804302 
L 686.512163 126.048459 
L 686.854494 127.80238 
L 687.196825 127.401198 
L 687.539156 123.960402 
L 687.881488 152.478606 
L 688.223819 149.118279 
L 688.56615 112.329487 
L 689.250813 96.233608 
L 689.593144 117.519792 
L 689.935475 122.564046 
L 690.277807 118.844178 
L 690.620138 135.992283 
L 690.962469 122.389195 
L 691.304801 96.406537 
L 691.647132 85.821234 
L 692.674126 171.917805 
L 693.016457 185.61694 
L 693.358788 154.9332 
L 693.70112 152.111639 
L 694.385782 130.907107 
L 694.728113 127.013666 
L 695.070445 128.930187 
L 695.755107 106.221893 
L 696.097439 142.580406 
L 696.782101 171.333683 
L 697.124433 152.28441 
L 697.466764 144.224907 
L 697.809095 115.713428 
L 698.151426 145.577739 
L 698.493758 152.898034 
L 699.17842 140.807663 
L 699.520752 147.731668 
L 699.863083 189.2902 
L 700.205414 200.326382 
L 700.547745 155.776314 
L 700.890077 142.991196 
L 701.232408 147.385801 
L 701.574739 130.624524 
L 701.917071 139.613472 
L 702.259402 179.329516 
L 702.601733 171.069512 
L 702.944064 134.369622 
L 703.628727 96.195058 
L 704.31339 180.236319 
L 704.655721 181.113583 
L 704.998052 178.405198 
L 705.340383 133.22264 
L 705.682715 108.449342 
L 706.025046 115.236575 
L 706.709709 155.031339 
L 707.05204 161.522012 
L 707.394371 132.845941 
L 707.736702 150.070112 
L 708.079034 134.998827 
L 708.763696 118.983064 
L 709.106028 119.465227 
L 709.448359 155.63325 
L 709.79069 153.214583 
L 710.133021 105.757696 
L 710.475353 115.034136 
L 710.817684 117.234308 
L 711.160015 110.933993 
L 711.502347 119.987465 
L 711.844678 140.333849 
L 712.187009 125.532507 
L 712.52934 98.515834 
L 712.871672 106.796145 
L 713.214003 120.073855 
L 713.556334 111.514165 
L 713.898666 107.241546 
L 714.240997 138.52766 
L 714.583328 154.742226 
L 714.92566 125.142805 
L 715.610322 86.619164 
L 716.294985 112.898876 
L 716.637316 132.793301 
L 716.979647 138.5702 
L 717.321979 97.618305 
L 717.66431 98.138597 
L 718.006641 86.678427 
L 718.348972 102.578246 
L 718.691304 132.619352 
L 719.033635 132.777649 
L 719.375966 127.26378 
L 719.718298 101.000786 
L 720.060629 100.32506 
L 720.745291 94.110934 
L 721.087623 102.816213 
L 721.429954 137.345752 
L 721.772285 131.759728 
L 722.114617 69.062953 
L 722.456948 83.319601 
L 723.14161 92.747823 
L 723.483942 118.887855 
L 723.826273 155.226424 
L 724.168604 153.362697 
L 724.510936 120.048137 
L 725.195598 141.137265 
L 725.537929 142.699134 
L 725.880261 118.494444 
L 726.222592 191.226328 
L 726.564923 209.206364 
L 726.907255 146.453204 
L 727.249586 130.289943 
L 727.591917 126.54975 
L 727.934248 112.854908 
L 728.618911 154.540253 
L 728.961242 161.697119 
L 729.303574 128.354893 
L 729.645905 124.808543 
L 729.988236 153.591663 
L 730.330567 139.676499 
L 730.672899 138.802991 
L 731.01523 149.82546 
L 731.357561 127.321787 
L 731.699893 80.963192 
L 732.042224 91.579883 
L 732.384555 89.092884 
L 733.069218 86.28301 
L 733.411549 131.931449 
L 733.75388 145.136761 
L 734.096212 85.744706 
L 734.438543 76.575814 
L 734.780874 109.304148 
L 735.123206 109.207173 
L 735.465537 116.167673 
L 735.807868 108.027069 
L 736.150199 108.559668 
L 736.492531 77.658897 
L 736.834862 88.795598 
L 737.177193 103.845853 
L 737.861856 96.247325 
L 738.204187 126.418881 
L 738.546518 131.176853 
L 738.88885 112.606759 
L 739.231181 110.131391 
L 739.573512 89.053873 
L 739.915844 94.236867 
L 740.258175 110.387675 
L 740.600506 154.97699 
L 741.285169 119.706673 
L 741.969831 87.962636 
L 742.312163 100.651461 
L 742.654494 125.281043 
L 742.996825 166.811724 
L 743.339156 141.358897 
L 743.681488 85.610771 
L 744.023819 102.324107 
L 744.36615 102.690462 
L 744.708482 99.130853 
L 745.050813 114.651517 
L 745.393144 161.631007 
L 745.735475 147.63551 
L 746.077807 121.017109 
L 746.420138 112.34556 
L 746.762469 97.460561 
L 747.104801 107.885048 
L 747.447132 138.777856 
L 747.789463 150.244325 
L 748.131794 156.10151 
L 748.474126 126.298132 
L 748.816457 112.66103 
L 749.158788 112.100885 
L 749.50112 128.847778 
L 749.843451 134.929375 
L 750.185782 162.021528 
L 750.528113 157.496132 
L 750.870445 115.375798 
L 751.212776 117.648779 
L 751.555107 113.760572 
L 751.897439 121.709089 
L 752.23977 145.656857 
L 752.582101 157.549187 
L 752.924433 153.640964 
L 753.266764 117.0736 
L 753.609095 118.190595 
L 753.951426 139.464858 
L 754.293758 122.346074 
L 754.636089 137.673344 
L 754.97842 176.174395 
L 755.320752 154.656872 
L 755.663083 119.425173 
L 756.005414 115.743205 
L 756.347745 119.784241 
L 756.690077 126.335922 
L 757.032408 141.286352 
L 757.374739 168.470248 
L 757.717071 159.955063 
L 758.059402 133.995318 
L 758.401733 135.211858 
L 759.086396 163.024441 
L 759.771058 183.816771 
L 760.11339 173.723214 
L 760.455721 135.984903 
L 760.798052 113.325157 
L 761.140383 106.557171 
L 761.482715 119.755816 
L 762.167377 195.694797 
L 762.509709 181.82768 
L 762.85204 135.759107 
L 763.536702 89.509852 
L 763.879034 130.01957 
L 764.221365 189.10274 
L 764.563696 215.201249 
L 764.906028 207.869882 
L 765.59069 156.314954 
L 765.933021 163.830798 
L 766.275353 159.145201 
L 766.617684 161.253779 
L 766.960015 180.727632 
L 767.302347 189.484787 
L 767.644678 156.45405 
L 768.32934 144.374138 
L 769.014003 149.99678 
L 769.356334 185.129202 
L 769.698666 181.75153 
L 770.040997 135.554544 
L 770.383328 133.390469 
L 770.72566 136.668769 
L 771.067991 138.034124 
L 771.410322 140.802965 
L 771.752653 160.015713 
L 772.094985 171.463088 
L 772.779647 95.907593 
L 773.121979 124.357022 
L 773.46431 116.521676 
L 773.806641 155.423306 
L 774.148972 161.780014 
L 774.491304 147.378788 
L 774.833635 108.505551 
L 775.175966 102.836842 
L 775.518298 123.64067 
L 775.860629 124.655397 
L 776.20296 138.087936 
L 776.545291 176.870569 
L 776.887623 164.92722 
L 777.229954 114.526628 
L 777.914617 155.866838 
L 778.256948 154.062216 
L 778.599279 170.277874 
L 778.94161 209.230521 
L 779.283942 211.255328 
L 779.968604 140.113028 
L 780.310936 136.599419 
L 780.653267 139.679124 
L 780.995598 109.273497 
L 781.337929 126.040202 
L 781.680261 136.001938 
L 782.022592 135.135941 
L 782.707255 114.673156 
L 783.049586 131.621647 
L 783.391917 119.644454 
L 783.734248 153.650965 
L 784.07658 153.498477 
L 784.418911 139.241548 
L 784.761242 131.585827 
L 785.103574 126.8873 
L 785.445905 148.169752 
L 785.788236 150.548464 
L 786.130567 163.52302 
L 786.472899 159.836 
L 786.81523 135.229612 
L 787.157561 120.527731 
L 787.499893 126.201888 
L 788.184555 140.880702 
L 788.526887 165.485712 
L 788.869218 158.599677 
L 789.211549 134.263914 
L 789.55388 137.372886 
L 789.896212 130.056956 
L 790.238543 132.632763 
L 790.923206 166.272216 
L 791.265537 162.079985 
L 791.607868 143.305674 
L 791.950199 142.592646 
L 792.292531 138.202518 
L 792.634862 158.461261 
L 792.977193 149.633117 
L 793.319525 153.468122 
L 793.661856 177.594962 
L 794.004187 128.596905 
L 794.346518 136.735989 
L 794.68885 138.1467 
L 795.031181 146.016194 
L 795.373512 143.904957 
L 795.715844 158.262209 
L 796.058175 137.069898 
L 796.400506 134.459792 
L 796.742837 137.81353 
L 797.085169 137.18153 
L 797.4275 136.290604 
L 797.769831 142.743046 
L 798.112163 166.840713 
L 798.454494 166.332611 
L 798.796825 150.730515 
L 799.139156 144.652841 
L 799.481488 136.14477 
L 799.823819 121.401608 
L 800.508482 173.685413 
L 800.850813 172.710603 
L 801.193144 150.371018 
L 801.535475 156.059169 
L 801.877807 149.004353 
L 802.220138 145.421437 
L 802.904801 174.461424 
L 803.247132 154.700353 
L 803.589463 158.765322 
L 804.274126 156.500115 
L 804.616457 153.588422 
L 804.958788 158.840276 
L 805.30112 175.47345 
L 805.643451 176.150671 
L 805.985782 152.817016 
L 806.328113 142.810772 
L 806.670445 138.685115 
L 807.012776 140.972277 
L 807.355107 149.831759 
L 807.697439 176.819758 
L 808.03977 167.947134 
L 808.382101 141.460837 
L 808.724433 141.539368 
L 809.066764 140.257886 
L 809.751426 144.840829 
L 810.093758 171.584782 
L 810.77842 124.63849 
L 811.120752 144.129504 
L 811.463083 130.641659 
L 811.805414 138.641409 
L 812.832408 172.634484 
L 813.174739 154.180852 
L 813.859402 143.977391 
L 814.544064 158.402942 
L 814.886396 179.647418 
L 815.228727 173.74303 
L 815.91339 125.49684 
L 816.255721 138.364728 
L 817.282715 231.544472 
L 817.625046 228.077489 
L 817.967377 192.778081 
L 818.309709 179.391969 
L 818.65204 185.763665 
L 818.994371 184.58387 
L 819.336702 175.285047 
L 819.679034 188.588549 
L 820.021365 192.984614 
L 820.363696 183.454441 
L 820.706028 187.414928 
L 821.048359 188.63092 
L 821.39069 181.82068 
L 821.733021 184.270619 
L 822.075353 201.411975 
L 822.417684 188.078677 
L 822.760015 195.287887 
L 823.444678 156.534273 
L 823.787009 161.914154 
L 824.12934 189.521421 
L 824.471672 201.073474 
L 824.814003 219.761847 
L 825.156334 166.744459 
L 825.498666 163.825217 
L 825.840997 170.079015 
L 826.183328 147.650926 
L 826.52566 137.972076 
L 826.867991 157.990542 
L 827.210322 149.783001 
L 827.552653 111.715857 
L 827.894985 132.449227 
L 828.237316 171.604121 
L 828.579647 184.71266 
L 828.921979 140.667315 
L 829.606641 169.433253 
L 829.948972 133.237938 
L 830.291304 145.52844 
L 830.633635 145.745178 
L 830.975966 137.826636 
L 831.318298 117.129628 
L 831.660629 144.969019 
L 832.00296 151.347118 
L 832.345291 171.869744 
L 832.687623 171.829335 
L 833.029954 181.14011 
L 833.372285 185.575905 
L 833.714617 177.278885 
L 834.056948 212.290518 
L 834.399279 211.037401 
L 834.74161 153.89475 
L 835.083942 156.200798 
L 835.426273 152.388558 
L 836.453267 215.053306 
L 836.795598 206.371483 
L 837.137929 170.341267 
L 837.480261 153.535624 
L 837.822592 172.653341 
L 838.507255 196.596305 
L 838.849586 238.857 
L 839.191917 218.67758 
L 839.534248 171.224546 
L 839.87658 161.421647 
L 840.218911 158.645107 
L 840.561242 154.477016 
L 840.903574 167.234849 
L 841.588236 207.54282 
L 841.930567 149.353008 
L 842.272899 132.988609 
L 842.957561 152.251579 
L 843.642224 194.252505 
L 843.984555 179.619185 
L 844.326887 131.491314 
L 844.669218 135.478746 
L 845.011549 135.983353 
L 845.35388 140.950785 
L 845.696212 158.515413 
L 846.038543 184.411435 
L 846.380874 189.210366 
L 846.723206 164.789266 
L 847.065537 181.80071 
L 847.407868 166.416344 
L 847.750199 160.220351 
L 848.092531 159.044534 
L 848.434862 207.139517 
L 848.777193 221.963506 
L 849.119525 136.615024 
L 849.461856 113.713892 
L 850.146518 154.724304 
L 850.48885 168.337543 
L 850.831181 198.047123 
L 851.173512 206.887458 
L 851.515844 190.111284 
L 851.858175 222.431388 
L 852.542837 165.831741 
L 852.885169 200.188458 
L 853.2275 154.103653 
L 853.2275 154.103653 
" clip-path="url(#paa8ea5bb30)" style="fill: none; stroke: #4c72b0; stroke-width: 1.2; stroke-linecap: round"/>
   </g>
   <g id="patch_3">
    <path d="M 72.0275 248.937 
L 72.0275 27.177 
" style="fill: none; stroke: #cccccc; stroke-linejoin: miter; stroke-linecap: square"/>
   </g>
   <g id="patch_4">
    <path d="M 853.2275 248.937 
L 853.2275 27.177 
" style="fill: none; stroke: #cccccc; stroke-linejoin: miter; stroke-linecap: square"/>
   </g>
   <g id="patch_5">
    <path d="M 72.0275 248.937 
L 853.2275 248.937 
" style="fill: none; stroke: #cccccc; stroke-linejoin: miter; stroke-linecap: square"/>
   </g>
   <g id="patch_6">
    <path d="M 72.0275 27.177 
L 853.2275 27.177 
" style="fill: none; stroke: #cccccc; stroke-linejoin: miter; stroke-linecap: square"/>
   </g>
   <g id="text_14">
    <!-- Residual of natural gas consumption -->
    <g style="fill: #262626" transform="translate(307.346 21.177) scale(0.192 -0.192)">
     <defs>
      <path id="ArialMT-52" d="M 503 0 
L 503 4581 
L 2534 4581 
Q 3147 4581 3465 4457 
Q 3784 4334 3975 4021 
Q 4166 3709 4166 3331 
Q 4166 2844 3850 2509 
Q 3534 2175 2875 2084 
Q 3116 1969 3241 1856 
Q 3506 1613 3744 1247 
L 4541 0 
L 3778 0 
L 3172 953 
Q 2906 1366 2734 1584 
Q 2563 1803 2427 1890 
Q 2291 1978 2150 2013 
Q 2047 2034 1813 2034 
L 1109 2034 
L 1109 0 
L 503 0 
z
M 1109 2559 
L 2413 2559 
Q 2828 2559 3062 2645 
Q 3297 2731 3419 2920 
Q 3541 3109 3541 3331 
Q 3541 3656 3305 3865 
Q 3069 4075 2559 4075 
L 1109 4075 
L 1109 2559 
z
" transform="scale(0.015625)"/>
      <path id="ArialMT-64" d="M 2575 0 
L 2575 419 
Q 2259 -75 1647 -75 
Q 1250 -75 917 144 
Q 584 363 401 755 
Q 219 1147 219 1656 
Q 219 2153 384 2558 
Q 550 2963 881 3178 
Q 1213 3394 1622 3394 
Q 1922 3394 2156 3267 
Q 2391 3141 2538 2938 
L 2538 4581 
L 3097 4581 
L 3097 0 
L 2575 0 
z
M 797 1656 
Q 797 1019 1065 703 
Q 1334 388 1700 388 
Q 2069 388 2326 689 
Q 2584 991 2584 1609 
Q 2584 2291 2321 2609 
Q 2059 2928 1675 2928 
Q 1300 2928 1048 2622 
Q 797 2316 797 1656 
z
" transform="scale(0.015625)"/>
      <path id="ArialMT-66" d="M 556 0 
L 556 2881 
L 59 2881 
L 59 3319 
L 556 3319 
L 556 3672 
Q 556 4006 616 4169 
Q 697 4388 901 4523 
Q 1106 4659 1475 4659 
Q 1713 4659 2000 4603 
L 1916 4113 
Q 1741 4144 1584 4144 
Q 1328 4144 1222 4034 
Q 1116 3925 1116 3625 
L 1116 3319 
L 1763 3319 
L 1763 2881 
L 1116 2881 
L 1116 0 
L 556 0 
z
" transform="scale(0.015625)"/>
     </defs>
     <use xlink:href="#ArialMT-52"/>
     <use xlink:href="#ArialMT-65" x="72.216797"/>
     <use xlink:href="#ArialMT-73" x="127.832031"/>
     <use xlink:href="#ArialMT-69" x="177.832031"/>
     <use xlink:href="#ArialMT-64" x="200.048828"/>
     <use xlink:href="#ArialMT-75" x="255.664062"/>
     <use xlink:href="#ArialMT-61" x="311.279297"/>
     <use xlink:href="#ArialMT-6c" x="366.894531"/>
     <use xlink:href="#ArialMT-20" x="389.111328"/>
     <use xlink:href="#ArialMT-6f" x="416.894531"/>
     <use xlink:href="#ArialMT-66" x="472.509766"/>
     <use xlink:href="#ArialMT-20" x="500.292969"/>
     <use xlink:href="#ArialMT-6e" x="528.076172"/>
     <use xlink:href="#ArialMT-61" x="583.691406"/>
     <use xlink:href="#ArialMT-74" x="639.306641"/>
     <use xlink:href="#ArialMT-75" x="667.089844"/>
     <use xlink:href="#ArialMT-72" x="722.705078"/>
     <use xlink:href="#ArialMT-61" x="756.005859"/>
     <use xlink:href="#ArialMT-6c" x="811.621094"/>
     <use xlink:href="#ArialMT-20" x="833.837891"/>
     <use xlink:href="#ArialMT-67" x="861.621094"/>
     <use xlink:href="#ArialMT-61" x="917.236328"/>
     <use xlink:href="#ArialMT-73" x="972.851562"/>
     <use xlink:href="#ArialMT-20" x="1022.851562"/>
     <use xlink:href="#ArialMT-63" x="1050.634766"/>
     <use xlink:href="#ArialMT-6f" x="1100.634766"/>
     <use xlink:href="#ArialMT-6e" x="1156.25"/>
     <use xlink:href="#ArialMT-73" x="1211.865234"/>
     <use xlink:href="#ArialMT-75" x="1261.865234"/>
     <use xlink:href="#ArialMT-6d" x="1317.480469"/>
     <use xlink:href="#ArialMT-70" x="1400.78125"/>
     <use xlink:href="#ArialMT-74" x="1456.396484"/>
     <use xlink:href="#ArialMT-69" x="1484.179688"/>
     <use xlink:href="#ArialMT-6f" x="1506.396484"/>
     <use xlink:href="#ArialMT-6e" x="1562.011719"/>
    </g>
   </g>
  </g>
 </g>
 <defs>
  <clipPath id="paa8ea5bb30">
   <rect x="72.0275" y="27.177" width="781.2" height="221.76"/>
  </clipPath>
 </defs>
</svg>
