<?xml version="1.0" encoding="utf-8" standalone="no"?>
<!DOCTYPE svg PUBLIC "-//W3C//DTD SVG 1.1//EN"
  "http://www.w3.org/Graphics/SVG/1.1/DTD/svg11.dtd">
<svg xmlns:xlink="http://www.w3.org/1999/xlink" width="855.27975pt" height="302.10375pt" viewBox="0 0 855.27975 302.10375" xmlns="http://www.w3.org/2000/svg" version="1.1">
 <metadata>
  <rdf:RDF xmlns:dc="http://purl.org/dc/elements/1.1/" xmlns:cc="http://creativecommons.org/ns#" xmlns:rdf="http://www.w3.org/1999/02/22-rdf-syntax-ns#">
   <cc:Work>
    <dc:type rdf:resource="http://purl.org/dc/dcmitype/StillImage"/>
    <dc:date>2023-05-10T11:36:53.844244</dc:date>
    <dc:format>image/svg+xml</dc:format>
    <dc:creator>
     <cc:Agent>
      <dc:title>Matplotlib v3.7.1, https://matplotlib.org/</dc:title>
     </cc:Agent>
    </dc:creator>
   </cc:Work>
  </rdf:RDF>
 </metadata>
 <defs>
  <style type="text/css">*{stroke-linejoin: round; stroke-linecap: butt}</style>
 </defs>
 <g id="figure_1">
  <g id="patch_1">
   <path d="M 0 302.10375 
L 855.27975 302.10375 
L 855.27975 0 
L 0 0 
z
" style="fill: #ffffff"/>
  </g>
  <g id="axes_1">
   <g id="patch_2">
    <path d="M 66.87975 248.949 
L 848.07975 248.949 
L 848.07975 27.189 
L 66.87975 27.189 
z
" style="fill: #ffffff"/>
   </g>
   <g id="matplotlib.axis_1">
    <g id="xtick_1">
     <g id="line2d_1">
      <path d="M 66.87975 248.949 
L 66.87975 27.189 
" clip-path="url(#pedc457a4d7)" style="fill: none; stroke: #cccccc; stroke-width: 0.8; stroke-linecap: round"/>
     </g>
    </g>
    <g id="xtick_2">
     <g id="line2d_2">
      <path d="M 100.023728 248.949 
L 100.023728 27.189 
" clip-path="url(#pedc457a4d7)" style="fill: none; stroke: #cccccc; stroke-width: 0.8; stroke-linecap: round"/>
     </g>
     <g id="text_1">
      <!-- 2016 -->
      <g style="fill: #262626" transform="translate(80.449228 269.84675) scale(0.176 -0.176)">
       <defs>
        <path id="ArialMT-32" d="M 3222 541 
L 3222 0 
L 194 0 
Q 188 203 259 391 
Q 375 700 629 1000 
Q 884 1300 1366 1694 
Q 2113 2306 2375 2664 
Q 2638 3022 2638 3341 
Q 2638 3675 2398 3904 
Q 2159 4134 1775 4134 
Q 1369 4134 1125 3890 
Q 881 3647 878 3216 
L 300 3275 
Q 359 3922 746 4261 
Q 1134 4600 1788 4600 
Q 2447 4600 2831 4234 
Q 3216 3869 3216 3328 
Q 3216 3053 3103 2787 
Q 2991 2522 2730 2228 
Q 2469 1934 1863 1422 
Q 1356 997 1212 845 
Q 1069 694 975 541 
L 3222 541 
z
" transform="scale(0.015625)"/>
        <path id="ArialMT-30" d="M 266 2259 
Q 266 3072 433 3567 
Q 600 4063 929 4331 
Q 1259 4600 1759 4600 
Q 2128 4600 2406 4451 
Q 2684 4303 2865 4023 
Q 3047 3744 3150 3342 
Q 3253 2941 3253 2259 
Q 3253 1453 3087 958 
Q 2922 463 2592 192 
Q 2263 -78 1759 -78 
Q 1097 -78 719 397 
Q 266 969 266 2259 
z
M 844 2259 
Q 844 1131 1108 757 
Q 1372 384 1759 384 
Q 2147 384 2411 759 
Q 2675 1134 2675 2259 
Q 2675 3391 2411 3762 
Q 2147 4134 1753 4134 
Q 1366 4134 1134 3806 
Q 844 3388 844 2259 
z
" transform="scale(0.015625)"/>
        <path id="ArialMT-31" d="M 2384 0 
L 1822 0 
L 1822 3584 
Q 1619 3391 1289 3197 
Q 959 3003 697 2906 
L 697 3450 
Q 1169 3672 1522 3987 
Q 1875 4303 2022 4600 
L 2384 4600 
L 2384 0 
z
" transform="scale(0.015625)"/>
        <path id="ArialMT-36" d="M 3184 3459 
L 2625 3416 
Q 2550 3747 2413 3897 
Q 2184 4138 1850 4138 
Q 1581 4138 1378 3988 
Q 1113 3794 959 3422 
Q 806 3050 800 2363 
Q 1003 2672 1297 2822 
Q 1591 2972 1913 2972 
Q 2475 2972 2870 2558 
Q 3266 2144 3266 1488 
Q 3266 1056 3080 686 
Q 2894 316 2569 119 
Q 2244 -78 1831 -78 
Q 1128 -78 684 439 
Q 241 956 241 2144 
Q 241 3472 731 4075 
Q 1159 4600 1884 4600 
Q 2425 4600 2770 4297 
Q 3116 3994 3184 3459 
z
M 888 1484 
Q 888 1194 1011 928 
Q 1134 663 1356 523 
Q 1578 384 1822 384 
Q 2178 384 2434 671 
Q 2691 959 2691 1453 
Q 2691 1928 2437 2201 
Q 2184 2475 1800 2475 
Q 1419 2475 1153 2201 
Q 888 1928 888 1484 
z
" transform="scale(0.015625)"/>
       </defs>
       <use xlink:href="#ArialMT-32"/>
       <use xlink:href="#ArialMT-30" x="55.615234"/>
       <use xlink:href="#ArialMT-31" x="111.230469"/>
       <use xlink:href="#ArialMT-36" x="166.845703"/>
      </g>
     </g>
    </g>
    <g id="xtick_3">
     <g id="line2d_3">
      <path d="M 230.461319 248.949 
L 230.461319 27.189 
" clip-path="url(#pedc457a4d7)" style="fill: none; stroke: #cccccc; stroke-width: 0.8; stroke-linecap: round"/>
     </g>
     <g id="text_2">
      <!-- 2017 -->
      <g style="fill: #262626" transform="translate(210.886819 269.84675) scale(0.176 -0.176)">
       <defs>
        <path id="ArialMT-37" d="M 303 3981 
L 303 4522 
L 3269 4522 
L 3269 4084 
Q 2831 3619 2401 2847 
Q 1972 2075 1738 1259 
Q 1569 684 1522 0 
L 944 0 
Q 953 541 1156 1306 
Q 1359 2072 1739 2783 
Q 2119 3494 2547 3981 
L 303 3981 
z
" transform="scale(0.015625)"/>
       </defs>
       <use xlink:href="#ArialMT-32"/>
       <use xlink:href="#ArialMT-30" x="55.615234"/>
       <use xlink:href="#ArialMT-31" x="111.230469"/>
       <use xlink:href="#ArialMT-37" x="166.845703"/>
      </g>
     </g>
    </g>
    <g id="xtick_4">
     <g id="line2d_4">
      <path d="M 360.542524 248.949 
L 360.542524 27.189 
" clip-path="url(#pedc457a4d7)" style="fill: none; stroke: #cccccc; stroke-width: 0.8; stroke-linecap: round"/>
     </g>
     <g id="text_3">
      <!-- 2018 -->
      <g style="fill: #262626" transform="translate(340.968024 269.84675) scale(0.176 -0.176)">
       <defs>
        <path id="ArialMT-38" d="M 1131 2484 
Q 781 2613 612 2850 
Q 444 3088 444 3419 
Q 444 3919 803 4259 
Q 1163 4600 1759 4600 
Q 2359 4600 2725 4251 
Q 3091 3903 3091 3403 
Q 3091 3084 2923 2848 
Q 2756 2613 2416 2484 
Q 2838 2347 3058 2040 
Q 3278 1734 3278 1309 
Q 3278 722 2862 322 
Q 2447 -78 1769 -78 
Q 1091 -78 675 323 
Q 259 725 259 1325 
Q 259 1772 486 2073 
Q 713 2375 1131 2484 
z
M 1019 3438 
Q 1019 3113 1228 2906 
Q 1438 2700 1772 2700 
Q 2097 2700 2305 2904 
Q 2513 3109 2513 3406 
Q 2513 3716 2298 3927 
Q 2084 4138 1766 4138 
Q 1444 4138 1231 3931 
Q 1019 3725 1019 3438 
z
M 838 1322 
Q 838 1081 952 856 
Q 1066 631 1291 507 
Q 1516 384 1775 384 
Q 2178 384 2440 643 
Q 2703 903 2703 1303 
Q 2703 1709 2433 1975 
Q 2163 2241 1756 2241 
Q 1359 2241 1098 1978 
Q 838 1716 838 1322 
z
" transform="scale(0.015625)"/>
       </defs>
       <use xlink:href="#ArialMT-32"/>
       <use xlink:href="#ArialMT-30" x="55.615234"/>
       <use xlink:href="#ArialMT-31" x="111.230469"/>
       <use xlink:href="#ArialMT-38" x="166.845703"/>
      </g>
     </g>
    </g>
    <g id="xtick_5">
     <g id="line2d_5">
      <path d="M 490.623728 248.949 
L 490.623728 27.189 
" clip-path="url(#pedc457a4d7)" style="fill: none; stroke: #cccccc; stroke-width: 0.8; stroke-linecap: round"/>
     </g>
     <g id="text_4">
      <!-- 2019 -->
      <g style="fill: #262626" transform="translate(471.049228 269.84675) scale(0.176 -0.176)">
       <defs>
        <path id="ArialMT-39" d="M 350 1059 
L 891 1109 
Q 959 728 1153 556 
Q 1347 384 1650 384 
Q 1909 384 2104 503 
Q 2300 622 2425 820 
Q 2550 1019 2634 1356 
Q 2719 1694 2719 2044 
Q 2719 2081 2716 2156 
Q 2547 1888 2255 1720 
Q 1963 1553 1622 1553 
Q 1053 1553 659 1965 
Q 266 2378 266 3053 
Q 266 3750 677 4175 
Q 1088 4600 1706 4600 
Q 2153 4600 2523 4359 
Q 2894 4119 3086 3673 
Q 3278 3228 3278 2384 
Q 3278 1506 3087 986 
Q 2897 466 2520 194 
Q 2144 -78 1638 -78 
Q 1100 -78 759 220 
Q 419 519 350 1059 
z
M 2653 3081 
Q 2653 3566 2395 3850 
Q 2138 4134 1775 4134 
Q 1400 4134 1122 3828 
Q 844 3522 844 3034 
Q 844 2597 1108 2323 
Q 1372 2050 1759 2050 
Q 2150 2050 2401 2323 
Q 2653 2597 2653 3081 
z
" transform="scale(0.015625)"/>
       </defs>
       <use xlink:href="#ArialMT-32"/>
       <use xlink:href="#ArialMT-30" x="55.615234"/>
       <use xlink:href="#ArialMT-31" x="111.230469"/>
       <use xlink:href="#ArialMT-39" x="166.845703"/>
      </g>
     </g>
    </g>
    <g id="xtick_6">
     <g id="line2d_6">
      <path d="M 620.704932 248.949 
L 620.704932 27.189 
" clip-path="url(#pedc457a4d7)" style="fill: none; stroke: #cccccc; stroke-width: 0.8; stroke-linecap: round"/>
     </g>
     <g id="text_5">
      <!-- 2020 -->
      <g style="fill: #262626" transform="translate(601.130432 269.84675) scale(0.176 -0.176)">
       <use xlink:href="#ArialMT-32"/>
       <use xlink:href="#ArialMT-30" x="55.615234"/>
       <use xlink:href="#ArialMT-32" x="111.230469"/>
       <use xlink:href="#ArialMT-30" x="166.845703"/>
      </g>
     </g>
    </g>
    <g id="xtick_7">
     <g id="line2d_7">
      <path d="M 751.142524 248.949 
L 751.142524 27.189 
" clip-path="url(#pedc457a4d7)" style="fill: none; stroke: #cccccc; stroke-width: 0.8; stroke-linecap: round"/>
     </g>
     <g id="text_6">
      <!-- 2021 -->
      <g style="fill: #262626" transform="translate(731.568024 269.84675) scale(0.176 -0.176)">
       <use xlink:href="#ArialMT-32"/>
       <use xlink:href="#ArialMT-30" x="55.615234"/>
       <use xlink:href="#ArialMT-32" x="111.230469"/>
       <use xlink:href="#ArialMT-31" x="166.845703"/>
      </g>
     </g>
    </g>
    <g id="xtick_8">
     <g id="line2d_8">
      <path d="M 848.07975 248.949 
L 848.07975 27.189 
" clip-path="url(#pedc457a4d7)" style="fill: none; stroke: #cccccc; stroke-width: 0.8; stroke-linecap: round"/>
     </g>
    </g>
    <g id="xtick_9"/>
    <g id="xtick_10"/>
    <g id="xtick_11"/>
    <g id="xtick_12"/>
    <g id="xtick_13"/>
    <g id="xtick_14"/>
    <g id="xtick_15"/>
    <g id="xtick_16"/>
    <g id="xtick_17"/>
    <g id="xtick_18"/>
    <g id="xtick_19"/>
    <g id="xtick_20"/>
    <g id="xtick_21"/>
    <g id="xtick_22"/>
    <g id="xtick_23"/>
    <g id="xtick_24"/>
    <g id="xtick_25"/>
    <g id="xtick_26"/>
    <g id="text_7">
     <!-- Date -->
     <g style="fill: #262626" transform="translate(437.20275 291.08775) scale(0.192 -0.192)">
      <defs>
       <path id="ArialMT-44" d="M 494 0 
L 494 4581 
L 2072 4581 
Q 2606 4581 2888 4516 
Q 3281 4425 3559 4188 
Q 3922 3881 4101 3404 
Q 4281 2928 4281 2316 
Q 4281 1794 4159 1391 
Q 4038 988 3847 723 
Q 3656 459 3429 307 
Q 3203 156 2883 78 
Q 2563 0 2147 0 
L 494 0 
z
M 1100 541 
L 2078 541 
Q 2531 541 2789 625 
Q 3047 709 3200 863 
Q 3416 1078 3536 1442 
Q 3656 1806 3656 2325 
Q 3656 3044 3420 3430 
Q 3184 3816 2847 3947 
Q 2603 4041 2063 4041 
L 1100 4041 
L 1100 541 
z
" transform="scale(0.015625)"/>
       <path id="ArialMT-61" d="M 2588 409 
Q 2275 144 1986 34 
Q 1697 -75 1366 -75 
Q 819 -75 525 192 
Q 231 459 231 875 
Q 231 1119 342 1320 
Q 453 1522 633 1644 
Q 813 1766 1038 1828 
Q 1203 1872 1538 1913 
Q 2219 1994 2541 2106 
Q 2544 2222 2544 2253 
Q 2544 2597 2384 2738 
Q 2169 2928 1744 2928 
Q 1347 2928 1158 2789 
Q 969 2650 878 2297 
L 328 2372 
Q 403 2725 575 2942 
Q 747 3159 1072 3276 
Q 1397 3394 1825 3394 
Q 2250 3394 2515 3294 
Q 2781 3194 2906 3042 
Q 3031 2891 3081 2659 
Q 3109 2516 3109 2141 
L 3109 1391 
Q 3109 606 3145 398 
Q 3181 191 3288 0 
L 2700 0 
Q 2613 175 2588 409 
z
M 2541 1666 
Q 2234 1541 1622 1453 
Q 1275 1403 1131 1340 
Q 988 1278 909 1158 
Q 831 1038 831 891 
Q 831 666 1001 516 
Q 1172 366 1500 366 
Q 1825 366 2078 508 
Q 2331 650 2450 897 
Q 2541 1088 2541 1459 
L 2541 1666 
z
" transform="scale(0.015625)"/>
       <path id="ArialMT-74" d="M 1650 503 
L 1731 6 
Q 1494 -44 1306 -44 
Q 1000 -44 831 53 
Q 663 150 594 308 
Q 525 466 525 972 
L 525 2881 
L 113 2881 
L 113 3319 
L 525 3319 
L 525 4141 
L 1084 4478 
L 1084 3319 
L 1650 3319 
L 1650 2881 
L 1084 2881 
L 1084 941 
Q 1084 700 1114 631 
Q 1144 563 1211 522 
Q 1278 481 1403 481 
Q 1497 481 1650 503 
z
" transform="scale(0.015625)"/>
       <path id="ArialMT-65" d="M 2694 1069 
L 3275 997 
Q 3138 488 2766 206 
Q 2394 -75 1816 -75 
Q 1088 -75 661 373 
Q 234 822 234 1631 
Q 234 2469 665 2931 
Q 1097 3394 1784 3394 
Q 2450 3394 2872 2941 
Q 3294 2488 3294 1666 
Q 3294 1616 3291 1516 
L 816 1516 
Q 847 969 1125 678 
Q 1403 388 1819 388 
Q 2128 388 2347 550 
Q 2566 713 2694 1069 
z
M 847 1978 
L 2700 1978 
Q 2663 2397 2488 2606 
Q 2219 2931 1791 2931 
Q 1403 2931 1139 2672 
Q 875 2413 847 1978 
z
" transform="scale(0.015625)"/>
      </defs>
      <use xlink:href="#ArialMT-44"/>
      <use xlink:href="#ArialMT-61" x="72.216797"/>
      <use xlink:href="#ArialMT-74" x="127.832031"/>
      <use xlink:href="#ArialMT-65" x="155.615234"/>
     </g>
    </g>
   </g>
   <g id="matplotlib.axis_2">
    <g id="ytick_1">
     <g id="line2d_9">
      <path d="M 66.87975 239.110076 
L 848.07975 239.110076 
" clip-path="url(#pedc457a4d7)" style="fill: none; stroke: #cccccc; stroke-width: 0.8; stroke-linecap: round"/>
     </g>
     <g id="text_8">
      <!-- 0 -->
      <g style="fill: #262626" transform="translate(48.7925 245.408951) scale(0.176 -0.176)">
       <use xlink:href="#ArialMT-30"/>
      </g>
     </g>
    </g>
    <g id="ytick_2">
     <g id="line2d_10">
      <path d="M 66.87975 168.288646 
L 848.07975 168.288646 
" clip-path="url(#pedc457a4d7)" style="fill: none; stroke: #cccccc; stroke-width: 0.8; stroke-linecap: round"/>
     </g>
     <g id="text_9">
      <!-- 100 -->
      <g style="fill: #262626" transform="translate(29.218 174.587521) scale(0.176 -0.176)">
       <use xlink:href="#ArialMT-31"/>
       <use xlink:href="#ArialMT-30" x="55.615234"/>
       <use xlink:href="#ArialMT-30" x="111.230469"/>
      </g>
     </g>
    </g>
    <g id="ytick_3">
     <g id="line2d_11">
      <path d="M 66.87975 97.467216 
L 848.07975 97.467216 
" clip-path="url(#pedc457a4d7)" style="fill: none; stroke: #cccccc; stroke-width: 0.8; stroke-linecap: round"/>
     </g>
     <g id="text_10">
      <!-- 200 -->
      <g style="fill: #262626" transform="translate(29.218 103.766091) scale(0.176 -0.176)">
       <use xlink:href="#ArialMT-32"/>
       <use xlink:href="#ArialMT-30" x="55.615234"/>
       <use xlink:href="#ArialMT-30" x="111.230469"/>
      </g>
     </g>
    </g>
    <g id="text_11">
     <!-- Price (€/MWh) -->
     <g style="fill: #262626" transform="translate(21.177 199.4025) rotate(-90) scale(0.192 -0.192)">
      <defs>
       <path id="ArialMT-50" d="M 494 0 
L 494 4581 
L 2222 4581 
Q 2678 4581 2919 4538 
Q 3256 4481 3484 4323 
Q 3713 4166 3852 3881 
Q 3991 3597 3991 3256 
Q 3991 2672 3619 2267 
Q 3247 1863 2275 1863 
L 1100 1863 
L 1100 0 
L 494 0 
z
M 1100 2403 
L 2284 2403 
Q 2872 2403 3119 2622 
Q 3366 2841 3366 3238 
Q 3366 3525 3220 3729 
Q 3075 3934 2838 4000 
Q 2684 4041 2272 4041 
L 1100 4041 
L 1100 2403 
z
" transform="scale(0.015625)"/>
       <path id="ArialMT-72" d="M 416 0 
L 416 3319 
L 922 3319 
L 922 2816 
Q 1116 3169 1280 3281 
Q 1444 3394 1641 3394 
Q 1925 3394 2219 3213 
L 2025 2691 
Q 1819 2813 1613 2813 
Q 1428 2813 1281 2702 
Q 1134 2591 1072 2394 
Q 978 2094 978 1738 
L 978 0 
L 416 0 
z
" transform="scale(0.015625)"/>
       <path id="ArialMT-69" d="M 425 3934 
L 425 4581 
L 988 4581 
L 988 3934 
L 425 3934 
z
M 425 0 
L 425 3319 
L 988 3319 
L 988 0 
L 425 0 
z
" transform="scale(0.015625)"/>
       <path id="ArialMT-63" d="M 2588 1216 
L 3141 1144 
Q 3050 572 2676 248 
Q 2303 -75 1759 -75 
Q 1078 -75 664 370 
Q 250 816 250 1647 
Q 250 2184 428 2587 
Q 606 2991 970 3192 
Q 1334 3394 1763 3394 
Q 2303 3394 2647 3120 
Q 2991 2847 3088 2344 
L 2541 2259 
Q 2463 2594 2264 2762 
Q 2066 2931 1784 2931 
Q 1359 2931 1093 2626 
Q 828 2322 828 1663 
Q 828 994 1084 691 
Q 1341 388 1753 388 
Q 2084 388 2306 591 
Q 2528 794 2588 1216 
z
" transform="scale(0.015625)"/>
       <path id="ArialMT-20" transform="scale(0.015625)"/>
       <path id="ArialMT-28" d="M 1497 -1347 
Q 1031 -759 709 28 
Q 388 816 388 1659 
Q 388 2403 628 3084 
Q 909 3875 1497 4659 
L 1900 4659 
Q 1522 4009 1400 3731 
Q 1209 3300 1100 2831 
Q 966 2247 966 1656 
Q 966 153 1900 -1347 
L 1497 -1347 
z
" transform="scale(0.015625)"/>
       <path id="ArialMT-20ac" d="M 2469 4141 
Q 1944 4141 1588 3888 
Q 1375 3738 1203 3463 
Q 1028 3178 997 2922 
L 3128 2922 
L 3044 2503 
L 947 2503 
Q 944 2438 944 2378 
Q 944 2138 947 2091 
L 2959 2091 
L 2872 1672 
L 1013 1672 
Q 1144 956 1644 656 
Q 2003 441 2422 441 
Q 3006 441 3334 747 
L 3334 103 
Q 2944 -78 2472 -78 
Q 1059 -78 563 1097 
Q 463 1334 391 1672 
L -88 1672 
L 0 2091 
L 328 2091 
Q 319 2222 319 2375 
Q 319 2438 322 2503 
L -88 2503 
L 0 2922 
L 363 2922 
Q 556 3941 1372 4384 
Q 1875 4659 2481 4659 
Q 3063 4659 3459 4406 
L 3334 3825 
Q 2953 4141 2469 4141 
z
" transform="scale(0.015625)"/>
       <path id="ArialMT-2f" d="M 0 -78 
L 1328 4659 
L 1778 4659 
L 453 -78 
L 0 -78 
z
" transform="scale(0.015625)"/>
       <path id="ArialMT-4d" d="M 475 0 
L 475 4581 
L 1388 4581 
L 2472 1338 
Q 2622 884 2691 659 
Q 2769 909 2934 1394 
L 4031 4581 
L 4847 4581 
L 4847 0 
L 4263 0 
L 4263 3834 
L 2931 0 
L 2384 0 
L 1059 3900 
L 1059 0 
L 475 0 
z
" transform="scale(0.015625)"/>
       <path id="ArialMT-57" d="M 1294 0 
L 78 4581 
L 700 4581 
L 1397 1578 
Q 1509 1106 1591 641 
Q 1766 1375 1797 1488 
L 2669 4581 
L 3400 4581 
L 4056 2263 
Q 4303 1400 4413 641 
Q 4500 1075 4641 1638 
L 5359 4581 
L 5969 4581 
L 4713 0 
L 4128 0 
L 3163 3491 
Q 3041 3928 3019 4028 
Q 2947 3713 2884 3491 
L 1913 0 
L 1294 0 
z
" transform="scale(0.015625)"/>
       <path id="ArialMT-68" d="M 422 0 
L 422 4581 
L 984 4581 
L 984 2938 
Q 1378 3394 1978 3394 
Q 2347 3394 2619 3248 
Q 2891 3103 3008 2847 
Q 3125 2591 3125 2103 
L 3125 0 
L 2563 0 
L 2563 2103 
Q 2563 2525 2380 2717 
Q 2197 2909 1863 2909 
Q 1613 2909 1392 2779 
Q 1172 2650 1078 2428 
Q 984 2206 984 1816 
L 984 0 
L 422 0 
z
" transform="scale(0.015625)"/>
       <path id="ArialMT-29" d="M 791 -1347 
L 388 -1347 
Q 1322 153 1322 1656 
Q 1322 2244 1188 2822 
Q 1081 3291 891 3722 
Q 769 4003 388 4659 
L 791 4659 
Q 1378 3875 1659 3084 
Q 1900 2403 1900 1659 
Q 1900 816 1576 28 
Q 1253 -759 791 -1347 
z
" transform="scale(0.015625)"/>
      </defs>
      <use xlink:href="#ArialMT-50"/>
      <use xlink:href="#ArialMT-72" x="66.699219"/>
      <use xlink:href="#ArialMT-69" x="100"/>
      <use xlink:href="#ArialMT-63" x="122.216797"/>
      <use xlink:href="#ArialMT-65" x="172.216797"/>
      <use xlink:href="#ArialMT-20" x="227.832031"/>
      <use xlink:href="#ArialMT-28" x="255.615234"/>
      <use xlink:href="#ArialMT-20ac" x="288.916016"/>
      <use xlink:href="#ArialMT-2f" x="344.53125"/>
      <use xlink:href="#ArialMT-4d" x="372.314453"/>
      <use xlink:href="#ArialMT-57" x="455.615234"/>
      <use xlink:href="#ArialMT-68" x="550"/>
      <use xlink:href="#ArialMT-29" x="605.615234"/>
     </g>
    </g>
   </g>
   <g id="line2d_12">
    <path d="M 66.87975 225.229076 
L 67.236137 225.867885 
L 68.305297 226.391964 
L 68.661684 226.251737 
L 69.018071 225.122844 
L 69.374458 225.243948 
L 69.730845 223.68871 
L 70.087232 225.016612 
L 70.443619 225.297064 
L 70.800005 225.297064 
L 71.156392 224.553439 
L 71.512779 221.068317 
L 71.869166 225.474118 
L 72.58194 225.662503 
L 72.938327 225.97695 
L 73.294714 225.995364 
L 73.6511 224.874969 
L 74.007487 225.571852 
L 75.433035 226.064769 
L 75.789422 225.456413 
L 76.145808 225.421002 
L 76.502195 225.99678 
L 76.858582 225.512362 
L 77.214969 221.457835 
L 77.571356 225.544939 
L 77.927743 225.952163 
L 78.28413 225.987573 
L 78.996903 225.476951 
L 79.35329 225.899047 
L 80.066064 226.217743 
L 80.422451 226.824683 
L 80.778838 226.270859 
L 81.491611 226.34168 
L 81.847998 226.447913 
L 82.204385 226.415335 
L 82.560772 226.695788 
L 82.917159 224.94579 
L 83.273546 226.291397 
L 83.629932 226.766609 
L 83.986319 226.412502 
L 84.342706 221.422424 
L 84.699093 225.654004 
L 85.05548 226.005279 
L 85.411867 225.299897 
L 85.768254 226.078933 
L 86.124641 226.078933 
L 86.481027 226.314768 
L 87.193801 226.025817 
L 87.550188 225.775109 
L 87.906575 225.353013 
L 88.262962 225.775109 
L 88.619349 223.051317 
L 88.975735 225.498905 
L 89.332122 225.392673 
L 90.044896 226.030066 
L 90.401283 222.20146 
L 90.75767 225.959245 
L 91.114057 226.096638 
L 91.470443 226.574683 
L 91.82683 226.490405 
L 92.183217 226.025817 
L 92.539604 226.667459 
L 93.252378 226.92879 
L 93.608765 225.67171 
L 93.965151 227.176665 
L 94.321538 227.313351 
L 94.677925 228.542102 
L 95.034312 226.450745 
L 95.390699 228.373547 
L 96.103473 227.814058 
L 96.459859 227.942245 
L 96.816246 228.486862 
L 97.172633 228.15046 
L 97.52902 227.495362 
L 97.885407 229.160373 
L 98.241794 228.185871 
L 98.598181 228.238987 
L 98.954568 227.831763 
L 99.310954 227.194371 
L 99.667341 227.105844 
L 100.023728 228.233321 
L 100.380115 227.778647 
L 100.736502 224.414629 
L 101.092889 226.025817 
L 101.449276 226.592388 
L 101.805662 227.722698 
L 102.162049 227.687288 
L 102.518436 227.315475 
L 102.874823 228.226947 
L 103.587597 228.167457 
L 103.943984 227.917457 
L 104.30037 228.683037 
L 104.656757 228.147627 
L 105.013144 228.253859 
L 105.369531 229.055558 
L 105.725918 228.430913 
L 106.082305 228.890544 
L 106.795078 228.607966 
L 107.151465 228.979779 
L 107.507852 226.379924 
L 108.220626 229.402583 
L 108.577013 229.457115 
L 108.9334 229.813347 
L 109.289786 226.397629 
L 109.646173 228.430913 
L 110.00256 225.689415 
L 110.358947 227.371424 
L 110.715334 227.353719 
L 111.428108 229.103716 
L 111.784495 227.884879 
L 112.140881 227.796353 
L 112.497268 229.088844 
L 113.210042 230.083177 
L 113.566429 228.486862 
L 113.922816 227.831763 
L 114.279203 229.549183 
L 114.635589 228.168165 
L 114.991976 230.12567 
L 115.70475 228.770147 
L 116.061137 227.778647 
L 116.417524 229.121422 
L 116.773911 229.800599 
L 117.130297 229.952157 
L 117.486684 229.933035 
L 117.843071 230.081052 
L 118.199458 229.687993 
L 118.555845 229.564056 
L 118.912232 229.053433 
L 119.268619 228.858674 
L 119.625005 229.54635 
L 120.337779 229.475529 
L 120.694166 230.061222 
L 121.050553 228.628504 
L 121.40694 227.92029 
L 121.763327 229.811222 
L 122.4761 229.887001 
L 122.832487 229.6455 
L 123.188874 230.088134 
L 123.901648 230.003148 
L 126.039969 230.012355 
L 126.396356 229.734027 
L 127.10913 230.271562 
L 127.821903 230.131335 
L 129.603838 230.253856 
L 129.960224 229.6455 
L 130.316611 230.567595 
L 130.672998 230.563346 
L 131.029385 229.90329 
L 131.385772 229.761647 
L 133.524093 230.724111 
L 133.88048 229.212781 
L 134.236867 229.566888 
L 134.593254 230.76023 
L 134.949641 230.37142 
L 135.306027 230.558388 
L 135.662414 230.583884 
L 136.018801 230.908955 
L 136.375188 230.548473 
L 136.731575 230.646915 
L 137.087962 230.300598 
L 137.444349 230.300598 
L 137.800735 230.664621 
L 138.513509 230.168871 
L 138.869896 230.158956 
L 139.226283 230.035018 
L 139.58267 230.308389 
L 140.295443 229.730486 
L 141.008217 229.508107 
L 141.364604 229.178787 
L 141.720991 228.246777 
L 142.077378 228.550601 
L 142.790151 229.683744 
L 143.146538 229.8438 
L 143.502925 229.734735 
L 144.215699 230.192242 
L 145.997633 230.06193 
L 146.35402 229.664622 
L 146.710407 229.898333 
L 147.423181 229.624962 
L 147.779568 229.840967 
L 148.492341 229.804848 
L 148.848728 229.676662 
L 149.205115 229.790684 
L 149.917889 229.790684 
L 150.630662 229.901874 
L 150.987049 229.77652 
L 151.699823 229.770146 
L 152.412597 229.394084 
L 152.768984 229.246776 
L 153.838144 229.184453 
L 154.194531 228.935161 
L 154.550918 228.522272 
L 155.620078 228.861507 
L 156.332852 228.645502 
L 156.689239 227.637004 
L 157.045626 228.522272 
L 157.7584 228.975529 
L 158.471173 228.988986 
L 158.82756 229.207116 
L 159.183947 229.129212 
L 159.540334 228.831054 
L 159.896721 228.950742 
L 160.253108 228.77298 
L 160.965881 228.736153 
L 161.322268 228.383462 
L 161.678655 228.442952 
L 162.035042 228.149043 
L 162.391429 228.180205 
L 162.747816 228.445077 
L 163.460589 228.503151 
L 163.816976 228.637711 
L 164.173363 228.557683 
L 165.598911 228.925246 
L 166.668071 228.750317 
L 167.024458 228.862215 
L 168.450005 228.854425 
L 168.806392 228.959241 
L 169.875553 228.717031 
L 170.588327 228.79281 
L 171.657487 228.74536 
L 172.370261 228.289978 
L 173.083035 228.445785 
L 173.439422 228.39621 
L 173.795808 228.221989 
L 174.152195 228.525105 
L 174.864969 228.715615 
L 175.221356 228.918164 
L 176.290516 229.017314 
L 177.00329 229.354424 
L 177.359677 229.309807 
L 177.716064 229.498192 
L 178.428838 229.523687 
L 178.785224 229.707823 
L 179.497998 229.745358 
L 179.854385 229.959239 
L 180.210772 230.336009 
L 180.923546 230.406122 
L 181.279932 230.869295 
L 181.636319 230.554139 
L 182.349093 230.51023 
L 182.70548 231.260229 
L 183.418254 231.24394 
L 184.131027 230.554847 
L 184.843801 230.937283 
L 186.269349 230.661788 
L 186.625735 230.474111 
L 186.982122 230.563346 
L 187.694896 230.260938 
L 188.051283 230.296349 
L 188.40767 230.036435 
L 188.764057 230.117879 
L 189.47683 230.627793 
L 189.833217 230.950031 
L 190.545991 231.052014 
L 190.902378 230.967736 
L 191.258765 231.281475 
L 191.615151 231.036433 
L 191.971538 230.935867 
L 192.327925 230.611505 
L 192.684312 229.814763 
L 193.040699 230.571845 
L 193.397086 229.478362 
L 193.753473 229.920996 
L 194.466246 229.77652 
L 194.822633 229.416039 
L 195.17902 229.425246 
L 195.535407 229.630628 
L 195.891794 229.511648 
L 196.248181 228.947201 
L 196.604568 229.561223 
L 197.673728 229.301308 
L 198.030115 229.212781 
L 198.386502 229.880627 
L 198.742889 229.487568 
L 199.099276 227.566183 
L 199.455662 227.052728 
L 199.812049 226.061228 
L 200.168436 227.803435 
L 200.524823 227.810517 
L 200.88121 227.42454 
L 201.237597 227.903293 
L 201.593984 227.527939 
L 202.306757 227.244654 
L 202.663144 227.070433 
L 203.019531 227.545645 
L 203.732305 226.43304 
L 204.088692 223.175254 
L 204.445078 225.689415 
L 205.157852 227.052728 
L 205.870626 226.008112 
L 206.227013 226.040689 
L 206.5834 225.93729 
L 206.939786 226.149754 
L 207.296173 226.601595 
L 207.65256 226.185165 
L 208.008947 224.963495 
L 208.365334 226.025817 
L 208.721721 225.792814 
L 209.078108 224.872136 
L 209.434495 224.730493 
L 209.790881 224.981201 
L 210.503655 226.086723 
L 210.860042 225.901879 
L 211.216429 225.981908 
L 211.572816 225.863636 
L 211.929203 226.238989 
L 212.285589 226.059811 
L 212.998363 226.073267 
L 213.35475 225.957828 
L 213.711137 226.358678 
L 214.423911 226.530065 
L 214.780297 226.769442 
L 215.136684 225.689415 
L 215.493071 225.739698 
L 215.849458 225.972701 
L 216.205845 226.878507 
L 216.562232 225.17596 
L 216.918619 225.792814 
L 217.275005 225.17596 
L 217.631392 225.087433 
L 217.987779 225.831058 
L 218.344166 225.615761 
L 218.700553 225.087433 
L 219.05694 225.512362 
L 219.413327 226.201454 
L 219.769714 226.292105 
L 220.1261 225.593098 
L 220.482487 225.575393 
L 220.838874 225.115053 
L 221.195261 225.840973 
L 221.551648 226.177375 
L 221.908035 227.268733 
L 222.264422 227.358676 
L 222.977195 226.92879 
L 223.333582 226.008112 
L 224.046356 225.96491 
L 224.402743 226.185165 
L 225.115516 225.777942 
L 225.471903 226.008112 
L 225.82829 226.503153 
L 226.184677 225.663919 
L 226.541064 225.770152 
L 227.253838 225.406129 
L 227.610224 226.201454 
L 227.966611 226.185165 
L 228.322998 224.591683 
L 228.679385 224.637009 
L 229.035772 225.193665 
L 229.392159 225.122844 
L 229.748546 224.272987 
L 230.461319 223.833894 
L 230.817706 224.205706 
L 231.174093 224.237576 
L 231.886867 224.542108 
L 232.243254 224.258822 
L 232.956027 225.675251 
L 233.312414 225.034317 
L 233.668801 225.567602 
L 234.025188 224.025112 
L 234.381575 223.777237 
L 234.737962 223.175254 
L 235.094349 224.095933 
L 235.450735 224.149049 
L 235.807122 223.763072 
L 236.163509 224.241117 
L 236.519896 224.025112 
L 236.876283 224.237576 
L 237.23267 223.759531 
L 237.945443 223.214206 
L 238.30183 222.576813 
L 238.658217 222.608683 
L 239.014604 222.877804 
L 239.370991 223.812647 
L 239.727378 222.96279 
L 240.083765 224.520862 
L 240.440151 225.038566 
L 241.152925 222.750326 
L 241.865699 222.484745 
L 242.222086 222.874263 
L 242.578473 222.757408 
L 242.934859 222.025823 
L 243.291246 221.70571 
L 243.647633 222.025823 
L 244.00402 222.785736 
L 244.360407 223.229787 
L 245.073181 223.778653 
L 245.429568 224.237576 
L 245.785954 224.025112 
L 246.142341 224.646215 
L 246.855115 225.496073 
L 247.211502 224.874969 
L 247.567889 225.336724 
L 247.924276 225.425251 
L 248.280662 225.193665 
L 248.993436 225.618594 
L 249.349823 224.94579 
L 249.70621 225.158254 
L 250.062597 225.673126 
L 250.77537 225.831058 
L 251.488144 226.412502 
L 251.844531 226.078933 
L 252.557305 226.787147 
L 252.913692 226.793521 
L 253.270078 226.627799 
L 253.626465 226.291397 
L 253.982852 226.350887 
L 254.695626 227.170999 
L 255.052013 227.479073 
L 255.764786 227.161084 
L 256.121173 227.417458 
L 256.833947 227.320433 
L 257.190334 227.458534 
L 257.903108 227.088138 
L 258.615881 227.495362 
L 258.972268 227.513067 
L 259.328655 227.76165 
L 259.685042 227.745361 
L 260.041429 228.20995 
L 261.466976 228.275106 
L 261.823363 228.037146 
L 262.17975 228.005276 
L 262.536137 227.745361 
L 262.892524 227.747486 
L 263.605297 227.401877 
L 264.318071 227.213492 
L 265.030845 227.22624 
L 265.743619 227.639129 
L 266.100005 226.96066 
L 266.456392 227.367883 
L 267.169166 227.229781 
L 267.88194 227.631339 
L 268.238327 227.620007 
L 269.307487 226.949328 
L 269.663874 227.419583 
L 270.020261 227.177373 
L 272.158582 227.124966 
L 272.871356 227.56335 
L 273.227743 227.169583 
L 274.296903 226.900462 
L 274.65329 227.176665 
L 275.009677 227.105844 
L 275.366064 227.497486 
L 275.722451 227.35726 
L 276.078838 227.432331 
L 276.435224 227.360801 
L 276.791611 227.501736 
L 277.147998 227.934454 
L 277.860772 228.192244 
L 278.573546 227.764483 
L 278.929932 227.991112 
L 279.286319 227.947911 
L 279.642706 227.724115 
L 281.068254 227.882755 
L 281.424641 227.799894 
L 281.781027 227.845219 
L 282.493801 228.185871 
L 283.919349 227.679497 
L 284.988509 228.200743 
L 285.701283 228.192244 
L 286.05767 228.062641 
L 286.770443 228.060517 
L 287.839604 228.056267 
L 288.195991 228.038562 
L 288.908765 228.219865 
L 291.759859 228.224114 
L 292.116246 228.407542 
L 292.82902 228.397627 
L 293.541794 228.241819 
L 294.610954 228.025106 
L 294.967341 228.169582 
L 295.680115 228.100177 
L 296.392889 227.942245 
L 296.749276 228.104426 
L 297.105662 228.047061 
L 297.818436 228.137712 
L 298.174823 228.09097 
L 299.243984 228.319723 
L 299.956757 228.304142 
L 300.313144 228.508108 
L 301.382305 228.243944 
L 302.451465 228.215616 
L 302.807852 228.333887 
L 304.589786 228.077514 
L 305.30256 228.503151 
L 305.658947 228.204992 
L 306.015334 228.180913 
L 306.371721 228.360799 
L 306.728108 228.309808 
L 307.084495 227.811225 
L 307.440881 228.159667 
L 308.153655 228.096636 
L 308.510042 227.930913 
L 308.866429 227.947202 
L 309.579203 227.497486 
L 311.717524 227.634172 
L 312.073911 227.393379 
L 312.786684 227.470574 
L 313.499458 227.306268 
L 313.855845 227.467741 
L 314.212232 227.331764 
L 314.568619 227.314767 
L 315.281392 227.45641 
L 315.637779 227.318308 
L 316.350553 227.306977 
L 316.70694 227.141254 
L 317.7761 227.45641 
L 318.132487 227.221991 
L 318.488874 227.24607 
L 318.845261 227.058393 
L 319.558035 227.022983 
L 320.270808 227.096637 
L 321.696356 226.377091 
L 322.052743 225.668877 
L 322.40913 226.39338 
L 322.765516 226.399046 
L 323.121903 226.0761 
L 323.47829 226.321142 
L 324.191064 226.53219 
L 324.547451 226.909668 
L 324.903838 227.089555 
L 325.616611 226.978365 
L 326.329385 226.370717 
L 326.685772 226.501029 
L 327.042159 226.371425 
L 327.398546 227.035022 
L 327.754932 226.714909 
L 328.111319 227.047062 
L 328.467706 226.590972 
L 328.824093 226.707119 
L 329.18048 225.034317 
L 329.536867 225.649047 
L 330.249641 225.795647 
L 330.606027 225.353013 
L 331.675188 226.130633 
L 333.100735 227.086722 
L 333.457122 227.032898 
L 334.169896 226.289981 
L 334.526283 226.343097 
L 334.88267 226.769442 
L 335.239057 226.20287 
L 335.595443 221.404719 
L 335.95183 226.379924 
L 336.308217 226.826807 
L 336.664604 226.301312 
L 337.020991 226.362219 
L 337.377378 226.149754 
L 337.733765 226.255987 
L 339.159312 225.530067 
L 339.515699 225.777942 
L 339.872086 225.654004 
L 340.228473 225.831058 
L 340.584859 224.353015 
L 341.65402 225.266611 
L 342.010407 225.087433 
L 342.366794 223.798483 
L 342.723181 224.45004 
L 343.435954 224.467745 
L 343.792341 225.271569 
L 344.148728 225.501738 
L 344.505115 224.94579 
L 344.861502 225.140549 
L 345.217889 224.910379 
L 345.574276 224.396924 
L 345.930662 224.369304 
L 346.287049 224.733326 
L 346.643436 223.883469 
L 346.999823 224.186584 
L 347.35621 223.936585 
L 347.712597 223.361515 
L 348.068984 223.600183 
L 348.42537 224.202165 
L 348.781757 223.015906 
L 349.138144 223.706415 
L 349.850918 223.883469 
L 350.563692 222.679504 
L 350.920078 223.19296 
L 351.276465 223.334603 
L 351.632852 223.210665 
L 352.345626 223.241118 
L 353.0584 222.367182 
L 353.414786 219.812653 
L 354.12756 223.27228 
L 354.483947 223.033611 
L 354.840334 223.139844 
L 355.196721 222.396219 
L 355.553108 222.927379 
L 355.909495 222.998201 
L 356.265881 224.255281 
L 356.622268 224.255281 
L 356.978655 224.042817 
L 357.691429 225.450039 
L 358.047816 225.312645 
L 358.404203 223.703582 
L 358.760589 223.936585 
L 359.116976 223.529361 
L 359.473363 223.529361 
L 359.82975 224.768737 
L 360.186137 225.456413 
L 360.542524 224.94579 
L 360.898911 224.115055 
L 361.255297 224.326103 
L 361.611684 224.68021 
L 361.968071 224.768737 
L 362.324458 225.016612 
L 362.680845 224.414629 
L 363.037232 223.316897 
L 363.393619 224.94579 
L 363.750005 224.396924 
L 364.106392 224.768737 
L 364.462779 222.821147 
L 364.819166 224.508822 
L 365.175553 223.973412 
L 365.888327 224.79494 
L 366.244714 224.94579 
L 366.6011 225.370719 
L 366.957487 225.476951 
L 367.313874 225.140549 
L 367.670261 225.512362 
L 368.026648 225.583183 
L 368.383035 224.928085 
L 368.739422 225.724826 
L 369.095808 225.335308 
L 369.452195 225.623551 
L 369.808582 226.220576 
L 370.164969 226.255987 
L 370.521356 225.583183 
L 370.877743 225.924542 
L 371.23413 226.078933 
L 371.590516 225.052022 
L 371.946903 225.654004 
L 372.30329 225.654004 
L 372.659677 224.97341 
L 373.016064 225.848763 
L 373.372451 226.078933 
L 373.728838 225.361512 
L 374.085224 225.530067 
L 374.797998 225.70712 
L 375.510772 226.008112 
L 375.867159 225.353013 
L 376.579932 225.476951 
L 376.936319 225.760237 
L 377.292706 225.44154 
L 377.649093 223.529361 
L 378.00548 225.21137 
L 378.361867 224.343808 
L 378.718254 223.848058 
L 379.074641 222.945085 
L 379.431027 220.767326 
L 379.787414 220.661094 
L 380.143801 220.695796 
L 380.500188 219.350897 
L 380.856575 216.270165 
L 381.212962 139.960074 
L 381.569349 37.269 
L 381.925735 132.877931 
L 382.282122 193.076147 
L 382.638509 217.807698 
L 382.994896 219.772993 
L 383.351283 223.529361 
L 384.064057 225.229076 
L 384.420443 225.016612 
L 384.77683 224.520862 
L 385.133217 224.662504 
L 385.489604 223.927378 
L 386.202378 212.906147 
L 386.558765 217.863647 
L 386.915151 218.571861 
L 387.271538 221.404719 
L 387.627925 222.078939 
L 387.984312 219.634183 
L 388.340699 223.416047 
L 388.697086 222.385595 
L 390.122633 225.360804 
L 390.47902 224.874969 
L 390.835407 225.299897 
L 391.191794 169.705075 
L 391.548181 224.94579 
L 391.904568 224.655422 
L 392.260954 224.651881 
L 392.617341 224.413921 
L 392.973728 224.383468 
L 393.686502 225.44154 
L 394.042889 224.304148 
L 394.399276 224.684459 
L 394.755662 224.237576 
L 395.112049 226.082474 
L 395.468436 225.882758 
L 395.824823 225.472702 
L 396.18121 222.750326 
L 396.537597 217.863647 
L 396.893984 223.221288 
L 397.25037 223.564772 
L 397.606757 224.379219 
L 397.963144 222.891969 
L 398.319531 225.073269 
L 398.675918 225.408254 
L 399.032305 225.346639 
L 399.388692 220.696504 
L 399.745078 224.272987 
L 400.101465 224.95783 
L 400.457852 224.970578 
L 400.814239 224.272987 
L 401.170626 224.662504 
L 401.527013 223.883469 
L 401.8834 224.025112 
L 402.239786 224.66038 
L 402.95256 224.535734 
L 403.308947 223.883469 
L 403.665334 223.95429 
L 404.021721 224.336726 
L 404.734495 224.464913 
L 405.090881 224.705705 
L 405.447268 224.488284 
L 405.803655 224.445791 
L 406.160042 223.547067 
L 406.516429 223.880636 
L 406.872816 223.930919 
L 407.229203 223.511656 
L 407.585589 223.746783 
L 408.298363 223.603016 
L 408.65475 223.236869 
L 409.011137 223.435169 
L 409.367524 219.032909 
L 409.723911 222.319731 
L 410.080297 222.949334 
L 410.436684 223.007408 
L 410.793071 222.931629 
L 411.149458 222.382763 
L 411.862232 222.636303 
L 412.218619 223.117889 
L 412.931392 222.997493 
L 413.287779 221.741829 
L 413.644166 222.542111 
L 414.000553 222.170298 
L 414.713327 223.051317 
L 415.782487 222.902592 
L 416.138874 223.171005 
L 416.851648 223.322563 
L 417.208035 223.161798 
L 417.564422 223.393384 
L 417.920808 223.408257 
L 418.277195 223.632761 
L 419.346356 222.762365 
L 419.702743 223.175254 
L 420.05913 223.21279 
L 420.771903 222.99041 
L 421.841064 223.472704 
L 422.197451 223.266614 
L 422.910224 223.255283 
L 423.266611 222.680213 
L 423.622998 223.319022 
L 423.979385 223.007408 
L 424.335772 222.987578 
L 424.692159 223.301316 
L 425.404932 223.145509 
L 426.117706 222.750326 
L 426.83048 222.848059 
L 427.543254 222.855141 
L 428.256027 222.556275 
L 428.968801 222.039279 
L 429.325188 222.861515 
L 429.681575 223.098059 
L 430.037962 223.154008 
L 430.750735 222.909674 
L 431.107122 222.96279 
L 431.819896 222.112933 
L 432.176283 222.608683 
L 432.889057 222.821147 
L 433.245443 222.254576 
L 434.314604 222.46704 
L 434.670991 222.901175 
L 435.027378 223.032195 
L 436.096538 222.985453 
L 436.452925 223.114348 
L 436.809312 223.115764 
L 437.165699 222.926671 
L 437.522086 222.590978 
L 437.878473 222.431629 
L 438.234859 222.148344 
L 438.591246 222.510949 
L 439.30402 222.112933 
L 440.016794 222.548485 
L 440.373181 221.93163 
L 440.729568 221.993245 
L 441.085954 221.797778 
L 441.442341 221.976956 
L 442.511502 221.5669 
L 442.867889 221.477665 
L 443.224276 220.891263 
L 443.580662 221.192254 
L 443.937049 221.208543 
L 444.293436 220.958544 
L 445.362597 220.969167 
L 446.07537 220.342397 
L 446.431757 220.005995 
L 446.788144 219.920301 
L 447.144531 220.236165 
L 447.500918 220.342397 
L 447.857305 220.287865 
L 449.995626 218.536451 
L 450.352013 218.877102 
L 450.7084 218.341692 
L 451.064786 218.377102 
L 451.77756 219.456421 
L 452.133947 219.70288 
L 452.490334 219.709962 
L 452.846721 219.518744 
L 453.203108 218.969878 
L 453.559495 219.296365 
L 453.915881 218.967753 
L 454.272268 218.266621 
L 454.628655 218.552031 
L 455.341429 218.326819 
L 455.697816 217.326821 
L 456.054203 217.821862 
L 456.410589 218.581776 
L 457.123363 219.289991 
L 457.47975 219.209254 
L 457.836137 219.267328 
L 458.192524 218.571861 
L 458.548911 219.375685 
L 458.905297 219.535033 
L 459.261684 219.406138 
L 459.618071 219.605854 
L 459.974458 219.590982 
L 460.330845 218.784326 
L 461.400005 220.3771 
L 461.756392 221.063359 
L 462.112779 220.800612 
L 462.469166 220.762368 
L 462.825553 219.669594 
L 463.18194 220.021576 
L 464.2511 220.360102 
L 464.607487 220.10727 
L 464.963874 220.14693 
L 465.320261 220.003871 
L 466.033035 220.271576 
L 466.389422 220.696504 
L 466.745808 220.820442 
L 467.102195 221.232623 
L 467.458582 220.260952 
L 467.814969 219.98829 
L 468.171356 220.997495 
L 468.88413 221.941545 
L 469.240516 221.652594 
L 469.596903 221.866474 
L 469.95329 220.820442 
L 470.309677 221.767324 
L 470.666064 222.105143 
L 471.022451 221.758826 
L 471.378838 220.696504 
L 472.091611 221.404719 
L 472.447998 221.20996 
L 472.804385 218.60798 
L 473.160772 219.439424 
L 473.517159 219.209254 
L 473.873546 218.607272 
L 474.229932 218.925969 
L 474.586319 219.945797 
L 474.942706 219.775826 
L 475.299093 220.023701 
L 475.65548 221.184464 
L 476.011867 220.200754 
L 476.368254 221.008119 
L 476.724641 221.008119 
L 477.081027 220.772283 
L 477.437414 220.82115 
L 477.793801 220.48404 
L 478.150188 220.342397 
L 478.862962 221.139138 
L 479.219349 221.114351 
L 479.932122 221.351603 
L 480.288509 221.192254 
L 480.644896 220.591689 
L 481.001283 220.891263 
L 481.714057 222.360808 
L 482.42683 221.316192 
L 482.783217 221.855851 
L 483.139604 221.941545 
L 483.495991 221.746786 
L 483.852378 221.410384 
L 484.208765 221.25741 
L 484.565151 220.149055 
L 485.277925 220.950045 
L 485.634312 221.020866 
L 485.990699 221.395512 
L 486.703473 220.696504 
L 487.059859 220.950045 
L 487.772633 220.914634 
L 488.12902 220.413219 
L 488.485407 221.103728 
L 488.841794 221.144804 
L 489.198181 222.042111 
L 489.554568 222.360808 
L 490.623728 222.821147 
L 490.980115 221.440129 
L 491.336502 221.510951 
L 491.692889 222.610808 
L 492.405662 222.852309 
L 492.762049 222.695085 
L 493.118436 223.615764 
L 493.474823 222.621431 
L 493.83121 222.978371 
L 494.187597 223.155424 
L 494.543984 222.94296 
L 494.90037 223.20854 
L 495.256757 222.649051 
L 495.613144 222.644802 
L 495.969531 223.190835 
L 496.682305 221.796361 
L 497.038692 222.608683 
L 497.395078 221.440129 
L 497.751465 214.322576 
L 498.107852 220.112227 
L 498.464239 219.280076 
L 498.820626 185.994003 
L 499.177013 223.43871 
L 499.5334 223.66888 
L 499.889786 221.853726 
L 500.246173 223.141968 
L 500.60256 223.70429 
L 500.958947 223.70429 
L 501.671721 224.182335 
L 502.028108 224.857263 
L 502.384495 223.529361 
L 502.740881 224.760238 
L 503.097268 224.768737 
L 503.453655 224.998906 
L 504.166429 225.05273 
L 504.522816 225.492532 
L 504.879203 225.457121 
L 505.235589 224.760946 
L 505.591976 225.527942 
L 505.948363 225.990406 
L 506.30475 225.565478 
L 506.661137 225.882049 
L 507.017524 225.811228 
L 507.373911 225.972701 
L 507.730297 225.884174 
L 508.086684 226.114344 
L 508.443071 224.237576 
L 508.799458 225.565478 
L 509.155845 225.689415 
L 509.512232 226.342389 
L 509.868619 226.236157 
L 510.225005 226.326808 
L 510.581392 226.149754 
L 510.937779 226.273692 
L 511.294166 225.866469 
L 511.650553 226.247488 
L 512.00694 226.225533 
L 512.719714 225.423835 
L 513.0761 225.990406 
L 513.432487 226.154712 
L 513.788874 226.574683 
L 514.145261 226.326808 
L 514.501648 226.420292 
L 514.858035 225.476243 
L 515.570808 226.288564 
L 515.927195 226.874258 
L 516.996356 227.889837 
L 517.352743 227.854426 
L 517.70913 227.557684 
L 518.065516 227.500319 
L 518.77829 228.083179 
L 519.134677 228.168165 
L 519.491064 226.62355 
L 519.847451 228.438703 
L 520.560224 228.385587 
L 520.916611 228.173123 
L 521.629385 228.370006 
L 521.985772 228.911082 
L 522.342159 227.513067 
L 523.054932 228.491819 
L 523.411319 228.897626 
L 523.767706 228.55485 
L 524.124093 227.948619 
L 524.48048 224.94579 
L 524.836867 227.235447 
L 525.193254 227.100178 
L 525.549641 226.724824 
L 526.262414 226.525108 
L 526.618801 227.083181 
L 527.331575 227.040688 
L 527.687962 227.181623 
L 528.044349 227.731197 
L 528.400735 227.916041 
L 528.757122 227.939412 
L 529.113509 228.420289 
L 530.18267 227.849469 
L 530.539057 227.92029 
L 530.895443 228.559099 
L 531.25183 228.392669 
L 531.608217 228.363632 
L 531.964604 227.389129 
L 532.320991 228.236862 
L 532.677378 228.132754 
L 533.033765 228.181621 
L 533.390151 228.540686 
L 534.815699 228.149043 
L 535.172086 228.066182 
L 536.241246 228.454992 
L 536.597633 228.282896 
L 536.95402 228.5074 
L 537.310407 228.564765 
L 537.666794 228.496777 
L 538.023181 228.910374 
L 538.379568 228.843093 
L 538.735954 228.127089 
L 539.092341 229.018022 
L 539.805115 229.63771 
L 540.161502 229.513772 
L 540.874276 229.549183 
L 541.230662 228.593094 
L 541.587049 230.039267 
L 542.299823 230.272978 
L 543.368984 229.938701 
L 544.081757 230.760938 
L 544.794531 231.78714 
L 545.150918 230.85938 
L 545.507305 231.776517 
L 546.576465 230.593799 
L 546.932852 231.368586 
L 547.645626 231.365045 
L 548.002013 230.94649 
L 548.714786 231.242523 
L 549.071173 231.015187 
L 549.42756 230.452156 
L 549.783947 231.328217 
L 550.853108 231.202863 
L 551.209495 231.669577 
L 551.565881 231.892664 
L 551.922268 238.414468 
L 552.278655 238.414964 
L 552.635042 232.006687 
L 552.991429 231.829633 
L 553.347816 238.409935 
L 553.704203 238.430969 
L 554.060589 231.603005 
L 554.416976 238.454482 
L 555.12975 238.436777 
L 555.486137 230.965612 
L 555.842524 231.036433 
L 556.198911 231.746772 
L 556.555297 231.709237 
L 556.911684 230.62921 
L 557.268071 230.930201 
L 557.624458 230.611505 
L 557.980845 230.787142 
L 558.337232 230.518728 
L 558.693619 230.725527 
L 559.050005 230.181618 
L 559.406392 230.325386 
L 559.762779 230.309097 
L 560.119166 230.098049 
L 560.475553 229.216322 
L 560.83194 230.39125 
L 561.188327 230.920994 
L 561.9011 231.287141 
L 562.257487 231.285016 
L 562.613874 231.036433 
L 562.970261 231.408246 
L 563.326648 231.003855 
L 563.683035 231.35513 
L 564.395808 231.656121 
L 564.752195 231.914619 
L 565.108582 231.789973 
L 565.464969 231.97765 
L 565.821356 238.408944 
L 566.177743 231.678783 
L 566.53413 231.314761 
L 566.890516 231.166036 
L 567.60329 231.100172 
L 568.316064 232.00952 
L 568.672451 238.405049 
L 569.028838 238.404978 
L 569.385224 231.35513 
L 569.741611 231.744647 
L 570.097998 231.39054 
L 570.454385 231.436574 
L 570.810772 231.358671 
L 571.167159 231.787848 
L 571.523546 231.981191 
L 571.879932 238.408802 
L 572.949093 238.40859 
L 573.30548 231.906828 
L 573.661867 231.77156 
L 574.018254 231.769435 
L 574.374641 238.403632 
L 574.731027 238.438264 
L 575.087414 231.941531 
L 575.443801 231.886998 
L 575.800188 231.960653 
L 576.156575 231.825384 
L 576.512962 231.912494 
L 576.869349 238.422683 
L 579.00767 238.559227 
L 579.364057 231.88629 
L 579.720443 238.503774 
L 580.07683 238.474525 
L 580.433217 231.974817 
L 580.789604 231.960653 
L 581.502378 231.34309 
L 581.858765 230.788558 
L 582.215151 229.425246 
L 582.571538 230.186576 
L 582.927925 230.257397 
L 583.284312 231.865752 
L 583.640699 231.833174 
L 583.997086 238.410219 
L 584.353473 231.656121 
L 584.709859 238.473887 
L 585.066246 238.454057 
L 585.422633 231.178076 
L 586.491794 231.835299 
L 586.848181 238.416026 
L 587.204568 231.319719 
L 587.560954 231.352297 
L 587.917341 238.453703 
L 588.273728 231.88629 
L 588.630115 231.974817 
L 588.986502 229.301308 
L 589.342889 230.7404 
L 589.699276 230.257397 
L 590.055662 230.520145 
L 590.412049 231.036433 
L 590.768436 231.857962 
L 591.124823 238.459935 
L 591.48121 231.319719 
L 591.837597 231.466319 
L 592.193984 238.510219 
L 592.55037 238.483165 
L 592.906757 231.911786 
L 593.263144 229.655415 
L 593.975918 231.746064 
L 594.332305 230.965612 
L 594.688692 231.461362 
L 595.045078 230.877085 
L 596.114239 231.107255 
L 596.470626 231.39054 
L 596.827013 232.027933 
L 597.1834 238.425587 
L 597.539786 229.90329 
L 597.896173 229.734027 
L 598.25256 230.814762 
L 598.608947 231.44224 
L 598.965334 229.508107 
L 599.678108 231.824676 
L 600.034495 230.85938 
L 600.390881 228.256692 
L 600.747268 228.410374 
L 601.103655 228.350176 
L 601.460042 227.495362 
L 601.816429 228.461366 
L 602.172816 227.105844 
L 602.885589 227.907542 
L 603.598363 227.805559 
L 603.95475 228.074681 
L 604.667524 227.117883 
L 605.023911 227.889837 
L 605.380297 227.996069 
L 605.736684 226.872841 
L 606.093071 227.39692 
L 606.449458 227.287855 
L 606.805845 226.734031 
L 607.162232 227.217033 
L 607.518619 226.68304 
L 607.875005 226.756694 
L 608.231392 227.290688 
L 608.587779 227.300603 
L 608.944166 226.716326 
L 609.300553 226.503862 
L 609.65694 226.891255 
L 610.013327 226.802728 
L 610.369714 227.525815 
L 610.7261 227.717033 
L 611.082487 227.353719 
L 611.795261 228.362924 
L 612.151648 227.513067 
L 612.508035 228.413916 
L 612.864422 227.854426 
L 613.220808 228.768023 
L 613.933582 228.893377 
L 614.289969 229.301308 
L 614.646356 229.212781 
L 615.002743 228.91179 
L 615.35913 229.478362 
L 615.715516 228.451451 
L 616.071903 229.197201 
L 616.42829 229.195076 
L 616.784677 229.620004 
L 617.141064 229.124254 
L 617.497451 229.478362 
L 618.210224 231.099464 
L 618.566611 229.230487 
L 618.922998 228.486862 
L 619.279385 228.770147 
L 619.635772 229.230487 
L 619.992159 229.38771 
L 620.348546 229.771562 
L 620.704932 228.486862 
L 621.061319 229.301308 
L 621.417706 229.549183 
L 621.774093 229.071138 
L 622.13048 228.982612 
L 622.486867 229.248192 
L 623.199641 230.202157 
L 623.556027 230.358672 
L 623.912414 230.195783 
L 624.268801 229.513772 
L 624.625188 229.620004 
L 624.981575 230.132043 
L 625.337962 230.093092 
L 625.694349 230.540683 
L 626.050735 230.151165 
L 626.407122 229.991817 
L 626.763509 230.257397 
L 627.476283 230.505272 
L 627.83267 230.611505 
L 628.189057 230.257397 
L 628.545443 230.823969 
L 628.90183 230.204281 
L 629.614604 230.469862 
L 629.970991 230.611505 
L 630.327378 230.611505 
L 630.683765 230.328219 
L 631.040151 230.965612 
L 631.396538 231.107255 
L 631.752925 231.690823 
L 632.109312 230.965612 
L 633.178473 231.107255 
L 633.534859 231.603005 
L 633.891246 231.89833 
L 634.247633 231.372835 
L 634.60402 231.996772 
L 634.960407 231.35513 
L 635.316794 231.496772 
L 635.673181 231.815469 
L 636.029568 231.461362 
L 636.385954 231.603005 
L 636.742341 238.414751 
L 637.098728 238.429907 
L 637.455115 231.107255 
L 637.811502 231.496772 
L 638.167889 231.195781 
L 638.524276 231.178076 
L 638.880662 231.35513 
L 639.237049 230.996065 
L 639.593436 231.848755 
L 639.949823 231.35513 
L 640.30621 231.425951 
L 640.662597 231.178076 
L 641.018984 231.532183 
L 641.37537 238.404695 
L 641.731757 238.428845 
L 642.088144 231.532183 
L 642.444531 231.532183 
L 642.800918 238.404553 
L 643.157305 231.816177 
L 643.513692 231.59309 
L 643.870078 238.410077 
L 644.226465 231.88629 
L 644.582852 238.436423 
L 644.939239 238.426295 
L 645.295626 231.992522 
L 645.652013 231.85088 
L 646.0084 238.413122 
L 646.364786 231.673826 
L 646.721173 231.496772 
L 647.07756 231.927367 
L 647.433947 238.405686 
L 648.859495 238.461989 
L 670.599093 238.771691 
L 672.381027 238.850941 
L 674.162962 238.843929 
L 693.051465 238.754128 
L 697.328108 238.718292 
L 699.110042 238.571833 
L 705.525005 238.527641 
L 706.594166 238.425941 
L 707.30694 238.411069 
L 707.663327 231.886998 
L 708.019714 231.229776 
L 708.3761 231.2319 
L 709.088874 230.710655 
L 709.801648 230.646207 
L 710.158035 230.964903 
L 710.514422 231.438699 
L 710.870808 231.384875 
L 711.227195 231.534308 
L 711.583582 231.896913 
L 711.939969 231.882749 
L 713.00913 231.502438 
L 713.365516 231.090257 
L 713.721903 231.001022 
L 714.434677 231.107963 
L 714.791064 231.007396 
L 715.147451 230.772977 
L 715.503838 230.738983 
L 715.860224 230.498898 
L 716.216611 230.542808 
L 716.572998 230.186576 
L 717.285772 229.832469 
L 717.642159 229.549183 
L 717.998546 229.888418 
L 718.354932 229.478362 
L 718.711319 230.009522 
L 719.067706 229.549183 
L 719.424093 229.584594 
L 719.78048 228.982612 
L 720.493254 229.075388 
L 720.849641 228.610799 
L 721.206027 228.628504 
L 721.562414 228.526522 
L 721.918801 228.717031 
L 722.275188 228.632754 
L 722.631575 228.663915 
L 722.987962 229.07043 
L 723.344349 228.504567 
L 723.700735 228.345219 
L 724.057122 227.760942 
L 724.769896 227.849469 
L 725.126283 227.566183 
L 725.48267 227.778647 
L 725.839057 227.849469 
L 726.195443 227.707826 
L 726.55183 227.991112 
L 726.908217 228.026522 
L 727.264604 227.865758 
L 727.977378 227.778647 
L 728.333765 227.991112 
L 728.690151 228.41604 
L 729.046538 229.195076 
L 729.402925 229.339552 
L 729.759312 229.195076 
L 730.472086 228.486862 
L 730.828473 228.539978 
L 731.184859 228.41604 
L 731.541246 228.770147 
L 731.897633 228.91179 
L 732.25402 228.274397 
L 732.610407 228.309808 
L 732.966794 228.522272 
L 734.035954 228.610799 
L 734.392341 229.1023 
L 734.748728 228.238987 
L 735.105115 228.486862 
L 735.461502 228.982612 
L 736.887049 229.195076 
L 737.243436 229.106549 
L 737.599823 228.256692 
L 737.95621 226.822558 
L 738.312597 228.345219 
L 738.668984 228.292103 
L 740.094531 227.637004 
L 740.450918 227.973406 
L 740.807305 227.955701 
L 741.163692 228.522272 
L 741.520078 228.274397 
L 742.589239 228.203576 
L 742.945626 227.796353 
L 743.6584 227.601594 
L 744.014786 227.406835 
L 744.371173 227.42454 
L 744.72756 227.265192 
L 745.083947 226.964201 
L 745.440334 226.503862 
L 745.796721 227.236155 
L 746.153108 227.371424 
L 746.865881 227.82114 
L 747.222268 227.477656 
L 747.578655 226.875674 
L 747.935042 226.542813 
L 748.291429 226.767317 
L 748.647816 226.593805 
L 749.004203 226.238281 
L 749.360589 226.291397 
L 749.716976 226.220576 
L 750.073363 225.908253 
L 750.42975 225.370719 
L 751.498911 225.324685 
L 751.855297 224.981201 
L 752.211684 223.95429 
L 752.568071 224.131344 
L 752.924458 225.459245 
L 753.280845 226.096638 
L 753.637232 224.892674 
L 753.993619 224.113638 
L 754.350005 224.590975 
L 754.706392 223.883469 
L 755.062779 222.484745 
L 755.419166 220.413219 
L 755.775553 222.112933 
L 756.13194 223.175254 
L 757.557487 224.520862 
L 757.913874 224.237576 
L 758.626648 224.71562 
L 758.983035 223.175254 
L 759.339422 223.175254 
L 759.695808 222.46704 
L 760.408582 224.591683 
L 760.764969 224.095933 
L 761.121356 223.812647 
L 761.477743 223.95429 
L 762.190516 223.709956 
L 762.546903 225.299897 
L 762.90329 225.99678 
L 763.259677 226.317601 
L 763.616064 225.512362 
L 763.972451 225.335308 
L 764.328838 223.812647 
L 764.685224 223.210665 
L 765.041611 223.175254 
L 765.397998 223.529361 
L 765.754385 224.414629 
L 766.110772 225.734741 
L 766.467159 225.924542 
L 767.179932 225.952871 
L 767.536319 226.224117 
L 767.892706 226.220576 
L 768.249093 226.787147 
L 768.60548 226.220576 
L 769.318254 227.112926 
L 769.674641 227.129923 
L 770.031027 227.561226 
L 770.743801 227.473407 
L 771.100188 227.431622 
L 771.456575 227.070433 
L 771.812962 227.070433 
L 772.169349 226.787147 
L 772.525735 226.787147 
L 772.882122 226.92879 
L 773.951283 226.379924 
L 774.30767 226.831057 
L 774.664057 226.149754 
L 775.020443 226.238281 
L 775.37683 226.149754 
L 775.733217 225.831058 
L 776.089604 225.724826 
L 776.445991 225.158254 
L 777.158765 224.94579 
L 777.871538 225.406129 
L 778.227925 225.087433 
L 778.584312 225.404005 
L 779.297086 225.636299 
L 779.653473 225.44154 
L 780.009859 224.981201 
L 780.366246 225.299897 
L 781.07902 225.476951 
L 781.435407 225.299897 
L 781.791794 225.406129 
L 782.148181 225.299897 
L 782.504568 225.791398 
L 782.860954 225.681625 
L 783.573728 224.804147 
L 783.930115 224.591683 
L 784.286502 224.520862 
L 784.642889 224.227661 
L 784.999276 223.706415 
L 785.355662 223.405424 
L 785.712049 223.529361 
L 786.068436 224.510947 
L 786.424823 224.556272 
L 786.78121 224.467745 
L 787.137597 224.050607 
L 787.493984 223.440835 
L 787.85037 223.838143 
L 788.206757 223.848058 
L 788.563144 223.529361 
L 788.919531 223.471288 
L 789.632305 223.707832 
L 790.345078 223.246076 
L 790.701465 223.005991 
L 791.057852 222.96279 
L 791.770626 224.414629 
L 792.127013 223.848058 
L 792.4834 223.936585 
L 793.196173 222.183754 
L 793.55256 222.254576 
L 793.908947 221.776531 
L 794.265334 221.74112 
L 794.621721 221.263076 
L 794.978108 221.068317 
L 795.334495 221.086022 
L 795.690881 220.908969 
L 796.047268 220.554861 
L 796.403655 221.050611 
L 796.760042 221.121433 
L 797.116429 221.573982 
L 797.472816 219.846647 
L 798.185589 219.811236 
L 798.541976 219.917469 
L 799.611137 219.244665 
L 799.967524 219.634183 
L 800.323911 220.554861 
L 800.680297 222.112933 
L 801.036684 221.156844 
L 802.105845 221.098062 
L 802.818619 219.510245 
L 803.175005 219.333192 
L 803.531392 220.395513 
L 803.887779 220.899762 
L 804.244166 220.993954 
L 804.600553 220.894804 
L 804.95694 220.95217 
L 805.313327 219.882058 
L 805.669714 220.49608 
L 806.382487 220.41676 
L 807.095261 220.240414 
L 807.451648 219.773701 
L 807.808035 218.920303 
L 808.164422 218.606564 
L 808.520808 218.524411 
L 808.877195 218.781493 
L 809.589969 218.717045 
L 809.946356 218.042825 
L 810.302743 218.658972 
L 811.015516 218.70713 
L 811.371903 218.10444 
L 812.084677 217.923137 
L 812.441064 216.02229 
L 812.797451 216.940136 
L 813.153838 216.427388 
L 813.510224 216.128522 
L 813.866611 216.017332 
L 814.579385 215.958551 
L 814.935772 215.916766 
L 815.292159 211.011674 
L 815.648546 213.685183 
L 816.004932 212.933059 
L 816.361319 212.923852 
L 816.717706 213.127818 
L 817.074093 213.018045 
L 817.43048 212.07612 
L 818.499641 215.539288 
L 818.856027 213.178101 
L 819.568801 213.157563 
L 820.637962 214.016627 
L 820.994349 214.310536 
L 821.350735 213.7815 
L 821.707122 213.768044 
L 822.063509 213.553455 
L 822.419896 212.840991 
L 822.776283 213.691557 
L 823.13267 213.118611 
L 823.489057 213.183059 
L 823.845443 213.64269 
L 824.558217 213.60303 
L 825.983765 210.095953 
L 826.340151 210.565499 
L 827.052925 210.308417 
L 827.409312 208.866493 
L 827.765699 209.276549 
L 828.122086 209.272299 
L 828.478473 209.122866 
L 828.834859 208.359411 
L 829.191246 208.36791 
L 829.547633 208.204312 
L 829.90402 208.324709 
L 830.260407 207.270886 
L 830.973181 206.272304 
L 831.329568 207.020178 
L 831.685954 207.015929 
L 832.042341 206.895532 
L 832.398728 205.020181 
L 833.111502 206.059839 
L 833.467889 209.578248 
L 833.824276 209.365075 
L 834.180662 209.365075 
L 834.537049 209.20077 
L 835.249823 206.532218 
L 835.60621 206.529385 
L 835.962597 206.311255 
L 836.318984 205.241144 
L 837.031757 205.145535 
L 837.744531 202.212111 
L 838.100918 202.28789 
L 838.813692 201.971318 
L 839.170078 201.999647 
L 839.526465 201.362254 
L 839.882852 201.163246 
L 840.239239 200.299932 
L 840.595626 198.458575 
L 840.952013 198.246111 
L 841.3084 197.393421 
L 841.664786 197.71495 
L 842.021173 193.695834 
L 842.37756 191.659718 
L 842.733947 191.163968 
L 843.090334 189.167512 
L 843.446721 193.333228 
L 843.803108 192.385638 
L 844.159495 192.924589 
L 844.515881 186.843861 
L 844.872268 186.436637 
L 845.228655 186.481255 
L 845.585042 187.835361 
L 845.941429 188.614396 
L 846.297816 189.766661 
L 846.654203 190.087482 
L 847.010589 189.205755 
L 847.366976 183.586075 
L 847.723363 180.558459 
L 848.07975 175.547843 
L 848.07975 175.547843 
" clip-path="url(#pedc457a4d7)" style="fill: none; stroke: #4c72b0; stroke-width: 1.2; stroke-linecap: round"/>
   </g>
   <g id="patch_3">
    <path d="M 66.87975 248.949 
L 66.87975 27.189 
" style="fill: none; stroke: #cccccc; stroke-linejoin: miter; stroke-linecap: square"/>
   </g>
   <g id="patch_4">
    <path d="M 848.07975 248.949 
L 848.07975 27.189 
" style="fill: none; stroke: #cccccc; stroke-linejoin: miter; stroke-linecap: square"/>
   </g>
   <g id="patch_5">
    <path d="M 66.87975 248.949 
L 848.07975 248.949 
" style="fill: none; stroke: #cccccc; stroke-linejoin: miter; stroke-linecap: square"/>
   </g>
   <g id="patch_6">
    <path d="M 66.87975 27.189 
L 848.07975 27.189 
" style="fill: none; stroke: #cccccc; stroke-linejoin: miter; stroke-linecap: square"/>
   </g>
   <g id="text_12">
    <!-- GASPOOL Negative Energy Imbalance Fee (€/MWh) -->
    <g style="fill: #262626" transform="translate(231.62775 21.189) scale(0.192 -0.192)">
     <defs>
      <path id="ArialMT-47" d="M 2638 1797 
L 2638 2334 
L 4578 2338 
L 4578 638 
Q 4131 281 3656 101 
Q 3181 -78 2681 -78 
Q 2006 -78 1454 211 
Q 903 500 622 1047 
Q 341 1594 341 2269 
Q 341 2938 620 3517 
Q 900 4097 1425 4378 
Q 1950 4659 2634 4659 
Q 3131 4659 3532 4498 
Q 3934 4338 4162 4050 
Q 4391 3763 4509 3300 
L 3963 3150 
Q 3859 3500 3706 3700 
Q 3553 3900 3268 4020 
Q 2984 4141 2638 4141 
Q 2222 4141 1919 4014 
Q 1616 3888 1430 3681 
Q 1244 3475 1141 3228 
Q 966 2803 966 2306 
Q 966 1694 1177 1281 
Q 1388 869 1791 669 
Q 2194 469 2647 469 
Q 3041 469 3416 620 
Q 3791 772 3984 944 
L 3984 1797 
L 2638 1797 
z
" transform="scale(0.015625)"/>
      <path id="ArialMT-41" d="M -9 0 
L 1750 4581 
L 2403 4581 
L 4278 0 
L 3588 0 
L 3053 1388 
L 1138 1388 
L 634 0 
L -9 0 
z
M 1313 1881 
L 2866 1881 
L 2388 3150 
Q 2169 3728 2063 4100 
Q 1975 3659 1816 3225 
L 1313 1881 
z
" transform="scale(0.015625)"/>
      <path id="ArialMT-53" d="M 288 1472 
L 859 1522 
Q 900 1178 1048 958 
Q 1197 738 1509 602 
Q 1822 466 2213 466 
Q 2559 466 2825 569 
Q 3091 672 3220 851 
Q 3350 1031 3350 1244 
Q 3350 1459 3225 1620 
Q 3100 1781 2813 1891 
Q 2628 1963 1997 2114 
Q 1366 2266 1113 2400 
Q 784 2572 623 2826 
Q 463 3081 463 3397 
Q 463 3744 659 4045 
Q 856 4347 1234 4503 
Q 1613 4659 2075 4659 
Q 2584 4659 2973 4495 
Q 3363 4331 3572 4012 
Q 3781 3694 3797 3291 
L 3216 3247 
Q 3169 3681 2898 3903 
Q 2628 4125 2100 4125 
Q 1550 4125 1298 3923 
Q 1047 3722 1047 3438 
Q 1047 3191 1225 3031 
Q 1400 2872 2139 2705 
Q 2878 2538 3153 2413 
Q 3553 2228 3743 1945 
Q 3934 1663 3934 1294 
Q 3934 928 3725 604 
Q 3516 281 3123 101 
Q 2731 -78 2241 -78 
Q 1619 -78 1198 103 
Q 778 284 539 648 
Q 300 1013 288 1472 
z
" transform="scale(0.015625)"/>
      <path id="ArialMT-4f" d="M 309 2231 
Q 309 3372 921 4017 
Q 1534 4663 2503 4663 
Q 3138 4663 3647 4359 
Q 4156 4056 4423 3514 
Q 4691 2972 4691 2284 
Q 4691 1588 4409 1038 
Q 4128 488 3612 205 
Q 3097 -78 2500 -78 
Q 1853 -78 1343 234 
Q 834 547 571 1087 
Q 309 1628 309 2231 
z
M 934 2222 
Q 934 1394 1379 917 
Q 1825 441 2497 441 
Q 3181 441 3623 922 
Q 4066 1403 4066 2288 
Q 4066 2847 3877 3264 
Q 3688 3681 3323 3911 
Q 2959 4141 2506 4141 
Q 1863 4141 1398 3698 
Q 934 3256 934 2222 
z
" transform="scale(0.015625)"/>
      <path id="ArialMT-4c" d="M 469 0 
L 469 4581 
L 1075 4581 
L 1075 541 
L 3331 541 
L 3331 0 
L 469 0 
z
" transform="scale(0.015625)"/>
      <path id="ArialMT-4e" d="M 488 0 
L 488 4581 
L 1109 4581 
L 3516 984 
L 3516 4581 
L 4097 4581 
L 4097 0 
L 3475 0 
L 1069 3600 
L 1069 0 
L 488 0 
z
" transform="scale(0.015625)"/>
      <path id="ArialMT-67" d="M 319 -275 
L 866 -356 
Q 900 -609 1056 -725 
Q 1266 -881 1628 -881 
Q 2019 -881 2231 -725 
Q 2444 -569 2519 -288 
Q 2563 -116 2559 434 
Q 2191 0 1641 0 
Q 956 0 581 494 
Q 206 988 206 1678 
Q 206 2153 378 2554 
Q 550 2956 876 3175 
Q 1203 3394 1644 3394 
Q 2231 3394 2613 2919 
L 2613 3319 
L 3131 3319 
L 3131 450 
Q 3131 -325 2973 -648 
Q 2816 -972 2473 -1159 
Q 2131 -1347 1631 -1347 
Q 1038 -1347 672 -1080 
Q 306 -813 319 -275 
z
M 784 1719 
Q 784 1066 1043 766 
Q 1303 466 1694 466 
Q 2081 466 2343 764 
Q 2606 1063 2606 1700 
Q 2606 2309 2336 2618 
Q 2066 2928 1684 2928 
Q 1309 2928 1046 2623 
Q 784 2319 784 1719 
z
" transform="scale(0.015625)"/>
      <path id="ArialMT-76" d="M 1344 0 
L 81 3319 
L 675 3319 
L 1388 1331 
Q 1503 1009 1600 663 
Q 1675 925 1809 1294 
L 2547 3319 
L 3125 3319 
L 1869 0 
L 1344 0 
z
" transform="scale(0.015625)"/>
      <path id="ArialMT-45" d="M 506 0 
L 506 4581 
L 3819 4581 
L 3819 4041 
L 1113 4041 
L 1113 2638 
L 3647 2638 
L 3647 2100 
L 1113 2100 
L 1113 541 
L 3925 541 
L 3925 0 
L 506 0 
z
" transform="scale(0.015625)"/>
      <path id="ArialMT-6e" d="M 422 0 
L 422 3319 
L 928 3319 
L 928 2847 
Q 1294 3394 1984 3394 
Q 2284 3394 2536 3286 
Q 2788 3178 2913 3003 
Q 3038 2828 3088 2588 
Q 3119 2431 3119 2041 
L 3119 0 
L 2556 0 
L 2556 2019 
Q 2556 2363 2490 2533 
Q 2425 2703 2258 2804 
Q 2091 2906 1866 2906 
Q 1506 2906 1245 2678 
Q 984 2450 984 1813 
L 984 0 
L 422 0 
z
" transform="scale(0.015625)"/>
      <path id="ArialMT-79" d="M 397 -1278 
L 334 -750 
Q 519 -800 656 -800 
Q 844 -800 956 -737 
Q 1069 -675 1141 -563 
Q 1194 -478 1313 -144 
Q 1328 -97 1363 -6 
L 103 3319 
L 709 3319 
L 1400 1397 
Q 1534 1031 1641 628 
Q 1738 1016 1872 1384 
L 2581 3319 
L 3144 3319 
L 1881 -56 
Q 1678 -603 1566 -809 
Q 1416 -1088 1222 -1217 
Q 1028 -1347 759 -1347 
Q 597 -1347 397 -1278 
z
" transform="scale(0.015625)"/>
      <path id="ArialMT-49" d="M 597 0 
L 597 4581 
L 1203 4581 
L 1203 0 
L 597 0 
z
" transform="scale(0.015625)"/>
      <path id="ArialMT-6d" d="M 422 0 
L 422 3319 
L 925 3319 
L 925 2853 
Q 1081 3097 1340 3245 
Q 1600 3394 1931 3394 
Q 2300 3394 2536 3241 
Q 2772 3088 2869 2813 
Q 3263 3394 3894 3394 
Q 4388 3394 4653 3120 
Q 4919 2847 4919 2278 
L 4919 0 
L 4359 0 
L 4359 2091 
Q 4359 2428 4304 2576 
Q 4250 2725 4106 2815 
Q 3963 2906 3769 2906 
Q 3419 2906 3187 2673 
Q 2956 2441 2956 1928 
L 2956 0 
L 2394 0 
L 2394 2156 
Q 2394 2531 2256 2718 
Q 2119 2906 1806 2906 
Q 1569 2906 1367 2781 
Q 1166 2656 1075 2415 
Q 984 2175 984 1722 
L 984 0 
L 422 0 
z
" transform="scale(0.015625)"/>
      <path id="ArialMT-62" d="M 941 0 
L 419 0 
L 419 4581 
L 981 4581 
L 981 2947 
Q 1338 3394 1891 3394 
Q 2197 3394 2470 3270 
Q 2744 3147 2920 2923 
Q 3097 2700 3197 2384 
Q 3297 2069 3297 1709 
Q 3297 856 2875 390 
Q 2453 -75 1863 -75 
Q 1275 -75 941 416 
L 941 0 
z
M 934 1684 
Q 934 1088 1097 822 
Q 1363 388 1816 388 
Q 2184 388 2453 708 
Q 2722 1028 2722 1663 
Q 2722 2313 2464 2622 
Q 2206 2931 1841 2931 
Q 1472 2931 1203 2611 
Q 934 2291 934 1684 
z
" transform="scale(0.015625)"/>
      <path id="ArialMT-6c" d="M 409 0 
L 409 4581 
L 972 4581 
L 972 0 
L 409 0 
z
" transform="scale(0.015625)"/>
      <path id="ArialMT-46" d="M 525 0 
L 525 4581 
L 3616 4581 
L 3616 4041 
L 1131 4041 
L 1131 2622 
L 3281 2622 
L 3281 2081 
L 1131 2081 
L 1131 0 
L 525 0 
z
" transform="scale(0.015625)"/>
     </defs>
     <use xlink:href="#ArialMT-47"/>
     <use xlink:href="#ArialMT-41" x="77.783203"/>
     <use xlink:href="#ArialMT-53" x="144.482422"/>
     <use xlink:href="#ArialMT-50" x="211.181641"/>
     <use xlink:href="#ArialMT-4f" x="277.880859"/>
     <use xlink:href="#ArialMT-4f" x="355.664062"/>
     <use xlink:href="#ArialMT-4c" x="433.447266"/>
     <use xlink:href="#ArialMT-20" x="485.3125"/>
     <use xlink:href="#ArialMT-4e" x="513.095703"/>
     <use xlink:href="#ArialMT-65" x="585.3125"/>
     <use xlink:href="#ArialMT-67" x="640.927734"/>
     <use xlink:href="#ArialMT-61" x="696.542969"/>
     <use xlink:href="#ArialMT-74" x="752.158203"/>
     <use xlink:href="#ArialMT-69" x="779.941406"/>
     <use xlink:href="#ArialMT-76" x="802.158203"/>
     <use xlink:href="#ArialMT-65" x="852.158203"/>
     <use xlink:href="#ArialMT-20" x="907.773438"/>
     <use xlink:href="#ArialMT-45" x="935.556641"/>
     <use xlink:href="#ArialMT-6e" x="1002.255859"/>
     <use xlink:href="#ArialMT-65" x="1057.871094"/>
     <use xlink:href="#ArialMT-72" x="1113.486328"/>
     <use xlink:href="#ArialMT-67" x="1146.787109"/>
     <use xlink:href="#ArialMT-79" x="1202.402344"/>
     <use xlink:href="#ArialMT-20" x="1252.402344"/>
     <use xlink:href="#ArialMT-49" x="1280.185547"/>
     <use xlink:href="#ArialMT-6d" x="1307.96875"/>
     <use xlink:href="#ArialMT-62" x="1391.269531"/>
     <use xlink:href="#ArialMT-61" x="1446.884766"/>
     <use xlink:href="#ArialMT-6c" x="1502.5"/>
     <use xlink:href="#ArialMT-61" x="1524.716797"/>
     <use xlink:href="#ArialMT-6e" x="1580.332031"/>
     <use xlink:href="#ArialMT-63" x="1635.947266"/>
     <use xlink:href="#ArialMT-65" x="1685.947266"/>
     <use xlink:href="#ArialMT-20" x="1741.5625"/>
     <use xlink:href="#ArialMT-46" x="1769.345703"/>
     <use xlink:href="#ArialMT-65" x="1830.429688"/>
     <use xlink:href="#ArialMT-65" x="1886.044922"/>
     <use xlink:href="#ArialMT-20" x="1941.660156"/>
     <use xlink:href="#ArialMT-28" x="1969.443359"/>
     <use xlink:href="#ArialMT-20ac" x="2002.744141"/>
     <use xlink:href="#ArialMT-2f" x="2058.359375"/>
     <use xlink:href="#ArialMT-4d" x="2086.142578"/>
     <use xlink:href="#ArialMT-57" x="2169.443359"/>
     <use xlink:href="#ArialMT-68" x="2263.828125"/>
     <use xlink:href="#ArialMT-29" x="2319.443359"/>
    </g>
   </g>
  </g>
 </g>
 <defs>
  <clipPath id="pedc457a4d7">
   <rect x="66.87975" y="27.189" width="781.2" height="221.76"/>
  </clipPath>
 </defs>
</svg>
