<?xml version="1.0" encoding="utf-8" standalone="no"?>
<!DOCTYPE svg PUBLIC "-//W3C//DTD SVG 1.1//EN"
  "http://www.w3.org/Graphics/SVG/1.1/DTD/svg11.dtd">
<svg xmlns:xlink="http://www.w3.org/1999/xlink" width="845.2675pt" height="320.70705pt" viewBox="0 0 845.2675 320.70705" xmlns="http://www.w3.org/2000/svg" version="1.1">
 <metadata>
  <rdf:RDF xmlns:dc="http://purl.org/dc/elements/1.1/" xmlns:cc="http://creativecommons.org/ns#" xmlns:rdf="http://www.w3.org/1999/02/22-rdf-syntax-ns#">
   <cc:Work>
    <dc:type rdf:resource="http://purl.org/dc/dcmitype/StillImage"/>
    <dc:date>2023-05-10T11:20:26.498555</dc:date>
    <dc:format>image/svg+xml</dc:format>
    <dc:creator>
     <cc:Agent>
      <dc:title>Matplotlib v3.7.1, https://matplotlib.org/</dc:title>
     </cc:Agent>
    </dc:creator>
   </cc:Work>
  </rdf:RDF>
 </metadata>
 <defs>
  <style type="text/css">*{stroke-linejoin: round; stroke-linecap: butt}</style>
 </defs>
 <g id="figure_1">
  <g id="patch_1">
   <path d="M 0 320.70705 
L 845.2675 320.70705 
L 845.2675 0 
L 0 0 
z
" style="fill: #ffffff"/>
  </g>
  <g id="axes_1">
   <g id="patch_2">
    <path d="M 56.8675 248.937 
L 838.0675 248.937 
L 838.0675 27.177 
L 56.8675 27.177 
z
" style="fill: #ffffff"/>
   </g>
   <g id="matplotlib.axis_1">
    <g id="xtick_1">
     <g id="line2d_1">
      <path d="M 56.8675 248.937 
L 56.8675 27.177 
" clip-path="url(#p4e2f701ec4)" style="fill: none; stroke: #cccccc; stroke-width: 0.8; stroke-linecap: round"/>
     </g>
     <g id="text_1">
      <!-- Jan -->
      <g style="fill: #262626" transform="translate(42.68025 269.83475) scale(0.176 -0.176)">
       <defs>
        <path id="ArialMT-4a" d="M 184 1300 
L 731 1375 
Q 753 850 928 656 
Q 1103 463 1413 463 
Q 1641 463 1806 567 
Q 1972 672 2034 851 
Q 2097 1031 2097 1425 
L 2097 4581 
L 2703 4581 
L 2703 1459 
Q 2703 884 2564 568 
Q 2425 253 2123 87 
Q 1822 -78 1416 -78 
Q 813 -78 492 269 
Q 172 616 184 1300 
z
" transform="scale(0.015625)"/>
        <path id="ArialMT-61" d="M 2588 409 
Q 2275 144 1986 34 
Q 1697 -75 1366 -75 
Q 819 -75 525 192 
Q 231 459 231 875 
Q 231 1119 342 1320 
Q 453 1522 633 1644 
Q 813 1766 1038 1828 
Q 1203 1872 1538 1913 
Q 2219 1994 2541 2106 
Q 2544 2222 2544 2253 
Q 2544 2597 2384 2738 
Q 2169 2928 1744 2928 
Q 1347 2928 1158 2789 
Q 969 2650 878 2297 
L 328 2372 
Q 403 2725 575 2942 
Q 747 3159 1072 3276 
Q 1397 3394 1825 3394 
Q 2250 3394 2515 3294 
Q 2781 3194 2906 3042 
Q 3031 2891 3081 2659 
Q 3109 2516 3109 2141 
L 3109 1391 
Q 3109 606 3145 398 
Q 3181 191 3288 0 
L 2700 0 
Q 2613 175 2588 409 
z
M 2541 1666 
Q 2234 1541 1622 1453 
Q 1275 1403 1131 1340 
Q 988 1278 909 1158 
Q 831 1038 831 891 
Q 831 666 1001 516 
Q 1172 366 1500 366 
Q 1825 366 2078 508 
Q 2331 650 2450 897 
Q 2541 1088 2541 1459 
L 2541 1666 
z
" transform="scale(0.015625)"/>
        <path id="ArialMT-6e" d="M 422 0 
L 422 3319 
L 928 3319 
L 928 2847 
Q 1294 3394 1984 3394 
Q 2284 3394 2536 3286 
Q 2788 3178 2913 3003 
Q 3038 2828 3088 2588 
Q 3119 2431 3119 2041 
L 3119 0 
L 2556 0 
L 2556 2019 
Q 2556 2363 2490 2533 
Q 2425 2703 2258 2804 
Q 2091 2906 1866 2906 
Q 1506 2906 1245 2678 
Q 984 2450 984 1813 
L 984 0 
L 422 0 
z
" transform="scale(0.015625)"/>
       </defs>
       <use xlink:href="#ArialMT-4a"/>
       <use xlink:href="#ArialMT-61" x="50"/>
       <use xlink:href="#ArialMT-6e" x="105.615234"/>
      </g>
      <!-- 2020 -->
      <g style="fill: #262626" transform="translate(37.293 288.45005) scale(0.176 -0.176)">
       <defs>
        <path id="ArialMT-32" d="M 3222 541 
L 3222 0 
L 194 0 
Q 188 203 259 391 
Q 375 700 629 1000 
Q 884 1300 1366 1694 
Q 2113 2306 2375 2664 
Q 2638 3022 2638 3341 
Q 2638 3675 2398 3904 
Q 2159 4134 1775 4134 
Q 1369 4134 1125 3890 
Q 881 3647 878 3216 
L 300 3275 
Q 359 3922 746 4261 
Q 1134 4600 1788 4600 
Q 2447 4600 2831 4234 
Q 3216 3869 3216 3328 
Q 3216 3053 3103 2787 
Q 2991 2522 2730 2228 
Q 2469 1934 1863 1422 
Q 1356 997 1212 845 
Q 1069 694 975 541 
L 3222 541 
z
" transform="scale(0.015625)"/>
        <path id="ArialMT-30" d="M 266 2259 
Q 266 3072 433 3567 
Q 600 4063 929 4331 
Q 1259 4600 1759 4600 
Q 2128 4600 2406 4451 
Q 2684 4303 2865 4023 
Q 3047 3744 3150 3342 
Q 3253 2941 3253 2259 
Q 3253 1453 3087 958 
Q 2922 463 2592 192 
Q 2263 -78 1759 -78 
Q 1097 -78 719 397 
Q 266 969 266 2259 
z
M 844 2259 
Q 844 1131 1108 757 
Q 1372 384 1759 384 
Q 2147 384 2411 759 
Q 2675 1134 2675 2259 
Q 2675 3391 2411 3762 
Q 2147 4134 1753 4134 
Q 1366 4134 1134 3806 
Q 844 3388 844 2259 
z
" transform="scale(0.015625)"/>
       </defs>
       <use xlink:href="#ArialMT-32"/>
       <use xlink:href="#ArialMT-30" x="55.615234"/>
       <use xlink:href="#ArialMT-32" x="111.230469"/>
       <use xlink:href="#ArialMT-30" x="166.845703"/>
      </g>
     </g>
    </g>
    <g id="xtick_2">
     <g id="line2d_2">
      <path d="M 123.215993 248.937 
L 123.215993 27.177 
" clip-path="url(#p4e2f701ec4)" style="fill: none; stroke: #cccccc; stroke-width: 0.8; stroke-linecap: round"/>
     </g>
     <g id="text_2">
      <!-- Feb -->
      <g style="fill: #262626" transform="translate(108.053868 269.83475) scale(0.176 -0.176)">
       <defs>
        <path id="ArialMT-46" d="M 525 0 
L 525 4581 
L 3616 4581 
L 3616 4041 
L 1131 4041 
L 1131 2622 
L 3281 2622 
L 3281 2081 
L 1131 2081 
L 1131 0 
L 525 0 
z
" transform="scale(0.015625)"/>
        <path id="ArialMT-65" d="M 2694 1069 
L 3275 997 
Q 3138 488 2766 206 
Q 2394 -75 1816 -75 
Q 1088 -75 661 373 
Q 234 822 234 1631 
Q 234 2469 665 2931 
Q 1097 3394 1784 3394 
Q 2450 3394 2872 2941 
Q 3294 2488 3294 1666 
Q 3294 1616 3291 1516 
L 816 1516 
Q 847 969 1125 678 
Q 1403 388 1819 388 
Q 2128 388 2347 550 
Q 2566 713 2694 1069 
z
M 847 1978 
L 2700 1978 
Q 2663 2397 2488 2606 
Q 2219 2931 1791 2931 
Q 1403 2931 1139 2672 
Q 875 2413 847 1978 
z
" transform="scale(0.015625)"/>
        <path id="ArialMT-62" d="M 941 0 
L 419 0 
L 419 4581 
L 981 4581 
L 981 2947 
Q 1338 3394 1891 3394 
Q 2197 3394 2470 3270 
Q 2744 3147 2920 2923 
Q 3097 2700 3197 2384 
Q 3297 2069 3297 1709 
Q 3297 856 2875 390 
Q 2453 -75 1863 -75 
Q 1275 -75 941 416 
L 941 0 
z
M 934 1684 
Q 934 1088 1097 822 
Q 1363 388 1816 388 
Q 2184 388 2453 708 
Q 2722 1028 2722 1663 
Q 2722 2313 2464 2622 
Q 2206 2931 1841 2931 
Q 1472 2931 1203 2611 
Q 934 2291 934 1684 
z
" transform="scale(0.015625)"/>
       </defs>
       <use xlink:href="#ArialMT-46"/>
       <use xlink:href="#ArialMT-65" x="61.083984"/>
       <use xlink:href="#ArialMT-62" x="116.699219"/>
      </g>
     </g>
    </g>
    <g id="xtick_3">
     <g id="line2d_3">
      <path d="M 185.283938 248.937 
L 185.283938 27.177 
" clip-path="url(#p4e2f701ec4)" style="fill: none; stroke: #cccccc; stroke-width: 0.8; stroke-linecap: round"/>
     </g>
     <g id="text_3">
      <!-- Mar -->
      <g style="fill: #262626" transform="translate(170.130063 269.83475) scale(0.176 -0.176)">
       <defs>
        <path id="ArialMT-4d" d="M 475 0 
L 475 4581 
L 1388 4581 
L 2472 1338 
Q 2622 884 2691 659 
Q 2769 909 2934 1394 
L 4031 4581 
L 4847 4581 
L 4847 0 
L 4263 0 
L 4263 3834 
L 2931 0 
L 2384 0 
L 1059 3900 
L 1059 0 
L 475 0 
z
" transform="scale(0.015625)"/>
        <path id="ArialMT-72" d="M 416 0 
L 416 3319 
L 922 3319 
L 922 2816 
Q 1116 3169 1280 3281 
Q 1444 3394 1641 3394 
Q 1925 3394 2219 3213 
L 2025 2691 
Q 1819 2813 1613 2813 
Q 1428 2813 1281 2702 
Q 1134 2591 1072 2394 
Q 978 2094 978 1738 
L 978 0 
L 416 0 
z
" transform="scale(0.015625)"/>
       </defs>
       <use xlink:href="#ArialMT-4d"/>
       <use xlink:href="#ArialMT-61" x="83.300781"/>
       <use xlink:href="#ArialMT-72" x="138.916016"/>
      </g>
     </g>
    </g>
    <g id="xtick_4">
     <g id="line2d_4">
      <path d="M 251.632432 248.937 
L 251.632432 27.177 
" clip-path="url(#p4e2f701ec4)" style="fill: none; stroke: #cccccc; stroke-width: 0.8; stroke-linecap: round"/>
     </g>
     <g id="text_4">
      <!-- Apr -->
      <g style="fill: #262626" transform="translate(237.938807 269.83475) scale(0.176 -0.176)">
       <defs>
        <path id="ArialMT-41" d="M -9 0 
L 1750 4581 
L 2403 4581 
L 4278 0 
L 3588 0 
L 3053 1388 
L 1138 1388 
L 634 0 
L -9 0 
z
M 1313 1881 
L 2866 1881 
L 2388 3150 
Q 2169 3728 2063 4100 
Q 1975 3659 1816 3225 
L 1313 1881 
z
" transform="scale(0.015625)"/>
        <path id="ArialMT-70" d="M 422 -1272 
L 422 3319 
L 934 3319 
L 934 2888 
Q 1116 3141 1344 3267 
Q 1572 3394 1897 3394 
Q 2322 3394 2647 3175 
Q 2972 2956 3137 2557 
Q 3303 2159 3303 1684 
Q 3303 1175 3120 767 
Q 2938 359 2589 142 
Q 2241 -75 1856 -75 
Q 1575 -75 1351 44 
Q 1128 163 984 344 
L 984 -1272 
L 422 -1272 
z
M 931 1641 
Q 931 1000 1190 694 
Q 1450 388 1819 388 
Q 2194 388 2461 705 
Q 2728 1022 2728 1688 
Q 2728 2322 2467 2637 
Q 2206 2953 1844 2953 
Q 1484 2953 1207 2617 
Q 931 2281 931 1641 
z
" transform="scale(0.015625)"/>
       </defs>
       <use xlink:href="#ArialMT-41"/>
       <use xlink:href="#ArialMT-70" x="66.699219"/>
       <use xlink:href="#ArialMT-72" x="122.314453"/>
      </g>
     </g>
    </g>
    <g id="xtick_5">
     <g id="line2d_5">
      <path d="M 315.840651 248.937 
L 315.840651 27.177 
" clip-path="url(#p4e2f701ec4)" style="fill: none; stroke: #cccccc; stroke-width: 0.8; stroke-linecap: round"/>
     </g>
     <g id="text_5">
      <!-- May -->
      <g style="fill: #262626" transform="translate(299.216901 269.83475) scale(0.176 -0.176)">
       <defs>
        <path id="ArialMT-79" d="M 397 -1278 
L 334 -750 
Q 519 -800 656 -800 
Q 844 -800 956 -737 
Q 1069 -675 1141 -563 
Q 1194 -478 1313 -144 
Q 1328 -97 1363 -6 
L 103 3319 
L 709 3319 
L 1400 1397 
Q 1534 1031 1641 628 
Q 1738 1016 1872 1384 
L 2581 3319 
L 3144 3319 
L 1881 -56 
Q 1678 -603 1566 -809 
Q 1416 -1088 1222 -1217 
Q 1028 -1347 759 -1347 
Q 597 -1347 397 -1278 
z
" transform="scale(0.015625)"/>
       </defs>
       <use xlink:href="#ArialMT-4d"/>
       <use xlink:href="#ArialMT-61" x="83.300781"/>
       <use xlink:href="#ArialMT-79" x="138.916016"/>
      </g>
     </g>
    </g>
    <g id="xtick_6">
     <g id="line2d_6">
      <path d="M 382.189144 248.937 
L 382.189144 27.177 
" clip-path="url(#p4e2f701ec4)" style="fill: none; stroke: #cccccc; stroke-width: 0.8; stroke-linecap: round"/>
     </g>
     <g id="text_6">
      <!-- Jun -->
      <g style="fill: #262626" transform="translate(368.001894 269.83475) scale(0.176 -0.176)">
       <defs>
        <path id="ArialMT-75" d="M 2597 0 
L 2597 488 
Q 2209 -75 1544 -75 
Q 1250 -75 995 37 
Q 741 150 617 320 
Q 494 491 444 738 
Q 409 903 409 1263 
L 409 3319 
L 972 3319 
L 972 1478 
Q 972 1038 1006 884 
Q 1059 663 1231 536 
Q 1403 409 1656 409 
Q 1909 409 2131 539 
Q 2353 669 2445 892 
Q 2538 1116 2538 1541 
L 2538 3319 
L 3100 3319 
L 3100 0 
L 2597 0 
z
" transform="scale(0.015625)"/>
       </defs>
       <use xlink:href="#ArialMT-4a"/>
       <use xlink:href="#ArialMT-75" x="50"/>
       <use xlink:href="#ArialMT-6e" x="105.615234"/>
      </g>
     </g>
    </g>
    <g id="xtick_7">
     <g id="line2d_7">
      <path d="M 446.397363 248.937 
L 446.397363 27.177 
" clip-path="url(#p4e2f701ec4)" style="fill: none; stroke: #cccccc; stroke-width: 0.8; stroke-linecap: round"/>
     </g>
     <g id="text_7">
      <!-- Jul -->
      <g style="fill: #262626" transform="translate(435.148488 269.83475) scale(0.176 -0.176)">
       <defs>
        <path id="ArialMT-6c" d="M 409 0 
L 409 4581 
L 972 4581 
L 972 0 
L 409 0 
z
" transform="scale(0.015625)"/>
       </defs>
       <use xlink:href="#ArialMT-4a"/>
       <use xlink:href="#ArialMT-75" x="50"/>
       <use xlink:href="#ArialMT-6c" x="105.615234"/>
      </g>
     </g>
    </g>
    <g id="xtick_8">
     <g id="line2d_8">
      <path d="M 512.745856 248.937 
L 512.745856 27.177 
" clip-path="url(#p4e2f701ec4)" style="fill: none; stroke: #cccccc; stroke-width: 0.8; stroke-linecap: round"/>
     </g>
     <g id="text_8">
      <!-- Aug -->
      <g style="fill: #262626" transform="translate(497.088731 269.83475) scale(0.176 -0.176)">
       <defs>
        <path id="ArialMT-67" d="M 319 -275 
L 866 -356 
Q 900 -609 1056 -725 
Q 1266 -881 1628 -881 
Q 2019 -881 2231 -725 
Q 2444 -569 2519 -288 
Q 2563 -116 2559 434 
Q 2191 0 1641 0 
Q 956 0 581 494 
Q 206 988 206 1678 
Q 206 2153 378 2554 
Q 550 2956 876 3175 
Q 1203 3394 1644 3394 
Q 2231 3394 2613 2919 
L 2613 3319 
L 3131 3319 
L 3131 450 
Q 3131 -325 2973 -648 
Q 2816 -972 2473 -1159 
Q 2131 -1347 1631 -1347 
Q 1038 -1347 672 -1080 
Q 306 -813 319 -275 
z
M 784 1719 
Q 784 1066 1043 766 
Q 1303 466 1694 466 
Q 2081 466 2343 764 
Q 2606 1063 2606 1700 
Q 2606 2309 2336 2618 
Q 2066 2928 1684 2928 
Q 1309 2928 1046 2623 
Q 784 2319 784 1719 
z
" transform="scale(0.015625)"/>
       </defs>
       <use xlink:href="#ArialMT-41"/>
       <use xlink:href="#ArialMT-75" x="66.699219"/>
       <use xlink:href="#ArialMT-67" x="122.314453"/>
      </g>
     </g>
    </g>
    <g id="xtick_9">
     <g id="line2d_9">
      <path d="M 579.094349 248.937 
L 579.094349 27.177 
" clip-path="url(#p4e2f701ec4)" style="fill: none; stroke: #cccccc; stroke-width: 0.8; stroke-linecap: round"/>
     </g>
     <g id="text_9">
      <!-- Sep -->
      <g style="fill: #262626" transform="translate(563.437224 270.04925) scale(0.176 -0.176)">
       <defs>
        <path id="ArialMT-53" d="M 288 1472 
L 859 1522 
Q 900 1178 1048 958 
Q 1197 738 1509 602 
Q 1822 466 2213 466 
Q 2559 466 2825 569 
Q 3091 672 3220 851 
Q 3350 1031 3350 1244 
Q 3350 1459 3225 1620 
Q 3100 1781 2813 1891 
Q 2628 1963 1997 2114 
Q 1366 2266 1113 2400 
Q 784 2572 623 2826 
Q 463 3081 463 3397 
Q 463 3744 659 4045 
Q 856 4347 1234 4503 
Q 1613 4659 2075 4659 
Q 2584 4659 2973 4495 
Q 3363 4331 3572 4012 
Q 3781 3694 3797 3291 
L 3216 3247 
Q 3169 3681 2898 3903 
Q 2628 4125 2100 4125 
Q 1550 4125 1298 3923 
Q 1047 3722 1047 3438 
Q 1047 3191 1225 3031 
Q 1400 2872 2139 2705 
Q 2878 2538 3153 2413 
Q 3553 2228 3743 1945 
Q 3934 1663 3934 1294 
Q 3934 928 3725 604 
Q 3516 281 3123 101 
Q 2731 -78 2241 -78 
Q 1619 -78 1198 103 
Q 778 284 539 648 
Q 300 1013 288 1472 
z
" transform="scale(0.015625)"/>
       </defs>
       <use xlink:href="#ArialMT-53"/>
       <use xlink:href="#ArialMT-65" x="66.699219"/>
       <use xlink:href="#ArialMT-70" x="122.314453"/>
      </g>
     </g>
    </g>
    <g id="xtick_10">
     <g id="line2d_10">
      <path d="M 643.302568 248.937 
L 643.302568 27.177 
" clip-path="url(#p4e2f701ec4)" style="fill: none; stroke: #cccccc; stroke-width: 0.8; stroke-linecap: round"/>
     </g>
     <g id="text_10">
      <!-- Oct -->
      <g style="fill: #262626" transform="translate(629.613068 269.83475) scale(0.176 -0.176)">
       <defs>
        <path id="ArialMT-4f" d="M 309 2231 
Q 309 3372 921 4017 
Q 1534 4663 2503 4663 
Q 3138 4663 3647 4359 
Q 4156 4056 4423 3514 
Q 4691 2972 4691 2284 
Q 4691 1588 4409 1038 
Q 4128 488 3612 205 
Q 3097 -78 2500 -78 
Q 1853 -78 1343 234 
Q 834 547 571 1087 
Q 309 1628 309 2231 
z
M 934 2222 
Q 934 1394 1379 917 
Q 1825 441 2497 441 
Q 3181 441 3623 922 
Q 4066 1403 4066 2288 
Q 4066 2847 3877 3264 
Q 3688 3681 3323 3911 
Q 2959 4141 2506 4141 
Q 1863 4141 1398 3698 
Q 934 3256 934 2222 
z
" transform="scale(0.015625)"/>
        <path id="ArialMT-63" d="M 2588 1216 
L 3141 1144 
Q 3050 572 2676 248 
Q 2303 -75 1759 -75 
Q 1078 -75 664 370 
Q 250 816 250 1647 
Q 250 2184 428 2587 
Q 606 2991 970 3192 
Q 1334 3394 1763 3394 
Q 2303 3394 2647 3120 
Q 2991 2847 3088 2344 
L 2541 2259 
Q 2463 2594 2264 2762 
Q 2066 2931 1784 2931 
Q 1359 2931 1093 2626 
Q 828 2322 828 1663 
Q 828 994 1084 691 
Q 1341 388 1753 388 
Q 2084 388 2306 591 
Q 2528 794 2588 1216 
z
" transform="scale(0.015625)"/>
        <path id="ArialMT-74" d="M 1650 503 
L 1731 6 
Q 1494 -44 1306 -44 
Q 1000 -44 831 53 
Q 663 150 594 308 
Q 525 466 525 972 
L 525 2881 
L 113 2881 
L 113 3319 
L 525 3319 
L 525 4141 
L 1084 4478 
L 1084 3319 
L 1650 3319 
L 1650 2881 
L 1084 2881 
L 1084 941 
Q 1084 700 1114 631 
Q 1144 563 1211 522 
Q 1278 481 1403 481 
Q 1497 481 1650 503 
z
" transform="scale(0.015625)"/>
       </defs>
       <use xlink:href="#ArialMT-4f"/>
       <use xlink:href="#ArialMT-63" x="77.783203"/>
       <use xlink:href="#ArialMT-74" x="127.783203"/>
      </g>
     </g>
    </g>
    <g id="xtick_11">
     <g id="line2d_11">
      <path d="M 709.651062 248.937 
L 709.651062 27.177 
" clip-path="url(#p4e2f701ec4)" style="fill: none; stroke: #cccccc; stroke-width: 0.8; stroke-linecap: round"/>
     </g>
     <g id="text_11">
      <!-- Nov -->
      <g style="fill: #262626" transform="translate(694.002187 269.83475) scale(0.176 -0.176)">
       <defs>
        <path id="ArialMT-4e" d="M 488 0 
L 488 4581 
L 1109 4581 
L 3516 984 
L 3516 4581 
L 4097 4581 
L 4097 0 
L 3475 0 
L 1069 3600 
L 1069 0 
L 488 0 
z
" transform="scale(0.015625)"/>
        <path id="ArialMT-6f" d="M 213 1659 
Q 213 2581 725 3025 
Q 1153 3394 1769 3394 
Q 2453 3394 2887 2945 
Q 3322 2497 3322 1706 
Q 3322 1066 3130 698 
Q 2938 331 2570 128 
Q 2203 -75 1769 -75 
Q 1072 -75 642 372 
Q 213 819 213 1659 
z
M 791 1659 
Q 791 1022 1069 705 
Q 1347 388 1769 388 
Q 2188 388 2466 706 
Q 2744 1025 2744 1678 
Q 2744 2294 2464 2611 
Q 2184 2928 1769 2928 
Q 1347 2928 1069 2612 
Q 791 2297 791 1659 
z
" transform="scale(0.015625)"/>
        <path id="ArialMT-76" d="M 1344 0 
L 81 3319 
L 675 3319 
L 1388 1331 
Q 1503 1009 1600 663 
Q 1675 925 1809 1294 
L 2547 3319 
L 3125 3319 
L 1869 0 
L 1344 0 
z
" transform="scale(0.015625)"/>
       </defs>
       <use xlink:href="#ArialMT-4e"/>
       <use xlink:href="#ArialMT-6f" x="72.216797"/>
       <use xlink:href="#ArialMT-76" x="127.832031"/>
      </g>
     </g>
    </g>
    <g id="xtick_12">
     <g id="line2d_12">
      <path d="M 773.859281 248.937 
L 773.859281 27.177 
" clip-path="url(#p4e2f701ec4)" style="fill: none; stroke: #cccccc; stroke-width: 0.8; stroke-linecap: round"/>
     </g>
     <g id="text_12">
      <!-- Dec -->
      <g style="fill: #262626" transform="translate(758.210406 269.83475) scale(0.176 -0.176)">
       <defs>
        <path id="ArialMT-44" d="M 494 0 
L 494 4581 
L 2072 4581 
Q 2606 4581 2888 4516 
Q 3281 4425 3559 4188 
Q 3922 3881 4101 3404 
Q 4281 2928 4281 2316 
Q 4281 1794 4159 1391 
Q 4038 988 3847 723 
Q 3656 459 3429 307 
Q 3203 156 2883 78 
Q 2563 0 2147 0 
L 494 0 
z
M 1100 541 
L 2078 541 
Q 2531 541 2789 625 
Q 3047 709 3200 863 
Q 3416 1078 3536 1442 
Q 3656 1806 3656 2325 
Q 3656 3044 3420 3430 
Q 3184 3816 2847 3947 
Q 2603 4041 2063 4041 
L 1100 4041 
L 1100 541 
z
" transform="scale(0.015625)"/>
       </defs>
       <use xlink:href="#ArialMT-44"/>
       <use xlink:href="#ArialMT-65" x="72.216797"/>
       <use xlink:href="#ArialMT-63" x="127.832031"/>
      </g>
     </g>
    </g>
    <g id="xtick_13">
     <g id="line2d_13">
      <path d="M 838.0675 248.937 
L 838.0675 27.177 
" clip-path="url(#p4e2f701ec4)" style="fill: none; stroke: #cccccc; stroke-width: 0.8; stroke-linecap: round"/>
     </g>
    </g>
    <g id="xtick_14"/>
    <g id="xtick_15"/>
    <g id="xtick_16"/>
    <g id="xtick_17"/>
    <g id="xtick_18"/>
    <g id="xtick_19"/>
    <g id="xtick_20"/>
    <g id="xtick_21"/>
    <g id="xtick_22"/>
    <g id="xtick_23"/>
    <g id="xtick_24"/>
    <g id="xtick_25"/>
    <g id="xtick_26"/>
    <g id="xtick_27"/>
    <g id="xtick_28"/>
    <g id="xtick_29"/>
    <g id="xtick_30"/>
    <g id="xtick_31"/>
    <g id="xtick_32"/>
    <g id="xtick_33"/>
    <g id="xtick_34"/>
    <g id="xtick_35"/>
    <g id="xtick_36"/>
    <g id="xtick_37"/>
    <g id="xtick_38"/>
    <g id="xtick_39"/>
    <g id="xtick_40"/>
    <g id="xtick_41"/>
    <g id="xtick_42"/>
    <g id="xtick_43"/>
    <g id="xtick_44"/>
    <g id="xtick_45"/>
    <g id="xtick_46"/>
    <g id="xtick_47"/>
    <g id="xtick_48"/>
    <g id="xtick_49"/>
    <g id="xtick_50"/>
    <g id="xtick_51"/>
    <g id="xtick_52"/>
    <g id="xtick_53"/>
    <g id="xtick_54"/>
    <g id="xtick_55"/>
    <g id="xtick_56"/>
    <g id="xtick_57"/>
    <g id="xtick_58"/>
    <g id="xtick_59"/>
    <g id="xtick_60"/>
    <g id="xtick_61"/>
    <g id="xtick_62"/>
    <g id="xtick_63"/>
    <g id="xtick_64"/>
    <g id="text_13">
     <!-- Date -->
     <g style="fill: #262626" transform="translate(427.1905 309.69105) scale(0.192 -0.192)">
      <use xlink:href="#ArialMT-44"/>
      <use xlink:href="#ArialMT-61" x="72.216797"/>
      <use xlink:href="#ArialMT-74" x="127.832031"/>
      <use xlink:href="#ArialMT-65" x="155.615234"/>
     </g>
    </g>
   </g>
   <g id="matplotlib.axis_2">
    <g id="ytick_1">
     <g id="line2d_14">
      <path d="M 56.8675 235.029997 
L 838.0675 235.029997 
" clip-path="url(#p4e2f701ec4)" style="fill: none; stroke: #cccccc; stroke-width: 0.8; stroke-linecap: round"/>
     </g>
     <g id="text_14">
      <!-- 0 -->
      <g style="fill: #262626" transform="translate(38.78025 241.328872) scale(0.176 -0.176)">
       <use xlink:href="#ArialMT-30"/>
      </g>
     </g>
    </g>
    <g id="ytick_2">
     <g id="line2d_15">
      <path d="M 56.8675 196.123095 
L 838.0675 196.123095 
" clip-path="url(#p4e2f701ec4)" style="fill: none; stroke: #cccccc; stroke-width: 0.8; stroke-linecap: round"/>
     </g>
     <g id="text_15">
      <!-- 5 -->
      <g style="fill: #262626" transform="translate(38.78025 202.42197) scale(0.176 -0.176)">
       <defs>
        <path id="ArialMT-35" d="M 266 1200 
L 856 1250 
Q 922 819 1161 601 
Q 1400 384 1738 384 
Q 2144 384 2425 690 
Q 2706 997 2706 1503 
Q 2706 1984 2436 2262 
Q 2166 2541 1728 2541 
Q 1456 2541 1237 2417 
Q 1019 2294 894 2097 
L 366 2166 
L 809 4519 
L 3088 4519 
L 3088 3981 
L 1259 3981 
L 1013 2750 
Q 1425 3038 1878 3038 
Q 2478 3038 2890 2622 
Q 3303 2206 3303 1553 
Q 3303 931 2941 478 
Q 2500 -78 1738 -78 
Q 1113 -78 717 272 
Q 322 622 266 1200 
z
" transform="scale(0.015625)"/>
       </defs>
       <use xlink:href="#ArialMT-35"/>
      </g>
     </g>
    </g>
    <g id="ytick_3">
     <g id="line2d_16">
      <path d="M 56.8675 157.216193 
L 838.0675 157.216193 
" clip-path="url(#p4e2f701ec4)" style="fill: none; stroke: #cccccc; stroke-width: 0.8; stroke-linecap: round"/>
     </g>
     <g id="text_16">
      <!-- 10 -->
      <g style="fill: #262626" transform="translate(28.993 163.515068) scale(0.176 -0.176)">
       <defs>
        <path id="ArialMT-31" d="M 2384 0 
L 1822 0 
L 1822 3584 
Q 1619 3391 1289 3197 
Q 959 3003 697 2906 
L 697 3450 
Q 1169 3672 1522 3987 
Q 1875 4303 2022 4600 
L 2384 4600 
L 2384 0 
z
" transform="scale(0.015625)"/>
       </defs>
       <use xlink:href="#ArialMT-31"/>
       <use xlink:href="#ArialMT-30" x="55.615234"/>
      </g>
     </g>
    </g>
    <g id="ytick_4">
     <g id="line2d_17">
      <path d="M 56.8675 118.309291 
L 838.0675 118.309291 
" clip-path="url(#p4e2f701ec4)" style="fill: none; stroke: #cccccc; stroke-width: 0.8; stroke-linecap: round"/>
     </g>
     <g id="text_17">
      <!-- 15 -->
      <g style="fill: #262626" transform="translate(28.993 124.608166) scale(0.176 -0.176)">
       <use xlink:href="#ArialMT-31"/>
       <use xlink:href="#ArialMT-35" x="55.615234"/>
      </g>
     </g>
    </g>
    <g id="ytick_5">
     <g id="line2d_18">
      <path d="M 56.8675 79.402389 
L 838.0675 79.402389 
" clip-path="url(#p4e2f701ec4)" style="fill: none; stroke: #cccccc; stroke-width: 0.8; stroke-linecap: round"/>
     </g>
     <g id="text_18">
      <!-- 20 -->
      <g style="fill: #262626" transform="translate(28.993 85.701264) scale(0.176 -0.176)">
       <use xlink:href="#ArialMT-32"/>
       <use xlink:href="#ArialMT-30" x="55.615234"/>
      </g>
     </g>
    </g>
    <g id="ytick_6">
     <g id="line2d_19">
      <path d="M 56.8675 40.495487 
L 838.0675 40.495487 
" clip-path="url(#p4e2f701ec4)" style="fill: none; stroke: #cccccc; stroke-width: 0.8; stroke-linecap: round"/>
     </g>
     <g id="text_19">
      <!-- 25 -->
      <g style="fill: #262626" transform="translate(28.993 46.794362) scale(0.176 -0.176)">
       <use xlink:href="#ArialMT-32"/>
       <use xlink:href="#ArialMT-35" x="55.615234"/>
      </g>
     </g>
    </g>
    <g id="text_20">
     <!-- Temperature [°C] -->
     <g style="fill: #262626" transform="translate(21.177 210.7125) rotate(-90) scale(0.192 -0.192)">
      <defs>
       <path id="ArialMT-54" d="M 1659 0 
L 1659 4041 
L 150 4041 
L 150 4581 
L 3781 4581 
L 3781 4041 
L 2266 4041 
L 2266 0 
L 1659 0 
z
" transform="scale(0.015625)"/>
       <path id="ArialMT-6d" d="M 422 0 
L 422 3319 
L 925 3319 
L 925 2853 
Q 1081 3097 1340 3245 
Q 1600 3394 1931 3394 
Q 2300 3394 2536 3241 
Q 2772 3088 2869 2813 
Q 3263 3394 3894 3394 
Q 4388 3394 4653 3120 
Q 4919 2847 4919 2278 
L 4919 0 
L 4359 0 
L 4359 2091 
Q 4359 2428 4304 2576 
Q 4250 2725 4106 2815 
Q 3963 2906 3769 2906 
Q 3419 2906 3187 2673 
Q 2956 2441 2956 1928 
L 2956 0 
L 2394 0 
L 2394 2156 
Q 2394 2531 2256 2718 
Q 2119 2906 1806 2906 
Q 1569 2906 1367 2781 
Q 1166 2656 1075 2415 
Q 984 2175 984 1722 
L 984 0 
L 422 0 
z
" transform="scale(0.015625)"/>
       <path id="ArialMT-20" transform="scale(0.015625)"/>
       <path id="ArialMT-5b" d="M 434 -1272 
L 434 4581 
L 1675 4581 
L 1675 4116 
L 997 4116 
L 997 -806 
L 1675 -806 
L 1675 -1272 
L 434 -1272 
z
" transform="scale(0.015625)"/>
       <path id="ArialMT-b0" d="M 400 3794 
Q 400 4153 654 4406 
Q 909 4659 1266 4659 
Q 1628 4659 1881 4406 
Q 2134 4153 2134 3794 
Q 2134 3434 1879 3179 
Q 1625 2925 1266 2925 
Q 909 2925 654 3178 
Q 400 3431 400 3794 
z
M 741 3794 
Q 741 3575 895 3420 
Q 1050 3266 1269 3266 
Q 1484 3266 1639 3420 
Q 1794 3575 1794 3794 
Q 1794 4013 1639 4167 
Q 1484 4322 1269 4322 
Q 1050 4322 895 4167 
Q 741 4013 741 3794 
z
" transform="scale(0.015625)"/>
       <path id="ArialMT-43" d="M 3763 1606 
L 4369 1453 
Q 4178 706 3683 314 
Q 3188 -78 2472 -78 
Q 1731 -78 1267 223 
Q 803 525 561 1097 
Q 319 1669 319 2325 
Q 319 3041 592 3573 
Q 866 4106 1370 4382 
Q 1875 4659 2481 4659 
Q 3169 4659 3637 4309 
Q 4106 3959 4291 3325 
L 3694 3184 
Q 3534 3684 3231 3912 
Q 2928 4141 2469 4141 
Q 1941 4141 1586 3887 
Q 1231 3634 1087 3207 
Q 944 2781 944 2328 
Q 944 1744 1114 1308 
Q 1284 872 1643 656 
Q 2003 441 2422 441 
Q 2931 441 3284 734 
Q 3638 1028 3763 1606 
z
" transform="scale(0.015625)"/>
       <path id="ArialMT-5d" d="M 1363 -1272 
L 122 -1272 
L 122 -806 
L 800 -806 
L 800 4116 
L 122 4116 
L 122 4581 
L 1363 4581 
L 1363 -1272 
z
" transform="scale(0.015625)"/>
      </defs>
      <use xlink:href="#ArialMT-54"/>
      <use xlink:href="#ArialMT-65" x="49.958984"/>
      <use xlink:href="#ArialMT-6d" x="105.574219"/>
      <use xlink:href="#ArialMT-70" x="188.875"/>
      <use xlink:href="#ArialMT-65" x="244.490234"/>
      <use xlink:href="#ArialMT-72" x="300.105469"/>
      <use xlink:href="#ArialMT-61" x="333.40625"/>
      <use xlink:href="#ArialMT-74" x="389.021484"/>
      <use xlink:href="#ArialMT-75" x="416.804688"/>
      <use xlink:href="#ArialMT-72" x="472.419922"/>
      <use xlink:href="#ArialMT-65" x="505.720703"/>
      <use xlink:href="#ArialMT-20" x="561.335938"/>
      <use xlink:href="#ArialMT-5b" x="589.119141"/>
      <use xlink:href="#ArialMT-b0" x="616.902344"/>
      <use xlink:href="#ArialMT-43" x="656.892578"/>
      <use xlink:href="#ArialMT-5d" x="729.109375"/>
     </g>
    </g>
   </g>
   <g id="line2d_20">
    <path d="M 56.8675 236.585398 
L 59.007774 238.820337 
L 61.148048 201.619836 
L 63.288322 205.065081 
L 65.428596 215.366358 
L 67.56887 217.614548 
L 69.709144 212.386618 
L 71.849418 193.379244 
L 73.989692 172.046989 
L 76.129966 179.177804 
L 78.27024 209.618 
L 80.410514 214.294269 
L 82.550788 201.700973 
L 84.691062 184.829825 
L 86.831336 170.983109 
L 88.97161 186.834448 
L 93.252158 206.795855 
L 95.392432 220.05616 
L 97.532705 223.597441 
L 99.672979 235.055974 
L 101.813253 232.625791 
L 103.953527 229.259951 
L 106.093801 238.516879 
L 108.234075 232.409361 
L 110.374349 223.780631 
L 112.514623 197.82772 
L 114.654897 202.105177 
L 116.795171 211.687296 
L 118.935445 191.824719 
L 121.075719 155.66941 
L 123.215993 155.818975 
L 125.356267 173.87299 
L 127.496541 174.499855 
L 129.636815 205.248271 
L 131.777089 218.41211 
L 133.917363 219.225916 
L 136.057637 215.914051 
L 138.197911 210.682797 
L 140.338185 175.654216 
L 142.478459 179.39956 
L 144.618733 206.330431 
L 146.759007 211.152799 
L 148.899281 212.238775 
L 151.039555 198.445828 
L 153.179829 188.687857 
L 155.320103 149.603079 
L 157.460377 172.77256 
L 159.600651 190.724743 
L 161.740925 201.587758 
L 163.881199 195.602193 
L 166.021473 196.826321 
L 168.161747 178.415423 
L 170.302021 171.798312 
L 172.442295 189.826386 
L 174.582568 182.394827 
L 176.722842 216.856567 
L 178.863116 219.797339 
L 181.00339 214.386718 
L 183.143664 183.183386 
L 185.283938 185.276681 
L 187.424212 191.980762 
L 189.564486 204.871659 
L 191.70476 211.315663 
L 193.845034 200.927712 
L 195.985308 199.237285 
L 198.125582 204.144911 
L 200.265856 189.387568 
L 202.40613 186.341712 
L 204.546404 185.185577 
L 206.686678 154.065746 
L 208.826952 161.896347 
L 210.967226 191.742551 
L 213.1075 205.164634 
L 215.247774 181.648227 
L 217.388048 166.630461 
L 219.528322 164.571598 
L 221.668596 157.545261 
L 223.80887 159.170202 
L 225.949144 173.608067 
L 228.089418 208.611698 
L 230.229692 222.963038 
L 232.369966 228.018286 
L 236.650514 213.875566 
L 238.790788 205.138055 
L 240.931062 173.359092 
L 243.071336 173.993433 
L 245.21161 212.582793 
L 247.351884 228.569548 
L 249.492158 223.435338 
L 251.632432 212.878725 
L 253.772705 193.078585 
L 255.912979 188.476495 
L 258.053253 182.229645 
L 262.333801 135.078056 
L 264.474075 134.270245 
L 266.614349 127.805827 
L 268.754623 137.007018 
L 270.894897 150.983139 
L 273.035171 150.491236 
L 275.175445 127.203973 
L 277.315719 170.209571 
L 279.455993 200.859826 
L 281.596267 172.932438 
L 283.736541 142.580931 
L 288.017089 135.495323 
L 290.157363 151.058074 
L 292.297637 154.459782 
L 294.437911 144.270878 
L 296.578185 137.474857 
L 298.718459 133.78659 
L 300.858733 133.112868 
L 302.999007 153.944638 
L 305.139281 152.787573 
L 307.279555 132.810474 
L 309.419829 134.334107 
L 311.560103 144.844223 
L 313.700377 146.948496 
L 317.980925 167.850727 
L 320.121199 158.54179 
L 322.261473 156.675634 
L 324.401747 171.750369 
L 326.542021 163.401071 
L 328.682295 146.599673 
L 330.822568 123.210744 
L 332.962842 113.267317 
L 335.103116 113.993459 
L 337.24339 177.674499 
L 339.383664 188.096861 
L 341.523938 174.132775 
L 343.664212 169.737151 
L 345.804486 164.688014 
L 347.94476 150.089652 
L 350.085034 139.08759 
L 352.225308 119.683311 
L 354.365582 112.112796 
L 356.505856 118.384703 
L 358.64613 111.037475 
L 360.786404 99.888718 
L 362.926678 129.89955 
L 365.066952 141.93045 
L 367.207226 137.38709 
L 369.3475 134.248697 
L 371.487774 119.408787 
L 373.628048 128.619964 
L 375.768322 129.517413 
L 377.908596 129.324834 
L 380.04887 125.584907 
L 382.189144 105.969299 
L 384.329418 92.260245 
L 386.469692 94.098155 
L 388.609966 122.253232 
L 390.75024 145.136336 
L 395.030788 136.013614 
L 397.171062 129.96018 
L 399.311336 126.821548 
L 401.45161 123.146184 
L 403.591884 118.155025 
L 405.732158 87.018506 
L 407.872432 77.765103 
L 410.012705 100.058582 
L 412.152979 103.080131 
L 414.293253 99.010485 
L 416.433527 91.298875 
L 418.573801 102.731723 
L 420.714075 107.429064 
L 422.854349 106.610595 
L 424.994623 95.966951 
L 427.134897 91.704298 
L 429.275171 89.056087 
L 433.555719 77.886327 
L 435.695993 70.879638 
L 437.836267 64.918199 
L 442.116815 102.923077 
L 444.257089 102.455945 
L 446.397363 84.730514 
L 448.537637 94.28746 
L 450.677911 102.363246 
L 452.818185 91.303054 
L 454.958459 75.387927 
L 457.098733 112.009901 
L 459.239007 121.917884 
L 461.379281 120.619544 
L 463.519555 96.335659 
L 465.659829 95.540142 
L 467.800103 120.565684 
L 469.940377 116.418873 
L 472.080651 101.764799 
L 474.220925 94.208576 
L 476.361199 114.040494 
L 478.501473 120.648604 
L 480.641747 107.521879 
L 484.922295 73.58822 
L 487.062568 88.571089 
L 489.202842 100.845533 
L 491.343116 102.717564 
L 493.48339 93.497624 
L 495.623664 85.107068 
L 497.763938 81.277225 
L 499.904212 89.970159 
L 504.18476 71.28914 
L 506.325034 94.822375 
L 508.465308 88.116281 
L 510.605582 64.520888 
L 512.745856 54.878957 
L 514.88613 83.323842 
L 517.026404 106.655919 
L 519.166678 112.166812 
L 523.447226 67.345925 
L 525.5875 50.26787 
L 527.727774 37.257 
L 529.868048 39.57078 
L 532.008322 47.392644 
L 534.148596 44.932946 
L 536.28887 47.621672 
L 538.429144 59.768352 
L 540.569418 70.164017 
L 542.709692 69.35664 
L 544.849966 60.770263 
L 546.99024 76.623243 
L 549.130514 87.126093 
L 551.270788 83.076725 
L 553.411062 57.967883 
L 555.551336 41.167196 
L 557.69161 74.981962 
L 559.831884 95.608151 
L 561.972158 109.156015 
L 564.112432 103.281993 
L 566.252705 92.786078 
L 568.392979 108.879785 
L 570.533253 106.273645 
L 572.673527 112.936841 
L 574.813801 118.539072 
L 576.954075 120.51601 
L 579.094349 127.006932 
L 581.234623 127.697008 
L 583.374897 118.322539 
L 585.515171 90.424504 
L 589.795719 128.77517 
L 591.935993 126.867895 
L 596.216541 97.462639 
L 598.356815 116.598039 
L 600.497089 112.895464 
L 602.637363 103.431739 
L 604.777637 97.997518 
L 606.917911 80.925922 
L 609.058185 71.610404 
L 611.198459 80.925134 
L 613.338733 120.28962 
L 615.479007 130.698585 
L 621.899829 114.395289 
L 624.040103 104.848534 
L 626.180377 103.615526 
L 628.320651 112.025181 
L 630.460925 148.140118 
L 632.601199 167.605821 
L 636.881747 154.250764 
L 639.022021 146.991174 
L 641.162295 136.303892 
L 643.302568 138.623454 
L 645.442842 128.26976 
L 647.583116 130.047283 
L 649.72339 145.702214 
L 651.863664 150.609477 
L 654.003938 145.924373 
L 656.144212 147.958396 
L 658.284486 142.294985 
L 660.42476 138.114253 
L 662.565034 164.302499 
L 664.705308 179.159232 
L 666.845582 177.41202 
L 668.985856 179.196878 
L 671.12613 176.846836 
L 673.266404 172.65513 
L 675.406678 173.833652 
L 677.546952 178.762459 
L 679.687226 177.861278 
L 681.8275 175.949095 
L 683.967774 169.834428 
L 686.108048 136.456206 
L 688.248322 121.704577 
L 690.388596 135.195649 
L 692.52887 140.235457 
L 694.669144 146.027849 
L 696.809418 163.525048 
L 698.949692 170.111341 
L 701.089966 158.805002 
L 703.23024 162.260979 
L 705.370514 144.493247 
L 707.510788 142.054621 
L 709.651062 138.598803 
L 711.791336 107.173037 
L 713.93161 153.228518 
L 716.071884 182.04154 
L 718.212158 192.480579 
L 720.352432 187.356336 
L 722.492705 188.110352 
L 724.632979 186.623437 
L 726.773253 187.514 
L 728.913527 195.603665 
L 731.053801 185.492335 
L 733.194075 176.458649 
L 735.334349 172.624643 
L 737.474623 153.319203 
L 739.614897 155.67334 
L 741.755171 164.13755 
L 743.895445 164.056883 
L 746.035719 164.714785 
L 748.175993 176.821722 
L 750.316267 212.373993 
L 752.456541 216.352214 
L 754.596815 196.101278 
L 756.737089 196.655215 
L 758.877363 207.491358 
L 761.017637 216.755471 
L 763.157911 210.012778 
L 765.298185 215.062064 
L 767.438459 224.389978 
L 769.578733 231.867647 
L 771.719007 238.857 
L 773.859281 223.237247 
L 775.999555 232.897247 
L 778.139829 235.424928 
L 780.280103 223.455489 
L 782.420377 219.342164 
L 784.560651 210.989646 
L 786.700925 209.15597 
L 788.841199 219.143917 
L 790.981473 224.282565 
L 793.121747 231.879874 
L 795.262021 228.269861 
L 797.402295 213.11218 
L 799.542568 202.919615 
L 801.682842 198.020569 
L 803.823116 191.032108 
L 805.96339 187.445118 
L 808.103664 192.037206 
L 810.243938 200.255631 
L 812.384212 203.360447 
L 814.524486 201.154309 
L 816.66476 196.137147 
L 818.805034 158.85347 
L 820.945308 165.827545 
L 823.085582 193.777249 
L 825.225856 226.36532 
L 827.36613 233.172932 
L 829.506404 229.274911 
L 831.646678 219.43046 
L 833.786952 221.180654 
L 835.927226 219.66963 
L 838.0675 224.565483 
L 838.0675 224.565483 
" clip-path="url(#p4e2f701ec4)" style="fill: none; stroke: #4c72b0; stroke-opacity: 0.5; stroke-width: 1.2; stroke-linecap: round"/>
   </g>
   <g id="line2d_21">
    <path d="M 56.8675 204.912036 
L 59.007774 205.699364 
L 61.148048 204.962179 
L 63.288322 203.871157 
L 65.428596 203.776843 
L 69.709144 206.28839 
L 71.849418 206.435064 
L 76.129966 203.502941 
L 80.410514 202.929266 
L 84.691062 202.98772 
L 86.831336 202.47257 
L 93.252158 204.112986 
L 95.392432 205.338041 
L 97.532705 206.409857 
L 99.672979 207.673705 
L 101.813253 209.156226 
L 103.953527 210.4382 
L 106.093801 211.950739 
L 108.234075 212.75802 
L 110.374349 213.042129 
L 114.654897 210.312563 
L 116.795171 210.163857 
L 118.935445 209.42868 
L 123.215993 203.964769 
L 127.496541 202.021033 
L 129.636815 201.683764 
L 131.777089 201.710349 
L 133.917363 201.938326 
L 136.057637 202.689486 
L 138.197911 203.977346 
L 140.338185 203.859893 
L 142.478459 202.852612 
L 144.618733 202.587151 
L 146.759007 202.902211 
L 151.039555 204.731267 
L 153.179829 204.793047 
L 155.320103 203.213329 
L 157.460377 202.079219 
L 159.600651 201.101505 
L 161.740925 200.367849 
L 166.021473 197.859408 
L 168.161747 196.16459 
L 170.302021 193.940638 
L 174.582568 191.141679 
L 178.863116 192.365712 
L 181.00339 192.455693 
L 183.143664 192.167648 
L 185.283938 193.154557 
L 187.424212 194.35995 
L 189.564486 195.393239 
L 191.70476 196.620433 
L 193.845034 196.476414 
L 195.985308 195.837253 
L 198.125582 195.334553 
L 202.40613 193.638968 
L 204.546404 193.95668 
L 206.686678 193.112219 
L 208.826952 191.631083 
L 210.967226 190.984075 
L 213.1075 190.74827 
L 215.247774 190.18835 
L 217.388048 189.453104 
L 219.528322 189.952054 
L 221.668596 189.444478 
L 225.949144 187.460003 
L 228.089418 187.893653 
L 230.229692 188.764877 
L 234.51024 192.058511 
L 238.790788 193.618258 
L 243.071336 190.641545 
L 245.21161 190.581414 
L 247.351884 192.094286 
L 249.492158 193.366241 
L 251.632432 194.06284 
L 253.772705 193.669738 
L 255.912979 192.908432 
L 258.053253 192.285163 
L 260.193527 190.923451 
L 262.333801 188.621223 
L 268.754623 183.22683 
L 270.894897 183.124077 
L 273.035171 182.743906 
L 275.175445 180.59262 
L 277.315719 179.427452 
L 279.455993 180.067838 
L 281.596267 180.277904 
L 290.157363 177.385227 
L 292.297637 175.580163 
L 294.437911 172.957091 
L 298.718459 167.031715 
L 300.858733 164.339625 
L 302.999007 162.633178 
L 305.139281 161.94746 
L 307.279555 160.574695 
L 309.419829 157.966405 
L 311.560103 155.175561 
L 313.700377 152.626 
L 315.840651 150.768966 
L 317.980925 149.928037 
L 320.121199 148.930214 
L 322.261473 148.078414 
L 324.401747 148.523895 
L 326.542021 149.467996 
L 328.682295 149.878977 
L 330.822568 149.725807 
L 332.962842 148.934484 
L 335.103116 147.701495 
L 337.24339 148.607603 
L 339.383664 150.637366 
L 341.523938 150.76814 
L 343.664212 149.730717 
L 345.804486 149.455903 
L 347.94476 149.706194 
L 350.085034 149.709764 
L 352.225308 149.182697 
L 356.505856 146.682018 
L 358.64613 145.574238 
L 360.786404 144.321367 
L 362.926678 144.191799 
L 365.066952 144.485718 
L 371.487774 142.869115 
L 373.628048 142.678643 
L 377.908596 141.580294 
L 380.04887 140.527534 
L 384.329418 136.255435 
L 386.469692 134.169519 
L 388.609966 132.519614 
L 390.75024 131.91079 
L 392.890514 131.713576 
L 395.030788 132.140338 
L 397.171062 132.696767 
L 399.311336 133.12437 
L 401.45161 131.306759 
L 403.591884 128.975365 
L 407.872432 123.005821 
L 410.012705 120.851506 
L 412.152979 119.284522 
L 414.293253 117.948619 
L 416.433527 117.002471 
L 420.714075 116.324581 
L 424.994623 116.046292 
L 427.134897 114.773117 
L 431.415445 111.215687 
L 433.555719 109.336941 
L 435.695993 107.719303 
L 437.836267 105.59591 
L 439.976541 104.082176 
L 444.257089 102.431153 
L 446.397363 101.723193 
L 448.537637 101.790767 
L 450.677911 102.06627 
L 452.818185 101.034597 
L 454.958459 98.70965 
L 457.098733 97.753872 
L 459.239007 97.284015 
L 461.379281 96.97266 
L 465.659829 95.036262 
L 467.800103 95.116618 
L 469.940377 96.09663 
L 472.080651 96.89662 
L 474.220925 96.701619 
L 476.361199 97.066965 
L 478.501473 97.788236 
L 480.641747 98.329002 
L 482.782021 97.908431 
L 484.922295 96.780402 
L 487.062568 96.179086 
L 489.202842 96.341705 
L 491.343116 96.708814 
L 495.623664 96.90915 
L 497.763938 97.02218 
L 502.044486 98.185817 
L 504.18476 97.758608 
L 506.325034 97.488585 
L 508.465308 97.010596 
L 510.605582 96.336942 
L 512.745856 95.023325 
L 514.88613 94.388679 
L 517.026404 94.900441 
L 519.166678 96.126404 
L 521.306952 95.374862 
L 523.447226 93.555797 
L 525.5875 91.210741 
L 529.868048 87.375807 
L 534.148596 82.553841 
L 536.28887 80.74907 
L 538.429144 79.601063 
L 540.569418 78.138513 
L 542.709692 76.428781 
L 544.849966 74.870394 
L 546.99024 74.420683 
L 549.130514 74.871946 
L 551.270788 74.6888 
L 553.411062 73.259545 
L 555.551336 71.207866 
L 557.69161 70.590678 
L 559.831884 70.940714 
L 561.972158 71.870007 
L 566.252705 72.715377 
L 568.392979 73.968399 
L 570.533253 74.350108 
L 572.673527 75.17746 
L 574.813801 76.978066 
L 576.954075 79.165967 
L 579.094349 80.622071 
L 581.234623 81.32344 
L 583.374897 81.528631 
L 585.515171 81.56066 
L 587.655445 82.980217 
L 589.795719 85.597127 
L 591.935993 88.584157 
L 594.076267 91.002589 
L 596.216541 92.671589 
L 598.356815 95.060425 
L 600.497089 97.236218 
L 602.637363 98.691664 
L 604.777637 99.619448 
L 609.058185 100.366429 
L 611.198459 100.509825 
L 613.338733 101.615276 
L 615.479007 103.202671 
L 617.619281 105.448708 
L 619.759555 108.081146 
L 621.899829 109.394924 
L 624.040103 109.702936 
L 626.180377 109.518254 
L 628.320651 109.809693 
L 634.741473 115.438723 
L 636.881747 116.815854 
L 639.022021 117.764257 
L 641.162295 118.29052 
L 643.302568 118.677737 
L 645.442842 118.696829 
L 647.583116 119.087654 
L 649.72339 120.930244 
L 651.863664 122.286138 
L 654.003938 122.857778 
L 656.144212 123.560795 
L 658.284486 124.566503 
L 660.42476 125.921557 
L 662.565034 127.511706 
L 664.705308 129.720498 
L 666.845582 132.186508 
L 668.985856 134.893153 
L 675.406678 144.555625 
L 677.546952 146.504719 
L 681.8275 149.76348 
L 683.967774 151.419949 
L 686.108048 152.155313 
L 688.248322 152.717181 
L 692.52887 154.710194 
L 696.809418 154.50376 
L 698.949692 154.805322 
L 701.089966 154.95713 
L 703.23024 155.466123 
L 705.370514 155.739102 
L 707.510788 155.853474 
L 709.651062 156.197776 
L 711.791336 155.435301 
L 713.93161 155.686177 
L 716.071884 156.733913 
L 718.212158 158.285786 
L 720.352432 159.599051 
L 724.632979 162.743203 
L 726.773253 163.516919 
L 728.913527 164.065067 
L 731.053801 164.334411 
L 735.334349 164.102397 
L 739.614897 162.852522 
L 743.895445 161.904879 
L 746.035719 161.530402 
L 748.175993 161.763312 
L 750.316267 164.293905 
L 752.456541 167.448826 
L 758.877363 173.408456 
L 761.017637 175.182803 
L 763.157911 176.512851 
L 765.298185 178.388086 
L 767.438459 180.459053 
L 769.578733 183.371533 
L 771.719007 186.598279 
L 773.859281 189.41956 
L 775.999555 193.610367 
L 778.139829 196.350248 
L 780.280103 197.730713 
L 784.560651 199.413876 
L 786.700925 200.115397 
L 788.841199 201.199413 
L 793.121747 203.634238 
L 795.262021 205.060156 
L 797.402295 206.28194 
L 799.542568 207.291773 
L 801.682842 208.781818 
L 803.823116 209.960444 
L 805.96339 210.737363 
L 808.103664 211.67004 
L 810.243938 212.854735 
L 812.384212 213.739359 
L 814.524486 213.36537 
L 816.66476 212.691534 
L 818.805034 211.449941 
L 820.945308 210.422352 
L 823.085582 209.965215 
L 825.225856 210.285543 
L 827.36613 211.057548 
L 829.506404 211.53131 
L 831.646678 211.365992 
L 833.786952 211.009759 
L 835.927226 210.37018 
L 838.0675 210.414455 
L 838.0675 210.414455 
" clip-path="url(#p4e2f701ec4)" style="fill: none; stroke: #dd8452; stroke-width: 1.2; stroke-linecap: round"/>
   </g>
   <g id="patch_3">
    <path d="M 56.8675 248.937 
L 56.8675 27.177 
" style="fill: none; stroke: #cccccc; stroke-linejoin: miter; stroke-linecap: square"/>
   </g>
   <g id="patch_4">
    <path d="M 838.0675 248.937 
L 838.0675 27.177 
" style="fill: none; stroke: #cccccc; stroke-linejoin: miter; stroke-linecap: square"/>
   </g>
   <g id="patch_5">
    <path d="M 56.8675 248.937 
L 838.0675 248.937 
" style="fill: none; stroke: #cccccc; stroke-linejoin: miter; stroke-linecap: square"/>
   </g>
   <g id="patch_6">
    <path d="M 56.8675 27.177 
L 838.0675 27.177 
" style="fill: none; stroke: #cccccc; stroke-linejoin: miter; stroke-linecap: square"/>
   </g>
   <g id="text_21">
    <!-- Daily mean temperature in Germany in 2020 -->
    <g style="fill: #262626" transform="translate(258.589 21.177) scale(0.192 -0.192)">
     <defs>
      <path id="ArialMT-69" d="M 425 3934 
L 425 4581 
L 988 4581 
L 988 3934 
L 425 3934 
z
M 425 0 
L 425 3319 
L 988 3319 
L 988 0 
L 425 0 
z
" transform="scale(0.015625)"/>
      <path id="ArialMT-47" d="M 2638 1797 
L 2638 2334 
L 4578 2338 
L 4578 638 
Q 4131 281 3656 101 
Q 3181 -78 2681 -78 
Q 2006 -78 1454 211 
Q 903 500 622 1047 
Q 341 1594 341 2269 
Q 341 2938 620 3517 
Q 900 4097 1425 4378 
Q 1950 4659 2634 4659 
Q 3131 4659 3532 4498 
Q 3934 4338 4162 4050 
Q 4391 3763 4509 3300 
L 3963 3150 
Q 3859 3500 3706 3700 
Q 3553 3900 3268 4020 
Q 2984 4141 2638 4141 
Q 2222 4141 1919 4014 
Q 1616 3888 1430 3681 
Q 1244 3475 1141 3228 
Q 966 2803 966 2306 
Q 966 1694 1177 1281 
Q 1388 869 1791 669 
Q 2194 469 2647 469 
Q 3041 469 3416 620 
Q 3791 772 3984 944 
L 3984 1797 
L 2638 1797 
z
" transform="scale(0.015625)"/>
     </defs>
     <use xlink:href="#ArialMT-44"/>
     <use xlink:href="#ArialMT-61" x="72.216797"/>
     <use xlink:href="#ArialMT-69" x="127.832031"/>
     <use xlink:href="#ArialMT-6c" x="150.048828"/>
     <use xlink:href="#ArialMT-79" x="172.265625"/>
     <use xlink:href="#ArialMT-20" x="222.265625"/>
     <use xlink:href="#ArialMT-6d" x="250.048828"/>
     <use xlink:href="#ArialMT-65" x="333.349609"/>
     <use xlink:href="#ArialMT-61" x="388.964844"/>
     <use xlink:href="#ArialMT-6e" x="444.580078"/>
     <use xlink:href="#ArialMT-20" x="500.195312"/>
     <use xlink:href="#ArialMT-74" x="527.978516"/>
     <use xlink:href="#ArialMT-65" x="555.761719"/>
     <use xlink:href="#ArialMT-6d" x="611.376953"/>
     <use xlink:href="#ArialMT-70" x="694.677734"/>
     <use xlink:href="#ArialMT-65" x="750.292969"/>
     <use xlink:href="#ArialMT-72" x="805.908203"/>
     <use xlink:href="#ArialMT-61" x="839.208984"/>
     <use xlink:href="#ArialMT-74" x="894.824219"/>
     <use xlink:href="#ArialMT-75" x="922.607422"/>
     <use xlink:href="#ArialMT-72" x="978.222656"/>
     <use xlink:href="#ArialMT-65" x="1011.523438"/>
     <use xlink:href="#ArialMT-20" x="1067.138672"/>
     <use xlink:href="#ArialMT-69" x="1094.921875"/>
     <use xlink:href="#ArialMT-6e" x="1117.138672"/>
     <use xlink:href="#ArialMT-20" x="1172.753906"/>
     <use xlink:href="#ArialMT-47" x="1200.537109"/>
     <use xlink:href="#ArialMT-65" x="1278.320312"/>
     <use xlink:href="#ArialMT-72" x="1333.935547"/>
     <use xlink:href="#ArialMT-6d" x="1367.236328"/>
     <use xlink:href="#ArialMT-61" x="1450.537109"/>
     <use xlink:href="#ArialMT-6e" x="1506.152344"/>
     <use xlink:href="#ArialMT-79" x="1561.767578"/>
     <use xlink:href="#ArialMT-20" x="1611.767578"/>
     <use xlink:href="#ArialMT-69" x="1639.550781"/>
     <use xlink:href="#ArialMT-6e" x="1661.767578"/>
     <use xlink:href="#ArialMT-20" x="1717.382812"/>
     <use xlink:href="#ArialMT-32" x="1745.166016"/>
     <use xlink:href="#ArialMT-30" x="1800.78125"/>
     <use xlink:href="#ArialMT-32" x="1856.396484"/>
     <use xlink:href="#ArialMT-30" x="1912.011719"/>
    </g>
   </g>
   <g id="legend_1">
    <g id="patch_7">
     <path d="M 69.1875 91.51325 
L 353.4495 91.51325 
Q 356.9695 91.51325 356.9695 87.99325 
L 356.9695 39.497 
Q 356.9695 35.977 353.4495 35.977 
L 69.1875 35.977 
Q 65.6675 35.977 65.6675 39.497 
L 65.6675 87.99325 
Q 65.6675 91.51325 69.1875 91.51325 
z
" style="fill: #ffffff; opacity: 0.8; stroke: #cccccc; stroke-width: 0.8; stroke-linejoin: miter"/>
    </g>
    <g id="line2d_22">
     <path d="M 72.7075 49.45475 
L 90.3075 49.45475 
L 107.9075 49.45475 
" style="fill: none; stroke: #4c72b0; stroke-opacity: 0.5; stroke-width: 1.2; stroke-linecap: round"/>
    </g>
    <g id="text_22">
     <!-- Daily mean temperature -->
     <g style="fill: #262626" transform="translate(121.9875 55.61475) scale(0.176 -0.176)">
      <use xlink:href="#ArialMT-44"/>
      <use xlink:href="#ArialMT-61" x="72.216797"/>
      <use xlink:href="#ArialMT-69" x="127.832031"/>
      <use xlink:href="#ArialMT-6c" x="150.048828"/>
      <use xlink:href="#ArialMT-79" x="172.265625"/>
      <use xlink:href="#ArialMT-20" x="222.265625"/>
      <use xlink:href="#ArialMT-6d" x="250.048828"/>
      <use xlink:href="#ArialMT-65" x="333.349609"/>
      <use xlink:href="#ArialMT-61" x="388.964844"/>
      <use xlink:href="#ArialMT-6e" x="444.580078"/>
      <use xlink:href="#ArialMT-20" x="500.195312"/>
      <use xlink:href="#ArialMT-74" x="527.978516"/>
      <use xlink:href="#ArialMT-65" x="555.761719"/>
      <use xlink:href="#ArialMT-6d" x="611.376953"/>
      <use xlink:href="#ArialMT-70" x="694.677734"/>
      <use xlink:href="#ArialMT-65" x="750.292969"/>
      <use xlink:href="#ArialMT-72" x="805.908203"/>
      <use xlink:href="#ArialMT-61" x="839.208984"/>
      <use xlink:href="#ArialMT-74" x="894.824219"/>
      <use xlink:href="#ArialMT-75" x="922.607422"/>
      <use xlink:href="#ArialMT-72" x="978.222656"/>
      <use xlink:href="#ArialMT-65" x="1011.523438"/>
     </g>
    </g>
    <g id="line2d_23">
     <path d="M 72.7075 74.609 
L 90.3075 74.609 
L 107.9075 74.609 
" style="fill: none; stroke: #dd8452; stroke-width: 1.2; stroke-linecap: round"/>
    </g>
    <g id="text_23">
     <!-- Rolling average over 30 days -->
     <g style="fill: #262626" transform="translate(121.9875 80.769) scale(0.176 -0.176)">
      <defs>
       <path id="ArialMT-52" d="M 503 0 
L 503 4581 
L 2534 4581 
Q 3147 4581 3465 4457 
Q 3784 4334 3975 4021 
Q 4166 3709 4166 3331 
Q 4166 2844 3850 2509 
Q 3534 2175 2875 2084 
Q 3116 1969 3241 1856 
Q 3506 1613 3744 1247 
L 4541 0 
L 3778 0 
L 3172 953 
Q 2906 1366 2734 1584 
Q 2563 1803 2427 1890 
Q 2291 1978 2150 2013 
Q 2047 2034 1813 2034 
L 1109 2034 
L 1109 0 
L 503 0 
z
M 1109 2559 
L 2413 2559 
Q 2828 2559 3062 2645 
Q 3297 2731 3419 2920 
Q 3541 3109 3541 3331 
Q 3541 3656 3305 3865 
Q 3069 4075 2559 4075 
L 1109 4075 
L 1109 2559 
z
" transform="scale(0.015625)"/>
       <path id="ArialMT-33" d="M 269 1209 
L 831 1284 
Q 928 806 1161 595 
Q 1394 384 1728 384 
Q 2125 384 2398 659 
Q 2672 934 2672 1341 
Q 2672 1728 2419 1979 
Q 2166 2231 1775 2231 
Q 1616 2231 1378 2169 
L 1441 2663 
Q 1497 2656 1531 2656 
Q 1891 2656 2178 2843 
Q 2466 3031 2466 3422 
Q 2466 3731 2256 3934 
Q 2047 4138 1716 4138 
Q 1388 4138 1169 3931 
Q 950 3725 888 3313 
L 325 3413 
Q 428 3978 793 4289 
Q 1159 4600 1703 4600 
Q 2078 4600 2393 4439 
Q 2709 4278 2876 4000 
Q 3044 3722 3044 3409 
Q 3044 3113 2884 2869 
Q 2725 2625 2413 2481 
Q 2819 2388 3044 2092 
Q 3269 1797 3269 1353 
Q 3269 753 2831 336 
Q 2394 -81 1725 -81 
Q 1122 -81 723 278 
Q 325 638 269 1209 
z
" transform="scale(0.015625)"/>
       <path id="ArialMT-64" d="M 2575 0 
L 2575 419 
Q 2259 -75 1647 -75 
Q 1250 -75 917 144 
Q 584 363 401 755 
Q 219 1147 219 1656 
Q 219 2153 384 2558 
Q 550 2963 881 3178 
Q 1213 3394 1622 3394 
Q 1922 3394 2156 3267 
Q 2391 3141 2538 2938 
L 2538 4581 
L 3097 4581 
L 3097 0 
L 2575 0 
z
M 797 1656 
Q 797 1019 1065 703 
Q 1334 388 1700 388 
Q 2069 388 2326 689 
Q 2584 991 2584 1609 
Q 2584 2291 2321 2609 
Q 2059 2928 1675 2928 
Q 1300 2928 1048 2622 
Q 797 2316 797 1656 
z
" transform="scale(0.015625)"/>
       <path id="ArialMT-73" d="M 197 991 
L 753 1078 
Q 800 744 1014 566 
Q 1228 388 1613 388 
Q 2000 388 2187 545 
Q 2375 703 2375 916 
Q 2375 1106 2209 1216 
Q 2094 1291 1634 1406 
Q 1016 1563 777 1677 
Q 538 1791 414 1992 
Q 291 2194 291 2438 
Q 291 2659 392 2848 
Q 494 3038 669 3163 
Q 800 3259 1026 3326 
Q 1253 3394 1513 3394 
Q 1903 3394 2198 3281 
Q 2494 3169 2634 2976 
Q 2775 2784 2828 2463 
L 2278 2388 
Q 2241 2644 2061 2787 
Q 1881 2931 1553 2931 
Q 1166 2931 1000 2803 
Q 834 2675 834 2503 
Q 834 2394 903 2306 
Q 972 2216 1119 2156 
Q 1203 2125 1616 2013 
Q 2213 1853 2448 1751 
Q 2684 1650 2818 1456 
Q 2953 1263 2953 975 
Q 2953 694 2789 445 
Q 2625 197 2315 61 
Q 2006 -75 1616 -75 
Q 969 -75 630 194 
Q 291 463 197 991 
z
" transform="scale(0.015625)"/>
      </defs>
      <use xlink:href="#ArialMT-52"/>
      <use xlink:href="#ArialMT-6f" x="72.216797"/>
      <use xlink:href="#ArialMT-6c" x="127.832031"/>
      <use xlink:href="#ArialMT-6c" x="150.048828"/>
      <use xlink:href="#ArialMT-69" x="172.265625"/>
      <use xlink:href="#ArialMT-6e" x="194.482422"/>
      <use xlink:href="#ArialMT-67" x="250.097656"/>
      <use xlink:href="#ArialMT-20" x="305.712891"/>
      <use xlink:href="#ArialMT-61" x="333.496094"/>
      <use xlink:href="#ArialMT-76" x="389.111328"/>
      <use xlink:href="#ArialMT-65" x="439.111328"/>
      <use xlink:href="#ArialMT-72" x="494.726562"/>
      <use xlink:href="#ArialMT-61" x="528.027344"/>
      <use xlink:href="#ArialMT-67" x="583.642578"/>
      <use xlink:href="#ArialMT-65" x="639.257812"/>
      <use xlink:href="#ArialMT-20" x="694.873047"/>
      <use xlink:href="#ArialMT-6f" x="722.65625"/>
      <use xlink:href="#ArialMT-76" x="778.271484"/>
      <use xlink:href="#ArialMT-65" x="828.271484"/>
      <use xlink:href="#ArialMT-72" x="883.886719"/>
      <use xlink:href="#ArialMT-20" x="917.1875"/>
      <use xlink:href="#ArialMT-33" x="944.970703"/>
      <use xlink:href="#ArialMT-30" x="1000.585938"/>
      <use xlink:href="#ArialMT-20" x="1056.201172"/>
      <use xlink:href="#ArialMT-64" x="1083.984375"/>
      <use xlink:href="#ArialMT-61" x="1139.599609"/>
      <use xlink:href="#ArialMT-79" x="1195.214844"/>
      <use xlink:href="#ArialMT-73" x="1245.214844"/>
     </g>
    </g>
   </g>
  </g>
 </g>
 <defs>
  <clipPath id="p4e2f701ec4">
   <rect x="56.8675" y="27.177" width="781.2" height="221.76"/>
  </clipPath>
 </defs>
</svg>
