<?xml version="1.0" encoding="utf-8" standalone="no"?>
<!DOCTYPE svg PUBLIC "-//W3C//DTD SVG 1.1//EN"
  "http://www.w3.org/Graphics/SVG/1.1/DTD/svg11.dtd">
<svg xmlns:xlink="http://www.w3.org/1999/xlink" width="954.15075pt" height="412.97175pt" viewBox="0 0 954.15075 412.97175" xmlns="http://www.w3.org/2000/svg" version="1.1">
 <metadata>
  <rdf:RDF xmlns:dc="http://purl.org/dc/elements/1.1/" xmlns:cc="http://creativecommons.org/ns#" xmlns:rdf="http://www.w3.org/1999/02/22-rdf-syntax-ns#">
   <cc:Work>
    <dc:type rdf:resource="http://purl.org/dc/dcmitype/StillImage"/>
    <dc:date>2023-05-12T09:54:05.394430</dc:date>
    <dc:format>image/svg+xml</dc:format>
    <dc:creator>
     <cc:Agent>
      <dc:title>Matplotlib v3.7.1, https://matplotlib.org/</dc:title>
     </cc:Agent>
    </dc:creator>
   </cc:Work>
  </rdf:RDF>
 </metadata>
 <defs>
  <style type="text/css">*{stroke-linejoin: round; stroke-linecap: butt}</style>
 </defs>
 <g id="figure_1">
  <g id="patch_1">
   <path d="M 0 412.97175 
L 954.15075 412.97175 
L 954.15075 0 
L 0 0 
z
" style="fill: #ffffff"/>
  </g>
  <g id="axes_1">
   <g id="patch_2">
    <path d="M 66.65475 359.817 
L 847.85475 359.817 
L 847.85475 27.177 
L 66.65475 27.177 
z
" style="fill: #ffffff"/>
   </g>
   <g id="matplotlib.axis_1">
    <g id="xtick_1">
     <g id="line2d_1">
      <path d="M 66.65475 359.817 
L 66.65475 27.177 
" clip-path="url(#pbf5c1e36c1)" style="fill: none; stroke: #cccccc; stroke-width: 0.8; stroke-linecap: round"/>
     </g>
     <g id="text_1">
      <!-- 2018 -->
      <g style="fill: #262626" transform="translate(47.08025 380.71475) scale(0.176 -0.176)">
       <defs>
        <path id="ArialMT-32" d="M 3222 541 
L 3222 0 
L 194 0 
Q 188 203 259 391 
Q 375 700 629 1000 
Q 884 1300 1366 1694 
Q 2113 2306 2375 2664 
Q 2638 3022 2638 3341 
Q 2638 3675 2398 3904 
Q 2159 4134 1775 4134 
Q 1369 4134 1125 3890 
Q 881 3647 878 3216 
L 300 3275 
Q 359 3922 746 4261 
Q 1134 4600 1788 4600 
Q 2447 4600 2831 4234 
Q 3216 3869 3216 3328 
Q 3216 3053 3103 2787 
Q 2991 2522 2730 2228 
Q 2469 1934 1863 1422 
Q 1356 997 1212 845 
Q 1069 694 975 541 
L 3222 541 
z
" transform="scale(0.015625)"/>
        <path id="ArialMT-30" d="M 266 2259 
Q 266 3072 433 3567 
Q 600 4063 929 4331 
Q 1259 4600 1759 4600 
Q 2128 4600 2406 4451 
Q 2684 4303 2865 4023 
Q 3047 3744 3150 3342 
Q 3253 2941 3253 2259 
Q 3253 1453 3087 958 
Q 2922 463 2592 192 
Q 2263 -78 1759 -78 
Q 1097 -78 719 397 
Q 266 969 266 2259 
z
M 844 2259 
Q 844 1131 1108 757 
Q 1372 384 1759 384 
Q 2147 384 2411 759 
Q 2675 1134 2675 2259 
Q 2675 3391 2411 3762 
Q 2147 4134 1753 4134 
Q 1366 4134 1134 3806 
Q 844 3388 844 2259 
z
" transform="scale(0.015625)"/>
        <path id="ArialMT-31" d="M 2384 0 
L 1822 0 
L 1822 3584 
Q 1619 3391 1289 3197 
Q 959 3003 697 2906 
L 697 3450 
Q 1169 3672 1522 3987 
Q 1875 4303 2022 4600 
L 2384 4600 
L 2384 0 
z
" transform="scale(0.015625)"/>
        <path id="ArialMT-38" d="M 1131 2484 
Q 781 2613 612 2850 
Q 444 3088 444 3419 
Q 444 3919 803 4259 
Q 1163 4600 1759 4600 
Q 2359 4600 2725 4251 
Q 3091 3903 3091 3403 
Q 3091 3084 2923 2848 
Q 2756 2613 2416 2484 
Q 2838 2347 3058 2040 
Q 3278 1734 3278 1309 
Q 3278 722 2862 322 
Q 2447 -78 1769 -78 
Q 1091 -78 675 323 
Q 259 725 259 1325 
Q 259 1772 486 2073 
Q 713 2375 1131 2484 
z
M 1019 3438 
Q 1019 3113 1228 2906 
Q 1438 2700 1772 2700 
Q 2097 2700 2305 2904 
Q 2513 3109 2513 3406 
Q 2513 3716 2298 3927 
Q 2084 4138 1766 4138 
Q 1444 4138 1231 3931 
Q 1019 3725 1019 3438 
z
M 838 1322 
Q 838 1081 952 856 
Q 1066 631 1291 507 
Q 1516 384 1775 384 
Q 2178 384 2440 643 
Q 2703 903 2703 1303 
Q 2703 1709 2433 1975 
Q 2163 2241 1756 2241 
Q 1359 2241 1098 1978 
Q 838 1716 838 1322 
z
" transform="scale(0.015625)"/>
       </defs>
       <use xlink:href="#ArialMT-32"/>
       <use xlink:href="#ArialMT-30" x="55.615234"/>
       <use xlink:href="#ArialMT-31" x="111.230469"/>
       <use xlink:href="#ArialMT-38" x="166.845703"/>
      </g>
     </g>
    </g>
    <g id="xtick_2">
     <g id="line2d_2">
      <path d="M 225.771937 359.817 
L 225.771937 27.177 
" clip-path="url(#pbf5c1e36c1)" style="fill: none; stroke: #cccccc; stroke-width: 0.8; stroke-linecap: round"/>
     </g>
     <g id="text_2">
      <!-- 2019 -->
      <g style="fill: #262626" transform="translate(206.197437 380.71475) scale(0.176 -0.176)">
       <defs>
        <path id="ArialMT-39" d="M 350 1059 
L 891 1109 
Q 959 728 1153 556 
Q 1347 384 1650 384 
Q 1909 384 2104 503 
Q 2300 622 2425 820 
Q 2550 1019 2634 1356 
Q 2719 1694 2719 2044 
Q 2719 2081 2716 2156 
Q 2547 1888 2255 1720 
Q 1963 1553 1622 1553 
Q 1053 1553 659 1965 
Q 266 2378 266 3053 
Q 266 3750 677 4175 
Q 1088 4600 1706 4600 
Q 2153 4600 2523 4359 
Q 2894 4119 3086 3673 
Q 3278 3228 3278 2384 
Q 3278 1506 3087 986 
Q 2897 466 2520 194 
Q 2144 -78 1638 -78 
Q 1100 -78 759 220 
Q 419 519 350 1059 
z
M 2653 3081 
Q 2653 3566 2395 3850 
Q 2138 4134 1775 4134 
Q 1400 4134 1122 3828 
Q 844 3522 844 3034 
Q 844 2597 1108 2323 
Q 1372 2050 1759 2050 
Q 2150 2050 2401 2323 
Q 2653 2597 2653 3081 
z
" transform="scale(0.015625)"/>
       </defs>
       <use xlink:href="#ArialMT-32"/>
       <use xlink:href="#ArialMT-30" x="55.615234"/>
       <use xlink:href="#ArialMT-31" x="111.230469"/>
       <use xlink:href="#ArialMT-39" x="166.845703"/>
      </g>
     </g>
    </g>
    <g id="xtick_3">
     <g id="line2d_3">
      <path d="M 384.889125 359.817 
L 384.889125 27.177 
" clip-path="url(#pbf5c1e36c1)" style="fill: none; stroke: #cccccc; stroke-width: 0.8; stroke-linecap: round"/>
     </g>
     <g id="text_3">
      <!-- 2020 -->
      <g style="fill: #262626" transform="translate(365.314625 380.71475) scale(0.176 -0.176)">
       <use xlink:href="#ArialMT-32"/>
       <use xlink:href="#ArialMT-30" x="55.615234"/>
       <use xlink:href="#ArialMT-32" x="111.230469"/>
       <use xlink:href="#ArialMT-30" x="166.845703"/>
      </g>
     </g>
    </g>
    <g id="xtick_4">
     <g id="line2d_4">
      <path d="M 544.44225 359.817 
L 544.44225 27.177 
" clip-path="url(#pbf5c1e36c1)" style="fill: none; stroke: #cccccc; stroke-width: 0.8; stroke-linecap: round"/>
     </g>
     <g id="text_4">
      <!-- 2021 -->
      <g style="fill: #262626" transform="translate(524.86775 380.71475) scale(0.176 -0.176)">
       <use xlink:href="#ArialMT-32"/>
       <use xlink:href="#ArialMT-30" x="55.615234"/>
       <use xlink:href="#ArialMT-32" x="111.230469"/>
       <use xlink:href="#ArialMT-31" x="166.845703"/>
      </g>
     </g>
    </g>
    <g id="xtick_5">
     <g id="line2d_5">
      <path d="M 703.559437 359.817 
L 703.559437 27.177 
" clip-path="url(#pbf5c1e36c1)" style="fill: none; stroke: #cccccc; stroke-width: 0.8; stroke-linecap: round"/>
     </g>
     <g id="text_5">
      <!-- 2022 -->
      <g style="fill: #262626" transform="translate(683.984937 380.71475) scale(0.176 -0.176)">
       <use xlink:href="#ArialMT-32"/>
       <use xlink:href="#ArialMT-30" x="55.615234"/>
       <use xlink:href="#ArialMT-32" x="111.230469"/>
       <use xlink:href="#ArialMT-32" x="166.845703"/>
      </g>
     </g>
    </g>
    <g id="xtick_6">
     <g id="line2d_6">
      <path d="M 847.85475 359.817 
L 847.85475 27.177 
" clip-path="url(#pbf5c1e36c1)" style="fill: none; stroke: #cccccc; stroke-width: 0.8; stroke-linecap: round"/>
     </g>
    </g>
    <g id="xtick_7"/>
    <g id="xtick_8"/>
    <g id="xtick_9"/>
    <g id="xtick_10"/>
    <g id="xtick_11"/>
    <g id="xtick_12"/>
    <g id="xtick_13"/>
    <g id="xtick_14"/>
    <g id="xtick_15"/>
    <g id="xtick_16"/>
    <g id="xtick_17"/>
    <g id="xtick_18"/>
    <g id="xtick_19"/>
    <g id="xtick_20"/>
    <g id="xtick_21"/>
    <g id="text_6">
     <!-- Date -->
     <g style="fill: #262626" transform="translate(436.97775 401.95575) scale(0.192 -0.192)">
      <defs>
       <path id="ArialMT-44" d="M 494 0 
L 494 4581 
L 2072 4581 
Q 2606 4581 2888 4516 
Q 3281 4425 3559 4188 
Q 3922 3881 4101 3404 
Q 4281 2928 4281 2316 
Q 4281 1794 4159 1391 
Q 4038 988 3847 723 
Q 3656 459 3429 307 
Q 3203 156 2883 78 
Q 2563 0 2147 0 
L 494 0 
z
M 1100 541 
L 2078 541 
Q 2531 541 2789 625 
Q 3047 709 3200 863 
Q 3416 1078 3536 1442 
Q 3656 1806 3656 2325 
Q 3656 3044 3420 3430 
Q 3184 3816 2847 3947 
Q 2603 4041 2063 4041 
L 1100 4041 
L 1100 541 
z
" transform="scale(0.015625)"/>
       <path id="ArialMT-61" d="M 2588 409 
Q 2275 144 1986 34 
Q 1697 -75 1366 -75 
Q 819 -75 525 192 
Q 231 459 231 875 
Q 231 1119 342 1320 
Q 453 1522 633 1644 
Q 813 1766 1038 1828 
Q 1203 1872 1538 1913 
Q 2219 1994 2541 2106 
Q 2544 2222 2544 2253 
Q 2544 2597 2384 2738 
Q 2169 2928 1744 2928 
Q 1347 2928 1158 2789 
Q 969 2650 878 2297 
L 328 2372 
Q 403 2725 575 2942 
Q 747 3159 1072 3276 
Q 1397 3394 1825 3394 
Q 2250 3394 2515 3294 
Q 2781 3194 2906 3042 
Q 3031 2891 3081 2659 
Q 3109 2516 3109 2141 
L 3109 1391 
Q 3109 606 3145 398 
Q 3181 191 3288 0 
L 2700 0 
Q 2613 175 2588 409 
z
M 2541 1666 
Q 2234 1541 1622 1453 
Q 1275 1403 1131 1340 
Q 988 1278 909 1158 
Q 831 1038 831 891 
Q 831 666 1001 516 
Q 1172 366 1500 366 
Q 1825 366 2078 508 
Q 2331 650 2450 897 
Q 2541 1088 2541 1459 
L 2541 1666 
z
" transform="scale(0.015625)"/>
       <path id="ArialMT-74" d="M 1650 503 
L 1731 6 
Q 1494 -44 1306 -44 
Q 1000 -44 831 53 
Q 663 150 594 308 
Q 525 466 525 972 
L 525 2881 
L 113 2881 
L 113 3319 
L 525 3319 
L 525 4141 
L 1084 4478 
L 1084 3319 
L 1650 3319 
L 1650 2881 
L 1084 2881 
L 1084 941 
Q 1084 700 1114 631 
Q 1144 563 1211 522 
Q 1278 481 1403 481 
Q 1497 481 1650 503 
z
" transform="scale(0.015625)"/>
       <path id="ArialMT-65" d="M 2694 1069 
L 3275 997 
Q 3138 488 2766 206 
Q 2394 -75 1816 -75 
Q 1088 -75 661 373 
Q 234 822 234 1631 
Q 234 2469 665 2931 
Q 1097 3394 1784 3394 
Q 2450 3394 2872 2941 
Q 3294 2488 3294 1666 
Q 3294 1616 3291 1516 
L 816 1516 
Q 847 969 1125 678 
Q 1403 388 1819 388 
Q 2128 388 2347 550 
Q 2566 713 2694 1069 
z
M 847 1978 
L 2700 1978 
Q 2663 2397 2488 2606 
Q 2219 2931 1791 2931 
Q 1403 2931 1139 2672 
Q 875 2413 847 1978 
z
" transform="scale(0.015625)"/>
      </defs>
      <use xlink:href="#ArialMT-44"/>
      <use xlink:href="#ArialMT-61" x="72.216797"/>
      <use xlink:href="#ArialMT-74" x="127.832031"/>
      <use xlink:href="#ArialMT-65" x="155.615234"/>
     </g>
    </g>
   </g>
   <g id="matplotlib.axis_2">
    <g id="ytick_1">
     <g id="line2d_7">
      <path d="M 66.65475 347.960747 
L 847.85475 347.960747 
" clip-path="url(#pbf5c1e36c1)" style="fill: none; stroke: #cccccc; stroke-width: 0.8; stroke-linecap: round"/>
     </g>
     <g id="line2d_8">
      <defs>
       <path id="md26a12c0ba" d="M 0 0 
L -4.8 0 
" style="stroke: #262626"/>
      </defs>
      <g>
       <use xlink:href="#md26a12c0ba" x="66.65475" y="347.960747" style="fill: #262626; stroke: #262626"/>
      </g>
     </g>
     <g id="text_7">
      <!-- 0 -->
      <g style="fill: #262626" transform="translate(48.5675 354.259622) scale(0.176 -0.176)">
       <use xlink:href="#ArialMT-30"/>
      </g>
     </g>
    </g>
    <g id="ytick_2">
     <g id="line2d_9">
      <path d="M 66.65475 286.028694 
L 847.85475 286.028694 
" clip-path="url(#pbf5c1e36c1)" style="fill: none; stroke: #cccccc; stroke-width: 0.8; stroke-linecap: round"/>
     </g>
     <g id="line2d_10">
      <g>
       <use xlink:href="#md26a12c0ba" x="66.65475" y="286.028694" style="fill: #262626; stroke: #262626"/>
      </g>
     </g>
     <g id="text_8">
      <!-- 50 -->
      <g style="fill: #262626" transform="translate(38.78025 292.327569) scale(0.176 -0.176)">
       <defs>
        <path id="ArialMT-35" d="M 266 1200 
L 856 1250 
Q 922 819 1161 601 
Q 1400 384 1738 384 
Q 2144 384 2425 690 
Q 2706 997 2706 1503 
Q 2706 1984 2436 2262 
Q 2166 2541 1728 2541 
Q 1456 2541 1237 2417 
Q 1019 2294 894 2097 
L 366 2166 
L 809 4519 
L 3088 4519 
L 3088 3981 
L 1259 3981 
L 1013 2750 
Q 1425 3038 1878 3038 
Q 2478 3038 2890 2622 
Q 3303 2206 3303 1553 
Q 3303 931 2941 478 
Q 2500 -78 1738 -78 
Q 1113 -78 717 272 
Q 322 622 266 1200 
z
" transform="scale(0.015625)"/>
       </defs>
       <use xlink:href="#ArialMT-35"/>
       <use xlink:href="#ArialMT-30" x="55.615234"/>
      </g>
     </g>
    </g>
    <g id="ytick_3">
     <g id="line2d_11">
      <path d="M 66.65475 224.096641 
L 847.85475 224.096641 
" clip-path="url(#pbf5c1e36c1)" style="fill: none; stroke: #cccccc; stroke-width: 0.8; stroke-linecap: round"/>
     </g>
     <g id="line2d_12">
      <g>
       <use xlink:href="#md26a12c0ba" x="66.65475" y="224.096641" style="fill: #262626; stroke: #262626"/>
      </g>
     </g>
     <g id="text_9">
      <!-- 100 -->
      <g style="fill: #262626" transform="translate(28.993 230.395516) scale(0.176 -0.176)">
       <use xlink:href="#ArialMT-31"/>
       <use xlink:href="#ArialMT-30" x="55.615234"/>
       <use xlink:href="#ArialMT-30" x="111.230469"/>
      </g>
     </g>
    </g>
    <g id="ytick_4">
     <g id="line2d_13">
      <path d="M 66.65475 162.164589 
L 847.85475 162.164589 
" clip-path="url(#pbf5c1e36c1)" style="fill: none; stroke: #cccccc; stroke-width: 0.8; stroke-linecap: round"/>
     </g>
     <g id="line2d_14">
      <g>
       <use xlink:href="#md26a12c0ba" x="66.65475" y="162.164589" style="fill: #262626; stroke: #262626"/>
      </g>
     </g>
     <g id="text_10">
      <!-- 150 -->
      <g style="fill: #262626" transform="translate(28.993 168.463464) scale(0.176 -0.176)">
       <use xlink:href="#ArialMT-31"/>
       <use xlink:href="#ArialMT-35" x="55.615234"/>
       <use xlink:href="#ArialMT-30" x="111.230469"/>
      </g>
     </g>
    </g>
    <g id="ytick_5">
     <g id="line2d_15">
      <path d="M 66.65475 100.232536 
L 847.85475 100.232536 
" clip-path="url(#pbf5c1e36c1)" style="fill: none; stroke: #cccccc; stroke-width: 0.8; stroke-linecap: round"/>
     </g>
     <g id="line2d_16">
      <g>
       <use xlink:href="#md26a12c0ba" x="66.65475" y="100.232536" style="fill: #262626; stroke: #262626"/>
      </g>
     </g>
     <g id="text_11">
      <!-- 200 -->
      <g style="fill: #262626" transform="translate(28.993 106.531411) scale(0.176 -0.176)">
       <use xlink:href="#ArialMT-32"/>
       <use xlink:href="#ArialMT-30" x="55.615234"/>
       <use xlink:href="#ArialMT-30" x="111.230469"/>
      </g>
     </g>
    </g>
    <g id="ytick_6">
     <g id="line2d_17">
      <path d="M 66.65475 38.300483 
L 847.85475 38.300483 
" clip-path="url(#pbf5c1e36c1)" style="fill: none; stroke: #cccccc; stroke-width: 0.8; stroke-linecap: round"/>
     </g>
     <g id="line2d_18">
      <g>
       <use xlink:href="#md26a12c0ba" x="66.65475" y="38.300483" style="fill: #262626; stroke: #262626"/>
      </g>
     </g>
     <g id="text_12">
      <!-- 250 -->
      <g style="fill: #262626" transform="translate(28.993 44.599358) scale(0.176 -0.176)">
       <use xlink:href="#ArialMT-32"/>
       <use xlink:href="#ArialMT-35" x="55.615234"/>
       <use xlink:href="#ArialMT-30" x="111.230469"/>
      </g>
     </g>
    </g>
    <g id="text_13">
     <!-- Price [EUR/MWh] -->
     <g style="fill: #262626" transform="translate(21.177 268.7025) rotate(-90) scale(0.192 -0.192)">
      <defs>
       <path id="ArialMT-50" d="M 494 0 
L 494 4581 
L 2222 4581 
Q 2678 4581 2919 4538 
Q 3256 4481 3484 4323 
Q 3713 4166 3852 3881 
Q 3991 3597 3991 3256 
Q 3991 2672 3619 2267 
Q 3247 1863 2275 1863 
L 1100 1863 
L 1100 0 
L 494 0 
z
M 1100 2403 
L 2284 2403 
Q 2872 2403 3119 2622 
Q 3366 2841 3366 3238 
Q 3366 3525 3220 3729 
Q 3075 3934 2838 4000 
Q 2684 4041 2272 4041 
L 1100 4041 
L 1100 2403 
z
" transform="scale(0.015625)"/>
       <path id="ArialMT-72" d="M 416 0 
L 416 3319 
L 922 3319 
L 922 2816 
Q 1116 3169 1280 3281 
Q 1444 3394 1641 3394 
Q 1925 3394 2219 3213 
L 2025 2691 
Q 1819 2813 1613 2813 
Q 1428 2813 1281 2702 
Q 1134 2591 1072 2394 
Q 978 2094 978 1738 
L 978 0 
L 416 0 
z
" transform="scale(0.015625)"/>
       <path id="ArialMT-69" d="M 425 3934 
L 425 4581 
L 988 4581 
L 988 3934 
L 425 3934 
z
M 425 0 
L 425 3319 
L 988 3319 
L 988 0 
L 425 0 
z
" transform="scale(0.015625)"/>
       <path id="ArialMT-63" d="M 2588 1216 
L 3141 1144 
Q 3050 572 2676 248 
Q 2303 -75 1759 -75 
Q 1078 -75 664 370 
Q 250 816 250 1647 
Q 250 2184 428 2587 
Q 606 2991 970 3192 
Q 1334 3394 1763 3394 
Q 2303 3394 2647 3120 
Q 2991 2847 3088 2344 
L 2541 2259 
Q 2463 2594 2264 2762 
Q 2066 2931 1784 2931 
Q 1359 2931 1093 2626 
Q 828 2322 828 1663 
Q 828 994 1084 691 
Q 1341 388 1753 388 
Q 2084 388 2306 591 
Q 2528 794 2588 1216 
z
" transform="scale(0.015625)"/>
       <path id="ArialMT-20" transform="scale(0.015625)"/>
       <path id="ArialMT-5b" d="M 434 -1272 
L 434 4581 
L 1675 4581 
L 1675 4116 
L 997 4116 
L 997 -806 
L 1675 -806 
L 1675 -1272 
L 434 -1272 
z
" transform="scale(0.015625)"/>
       <path id="ArialMT-45" d="M 506 0 
L 506 4581 
L 3819 4581 
L 3819 4041 
L 1113 4041 
L 1113 2638 
L 3647 2638 
L 3647 2100 
L 1113 2100 
L 1113 541 
L 3925 541 
L 3925 0 
L 506 0 
z
" transform="scale(0.015625)"/>
       <path id="ArialMT-55" d="M 3500 4581 
L 4106 4581 
L 4106 1934 
Q 4106 1244 3950 837 
Q 3794 431 3386 176 
Q 2978 -78 2316 -78 
Q 1672 -78 1262 144 
Q 853 366 678 786 
Q 503 1206 503 1934 
L 503 4581 
L 1109 4581 
L 1109 1938 
Q 1109 1341 1220 1058 
Q 1331 775 1601 622 
Q 1872 469 2263 469 
Q 2931 469 3215 772 
Q 3500 1075 3500 1938 
L 3500 4581 
z
" transform="scale(0.015625)"/>
       <path id="ArialMT-52" d="M 503 0 
L 503 4581 
L 2534 4581 
Q 3147 4581 3465 4457 
Q 3784 4334 3975 4021 
Q 4166 3709 4166 3331 
Q 4166 2844 3850 2509 
Q 3534 2175 2875 2084 
Q 3116 1969 3241 1856 
Q 3506 1613 3744 1247 
L 4541 0 
L 3778 0 
L 3172 953 
Q 2906 1366 2734 1584 
Q 2563 1803 2427 1890 
Q 2291 1978 2150 2013 
Q 2047 2034 1813 2034 
L 1109 2034 
L 1109 0 
L 503 0 
z
M 1109 2559 
L 2413 2559 
Q 2828 2559 3062 2645 
Q 3297 2731 3419 2920 
Q 3541 3109 3541 3331 
Q 3541 3656 3305 3865 
Q 3069 4075 2559 4075 
L 1109 4075 
L 1109 2559 
z
" transform="scale(0.015625)"/>
       <path id="ArialMT-2f" d="M 0 -78 
L 1328 4659 
L 1778 4659 
L 453 -78 
L 0 -78 
z
" transform="scale(0.015625)"/>
       <path id="ArialMT-4d" d="M 475 0 
L 475 4581 
L 1388 4581 
L 2472 1338 
Q 2622 884 2691 659 
Q 2769 909 2934 1394 
L 4031 4581 
L 4847 4581 
L 4847 0 
L 4263 0 
L 4263 3834 
L 2931 0 
L 2384 0 
L 1059 3900 
L 1059 0 
L 475 0 
z
" transform="scale(0.015625)"/>
       <path id="ArialMT-57" d="M 1294 0 
L 78 4581 
L 700 4581 
L 1397 1578 
Q 1509 1106 1591 641 
Q 1766 1375 1797 1488 
L 2669 4581 
L 3400 4581 
L 4056 2263 
Q 4303 1400 4413 641 
Q 4500 1075 4641 1638 
L 5359 4581 
L 5969 4581 
L 4713 0 
L 4128 0 
L 3163 3491 
Q 3041 3928 3019 4028 
Q 2947 3713 2884 3491 
L 1913 0 
L 1294 0 
z
" transform="scale(0.015625)"/>
       <path id="ArialMT-68" d="M 422 0 
L 422 4581 
L 984 4581 
L 984 2938 
Q 1378 3394 1978 3394 
Q 2347 3394 2619 3248 
Q 2891 3103 3008 2847 
Q 3125 2591 3125 2103 
L 3125 0 
L 2563 0 
L 2563 2103 
Q 2563 2525 2380 2717 
Q 2197 2909 1863 2909 
Q 1613 2909 1392 2779 
Q 1172 2650 1078 2428 
Q 984 2206 984 1816 
L 984 0 
L 422 0 
z
" transform="scale(0.015625)"/>
       <path id="ArialMT-5d" d="M 1363 -1272 
L 122 -1272 
L 122 -806 
L 800 -806 
L 800 4116 
L 122 4116 
L 122 4581 
L 1363 4581 
L 1363 -1272 
z
" transform="scale(0.015625)"/>
      </defs>
      <use xlink:href="#ArialMT-50"/>
      <use xlink:href="#ArialMT-72" x="66.699219"/>
      <use xlink:href="#ArialMT-69" x="100"/>
      <use xlink:href="#ArialMT-63" x="122.216797"/>
      <use xlink:href="#ArialMT-65" x="172.216797"/>
      <use xlink:href="#ArialMT-20" x="227.832031"/>
      <use xlink:href="#ArialMT-5b" x="255.615234"/>
      <use xlink:href="#ArialMT-45" x="283.398438"/>
      <use xlink:href="#ArialMT-55" x="350.097656"/>
      <use xlink:href="#ArialMT-52" x="422.314453"/>
      <use xlink:href="#ArialMT-2f" x="494.53125"/>
      <use xlink:href="#ArialMT-4d" x="522.314453"/>
      <use xlink:href="#ArialMT-57" x="605.615234"/>
      <use xlink:href="#ArialMT-68" x="700"/>
      <use xlink:href="#ArialMT-5d" x="755.615234"/>
     </g>
    </g>
   </g>
   <g id="line2d_19">
    <path d="M 66.65475 321.949285 
L 67.090687 319.116513 
L 67.526625 320.117541 
L 67.962562 320.757402 
L 68.834437 321.552094 
L 69.270375 321.569022 
L 69.706312 321.430759 
L 71.014125 321.774862 
L 71.450062 321.481027 
L 72.757875 321.610186 
L 73.193812 321.429597 
L 81.040687 322.998022 
L 81.912562 322.925024 
L 83.220375 323.158549 
L 84.09225 323.265898 
L 84.528187 323.488338 
L 88.015687 323.991081 
L 88.887562 323.7769 
L 89.759437 323.397793 
L 90.631312 322.814434 
L 91.06725 322.369556 
L 91.503187 321.756883 
L 91.939125 317.573125 
L 92.375062 309.546586 
L 92.811 305.066318 
L 93.246937 303.545886 
L 94.118812 302.805344 
L 96.734437 302.677805 
L 97.170375 302.378199 
L 98.04225 301.335676 
L 100.221937 299.834175 
L 101.52975 299.536508 
L 102.401625 299.723419 
L 103.709437 300.442574 
L 104.145375 299.24935 
L 104.581312 299.795364 
L 105.01725 303.934242 
L 105.453187 311.913877 
L 105.889125 316.320322 
L 106.325062 317.852748 
L 107.196937 318.610012 
L 109.812562 318.691721 
L 110.684437 319.105386 
L 111.120375 319.503093 
L 113.300062 320.732692 
L 113.736 320.830255 
L 114.607875 320.882051 
L 115.47975 320.94324 
L 116.787562 320.832402 
L 117.2235 322.386112 
L 123.326625 321.887022 
L 123.762562 322.027918 
L 124.634437 321.959627 
L 125.94225 321.743526 
L 126.378187 321.48176 
L 126.814125 321.358639 
L 127.250062 321.400815 
L 128.557875 321.063264 
L 132.481312 320.214878 
L 136.40475 319.681416 
L 139.020375 319.658067 
L 139.89225 319.817769 
L 141.636 319.894586 
L 143.37975 319.986699 
L 147.739125 320.061327 
L 159.509437 319.517172 
L 160.381312 319.58893 
L 164.30475 319.414819 
L 165.612562 319.189902 
L 168.664125 318.651754 
L 170.843812 318.089844 
L 173.0235 317.276181 
L 175.203187 316.398294 
L 178.25475 315.020905 
L 180.870375 314.130673 
L 182.178187 313.556687 
L 184.357875 312.747317 
L 188.71725 312.372112 
L 190.025062 312.587636 
L 190.896937 312.848617 
L 193.9485 313.257307 
L 197.000062 314.308645 
L 199.17975 314.861244 
L 202.231312 315.764172 
L 203.539125 315.951062 
L 206.590687 315.58269 
L 210.950062 315.745964 
L 211.821937 315.786901 
L 214.8735 315.621357 
L 215.745375 315.681699 
L 216.61725 315.601249 
L 218.796937 316.066442 
L 221.8485 316.333906 
L 224.900062 316.536939 
L 231.439125 317.724507 
L 232.746937 318.03778 
L 233.182875 317.77077 
L 233.618812 317.884829 
L 234.05475 317.80537 
L 234.490687 317.604215 
L 235.362562 317.566291 
L 235.7985 316.593958 
L 236.670375 316.865861 
L 239.721937 317.17292 
L 241.901625 317.680783 
L 243.209437 318.19292 
L 244.081312 318.440689 
L 244.953187 318.846179 
L 245.825062 319.224563 
L 246.261 319.763063 
L 246.696937 319.954536 
L 248.440687 321.286075 
L 248.876625 322.581859 
L 250.184437 323.152026 
L 250.620375 323.49259 
L 254.543812 324.490212 
L 258.46725 325.241799 
L 260.211 325.652512 
L 261.518812 326.11438 
L 265.006312 327.099513 
L 266.750062 327.676699 
L 267.621937 327.678929 
L 269.801625 327.844927 
L 275.032875 327.926079 
L 276.776625 327.917346 
L 278.084437 327.897301 
L 279.828187 327.896021 
L 281.136 328.161379 
L 284.6235 328.831278 
L 288.546937 329.438088 
L 291.5985 330.334121 
L 294.214125 331.466755 
L 297.265687 332.594847 
L 299.009437 333.068524 
L 300.31725 333.466025 
L 301.189125 334.145508 
L 302.061 334.325586 
L 302.932875 334.909884 
L 303.368812 335.02066 
L 304.676625 335.814957 
L 306.420375 335.732649 
L 308.164125 335.634322 
L 312.5235 335.202655 
L 313.395375 335.164732 
L 314.26725 334.716627 
L 315.139125 334.646499 
L 316.011 334.260116 
L 316.446937 334.263831 
L 317.318812 333.84681 
L 320.370375 333.871411 
L 320.806312 333.968996 
L 321.678187 334.518888 
L 323.857875 334.903445 
L 325.165687 335.383249 
L 326.4735 336.079471 
L 327.781312 336.211634 
L 328.653187 336.629219 
L 330.396937 336.608616 
L 330.832875 336.419744 
L 332.576625 337.370744 
L 333.884437 338.161145 
L 334.320375 337.966751 
L 334.756312 338.001402 
L 335.19225 338.232916 
L 337.371937 338.199473 
L 337.807875 338.101579 
L 339.115687 337.353948 
L 339.551625 337.166221 
L 339.987562 337.362562 
L 340.4235 337.385271 
L 340.859437 337.608757 
L 341.295375 337.651948 
L 341.731312 337.419179 
L 343.039125 337.340731 
L 343.475062 337.539822 
L 343.911 337.532329 
L 344.346937 337.327139 
L 344.782875 337.333706 
L 345.65475 336.9021 
L 346.526625 336.198634 
L 346.962562 335.883478 
L 347.3985 335.804412 
L 348.270375 335.310865 
L 348.706312 335.486112 
L 349.578187 335.453329 
L 350.450062 335.976341 
L 350.886 336.061209 
L 352.62975 335.925929 
L 353.065687 335.698126 
L 353.501625 335.641066 
L 354.3735 335.115915 
L 355.681312 335.183793 
L 356.11725 335.393629 
L 356.553187 335.057235 
L 358.732875 334.51452 
L 359.60475 334.648314 
L 360.912562 334.30519 
L 361.3485 334.069786 
L 361.784437 333.690081 
L 362.656312 333.200219 
L 363.528187 332.310899 
L 364.400062 331.962242 
L 366.57975 330.853142 
L 368.3235 329.91642 
L 368.759437 329.604241 
L 369.195375 329.102045 
L 370.06725 328.824383 
L 373.118812 327.336011 
L 374.426625 327.272035 
L 375.2985 327.233637 
L 378.350062 327.869968 
L 379.221937 328.017862 
L 381.401625 328.703326 
L 382.2735 329.14003 
L 385.325062 330.071632 
L 387.068812 330.479145 
L 388.376625 330.837773 
L 389.684437 331.043676 
L 391.428187 331.264898 
L 392.736 331.516693 
L 395.787562 331.859611 
L 396.659437 332.121273 
L 397.96725 332.404117 
L 399.275062 332.752712 
L 403.634437 333.753885 
L 404.070375 333.813753 
L 404.94225 334.418102 
L 409.737562 334.875161 
L 410.609437 335.361309 
L 411.481312 335.378774 
L 411.91725 335.587212 
L 412.789125 335.635973 
L 413.225062 335.859168 
L 413.661 335.884973 
L 414.532875 336.316976 
L 415.40475 336.344722 
L 415.840687 336.577295 
L 418.020375 336.636417 
L 422.815687 339.337838 
L 423.687562 339.424972 
L 424.559437 339.921353 
L 424.995375 339.988182 
L 425.86725 340.475092 
L 426.303187 340.537749 
L 426.739125 340.773654 
L 427.611 340.846145 
L 428.482875 341.337143 
L 428.918812 341.383565 
L 430.226625 342.128773 
L 432.84225 342.418004 
L 438.0735 342.985144 
L 444.176625 343.590035 
L 453.331312 344.512304 
L 458.9985 344.676895 
L 472.076625 344.265129 
L 480.795375 344.20656 
L 489.078187 343.184163 
L 490.821937 342.8194 
L 498.668812 337.739047 
L 499.976625 336.903636 
L 503.900062 334.066683 
L 505.207875 333.74796 
L 506.951625 333.372074 
L 508.695375 332.726308 
L 513.490687 330.682736 
L 515.234437 330.07283 
L 516.978187 329.678797 
L 518.721937 329.542072 
L 520.465687 329.390091 
L 524.389125 329.363357 
L 525.696937 329.511663 
L 529.184437 329.849255 
L 530.056312 329.792257 
L 531.800062 329.458815 
L 532.236 329.476362 
L 532.671937 329.322564 
L 534.415687 329.205925 
L 535.7235 329.018023 
L 539.211 328.270256 
L 544.006312 326.816752 
L 548.365687 324.959492 
L 549.237562 324.343268 
L 550.109437 323.654274 
L 551.41725 322.982146 
L 555.340687 321.083846 
L 556.6485 320.782258 
L 558.39225 320.589959 
L 559.264125 320.785994 
L 560.571937 320.695161 
L 561.87975 320.371586 
L 562.315687 320.541383 
L 563.187562 321.030564 
L 564.931312 321.5837 
L 566.675062 322.248128 
L 568.85475 323.5679 
L 571.906312 324.585877 
L 573.214125 324.806768 
L 574.086 325.191263 
L 574.521937 325.490601 
L 575.393812 325.727305 
L 578.009437 325.518429 
L 580.625062 325.047064 
L 582.80475 324.578878 
L 583.676625 324.461352 
L 587.164125 323.359891 
L 589.77975 322.912555 
L 596.318812 321.152137 
L 598.4985 320.222557 
L 601.986 318.64713 
L 605.037562 317.103494 
L 606.781312 316.489768 
L 608.525062 315.566547 
L 610.70475 315.220491 
L 613.756312 314.840352 
L 615.064125 314.623858 
L 617.67975 314.309801 
L 622.039125 312.118562 
L 622.475062 311.830764 
L 623.346937 310.897551 
L 625.526625 308.706994 
L 626.3985 307.960279 
L 627.706312 307.081174 
L 629.450062 305.892471 
L 633.3735 303.697351 
L 634.681312 303.199108 
L 636.425062 302.357328 
L 637.732875 301.797049 
L 639.040687 301.213298 
L 640.784437 299.9305 
L 641.656313 299.171274 
L 645.143812 295.840383 
L 646.451625 295.132995 
L 648.195375 293.739895 
L 650.811 291.604932 
L 653.862562 288.568837 
L 655.606312 286.346261 
L 657.350062 282.810581 
L 657.786 281.303279 
L 658.657875 279.161441 
L 659.965687 275.355985 
L 661.2735 272.392206 
L 661.709437 271.489815 
L 662.581312 268.842942 
L 665.196937 258.163792 
L 666.068812 252.070751 
L 666.50475 249.951085 
L 669.556312 240.644824 
L 670.428187 238.438288 
L 670.864125 237.893926 
L 671.300062 236.671883 
L 673.47975 232.309719 
L 674.787562 229.286878 
L 675.2235 228.903498 
L 675.659437 229.067638 
L 677.403187 233.021959 
L 677.839125 233.644128 
L 678.275062 234.727939 
L 678.711 237.266286 
L 679.582875 240.383037 
L 680.45475 241.172671 
L 681.326625 242.380594 
L 681.762562 242.822376 
L 682.634437 244.789751 
L 683.070375 245.417742 
L 683.506312 245.700482 
L 684.814125 245.200112 
L 685.686 245.553786 
L 686.121937 245.982108 
L 686.557875 245.887145 
L 686.993812 245.971786 
L 688.301625 245.613199 
L 688.737562 245.088965 
L 690.481312 240.27028 
L 693.096937 235.800065 
L 693.968813 233.464979 
L 694.40475 231.94558 
L 695.276625 229.559131 
L 697.89225 218.473789 
L 698.764125 212.541731 
L 699.636 205.006706 
L 700.071937 203.26658 
L 701.815687 200.261719 
L 702.251625 200.011803 
L 702.687563 200.097476 
L 703.1235 200.649662 
L 703.995375 202.515509 
L 704.431312 202.820009 
L 705.739125 202.271869 
L 706.175062 202.091234 
L 707.046938 203.20729 
L 707.918812 204.693288 
L 708.35475 205.722599 
L 709.662562 210.698798 
L 710.970375 217.039814 
L 711.84225 223.868195 
L 712.714125 232.191532 
L 713.150062 234.467783 
L 713.586 235.607415 
L 714.893812 237.550802 
L 715.32975 237.823427 
L 715.765688 237.951956 
L 716.201625 237.504766 
L 717.0735 235.978884 
L 717.509437 236.316455 
L 718.381312 237.710669 
L 718.81725 238.276315 
L 719.253187 239.112563 
L 720.125063 239.870116 
L 720.996937 240.903968 
L 721.432875 241.072011 
L 721.868812 241.061895 
L 723.176625 242.41511 
L 723.612562 243.299211 
L 724.0485 243.676997 
L 724.484438 243.818945 
L 724.920375 242.990212 
L 725.79225 243.234141 
L 726.228187 242.871426 
L 727.100062 243.09628 
L 727.971937 240.993935 
L 728.407875 240.455126 
L 728.843813 239.567929 
L 729.27975 238.213681 
L 729.715687 235.790487 
L 731.895375 213.244329 
L 732.331312 205.877346 
L 732.76725 200.543263 
L 733.203188 197.253514 
L 734.075062 193.004852 
L 735.818812 185.757439 
L 737.562563 180.818523 
L 737.9985 180.563693 
L 738.870375 178.981825 
L 739.74225 176.606318 
L 740.178187 176.194304 
L 740.614125 177.138603 
L 741.050062 177.576256 
L 741.486 177.761846 
L 741.921938 177.530633 
L 742.793812 176.050457 
L 743.22975 178.765145 
L 743.665687 180.623107 
L 744.101625 184.003771 
L 744.537562 186.351946 
L 744.9735 190.009859 
L 745.409437 196.254261 
L 745.845375 200.487482 
L 746.281313 202.584006 
L 748.025062 205.939939 
L 748.461 206.505668 
L 749.332875 207.889643 
L 749.768812 208.421598 
L 751.076625 209.272296 
L 751.512562 209.266021 
L 751.9485 209.093643 
L 752.820375 210.57064 
L 753.256312 210.46775 
L 753.69225 210.519443 
L 754.128187 209.850577 
L 754.564125 209.656564 
L 755.000063 210.390624 
L 755.436 212.272698 
L 755.871937 215.086973 
L 756.743812 217.293199 
L 757.17975 218.137663 
L 757.615687 219.417468 
L 758.051625 219.758177 
L 759.359438 221.660028 
L 760.231312 223.655231 
L 760.66725 224.363899 
L 761.103187 224.659521 
L 761.975062 225.638378 
L 762.846937 225.921242 
L 763.718813 225.956502 
L 764.15475 226.1058 
L 764.590687 226.583791 
L 765.026625 227.283665 
L 765.462562 227.746463 
L 765.8985 228.396336 
L 766.770375 230.034067 
L 767.206312 231.656398 
L 768.078188 233.51853 
L 768.514125 234.209857 
L 769.386 235.092636 
L 770.693812 237.611619 
L 771.12975 238.474787 
L 772.8735 240.712309 
L 773.309437 240.72226 
L 773.745375 240.974075 
L 774.181312 241.744717 
L 775.053187 242.602187 
L 775.489125 242.57634 
L 775.925062 241.920893 
L 776.361 240.308306 
L 777.232875 238.176233 
L 778.540687 233.597638 
L 780.720375 222.264609 
L 782.028187 215.679745 
L 782.900062 210.410195 
L 784.207875 201.165308 
L 787.259437 171.600556 
L 788.56725 159.751964 
L 789.003187 157.235086 
L 789.875063 153.501203 
L 791.182875 148.357044 
L 792.490687 144.462591 
L 793.362562 141.061944 
L 794.234438 134.269897 
L 795.106312 129.22454 
L 797.286 119.084859 
L 797.721937 118.294193 
L 798.593813 117.658605 
L 799.465687 115.92905 
L 799.901625 115.271373 
L 800.7735 112.484348 
L 801.209437 111.61412 
L 801.645375 110.48035 
L 802.51725 107.113724 
L 803.825062 98.106698 
L 805.132875 87.131801 
L 806.440687 73.61926 
L 808.184437 57.403508 
L 808.620375 53.179411 
L 809.056312 50.379009 
L 809.49225 48.551023 
L 809.928187 47.592562 
L 810.800062 48.117581 
L 812.543812 42.615372 
L 812.97975 42.297 
L 815.159437 45.252563 
L 815.595375 44.789476 
L 816.031313 45.846904 
L 816.903187 51.223721 
L 818.646937 64.282755 
L 819.518812 73.235157 
L 820.826625 90.449171 
L 821.6985 98.999386 
L 823.006312 108.297328 
L 823.44225 109.772343 
L 823.878187 112.350698 
L 825.621937 132.165941 
L 826.493812 139.355798 
L 827.801625 148.539702 
L 828.237562 152.510042 
L 829.109438 164.858096 
L 831.289125 185.593691 
L 832.596937 202.355229 
L 833.468813 210.224027 
L 833.90475 214.359602 
L 835.6485 235.204898 
L 836.520375 246.022776 
L 836.956312 247.989656 
L 837.39225 248.48408 
L 837.828188 250.214049 
L 838.700062 254.768986 
L 839.136 256.182606 
L 839.571937 257.075212 
L 840.443812 259.704558 
L 840.87975 261.754137 
L 841.315687 262.290882 
L 841.751625 260.895016 
L 842.6235 256.629053 
L 843.059437 255.177366 
L 843.495375 254.254578 
L 844.36725 250.621231 
L 845.239125 244.834259 
L 846.111 238.898526 
L 846.546938 237.467565 
L 847.418812 232.656849 
L 847.85475 229.369289 
L 847.85475 229.369289 
" clip-path="url(#pbf5c1e36c1)" style="fill: none; stroke: #dd8452; stroke-width: 1.2; stroke-linecap: round"/>
   </g>
   <g id="patch_3">
    <path d="M 66.65475 359.817 
L 66.65475 27.177 
" style="fill: none; stroke: #cccccc; stroke-linejoin: miter; stroke-linecap: square"/>
   </g>
   <g id="patch_4">
    <path d="M 847.85475 359.817 
L 847.85475 27.177 
" style="fill: none; stroke: #cccccc; stroke-linejoin: miter; stroke-linecap: square"/>
   </g>
   <g id="patch_5">
    <path d="M 66.65475 359.817 
L 847.85475 359.817 
" style="fill: none; stroke: #cccccc; stroke-linejoin: miter; stroke-linecap: square"/>
   </g>
   <g id="patch_6">
    <path d="M 66.65475 27.177 
L 847.85475 27.177 
" style="fill: none; stroke: #cccccc; stroke-linejoin: miter; stroke-linecap: square"/>
   </g>
   <g id="text_14">
    <!-- Natural gas price and consumption residuals (30d rolling mean) -->
    <g style="fill: #262626" transform="translate(187.79925 21.177) scale(0.192 -0.192)">
     <defs>
      <path id="ArialMT-4e" d="M 488 0 
L 488 4581 
L 1109 4581 
L 3516 984 
L 3516 4581 
L 4097 4581 
L 4097 0 
L 3475 0 
L 1069 3600 
L 1069 0 
L 488 0 
z
" transform="scale(0.015625)"/>
      <path id="ArialMT-75" d="M 2597 0 
L 2597 488 
Q 2209 -75 1544 -75 
Q 1250 -75 995 37 
Q 741 150 617 320 
Q 494 491 444 738 
Q 409 903 409 1263 
L 409 3319 
L 972 3319 
L 972 1478 
Q 972 1038 1006 884 
Q 1059 663 1231 536 
Q 1403 409 1656 409 
Q 1909 409 2131 539 
Q 2353 669 2445 892 
Q 2538 1116 2538 1541 
L 2538 3319 
L 3100 3319 
L 3100 0 
L 2597 0 
z
" transform="scale(0.015625)"/>
      <path id="ArialMT-6c" d="M 409 0 
L 409 4581 
L 972 4581 
L 972 0 
L 409 0 
z
" transform="scale(0.015625)"/>
      <path id="ArialMT-67" d="M 319 -275 
L 866 -356 
Q 900 -609 1056 -725 
Q 1266 -881 1628 -881 
Q 2019 -881 2231 -725 
Q 2444 -569 2519 -288 
Q 2563 -116 2559 434 
Q 2191 0 1641 0 
Q 956 0 581 494 
Q 206 988 206 1678 
Q 206 2153 378 2554 
Q 550 2956 876 3175 
Q 1203 3394 1644 3394 
Q 2231 3394 2613 2919 
L 2613 3319 
L 3131 3319 
L 3131 450 
Q 3131 -325 2973 -648 
Q 2816 -972 2473 -1159 
Q 2131 -1347 1631 -1347 
Q 1038 -1347 672 -1080 
Q 306 -813 319 -275 
z
M 784 1719 
Q 784 1066 1043 766 
Q 1303 466 1694 466 
Q 2081 466 2343 764 
Q 2606 1063 2606 1700 
Q 2606 2309 2336 2618 
Q 2066 2928 1684 2928 
Q 1309 2928 1046 2623 
Q 784 2319 784 1719 
z
" transform="scale(0.015625)"/>
      <path id="ArialMT-73" d="M 197 991 
L 753 1078 
Q 800 744 1014 566 
Q 1228 388 1613 388 
Q 2000 388 2187 545 
Q 2375 703 2375 916 
Q 2375 1106 2209 1216 
Q 2094 1291 1634 1406 
Q 1016 1563 777 1677 
Q 538 1791 414 1992 
Q 291 2194 291 2438 
Q 291 2659 392 2848 
Q 494 3038 669 3163 
Q 800 3259 1026 3326 
Q 1253 3394 1513 3394 
Q 1903 3394 2198 3281 
Q 2494 3169 2634 2976 
Q 2775 2784 2828 2463 
L 2278 2388 
Q 2241 2644 2061 2787 
Q 1881 2931 1553 2931 
Q 1166 2931 1000 2803 
Q 834 2675 834 2503 
Q 834 2394 903 2306 
Q 972 2216 1119 2156 
Q 1203 2125 1616 2013 
Q 2213 1853 2448 1751 
Q 2684 1650 2818 1456 
Q 2953 1263 2953 975 
Q 2953 694 2789 445 
Q 2625 197 2315 61 
Q 2006 -75 1616 -75 
Q 969 -75 630 194 
Q 291 463 197 991 
z
" transform="scale(0.015625)"/>
      <path id="ArialMT-70" d="M 422 -1272 
L 422 3319 
L 934 3319 
L 934 2888 
Q 1116 3141 1344 3267 
Q 1572 3394 1897 3394 
Q 2322 3394 2647 3175 
Q 2972 2956 3137 2557 
Q 3303 2159 3303 1684 
Q 3303 1175 3120 767 
Q 2938 359 2589 142 
Q 2241 -75 1856 -75 
Q 1575 -75 1351 44 
Q 1128 163 984 344 
L 984 -1272 
L 422 -1272 
z
M 931 1641 
Q 931 1000 1190 694 
Q 1450 388 1819 388 
Q 2194 388 2461 705 
Q 2728 1022 2728 1688 
Q 2728 2322 2467 2637 
Q 2206 2953 1844 2953 
Q 1484 2953 1207 2617 
Q 931 2281 931 1641 
z
" transform="scale(0.015625)"/>
      <path id="ArialMT-6e" d="M 422 0 
L 422 3319 
L 928 3319 
L 928 2847 
Q 1294 3394 1984 3394 
Q 2284 3394 2536 3286 
Q 2788 3178 2913 3003 
Q 3038 2828 3088 2588 
Q 3119 2431 3119 2041 
L 3119 0 
L 2556 0 
L 2556 2019 
Q 2556 2363 2490 2533 
Q 2425 2703 2258 2804 
Q 2091 2906 1866 2906 
Q 1506 2906 1245 2678 
Q 984 2450 984 1813 
L 984 0 
L 422 0 
z
" transform="scale(0.015625)"/>
      <path id="ArialMT-64" d="M 2575 0 
L 2575 419 
Q 2259 -75 1647 -75 
Q 1250 -75 917 144 
Q 584 363 401 755 
Q 219 1147 219 1656 
Q 219 2153 384 2558 
Q 550 2963 881 3178 
Q 1213 3394 1622 3394 
Q 1922 3394 2156 3267 
Q 2391 3141 2538 2938 
L 2538 4581 
L 3097 4581 
L 3097 0 
L 2575 0 
z
M 797 1656 
Q 797 1019 1065 703 
Q 1334 388 1700 388 
Q 2069 388 2326 689 
Q 2584 991 2584 1609 
Q 2584 2291 2321 2609 
Q 2059 2928 1675 2928 
Q 1300 2928 1048 2622 
Q 797 2316 797 1656 
z
" transform="scale(0.015625)"/>
      <path id="ArialMT-6f" d="M 213 1659 
Q 213 2581 725 3025 
Q 1153 3394 1769 3394 
Q 2453 3394 2887 2945 
Q 3322 2497 3322 1706 
Q 3322 1066 3130 698 
Q 2938 331 2570 128 
Q 2203 -75 1769 -75 
Q 1072 -75 642 372 
Q 213 819 213 1659 
z
M 791 1659 
Q 791 1022 1069 705 
Q 1347 388 1769 388 
Q 2188 388 2466 706 
Q 2744 1025 2744 1678 
Q 2744 2294 2464 2611 
Q 2184 2928 1769 2928 
Q 1347 2928 1069 2612 
Q 791 2297 791 1659 
z
" transform="scale(0.015625)"/>
      <path id="ArialMT-6d" d="M 422 0 
L 422 3319 
L 925 3319 
L 925 2853 
Q 1081 3097 1340 3245 
Q 1600 3394 1931 3394 
Q 2300 3394 2536 3241 
Q 2772 3088 2869 2813 
Q 3263 3394 3894 3394 
Q 4388 3394 4653 3120 
Q 4919 2847 4919 2278 
L 4919 0 
L 4359 0 
L 4359 2091 
Q 4359 2428 4304 2576 
Q 4250 2725 4106 2815 
Q 3963 2906 3769 2906 
Q 3419 2906 3187 2673 
Q 2956 2441 2956 1928 
L 2956 0 
L 2394 0 
L 2394 2156 
Q 2394 2531 2256 2718 
Q 2119 2906 1806 2906 
Q 1569 2906 1367 2781 
Q 1166 2656 1075 2415 
Q 984 2175 984 1722 
L 984 0 
L 422 0 
z
" transform="scale(0.015625)"/>
      <path id="ArialMT-28" d="M 1497 -1347 
Q 1031 -759 709 28 
Q 388 816 388 1659 
Q 388 2403 628 3084 
Q 909 3875 1497 4659 
L 1900 4659 
Q 1522 4009 1400 3731 
Q 1209 3300 1100 2831 
Q 966 2247 966 1656 
Q 966 153 1900 -1347 
L 1497 -1347 
z
" transform="scale(0.015625)"/>
      <path id="ArialMT-33" d="M 269 1209 
L 831 1284 
Q 928 806 1161 595 
Q 1394 384 1728 384 
Q 2125 384 2398 659 
Q 2672 934 2672 1341 
Q 2672 1728 2419 1979 
Q 2166 2231 1775 2231 
Q 1616 2231 1378 2169 
L 1441 2663 
Q 1497 2656 1531 2656 
Q 1891 2656 2178 2843 
Q 2466 3031 2466 3422 
Q 2466 3731 2256 3934 
Q 2047 4138 1716 4138 
Q 1388 4138 1169 3931 
Q 950 3725 888 3313 
L 325 3413 
Q 428 3978 793 4289 
Q 1159 4600 1703 4600 
Q 2078 4600 2393 4439 
Q 2709 4278 2876 4000 
Q 3044 3722 3044 3409 
Q 3044 3113 2884 2869 
Q 2725 2625 2413 2481 
Q 2819 2388 3044 2092 
Q 3269 1797 3269 1353 
Q 3269 753 2831 336 
Q 2394 -81 1725 -81 
Q 1122 -81 723 278 
Q 325 638 269 1209 
z
" transform="scale(0.015625)"/>
      <path id="ArialMT-29" d="M 791 -1347 
L 388 -1347 
Q 1322 153 1322 1656 
Q 1322 2244 1188 2822 
Q 1081 3291 891 3722 
Q 769 4003 388 4659 
L 791 4659 
Q 1378 3875 1659 3084 
Q 1900 2403 1900 1659 
Q 1900 816 1576 28 
Q 1253 -759 791 -1347 
z
" transform="scale(0.015625)"/>
     </defs>
     <use xlink:href="#ArialMT-4e"/>
     <use xlink:href="#ArialMT-61" x="72.216797"/>
     <use xlink:href="#ArialMT-74" x="127.832031"/>
     <use xlink:href="#ArialMT-75" x="155.615234"/>
     <use xlink:href="#ArialMT-72" x="211.230469"/>
     <use xlink:href="#ArialMT-61" x="244.53125"/>
     <use xlink:href="#ArialMT-6c" x="300.146484"/>
     <use xlink:href="#ArialMT-20" x="322.363281"/>
     <use xlink:href="#ArialMT-67" x="350.146484"/>
     <use xlink:href="#ArialMT-61" x="405.761719"/>
     <use xlink:href="#ArialMT-73" x="461.376953"/>
     <use xlink:href="#ArialMT-20" x="511.376953"/>
     <use xlink:href="#ArialMT-70" x="539.160156"/>
     <use xlink:href="#ArialMT-72" x="594.775391"/>
     <use xlink:href="#ArialMT-69" x="628.076172"/>
     <use xlink:href="#ArialMT-63" x="650.292969"/>
     <use xlink:href="#ArialMT-65" x="700.292969"/>
     <use xlink:href="#ArialMT-20" x="755.908203"/>
     <use xlink:href="#ArialMT-61" x="783.691406"/>
     <use xlink:href="#ArialMT-6e" x="839.306641"/>
     <use xlink:href="#ArialMT-64" x="894.921875"/>
     <use xlink:href="#ArialMT-20" x="950.537109"/>
     <use xlink:href="#ArialMT-63" x="978.320312"/>
     <use xlink:href="#ArialMT-6f" x="1028.320312"/>
     <use xlink:href="#ArialMT-6e" x="1083.935547"/>
     <use xlink:href="#ArialMT-73" x="1139.550781"/>
     <use xlink:href="#ArialMT-75" x="1189.550781"/>
     <use xlink:href="#ArialMT-6d" x="1245.166016"/>
     <use xlink:href="#ArialMT-70" x="1328.466797"/>
     <use xlink:href="#ArialMT-74" x="1384.082031"/>
     <use xlink:href="#ArialMT-69" x="1411.865234"/>
     <use xlink:href="#ArialMT-6f" x="1434.082031"/>
     <use xlink:href="#ArialMT-6e" x="1489.697266"/>
     <use xlink:href="#ArialMT-20" x="1545.3125"/>
     <use xlink:href="#ArialMT-72" x="1573.095703"/>
     <use xlink:href="#ArialMT-65" x="1606.396484"/>
     <use xlink:href="#ArialMT-73" x="1662.011719"/>
     <use xlink:href="#ArialMT-69" x="1712.011719"/>
     <use xlink:href="#ArialMT-64" x="1734.228516"/>
     <use xlink:href="#ArialMT-75" x="1789.84375"/>
     <use xlink:href="#ArialMT-61" x="1845.458984"/>
     <use xlink:href="#ArialMT-6c" x="1901.074219"/>
     <use xlink:href="#ArialMT-73" x="1923.291016"/>
     <use xlink:href="#ArialMT-20" x="1973.291016"/>
     <use xlink:href="#ArialMT-28" x="2001.074219"/>
     <use xlink:href="#ArialMT-33" x="2034.375"/>
     <use xlink:href="#ArialMT-30" x="2089.990234"/>
     <use xlink:href="#ArialMT-64" x="2145.605469"/>
     <use xlink:href="#ArialMT-20" x="2201.220703"/>
     <use xlink:href="#ArialMT-72" x="2229.003906"/>
     <use xlink:href="#ArialMT-6f" x="2262.304688"/>
     <use xlink:href="#ArialMT-6c" x="2317.919922"/>
     <use xlink:href="#ArialMT-6c" x="2340.136719"/>
     <use xlink:href="#ArialMT-69" x="2362.353516"/>
     <use xlink:href="#ArialMT-6e" x="2384.570312"/>
     <use xlink:href="#ArialMT-67" x="2440.185547"/>
     <use xlink:href="#ArialMT-20" x="2495.800781"/>
     <use xlink:href="#ArialMT-6d" x="2523.583984"/>
     <use xlink:href="#ArialMT-65" x="2606.884766"/>
     <use xlink:href="#ArialMT-61" x="2662.5"/>
     <use xlink:href="#ArialMT-6e" x="2718.115234"/>
     <use xlink:href="#ArialMT-29" x="2773.730469"/>
    </g>
   </g>
   <g id="legend_1">
    <g id="patch_7">
     <path d="M 78.97475 66.15275 
L 175.3925 66.15275 
Q 178.9125 66.15275 178.9125 62.63275 
L 178.9125 39.497 
Q 178.9125 35.977 175.3925 35.977 
L 78.97475 35.977 
Q 75.45475 35.977 75.45475 39.497 
L 75.45475 62.63275 
Q 75.45475 66.15275 78.97475 66.15275 
z
" style="fill: #ffffff; opacity: 0.8; stroke: #cccccc; stroke-width: 0.8; stroke-linejoin: miter"/>
    </g>
    <g id="line2d_20">
     <path d="M 82.49475 49.45475 
L 100.09475 49.45475 
L 117.69475 49.45475 
" style="fill: none; stroke: #dd8452; stroke-width: 1.2; stroke-linecap: round"/>
    </g>
    <g id="text_15">
     <!-- Price -->
     <g style="fill: #262626" transform="translate(131.77475 55.61475) scale(0.176 -0.176)">
      <use xlink:href="#ArialMT-50"/>
      <use xlink:href="#ArialMT-72" x="66.699219"/>
      <use xlink:href="#ArialMT-69" x="100"/>
      <use xlink:href="#ArialMT-63" x="122.216797"/>
      <use xlink:href="#ArialMT-65" x="172.216797"/>
     </g>
    </g>
   </g>
  </g>
  <g id="axes_2">
   <g id="matplotlib.axis_3">
    <g id="ytick_7">
     <g id="line2d_21">
      <path d="M 66.65475 355.924342 
L 847.85475 355.924342 
" clip-path="url(#pbf5c1e36c1)" style="fill: none; stroke: #cccccc; stroke-width: 0.8; stroke-linecap: round"/>
     </g>
     <g id="line2d_22">
      <defs>
       <path id="m0c054964b6" d="M 0 0 
L 4.8 0 
" style="stroke: #262626"/>
      </defs>
      <g>
       <use xlink:href="#m0c054964b6" x="847.85475" y="355.924342" style="fill: #262626; stroke: #262626"/>
      </g>
     </g>
     <g id="text_16">
      <!-- −600000 -->
      <g style="fill: #262626" transform="translate(856.15475 362.223217) scale(0.176 -0.176)">
       <defs>
        <path id="ArialMT-2212" d="M 3381 1997 
L 356 1997 
L 356 2522 
L 3381 2522 
L 3381 1997 
z
" transform="scale(0.015625)"/>
        <path id="ArialMT-36" d="M 3184 3459 
L 2625 3416 
Q 2550 3747 2413 3897 
Q 2184 4138 1850 4138 
Q 1581 4138 1378 3988 
Q 1113 3794 959 3422 
Q 806 3050 800 2363 
Q 1003 2672 1297 2822 
Q 1591 2972 1913 2972 
Q 2475 2972 2870 2558 
Q 3266 2144 3266 1488 
Q 3266 1056 3080 686 
Q 2894 316 2569 119 
Q 2244 -78 1831 -78 
Q 1128 -78 684 439 
Q 241 956 241 2144 
Q 241 3472 731 4075 
Q 1159 4600 1884 4600 
Q 2425 4600 2770 4297 
Q 3116 3994 3184 3459 
z
M 888 1484 
Q 888 1194 1011 928 
Q 1134 663 1356 523 
Q 1578 384 1822 384 
Q 2178 384 2434 671 
Q 2691 959 2691 1453 
Q 2691 1928 2437 2201 
Q 2184 2475 1800 2475 
Q 1419 2475 1153 2201 
Q 888 1928 888 1484 
z
" transform="scale(0.015625)"/>
       </defs>
       <use xlink:href="#ArialMT-2212"/>
       <use xlink:href="#ArialMT-36" x="58.398438"/>
       <use xlink:href="#ArialMT-30" x="114.013672"/>
       <use xlink:href="#ArialMT-30" x="169.628906"/>
       <use xlink:href="#ArialMT-30" x="225.244141"/>
       <use xlink:href="#ArialMT-30" x="280.859375"/>
       <use xlink:href="#ArialMT-30" x="336.474609"/>
      </g>
     </g>
    </g>
    <g id="ytick_8">
     <g id="line2d_23">
      <path d="M 66.65475 293.680125 
L 847.85475 293.680125 
" clip-path="url(#pbf5c1e36c1)" style="fill: none; stroke: #cccccc; stroke-width: 0.8; stroke-linecap: round"/>
     </g>
     <g id="line2d_24">
      <g>
       <use xlink:href="#m0c054964b6" x="847.85475" y="293.680125" style="fill: #262626; stroke: #262626"/>
      </g>
     </g>
     <g id="text_17">
      <!-- −400000 -->
      <g style="fill: #262626" transform="translate(856.15475 299.979) scale(0.176 -0.176)">
       <defs>
        <path id="ArialMT-34" d="M 2069 0 
L 2069 1097 
L 81 1097 
L 81 1613 
L 2172 4581 
L 2631 4581 
L 2631 1613 
L 3250 1613 
L 3250 1097 
L 2631 1097 
L 2631 0 
L 2069 0 
z
M 2069 1613 
L 2069 3678 
L 634 1613 
L 2069 1613 
z
" transform="scale(0.015625)"/>
       </defs>
       <use xlink:href="#ArialMT-2212"/>
       <use xlink:href="#ArialMT-34" x="58.398438"/>
       <use xlink:href="#ArialMT-30" x="114.013672"/>
       <use xlink:href="#ArialMT-30" x="169.628906"/>
       <use xlink:href="#ArialMT-30" x="225.244141"/>
       <use xlink:href="#ArialMT-30" x="280.859375"/>
       <use xlink:href="#ArialMT-30" x="336.474609"/>
      </g>
     </g>
    </g>
    <g id="ytick_9">
     <g id="line2d_25">
      <path d="M 66.65475 231.435909 
L 847.85475 231.435909 
" clip-path="url(#pbf5c1e36c1)" style="fill: none; stroke: #cccccc; stroke-width: 0.8; stroke-linecap: round"/>
     </g>
     <g id="line2d_26">
      <g>
       <use xlink:href="#m0c054964b6" x="847.85475" y="231.435909" style="fill: #262626; stroke: #262626"/>
      </g>
     </g>
     <g id="text_18">
      <!-- −200000 -->
      <g style="fill: #262626" transform="translate(856.15475 237.734784) scale(0.176 -0.176)">
       <use xlink:href="#ArialMT-2212"/>
       <use xlink:href="#ArialMT-32" x="58.398438"/>
       <use xlink:href="#ArialMT-30" x="114.013672"/>
       <use xlink:href="#ArialMT-30" x="169.628906"/>
       <use xlink:href="#ArialMT-30" x="225.244141"/>
       <use xlink:href="#ArialMT-30" x="280.859375"/>
       <use xlink:href="#ArialMT-30" x="336.474609"/>
      </g>
     </g>
    </g>
    <g id="ytick_10">
     <g id="line2d_27">
      <path d="M 66.65475 169.191693 
L 847.85475 169.191693 
" clip-path="url(#pbf5c1e36c1)" style="fill: none; stroke: #cccccc; stroke-width: 0.8; stroke-linecap: round"/>
     </g>
     <g id="line2d_28">
      <g>
       <use xlink:href="#m0c054964b6" x="847.85475" y="169.191693" style="fill: #262626; stroke: #262626"/>
      </g>
     </g>
     <g id="text_19">
      <!-- 0 -->
      <g style="fill: #262626" transform="translate(856.15475 175.490568) scale(0.176 -0.176)">
       <use xlink:href="#ArialMT-30"/>
      </g>
     </g>
    </g>
    <g id="ytick_11">
     <g id="line2d_29">
      <path d="M 66.65475 106.947477 
L 847.85475 106.947477 
" clip-path="url(#pbf5c1e36c1)" style="fill: none; stroke: #cccccc; stroke-width: 0.8; stroke-linecap: round"/>
     </g>
     <g id="line2d_30">
      <g>
       <use xlink:href="#m0c054964b6" x="847.85475" y="106.947477" style="fill: #262626; stroke: #262626"/>
      </g>
     </g>
     <g id="text_20">
      <!-- 200000 -->
      <g style="fill: #262626" transform="translate(856.15475 113.246352) scale(0.176 -0.176)">
       <use xlink:href="#ArialMT-32"/>
       <use xlink:href="#ArialMT-30" x="55.615234"/>
       <use xlink:href="#ArialMT-30" x="111.230469"/>
       <use xlink:href="#ArialMT-30" x="166.845703"/>
       <use xlink:href="#ArialMT-30" x="222.460938"/>
       <use xlink:href="#ArialMT-30" x="278.076172"/>
      </g>
     </g>
    </g>
    <g id="ytick_12">
     <g id="line2d_31">
      <path d="M 66.65475 44.703261 
L 847.85475 44.703261 
" clip-path="url(#pbf5c1e36c1)" style="fill: none; stroke: #cccccc; stroke-width: 0.8; stroke-linecap: round"/>
     </g>
     <g id="line2d_32">
      <g>
       <use xlink:href="#m0c054964b6" x="847.85475" y="44.703261" style="fill: #262626; stroke: #262626"/>
      </g>
     </g>
     <g id="text_21">
      <!-- 400000 -->
      <g style="fill: #262626" transform="translate(856.15475 51.002136) scale(0.176 -0.176)">
       <use xlink:href="#ArialMT-34"/>
       <use xlink:href="#ArialMT-30" x="55.615234"/>
       <use xlink:href="#ArialMT-30" x="111.230469"/>
       <use xlink:href="#ArialMT-30" x="166.845703"/>
       <use xlink:href="#ArialMT-30" x="222.460938"/>
       <use xlink:href="#ArialMT-30" x="278.076172"/>
      </g>
     </g>
    </g>
    <g id="text_22">
     <!-- Consumption [MWh] model &lt;&gt; actual delta -->
     <g style="fill: #262626" transform="translate(943.13475 374.913) rotate(-90) scale(0.192 -0.192)">
      <defs>
       <path id="ArialMT-43" d="M 3763 1606 
L 4369 1453 
Q 4178 706 3683 314 
Q 3188 -78 2472 -78 
Q 1731 -78 1267 223 
Q 803 525 561 1097 
Q 319 1669 319 2325 
Q 319 3041 592 3573 
Q 866 4106 1370 4382 
Q 1875 4659 2481 4659 
Q 3169 4659 3637 4309 
Q 4106 3959 4291 3325 
L 3694 3184 
Q 3534 3684 3231 3912 
Q 2928 4141 2469 4141 
Q 1941 4141 1586 3887 
Q 1231 3634 1087 3207 
Q 944 2781 944 2328 
Q 944 1744 1114 1308 
Q 1284 872 1643 656 
Q 2003 441 2422 441 
Q 2931 441 3284 734 
Q 3638 1028 3763 1606 
z
" transform="scale(0.015625)"/>
       <path id="ArialMT-3c" d="M 350 2003 
L 350 2528 
L 3384 3809 
L 3384 3250 
L 978 2263 
L 3384 1266 
L 3384 706 
L 350 2003 
z
" transform="scale(0.015625)"/>
       <path id="ArialMT-3e" d="M 3384 2003 
L 350 706 
L 350 1266 
L 2753 2263 
L 350 3250 
L 350 3809 
L 3384 2528 
L 3384 2003 
z
" transform="scale(0.015625)"/>
      </defs>
      <use xlink:href="#ArialMT-43"/>
      <use xlink:href="#ArialMT-6f" x="72.216797"/>
      <use xlink:href="#ArialMT-6e" x="127.832031"/>
      <use xlink:href="#ArialMT-73" x="183.447266"/>
      <use xlink:href="#ArialMT-75" x="233.447266"/>
      <use xlink:href="#ArialMT-6d" x="289.0625"/>
      <use xlink:href="#ArialMT-70" x="372.363281"/>
      <use xlink:href="#ArialMT-74" x="427.978516"/>
      <use xlink:href="#ArialMT-69" x="455.761719"/>
      <use xlink:href="#ArialMT-6f" x="477.978516"/>
      <use xlink:href="#ArialMT-6e" x="533.59375"/>
      <use xlink:href="#ArialMT-20" x="589.208984"/>
      <use xlink:href="#ArialMT-5b" x="616.992188"/>
      <use xlink:href="#ArialMT-4d" x="644.775391"/>
      <use xlink:href="#ArialMT-57" x="728.076172"/>
      <use xlink:href="#ArialMT-68" x="822.460938"/>
      <use xlink:href="#ArialMT-5d" x="878.076172"/>
      <use xlink:href="#ArialMT-20" x="905.859375"/>
      <use xlink:href="#ArialMT-6d" x="933.642578"/>
      <use xlink:href="#ArialMT-6f" x="1016.943359"/>
      <use xlink:href="#ArialMT-64" x="1072.558594"/>
      <use xlink:href="#ArialMT-65" x="1128.173828"/>
      <use xlink:href="#ArialMT-6c" x="1183.789062"/>
      <use xlink:href="#ArialMT-20" x="1206.005859"/>
      <use xlink:href="#ArialMT-3c" x="1233.789062"/>
      <use xlink:href="#ArialMT-3e" x="1292.1875"/>
      <use xlink:href="#ArialMT-20" x="1350.585938"/>
      <use xlink:href="#ArialMT-61" x="1378.369141"/>
      <use xlink:href="#ArialMT-63" x="1433.984375"/>
      <use xlink:href="#ArialMT-74" x="1483.984375"/>
      <use xlink:href="#ArialMT-75" x="1511.767578"/>
      <use xlink:href="#ArialMT-61" x="1567.382812"/>
      <use xlink:href="#ArialMT-6c" x="1622.998047"/>
      <use xlink:href="#ArialMT-20" x="1645.214844"/>
      <use xlink:href="#ArialMT-64" x="1672.998047"/>
      <use xlink:href="#ArialMT-65" x="1728.613281"/>
      <use xlink:href="#ArialMT-6c" x="1784.228516"/>
      <use xlink:href="#ArialMT-74" x="1806.445312"/>
      <use xlink:href="#ArialMT-61" x="1834.228516"/>
     </g>
    </g>
   </g>
   <g id="line2d_33">
    <path d="M 66.65475 269.674408 
L 67.090687 258.19319 
L 67.962562 202.952992 
L 68.3985 184.773261 
L 68.834437 191.037169 
L 69.270375 205.419228 
L 69.706312 201.036017 
L 70.578187 174.85252 
L 71.014125 166.64435 
L 71.450062 162.398546 
L 72.321937 174.440314 
L 72.757875 171.758688 
L 73.193812 164.526982 
L 73.62975 162.078468 
L 74.065687 157.76231 
L 74.501625 154.735565 
L 75.3735 160.836553 
L 75.809437 158.088 
L 77.11725 145.911232 
L 77.553187 146.614821 
L 77.989125 151.477978 
L 78.425062 153.443489 
L 78.861 150.804849 
L 79.296937 150.903771 
L 79.732875 146.472757 
L 80.168812 144.447739 
L 80.60475 144.67597 
L 81.476625 152.949474 
L 81.912562 148.34508 
L 82.3485 141.824103 
L 82.784437 138.316183 
L 83.220375 138.438337 
L 83.656312 140.188446 
L 84.09225 143.058953 
L 84.528187 143.952139 
L 85.400062 135.045746 
L 85.836 135.977179 
L 86.271937 137.672501 
L 86.707875 135.16615 
L 87.57975 143.029805 
L 88.451625 134.718587 
L 88.887562 134.607412 
L 89.3235 136.171827 
L 89.759437 140.697835 
L 90.631312 151.743025 
L 91.06725 149.72814 
L 91.503187 150.544342 
L 91.939125 156.969073 
L 92.375062 157.435298 
L 93.246937 159.645241 
L 93.682875 158.37645 
L 94.118812 149.988073 
L 94.55475 145.000455 
L 94.990687 145.929604 
L 95.426625 145.957383 
L 95.862562 148.108399 
L 96.2985 151.052559 
L 96.734437 151.881435 
L 97.170375 151.531011 
L 97.606312 153.293069 
L 98.04225 158.073999 
L 98.478187 160.266973 
L 98.914125 161.394192 
L 99.786 180.150135 
L 100.221937 177.946449 
L 100.657875 173.176013 
L 101.093812 172.536472 
L 101.965687 170.919565 
L 102.401625 174.980296 
L 102.837562 176.479926 
L 104.145375 162.855588 
L 104.581312 161.658119 
L 105.01725 161.083859 
L 105.453187 165.170254 
L 105.889125 171.010006 
L 106.325062 171.789138 
L 106.761 166.403024 
L 107.196937 168.680749 
L 107.632875 172.809233 
L 108.068812 178.429792 
L 108.50475 180.475526 
L 108.940687 180.019765 
L 109.376625 178.158435 
L 109.812562 178.243108 
L 110.2485 181.003043 
L 110.684437 179.304459 
L 111.120375 178.291074 
L 111.556312 181.719164 
L 111.99225 183.583351 
L 112.864125 170.981239 
L 113.300062 168.744971 
L 113.736 167.199532 
L 114.171937 168.917518 
L 114.607875 172.547026 
L 115.043812 175.156403 
L 115.47975 172.325673 
L 115.915687 173.54469 
L 116.351625 177.07252 
L 116.787562 182.969564 
L 117.2235 186.67937 
L 117.659437 186.835054 
L 118.095375 183.174678 
L 118.531312 180.813865 
L 118.96725 182.667644 
L 119.403187 183.143997 
L 119.839125 189.187796 
L 120.275062 193.293878 
L 120.711 192.857439 
L 121.146937 189.195765 
L 122.018812 183.916647 
L 122.45475 184.912265 
L 122.890687 187.683687 
L 123.762562 188.764663 
L 124.1985 186.494834 
L 124.634437 179.129313 
L 125.070375 176.520704 
L 125.506312 177.823012 
L 125.94225 181.09994 
L 127.250062 201.631701 
L 127.686 200.868276 
L 128.557875 195.402047 
L 128.993812 190.000056 
L 129.42975 188.099463 
L 129.865687 184.860775 
L 130.301625 184.398222 
L 130.737562 183.213931 
L 131.1735 183.776177 
L 131.609437 181.807113 
L 132.045375 175.358488 
L 132.481312 173.222508 
L 132.91725 175.708449 
L 133.353187 177.282418 
L 133.789125 175.488472 
L 134.225062 174.395917 
L 134.661 176.85773 
L 135.096937 180.294208 
L 135.532875 180.609889 
L 135.968812 180.573293 
L 136.40475 179.713595 
L 136.840687 179.713972 
L 137.276625 180.26892 
L 137.712562 185.366064 
L 138.1485 185.132102 
L 138.584437 180.73329 
L 139.020375 178.85245 
L 139.456312 172.868938 
L 139.89225 164.866996 
L 140.328187 161.406328 
L 140.764125 160.947056 
L 141.200062 161.245776 
L 142.071937 178.490551 
L 142.507875 182.329319 
L 142.943812 179.228293 
L 143.815687 170.497579 
L 144.251625 169.64296 
L 144.687562 169.556368 
L 145.1235 170.050316 
L 145.559437 168.754759 
L 145.995375 163.279313 
L 146.431312 160.580504 
L 146.86725 159.93709 
L 147.303187 160.308428 
L 147.739125 161.05229 
L 148.611 166.359328 
L 149.482875 161.317331 
L 149.918812 161.201364 
L 150.790687 154.702923 
L 151.226625 156.315696 
L 151.662562 160.746766 
L 152.0985 159.029108 
L 152.534437 160.090384 
L 152.970375 163.128391 
L 153.406312 163.581224 
L 153.84225 164.263221 
L 154.278187 168.561472 
L 154.714125 165.423694 
L 155.150062 159.003721 
L 155.586 154.309467 
L 156.021937 154.514615 
L 156.457875 156.505197 
L 157.32975 164.266883 
L 157.765687 166.941338 
L 158.201625 164.409288 
L 158.637562 164.027204 
L 159.0735 166.417604 
L 159.509437 166.377668 
L 159.945375 166.978671 
L 160.81725 171.158448 
L 161.689125 165.923132 
L 162.561 165.854977 
L 162.996937 167.131854 
L 163.432875 172.034867 
L 163.868812 174.750537 
L 164.740687 170.701269 
L 165.176625 171.0958 
L 166.0485 171.175629 
L 166.484437 173.567221 
L 166.920375 175.326121 
L 167.356312 172.524833 
L 167.79225 168.870676 
L 168.228187 167.785703 
L 168.664125 167.418022 
L 169.100062 165.97868 
L 169.971937 178.246405 
L 170.407875 174.360995 
L 170.843812 166.996117 
L 171.715687 164.079034 
L 172.151625 165.856972 
L 172.587562 170.016492 
L 173.0235 172.394182 
L 173.895375 164.515893 
L 174.76725 162.311929 
L 175.203187 161.977773 
L 175.639125 165.252372 
L 176.075062 164.374948 
L 176.511 159.470889 
L 176.946937 156.47348 
L 177.382875 155.425307 
L 177.818812 154.815028 
L 178.25475 155.276821 
L 178.690687 158.496299 
L 179.126625 160.769465 
L 179.562562 154.926367 
L 179.9985 152.411781 
L 180.434437 152.707883 
L 180.870375 153.840519 
L 181.306312 153.632302 
L 182.178187 171.74962 
L 182.614125 171.801796 
L 183.050062 171.620596 
L 183.486 174.627799 
L 183.921937 175.94723 
L 184.357875 179.064119 
L 184.793812 188.123667 
L 185.22975 191.862257 
L 185.665687 191.429153 
L 186.101625 193.496112 
L 186.537562 197.438328 
L 186.9735 199.295628 
L 187.409437 199.875284 
L 187.845375 201.44234 
L 188.281312 206.067811 
L 188.71725 205.110606 
L 189.153187 203.563761 
L 189.589125 204.577081 
L 190.461 197.854841 
L 191.332875 196.029263 
L 191.768812 190.236195 
L 192.20475 186.408143 
L 192.640687 189.159794 
L 193.076625 190.674525 
L 193.512562 194.129247 
L 194.384437 207.11819 
L 195.256312 196.167459 
L 196.128187 180.485191 
L 196.564125 179.726283 
L 197.000062 188.403898 
L 197.436 194.573401 
L 198.743812 177.361018 
L 199.615687 171.356753 
L 200.487562 176.90015 
L 200.9235 172.648559 
L 201.359437 165.974875 
L 201.795375 161.967345 
L 202.231312 161.91152 
L 202.66725 164.946418 
L 203.539125 179.247228 
L 204.411 180.132813 
L 204.846937 184.187661 
L 205.718812 189.726638 
L 206.15475 193.78341 
L 206.590687 195.899252 
L 207.8985 176.646601 
L 208.334437 171.720242 
L 208.770375 170.649989 
L 209.206312 172.523784 
L 209.64225 171.274102 
L 210.514125 152.645444 
L 210.950062 151.374089 
L 211.386 152.796615 
L 211.821937 152.478265 
L 212.257875 153.038828 
L 212.693812 154.054251 
L 213.12975 145.947285 
L 213.565687 143.659636 
L 214.001625 149.977313 
L 214.437562 150.669983 
L 214.8735 147.704336 
L 215.309437 152.316907 
L 215.745375 154.44438 
L 216.181312 151.387555 
L 216.61725 146.623036 
L 217.053187 144.124875 
L 217.489125 140.9796 
L 217.925062 136.889833 
L 218.361 136.963121 
L 218.796937 136.208224 
L 219.668812 116.06138 
L 220.10475 114.304533 
L 220.540687 113.985353 
L 220.976625 114.784295 
L 221.412562 119.425129 
L 222.720375 137.418536 
L 223.156312 145.660139 
L 223.59225 148.056661 
L 224.028187 148.863889 
L 224.464125 152.194615 
L 224.900062 154.182754 
L 225.336 154.092616 
L 225.771937 156.147819 
L 226.207875 162.967172 
L 226.643812 165.498893 
L 227.07975 163.191569 
L 227.515687 164.233053 
L 227.951625 169.428476 
L 228.8235 158.776803 
L 229.259437 157.222209 
L 229.695375 156.611914 
L 230.131312 157.859629 
L 231.003187 161.799974 
L 231.875062 154.605118 
L 232.311 155.554681 
L 232.746937 157.218861 
L 233.182875 159.330976 
L 234.05475 170.959405 
L 234.490687 167.214324 
L 234.926625 161.178211 
L 236.234437 134.122145 
L 237.106312 126.153237 
L 237.54225 119.905347 
L 237.978187 115.798195 
L 238.850062 104.518253 
L 239.286 98.222808 
L 239.721937 95.220598 
L 240.157875 94.513871 
L 240.593812 92.9438 
L 241.02975 88.205341 
L 241.465687 87.725452 
L 241.901625 88.103266 
L 242.337562 86.408697 
L 243.209437 91.844436 
L 243.645375 91.43176 
L 244.081312 90.494776 
L 244.953187 87.351957 
L 245.389125 88.556552 
L 245.825062 92.45875 
L 246.261 94.358624 
L 247.132875 83.947709 
L 247.568812 85.817847 
L 248.00475 86.456937 
L 248.440687 88.812665 
L 248.876625 99.809614 
L 249.312562 105.965794 
L 249.7485 105.999307 
L 250.184437 106.509558 
L 251.056312 109.83983 
L 251.49225 114.157667 
L 251.928187 122.877786 
L 252.364125 127.972261 
L 252.800062 127.705794 
L 254.107875 134.906576 
L 254.543812 138.872506 
L 255.415687 149.158632 
L 255.851625 151.26089 
L 256.7235 149.046477 
L 257.159437 149.917062 
L 257.595375 151.910294 
L 258.46725 161.544016 
L 258.903187 163.022962 
L 259.339125 162.11126 
L 259.775062 162.480423 
L 260.211 159.967994 
L 260.646937 158.843634 
L 261.518812 169.402725 
L 261.95475 166.256106 
L 262.390687 164.594794 
L 262.826625 166.136904 
L 263.6985 166.594833 
L 264.134437 171.203016 
L 264.570375 174.192217 
L 265.006312 171.910908 
L 265.44225 170.294722 
L 265.878187 169.143802 
L 266.314125 166.954976 
L 266.750062 167.12582 
L 267.186 170.481741 
L 267.621937 170.502623 
L 268.057875 167.882506 
L 268.493812 168.557549 
L 268.92975 170.447092 
L 269.365687 174.189743 
L 270.6735 189.19893 
L 271.981312 176.931349 
L 272.41725 175.14503 
L 272.853187 177.191881 
L 273.725062 189.108369 
L 274.161 189.272717 
L 275.468812 175.914198 
L 275.90475 180.831281 
L 276.776625 199.761675 
L 277.212562 200.031671 
L 277.6485 197.364865 
L 278.084437 198.352965 
L 278.520375 200.740747 
L 278.956312 207.148625 
L 279.828187 223.448915 
L 280.264125 224.045528 
L 280.700062 223.16402 
L 281.136 221.906448 
L 281.571937 217.609481 
L 282.007875 214.442478 
L 282.443812 216.647628 
L 282.87975 219.685761 
L 283.315687 216.89524 
L 283.751625 216.280806 
L 284.6235 226.208283 
L 285.059437 228.774984 
L 285.495375 229.905286 
L 285.931312 228.408731 
L 286.803187 221.039551 
L 287.239125 219.893292 
L 287.675062 219.268675 
L 288.111 219.024652 
L 288.546937 223.466314 
L 288.982875 221.262017 
L 289.418812 211.913133 
L 289.85475 206.018369 
L 290.290687 205.873355 
L 290.726625 206.93068 
L 291.162562 199.940592 
L 291.5985 199.330466 
L 292.034437 197.218649 
L 292.906312 178.764816 
L 293.778187 173.630637 
L 294.214125 173.180088 
L 294.650062 177.545839 
L 295.086 177.962638 
L 295.521937 173.924819 
L 295.957875 166.047437 
L 297.265687 149.719457 
L 297.701625 148.837984 
L 298.137562 148.835804 
L 298.5735 147.700687 
L 299.009437 146.933792 
L 299.881312 146.416529 
L 300.31725 141.227239 
L 300.753187 143.363813 
L 301.189125 148.063511 
L 302.061 141.486479 
L 302.496937 142.035575 
L 302.932875 139.655146 
L 303.368812 136.079048 
L 303.80475 135.841891 
L 304.240687 141.020328 
L 304.676625 139.098735 
L 305.112562 133.531605 
L 305.5485 133.468188 
L 305.984437 131.919049 
L 306.420375 131.828788 
L 307.29225 140.24018 
L 307.728187 138.300475 
L 308.164125 138.224108 
L 308.600062 135.061296 
L 309.036 134.036836 
L 309.471937 135.407385 
L 310.343812 145.379796 
L 311.215687 142.077794 
L 311.651625 139.373391 
L 312.087562 138.425184 
L 312.5235 138.375258 
L 312.959437 140.071909 
L 313.395375 144.980936 
L 314.26725 138.170908 
L 314.703187 136.942215 
L 315.139125 136.963474 
L 315.575062 137.999443 
L 316.446937 144.577547 
L 317.318812 138.700953 
L 317.75475 138.643924 
L 318.190687 141.393389 
L 318.626625 142.288102 
L 319.062562 143.664534 
L 319.4985 146.636919 
L 320.806312 137.928522 
L 321.24225 136.776846 
L 321.678187 138.611138 
L 322.550062 150.335736 
L 323.421937 143.444603 
L 323.857875 143.594345 
L 324.293812 144.718005 
L 324.72975 146.848553 
L 325.601625 155.282154 
L 326.037562 149.712148 
L 326.4735 145.743451 
L 326.909437 145.400721 
L 327.345375 143.16147 
L 327.781312 144.605865 
L 328.21725 148.623556 
L 328.653187 150.988312 
L 329.525062 142.709971 
L 329.961 141.925317 
L 330.396937 141.634677 
L 330.832875 141.890386 
L 331.70475 147.650786 
L 332.140687 149.254275 
L 333.012562 143.868841 
L 333.4485 144.733486 
L 333.884437 147.570886 
L 334.756312 156.497734 
L 335.19225 154.682678 
L 335.628187 152.127362 
L 336.064125 153.78876 
L 336.500062 149.264307 
L 336.936 145.997398 
L 337.807875 151.584724 
L 338.243812 147.539492 
L 338.67975 146.706975 
L 339.115687 153.064573 
L 339.551625 157.66182 
L 339.987562 161.01175 
L 340.4235 165.950276 
L 340.859437 165.456367 
L 341.731312 156.844533 
L 342.16725 155.908812 
L 342.603187 154.632079 
L 343.039125 154.39636 
L 343.475062 158.67729 
L 343.911 161.083171 
L 344.346937 158.002207 
L 344.782875 153.952783 
L 345.218812 155.708454 
L 346.526625 171.136096 
L 346.962562 174.112827 
L 347.3985 170.588783 
L 347.834437 163.170794 
L 348.270375 159.225181 
L 348.706312 158.424437 
L 349.14225 158.480994 
L 349.578187 161.911352 
L 350.014125 161.767324 
L 350.450062 153.090013 
L 350.886 149.388058 
L 351.321937 150.707688 
L 352.193812 142.474787 
L 352.62975 141.76315 
L 353.065687 139.985075 
L 353.501625 135.206583 
L 353.937562 134.435983 
L 354.3735 134.87621 
L 354.809437 133.800153 
L 355.245375 134.127618 
L 355.681312 137.788063 
L 356.11725 142.796394 
L 356.553187 142.399665 
L 356.989125 142.2113 
L 357.425062 145.335261 
L 357.861 150.49468 
L 358.296937 150.939334 
L 358.732875 143.607732 
L 359.168812 140.654702 
L 360.040687 129.040425 
L 360.476625 127.278999 
L 361.3485 131.576445 
L 361.784437 135.077566 
L 362.220375 141.05982 
L 362.656312 143.578726 
L 363.09225 144.32617 
L 363.528187 146.773761 
L 363.964125 147.413961 
L 364.400062 145.440635 
L 365.271937 152.143439 
L 365.707875 146.454605 
L 366.143812 142.614455 
L 366.57975 143.533565 
L 367.015687 140.625315 
L 367.451625 139.148054 
L 368.3235 145.827718 
L 368.759437 143.419111 
L 369.631312 132.412086 
L 370.06725 127.791466 
L 370.503187 126.21766 
L 370.939125 128.00912 
L 371.375062 129.179851 
L 371.811 127.679827 
L 372.246937 122.426543 
L 372.682875 120.970453 
L 373.118812 120.158687 
L 373.55475 119.978298 
L 374.426625 116.569782 
L 375.2985 105.492248 
L 375.734437 102.82572 
L 376.170375 103.008821 
L 377.04225 107.407207 
L 377.478187 108.385302 
L 378.350062 98.533577 
L 378.786 99.970586 
L 379.221937 105.15697 
L 379.657875 108.968728 
L 380.52975 125.286727 
L 380.965687 126.925189 
L 381.401625 129.159623 
L 381.837562 134.553039 
L 382.2735 142.789814 
L 382.709437 148.11988 
L 383.145375 156.771505 
L 383.581312 161.570943 
L 384.01725 155.610573 
L 384.453187 151.560447 
L 385.325062 167.67826 
L 386.196937 170.149679 
L 386.632875 173.660246 
L 387.068812 175.422259 
L 387.50475 174.37189 
L 387.940687 172.070948 
L 388.376625 167.102455 
L 388.812562 165.024565 
L 389.2485 171.14221 
L 389.684437 175.606873 
L 390.556312 171.385387 
L 390.99225 170.539864 
L 391.428187 171.425479 
L 391.864125 173.860479 
L 392.300062 174.204139 
L 392.736 174.709663 
L 395.351625 130.222821 
L 395.787562 127.024484 
L 396.659437 104.617829 
L 397.095375 102.74156 
L 397.531312 99.283737 
L 397.96725 88.669693 
L 398.403187 85.076244 
L 398.839125 88.666702 
L 399.275062 87.281183 
L 399.711 85.375193 
L 400.146937 85.542418 
L 400.582875 84.839382 
L 401.018812 86.67392 
L 401.45475 92.942967 
L 401.890687 95.121881 
L 402.326625 88.118717 
L 402.762562 84.720057 
L 403.1985 86.516642 
L 403.634437 86.349753 
L 404.070375 86.586364 
L 404.506312 90.348398 
L 404.94225 87.317215 
L 405.378187 83.448314 
L 405.814125 81.710964 
L 406.250062 84.600602 
L 406.686 86.089953 
L 407.121937 89.886843 
L 407.557875 96.068224 
L 407.993812 98.54732 
L 408.42975 98.763603 
L 408.865687 96.146912 
L 409.301625 102.108028 
L 409.737562 104.494182 
L 410.1735 105.880103 
L 410.609437 108.299508 
L 411.045375 114.299234 
L 411.481312 112.557162 
L 411.91725 108.544791 
L 412.353187 108.265989 
L 412.789125 104.601586 
L 413.225062 102.570663 
L 414.096937 111.191726 
L 414.532875 106.600745 
L 414.968812 106.708381 
L 415.40475 105.856284 
L 415.840687 102.662508 
L 416.276625 104.973232 
L 416.712562 113.470574 
L 417.1485 119.662796 
L 417.584437 115.166936 
L 418.456312 116.963641 
L 418.89225 115.617389 
L 419.328187 118.74877 
L 420.200062 137.496986 
L 421.071937 142.543692 
L 421.507875 142.921449 
L 421.943812 146.157256 
L 422.37975 144.93628 
L 422.815687 150.841412 
L 423.251625 159.120476 
L 423.687562 165.010443 
L 424.1235 166.777125 
L 424.559437 170.407075 
L 425.431312 173.798708 
L 426.303187 184.618576 
L 426.739125 180.830215 
L 427.175062 179.273719 
L 427.611 181.626481 
L 428.046937 184.98915 
L 428.918812 205.277397 
L 429.35475 207.104565 
L 429.790687 210.737382 
L 430.662562 223.831143 
L 431.0985 224.115288 
L 431.534437 224.759025 
L 432.406312 232.762303 
L 432.84225 228.588397 
L 433.278187 223.018471 
L 434.150062 218.790692 
L 434.586 220.170564 
L 435.457875 233.551747 
L 435.893812 229.487277 
L 436.32975 222.636203 
L 436.765687 220.007521 
L 437.201625 221.632683 
L 437.637562 228.461986 
L 438.0735 237.864784 
L 438.509437 243.740549 
L 438.945375 242.874366 
L 439.381312 245.51274 
L 439.81725 250.381786 
L 440.253187 251.132944 
L 440.689125 250.250692 
L 441.125062 247.843945 
L 441.561 242.958765 
L 441.996937 244.855061 
L 442.432875 249.265414 
L 443.30475 235.469489 
L 443.740687 234.938642 
L 444.176625 240.387497 
L 444.612562 243.812125 
L 445.0485 239.323624 
L 445.484437 230.101133 
L 445.920375 224.798895 
L 446.356312 223.951528 
L 446.79225 221.973751 
L 447.664125 233.590342 
L 448.536 223.766586 
L 448.971937 222.748173 
L 449.407875 223.270931 
L 449.843812 222.883094 
L 450.27975 224.53853 
L 450.715687 222.166062 
L 451.587562 207.022449 
L 452.459437 199.170431 
L 452.895375 201.576034 
L 453.76725 213.766221 
L 454.203187 212.747446 
L 454.639125 209.73974 
L 455.075062 199.716988 
L 455.511 192.369036 
L 455.946937 189.869633 
L 456.382875 190.338976 
L 456.818812 187.471116 
L 457.690687 171.919968 
L 458.9985 168.622925 
L 459.870375 167.300755 
L 460.306312 159.267791 
L 460.74225 149.11309 
L 461.178187 144.634736 
L 461.614125 141.766613 
L 462.050062 142.087086 
L 462.486 143.083068 
L 462.921937 143.132548 
L 463.793812 128.054995 
L 464.22975 124.792506 
L 465.101625 123.170694 
L 465.537562 125.433763 
L 465.9735 122.806256 
L 466.409437 116.471197 
L 466.845375 112.520782 
L 467.281312 112.902238 
L 468.153187 105.016938 
L 469.025062 108.388331 
L 469.461 102.311692 
L 469.896937 100.083865 
L 470.332875 102.008591 
L 470.768812 106.800994 
L 471.20475 107.368476 
L 471.640687 112.108359 
L 472.076625 115.315259 
L 472.9485 111.292144 
L 473.384437 109.901905 
L 473.820375 110.541826 
L 474.256312 111.917539 
L 475.128187 118.06401 
L 476.000062 112.888186 
L 476.436 114.539213 
L 476.871937 115.628883 
L 477.307875 117.290402 
L 478.17975 125.131765 
L 479.051625 117.255147 
L 479.487562 116.122641 
L 479.9235 114.190199 
L 480.359437 113.792616 
L 481.231312 126.574506 
L 482.103187 121.162326 
L 482.539125 124.276111 
L 482.975062 126.198646 
L 483.846937 128.970313 
L 484.282875 132.508823 
L 484.718812 130.990993 
L 485.15475 128.829272 
L 485.590687 128.864385 
L 486.026625 130.997883 
L 486.462562 134.235159 
L 486.8985 139.027111 
L 487.334437 139.424045 
L 487.770375 136.840922 
L 488.206312 132.677475 
L 488.64225 133.616236 
L 489.514125 131.081806 
L 490.386 136.37679 
L 490.821937 134.615351 
L 491.257875 133.398604 
L 491.693812 135.243697 
L 492.12975 134.999035 
L 492.565687 134.335836 
L 493.001625 137.50134 
L 493.437562 142.949449 
L 493.8735 142.793156 
L 494.309437 139.552665 
L 494.745375 135.321126 
L 495.61725 134.287536 
L 496.053187 134.669564 
L 496.489125 133.433159 
L 497.361 126.936331 
L 497.796937 126.367203 
L 498.232875 128.033923 
L 499.10475 135.563573 
L 499.540687 137.156041 
L 499.976625 131.491279 
L 500.412562 127.480539 
L 500.8485 124.786824 
L 501.284437 125.069898 
L 501.720375 129.308677 
L 502.156312 140.704093 
L 502.59225 148.797455 
L 503.028187 148.18444 
L 503.464125 145.388755 
L 504.336 142.776486 
L 504.771937 141.504479 
L 505.207875 144.546986 
L 505.643812 151.164201 
L 506.07975 150.178409 
L 506.515687 145.613012 
L 506.951625 144.17041 
L 507.387562 145.273832 
L 507.8235 148.081659 
L 508.695375 162.448495 
L 509.131312 162.69842 
L 509.56725 163.862702 
L 510.003187 165.425264 
L 510.439125 165.057486 
L 510.875062 164.852494 
L 511.311 166.805868 
L 511.746937 167.581168 
L 512.182875 163.344656 
L 512.618812 162.21885 
L 513.490687 160.627173 
L 513.926625 162.187099 
L 514.362562 165.761812 
L 514.7985 164.13384 
L 515.234437 155.187529 
L 515.670375 150.220903 
L 516.106312 148.615226 
L 516.54225 149.004833 
L 516.978187 148.742445 
L 517.414125 150.571396 
L 517.850062 152.882518 
L 518.286 144.64364 
L 518.721937 139.406015 
L 519.593812 141.584355 
L 520.02975 141.297167 
L 520.465687 144.573069 
L 520.901625 149.543121 
L 521.7735 135.916376 
L 523.081312 130.729612 
L 523.51725 132.604496 
L 523.953187 135.984936 
L 524.389125 132.615721 
L 524.825062 127.735897 
L 525.261 127.773159 
L 525.696937 127.06139 
L 526.132875 131.655483 
L 526.568812 142.25641 
L 527.00475 145.812486 
L 527.876625 134.638469 
L 528.312562 131.919462 
L 528.7485 126.386316 
L 529.184437 124.174967 
L 530.056312 127.394076 
L 530.49225 123.63162 
L 530.928187 116.401923 
L 531.364125 117.483443 
L 531.800062 114.885654 
L 532.236 109.293288 
L 533.107875 104.012831 
L 533.97975 86.623761 
L 534.851625 77.613924 
L 535.287562 75.197605 
L 535.7235 75.241094 
L 536.159437 74.425009 
L 536.595375 70.608816 
L 537.031312 64.42928 
L 537.46725 61.355097 
L 537.903187 60.486351 
L 538.339125 61.563558 
L 538.775062 65.301239 
L 539.211 66.400388 
L 540.082875 56.695419 
L 540.518812 59.508488 
L 541.390687 76.806365 
L 541.826625 87.996175 
L 542.262562 96.269987 
L 542.6985 94.749534 
L 543.134437 94.241938 
L 543.570375 97.246397 
L 544.44225 112.299236 
L 545.314125 121.498055 
L 546.186 118.887114 
L 546.621937 121.156117 
L 547.057875 121.393957 
L 547.493812 122.395594 
L 548.365687 130.160844 
L 548.801625 130.49423 
L 549.237562 127.983567 
L 549.6735 128.035344 
L 550.109437 125.88255 
L 550.545375 125.167112 
L 550.981312 127.408491 
L 551.41725 127.309438 
L 552.289125 110.388294 
L 552.725062 105.020162 
L 553.161 103.735285 
L 554.032875 98.562097 
L 554.468812 92.557417 
L 555.340687 71.833859 
L 555.776625 67.467823 
L 556.212562 61.779898 
L 556.6485 58.276245 
L 557.084437 57.510001 
L 557.520375 59.22316 
L 557.956312 53.954356 
L 558.39225 46.070357 
L 558.828187 42.297 
L 559.264125 43.250826 
L 559.700062 46.334686 
L 560.571937 62.218586 
L 561.007875 62.233148 
L 561.87975 58.224306 
L 562.315687 57.637804 
L 562.751625 58.989613 
L 563.187562 66.736917 
L 563.6235 72.371773 
L 564.059437 66.726443 
L 564.495375 57.604715 
L 564.931312 55.424195 
L 565.36725 55.35083 
L 565.803187 56.966972 
L 566.239125 61.931733 
L 566.675062 65.40819 
L 567.546937 56.860294 
L 567.982875 56.811708 
L 568.418812 58.789799 
L 568.85475 65.003241 
L 569.290687 76.776313 
L 569.726625 84.503141 
L 570.162562 81.325322 
L 570.5985 74.352002 
L 571.034437 75.416366 
L 571.470375 79.51192 
L 572.34225 94.05573 
L 572.778187 96.297896 
L 573.214125 90.749541 
L 573.650062 83.782009 
L 574.086 82.302578 
L 574.521937 79.803969 
L 574.957875 83.347905 
L 575.82975 97.70908 
L 576.265687 95.351507 
L 576.701625 91.797951 
L 577.137562 95.637496 
L 578.445375 117.632355 
L 578.881312 119.654336 
L 579.753187 109.874134 
L 580.189125 106.71695 
L 580.625062 105.33344 
L 581.061 106.426569 
L 581.496937 114.487254 
L 581.932875 115.820063 
L 582.80475 95.56999 
L 583.240687 92.869904 
L 583.676625 95.566151 
L 584.5485 118.511419 
L 584.984437 126.097365 
L 585.856312 130.6663 
L 586.29225 134.497266 
L 586.728187 135.384408 
L 587.164125 133.466839 
L 587.600062 136.590184 
L 588.036 136.603554 
L 588.471937 135.137194 
L 588.907875 132.142354 
L 589.343812 131.882104 
L 589.77975 132.565225 
L 590.215687 132.88268 
L 590.651625 135.915748 
L 591.087562 137.23139 
L 591.5235 132.201298 
L 591.959437 131.25076 
L 592.395375 136.194435 
L 594.139125 164.24645 
L 595.011 158.532583 
L 595.446937 161.161183 
L 595.882875 166.054718 
L 596.318812 173.794931 
L 596.75475 179.380023 
L 597.190687 176.052046 
L 597.626625 170.243677 
L 598.062562 162.112263 
L 598.4985 158.272007 
L 598.934437 156.56431 
L 599.370375 158.273288 
L 599.806312 163.47348 
L 600.24225 165.066597 
L 600.678187 162.318942 
L 601.114125 161.561124 
L 601.550062 163.359831 
L 602.421937 173.455436 
L 603.293812 186.474251 
L 603.72975 187.374403 
L 604.165687 188.814899 
L 604.601625 192.724909 
L 605.037562 195.630497 
L 605.4735 196.973299 
L 605.909437 200.580387 
L 606.345375 205.619597 
L 606.781312 204.817584 
L 607.21725 203.735816 
L 607.653187 204.454659 
L 608.089125 205.77968 
L 608.961 213.618281 
L 609.396937 214.071813 
L 609.832875 208.258999 
L 610.70475 193.74342 
L 611.140687 194.390823 
L 611.576625 192.215996 
L 612.012562 193.085338 
L 612.4485 191.914267 
L 612.884437 185.094337 
L 613.320375 185.92918 
L 613.756312 187.843647 
L 614.19225 187.475852 
L 615.064125 181.757068 
L 615.500062 181.58753 
L 616.371937 170.59799 
L 617.67975 162.722136 
L 618.551625 166.191457 
L 618.987562 160.669735 
L 619.859438 146.014051 
L 620.731312 134.008346 
L 621.16725 134.372027 
L 621.603187 135.821525 
L 622.475062 125.737887 
L 622.911 124.489312 
L 623.782875 129.117606 
L 624.65475 132.621717 
L 625.090687 127.147374 
L 625.526625 126.151833 
L 625.962562 128.807003 
L 626.3985 126.513189 
L 627.270375 128.448618 
L 627.706312 130.624894 
L 628.14225 126.91854 
L 629.014125 118.735333 
L 629.450062 119.407327 
L 629.886 121.141335 
L 630.757875 129.010064 
L 631.62975 119.875094 
L 632.065687 116.722667 
L 632.501625 118.09429 
L 632.937563 122.156553 
L 633.809437 134.047482 
L 634.681312 130.399023 
L 635.553187 136.281927 
L 635.989125 139.879875 
L 636.425062 140.204142 
L 636.861 145.535509 
L 637.296938 145.585098 
L 637.732875 144.898339 
L 638.168812 148.124256 
L 638.60475 147.229218 
L 639.040687 148.477752 
L 639.476625 154.297139 
L 639.912562 158.200594 
L 640.3485 159.31191 
L 640.784437 156.388624 
L 641.220375 157.882866 
L 641.656313 159.851115 
L 642.528187 169.622662 
L 642.964125 172.766816 
L 643.400062 170.422141 
L 643.836 172.116354 
L 644.271937 175.914572 
L 644.707875 176.523796 
L 645.143812 178.475635 
L 645.57975 181.718443 
L 646.015688 182.573982 
L 646.451625 180.489954 
L 646.887562 179.788586 
L 647.759437 184.187717 
L 648.195375 186.970152 
L 648.631312 190.686005 
L 649.06725 193.314323 
L 649.503187 193.542286 
L 649.939125 190.189 
L 650.375063 188.588561 
L 650.811 187.597321 
L 651.246937 187.690142 
L 652.118812 194.696841 
L 652.55475 192.270622 
L 652.990687 187.406626 
L 653.426625 183.968665 
L 653.862562 184.285987 
L 654.2985 183.554829 
L 654.734438 182.313986 
L 655.170375 181.999182 
L 655.606312 178.450239 
L 656.04225 171.941575 
L 656.914125 161.601293 
L 657.350062 162.325035 
L 658.221937 176.624717 
L 658.657875 177.202098 
L 659.093813 178.834439 
L 659.52975 179.840442 
L 659.965687 178.309588 
L 660.837562 173.995483 
L 661.2735 169.079537 
L 661.709437 161.734056 
L 662.145375 159.235159 
L 662.581312 162.5491 
L 663.01725 167.59018 
L 663.453188 170.315481 
L 663.889125 172.18827 
L 664.761 170.502036 
L 665.196937 170.922792 
L 666.068812 178.810848 
L 666.50475 184.543532 
L 667.376625 201.189282 
L 667.812563 205.30051 
L 668.2485 206.079618 
L 668.684437 208.862201 
L 669.120375 212.671294 
L 669.99225 225.736631 
L 670.428187 228.799344 
L 670.864125 224.619539 
L 671.736 210.538513 
L 672.171938 208.800528 
L 672.607875 212.995977 
L 673.47975 224.305708 
L 673.915687 224.783537 
L 674.351625 223.788186 
L 674.787562 224.791686 
L 675.659437 223.799986 
L 676.095375 222.707766 
L 676.531313 220.543906 
L 676.96725 221.194586 
L 677.403187 223.341406 
L 677.839125 221.180239 
L 678.711 214.399055 
L 679.146937 216.049416 
L 679.582875 216.659766 
L 680.45475 197.866459 
L 681.326625 190.007465 
L 681.762562 186.957525 
L 682.1985 188.038352 
L 682.634437 186.470881 
L 683.506312 170.320018 
L 683.94225 168.728636 
L 684.378187 168.022019 
L 684.814125 169.251696 
L 685.250063 169.477534 
L 685.686 166.639571 
L 686.121937 160.408992 
L 686.557875 152.351095 
L 686.993812 147.163269 
L 687.42975 146.072249 
L 687.865687 145.81202 
L 688.301625 145.208528 
L 688.737562 143.3761 
L 689.1735 136.262439 
L 689.609438 132.398872 
L 690.045375 125.342209 
L 690.481312 121.733201 
L 690.91725 122.451861 
L 691.353187 123.987452 
L 691.789125 124.855575 
L 692.661 112.886396 
L 693.096937 111.897313 
L 693.532875 109.568175 
L 693.968813 107.963175 
L 694.40475 110.90329 
L 694.840687 112.21376 
L 695.276625 104.279996 
L 695.712562 99.580921 
L 696.1485 98.357364 
L 696.584437 96.793526 
L 697.020375 96.661503 
L 697.89225 106.661617 
L 698.328188 104.604506 
L 698.764125 101.810147 
L 699.200062 103.590626 
L 700.071937 111.222086 
L 700.943812 132.248509 
L 701.37975 133.769108 
L 701.815687 132.847363 
L 702.251625 136.067966 
L 702.687563 137.706162 
L 703.995375 151.84829 
L 704.431312 151.355956 
L 704.86725 151.082643 
L 705.739125 161.317517 
L 706.175062 165.985151 
L 706.611 172.187205 
L 707.046938 174.915127 
L 707.482875 168.638709 
L 707.918812 164.165951 
L 708.35475 166.395652 
L 708.790687 166.889754 
L 709.226625 166.751572 
L 709.662562 171.113432 
L 710.0985 174.035419 
L 710.970375 157.753028 
L 711.406313 156.557024 
L 712.278187 151.502915 
L 712.714125 147.643275 
L 713.150062 146.537351 
L 714.021937 120.491265 
L 714.457875 115.748281 
L 715.32975 109.02358 
L 715.765688 110.5335 
L 716.201625 110.366088 
L 718.381312 87.370382 
L 718.81725 89.073609 
L 719.253187 88.729865 
L 720.125063 82.816112 
L 720.561 83.595279 
L 720.996937 84.605113 
L 721.432875 88.633522 
L 721.868812 97.433632 
L 722.30475 103.564594 
L 723.176625 93.642411 
L 723.612562 95.528786 
L 724.0485 98.039578 
L 724.484438 98.634839 
L 724.920375 104.470578 
L 725.356312 107.973528 
L 725.79225 109.419559 
L 726.228187 109.840999 
L 727.100062 114.170296 
L 727.536 118.058872 
L 728.407875 130.29452 
L 728.843813 130.281079 
L 729.27975 128.219926 
L 729.715687 128.163613 
L 730.151625 130.247092 
L 730.587562 135.353881 
L 731.0235 142.899563 
L 731.459437 148.143603 
L 731.895375 143.73526 
L 732.331312 141.72415 
L 732.76725 141.06224 
L 733.203188 142.99842 
L 734.075062 155.754616 
L 734.511 158.911598 
L 734.946937 153.374828 
L 735.382875 150.795769 
L 735.818812 156.790721 
L 736.25475 159.019535 
L 736.690687 162.913775 
L 737.126625 171.490141 
L 737.562563 175.943475 
L 738.434437 167.694986 
L 738.870375 167.557745 
L 739.306312 169.11513 
L 739.74225 173.993749 
L 740.178187 180.737998 
L 740.614125 183.095412 
L 741.050062 181.286598 
L 741.486 178.961195 
L 741.921938 181.522374 
L 742.793812 193.822702 
L 743.22975 199.941764 
L 743.665687 204.260233 
L 744.101625 201.361877 
L 744.537562 196.444833 
L 744.9735 195.463157 
L 745.409437 195.697709 
L 745.845375 200.727994 
L 746.281313 208.963967 
L 746.71725 212.990447 
L 747.153187 210.564809 
L 747.589125 205.677082 
L 748.025062 202.608728 
L 748.461 203.925511 
L 748.896937 209.451123 
L 749.768812 227.601784 
L 750.20475 228.221283 
L 750.640688 228.405858 
L 752.820375 254.216963 
L 753.69225 251.712187 
L 754.564125 254.215924 
L 755.000063 254.292841 
L 755.436 256.753508 
L 755.871937 257.812957 
L 756.743812 247.950704 
L 757.17975 248.026831 
L 757.615687 250.777394 
L 758.487562 259.071251 
L 758.9235 260.46432 
L 759.359438 252.850591 
L 759.795375 243.286102 
L 760.231312 242.016839 
L 760.66725 242.772506 
L 761.103187 250.109888 
L 761.539125 253.645411 
L 761.975062 249.000766 
L 762.846937 225.431455 
L 763.282875 218.963984 
L 764.15475 212.574036 
L 764.590687 214.547196 
L 765.026625 214.956118 
L 765.8985 201.939813 
L 766.334437 201.874446 
L 766.770375 202.385615 
L 767.206312 205.269178 
L 768.078188 218.979643 
L 768.514125 217.174045 
L 768.950062 212.538912 
L 769.386 212.655226 
L 769.821937 213.355269 
L 770.257875 210.30567 
L 770.693812 208.970526 
L 771.12975 208.436083 
L 771.565687 205.666506 
L 772.001625 200.586119 
L 772.437563 199.180645 
L 772.8735 203.156278 
L 773.309437 202.631682 
L 773.745375 206.764856 
L 774.181312 206.550588 
L 774.61725 204.041641 
L 775.053187 202.283593 
L 775.489125 204.329821 
L 775.925062 209.376209 
L 776.361 212.371543 
L 776.796938 216.698226 
L 777.232875 219.119186 
L 778.10475 209.541298 
L 778.540687 210.84097 
L 778.976625 210.287393 
L 779.412562 208.619159 
L 779.8485 209.890805 
L 780.284437 208.590807 
L 781.156313 192.021164 
L 781.59225 187.696206 
L 782.028187 186.863514 
L 782.464125 188.116381 
L 782.900062 191.076682 
L 783.336 196.955018 
L 783.771937 198.876983 
L 784.207875 199.61065 
L 784.643812 199.952017 
L 785.515688 207.476749 
L 785.951625 209.908664 
L 786.387562 216.359624 
L 786.8235 213.570645 
L 787.259437 211.704671 
L 787.695375 211.582794 
L 789.003187 216.207016 
L 789.439125 214.706603 
L 790.311 209.019823 
L 790.746937 209.237107 
L 791.618812 212.833141 
L 792.490687 219.346195 
L 793.362562 216.15113 
L 793.7985 216.360504 
L 794.234438 214.582606 
L 794.670375 216.845357 
L 795.106312 221.415274 
L 795.54225 224.182248 
L 795.978187 222.412151 
L 796.414125 221.741924 
L 796.850062 222.376292 
L 797.286 222.691188 
L 797.721937 225.377257 
L 798.157875 227.15837 
L 799.02975 228.312123 
L 799.465687 226.088393 
L 799.901625 229.194535 
L 800.7735 233.374098 
L 801.645375 240.242776 
L 802.081312 239.636625 
L 802.953188 240.746047 
L 803.389125 241.097674 
L 803.825062 242.505877 
L 804.261 247.017519 
L 804.696937 249.823199 
L 805.568812 244.238006 
L 806.00475 243.072209 
L 806.440687 242.877153 
L 806.876625 243.845184 
L 807.312563 249.431497 
L 807.7485 249.502817 
L 808.184437 244.042991 
L 808.620375 240.861388 
L 809.49225 236.726228 
L 809.928187 236.944828 
L 810.364125 239.217805 
L 810.800062 240.364649 
L 811.236 238.107048 
L 811.671938 237.541967 
L 812.107875 235.895798 
L 812.543812 235.087917 
L 812.97975 235.299737 
L 813.415687 238.200583 
L 813.851625 239.859535 
L 814.287562 236.844856 
L 814.7235 231.206151 
L 815.159437 229.597345 
L 815.595375 232.721715 
L 816.031313 239.749709 
L 816.903187 258.542256 
L 817.339125 260.318712 
L 817.775062 261.592733 
L 819.95475 285.660471 
L 820.390688 286.981783 
L 820.826625 291.032711 
L 821.262562 298.156248 
L 821.6985 302.351971 
L 823.006312 319.440476 
L 823.44225 322.718554 
L 823.878187 323.181479 
L 824.314125 323.443458 
L 824.750063 324.811567 
L 825.621937 335.526659 
L 826.057875 342.357036 
L 826.92975 339.816664 
L 827.801625 344.697 
L 828.237562 344.653291 
L 828.6735 343.218709 
L 829.109438 337.426114 
L 829.981312 313.441792 
L 830.41725 311.08474 
L 830.853187 311.677031 
L 831.289125 306.656975 
L 831.725062 303.49624 
L 832.161 302.844828 
L 833.032875 291.400537 
L 833.468813 287.202801 
L 833.90475 281.68271 
L 834.340687 273.723298 
L 835.212562 265.956037 
L 835.6485 262.667442 
L 836.520375 259.283682 
L 836.956312 260.261377 
L 837.39225 262.570634 
L 837.828188 268.178452 
L 838.264125 270.573578 
L 838.700062 265.321716 
L 839.136 258.2462 
L 839.571937 256.648123 
L 840.007875 257.920015 
L 840.443812 260.261521 
L 841.315687 275.378764 
L 841.751625 276.753627 
L 842.187563 277.171363 
L 843.059437 289.863924 
L 843.495375 292.646014 
L 843.931312 298.673277 
L 844.36725 307.357258 
L 844.803187 309.030854 
L 845.239125 308.139015 
L 845.675062 310.967301 
L 846.111 311.963443 
L 846.546938 314.355639 
L 846.982875 319.927292 
L 847.418812 329.991947 
L 847.85475 330.479966 
L 848.290687 328.436326 
L 848.290687 328.436326 
" clip-path="url(#pbf5c1e36c1)" style="fill: none; stroke: #4c72b0; stroke-width: 1.2; stroke-linecap: round"/>
   </g>
   <g id="patch_8">
    <path d="M 66.65475 359.817 
L 66.65475 27.177 
" style="fill: none; stroke: #cccccc; stroke-linejoin: miter; stroke-linecap: square"/>
   </g>
   <g id="patch_9">
    <path d="M 847.85475 359.817 
L 847.85475 27.177 
" style="fill: none; stroke: #cccccc; stroke-linejoin: miter; stroke-linecap: square"/>
   </g>
   <g id="patch_10">
    <path d="M 66.65475 359.817 
L 847.85475 359.817 
" style="fill: none; stroke: #cccccc; stroke-linejoin: miter; stroke-linecap: square"/>
   </g>
   <g id="patch_11">
    <path d="M 66.65475 27.177 
L 847.85475 27.177 
" style="fill: none; stroke: #cccccc; stroke-linejoin: miter; stroke-linecap: square"/>
   </g>
   <g id="legend_2">
    <g id="patch_12">
     <path d="M 675.5205 66.36725 
L 835.53475 66.36725 
Q 839.05475 66.36725 839.05475 62.84725 
L 839.05475 39.497 
Q 839.05475 35.977 835.53475 35.977 
L 675.5205 35.977 
Q 672.0005 35.977 672.0005 39.497 
L 672.0005 62.84725 
Q 672.0005 66.36725 675.5205 66.36725 
z
" style="fill: #ffffff; opacity: 0.8; stroke: #cccccc; stroke-width: 0.8; stroke-linejoin: miter"/>
    </g>
    <g id="line2d_34">
     <path d="M 679.0405 49.66925 
L 696.6405 49.66925 
L 714.2405 49.66925 
" style="fill: none; stroke: #4c72b0; stroke-width: 1.2; stroke-linecap: round"/>
    </g>
    <g id="text_23">
     <!-- Consumption -->
     <g style="fill: #262626" transform="translate(728.3205 55.82925) scale(0.176 -0.176)">
      <use xlink:href="#ArialMT-43"/>
      <use xlink:href="#ArialMT-6f" x="72.216797"/>
      <use xlink:href="#ArialMT-6e" x="127.832031"/>
      <use xlink:href="#ArialMT-73" x="183.447266"/>
      <use xlink:href="#ArialMT-75" x="233.447266"/>
      <use xlink:href="#ArialMT-6d" x="289.0625"/>
      <use xlink:href="#ArialMT-70" x="372.363281"/>
      <use xlink:href="#ArialMT-74" x="427.978516"/>
      <use xlink:href="#ArialMT-69" x="455.761719"/>
      <use xlink:href="#ArialMT-6f" x="477.978516"/>
      <use xlink:href="#ArialMT-6e" x="533.59375"/>
     </g>
    </g>
   </g>
  </g>
 </g>
 <defs>
  <clipPath id="pbf5c1e36c1">
   <rect x="66.65475" y="27.177" width="781.2" height="332.64"/>
  </clipPath>
 </defs>
</svg>
