<?xml version="1.0" encoding="utf-8" standalone="no"?>
<!DOCTYPE svg PUBLIC "-//W3C//DTD SVG 1.1//EN"
  "http://www.w3.org/Graphics/SVG/1.1/DTD/svg11.dtd">
<svg xmlns:xlink="http://www.w3.org/1999/xlink" width="895.41825pt" height="326.49005pt" viewBox="0 0 895.41825 326.49005" xmlns="http://www.w3.org/2000/svg" version="1.1">
 <metadata>
  <rdf:RDF xmlns:dc="http://purl.org/dc/elements/1.1/" xmlns:cc="http://creativecommons.org/ns#" xmlns:rdf="http://www.w3.org/1999/02/22-rdf-syntax-ns#">
   <cc:Work>
    <dc:type rdf:resource="http://purl.org/dc/dcmitype/StillImage"/>
    <dc:date>2023-05-11T15:35:34.458658</dc:date>
    <dc:format>image/svg+xml</dc:format>
    <dc:creator>
     <cc:Agent>
      <dc:title>Matplotlib v3.7.1, https://matplotlib.org/</dc:title>
     </cc:Agent>
    </dc:creator>
   </cc:Work>
  </rdf:RDF>
 </metadata>
 <defs>
  <style type="text/css">*{stroke-linejoin: round; stroke-linecap: butt}</style>
 </defs>
 <g id="figure_1">
  <g id="patch_1">
   <path d="M 0 326.49005 
L 895.41825 326.49005 
L 895.41825 0 
L 0 0 
z
" style="fill: #ffffff"/>
  </g>
  <g id="axes_1">
   <g id="patch_2">
    <path d="M 67.147 254.72 
L 848.347 254.72 
L 848.347 32.96 
L 67.147 32.96 
z
" style="fill: #ffffff"/>
   </g>
   <g id="matplotlib.axis_1">
    <g id="xtick_1">
     <g id="line2d_1">
      <path d="M 67.147 254.72 
L 67.147 32.96 
" clip-path="url(#p733f3a5310)" style="fill: none; stroke: #cccccc; stroke-width: 0.8; stroke-linecap: round"/>
     </g>
     <g id="text_1">
      <!-- Jan -->
      <g style="fill: #262626" transform="translate(52.95975 275.61775) scale(0.176 -0.176)">
       <defs>
        <path id="ArialMT-4a" d="M 184 1300 
L 731 1375 
Q 753 850 928 656 
Q 1103 463 1413 463 
Q 1641 463 1806 567 
Q 1972 672 2034 851 
Q 2097 1031 2097 1425 
L 2097 4581 
L 2703 4581 
L 2703 1459 
Q 2703 884 2564 568 
Q 2425 253 2123 87 
Q 1822 -78 1416 -78 
Q 813 -78 492 269 
Q 172 616 184 1300 
z
" transform="scale(0.015625)"/>
        <path id="ArialMT-61" d="M 2588 409 
Q 2275 144 1986 34 
Q 1697 -75 1366 -75 
Q 819 -75 525 192 
Q 231 459 231 875 
Q 231 1119 342 1320 
Q 453 1522 633 1644 
Q 813 1766 1038 1828 
Q 1203 1872 1538 1913 
Q 2219 1994 2541 2106 
Q 2544 2222 2544 2253 
Q 2544 2597 2384 2738 
Q 2169 2928 1744 2928 
Q 1347 2928 1158 2789 
Q 969 2650 878 2297 
L 328 2372 
Q 403 2725 575 2942 
Q 747 3159 1072 3276 
Q 1397 3394 1825 3394 
Q 2250 3394 2515 3294 
Q 2781 3194 2906 3042 
Q 3031 2891 3081 2659 
Q 3109 2516 3109 2141 
L 3109 1391 
Q 3109 606 3145 398 
Q 3181 191 3288 0 
L 2700 0 
Q 2613 175 2588 409 
z
M 2541 1666 
Q 2234 1541 1622 1453 
Q 1275 1403 1131 1340 
Q 988 1278 909 1158 
Q 831 1038 831 891 
Q 831 666 1001 516 
Q 1172 366 1500 366 
Q 1825 366 2078 508 
Q 2331 650 2450 897 
Q 2541 1088 2541 1459 
L 2541 1666 
z
" transform="scale(0.015625)"/>
        <path id="ArialMT-6e" d="M 422 0 
L 422 3319 
L 928 3319 
L 928 2847 
Q 1294 3394 1984 3394 
Q 2284 3394 2536 3286 
Q 2788 3178 2913 3003 
Q 3038 2828 3088 2588 
Q 3119 2431 3119 2041 
L 3119 0 
L 2556 0 
L 2556 2019 
Q 2556 2363 2490 2533 
Q 2425 2703 2258 2804 
Q 2091 2906 1866 2906 
Q 1506 2906 1245 2678 
Q 984 2450 984 1813 
L 984 0 
L 422 0 
z
" transform="scale(0.015625)"/>
       </defs>
       <use xlink:href="#ArialMT-4a"/>
       <use xlink:href="#ArialMT-61" x="50"/>
       <use xlink:href="#ArialMT-6e" x="105.615234"/>
      </g>
      <!-- 2021 -->
      <g style="fill: #262626" transform="translate(47.5725 294.23305) scale(0.176 -0.176)">
       <defs>
        <path id="ArialMT-32" d="M 3222 541 
L 3222 0 
L 194 0 
Q 188 203 259 391 
Q 375 700 629 1000 
Q 884 1300 1366 1694 
Q 2113 2306 2375 2664 
Q 2638 3022 2638 3341 
Q 2638 3675 2398 3904 
Q 2159 4134 1775 4134 
Q 1369 4134 1125 3890 
Q 881 3647 878 3216 
L 300 3275 
Q 359 3922 746 4261 
Q 1134 4600 1788 4600 
Q 2447 4600 2831 4234 
Q 3216 3869 3216 3328 
Q 3216 3053 3103 2787 
Q 2991 2522 2730 2228 
Q 2469 1934 1863 1422 
Q 1356 997 1212 845 
Q 1069 694 975 541 
L 3222 541 
z
" transform="scale(0.015625)"/>
        <path id="ArialMT-30" d="M 266 2259 
Q 266 3072 433 3567 
Q 600 4063 929 4331 
Q 1259 4600 1759 4600 
Q 2128 4600 2406 4451 
Q 2684 4303 2865 4023 
Q 3047 3744 3150 3342 
Q 3253 2941 3253 2259 
Q 3253 1453 3087 958 
Q 2922 463 2592 192 
Q 2263 -78 1759 -78 
Q 1097 -78 719 397 
Q 266 969 266 2259 
z
M 844 2259 
Q 844 1131 1108 757 
Q 1372 384 1759 384 
Q 2147 384 2411 759 
Q 2675 1134 2675 2259 
Q 2675 3391 2411 3762 
Q 2147 4134 1753 4134 
Q 1366 4134 1134 3806 
Q 844 3388 844 2259 
z
" transform="scale(0.015625)"/>
        <path id="ArialMT-31" d="M 2384 0 
L 1822 0 
L 1822 3584 
Q 1619 3391 1289 3197 
Q 959 3003 697 2906 
L 697 3450 
Q 1169 3672 1522 3987 
Q 1875 4303 2022 4600 
L 2384 4600 
L 2384 0 
z
" transform="scale(0.015625)"/>
       </defs>
       <use xlink:href="#ArialMT-32"/>
       <use xlink:href="#ArialMT-30" x="55.615234"/>
       <use xlink:href="#ArialMT-32" x="111.230469"/>
       <use xlink:href="#ArialMT-31" x="166.845703"/>
      </g>
     </g>
    </g>
    <g id="xtick_2">
     <g id="line2d_2">
      <path d="M 133.677769 254.72 
L 133.677769 32.96 
" clip-path="url(#p733f3a5310)" style="fill: none; stroke: #cccccc; stroke-width: 0.8; stroke-linecap: round"/>
     </g>
     <g id="text_2">
      <!-- Feb -->
      <g style="fill: #262626" transform="translate(118.515644 275.61775) scale(0.176 -0.176)">
       <defs>
        <path id="ArialMT-46" d="M 525 0 
L 525 4581 
L 3616 4581 
L 3616 4041 
L 1131 4041 
L 1131 2622 
L 3281 2622 
L 3281 2081 
L 1131 2081 
L 1131 0 
L 525 0 
z
" transform="scale(0.015625)"/>
        <path id="ArialMT-65" d="M 2694 1069 
L 3275 997 
Q 3138 488 2766 206 
Q 2394 -75 1816 -75 
Q 1088 -75 661 373 
Q 234 822 234 1631 
Q 234 2469 665 2931 
Q 1097 3394 1784 3394 
Q 2450 3394 2872 2941 
Q 3294 2488 3294 1666 
Q 3294 1616 3291 1516 
L 816 1516 
Q 847 969 1125 678 
Q 1403 388 1819 388 
Q 2128 388 2347 550 
Q 2566 713 2694 1069 
z
M 847 1978 
L 2700 1978 
Q 2663 2397 2488 2606 
Q 2219 2931 1791 2931 
Q 1403 2931 1139 2672 
Q 875 2413 847 1978 
z
" transform="scale(0.015625)"/>
        <path id="ArialMT-62" d="M 941 0 
L 419 0 
L 419 4581 
L 981 4581 
L 981 2947 
Q 1338 3394 1891 3394 
Q 2197 3394 2470 3270 
Q 2744 3147 2920 2923 
Q 3097 2700 3197 2384 
Q 3297 2069 3297 1709 
Q 3297 856 2875 390 
Q 2453 -75 1863 -75 
Q 1275 -75 941 416 
L 941 0 
z
M 934 1684 
Q 934 1088 1097 822 
Q 1363 388 1816 388 
Q 2184 388 2453 708 
Q 2722 1028 2722 1663 
Q 2722 2313 2464 2622 
Q 2206 2931 1841 2931 
Q 1472 2931 1203 2611 
Q 934 2291 934 1684 
z
" transform="scale(0.015625)"/>
       </defs>
       <use xlink:href="#ArialMT-46"/>
       <use xlink:href="#ArialMT-65" x="61.083984"/>
       <use xlink:href="#ArialMT-62" x="116.699219"/>
      </g>
     </g>
    </g>
    <g id="xtick_3">
     <g id="line2d_3">
      <path d="M 193.770077 254.72 
L 193.770077 32.96 
" clip-path="url(#p733f3a5310)" style="fill: none; stroke: #cccccc; stroke-width: 0.8; stroke-linecap: round"/>
     </g>
     <g id="text_3">
      <!-- Mar -->
      <g style="fill: #262626" transform="translate(178.616202 275.61775) scale(0.176 -0.176)">
       <defs>
        <path id="ArialMT-4d" d="M 475 0 
L 475 4581 
L 1388 4581 
L 2472 1338 
Q 2622 884 2691 659 
Q 2769 909 2934 1394 
L 4031 4581 
L 4847 4581 
L 4847 0 
L 4263 0 
L 4263 3834 
L 2931 0 
L 2384 0 
L 1059 3900 
L 1059 0 
L 475 0 
z
" transform="scale(0.015625)"/>
        <path id="ArialMT-72" d="M 416 0 
L 416 3319 
L 922 3319 
L 922 2816 
Q 1116 3169 1280 3281 
Q 1444 3394 1641 3394 
Q 1925 3394 2219 3213 
L 2025 2691 
Q 1819 2813 1613 2813 
Q 1428 2813 1281 2702 
Q 1134 2591 1072 2394 
Q 978 2094 978 1738 
L 978 0 
L 416 0 
z
" transform="scale(0.015625)"/>
       </defs>
       <use xlink:href="#ArialMT-4d"/>
       <use xlink:href="#ArialMT-61" x="83.300781"/>
       <use xlink:href="#ArialMT-72" x="138.916016"/>
      </g>
     </g>
    </g>
    <g id="xtick_4">
     <g id="line2d_4">
      <path d="M 260.300846 254.72 
L 260.300846 32.96 
" clip-path="url(#p733f3a5310)" style="fill: none; stroke: #cccccc; stroke-width: 0.8; stroke-linecap: round"/>
     </g>
     <g id="text_4">
      <!-- Apr -->
      <g style="fill: #262626" transform="translate(246.607221 275.61775) scale(0.176 -0.176)">
       <defs>
        <path id="ArialMT-41" d="M -9 0 
L 1750 4581 
L 2403 4581 
L 4278 0 
L 3588 0 
L 3053 1388 
L 1138 1388 
L 634 0 
L -9 0 
z
M 1313 1881 
L 2866 1881 
L 2388 3150 
Q 2169 3728 2063 4100 
Q 1975 3659 1816 3225 
L 1313 1881 
z
" transform="scale(0.015625)"/>
        <path id="ArialMT-70" d="M 422 -1272 
L 422 3319 
L 934 3319 
L 934 2888 
Q 1116 3141 1344 3267 
Q 1572 3394 1897 3394 
Q 2322 3394 2647 3175 
Q 2972 2956 3137 2557 
Q 3303 2159 3303 1684 
Q 3303 1175 3120 767 
Q 2938 359 2589 142 
Q 2241 -75 1856 -75 
Q 1575 -75 1351 44 
Q 1128 163 984 344 
L 984 -1272 
L 422 -1272 
z
M 931 1641 
Q 931 1000 1190 694 
Q 1450 388 1819 388 
Q 2194 388 2461 705 
Q 2728 1022 2728 1688 
Q 2728 2322 2467 2637 
Q 2206 2953 1844 2953 
Q 1484 2953 1207 2617 
Q 931 2281 931 1641 
z
" transform="scale(0.015625)"/>
       </defs>
       <use xlink:href="#ArialMT-41"/>
       <use xlink:href="#ArialMT-70" x="66.699219"/>
       <use xlink:href="#ArialMT-72" x="122.314453"/>
      </g>
     </g>
    </g>
    <g id="xtick_5">
     <g id="line2d_5">
      <path d="M 324.685462 254.72 
L 324.685462 32.96 
" clip-path="url(#p733f3a5310)" style="fill: none; stroke: #cccccc; stroke-width: 0.8; stroke-linecap: round"/>
     </g>
     <g id="text_5">
      <!-- May -->
      <g style="fill: #262626" transform="translate(308.061712 275.61775) scale(0.176 -0.176)">
       <defs>
        <path id="ArialMT-79" d="M 397 -1278 
L 334 -750 
Q 519 -800 656 -800 
Q 844 -800 956 -737 
Q 1069 -675 1141 -563 
Q 1194 -478 1313 -144 
Q 1328 -97 1363 -6 
L 103 3319 
L 709 3319 
L 1400 1397 
Q 1534 1031 1641 628 
Q 1738 1016 1872 1384 
L 2581 3319 
L 3144 3319 
L 1881 -56 
Q 1678 -603 1566 -809 
Q 1416 -1088 1222 -1217 
Q 1028 -1347 759 -1347 
Q 597 -1347 397 -1278 
z
" transform="scale(0.015625)"/>
       </defs>
       <use xlink:href="#ArialMT-4d"/>
       <use xlink:href="#ArialMT-61" x="83.300781"/>
       <use xlink:href="#ArialMT-79" x="138.916016"/>
      </g>
     </g>
    </g>
    <g id="xtick_6">
     <g id="line2d_6">
      <path d="M 391.216231 254.72 
L 391.216231 32.96 
" clip-path="url(#p733f3a5310)" style="fill: none; stroke: #cccccc; stroke-width: 0.8; stroke-linecap: round"/>
     </g>
     <g id="text_6">
      <!-- Jun -->
      <g style="fill: #262626" transform="translate(377.028981 275.61775) scale(0.176 -0.176)">
       <defs>
        <path id="ArialMT-75" d="M 2597 0 
L 2597 488 
Q 2209 -75 1544 -75 
Q 1250 -75 995 37 
Q 741 150 617 320 
Q 494 491 444 738 
Q 409 903 409 1263 
L 409 3319 
L 972 3319 
L 972 1478 
Q 972 1038 1006 884 
Q 1059 663 1231 536 
Q 1403 409 1656 409 
Q 1909 409 2131 539 
Q 2353 669 2445 892 
Q 2538 1116 2538 1541 
L 2538 3319 
L 3100 3319 
L 3100 0 
L 2597 0 
z
" transform="scale(0.015625)"/>
       </defs>
       <use xlink:href="#ArialMT-4a"/>
       <use xlink:href="#ArialMT-75" x="50"/>
       <use xlink:href="#ArialMT-6e" x="105.615234"/>
      </g>
     </g>
    </g>
    <g id="xtick_7">
     <g id="line2d_7">
      <path d="M 455.600846 254.72 
L 455.600846 32.96 
" clip-path="url(#p733f3a5310)" style="fill: none; stroke: #cccccc; stroke-width: 0.8; stroke-linecap: round"/>
     </g>
     <g id="text_7">
      <!-- Jul -->
      <g style="fill: #262626" transform="translate(444.351971 275.61775) scale(0.176 -0.176)">
       <defs>
        <path id="ArialMT-6c" d="M 409 0 
L 409 4581 
L 972 4581 
L 972 0 
L 409 0 
z
" transform="scale(0.015625)"/>
       </defs>
       <use xlink:href="#ArialMT-4a"/>
       <use xlink:href="#ArialMT-75" x="50"/>
       <use xlink:href="#ArialMT-6c" x="105.615234"/>
      </g>
     </g>
    </g>
    <g id="xtick_8">
     <g id="line2d_8">
      <path d="M 522.131615 254.72 
L 522.131615 32.96 
" clip-path="url(#p733f3a5310)" style="fill: none; stroke: #cccccc; stroke-width: 0.8; stroke-linecap: round"/>
     </g>
     <g id="text_8">
      <!-- Aug -->
      <g style="fill: #262626" transform="translate(506.47449 275.61775) scale(0.176 -0.176)">
       <defs>
        <path id="ArialMT-67" d="M 319 -275 
L 866 -356 
Q 900 -609 1056 -725 
Q 1266 -881 1628 -881 
Q 2019 -881 2231 -725 
Q 2444 -569 2519 -288 
Q 2563 -116 2559 434 
Q 2191 0 1641 0 
Q 956 0 581 494 
Q 206 988 206 1678 
Q 206 2153 378 2554 
Q 550 2956 876 3175 
Q 1203 3394 1644 3394 
Q 2231 3394 2613 2919 
L 2613 3319 
L 3131 3319 
L 3131 450 
Q 3131 -325 2973 -648 
Q 2816 -972 2473 -1159 
Q 2131 -1347 1631 -1347 
Q 1038 -1347 672 -1080 
Q 306 -813 319 -275 
z
M 784 1719 
Q 784 1066 1043 766 
Q 1303 466 1694 466 
Q 2081 466 2343 764 
Q 2606 1063 2606 1700 
Q 2606 2309 2336 2618 
Q 2066 2928 1684 2928 
Q 1309 2928 1046 2623 
Q 784 2319 784 1719 
z
" transform="scale(0.015625)"/>
       </defs>
       <use xlink:href="#ArialMT-41"/>
       <use xlink:href="#ArialMT-75" x="66.699219"/>
       <use xlink:href="#ArialMT-67" x="122.314453"/>
      </g>
     </g>
    </g>
    <g id="xtick_9">
     <g id="line2d_9">
      <path d="M 588.662385 254.72 
L 588.662385 32.96 
" clip-path="url(#p733f3a5310)" style="fill: none; stroke: #cccccc; stroke-width: 0.8; stroke-linecap: round"/>
     </g>
     <g id="text_9">
      <!-- Sep -->
      <g style="fill: #262626" transform="translate(573.00526 275.83225) scale(0.176 -0.176)">
       <defs>
        <path id="ArialMT-53" d="M 288 1472 
L 859 1522 
Q 900 1178 1048 958 
Q 1197 738 1509 602 
Q 1822 466 2213 466 
Q 2559 466 2825 569 
Q 3091 672 3220 851 
Q 3350 1031 3350 1244 
Q 3350 1459 3225 1620 
Q 3100 1781 2813 1891 
Q 2628 1963 1997 2114 
Q 1366 2266 1113 2400 
Q 784 2572 623 2826 
Q 463 3081 463 3397 
Q 463 3744 659 4045 
Q 856 4347 1234 4503 
Q 1613 4659 2075 4659 
Q 2584 4659 2973 4495 
Q 3363 4331 3572 4012 
Q 3781 3694 3797 3291 
L 3216 3247 
Q 3169 3681 2898 3903 
Q 2628 4125 2100 4125 
Q 1550 4125 1298 3923 
Q 1047 3722 1047 3438 
Q 1047 3191 1225 3031 
Q 1400 2872 2139 2705 
Q 2878 2538 3153 2413 
Q 3553 2228 3743 1945 
Q 3934 1663 3934 1294 
Q 3934 928 3725 604 
Q 3516 281 3123 101 
Q 2731 -78 2241 -78 
Q 1619 -78 1198 103 
Q 778 284 539 648 
Q 300 1013 288 1472 
z
" transform="scale(0.015625)"/>
       </defs>
       <use xlink:href="#ArialMT-53"/>
       <use xlink:href="#ArialMT-65" x="66.699219"/>
       <use xlink:href="#ArialMT-70" x="122.314453"/>
      </g>
     </g>
    </g>
    <g id="xtick_10">
     <g id="line2d_10">
      <path d="M 653.047 254.72 
L 653.047 32.96 
" clip-path="url(#p733f3a5310)" style="fill: none; stroke: #cccccc; stroke-width: 0.8; stroke-linecap: round"/>
     </g>
     <g id="text_10">
      <!-- Oct -->
      <g style="fill: #262626" transform="translate(639.3575 275.61775) scale(0.176 -0.176)">
       <defs>
        <path id="ArialMT-4f" d="M 309 2231 
Q 309 3372 921 4017 
Q 1534 4663 2503 4663 
Q 3138 4663 3647 4359 
Q 4156 4056 4423 3514 
Q 4691 2972 4691 2284 
Q 4691 1588 4409 1038 
Q 4128 488 3612 205 
Q 3097 -78 2500 -78 
Q 1853 -78 1343 234 
Q 834 547 571 1087 
Q 309 1628 309 2231 
z
M 934 2222 
Q 934 1394 1379 917 
Q 1825 441 2497 441 
Q 3181 441 3623 922 
Q 4066 1403 4066 2288 
Q 4066 2847 3877 3264 
Q 3688 3681 3323 3911 
Q 2959 4141 2506 4141 
Q 1863 4141 1398 3698 
Q 934 3256 934 2222 
z
" transform="scale(0.015625)"/>
        <path id="ArialMT-63" d="M 2588 1216 
L 3141 1144 
Q 3050 572 2676 248 
Q 2303 -75 1759 -75 
Q 1078 -75 664 370 
Q 250 816 250 1647 
Q 250 2184 428 2587 
Q 606 2991 970 3192 
Q 1334 3394 1763 3394 
Q 2303 3394 2647 3120 
Q 2991 2847 3088 2344 
L 2541 2259 
Q 2463 2594 2264 2762 
Q 2066 2931 1784 2931 
Q 1359 2931 1093 2626 
Q 828 2322 828 1663 
Q 828 994 1084 691 
Q 1341 388 1753 388 
Q 2084 388 2306 591 
Q 2528 794 2588 1216 
z
" transform="scale(0.015625)"/>
        <path id="ArialMT-74" d="M 1650 503 
L 1731 6 
Q 1494 -44 1306 -44 
Q 1000 -44 831 53 
Q 663 150 594 308 
Q 525 466 525 972 
L 525 2881 
L 113 2881 
L 113 3319 
L 525 3319 
L 525 4141 
L 1084 4478 
L 1084 3319 
L 1650 3319 
L 1650 2881 
L 1084 2881 
L 1084 941 
Q 1084 700 1114 631 
Q 1144 563 1211 522 
Q 1278 481 1403 481 
Q 1497 481 1650 503 
z
" transform="scale(0.015625)"/>
       </defs>
       <use xlink:href="#ArialMT-4f"/>
       <use xlink:href="#ArialMT-63" x="77.783203"/>
       <use xlink:href="#ArialMT-74" x="127.783203"/>
      </g>
     </g>
    </g>
    <g id="xtick_11">
     <g id="line2d_11">
      <path d="M 719.577769 254.72 
L 719.577769 32.96 
" clip-path="url(#p733f3a5310)" style="fill: none; stroke: #cccccc; stroke-width: 0.8; stroke-linecap: round"/>
     </g>
     <g id="text_11">
      <!-- Nov -->
      <g style="fill: #262626" transform="translate(703.928894 275.61775) scale(0.176 -0.176)">
       <defs>
        <path id="ArialMT-4e" d="M 488 0 
L 488 4581 
L 1109 4581 
L 3516 984 
L 3516 4581 
L 4097 4581 
L 4097 0 
L 3475 0 
L 1069 3600 
L 1069 0 
L 488 0 
z
" transform="scale(0.015625)"/>
        <path id="ArialMT-6f" d="M 213 1659 
Q 213 2581 725 3025 
Q 1153 3394 1769 3394 
Q 2453 3394 2887 2945 
Q 3322 2497 3322 1706 
Q 3322 1066 3130 698 
Q 2938 331 2570 128 
Q 2203 -75 1769 -75 
Q 1072 -75 642 372 
Q 213 819 213 1659 
z
M 791 1659 
Q 791 1022 1069 705 
Q 1347 388 1769 388 
Q 2188 388 2466 706 
Q 2744 1025 2744 1678 
Q 2744 2294 2464 2611 
Q 2184 2928 1769 2928 
Q 1347 2928 1069 2612 
Q 791 2297 791 1659 
z
" transform="scale(0.015625)"/>
        <path id="ArialMT-76" d="M 1344 0 
L 81 3319 
L 675 3319 
L 1388 1331 
Q 1503 1009 1600 663 
Q 1675 925 1809 1294 
L 2547 3319 
L 3125 3319 
L 1869 0 
L 1344 0 
z
" transform="scale(0.015625)"/>
       </defs>
       <use xlink:href="#ArialMT-4e"/>
       <use xlink:href="#ArialMT-6f" x="72.216797"/>
       <use xlink:href="#ArialMT-76" x="127.832031"/>
      </g>
     </g>
    </g>
    <g id="xtick_12">
     <g id="line2d_12">
      <path d="M 783.962385 254.72 
L 783.962385 32.96 
" clip-path="url(#p733f3a5310)" style="fill: none; stroke: #cccccc; stroke-width: 0.8; stroke-linecap: round"/>
     </g>
     <g id="text_12">
      <!-- Dec -->
      <g style="fill: #262626" transform="translate(768.31351 275.61775) scale(0.176 -0.176)">
       <defs>
        <path id="ArialMT-44" d="M 494 0 
L 494 4581 
L 2072 4581 
Q 2606 4581 2888 4516 
Q 3281 4425 3559 4188 
Q 3922 3881 4101 3404 
Q 4281 2928 4281 2316 
Q 4281 1794 4159 1391 
Q 4038 988 3847 723 
Q 3656 459 3429 307 
Q 3203 156 2883 78 
Q 2563 0 2147 0 
L 494 0 
z
M 1100 541 
L 2078 541 
Q 2531 541 2789 625 
Q 3047 709 3200 863 
Q 3416 1078 3536 1442 
Q 3656 1806 3656 2325 
Q 3656 3044 3420 3430 
Q 3184 3816 2847 3947 
Q 2603 4041 2063 4041 
L 1100 4041 
L 1100 541 
z
" transform="scale(0.015625)"/>
       </defs>
       <use xlink:href="#ArialMT-44"/>
       <use xlink:href="#ArialMT-65" x="72.216797"/>
       <use xlink:href="#ArialMT-63" x="127.832031"/>
      </g>
     </g>
    </g>
    <g id="xtick_13">
     <g id="line2d_13">
      <path d="M 848.347 254.72 
L 848.347 32.96 
" clip-path="url(#p733f3a5310)" style="fill: none; stroke: #cccccc; stroke-width: 0.8; stroke-linecap: round"/>
     </g>
    </g>
    <g id="xtick_14"/>
    <g id="xtick_15"/>
    <g id="xtick_16"/>
    <g id="xtick_17"/>
    <g id="xtick_18"/>
    <g id="xtick_19"/>
    <g id="xtick_20"/>
    <g id="xtick_21"/>
    <g id="xtick_22"/>
    <g id="xtick_23"/>
    <g id="xtick_24"/>
    <g id="xtick_25"/>
    <g id="xtick_26"/>
    <g id="xtick_27"/>
    <g id="xtick_28"/>
    <g id="xtick_29"/>
    <g id="xtick_30"/>
    <g id="xtick_31"/>
    <g id="xtick_32"/>
    <g id="xtick_33"/>
    <g id="xtick_34"/>
    <g id="xtick_35"/>
    <g id="xtick_36"/>
    <g id="xtick_37"/>
    <g id="xtick_38"/>
    <g id="xtick_39"/>
    <g id="xtick_40"/>
    <g id="xtick_41"/>
    <g id="xtick_42"/>
    <g id="xtick_43"/>
    <g id="xtick_44"/>
    <g id="xtick_45"/>
    <g id="xtick_46"/>
    <g id="xtick_47"/>
    <g id="xtick_48"/>
    <g id="xtick_49"/>
    <g id="xtick_50"/>
    <g id="xtick_51"/>
    <g id="xtick_52"/>
    <g id="xtick_53"/>
    <g id="xtick_54"/>
    <g id="xtick_55"/>
    <g id="xtick_56"/>
    <g id="xtick_57"/>
    <g id="xtick_58"/>
    <g id="xtick_59"/>
    <g id="xtick_60"/>
    <g id="xtick_61"/>
    <g id="xtick_62"/>
    <g id="text_13">
     <!-- Date -->
     <g style="fill: #262626" transform="translate(437.47 315.47405) scale(0.192 -0.192)">
      <use xlink:href="#ArialMT-44"/>
      <use xlink:href="#ArialMT-61" x="72.216797"/>
      <use xlink:href="#ArialMT-74" x="127.832031"/>
      <use xlink:href="#ArialMT-65" x="155.615234"/>
     </g>
    </g>
   </g>
   <g id="matplotlib.axis_2">
    <g id="ytick_1">
     <g id="line2d_14">
      <path d="M 67.147 254.132912 
L 848.347 254.132912 
" clip-path="url(#p733f3a5310)" style="fill: none; stroke: #cccccc; stroke-width: 0.8; stroke-linecap: round"/>
     </g>
     <g id="line2d_15">
      <defs>
       <path id="m667a89b015" d="M 0 0 
L -4.8 0 
" style="stroke: #262626"/>
      </defs>
      <g>
       <use xlink:href="#m667a89b015" x="67.147" y="254.132912" style="fill: #262626; stroke: #262626"/>
      </g>
     </g>
     <g id="text_14">
      <!-- −10 -->
      <g style="fill: #262626" transform="translate(28.993 260.431787) scale(0.176 -0.176)">
       <defs>
        <path id="ArialMT-2212" d="M 3381 1997 
L 356 1997 
L 356 2522 
L 3381 2522 
L 3381 1997 
z
" transform="scale(0.015625)"/>
       </defs>
       <use xlink:href="#ArialMT-2212"/>
       <use xlink:href="#ArialMT-31" x="58.398438"/>
       <use xlink:href="#ArialMT-30" x="114.013672"/>
      </g>
     </g>
    </g>
    <g id="ytick_2">
     <g id="line2d_16">
      <path d="M 67.147 194.200644 
L 848.347 194.200644 
" clip-path="url(#p733f3a5310)" style="fill: none; stroke: #cccccc; stroke-width: 0.8; stroke-linecap: round"/>
     </g>
     <g id="line2d_17">
      <g>
       <use xlink:href="#m667a89b015" x="67.147" y="194.200644" style="fill: #262626; stroke: #262626"/>
      </g>
     </g>
     <g id="text_15">
      <!-- 0 -->
      <g style="fill: #262626" transform="translate(49.05975 200.499519) scale(0.176 -0.176)">
       <use xlink:href="#ArialMT-30"/>
      </g>
     </g>
    </g>
    <g id="ytick_3">
     <g id="line2d_18">
      <path d="M 67.147 134.268377 
L 848.347 134.268377 
" clip-path="url(#p733f3a5310)" style="fill: none; stroke: #cccccc; stroke-width: 0.8; stroke-linecap: round"/>
     </g>
     <g id="line2d_19">
      <g>
       <use xlink:href="#m667a89b015" x="67.147" y="134.268377" style="fill: #262626; stroke: #262626"/>
      </g>
     </g>
     <g id="text_16">
      <!-- 10 -->
      <g style="fill: #262626" transform="translate(39.2725 140.567252) scale(0.176 -0.176)">
       <use xlink:href="#ArialMT-31"/>
       <use xlink:href="#ArialMT-30" x="55.615234"/>
      </g>
     </g>
    </g>
    <g id="ytick_4">
     <g id="line2d_20">
      <path d="M 67.147 74.33611 
L 848.347 74.33611 
" clip-path="url(#p733f3a5310)" style="fill: none; stroke: #cccccc; stroke-width: 0.8; stroke-linecap: round"/>
     </g>
     <g id="line2d_21">
      <g>
       <use xlink:href="#m667a89b015" x="67.147" y="74.33611" style="fill: #262626; stroke: #262626"/>
      </g>
     </g>
     <g id="text_17">
      <!-- 20 -->
      <g style="fill: #262626" transform="translate(39.2725 80.634985) scale(0.176 -0.176)">
       <use xlink:href="#ArialMT-32"/>
       <use xlink:href="#ArialMT-30" x="55.615234"/>
      </g>
     </g>
    </g>
    <g id="text_18">
     <!-- Temperature [°C] -->
     <g style="fill: #262626" transform="translate(21.177 216.4955) rotate(-90) scale(0.192 -0.192)">
      <defs>
       <path id="ArialMT-54" d="M 1659 0 
L 1659 4041 
L 150 4041 
L 150 4581 
L 3781 4581 
L 3781 4041 
L 2266 4041 
L 2266 0 
L 1659 0 
z
" transform="scale(0.015625)"/>
       <path id="ArialMT-6d" d="M 422 0 
L 422 3319 
L 925 3319 
L 925 2853 
Q 1081 3097 1340 3245 
Q 1600 3394 1931 3394 
Q 2300 3394 2536 3241 
Q 2772 3088 2869 2813 
Q 3263 3394 3894 3394 
Q 4388 3394 4653 3120 
Q 4919 2847 4919 2278 
L 4919 0 
L 4359 0 
L 4359 2091 
Q 4359 2428 4304 2576 
Q 4250 2725 4106 2815 
Q 3963 2906 3769 2906 
Q 3419 2906 3187 2673 
Q 2956 2441 2956 1928 
L 2956 0 
L 2394 0 
L 2394 2156 
Q 2394 2531 2256 2718 
Q 2119 2906 1806 2906 
Q 1569 2906 1367 2781 
Q 1166 2656 1075 2415 
Q 984 2175 984 1722 
L 984 0 
L 422 0 
z
" transform="scale(0.015625)"/>
       <path id="ArialMT-20" transform="scale(0.015625)"/>
       <path id="ArialMT-5b" d="M 434 -1272 
L 434 4581 
L 1675 4581 
L 1675 4116 
L 997 4116 
L 997 -806 
L 1675 -806 
L 1675 -1272 
L 434 -1272 
z
" transform="scale(0.015625)"/>
       <path id="ArialMT-b0" d="M 400 3794 
Q 400 4153 654 4406 
Q 909 4659 1266 4659 
Q 1628 4659 1881 4406 
Q 2134 4153 2134 3794 
Q 2134 3434 1879 3179 
Q 1625 2925 1266 2925 
Q 909 2925 654 3178 
Q 400 3431 400 3794 
z
M 741 3794 
Q 741 3575 895 3420 
Q 1050 3266 1269 3266 
Q 1484 3266 1639 3420 
Q 1794 3575 1794 3794 
Q 1794 4013 1639 4167 
Q 1484 4322 1269 4322 
Q 1050 4322 895 4167 
Q 741 4013 741 3794 
z
" transform="scale(0.015625)"/>
       <path id="ArialMT-43" d="M 3763 1606 
L 4369 1453 
Q 4178 706 3683 314 
Q 3188 -78 2472 -78 
Q 1731 -78 1267 223 
Q 803 525 561 1097 
Q 319 1669 319 2325 
Q 319 3041 592 3573 
Q 866 4106 1370 4382 
Q 1875 4659 2481 4659 
Q 3169 4659 3637 4309 
Q 4106 3959 4291 3325 
L 3694 3184 
Q 3534 3684 3231 3912 
Q 2928 4141 2469 4141 
Q 1941 4141 1586 3887 
Q 1231 3634 1087 3207 
Q 944 2781 944 2328 
Q 944 1744 1114 1308 
Q 1284 872 1643 656 
Q 2003 441 2422 441 
Q 2931 441 3284 734 
Q 3638 1028 3763 1606 
z
" transform="scale(0.015625)"/>
       <path id="ArialMT-5d" d="M 1363 -1272 
L 122 -1272 
L 122 -806 
L 800 -806 
L 800 4116 
L 122 4116 
L 122 4581 
L 1363 4581 
L 1363 -1272 
z
" transform="scale(0.015625)"/>
      </defs>
      <use xlink:href="#ArialMT-54"/>
      <use xlink:href="#ArialMT-65" x="49.958984"/>
      <use xlink:href="#ArialMT-6d" x="105.574219"/>
      <use xlink:href="#ArialMT-70" x="188.875"/>
      <use xlink:href="#ArialMT-65" x="244.490234"/>
      <use xlink:href="#ArialMT-72" x="300.105469"/>
      <use xlink:href="#ArialMT-61" x="333.40625"/>
      <use xlink:href="#ArialMT-74" x="389.021484"/>
      <use xlink:href="#ArialMT-75" x="416.804688"/>
      <use xlink:href="#ArialMT-72" x="472.419922"/>
      <use xlink:href="#ArialMT-65" x="505.720703"/>
      <use xlink:href="#ArialMT-20" x="561.335938"/>
      <use xlink:href="#ArialMT-5b" x="589.119141"/>
      <use xlink:href="#ArialMT-b0" x="616.902344"/>
      <use xlink:href="#ArialMT-43" x="656.892578"/>
      <use xlink:href="#ArialMT-5d" x="729.109375"/>
     </g>
    </g>
   </g>
   <g id="line2d_22">
    <path d="M 67.147 188.715489 
L 69.293154 189.352509 
L 71.439308 190.589188 
L 73.585462 192.294726 
L 75.731615 190.203262 
L 77.877769 191.338347 
L 80.023923 193.631206 
L 82.170077 195.207666 
L 84.316231 198.449033 
L 86.462385 202.897548 
L 88.608538 203.990368 
L 90.754692 187.276952 
L 92.900846 188.661447 
L 95.047 194.333492 
L 97.193154 204.843941 
L 99.339308 210.401657 
L 101.485462 207.615269 
L 103.631615 188.367172 
L 105.777769 179.240649 
L 107.923923 165.059571 
L 110.070077 154.840568 
L 112.216231 163.272546 
L 114.362385 185.866698 
L 116.508538 193.75075 
L 118.654692 198.893161 
L 120.800846 193.72431 
L 122.947 192.282789 
L 125.093154 178.897397 
L 127.239308 174.612525 
L 131.531615 208.419884 
L 133.677769 195.904052 
L 135.823923 173.258555 
L 137.970077 155.436864 
L 140.116231 167.944713 
L 142.262385 174.761212 
L 144.408538 185.239532 
L 146.554692 208.359263 
L 148.700846 226.761638 
L 150.847 239.099122 
L 152.993154 239.084811 
L 155.139308 237.015215 
L 157.285462 243.574734 
L 159.431615 244.64 
L 161.577769 236.008692 
L 163.723923 211.067972 
L 165.870077 175.35523 
L 168.016231 160.652327 
L 170.162385 160.046397 
L 172.308538 158.981006 
L 174.454692 148.26375 
L 176.600846 145.294549 
L 178.747 151.692326 
L 180.893154 134.769504 
L 183.039308 127.632914 
L 185.185462 131.223196 
L 187.331615 155.534191 
L 189.477769 171.234874 
L 191.623923 173.257216 
L 193.770077 171.137085 
L 195.916231 166.809875 
L 198.062385 160.07206 
L 200.208538 164.044049 
L 202.354692 185.929782 
L 204.500846 190.979175 
L 206.647 185.4823 
L 208.793154 186.859062 
L 210.939308 185.82516 
L 213.085462 172.647123 
L 215.231615 150.912617 
L 217.377769 158.54789 
L 219.523923 160.785269 
L 221.670077 170.613494 
L 223.816231 171.089631 
L 225.962385 173.64122 
L 228.108538 182.037318 
L 230.254692 186.415243 
L 234.547 193.660515 
L 236.693154 173.450688 
L 238.839308 171.176051 
L 240.985462 165.883962 
L 243.131615 154.027237 
L 245.277769 146.160085 
L 247.423923 136.456327 
L 249.570077 157.50847 
L 251.716231 149.719258 
L 253.862385 122.925694 
L 256.008538 118.004071 
L 258.154692 111.834379 
L 260.300846 122.605818 
L 262.447 156.224361 
L 264.593154 163.247352 
L 266.739308 166.309306 
L 268.885462 176.68264 
L 271.031615 192.225741 
L 273.177769 187.920719 
L 275.323923 177.257188 
L 277.470077 153.688085 
L 279.616231 149.017244 
L 281.762385 142.256247 
L 283.908538 175.737613 
L 286.054692 177.003545 
L 288.200846 178.679721 
L 290.347 175.899628 
L 292.493154 167.415206 
L 296.785462 152.112653 
L 298.931615 146.748443 
L 301.077769 139.204634 
L 303.223923 139.298385 
L 305.370077 152.456852 
L 309.662385 148.564348 
L 311.808538 154.46879 
L 313.954692 157.204496 
L 316.100846 148.314311 
L 318.247 128.531813 
L 320.393154 134.140137 
L 322.539308 148.128788 
L 324.685462 144.499113 
L 326.831615 154.062694 
L 328.977769 151.170246 
L 331.123923 138.16802 
L 333.270077 153.183985 
L 335.416231 155.555672 
L 337.562385 157.544602 
L 339.708538 138.527646 
L 341.854692 84.770091 
L 344.000846 83.814803 
L 346.147 107.175667 
L 348.293154 124.068058 
L 350.439308 129.575157 
L 352.585462 129.482336 
L 354.731615 131.184038 
L 356.877769 128.71584 
L 359.023923 129.484134 
L 361.170077 132.136394 
L 363.316231 134.392862 
L 365.462385 128.379755 
L 367.608538 120.342895 
L 369.754692 128.513913 
L 371.900846 130.153653 
L 374.047 118.694481 
L 376.193154 135.067115 
L 378.339308 134.080999 
L 380.485462 133.511515 
L 382.631615 125.533235 
L 384.777769 124.108225 
L 386.923923 117.46776 
L 389.070077 109.692819 
L 393.362385 87.132279 
L 395.508538 78.18368 
L 397.654692 77.079725 
L 399.800846 84.958173 
L 401.947 94.719913 
L 404.093154 90.947509 
L 406.239308 85.374705 
L 408.385462 81.734746 
L 410.531615 79.881573 
L 412.677769 75.048897 
L 414.823923 84.800217 
L 416.970077 100.778217 
L 419.116231 83.96314 
L 421.262385 79.417785 
L 423.408538 65.881271 
L 425.554692 44.620998 
L 427.700846 43.04 
L 429.847 45.383978 
L 431.993154 56.608485 
L 434.139308 75.629743 
L 436.285462 96.457802 
L 438.431615 92.639407 
L 440.577769 94.804675 
L 442.723923 93.511794 
L 447.016231 73.609839 
L 449.162385 62.457895 
L 451.308538 78.506248 
L 453.454692 97.954788 
L 455.600846 106.583274 
L 459.893154 86.295462 
L 462.039308 83.481205 
L 464.185462 88.326669 
L 466.331615 77.137864 
L 468.477769 85.79751 
L 470.623923 87.711337 
L 472.770077 95.491147 
L 474.916231 87.090546 
L 477.062385 85.075513 
L 479.208538 75.604769 
L 481.354692 76.957902 
L 483.500846 87.008931 
L 485.647 83.727157 
L 487.793154 78.947509 
L 489.939308 74.879439 
L 492.085462 75.142092 
L 494.231615 87.957916 
L 496.377769 92.466231 
L 498.523923 88.20422 
L 500.670077 83.438051 
L 502.816231 81.361159 
L 504.962385 72.430157 
L 507.108538 71.130381 
L 509.254692 72.922101 
L 511.400846 75.917001 
L 513.547 83.469738 
L 515.693154 85.820049 
L 517.839308 79.951122 
L 519.985462 86.528256 
L 522.131615 99.278519 
L 524.277769 101.107252 
L 526.423923 101.696671 
L 530.716231 93.446293 
L 532.862385 91.031922 
L 535.008538 90.930471 
L 537.154692 95.970995 
L 539.300846 94.676812 
L 541.447 91.584724 
L 543.593154 85.597968 
L 545.739308 73.426219 
L 547.885462 64.709767 
L 550.031615 70.414522 
L 552.177769 72.187002 
L 554.323923 94.728242 
L 556.470077 111.484866 
L 558.616231 101.420688 
L 560.762385 93.574391 
L 562.908538 91.498115 
L 565.054692 84.975349 
L 567.200846 92.519111 
L 571.493154 106.312744 
L 573.639308 105.484708 
L 577.931615 114.368872 
L 582.223923 109.758782 
L 584.370077 103.750737 
L 586.516231 103.587609 
L 588.662385 105.170955 
L 590.808538 103.423425 
L 592.954692 98.783893 
L 595.100846 101.626693 
L 597.247 99.922768 
L 599.393154 95.672634 
L 601.539308 93.029694 
L 603.685462 88.295824 
L 605.831615 80.241988 
L 607.977769 79.047838 
L 610.123923 86.712126 
L 612.270077 93.073929 
L 614.416231 100.241393 
L 616.562385 90.443754 
L 618.708538 86.598385 
L 620.854692 99.298549 
L 623.000846 109.742703 
L 625.147 111.343961 
L 627.293154 120.231169 
L 629.439308 124.909939 
L 631.585462 124.902964 
L 633.731615 120.534831 
L 635.877769 110.673079 
L 638.023923 105.410576 
L 642.316231 89.734428 
L 644.462385 94.065353 
L 646.608538 113.749642 
L 648.754692 121.974554 
L 650.900846 132.663207 
L 653.047 122.850224 
L 657.339308 94.467449 
L 659.485462 119.448434 
L 661.631615 123.965591 
L 663.777769 129.412008 
L 665.923923 133.296791 
L 668.070077 132.957796 
L 670.216231 142.12343 
L 672.362385 153.170225 
L 674.508538 146.550252 
L 676.654692 146.188356 
L 678.800846 151.91642 
L 680.947 138.527029 
L 683.093154 138.523916 
L 685.239308 149.831996 
L 687.385462 146.639998 
L 689.531615 139.911255 
L 691.677769 125.274554 
L 693.823923 106.696024 
L 695.970077 129.149455 
L 698.116231 153.448463 
L 700.262385 155.232964 
L 702.408538 158.327042 
L 704.554692 152.934434 
L 706.700846 136.824761 
L 708.847 133.341315 
L 710.993154 141.755681 
L 713.139308 144.041939 
L 715.285462 140.649418 
L 717.431615 120.893029 
L 719.577769 138.244072 
L 721.723923 151.64677 
L 723.870077 157.72706 
L 726.016231 157.826533 
L 728.162385 154.944041 
L 730.308538 156.4802 
L 732.454692 154.343142 
L 734.600846 155.108437 
L 736.747 159.14126 
L 738.893154 170.302111 
L 741.039308 169.047132 
L 743.185462 169.350631 
L 745.331615 162.748193 
L 747.477769 154.049252 
L 749.623923 162.27289 
L 751.770077 167.287388 
L 753.916231 164.985125 
L 758.208538 145.309072 
L 760.354692 147.319812 
L 762.500846 162.25599 
L 764.647 175.194504 
L 766.793154 176.670841 
L 768.939308 172.551357 
L 771.085462 181.626982 
L 773.231615 182.658571 
L 775.377769 184.164949 
L 777.523923 189.985718 
L 779.670077 189.314744 
L 781.816231 176.396131 
L 783.962385 159.820397 
L 786.108538 183.507667 
L 788.254692 192.469241 
L 790.400846 180.359952 
L 792.547 182.724447 
L 794.693154 190.918793 
L 796.839308 188.547249 
L 798.985462 187.185483 
L 801.131615 189.795625 
L 803.277769 191.561689 
L 805.423923 192.165557 
L 807.570077 178.638362 
L 809.716231 158.837433 
L 811.862385 161.258397 
L 814.008538 156.858247 
L 816.154692 158.754776 
L 818.300846 165.967735 
L 820.447 169.819327 
L 822.593154 170.40732 
L 824.739308 190.607825 
L 826.885462 209.33707 
L 829.031615 215.549622 
L 831.177769 198.713702 
L 833.323923 167.364084 
L 835.470077 203.898392 
L 837.616231 212.740162 
L 839.762385 188.748346 
L 841.908538 169.516791 
L 844.054692 158.091359 
L 846.200846 130.710823 
L 848.347 126.655187 
L 848.347 126.655187 
" clip-path="url(#p733f3a5310)" style="fill: none; stroke: #1f77b4; stroke-width: 1.2; stroke-linecap: round"/>
   </g>
   <g id="patch_3">
    <path d="M 67.147 254.72 
L 67.147 32.96 
" style="fill: none; stroke: #cccccc; stroke-linejoin: miter; stroke-linecap: square"/>
   </g>
   <g id="patch_4">
    <path d="M 848.347 254.72 
L 848.347 32.96 
" style="fill: none; stroke: #cccccc; stroke-linejoin: miter; stroke-linecap: square"/>
   </g>
   <g id="patch_5">
    <path d="M 67.147 254.72 
L 848.347 254.72 
" style="fill: none; stroke: #cccccc; stroke-linejoin: miter; stroke-linecap: square"/>
   </g>
   <g id="patch_6">
    <path d="M 67.147 32.96 
L 848.347 32.96 
" style="fill: none; stroke: #cccccc; stroke-linejoin: miter; stroke-linecap: square"/>
   </g>
  </g>
  <g id="axes_2">
   <g id="matplotlib.axis_3">
    <g id="ytick_5">
     <g id="line2d_23">
      <path d="M 67.147 252.115948 
L 848.347 252.115948 
" clip-path="url(#p733f3a5310)" style="fill: none; stroke: #cccccc; stroke-width: 0.8; stroke-linecap: round"/>
     </g>
     <g id="line2d_24">
      <defs>
       <path id="m4cb96b8ccc" d="M 0 0 
L 4.8 0 
" style="stroke: #262626"/>
      </defs>
      <g>
       <use xlink:href="#m4cb96b8ccc" x="848.347" y="252.115948" style="fill: #262626; stroke: #262626"/>
      </g>
     </g>
     <g id="text_19">
      <!-- 1 -->
      <g style="fill: #262626" transform="translate(856.647 258.414823) scale(0.176 -0.176)">
       <use xlink:href="#ArialMT-31"/>
      </g>
     </g>
    </g>
    <g id="ytick_6">
     <g id="line2d_25">
      <path d="M 67.147 211.324181 
L 848.347 211.324181 
" clip-path="url(#p733f3a5310)" style="fill: none; stroke: #cccccc; stroke-width: 0.8; stroke-linecap: round"/>
     </g>
     <g id="line2d_26">
      <g>
       <use xlink:href="#m4cb96b8ccc" x="848.347" y="211.324181" style="fill: #262626; stroke: #262626"/>
      </g>
     </g>
     <g id="text_20">
      <!-- 2 -->
      <g style="fill: #262626" transform="translate(856.647 217.623056) scale(0.176 -0.176)">
       <use xlink:href="#ArialMT-32"/>
      </g>
     </g>
    </g>
    <g id="ytick_7">
     <g id="line2d_27">
      <path d="M 67.147 170.532415 
L 848.347 170.532415 
" clip-path="url(#p733f3a5310)" style="fill: none; stroke: #cccccc; stroke-width: 0.8; stroke-linecap: round"/>
     </g>
     <g id="line2d_28">
      <g>
       <use xlink:href="#m4cb96b8ccc" x="848.347" y="170.532415" style="fill: #262626; stroke: #262626"/>
      </g>
     </g>
     <g id="text_21">
      <!-- 3 -->
      <g style="fill: #262626" transform="translate(856.647 176.83129) scale(0.176 -0.176)">
       <defs>
        <path id="ArialMT-33" d="M 269 1209 
L 831 1284 
Q 928 806 1161 595 
Q 1394 384 1728 384 
Q 2125 384 2398 659 
Q 2672 934 2672 1341 
Q 2672 1728 2419 1979 
Q 2166 2231 1775 2231 
Q 1616 2231 1378 2169 
L 1441 2663 
Q 1497 2656 1531 2656 
Q 1891 2656 2178 2843 
Q 2466 3031 2466 3422 
Q 2466 3731 2256 3934 
Q 2047 4138 1716 4138 
Q 1388 4138 1169 3931 
Q 950 3725 888 3313 
L 325 3413 
Q 428 3978 793 4289 
Q 1159 4600 1703 4600 
Q 2078 4600 2393 4439 
Q 2709 4278 2876 4000 
Q 3044 3722 3044 3409 
Q 3044 3113 2884 2869 
Q 2725 2625 2413 2481 
Q 2819 2388 3044 2092 
Q 3269 1797 3269 1353 
Q 3269 753 2831 336 
Q 2394 -81 1725 -81 
Q 1122 -81 723 278 
Q 325 638 269 1209 
z
" transform="scale(0.015625)"/>
       </defs>
       <use xlink:href="#ArialMT-33"/>
      </g>
     </g>
    </g>
    <g id="ytick_8">
     <g id="line2d_29">
      <path d="M 67.147 129.740649 
L 848.347 129.740649 
" clip-path="url(#p733f3a5310)" style="fill: none; stroke: #cccccc; stroke-width: 0.8; stroke-linecap: round"/>
     </g>
     <g id="line2d_30">
      <g>
       <use xlink:href="#m4cb96b8ccc" x="848.347" y="129.740649" style="fill: #262626; stroke: #262626"/>
      </g>
     </g>
     <g id="text_22">
      <!-- 4 -->
      <g style="fill: #262626" transform="translate(856.647 136.039524) scale(0.176 -0.176)">
       <defs>
        <path id="ArialMT-34" d="M 2069 0 
L 2069 1097 
L 81 1097 
L 81 1613 
L 2172 4581 
L 2631 4581 
L 2631 1613 
L 3250 1613 
L 3250 1097 
L 2631 1097 
L 2631 0 
L 2069 0 
z
M 2069 1613 
L 2069 3678 
L 634 1613 
L 2069 1613 
z
" transform="scale(0.015625)"/>
       </defs>
       <use xlink:href="#ArialMT-34"/>
      </g>
     </g>
    </g>
    <g id="ytick_9">
     <g id="line2d_31">
      <path d="M 67.147 88.948882 
L 848.347 88.948882 
" clip-path="url(#p733f3a5310)" style="fill: none; stroke: #cccccc; stroke-width: 0.8; stroke-linecap: round"/>
     </g>
     <g id="line2d_32">
      <g>
       <use xlink:href="#m4cb96b8ccc" x="848.347" y="88.948882" style="fill: #262626; stroke: #262626"/>
      </g>
     </g>
     <g id="text_23">
      <!-- 5 -->
      <g style="fill: #262626" transform="translate(856.647 95.247757) scale(0.176 -0.176)">
       <defs>
        <path id="ArialMT-35" d="M 266 1200 
L 856 1250 
Q 922 819 1161 601 
Q 1400 384 1738 384 
Q 2144 384 2425 690 
Q 2706 997 2706 1503 
Q 2706 1984 2436 2262 
Q 2166 2541 1728 2541 
Q 1456 2541 1237 2417 
Q 1019 2294 894 2097 
L 366 2166 
L 809 4519 
L 3088 4519 
L 3088 3981 
L 1259 3981 
L 1013 2750 
Q 1425 3038 1878 3038 
Q 2478 3038 2890 2622 
Q 3303 2206 3303 1553 
Q 3303 931 2941 478 
Q 2500 -78 1738 -78 
Q 1113 -78 717 272 
Q 322 622 266 1200 
z
" transform="scale(0.015625)"/>
       </defs>
       <use xlink:href="#ArialMT-35"/>
      </g>
     </g>
    </g>
    <g id="ytick_10">
     <g id="line2d_33">
      <path d="M 67.147 48.157116 
L 848.347 48.157116 
" clip-path="url(#p733f3a5310)" style="fill: none; stroke: #cccccc; stroke-width: 0.8; stroke-linecap: round"/>
     </g>
     <g id="line2d_34">
      <g>
       <use xlink:href="#m4cb96b8ccc" x="848.347" y="48.157116" style="fill: #262626; stroke: #262626"/>
      </g>
     </g>
     <g id="text_24">
      <!-- 6 -->
      <g style="fill: #262626" transform="translate(856.647 54.455991) scale(0.176 -0.176)">
       <defs>
        <path id="ArialMT-36" d="M 3184 3459 
L 2625 3416 
Q 2550 3747 2413 3897 
Q 2184 4138 1850 4138 
Q 1581 4138 1378 3988 
Q 1113 3794 959 3422 
Q 806 3050 800 2363 
Q 1003 2672 1297 2822 
Q 1591 2972 1913 2972 
Q 2475 2972 2870 2558 
Q 3266 2144 3266 1488 
Q 3266 1056 3080 686 
Q 2894 316 2569 119 
Q 2244 -78 1831 -78 
Q 1128 -78 684 439 
Q 241 956 241 2144 
Q 241 3472 731 4075 
Q 1159 4600 1884 4600 
Q 2425 4600 2770 4297 
Q 3116 3994 3184 3459 
z
M 888 1484 
Q 888 1194 1011 928 
Q 1134 663 1356 523 
Q 1578 384 1822 384 
Q 2178 384 2434 671 
Q 2691 959 2691 1453 
Q 2691 1928 2437 2201 
Q 2184 2475 1800 2475 
Q 1419 2475 1153 2201 
Q 888 1928 888 1484 
z
" transform="scale(0.015625)"/>
       </defs>
       <use xlink:href="#ArialMT-36"/>
      </g>
     </g>
    </g>
    <g id="text_25">
     <!-- Natural gas consumption [MWh] -->
     <g style="fill: #262626" transform="translate(884.17725 280.421) rotate(-90) scale(0.192 -0.192)">
      <defs>
       <path id="ArialMT-73" d="M 197 991 
L 753 1078 
Q 800 744 1014 566 
Q 1228 388 1613 388 
Q 2000 388 2187 545 
Q 2375 703 2375 916 
Q 2375 1106 2209 1216 
Q 2094 1291 1634 1406 
Q 1016 1563 777 1677 
Q 538 1791 414 1992 
Q 291 2194 291 2438 
Q 291 2659 392 2848 
Q 494 3038 669 3163 
Q 800 3259 1026 3326 
Q 1253 3394 1513 3394 
Q 1903 3394 2198 3281 
Q 2494 3169 2634 2976 
Q 2775 2784 2828 2463 
L 2278 2388 
Q 2241 2644 2061 2787 
Q 1881 2931 1553 2931 
Q 1166 2931 1000 2803 
Q 834 2675 834 2503 
Q 834 2394 903 2306 
Q 972 2216 1119 2156 
Q 1203 2125 1616 2013 
Q 2213 1853 2448 1751 
Q 2684 1650 2818 1456 
Q 2953 1263 2953 975 
Q 2953 694 2789 445 
Q 2625 197 2315 61 
Q 2006 -75 1616 -75 
Q 969 -75 630 194 
Q 291 463 197 991 
z
" transform="scale(0.015625)"/>
       <path id="ArialMT-69" d="M 425 3934 
L 425 4581 
L 988 4581 
L 988 3934 
L 425 3934 
z
M 425 0 
L 425 3319 
L 988 3319 
L 988 0 
L 425 0 
z
" transform="scale(0.015625)"/>
       <path id="ArialMT-57" d="M 1294 0 
L 78 4581 
L 700 4581 
L 1397 1578 
Q 1509 1106 1591 641 
Q 1766 1375 1797 1488 
L 2669 4581 
L 3400 4581 
L 4056 2263 
Q 4303 1400 4413 641 
Q 4500 1075 4641 1638 
L 5359 4581 
L 5969 4581 
L 4713 0 
L 4128 0 
L 3163 3491 
Q 3041 3928 3019 4028 
Q 2947 3713 2884 3491 
L 1913 0 
L 1294 0 
z
" transform="scale(0.015625)"/>
       <path id="ArialMT-68" d="M 422 0 
L 422 4581 
L 984 4581 
L 984 2938 
Q 1378 3394 1978 3394 
Q 2347 3394 2619 3248 
Q 2891 3103 3008 2847 
Q 3125 2591 3125 2103 
L 3125 0 
L 2563 0 
L 2563 2103 
Q 2563 2525 2380 2717 
Q 2197 2909 1863 2909 
Q 1613 2909 1392 2779 
Q 1172 2650 1078 2428 
Q 984 2206 984 1816 
L 984 0 
L 422 0 
z
" transform="scale(0.015625)"/>
      </defs>
      <use xlink:href="#ArialMT-4e"/>
      <use xlink:href="#ArialMT-61" x="72.216797"/>
      <use xlink:href="#ArialMT-74" x="127.832031"/>
      <use xlink:href="#ArialMT-75" x="155.615234"/>
      <use xlink:href="#ArialMT-72" x="211.230469"/>
      <use xlink:href="#ArialMT-61" x="244.53125"/>
      <use xlink:href="#ArialMT-6c" x="300.146484"/>
      <use xlink:href="#ArialMT-20" x="322.363281"/>
      <use xlink:href="#ArialMT-67" x="350.146484"/>
      <use xlink:href="#ArialMT-61" x="405.761719"/>
      <use xlink:href="#ArialMT-73" x="461.376953"/>
      <use xlink:href="#ArialMT-20" x="511.376953"/>
      <use xlink:href="#ArialMT-63" x="539.160156"/>
      <use xlink:href="#ArialMT-6f" x="589.160156"/>
      <use xlink:href="#ArialMT-6e" x="644.775391"/>
      <use xlink:href="#ArialMT-73" x="700.390625"/>
      <use xlink:href="#ArialMT-75" x="750.390625"/>
      <use xlink:href="#ArialMT-6d" x="806.005859"/>
      <use xlink:href="#ArialMT-70" x="889.306641"/>
      <use xlink:href="#ArialMT-74" x="944.921875"/>
      <use xlink:href="#ArialMT-69" x="972.705078"/>
      <use xlink:href="#ArialMT-6f" x="994.921875"/>
      <use xlink:href="#ArialMT-6e" x="1050.537109"/>
      <use xlink:href="#ArialMT-20" x="1106.152344"/>
      <use xlink:href="#ArialMT-5b" x="1133.935547"/>
      <use xlink:href="#ArialMT-4d" x="1161.71875"/>
      <use xlink:href="#ArialMT-57" x="1245.019531"/>
      <use xlink:href="#ArialMT-68" x="1339.404297"/>
      <use xlink:href="#ArialMT-5d" x="1395.019531"/>
     </g>
    </g>
    <g id="text_26">
     <!-- 1e6 -->
     <g style="fill: #262626" transform="translate(818.98525 29.96) scale(0.176 -0.176)">
      <use xlink:href="#ArialMT-31"/>
      <use xlink:href="#ArialMT-65" x="55.615234"/>
      <use xlink:href="#ArialMT-36" x="111.230469"/>
     </g>
    </g>
   </g>
   <g id="line2d_35">
    <path d="M 67.147 130.515897 
L 69.293154 125.169466 
L 71.439308 123.677534 
L 73.585462 104.155608 
L 75.731615 101.409816 
L 77.877769 100.910292 
L 80.023923 94.566567 
L 82.170077 94.763957 
L 84.316231 104.018605 
L 86.462385 103.823717 
L 88.608538 95.277249 
L 90.754692 103.88725 
L 92.900846 103.790848 
L 95.047 88.283407 
L 97.193154 83.617708 
L 99.339308 93.632155 
L 101.485462 96.806943 
L 103.631615 97.243879 
L 105.777769 112.326316 
L 107.923923 129.553656 
L 110.070077 141.353627 
L 112.216231 136.133652 
L 114.362385 135.350223 
L 116.508538 120.720374 
L 118.654692 95.663286 
L 120.800846 96.183634 
L 122.947 98.932543 
L 125.093154 108.666982 
L 127.239308 123.51381 
L 129.385462 122.285988 
L 131.531615 114.060483 
L 133.677769 96.740939 
L 135.823923 113.074701 
L 137.970077 132.699443 
L 140.116231 131.358283 
L 142.262385 132.547342 
L 144.408538 134.132196 
L 146.554692 112.053095 
L 148.700846 70.752422 
L 150.847 54.200435 
L 152.993154 45.223187 
L 155.139308 43.04 
L 157.285462 44.474319 
L 159.431615 59.536712 
L 161.577769 69.094168 
L 163.723923 70.649901 
L 165.870077 98.908883 
L 168.016231 121.28974 
L 170.162385 134.629138 
L 172.308538 143.062858 
L 174.454692 168.616371 
L 176.600846 170.963225 
L 178.747 159.101147 
L 180.893154 173.000789 
L 183.039308 179.344309 
L 185.185462 177.524409 
L 187.331615 166.616886 
L 189.477769 163.978558 
L 191.623923 155.491658 
L 193.770077 133.302732 
L 195.916231 135.61493 
L 198.062385 143.099756 
L 200.208538 140.02415 
L 202.354692 125.548855 
L 204.500846 132.695821 
L 206.647 128.745231 
L 208.793154 110.409343 
L 210.939308 111.178293 
L 213.085462 128.626989 
L 215.231615 148.169625 
L 217.377769 153.948855 
L 219.523923 164.139737 
L 221.670077 155.439605 
L 223.816231 136.833997 
L 228.108538 119.915955 
L 230.254692 113.615885 
L 232.400846 114.437054 
L 234.547 126.000621 
L 236.693154 133.98293 
L 238.839308 120.98535 
L 240.985462 128.936738 
L 243.131615 143.938629 
L 245.277769 154.15417 
L 247.423923 173.257601 
L 249.570077 178.282533 
L 251.716231 178.701704 
L 253.862385 178.144338 
L 256.008538 183.59158 
L 258.154692 192.483969 
L 260.300846 198.244252 
L 262.447 194.717244 
L 264.593154 184.096167 
L 266.739308 178.470523 
L 268.885462 159.519876 
L 271.031615 128.776555 
L 273.177769 124.22354 
L 275.323923 124.750978 
L 279.616231 162.68176 
L 281.762385 173.176404 
L 283.908538 140.775213 
L 286.054692 136.142609 
L 288.200846 126.877265 
L 290.347 128.554646 
L 292.493154 138.37419 
L 294.639308 156.801391 
L 296.785462 164.340892 
L 298.931615 161.43648 
L 301.077769 170.552324 
L 303.223923 177.943838 
L 305.370077 171.997858 
L 307.516231 172.315939 
L 309.662385 182.904026 
L 311.808538 179.334844 
L 313.954692 166.403011 
L 316.100846 170.125088 
L 318.247 181.881955 
L 320.393154 183.84159 
L 322.539308 180.201388 
L 324.685462 194.437379 
L 326.831615 184.175543 
L 328.977769 175.471612 
L 331.123923 179.618776 
L 333.270077 172.077104 
L 335.416231 165.22175 
L 337.562385 166.695576 
L 339.708538 190.782657 
L 341.854692 216.892745 
L 344.000846 213.722584 
L 346.147 211.485821 
L 348.293154 208.662076 
L 350.439308 211.624271 
L 352.585462 204.8194 
L 354.731615 208.352355 
L 356.877769 207.945735 
L 359.023923 196.088629 
L 361.170077 193.516776 
L 363.316231 191.353341 
L 365.462385 194.718085 
L 367.608538 205.534155 
L 369.754692 214.361717 
L 371.900846 216.040615 
L 374.047 214.906741 
L 376.193154 197.916656 
L 378.339308 196.445527 
L 380.485462 192.757839 
L 382.631615 199.245689 
L 384.777769 212.636694 
L 386.923923 218.072216 
L 389.070077 212.547204 
L 391.216231 217.845648 
L 393.362385 225.313063 
L 395.508538 231.919646 
L 397.654692 231.08746 
L 399.800846 238.042587 
L 401.947 236.034366 
L 404.093154 219.966988 
L 406.239308 220.102455 
L 408.385462 221.50153 
L 410.531615 223.112435 
L 412.677769 229.633009 
L 414.823923 240.547626 
L 416.970077 237.937007 
L 419.116231 228.167992 
L 421.262385 224.236927 
L 423.408538 226.219678 
L 425.554692 228.905747 
L 427.700846 232.144951 
L 429.847 243.612698 
L 431.993154 243.854322 
L 434.139308 231.35051 
L 436.285462 222.863731 
L 438.431615 220.781778 
L 440.577769 219.246256 
L 442.723923 223.045707 
L 444.870077 237.831894 
L 447.016231 240.381626 
L 449.162385 227.484837 
L 451.308538 224.031826 
L 453.454692 221.453137 
L 455.600846 218.190232 
L 457.747 223.168784 
L 459.893154 237.184913 
L 462.039308 237.848948 
L 464.185462 226.241784 
L 466.331615 230.863583 
L 468.477769 223.665895 
L 470.623923 221.582321 
L 472.770077 225.936162 
L 474.916231 237.758454 
L 477.062385 236.980128 
L 479.208538 227.083759 
L 481.354692 225.432484 
L 483.500846 225.54706 
L 485.647 226.359133 
L 487.793154 231.460865 
L 489.939308 242.292389 
L 492.085462 242.171985 
L 494.231615 230.52209 
L 496.377769 227.838384 
L 498.523923 227.697885 
L 500.670077 228.285909 
L 502.816231 232.540323 
L 504.962385 243.453477 
L 507.108538 243.053563 
L 509.254692 232.406502 
L 511.400846 232.448077 
L 513.547 235.259759 
L 515.693154 235.970151 
L 517.839308 237.812249 
L 519.985462 243.069688 
L 522.131615 240.500697 
L 524.277769 232.223658 
L 526.423923 228.958882 
L 528.570077 228.067833 
L 530.716231 230.099448 
L 532.862385 235.217397 
L 535.008538 240.675878 
L 537.154692 240.720175 
L 539.300846 233.199358 
L 541.447 231.389828 
L 543.593154 231.753083 
L 545.739308 233.598119 
L 547.885462 238.51491 
L 550.031615 244.589022 
L 552.177769 244.64 
L 554.323923 234.046705 
L 556.470077 230.117066 
L 558.616231 229.611623 
L 560.762385 228.92963 
L 562.908538 231.495858 
L 565.054692 240.851406 
L 567.200846 240.260665 
L 569.347 230.486044 
L 571.493154 227.182256 
L 573.639308 228.346897 
L 575.785462 224.943352 
L 577.931615 225.094572 
L 580.077769 232.561194 
L 582.223923 232.042354 
L 584.370077 223.695503 
L 586.516231 222.243512 
L 588.662385 221.14766 
L 590.808538 223.028869 
L 592.954692 226.983427 
L 595.100846 236.120359 
L 597.247 236.654981 
L 599.393154 225.554293 
L 601.539308 225.056309 
L 603.685462 227.191256 
L 605.831615 227.316622 
L 607.977769 229.668705 
L 610.123923 238.952235 
L 612.270077 238.970495 
L 614.416231 224.580233 
L 616.562385 224.738873 
L 618.708538 224.631455 
L 620.854692 222.785057 
L 623.000846 222.662583 
L 625.147 233.192141 
L 627.293154 228.728375 
L 629.439308 209.790798 
L 631.585462 208.563966 
L 633.731615 209.518859 
L 635.877769 216.030743 
L 638.023923 220.520397 
L 640.170077 230.549018 
L 642.316231 234.758882 
L 644.462385 224.772647 
L 646.608538 217.519264 
L 648.754692 215.277142 
L 650.900846 207.844082 
L 653.047 211.05563 
L 655.193154 224.039344 
L 657.339308 228.453979 
L 659.485462 212.123865 
L 661.631615 210.011455 
L 663.777769 200.786261 
L 665.923923 193.736655 
L 668.070077 197.166389 
L 670.216231 204.569408 
L 672.362385 196.39823 
L 674.508538 184.689571 
L 676.654692 179.519273 
L 678.800846 174.701028 
L 680.947 183.123438 
L 685.239308 191.136616 
L 687.385462 191.27801 
L 689.531615 183.133515 
L 691.677769 193.134961 
L 693.823923 205.517668 
L 695.970077 196.731987 
L 698.116231 187.277018 
L 700.262385 185.560684 
L 702.408538 180.733506 
L 704.554692 167.303409 
L 706.700846 175.420559 
L 708.847 182.49139 
L 710.993154 182.645672 
L 713.139308 187.315724 
L 715.285462 194.14973 
L 717.431615 204.850697 
L 719.577769 191.968108 
L 721.723923 169.596433 
L 723.870077 158.572659 
L 726.016231 155.312612 
L 728.162385 158.916306 
L 730.308538 172.939575 
L 732.454692 174.396166 
L 734.600846 152.722816 
L 736.747 152.036695 
L 738.893154 139.863617 
L 741.039308 138.582961 
L 743.185462 142.188592 
L 745.331615 158.865472 
L 747.477769 162.625198 
L 749.623923 141.120505 
L 751.770077 138.842948 
L 753.916231 147.36453 
L 756.062385 155.006522 
L 758.208538 164.906002 
L 760.354692 176.23381 
L 762.500846 165.751556 
L 764.647 137.567027 
L 766.793154 127.458704 
L 768.939308 123.815574 
L 771.085462 118.399126 
L 773.231615 123.422594 
L 775.377769 130.35771 
L 777.523923 126.035404 
L 779.670077 108.899853 
L 781.816231 124.332575 
L 783.962385 138.825631 
L 786.108538 117.905724 
L 788.254692 120.507563 
L 790.400846 134.829274 
L 792.547 129.632799 
L 794.693154 108.492479 
L 796.839308 110.98797 
L 798.985462 111.079517 
L 801.131615 106.798633 
L 803.277769 108.530442 
L 805.423923 122.933812 
L 807.570077 136.409995 
L 809.716231 132.271998 
L 811.862385 135.66292 
L 814.008538 142.682293 
L 816.154692 142.736516 
L 818.300846 145.688886 
L 820.447 157.061581 
L 822.593154 155.553741 
L 824.739308 117.195803 
L 826.885462 99.350244 
L 829.031615 97.07078 
L 831.177769 117.570018 
L 833.323923 143.873205 
L 835.470077 132.708829 
L 837.616231 130.172359 
L 839.762385 130.942281 
L 841.908538 146.502578 
L 844.054692 158.312972 
L 846.200846 184.544941 
L 848.347 197.996432 
L 848.347 197.996432 
" clip-path="url(#p733f3a5310)" style="fill: none; stroke: #ff7f0e; stroke-width: 1.2; stroke-linecap: round"/>
   </g>
   <g id="patch_7">
    <path d="M 67.147 254.72 
L 67.147 32.96 
" style="fill: none; stroke: #cccccc; stroke-linejoin: miter; stroke-linecap: square"/>
   </g>
   <g id="patch_8">
    <path d="M 848.347 254.72 
L 848.347 32.96 
" style="fill: none; stroke: #cccccc; stroke-linejoin: miter; stroke-linecap: square"/>
   </g>
   <g id="patch_9">
    <path d="M 67.147 254.72 
L 848.347 254.72 
" style="fill: none; stroke: #cccccc; stroke-linejoin: miter; stroke-linecap: square"/>
   </g>
   <g id="patch_10">
    <path d="M 67.147 32.96 
L 848.347 32.96 
" style="fill: none; stroke: #cccccc; stroke-linejoin: miter; stroke-linecap: square"/>
   </g>
  </g>
  <g id="legend_1">
   <g id="patch_11">
    <path d="M 322.21425 64.07775 
L 573.204 64.07775 
Q 576.724 64.07775 576.724 60.55775 
L 576.724 12.32 
Q 576.724 8.8 573.204 8.8 
L 322.21425 8.8 
Q 318.69425 8.8 318.69425 12.32 
L 318.69425 60.55775 
Q 318.69425 64.07775 322.21425 64.07775 
z
" style="fill: #ffffff; opacity: 0.8; stroke: #cccccc; stroke-width: 0.8; stroke-linejoin: miter"/>
   </g>
   <g id="line2d_36">
    <path d="M 325.73425 22.27775 
L 343.33425 22.27775 
L 360.93425 22.27775 
" style="fill: none; stroke: #1f77b4; stroke-width: 1.2; stroke-linecap: round"/>
   </g>
   <g id="text_27">
    <!-- Temperature -->
    <g style="fill: #262626" transform="translate(375.01425 28.43775) scale(0.176 -0.176)">
     <use xlink:href="#ArialMT-54"/>
     <use xlink:href="#ArialMT-65" x="49.958984"/>
     <use xlink:href="#ArialMT-6d" x="105.574219"/>
     <use xlink:href="#ArialMT-70" x="188.875"/>
     <use xlink:href="#ArialMT-65" x="244.490234"/>
     <use xlink:href="#ArialMT-72" x="300.105469"/>
     <use xlink:href="#ArialMT-61" x="333.40625"/>
     <use xlink:href="#ArialMT-74" x="389.021484"/>
     <use xlink:href="#ArialMT-75" x="416.804688"/>
     <use xlink:href="#ArialMT-72" x="472.419922"/>
     <use xlink:href="#ArialMT-65" x="505.720703"/>
    </g>
   </g>
   <g id="line2d_37">
    <path d="M 325.73425 47.1735 
L 343.33425 47.1735 
L 360.93425 47.1735 
" style="fill: none; stroke: #ff7f0e; stroke-width: 1.2; stroke-linecap: round"/>
   </g>
   <g id="text_28">
    <!-- Natural gas consumption -->
    <g style="fill: #262626" transform="translate(375.01425 53.3335) scale(0.176 -0.176)">
     <use xlink:href="#ArialMT-4e"/>
     <use xlink:href="#ArialMT-61" x="72.216797"/>
     <use xlink:href="#ArialMT-74" x="127.832031"/>
     <use xlink:href="#ArialMT-75" x="155.615234"/>
     <use xlink:href="#ArialMT-72" x="211.230469"/>
     <use xlink:href="#ArialMT-61" x="244.53125"/>
     <use xlink:href="#ArialMT-6c" x="300.146484"/>
     <use xlink:href="#ArialMT-20" x="322.363281"/>
     <use xlink:href="#ArialMT-67" x="350.146484"/>
     <use xlink:href="#ArialMT-61" x="405.761719"/>
     <use xlink:href="#ArialMT-73" x="461.376953"/>
     <use xlink:href="#ArialMT-20" x="511.376953"/>
     <use xlink:href="#ArialMT-63" x="539.160156"/>
     <use xlink:href="#ArialMT-6f" x="589.160156"/>
     <use xlink:href="#ArialMT-6e" x="644.775391"/>
     <use xlink:href="#ArialMT-73" x="700.390625"/>
     <use xlink:href="#ArialMT-75" x="750.390625"/>
     <use xlink:href="#ArialMT-6d" x="806.005859"/>
     <use xlink:href="#ArialMT-70" x="889.306641"/>
     <use xlink:href="#ArialMT-74" x="944.921875"/>
     <use xlink:href="#ArialMT-69" x="972.705078"/>
     <use xlink:href="#ArialMT-6f" x="994.921875"/>
     <use xlink:href="#ArialMT-6e" x="1050.537109"/>
    </g>
   </g>
  </g>
 </g>
 <defs>
  <clipPath id="p733f3a5310">
   <rect x="67.147" y="32.96" width="781.2" height="221.76"/>
  </clipPath>
 </defs>
</svg>
