<?xml version="1.0" encoding="utf-8" standalone="no"?>
<!DOCTYPE svg PUBLIC "-//W3C//DTD SVG 1.1//EN"
  "http://www.w3.org/Graphics/SVG/1.1/DTD/svg11.dtd">
<svg xmlns:xlink="http://www.w3.org/1999/xlink" width="855.224552pt" height="280.53275pt" viewBox="0 0 855.224552 280.53275" xmlns="http://www.w3.org/2000/svg" version="1.1">
 <metadata>
  <rdf:RDF xmlns:dc="http://purl.org/dc/elements/1.1/" xmlns:cc="http://creativecommons.org/ns#" xmlns:rdf="http://www.w3.org/1999/02/22-rdf-syntax-ns#">
   <cc:Work>
    <dc:type rdf:resource="http://purl.org/dc/dcmitype/StillImage"/>
    <dc:date>2023-05-13T16:15:54.153761</dc:date>
    <dc:format>image/svg+xml</dc:format>
    <dc:creator>
     <cc:Agent>
      <dc:title>Matplotlib v3.7.1, https://matplotlib.org/</dc:title>
     </cc:Agent>
    </dc:creator>
   </cc:Work>
  </rdf:RDF>
 </metadata>
 <defs>
  <style type="text/css">*{stroke-linejoin: round; stroke-linecap: butt}</style>
 </defs>
 <g id="figure_1">
  <g id="patch_1">
   <path d="M 0 280.53275 
L 855.224552 280.53275 
L 855.224552 0 
L 0 0 
z
" style="fill: #ffffff"/>
  </g>
  <g id="axes_1">
   <g id="patch_2">
    <path d="M 47.30525 248.937 
L 828.50525 248.937 
L 828.50525 27.177 
L 47.30525 27.177 
z
" style="fill: #ffffff"/>
   </g>
   <g id="matplotlib.axis_1">
    <g id="xtick_1">
     <g id="line2d_1">
      <path d="M 82.814341 248.937 
L 82.814341 27.177 
" clip-path="url(#p54827a751f)" style="fill: none; stroke: #cccccc; stroke-width: 0.8; stroke-linecap: round"/>
     </g>
     <g id="text_1">
      <!-- 2020-01 -->
      <g style="fill: #262626" transform="translate(50.522466 269.83475) scale(0.176 -0.176)">
       <defs>
        <path id="ArialMT-32" d="M 3222 541 
L 3222 0 
L 194 0 
Q 188 203 259 391 
Q 375 700 629 1000 
Q 884 1300 1366 1694 
Q 2113 2306 2375 2664 
Q 2638 3022 2638 3341 
Q 2638 3675 2398 3904 
Q 2159 4134 1775 4134 
Q 1369 4134 1125 3890 
Q 881 3647 878 3216 
L 300 3275 
Q 359 3922 746 4261 
Q 1134 4600 1788 4600 
Q 2447 4600 2831 4234 
Q 3216 3869 3216 3328 
Q 3216 3053 3103 2787 
Q 2991 2522 2730 2228 
Q 2469 1934 1863 1422 
Q 1356 997 1212 845 
Q 1069 694 975 541 
L 3222 541 
z
" transform="scale(0.015625)"/>
        <path id="ArialMT-30" d="M 266 2259 
Q 266 3072 433 3567 
Q 600 4063 929 4331 
Q 1259 4600 1759 4600 
Q 2128 4600 2406 4451 
Q 2684 4303 2865 4023 
Q 3047 3744 3150 3342 
Q 3253 2941 3253 2259 
Q 3253 1453 3087 958 
Q 2922 463 2592 192 
Q 2263 -78 1759 -78 
Q 1097 -78 719 397 
Q 266 969 266 2259 
z
M 844 2259 
Q 844 1131 1108 757 
Q 1372 384 1759 384 
Q 2147 384 2411 759 
Q 2675 1134 2675 2259 
Q 2675 3391 2411 3762 
Q 2147 4134 1753 4134 
Q 1366 4134 1134 3806 
Q 844 3388 844 2259 
z
" transform="scale(0.015625)"/>
        <path id="ArialMT-2d" d="M 203 1375 
L 203 1941 
L 1931 1941 
L 1931 1375 
L 203 1375 
z
" transform="scale(0.015625)"/>
        <path id="ArialMT-31" d="M 2384 0 
L 1822 0 
L 1822 3584 
Q 1619 3391 1289 3197 
Q 959 3003 697 2906 
L 697 3450 
Q 1169 3672 1522 3987 
Q 1875 4303 2022 4600 
L 2384 4600 
L 2384 0 
z
" transform="scale(0.015625)"/>
       </defs>
       <use xlink:href="#ArialMT-32"/>
       <use xlink:href="#ArialMT-30" x="55.615234"/>
       <use xlink:href="#ArialMT-32" x="111.230469"/>
       <use xlink:href="#ArialMT-30" x="166.845703"/>
       <use xlink:href="#ArialMT-2d" x="222.460938"/>
       <use xlink:href="#ArialMT-30" x="255.761719"/>
       <use xlink:href="#ArialMT-31" x="311.376953"/>
      </g>
     </g>
    </g>
    <g id="xtick_2">
     <g id="line2d_2">
      <path d="M 163.729595 248.937 
L 163.729595 27.177 
" clip-path="url(#p54827a751f)" style="fill: none; stroke: #cccccc; stroke-width: 0.8; stroke-linecap: round"/>
     </g>
     <g id="text_2">
      <!-- 2020-05 -->
      <g style="fill: #262626" transform="translate(131.43772 269.83475) scale(0.176 -0.176)">
       <defs>
        <path id="ArialMT-35" d="M 266 1200 
L 856 1250 
Q 922 819 1161 601 
Q 1400 384 1738 384 
Q 2144 384 2425 690 
Q 2706 997 2706 1503 
Q 2706 1984 2436 2262 
Q 2166 2541 1728 2541 
Q 1456 2541 1237 2417 
Q 1019 2294 894 2097 
L 366 2166 
L 809 4519 
L 3088 4519 
L 3088 3981 
L 1259 3981 
L 1013 2750 
Q 1425 3038 1878 3038 
Q 2478 3038 2890 2622 
Q 3303 2206 3303 1553 
Q 3303 931 2941 478 
Q 2500 -78 1738 -78 
Q 1113 -78 717 272 
Q 322 622 266 1200 
z
" transform="scale(0.015625)"/>
       </defs>
       <use xlink:href="#ArialMT-32"/>
       <use xlink:href="#ArialMT-30" x="55.615234"/>
       <use xlink:href="#ArialMT-32" x="111.230469"/>
       <use xlink:href="#ArialMT-30" x="166.845703"/>
       <use xlink:href="#ArialMT-2d" x="222.460938"/>
       <use xlink:href="#ArialMT-30" x="255.761719"/>
       <use xlink:href="#ArialMT-35" x="311.376953"/>
      </g>
     </g>
    </g>
    <g id="xtick_3">
     <g id="line2d_3">
      <path d="M 245.982292 248.937 
L 245.982292 27.177 
" clip-path="url(#p54827a751f)" style="fill: none; stroke: #cccccc; stroke-width: 0.8; stroke-linecap: round"/>
     </g>
     <g id="text_3">
      <!-- 2020-09 -->
      <g style="fill: #262626" transform="translate(213.690417 269.83475) scale(0.176 -0.176)">
       <defs>
        <path id="ArialMT-39" d="M 350 1059 
L 891 1109 
Q 959 728 1153 556 
Q 1347 384 1650 384 
Q 1909 384 2104 503 
Q 2300 622 2425 820 
Q 2550 1019 2634 1356 
Q 2719 1694 2719 2044 
Q 2719 2081 2716 2156 
Q 2547 1888 2255 1720 
Q 1963 1553 1622 1553 
Q 1053 1553 659 1965 
Q 266 2378 266 3053 
Q 266 3750 677 4175 
Q 1088 4600 1706 4600 
Q 2153 4600 2523 4359 
Q 2894 4119 3086 3673 
Q 3278 3228 3278 2384 
Q 3278 1506 3087 986 
Q 2897 466 2520 194 
Q 2144 -78 1638 -78 
Q 1100 -78 759 220 
Q 419 519 350 1059 
z
M 2653 3081 
Q 2653 3566 2395 3850 
Q 2138 4134 1775 4134 
Q 1400 4134 1122 3828 
Q 844 3522 844 3034 
Q 844 2597 1108 2323 
Q 1372 2050 1759 2050 
Q 2150 2050 2401 2323 
Q 2653 2597 2653 3081 
z
" transform="scale(0.015625)"/>
       </defs>
       <use xlink:href="#ArialMT-32"/>
       <use xlink:href="#ArialMT-30" x="55.615234"/>
       <use xlink:href="#ArialMT-32" x="111.230469"/>
       <use xlink:href="#ArialMT-30" x="166.845703"/>
       <use xlink:href="#ArialMT-2d" x="222.460938"/>
       <use xlink:href="#ArialMT-30" x="255.761719"/>
       <use xlink:href="#ArialMT-39" x="311.376953"/>
      </g>
     </g>
    </g>
    <g id="xtick_4">
     <g id="line2d_4">
      <path d="M 327.566267 248.937 
L 327.566267 27.177 
" clip-path="url(#p54827a751f)" style="fill: none; stroke: #cccccc; stroke-width: 0.8; stroke-linecap: round"/>
     </g>
     <g id="text_4">
      <!-- 2021-01 -->
      <g style="fill: #262626" transform="translate(295.274392 269.83475) scale(0.176 -0.176)">
       <use xlink:href="#ArialMT-32"/>
       <use xlink:href="#ArialMT-30" x="55.615234"/>
       <use xlink:href="#ArialMT-32" x="111.230469"/>
       <use xlink:href="#ArialMT-31" x="166.845703"/>
       <use xlink:href="#ArialMT-2d" x="222.460938"/>
       <use xlink:href="#ArialMT-30" x="255.761719"/>
       <use xlink:href="#ArialMT-31" x="311.376953"/>
      </g>
     </g>
    </g>
    <g id="xtick_5">
     <g id="line2d_5">
      <path d="M 407.8128 248.937 
L 407.8128 27.177 
" clip-path="url(#p54827a751f)" style="fill: none; stroke: #cccccc; stroke-width: 0.8; stroke-linecap: round"/>
     </g>
     <g id="text_5">
      <!-- 2021-05 -->
      <g style="fill: #262626" transform="translate(375.520925 269.83475) scale(0.176 -0.176)">
       <use xlink:href="#ArialMT-32"/>
       <use xlink:href="#ArialMT-30" x="55.615234"/>
       <use xlink:href="#ArialMT-32" x="111.230469"/>
       <use xlink:href="#ArialMT-31" x="166.845703"/>
       <use xlink:href="#ArialMT-2d" x="222.460938"/>
       <use xlink:href="#ArialMT-30" x="255.761719"/>
       <use xlink:href="#ArialMT-35" x="311.376953"/>
      </g>
     </g>
    </g>
    <g id="xtick_6">
     <g id="line2d_6">
      <path d="M 490.065497 248.937 
L 490.065497 27.177 
" clip-path="url(#p54827a751f)" style="fill: none; stroke: #cccccc; stroke-width: 0.8; stroke-linecap: round"/>
     </g>
     <g id="text_6">
      <!-- 2021-09 -->
      <g style="fill: #262626" transform="translate(457.773622 269.83475) scale(0.176 -0.176)">
       <use xlink:href="#ArialMT-32"/>
       <use xlink:href="#ArialMT-30" x="55.615234"/>
       <use xlink:href="#ArialMT-32" x="111.230469"/>
       <use xlink:href="#ArialMT-31" x="166.845703"/>
       <use xlink:href="#ArialMT-2d" x="222.460938"/>
       <use xlink:href="#ArialMT-30" x="255.761719"/>
       <use xlink:href="#ArialMT-39" x="311.376953"/>
      </g>
     </g>
    </g>
    <g id="xtick_7">
     <g id="line2d_7">
      <path d="M 571.649472 248.937 
L 571.649472 27.177 
" clip-path="url(#p54827a751f)" style="fill: none; stroke: #cccccc; stroke-width: 0.8; stroke-linecap: round"/>
     </g>
     <g id="text_7">
      <!-- 2022-01 -->
      <g style="fill: #262626" transform="translate(539.357597 269.83475) scale(0.176 -0.176)">
       <use xlink:href="#ArialMT-32"/>
       <use xlink:href="#ArialMT-30" x="55.615234"/>
       <use xlink:href="#ArialMT-32" x="111.230469"/>
       <use xlink:href="#ArialMT-32" x="166.845703"/>
       <use xlink:href="#ArialMT-2d" x="222.460938"/>
       <use xlink:href="#ArialMT-30" x="255.761719"/>
       <use xlink:href="#ArialMT-31" x="311.376953"/>
      </g>
     </g>
    </g>
    <g id="xtick_8">
     <g id="line2d_8">
      <path d="M 651.896005 248.937 
L 651.896005 27.177 
" clip-path="url(#p54827a751f)" style="fill: none; stroke: #cccccc; stroke-width: 0.8; stroke-linecap: round"/>
     </g>
     <g id="text_8">
      <!-- 2022-05 -->
      <g style="fill: #262626" transform="translate(619.60413 269.83475) scale(0.176 -0.176)">
       <use xlink:href="#ArialMT-32"/>
       <use xlink:href="#ArialMT-30" x="55.615234"/>
       <use xlink:href="#ArialMT-32" x="111.230469"/>
       <use xlink:href="#ArialMT-32" x="166.845703"/>
       <use xlink:href="#ArialMT-2d" x="222.460938"/>
       <use xlink:href="#ArialMT-30" x="255.761719"/>
       <use xlink:href="#ArialMT-35" x="311.376953"/>
      </g>
     </g>
    </g>
    <g id="xtick_9">
     <g id="line2d_9">
      <path d="M 734.148701 248.937 
L 734.148701 27.177 
" clip-path="url(#p54827a751f)" style="fill: none; stroke: #cccccc; stroke-width: 0.8; stroke-linecap: round"/>
     </g>
     <g id="text_9">
      <!-- 2022-09 -->
      <g style="fill: #262626" transform="translate(701.856826 269.83475) scale(0.176 -0.176)">
       <use xlink:href="#ArialMT-32"/>
       <use xlink:href="#ArialMT-30" x="55.615234"/>
       <use xlink:href="#ArialMT-32" x="111.230469"/>
       <use xlink:href="#ArialMT-32" x="166.845703"/>
       <use xlink:href="#ArialMT-2d" x="222.460938"/>
       <use xlink:href="#ArialMT-30" x="255.761719"/>
       <use xlink:href="#ArialMT-39" x="311.376953"/>
      </g>
     </g>
    </g>
    <g id="xtick_10">
     <g id="line2d_10">
      <path d="M 815.732677 248.937 
L 815.732677 27.177 
" clip-path="url(#p54827a751f)" style="fill: none; stroke: #cccccc; stroke-width: 0.8; stroke-linecap: round"/>
     </g>
     <g id="text_10">
      <!-- 2023-01 -->
      <g style="fill: #262626" transform="translate(783.440802 269.83475) scale(0.176 -0.176)">
       <defs>
        <path id="ArialMT-33" d="M 269 1209 
L 831 1284 
Q 928 806 1161 595 
Q 1394 384 1728 384 
Q 2125 384 2398 659 
Q 2672 934 2672 1341 
Q 2672 1728 2419 1979 
Q 2166 2231 1775 2231 
Q 1616 2231 1378 2169 
L 1441 2663 
Q 1497 2656 1531 2656 
Q 1891 2656 2178 2843 
Q 2466 3031 2466 3422 
Q 2466 3731 2256 3934 
Q 2047 4138 1716 4138 
Q 1388 4138 1169 3931 
Q 950 3725 888 3313 
L 325 3413 
Q 428 3978 793 4289 
Q 1159 4600 1703 4600 
Q 2078 4600 2393 4439 
Q 2709 4278 2876 4000 
Q 3044 3722 3044 3409 
Q 3044 3113 2884 2869 
Q 2725 2625 2413 2481 
Q 2819 2388 3044 2092 
Q 3269 1797 3269 1353 
Q 3269 753 2831 336 
Q 2394 -81 1725 -81 
Q 1122 -81 723 278 
Q 325 638 269 1209 
z
" transform="scale(0.015625)"/>
       </defs>
       <use xlink:href="#ArialMT-32"/>
       <use xlink:href="#ArialMT-30" x="55.615234"/>
       <use xlink:href="#ArialMT-32" x="111.230469"/>
       <use xlink:href="#ArialMT-33" x="166.845703"/>
       <use xlink:href="#ArialMT-2d" x="222.460938"/>
       <use xlink:href="#ArialMT-30" x="255.761719"/>
       <use xlink:href="#ArialMT-31" x="311.376953"/>
      </g>
     </g>
    </g>
   </g>
   <g id="matplotlib.axis_2">
    <g id="ytick_1">
     <g id="line2d_11">
      <path d="M 47.30525 248.937 
L 828.50525 248.937 
" clip-path="url(#p54827a751f)" style="fill: none; stroke: #cccccc; stroke-width: 0.8; stroke-linecap: round"/>
     </g>
     <g id="text_11">
      <!-- 0 -->
      <g style="fill: #262626" transform="translate(29.218 255.235875) scale(0.176 -0.176)">
       <use xlink:href="#ArialMT-30"/>
      </g>
     </g>
    </g>
    <g id="ytick_2">
     <g id="line2d_12">
      <path d="M 47.30525 185.577 
L 828.50525 185.577 
" clip-path="url(#p54827a751f)" style="fill: none; stroke: #cccccc; stroke-width: 0.8; stroke-linecap: round"/>
     </g>
     <g id="text_12">
      <!-- 2 -->
      <g style="fill: #262626" transform="translate(29.218 191.875875) scale(0.176 -0.176)">
       <use xlink:href="#ArialMT-32"/>
      </g>
     </g>
    </g>
    <g id="ytick_3">
     <g id="line2d_13">
      <path d="M 47.30525 122.217 
L 828.50525 122.217 
" clip-path="url(#p54827a751f)" style="fill: none; stroke: #cccccc; stroke-width: 0.8; stroke-linecap: round"/>
     </g>
     <g id="text_13">
      <!-- 4 -->
      <g style="fill: #262626" transform="translate(29.218 128.515875) scale(0.176 -0.176)">
       <defs>
        <path id="ArialMT-34" d="M 2069 0 
L 2069 1097 
L 81 1097 
L 81 1613 
L 2172 4581 
L 2631 4581 
L 2631 1613 
L 3250 1613 
L 3250 1097 
L 2631 1097 
L 2631 0 
L 2069 0 
z
M 2069 1613 
L 2069 3678 
L 634 1613 
L 2069 1613 
z
" transform="scale(0.015625)"/>
       </defs>
       <use xlink:href="#ArialMT-34"/>
      </g>
     </g>
    </g>
    <g id="ytick_4">
     <g id="line2d_14">
      <path d="M 47.30525 58.857 
L 828.50525 58.857 
" clip-path="url(#p54827a751f)" style="fill: none; stroke: #cccccc; stroke-width: 0.8; stroke-linecap: round"/>
     </g>
     <g id="text_14">
      <!-- 6 -->
      <g style="fill: #262626" transform="translate(29.218 65.155875) scale(0.176 -0.176)">
       <defs>
        <path id="ArialMT-36" d="M 3184 3459 
L 2625 3416 
Q 2550 3747 2413 3897 
Q 2184 4138 1850 4138 
Q 1581 4138 1378 3988 
Q 1113 3794 959 3422 
Q 806 3050 800 2363 
Q 1003 2672 1297 2822 
Q 1591 2972 1913 2972 
Q 2475 2972 2870 2558 
Q 3266 2144 3266 1488 
Q 3266 1056 3080 686 
Q 2894 316 2569 119 
Q 2244 -78 1831 -78 
Q 1128 -78 684 439 
Q 241 956 241 2144 
Q 241 3472 731 4075 
Q 1159 4600 1884 4600 
Q 2425 4600 2770 4297 
Q 3116 3994 3184 3459 
z
M 888 1484 
Q 888 1194 1011 928 
Q 1134 663 1356 523 
Q 1578 384 1822 384 
Q 2178 384 2434 671 
Q 2691 959 2691 1453 
Q 2691 1928 2437 2201 
Q 2184 2475 1800 2475 
Q 1419 2475 1153 2201 
Q 888 1928 888 1484 
z
" transform="scale(0.015625)"/>
       </defs>
       <use xlink:href="#ArialMT-36"/>
      </g>
     </g>
    </g>
    <g id="text_15">
     <!-- Consumption (MWh) -->
     <g style="fill: #262626" transform="translate(21.177 226.074) rotate(-90) scale(0.192 -0.192)">
      <defs>
       <path id="ArialMT-43" d="M 3763 1606 
L 4369 1453 
Q 4178 706 3683 314 
Q 3188 -78 2472 -78 
Q 1731 -78 1267 223 
Q 803 525 561 1097 
Q 319 1669 319 2325 
Q 319 3041 592 3573 
Q 866 4106 1370 4382 
Q 1875 4659 2481 4659 
Q 3169 4659 3637 4309 
Q 4106 3959 4291 3325 
L 3694 3184 
Q 3534 3684 3231 3912 
Q 2928 4141 2469 4141 
Q 1941 4141 1586 3887 
Q 1231 3634 1087 3207 
Q 944 2781 944 2328 
Q 944 1744 1114 1308 
Q 1284 872 1643 656 
Q 2003 441 2422 441 
Q 2931 441 3284 734 
Q 3638 1028 3763 1606 
z
" transform="scale(0.015625)"/>
       <path id="ArialMT-6f" d="M 213 1659 
Q 213 2581 725 3025 
Q 1153 3394 1769 3394 
Q 2453 3394 2887 2945 
Q 3322 2497 3322 1706 
Q 3322 1066 3130 698 
Q 2938 331 2570 128 
Q 2203 -75 1769 -75 
Q 1072 -75 642 372 
Q 213 819 213 1659 
z
M 791 1659 
Q 791 1022 1069 705 
Q 1347 388 1769 388 
Q 2188 388 2466 706 
Q 2744 1025 2744 1678 
Q 2744 2294 2464 2611 
Q 2184 2928 1769 2928 
Q 1347 2928 1069 2612 
Q 791 2297 791 1659 
z
" transform="scale(0.015625)"/>
       <path id="ArialMT-6e" d="M 422 0 
L 422 3319 
L 928 3319 
L 928 2847 
Q 1294 3394 1984 3394 
Q 2284 3394 2536 3286 
Q 2788 3178 2913 3003 
Q 3038 2828 3088 2588 
Q 3119 2431 3119 2041 
L 3119 0 
L 2556 0 
L 2556 2019 
Q 2556 2363 2490 2533 
Q 2425 2703 2258 2804 
Q 2091 2906 1866 2906 
Q 1506 2906 1245 2678 
Q 984 2450 984 1813 
L 984 0 
L 422 0 
z
" transform="scale(0.015625)"/>
       <path id="ArialMT-73" d="M 197 991 
L 753 1078 
Q 800 744 1014 566 
Q 1228 388 1613 388 
Q 2000 388 2187 545 
Q 2375 703 2375 916 
Q 2375 1106 2209 1216 
Q 2094 1291 1634 1406 
Q 1016 1563 777 1677 
Q 538 1791 414 1992 
Q 291 2194 291 2438 
Q 291 2659 392 2848 
Q 494 3038 669 3163 
Q 800 3259 1026 3326 
Q 1253 3394 1513 3394 
Q 1903 3394 2198 3281 
Q 2494 3169 2634 2976 
Q 2775 2784 2828 2463 
L 2278 2388 
Q 2241 2644 2061 2787 
Q 1881 2931 1553 2931 
Q 1166 2931 1000 2803 
Q 834 2675 834 2503 
Q 834 2394 903 2306 
Q 972 2216 1119 2156 
Q 1203 2125 1616 2013 
Q 2213 1853 2448 1751 
Q 2684 1650 2818 1456 
Q 2953 1263 2953 975 
Q 2953 694 2789 445 
Q 2625 197 2315 61 
Q 2006 -75 1616 -75 
Q 969 -75 630 194 
Q 291 463 197 991 
z
" transform="scale(0.015625)"/>
       <path id="ArialMT-75" d="M 2597 0 
L 2597 488 
Q 2209 -75 1544 -75 
Q 1250 -75 995 37 
Q 741 150 617 320 
Q 494 491 444 738 
Q 409 903 409 1263 
L 409 3319 
L 972 3319 
L 972 1478 
Q 972 1038 1006 884 
Q 1059 663 1231 536 
Q 1403 409 1656 409 
Q 1909 409 2131 539 
Q 2353 669 2445 892 
Q 2538 1116 2538 1541 
L 2538 3319 
L 3100 3319 
L 3100 0 
L 2597 0 
z
" transform="scale(0.015625)"/>
       <path id="ArialMT-6d" d="M 422 0 
L 422 3319 
L 925 3319 
L 925 2853 
Q 1081 3097 1340 3245 
Q 1600 3394 1931 3394 
Q 2300 3394 2536 3241 
Q 2772 3088 2869 2813 
Q 3263 3394 3894 3394 
Q 4388 3394 4653 3120 
Q 4919 2847 4919 2278 
L 4919 0 
L 4359 0 
L 4359 2091 
Q 4359 2428 4304 2576 
Q 4250 2725 4106 2815 
Q 3963 2906 3769 2906 
Q 3419 2906 3187 2673 
Q 2956 2441 2956 1928 
L 2956 0 
L 2394 0 
L 2394 2156 
Q 2394 2531 2256 2718 
Q 2119 2906 1806 2906 
Q 1569 2906 1367 2781 
Q 1166 2656 1075 2415 
Q 984 2175 984 1722 
L 984 0 
L 422 0 
z
" transform="scale(0.015625)"/>
       <path id="ArialMT-70" d="M 422 -1272 
L 422 3319 
L 934 3319 
L 934 2888 
Q 1116 3141 1344 3267 
Q 1572 3394 1897 3394 
Q 2322 3394 2647 3175 
Q 2972 2956 3137 2557 
Q 3303 2159 3303 1684 
Q 3303 1175 3120 767 
Q 2938 359 2589 142 
Q 2241 -75 1856 -75 
Q 1575 -75 1351 44 
Q 1128 163 984 344 
L 984 -1272 
L 422 -1272 
z
M 931 1641 
Q 931 1000 1190 694 
Q 1450 388 1819 388 
Q 2194 388 2461 705 
Q 2728 1022 2728 1688 
Q 2728 2322 2467 2637 
Q 2206 2953 1844 2953 
Q 1484 2953 1207 2617 
Q 931 2281 931 1641 
z
" transform="scale(0.015625)"/>
       <path id="ArialMT-74" d="M 1650 503 
L 1731 6 
Q 1494 -44 1306 -44 
Q 1000 -44 831 53 
Q 663 150 594 308 
Q 525 466 525 972 
L 525 2881 
L 113 2881 
L 113 3319 
L 525 3319 
L 525 4141 
L 1084 4478 
L 1084 3319 
L 1650 3319 
L 1650 2881 
L 1084 2881 
L 1084 941 
Q 1084 700 1114 631 
Q 1144 563 1211 522 
Q 1278 481 1403 481 
Q 1497 481 1650 503 
z
" transform="scale(0.015625)"/>
       <path id="ArialMT-69" d="M 425 3934 
L 425 4581 
L 988 4581 
L 988 3934 
L 425 3934 
z
M 425 0 
L 425 3319 
L 988 3319 
L 988 0 
L 425 0 
z
" transform="scale(0.015625)"/>
       <path id="ArialMT-20" transform="scale(0.015625)"/>
       <path id="ArialMT-28" d="M 1497 -1347 
Q 1031 -759 709 28 
Q 388 816 388 1659 
Q 388 2403 628 3084 
Q 909 3875 1497 4659 
L 1900 4659 
Q 1522 4009 1400 3731 
Q 1209 3300 1100 2831 
Q 966 2247 966 1656 
Q 966 153 1900 -1347 
L 1497 -1347 
z
" transform="scale(0.015625)"/>
       <path id="ArialMT-4d" d="M 475 0 
L 475 4581 
L 1388 4581 
L 2472 1338 
Q 2622 884 2691 659 
Q 2769 909 2934 1394 
L 4031 4581 
L 4847 4581 
L 4847 0 
L 4263 0 
L 4263 3834 
L 2931 0 
L 2384 0 
L 1059 3900 
L 1059 0 
L 475 0 
z
" transform="scale(0.015625)"/>
       <path id="ArialMT-57" d="M 1294 0 
L 78 4581 
L 700 4581 
L 1397 1578 
Q 1509 1106 1591 641 
Q 1766 1375 1797 1488 
L 2669 4581 
L 3400 4581 
L 4056 2263 
Q 4303 1400 4413 641 
Q 4500 1075 4641 1638 
L 5359 4581 
L 5969 4581 
L 4713 0 
L 4128 0 
L 3163 3491 
Q 3041 3928 3019 4028 
Q 2947 3713 2884 3491 
L 1913 0 
L 1294 0 
z
" transform="scale(0.015625)"/>
       <path id="ArialMT-68" d="M 422 0 
L 422 4581 
L 984 4581 
L 984 2938 
Q 1378 3394 1978 3394 
Q 2347 3394 2619 3248 
Q 2891 3103 3008 2847 
Q 3125 2591 3125 2103 
L 3125 0 
L 2563 0 
L 2563 2103 
Q 2563 2525 2380 2717 
Q 2197 2909 1863 2909 
Q 1613 2909 1392 2779 
Q 1172 2650 1078 2428 
Q 984 2206 984 1816 
L 984 0 
L 422 0 
z
" transform="scale(0.015625)"/>
       <path id="ArialMT-29" d="M 791 -1347 
L 388 -1347 
Q 1322 153 1322 1656 
Q 1322 2244 1188 2822 
Q 1081 3291 891 3722 
Q 769 4003 388 4659 
L 791 4659 
Q 1378 3875 1659 3084 
Q 1900 2403 1900 1659 
Q 1900 816 1576 28 
Q 1253 -759 791 -1347 
z
" transform="scale(0.015625)"/>
      </defs>
      <use xlink:href="#ArialMT-43"/>
      <use xlink:href="#ArialMT-6f" x="72.216797"/>
      <use xlink:href="#ArialMT-6e" x="127.832031"/>
      <use xlink:href="#ArialMT-73" x="183.447266"/>
      <use xlink:href="#ArialMT-75" x="233.447266"/>
      <use xlink:href="#ArialMT-6d" x="289.0625"/>
      <use xlink:href="#ArialMT-70" x="372.363281"/>
      <use xlink:href="#ArialMT-74" x="427.978516"/>
      <use xlink:href="#ArialMT-69" x="455.761719"/>
      <use xlink:href="#ArialMT-6f" x="477.978516"/>
      <use xlink:href="#ArialMT-6e" x="533.59375"/>
      <use xlink:href="#ArialMT-20" x="589.208984"/>
      <use xlink:href="#ArialMT-28" x="616.992188"/>
      <use xlink:href="#ArialMT-4d" x="650.292969"/>
      <use xlink:href="#ArialMT-57" x="733.59375"/>
      <use xlink:href="#ArialMT-68" x="827.978516"/>
      <use xlink:href="#ArialMT-29" x="883.59375"/>
     </g>
    </g>
    <g id="text_16">
     <!-- 1e6 -->
     <g style="fill: #262626" transform="translate(47.30525 24.177) scale(0.176 -0.176)">
      <defs>
       <path id="ArialMT-65" d="M 2694 1069 
L 3275 997 
Q 3138 488 2766 206 
Q 2394 -75 1816 -75 
Q 1088 -75 661 373 
Q 234 822 234 1631 
Q 234 2469 665 2931 
Q 1097 3394 1784 3394 
Q 2450 3394 2872 2941 
Q 3294 2488 3294 1666 
Q 3294 1616 3291 1516 
L 816 1516 
Q 847 969 1125 678 
Q 1403 388 1819 388 
Q 2128 388 2347 550 
Q 2566 713 2694 1069 
z
M 847 1978 
L 2700 1978 
Q 2663 2397 2488 2606 
Q 2219 2931 1791 2931 
Q 1403 2931 1139 2672 
Q 875 2413 847 1978 
z
" transform="scale(0.015625)"/>
      </defs>
      <use xlink:href="#ArialMT-31"/>
      <use xlink:href="#ArialMT-65" x="55.615234"/>
      <use xlink:href="#ArialMT-36" x="111.230469"/>
     </g>
    </g>
   </g>
   <g id="patch_3">
    <path d="M 316.198008 248.937 
L 316.198008 27.177 
L 357.658717 27.177 
L 357.658717 248.937 
z
" clip-path="url(#p54827a751f)" style="fill: #008000; opacity: 0.1; stroke: #008000; stroke-width: 0.8; stroke-linejoin: miter"/>
   </g>
   <g id="line2d_15">
    <path d="M 326.897546 248.937 
L 326.897546 27.177 
" clip-path="url(#p54827a751f)" style="fill: none; stroke: #ff0000; stroke-width: 0.8; stroke-linecap: round"/>
   </g>
   <g id="line2d_16">
    <path d="M 82.814341 124.618495 
L 83.483062 115.360415 
L 84.151783 128.499128 
L 84.820504 131.881555 
L 85.489225 132.5171 
L 86.157946 119.96518 
L 86.826668 119.277381 
L 87.495389 125.959268 
L 88.16411 140.466438 
L 88.832831 140.136424 
L 89.501552 139.563325 
L 90.170273 136.945071 
L 90.838994 126.000448 
L 91.507715 137.071154 
L 92.176436 142.585846 
L 92.845158 137.131328 
L 93.513879 137.938995 
L 94.1826 136.766312 
L 94.851321 126.826292 
L 95.520042 106.897662 
L 96.188763 100.61556 
L 96.857484 98.300078 
L 97.526205 97.85613 
L 98.194926 99.103284 
L 98.863648 113.091705 
L 99.532369 119.288733 
L 100.20109 118.186659 
L 100.869811 120.216043 
L 101.538532 119.566611 
L 102.207253 131.421424 
L 102.875974 149.172266 
L 103.544695 162.821673 
L 104.213416 158.998003 
L 104.882138 149.169106 
L 106.21958 119.914344 
L 106.888301 112.315443 
L 107.557022 115.696522 
L 108.894464 149.271029 
L 109.563185 139.45169 
L 111.569349 117.264986 
L 112.23807 123.974022 
L 112.906791 147.314902 
L 113.575512 162.047166 
L 114.244233 148.904723 
L 114.912954 142.170799 
L 115.581675 131.217296 
L 116.250396 132.940067 
L 116.919117 135.09858 
L 117.587839 152.528402 
L 118.25656 153.645289 
L 118.925281 143.731572 
L 119.594002 140.43449 
L 120.262723 122.993841 
L 120.931444 115.047143 
L 121.600165 121.898449 
L 122.268886 144.893447 
L 122.937607 146.649899 
L 123.606329 132.043051 
L 124.27505 124.921344 
L 124.943771 122.398536 
L 125.612492 125.671495 
L 126.281213 127.211873 
L 126.949934 138.006638 
L 127.618655 145.624756 
L 128.287376 135.527069 
L 128.956097 142.889431 
L 129.624819 154.685159 
L 130.29354 153.702571 
L 130.962261 145.554213 
L 131.630982 148.194334 
L 132.299703 154.709587 
L 132.968424 149.114453 
L 133.637145 154.3712 
L 134.305866 162.249614 
L 134.974587 160.274763 
L 135.643309 160.478179 
L 136.31203 154.647739 
L 136.980751 143.08396 
L 137.649472 125.995298 
L 138.318193 126.026111 
L 138.986914 127.953987 
L 139.655635 134.304173 
L 140.993077 165.327099 
L 142.33052 130.927203 
L 142.999241 125.180386 
L 143.667962 128.415468 
L 144.336683 137.993671 
L 145.005404 144.065391 
L 146.342846 170.713347 
L 148.34901 183.922483 
L 149.017731 187.077079 
L 149.686452 189.564559 
L 150.355173 190.978653 
L 151.023894 196.570609 
L 151.692615 183.897314 
L 152.361336 162.096488 
L 153.030057 163.750845 
L 154.3675 177.285469 
L 155.036221 189.445004 
L 155.704942 188.291535 
L 156.373663 180.025744 
L 157.042384 181.475721 
L 157.711105 182.500165 
L 158.379826 181.758557 
L 159.048547 189.026593 
L 159.717268 189.101947 
L 160.38599 186.478004 
L 161.054711 181.908856 
L 161.723432 182.618077 
L 162.392153 181.844333 
L 163.060874 183.991753 
L 163.729595 188.492465 
L 164.398316 184.468714 
L 165.067037 183.083388 
L 165.735758 172.481133 
L 166.40448 169.361474 
L 167.073201 169.991404 
L 167.741922 173.289086 
L 169.079364 196.440698 
L 169.748085 200.687886 
L 170.416806 177.63188 
L 171.085527 167.168864 
L 171.754248 161.278834 
L 172.42297 161.73433 
L 173.091691 167.934019 
L 173.760412 182.074129 
L 174.429133 187.668119 
L 175.097854 186.870136 
L 175.766575 187.546464 
L 176.435296 189.231566 
L 177.104017 202.285126 
L 177.772738 202.921974 
L 178.44146 202.750935 
L 179.110181 200.037486 
L 179.778902 186.221207 
L 180.447623 184.067861 
L 181.116344 188.233944 
L 181.785065 188.237351 
L 182.453786 191.450391 
L 183.122507 201.454547 
L 184.45995 205.278442 
L 185.128671 195.036665 
L 185.797392 194.686416 
L 186.466113 192.02077 
L 187.134834 190.196372 
L 187.803555 196.477976 
L 188.472276 193.652345 
L 189.140997 181.57743 
L 189.809718 182.471753 
L 190.47844 185.4138 
L 191.147161 193.970502 
L 192.484603 207.538207 
L 193.153324 204.676806 
L 193.822045 192.756812 
L 194.490766 190.80666 
L 195.159487 191.548333 
L 195.828208 190.929145 
L 196.49693 193.574209 
L 197.165651 203.241513 
L 197.834372 203.805611 
L 198.503093 193.53769 
L 199.171814 193.006154 
L 199.840535 193.723902 
L 200.509256 194.686426 
L 201.177977 198.648009 
L 201.846698 207.629552 
L 202.515419 207.198729 
L 203.184141 196.901548 
L 203.852862 196.862751 
L 205.190304 192.045789 
L 205.859025 196.819657 
L 206.527746 208.895106 
L 207.196467 209.395252 
L 207.865188 197.318801 
L 208.533909 191.512371 
L 209.202631 189.318335 
L 210.540073 193.354006 
L 211.208794 197.780953 
L 211.877515 199.065994 
L 212.546236 192.464981 
L 213.214957 192.001631 
L 213.883678 190.918153 
L 214.552399 190.207864 
L 215.221121 193.688775 
L 215.889842 201.70934 
L 216.558563 204.173224 
L 217.227284 196.168419 
L 217.896005 194.306269 
L 218.564726 193.111307 
L 219.233447 194.63966 
L 219.902168 197.811776 
L 220.570889 204.410497 
L 221.239611 206.070776 
L 221.908332 198.935351 
L 222.577053 199.870349 
L 223.914495 196.446124 
L 224.583216 200.822228 
L 225.251937 207.192001 
L 225.920658 205.000963 
L 226.589379 196.431605 
L 227.258101 194.811348 
L 227.926822 196.74507 
L 228.595543 197.068121 
L 229.264264 199.880152 
L 229.932985 206.671187 
L 230.601706 207.576191 
L 231.270427 200.779813 
L 232.607869 200.666615 
L 233.276591 200.359154 
L 233.945312 200.582264 
L 234.614033 205.13371 
L 235.282754 206.291236 
L 235.951475 198.048273 
L 236.620196 196.594399 
L 237.288917 196.672329 
L 237.957638 198.120163 
L 238.626359 202.826822 
L 239.295081 210.610017 
L 239.963802 207.371901 
L 240.632523 195.055679 
L 241.301244 196.653057 
L 241.969965 200.932183 
L 242.638686 193.816044 
L 243.307407 195.906073 
L 243.976128 201.183484 
L 244.644849 199.337812 
L 245.31357 190.442817 
L 245.982292 187.399062 
L 246.651013 187.252699 
L 247.319734 189.730432 
L 247.988455 194.650436 
L 248.657176 203.715742 
L 249.325897 198.999774 
L 249.994618 189.07961 
L 250.663339 191.113437 
L 251.33206 192.17709 
L 252.000782 189.64372 
L 252.669503 192.696491 
L 253.338224 202.536361 
L 254.006945 202.393503 
L 254.675666 195.290783 
L 255.344387 194.67637 
L 256.013108 195.999695 
L 256.681829 192.801622 
L 257.35055 190.777411 
L 258.019272 195.956238 
L 258.687993 195.594227 
L 259.356714 187.701479 
L 260.025435 188.618555 
L 260.694156 190.730302 
L 261.362877 191.362098 
L 262.031598 185.795157 
L 262.700319 187.27064 
L 263.36904 182.047409 
L 264.037762 170.225527 
L 264.706483 170.769482 
L 265.375204 175.793912 
L 266.043925 174.777351 
L 267.381367 190.767084 
L 268.050088 188.322463 
L 268.718809 172.067943 
L 269.38753 172.984635 
L 270.056252 169.826029 
L 270.724973 173.241795 
L 271.393694 172.131906 
L 272.062415 176.681035 
L 272.731136 169.296065 
L 273.399857 151.215771 
L 274.068578 148.782758 
L 274.737299 150.914716 
L 275.40602 146.683965 
L 276.074742 148.347205 
L 276.743463 157.600578 
L 277.412184 159.941393 
L 278.080905 147.39523 
L 278.749626 157.170504 
L 279.418347 169.838767 
L 280.087068 174.22221 
L 280.755789 173.260842 
L 281.42451 182.417798 
L 282.093232 182.310777 
L 282.761953 162.823554 
L 283.430674 160.511235 
L 284.099395 162.115859 
L 284.768116 161.208963 
L 286.105558 177.946942 
L 286.774279 182.750812 
L 287.443 181.711373 
L 288.780443 153.228125 
L 289.449164 143.571099 
L 290.117885 141.211971 
L 290.786606 150.99061 
L 291.455327 153.157767 
L 292.124048 140.501215 
L 292.792769 135.94415 
L 294.130211 144.485015 
L 294.798933 149.903703 
L 295.467654 166.022379 
L 296.136375 171.455591 
L 296.805096 157.608015 
L 297.473817 154.758106 
L 298.142538 155.418228 
L 298.811259 150.077705 
L 299.47998 130.420253 
L 300.148701 139.960988 
L 300.817423 141.241353 
L 301.486144 125.471812 
L 302.154865 122.141288 
L 302.823586 117.04488 
L 303.492307 115.522712 
L 304.161028 115.756636 
L 304.829749 122.004361 
L 305.49847 113.008385 
L 306.167191 98.30615 
L 306.835913 101.085528 
L 307.504634 96.501381 
L 308.173355 101.228012 
L 308.842076 106.993915 
L 309.510797 115.747543 
L 310.179518 117.360628 
L 310.848239 108.497073 
L 311.51696 104.837191 
L 312.185681 100.481301 
L 312.854403 97.024835 
L 313.523124 102.401617 
L 314.191845 118.812899 
L 314.860566 126.083206 
L 315.529287 122.897794 
L 316.866729 131.811083 
L 317.53545 132.406363 
L 318.204171 133.686214 
L 318.872893 142.807882 
L 319.541614 141.675722 
L 320.210335 139.209137 
L 320.879056 152.811563 
L 321.547777 155.765682 
L 322.216498 155.662073 
L 322.885219 139.23746 
L 323.55394 133.388628 
L 324.222661 131.016851 
L 324.891383 120.852849 
L 325.560104 118.982185 
L 326.897546 123.313094 
L 327.566267 122.819079 
L 328.234988 118.666895 
L 328.903709 117.508219 
L 329.57243 102.346958 
L 330.241151 100.214502 
L 330.909872 99.826558 
L 331.578594 94.899847 
L 332.247315 95.053146 
L 332.916036 102.240559 
L 333.584757 102.089203 
L 334.253478 95.451782 
L 334.922199 102.138545 
L 335.59092 102.063676 
L 336.259641 90.020174 
L 336.928362 86.396665 
L 337.597084 94.174158 
L 338.265805 96.639785 
L 338.934526 96.979121 
L 340.940689 131.235956 
L 341.60941 127.181981 
L 342.278131 126.573549 
L 342.946852 115.211608 
L 343.615574 95.751589 
L 344.284295 96.155705 
L 344.953016 98.290584 
L 345.621737 105.850615 
L 346.290458 117.381067 
L 346.959179 116.427507 
L 347.6279 110.039355 
L 348.296621 96.588524 
L 348.965342 109.27377 
L 349.634064 124.51488 
L 350.302785 123.473299 
L 350.971506 124.396755 
L 351.640227 125.627595 
L 352.308948 108.480363 
L 352.977669 76.405132 
L 353.64639 63.550406 
L 354.315111 56.57843 
L 354.983832 54.882908 
L 355.652554 55.996839 
L 356.321275 67.694705 
L 356.989996 75.117287 
L 357.658717 76.325512 
L 358.327438 98.272209 
L 358.996159 115.653793 
L 359.66488 126.013534 
L 360.333601 132.563392 
L 361.002322 152.408948 
L 361.671044 154.231579 
L 362.339765 145.019165 
L 363.008486 155.814007 
L 363.677207 160.740557 
L 364.345928 159.327174 
L 365.014649 150.856094 
L 365.68337 148.807096 
L 366.352091 142.215938 
L 367.020812 124.983411 
L 367.689534 126.779128 
L 368.358255 132.592048 
L 369.026976 130.203448 
L 369.695697 118.961539 
L 370.364418 124.512068 
L 371.033139 121.443932 
L 371.70186 107.20378 
L 372.370581 107.800967 
L 373.708023 136.529447 
L 374.376745 141.017755 
L 375.045466 148.932272 
L 375.714187 142.175511 
L 376.382908 127.725888 
L 377.72035 114.586875 
L 378.389071 109.694068 
L 379.057792 110.331811 
L 379.726513 119.312393 
L 380.395235 125.511672 
L 381.063956 115.417396 
L 381.732677 121.592661 
L 382.401398 133.243539 
L 383.070119 141.177208 
L 383.73884 156.013454 
L 384.407561 159.915953 
L 385.076282 160.241493 
L 385.745003 159.808627 
L 386.413725 164.039104 
L 387.082446 170.945177 
L 387.751167 175.418769 
L 388.419888 172.679599 
L 389.088609 164.430981 
L 389.75733 160.061951 
L 390.426051 145.344362 
L 391.094772 121.468259 
L 391.763493 117.932262 
L 392.432215 118.341886 
L 393.769657 147.799967 
L 394.438378 155.950394 
L 395.107099 130.786744 
L 395.77582 127.188937 
L 396.444541 119.993218 
L 397.113262 121.295918 
L 397.781983 128.922044 
L 398.450705 143.233112 
L 399.119426 149.088494 
L 399.788147 146.832848 
L 400.456868 153.912462 
L 401.125589 159.652914 
L 401.79431 155.035103 
L 402.463031 155.282134 
L 403.131752 163.505131 
L 403.800473 160.733206 
L 404.469195 150.689992 
L 405.137916 153.580659 
L 405.806637 162.711363 
L 406.475358 164.233269 
L 407.144079 161.406189 
L 407.8128 172.462248 
L 409.150242 157.732916 
L 409.818963 160.953716 
L 411.156406 149.772593 
L 411.825127 150.917206 
L 413.162569 189.901698 
L 413.83129 187.439665 
L 414.500011 185.702534 
L 415.168732 183.509536 
L 415.837453 185.810058 
L 416.506174 180.525209 
L 417.174896 183.268998 
L 417.843617 182.953206 
L 418.512338 173.744654 
L 419.84978 170.0671 
L 420.518501 172.680252 
L 421.187222 181.080307 
L 421.855943 187.936033 
L 422.524664 189.239911 
L 423.193386 188.359314 
L 423.862107 175.16435 
L 424.530828 174.02183 
L 425.199549 171.157871 
L 425.86827 176.196513 
L 426.536991 186.596333 
L 427.205712 190.817708 
L 427.874433 186.526833 
L 428.543154 190.641749 
L 429.880597 201.572001 
L 430.549318 200.925702 
L 431.218039 206.327244 
L 431.88676 204.767604 
L 432.555481 192.28924 
L 433.224202 192.394447 
L 434.561644 194.732079 
L 435.230366 199.796136 
L 435.899087 208.272725 
L 436.567808 206.245247 
L 437.236529 198.658363 
L 437.90525 195.605391 
L 438.573971 197.14525 
L 439.242692 199.231324 
L 439.911413 201.746979 
L 440.580134 210.653144 
L 441.248856 210.840796 
L 441.917577 201.129994 
L 442.586298 194.53893 
L 443.255019 192.922028 
L 443.92374 191.7295 
L 444.592461 194.680257 
L 445.261182 206.163614 
L 445.929903 208.143805 
L 446.598624 198.127807 
L 447.267346 195.446104 
L 447.936067 193.443424 
L 448.604788 190.909363 
L 449.273509 194.775842 
L 449.94223 205.66115 
L 450.610951 206.176858 
L 451.279672 197.162418 
L 451.948393 200.751833 
L 452.617114 195.161912 
L 453.285836 193.543751 
L 453.954557 196.925063 
L 454.623278 206.106579 
L 455.291999 205.502109 
L 455.96072 197.816319 
L 456.629441 196.533893 
L 457.298162 196.622876 
L 457.966883 197.253554 
L 458.635604 201.215698 
L 459.304326 209.627756 
L 459.973047 209.534247 
L 460.641768 200.48662 
L 461.310489 198.402381 
L 461.97921 198.293265 
L 462.647931 198.749941 
L 463.316652 202.054035 
L 463.985373 210.529488 
L 464.654094 210.218905 
L 465.322815 201.950106 
L 465.991537 201.982394 
L 466.660258 204.166023 
L 467.328979 204.717733 
L 467.9977 206.148357 
L 468.666421 210.231428 
L 469.335142 208.236279 
L 470.003863 201.808104 
L 470.672584 199.27259 
L 471.341305 198.580577 
L 472.010027 200.158385 
L 473.347469 208.372329 
L 474.01619 208.406731 
L 474.684911 202.565859 
L 475.353632 201.160529 
L 476.022353 201.442643 
L 476.691074 202.875548 
L 477.359795 206.694062 
L 478.028517 211.411384 
L 478.697238 211.450975 
L 479.365959 203.223932 
L 480.03468 200.172068 
L 480.703401 199.779527 
L 481.372122 199.249872 
L 482.040843 201.242875 
L 482.709564 208.508649 
L 483.378285 208.049864 
L 484.047007 200.458626 
L 484.715728 197.892814 
L 485.384449 198.797306 
L 486.05317 196.15402 
L 486.721891 196.271461 
L 487.390612 202.070244 
L 488.059333 201.667299 
L 488.728054 195.184906 
L 489.396775 194.05725 
L 490.065497 193.206182 
L 490.734218 194.66718 
L 491.402939 197.738398 
L 492.07166 204.834389 
L 492.740381 205.249591 
L 493.409102 196.628494 
L 494.077823 196.241745 
L 494.746544 197.899803 
L 495.415265 197.997166 
L 496.083987 199.823858 
L 496.752708 207.033701 
L 497.421429 207.047882 
L 498.09015 195.872012 
L 498.758871 195.995216 
L 499.427592 195.911792 
L 500.096313 194.477829 
L 500.765034 194.382713 
L 501.433755 202.560255 
L 502.102477 199.093572 
L 502.771198 184.386133 
L 503.439919 183.433342 
L 504.10864 184.174937 
L 504.777361 189.232244 
L 505.446082 192.719032 
L 506.114803 200.507534 
L 506.783524 203.777029 
L 507.452245 196.021446 
L 508.120966 190.388271 
L 508.789688 188.646977 
L 509.458409 182.87426 
L 510.12713 185.368436 
L 510.795851 195.451942 
L 511.464572 198.880469 
L 512.133293 186.198056 
L 512.802014 184.557501 
L 513.470735 177.392964 
L 514.139456 171.918046 
L 514.808178 174.581672 
L 515.476899 180.331059 
L 516.14562 173.985098 
L 516.814341 164.891834 
L 518.151783 157.134459 
L 518.820504 163.675532 
L 520.157946 169.898785 
L 520.826668 170.008596 
L 521.495389 163.683359 
L 522.16411 171.450755 
L 522.832831 181.067503 
L 524.170273 166.901316 
L 524.838994 165.568364 
L 525.507715 161.819446 
L 526.176436 151.389266 
L 527.513879 163.184667 
L 528.1826 163.304486 
L 528.851321 166.931377 
L 529.520042 172.238852 
L 530.188763 180.549515 
L 530.857484 170.544545 
L 531.526205 153.17009 
L 532.194926 144.608727 
L 532.863648 142.076886 
L 533.532369 144.875612 
L 534.20109 155.766466 
L 534.869811 156.897695 
L 535.538532 140.065579 
L 536.207253 139.532719 
L 536.875974 130.078774 
L 537.544695 129.084181 
L 538.213416 131.884413 
L 538.882138 144.836133 
L 539.550859 147.75604 
L 540.21958 131.054907 
L 540.888301 129.286095 
L 542.894464 149.527374 
L 543.563185 158.324859 
L 544.231906 150.184054 
L 544.900628 128.295179 
L 545.569349 120.444779 
L 546.23807 117.615425 
L 546.906791 113.408864 
L 547.575512 117.310226 
L 548.244233 122.696227 
L 548.912954 119.339406 
L 549.581675 106.031469 
L 550.919117 129.272646 
L 551.587839 113.025675 
L 552.25656 115.046333 
L 552.925281 126.168966 
L 553.594002 122.133241 
L 554.262723 105.715091 
L 554.931444 107.653157 
L 555.600165 107.724256 
L 556.268886 104.399604 
L 556.937607 105.744574 
L 558.27505 127.396597 
L 558.943771 124.182915 
L 559.612492 126.816398 
L 560.281213 132.267835 
L 560.949934 132.309946 
L 561.618655 134.602836 
L 562.287376 143.435182 
L 562.956097 142.264153 
L 563.624819 112.47433 
L 564.29354 98.614982 
L 564.962261 96.844688 
L 565.630982 112.764956 
L 566.299703 133.192729 
L 566.968424 124.52217 
L 567.637145 122.552278 
L 568.305866 123.150221 
L 568.974587 135.234772 
L 569.643309 144.407047 
L 570.31203 164.779511 
L 570.980751 175.226306 
L 571.649472 175.509274 
L 572.318193 171.539476 
L 574.993077 119.814325 
L 575.661799 117.101386 
L 576.33052 124.031854 
L 576.999241 122.432943 
L 577.667962 103.628353 
L 578.336683 99.9424 
L 579.005404 99.832088 
L 579.674125 105.584294 
L 580.342846 108.780475 
L 581.011567 118.25706 
L 581.680289 124.616764 
L 582.34901 117.379448 
L 583.017731 112.993441 
L 583.686452 117.234624 
L 584.355173 111.501503 
L 585.023894 110.13144 
L 585.692615 122.165977 
L 586.361336 125.065365 
L 587.030057 110.451936 
L 587.698779 106.210974 
L 588.3675 107.790748 
L 589.036221 115.046209 
L 589.704942 118.741519 
L 590.373663 138.738319 
L 591.042384 136.808278 
L 591.711105 118.3349 
L 593.048547 124.118508 
L 593.717268 127.483062 
L 594.38599 134.469347 
L 595.054711 139.022534 
L 595.723432 139.081508 
L 596.392153 124.821288 
L 597.060874 132.201479 
L 597.729595 135.889975 
L 598.398316 130.800934 
L 599.067037 124.015209 
L 599.735758 128.222294 
L 600.40448 133.416126 
L 601.073201 132.40191 
L 601.741922 133.390342 
L 602.410643 143.826423 
L 603.079364 146.752005 
L 603.748085 147.407404 
L 605.085527 151.768632 
L 605.754248 135.715002 
L 606.42297 134.178109 
L 607.091691 133.59329 
L 607.760412 136.607641 
L 608.429133 130.314305 
L 609.097854 133.058207 
L 609.766575 130.867166 
L 610.435296 119.533657 
L 611.104017 114.417029 
L 611.772738 115.745164 
L 612.44146 119.335301 
L 613.110181 118.299332 
L 613.778902 126.357784 
L 614.447623 122.241705 
L 615.116344 110.490464 
L 616.453786 126.074353 
L 617.122507 136.226705 
L 617.791228 140.42183 
L 618.45995 151.068946 
L 619.128671 154.982817 
L 619.797392 143.308494 
L 620.466113 141.112905 
L 621.134834 151.550266 
L 621.803555 147.106562 
L 622.472276 149.665187 
L 623.140997 157.326802 
L 623.809718 157.351794 
L 624.47844 149.051434 
L 625.147161 151.556252 
L 625.815882 156.155741 
L 626.484603 158.017333 
L 627.153324 164.24178 
L 627.822045 176.307952 
L 628.490766 173.643525 
L 629.159487 166.087858 
L 629.828208 160.032372 
L 630.49693 149.832314 
L 631.165651 143.797235 
L 631.834372 134.807133 
L 632.503093 134.025054 
L 633.840535 130.321703 
L 634.509256 142.339021 
L 635.177977 156.680848 
L 635.846698 158.682685 
L 636.515419 153.491766 
L 637.184141 156.631768 
L 637.852862 151.442852 
L 638.521583 149.384335 
L 639.190304 165.697562 
L 639.859025 175.569473 
L 640.527746 183.064756 
L 641.196467 185.737148 
L 641.865188 181.735005 
L 642.533909 180.291474 
L 643.202631 178.396725 
L 643.871352 169.919032 
L 644.540073 169.344243 
L 645.208794 171.671661 
L 645.877515 178.593832 
L 646.546236 188.767287 
L 647.214957 183.817126 
L 647.883678 168.393282 
L 648.552399 166.131581 
L 649.221121 169.146357 
L 649.889842 174.070956 
L 650.558563 177.518429 
L 651.227284 184.754069 
L 651.896005 185.891334 
L 652.564726 179.20988 
L 653.233447 178.542165 
L 653.902168 179.277587 
L 654.570889 181.650864 
L 655.239611 186.96944 
L 655.908332 198.637509 
L 656.577053 196.977856 
L 657.245774 191.906051 
L 657.914495 197.142044 
L 658.583216 200.613127 
L 659.251937 198.554168 
L 659.920658 199.594109 
L 660.589379 205.022954 
L 661.258101 206.032692 
L 661.926822 198.832424 
L 662.595543 196.592206 
L 663.264264 200.31225 
L 663.932985 201.111306 
L 665.270427 209.022966 
L 665.939148 206.040578 
L 666.607869 199.956259 
L 667.276591 196.590748 
L 667.945312 199.840601 
L 668.614033 205.630038 
L 669.282754 202.051743 
L 669.951475 200.846785 
L 670.620196 194.105552 
L 671.288917 182.618937 
L 671.957638 185.901713 
L 672.626359 188.390396 
L 673.295081 191.756767 
L 673.963802 199.02853 
L 674.632523 209.191183 
L 675.301244 212.773781 
L 675.969965 210.65054 
L 676.638686 199.421187 
L 677.307407 198.175579 
L 677.976128 197.886652 
L 678.644849 201.703239 
L 679.31357 210.360261 
L 679.982292 210.3831 
L 680.651013 200.909135 
L 681.319734 197.806008 
L 681.988455 201.16116 
L 682.657176 208.37462 
L 683.325897 209.573646 
L 683.994618 216.401479 
L 684.663339 214.380659 
L 685.33206 203.441156 
L 686.000782 201.896963 
L 686.669503 201.025138 
L 687.338224 205.249326 
L 688.006945 206.774085 
L 688.675666 215.168133 
L 689.344387 213.478361 
L 690.013108 204.505712 
L 690.681829 204.615852 
L 691.35055 202.847319 
L 692.687993 206.844401 
L 693.356714 214.248325 
L 694.025435 214.45145 
L 694.694156 206.890518 
L 695.362877 206.334191 
L 696.031598 206.392329 
L 696.700319 205.800999 
L 697.36904 207.119005 
L 698.037762 213.119484 
L 698.706483 211.533859 
L 699.375204 202.053089 
L 700.712646 206.842561 
L 701.381367 208.12249 
L 702.050088 208.326978 
L 702.718809 215.083625 
L 703.38753 213.108306 
L 704.056252 205.39026 
L 704.724973 208.62892 
L 705.393694 209.107189 
L 706.062415 205.645983 
L 706.731136 207.252052 
L 707.399857 214.96097 
L 708.068578 216.247654 
L 708.737299 212.389105 
L 709.40602 207.271181 
L 710.074742 206.984846 
L 710.743463 208.101121 
L 711.412184 209.62853 
L 712.080905 217.20154 
L 712.749626 217.618129 
L 713.418347 209.700675 
L 714.087068 211.96973 
L 715.42451 211.557661 
L 716.093232 214.328325 
L 716.761953 218.29926 
L 717.430674 217.483627 
L 718.099395 212.096551 
L 718.768116 212.277415 
L 719.436837 212.251506 
L 720.105558 211.743723 
L 720.774279 213.422671 
L 721.443 219.182639 
L 722.111721 220.228806 
L 722.780443 211.486853 
L 723.449164 208.226764 
L 724.117885 207.190324 
L 724.786606 207.054257 
L 725.455327 209.407216 
L 726.124048 218.074013 
L 726.792769 214.970064 
L 727.46149 206.213551 
L 728.130211 206.997204 
L 728.798933 207.116276 
L 729.467654 208.444017 
L 730.136375 208.542575 
L 730.805096 216.169721 
L 731.473817 217.063458 
L 732.142538 206.650002 
L 732.811259 206.615835 
L 733.47998 204.746714 
L 734.148701 204.949165 
L 734.817423 210.097638 
L 735.486144 216.678578 
L 736.154865 216.345836 
L 736.823586 210.889762 
L 738.161028 207.107091 
L 739.49847 208.445437 
L 740.167191 211.49865 
L 740.835913 209.884411 
L 741.504634 203.422687 
L 742.173355 203.958428 
L 742.842076 202.669458 
L 743.510797 204.799933 
L 744.179518 202.548798 
L 744.848239 203.343251 
L 745.51696 198.857644 
L 746.185681 190.173996 
L 746.854403 182.976871 
L 747.523124 182.928706 
L 748.191845 184.858068 
L 748.860566 188.102499 
L 749.529287 198.840334 
L 750.198008 198.335536 
L 751.53545 183.036322 
L 752.204171 177.30562 
L 752.872893 175.503241 
L 753.541614 182.95359 
L 754.210335 194.264587 
L 754.879056 198.686007 
L 755.547777 195.76633 
L 756.216498 190.501158 
L 756.885219 196.700007 
L 757.55394 195.233693 
L 758.222661 195.127604 
L 758.891383 197.498054 
L 759.560104 194.465486 
L 760.228825 188.324312 
L 760.897546 180.176719 
L 761.566267 179.379139 
L 762.234988 179.604524 
L 762.903709 185.772374 
L 763.57243 200.837649 
L 764.241151 201.963978 
L 764.909872 194.808827 
L 765.578594 190.432101 
L 766.247315 184.014161 
L 767.584757 186.233133 
L 768.253478 195.679796 
L 768.922199 199.217189 
L 769.59092 193.575518 
L 770.259641 186.212672 
L 770.928362 186.867176 
L 772.934526 200.83193 
L 773.603247 200.965142 
L 774.271968 195.356895 
L 774.940689 196.363922 
L 775.60941 184.457925 
L 776.946852 176.653935 
L 777.615574 179.85504 
L 778.284295 178.965204 
L 778.953016 177.725924 
L 779.621737 181.002959 
L 780.290458 182.41352 
L 780.959179 180.72889 
L 781.6279 176.791535 
L 782.296621 176.583252 
L 782.965342 172.212272 
L 783.634064 161.407274 
L 784.302785 167.726032 
L 784.971506 167.211851 
L 785.640227 166.002997 
L 786.308948 155.772674 
L 786.977669 150.206323 
L 787.64639 146.322077 
L 788.315111 135.941883 
L 788.983832 140.540462 
L 789.652554 148.721938 
L 790.989996 153.018605 
L 791.658717 160.970849 
L 792.327438 158.407159 
L 792.996159 142.464967 
L 792.996159 142.464967 
" clip-path="url(#p54827a751f)" style="fill: none; stroke: #4c72b0; stroke-width: 1.2; stroke-linecap: round"/>
   </g>
   <g id="line2d_17">
    <path d="M 82.814341 111.687186 
L 83.483062 111.334017 
L 84.151783 133.876602 
L 84.820504 139.036031 
L 85.489225 129.044206 
L 86.157946 121.077447 
L 86.826668 122.560277 
L 87.495389 137.237858 
L 88.16411 149.281097 
L 88.832831 144.263698 
L 89.501552 131.697327 
L 90.170273 129.808566 
L 90.838994 130.24864 
L 91.507715 142.164201 
L 92.176436 149.655769 
L 93.513879 139.050754 
L 94.1826 138.461688 
L 94.851321 128.266201 
L 95.520042 114.376184 
L 96.188763 106.418897 
L 96.857484 106.141127 
L 97.526205 109.985653 
L 98.194926 102.882363 
L 98.863648 114.542647 
L 99.532369 121.857678 
L 100.20109 135.435163 
L 101.538532 125.944762 
L 102.207253 138.455891 
L 102.875974 164.98165 
L 103.544695 175.514268 
L 104.213416 163.110296 
L 104.882138 154.346579 
L 105.550859 131.656222 
L 106.21958 121.872575 
L 106.888301 121.718689 
L 107.557022 124.226573 
L 108.225743 135.28675 
L 108.894464 160.205399 
L 109.563185 150.703395 
L 110.231906 132.729303 
L 110.900628 129.253532 
L 111.569349 123.222626 
L 112.23807 132.616396 
L 112.906791 152.990802 
L 113.575512 180.007743 
L 114.244233 154.526973 
L 114.912954 139.996093 
L 115.581675 132.269104 
L 116.250396 136.849802 
L 116.919117 137.056387 
L 117.587839 158.852061 
L 118.25656 162.10505 
L 118.925281 139.385826 
L 119.594002 147.394458 
L 120.262723 123.759824 
L 120.931444 118.436594 
L 121.600165 122.824139 
L 122.268886 155.899968 
L 122.937607 154.063265 
L 123.606329 139.940035 
L 124.27505 131.38939 
L 124.943771 126.365235 
L 125.612492 135.806524 
L 126.281213 136.786363 
L 126.949934 140.408092 
L 127.618655 156.214218 
L 128.287376 145.710239 
L 128.956097 146.955025 
L 129.624819 167.431258 
L 130.29354 162.823181 
L 130.962261 140.076695 
L 131.630982 137.873802 
L 132.299703 159.42516 
L 132.968424 160.89607 
L 133.637145 160.285644 
L 134.305866 169.221162 
L 134.974587 164.246048 
L 135.643309 158.327939 
L 136.31203 145.489841 
L 136.980751 136.315123 
L 137.649472 119.966532 
L 138.318193 127.489795 
L 139.655635 135.944158 
L 140.324356 156.45996 
L 140.993077 169.660113 
L 141.661799 144.816181 
L 142.33052 124.675645 
L 142.999241 123.436141 
L 143.667962 132.597768 
L 144.336683 148.410333 
L 145.005404 149.511569 
L 145.674125 160.785182 
L 146.342846 176.263436 
L 147.011567 177.689591 
L 147.680289 181.356107 
L 148.34901 187.284489 
L 149.017731 187.296218 
L 149.686452 179.514367 
L 150.355173 188.556801 
L 151.023894 202.734357 
L 152.361336 146.012917 
L 153.030057 162.5742 
L 153.698779 182.490885 
L 154.3675 184.46011 
L 155.036221 194.095289 
L 155.704942 188.185404 
L 156.373663 175.733295 
L 157.042384 185.923896 
L 157.711105 183.394798 
L 158.379826 184.537155 
L 159.048547 188.106937 
L 159.717268 183.064721 
L 160.38599 182.460211 
L 161.723432 187.580899 
L 162.392153 183.443007 
L 163.060874 181.515283 
L 163.729595 178.691518 
L 164.398316 178.468444 
L 165.067037 183.94588 
L 165.735758 174.683317 
L 166.40448 160.802353 
L 167.741922 175.188138 
L 169.079364 204.000658 
L 169.748085 205.0919 
L 170.416806 156.480219 
L 171.085527 151.578919 
L 171.754248 157.298125 
L 173.091691 164.140372 
L 173.760412 181.976497 
L 174.429133 189.829723 
L 175.097854 189.984638 
L 175.766575 192.54601 
L 176.435296 190.654635 
L 177.104017 197.517295 
L 177.772738 199.239032 
L 178.44146 197.920138 
L 179.110181 194.449637 
L 179.778902 182.600038 
L 180.447623 182.97648 
L 181.116344 191.352205 
L 181.785065 188.29927 
L 182.453786 189.537594 
L 183.122507 198.137633 
L 183.791228 200.27892 
L 184.45995 199.853014 
L 185.128671 200.43972 
L 185.797392 200.761446 
L 186.466113 187.656649 
L 187.134834 177.251955 
L 187.803555 191.24391 
L 188.472276 191.507484 
L 189.140997 186.400078 
L 189.809718 186.513504 
L 190.47844 187.311935 
L 191.147161 192.057726 
L 191.815882 198.948621 
L 192.484603 208.255805 
L 193.153324 204.899903 
L 193.822045 190.986162 
L 194.490766 194.796518 
L 195.159487 193.010724 
L 195.828208 193.68586 
L 196.49693 193.607048 
L 197.165651 202.42208 
L 197.834372 205.767551 
L 198.503093 198.338373 
L 199.171814 198.596272 
L 199.840535 197.465308 
L 200.509256 197.556103 
L 201.177977 197.465308 
L 201.846698 206.019585 
L 202.515419 207.559035 
L 203.184141 193.787561 
L 203.852862 197.294391 
L 204.521583 199.966765 
L 205.190304 198.52637 
L 205.859025 196.039292 
L 206.527746 209.055729 
L 207.196467 211.807022 
L 207.865188 195.316767 
L 208.533909 186.241338 
L 209.202631 184.729584 
L 209.871352 193.759485 
L 210.540073 194.73056 
L 211.208794 196.047493 
L 211.877515 198.821073 
L 212.546236 193.443378 
L 213.214957 196.88811 
L 213.883678 190.053839 
L 214.552399 184.669416 
L 215.221121 192.162551 
L 215.889842 205.733998 
L 216.558563 205.452957 
L 217.227284 197.606332 
L 217.896005 193.828171 
L 218.564726 192.534415 
L 219.233447 196.755633 
L 219.902168 197.838142 
L 220.570889 205.707921 
L 221.239611 206.981869 
L 221.908332 197.838142 
L 222.577053 200.611825 
L 223.245774 199.145762 
L 223.914495 199.79797 
L 224.583216 196.730926 
L 225.251937 207.978423 
L 225.920658 208.044943 
L 226.589379 195.70923 
L 227.258101 193.525421 
L 227.926822 200.081985 
L 228.595543 199.850095 
L 229.264264 198.913389 
L 229.932985 207.319134 
L 230.601706 206.971518 
L 231.270427 199.04791 
L 231.939148 198.913389 
L 233.276591 199.788371 
L 233.945312 198.999574 
L 234.614033 207.541536 
L 235.282754 207.450773 
L 235.951475 199.305809 
L 236.620196 197.796574 
L 237.957638 197.687052 
L 238.626359 199.306308 
L 239.295081 209.409967 
L 239.963802 208.949716 
L 240.632523 193.573832 
L 241.301244 195.680108 
L 241.969965 201.542809 
L 242.638686 191.59961 
L 243.307407 194.234538 
L 243.976128 200.194584 
L 244.644849 198.502191 
L 245.31357 186.043476 
L 245.982292 183.650282 
L 246.651013 183.452904 
L 247.319734 189.875073 
L 247.988455 198.217423 
L 248.657176 199.903175 
L 249.994618 183.668442 
L 250.663339 191.222958 
L 251.33206 195.641566 
L 252.000782 189.387253 
L 252.669503 190.6252 
L 253.338224 202.658353 
L 254.006945 205.010154 
L 254.675666 195.316129 
L 255.344387 189.627601 
L 256.013108 196.371406 
L 256.681829 189.398194 
L 257.35055 185.670872 
L 258.019272 197.047968 
L 258.687993 199.896467 
L 259.356714 189.801279 
L 260.025435 194.381114 
L 260.694156 196.413235 
L 261.362877 195.319942 
L 262.031598 174.690786 
L 262.700319 174.102987 
L 263.36904 175.04066 
L 264.037762 167.507876 
L 264.706483 170.365935 
L 265.375204 179.030439 
L 266.043925 180.900953 
L 267.381367 194.697589 
L 268.050088 185.519239 
L 268.718809 172.16136 
L 269.38753 172.406254 
L 270.056252 169.245778 
L 270.724973 175.982134 
L 271.393694 176.350461 
L 272.062415 168.171897 
L 273.399857 146.510871 
L 274.737299 148.041095 
L 275.40602 150.244106 
L 276.074742 149.187396 
L 276.743463 153.313019 
L 277.412184 154.824773 
L 278.080905 145.259068 
L 278.749626 157.035656 
L 279.418347 176.239265 
L 280.087068 182.321223 
L 280.755789 174.614215 
L 281.42451 183.90247 
L 282.093232 178.340219 
L 282.761953 158.112475 
L 283.430674 159.217672 
L 284.099395 160.021797 
L 284.768116 160.55201 
L 286.105558 184.573425 
L 287.443 190.386376 
L 288.111721 162.437857 
L 288.780443 145.3022 
L 289.449164 137.248653 
L 290.117885 140.776174 
L 290.786606 151.007436 
L 291.455327 150.778563 
L 292.124048 141.659943 
L 292.792769 134.486379 
L 293.46149 141.341416 
L 294.130211 144.734083 
L 294.798933 149.902334 
L 295.467654 170.788332 
L 296.136375 174.00234 
L 296.805096 157.418177 
L 297.473817 156.695207 
L 298.142538 156.797058 
L 298.811259 146.152254 
L 299.47998 124.745515 
L 300.148701 130.846917 
L 300.817423 145.338585 
L 301.486144 134.565706 
L 302.823586 119.575886 
L 303.492307 120.821306 
L 304.161028 117.644602 
L 304.829749 121.676397 
L 305.49847 115.775569 
L 306.167191 105.162009 
L 306.835913 110.971677 
L 307.504634 98.303431 
L 308.173355 102.334394 
L 310.179518 129.048942 
L 311.51696 111.983806 
L 312.185681 102.561397 
L 312.854403 97.516072 
L 313.523124 110.485389 
L 314.191845 127.518767 
L 314.860566 131.998065 
L 315.529287 132.579876 
L 316.198008 133.739634 
L 316.866729 137.777519 
L 317.53545 134.469248 
L 318.204171 132.658213 
L 318.872893 133.553355 
L 319.541614 135.671488 
L 320.210335 133.251659 
L 320.879056 155.37766 
L 321.547777 154.88506 
L 322.216498 148.766416 
L 322.885219 125.009505 
L 323.55394 127.70335 
L 324.222661 133.50696 
L 324.891383 125.159541 
L 325.560104 124.486587 
L 326.228825 124.505959 
L 326.897546 119.885875 
L 327.566267 119.392126 
L 328.234988 126.241801 
L 328.903709 128.62424 
L 329.57243 114.684589 
L 330.241151 118.592357 
L 330.909872 116.749523 
L 331.578594 105.080654 
L 332.247315 105.448063 
L 332.916036 119.369245 
L 333.584757 116.599764 
L 334.253478 105.488519 
L 334.922199 122.036155 
L 335.59092 123.129883 
L 336.259641 105.554413 
L 336.928362 97.283541 
L 337.597084 106.597604 
L 338.265805 112.054072 
L 338.934526 118.628012 
L 339.603247 128.565395 
L 340.271968 145.130178 
L 340.940689 154.187149 
L 341.60941 144.37324 
L 342.278131 127.787999 
L 342.946852 120.3697 
L 343.615574 110.921274 
L 344.284295 110.246902 
L 344.953016 112.583841 
L 345.621737 126.078792 
L 346.290458 129.71602 
L 346.959179 127.628308 
L 347.6279 113.11041 
L 348.296621 110.922985 
L 348.965342 133.354357 
L 349.634064 149.582738 
L 350.302785 136.748925 
L 350.971506 129.396623 
L 351.640227 130.111767 
L 352.308948 117.277304 
L 352.977669 93.458593 
L 353.64639 83.325697 
L 354.315111 75.58366 
L 354.983832 76.326746 
L 355.652554 80.985607 
L 356.321275 90.413828 
L 356.989996 92.648234 
L 357.658717 99.73288 
L 358.327438 130.03842 
L 358.996159 143.372152 
L 360.333601 149.968846 
L 361.002322 163.843847 
L 361.671044 171.080557 
L 362.339765 154.896765 
L 363.008486 175.79477 
L 363.677207 180.592231 
L 364.345928 175.236521 
L 365.014649 154.152745 
L 365.68337 145.419004 
L 366.352091 147.227378 
L 367.020812 135.043876 
L 367.689534 138.908408 
L 368.358255 147.715052 
L 369.026976 143.973818 
L 369.695697 120.451006 
L 370.364418 129.879426 
L 371.033139 130.389363 
L 371.70186 119.033524 
L 372.370581 119.033524 
L 373.039302 134.881626 
L 373.708023 156.085605 
L 374.376745 153.393803 
L 375.045466 156.137576 
L 375.714187 147.616107 
L 376.382908 134.719639 
L 377.051629 133.875462 
L 377.72035 124.054804 
L 378.389071 117.744505 
L 379.057792 118.345752 
L 379.726513 120.132591 
L 380.395235 145.016866 
L 381.063956 132.553218 
L 381.732677 140.115574 
L 382.401398 151.072395 
L 383.070119 155.284853 
L 383.73884 164.056974 
L 384.407561 159.668193 
L 385.076282 164.866826 
L 385.745003 181.436194 
L 386.413725 180.010087 
L 387.082446 186.597674 
L 387.751167 179.395313 
L 388.419888 151.262737 
L 389.088609 152.854847 
L 389.75733 150.320867 
L 390.426051 137.532054 
L 391.094772 115.973094 
L 391.763493 119.384262 
L 392.432215 128.789166 
L 393.100936 150.419455 
L 393.769657 158.566537 
L 394.438378 170.542868 
L 395.107099 128.150759 
L 395.77582 128.865927 
L 396.444541 120.852321 
L 397.781983 137.761315 
L 398.450705 152.042263 
L 399.119426 159.223976 
L 399.788147 150.745062 
L 401.125589 162.50326 
L 401.79431 153.544742 
L 402.463031 151.052516 
L 403.131752 160.641458 
L 403.800473 161.860283 
L 404.469195 147.684235 
L 405.137916 151.575529 
L 405.806637 172.121253 
L 406.475358 169.441536 
L 407.144079 145.927698 
L 407.8128 171.568041 
L 408.481521 163.453613 
L 409.150242 152.105076 
L 409.818963 168.956056 
L 410.487685 158.144353 
L 411.156406 143.986062 
L 411.825127 144.543868 
L 412.493848 176.54824 
L 413.162569 216.32506 
L 414.500011 183.876703 
L 415.168732 173.16773 
L 415.837453 174.72995 
L 416.506174 169.333009 
L 417.174896 179.508221 
L 417.843617 186.459213 
L 418.512338 169.593212 
L 419.181059 165.645488 
L 419.84978 165.699772 
L 420.518501 167.478129 
L 421.187222 188.125272 
L 421.855943 195.787832 
L 422.524664 184.303357 
L 423.193386 186.933538 
L 423.862107 170.612627 
L 424.530828 171.730567 
L 425.199549 166.333626 
L 425.86827 170.388586 
L 426.536991 188.100217 
L 427.205712 195.778934 
L 427.874433 185.170447 
L 428.543154 191.625975 
L 429.211876 205.226964 
L 429.880597 207.752216 
L 430.549318 202.355278 
L 431.218039 215.763078 
L 431.88676 212.256981 
L 432.555481 198.910554 
L 433.224202 202.839365 
L 435.230366 202.839365 
L 435.899087 220.700044 
L 436.567808 215.184522 
L 437.236529 202.839365 
L 437.90525 202.179791 
L 438.573971 202.753496 
L 439.911413 202.839365 
L 440.580134 210.104729 
L 441.248856 218.747461 
L 441.917577 204.624469 
L 442.586298 200.43117 
L 443.255019 201.376422 
L 444.592461 195.5823 
L 445.261182 207.814325 
L 445.929903 213.316162 
L 446.598624 199.908418 
L 447.267346 199.908418 
L 447.936067 194.637048 
L 448.604788 188.181488 
L 449.273509 194.637048 
L 449.94223 207.814325 
L 450.610951 207.814325 
L 451.279672 196.358785 
L 451.948393 199.803518 
L 452.617114 199.908418 
L 453.285836 197.316329 
L 453.954557 195.5823 
L 454.623278 205.222235 
L 455.291999 207.814325 
L 455.96072 199.803518 
L 456.629441 199.803518 
L 457.298162 197.645967 
L 457.966883 199.908418 
L 458.635604 199.908418 
L 459.304326 213.402031 
L 459.973047 216.09453 
L 460.641768 190.636015 
L 461.310489 189.006895 
L 461.97921 196.549554 
L 462.647931 199.908418 
L 463.316652 199.908418 
L 463.985373 207.919225 
L 464.654094 213.316162 
L 465.322815 199.908418 
L 466.660258 199.908418 
L 467.328979 208.039641 
L 467.9977 205.200455 
L 468.666421 216.484917 
L 469.335142 208.371956 
L 470.003863 193.503399 
L 470.672584 193.589268 
L 471.341305 194.827817 
L 472.678748 196.549554 
L 473.347469 210.095407 
L 474.01619 207.588454 
L 474.684911 189.006895 
L 475.353632 196.549554 
L 476.022353 199.994287 
L 477.359795 199.994287 
L 478.028517 213.533574 
L 478.697238 206.635864 
L 479.365959 194.403848 
L 480.03468 187.310304 
L 480.703401 186.890766 
L 481.372122 189.074567 
L 482.040843 189.778932 
L 482.709564 201.306615 
L 483.378285 197.085398 
L 484.047007 187.636434 
L 484.715728 188.439937 
L 485.384449 191.62453 
L 486.05317 187.862894 
L 486.721891 186.218975 
L 487.390612 195.804342 
L 488.059333 196.450784 
L 488.728054 192.687069 
L 489.396775 192.6012 
L 490.065497 191.62453 
L 490.734218 192.6012 
L 491.402939 194.89549 
L 492.07166 201.667747 
L 492.740381 201.667747 
L 493.409102 194.89549 
L 494.077823 196.023805 
L 494.746544 196.854213 
L 495.415265 200.298945 
L 496.083987 200.37771 
L 496.752708 206.692005 
L 497.421429 204.167299 
L 498.09015 193.972683 
L 498.758871 196.932977 
L 499.427592 198.59533 
L 500.096313 194.632467 
L 500.765034 188.669811 
L 501.433755 196.272734 
L 502.102477 190.081409 
L 502.771198 177.476725 
L 503.439919 177.476725 
L 504.10864 182.070618 
L 504.777361 188.283751 
L 505.446082 191.749503 
L 506.114803 203.085277 
L 506.783524 204.807013 
L 508.120966 186.450608 
L 508.789688 182.072416 
L 509.458409 168.303638 
L 510.12713 178.875318 
L 511.464572 210.267248 
L 512.133293 180.051287 
L 512.802014 179.249664 
L 513.470735 171.622617 
L 514.139456 168.677985 
L 514.808178 168.677985 
L 515.476899 170.454346 
L 516.14562 159.277104 
L 516.814341 156.411283 
L 517.483062 157.242384 
L 518.151783 150.832594 
L 518.820504 163.061089 
L 519.489225 163.061089 
L 520.157946 158.843436 
L 520.826668 163.860835 
L 521.495389 162.004926 
L 522.16411 175.663995 
L 522.832831 192.254083 
L 523.501552 177.2262 
L 524.170273 150.832594 
L 524.838994 155.314506 
L 525.507715 155.543378 
L 526.176436 150.832594 
L 526.845158 163.061089 
L 527.513879 167.881534 
L 528.1826 163.039444 
L 528.851321 163.039444 
L 529.520042 171.050271 
L 530.188763 195.058028 
L 530.857484 164.453465 
L 531.526205 152.224985 
L 532.194926 147.692963 
L 532.863648 148.964788 
L 533.532369 151.32795 
L 534.20109 156.706881 
L 534.869811 169.188556 
L 535.538532 148.696055 
L 536.207253 145.043256 
L 536.875974 135.163642 
L 538.213416 135.163642 
L 538.882138 152.189915 
L 539.550859 161.032263 
L 540.21958 143.175997 
L 540.888301 143.045174 
L 541.557022 143.770678 
L 542.225743 150.365575 
L 543.563185 168.507824 
L 544.231906 153.768276 
L 544.900628 131.010956 
L 545.569349 129.544837 
L 546.23807 133.77125 
L 546.906791 126.36807 
L 547.575512 127.394613 
L 548.244233 133.6871 
L 549.581675 118.666131 
L 550.250396 129.254593 
L 550.919117 137.390936 
L 551.587839 123.235298 
L 552.25656 113.093382 
L 552.925281 134.446684 
L 553.594002 131.823192 
L 554.262723 118.612125 
L 554.931444 118.77873 
L 555.600165 121.18816 
L 556.268886 120.475978 
L 556.937607 116.138939 
L 557.606329 120.702419 
L 558.27505 133.984132 
L 558.943771 149.902611 
L 559.612492 145.656303 
L 560.281213 147.408279 
L 560.949934 134.751493 
L 561.618655 124.685585 
L 562.287376 128.290468 
L 562.956097 128.290468 
L 563.624819 104.833788 
L 564.29354 102.403869 
L 564.962261 96.422004 
L 565.630982 110.910566 
L 566.299703 137.417682 
L 566.968424 111.434775 
L 567.637145 104.260206 
L 569.643309 147.464566 
L 570.980751 185.120071 
L 571.649472 177.338727 
L 572.318193 179.791963 
L 573.655635 147.30337 
L 574.324356 126.165532 
L 574.993077 117.409204 
L 575.661799 112.893544 
L 576.33052 126.423122 
L 576.999241 130.620255 
L 577.667962 117.989296 
L 578.336683 111.432431 
L 579.005404 114.285912 
L 579.674125 120.384779 
L 581.011567 126.675596 
L 581.680289 127.003246 
L 582.34901 133.281177 
L 583.017731 134.673568 
L 583.686452 125.004911 
L 584.355173 120.384779 
L 585.023894 114.285912 
L 585.692615 138.457982 
L 586.361336 142.684395 
L 587.698779 118.992388 
L 588.3675 118.412295 
L 589.036221 126.236012 
L 589.704942 129.258514 
L 590.373663 149.713086 
L 591.042384 150.58431 
L 591.711105 123.612536 
L 592.379826 129.054764 
L 593.048547 139.079512 
L 593.717268 143.094635 
L 594.38599 143.689015 
L 595.054711 138.72666 
L 595.723432 153.904777 
L 596.392153 130.447139 
L 597.060874 143.689015 
L 597.729595 152.531362 
L 598.398316 143.535953 
L 599.067037 127.628403 
L 599.735758 127.815513 
L 601.073201 149.002432 
L 601.741922 143.689015 
L 602.410643 152.531362 
L 603.079364 157.912543 
L 603.748085 153.514155 
L 604.416806 159.551199 
L 605.085527 163.469041 
L 605.754248 144.077443 
L 606.42297 142.685052 
L 607.091691 146.332426 
L 607.760412 144.94005 
L 608.429133 130.037556 
L 609.097854 134.355731 
L 609.766575 131.284972 
L 610.435296 119.162208 
L 611.104017 119.162208 
L 611.772738 123.27413 
L 612.44146 118.902005 
L 613.110181 118.321912 
L 613.778902 126.332739 
L 614.447623 119.3527 
L 615.116344 118.321912 
L 615.785065 123.522153 
L 617.122507 141.611876 
L 617.791228 133.190794 
L 618.45995 150.217083 
L 619.128671 155.5305 
L 619.797392 147.519658 
L 620.466113 147.74853 
L 621.134834 150.151553 
L 621.803555 151.048588 
L 622.472276 147.519658 
L 623.140997 150.217083 
L 623.809718 164.976834 
L 624.47844 151.048588 
L 625.815882 161.863047 
L 627.153324 161.863047 
L 627.822045 171.287894 
L 628.490766 171.287894 
L 629.159487 163.277084 
L 629.828208 161.863047 
L 630.49693 142.20624 
L 631.165651 133.190794 
L 631.834372 118.902005 
L 632.503093 126.332739 
L 633.171814 126.332739 
L 633.840535 128.964381 
L 635.177977 163.277084 
L 635.846698 161.863047 
L 636.515419 144.127062 
L 637.184141 148.109626 
L 637.852862 141.46184 
L 638.521583 147.779861 
L 639.190304 172.305456 
L 639.859025 187.112126 
L 640.527746 180.734126 
L 641.196467 164.35026 
L 641.865188 160.132606 
L 642.533909 160.132606 
L 643.202631 162.936239 
L 643.871352 162.936239 
L 644.540073 156.622858 
L 645.208794 161.95343 
L 645.877515 168.187911 
L 646.546236 176.198738 
L 647.214957 171.378277 
L 647.883678 161.95343 
L 648.552399 161.95343 
L 649.221121 163.367467 
L 649.889842 168.187911 
L 650.558563 168.187911 
L 651.227284 171.378277 
L 651.896005 176.198738 
L 652.564726 178.759591 
L 653.902168 178.759591 
L 654.570889 180.564305 
L 655.239611 180.564305 
L 655.908332 194.766382 
L 656.577053 188.575057 
L 657.245774 187.163467 
L 657.914495 195.340756 
L 658.583216 200.177868 
L 659.251937 195.956651 
L 659.920658 187.163467 
L 660.589379 198.358866 
L 661.258101 201.629826 
L 661.926822 195.340756 
L 662.595543 195.340756 
L 663.264264 198.785489 
L 664.601706 198.785489 
L 665.270427 196.566693 
L 665.939148 199.751246 
L 667.945312 188.555839 
L 668.614033 199.169779 
L 669.282754 197.003255 
L 669.951475 188.495088 
L 670.620196 177.645413 
L 671.288917 169.580303 
L 671.957638 181.956705 
L 673.295081 188.147907 
L 674.632523 206.031125 
L 675.301244 206.031125 
L 675.969965 196.733136 
L 676.638686 195.011399 
L 677.307407 195.956651 
L 677.976128 193.772842 
L 678.644849 195.956651 
L 679.31357 208.188675 
L 679.982292 208.188675 
L 680.651013 193.772842 
L 681.319734 193.840514 
L 681.988455 198.853161 
L 683.325897 198.853161 
L 683.994618 206.863968 
L 684.663339 206.863968 
L 685.33206 193.686692 
L 686.000782 194.631944 
L 686.669503 198.853161 
L 688.006945 198.853161 
L 688.675666 206.863968 
L 689.344387 206.863968 
L 690.013108 198.853161 
L 692.019272 198.853161 
L 692.687993 193.686692 
L 693.356714 207.100954 
L 694.025435 207.100954 
L 694.694156 199.168912 
L 695.362877 199.168912 
L 696.031598 194.947695 
L 696.700319 192.714825 
L 697.36904 194.002443 
L 698.037762 202.958501 
L 698.706483 199.804829 
L 699.375204 194.002443 
L 700.043925 199.168912 
L 701.381367 199.168912 
L 702.050088 194.947695 
L 702.718809 202.958501 
L 703.38753 205.022168 
L 704.056252 199.168912 
L 706.731136 199.168912 
L 707.399857 207.179719 
L 708.068578 207.233725 
L 708.737299 199.222918 
L 709.40602 199.222918 
L 710.074742 195.054353 
L 710.743463 197.579059 
L 711.412184 199.275571 
L 712.080905 207.286377 
L 712.749626 207.286377 
L 713.418347 199.275571 
L 716.093232 199.275571 
L 716.761953 202.268717 
L 717.430674 203.045202 
L 718.099395 198.479127 
L 719.436837 198.479127 
L 720.105558 198.264828 
L 720.774279 198.264828 
L 721.443 206.275635 
L 722.111721 206.275635 
L 722.780443 198.264828 
L 724.117885 198.264828 
L 724.786606 197.233399 
L 725.455327 197.233399 
L 726.124048 205.244205 
L 726.792769 205.244205 
L 727.46149 197.233399 
L 729.467654 197.184798 
L 730.136375 197.184798 
L 730.805096 205.195604 
L 731.473817 202.603515 
L 732.142538 193.893954 
L 732.811259 197.338687 
L 733.47998 193.11747 
L 734.148701 192.172218 
L 734.817423 193.11747 
L 735.486144 201.128276 
L 736.154865 205.654877 
L 736.823586 197.64407 
L 738.161028 197.64407 
L 738.829749 192.477601 
L 739.49847 191.239052 
L 740.167191 197.217448 
L 740.835913 198.279987 
L 741.504634 191.239052 
L 742.173355 193.422853 
L 742.842076 192.477601 
L 744.179518 179.555329 
L 746.854403 162.35849 
L 748.191845 162.35849 
L 748.860566 171.126659 
L 749.529287 187.566116 
L 750.198008 185.761393 
L 750.866729 171.126659 
L 751.53545 162.35849 
L 752.204171 155.147394 
L 752.872893 155.147394 
L 753.541614 162.35849 
L 754.879056 188.740002 
L 755.547777 172.300554 
L 756.216498 172.767042 
L 756.885219 187.019604 
L 757.55394 181.146497 
L 758.222661 173.184315 
L 758.891383 180.728637 
L 759.560104 171.960469 
L 760.228825 178.727348 
L 760.897546 170.944887 
L 761.566267 166.124427 
L 762.903709 183.321269 
L 763.57243 199.323696 
L 764.241151 203.570789 
L 765.578594 190.917812 
L 766.247315 170.549838 
L 766.916036 171.996513 
L 768.253478 198.124513 
L 768.922199 194.814191 
L 770.259641 182.425149 
L 770.928362 180.714334 
L 771.597084 188.139738 
L 772.934526 199.194359 
L 773.603247 201.252129 
L 774.271968 183.457568 
L 774.940689 183.457568 
L 776.278131 163.454302 
L 776.946852 163.454302 
L 777.615574 162.043061 
L 778.284295 168.155186 
L 778.953016 171.081159 
L 779.621737 175.028883 
L 780.290458 174.102995 
L 780.959179 164.868323 
L 781.6279 159.049617 
L 782.296621 158.51413 
L 782.965342 158.51413 
L 783.634064 149.110912 
L 784.302785 163.454302 
L 784.971506 152.639843 
L 785.640227 149.110912 
L 786.977669 120.943971 
L 787.64639 127.923994 
L 788.315111 124.605165 
L 788.983832 130.759385 
L 789.652554 143.203115 
L 790.321275 143.797495 
L 790.989996 143.203115 
L 791.658717 151.808322 
L 792.327438 142.792875 
L 792.996159 138.274832 
L 792.996159 138.274832 
" clip-path="url(#p54827a751f)" style="fill: none; stroke: #dd8452; stroke-width: 1.2; stroke-linecap: round"/>
   </g>
   <g id="patch_4">
    <path d="M 47.30525 248.937 
L 47.30525 27.177 
" style="fill: none; stroke: #cccccc; stroke-linejoin: miter; stroke-linecap: square"/>
   </g>
   <g id="patch_5">
    <path d="M 828.50525 248.937 
L 828.50525 27.177 
" style="fill: none; stroke: #cccccc; stroke-linejoin: miter; stroke-linecap: square"/>
   </g>
   <g id="patch_6">
    <path d="M 47.30525 248.937 
L 828.50525 248.937 
" style="fill: none; stroke: #cccccc; stroke-linejoin: miter; stroke-linecap: square"/>
   </g>
   <g id="patch_7">
    <path d="M 47.30525 27.177 
L 828.50525 27.177 
" style="fill: none; stroke: #cccccc; stroke-linejoin: miter; stroke-linecap: square"/>
   </g>
   <g id="text_17">
    <!-- Mulitple linear regression model of natural gas consumption -->
    <g style="fill: #262626" transform="translate(184.45625 21.177) scale(0.192 -0.192)">
     <defs>
      <path id="ArialMT-6c" d="M 409 0 
L 409 4581 
L 972 4581 
L 972 0 
L 409 0 
z
" transform="scale(0.015625)"/>
      <path id="ArialMT-61" d="M 2588 409 
Q 2275 144 1986 34 
Q 1697 -75 1366 -75 
Q 819 -75 525 192 
Q 231 459 231 875 
Q 231 1119 342 1320 
Q 453 1522 633 1644 
Q 813 1766 1038 1828 
Q 1203 1872 1538 1913 
Q 2219 1994 2541 2106 
Q 2544 2222 2544 2253 
Q 2544 2597 2384 2738 
Q 2169 2928 1744 2928 
Q 1347 2928 1158 2789 
Q 969 2650 878 2297 
L 328 2372 
Q 403 2725 575 2942 
Q 747 3159 1072 3276 
Q 1397 3394 1825 3394 
Q 2250 3394 2515 3294 
Q 2781 3194 2906 3042 
Q 3031 2891 3081 2659 
Q 3109 2516 3109 2141 
L 3109 1391 
Q 3109 606 3145 398 
Q 3181 191 3288 0 
L 2700 0 
Q 2613 175 2588 409 
z
M 2541 1666 
Q 2234 1541 1622 1453 
Q 1275 1403 1131 1340 
Q 988 1278 909 1158 
Q 831 1038 831 891 
Q 831 666 1001 516 
Q 1172 366 1500 366 
Q 1825 366 2078 508 
Q 2331 650 2450 897 
Q 2541 1088 2541 1459 
L 2541 1666 
z
" transform="scale(0.015625)"/>
      <path id="ArialMT-72" d="M 416 0 
L 416 3319 
L 922 3319 
L 922 2816 
Q 1116 3169 1280 3281 
Q 1444 3394 1641 3394 
Q 1925 3394 2219 3213 
L 2025 2691 
Q 1819 2813 1613 2813 
Q 1428 2813 1281 2702 
Q 1134 2591 1072 2394 
Q 978 2094 978 1738 
L 978 0 
L 416 0 
z
" transform="scale(0.015625)"/>
      <path id="ArialMT-67" d="M 319 -275 
L 866 -356 
Q 900 -609 1056 -725 
Q 1266 -881 1628 -881 
Q 2019 -881 2231 -725 
Q 2444 -569 2519 -288 
Q 2563 -116 2559 434 
Q 2191 0 1641 0 
Q 956 0 581 494 
Q 206 988 206 1678 
Q 206 2153 378 2554 
Q 550 2956 876 3175 
Q 1203 3394 1644 3394 
Q 2231 3394 2613 2919 
L 2613 3319 
L 3131 3319 
L 3131 450 
Q 3131 -325 2973 -648 
Q 2816 -972 2473 -1159 
Q 2131 -1347 1631 -1347 
Q 1038 -1347 672 -1080 
Q 306 -813 319 -275 
z
M 784 1719 
Q 784 1066 1043 766 
Q 1303 466 1694 466 
Q 2081 466 2343 764 
Q 2606 1063 2606 1700 
Q 2606 2309 2336 2618 
Q 2066 2928 1684 2928 
Q 1309 2928 1046 2623 
Q 784 2319 784 1719 
z
" transform="scale(0.015625)"/>
      <path id="ArialMT-64" d="M 2575 0 
L 2575 419 
Q 2259 -75 1647 -75 
Q 1250 -75 917 144 
Q 584 363 401 755 
Q 219 1147 219 1656 
Q 219 2153 384 2558 
Q 550 2963 881 3178 
Q 1213 3394 1622 3394 
Q 1922 3394 2156 3267 
Q 2391 3141 2538 2938 
L 2538 4581 
L 3097 4581 
L 3097 0 
L 2575 0 
z
M 797 1656 
Q 797 1019 1065 703 
Q 1334 388 1700 388 
Q 2069 388 2326 689 
Q 2584 991 2584 1609 
Q 2584 2291 2321 2609 
Q 2059 2928 1675 2928 
Q 1300 2928 1048 2622 
Q 797 2316 797 1656 
z
" transform="scale(0.015625)"/>
      <path id="ArialMT-66" d="M 556 0 
L 556 2881 
L 59 2881 
L 59 3319 
L 556 3319 
L 556 3672 
Q 556 4006 616 4169 
Q 697 4388 901 4523 
Q 1106 4659 1475 4659 
Q 1713 4659 2000 4603 
L 1916 4113 
Q 1741 4144 1584 4144 
Q 1328 4144 1222 4034 
Q 1116 3925 1116 3625 
L 1116 3319 
L 1763 3319 
L 1763 2881 
L 1116 2881 
L 1116 0 
L 556 0 
z
" transform="scale(0.015625)"/>
      <path id="ArialMT-63" d="M 2588 1216 
L 3141 1144 
Q 3050 572 2676 248 
Q 2303 -75 1759 -75 
Q 1078 -75 664 370 
Q 250 816 250 1647 
Q 250 2184 428 2587 
Q 606 2991 970 3192 
Q 1334 3394 1763 3394 
Q 2303 3394 2647 3120 
Q 2991 2847 3088 2344 
L 2541 2259 
Q 2463 2594 2264 2762 
Q 2066 2931 1784 2931 
Q 1359 2931 1093 2626 
Q 828 2322 828 1663 
Q 828 994 1084 691 
Q 1341 388 1753 388 
Q 2084 388 2306 591 
Q 2528 794 2588 1216 
z
" transform="scale(0.015625)"/>
     </defs>
     <use xlink:href="#ArialMT-4d"/>
     <use xlink:href="#ArialMT-75" x="83.300781"/>
     <use xlink:href="#ArialMT-6c" x="138.916016"/>
     <use xlink:href="#ArialMT-69" x="161.132812"/>
     <use xlink:href="#ArialMT-74" x="183.349609"/>
     <use xlink:href="#ArialMT-70" x="211.132812"/>
     <use xlink:href="#ArialMT-6c" x="266.748047"/>
     <use xlink:href="#ArialMT-65" x="288.964844"/>
     <use xlink:href="#ArialMT-20" x="344.580078"/>
     <use xlink:href="#ArialMT-6c" x="372.363281"/>
     <use xlink:href="#ArialMT-69" x="394.580078"/>
     <use xlink:href="#ArialMT-6e" x="416.796875"/>
     <use xlink:href="#ArialMT-65" x="472.412109"/>
     <use xlink:href="#ArialMT-61" x="528.027344"/>
     <use xlink:href="#ArialMT-72" x="583.642578"/>
     <use xlink:href="#ArialMT-20" x="616.943359"/>
     <use xlink:href="#ArialMT-72" x="644.726562"/>
     <use xlink:href="#ArialMT-65" x="678.027344"/>
     <use xlink:href="#ArialMT-67" x="733.642578"/>
     <use xlink:href="#ArialMT-72" x="789.257812"/>
     <use xlink:href="#ArialMT-65" x="822.558594"/>
     <use xlink:href="#ArialMT-73" x="878.173828"/>
     <use xlink:href="#ArialMT-73" x="928.173828"/>
     <use xlink:href="#ArialMT-69" x="978.173828"/>
     <use xlink:href="#ArialMT-6f" x="1000.390625"/>
     <use xlink:href="#ArialMT-6e" x="1056.005859"/>
     <use xlink:href="#ArialMT-20" x="1111.621094"/>
     <use xlink:href="#ArialMT-6d" x="1139.404297"/>
     <use xlink:href="#ArialMT-6f" x="1222.705078"/>
     <use xlink:href="#ArialMT-64" x="1278.320312"/>
     <use xlink:href="#ArialMT-65" x="1333.935547"/>
     <use xlink:href="#ArialMT-6c" x="1389.550781"/>
     <use xlink:href="#ArialMT-20" x="1411.767578"/>
     <use xlink:href="#ArialMT-6f" x="1439.550781"/>
     <use xlink:href="#ArialMT-66" x="1495.166016"/>
     <use xlink:href="#ArialMT-20" x="1522.949219"/>
     <use xlink:href="#ArialMT-6e" x="1550.732422"/>
     <use xlink:href="#ArialMT-61" x="1606.347656"/>
     <use xlink:href="#ArialMT-74" x="1661.962891"/>
     <use xlink:href="#ArialMT-75" x="1689.746094"/>
     <use xlink:href="#ArialMT-72" x="1745.361328"/>
     <use xlink:href="#ArialMT-61" x="1778.662109"/>
     <use xlink:href="#ArialMT-6c" x="1834.277344"/>
     <use xlink:href="#ArialMT-20" x="1856.494141"/>
     <use xlink:href="#ArialMT-67" x="1884.277344"/>
     <use xlink:href="#ArialMT-61" x="1939.892578"/>
     <use xlink:href="#ArialMT-73" x="1995.507812"/>
     <use xlink:href="#ArialMT-20" x="2045.507812"/>
     <use xlink:href="#ArialMT-63" x="2073.291016"/>
     <use xlink:href="#ArialMT-6f" x="2123.291016"/>
     <use xlink:href="#ArialMT-6e" x="2178.90625"/>
     <use xlink:href="#ArialMT-73" x="2234.521484"/>
     <use xlink:href="#ArialMT-75" x="2284.521484"/>
     <use xlink:href="#ArialMT-6d" x="2340.136719"/>
     <use xlink:href="#ArialMT-70" x="2423.4375"/>
     <use xlink:href="#ArialMT-74" x="2479.052734"/>
     <use xlink:href="#ArialMT-69" x="2506.835938"/>
     <use xlink:href="#ArialMT-6f" x="2529.052734"/>
     <use xlink:href="#ArialMT-6e" x="2584.667969"/>
    </g>
   </g>
   <g id="legend_1">
    <g id="patch_8">
     <path d="M 623.6 116.365 
L 816.18525 116.365 
Q 819.70525 116.365 819.70525 112.845 
L 819.70525 39.497 
Q 819.70525 35.977 816.18525 35.977 
L 623.6 35.977 
Q 620.08 35.977 620.08 39.497 
L 620.08 112.845 
Q 620.08 116.365 623.6 116.365 
z
" style="fill: #ffffff; opacity: 0.8; stroke: #cccccc; stroke-width: 0.8; stroke-linejoin: miter"/>
    </g>
    <g id="line2d_18">
     <path d="M 627.12 49.66925 
L 644.72 49.66925 
L 662.32 49.66925 
" style="fill: none; stroke: #ff0000; stroke-width: 0.8; stroke-linecap: round"/>
    </g>
    <g id="text_18">
     <!-- Training/Test split -->
     <g style="fill: #262626" transform="translate(676.4 55.82925) scale(0.176 -0.176)">
      <defs>
       <path id="ArialMT-54" d="M 1659 0 
L 1659 4041 
L 150 4041 
L 150 4581 
L 3781 4581 
L 3781 4041 
L 2266 4041 
L 2266 0 
L 1659 0 
z
" transform="scale(0.015625)"/>
       <path id="ArialMT-2f" d="M 0 -78 
L 1328 4659 
L 1778 4659 
L 453 -78 
L 0 -78 
z
" transform="scale(0.015625)"/>
      </defs>
      <use xlink:href="#ArialMT-54"/>
      <use xlink:href="#ArialMT-72" x="57.333984"/>
      <use xlink:href="#ArialMT-61" x="90.634766"/>
      <use xlink:href="#ArialMT-69" x="146.25"/>
      <use xlink:href="#ArialMT-6e" x="168.466797"/>
      <use xlink:href="#ArialMT-69" x="224.082031"/>
      <use xlink:href="#ArialMT-6e" x="246.298828"/>
      <use xlink:href="#ArialMT-67" x="301.914062"/>
      <use xlink:href="#ArialMT-2f" x="357.529297"/>
      <use xlink:href="#ArialMT-54" x="385.3125"/>
      <use xlink:href="#ArialMT-65" x="435.271484"/>
      <use xlink:href="#ArialMT-73" x="490.886719"/>
      <use xlink:href="#ArialMT-74" x="540.886719"/>
      <use xlink:href="#ArialMT-20" x="568.669922"/>
      <use xlink:href="#ArialMT-73" x="596.453125"/>
      <use xlink:href="#ArialMT-70" x="646.453125"/>
      <use xlink:href="#ArialMT-6c" x="702.068359"/>
      <use xlink:href="#ArialMT-69" x="724.285156"/>
      <use xlink:href="#ArialMT-74" x="746.501953"/>
     </g>
    </g>
    <g id="line2d_19">
     <path d="M 627.12 74.77125 
L 644.72 74.77125 
L 662.32 74.77125 
" style="fill: none; stroke: #4c72b0; stroke-width: 1.2; stroke-linecap: round"/>
    </g>
    <g id="text_19">
     <!-- Actual -->
     <g style="fill: #262626" transform="translate(676.4 80.93125) scale(0.176 -0.176)">
      <defs>
       <path id="ArialMT-41" d="M -9 0 
L 1750 4581 
L 2403 4581 
L 4278 0 
L 3588 0 
L 3053 1388 
L 1138 1388 
L 634 0 
L -9 0 
z
M 1313 1881 
L 2866 1881 
L 2388 3150 
Q 2169 3728 2063 4100 
Q 1975 3659 1816 3225 
L 1313 1881 
z
" transform="scale(0.015625)"/>
      </defs>
      <use xlink:href="#ArialMT-41"/>
      <use xlink:href="#ArialMT-63" x="66.699219"/>
      <use xlink:href="#ArialMT-74" x="116.699219"/>
      <use xlink:href="#ArialMT-75" x="144.482422"/>
      <use xlink:href="#ArialMT-61" x="200.097656"/>
      <use xlink:href="#ArialMT-6c" x="255.712891"/>
     </g>
    </g>
    <g id="line2d_20">
     <path d="M 627.12 99.667 
L 644.72 99.667 
L 662.32 99.667 
" style="fill: none; stroke: #dd8452; stroke-width: 1.2; stroke-linecap: round"/>
    </g>
    <g id="text_20">
     <!-- Predicted -->
     <g style="fill: #262626" transform="translate(676.4 105.827) scale(0.176 -0.176)">
      <defs>
       <path id="ArialMT-50" d="M 494 0 
L 494 4581 
L 2222 4581 
Q 2678 4581 2919 4538 
Q 3256 4481 3484 4323 
Q 3713 4166 3852 3881 
Q 3991 3597 3991 3256 
Q 3991 2672 3619 2267 
Q 3247 1863 2275 1863 
L 1100 1863 
L 1100 0 
L 494 0 
z
M 1100 2403 
L 2284 2403 
Q 2872 2403 3119 2622 
Q 3366 2841 3366 3238 
Q 3366 3525 3220 3729 
Q 3075 3934 2838 4000 
Q 2684 4041 2272 4041 
L 1100 4041 
L 1100 2403 
z
" transform="scale(0.015625)"/>
      </defs>
      <use xlink:href="#ArialMT-50"/>
      <use xlink:href="#ArialMT-72" x="66.699219"/>
      <use xlink:href="#ArialMT-65" x="100"/>
      <use xlink:href="#ArialMT-64" x="155.615234"/>
      <use xlink:href="#ArialMT-69" x="211.230469"/>
      <use xlink:href="#ArialMT-63" x="233.447266"/>
      <use xlink:href="#ArialMT-74" x="283.447266"/>
      <use xlink:href="#ArialMT-65" x="311.230469"/>
      <use xlink:href="#ArialMT-64" x="366.845703"/>
     </g>
    </g>
   </g>
  </g>
 </g>
 <defs>
  <clipPath id="p54827a751f">
   <rect x="47.30525" y="27.177" width="781.2" height="221.76"/>
  </clipPath>
 </defs>
</svg>
