<?xml version="1.0" encoding="utf-8" standalone="no"?>
<!DOCTYPE svg PUBLIC "-//W3C//DTD SVG 1.1//EN"
  "http://www.w3.org/Graphics/SVG/1.1/DTD/svg11.dtd">
<svg xmlns:xlink="http://www.w3.org/1999/xlink" width="813.68725pt" height="276.1535pt" viewBox="0 0 813.68725 276.1535" xmlns="http://www.w3.org/2000/svg" version="1.1">
 <metadata>
  <rdf:RDF xmlns:dc="http://purl.org/dc/elements/1.1/" xmlns:cc="http://creativecommons.org/ns#" xmlns:rdf="http://www.w3.org/1999/02/22-rdf-syntax-ns#">
   <cc:Work>
    <dc:type rdf:resource="http://purl.org/dc/dcmitype/StillImage"/>
    <dc:date>2023-05-13T16:52:44.573620</dc:date>
    <dc:format>image/svg+xml</dc:format>
    <dc:creator>
     <cc:Agent>
      <dc:title>Matplotlib v3.6.2, https://matplotlib.org/</dc:title>
     </cc:Agent>
    </dc:creator>
   </cc:Work>
  </rdf:RDF>
 </metadata>
 <defs>
  <style type="text/css">*{stroke-linejoin: round; stroke-linecap: butt}</style>
 </defs>
 <g id="figure_1">
  <g id="patch_1">
   <path d="M 0 276.1535 
L 813.68725 276.1535 
L 813.68725 0 
L 0 0 
z
" style="fill: #ffffff"/>
  </g>
  <g id="axes_1">
   <g id="patch_2">
    <path d="M 25.28725 244.55775 
L 806.48725 244.55775 
L 806.48725 22.79775 
L 25.28725 22.79775 
z
" style="fill: #ffffff"/>
   </g>
   <g id="matplotlib.axis_1">
    <g id="xtick_1">
     <g id="line2d_1">
      <path d="M 60.796341 244.55775 
L 60.796341 22.79775 
" clip-path="url(#p06ade6b1f1)" style="fill: none; stroke: #cccccc; stroke-width: 0.8; stroke-linecap: round"/>
     </g>
     <g id="text_1">
      <!-- 0 -->
      <g style="fill: #262626" transform="translate(55.902716 265.4555) scale(0.176 -0.176)">
       <defs>
        <path id="ArialMT-30" d="M 266 2259 
Q 266 3072 433 3567 
Q 600 4063 929 4331 
Q 1259 4600 1759 4600 
Q 2128 4600 2406 4451 
Q 2684 4303 2865 4023 
Q 3047 3744 3150 3342 
Q 3253 2941 3253 2259 
Q 3253 1453 3087 958 
Q 2922 463 2592 192 
Q 2263 -78 1759 -78 
Q 1097 -78 719 397 
Q 266 969 266 2259 
z
M 844 2259 
Q 844 1131 1108 757 
Q 1372 384 1759 384 
Q 2147 384 2411 759 
Q 2675 1134 2675 2259 
Q 2675 3391 2411 3762 
Q 2147 4134 1753 4134 
Q 1366 4134 1134 3806 
Q 844 3388 844 2259 
z
" transform="scale(0.015625)"/>
       </defs>
       <use xlink:href="#ArialMT-30"/>
      </g>
     </g>
    </g>
    <g id="xtick_2">
     <g id="line2d_2">
      <path d="M 206.027797 244.55775 
L 206.027797 22.79775 
" clip-path="url(#p06ade6b1f1)" style="fill: none; stroke: #cccccc; stroke-width: 0.8; stroke-linecap: round"/>
     </g>
     <g id="text_2">
      <!-- 100 -->
      <g style="fill: #262626" transform="translate(191.346922 265.4555) scale(0.176 -0.176)">
       <defs>
        <path id="ArialMT-31" d="M 2384 0 
L 1822 0 
L 1822 3584 
Q 1619 3391 1289 3197 
Q 959 3003 697 2906 
L 697 3450 
Q 1169 3672 1522 3987 
Q 1875 4303 2022 4600 
L 2384 4600 
L 2384 0 
z
" transform="scale(0.015625)"/>
       </defs>
       <use xlink:href="#ArialMT-31"/>
       <use xlink:href="#ArialMT-30" x="55.615234"/>
       <use xlink:href="#ArialMT-30" x="111.230469"/>
      </g>
     </g>
    </g>
    <g id="xtick_3">
     <g id="line2d_3">
      <path d="M 351.259252 244.55775 
L 351.259252 22.79775 
" clip-path="url(#p06ade6b1f1)" style="fill: none; stroke: #cccccc; stroke-width: 0.8; stroke-linecap: round"/>
     </g>
     <g id="text_3">
      <!-- 200 -->
      <g style="fill: #262626" transform="translate(336.578377 265.4555) scale(0.176 -0.176)">
       <defs>
        <path id="ArialMT-32" d="M 3222 541 
L 3222 0 
L 194 0 
Q 188 203 259 391 
Q 375 700 629 1000 
Q 884 1300 1366 1694 
Q 2113 2306 2375 2664 
Q 2638 3022 2638 3341 
Q 2638 3675 2398 3904 
Q 2159 4134 1775 4134 
Q 1369 4134 1125 3890 
Q 881 3647 878 3216 
L 300 3275 
Q 359 3922 746 4261 
Q 1134 4600 1788 4600 
Q 2447 4600 2831 4234 
Q 3216 3869 3216 3328 
Q 3216 3053 3103 2787 
Q 2991 2522 2730 2228 
Q 2469 1934 1863 1422 
Q 1356 997 1212 845 
Q 1069 694 975 541 
L 3222 541 
z
" transform="scale(0.015625)"/>
       </defs>
       <use xlink:href="#ArialMT-32"/>
       <use xlink:href="#ArialMT-30" x="55.615234"/>
       <use xlink:href="#ArialMT-30" x="111.230469"/>
      </g>
     </g>
    </g>
    <g id="xtick_4">
     <g id="line2d_4">
      <path d="M 496.490708 244.55775 
L 496.490708 22.79775 
" clip-path="url(#p06ade6b1f1)" style="fill: none; stroke: #cccccc; stroke-width: 0.8; stroke-linecap: round"/>
     </g>
     <g id="text_4">
      <!-- 300 -->
      <g style="fill: #262626" transform="translate(481.809833 265.4555) scale(0.176 -0.176)">
       <defs>
        <path id="ArialMT-33" d="M 269 1209 
L 831 1284 
Q 928 806 1161 595 
Q 1394 384 1728 384 
Q 2125 384 2398 659 
Q 2672 934 2672 1341 
Q 2672 1728 2419 1979 
Q 2166 2231 1775 2231 
Q 1616 2231 1378 2169 
L 1441 2663 
Q 1497 2656 1531 2656 
Q 1891 2656 2178 2843 
Q 2466 3031 2466 3422 
Q 2466 3731 2256 3934 
Q 2047 4138 1716 4138 
Q 1388 4138 1169 3931 
Q 950 3725 888 3313 
L 325 3413 
Q 428 3978 793 4289 
Q 1159 4600 1703 4600 
Q 2078 4600 2393 4439 
Q 2709 4278 2876 4000 
Q 3044 3722 3044 3409 
Q 3044 3113 2884 2869 
Q 2725 2625 2413 2481 
Q 2819 2388 3044 2092 
Q 3269 1797 3269 1353 
Q 3269 753 2831 336 
Q 2394 -81 1725 -81 
Q 1122 -81 723 278 
Q 325 638 269 1209 
z
" transform="scale(0.015625)"/>
       </defs>
       <use xlink:href="#ArialMT-33"/>
       <use xlink:href="#ArialMT-30" x="55.615234"/>
       <use xlink:href="#ArialMT-30" x="111.230469"/>
      </g>
     </g>
    </g>
    <g id="xtick_5">
     <g id="line2d_5">
      <path d="M 641.722164 244.55775 
L 641.722164 22.79775 
" clip-path="url(#p06ade6b1f1)" style="fill: none; stroke: #cccccc; stroke-width: 0.8; stroke-linecap: round"/>
     </g>
     <g id="text_5">
      <!-- 400 -->
      <g style="fill: #262626" transform="translate(627.041289 265.4555) scale(0.176 -0.176)">
       <defs>
        <path id="ArialMT-34" d="M 2069 0 
L 2069 1097 
L 81 1097 
L 81 1613 
L 2172 4581 
L 2631 4581 
L 2631 1613 
L 3250 1613 
L 3250 1097 
L 2631 1097 
L 2631 0 
L 2069 0 
z
M 2069 1613 
L 2069 3678 
L 634 1613 
L 2069 1613 
z
" transform="scale(0.015625)"/>
       </defs>
       <use xlink:href="#ArialMT-34"/>
       <use xlink:href="#ArialMT-30" x="55.615234"/>
       <use xlink:href="#ArialMT-30" x="111.230469"/>
      </g>
     </g>
    </g>
    <g id="xtick_6">
     <g id="line2d_6">
      <path d="M 786.953619 244.55775 
L 786.953619 22.79775 
" clip-path="url(#p06ade6b1f1)" style="fill: none; stroke: #cccccc; stroke-width: 0.8; stroke-linecap: round"/>
     </g>
     <g id="text_6">
      <!-- 500 -->
      <g style="fill: #262626" transform="translate(772.272744 265.4555) scale(0.176 -0.176)">
       <defs>
        <path id="ArialMT-35" d="M 266 1200 
L 856 1250 
Q 922 819 1161 601 
Q 1400 384 1738 384 
Q 2144 384 2425 690 
Q 2706 997 2706 1503 
Q 2706 1984 2436 2262 
Q 2166 2541 1728 2541 
Q 1456 2541 1237 2417 
Q 1019 2294 894 2097 
L 366 2166 
L 809 4519 
L 3088 4519 
L 3088 3981 
L 1259 3981 
L 1013 2750 
Q 1425 3038 1878 3038 
Q 2478 3038 2890 2622 
Q 3303 2206 3303 1553 
Q 3303 931 2941 478 
Q 2500 -78 1738 -78 
Q 1113 -78 717 272 
Q 322 622 266 1200 
z
" transform="scale(0.015625)"/>
       </defs>
       <use xlink:href="#ArialMT-35"/>
       <use xlink:href="#ArialMT-30" x="55.615234"/>
       <use xlink:href="#ArialMT-30" x="111.230469"/>
      </g>
     </g>
    </g>
   </g>
   <g id="matplotlib.axis_2">
    <g id="ytick_1">
     <g id="line2d_7">
      <path d="M 25.28725 194.966218 
L 806.48725 194.966218 
" clip-path="url(#p06ade6b1f1)" style="fill: none; stroke: #cccccc; stroke-width: 0.8; stroke-linecap: round"/>
     </g>
     <g id="text_7">
      <!-- 2 -->
      <g style="fill: #262626" transform="translate(7.2 201.265093) scale(0.176 -0.176)">
       <use xlink:href="#ArialMT-32"/>
      </g>
     </g>
    </g>
    <g id="ytick_2">
     <g id="line2d_8">
      <path d="M 25.28725 122.720325 
L 806.48725 122.720325 
" clip-path="url(#p06ade6b1f1)" style="fill: none; stroke: #cccccc; stroke-width: 0.8; stroke-linecap: round"/>
     </g>
     <g id="text_8">
      <!-- 4 -->
      <g style="fill: #262626" transform="translate(7.2 129.0192) scale(0.176 -0.176)">
       <use xlink:href="#ArialMT-34"/>
      </g>
     </g>
    </g>
    <g id="ytick_3">
     <g id="line2d_9">
      <path d="M 25.28725 50.474432 
L 806.48725 50.474432 
" clip-path="url(#p06ade6b1f1)" style="fill: none; stroke: #cccccc; stroke-width: 0.8; stroke-linecap: round"/>
     </g>
     <g id="text_9">
      <!-- 6 -->
      <g style="fill: #262626" transform="translate(7.2 56.773307) scale(0.176 -0.176)">
       <defs>
        <path id="ArialMT-36" d="M 3184 3459 
L 2625 3416 
Q 2550 3747 2413 3897 
Q 2184 4138 1850 4138 
Q 1581 4138 1378 3988 
Q 1113 3794 959 3422 
Q 806 3050 800 2363 
Q 1003 2672 1297 2822 
Q 1591 2972 1913 2972 
Q 2475 2972 2870 2558 
Q 3266 2144 3266 1488 
Q 3266 1056 3080 686 
Q 2894 316 2569 119 
Q 2244 -78 1831 -78 
Q 1128 -78 684 439 
Q 241 956 241 2144 
Q 241 3472 731 4075 
Q 1159 4600 1884 4600 
Q 2425 4600 2770 4297 
Q 3116 3994 3184 3459 
z
M 888 1484 
Q 888 1194 1011 928 
Q 1134 663 1356 523 
Q 1578 384 1822 384 
Q 2178 384 2434 671 
Q 2691 959 2691 1453 
Q 2691 1928 2437 2201 
Q 2184 2475 1800 2475 
Q 1419 2475 1153 2201 
Q 888 1928 888 1484 
z
" transform="scale(0.015625)"/>
       </defs>
       <use xlink:href="#ArialMT-36"/>
      </g>
     </g>
    </g>
    <g id="text_10">
     <!-- 1e6 -->
     <g style="fill: #262626" transform="translate(25.28725 19.79775) scale(0.176 -0.176)">
      <defs>
       <path id="ArialMT-65" d="M 2694 1069 
L 3275 997 
Q 3138 488 2766 206 
Q 2394 -75 1816 -75 
Q 1088 -75 661 373 
Q 234 822 234 1631 
Q 234 2469 665 2931 
Q 1097 3394 1784 3394 
Q 2450 3394 2872 2941 
Q 3294 2488 3294 1666 
Q 3294 1616 3291 1516 
L 816 1516 
Q 847 969 1125 678 
Q 1403 388 1819 388 
Q 2128 388 2347 550 
Q 2566 713 2694 1069 
z
M 847 1978 
L 2700 1978 
Q 2663 2397 2488 2606 
Q 2219 2931 1791 2931 
Q 1403 2931 1139 2672 
Q 875 2413 847 1978 
z
" transform="scale(0.015625)"/>
      </defs>
      <use xlink:href="#ArialMT-31"/>
      <use xlink:href="#ArialMT-65" x="55.615234"/>
      <use xlink:href="#ArialMT-36" x="111.230469"/>
     </g>
    </g>
   </g>
   <g id="line2d_10">
    <path d="M 60.796341 177.825543 
L 62.248655 158.014417 
L 63.70097 148.252369 
L 65.153285 145.365451 
L 66.605599 148.556684 
L 68.057914 160.97492 
L 69.510228 162.264798 
L 70.962543 143.07207 
L 72.414857 142.464479 
L 73.867172 131.68467 
L 75.319486 130.550591 
L 76.771801 133.74354 
L 78.224116 148.511668 
L 79.67643 151.841075 
L 81.128745 132.797701 
L 82.581059 130.780822 
L 84.033374 138.327066 
L 85.485688 145.094395 
L 86.938003 153.860829 
L 88.390317 163.892114 
L 89.842632 154.609606 
L 91.294947 129.650936 
L 92.747261 120.69956 
L 94.199576 117.473405 
L 95.65189 112.676896 
L 97.104205 117.125403 
L 98.556519 123.266761 
L 100.008834 119.439165 
L 101.461148 104.264862 
L 104.365778 130.765487 
L 105.818092 112.239967 
L 107.270407 114.544012 
L 108.722721 127.226533 
L 110.175036 122.62482 
L 111.62735 103.904114 
L 113.079665 106.113984 
L 114.53198 106.195053 
L 115.984294 102.404138 
L 117.436609 103.937732 
L 120.341238 128.626332 
L 121.793552 124.961949 
L 123.245867 127.964764 
L 124.698181 134.180735 
L 126.150496 134.228752 
L 127.602811 136.843208 
L 129.055125 146.914242 
L 130.50744 145.578982 
L 131.959754 111.611299 
L 133.412069 95.808253 
L 134.864383 93.789685 
L 136.316698 111.942684 
L 137.769012 135.235341 
L 139.221327 125.348783 
L 140.673642 123.102625 
L 142.125956 123.784425 
L 143.578271 137.563769 
L 145.030585 148.022405 
L 146.4829 171.251995 
L 147.935214 183.163896 
L 149.387529 183.486549 
L 150.839843 178.960008 
L 156.649102 119.980688 
L 158.101416 116.887275 
L 159.553731 124.789703 
L 161.006045 122.966553 
L 162.45836 101.524723 
L 163.910674 97.321835 
L 165.362989 97.196052 
L 166.815304 103.754973 
L 168.267618 107.399402 
L 169.719933 118.205026 
L 171.172247 125.456643 
L 172.624562 117.204334 
L 174.076876 112.203212 
L 175.529191 117.039199 
L 176.981505 110.502039 
L 178.43382 108.939832 
L 179.886135 122.662147 
L 181.338449 125.968158 
L 182.790764 109.305276 
L 184.243078 104.469542 
L 185.695393 106.270871 
L 187.147707 114.54387 
L 188.600022 118.757427 
L 190.052336 141.558669 
L 191.504651 139.357951 
L 192.956966 118.293782 
L 194.40928 121.44337 
L 195.861595 124.888509 
L 197.313909 128.724923 
L 198.766224 136.690997 
L 200.218538 141.882743 
L 201.670853 141.949988 
L 203.123167 125.68985 
L 204.575482 134.105073 
L 206.027797 138.31086 
L 207.480111 132.508109 
L 208.932426 124.770723 
L 210.38474 129.56783 
L 211.837055 135.490068 
L 213.289369 134.333613 
L 214.741684 135.460668 
L 216.193998 147.360351 
L 217.646313 150.69623 
L 219.098628 151.443546 
L 222.003257 156.416412 
L 223.455571 138.111348 
L 224.907886 136.358914 
L 226.3602 135.692078 
L 227.812515 139.129175 
L 229.264829 131.953233 
L 230.717144 135.081953 
L 232.169459 132.58363 
L 233.621773 119.660658 
L 235.074088 113.826452 
L 236.526402 115.34085 
L 237.978717 119.434483 
L 239.431031 118.253226 
L 240.883346 127.441832 
L 242.33566 122.748495 
L 243.787975 109.349207 
L 246.692604 127.118652 
L 248.144919 138.694815 
L 249.597233 143.478283 
L 251.049548 155.618599 
L 252.501862 160.081369 
L 253.954177 146.769786 
L 255.406491 144.266277 
L 256.858806 156.167422 
L 258.311121 151.100512 
L 259.763435 154.01797 
L 261.21575 162.754085 
L 262.668064 162.782582 
L 264.120379 153.318142 
L 265.572693 156.174247 
L 267.025008 161.418788 
L 268.477323 163.541459 
L 269.929637 170.638851 
L 271.381952 184.397237 
L 272.834266 181.359139 
L 274.286581 172.743831 
L 275.738895 165.839096 
L 277.19121 154.208536 
L 278.643524 147.32707 
L 280.095839 137.076156 
L 281.548154 136.184394 
L 283.000468 134.184703 
L 284.452783 131.961669 
L 285.905097 145.664349 
L 287.357412 162.01754 
L 288.809726 164.300123 
L 290.262041 158.381206 
L 291.714355 161.961576 
L 293.16667 156.044943 
L 294.618985 153.69773 
L 296.071299 172.298798 
L 297.523614 183.55519 
L 298.975928 192.101646 
L 300.428243 195.148826 
L 301.880557 190.585405 
L 303.332872 188.939427 
L 304.785186 186.778949 
L 306.237501 177.112306 
L 307.689816 176.456907 
L 309.14213 179.110731 
L 310.594445 187.003699 
L 312.046759 198.603925 
L 313.499074 192.959532 
L 314.951388 175.372578 
L 316.403703 172.793685 
L 317.856017 176.231268 
L 319.308332 181.846515 
L 320.760647 185.777477 
L 322.212961 194.027876 
L 323.665276 195.324636 
L 325.11759 187.706145 
L 326.569905 186.944786 
L 328.022219 187.783347 
L 329.474534 190.489463 
L 330.926848 196.55394 
L 332.379163 209.858392 
L 333.831478 207.965982 
L 335.283792 202.182885 
L 336.736107 208.153196 
L 338.188421 212.111079 
L 339.640736 209.763363 
L 341.09305 210.949151 
L 342.545365 217.139361 
L 343.997679 218.29071 
L 345.449994 210.080643 
L 346.902309 207.526246 
L 348.354623 211.768006 
L 349.806938 212.679126 
L 352.711567 221.700352 
L 354.163881 218.299702 
L 355.616196 211.362089 
L 357.06851 207.524584 
L 358.520825 211.230212 
L 359.97314 217.831585 
L 361.425454 213.751453 
L 362.877769 212.377507 
L 364.330083 204.690853 
L 365.782398 191.593303 
L 367.234712 195.336471 
L 368.687027 198.174177 
L 370.139341 202.012664 
L 371.591656 210.304251 
L 373.043971 221.892161 
L 374.496285 225.977199 
L 375.9486 223.556185 
L 377.400914 210.751977 
L 378.853229 209.331679 
L 380.305543 209.002232 
L 381.757858 213.354074 
L 383.210172 223.225196 
L 384.662487 223.251238 
L 386.114802 212.448601 
L 387.567116 208.910278 
L 389.019431 212.735971 
L 390.471745 220.96108 
L 391.92406 222.328262 
L 393.376374 230.113662 
L 394.828689 227.809433 
L 396.281003 215.335725 
L 397.733318 213.574967 
L 399.185633 212.580873 
L 400.637947 217.397481 
L 402.090262 219.136079 
L 403.542576 228.707346 
L 404.994891 226.780593 
L 406.447205 216.549578 
L 407.89952 216.675166 
L 409.351834 214.658605 
L 412.256464 219.216255 
L 413.708778 227.658539 
L 415.161093 227.890152 
L 416.613407 219.26884 
L 418.065722 218.634491 
L 419.518036 218.700784 
L 420.970351 218.026522 
L 422.422666 219.529371 
L 423.87498 226.371385 
L 425.327295 224.563384 
L 426.779609 213.752988 
L 428.231924 216.690672 
L 429.684238 219.214158 
L 431.136553 220.67359 
L 432.588867 220.906756 
L 434.041182 228.610986 
L 435.493497 226.358639 
L 436.945811 217.558179 
L 438.398126 221.251044 
L 439.85044 221.796387 
L 441.302755 217.849766 
L 442.755069 219.681077 
L 444.207384 228.471129 
L 445.659698 229.938264 
L 447.112013 225.538574 
L 448.564328 219.702889 
L 450.016642 219.376398 
L 451.468957 220.649224 
L 452.921271 222.390844 
L 454.373586 231.025927 
L 455.8259 231.500941 
L 457.278215 222.473106 
L 458.730529 225.060384 
L 461.635159 224.590525 
L 463.087473 227.749759 
L 464.539788 232.277597 
L 465.992102 231.347575 
L 467.444417 225.204991 
L 468.896731 225.41122 
L 470.349046 225.381678 
L 471.80136 224.802681 
L 473.253675 226.717092 
L 474.70599 233.284864 
L 476.158304 234.47775 
L 477.610619 224.509786 
L 479.062933 220.792487 
L 480.515248 219.610692 
L 481.967562 219.455543 
L 483.419877 222.138492 
L 484.872191 232.020759 
L 486.324506 228.481499 
L 487.776821 218.496932 
L 489.229135 219.390489 
L 490.68145 219.52626 
L 492.133764 221.04021 
L 493.586079 221.152589 
L 495.038393 229.849401 
L 496.490708 230.86848 
L 497.943022 218.994594 
L 499.395337 218.955635 
L 500.847652 216.82438 
L 502.299966 217.055223 
L 503.752281 222.925741 
L 505.204595 230.429622 
L 506.65691 230.050215 
L 508.109224 223.828956 
L 509.561539 221.790052 
L 511.013853 219.515786 
L 513.918483 221.041828 
L 515.370797 224.523238 
L 516.823112 222.68261 
L 518.275426 215.314665 
L 519.727741 215.925541 
L 521.180055 214.4558 
L 522.63237 216.885062 
L 524.084684 214.318218 
L 525.536999 215.224089 
L 526.989314 210.1094 
L 528.441628 200.207918 
L 529.893943 192.001435 
L 531.346257 191.946515 
L 532.798572 194.14646 
L 534.250886 197.845905 
L 535.703201 210.089662 
L 537.155515 209.51407 
L 540.060145 192.069224 
L 541.512459 185.534822 
L 542.964774 183.47967 
L 544.417088 191.97489 
L 545.869403 204.872192 
L 547.321717 209.913692 
L 548.774032 206.584546 
L 550.226346 200.580963 
L 551.678661 207.649167 
L 553.130976 205.977209 
L 554.58329 205.856242 
L 556.035605 208.559135 
L 557.487919 205.101266 
L 558.940234 198.098826 
L 560.392548 188.808578 
L 561.844863 187.899141 
L 563.297177 188.156136 
L 564.749492 195.188993 
L 566.201807 212.36709 
L 567.654121 213.65138 
L 569.106436 205.492759 
L 570.55875 200.50222 
L 572.011065 193.184199 
L 573.463379 194.540484 
L 574.915694 195.71437 
L 576.368009 206.485877 
L 577.820323 210.519369 
L 579.272638 204.086485 
L 580.724952 195.691039 
L 582.177267 196.437335 
L 583.629581 201.974149 
L 585.081896 208.123283 
L 586.53421 212.360568 
L 587.986525 212.512464 
L 589.43884 206.117691 
L 590.891154 207.265948 
L 592.343469 193.690199 
L 595.248098 184.791743 
L 596.700412 188.441785 
L 598.152727 187.427154 
L 599.605041 186.014072 
L 601.057356 189.750693 
L 602.509671 191.359077 
L 603.961985 189.438188 
L 605.4143 184.94864 
L 606.866614 184.711147 
L 608.318929 179.727161 
L 609.771243 167.406821 
L 611.223558 174.61175 
L 612.675872 174.025458 
L 614.128187 172.647068 
L 615.580502 160.981999 
L 617.032816 154.634998 
L 618.485131 150.206007 
L 619.937445 138.370048 
L 621.38976 143.613552 
L 622.842074 152.942436 
L 624.294389 155.241434 
L 625.746703 157.841687 
L 627.199018 166.909189 
L 628.651333 163.985956 
L 630.103647 145.807959 
L 631.555962 142.136766 
L 633.008276 139.584678 
L 634.460591 133.13144 
L 635.912905 132.962811 
L 638.817534 137.390015 
L 640.269849 125.3408 
L 641.722164 126.285769 
L 643.174478 126.208607 
L 644.626793 121.317056 
L 646.079107 118.513383 
L 647.531422 123.142647 
L 648.983736 116.371794 
L 650.436051 99.105653 
L 651.888365 94.768011 
L 653.34068 93.73731 
L 654.792995 93.540446 
L 656.245309 94.205613 
L 657.697624 104.187012 
L 659.149938 109.651383 
L 660.602253 120.030575 
L 662.054567 139.567299 
L 664.959196 167.781819 
L 667.863826 184.476038 
L 669.31614 186.236074 
L 670.768455 184.276266 
L 672.220769 168.576465 
L 673.673084 172.50592 
L 675.125398 179.471356 
L 676.577713 182.203747 
L 678.030027 202.427864 
L 679.482342 202.555305 
L 682.386971 175.870085 
L 683.839286 177.45063 
L 685.2916 174.672742 
L 686.743915 178.390097 
L 688.196229 182.617138 
L 689.648544 178.778472 
L 691.100858 162.105799 
L 692.553173 158.689472 
L 694.005488 162.606752 
L 695.457802 167.142141 
L 696.910117 167.168661 
L 698.362431 174.694764 
L 699.814746 168.084114 
L 701.26706 146.936022 
L 702.719375 130.926338 
L 704.171689 119.561039 
L 705.624004 115.268446 
L 707.076319 113.562061 
L 708.528633 124.240938 
L 709.980948 123.025894 
L 711.433262 110.537807 
L 712.885577 112.061198 
L 714.337891 109.191148 
L 715.790206 111.359914 
L 717.24252 114.39473 
L 718.694835 121.866863 
L 720.14715 127.098404 
L 721.599464 126.642561 
L 723.051779 129.814324 
L 724.504093 137.388963 
L 725.956408 143.291963 
L 727.408722 153.855863 
L 728.861037 152.906349 
L 730.313352 144.175021 
L 731.765666 32.87775 
L 733.217981 109.318843 
L 734.670295 110.779819 
L 736.12261 109.513015 
L 737.574924 121.623164 
L 739.027239 143.311083 
L 740.479553 148.541538 
L 741.931868 138.797004 
L 743.384183 137.831376 
L 744.836497 141.791628 
L 746.288812 150.757117 
L 747.741126 168.689819 
L 749.193441 177.477244 
L 750.645755 173.808711 
L 752.09807 169.16566 
L 753.550384 162.132097 
L 755.002699 161.83837 
L 756.455014 159.090719 
L 757.907328 161.120698 
L 759.359643 155.288687 
L 760.811957 139.651643 
L 762.264272 118.377504 
L 763.716586 118.080542 
L 766.621215 126.851802 
L 768.07353 132.467025 
L 769.525845 200.678046 
L 770.978159 197.989266 
L 770.978159 197.989266 
" clip-path="url(#p06ade6b1f1)" style="fill: none; stroke: #4c72b0; stroke-width: 1.2; stroke-linecap: round"/>
   </g>
   <g id="line2d_11">
    <path d="M 68.057914 145.663887 
L 69.510228 156.494522 
L 70.962543 145.111414 
L 72.414857 132.544286 
L 73.867172 134.531526 
L 75.319486 123.176432 
L 76.771801 124.330759 
L 78.224116 140.397107 
L 79.67643 145.837548 
L 81.128745 135.946444 
L 82.581059 122.781093 
L 84.033374 124.465795 
L 85.485688 123.707918 
L 86.938003 125.438722 
L 88.390317 143.595695 
L 89.842632 147.365341 
L 91.294947 125.53107 
L 92.747261 109.484065 
L 94.199576 106.507625 
L 95.65189 102.379982 
L 97.104205 104.329104 
L 98.556519 124.544426 
L 100.008834 129.275701 
L 101.461148 115.114115 
L 102.913463 108.079984 
L 104.365778 118.117702 
L 105.818092 121.035985 
L 107.270407 111.040765 
L 108.722721 131.208712 
L 110.175036 133.284201 
L 111.62735 111.050988 
L 113.079665 107.366881 
L 114.53198 112.978725 
L 115.984294 108.659035 
L 117.436609 109.999449 
L 118.888923 127.41518 
L 120.341238 133.297558 
L 121.793552 126.257096 
L 123.245867 122.601707 
L 124.698181 126.021773 
L 126.150496 126.151816 
L 127.602811 123.325439 
L 129.055125 135.090926 
L 130.50744 139.150604 
L 131.959754 122.781491 
L 133.412069 102.675847 
L 134.864383 100.422299 
L 136.316698 99.241711 
L 137.769012 111.061735 
L 139.221327 140.567996 
L 140.673642 134.946597 
L 142.125956 125.959253 
L 143.578271 120.296701 
L 145.030585 119.023584 
L 146.4829 126.09904 
L 147.935214 140.609014 
L 149.387529 151.447153 
L 150.839843 143.742354 
L 153.744473 109.701182 
L 155.196787 99.898028 
L 156.649102 93.861667 
L 158.101416 90.395075 
L 159.553731 103.912913 
L 161.006045 111.719263 
L 162.45836 101.146799 
L 163.910674 92.835956 
L 165.362989 95.904077 
L 166.815304 93.58269 
L 168.267618 98.678265 
L 169.719933 114.764716 
L 171.172247 120.459959 
L 174.076876 100.942704 
L 175.529191 98.889042 
L 176.981505 99.45704 
L 178.43382 93.772877 
L 179.886135 105.026403 
L 181.338449 114.339766 
L 182.790764 99.615583 
L 184.243078 90.499524 
L 185.695393 92.739219 
L 187.147707 90.630036 
L 188.600022 95.545502 
L 190.052336 110.693227 
L 191.504651 124.467457 
L 192.956966 107.296369 
L 194.40928 92.323047 
L 195.861595 99.042384 
L 197.313909 93.134585 
L 198.766224 97.451403 
L 200.218538 118.289015 
L 201.670853 118.778942 
L 203.123167 106.131765 
L 204.575482 95.674353 
L 206.027797 102.48454 
L 207.480111 102.936871 
L 208.932426 101.423898 
L 210.38474 114.076249 
L 211.837055 115.933564 
L 213.289369 106.093457 
L 214.741684 106.005154 
L 216.193998 111.494849 
L 217.646313 118.704619 
L 219.098628 119.871679 
L 220.550942 129.861696 
L 222.003257 131.957017 
L 223.455571 118.523408 
L 224.907886 106.447516 
L 226.3602 110.530131 
L 227.812515 111.563175 
L 229.264829 115.477747 
L 230.717144 126.772489 
L 232.169459 131.055009 
L 233.621773 119.022754 
L 235.074088 110.453641 
L 236.526402 113.84676 
L 237.978717 116.333003 
L 239.431031 122.166227 
L 240.883346 134.465918 
L 242.33566 142.515411 
L 243.787975 127.121654 
L 245.24029 118.742765 
L 246.692604 128.881807 
L 248.144919 130.055686 
L 249.597233 139.489058 
L 251.049548 154.737745 
L 252.501862 158.269278 
L 255.406491 132.747532 
L 256.858806 134.179861 
L 258.311121 138.95135 
L 259.763435 134.651807 
L 261.21575 151.427719 
L 262.668064 157.610531 
L 264.120379 140.617322 
L 265.572693 137.043083 
L 267.025008 141.257854 
L 268.477323 142.108179 
L 269.929637 145.252338 
L 271.381952 161.943199 
L 272.834266 167.951583 
L 274.286581 151.132233 
L 275.738895 146.443646 
L 277.19121 143.700786 
L 278.643524 134.848027 
L 280.095839 137.399824 
L 281.548154 144.947813 
L 283.000468 148.530703 
L 284.452783 140.838774 
L 285.905097 141.845041 
L 287.357412 155.243476 
L 288.809726 163.946631 
L 290.262041 166.38484 
L 291.714355 173.810752 
L 293.16667 173.494585 
L 294.618985 153.133534 
L 296.071299 151.887555 
L 297.523614 166.869068 
L 298.975928 169.791613 
L 300.428243 178.355533 
L 301.880557 190.025493 
L 303.332872 181.117629 
L 304.785186 167.157853 
L 306.237501 163.349935 
L 307.689816 158.146623 
L 309.14213 163.061357 
L 310.594445 168.832386 
L 312.046759 182.53484 
L 313.499074 191.407214 
L 314.951388 175.756595 
L 316.403703 166.271748 
L 317.856017 167.412538 
L 319.308332 166.941793 
L 320.760647 174.036493 
L 322.212961 190.797224 
L 323.665276 196.123896 
L 325.11759 183.736768 
L 326.569905 177.173518 
L 328.022219 178.52327 
L 329.474534 177.793306 
L 330.926848 181.748218 
L 332.379163 196.72826 
L 333.831478 203.634398 
L 335.283792 189.084879 
L 336.736107 185.392753 
L 338.188421 189.736699 
L 339.640736 187.390315 
L 341.09305 189.069454 
L 342.545365 201.995762 
L 343.997679 203.471976 
L 345.449994 190.645751 
L 346.902309 186.418888 
L 348.354623 187.678071 
L 351.259252 192.215546 
L 352.711567 206.706208 
L 354.163881 209.81512 
L 355.616196 194.815875 
L 357.06851 191.28687 
L 358.520825 190.300994 
L 359.97314 192.881839 
L 362.877769 208.184593 
L 364.330083 209.99806 
L 365.782398 194.237284 
L 367.234712 185.382024 
L 368.687027 192.688269 
L 370.139341 195.091696 
L 371.591656 202.235745 
L 373.043971 220.539016 
L 374.496285 224.470872 
L 375.9486 213.054436 
L 377.400914 209.761473 
L 378.853229 201.601796 
L 380.305543 200.863569 
L 381.757858 202.59333 
L 383.210172 214.378139 
L 384.662487 223.655383 
L 386.114802 211.310551 
L 387.567116 205.042001 
L 389.019431 205.032076 
L 390.471745 205.547149 
L 391.92406 211.952284 
L 393.376374 223.680064 
L 394.828689 229.122437 
L 396.281003 214.198635 
L 397.733318 203.871211 
L 399.185633 205.905439 
L 400.637947 203.607121 
L 402.090262 209.507899 
L 403.542576 222.568873 
L 404.994891 227.754791 
L 406.447205 213.986575 
L 407.89952 205.921956 
L 409.351834 208.353292 
L 410.804149 204.265448 
L 412.256464 208.676678 
L 413.708778 221.757434 
L 415.161093 225.243163 
L 416.613407 213.033575 
L 418.065722 206.335992 
L 419.518036 207.627568 
L 420.970351 205.386912 
L 422.422666 206.983754 
L 423.87498 219.506902 
L 425.327295 222.629049 
L 426.779609 208.650083 
L 428.231924 202.122319 
L 429.684238 206.199448 
L 431.136553 205.191441 
L 432.588867 208.268462 
L 434.041182 220.787189 
L 435.493497 223.685356 
L 436.945811 208.6706 
L 438.398126 202.728448 
L 439.85044 207.536191 
L 441.302755 205.100944 
L 442.755069 205.94269 
L 444.207384 219.996309 
L 445.659698 222.978579 
L 447.112013 210.503723 
L 450.016642 206.742082 
L 451.468957 205.790857 
L 452.921271 208.873508 
L 454.373586 219.795118 
L 455.8259 226.297492 
L 457.278215 214.053141 
L 458.730529 207.917157 
L 460.182844 211.954953 
L 461.635159 209.390531 
L 463.087473 211.75168 
L 464.539788 226.02354 
L 465.992102 226.794011 
L 467.444417 214.41484 
L 468.896731 210.785445 
L 470.349046 211.994201 
L 471.80136 211.333873 
L 473.253675 213.991226 
L 474.70599 226.248974 
L 476.158304 229.133753 
L 477.610619 217.253223 
L 479.062933 210.795844 
L 480.515248 210.837643 
L 481.967562 209.390133 
L 483.419877 211.196723 
L 484.872191 224.640311 
L 486.324506 230.321414 
L 487.776821 215.144496 
L 489.229135 209.212621 
L 490.68145 211.47939 
L 492.133764 208.020834 
L 493.586079 211.930791 
L 495.038393 223.507609 
L 496.490708 227.110276 
L 497.943022 214.099595 
L 499.395337 205.066971 
L 500.847652 207.770828 
L 502.299966 203.608398 
L 503.752281 205.197984 
L 505.204595 220.74474 
L 506.65691 222.463457 
L 508.109224 209.47453 
L 509.561539 204.646843 
L 511.013853 202.734187 
L 512.466168 199.16496 
L 513.918483 201.831533 
L 515.370797 212.099792 
L 516.823112 213.204649 
L 518.275426 200.226677 
L 519.727741 194.526584 
L 521.180055 196.008645 
L 522.63237 193.796187 
L 524.084684 197.846481 
L 525.536999 206.516571 
L 526.989314 206.033079 
L 528.441628 191.608509 
L 529.893943 184.413965 
L 531.346257 182.498419 
L 532.798572 183.773261 
L 534.250886 188.54587 
L 535.703201 201.446955 
L 537.155515 209.715366 
L 538.60783 195.30069 
L 540.060145 188.475476 
L 541.512459 184.75148 
L 542.964774 178.64663 
L 544.417088 180.79273 
L 545.869403 196.993835 
L 547.321717 204.439154 
L 548.774032 195.314037 
L 550.226346 192.437016 
L 551.678661 187.39968 
L 553.130976 188.770989 
L 554.58329 186.64201 
L 556.035605 195.912671 
L 557.487919 198.989186 
L 558.940234 181.880121 
L 561.844863 173.695853 
L 563.297177 174.014638 
L 564.749492 177.180788 
L 566.201807 190.981487 
L 567.654121 201.383144 
L 569.106436 186.8046 
L 570.55875 180.438707 
L 572.011065 177.138072 
L 573.463379 167.510648 
L 574.915694 170.442675 
L 576.368009 180.855078 
L 577.820323 186.366546 
L 579.272638 176.615346 
L 580.724952 169.47486 
L 582.177267 165.194481 
L 583.629581 163.04009 
L 585.081896 165.466721 
L 586.53421 176.771009 
L 587.986525 178.911989 
L 589.43884 165.288554 
L 590.891154 157.418854 
L 592.343469 156.172088 
L 593.795783 145.700236 
L 595.248098 146.562915 
L 596.700412 154.054886 
L 598.152727 153.497365 
L 599.605041 143.770647 
L 601.057356 141.956427 
L 602.509671 145.049237 
L 603.961985 143.101894 
L 605.4143 143.199634 
L 606.866614 148.813429 
L 608.318929 146.232318 
L 609.771243 129.894875 
L 611.223558 121.93727 
L 612.675872 129.319979 
L 614.128187 126.867086 
L 615.580502 128.925308 
L 617.032816 134.8738 
L 618.485131 129.290602 
L 619.937445 115.793796 
L 621.38976 107.844932 
L 622.842074 116.763101 
L 624.294389 123.26049 
L 625.746703 125.82027 
L 627.199018 139.628167 
L 628.651333 142.005879 
L 630.103647 123.553203 
L 631.555962 111.838197 
L 633.008276 113.214283 
L 634.460591 109.6276 
L 635.912905 109.041396 
L 637.36522 125.180741 
L 638.817534 127.053038 
L 640.269849 117.153454 
L 641.722164 111.306703 
L 643.174478 115.095277 
L 644.626793 115.179733 
L 646.079107 113.826152 
L 647.531422 126.442632 
L 648.983736 128.936678 
L 650.436051 112.673306 
L 651.888365 105.019034 
L 653.34068 107.910369 
L 654.792995 107.059836 
L 656.245309 111.49288 
L 657.697624 126.654376 
L 659.149938 133.319764 
L 660.602253 123.56329 
L 662.054567 127.79802 
L 663.506882 137.843197 
L 664.959196 139.940631 
L 666.411511 146.353727 
L 667.863826 154.30455 
L 669.31614 150.642415 
L 670.768455 133.91573 
L 672.220769 126.815873 
L 673.673084 115.713413 
L 675.125398 118.605272 
L 676.577713 123.266956 
L 678.030027 131.237945 
L 679.482342 147.164028 
L 680.934657 130.156956 
L 682.386971 118.712015 
L 683.839286 113.459775 
L 685.2916 109.803446 
L 686.743915 108.913304 
L 688.196229 123.3259 
L 689.648544 128.557333 
L 691.100858 112.544672 
L 692.553173 103.168257 
L 694.005488 103.006552 
L 695.457802 104.093781 
L 696.910117 108.206089 
L 698.362431 120.921204 
L 699.814746 125.36206 
L 701.26706 106.734224 
L 702.719375 92.590248 
L 704.171689 87.729328 
L 705.624004 81.323031 
L 707.076319 84.309099 
L 708.528633 98.837567 
L 709.980948 109.343998 
L 711.433262 98.548006 
L 712.885577 91.834068 
L 714.337891 96.654188 
L 715.790206 91.309509 
L 717.24252 95.480806 
L 718.694835 109.932965 
L 720.14715 112.331944 
L 721.599464 103.785941 
L 723.051779 101.189442 
L 724.504093 103.183121 
L 725.956408 105.731559 
L 727.408722 108.897591 
L 728.861037 123.288259 
L 728.861037 123.288259 
" clip-path="url(#p06ade6b1f1)" style="fill: none; stroke: #dd8452; stroke-width: 1.2; stroke-linecap: round"/>
   </g>
   <g id="line2d_12">
    <path d="M 86.938003 131.754674 
L 88.390317 137.523437 
L 89.842632 136.041719 
L 91.294947 125.371768 
L 92.747261 122.611957 
L 94.199576 123.181995 
L 95.65189 124.000441 
L 97.104205 124.19313 
L 98.556519 131.932905 
L 100.008834 130.836935 
L 101.461148 121.039227 
L 102.913463 118.904433 
L 104.365778 118.794556 
L 105.818092 120.546085 
L 107.270407 122.038162 
L 108.722721 130.200322 
L 110.175036 131.397473 
L 111.62735 121.942716 
L 113.079665 120.473478 
L 114.53198 121.054308 
L 115.984294 122.391462 
L 117.436609 123.294274 
L 118.888923 131.201858 
L 120.341238 131.5311 
L 121.793552 120.942047 
L 123.245867 118.53504 
L 124.698181 118.963647 
L 126.150496 122.822671 
L 127.602811 123.49444 
L 129.055125 131.147628 
L 130.50744 133.412456 
L 131.959754 122.15343 
L 133.412069 119.622277 
L 134.864383 120.479321 
L 136.316698 122.083433 
L 137.769012 122.915444 
L 139.221327 130.494164 
L 140.673642 129.627674 
L 142.125956 118.899683 
L 143.578271 117.244114 
L 145.030585 117.194481 
L 147.935214 120.911126 
L 149.387529 128.271203 
L 150.839843 128.125257 
L 152.292158 118.580256 
L 153.744473 116.083971 
L 155.196787 114.556991 
L 156.649102 114.103612 
L 158.101416 113.438372 
L 159.553731 122.581722 
L 161.006045 120.754361 
L 162.45836 108.287781 
L 163.910674 107.735425 
L 165.362989 106.630443 
L 166.815304 105.942246 
L 168.267618 108.048918 
L 169.719933 117.872996 
L 171.172247 117.017822 
L 172.624562 106.931744 
L 174.076876 106.283951 
L 175.529191 106.009688 
L 176.981505 106.416342 
L 178.43382 107.080625 
L 179.886135 113.500196 
L 181.338449 112.461138 
L 182.790764 101.421694 
L 184.243078 98.867007 
L 185.695393 98.713882 
L 187.147707 99.68624 
L 188.600022 101.07737 
L 190.052336 109.101541 
L 191.504651 108.46137 
L 192.956966 98.960385 
L 194.40928 98.35529 
L 195.861595 98.703154 
L 198.766224 104.246617 
L 200.218538 111.530015 
L 201.670853 112.552005 
L 203.123167 103.290027 
L 204.575482 102.063382 
L 206.027797 103.129262 
L 207.480111 105.175284 
L 208.932426 107.998202 
L 210.38474 116.063508 
L 211.837055 117.562032 
L 213.289369 109.864494 
L 214.741684 107.972518 
L 216.193998 110.307072 
L 217.646313 113.055631 
L 219.098628 114.975096 
L 220.550942 124.900679 
L 222.003257 126.011541 
L 223.455571 116.973092 
L 224.907886 116.185432 
L 226.3602 117.519596 
L 227.812515 121.122644 
L 229.264829 123.775459 
L 230.717144 132.912577 
L 232.169459 133.404798 
L 233.621773 123.514813 
L 235.074088 122.906539 
L 236.526402 123.577866 
L 237.978717 126.261006 
L 239.431031 130.411253 
L 240.883346 139.434657 
L 242.33566 140.404025 
L 243.787975 131.561958 
L 245.24029 130.789099 
L 246.692604 131.309107 
L 248.144919 133.651102 
L 249.597233 136.537136 
L 251.049548 145.369449 
L 252.501862 145.317513 
L 253.954177 136.160409 
L 255.406491 134.993115 
L 256.858806 135.582208 
L 258.311121 137.1292 
L 259.763435 140.264319 
L 261.21575 148.553181 
L 262.668064 149.286567 
L 264.120379 140.07061 
L 265.572693 137.971515 
L 267.025008 139.331968 
L 268.477323 141.208311 
L 269.929637 143.924423 
L 271.381952 153.446115 
L 272.834266 154.216419 
L 274.286581 145.917533 
L 275.738895 145.371779 
L 277.19121 145.87964 
L 278.643524 149.343939 
L 280.095839 152.162712 
L 281.548154 160.25166 
L 283.000468 162.185259 
L 284.452783 152.224609 
L 285.905097 151.440759 
L 287.357412 152.85313 
L 288.809726 155.325312 
L 290.262041 158.069139 
L 291.714355 167.094457 
L 293.16667 168.889045 
L 294.618985 159.342961 
L 296.071299 159.271374 
L 297.523614 161.950595 
L 298.975928 163.598713 
L 300.428243 166.927172 
L 301.880557 175.793712 
L 303.332872 175.260645 
L 304.785186 164.833125 
L 306.237501 163.049852 
L 307.689816 163.888076 
L 309.14213 166.807984 
L 310.594445 170.889173 
L 312.046759 180.232436 
L 313.499074 181.950371 
L 314.951388 171.927915 
L 316.403703 169.676634 
L 317.856017 171.496074 
L 319.308332 173.558117 
L 320.760647 176.786442 
L 322.212961 187.844146 
L 323.665276 188.476821 
L 325.11759 178.269958 
L 326.569905 179.03962 
L 328.022219 179.42703 
L 329.474534 180.395793 
L 330.926848 183.743162 
L 332.379163 192.039302 
L 333.831478 193.197729 
L 335.283792 183.763517 
L 336.736107 182.736506 
L 338.188421 183.90297 
L 339.640736 185.510658 
L 341.09305 187.91976 
L 342.545365 196.697541 
L 343.997679 197.229777 
L 345.449994 187.714311 
L 346.902309 187.17477 
L 348.354623 188.450045 
L 349.806938 190.290636 
L 351.259252 193.002498 
L 352.711567 201.705667 
L 354.163881 202.746225 
L 355.616196 192.879712 
L 357.06851 191.810427 
L 358.520825 193.825862 
L 359.97314 196.135906 
L 361.425454 198.924751 
L 362.877769 208.059563 
L 364.330083 208.84279 
L 365.782398 198.848067 
L 367.234712 198.318559 
L 368.687027 199.132964 
L 370.139341 201.209925 
L 371.591656 204.121268 
L 373.043971 212.941624 
L 374.496285 213.899325 
L 375.9486 203.56581 
L 377.400914 203.214613 
L 378.853229 204.039526 
L 380.305543 205.133225 
L 381.757858 208.873891 
L 383.210172 217.703875 
L 384.662487 217.854778 
L 386.114802 208.113801 
L 387.567116 206.228802 
L 389.019431 206.750815 
L 390.471745 208.029518 
L 391.92406 209.731256 
L 393.376374 218.52578 
L 394.828689 218.80567 
L 396.281003 208.400879 
L 397.733318 208.689475 
L 399.185633 209.323726 
L 400.637947 210.149411 
L 402.090262 213.038181 
L 403.542576 220.289325 
L 404.994891 220.221667 
L 406.447205 209.744143 
L 407.89952 208.399696 
L 409.351834 208.615653 
L 410.804149 209.357943 
L 412.256464 211.825199 
L 413.708778 219.706228 
L 415.161093 219.428298 
L 416.613407 209.512468 
L 418.065722 207.633714 
L 419.518036 208.049701 
L 420.970351 208.699305 
L 422.422666 210.535831 
L 423.87498 218.507953 
L 425.327295 218.100261 
L 426.779609 207.877517 
L 428.231924 205.98937 
L 431.136553 207.716408 
L 432.588867 209.541078 
L 434.041182 217.83254 
L 435.493497 217.443094 
L 436.945811 207.107389 
L 438.398126 205.710004 
L 439.85044 206.458878 
L 441.302755 207.880772 
L 442.755069 210.072952 
L 444.207384 218.373712 
L 445.659698 218.50864 
L 447.112013 208.194288 
L 448.564328 206.585724 
L 450.016642 207.423411 
L 451.468957 209.101448 
L 452.921271 211.435171 
L 454.373586 220.029502 
L 455.8259 220.42461 
L 457.278215 210.342023 
L 458.730529 208.741198 
L 460.182844 210.008211 
L 463.087473 213.988332 
L 464.539788 222.53424 
L 465.992102 222.886411 
L 467.444417 212.216867 
L 468.896731 211.626482 
L 470.349046 212.505196 
L 471.80136 213.617977 
L 473.253675 216.509867 
L 474.70599 224.429529 
L 476.158304 224.341981 
L 477.610619 214.108878 
L 479.062933 212.452912 
L 480.515248 213.308123 
L 481.967562 214.7237 
L 483.419877 216.42673 
L 484.872191 224.944539 
L 486.324506 224.567813 
L 487.776821 213.397247 
L 489.229135 211.934033 
L 490.68145 212.192037 
L 492.133764 212.961966 
L 493.586079 214.721731 
L 495.038393 222.503138 
L 496.490708 221.727298 
L 497.943022 210.705767 
L 499.395337 208.915627 
L 500.847652 208.672447 
L 502.299966 209.255002 
L 503.752281 210.568026 
L 505.204595 217.699215 
L 506.65691 217.108099 
L 508.109224 205.803287 
L 509.561539 203.251594 
L 512.466168 203.71078 
L 513.918483 205.032148 
L 515.370797 212.415873 
L 516.823112 211.348607 
L 518.275426 200.57389 
L 519.727741 198.059959 
L 521.180055 198.047998 
L 524.084684 199.503586 
L 525.536999 207.327021 
L 526.989314 206.541767 
L 528.441628 195.052913 
L 529.893943 193.520266 
L 532.798572 194.155123 
L 534.250886 195.968666 
L 535.703201 203.870236 
L 537.155515 202.922699 
L 538.60783 191.710195 
L 540.060145 189.841916 
L 541.512459 190.039428 
L 542.964774 190.511654 
L 544.417088 192.570156 
L 545.869403 200.810252 
L 547.321717 199.880537 
L 548.774032 188.906991 
L 550.226346 187.267046 
L 551.678661 186.800319 
L 553.130976 186.833787 
L 554.58329 188.6629 
L 556.035605 195.606859 
L 557.487919 195.152008 
L 558.940234 184.325554 
L 560.392548 182.710001 
L 561.844863 183.131917 
L 563.297177 183.180367 
L 564.749492 184.042459 
L 566.201807 190.96497 
L 567.654121 189.73986 
L 569.106436 177.948644 
L 570.55875 176.615518 
L 572.011065 175.879323 
L 573.463379 176.421402 
L 574.915694 178.326093 
L 576.368009 184.70461 
L 577.820323 183.807696 
L 579.272638 171.452637 
L 580.724952 169.226406 
L 582.177267 167.938398 
L 583.629581 166.975324 
L 585.081896 167.660982 
L 586.53421 173.235159 
L 587.986525 171.967226 
L 589.43884 160.006015 
L 590.891154 157.223104 
L 592.343469 157.141068 
L 593.795783 156.165261 
L 595.248098 156.575925 
L 596.700412 162.82095 
L 598.152727 160.198144 
L 599.605041 148.283036 
L 601.057356 145.760344 
L 602.509671 144.471496 
L 603.961985 143.66348 
L 605.4143 144.669946 
L 606.866614 151.30649 
L 608.318929 149.465981 
L 609.771243 137.445574 
L 611.223558 135.0936 
L 612.675872 135.246038 
L 614.128187 134.90027 
L 615.580502 135.556795 
L 617.032816 143.138207 
L 618.485131 140.768867 
L 619.937445 128.570843 
L 621.38976 125.98314 
L 622.842074 125.986156 
L 624.294389 126.5362 
L 625.746703 128.744459 
L 627.199018 136.764205 
L 628.651333 136.076812 
L 630.103647 125.023786 
L 631.555962 122.265492 
L 633.008276 122.578317 
L 634.460591 123.860257 
L 635.912905 126.028546 
L 637.36522 134.994207 
L 638.817534 133.966555 
L 640.269849 123.460828 
L 641.722164 121.019621 
L 643.174478 120.472963 
L 644.626793 122.241832 
L 646.079107 124.434152 
L 647.531422 132.829802 
L 648.983736 133.780196 
L 650.436051 124.176992 
L 651.888365 122.575039 
L 653.34068 123.299701 
L 654.792995 125.152149 
L 656.245309 126.536299 
L 657.697624 134.705811 
L 659.149938 134.264253 
L 660.602253 123.526942 
L 662.054567 122.020082 
L 663.506882 122.065895 
L 664.959196 123.960814 
L 666.411511 125.653184 
L 667.863826 133.512679 
L 669.31614 133.456228 
L 670.768455 122.618305 
L 672.220769 120.173459 
L 673.673084 120.02466 
L 675.125398 120.513259 
L 676.577713 121.606971 
L 678.030027 128.711912 
L 679.482342 127.551499 
L 680.934657 115.4629 
L 682.386971 112.864179 
L 685.2916 114.008843 
L 686.743915 116.571378 
L 688.196229 125.501124 
L 689.648544 125.129175 
L 691.100858 114.126315 
L 692.553173 113.629191 
L 694.005488 112.654558 
L 695.457802 111.966452 
L 696.910117 114.774379 
L 698.362431 120.2219 
L 699.814746 119.832106 
L 701.26706 109.805216 
L 702.719375 107.752349 
L 704.171689 107.704269 
L 705.624004 108.238492 
L 707.076319 109.737377 
L 708.528633 116.467588 
L 709.980948 116.217138 
L 711.433262 105.176729 
L 712.885577 103.301767 
L 714.337891 102.830525 
L 715.790206 103.700655 
L 717.24252 105.629819 
L 718.694835 113.401436 
L 720.14715 113.691792 
L 721.599464 104.187628 
L 723.051779 102.936402 
L 725.956408 104.384733 
L 727.408722 106.16312 
L 728.861037 113.559077 
L 730.313352 113.337426 
L 731.765666 103.555567 
L 733.217981 101.970041 
L 736.12261 105.631137 
L 737.574924 108.024174 
L 739.027239 117.456679 
L 740.479553 117.564109 
L 741.931868 107.766979 
L 743.384183 107.720597 
L 744.836497 109.096448 
L 746.288812 111.502796 
L 747.741126 115.040334 
L 747.741126 115.040334 
" clip-path="url(#p06ade6b1f1)" style="fill: none; stroke: #55a868; stroke-width: 1.2; stroke-linecap: round"/>
   </g>
   <g id="patch_3">
    <path d="M 25.28725 244.55775 
L 25.28725 22.79775 
" style="fill: none; stroke: #cccccc; stroke-linejoin: miter; stroke-linecap: square"/>
   </g>
   <g id="patch_4">
    <path d="M 806.48725 244.55775 
L 806.48725 22.79775 
" style="fill: none; stroke: #cccccc; stroke-linejoin: miter; stroke-linecap: square"/>
   </g>
   <g id="patch_5">
    <path d="M 25.28725 244.55775 
L 806.48725 244.55775 
" style="fill: none; stroke: #cccccc; stroke-linejoin: miter; stroke-linecap: square"/>
   </g>
   <g id="patch_6">
    <path d="M 25.28725 22.79775 
L 806.48725 22.79775 
" style="fill: none; stroke: #cccccc; stroke-linejoin: miter; stroke-linecap: square"/>
   </g>
   <g id="legend_1">
    <g id="patch_7">
     <path d="M 290.389625 112.4065 
L 541.384875 112.4065 
Q 544.904875 112.4065 544.904875 108.8865 
L 544.904875 35.11775 
Q 544.904875 31.59775 541.384875 31.59775 
L 290.389625 31.59775 
Q 286.869625 31.59775 286.869625 35.11775 
L 286.869625 108.8865 
Q 286.869625 112.4065 290.389625 112.4065 
z
" style="fill: #ffffff; opacity: 0.8; stroke: #cccccc; stroke-width: 0.8; stroke-linejoin: miter"/>
    </g>
    <g id="line2d_13">
     <path d="M 293.909625 45.0755 
L 311.509625 45.0755 
L 329.109625 45.0755 
" style="fill: none; stroke: #4c72b0; stroke-width: 1.2; stroke-linecap: round"/>
    </g>
    <g id="text_11">
     <!-- actual -->
     <g style="fill: #262626" transform="translate(343.189625 51.2355) scale(0.176 -0.176)">
      <defs>
       <path id="ArialMT-61" d="M 2588 409 
Q 2275 144 1986 34 
Q 1697 -75 1366 -75 
Q 819 -75 525 192 
Q 231 459 231 875 
Q 231 1119 342 1320 
Q 453 1522 633 1644 
Q 813 1766 1038 1828 
Q 1203 1872 1538 1913 
Q 2219 1994 2541 2106 
Q 2544 2222 2544 2253 
Q 2544 2597 2384 2738 
Q 2169 2928 1744 2928 
Q 1347 2928 1158 2789 
Q 969 2650 878 2297 
L 328 2372 
Q 403 2725 575 2942 
Q 747 3159 1072 3276 
Q 1397 3394 1825 3394 
Q 2250 3394 2515 3294 
Q 2781 3194 2906 3042 
Q 3031 2891 3081 2659 
Q 3109 2516 3109 2141 
L 3109 1391 
Q 3109 606 3145 398 
Q 3181 191 3288 0 
L 2700 0 
Q 2613 175 2588 409 
z
M 2541 1666 
Q 2234 1541 1622 1453 
Q 1275 1403 1131 1340 
Q 988 1278 909 1158 
Q 831 1038 831 891 
Q 831 666 1001 516 
Q 1172 366 1500 366 
Q 1825 366 2078 508 
Q 2331 650 2450 897 
Q 2541 1088 2541 1459 
L 2541 1666 
z
" transform="scale(0.015625)"/>
       <path id="ArialMT-63" d="M 2588 1216 
L 3141 1144 
Q 3050 572 2676 248 
Q 2303 -75 1759 -75 
Q 1078 -75 664 370 
Q 250 816 250 1647 
Q 250 2184 428 2587 
Q 606 2991 970 3192 
Q 1334 3394 1763 3394 
Q 2303 3394 2647 3120 
Q 2991 2847 3088 2344 
L 2541 2259 
Q 2463 2594 2264 2762 
Q 2066 2931 1784 2931 
Q 1359 2931 1093 2626 
Q 828 2322 828 1663 
Q 828 994 1084 691 
Q 1341 388 1753 388 
Q 2084 388 2306 591 
Q 2528 794 2588 1216 
z
" transform="scale(0.015625)"/>
       <path id="ArialMT-74" d="M 1650 503 
L 1731 6 
Q 1494 -44 1306 -44 
Q 1000 -44 831 53 
Q 663 150 594 308 
Q 525 466 525 972 
L 525 2881 
L 113 2881 
L 113 3319 
L 525 3319 
L 525 4141 
L 1084 4478 
L 1084 3319 
L 1650 3319 
L 1650 2881 
L 1084 2881 
L 1084 941 
Q 1084 700 1114 631 
Q 1144 563 1211 522 
Q 1278 481 1403 481 
Q 1497 481 1650 503 
z
" transform="scale(0.015625)"/>
       <path id="ArialMT-75" d="M 2597 0 
L 2597 488 
Q 2209 -75 1544 -75 
Q 1250 -75 995 37 
Q 741 150 617 320 
Q 494 491 444 738 
Q 409 903 409 1263 
L 409 3319 
L 972 3319 
L 972 1478 
Q 972 1038 1006 884 
Q 1059 663 1231 536 
Q 1403 409 1656 409 
Q 1909 409 2131 539 
Q 2353 669 2445 892 
Q 2538 1116 2538 1541 
L 2538 3319 
L 3100 3319 
L 3100 0 
L 2597 0 
z
" transform="scale(0.015625)"/>
       <path id="ArialMT-6c" d="M 409 0 
L 409 4581 
L 972 4581 
L 972 0 
L 409 0 
z
" transform="scale(0.015625)"/>
      </defs>
      <use xlink:href="#ArialMT-61"/>
      <use xlink:href="#ArialMT-63" x="55.615234"/>
      <use xlink:href="#ArialMT-74" x="105.615234"/>
      <use xlink:href="#ArialMT-75" x="133.398438"/>
      <use xlink:href="#ArialMT-61" x="189.013672"/>
      <use xlink:href="#ArialMT-6c" x="244.628906"/>
     </g>
    </g>
    <g id="line2d_14">
     <path d="M 293.909625 70.18575 
L 311.509625 70.18575 
L 329.109625 70.18575 
" style="fill: none; stroke: #dd8452; stroke-width: 1.2; stroke-linecap: round"/>
    </g>
    <g id="text_12">
     <!-- forecast (1 day ahead) -->
     <g style="fill: #262626" transform="translate(343.189625 76.34575) scale(0.176 -0.176)">
      <defs>
       <path id="ArialMT-66" d="M 556 0 
L 556 2881 
L 59 2881 
L 59 3319 
L 556 3319 
L 556 3672 
Q 556 4006 616 4169 
Q 697 4388 901 4523 
Q 1106 4659 1475 4659 
Q 1713 4659 2000 4603 
L 1916 4113 
Q 1741 4144 1584 4144 
Q 1328 4144 1222 4034 
Q 1116 3925 1116 3625 
L 1116 3319 
L 1763 3319 
L 1763 2881 
L 1116 2881 
L 1116 0 
L 556 0 
z
" transform="scale(0.015625)"/>
       <path id="ArialMT-6f" d="M 213 1659 
Q 213 2581 725 3025 
Q 1153 3394 1769 3394 
Q 2453 3394 2887 2945 
Q 3322 2497 3322 1706 
Q 3322 1066 3130 698 
Q 2938 331 2570 128 
Q 2203 -75 1769 -75 
Q 1072 -75 642 372 
Q 213 819 213 1659 
z
M 791 1659 
Q 791 1022 1069 705 
Q 1347 388 1769 388 
Q 2188 388 2466 706 
Q 2744 1025 2744 1678 
Q 2744 2294 2464 2611 
Q 2184 2928 1769 2928 
Q 1347 2928 1069 2612 
Q 791 2297 791 1659 
z
" transform="scale(0.015625)"/>
       <path id="ArialMT-72" d="M 416 0 
L 416 3319 
L 922 3319 
L 922 2816 
Q 1116 3169 1280 3281 
Q 1444 3394 1641 3394 
Q 1925 3394 2219 3213 
L 2025 2691 
Q 1819 2813 1613 2813 
Q 1428 2813 1281 2702 
Q 1134 2591 1072 2394 
Q 978 2094 978 1738 
L 978 0 
L 416 0 
z
" transform="scale(0.015625)"/>
       <path id="ArialMT-73" d="M 197 991 
L 753 1078 
Q 800 744 1014 566 
Q 1228 388 1613 388 
Q 2000 388 2187 545 
Q 2375 703 2375 916 
Q 2375 1106 2209 1216 
Q 2094 1291 1634 1406 
Q 1016 1563 777 1677 
Q 538 1791 414 1992 
Q 291 2194 291 2438 
Q 291 2659 392 2848 
Q 494 3038 669 3163 
Q 800 3259 1026 3326 
Q 1253 3394 1513 3394 
Q 1903 3394 2198 3281 
Q 2494 3169 2634 2976 
Q 2775 2784 2828 2463 
L 2278 2388 
Q 2241 2644 2061 2787 
Q 1881 2931 1553 2931 
Q 1166 2931 1000 2803 
Q 834 2675 834 2503 
Q 834 2394 903 2306 
Q 972 2216 1119 2156 
Q 1203 2125 1616 2013 
Q 2213 1853 2448 1751 
Q 2684 1650 2818 1456 
Q 2953 1263 2953 975 
Q 2953 694 2789 445 
Q 2625 197 2315 61 
Q 2006 -75 1616 -75 
Q 969 -75 630 194 
Q 291 463 197 991 
z
" transform="scale(0.015625)"/>
       <path id="ArialMT-20" transform="scale(0.015625)"/>
       <path id="ArialMT-28" d="M 1497 -1347 
Q 1031 -759 709 28 
Q 388 816 388 1659 
Q 388 2403 628 3084 
Q 909 3875 1497 4659 
L 1900 4659 
Q 1522 4009 1400 3731 
Q 1209 3300 1100 2831 
Q 966 2247 966 1656 
Q 966 153 1900 -1347 
L 1497 -1347 
z
" transform="scale(0.015625)"/>
       <path id="ArialMT-64" d="M 2575 0 
L 2575 419 
Q 2259 -75 1647 -75 
Q 1250 -75 917 144 
Q 584 363 401 755 
Q 219 1147 219 1656 
Q 219 2153 384 2558 
Q 550 2963 881 3178 
Q 1213 3394 1622 3394 
Q 1922 3394 2156 3267 
Q 2391 3141 2538 2938 
L 2538 4581 
L 3097 4581 
L 3097 0 
L 2575 0 
z
M 797 1656 
Q 797 1019 1065 703 
Q 1334 388 1700 388 
Q 2069 388 2326 689 
Q 2584 991 2584 1609 
Q 2584 2291 2321 2609 
Q 2059 2928 1675 2928 
Q 1300 2928 1048 2622 
Q 797 2316 797 1656 
z
" transform="scale(0.015625)"/>
       <path id="ArialMT-79" d="M 397 -1278 
L 334 -750 
Q 519 -800 656 -800 
Q 844 -800 956 -737 
Q 1069 -675 1141 -563 
Q 1194 -478 1313 -144 
Q 1328 -97 1363 -6 
L 103 3319 
L 709 3319 
L 1400 1397 
Q 1534 1031 1641 628 
Q 1738 1016 1872 1384 
L 2581 3319 
L 3144 3319 
L 1881 -56 
Q 1678 -603 1566 -809 
Q 1416 -1088 1222 -1217 
Q 1028 -1347 759 -1347 
Q 597 -1347 397 -1278 
z
" transform="scale(0.015625)"/>
       <path id="ArialMT-68" d="M 422 0 
L 422 4581 
L 984 4581 
L 984 2938 
Q 1378 3394 1978 3394 
Q 2347 3394 2619 3248 
Q 2891 3103 3008 2847 
Q 3125 2591 3125 2103 
L 3125 0 
L 2563 0 
L 2563 2103 
Q 2563 2525 2380 2717 
Q 2197 2909 1863 2909 
Q 1613 2909 1392 2779 
Q 1172 2650 1078 2428 
Q 984 2206 984 1816 
L 984 0 
L 422 0 
z
" transform="scale(0.015625)"/>
       <path id="ArialMT-29" d="M 791 -1347 
L 388 -1347 
Q 1322 153 1322 1656 
Q 1322 2244 1188 2822 
Q 1081 3291 891 3722 
Q 769 4003 388 4659 
L 791 4659 
Q 1378 3875 1659 3084 
Q 1900 2403 1900 1659 
Q 1900 816 1576 28 
Q 1253 -759 791 -1347 
z
" transform="scale(0.015625)"/>
      </defs>
      <use xlink:href="#ArialMT-66"/>
      <use xlink:href="#ArialMT-6f" x="27.783203"/>
      <use xlink:href="#ArialMT-72" x="83.398438"/>
      <use xlink:href="#ArialMT-65" x="116.699219"/>
      <use xlink:href="#ArialMT-63" x="172.314453"/>
      <use xlink:href="#ArialMT-61" x="222.314453"/>
      <use xlink:href="#ArialMT-73" x="277.929688"/>
      <use xlink:href="#ArialMT-74" x="327.929688"/>
      <use xlink:href="#ArialMT-20" x="355.712891"/>
      <use xlink:href="#ArialMT-28" x="383.496094"/>
      <use xlink:href="#ArialMT-31" x="416.796875"/>
      <use xlink:href="#ArialMT-20" x="472.412109"/>
      <use xlink:href="#ArialMT-64" x="500.195312"/>
      <use xlink:href="#ArialMT-61" x="555.810547"/>
      <use xlink:href="#ArialMT-79" x="611.425781"/>
      <use xlink:href="#ArialMT-20" x="661.425781"/>
      <use xlink:href="#ArialMT-61" x="689.208984"/>
      <use xlink:href="#ArialMT-68" x="744.824219"/>
      <use xlink:href="#ArialMT-65" x="800.439453"/>
      <use xlink:href="#ArialMT-61" x="856.054688"/>
      <use xlink:href="#ArialMT-64" x="911.669922"/>
      <use xlink:href="#ArialMT-29" x="967.285156"/>
     </g>
    </g>
    <g id="line2d_15">
     <path d="M 293.909625 95.50225 
L 311.509625 95.50225 
L 329.109625 95.50225 
" style="fill: none; stroke: #55a868; stroke-width: 1.2; stroke-linecap: round"/>
    </g>
    <g id="text_13">
     <!-- forecast (14 days ahead) -->
     <g style="fill: #262626" transform="translate(343.189625 101.66225) scale(0.176 -0.176)">
      <use xlink:href="#ArialMT-66"/>
      <use xlink:href="#ArialMT-6f" x="27.783203"/>
      <use xlink:href="#ArialMT-72" x="83.398438"/>
      <use xlink:href="#ArialMT-65" x="116.699219"/>
      <use xlink:href="#ArialMT-63" x="172.314453"/>
      <use xlink:href="#ArialMT-61" x="222.314453"/>
      <use xlink:href="#ArialMT-73" x="277.929688"/>
      <use xlink:href="#ArialMT-74" x="327.929688"/>
      <use xlink:href="#ArialMT-20" x="355.712891"/>
      <use xlink:href="#ArialMT-28" x="383.496094"/>
      <use xlink:href="#ArialMT-31" x="416.796875"/>
      <use xlink:href="#ArialMT-34" x="472.412109"/>
      <use xlink:href="#ArialMT-20" x="528.027344"/>
      <use xlink:href="#ArialMT-64" x="555.810547"/>
      <use xlink:href="#ArialMT-61" x="611.425781"/>
      <use xlink:href="#ArialMT-79" x="667.041016"/>
      <use xlink:href="#ArialMT-73" x="717.041016"/>
      <use xlink:href="#ArialMT-20" x="767.041016"/>
      <use xlink:href="#ArialMT-61" x="794.824219"/>
      <use xlink:href="#ArialMT-68" x="850.439453"/>
      <use xlink:href="#ArialMT-65" x="906.054688"/>
      <use xlink:href="#ArialMT-61" x="961.669922"/>
      <use xlink:href="#ArialMT-64" x="1017.285156"/>
      <use xlink:href="#ArialMT-29" x="1072.900391"/>
     </g>
    </g>
   </g>
  </g>
 </g>
 <defs>
  <clipPath id="p06ade6b1f1">
   <rect x="25.28725" y="22.79775" width="781.2" height="221.76"/>
  </clipPath>
 </defs>
</svg>
