<?xml version="1.0" encoding="utf-8" standalone="no"?>
<!DOCTYPE svg PUBLIC "-//W3C//DTD SVG 1.1//EN"
  "http://www.w3.org/Graphics/SVG/1.1/DTD/svg11.dtd">
<svg xmlns:xlink="http://www.w3.org/1999/xlink" width="828.364pt" height="169.41875pt" viewBox="0 0 828.364 169.41875" xmlns="http://www.w3.org/2000/svg" version="1.1">
 <metadata>
  <rdf:RDF xmlns:dc="http://purl.org/dc/elements/1.1/" xmlns:cc="http://creativecommons.org/ns#" xmlns:rdf="http://www.w3.org/1999/02/22-rdf-syntax-ns#">
   <cc:Work>
    <dc:type rdf:resource="http://purl.org/dc/dcmitype/StillImage"/>
    <dc:date>2023-05-13T10:42:38.696505</dc:date>
    <dc:format>image/svg+xml</dc:format>
    <dc:creator>
     <cc:Agent>
      <dc:title>Matplotlib v3.7.1, https://matplotlib.org/</dc:title>
     </cc:Agent>
    </dc:creator>
   </cc:Work>
  </rdf:RDF>
 </metadata>
 <defs>
  <style type="text/css">*{stroke-linejoin: round; stroke-linecap: butt}</style>
 </defs>
 <g id="figure_1">
  <g id="patch_1">
   <path d="M 0 169.41875 
L 828.364 169.41875 
L 828.364 0 
L 0 0 
z
" style="fill: #ffffff"/>
  </g>
  <g id="axes_1">
   <g id="patch_2">
    <path d="M 39.964 137.823 
L 821.164 137.823 
L 821.164 26.943 
L 39.964 26.943 
z
" style="fill: #ffffff"/>
   </g>
   <g id="matplotlib.axis_1">
    <g id="xtick_1">
     <g id="line2d_1">
      <path d="M 104.524548 137.823 
L 104.524548 26.943 
" clip-path="url(#pa6964da073)" style="fill: none; stroke: #cccccc; stroke-width: 0.8; stroke-linecap: round"/>
     </g>
     <g id="text_1">
      <!-- 2017 -->
      <g style="fill: #262626" transform="translate(84.950048 158.72075) scale(0.176 -0.176)">
       <defs>
        <path id="ArialMT-32" d="M 3222 541 
L 3222 0 
L 194 0 
Q 188 203 259 391 
Q 375 700 629 1000 
Q 884 1300 1366 1694 
Q 2113 2306 2375 2664 
Q 2638 3022 2638 3341 
Q 2638 3675 2398 3904 
Q 2159 4134 1775 4134 
Q 1369 4134 1125 3890 
Q 881 3647 878 3216 
L 300 3275 
Q 359 3922 746 4261 
Q 1134 4600 1788 4600 
Q 2447 4600 2831 4234 
Q 3216 3869 3216 3328 
Q 3216 3053 3103 2787 
Q 2991 2522 2730 2228 
Q 2469 1934 1863 1422 
Q 1356 997 1212 845 
Q 1069 694 975 541 
L 3222 541 
z
" transform="scale(0.015625)"/>
        <path id="ArialMT-30" d="M 266 2259 
Q 266 3072 433 3567 
Q 600 4063 929 4331 
Q 1259 4600 1759 4600 
Q 2128 4600 2406 4451 
Q 2684 4303 2865 4023 
Q 3047 3744 3150 3342 
Q 3253 2941 3253 2259 
Q 3253 1453 3087 958 
Q 2922 463 2592 192 
Q 2263 -78 1759 -78 
Q 1097 -78 719 397 
Q 266 969 266 2259 
z
M 844 2259 
Q 844 1131 1108 757 
Q 1372 384 1759 384 
Q 2147 384 2411 759 
Q 2675 1134 2675 2259 
Q 2675 3391 2411 3762 
Q 2147 4134 1753 4134 
Q 1366 4134 1134 3806 
Q 844 3388 844 2259 
z
" transform="scale(0.015625)"/>
        <path id="ArialMT-31" d="M 2384 0 
L 1822 0 
L 1822 3584 
Q 1619 3391 1289 3197 
Q 959 3003 697 2906 
L 697 3450 
Q 1169 3672 1522 3987 
Q 1875 4303 2022 4600 
L 2384 4600 
L 2384 0 
z
" transform="scale(0.015625)"/>
        <path id="ArialMT-37" d="M 303 3981 
L 303 4522 
L 3269 4522 
L 3269 4084 
Q 2831 3619 2401 2847 
Q 1972 2075 1738 1259 
Q 1569 684 1522 0 
L 944 0 
Q 953 541 1156 1306 
Q 1359 2072 1739 2783 
Q 2119 3494 2547 3981 
L 303 3981 
z
" transform="scale(0.015625)"/>
       </defs>
       <use xlink:href="#ArialMT-32"/>
       <use xlink:href="#ArialMT-30" x="55.615234"/>
       <use xlink:href="#ArialMT-31" x="111.230469"/>
       <use xlink:href="#ArialMT-37" x="166.845703"/>
      </g>
     </g>
    </g>
    <g id="xtick_2">
     <g id="line2d_2">
      <path d="M 219.783047 137.823 
L 219.783047 26.943 
" clip-path="url(#pa6964da073)" style="fill: none; stroke: #cccccc; stroke-width: 0.8; stroke-linecap: round"/>
     </g>
     <g id="text_2">
      <!-- 2018 -->
      <g style="fill: #262626" transform="translate(200.208547 158.72075) scale(0.176 -0.176)">
       <defs>
        <path id="ArialMT-38" d="M 1131 2484 
Q 781 2613 612 2850 
Q 444 3088 444 3419 
Q 444 3919 803 4259 
Q 1163 4600 1759 4600 
Q 2359 4600 2725 4251 
Q 3091 3903 3091 3403 
Q 3091 3084 2923 2848 
Q 2756 2613 2416 2484 
Q 2838 2347 3058 2040 
Q 3278 1734 3278 1309 
Q 3278 722 2862 322 
Q 2447 -78 1769 -78 
Q 1091 -78 675 323 
Q 259 725 259 1325 
Q 259 1772 486 2073 
Q 713 2375 1131 2484 
z
M 1019 3438 
Q 1019 3113 1228 2906 
Q 1438 2700 1772 2700 
Q 2097 2700 2305 2904 
Q 2513 3109 2513 3406 
Q 2513 3716 2298 3927 
Q 2084 4138 1766 4138 
Q 1444 4138 1231 3931 
Q 1019 3725 1019 3438 
z
M 838 1322 
Q 838 1081 952 856 
Q 1066 631 1291 507 
Q 1516 384 1775 384 
Q 2178 384 2440 643 
Q 2703 903 2703 1303 
Q 2703 1709 2433 1975 
Q 2163 2241 1756 2241 
Q 1359 2241 1098 1978 
Q 838 1716 838 1322 
z
" transform="scale(0.015625)"/>
       </defs>
       <use xlink:href="#ArialMT-32"/>
       <use xlink:href="#ArialMT-30" x="55.615234"/>
       <use xlink:href="#ArialMT-31" x="111.230469"/>
       <use xlink:href="#ArialMT-38" x="166.845703"/>
      </g>
     </g>
    </g>
    <g id="xtick_3">
     <g id="line2d_3">
      <path d="M 335.041546 137.823 
L 335.041546 26.943 
" clip-path="url(#pa6964da073)" style="fill: none; stroke: #cccccc; stroke-width: 0.8; stroke-linecap: round"/>
     </g>
     <g id="text_3">
      <!-- 2019 -->
      <g style="fill: #262626" transform="translate(315.467046 158.72075) scale(0.176 -0.176)">
       <defs>
        <path id="ArialMT-39" d="M 350 1059 
L 891 1109 
Q 959 728 1153 556 
Q 1347 384 1650 384 
Q 1909 384 2104 503 
Q 2300 622 2425 820 
Q 2550 1019 2634 1356 
Q 2719 1694 2719 2044 
Q 2719 2081 2716 2156 
Q 2547 1888 2255 1720 
Q 1963 1553 1622 1553 
Q 1053 1553 659 1965 
Q 266 2378 266 3053 
Q 266 3750 677 4175 
Q 1088 4600 1706 4600 
Q 2153 4600 2523 4359 
Q 2894 4119 3086 3673 
Q 3278 3228 3278 2384 
Q 3278 1506 3087 986 
Q 2897 466 2520 194 
Q 2144 -78 1638 -78 
Q 1100 -78 759 220 
Q 419 519 350 1059 
z
M 2653 3081 
Q 2653 3566 2395 3850 
Q 2138 4134 1775 4134 
Q 1400 4134 1122 3828 
Q 844 3522 844 3034 
Q 844 2597 1108 2323 
Q 1372 2050 1759 2050 
Q 2150 2050 2401 2323 
Q 2653 2597 2653 3081 
z
" transform="scale(0.015625)"/>
       </defs>
       <use xlink:href="#ArialMT-32"/>
       <use xlink:href="#ArialMT-30" x="55.615234"/>
       <use xlink:href="#ArialMT-31" x="111.230469"/>
       <use xlink:href="#ArialMT-39" x="166.845703"/>
      </g>
     </g>
    </g>
    <g id="xtick_4">
     <g id="line2d_4">
      <path d="M 450.300044 137.823 
L 450.300044 26.943 
" clip-path="url(#pa6964da073)" style="fill: none; stroke: #cccccc; stroke-width: 0.8; stroke-linecap: round"/>
     </g>
     <g id="text_4">
      <!-- 2020 -->
      <g style="fill: #262626" transform="translate(430.725544 158.72075) scale(0.176 -0.176)">
       <use xlink:href="#ArialMT-32"/>
       <use xlink:href="#ArialMT-30" x="55.615234"/>
       <use xlink:href="#ArialMT-32" x="111.230469"/>
       <use xlink:href="#ArialMT-30" x="166.845703"/>
      </g>
     </g>
    </g>
    <g id="xtick_5">
     <g id="line2d_5">
      <path d="M 565.87432 137.823 
L 565.87432 26.943 
" clip-path="url(#pa6964da073)" style="fill: none; stroke: #cccccc; stroke-width: 0.8; stroke-linecap: round"/>
     </g>
     <g id="text_5">
      <!-- 2021 -->
      <g style="fill: #262626" transform="translate(546.29982 158.72075) scale(0.176 -0.176)">
       <use xlink:href="#ArialMT-32"/>
       <use xlink:href="#ArialMT-30" x="55.615234"/>
       <use xlink:href="#ArialMT-32" x="111.230469"/>
       <use xlink:href="#ArialMT-31" x="166.845703"/>
      </g>
     </g>
    </g>
    <g id="xtick_6">
     <g id="line2d_6">
      <path d="M 681.132818 137.823 
L 681.132818 26.943 
" clip-path="url(#pa6964da073)" style="fill: none; stroke: #cccccc; stroke-width: 0.8; stroke-linecap: round"/>
     </g>
     <g id="text_6">
      <!-- 2022 -->
      <g style="fill: #262626" transform="translate(661.558318 158.72075) scale(0.176 -0.176)">
       <use xlink:href="#ArialMT-32"/>
       <use xlink:href="#ArialMT-30" x="55.615234"/>
       <use xlink:href="#ArialMT-32" x="111.230469"/>
       <use xlink:href="#ArialMT-32" x="166.845703"/>
      </g>
     </g>
    </g>
    <g id="xtick_7">
     <g id="line2d_7">
      <path d="M 796.391317 137.823 
L 796.391317 26.943 
" clip-path="url(#pa6964da073)" style="fill: none; stroke: #cccccc; stroke-width: 0.8; stroke-linecap: round"/>
     </g>
     <g id="text_7">
      <!-- 2023 -->
      <g style="fill: #262626" transform="translate(776.816817 158.72075) scale(0.176 -0.176)">
       <defs>
        <path id="ArialMT-33" d="M 269 1209 
L 831 1284 
Q 928 806 1161 595 
Q 1394 384 1728 384 
Q 2125 384 2398 659 
Q 2672 934 2672 1341 
Q 2672 1728 2419 1979 
Q 2166 2231 1775 2231 
Q 1616 2231 1378 2169 
L 1441 2663 
Q 1497 2656 1531 2656 
Q 1891 2656 2178 2843 
Q 2466 3031 2466 3422 
Q 2466 3731 2256 3934 
Q 2047 4138 1716 4138 
Q 1388 4138 1169 3931 
Q 950 3725 888 3313 
L 325 3413 
Q 428 3978 793 4289 
Q 1159 4600 1703 4600 
Q 2078 4600 2393 4439 
Q 2709 4278 2876 4000 
Q 3044 3722 3044 3409 
Q 3044 3113 2884 2869 
Q 2725 2625 2413 2481 
Q 2819 2388 3044 2092 
Q 3269 1797 3269 1353 
Q 3269 753 2831 336 
Q 2394 -81 1725 -81 
Q 1122 -81 723 278 
Q 325 638 269 1209 
z
" transform="scale(0.015625)"/>
       </defs>
       <use xlink:href="#ArialMT-32"/>
       <use xlink:href="#ArialMT-30" x="55.615234"/>
       <use xlink:href="#ArialMT-32" x="111.230469"/>
       <use xlink:href="#ArialMT-33" x="166.845703"/>
      </g>
     </g>
    </g>
   </g>
   <g id="matplotlib.axis_2">
    <g id="ytick_1">
     <g id="line2d_8">
      <path d="M 39.964 137.823 
L 821.164 137.823 
" clip-path="url(#pa6964da073)" style="fill: none; stroke: #cccccc; stroke-width: 0.8; stroke-linecap: round"/>
     </g>
     <g id="text_8">
      <!-- 0.0 -->
      <g style="fill: #262626" transform="translate(7.2 144.121875) scale(0.176 -0.176)">
       <defs>
        <path id="ArialMT-2e" d="M 581 0 
L 581 641 
L 1222 641 
L 1222 0 
L 581 0 
z
" transform="scale(0.015625)"/>
       </defs>
       <use xlink:href="#ArialMT-30"/>
       <use xlink:href="#ArialMT-2e" x="55.615234"/>
       <use xlink:href="#ArialMT-30" x="83.398438"/>
      </g>
     </g>
    </g>
    <g id="ytick_2">
     <g id="line2d_9">
      <path d="M 39.964 94.418315 
L 821.164 94.418315 
" clip-path="url(#pa6964da073)" style="fill: none; stroke: #cccccc; stroke-width: 0.8; stroke-linecap: round"/>
     </g>
     <g id="text_9">
      <!-- 2.5 -->
      <g style="fill: #262626" transform="translate(7.2 100.71719) scale(0.176 -0.176)">
       <defs>
        <path id="ArialMT-35" d="M 266 1200 
L 856 1250 
Q 922 819 1161 601 
Q 1400 384 1738 384 
Q 2144 384 2425 690 
Q 2706 997 2706 1503 
Q 2706 1984 2436 2262 
Q 2166 2541 1728 2541 
Q 1456 2541 1237 2417 
Q 1019 2294 894 2097 
L 366 2166 
L 809 4519 
L 3088 4519 
L 3088 3981 
L 1259 3981 
L 1013 2750 
Q 1425 3038 1878 3038 
Q 2478 3038 2890 2622 
Q 3303 2206 3303 1553 
Q 3303 931 2941 478 
Q 2500 -78 1738 -78 
Q 1113 -78 717 272 
Q 322 622 266 1200 
z
" transform="scale(0.015625)"/>
       </defs>
       <use xlink:href="#ArialMT-32"/>
       <use xlink:href="#ArialMT-2e" x="55.615234"/>
       <use xlink:href="#ArialMT-35" x="83.398438"/>
      </g>
     </g>
    </g>
    <g id="ytick_3">
     <g id="line2d_10">
      <path d="M 39.964 51.013631 
L 821.164 51.013631 
" clip-path="url(#pa6964da073)" style="fill: none; stroke: #cccccc; stroke-width: 0.8; stroke-linecap: round"/>
     </g>
     <g id="text_10">
      <!-- 5.0 -->
      <g style="fill: #262626" transform="translate(7.2 57.312506) scale(0.176 -0.176)">
       <use xlink:href="#ArialMT-35"/>
       <use xlink:href="#ArialMT-2e" x="55.615234"/>
       <use xlink:href="#ArialMT-30" x="83.398438"/>
      </g>
     </g>
    </g>
    <g id="text_11">
     <!-- 1e6 -->
     <g style="fill: #262626" transform="translate(39.964 23.943) scale(0.176 -0.176)">
      <defs>
       <path id="ArialMT-65" d="M 2694 1069 
L 3275 997 
Q 3138 488 2766 206 
Q 2394 -75 1816 -75 
Q 1088 -75 661 373 
Q 234 822 234 1631 
Q 234 2469 665 2931 
Q 1097 3394 1784 3394 
Q 2450 3394 2872 2941 
Q 3294 2488 3294 1666 
Q 3294 1616 3291 1516 
L 816 1516 
Q 847 969 1125 678 
Q 1403 388 1819 388 
Q 2128 388 2347 550 
Q 2566 713 2694 1069 
z
M 847 1978 
L 2700 1978 
Q 2663 2397 2488 2606 
Q 2219 2931 1791 2931 
Q 1403 2931 1139 2672 
Q 875 2413 847 1978 
z
" transform="scale(0.015625)"/>
       <path id="ArialMT-36" d="M 3184 3459 
L 2625 3416 
Q 2550 3747 2413 3897 
Q 2184 4138 1850 4138 
Q 1581 4138 1378 3988 
Q 1113 3794 959 3422 
Q 806 3050 800 2363 
Q 1003 2672 1297 2822 
Q 1591 2972 1913 2972 
Q 2475 2972 2870 2558 
Q 3266 2144 3266 1488 
Q 3266 1056 3080 686 
Q 2894 316 2569 119 
Q 2244 -78 1831 -78 
Q 1128 -78 684 439 
Q 241 956 241 2144 
Q 241 3472 731 4075 
Q 1159 4600 1884 4600 
Q 2425 4600 2770 4297 
Q 3116 3994 3184 3459 
z
M 888 1484 
Q 888 1194 1011 928 
Q 1134 663 1356 523 
Q 1578 384 1822 384 
Q 2178 384 2434 671 
Q 2691 959 2691 1453 
Q 2691 1928 2437 2201 
Q 2184 2475 1800 2475 
Q 1419 2475 1153 2201 
Q 888 1928 888 1484 
z
" transform="scale(0.015625)"/>
      </defs>
      <use xlink:href="#ArialMT-31"/>
      <use xlink:href="#ArialMT-65" x="55.615234"/>
      <use xlink:href="#ArialMT-36" x="111.230469"/>
     </g>
    </g>
   </g>
   <g id="patch_3">
    <path d="M 75.473091 137.823 
L 75.473091 26.943 
L 565.558543 26.943 
L 565.558543 137.823 
z
" clip-path="url(#pa6964da073)" style="fill: #0000ff; opacity: 0.1; stroke: #0000ff; stroke-width: 0.8; stroke-linejoin: miter"/>
   </g>
   <g id="patch_4">
    <path d="M 565.558543 137.823 
L 565.558543 26.943 
L 785.654909 26.943 
L 785.654909 137.823 
z
" clip-path="url(#pa6964da073)" style="fill: #008000; opacity: 0.1; stroke: #008000; stroke-width: 0.8; stroke-linejoin: miter"/>
   </g>
   <g id="line2d_11">
    <path d="M 75.473091 109.019056 
L 75.788868 107.597496 
L 76.104644 104.544427 
L 76.736198 94.213906 
L 77.051974 91.325641 
L 77.367751 91.884624 
L 77.683528 95.110725 
L 77.999305 92.828475 
L 78.315081 85.426318 
L 78.630858 84.436144 
L 78.946635 84.220289 
L 79.262411 86.085662 
L 79.578188 89.431271 
L 79.893965 95.967958 
L 80.209742 97.46067 
L 80.525518 92.348429 
L 80.841295 92.45775 
L 81.472848 85.528609 
L 81.788625 83.896056 
L 82.104402 87.658673 
L 82.420179 87.125996 
L 82.735955 84.77119 
L 83.367509 85.049215 
L 83.999062 91.02698 
L 84.314839 93.798849 
L 84.630615 93.957924 
L 84.946392 90.099539 
L 85.262169 90.719532 
L 85.893722 79.30742 
L 86.209499 79.592619 
L 86.525276 85.245196 
L 86.841052 82.405628 
L 87.156829 70.940584 
L 87.472606 66.121051 
L 87.788383 64.895006 
L 88.104159 64.753847 
L 88.419936 65.167785 
L 88.735713 68.767324 
L 89.051489 66.995852 
L 89.367266 60.986366 
L 89.683043 67.039103 
L 89.99882 77.089892 
L 90.314596 83.137707 
L 90.630373 85.072204 
L 90.94615 86.018987 
L 91.261926 87.359796 
L 91.577703 85.199241 
L 91.89348 85.840283 
L 92.209256 84.739577 
L 92.525033 81.625424 
L 92.84081 76.969527 
L 93.156587 78.769108 
L 93.472363 77.463684 
L 93.78814 61.681529 
L 94.103917 56.997398 
L 94.419693 59.386658 
L 94.73547 65.540553 
L 95.051247 66.142533 
L 95.367024 67.456423 
L 95.6828 63.610896 
L 95.998577 53.056224 
L 96.314354 52.642412 
L 96.63013 57.152251 
L 97.577461 80.420189 
L 97.893237 82.56904 
L 98.209014 74.190162 
L 98.524791 70.521391 
L 98.840567 71.365053 
L 99.156344 69.896146 
L 99.472121 65.158568 
L 100.103674 72.239732 
L 100.735228 61.713086 
L 101.051004 62.525903 
L 101.366781 65.662724 
L 101.682558 72.171611 
L 101.998334 83.293632 
L 102.314111 89.11911 
L 102.629888 89.599594 
L 103.261441 77.193591 
L 103.577218 70.856694 
L 103.892995 67.260778 
L 104.208771 69.057158 
L 104.524548 68.796852 
L 104.840325 61.104007 
L 105.156102 62.916194 
L 105.471878 62.947295 
L 105.787655 53.318301 
L 106.103432 48.236175 
L 106.734985 56.521209 
L 107.050762 51.785697 
L 107.366539 54.693852 
L 107.682315 61.177591 
L 107.998092 64.013053 
L 108.313869 62.998318 
L 108.629645 66.70027 
L 108.945422 61.568713 
L 109.261199 48.111816 
L 109.576975 45.559305 
L 109.892752 44.269993 
L 110.208529 44.345684 
L 110.524306 48.215523 
L 110.840082 54.55426 
L 111.155859 52.841679 
L 111.471636 44.991039 
L 111.787412 45.033829 
L 112.103189 44.948926 
L 112.734743 51.558377 
L 113.050519 60.399482 
L 113.366296 64.260612 
L 113.682073 61.404785 
L 113.997849 60.583138 
L 114.313626 61.827641 
L 114.629403 68.006344 
L 114.94518 71.583788 
L 115.260956 77.065 
L 115.576733 75.648601 
L 115.89251 64.848406 
L 116.83984 52.203699 
L 117.155616 54.024888 
L 117.471393 63.056114 
L 117.78717 63.185204 
L 118.102947 58.412409 
L 118.418723 59.428057 
L 118.7345 63.779611 
L 119.050277 70.73636 
L 119.366053 72.433715 
L 119.68183 77.49608 
L 119.997607 78.383037 
L 120.313384 77.989759 
L 120.944937 84.915044 
L 121.260714 85.110655 
L 121.57649 77.495007 
L 122.208044 83.32441 
L 122.523821 83.562921 
L 122.839597 80.323701 
L 123.471151 78.195799 
L 123.786927 79.121581 
L 124.102704 89.239802 
L 124.418481 88.154817 
L 124.734257 78.187681 
L 125.050034 73.105502 
L 125.365811 75.457177 
L 125.681588 80.135378 
L 125.997364 79.383856 
L 126.313141 84.457343 
L 126.628918 84.593647 
L 126.944694 78.099517 
L 127.260471 82.287198 
L 128.207801 87.49105 
L 128.523578 91.357972 
L 128.839355 93.305553 
L 129.786685 83.78243 
L 130.102462 84.548597 
L 130.418238 85.719287 
L 130.734015 92.759801 
L 131.049792 91.381415 
L 131.365568 87.669136 
L 131.681345 92.684407 
L 132.628675 102.953941 
L 132.944452 106.322318 
L 133.260229 104.784433 
L 133.576005 96.250538 
L 134.523335 88.931465 
L 134.839112 90.385992 
L 135.154889 97.254207 
L 135.470666 101.640352 
L 136.102219 92.761504 
L 136.417996 94.135466 
L 136.733772 93.249267 
L 137.049549 96.771464 
L 137.365326 97.536353 
L 137.681103 94.61505 
L 137.996879 89.532018 
L 138.312656 78.599854 
L 138.628433 73.866684 
L 138.944209 75.125036 
L 139.575763 89.518298 
L 139.89154 88.653926 
L 140.207316 87.084115 
L 140.83887 80.163349 
L 141.154646 80.092594 
L 141.470423 82.963569 
L 142.101976 96.94712 
L 142.417753 97.283714 
L 142.73353 91.786166 
L 143.049307 93.146648 
L 143.365083 91.683869 
L 143.68086 92.685841 
L 143.996637 100.836494 
L 144.312413 101.777548 
L 144.62819 93.934499 
L 144.943967 90.824342 
L 145.259744 90.860169 
L 146.207074 109.076558 
L 146.52285 110.208594 
L 146.838627 105.75142 
L 147.154404 106.904073 
L 147.470181 109.361014 
L 147.785957 109.7746 
L 148.101734 108.805752 
L 148.417511 111.19785 
L 148.733287 110.780162 
L 149.049064 106.897129 
L 149.364841 108.767434 
L 149.680617 108.178513 
L 149.996394 112.31479 
L 150.312171 111.808312 
L 150.627948 115.449515 
L 150.943724 116.141441 
L 151.259501 111.111507 
L 151.575278 111.037927 
L 151.891054 110.670215 
L 152.206831 109.884034 
L 152.522608 111.463693 
L 152.838385 116.166187 
L 153.154161 116.536444 
L 153.469938 115.06813 
L 153.785715 109.614858 
L 154.101491 108.228176 
L 154.417268 108.393026 
L 154.733045 109.183795 
L 155.048822 113.930101 
L 155.364598 115.906963 
L 155.680375 111.444514 
L 155.996152 109.868236 
L 156.311928 110.283795 
L 156.627705 113.49477 
L 156.943482 112.645601 
L 157.259258 114.429365 
L 157.575035 114.864756 
L 157.890812 110.9229 
L 158.206589 111.319953 
L 158.522365 110.822524 
L 159.153919 113.199702 
L 159.469695 116.614069 
L 159.785472 116.214788 
L 160.101249 109.520653 
L 160.417026 109.193521 
L 160.732802 109.685457 
L 161.048579 109.23243 
L 161.364356 111.140937 
L 161.680132 113.867302 
L 161.995909 113.581863 
L 162.311686 108.892219 
L 162.627463 108.817767 
L 162.943239 108.54004 
L 163.259016 108.950961 
L 163.574793 110.490239 
L 163.890569 115.434293 
L 164.206346 115.284675 
L 164.522123 109.482399 
L 164.8379 108.936229 
L 165.153676 109.011289 
L 165.469453 107.385181 
L 165.78523 108.147275 
L 166.101006 112.339162 
L 166.416783 113.744977 
L 166.73256 109.078991 
L 167.364113 111.072475 
L 167.67989 110.650088 
L 167.995667 112.191642 
L 168.311443 116.799982 
L 168.62722 116.295464 
L 168.942997 109.733411 
L 169.258773 109.093352 
L 169.57455 109.135151 
L 169.890327 109.899596 
L 170.206104 112.015343 
L 170.52188 116.295521 
L 170.837657 117.352149 
L 171.153434 112.679499 
L 171.46921 112.635214 
L 171.784987 112.33676 
L 172.416541 114.30866 
L 172.732317 116.427819 
L 173.048094 115.601549 
L 173.363871 111.977534 
L 173.679647 111.930918 
L 173.995424 112.468245 
L 174.311201 110.070686 
L 174.626977 109.829373 
L 174.942754 113.580199 
L 175.258531 114.086087 
L 175.574308 112.161068 
L 175.890084 113.522032 
L 176.205861 112.217964 
L 176.521638 112.583789 
L 176.837414 113.36289 
L 177.153191 115.561145 
L 177.468968 114.573155 
L 177.784745 109.858926 
L 178.100521 109.407572 
L 178.416298 110.245957 
L 178.732075 110.536107 
L 179.047851 111.925596 
L 179.363628 116.169306 
L 179.679405 116.05776 
L 179.995182 110.919775 
L 180.310958 111.306668 
L 180.626735 111.465861 
L 180.942512 109.495631 
L 181.258288 108.710213 
L 181.574065 111.279221 
L 181.889842 110.163867 
L 182.205618 105.65575 
L 182.837172 108.948167 
L 183.152949 107.699399 
L 183.468725 108.769509 
L 183.784502 111.010426 
L 184.100279 110.413401 
L 184.416055 106.024069 
L 184.731832 104.981441 
L 185.047609 105.83393 
L 185.363386 102.921824 
L 185.679162 101.350231 
L 185.994939 103.695573 
L 186.310716 102.586981 
L 186.626492 95.479527 
L 186.942269 94.892918 
L 187.573823 97.758745 
L 187.889599 99.854736 
L 188.205376 105.030715 
L 188.521153 105.215964 
L 188.836929 99.508546 
L 189.152706 99.537842 
L 189.468483 100.365431 
L 189.78426 101.542092 
L 190.415813 108.413382 
L 190.73159 107.596722 
L 191.047366 105.648121 
L 191.363143 104.399996 
L 191.67892 99.11097 
L 191.994696 98.083662 
L 192.310473 95.910482 
L 192.62625 99.577063 
L 192.942027 98.991851 
L 193.257803 91.845989 
L 193.889357 98.794036 
L 194.52091 100.537756 
L 194.836687 106.123789 
L 195.152464 106.764684 
L 195.46824 103.276453 
L 195.784017 101.901129 
L 196.099794 99.664542 
L 196.41557 99.789979 
L 196.731347 100.837759 
L 197.047124 104.323376 
L 197.362901 101.297654 
L 197.678677 92.812282 
L 197.994454 94.611875 
L 198.310231 97.743049 
L 198.626007 96.967767 
L 198.941784 96.716842 
L 199.257561 97.323289 
L 199.573337 96.610482 
L 199.889114 87.603894 
L 200.204891 87.65453 
L 200.520668 88.775686 
L 200.836444 88.122731 
L 201.152221 86.683646 
L 201.467998 94.607394 
L 201.783774 90.780365 
L 202.099551 78.179163 
L 202.415328 75.786264 
L 202.731105 74.337183 
L 203.046881 76.719851 
L 203.678435 83.899665 
L 203.994211 80.182882 
L 204.309988 71.223245 
L 204.625765 71.065634 
L 204.941542 71.114761 
L 205.257318 72.507495 
L 205.573095 74.777487 
L 205.888872 80.32189 
L 206.204648 79.845818 
L 206.520425 71.512947 
L 206.836202 75.616138 
L 207.467755 85.881746 
L 207.783532 85.324538 
L 208.099309 84.104795 
L 208.415085 80.003968 
L 208.730862 72.216193 
L 209.046639 70.022036 
L 209.362415 63.217797 
L 209.678192 60.488642 
L 209.993969 59.138869 
L 210.309746 63.549437 
L 210.625522 65.337414 
L 210.941299 63.989485 
L 211.572852 70.112729 
L 211.888629 71.757285 
L 212.204406 69.403993 
L 212.520183 69.455667 
L 212.835959 67.927656 
L 213.151736 63.033455 
L 213.467513 62.633674 
L 213.783289 64.7898 
L 214.099066 65.900037 
L 214.414843 63.974856 
L 214.73062 68.979253 
L 215.046396 68.032706 
L 215.362173 59.439355 
L 215.67795 59.779574 
L 215.993726 64.005227 
L 216.941056 86.354203 
L 217.256833 90.254928 
L 217.888387 85.46966 
L 218.204163 78.051557 
L 218.51994 73.805141 
L 218.835717 72.023661 
L 219.46727 89.910937 
L 219.783047 87.943498 
L 220.098824 80.192944 
L 220.4146 80.356873 
L 220.730377 79.832575 
L 221.36193 82.049708 
L 221.677707 76.472891 
L 221.993484 67.53448 
L 222.625037 68.878175 
L 222.940814 66.637429 
L 223.256591 68.146325 
L 223.572367 72.048082 
L 224.203921 64.835018 
L 224.519697 67.34404 
L 224.835474 64.90421 
L 225.151251 67.871466 
L 225.467028 64.896529 
L 225.782804 68.787035 
L 226.098581 67.555899 
L 226.414358 64.478871 
L 226.730134 70.601849 
L 227.045911 80.244789 
L 227.361688 80.531457 
L 227.677465 78.862054 
L 228.309018 85.207478 
L 228.624795 81.918369 
L 228.940571 75.775219 
L 229.256348 77.809586 
L 229.572125 71.854734 
L 229.887902 69.177685 
L 230.203678 69.203264 
L 230.519455 65.213266 
L 230.835232 54.21292 
L 231.151008 50.588924 
L 231.466785 49.654539 
L 231.782562 49.33993 
L 232.098338 53.869245 
L 232.414115 62.647686 
L 232.729892 65.886211 
L 233.045669 60.374734 
L 233.361445 58.05854 
L 233.677222 57.116831 
L 233.992999 59.413857 
L 234.624552 66.40473 
L 234.940329 66.115319 
L 235.256106 57.353815 
L 235.571882 56.122138 
L 236.519212 54.56668 
L 236.834989 58.74918 
L 237.150766 53.790777 
L 237.466543 44.156219 
L 237.782319 41.309817 
L 238.098096 39.857929 
L 238.413873 41.309425 
L 238.729649 44.060846 
L 239.361203 63.084547 
L 239.992756 66.077923 
L 240.940086 75.753094 
L 241.255863 86.476481 
L 241.57164 91.924194 
L 243.4663 68.654479 
L 244.097853 52.887881 
L 244.41363 54.391866 
L 245.045184 61.566085 
L 245.36096 67.775272 
L 245.676737 79.632411 
L 245.992514 80.422277 
L 246.30829 73.639369 
L 246.939844 77.187181 
L 247.255621 77.989965 
L 247.571397 85.117868 
L 247.887174 84.684819 
L 248.202951 83.7173 
L 248.518727 86.147313 
L 249.150281 94.066608 
L 249.466057 90.325068 
L 249.781834 89.786143 
L 250.097611 98.529592 
L 250.413388 102.148478 
L 250.729164 101.218116 
L 251.044941 101.912909 
L 251.360718 100.734167 
L 251.676494 102.591331 
L 251.992271 101.102995 
L 252.308048 105.690953 
L 252.623825 105.787632 
L 252.939601 101.324597 
L 253.255378 102.472206 
L 254.518485 113.255831 
L 254.834262 113.74141 
L 255.150038 108.355809 
L 255.465815 106.038392 
L 255.781592 104.559937 
L 256.097368 99.433447 
L 256.413145 100.675883 
L 257.044698 109.52204 
L 257.676252 104.72503 
L 257.992029 100.067942 
L 258.307805 99.406988 
L 258.623582 101.209103 
L 258.939359 107.604242 
L 259.255135 110.35979 
L 259.570912 108.620303 
L 259.886689 110.031863 
L 260.202466 110.894209 
L 260.518242 112.925053 
L 260.834019 110.197784 
L 261.149796 113.681454 
L 261.465572 113.905035 
L 261.781349 110.388136 
L 262.412903 107.606744 
L 263.044456 105.767567 
L 263.676009 112.571383 
L 263.991786 113.612204 
L 264.307563 110.33717 
L 264.939116 110.700574 
L 265.254893 111.834662 
L 265.57067 115.720879 
L 265.886446 116.154028 
L 266.202223 113.260558 
L 266.833776 112.833785 
L 267.149553 115.551154 
L 267.46533 114.059868 
L 267.781107 115.919322 
L 268.096883 115.782627 
L 268.41266 112.061232 
L 268.728437 110.773248 
L 269.044213 111.771317 
L 269.35999 111.492318 
L 269.675767 112.308487 
L 269.991544 116.430977 
L 270.30732 116.69065 
L 270.623097 111.870994 
L 271.25465 108.479201 
L 271.570427 108.966747 
L 271.886204 110.072341 
L 272.201981 114.420596 
L 272.517757 114.401857 
L 272.833534 110.506548 
L 273.149311 110.584596 
L 273.465087 111.559258 
L 274.096641 108.257005 
L 274.412417 110.76993 
L 274.728194 109.975545 
L 275.043971 107.045129 
L 275.359748 108.067611 
L 275.675524 110.003259 
L 275.991301 110.55807 
L 276.307078 112.447796 
L 276.622854 115.59436 
L 276.938631 114.949874 
L 277.254408 111.637017 
L 277.570185 111.353895 
L 277.885961 111.2871 
L 278.201738 111.737239 
L 278.517515 112.554025 
L 278.833291 115.948431 
L 279.149068 115.36722 
L 279.464845 111.084098 
L 279.780622 109.434744 
L 280.096398 108.970412 
L 280.412175 109.839565 
L 280.727952 111.350294 
L 281.043728 115.238725 
L 281.359505 115.509287 
L 281.675282 111.88252 
L 282.306835 112.290561 
L 282.622612 111.838392 
L 282.938389 112.679336 
L 283.254165 115.498845 
L 283.569942 116.094592 
L 283.885719 112.026941 
L 284.201495 112.003038 
L 284.833049 113.135726 
L 285.148826 114.667215 
L 285.464602 117.77074 
L 285.780379 117.541793 
L 286.096156 113.367582 
L 286.411932 113.333421 
L 286.727709 112.564077 
L 287.043486 112.671724 
L 287.359263 113.772999 
L 287.675039 117.175146 
L 287.990816 116.936728 
L 288.306593 112.771414 
L 288.622369 113.34484 
L 288.938146 113.04194 
L 289.5697 113.688597 
L 289.885476 116.089501 
L 290.201253 115.740236 
L 290.51703 112.027103 
L 290.832806 111.774631 
L 291.148583 112.128851 
L 291.46436 112.154224 
L 291.780136 112.367387 
L 292.095913 115.726752 
L 292.41169 115.679133 
L 292.727467 110.992691 
L 293.043243 110.109271 
L 293.674797 110.918968 
L 293.990573 111.79499 
L 294.30635 113.36591 
L 294.622127 112.560492 
L 294.937904 109.267458 
L 295.25368 107.485839 
L 295.569457 108.826865 
L 295.885234 108.272138 
L 296.20101 107.375802 
L 296.516787 112.125492 
L 296.832564 112.796664 
L 297.148341 108.569982 
L 297.779894 109.38151 
L 298.095671 109.371486 
L 298.411447 110.10796 
L 298.727224 113.345389 
L 299.043001 113.711442 
L 299.358777 110.343783 
L 299.674554 110.826367 
L 299.990331 110.044591 
L 300.306108 107.474053 
L 300.621884 108.522298 
L 300.937661 112.076337 
L 301.253438 112.420309 
L 301.569214 108.997814 
L 301.884991 111.217611 
L 302.200768 111.369412 
L 302.516545 111.930223 
L 302.832321 112.031792 
L 303.148098 112.474129 
L 303.463875 109.539182 
L 303.779651 100.450561 
L 304.095428 96.327246 
L 304.411205 97.157927 
L 304.726982 100.804208 
L 305.042758 100.029272 
L 305.358535 101.221786 
L 305.674312 100.87778 
L 305.990088 93.89558 
L 306.305865 93.39164 
L 306.621642 98.612815 
L 306.937418 95.197473 
L 307.253195 99.666472 
L 307.568972 106.525932 
L 307.884749 104.609635 
L 308.200525 97.751423 
L 308.516302 97.10689 
L 309.147855 103.49827 
L 309.463632 106.091527 
L 309.779409 111.255903 
L 310.095186 110.919617 
L 310.410962 103.937561 
L 310.726739 102.043849 
L 311.042516 101.268191 
L 311.358292 99.616814 
L 311.674069 96.973271 
L 311.989846 99.587866 
L 312.305623 98.230451 
L 312.621399 90.904387 
L 312.937176 91.019476 
L 313.568729 93.129642 
L 313.884506 92.485505 
L 314.51606 85.729236 
L 314.831836 78.988203 
L 315.147613 81.881444 
L 315.46339 83.399527 
L 315.779166 87.488867 
L 316.094943 85.718715 
L 316.726496 89.996838 
L 317.042273 86.106153 
L 317.35805 88.260983 
L 317.673827 88.932883 
L 317.989603 87.736777 
L 318.30538 89.046239 
L 318.621157 96.432602 
L 318.936933 97.562499 
L 319.25271 93.322477 
L 319.568487 90.959949 
L 320.20004 78.848504 
L 320.515817 78.038775 
L 320.831594 78.102707 
L 321.14737 74.400421 
L 321.463147 67.741138 
L 322.094701 61.297275 
L 322.410477 60.325453 
L 322.726254 62.533793 
L 323.042031 71.295162 
L 323.357807 73.436465 
L 323.673584 64.411413 
L 323.989361 61.885201 
L 324.305137 63.838181 
L 324.620914 68.868382 
L 324.936691 71.867252 
L 325.568244 86.661313 
L 325.884021 86.290837 
L 326.199798 78.634021 
L 326.515574 73.705454 
L 327.147128 84.362256 
L 327.462905 87.491729 
L 327.778681 86.371159 
L 328.094458 74.197401 
L 328.726011 61.133397 
L 329.041788 57.627766 
L 329.357565 55.633369 
L 329.673342 60.191114 
L 329.989118 61.004439 
L 330.304895 59.508679 
L 330.620672 62.164879 
L 330.936448 65.772773 
L 331.883778 87.022207 
L 332.199555 87.625844 
L 332.831109 79.257551 
L 333.462662 70.779963 
L 333.778439 70.748197 
L 334.409992 79.610495 
L 334.725769 82.705935 
L 335.041546 82.820736 
L 335.357322 70.96092 
L 335.673099 63.606846 
L 335.988876 65.83346 
L 336.304652 73.575748 
L 336.620429 73.938824 
L 336.936206 69.952519 
L 337.251983 70.605341 
L 337.883536 56.991748 
L 338.199313 61.15405 
L 338.515089 72.08677 
L 338.830866 77.114327 
L 339.146643 66.759769 
L 339.462419 67.830646 
L 339.778196 68.417335 
L 340.093973 66.693997 
L 340.40975 59.150694 
L 340.725526 60.563401 
L 341.041303 55.904152 
L 341.35708 45.285599 
L 341.672856 45.201628 
L 342.30441 41.146688 
L 342.620187 45.740235 
L 342.935963 63.329888 
L 343.25174 68.609808 
L 343.567517 61.323947 
L 344.19907 54.277591 
L 344.514847 53.932105 
L 344.830624 56.242526 
L 345.1464 63.671387 
L 345.462177 63.010216 
L 345.777954 57.935846 
L 346.09373 56.877792 
L 346.409507 60.281914 
L 346.725284 65.103551 
L 347.356837 81.100699 
L 347.672614 81.479217 
L 347.988391 70.806645 
L 348.304167 66.655727 
L 348.619944 67.203724 
L 348.935721 68.01481 
L 349.251497 72.780463 
L 349.567274 80.500097 
L 349.883051 82.312313 
L 350.198828 77.788512 
L 350.514604 77.952342 
L 350.830381 77.547534 
L 351.146158 79.523033 
L 351.461934 79.213844 
L 351.777711 79.220354 
L 352.093488 77.919698 
L 352.409265 75.326671 
L 353.356595 84.201628 
L 353.672371 82.186414 
L 354.303925 91.098933 
L 354.935478 81.203643 
L 355.251255 85.094156 
L 355.567032 85.998476 
L 355.882808 84.41522 
L 356.198585 89.575754 
L 356.514362 85.96156 
L 356.830138 74.035236 
L 357.145915 75.706613 
L 357.461692 75.346248 
L 357.777469 75.817054 
L 358.409022 88.357282 
L 358.724799 87.990726 
L 359.040575 77.403899 
L 359.356352 73.766693 
L 359.672129 76.473867 
L 360.303682 87.538332 
L 360.619459 93.836112 
L 360.935236 91.639128 
L 361.251012 81.659959 
L 361.566789 78.480655 
L 361.882566 79.067192 
L 362.198343 82.433894 
L 362.514119 88.225185 
L 362.829896 98.011542 
L 363.145673 94.236634 
L 363.461449 88.606723 
L 363.777226 91.142224 
L 364.408779 84.316054 
L 364.724556 85.559851 
L 365.040333 97.056429 
L 365.35611 99.141591 
L 366.30344 87.295097 
L 366.934993 76.552115 
L 367.25077 78.710991 
L 367.566547 79.221555 
L 367.882323 81.548297 
L 368.513877 92.156582 
L 369.14543 107.009826 
L 369.776984 110.816127 
L 370.09276 110.830283 
L 370.408537 106.345321 
L 370.724314 107.014078 
L 371.04009 106.146215 
L 371.355867 103.241824 
L 371.671644 103.514577 
L 372.303197 91.987757 
L 372.618974 95.28834 
L 372.934751 101.756247 
L 373.566304 93.339276 
L 374.197857 89.88622 
L 374.513634 83.419186 
L 374.829411 85.060711 
L 375.460964 94.109648 
L 375.776741 95.929238 
L 376.092518 99.454309 
L 376.408294 97.795036 
L 376.724071 91.952559 
L 377.039848 90.911595 
L 377.355625 91.490629 
L 377.671401 91.710003 
L 378.618731 108.641366 
L 378.934508 104.233322 
L 379.250285 103.408769 
L 379.566062 101.783708 
L 379.881838 102.288279 
L 380.829168 110.262936 
L 381.144945 105.245837 
L 381.460722 102.198438 
L 381.776498 101.421133 
L 382.092275 108.755491 
L 382.408052 109.073109 
L 382.723829 113.62366 
L 383.039605 115.606468 
L 383.355382 110.348117 
L 383.986935 111.677913 
L 384.302712 108.751506 
L 384.618489 110.906085 
L 384.934266 114.370333 
L 385.250042 114.94208 
L 385.565819 113.632626 
L 385.881596 108.078346 
L 386.197372 107.602541 
L 386.513149 107.87029 
L 386.828926 109.525904 
L 387.144703 114.252803 
L 387.460479 113.389424 
L 387.776256 109.462981 
L 388.723586 111.720474 
L 389.039363 110.972589 
L 389.355139 114.500002 
L 389.670916 115.683422 
L 389.986693 111.37213 
L 390.30247 110.800076 
L 390.618246 111.554983 
L 390.934023 110.726473 
L 391.2498 110.835076 
L 391.565576 116.077541 
L 391.881353 117.10638 
L 392.19713 111.247662 
L 392.512907 109.557768 
L 392.828683 109.038488 
L 393.460237 110.208629 
L 393.776013 115.526179 
L 394.09179 114.004282 
L 394.407567 106.958649 
L 394.723344 105.832853 
L 395.03912 106.087538 
L 395.354897 106.114462 
L 395.670674 108.565815 
L 395.98645 113.584184 
L 396.302227 113.172451 
L 396.618004 107.493989 
L 397.249557 107.096837 
L 397.565334 107.793334 
L 397.881111 109.559603 
L 398.196887 115.35774 
L 398.512664 114.966978 
L 398.828441 110.187674 
L 399.144217 110.477034 
L 399.459994 110.472546 
L 399.775771 111.542222 
L 400.091548 113.275322 
L 400.407324 117.218931 
L 400.723101 116.522146 
L 401.038878 110.949364 
L 401.354654 110.761773 
L 401.986208 109.927349 
L 402.301985 110.948947 
L 402.617761 114.433213 
L 402.933538 115.193166 
L 403.249315 110.636997 
L 403.565091 110.931749 
L 403.880868 110.331026 
L 404.512422 112.203523 
L 404.828198 117.646424 
L 405.143975 117.120939 
L 405.459752 109.582783 
L 405.775528 108.197144 
L 406.091305 108.023173 
L 406.407082 110.089584 
L 406.722858 110.760344 
L 407.038635 115.415835 
L 407.354412 115.799669 
L 407.670189 109.953312 
L 407.985965 107.802498 
L 408.301742 107.597277 
L 408.617519 108.87576 
L 408.933295 110.648369 
L 409.249072 116.124938 
L 409.564849 116.150958 
L 409.880626 110.534097 
L 410.196402 110.210395 
L 410.512179 110.464575 
L 410.827956 110.099644 
L 411.143732 111.3036 
L 411.459509 116.728742 
L 411.775286 115.414389 
L 412.091063 108.561101 
L 412.406839 107.379453 
L 412.722616 107.896906 
L 413.038393 106.257366 
L 413.354169 105.90973 
L 413.669946 108.56314 
L 413.985723 107.146073 
L 414.301499 100.953181 
L 414.617276 101.959233 
L 415.24883 105.59059 
L 415.564606 106.460214 
L 415.880383 110.54043 
L 416.19616 112.005818 
L 416.511936 104.299041 
L 416.827713 103.62321 
L 417.459267 95.860542 
L 417.775043 96.589443 
L 418.09082 104.652028 
L 418.406597 107.752955 
L 418.722373 101.708425 
L 419.03815 102.059191 
L 419.353927 100.877469 
L 419.669704 102.139179 
L 419.98548 104.645182 
L 420.301257 110.19917 
L 420.617034 110.166697 
L 420.93281 102.991693 
L 421.564364 97.538724 
L 421.880141 96.858013 
L 422.195917 93.723497 
L 422.511694 95.473624 
L 422.827471 92.845905 
L 423.143247 86.584537 
L 423.459024 90.83372 
L 424.090577 93.225994 
L 425.037908 107.666602 
L 425.353684 101.535469 
L 425.669461 100.618289 
L 425.985238 98.429949 
L 426.301014 97.616338 
L 426.932568 101.065623 
L 427.248345 101.143084 
L 427.564121 96.065857 
L 427.879898 94.37798 
L 428.195675 94.459276 
L 428.827228 98.24839 
L 429.143005 104.065795 
L 429.458782 100.554653 
L 429.774558 86.877163 
L 430.406112 75.909605 
L 430.721888 74.692981 
L 431.037665 80.240456 
L 431.353442 92.744259 
L 431.669218 93.936762 
L 431.984995 88.132905 
L 432.300772 85.643518 
L 432.616549 81.417387 
L 432.932325 80.573624 
L 433.248102 78.359591 
L 433.563879 81.501437 
L 433.879655 77.893135 
L 434.195432 70.634149 
L 434.511209 69.772022 
L 434.826986 67.483996 
L 435.142762 68.871679 
L 435.774316 76.686151 
L 436.090092 75.637853 
L 436.405869 70.771562 
L 437.037423 65.739563 
L 437.353199 67.145458 
L 437.668976 71.056705 
L 437.984753 80.0021 
L 438.300529 78.995976 
L 438.616306 71.640692 
L 439.563636 83.700866 
L 439.879413 78.526983 
L 440.19519 75.790806 
L 440.510966 70.147575 
L 440.826743 61.214556 
L 441.458296 60.959228 
L 441.774073 59.233616 
L 442.08985 67.053435 
L 442.405627 78.519861 
L 442.721403 83.266085 
L 443.352957 69.296796 
L 443.668733 65.129713 
L 443.98451 64.077828 
L 444.300287 65.900503 
L 444.616064 74.862154 
L 444.93184 79.844615 
L 445.247617 74.990646 
L 445.563394 81.659561 
L 445.87917 79.293028 
L 446.510724 84.235497 
L 446.826501 85.307779 
L 447.142277 84.887762 
L 447.458054 83.661412 
L 447.773831 85.825889 
L 448.089607 84.915846 
L 448.405384 81.63261 
L 449.036937 70.776066 
L 449.352714 68.574478 
L 449.668491 68.341829 
L 449.984268 70.697221 
L 450.300044 69.691617 
L 450.615821 64.617829 
L 450.931598 71.818355 
L 451.247374 73.672057 
L 451.563151 74.02036 
L 451.878928 67.141419 
L 452.194705 66.764479 
L 452.510481 70.426413 
L 452.826258 78.376907 
L 453.142035 78.196047 
L 453.457811 77.881966 
L 453.773588 76.447061 
L 454.089365 70.448982 
L 454.405142 76.51616 
L 454.720918 79.538425 
L 455.036695 76.549137 
L 455.352472 76.99177 
L 455.668248 76.349094 
L 455.984025 70.901576 
L 456.299802 59.979911 
L 456.615578 56.537074 
L 456.931355 55.2681 
L 457.247132 55.024799 
L 457.562909 55.708288 
L 457.878685 63.374488 
L 458.194462 66.7707 
L 458.510239 66.166721 
L 458.826015 67.278902 
L 459.141792 66.922988 
L 459.457569 73.419888 
L 460.089122 90.628447 
L 460.404899 88.532927 
L 460.720676 83.146308 
L 461.352229 67.113559 
L 461.668006 62.949065 
L 461.983783 64.802029 
L 462.615336 83.202166 
L 463.246889 73.831803 
L 463.878443 65.661608 
L 464.194219 69.338421 
L 464.509996 82.130132 
L 464.825773 90.203987 
L 465.14155 83.001416 
L 465.457326 79.310963 
L 465.773103 73.308017 
L 466.404656 75.435112 
L 466.720433 84.987333 
L 467.03621 85.599431 
L 467.351987 80.166328 
L 467.667763 78.359398 
L 467.98354 68.801243 
L 468.299317 64.446144 
L 468.615093 68.200926 
L 468.93087 80.80308 
L 469.246647 81.765685 
L 469.562424 73.760563 
L 469.8782 69.85759 
L 470.193977 68.474993 
L 470.509754 70.268702 
L 470.82553 71.11289 
L 471.457084 81.203867 
L 471.772861 75.669941 
L 472.088637 79.704802 
L 472.404414 86.16932 
L 472.720191 85.630824 
L 473.035967 81.165206 
L 473.351744 82.612096 
L 473.667521 86.182708 
L 473.983297 83.116356 
L 474.299074 85.997258 
L 474.614851 90.314936 
L 474.930628 89.232641 
L 475.246404 89.344121 
L 475.562181 86.148813 
L 475.877958 79.811411 
L 476.193734 70.446159 
L 476.509511 70.463045 
L 476.825288 71.519597 
L 477.141065 74.999746 
L 477.772618 92.001518 
L 478.404171 73.149035 
L 478.719948 69.999556 
L 479.035725 71.772506 
L 479.351502 77.021735 
L 479.667278 80.349274 
L 480.298832 94.953392 
L 481.561938 103.921354 
L 481.877715 105.28459 
L 482.193492 106.059569 
L 482.509269 109.124178 
L 482.825045 102.178719 
L 483.140822 90.231017 
L 483.456599 91.137669 
L 484.088152 98.55517 
L 484.403929 105.219069 
L 484.719706 104.586923 
L 485.035482 100.056948 
L 485.667036 101.413027 
L 485.982812 101.006597 
L 486.298589 104.989763 
L 486.614366 105.031061 
L 486.930143 103.593037 
L 487.245919 101.088967 
L 487.561696 101.477647 
L 487.877473 101.053606 
L 488.193249 102.230475 
L 488.509026 104.697041 
L 488.824803 102.491868 
L 489.140579 101.732656 
L 489.456356 95.922207 
L 489.772133 94.212512 
L 490.08791 94.557739 
L 490.403686 96.364997 
L 491.03524 109.052982 
L 491.351016 111.380606 
L 491.666793 98.745017 
L 491.98257 93.010877 
L 492.298347 89.782911 
L 492.614123 90.03254 
L 492.9299 93.430212 
L 493.245677 101.179542 
L 493.561453 104.245267 
L 493.87723 103.807941 
L 494.193007 104.178595 
L 494.508784 105.102097 
L 494.82456 112.255956 
L 495.140337 112.604974 
L 495.456114 112.511238 
L 495.77189 111.024162 
L 496.087667 103.452303 
L 496.403444 102.272185 
L 496.719221 104.555361 
L 497.034997 104.557228 
L 497.350774 106.318099 
L 497.666551 111.800766 
L 498.298104 113.89641 
L 498.613881 108.283517 
L 498.929657 108.091567 
L 499.561211 105.630848 
L 499.876988 109.073412 
L 500.192764 107.524856 
L 500.508541 100.907332 
L 500.824318 101.397456 
L 501.140094 103.009812 
L 501.771648 111.246597 
L 502.087425 115.134849 
L 502.403201 113.56669 
L 502.718978 107.034069 
L 503.034755 105.965309 
L 503.350531 106.371775 
L 503.666308 106.032436 
L 503.982085 107.482034 
L 504.297862 112.780093 
L 504.613638 113.089241 
L 504.929415 107.46202 
L 505.245192 107.170718 
L 505.876745 108.091572 
L 506.192522 110.262674 
L 506.508298 115.18491 
L 506.824075 114.948802 
L 507.139852 109.305546 
L 507.455629 109.284283 
L 508.087182 106.644401 
L 508.402959 109.260666 
L 508.718735 115.878483 
L 509.034512 116.152582 
L 509.350289 109.534216 
L 509.666066 106.352067 
L 509.981842 105.14965 
L 510.613396 107.361355 
L 510.929172 109.787494 
L 511.244949 110.491746 
L 511.560726 106.874134 
L 511.876503 106.6202 
L 512.508056 105.637146 
L 512.823833 107.544821 
L 513.139609 111.940403 
L 513.455386 113.290707 
L 513.771163 108.903762 
L 514.402716 107.228346 
L 514.718493 108.065943 
L 515.03427 109.804386 
L 515.350046 113.420742 
L 515.665823 114.330639 
L 515.9816 110.420149 
L 516.297376 110.932564 
L 516.92893 109.055956 
L 517.244707 111.454231 
L 517.560483 114.945115 
L 517.87626 113.74434 
L 518.192037 109.047998 
L 518.507813 108.160034 
L 518.82359 109.21979 
L 519.139367 109.396834 
L 519.455144 110.937937 
L 519.77092 114.659688 
L 520.086697 115.155666 
L 520.402474 111.430986 
L 521.665581 111.322721 
L 521.981357 113.817091 
L 522.297134 114.45146 
L 522.612911 109.933996 
L 522.928687 109.137216 
L 523.244464 109.179924 
L 523.560241 109.973394 
L 523.876017 112.552827 
L 524.191794 116.818321 
L 524.507571 115.043707 
L 524.823348 108.293937 
L 525.139124 109.169363 
L 525.454901 111.514491 
L 525.770678 107.614569 
L 526.086454 108.759987 
L 526.402231 111.652213 
L 526.718008 110.640713 
L 527.033785 105.765909 
L 527.349561 104.097813 
L 527.665338 104.0176 
L 527.981115 105.375495 
L 528.296891 108.071849 
L 528.612668 113.03999 
L 528.928445 110.455455 
L 529.244222 105.018819 
L 529.559998 106.133435 
L 529.875775 106.716359 
L 530.191552 105.327973 
L 530.507328 107.001011 
L 530.823105 112.393643 
L 531.138882 112.315351 
L 531.454658 108.422784 
L 531.770435 108.086061 
L 532.086212 108.811295 
L 532.401989 107.058627 
L 532.717765 105.94928 
L 533.033542 108.787479 
L 533.349319 108.589083 
L 533.665095 104.263549 
L 533.980872 104.766143 
L 534.296649 105.923463 
L 534.612426 106.269711 
L 534.928202 103.218811 
L 535.243979 104.027433 
L 535.559756 101.164899 
L 535.875532 94.686047 
L 536.191309 94.984155 
L 536.507086 97.737739 
L 536.822863 97.180624 
L 537.454416 105.94362 
L 537.770193 104.603873 
L 538.085969 95.695763 
L 538.401746 96.198146 
L 538.717523 94.467107 
L 539.033299 96.33908 
L 539.349076 95.730817 
L 539.664853 98.223917 
L 539.98063 94.176666 
L 540.296406 84.267961 
L 540.612183 82.934575 
L 540.92796 84.102971 
L 541.243736 81.784355 
L 541.559513 82.695875 
L 541.87529 87.767083 
L 542.191067 89.049941 
L 542.506843 82.174155 
L 543.454173 96.876385 
L 543.76995 96.349518 
L 544.085727 101.367887 
L 544.401504 101.309235 
L 544.71728 90.629478 
L 545.033057 89.362237 
L 545.348834 90.241633 
L 545.66461 89.744619 
L 546.61194 101.550391 
L 546.927717 100.980738 
L 547.559271 85.370809 
L 547.875047 80.078382 
L 548.190824 78.785488 
L 548.506601 84.144563 
L 548.822377 85.33225 
L 549.138154 78.395967 
L 549.453931 75.898518 
L 550.085484 80.579244 
L 550.401261 83.548896 
L 550.717038 92.382558 
L 551.032814 95.36017 
L 551.348591 87.771159 
L 551.664368 86.209298 
L 551.980145 86.571071 
L 552.295921 83.644256 
L 552.611698 72.871206 
L 552.927475 78.099901 
L 553.243251 78.801591 
L 553.559028 70.159268 
L 553.874805 68.334011 
L 554.190582 65.540981 
L 554.506358 64.706774 
L 554.822135 64.834974 
L 555.137912 68.25897 
L 555.453688 63.328825 
L 555.769465 55.271427 
L 556.085242 56.794635 
L 556.401018 54.282344 
L 557.032572 60.032661 
L 557.348349 64.82999 
L 557.664125 65.714023 
L 557.979902 60.85645 
L 558.927232 54.569217 
L 559.243009 57.515903 
L 559.558786 66.509924 
L 559.874562 70.494336 
L 560.190339 68.748606 
L 560.821892 73.633435 
L 561.137669 73.959672 
L 561.453446 74.661081 
L 561.769223 79.66011 
L 562.084999 79.039642 
L 562.400776 77.687857 
L 562.716553 85.142517 
L 563.032329 86.761489 
L 563.348106 86.704707 
L 563.663883 77.70338 
L 563.979659 74.497992 
L 564.295436 73.198166 
L 564.611213 67.627897 
L 564.92699 66.6027 
L 565.558543 68.976206 
L 565.87432 68.705467 
L 566.190096 66.429909 
L 566.505873 65.794909 
L 566.82165 57.485948 
L 567.137427 56.317278 
L 567.453203 56.10467 
L 567.76898 53.404641 
L 568.084757 53.488654 
L 568.400533 57.427637 
L 568.71631 57.344688 
L 569.032087 53.707123 
L 569.347864 57.371729 
L 569.66364 57.330698 
L 569.979417 50.73039 
L 570.295194 48.744566 
L 570.61097 53.006935 
L 570.926747 54.358194 
L 571.242524 54.544164 
L 572.189854 73.318244 
L 572.505631 71.096508 
L 572.821407 70.763063 
L 573.137184 64.536277 
L 573.452961 53.871429 
L 573.768737 54.0929 
L 574.084514 55.262896 
L 574.400291 59.406088 
L 574.716068 65.725225 
L 575.031844 65.202637 
L 575.347621 61.701681 
L 575.663398 54.330101 
L 576.294951 69.634832 
L 576.610728 69.064005 
L 577.242281 70.244644 
L 577.558058 60.847292 
L 577.873835 43.268816 
L 578.189611 36.223926 
L 578.505388 32.403012 
L 578.821165 31.4738 
L 579.136942 32.084277 
L 579.452718 38.495163 
L 579.768495 42.563027 
L 580.084272 43.225181 
L 580.715825 64.778612 
L 581.031602 70.456153 
L 581.347378 74.04573 
L 581.663155 84.921868 
L 581.978932 85.920741 
L 582.294709 80.871979 
L 582.610485 86.787973 
L 582.926262 89.487914 
L 583.242039 88.713325 
L 583.557815 84.070843 
L 583.873592 82.947913 
L 584.189369 79.335701 
L 584.505146 69.891606 
L 584.820922 70.875728 
L 585.136699 74.061435 
L 585.452476 72.752389 
L 585.768252 66.591385 
L 586.084029 69.633291 
L 586.399806 67.951833 
L 586.715583 60.147675 
L 587.031359 60.474957 
L 587.662913 76.219283 
L 587.978689 78.67905 
L 588.294466 83.016514 
L 588.610243 79.313546 
L 588.926019 71.39459 
L 589.87335 61.51245 
L 590.189126 61.861958 
L 590.82068 70.181113 
L 591.136456 64.649057 
L 591.452233 68.033342 
L 592.399563 86.897277 
L 592.71534 89.035999 
L 593.031117 89.214407 
L 593.346893 88.97718 
L 593.66267 91.295647 
L 594.294224 97.532146 
L 594.61 96.030974 
L 594.925777 91.51041 
L 595.241554 89.116012 
L 595.55733 81.0502 
L 595.873107 67.965165 
L 596.188884 66.027301 
L 596.50466 66.251791 
L 597.136214 82.395967 
L 597.451991 86.862718 
L 597.767767 73.072058 
L 598.083544 71.10032 
L 598.399321 67.156786 
L 598.715097 67.870716 
L 599.030874 72.05013 
L 599.346651 79.893152 
L 599.662428 83.10213 
L 599.978204 81.865948 
L 600.609758 88.891843 
L 600.925534 86.361103 
L 601.241311 86.496485 
L 601.557088 91.003009 
L 601.872865 89.483886 
L 602.188641 83.979813 
L 602.504418 85.564011 
L 602.820195 90.567992 
L 603.135971 91.402056 
L 603.451748 89.852706 
L 603.767525 95.911857 
L 604.399078 87.839609 
L 604.714855 89.604734 
L 605.346408 83.477043 
L 605.662185 84.104335 
L 606.293738 105.469355 
L 606.925292 103.16805 
L 607.241069 101.966202 
L 607.556845 103.226977 
L 607.872622 100.330674 
L 608.188399 101.834377 
L 608.504175 101.661311 
L 608.819952 96.614666 
L 609.451506 94.599223 
L 609.767282 96.031332 
L 610.398836 104.392094 
L 610.714612 105.10667 
L 611.030389 104.624068 
L 611.346166 97.392714 
L 611.661943 96.766569 
L 611.977719 95.197008 
L 612.293496 97.95838 
L 612.609273 103.657886 
L 612.925049 105.971364 
L 613.240826 103.619798 
L 613.556603 105.874932 
L 614.188156 111.865136 
L 614.503933 111.510939 
L 614.81971 114.471194 
L 615.135486 113.616451 
L 615.451263 106.777821 
L 615.76704 106.835479 
L 616.398593 108.116592 
L 616.71437 110.891892 
L 617.030147 115.537394 
L 617.345923 114.426257 
L 617.6617 110.268349 
L 617.977477 108.595201 
L 618.60903 110.582353 
L 618.924807 111.96103 
L 619.240584 116.841956 
L 619.55636 116.944796 
L 620.187914 108.010739 
L 620.819467 106.471062 
L 621.135244 108.088192 
L 621.45102 114.381519 
L 621.766797 115.466741 
L 622.082574 109.977583 
L 623.029904 106.021595 
L 623.345681 108.140576 
L 623.661457 114.106149 
L 623.977234 114.388777 
L 624.293011 109.448513 
L 624.608788 111.415652 
L 624.924564 108.352157 
L 625.240341 107.465342 
L 625.556118 109.318433 
L 625.871894 114.350261 
L 626.187671 114.018988 
L 626.503448 109.806876 
L 626.819225 109.104057 
L 627.135001 109.152822 
L 627.450778 109.498459 
L 627.766555 111.669868 
L 628.082331 116.280003 
L 628.398108 116.228757 
L 628.713885 111.270305 
L 629.029662 110.128061 
L 629.345438 110.068261 
L 629.661215 110.318537 
L 629.976992 112.129309 
L 630.292768 116.774188 
L 630.608545 116.603976 
L 630.924322 112.072352 
L 631.240098 112.090047 
L 631.555875 113.286761 
L 631.871652 113.58912 
L 632.187429 114.373157 
L 632.503205 116.610839 
L 632.818982 115.51742 
L 633.134759 111.99453 
L 633.450535 110.604969 
L 633.766312 110.225719 
L 634.082089 111.090419 
L 634.713642 115.59198 
L 635.029419 115.610834 
L 635.345196 112.409809 
L 635.660972 111.639633 
L 635.976749 111.794242 
L 636.292526 112.57953 
L 636.924079 117.257501 
L 637.239856 117.279198 
L 637.555633 112.770458 
L 637.871409 111.097918 
L 638.502963 110.592519 
L 638.818739 111.684762 
L 639.134516 115.666689 
L 639.450293 115.415257 
L 639.76607 111.254963 
L 640.081846 109.848798 
L 640.397623 110.344495 
L 640.7134 108.895871 
L 641.029176 108.960234 
L 641.344953 112.138192 
L 641.66073 111.917363 
L 641.976507 108.364759 
L 642.60806 107.280341 
L 642.923837 108.081025 
L 643.239613 109.764172 
L 643.55539 113.653051 
L 643.871167 113.880598 
L 644.186944 109.155901 
L 644.50272 108.943948 
L 644.818497 109.852628 
L 645.134274 109.905987 
L 645.45005 110.907085 
L 645.765827 114.85836 
L 646.081604 114.866132 
L 646.39738 108.74132 
L 647.028934 108.763121 
L 647.344711 107.977253 
L 647.660487 107.925126 
L 647.976264 112.406737 
L 648.292041 110.50686 
L 648.607817 102.446611 
L 648.923594 101.924444 
L 649.239371 102.330867 
L 650.502478 113.073577 
L 651.134031 105.736016 
L 651.449808 104.781719 
L 651.765585 101.618045 
L 652.081361 102.984951 
L 652.397138 108.511105 
L 652.712915 110.390071 
L 653.028691 103.439615 
L 653.344468 102.540527 
L 653.976022 95.613614 
L 654.291798 97.073384 
L 654.607575 100.224272 
L 654.923352 96.746439 
L 655.239128 91.762976 
L 655.870682 87.511632 
L 656.186458 91.096395 
L 656.818012 94.50698 
L 657.133789 94.56716 
L 657.449565 91.100684 
L 658.081119 100.627872 
L 658.712672 92.86425 
L 659.028449 92.133741 
L 659.344226 90.079187 
L 659.660002 84.363042 
L 660.291556 90.827382 
L 660.607332 90.893047 
L 660.923109 92.880724 
L 661.238886 95.789428 
L 661.554663 100.343995 
L 661.870439 94.860881 
L 662.186216 85.339004 
L 662.501993 80.647043 
L 662.817769 79.259495 
L 663.133546 80.793307 
L 663.449323 86.761919 
L 663.765099 87.381876 
L 664.080876 78.157221 
L 664.396653 77.865193 
L 664.71243 72.684063 
L 665.028206 72.138987 
L 665.343983 73.673623 
L 665.65976 80.771671 
L 665.975536 82.371893 
L 666.291313 73.219022 
L 666.60709 72.249644 
L 667.55442 83.342653 
L 667.870197 88.164018 
L 668.185973 83.702539 
L 668.50175 71.706583 
L 668.817527 67.404258 
L 669.133304 65.853662 
L 669.44908 63.548303 
L 669.764857 65.686401 
L 670.080634 68.638139 
L 670.39641 66.798471 
L 670.712187 59.505203 
L 671.34374 72.242273 
L 671.659517 63.3383 
L 671.975294 64.4457 
L 672.291071 70.541336 
L 672.606847 68.329601 
L 672.922624 59.331816 
L 673.238401 60.393952 
L 673.554177 60.432916 
L 673.869954 58.610878 
L 674.185731 59.347974 
L 674.817284 71.214125 
L 675.133061 69.452903 
L 675.448838 70.896154 
L 675.764614 73.883753 
L 676.080391 73.906832 
L 676.396168 75.163425 
L 676.711945 80.003895 
L 677.027721 79.362125 
L 677.343498 63.036142 
L 677.659275 55.440679 
L 677.975051 54.470489 
L 678.606605 74.390632 
L 678.922382 69.638828 
L 679.238158 68.55925 
L 679.553935 68.886946 
L 680.185488 80.536514 
L 680.501265 91.701418 
L 680.817042 97.426669 
L 681.132818 97.581746 
L 681.448595 95.406142 
L 682.711702 67.058745 
L 683.027479 65.571949 
L 683.343255 69.370115 
L 683.659032 68.49385 
L 683.974809 58.188202 
L 684.290586 56.168156 
L 684.606362 56.107701 
L 684.922139 59.260134 
L 685.237916 61.011766 
L 685.869469 69.690669 
L 686.185246 65.724338 
L 686.501023 63.320635 
L 686.816799 65.644969 
L 687.132576 62.502995 
L 687.448353 61.752147 
L 687.764129 68.347542 
L 688.079906 69.93652 
L 688.395683 61.927791 
L 688.711459 59.603579 
L 689.027236 60.469357 
L 689.343013 64.445632 
L 689.65879 66.470806 
L 689.974566 77.429831 
L 690.290343 76.372093 
L 690.60612 66.247962 
L 691.55345 71.261511 
L 692.185003 77.585591 
L 692.50078 77.617912 
L 692.816557 69.802756 
L 693.132333 73.847388 
L 693.44811 75.868827 
L 694.079664 69.360993 
L 694.711217 74.513062 
L 695.026994 73.957232 
L 695.34277 74.498931 
L 695.658547 80.21831 
L 695.974324 81.821643 
L 696.2901 82.180827 
L 696.921654 84.57095 
L 697.237431 75.772935 
L 697.553207 74.930658 
L 697.868984 74.610155 
L 698.184761 76.262136 
L 698.500537 72.813143 
L 698.816314 74.316908 
L 699.132091 73.116132 
L 699.447868 66.904928 
L 699.763644 64.100817 
L 700.079421 64.828686 
L 700.395198 66.796221 
L 700.710974 66.22847 
L 701.026751 70.644816 
L 701.342528 68.389044 
L 701.658305 61.948906 
L 703.237188 84.187495 
L 703.552965 86.332448 
L 703.868742 79.934465 
L 704.184518 78.731196 
L 704.500295 84.451277 
L 704.816072 82.015954 
L 705.131848 83.41818 
L 705.447625 87.617043 
L 705.763402 87.63074 
L 706.079178 83.08182 
L 706.394955 84.454557 
L 706.710732 86.975256 
L 707.026509 87.995482 
L 707.342285 91.406721 
L 707.658062 98.019453 
L 707.973839 96.559243 
L 709.552722 75.275388 
L 709.868499 74.846778 
L 710.500052 72.817197 
L 711.131606 87.263036 
L 711.447383 88.36012 
L 711.763159 85.515294 
L 712.078936 87.236138 
L 712.394713 84.39241 
L 712.710489 83.264262 
L 713.026266 92.204546 
L 713.657819 101.722445 
L 713.973596 103.18702 
L 714.289373 100.993689 
L 714.920926 99.164182 
L 715.236703 94.518076 
L 715.55248 94.203069 
L 715.868256 95.478585 
L 716.184033 99.272204 
L 716.49981 104.847654 
L 716.815587 102.134773 
L 717.131363 93.681905 
L 717.44714 92.442405 
L 717.762917 94.09462 
L 718.710247 102.648254 
L 719.026024 103.271519 
L 719.3418 99.609823 
L 719.657577 99.243889 
L 719.973354 99.646928 
L 720.28913 100.947577 
L 720.604907 103.862363 
L 720.920684 110.25692 
L 721.23646 109.347365 
L 721.552237 106.567819 
L 722.183791 111.339635 
L 722.499567 110.211246 
L 722.815344 110.781174 
L 723.131121 113.756392 
L 723.446897 114.309768 
L 723.762674 110.363741 
L 724.078451 109.136014 
L 724.394228 111.174743 
L 724.710004 111.612657 
L 725.341558 115.948555 
L 725.657334 114.31409 
L 725.973111 110.979646 
L 726.288888 109.135215 
L 726.604665 110.916261 
L 726.920441 114.089098 
L 727.236218 112.128053 
L 727.551995 111.467689 
L 727.867771 107.773231 
L 728.183548 101.478118 
L 729.130878 106.486005 
L 729.446655 110.471214 
L 729.762432 116.040744 
L 730.078208 118.004147 
L 730.393985 116.840529 
L 730.709762 110.686406 
L 731.025538 110.003764 
L 731.341315 109.845421 
L 731.657092 111.937059 
L 731.972869 116.681444 
L 732.288645 116.693961 
L 732.604422 111.501859 
L 732.920199 109.801225 
L 733.235975 111.639979 
L 733.551752 115.593236 
L 733.867529 116.250349 
L 734.183306 119.992267 
L 734.499082 118.884779 
L 734.814859 112.889506 
L 735.130636 112.043228 
L 735.446412 111.565434 
L 735.762189 113.880453 
L 736.077966 114.716081 
L 736.393743 119.316346 
L 736.709519 118.390285 
L 737.025296 113.472923 
L 737.341073 113.533285 
L 737.656849 112.56406 
L 738.288403 114.754616 
L 738.604179 118.812255 
L 738.919956 118.923576 
L 739.235733 114.77989 
L 739.55151 114.475001 
L 739.867286 114.506864 
L 740.183063 114.182791 
L 740.49884 114.90511 
L 740.814616 118.193606 
L 741.130393 117.324622 
L 741.44617 112.128791 
L 742.077723 114.753608 
L 742.3935 115.455059 
L 742.709277 115.567126 
L 743.025053 119.270032 
L 743.34083 118.18748 
L 743.656607 113.95769 
L 743.972384 115.732602 
L 744.28816 115.994712 
L 744.603937 114.097836 
L 744.919714 114.978025 
L 745.23549 119.202812 
L 745.551267 119.907965 
L 746.18282 114.988508 
L 746.498597 114.831586 
L 747.130151 116.280428 
L 747.445927 120.430732 
L 747.761704 120.659039 
L 748.077481 116.319966 
L 748.393257 117.563496 
L 749.024811 117.337666 
L 749.340588 118.856098 
L 749.656364 121.032325 
L 749.972141 120.585327 
L 750.287918 117.632999 
L 750.919471 117.717921 
L 751.235248 117.439636 
L 751.551025 118.359764 
L 751.866801 121.516451 
L 752.182578 122.089791 
L 752.498355 117.298861 
L 752.814131 115.512205 
L 753.129908 114.944196 
L 753.445685 114.869626 
L 753.761461 116.159139 
L 754.077238 120.908881 
L 754.393015 119.207796 
L 754.708792 114.408886 
L 755.024568 114.838358 
L 755.340345 114.903614 
L 755.656122 115.631268 
L 755.971898 115.685282 
L 756.287675 119.865255 
L 756.603452 120.355058 
L 756.919229 114.648078 
L 757.235005 114.629353 
L 757.550782 113.605002 
L 757.866559 113.715953 
L 758.498112 120.144128 
L 758.813889 119.961773 
L 759.129666 116.971631 
L 759.761219 114.89858 
L 760.392772 115.632046 
L 760.708549 117.305326 
L 761.024326 116.42066 
L 761.340103 112.879384 
L 761.655879 113.172991 
L 761.971656 112.466585 
L 762.287433 113.634168 
L 762.603209 112.400459 
L 762.918986 112.83585 
L 763.234763 110.377563 
L 763.866316 101.67428 
L 764.182093 101.647884 
L 764.49787 102.705249 
L 764.813646 104.483324 
L 765.129423 110.368076 
L 765.4452 110.091427 
L 766.39253 98.566214 
L 766.708307 97.57844 
L 767.024083 101.661521 
L 767.33986 107.860389 
L 767.655637 110.283499 
L 767.971413 108.683402 
L 768.28719 105.797883 
L 768.602967 109.195094 
L 768.918744 108.391496 
L 769.23452 108.333355 
L 769.550297 109.632454 
L 769.866074 107.970489 
L 770.497627 100.139688 
L 770.813404 99.702583 
L 771.12918 99.826103 
L 771.444957 103.206325 
L 771.760734 111.462682 
L 772.076511 112.079954 
L 772.392287 108.158653 
L 772.708064 105.760037 
L 773.023841 102.242755 
L 773.655394 103.458839 
L 773.971171 108.635978 
L 774.286948 110.574607 
L 774.918501 103.447625 
L 775.234278 103.806319 
L 776.181608 111.459548 
L 776.497385 111.532554 
L 776.813161 108.459016 
L 777.128938 109.010906 
L 777.444715 102.485955 
L 778.076268 98.209065 
L 778.392045 99.963395 
L 779.023598 98.796557 
L 779.339375 100.5925 
L 779.655152 101.365542 
L 779.970928 100.442299 
L 780.286705 98.284475 
L 780.602482 98.170328 
L 780.918258 95.774861 
L 781.234035 89.853301 
L 781.549812 93.316227 
L 781.865589 93.034435 
L 782.181365 92.371936 
L 782.497142 86.765321 
L 783.128695 81.586025 
L 783.444472 75.897275 
L 783.760249 78.417475 
L 784.076026 82.901243 
L 784.707579 85.255984 
L 785.023356 89.614123 
L 785.339132 88.209121 
L 785.654909 79.472179 
L 785.654909 79.472179 
" clip-path="url(#pa6964da073)" style="fill: none; stroke: #4c72b0; stroke-opacity: 0.6; stroke-width: 1.2; stroke-linecap: round"/>
   </g>
   <g id="line2d_12">
    <path d="M 565.558543 137.823 
L 565.558543 26.943 
" clip-path="url(#pa6964da073)" style="fill: none; stroke: #ff0000; stroke-width: 0.8; stroke-linecap: round"/>
   </g>
   <g id="patch_5">
    <path d="M 39.964 137.823 
L 39.964 26.943 
" style="fill: none; stroke: #cccccc; stroke-linejoin: miter; stroke-linecap: square"/>
   </g>
   <g id="patch_6">
    <path d="M 821.164 137.823 
L 821.164 26.943 
" style="fill: none; stroke: #cccccc; stroke-linejoin: miter; stroke-linecap: square"/>
   </g>
   <g id="patch_7">
    <path d="M 39.964 137.823 
L 821.164 137.823 
" style="fill: none; stroke: #cccccc; stroke-linejoin: miter; stroke-linecap: square"/>
   </g>
   <g id="patch_8">
    <path d="M 39.964 26.943 
L 821.164 26.943 
" style="fill: none; stroke: #cccccc; stroke-linejoin: miter; stroke-linecap: square"/>
   </g>
   <g id="text_12">
    <!-- Training and test data split -->
    <g style="fill: #262626" transform="translate(318.334 20.943) scale(0.192 -0.192)">
     <defs>
      <path id="ArialMT-54" d="M 1659 0 
L 1659 4041 
L 150 4041 
L 150 4581 
L 3781 4581 
L 3781 4041 
L 2266 4041 
L 2266 0 
L 1659 0 
z
" transform="scale(0.015625)"/>
      <path id="ArialMT-72" d="M 416 0 
L 416 3319 
L 922 3319 
L 922 2816 
Q 1116 3169 1280 3281 
Q 1444 3394 1641 3394 
Q 1925 3394 2219 3213 
L 2025 2691 
Q 1819 2813 1613 2813 
Q 1428 2813 1281 2702 
Q 1134 2591 1072 2394 
Q 978 2094 978 1738 
L 978 0 
L 416 0 
z
" transform="scale(0.015625)"/>
      <path id="ArialMT-61" d="M 2588 409 
Q 2275 144 1986 34 
Q 1697 -75 1366 -75 
Q 819 -75 525 192 
Q 231 459 231 875 
Q 231 1119 342 1320 
Q 453 1522 633 1644 
Q 813 1766 1038 1828 
Q 1203 1872 1538 1913 
Q 2219 1994 2541 2106 
Q 2544 2222 2544 2253 
Q 2544 2597 2384 2738 
Q 2169 2928 1744 2928 
Q 1347 2928 1158 2789 
Q 969 2650 878 2297 
L 328 2372 
Q 403 2725 575 2942 
Q 747 3159 1072 3276 
Q 1397 3394 1825 3394 
Q 2250 3394 2515 3294 
Q 2781 3194 2906 3042 
Q 3031 2891 3081 2659 
Q 3109 2516 3109 2141 
L 3109 1391 
Q 3109 606 3145 398 
Q 3181 191 3288 0 
L 2700 0 
Q 2613 175 2588 409 
z
M 2541 1666 
Q 2234 1541 1622 1453 
Q 1275 1403 1131 1340 
Q 988 1278 909 1158 
Q 831 1038 831 891 
Q 831 666 1001 516 
Q 1172 366 1500 366 
Q 1825 366 2078 508 
Q 2331 650 2450 897 
Q 2541 1088 2541 1459 
L 2541 1666 
z
" transform="scale(0.015625)"/>
      <path id="ArialMT-69" d="M 425 3934 
L 425 4581 
L 988 4581 
L 988 3934 
L 425 3934 
z
M 425 0 
L 425 3319 
L 988 3319 
L 988 0 
L 425 0 
z
" transform="scale(0.015625)"/>
      <path id="ArialMT-6e" d="M 422 0 
L 422 3319 
L 928 3319 
L 928 2847 
Q 1294 3394 1984 3394 
Q 2284 3394 2536 3286 
Q 2788 3178 2913 3003 
Q 3038 2828 3088 2588 
Q 3119 2431 3119 2041 
L 3119 0 
L 2556 0 
L 2556 2019 
Q 2556 2363 2490 2533 
Q 2425 2703 2258 2804 
Q 2091 2906 1866 2906 
Q 1506 2906 1245 2678 
Q 984 2450 984 1813 
L 984 0 
L 422 0 
z
" transform="scale(0.015625)"/>
      <path id="ArialMT-67" d="M 319 -275 
L 866 -356 
Q 900 -609 1056 -725 
Q 1266 -881 1628 -881 
Q 2019 -881 2231 -725 
Q 2444 -569 2519 -288 
Q 2563 -116 2559 434 
Q 2191 0 1641 0 
Q 956 0 581 494 
Q 206 988 206 1678 
Q 206 2153 378 2554 
Q 550 2956 876 3175 
Q 1203 3394 1644 3394 
Q 2231 3394 2613 2919 
L 2613 3319 
L 3131 3319 
L 3131 450 
Q 3131 -325 2973 -648 
Q 2816 -972 2473 -1159 
Q 2131 -1347 1631 -1347 
Q 1038 -1347 672 -1080 
Q 306 -813 319 -275 
z
M 784 1719 
Q 784 1066 1043 766 
Q 1303 466 1694 466 
Q 2081 466 2343 764 
Q 2606 1063 2606 1700 
Q 2606 2309 2336 2618 
Q 2066 2928 1684 2928 
Q 1309 2928 1046 2623 
Q 784 2319 784 1719 
z
" transform="scale(0.015625)"/>
      <path id="ArialMT-20" transform="scale(0.015625)"/>
      <path id="ArialMT-64" d="M 2575 0 
L 2575 419 
Q 2259 -75 1647 -75 
Q 1250 -75 917 144 
Q 584 363 401 755 
Q 219 1147 219 1656 
Q 219 2153 384 2558 
Q 550 2963 881 3178 
Q 1213 3394 1622 3394 
Q 1922 3394 2156 3267 
Q 2391 3141 2538 2938 
L 2538 4581 
L 3097 4581 
L 3097 0 
L 2575 0 
z
M 797 1656 
Q 797 1019 1065 703 
Q 1334 388 1700 388 
Q 2069 388 2326 689 
Q 2584 991 2584 1609 
Q 2584 2291 2321 2609 
Q 2059 2928 1675 2928 
Q 1300 2928 1048 2622 
Q 797 2316 797 1656 
z
" transform="scale(0.015625)"/>
      <path id="ArialMT-74" d="M 1650 503 
L 1731 6 
Q 1494 -44 1306 -44 
Q 1000 -44 831 53 
Q 663 150 594 308 
Q 525 466 525 972 
L 525 2881 
L 113 2881 
L 113 3319 
L 525 3319 
L 525 4141 
L 1084 4478 
L 1084 3319 
L 1650 3319 
L 1650 2881 
L 1084 2881 
L 1084 941 
Q 1084 700 1114 631 
Q 1144 563 1211 522 
Q 1278 481 1403 481 
Q 1497 481 1650 503 
z
" transform="scale(0.015625)"/>
      <path id="ArialMT-73" d="M 197 991 
L 753 1078 
Q 800 744 1014 566 
Q 1228 388 1613 388 
Q 2000 388 2187 545 
Q 2375 703 2375 916 
Q 2375 1106 2209 1216 
Q 2094 1291 1634 1406 
Q 1016 1563 777 1677 
Q 538 1791 414 1992 
Q 291 2194 291 2438 
Q 291 2659 392 2848 
Q 494 3038 669 3163 
Q 800 3259 1026 3326 
Q 1253 3394 1513 3394 
Q 1903 3394 2198 3281 
Q 2494 3169 2634 2976 
Q 2775 2784 2828 2463 
L 2278 2388 
Q 2241 2644 2061 2787 
Q 1881 2931 1553 2931 
Q 1166 2931 1000 2803 
Q 834 2675 834 2503 
Q 834 2394 903 2306 
Q 972 2216 1119 2156 
Q 1203 2125 1616 2013 
Q 2213 1853 2448 1751 
Q 2684 1650 2818 1456 
Q 2953 1263 2953 975 
Q 2953 694 2789 445 
Q 2625 197 2315 61 
Q 2006 -75 1616 -75 
Q 969 -75 630 194 
Q 291 463 197 991 
z
" transform="scale(0.015625)"/>
      <path id="ArialMT-70" d="M 422 -1272 
L 422 3319 
L 934 3319 
L 934 2888 
Q 1116 3141 1344 3267 
Q 1572 3394 1897 3394 
Q 2322 3394 2647 3175 
Q 2972 2956 3137 2557 
Q 3303 2159 3303 1684 
Q 3303 1175 3120 767 
Q 2938 359 2589 142 
Q 2241 -75 1856 -75 
Q 1575 -75 1351 44 
Q 1128 163 984 344 
L 984 -1272 
L 422 -1272 
z
M 931 1641 
Q 931 1000 1190 694 
Q 1450 388 1819 388 
Q 2194 388 2461 705 
Q 2728 1022 2728 1688 
Q 2728 2322 2467 2637 
Q 2206 2953 1844 2953 
Q 1484 2953 1207 2617 
Q 931 2281 931 1641 
z
" transform="scale(0.015625)"/>
      <path id="ArialMT-6c" d="M 409 0 
L 409 4581 
L 972 4581 
L 972 0 
L 409 0 
z
" transform="scale(0.015625)"/>
     </defs>
     <use xlink:href="#ArialMT-54"/>
     <use xlink:href="#ArialMT-72" x="57.333984"/>
     <use xlink:href="#ArialMT-61" x="90.634766"/>
     <use xlink:href="#ArialMT-69" x="146.25"/>
     <use xlink:href="#ArialMT-6e" x="168.466797"/>
     <use xlink:href="#ArialMT-69" x="224.082031"/>
     <use xlink:href="#ArialMT-6e" x="246.298828"/>
     <use xlink:href="#ArialMT-67" x="301.914062"/>
     <use xlink:href="#ArialMT-20" x="357.529297"/>
     <use xlink:href="#ArialMT-61" x="385.3125"/>
     <use xlink:href="#ArialMT-6e" x="440.927734"/>
     <use xlink:href="#ArialMT-64" x="496.542969"/>
     <use xlink:href="#ArialMT-20" x="552.158203"/>
     <use xlink:href="#ArialMT-74" x="579.941406"/>
     <use xlink:href="#ArialMT-65" x="607.724609"/>
     <use xlink:href="#ArialMT-73" x="663.339844"/>
     <use xlink:href="#ArialMT-74" x="713.339844"/>
     <use xlink:href="#ArialMT-20" x="741.123047"/>
     <use xlink:href="#ArialMT-64" x="768.90625"/>
     <use xlink:href="#ArialMT-61" x="824.521484"/>
     <use xlink:href="#ArialMT-74" x="880.136719"/>
     <use xlink:href="#ArialMT-61" x="907.919922"/>
     <use xlink:href="#ArialMT-20" x="963.535156"/>
     <use xlink:href="#ArialMT-73" x="991.318359"/>
     <use xlink:href="#ArialMT-70" x="1041.318359"/>
     <use xlink:href="#ArialMT-6c" x="1096.933594"/>
     <use xlink:href="#ArialMT-69" x="1119.150391"/>
     <use xlink:href="#ArialMT-74" x="1141.367188"/>
    </g>
   </g>
   <g id="legend_1">
    <g id="patch_9">
     <path d="M 650.46325 91.02075 
L 808.844 91.02075 
Q 812.364 91.02075 812.364 87.50075 
L 812.364 39.263 
Q 812.364 35.743 808.844 35.743 
L 650.46325 35.743 
Q 646.94325 35.743 646.94325 39.263 
L 646.94325 87.50075 
Q 646.94325 91.02075 650.46325 91.02075 
z
" style="fill: #ffffff; opacity: 0.8; stroke: #cccccc; stroke-width: 0.8; stroke-linejoin: miter"/>
    </g>
    <g id="patch_10">
     <path d="M 653.98325 55.38075 
L 689.18325 55.38075 
L 689.18325 43.06075 
L 653.98325 43.06075 
z
" style="fill: #0000ff; opacity: 0.1; stroke: #0000ff; stroke-width: 0.8; stroke-linejoin: miter"/>
    </g>
    <g id="text_13">
     <!-- Training data -->
     <g style="fill: #262626" transform="translate(703.26325 55.38075) scale(0.176 -0.176)">
      <use xlink:href="#ArialMT-54"/>
      <use xlink:href="#ArialMT-72" x="57.333984"/>
      <use xlink:href="#ArialMT-61" x="90.634766"/>
      <use xlink:href="#ArialMT-69" x="146.25"/>
      <use xlink:href="#ArialMT-6e" x="168.466797"/>
      <use xlink:href="#ArialMT-69" x="224.082031"/>
      <use xlink:href="#ArialMT-6e" x="246.298828"/>
      <use xlink:href="#ArialMT-67" x="301.914062"/>
      <use xlink:href="#ArialMT-20" x="357.529297"/>
      <use xlink:href="#ArialMT-64" x="385.3125"/>
      <use xlink:href="#ArialMT-61" x="440.927734"/>
      <use xlink:href="#ArialMT-74" x="496.542969"/>
      <use xlink:href="#ArialMT-61" x="524.326172"/>
     </g>
    </g>
    <g id="patch_11">
     <path d="M 653.98325 80.48275 
L 689.18325 80.48275 
L 689.18325 68.16275 
L 653.98325 68.16275 
z
" style="fill: #008000; opacity: 0.1; stroke: #008000; stroke-width: 0.8; stroke-linejoin: miter"/>
    </g>
    <g id="text_14">
     <!-- Test data -->
     <g style="fill: #262626" transform="translate(703.26325 80.48275) scale(0.176 -0.176)">
      <use xlink:href="#ArialMT-54"/>
      <use xlink:href="#ArialMT-65" x="49.958984"/>
      <use xlink:href="#ArialMT-73" x="105.574219"/>
      <use xlink:href="#ArialMT-74" x="155.574219"/>
      <use xlink:href="#ArialMT-20" x="183.357422"/>
      <use xlink:href="#ArialMT-64" x="211.140625"/>
      <use xlink:href="#ArialMT-61" x="266.755859"/>
      <use xlink:href="#ArialMT-74" x="322.371094"/>
      <use xlink:href="#ArialMT-61" x="350.154297"/>
     </g>
    </g>
   </g>
  </g>
 </g>
 <defs>
  <clipPath id="pa6964da073">
   <rect x="39.964" y="26.943" width="781.2" height="110.88"/>
  </clipPath>
 </defs>
</svg>
