<?xml version="1.0" encoding="utf-8" standalone="no"?>
<!DOCTYPE svg PUBLIC "-//W3C//DTD SVG 1.1//EN"
  "http://www.w3.org/Graphics/SVG/1.1/DTD/svg11.dtd">
<svg xmlns:xlink="http://www.w3.org/1999/xlink" width="835.70525pt" height="280.53275pt" viewBox="0 0 835.70525 280.53275" xmlns="http://www.w3.org/2000/svg" version="1.1">
 <metadata>
  <rdf:RDF xmlns:dc="http://purl.org/dc/elements/1.1/" xmlns:cc="http://creativecommons.org/ns#" xmlns:rdf="http://www.w3.org/1999/02/22-rdf-syntax-ns#">
   <cc:Work>
    <dc:type rdf:resource="http://purl.org/dc/dcmitype/StillImage"/>
    <dc:date>2023-05-13T18:38:33.304402</dc:date>
    <dc:format>image/svg+xml</dc:format>
    <dc:creator>
     <cc:Agent>
      <dc:title>Matplotlib v3.7.1, https://matplotlib.org/</dc:title>
     </cc:Agent>
    </dc:creator>
   </cc:Work>
  </rdf:RDF>
 </metadata>
 <defs>
  <style type="text/css">*{stroke-linejoin: round; stroke-linecap: butt}</style>
 </defs>
 <g id="figure_1">
  <g id="patch_1">
   <path d="M 0 280.53275 
L 835.70525 280.53275 
L 835.70525 0 
L 0 0 
z
" style="fill: #ffffff"/>
  </g>
  <g id="axes_1">
   <g id="patch_2">
    <path d="M 47.30525 248.937 
L 828.50525 248.937 
L 828.50525 27.177 
L 47.30525 27.177 
z
" style="fill: #ffffff"/>
   </g>
   <g id="matplotlib.axis_1">
    <g id="xtick_1">
     <g id="line2d_1">
      <path d="M 82.814341 248.937 
L 82.814341 27.177 
" clip-path="url(#p6c9cb9aa6f)" style="fill: none; stroke: #cccccc; stroke-width: 0.8; stroke-linecap: round"/>
     </g>
     <g id="text_1">
      <!-- 2020-01 -->
      <g style="fill: #262626" transform="translate(50.522466 269.83475) scale(0.176 -0.176)">
       <defs>
        <path id="ArialMT-32" d="M 3222 541 
L 3222 0 
L 194 0 
Q 188 203 259 391 
Q 375 700 629 1000 
Q 884 1300 1366 1694 
Q 2113 2306 2375 2664 
Q 2638 3022 2638 3341 
Q 2638 3675 2398 3904 
Q 2159 4134 1775 4134 
Q 1369 4134 1125 3890 
Q 881 3647 878 3216 
L 300 3275 
Q 359 3922 746 4261 
Q 1134 4600 1788 4600 
Q 2447 4600 2831 4234 
Q 3216 3869 3216 3328 
Q 3216 3053 3103 2787 
Q 2991 2522 2730 2228 
Q 2469 1934 1863 1422 
Q 1356 997 1212 845 
Q 1069 694 975 541 
L 3222 541 
z
" transform="scale(0.015625)"/>
        <path id="ArialMT-30" d="M 266 2259 
Q 266 3072 433 3567 
Q 600 4063 929 4331 
Q 1259 4600 1759 4600 
Q 2128 4600 2406 4451 
Q 2684 4303 2865 4023 
Q 3047 3744 3150 3342 
Q 3253 2941 3253 2259 
Q 3253 1453 3087 958 
Q 2922 463 2592 192 
Q 2263 -78 1759 -78 
Q 1097 -78 719 397 
Q 266 969 266 2259 
z
M 844 2259 
Q 844 1131 1108 757 
Q 1372 384 1759 384 
Q 2147 384 2411 759 
Q 2675 1134 2675 2259 
Q 2675 3391 2411 3762 
Q 2147 4134 1753 4134 
Q 1366 4134 1134 3806 
Q 844 3388 844 2259 
z
" transform="scale(0.015625)"/>
        <path id="ArialMT-2d" d="M 203 1375 
L 203 1941 
L 1931 1941 
L 1931 1375 
L 203 1375 
z
" transform="scale(0.015625)"/>
        <path id="ArialMT-31" d="M 2384 0 
L 1822 0 
L 1822 3584 
Q 1619 3391 1289 3197 
Q 959 3003 697 2906 
L 697 3450 
Q 1169 3672 1522 3987 
Q 1875 4303 2022 4600 
L 2384 4600 
L 2384 0 
z
" transform="scale(0.015625)"/>
       </defs>
       <use xlink:href="#ArialMT-32"/>
       <use xlink:href="#ArialMT-30" x="55.615234"/>
       <use xlink:href="#ArialMT-32" x="111.230469"/>
       <use xlink:href="#ArialMT-30" x="166.845703"/>
       <use xlink:href="#ArialMT-2d" x="222.460938"/>
       <use xlink:href="#ArialMT-30" x="255.761719"/>
       <use xlink:href="#ArialMT-31" x="311.376953"/>
      </g>
     </g>
    </g>
    <g id="xtick_2">
     <g id="line2d_2">
      <path d="M 161.291053 248.937 
L 161.291053 27.177 
" clip-path="url(#p6c9cb9aa6f)" style="fill: none; stroke: #cccccc; stroke-width: 0.8; stroke-linecap: round"/>
     </g>
     <g id="text_2">
      <!-- 2020-05 -->
      <g style="fill: #262626" transform="translate(128.999178 269.83475) scale(0.176 -0.176)">
       <defs>
        <path id="ArialMT-35" d="M 266 1200 
L 856 1250 
Q 922 819 1161 601 
Q 1400 384 1738 384 
Q 2144 384 2425 690 
Q 2706 997 2706 1503 
Q 2706 1984 2436 2262 
Q 2166 2541 1728 2541 
Q 1456 2541 1237 2417 
Q 1019 2294 894 2097 
L 366 2166 
L 809 4519 
L 3088 4519 
L 3088 3981 
L 1259 3981 
L 1013 2750 
Q 1425 3038 1878 3038 
Q 2478 3038 2890 2622 
Q 3303 2206 3303 1553 
Q 3303 931 2941 478 
Q 2500 -78 1738 -78 
Q 1113 -78 717 272 
Q 322 622 266 1200 
z
" transform="scale(0.015625)"/>
       </defs>
       <use xlink:href="#ArialMT-32"/>
       <use xlink:href="#ArialMT-30" x="55.615234"/>
       <use xlink:href="#ArialMT-32" x="111.230469"/>
       <use xlink:href="#ArialMT-30" x="166.845703"/>
       <use xlink:href="#ArialMT-2d" x="222.460938"/>
       <use xlink:href="#ArialMT-30" x="255.761719"/>
       <use xlink:href="#ArialMT-35" x="311.376953"/>
      </g>
     </g>
    </g>
    <g id="xtick_3">
     <g id="line2d_3">
      <path d="M 241.064901 248.937 
L 241.064901 27.177 
" clip-path="url(#p6c9cb9aa6f)" style="fill: none; stroke: #cccccc; stroke-width: 0.8; stroke-linecap: round"/>
     </g>
     <g id="text_3">
      <!-- 2020-09 -->
      <g style="fill: #262626" transform="translate(208.773026 269.83475) scale(0.176 -0.176)">
       <defs>
        <path id="ArialMT-39" d="M 350 1059 
L 891 1109 
Q 959 728 1153 556 
Q 1347 384 1650 384 
Q 1909 384 2104 503 
Q 2300 622 2425 820 
Q 2550 1019 2634 1356 
Q 2719 1694 2719 2044 
Q 2719 2081 2716 2156 
Q 2547 1888 2255 1720 
Q 1963 1553 1622 1553 
Q 1053 1553 659 1965 
Q 266 2378 266 3053 
Q 266 3750 677 4175 
Q 1088 4600 1706 4600 
Q 2153 4600 2523 4359 
Q 2894 4119 3086 3673 
Q 3278 3228 3278 2384 
Q 3278 1506 3087 986 
Q 2897 466 2520 194 
Q 2144 -78 1638 -78 
Q 1100 -78 759 220 
Q 419 519 350 1059 
z
M 2653 3081 
Q 2653 3566 2395 3850 
Q 2138 4134 1775 4134 
Q 1400 4134 1122 3828 
Q 844 3522 844 3034 
Q 844 2597 1108 2323 
Q 1372 2050 1759 2050 
Q 2150 2050 2401 2323 
Q 2653 2597 2653 3081 
z
" transform="scale(0.015625)"/>
       </defs>
       <use xlink:href="#ArialMT-32"/>
       <use xlink:href="#ArialMT-30" x="55.615234"/>
       <use xlink:href="#ArialMT-32" x="111.230469"/>
       <use xlink:href="#ArialMT-30" x="166.845703"/>
       <use xlink:href="#ArialMT-2d" x="222.460938"/>
       <use xlink:href="#ArialMT-30" x="255.761719"/>
       <use xlink:href="#ArialMT-39" x="311.376953"/>
      </g>
     </g>
    </g>
    <g id="xtick_4">
     <g id="line2d_4">
      <path d="M 320.190182 248.937 
L 320.190182 27.177 
" clip-path="url(#p6c9cb9aa6f)" style="fill: none; stroke: #cccccc; stroke-width: 0.8; stroke-linecap: round"/>
     </g>
     <g id="text_4">
      <!-- 2021-01 -->
      <g style="fill: #262626" transform="translate(287.898307 269.83475) scale(0.176 -0.176)">
       <use xlink:href="#ArialMT-32"/>
       <use xlink:href="#ArialMT-30" x="55.615234"/>
       <use xlink:href="#ArialMT-32" x="111.230469"/>
       <use xlink:href="#ArialMT-31" x="166.845703"/>
       <use xlink:href="#ArialMT-2d" x="222.460938"/>
       <use xlink:href="#ArialMT-30" x="255.761719"/>
       <use xlink:href="#ArialMT-31" x="311.376953"/>
      </g>
     </g>
    </g>
    <g id="xtick_5">
     <g id="line2d_5">
      <path d="M 398.018326 248.937 
L 398.018326 27.177 
" clip-path="url(#p6c9cb9aa6f)" style="fill: none; stroke: #cccccc; stroke-width: 0.8; stroke-linecap: round"/>
     </g>
     <g id="text_5">
      <!-- 2021-05 -->
      <g style="fill: #262626" transform="translate(365.726451 269.83475) scale(0.176 -0.176)">
       <use xlink:href="#ArialMT-32"/>
       <use xlink:href="#ArialMT-30" x="55.615234"/>
       <use xlink:href="#ArialMT-32" x="111.230469"/>
       <use xlink:href="#ArialMT-31" x="166.845703"/>
       <use xlink:href="#ArialMT-2d" x="222.460938"/>
       <use xlink:href="#ArialMT-30" x="255.761719"/>
       <use xlink:href="#ArialMT-35" x="311.376953"/>
      </g>
     </g>
    </g>
    <g id="xtick_6">
     <g id="line2d_6">
      <path d="M 477.792174 248.937 
L 477.792174 27.177 
" clip-path="url(#p6c9cb9aa6f)" style="fill: none; stroke: #cccccc; stroke-width: 0.8; stroke-linecap: round"/>
     </g>
     <g id="text_6">
      <!-- 2021-09 -->
      <g style="fill: #262626" transform="translate(445.500299 269.83475) scale(0.176 -0.176)">
       <use xlink:href="#ArialMT-32"/>
       <use xlink:href="#ArialMT-30" x="55.615234"/>
       <use xlink:href="#ArialMT-32" x="111.230469"/>
       <use xlink:href="#ArialMT-31" x="166.845703"/>
       <use xlink:href="#ArialMT-2d" x="222.460938"/>
       <use xlink:href="#ArialMT-30" x="255.761719"/>
       <use xlink:href="#ArialMT-39" x="311.376953"/>
      </g>
     </g>
    </g>
    <g id="xtick_7">
     <g id="line2d_7">
      <path d="M 556.917454 248.937 
L 556.917454 27.177 
" clip-path="url(#p6c9cb9aa6f)" style="fill: none; stroke: #cccccc; stroke-width: 0.8; stroke-linecap: round"/>
     </g>
     <g id="text_7">
      <!-- 2022-01 -->
      <g style="fill: #262626" transform="translate(524.625579 269.83475) scale(0.176 -0.176)">
       <use xlink:href="#ArialMT-32"/>
       <use xlink:href="#ArialMT-30" x="55.615234"/>
       <use xlink:href="#ArialMT-32" x="111.230469"/>
       <use xlink:href="#ArialMT-32" x="166.845703"/>
       <use xlink:href="#ArialMT-2d" x="222.460938"/>
       <use xlink:href="#ArialMT-30" x="255.761719"/>
       <use xlink:href="#ArialMT-31" x="311.376953"/>
      </g>
     </g>
    </g>
    <g id="xtick_8">
     <g id="line2d_8">
      <path d="M 634.745599 248.937 
L 634.745599 27.177 
" clip-path="url(#p6c9cb9aa6f)" style="fill: none; stroke: #cccccc; stroke-width: 0.8; stroke-linecap: round"/>
     </g>
     <g id="text_8">
      <!-- 2022-05 -->
      <g style="fill: #262626" transform="translate(602.453724 269.83475) scale(0.176 -0.176)">
       <use xlink:href="#ArialMT-32"/>
       <use xlink:href="#ArialMT-30" x="55.615234"/>
       <use xlink:href="#ArialMT-32" x="111.230469"/>
       <use xlink:href="#ArialMT-32" x="166.845703"/>
       <use xlink:href="#ArialMT-2d" x="222.460938"/>
       <use xlink:href="#ArialMT-30" x="255.761719"/>
       <use xlink:href="#ArialMT-35" x="311.376953"/>
      </g>
     </g>
    </g>
    <g id="xtick_9">
     <g id="line2d_9">
      <path d="M 714.519447 248.937 
L 714.519447 27.177 
" clip-path="url(#p6c9cb9aa6f)" style="fill: none; stroke: #cccccc; stroke-width: 0.8; stroke-linecap: round"/>
     </g>
     <g id="text_9">
      <!-- 2022-09 -->
      <g style="fill: #262626" transform="translate(682.227572 269.83475) scale(0.176 -0.176)">
       <use xlink:href="#ArialMT-32"/>
       <use xlink:href="#ArialMT-30" x="55.615234"/>
       <use xlink:href="#ArialMT-32" x="111.230469"/>
       <use xlink:href="#ArialMT-32" x="166.845703"/>
       <use xlink:href="#ArialMT-2d" x="222.460938"/>
       <use xlink:href="#ArialMT-30" x="255.761719"/>
       <use xlink:href="#ArialMT-39" x="311.376953"/>
      </g>
     </g>
    </g>
    <g id="xtick_10">
     <g id="line2d_10">
      <path d="M 793.644727 248.937 
L 793.644727 27.177 
" clip-path="url(#p6c9cb9aa6f)" style="fill: none; stroke: #cccccc; stroke-width: 0.8; stroke-linecap: round"/>
     </g>
     <g id="text_10">
      <!-- 2023-01 -->
      <g style="fill: #262626" transform="translate(761.352852 269.83475) scale(0.176 -0.176)">
       <defs>
        <path id="ArialMT-33" d="M 269 1209 
L 831 1284 
Q 928 806 1161 595 
Q 1394 384 1728 384 
Q 2125 384 2398 659 
Q 2672 934 2672 1341 
Q 2672 1728 2419 1979 
Q 2166 2231 1775 2231 
Q 1616 2231 1378 2169 
L 1441 2663 
Q 1497 2656 1531 2656 
Q 1891 2656 2178 2843 
Q 2466 3031 2466 3422 
Q 2466 3731 2256 3934 
Q 2047 4138 1716 4138 
Q 1388 4138 1169 3931 
Q 950 3725 888 3313 
L 325 3413 
Q 428 3978 793 4289 
Q 1159 4600 1703 4600 
Q 2078 4600 2393 4439 
Q 2709 4278 2876 4000 
Q 3044 3722 3044 3409 
Q 3044 3113 2884 2869 
Q 2725 2625 2413 2481 
Q 2819 2388 3044 2092 
Q 3269 1797 3269 1353 
Q 3269 753 2831 336 
Q 2394 -81 1725 -81 
Q 1122 -81 723 278 
Q 325 638 269 1209 
z
" transform="scale(0.015625)"/>
       </defs>
       <use xlink:href="#ArialMT-32"/>
       <use xlink:href="#ArialMT-30" x="55.615234"/>
       <use xlink:href="#ArialMT-32" x="111.230469"/>
       <use xlink:href="#ArialMT-33" x="166.845703"/>
       <use xlink:href="#ArialMT-2d" x="222.460938"/>
       <use xlink:href="#ArialMT-30" x="255.761719"/>
       <use xlink:href="#ArialMT-31" x="311.376953"/>
      </g>
     </g>
    </g>
   </g>
   <g id="matplotlib.axis_2">
    <g id="ytick_1">
     <g id="line2d_11">
      <path d="M 47.30525 248.937 
L 828.50525 248.937 
" clip-path="url(#p6c9cb9aa6f)" style="fill: none; stroke: #cccccc; stroke-width: 0.8; stroke-linecap: round"/>
     </g>
     <g id="text_11">
      <!-- 0 -->
      <g style="fill: #262626" transform="translate(29.218 255.235875) scale(0.176 -0.176)">
       <use xlink:href="#ArialMT-30"/>
      </g>
     </g>
    </g>
    <g id="ytick_2">
     <g id="line2d_12">
      <path d="M 47.30525 185.577 
L 828.50525 185.577 
" clip-path="url(#p6c9cb9aa6f)" style="fill: none; stroke: #cccccc; stroke-width: 0.8; stroke-linecap: round"/>
     </g>
     <g id="text_12">
      <!-- 2 -->
      <g style="fill: #262626" transform="translate(29.218 191.875875) scale(0.176 -0.176)">
       <use xlink:href="#ArialMT-32"/>
      </g>
     </g>
    </g>
    <g id="ytick_3">
     <g id="line2d_13">
      <path d="M 47.30525 122.217 
L 828.50525 122.217 
" clip-path="url(#p6c9cb9aa6f)" style="fill: none; stroke: #cccccc; stroke-width: 0.8; stroke-linecap: round"/>
     </g>
     <g id="text_13">
      <!-- 4 -->
      <g style="fill: #262626" transform="translate(29.218 128.515875) scale(0.176 -0.176)">
       <defs>
        <path id="ArialMT-34" d="M 2069 0 
L 2069 1097 
L 81 1097 
L 81 1613 
L 2172 4581 
L 2631 4581 
L 2631 1613 
L 3250 1613 
L 3250 1097 
L 2631 1097 
L 2631 0 
L 2069 0 
z
M 2069 1613 
L 2069 3678 
L 634 1613 
L 2069 1613 
z
" transform="scale(0.015625)"/>
       </defs>
       <use xlink:href="#ArialMT-34"/>
      </g>
     </g>
    </g>
    <g id="ytick_4">
     <g id="line2d_14">
      <path d="M 47.30525 58.857 
L 828.50525 58.857 
" clip-path="url(#p6c9cb9aa6f)" style="fill: none; stroke: #cccccc; stroke-width: 0.8; stroke-linecap: round"/>
     </g>
     <g id="text_14">
      <!-- 6 -->
      <g style="fill: #262626" transform="translate(29.218 65.155875) scale(0.176 -0.176)">
       <defs>
        <path id="ArialMT-36" d="M 3184 3459 
L 2625 3416 
Q 2550 3747 2413 3897 
Q 2184 4138 1850 4138 
Q 1581 4138 1378 3988 
Q 1113 3794 959 3422 
Q 806 3050 800 2363 
Q 1003 2672 1297 2822 
Q 1591 2972 1913 2972 
Q 2475 2972 2870 2558 
Q 3266 2144 3266 1488 
Q 3266 1056 3080 686 
Q 2894 316 2569 119 
Q 2244 -78 1831 -78 
Q 1128 -78 684 439 
Q 241 956 241 2144 
Q 241 3472 731 4075 
Q 1159 4600 1884 4600 
Q 2425 4600 2770 4297 
Q 3116 3994 3184 3459 
z
M 888 1484 
Q 888 1194 1011 928 
Q 1134 663 1356 523 
Q 1578 384 1822 384 
Q 2178 384 2434 671 
Q 2691 959 2691 1453 
Q 2691 1928 2437 2201 
Q 2184 2475 1800 2475 
Q 1419 2475 1153 2201 
Q 888 1928 888 1484 
z
" transform="scale(0.015625)"/>
       </defs>
       <use xlink:href="#ArialMT-36"/>
      </g>
     </g>
    </g>
    <g id="text_15">
     <!-- Consumption (MWh) -->
     <g style="fill: #262626" transform="translate(21.177 226.074) rotate(-90) scale(0.192 -0.192)">
      <defs>
       <path id="ArialMT-43" d="M 3763 1606 
L 4369 1453 
Q 4178 706 3683 314 
Q 3188 -78 2472 -78 
Q 1731 -78 1267 223 
Q 803 525 561 1097 
Q 319 1669 319 2325 
Q 319 3041 592 3573 
Q 866 4106 1370 4382 
Q 1875 4659 2481 4659 
Q 3169 4659 3637 4309 
Q 4106 3959 4291 3325 
L 3694 3184 
Q 3534 3684 3231 3912 
Q 2928 4141 2469 4141 
Q 1941 4141 1586 3887 
Q 1231 3634 1087 3207 
Q 944 2781 944 2328 
Q 944 1744 1114 1308 
Q 1284 872 1643 656 
Q 2003 441 2422 441 
Q 2931 441 3284 734 
Q 3638 1028 3763 1606 
z
" transform="scale(0.015625)"/>
       <path id="ArialMT-6f" d="M 213 1659 
Q 213 2581 725 3025 
Q 1153 3394 1769 3394 
Q 2453 3394 2887 2945 
Q 3322 2497 3322 1706 
Q 3322 1066 3130 698 
Q 2938 331 2570 128 
Q 2203 -75 1769 -75 
Q 1072 -75 642 372 
Q 213 819 213 1659 
z
M 791 1659 
Q 791 1022 1069 705 
Q 1347 388 1769 388 
Q 2188 388 2466 706 
Q 2744 1025 2744 1678 
Q 2744 2294 2464 2611 
Q 2184 2928 1769 2928 
Q 1347 2928 1069 2612 
Q 791 2297 791 1659 
z
" transform="scale(0.015625)"/>
       <path id="ArialMT-6e" d="M 422 0 
L 422 3319 
L 928 3319 
L 928 2847 
Q 1294 3394 1984 3394 
Q 2284 3394 2536 3286 
Q 2788 3178 2913 3003 
Q 3038 2828 3088 2588 
Q 3119 2431 3119 2041 
L 3119 0 
L 2556 0 
L 2556 2019 
Q 2556 2363 2490 2533 
Q 2425 2703 2258 2804 
Q 2091 2906 1866 2906 
Q 1506 2906 1245 2678 
Q 984 2450 984 1813 
L 984 0 
L 422 0 
z
" transform="scale(0.015625)"/>
       <path id="ArialMT-73" d="M 197 991 
L 753 1078 
Q 800 744 1014 566 
Q 1228 388 1613 388 
Q 2000 388 2187 545 
Q 2375 703 2375 916 
Q 2375 1106 2209 1216 
Q 2094 1291 1634 1406 
Q 1016 1563 777 1677 
Q 538 1791 414 1992 
Q 291 2194 291 2438 
Q 291 2659 392 2848 
Q 494 3038 669 3163 
Q 800 3259 1026 3326 
Q 1253 3394 1513 3394 
Q 1903 3394 2198 3281 
Q 2494 3169 2634 2976 
Q 2775 2784 2828 2463 
L 2278 2388 
Q 2241 2644 2061 2787 
Q 1881 2931 1553 2931 
Q 1166 2931 1000 2803 
Q 834 2675 834 2503 
Q 834 2394 903 2306 
Q 972 2216 1119 2156 
Q 1203 2125 1616 2013 
Q 2213 1853 2448 1751 
Q 2684 1650 2818 1456 
Q 2953 1263 2953 975 
Q 2953 694 2789 445 
Q 2625 197 2315 61 
Q 2006 -75 1616 -75 
Q 969 -75 630 194 
Q 291 463 197 991 
z
" transform="scale(0.015625)"/>
       <path id="ArialMT-75" d="M 2597 0 
L 2597 488 
Q 2209 -75 1544 -75 
Q 1250 -75 995 37 
Q 741 150 617 320 
Q 494 491 444 738 
Q 409 903 409 1263 
L 409 3319 
L 972 3319 
L 972 1478 
Q 972 1038 1006 884 
Q 1059 663 1231 536 
Q 1403 409 1656 409 
Q 1909 409 2131 539 
Q 2353 669 2445 892 
Q 2538 1116 2538 1541 
L 2538 3319 
L 3100 3319 
L 3100 0 
L 2597 0 
z
" transform="scale(0.015625)"/>
       <path id="ArialMT-6d" d="M 422 0 
L 422 3319 
L 925 3319 
L 925 2853 
Q 1081 3097 1340 3245 
Q 1600 3394 1931 3394 
Q 2300 3394 2536 3241 
Q 2772 3088 2869 2813 
Q 3263 3394 3894 3394 
Q 4388 3394 4653 3120 
Q 4919 2847 4919 2278 
L 4919 0 
L 4359 0 
L 4359 2091 
Q 4359 2428 4304 2576 
Q 4250 2725 4106 2815 
Q 3963 2906 3769 2906 
Q 3419 2906 3187 2673 
Q 2956 2441 2956 1928 
L 2956 0 
L 2394 0 
L 2394 2156 
Q 2394 2531 2256 2718 
Q 2119 2906 1806 2906 
Q 1569 2906 1367 2781 
Q 1166 2656 1075 2415 
Q 984 2175 984 1722 
L 984 0 
L 422 0 
z
" transform="scale(0.015625)"/>
       <path id="ArialMT-70" d="M 422 -1272 
L 422 3319 
L 934 3319 
L 934 2888 
Q 1116 3141 1344 3267 
Q 1572 3394 1897 3394 
Q 2322 3394 2647 3175 
Q 2972 2956 3137 2557 
Q 3303 2159 3303 1684 
Q 3303 1175 3120 767 
Q 2938 359 2589 142 
Q 2241 -75 1856 -75 
Q 1575 -75 1351 44 
Q 1128 163 984 344 
L 984 -1272 
L 422 -1272 
z
M 931 1641 
Q 931 1000 1190 694 
Q 1450 388 1819 388 
Q 2194 388 2461 705 
Q 2728 1022 2728 1688 
Q 2728 2322 2467 2637 
Q 2206 2953 1844 2953 
Q 1484 2953 1207 2617 
Q 931 2281 931 1641 
z
" transform="scale(0.015625)"/>
       <path id="ArialMT-74" d="M 1650 503 
L 1731 6 
Q 1494 -44 1306 -44 
Q 1000 -44 831 53 
Q 663 150 594 308 
Q 525 466 525 972 
L 525 2881 
L 113 2881 
L 113 3319 
L 525 3319 
L 525 4141 
L 1084 4478 
L 1084 3319 
L 1650 3319 
L 1650 2881 
L 1084 2881 
L 1084 941 
Q 1084 700 1114 631 
Q 1144 563 1211 522 
Q 1278 481 1403 481 
Q 1497 481 1650 503 
z
" transform="scale(0.015625)"/>
       <path id="ArialMT-69" d="M 425 3934 
L 425 4581 
L 988 4581 
L 988 3934 
L 425 3934 
z
M 425 0 
L 425 3319 
L 988 3319 
L 988 0 
L 425 0 
z
" transform="scale(0.015625)"/>
       <path id="ArialMT-20" transform="scale(0.015625)"/>
       <path id="ArialMT-28" d="M 1497 -1347 
Q 1031 -759 709 28 
Q 388 816 388 1659 
Q 388 2403 628 3084 
Q 909 3875 1497 4659 
L 1900 4659 
Q 1522 4009 1400 3731 
Q 1209 3300 1100 2831 
Q 966 2247 966 1656 
Q 966 153 1900 -1347 
L 1497 -1347 
z
" transform="scale(0.015625)"/>
       <path id="ArialMT-4d" d="M 475 0 
L 475 4581 
L 1388 4581 
L 2472 1338 
Q 2622 884 2691 659 
Q 2769 909 2934 1394 
L 4031 4581 
L 4847 4581 
L 4847 0 
L 4263 0 
L 4263 3834 
L 2931 0 
L 2384 0 
L 1059 3900 
L 1059 0 
L 475 0 
z
" transform="scale(0.015625)"/>
       <path id="ArialMT-57" d="M 1294 0 
L 78 4581 
L 700 4581 
L 1397 1578 
Q 1509 1106 1591 641 
Q 1766 1375 1797 1488 
L 2669 4581 
L 3400 4581 
L 4056 2263 
Q 4303 1400 4413 641 
Q 4500 1075 4641 1638 
L 5359 4581 
L 5969 4581 
L 4713 0 
L 4128 0 
L 3163 3491 
Q 3041 3928 3019 4028 
Q 2947 3713 2884 3491 
L 1913 0 
L 1294 0 
z
" transform="scale(0.015625)"/>
       <path id="ArialMT-68" d="M 422 0 
L 422 4581 
L 984 4581 
L 984 2938 
Q 1378 3394 1978 3394 
Q 2347 3394 2619 3248 
Q 2891 3103 3008 2847 
Q 3125 2591 3125 2103 
L 3125 0 
L 2563 0 
L 2563 2103 
Q 2563 2525 2380 2717 
Q 2197 2909 1863 2909 
Q 1613 2909 1392 2779 
Q 1172 2650 1078 2428 
Q 984 2206 984 1816 
L 984 0 
L 422 0 
z
" transform="scale(0.015625)"/>
       <path id="ArialMT-29" d="M 791 -1347 
L 388 -1347 
Q 1322 153 1322 1656 
Q 1322 2244 1188 2822 
Q 1081 3291 891 3722 
Q 769 4003 388 4659 
L 791 4659 
Q 1378 3875 1659 3084 
Q 1900 2403 1900 1659 
Q 1900 816 1576 28 
Q 1253 -759 791 -1347 
z
" transform="scale(0.015625)"/>
      </defs>
      <use xlink:href="#ArialMT-43"/>
      <use xlink:href="#ArialMT-6f" x="72.216797"/>
      <use xlink:href="#ArialMT-6e" x="127.832031"/>
      <use xlink:href="#ArialMT-73" x="183.447266"/>
      <use xlink:href="#ArialMT-75" x="233.447266"/>
      <use xlink:href="#ArialMT-6d" x="289.0625"/>
      <use xlink:href="#ArialMT-70" x="372.363281"/>
      <use xlink:href="#ArialMT-74" x="427.978516"/>
      <use xlink:href="#ArialMT-69" x="455.761719"/>
      <use xlink:href="#ArialMT-6f" x="477.978516"/>
      <use xlink:href="#ArialMT-6e" x="533.59375"/>
      <use xlink:href="#ArialMT-20" x="589.208984"/>
      <use xlink:href="#ArialMT-28" x="616.992188"/>
      <use xlink:href="#ArialMT-4d" x="650.292969"/>
      <use xlink:href="#ArialMT-57" x="733.59375"/>
      <use xlink:href="#ArialMT-68" x="827.978516"/>
      <use xlink:href="#ArialMT-29" x="883.59375"/>
     </g>
    </g>
    <g id="text_16">
     <!-- 1e6 -->
     <g style="fill: #262626" transform="translate(47.30525 24.177) scale(0.176 -0.176)">
      <defs>
       <path id="ArialMT-65" d="M 2694 1069 
L 3275 997 
Q 3138 488 2766 206 
Q 2394 -75 1816 -75 
Q 1088 -75 661 373 
Q 234 822 234 1631 
Q 234 2469 665 2931 
Q 1097 3394 1784 3394 
Q 2450 3394 2872 2941 
Q 3294 2488 3294 1666 
Q 3294 1616 3291 1516 
L 816 1516 
Q 847 969 1125 678 
Q 1403 388 1819 388 
Q 2128 388 2347 550 
Q 2566 713 2694 1069 
z
M 847 1978 
L 2700 1978 
Q 2663 2397 2488 2606 
Q 2219 2931 1791 2931 
Q 1403 2931 1139 2672 
Q 875 2413 847 1978 
z
" transform="scale(0.015625)"/>
      </defs>
      <use xlink:href="#ArialMT-31"/>
      <use xlink:href="#ArialMT-65" x="55.615234"/>
      <use xlink:href="#ArialMT-36" x="111.230469"/>
     </g>
    </g>
   </g>
   <g id="patch_3">
    <path d="M 309.164528 248.937 
L 309.164528 27.177 
L 349.375736 27.177 
L 349.375736 248.937 
z
" clip-path="url(#p6c9cb9aa6f)" style="fill: #008000; opacity: 0.1; stroke: #008000; stroke-width: 0.8; stroke-linejoin: miter"/>
   </g>
   <g id="line2d_15">
    <path d="M 319.541614 248.937 
L 319.541614 27.177 
" clip-path="url(#p6c9cb9aa6f)" style="fill: none; stroke: #ff0000; stroke-width: 0.8; stroke-linecap: round"/>
   </g>
   <g id="line2d_16">
    <path d="M 82.814341 124.618495 
L 83.462909 115.360415 
L 84.111477 128.499128 
L 84.760045 131.881555 
L 85.408612 132.5171 
L 86.05718 119.96518 
L 86.705748 119.277381 
L 87.354316 125.959268 
L 88.002884 140.466438 
L 88.651452 140.136424 
L 89.30002 139.563325 
L 89.948587 136.945071 
L 90.597155 126.000448 
L 91.245723 137.071154 
L 91.894291 142.585846 
L 92.542859 137.131328 
L 93.191427 137.938995 
L 93.839995 136.766312 
L 94.488563 126.826292 
L 95.13713 106.897662 
L 95.785698 100.61556 
L 96.434266 98.300078 
L 97.082834 97.85613 
L 97.731402 99.103284 
L 98.37997 113.091705 
L 99.028538 119.288733 
L 99.677106 118.186659 
L 100.325673 120.216043 
L 100.974241 119.566611 
L 101.622809 131.421424 
L 102.271377 149.172266 
L 102.919945 162.821673 
L 103.568513 158.998003 
L 104.217081 149.169106 
L 105.514216 119.914344 
L 106.162784 112.315443 
L 106.811352 115.696522 
L 108.108488 149.271029 
L 108.757056 139.45169 
L 110.702759 117.264986 
L 111.351327 123.974022 
L 111.999895 147.314902 
L 112.648463 162.047166 
L 113.297031 148.904723 
L 113.945599 142.170799 
L 114.594167 131.217296 
L 115.242734 132.940067 
L 115.891302 135.09858 
L 116.53987 152.528402 
L 117.188438 153.645289 
L 117.837006 143.731572 
L 118.485574 140.43449 
L 119.134142 122.993841 
L 119.78271 115.047143 
L 120.431277 121.898449 
L 121.079845 144.893447 
L 121.728413 146.649899 
L 122.376981 132.043051 
L 123.025549 124.921344 
L 123.674117 122.398536 
L 124.322685 125.671495 
L 124.971252 127.211873 
L 125.61982 138.006638 
L 126.268388 145.624756 
L 126.916956 135.527069 
L 127.565524 142.889431 
L 128.214092 154.685159 
L 128.86266 153.702571 
L 129.511228 145.554213 
L 130.159795 148.194334 
L 130.808363 154.709587 
L 131.456931 149.114453 
L 132.105499 154.3712 
L 132.754067 162.249614 
L 133.402635 160.274763 
L 134.051203 160.478179 
L 134.699771 154.647739 
L 135.348338 143.08396 
L 135.996906 125.995298 
L 136.645474 126.026111 
L 137.294042 127.953987 
L 137.94261 134.304173 
L 139.239746 165.327099 
L 140.536881 130.927203 
L 141.185449 125.180386 
L 141.834017 128.415468 
L 142.482585 137.993671 
L 143.131153 144.065391 
L 144.428289 170.713347 
L 146.373992 183.922483 
L 147.02256 187.077079 
L 147.671128 189.564559 
L 148.319696 190.978653 
L 148.968264 196.570609 
L 149.616832 183.897314 
L 150.265399 162.096488 
L 150.913967 163.750845 
L 152.211103 177.285469 
L 152.859671 189.445004 
L 153.508239 188.291535 
L 154.156807 180.025744 
L 154.805375 181.475721 
L 155.453942 182.500165 
L 156.10251 181.758557 
L 156.751078 189.026593 
L 157.399646 189.101947 
L 158.048214 186.478004 
L 158.696782 181.908856 
L 159.34535 182.618077 
L 159.993917 181.844333 
L 160.642485 183.991753 
L 161.291053 188.492465 
L 161.939621 184.468714 
L 162.588189 183.083388 
L 163.236757 172.481133 
L 163.885325 169.361474 
L 164.533893 169.991404 
L 165.18246 173.289086 
L 166.479596 196.440698 
L 167.128164 200.687886 
L 167.776732 177.63188 
L 168.4253 167.168864 
L 169.073868 161.278834 
L 169.722436 161.73433 
L 170.371003 167.934019 
L 171.019571 182.074129 
L 171.668139 187.668119 
L 172.316707 186.870136 
L 172.965275 187.546464 
L 173.613843 189.231566 
L 174.262411 202.285126 
L 174.910979 202.921974 
L 175.559546 202.750935 
L 176.208114 200.037486 
L 176.856682 186.221207 
L 177.50525 184.067861 
L 178.153818 188.233944 
L 178.802386 188.237351 
L 179.450954 191.450391 
L 180.099521 201.454547 
L 181.396657 205.278442 
L 182.045225 195.036665 
L 182.693793 194.686416 
L 183.342361 192.02077 
L 183.990929 190.196372 
L 184.639497 196.477976 
L 185.288064 193.652345 
L 185.936632 181.57743 
L 186.5852 182.471753 
L 187.233768 185.4138 
L 187.882336 193.970502 
L 189.179472 207.538207 
L 189.82804 204.676806 
L 190.476607 192.756812 
L 191.125175 190.80666 
L 191.773743 191.548333 
L 192.422311 190.929145 
L 193.070879 193.574209 
L 193.719447 203.241513 
L 194.368015 203.805611 
L 195.016583 193.53769 
L 195.66515 193.006154 
L 196.313718 193.723902 
L 196.962286 194.686426 
L 197.610854 198.648009 
L 198.259422 207.629552 
L 198.90799 207.198729 
L 199.556558 196.901548 
L 200.205125 196.862751 
L 201.502261 192.045789 
L 202.150829 196.819657 
L 202.799397 208.895106 
L 203.447965 209.395252 
L 204.096533 197.318801 
L 204.745101 191.512371 
L 205.393668 189.318335 
L 206.690804 193.354006 
L 207.339372 197.780953 
L 207.98794 199.065994 
L 208.636508 192.464981 
L 209.285076 192.001631 
L 209.933644 190.918153 
L 210.582211 190.207864 
L 211.230779 193.688775 
L 211.879347 201.70934 
L 212.527915 204.173224 
L 213.176483 196.168419 
L 213.825051 194.306269 
L 214.473619 193.111307 
L 215.122186 194.63966 
L 215.770754 197.811776 
L 216.419322 204.410497 
L 217.06789 206.070776 
L 217.716458 198.935351 
L 218.365026 199.870349 
L 219.662162 196.446124 
L 220.310729 200.822228 
L 220.959297 207.192001 
L 221.607865 205.000963 
L 222.256433 196.431605 
L 222.905001 194.811348 
L 223.553569 196.74507 
L 224.202137 197.068121 
L 224.850705 199.880152 
L 225.499272 206.671187 
L 226.14784 207.576191 
L 226.796408 200.779813 
L 228.093544 200.666615 
L 228.742112 200.359154 
L 229.39068 200.582264 
L 230.039248 205.13371 
L 230.687815 206.291236 
L 231.336383 198.048273 
L 231.984951 196.594399 
L 232.633519 196.672329 
L 233.282087 198.120163 
L 233.930655 202.826822 
L 234.579223 210.610017 
L 235.22779 207.371901 
L 235.876358 195.055679 
L 236.524926 196.653057 
L 237.173494 200.932183 
L 237.822062 193.816044 
L 238.47063 195.906073 
L 239.119198 201.183484 
L 239.767766 199.337812 
L 240.416333 190.442817 
L 241.064901 187.399062 
L 241.713469 187.252699 
L 242.362037 189.730432 
L 243.010605 194.650436 
L 243.659173 203.715742 
L 244.307741 198.999774 
L 244.956309 189.07961 
L 245.604876 191.113437 
L 246.253444 192.17709 
L 246.902012 189.64372 
L 247.55058 192.696491 
L 248.199148 202.536361 
L 248.847716 202.393503 
L 249.496284 195.290783 
L 250.144851 194.67637 
L 250.793419 195.999695 
L 251.441987 192.801622 
L 252.090555 190.777411 
L 252.739123 195.956238 
L 253.387691 195.594227 
L 254.036259 187.701479 
L 254.684827 188.618555 
L 255.333394 190.730302 
L 255.981962 191.362098 
L 256.63053 185.795157 
L 257.279098 187.27064 
L 257.927666 182.047409 
L 258.576234 170.225527 
L 259.224802 170.769482 
L 259.87337 175.793912 
L 260.521937 174.777351 
L 261.819073 190.767084 
L 262.467641 188.322463 
L 263.116209 172.067943 
L 263.764777 172.984635 
L 264.413345 169.826029 
L 265.061913 173.241795 
L 265.71048 172.131906 
L 266.359048 176.681035 
L 267.007616 169.296065 
L 267.656184 151.215771 
L 268.304752 148.782758 
L 268.95332 150.914716 
L 269.601888 146.683965 
L 270.250455 148.347205 
L 270.899023 157.600578 
L 271.547591 159.941393 
L 272.196159 147.39523 
L 272.844727 157.170504 
L 273.493295 169.838767 
L 274.141863 174.22221 
L 274.790431 173.260842 
L 275.438998 182.417798 
L 276.087566 182.310777 
L 276.736134 162.823554 
L 277.384702 160.511235 
L 278.03327 162.115859 
L 278.681838 161.208963 
L 279.978974 177.946942 
L 280.627541 182.750812 
L 281.276109 181.711373 
L 282.573245 153.228125 
L 283.221813 143.571099 
L 283.870381 141.211971 
L 284.518949 150.99061 
L 285.167517 153.157767 
L 285.816084 140.501215 
L 286.464652 135.94415 
L 287.761788 144.485015 
L 288.410356 149.903703 
L 289.058924 166.022379 
L 289.707492 171.455591 
L 290.356059 157.608015 
L 291.004627 154.758106 
L 291.653195 155.418228 
L 292.301763 150.077705 
L 292.950331 130.420253 
L 293.598899 139.960988 
L 294.247467 141.241353 
L 294.896035 125.471812 
L 295.544602 122.141288 
L 296.19317 117.04488 
L 296.841738 115.522712 
L 297.490306 115.756636 
L 298.138874 122.004361 
L 298.787442 113.008385 
L 299.43601 98.30615 
L 300.084578 101.085528 
L 300.733145 96.501381 
L 301.381713 101.228012 
L 302.030281 106.993915 
L 302.678849 115.747543 
L 303.327417 117.360628 
L 303.975985 108.497073 
L 304.624553 104.837191 
L 305.27312 100.481301 
L 305.921688 97.024835 
L 306.570256 102.401617 
L 307.218824 118.812899 
L 307.867392 126.083206 
L 308.51596 122.897794 
L 309.813096 131.811083 
L 310.461663 132.406363 
L 311.110231 133.686214 
L 311.758799 142.807882 
L 312.407367 141.675722 
L 313.055935 139.209137 
L 313.704503 152.811563 
L 314.353071 155.765682 
L 315.001639 155.662073 
L 315.650206 139.23746 
L 316.298774 133.388628 
L 316.947342 131.016851 
L 317.59591 120.852849 
L 318.244478 118.982185 
L 319.541614 123.313094 
L 320.190182 122.819079 
L 320.838749 118.666895 
L 321.487317 117.508219 
L 322.135885 102.346958 
L 322.784453 100.214502 
L 323.433021 99.826558 
L 324.081589 94.899847 
L 324.730157 95.053146 
L 325.378724 102.240559 
L 326.027292 102.089203 
L 326.67586 95.451782 
L 327.324428 102.138545 
L 327.972996 102.063676 
L 328.621564 90.020174 
L 329.270132 86.396665 
L 329.9187 94.174158 
L 330.567267 96.639785 
L 331.215835 96.979121 
L 333.161539 131.235956 
L 333.810107 127.181981 
L 334.458675 126.573549 
L 335.107243 115.211608 
L 335.75581 95.751589 
L 336.404378 96.155705 
L 337.052946 98.290584 
L 337.701514 105.850615 
L 338.350082 117.381067 
L 338.99865 116.427507 
L 339.647218 110.039355 
L 340.295785 96.588524 
L 340.944353 109.27377 
L 341.592921 124.51488 
L 342.241489 123.473299 
L 342.890057 124.396755 
L 343.538625 125.627595 
L 344.187193 108.480363 
L 344.835761 76.405132 
L 345.484328 63.550406 
L 346.132896 56.57843 
L 346.781464 54.882908 
L 347.430032 55.996839 
L 348.0786 67.694705 
L 348.727168 75.117287 
L 349.375736 76.325512 
L 350.024304 98.272209 
L 350.672871 115.653793 
L 351.321439 126.013534 
L 351.970007 132.563392 
L 352.618575 152.408948 
L 353.267143 154.231579 
L 353.915711 145.019165 
L 354.564279 155.814007 
L 355.212847 160.740557 
L 355.861414 159.327174 
L 356.509982 150.856094 
L 357.15855 148.807096 
L 357.807118 142.215938 
L 358.455686 124.983411 
L 359.104254 126.779128 
L 359.752822 132.592048 
L 360.401389 130.203448 
L 361.049957 118.961539 
L 361.698525 124.512068 
L 362.347093 121.443932 
L 362.995661 107.20378 
L 363.644229 107.800967 
L 364.941365 136.529447 
L 365.589932 141.017755 
L 366.2385 148.932272 
L 366.887068 142.175511 
L 367.535636 127.725888 
L 368.832772 114.586875 
L 369.48134 109.694068 
L 370.129908 110.331811 
L 370.778475 119.312393 
L 371.427043 125.511672 
L 372.075611 115.417396 
L 372.724179 121.592661 
L 373.372747 133.243539 
L 374.021315 141.177208 
L 374.669883 156.013454 
L 375.31845 159.915953 
L 375.967018 160.241493 
L 376.615586 159.808627 
L 377.264154 164.039104 
L 377.912722 170.945177 
L 378.56129 175.418769 
L 379.209858 172.679599 
L 379.858426 164.430981 
L 380.506993 160.061951 
L 381.155561 145.344362 
L 381.804129 121.468259 
L 382.452697 117.932262 
L 383.101265 118.341886 
L 384.398401 147.799967 
L 385.046969 155.950394 
L 385.695536 130.786744 
L 386.344104 127.188937 
L 386.992672 119.993218 
L 387.64124 121.295918 
L 388.289808 128.922044 
L 388.938376 143.233112 
L 389.586944 149.088494 
L 390.235512 146.832848 
L 390.884079 153.912462 
L 391.532647 159.652914 
L 392.181215 155.035103 
L 392.829783 155.282134 
L 393.478351 163.505131 
L 394.126919 160.733206 
L 394.775487 150.689992 
L 395.424054 153.580659 
L 396.072622 162.711363 
L 396.72119 164.233269 
L 397.369758 161.406189 
L 398.018326 172.462248 
L 399.315462 157.732916 
L 399.96403 160.953716 
L 401.261165 149.772593 
L 401.909733 150.917206 
L 403.206869 189.901698 
L 403.855437 187.439665 
L 404.504005 185.702534 
L 405.152573 183.509536 
L 405.80114 185.810058 
L 406.449708 180.525209 
L 407.098276 183.268998 
L 407.746844 182.953206 
L 408.395412 173.744654 
L 409.692548 170.0671 
L 410.341116 172.680252 
L 410.989683 181.080307 
L 411.638251 187.936033 
L 412.286819 189.239911 
L 412.935387 188.359314 
L 413.583955 175.16435 
L 414.232523 174.02183 
L 414.881091 171.157871 
L 415.529658 176.196513 
L 416.178226 186.596333 
L 416.826794 190.817708 
L 417.475362 186.526833 
L 418.12393 190.641749 
L 419.421066 201.572001 
L 420.069634 200.925702 
L 420.718201 206.327244 
L 421.366769 204.767604 
L 422.015337 192.28924 
L 422.663905 192.394447 
L 423.961041 194.732079 
L 424.609609 199.796136 
L 425.258177 208.272725 
L 425.906744 206.245247 
L 426.555312 198.658363 
L 427.20388 195.605391 
L 427.852448 197.14525 
L 428.501016 199.231324 
L 429.149584 201.746979 
L 429.798152 210.653144 
L 430.446719 210.840796 
L 431.095287 201.129994 
L 431.743855 194.53893 
L 432.392423 192.922028 
L 433.040991 191.7295 
L 433.689559 194.680257 
L 434.338127 206.163614 
L 434.986695 208.143805 
L 435.635262 198.127807 
L 436.28383 195.446104 
L 436.932398 193.443424 
L 437.580966 190.909363 
L 438.229534 194.775842 
L 438.878102 205.66115 
L 439.52667 206.176858 
L 440.175238 197.162418 
L 440.823805 200.751833 
L 441.472373 195.161912 
L 442.120941 193.543751 
L 442.769509 196.925063 
L 443.418077 206.106579 
L 444.066645 205.502109 
L 444.715213 197.816319 
L 445.363781 196.533893 
L 446.012348 196.622876 
L 446.660916 197.253554 
L 447.309484 201.215698 
L 447.958052 209.627756 
L 448.60662 209.534247 
L 449.255188 200.48662 
L 449.903756 198.402381 
L 450.552323 198.293265 
L 451.200891 198.749941 
L 451.849459 202.054035 
L 452.498027 210.529488 
L 453.146595 210.218905 
L 453.795163 201.950106 
L 454.443731 201.982394 
L 455.092299 204.166023 
L 455.740866 204.717733 
L 456.389434 206.148357 
L 457.038002 210.231428 
L 457.68657 208.236279 
L 458.335138 201.808104 
L 458.983706 199.27259 
L 459.632274 198.580577 
L 460.280842 200.158385 
L 461.577977 208.372329 
L 462.226545 208.406731 
L 462.875113 202.565859 
L 463.523681 201.160529 
L 464.172249 201.442643 
L 464.820817 202.875548 
L 465.469384 206.694062 
L 466.117952 211.411384 
L 466.76652 211.450975 
L 467.415088 203.223932 
L 468.063656 200.172068 
L 468.712224 199.779527 
L 469.360792 199.249872 
L 470.00936 201.242875 
L 470.657927 208.508649 
L 471.306495 208.049864 
L 471.955063 200.458626 
L 472.603631 197.892814 
L 473.252199 198.797306 
L 473.900767 196.15402 
L 474.549335 196.271461 
L 475.197903 202.070244 
L 475.84647 201.667299 
L 476.495038 195.184906 
L 477.143606 194.05725 
L 477.792174 193.206182 
L 478.440742 194.66718 
L 479.08931 197.738398 
L 479.737878 204.834389 
L 480.386446 205.249591 
L 481.035013 196.628494 
L 481.683581 196.241745 
L 482.332149 197.899803 
L 482.980717 197.997166 
L 483.629285 199.823858 
L 484.277853 207.033701 
L 484.926421 207.047882 
L 485.574988 195.872012 
L 486.223556 195.995216 
L 486.872124 195.911792 
L 487.520692 194.477829 
L 488.16926 194.382713 
L 488.817828 202.560255 
L 489.466396 199.093572 
L 490.114964 184.386133 
L 490.763531 183.433342 
L 491.412099 184.174937 
L 492.060667 189.232244 
L 492.709235 192.719032 
L 493.357803 200.507534 
L 494.006371 203.777029 
L 494.654939 196.021446 
L 495.303507 190.388271 
L 495.952074 188.646977 
L 496.600642 182.87426 
L 497.24921 185.368436 
L 497.897778 195.451942 
L 498.546346 198.880469 
L 499.194914 186.198056 
L 499.843482 184.557501 
L 500.49205 177.392964 
L 501.140617 171.918046 
L 501.789185 174.581672 
L 502.437753 180.331059 
L 503.086321 173.985098 
L 503.734889 164.891834 
L 505.032025 157.134459 
L 505.680592 163.675532 
L 506.977728 169.898785 
L 507.626296 170.008596 
L 508.274864 163.683359 
L 508.923432 171.450755 
L 509.572 181.067503 
L 510.869135 166.901316 
L 511.517703 165.568364 
L 512.166271 161.819446 
L 512.814839 151.389266 
L 514.111975 163.184667 
L 514.760543 163.304486 
L 515.409111 166.931377 
L 516.057678 172.238852 
L 516.706246 180.549515 
L 517.354814 170.544545 
L 518.003382 153.17009 
L 518.65195 144.608727 
L 519.300518 142.076886 
L 519.949086 144.875612 
L 520.597653 155.766466 
L 521.246221 156.897695 
L 521.894789 140.065579 
L 522.543357 139.532719 
L 523.191925 130.078774 
L 523.840493 129.084181 
L 524.489061 131.884413 
L 525.137629 144.836133 
L 525.786196 147.75604 
L 526.434764 131.054907 
L 527.083332 129.286095 
L 529.029036 149.527374 
L 529.677604 158.324859 
L 530.326172 150.184054 
L 530.974739 128.295179 
L 531.623307 120.444779 
L 532.271875 117.615425 
L 532.920443 113.408864 
L 533.569011 117.310226 
L 534.217579 122.696227 
L 534.866147 119.339406 
L 535.514715 106.031469 
L 536.81185 129.272646 
L 537.460418 113.025675 
L 538.108986 115.046333 
L 538.757554 126.168966 
L 539.406122 122.133241 
L 540.05469 105.715091 
L 540.703257 107.653157 
L 541.351825 107.724256 
L 542.000393 104.399604 
L 542.648961 105.744574 
L 543.946097 127.396597 
L 544.594665 124.182915 
L 545.243233 126.816398 
L 545.8918 132.267835 
L 546.540368 132.309946 
L 547.188936 134.602836 
L 547.837504 143.435182 
L 548.486072 142.264153 
L 549.13464 112.47433 
L 549.783208 98.614982 
L 550.431776 96.844688 
L 551.080343 112.764956 
L 551.728911 133.192729 
L 552.377479 124.52217 
L 553.026047 122.552278 
L 553.674615 123.150221 
L 554.323183 135.234772 
L 554.971751 144.407047 
L 555.620318 164.779511 
L 556.268886 175.226306 
L 556.917454 175.509274 
L 557.566022 171.539476 
L 560.160294 119.814325 
L 560.808861 117.101386 
L 561.457429 124.031854 
L 562.105997 122.432943 
L 562.754565 103.628353 
L 563.403133 99.9424 
L 564.051701 99.832088 
L 564.700269 105.584294 
L 565.348837 108.780475 
L 565.997404 118.25706 
L 566.645972 124.616764 
L 567.29454 117.379448 
L 567.943108 112.993441 
L 568.591676 117.234624 
L 569.240244 111.501503 
L 569.888812 110.13144 
L 570.53738 122.165977 
L 571.185947 125.065365 
L 571.834515 110.451936 
L 572.483083 106.210974 
L 573.131651 107.790748 
L 573.780219 115.046209 
L 574.428787 118.741519 
L 575.077355 138.738319 
L 575.725922 136.808278 
L 576.37449 118.3349 
L 577.671626 124.118508 
L 578.320194 127.483062 
L 578.968762 134.469347 
L 579.61733 139.022534 
L 580.265898 139.081508 
L 580.914465 124.821288 
L 581.563033 132.201479 
L 582.211601 135.889975 
L 582.860169 130.800934 
L 583.508737 124.015209 
L 584.157305 128.222294 
L 584.805873 133.416126 
L 585.454441 132.40191 
L 586.103008 133.390342 
L 586.751576 143.826423 
L 587.400144 146.752005 
L 588.048712 147.407404 
L 589.345848 151.768632 
L 589.994416 135.715002 
L 590.642983 134.178109 
L 591.291551 133.59329 
L 591.940119 136.607641 
L 592.588687 130.314305 
L 593.237255 133.058207 
L 593.885823 130.867166 
L 594.534391 119.533657 
L 595.182959 114.417029 
L 595.831526 115.745164 
L 596.480094 119.335301 
L 597.128662 118.299332 
L 597.77723 126.357784 
L 598.425798 122.241705 
L 599.074366 110.490464 
L 600.371502 126.074353 
L 601.020069 136.226705 
L 601.668637 140.42183 
L 602.317205 151.068946 
L 602.965773 154.982817 
L 603.614341 143.308494 
L 604.262909 141.112905 
L 604.911477 151.550266 
L 605.560045 147.106562 
L 606.208612 149.665187 
L 606.85718 157.326802 
L 607.505748 157.351794 
L 608.154316 149.051434 
L 608.802884 151.556252 
L 609.451452 156.155741 
L 610.10002 158.017333 
L 610.748587 164.24178 
L 611.397155 176.307952 
L 612.045723 173.643525 
L 612.694291 166.087858 
L 613.342859 160.032372 
L 613.991427 149.832314 
L 614.639995 143.797235 
L 615.288563 134.807133 
L 615.93713 134.025054 
L 617.234266 130.321703 
L 617.882834 142.339021 
L 618.531402 156.680848 
L 619.17997 158.682685 
L 619.828538 153.491766 
L 620.477106 156.631768 
L 621.125673 151.442852 
L 621.774241 149.384335 
L 622.422809 165.697562 
L 623.071377 175.569473 
L 623.719945 183.064756 
L 624.368513 185.737148 
L 625.017081 181.735005 
L 625.665649 180.291474 
L 626.314216 178.396725 
L 626.962784 169.919032 
L 627.611352 169.344243 
L 628.25992 171.671661 
L 628.908488 178.593832 
L 629.557056 188.767287 
L 630.205624 183.817126 
L 630.854191 168.393282 
L 631.502759 166.131581 
L 632.151327 169.146357 
L 632.799895 174.070956 
L 633.448463 177.518429 
L 634.097031 184.754069 
L 634.745599 185.891334 
L 635.394167 179.20988 
L 636.042734 178.542165 
L 636.691302 179.277587 
L 637.33987 181.650864 
L 637.988438 186.96944 
L 638.637006 198.637509 
L 639.285574 196.977856 
L 639.934142 191.906051 
L 640.58271 197.142044 
L 641.231277 200.613127 
L 641.879845 198.554168 
L 642.528413 199.594109 
L 643.176981 205.022954 
L 643.825549 206.032692 
L 644.474117 198.832424 
L 645.122685 196.592206 
L 645.771252 200.31225 
L 646.41982 201.111306 
L 647.716956 209.022966 
L 648.365524 206.040578 
L 649.014092 199.956259 
L 649.66266 196.590748 
L 650.311228 199.840601 
L 650.959795 205.630038 
L 651.608363 202.051743 
L 652.256931 200.846785 
L 652.905499 194.105552 
L 653.554067 182.618937 
L 654.202635 185.901713 
L 654.851203 188.390396 
L 655.499771 191.756767 
L 656.148338 199.02853 
L 656.796906 209.191183 
L 657.445474 212.773781 
L 658.094042 210.65054 
L 658.74261 199.421187 
L 659.391178 198.175579 
L 660.039746 197.886652 
L 660.688314 201.703239 
L 661.336881 210.360261 
L 661.985449 210.3831 
L 662.634017 200.909135 
L 663.282585 197.806008 
L 663.931153 201.16116 
L 664.579721 208.37462 
L 665.228289 209.573646 
L 665.876856 216.401479 
L 666.525424 214.380659 
L 667.173992 203.441156 
L 667.82256 201.896963 
L 668.471128 201.025138 
L 669.119696 205.249326 
L 669.768264 206.774085 
L 670.416832 215.168133 
L 671.065399 213.478361 
L 671.713967 204.505712 
L 672.362535 204.615852 
L 673.011103 202.847319 
L 674.308239 206.844401 
L 674.956807 214.248325 
L 675.605375 214.45145 
L 676.253942 206.890518 
L 676.90251 206.334191 
L 677.551078 206.392329 
L 678.199646 205.800999 
L 678.848214 207.119005 
L 679.496782 213.119484 
L 680.14535 211.533859 
L 680.793917 202.053089 
L 682.091053 206.842561 
L 682.739621 208.12249 
L 683.388189 208.326978 
L 684.036757 215.083625 
L 684.685325 213.108306 
L 685.333893 205.39026 
L 685.98246 208.62892 
L 686.631028 209.107189 
L 687.279596 205.645983 
L 687.928164 207.252052 
L 688.576732 214.96097 
L 689.2253 216.247654 
L 689.873868 212.389105 
L 690.522436 207.271181 
L 691.171003 206.984846 
L 691.819571 208.101121 
L 692.468139 209.62853 
L 693.116707 217.20154 
L 693.765275 217.618129 
L 694.413843 209.700675 
L 695.062411 211.96973 
L 696.359546 211.557661 
L 697.008114 214.328325 
L 697.656682 218.29926 
L 698.30525 217.483627 
L 698.953818 212.096551 
L 699.602386 212.277415 
L 700.250954 212.251506 
L 700.899521 211.743723 
L 701.548089 213.422671 
L 702.196657 219.182639 
L 702.845225 220.228806 
L 703.493793 211.486853 
L 704.142361 208.226764 
L 704.790929 207.190324 
L 705.439497 207.054257 
L 706.088064 209.407216 
L 706.736632 218.074013 
L 707.3852 214.970064 
L 708.033768 206.213551 
L 708.682336 206.997204 
L 709.330904 207.116276 
L 709.979472 208.444017 
L 710.62804 208.542575 
L 711.276607 216.169721 
L 711.925175 217.063458 
L 712.573743 206.650002 
L 713.222311 206.615835 
L 713.870879 204.746714 
L 714.519447 204.949165 
L 715.168015 210.097638 
L 715.816583 216.678578 
L 716.46515 216.345836 
L 717.113718 210.889762 
L 718.410854 207.107091 
L 719.70799 208.445437 
L 720.356558 211.49865 
L 721.005125 209.884411 
L 721.653693 203.422687 
L 722.302261 203.958428 
L 722.950829 202.669458 
L 723.599397 204.799933 
L 724.247965 202.548798 
L 724.896533 203.343251 
L 725.545101 198.857644 
L 726.842236 182.976871 
L 727.490804 182.928706 
L 728.139372 184.858068 
L 728.78794 188.102499 
L 729.436508 198.840334 
L 730.085076 198.335536 
L 731.382211 183.036322 
L 732.030779 177.30562 
L 732.679347 175.503241 
L 733.327915 182.95359 
L 733.976483 194.264587 
L 734.625051 198.686007 
L 735.273619 195.76633 
L 735.922186 190.501158 
L 736.570754 196.700007 
L 737.219322 195.233693 
L 737.86789 195.127604 
L 738.516458 197.498054 
L 739.165026 194.465486 
L 739.813594 188.324312 
L 740.462162 180.176719 
L 741.110729 179.379139 
L 741.759297 179.604524 
L 742.407865 185.772374 
L 743.056433 200.837649 
L 743.705001 201.963978 
L 744.353569 194.808827 
L 745.002137 190.432101 
L 745.650705 184.014161 
L 746.94784 186.233133 
L 747.596408 195.679796 
L 748.244976 199.217189 
L 748.893544 193.575518 
L 749.542112 186.212672 
L 750.19068 186.867176 
L 752.136383 200.83193 
L 752.784951 200.965142 
L 753.433519 195.356895 
L 754.082087 196.363922 
L 754.730655 184.457925 
L 756.02779 176.653935 
L 756.676358 179.85504 
L 757.324926 178.965204 
L 757.973494 177.725924 
L 758.622062 181.002959 
L 759.27063 182.41352 
L 759.919198 180.72889 
L 760.567766 176.791535 
L 761.216333 176.583252 
L 761.864901 172.212272 
L 762.513469 161.407274 
L 763.162037 167.726032 
L 763.810605 167.211851 
L 764.459173 166.002997 
L 765.107741 155.772674 
L 765.756309 150.206323 
L 766.404876 146.322077 
L 767.053444 135.941883 
L 767.702012 140.540462 
L 768.35058 148.721938 
L 769.647716 153.018605 
L 770.296284 160.970849 
L 770.944851 158.407159 
L 771.593419 142.464967 
L 772.241987 139.245313 
L 772.890555 137.007119 
L 773.539123 131.347599 
L 774.187691 131.19971 
L 775.484827 135.082389 
L 776.133394 124.515169 
L 776.781962 125.343912 
L 777.43053 125.27624 
L 778.079098 120.986326 
L 778.727666 118.527491 
L 779.376234 122.587378 
L 780.024802 116.649307 
L 780.67337 101.506818 
L 781.321937 97.702684 
L 781.970505 96.798755 
L 782.619073 96.626104 
L 783.267641 97.209458 
L 783.916209 105.963194 
L 784.564777 110.755474 
L 785.213345 119.858076 
L 785.861913 136.991878 
L 787.159048 161.73615 
L 788.456184 176.377061 
L 789.104752 177.920621 
L 789.75332 176.201859 
L 790.401888 162.433058 
L 791.050455 165.879209 
L 791.699023 171.98793 
L 792.347591 174.384251 
L 792.996159 192.1209 
L 792.996159 192.1209 
" clip-path="url(#p6c9cb9aa6f)" style="fill: none; stroke: #4c72b0; stroke-width: 1.2; stroke-linecap: round"/>
   </g>
   <g id="line2d_17">
    <path d="M 82.814341 117.474055 
L 83.462909 115.953539 
L 84.111477 122.789199 
L 84.760045 136.652195 
L 85.408612 135.175085 
L 86.05718 126.992851 
L 86.705748 121.437958 
L 87.354316 127.136469 
L 88.002884 137.852471 
L 88.651452 143.34358 
L 89.30002 140.950548 
L 89.948587 139.061098 
L 90.597155 134.170982 
L 91.245723 133.65262 
L 91.894291 144.323559 
L 92.542859 142.658137 
L 93.191427 136.456401 
L 93.839995 141.45176 
L 94.488563 136.668738 
L 95.785698 107.155624 
L 96.434266 104.305671 
L 97.082834 104.396413 
L 97.731402 101.478354 
L 99.028538 122.353149 
L 99.677106 126.247336 
L 100.974241 121.803344 
L 101.622809 127.946273 
L 102.919945 163.053601 
L 103.568513 164.684328 
L 104.217081 154.637186 
L 104.865649 139.459327 
L 105.514216 126.905781 
L 106.162784 119.094237 
L 106.811352 115.906314 
L 107.45992 127.11287 
L 108.108488 147.500568 
L 108.757056 148.112628 
L 109.405624 134.377422 
L 110.054191 128.954357 
L 110.702759 124.606021 
L 111.351327 124.755415 
L 111.999895 139.222203 
L 112.648463 164.591198 
L 113.297031 157.342689 
L 113.945599 144.385374 
L 114.594167 137.241525 
L 115.242734 133.425738 
L 115.891302 133.993724 
L 116.53987 148.53594 
L 117.188438 159.851032 
L 117.837006 147.083433 
L 118.485574 144.035953 
L 119.134142 131.348759 
L 119.78271 121.117887 
L 120.431277 118.2521 
L 121.079845 139.44646 
L 121.728413 151.470181 
L 122.376981 142.622914 
L 123.025549 130.570578 
L 123.674117 124.846598 
L 124.971252 129.658656 
L 125.61982 136.654098 
L 126.268388 147.250113 
L 126.916956 144.693212 
L 127.565524 139.23766 
L 128.214092 153.008675 
L 128.86266 156.994516 
L 129.511228 146.937403 
L 130.159795 145.897096 
L 130.808363 154.550196 
L 131.456931 154.834347 
L 132.105499 152.134082 
L 132.754067 157.321278 
L 133.402635 161.324808 
L 134.051203 155.993396 
L 134.699771 152.953389 
L 135.348338 145.374078 
L 135.996906 129.713066 
L 136.645474 122.236697 
L 137.294042 124.15211 
L 137.94261 128.19259 
L 138.591178 141.91115 
L 139.239746 158.049241 
L 139.888314 154.400589 
L 140.536881 132.292781 
L 141.185449 123.838444 
L 141.834017 123.729838 
L 142.482585 132.069158 
L 143.131153 138.911977 
L 144.428289 166.79085 
L 145.076856 173.905171 
L 145.725424 176.161972 
L 146.373992 180.711922 
L 147.02256 180.326763 
L 147.671128 177.685207 
L 148.968264 195.578588 
L 150.265399 160.014818 
L 150.913967 156.926149 
L 151.562535 167.783068 
L 152.211103 172.890477 
L 152.859671 185.301609 
L 153.508239 186.93673 
L 154.156807 177.53138 
L 154.805375 176.014219 
L 155.453942 178.799729 
L 156.10251 180.749249 
L 156.751078 180.398445 
L 157.399646 185.163739 
L 158.048214 185.593558 
L 158.696782 183.0167 
L 159.993917 176.887879 
L 160.642485 175.917876 
L 161.291053 173.733462 
L 161.939621 180.292944 
L 162.588189 181.09163 
L 163.236757 173.260992 
L 163.885325 162.805206 
L 164.533893 164.000919 
L 165.18246 170.049419 
L 165.831028 179.277348 
L 166.479596 196.162522 
L 167.128164 202.342051 
L 167.776732 176.446634 
L 168.4253 160.199852 
L 169.073868 159.278913 
L 169.722436 157.833871 
L 170.371003 159.810302 
L 171.019571 175.425758 
L 171.668139 186.441374 
L 172.965275 189.551905 
L 173.613843 187.636523 
L 174.262411 190.796306 
L 174.910979 201.371967 
L 175.559546 199.76131 
L 176.208114 195.779784 
L 177.50525 181.436807 
L 178.153818 184.850294 
L 178.802386 184.477406 
L 179.450954 184.666052 
L 180.099521 194.109261 
L 180.748089 200.614673 
L 181.396657 200.147661 
L 182.045225 204.360099 
L 182.693793 198.786348 
L 183.990929 181.355997 
L 184.639497 189.411797 
L 185.288064 194.3443 
L 185.936632 186.902897 
L 186.5852 181.296969 
L 187.233768 183.009546 
L 187.882336 186.30137 
L 189.179472 209.542884 
L 189.82804 211.757699 
L 190.476607 201.475345 
L 191.125175 196.338394 
L 191.773743 196.58669 
L 193.070879 192.993309 
L 194.368015 210.939553 
L 195.016583 203.662762 
L 195.66515 197.790597 
L 196.313718 197.408131 
L 197.610854 199.051935 
L 198.259422 209.006439 
L 198.90799 213.90638 
L 199.556558 203.348667 
L 200.205125 197.562023 
L 200.853693 199.798075 
L 201.502261 198.408508 
L 202.150829 194.818625 
L 202.799397 207.402128 
L 203.447965 213.720773 
L 204.096533 200.90731 
L 204.745101 191.163618 
L 205.393668 188.46044 
L 206.042236 195.270064 
L 206.690804 196.679651 
L 207.339372 197.401121 
L 207.98794 201.137654 
L 208.636508 198.761782 
L 209.285076 197.095708 
L 209.933644 190.74218 
L 210.582211 188.012979 
L 211.230779 192.013996 
L 211.879347 205.572588 
L 212.527915 210.014741 
L 213.825051 197.360889 
L 214.473619 195.809713 
L 215.122186 197.879121 
L 215.770754 198.69525 
L 216.419322 208.027082 
L 217.06789 211.449152 
L 217.716458 204.555252 
L 218.365026 200.501126 
L 219.013594 201.074161 
L 220.310729 199.502413 
L 220.959297 209.54002 
L 221.607865 213.035481 
L 222.256433 200.407289 
L 222.905001 193.763945 
L 223.553569 198.327487 
L 224.202137 199.60674 
L 224.850705 199.794838 
L 225.499272 208.977956 
L 226.14784 212.669477 
L 226.796408 205.417041 
L 227.444976 201.507432 
L 228.093544 201.467059 
L 228.742112 201.677682 
L 229.39068 201.510447 
L 230.039248 209.349536 
L 230.687815 211.886146 
L 231.336383 204.754177 
L 231.984951 199.986841 
L 232.633519 199.181253 
L 233.282087 199.48516 
L 233.930655 200.402263 
L 234.579223 210.684092 
L 235.22779 214.690705 
L 235.876358 200.914365 
L 236.524926 195.950843 
L 237.173494 199.43682 
L 237.822062 197.501005 
L 238.47063 194.448404 
L 239.119198 201.16027 
L 239.767766 202.281868 
L 240.416333 192.908494 
L 241.064901 185.811615 
L 241.713469 183.875324 
L 242.362037 186.944882 
L 243.010605 195.755528 
L 243.659173 201.380234 
L 244.307741 200.320318 
L 244.956309 190.61779 
L 245.604876 189.733329 
L 246.253444 195.464052 
L 246.902012 190.124473 
L 247.55058 189.89492 
L 248.199148 202.26939 
L 248.847716 209.408315 
L 249.496284 202.536858 
L 250.144851 198.516299 
L 250.793419 198.227836 
L 251.441987 191.096227 
L 252.090555 186.078236 
L 252.739123 194.289775 
L 253.387691 198.767531 
L 254.036259 192.671388 
L 254.684827 191.240903 
L 255.333394 192.11412 
L 255.981962 190.745537 
L 256.63053 179.626511 
L 257.279098 178.064948 
L 257.927666 180.955036 
L 258.576234 172.596795 
L 259.224802 168.340726 
L 259.87337 172.00621 
L 260.521937 174.194742 
L 261.170505 176.957755 
L 261.819073 188.528988 
L 262.467641 187.792292 
L 263.116209 177.134609 
L 263.764777 169.568101 
L 264.413345 169.493485 
L 265.061913 169.831428 
L 265.71048 172.991476 
L 266.359048 171.638922 
L 267.007616 169.562738 
L 268.304752 147.809238 
L 268.95332 147.265287 
L 269.601888 149.954051 
L 270.250455 147.332977 
L 270.899023 154.341922 
L 271.547591 159.632826 
L 272.844727 148.638476 
L 273.493295 164.681684 
L 274.141863 176.505084 
L 274.790431 174.573935 
L 275.438998 180.086703 
L 276.087566 183.308143 
L 277.384702 157.010034 
L 278.03327 159.33881 
L 278.681838 159.272411 
L 279.330406 164.43114 
L 279.978974 177.221375 
L 281.276109 188.140485 
L 282.573245 155.6715 
L 283.221813 144.98349 
L 283.870381 141.311523 
L 285.167517 153.202198 
L 285.816084 146.563149 
L 286.464652 137.044025 
L 287.11322 137.876218 
L 287.761788 143.160953 
L 288.410356 146.874594 
L 289.058924 163.518876 
L 289.707492 171.604783 
L 291.004627 156.335868 
L 291.653195 154.621968 
L 292.301763 151.490627 
L 292.950331 137.263649 
L 293.598899 132.984535 
L 294.247467 144.55571 
L 294.896035 137.442329 
L 295.544602 125.282973 
L 296.19317 120.680798 
L 296.841738 120.426824 
L 297.490306 118.044239 
L 298.138874 122.825844 
L 298.787442 123.958598 
L 299.43601 109.124386 
L 300.084578 105.846343 
L 300.733145 104.248035 
L 301.381713 101.211033 
L 302.030281 107.383606 
L 302.678849 119.228855 
L 303.327417 126.57111 
L 303.975985 120.394457 
L 304.624553 112.179884 
L 305.27312 108.550006 
L 305.921688 104.178381 
L 306.570256 103.48509 
L 307.218824 118.863561 
L 307.867392 131.090584 
L 308.51596 128.785423 
L 309.164528 129.074239 
L 309.813096 132.72953 
L 310.461663 133.546157 
L 311.110231 131.579936 
L 311.758799 139.253869 
L 312.407367 145.149664 
L 313.055935 138.513302 
L 313.704503 148.790783 
L 314.353071 153.96547 
L 315.001639 146.980276 
L 315.650206 136.675642 
L 316.298774 133.111578 
L 316.947342 131.05262 
L 318.244478 118.642323 
L 318.893046 117.981899 
L 319.541614 117.824391 
L 320.190182 118.094962 
L 320.838749 122.62701 
L 321.487317 124.710238 
L 322.135885 117.90988 
L 322.784453 114.848151 
L 324.081589 110.889002 
L 324.730157 109.332794 
L 325.378724 114.917626 
L 326.027292 116.169743 
L 326.67586 108.737228 
L 327.324428 111.428723 
L 327.972996 112.523969 
L 328.621564 111.102651 
L 329.270132 105.932866 
L 330.567267 111.067814 
L 331.215835 112.578124 
L 331.864403 116.976518 
L 333.161539 134.087069 
L 333.810107 135.553009 
L 334.458675 134.796176 
L 335.107243 131.207232 
L 335.75581 119.347705 
L 336.404378 114.640275 
L 337.052946 112.503858 
L 338.350082 121.000896 
L 338.99865 124.000304 
L 340.295785 112.952706 
L 340.944353 119.061733 
L 341.592921 129.772312 
L 342.241489 130.524611 
L 342.890057 127.831597 
L 343.538625 129.637538 
L 344.187193 121.09646 
L 344.835761 101.535466 
L 345.484328 85.883096 
L 346.132896 77.383882 
L 346.781464 73.810817 
L 347.430032 69.194062 
L 348.0786 73.849171 
L 349.375736 85.942971 
L 350.672871 119.684351 
L 351.321439 128.726741 
L 351.970007 134.175231 
L 352.618575 149.279978 
L 353.267143 158.799759 
L 353.915711 153.738693 
L 354.564279 157.827217 
L 355.212847 162.977017 
L 355.861414 164.472994 
L 356.509982 155.210924 
L 357.15855 151.313293 
L 357.807118 148.37973 
L 358.455686 140.10048 
L 359.104254 137.30118 
L 359.752822 138.494522 
L 360.401389 137.476832 
L 361.049957 127.803477 
L 361.698525 127.917688 
L 362.347093 130.053601 
L 362.995661 122.960511 
L 363.644229 119.52562 
L 364.292797 123.157903 
L 364.941365 134.359639 
L 365.589932 137.437518 
L 366.2385 145.905416 
L 366.887068 146.387368 
L 367.535636 138.70487 
L 368.184204 133.38847 
L 368.832772 127.140316 
L 370.129908 117.593577 
L 370.778475 121.131975 
L 371.427043 131.380985 
L 372.075611 130.318143 
L 372.724179 131.879594 
L 374.021315 144.711408 
L 374.669883 152.825304 
L 375.31845 156.427911 
L 375.967018 161.685517 
L 377.264154 173.446527 
L 377.912722 178.812698 
L 378.56129 177.175155 
L 379.209858 162.033681 
L 380.506993 154.616591 
L 381.804129 126.223418 
L 382.452697 119.926076 
L 383.101265 120.988897 
L 383.749833 131.197214 
L 384.398401 146.253083 
L 385.046969 157.238123 
L 385.695536 141.980236 
L 386.344104 133.201935 
L 386.992672 127.775753 
L 387.64124 126.134677 
L 388.289808 128.795643 
L 388.938376 141.00178 
L 389.586944 150.88855 
L 390.235512 151.052328 
L 390.884079 154.249138 
L 391.532647 155.911825 
L 392.181215 151.549961 
L 392.829783 150.059584 
L 393.478351 157.612568 
L 394.126919 159.065096 
L 394.775487 151.003359 
L 395.424054 150.077913 
L 396.072622 157.716438 
L 396.72119 159.746406 
L 397.369758 155.204652 
L 398.018326 162.014765 
L 398.666894 161.905549 
L 399.315462 155.472956 
L 399.96403 157.239839 
L 400.612597 151.793983 
L 401.261165 147.86231 
L 401.909733 144.859371 
L 402.558301 158.590291 
L 403.206869 187.467201 
L 403.855437 195.415878 
L 404.504005 191.086921 
L 405.152573 181.64324 
L 405.80114 174.073082 
L 406.449708 169.856167 
L 407.098276 174.394817 
L 407.746844 177.928776 
L 408.395412 172.210106 
L 409.04398 168.074011 
L 409.692548 164.959944 
L 410.341116 166.039393 
L 410.989683 170.253831 
L 411.638251 176.987069 
L 412.286819 179.968882 
L 412.935387 178.440342 
L 413.583955 170.529765 
L 414.232523 166.374225 
L 414.881091 164.667484 
L 415.529658 167.213282 
L 416.826794 185.078329 
L 417.475362 184.996122 
L 418.12393 189.238133 
L 418.772498 196.092087 
L 419.421066 200.169071 
L 420.069634 202.3286 
L 420.718201 211.134579 
L 421.366769 212.581182 
L 422.015337 207.297864 
L 422.663905 206.152807 
L 423.312473 205.495428 
L 424.609609 205.229443 
L 425.258177 212.681289 
L 425.906744 210.751958 
L 426.555312 208.093104 
L 427.20388 206.492275 
L 427.852448 205.619538 
L 429.149584 205.058695 
L 429.798152 212.716097 
L 430.446719 216.987121 
L 431.095287 211.72543 
L 431.743855 204.373995 
L 433.040991 198.561993 
L 433.689559 197.689413 
L 434.338127 208.041778 
L 434.986695 213.864743 
L 435.635262 209.477695 
L 436.28383 206.981291 
L 437.580966 193.902845 
L 438.229534 194.535143 
L 438.878102 206.678472 
L 439.52667 213.293317 
L 440.175238 208.330575 
L 440.823805 206.298122 
L 442.120941 203.940511 
L 442.769509 200.258473 
L 443.418077 209.45997 
L 444.066645 214.843519 
L 444.715213 210.069933 
L 445.363781 207.249293 
L 446.012348 205.24902 
L 446.660916 204.44028 
L 447.309484 203.906391 
L 447.958052 211.127674 
L 448.60662 214.987002 
L 449.903756 203.2365 
L 450.552323 201.967582 
L 451.849459 202.296007 
L 452.498027 210.043884 
L 453.146595 214.283295 
L 453.795163 208.9411 
L 454.443731 205.859526 
L 455.092299 204.216717 
L 455.740866 203.3762 
L 456.389434 202.951366 
L 457.038002 210.314662 
L 457.68657 209.091165 
L 458.335138 200.011868 
L 458.983706 194.63997 
L 459.632274 193.319339 
L 460.280842 194.403924 
L 460.929409 196.151151 
L 461.577977 204.875958 
L 462.226545 207.626919 
L 462.875113 202.021679 
L 463.523681 200.008187 
L 464.172249 200.950704 
L 464.820817 201.560861 
L 465.469384 201.948423 
L 466.117952 209.956663 
L 466.76652 214.482451 
L 467.415088 205.816335 
L 468.063656 193.908702 
L 468.712224 191.404927 
L 470.00936 195.356545 
L 470.657927 206.258466 
L 471.306495 209.689249 
L 472.603631 193.436895 
L 474.549335 181.58607 
L 475.197903 188.148096 
L 475.84647 192.671692 
L 476.495038 189.971316 
L 477.792174 186.814323 
L 478.440742 186.800253 
L 479.08931 188.823624 
L 479.737878 196.446731 
L 480.386446 201.312087 
L 481.035013 198.05947 
L 481.683581 197.203254 
L 482.332149 198.594891 
L 482.980717 200.284657 
L 483.629285 201.275053 
L 484.277853 209.352856 
L 484.926421 211.16431 
L 485.574988 201.547689 
L 486.223556 200.170235 
L 486.872124 201.028878 
L 487.520692 196.459381 
L 488.16926 189.772335 
L 488.817828 193.14677 
L 489.466396 191.304416 
L 490.114964 180.66933 
L 490.763531 174.669706 
L 491.412099 173.131119 
L 492.060667 176.476595 
L 492.709235 180.518319 
L 493.357803 193.587395 
L 494.006371 203.961963 
L 494.654939 200.178119 
L 495.952074 180.672364 
L 496.600642 171.452047 
L 497.24921 170.714538 
L 498.546346 196.843074 
L 499.194914 185.965627 
L 500.49205 171.204671 
L 501.140617 166.115998 
L 501.789185 163.641175 
L 502.437753 166.257957 
L 503.086321 163.220483 
L 503.734889 156.711596 
L 504.383457 153.160681 
L 505.032025 148.760424 
L 505.680592 151.932884 
L 506.32916 153.702273 
L 507.626296 161.207566 
L 508.274864 158.191386 
L 508.923432 162.411255 
L 509.572 172.271334 
L 510.220568 168.475888 
L 510.869135 156.402945 
L 511.517703 156.698932 
L 512.166271 155.548714 
L 512.814839 149.460043 
L 514.111975 155.709651 
L 515.409111 152.385208 
L 516.057678 160.461664 
L 516.706246 173.119655 
L 517.354814 165.369908 
L 518.003382 155.535525 
L 518.65195 147.692932 
L 519.300518 143.59486 
L 519.949086 142.672688 
L 520.597653 149.230066 
L 521.246221 153.623245 
L 522.543357 142.919605 
L 523.191925 135.338748 
L 523.840493 131.79385 
L 524.489061 129.954989 
L 525.786196 148.551013 
L 527.083332 136.758876 
L 527.7319 134.316794 
L 528.380468 137.205955 
L 529.029036 143.081586 
L 529.677604 153.271422 
L 530.326172 152.794771 
L 530.974739 139.59273 
L 531.623307 131.710575 
L 532.271875 129.165643 
L 532.920443 124.174077 
L 533.569011 121.097004 
L 534.217579 126.550593 
L 534.866147 127.063705 
L 535.514715 119.921067 
L 536.163282 121.255311 
L 536.81185 128.741811 
L 537.460418 123.135102 
L 538.108986 116.284673 
L 538.757554 124.979706 
L 539.406122 128.840302 
L 540.05469 120.172585 
L 540.703257 116.405548 
L 541.351825 114.932524 
L 542.648961 111.430811 
L 543.297529 117.818107 
L 543.946097 126.919747 
L 544.594665 132.434397 
L 545.243233 134.276265 
L 545.8918 136.823093 
L 546.540368 137.601217 
L 547.188936 135.266009 
L 547.837504 140.23287 
L 548.486072 142.794312 
L 550.431776 101.091802 
L 551.080343 101.973168 
L 551.728911 115.487157 
L 552.377479 115.639731 
L 553.026047 112.155037 
L 553.674615 112.518503 
L 554.971751 129.281491 
L 555.620318 145.535016 
L 556.917454 166.54394 
L 557.566022 169.240332 
L 558.21459 162.165908 
L 558.863158 153.07901 
L 559.511726 137.946239 
L 560.160294 125.943331 
L 560.808861 118.46289 
L 562.105997 129.130401 
L 563.403133 116.590326 
L 564.051701 113.283376 
L 564.700269 114.428877 
L 565.348837 116.693757 
L 565.997404 122.706872 
L 566.645972 126.958906 
L 567.29454 127.611348 
L 567.943108 127.207526 
L 568.591676 123.798485 
L 569.888812 115.626963 
L 570.53738 127.849994 
L 571.185947 135.79552 
L 571.834515 130.662409 
L 572.483083 124.098285 
L 573.131651 118.718197 
L 573.780219 119.491424 
L 574.428787 122.144073 
L 575.077355 135.593086 
L 575.725922 141.328386 
L 576.37449 131.368564 
L 577.023058 127.441685 
L 578.968762 134.478193 
L 579.61733 138.858797 
L 580.265898 144.21395 
L 580.914465 135.210683 
L 581.563033 135.97347 
L 582.211601 140.636313 
L 582.860169 138.93712 
L 583.508737 131.000862 
L 584.157305 129.662976 
L 584.805873 134.824262 
L 585.454441 137.84226 
L 586.103008 137.152083 
L 587.400144 145.688776 
L 588.048712 146.16425 
L 588.69728 148.189919 
L 589.345848 152.690293 
L 589.994416 144.491817 
L 590.642983 140.536828 
L 591.940119 140.015881 
L 592.588687 132.445423 
L 593.237255 135.519557 
L 593.885823 135.289218 
L 594.534391 126.91074 
L 595.182959 121.983668 
L 596.480094 117.772355 
L 597.128662 115.227716 
L 597.77723 121.052675 
L 598.425798 123.166319 
L 599.074366 117.902988 
L 599.722934 117.986209 
L 600.371502 121.910421 
L 601.020069 127.526582 
L 601.668637 128.959292 
L 602.317205 140.498768 
L 602.965773 149.154347 
L 604.262909 143.609361 
L 604.911477 143.346099 
L 605.560045 144.038094 
L 606.208612 143.30547 
L 606.85718 148.067451 
L 607.505748 153.929875 
L 608.154316 151.081351 
L 608.802884 151.123482 
L 609.451452 152.485381 
L 610.748587 154.181731 
L 611.397155 163.520361 
L 612.045723 168.765961 
L 612.694291 164.716121 
L 613.342859 159.613834 
L 614.639995 139.780711 
L 615.288563 128.769071 
L 615.93713 128.191398 
L 616.585698 128.538594 
L 617.234266 125.962913 
L 617.882834 133.404438 
L 618.531402 144.880371 
L 619.17997 150.210492 
L 619.828538 144.860339 
L 620.477106 145.385545 
L 621.125673 145.464017 
L 621.774241 144.143493 
L 622.422809 154.701843 
L 623.071377 168.030942 
L 623.719945 172.668476 
L 624.368513 167.45764 
L 625.017081 166.510106 
L 625.665649 166.510744 
L 626.314216 162.056151 
L 627.611352 156.752961 
L 628.25992 157.09512 
L 628.908488 160.07883 
L 629.557056 170.888947 
L 630.205624 173.101906 
L 630.854191 164.727206 
L 631.502759 159.950134 
L 632.151327 159.292291 
L 632.799895 160.758467 
L 633.448463 162.767764 
L 634.097031 169.4104 
L 634.745599 174.057344 
L 635.394167 173.021097 
L 636.691302 171.735218 
L 637.33987 172.304134 
L 637.988438 174.588289 
L 638.637006 185.785495 
L 639.285574 189.386334 
L 639.934142 188.156708 
L 640.58271 194.456204 
L 641.231277 198.891526 
L 641.879845 197.775151 
L 642.528413 191.780448 
L 643.825549 204.047579 
L 644.474117 202.725942 
L 645.122685 201.874723 
L 645.771252 203.81732 
L 646.41982 204.934981 
L 647.068388 205.384937 
L 647.716956 204.884809 
L 648.365524 204.982076 
L 649.014092 202.472368 
L 649.66266 195.856626 
L 650.311228 191.081015 
L 650.959795 191.386528 
L 651.608363 187.225414 
L 652.256931 185.808705 
L 652.905499 181.58337 
L 653.554067 173.036607 
L 654.202635 174.28002 
L 655.499771 179.042659 
L 656.148338 188.361155 
L 656.796906 203.190211 
L 657.445474 211.377648 
L 658.094042 207.302578 
L 658.74261 201.204314 
L 659.391178 198.97065 
L 660.039746 195.202228 
L 660.688314 196.802919 
L 661.336881 208.040797 
L 661.985449 214.152305 
L 662.634017 203.738634 
L 663.282585 197.676456 
L 663.931153 200.537396 
L 664.579721 202.123763 
L 665.228289 203.004781 
L 665.876856 211.161833 
L 666.525424 215.60861 
L 667.173992 206.035888 
L 667.82256 202.11812 
L 668.471128 202.633766 
L 669.119696 202.942252 
L 669.768264 202.97458 
L 670.416832 210.557723 
L 671.065399 214.727235 
L 671.713967 209.474788 
L 672.362535 206.472235 
L 673.011103 204.696724 
L 673.659671 203.754731 
L 674.308239 198.56486 
L 674.956807 208.040547 
L 675.605375 213.196288 
L 676.253942 208.343519 
L 676.90251 205.701554 
L 677.551078 200.837644 
L 678.199646 194.860627 
L 678.848214 193.684204 
L 679.496782 202.924019 
L 680.14535 203.554546 
L 680.793917 199.56389 
L 681.442485 201.314897 
L 682.091053 202.363519 
L 682.739621 203.121685 
L 683.388189 200.089936 
L 684.685325 212.912095 
L 685.333893 208.55652 
L 685.98246 205.854659 
L 686.631028 204.200518 
L 687.279596 203.38445 
L 687.928164 203.070296 
L 688.576732 210.608334 
L 689.2253 214.810574 
L 689.873868 209.41167 
L 690.522436 206.217175 
L 691.171003 201.503761 
L 692.468139 202.343949 
L 693.116707 210.177373 
L 693.765275 214.425221 
L 694.413843 209.066821 
L 695.062411 205.961129 
L 695.710979 204.167172 
L 696.359546 203.39363 
L 697.008114 203.055541 
L 697.656682 206.914491 
L 698.30525 211.678971 
L 698.953818 207.566226 
L 699.602386 205.153894 
L 700.250954 203.744964 
L 700.899521 203.088418 
L 701.548089 202.794483 
L 702.196657 210.33366 
L 702.845225 214.475365 
L 703.493793 209.190303 
L 704.142361 206.096169 
L 704.790929 204.293189 
L 705.439497 203.412585 
L 706.088064 202.988366 
L 706.736632 210.523149 
L 707.3852 214.771399 
L 708.033768 209.457737 
L 708.682336 206.353073 
L 709.330904 204.642252 
L 709.979472 203.793374 
L 710.62804 203.291443 
L 711.276607 210.655811 
L 711.925175 214.094342 
L 712.573743 207.727091 
L 713.222311 205.321205 
L 713.870879 200.875125 
L 714.519447 197.403799 
L 715.168015 195.996734 
L 716.46515 210.809318 
L 717.113718 207.088755 
L 717.762286 204.891788 
L 718.410854 203.59988 
L 719.059422 198.341354 
L 719.70799 194.616506 
L 720.356558 198.463765 
L 721.005125 200.735155 
L 721.653693 195.27851 
L 722.302261 195.877647 
L 722.950829 193.559248 
L 723.599397 188.384209 
L 724.247965 179.863749 
L 724.896533 178.707513 
L 725.545101 176.6008 
L 726.193668 169.290507 
L 726.842236 164.017244 
L 727.490804 160.032965 
L 728.139372 158.994895 
L 728.78794 161.368341 
L 729.436508 173.160719 
L 730.085076 178.719687 
L 731.382211 164.248427 
L 732.030779 157.123399 
L 732.679347 153.574048 
L 733.327915 154.685061 
L 734.625051 175.416466 
L 735.273619 170.781775 
L 735.922186 168.546061 
L 736.570754 173.133275 
L 737.219322 174.269835 
L 737.86789 170.678139 
L 738.516458 175.711206 
L 739.165026 174.248285 
L 739.813594 171.156318 
L 740.462162 166.079909 
L 741.110729 161.912039 
L 741.759297 163.311413 
L 742.407865 168.393807 
L 743.056433 182.654887 
L 743.705001 192.292082 
L 744.353569 192.538398 
L 745.002137 187.35593 
L 745.650705 175.470216 
L 746.299272 167.580159 
L 746.94784 170.531223 
L 747.596408 181.714292 
L 748.244976 187.506398 
L 748.893544 186.096511 
L 749.542112 180.037889 
L 750.19068 176.938708 
L 750.839248 178.7664 
L 751.487815 185.357536 
L 752.136383 194.080167 
L 752.784951 198.042686 
L 753.433519 187.056335 
L 754.082087 181.535957 
L 754.730655 171.767109 
L 755.379223 164.162616 
L 756.02779 159.614723 
L 756.676358 160.952403 
L 757.324926 161.496928 
L 757.973494 162.283178 
L 758.622062 163.582156 
L 759.27063 165.392527 
L 759.919198 162.261854 
L 760.567766 156.511824 
L 761.216333 157.420103 
L 761.864901 157.353184 
L 762.513469 150.281959 
L 763.162037 151.609162 
L 763.810605 148.956649 
L 764.459173 145.087393 
L 765.107741 136.710797 
L 765.756309 130.704812 
L 766.404876 128.738935 
L 767.053444 122.674145 
L 767.702012 122.826576 
L 768.999148 130.984518 
L 769.647716 132.31401 
L 770.296284 141.213947 
L 770.944851 141.877996 
L 771.593419 136.200862 
L 771.593419 136.200862 
" clip-path="url(#p6c9cb9aa6f)" style="fill: none; stroke: #dd8452; stroke-width: 1.2; stroke-linecap: round"/>
   </g>
   <g id="patch_4">
    <path d="M 47.30525 248.937 
L 47.30525 27.177 
" style="fill: none; stroke: #cccccc; stroke-linejoin: miter; stroke-linecap: square"/>
   </g>
   <g id="patch_5">
    <path d="M 828.50525 248.937 
L 828.50525 27.177 
" style="fill: none; stroke: #cccccc; stroke-linejoin: miter; stroke-linecap: square"/>
   </g>
   <g id="patch_6">
    <path d="M 47.30525 248.937 
L 828.50525 248.937 
" style="fill: none; stroke: #cccccc; stroke-linejoin: miter; stroke-linecap: square"/>
   </g>
   <g id="patch_7">
    <path d="M 47.30525 27.177 
L 828.50525 27.177 
" style="fill: none; stroke: #cccccc; stroke-linejoin: miter; stroke-linecap: square"/>
   </g>
   <g id="text_17">
    <!-- ARX model of natural gas consumption -->
    <g style="fill: #262626" transform="translate(271.42475 21.177) scale(0.192 -0.192)">
     <defs>
      <path id="ArialMT-41" d="M -9 0 
L 1750 4581 
L 2403 4581 
L 4278 0 
L 3588 0 
L 3053 1388 
L 1138 1388 
L 634 0 
L -9 0 
z
M 1313 1881 
L 2866 1881 
L 2388 3150 
Q 2169 3728 2063 4100 
Q 1975 3659 1816 3225 
L 1313 1881 
z
" transform="scale(0.015625)"/>
      <path id="ArialMT-52" d="M 503 0 
L 503 4581 
L 2534 4581 
Q 3147 4581 3465 4457 
Q 3784 4334 3975 4021 
Q 4166 3709 4166 3331 
Q 4166 2844 3850 2509 
Q 3534 2175 2875 2084 
Q 3116 1969 3241 1856 
Q 3506 1613 3744 1247 
L 4541 0 
L 3778 0 
L 3172 953 
Q 2906 1366 2734 1584 
Q 2563 1803 2427 1890 
Q 2291 1978 2150 2013 
Q 2047 2034 1813 2034 
L 1109 2034 
L 1109 0 
L 503 0 
z
M 1109 2559 
L 2413 2559 
Q 2828 2559 3062 2645 
Q 3297 2731 3419 2920 
Q 3541 3109 3541 3331 
Q 3541 3656 3305 3865 
Q 3069 4075 2559 4075 
L 1109 4075 
L 1109 2559 
z
" transform="scale(0.015625)"/>
      <path id="ArialMT-58" d="M 28 0 
L 1800 2388 
L 238 4581 
L 959 4581 
L 1791 3406 
Q 2050 3041 2159 2844 
Q 2313 3094 2522 3366 
L 3444 4581 
L 4103 4581 
L 2494 2422 
L 4228 0 
L 3478 0 
L 2325 1634 
Q 2228 1775 2125 1941 
Q 1972 1691 1906 1597 
L 756 0 
L 28 0 
z
" transform="scale(0.015625)"/>
      <path id="ArialMT-64" d="M 2575 0 
L 2575 419 
Q 2259 -75 1647 -75 
Q 1250 -75 917 144 
Q 584 363 401 755 
Q 219 1147 219 1656 
Q 219 2153 384 2558 
Q 550 2963 881 3178 
Q 1213 3394 1622 3394 
Q 1922 3394 2156 3267 
Q 2391 3141 2538 2938 
L 2538 4581 
L 3097 4581 
L 3097 0 
L 2575 0 
z
M 797 1656 
Q 797 1019 1065 703 
Q 1334 388 1700 388 
Q 2069 388 2326 689 
Q 2584 991 2584 1609 
Q 2584 2291 2321 2609 
Q 2059 2928 1675 2928 
Q 1300 2928 1048 2622 
Q 797 2316 797 1656 
z
" transform="scale(0.015625)"/>
      <path id="ArialMT-6c" d="M 409 0 
L 409 4581 
L 972 4581 
L 972 0 
L 409 0 
z
" transform="scale(0.015625)"/>
      <path id="ArialMT-66" d="M 556 0 
L 556 2881 
L 59 2881 
L 59 3319 
L 556 3319 
L 556 3672 
Q 556 4006 616 4169 
Q 697 4388 901 4523 
Q 1106 4659 1475 4659 
Q 1713 4659 2000 4603 
L 1916 4113 
Q 1741 4144 1584 4144 
Q 1328 4144 1222 4034 
Q 1116 3925 1116 3625 
L 1116 3319 
L 1763 3319 
L 1763 2881 
L 1116 2881 
L 1116 0 
L 556 0 
z
" transform="scale(0.015625)"/>
      <path id="ArialMT-61" d="M 2588 409 
Q 2275 144 1986 34 
Q 1697 -75 1366 -75 
Q 819 -75 525 192 
Q 231 459 231 875 
Q 231 1119 342 1320 
Q 453 1522 633 1644 
Q 813 1766 1038 1828 
Q 1203 1872 1538 1913 
Q 2219 1994 2541 2106 
Q 2544 2222 2544 2253 
Q 2544 2597 2384 2738 
Q 2169 2928 1744 2928 
Q 1347 2928 1158 2789 
Q 969 2650 878 2297 
L 328 2372 
Q 403 2725 575 2942 
Q 747 3159 1072 3276 
Q 1397 3394 1825 3394 
Q 2250 3394 2515 3294 
Q 2781 3194 2906 3042 
Q 3031 2891 3081 2659 
Q 3109 2516 3109 2141 
L 3109 1391 
Q 3109 606 3145 398 
Q 3181 191 3288 0 
L 2700 0 
Q 2613 175 2588 409 
z
M 2541 1666 
Q 2234 1541 1622 1453 
Q 1275 1403 1131 1340 
Q 988 1278 909 1158 
Q 831 1038 831 891 
Q 831 666 1001 516 
Q 1172 366 1500 366 
Q 1825 366 2078 508 
Q 2331 650 2450 897 
Q 2541 1088 2541 1459 
L 2541 1666 
z
" transform="scale(0.015625)"/>
      <path id="ArialMT-72" d="M 416 0 
L 416 3319 
L 922 3319 
L 922 2816 
Q 1116 3169 1280 3281 
Q 1444 3394 1641 3394 
Q 1925 3394 2219 3213 
L 2025 2691 
Q 1819 2813 1613 2813 
Q 1428 2813 1281 2702 
Q 1134 2591 1072 2394 
Q 978 2094 978 1738 
L 978 0 
L 416 0 
z
" transform="scale(0.015625)"/>
      <path id="ArialMT-67" d="M 319 -275 
L 866 -356 
Q 900 -609 1056 -725 
Q 1266 -881 1628 -881 
Q 2019 -881 2231 -725 
Q 2444 -569 2519 -288 
Q 2563 -116 2559 434 
Q 2191 0 1641 0 
Q 956 0 581 494 
Q 206 988 206 1678 
Q 206 2153 378 2554 
Q 550 2956 876 3175 
Q 1203 3394 1644 3394 
Q 2231 3394 2613 2919 
L 2613 3319 
L 3131 3319 
L 3131 450 
Q 3131 -325 2973 -648 
Q 2816 -972 2473 -1159 
Q 2131 -1347 1631 -1347 
Q 1038 -1347 672 -1080 
Q 306 -813 319 -275 
z
M 784 1719 
Q 784 1066 1043 766 
Q 1303 466 1694 466 
Q 2081 466 2343 764 
Q 2606 1063 2606 1700 
Q 2606 2309 2336 2618 
Q 2066 2928 1684 2928 
Q 1309 2928 1046 2623 
Q 784 2319 784 1719 
z
" transform="scale(0.015625)"/>
      <path id="ArialMT-63" d="M 2588 1216 
L 3141 1144 
Q 3050 572 2676 248 
Q 2303 -75 1759 -75 
Q 1078 -75 664 370 
Q 250 816 250 1647 
Q 250 2184 428 2587 
Q 606 2991 970 3192 
Q 1334 3394 1763 3394 
Q 2303 3394 2647 3120 
Q 2991 2847 3088 2344 
L 2541 2259 
Q 2463 2594 2264 2762 
Q 2066 2931 1784 2931 
Q 1359 2931 1093 2626 
Q 828 2322 828 1663 
Q 828 994 1084 691 
Q 1341 388 1753 388 
Q 2084 388 2306 591 
Q 2528 794 2588 1216 
z
" transform="scale(0.015625)"/>
     </defs>
     <use xlink:href="#ArialMT-41"/>
     <use xlink:href="#ArialMT-52" x="66.699219"/>
     <use xlink:href="#ArialMT-58" x="138.916016"/>
     <use xlink:href="#ArialMT-20" x="205.615234"/>
     <use xlink:href="#ArialMT-6d" x="233.398438"/>
     <use xlink:href="#ArialMT-6f" x="316.699219"/>
     <use xlink:href="#ArialMT-64" x="372.314453"/>
     <use xlink:href="#ArialMT-65" x="427.929688"/>
     <use xlink:href="#ArialMT-6c" x="483.544922"/>
     <use xlink:href="#ArialMT-20" x="505.761719"/>
     <use xlink:href="#ArialMT-6f" x="533.544922"/>
     <use xlink:href="#ArialMT-66" x="589.160156"/>
     <use xlink:href="#ArialMT-20" x="616.943359"/>
     <use xlink:href="#ArialMT-6e" x="644.726562"/>
     <use xlink:href="#ArialMT-61" x="700.341797"/>
     <use xlink:href="#ArialMT-74" x="755.957031"/>
     <use xlink:href="#ArialMT-75" x="783.740234"/>
     <use xlink:href="#ArialMT-72" x="839.355469"/>
     <use xlink:href="#ArialMT-61" x="872.65625"/>
     <use xlink:href="#ArialMT-6c" x="928.271484"/>
     <use xlink:href="#ArialMT-20" x="950.488281"/>
     <use xlink:href="#ArialMT-67" x="978.271484"/>
     <use xlink:href="#ArialMT-61" x="1033.886719"/>
     <use xlink:href="#ArialMT-73" x="1089.501953"/>
     <use xlink:href="#ArialMT-20" x="1139.501953"/>
     <use xlink:href="#ArialMT-63" x="1167.285156"/>
     <use xlink:href="#ArialMT-6f" x="1217.285156"/>
     <use xlink:href="#ArialMT-6e" x="1272.900391"/>
     <use xlink:href="#ArialMT-73" x="1328.515625"/>
     <use xlink:href="#ArialMT-75" x="1378.515625"/>
     <use xlink:href="#ArialMT-6d" x="1434.130859"/>
     <use xlink:href="#ArialMT-70" x="1517.431641"/>
     <use xlink:href="#ArialMT-74" x="1573.046875"/>
     <use xlink:href="#ArialMT-69" x="1600.830078"/>
     <use xlink:href="#ArialMT-6f" x="1623.046875"/>
     <use xlink:href="#ArialMT-6e" x="1678.662109"/>
    </g>
   </g>
   <g id="legend_1">
    <g id="patch_8">
     <path d="M 623.6 116.365 
L 816.18525 116.365 
Q 819.70525 116.365 819.70525 112.845 
L 819.70525 39.497 
Q 819.70525 35.977 816.18525 35.977 
L 623.6 35.977 
Q 620.08 35.977 620.08 39.497 
L 620.08 112.845 
Q 620.08 116.365 623.6 116.365 
z
" style="fill: #ffffff; opacity: 0.8; stroke: #cccccc; stroke-width: 0.8; stroke-linejoin: miter"/>
    </g>
    <g id="line2d_18">
     <path d="M 627.12 49.66925 
L 644.72 49.66925 
L 662.32 49.66925 
" style="fill: none; stroke: #ff0000; stroke-width: 0.8; stroke-linecap: round"/>
    </g>
    <g id="text_18">
     <!-- Training/Test split -->
     <g style="fill: #262626" transform="translate(676.4 55.82925) scale(0.176 -0.176)">
      <defs>
       <path id="ArialMT-54" d="M 1659 0 
L 1659 4041 
L 150 4041 
L 150 4581 
L 3781 4581 
L 3781 4041 
L 2266 4041 
L 2266 0 
L 1659 0 
z
" transform="scale(0.015625)"/>
       <path id="ArialMT-2f" d="M 0 -78 
L 1328 4659 
L 1778 4659 
L 453 -78 
L 0 -78 
z
" transform="scale(0.015625)"/>
      </defs>
      <use xlink:href="#ArialMT-54"/>
      <use xlink:href="#ArialMT-72" x="57.333984"/>
      <use xlink:href="#ArialMT-61" x="90.634766"/>
      <use xlink:href="#ArialMT-69" x="146.25"/>
      <use xlink:href="#ArialMT-6e" x="168.466797"/>
      <use xlink:href="#ArialMT-69" x="224.082031"/>
      <use xlink:href="#ArialMT-6e" x="246.298828"/>
      <use xlink:href="#ArialMT-67" x="301.914062"/>
      <use xlink:href="#ArialMT-2f" x="357.529297"/>
      <use xlink:href="#ArialMT-54" x="385.3125"/>
      <use xlink:href="#ArialMT-65" x="435.271484"/>
      <use xlink:href="#ArialMT-73" x="490.886719"/>
      <use xlink:href="#ArialMT-74" x="540.886719"/>
      <use xlink:href="#ArialMT-20" x="568.669922"/>
      <use xlink:href="#ArialMT-73" x="596.453125"/>
      <use xlink:href="#ArialMT-70" x="646.453125"/>
      <use xlink:href="#ArialMT-6c" x="702.068359"/>
      <use xlink:href="#ArialMT-69" x="724.285156"/>
      <use xlink:href="#ArialMT-74" x="746.501953"/>
     </g>
    </g>
    <g id="line2d_19">
     <path d="M 627.12 74.77125 
L 644.72 74.77125 
L 662.32 74.77125 
" style="fill: none; stroke: #4c72b0; stroke-width: 1.2; stroke-linecap: round"/>
    </g>
    <g id="text_19">
     <!-- Actual -->
     <g style="fill: #262626" transform="translate(676.4 80.93125) scale(0.176 -0.176)">
      <use xlink:href="#ArialMT-41"/>
      <use xlink:href="#ArialMT-63" x="66.699219"/>
      <use xlink:href="#ArialMT-74" x="116.699219"/>
      <use xlink:href="#ArialMT-75" x="144.482422"/>
      <use xlink:href="#ArialMT-61" x="200.097656"/>
      <use xlink:href="#ArialMT-6c" x="255.712891"/>
     </g>
    </g>
    <g id="line2d_20">
     <path d="M 627.12 99.667 
L 644.72 99.667 
L 662.32 99.667 
" style="fill: none; stroke: #dd8452; stroke-width: 1.2; stroke-linecap: round"/>
    </g>
    <g id="text_20">
     <!-- Predicted -->
     <g style="fill: #262626" transform="translate(676.4 105.827) scale(0.176 -0.176)">
      <defs>
       <path id="ArialMT-50" d="M 494 0 
L 494 4581 
L 2222 4581 
Q 2678 4581 2919 4538 
Q 3256 4481 3484 4323 
Q 3713 4166 3852 3881 
Q 3991 3597 3991 3256 
Q 3991 2672 3619 2267 
Q 3247 1863 2275 1863 
L 1100 1863 
L 1100 0 
L 494 0 
z
M 1100 2403 
L 2284 2403 
Q 2872 2403 3119 2622 
Q 3366 2841 3366 3238 
Q 3366 3525 3220 3729 
Q 3075 3934 2838 4000 
Q 2684 4041 2272 4041 
L 1100 4041 
L 1100 2403 
z
" transform="scale(0.015625)"/>
      </defs>
      <use xlink:href="#ArialMT-50"/>
      <use xlink:href="#ArialMT-72" x="66.699219"/>
      <use xlink:href="#ArialMT-65" x="100"/>
      <use xlink:href="#ArialMT-64" x="155.615234"/>
      <use xlink:href="#ArialMT-69" x="211.230469"/>
      <use xlink:href="#ArialMT-63" x="233.447266"/>
      <use xlink:href="#ArialMT-74" x="283.447266"/>
      <use xlink:href="#ArialMT-65" x="311.230469"/>
      <use xlink:href="#ArialMT-64" x="366.845703"/>
     </g>
    </g>
   </g>
  </g>
 </g>
 <defs>
  <clipPath id="p6c9cb9aa6f">
   <rect x="47.30525" y="27.177" width="781.2" height="221.76"/>
  </clipPath>
 </defs>
</svg>
