<?xml version="1.0" encoding="utf-8" standalone="no"?>
<!DOCTYPE svg PUBLIC "-//W3C//DTD SVG 1.1//EN"
  "http://www.w3.org/Graphics/SVG/1.1/DTD/svg11.dtd">
<svg xmlns:xlink="http://www.w3.org/1999/xlink" width="838.15125pt" height="561.257pt" viewBox="0 0 838.15125 561.257" xmlns="http://www.w3.org/2000/svg" version="1.1">
 <metadata>
  <rdf:RDF xmlns:dc="http://purl.org/dc/elements/1.1/" xmlns:cc="http://creativecommons.org/ns#" xmlns:rdf="http://www.w3.org/1999/02/22-rdf-syntax-ns#">
   <cc:Work>
    <dc:type rdf:resource="http://purl.org/dc/dcmitype/StillImage"/>
    <dc:date>2023-05-13T19:07:28.911326</dc:date>
    <dc:format>image/svg+xml</dc:format>
    <dc:creator>
     <cc:Agent>
      <dc:title>Matplotlib v3.6.2, https://matplotlib.org/</dc:title>
     </cc:Agent>
    </dc:creator>
   </cc:Work>
  </rdf:RDF>
 </metadata>
 <defs>
  <style type="text/css">*{stroke-linejoin: round; stroke-linecap: butt}</style>
 </defs>
 <g id="figure_1">
  <g id="patch_1">
   <path d="M 0 561.257 
L 838.15125 561.257 
L 838.15125 0 
L 0 0 
z
" style="fill: #ffffff"/>
  </g>
  <g id="axes_1">
   <g id="patch_2">
    <path d="M 49.75125 197.761615 
L 404.842159 197.761615 
L 404.842159 27.177 
L 49.75125 27.177 
z
" style="fill: #ffffff"/>
   </g>
   <g id="matplotlib.axis_1">
    <g id="xtick_1">
     <g id="line2d_1">
      <path d="M 49.75125 197.761615 
L 49.75125 27.177 
" clip-path="url(#pbe75fbf417)" style="fill: none; stroke: #cccccc; stroke-width: 0.8; stroke-linecap: round"/>
     </g>
     <g id="text_1">
      <!-- 13 -->
      <g style="fill: #262626" transform="translate(39.964 218.659365) scale(0.176 -0.176)">
       <defs>
        <path id="ArialMT-31" d="M 2384 0 
L 1822 0 
L 1822 3584 
Q 1619 3391 1289 3197 
Q 959 3003 697 2906 
L 697 3450 
Q 1169 3672 1522 3987 
Q 1875 4303 2022 4600 
L 2384 4600 
L 2384 0 
z
" transform="scale(0.015625)"/>
        <path id="ArialMT-33" d="M 269 1209 
L 831 1284 
Q 928 806 1161 595 
Q 1394 384 1728 384 
Q 2125 384 2398 659 
Q 2672 934 2672 1341 
Q 2672 1728 2419 1979 
Q 2166 2231 1775 2231 
Q 1616 2231 1378 2169 
L 1441 2663 
Q 1497 2656 1531 2656 
Q 1891 2656 2178 2843 
Q 2466 3031 2466 3422 
Q 2466 3731 2256 3934 
Q 2047 4138 1716 4138 
Q 1388 4138 1169 3931 
Q 950 3725 888 3313 
L 325 3413 
Q 428 3978 793 4289 
Q 1159 4600 1703 4600 
Q 2078 4600 2393 4439 
Q 2709 4278 2876 4000 
Q 3044 3722 3044 3409 
Q 3044 3113 2884 2869 
Q 2725 2625 2413 2481 
Q 2819 2388 3044 2092 
Q 3269 1797 3269 1353 
Q 3269 753 2831 336 
Q 2394 -81 1725 -81 
Q 1122 -81 723 278 
Q 325 638 269 1209 
z
" transform="scale(0.015625)"/>
       </defs>
       <use xlink:href="#ArialMT-31"/>
       <use xlink:href="#ArialMT-33" x="55.615234"/>
      </g>
      <!-- May -->
      <g style="fill: #262626" transform="translate(33.1275 237.274665) scale(0.176 -0.176)">
       <defs>
        <path id="ArialMT-4d" d="M 475 0 
L 475 4581 
L 1388 4581 
L 2472 1338 
Q 2622 884 2691 659 
Q 2769 909 2934 1394 
L 4031 4581 
L 4847 4581 
L 4847 0 
L 4263 0 
L 4263 3834 
L 2931 0 
L 2384 0 
L 1059 3900 
L 1059 0 
L 475 0 
z
" transform="scale(0.015625)"/>
        <path id="ArialMT-61" d="M 2588 409 
Q 2275 144 1986 34 
Q 1697 -75 1366 -75 
Q 819 -75 525 192 
Q 231 459 231 875 
Q 231 1119 342 1320 
Q 453 1522 633 1644 
Q 813 1766 1038 1828 
Q 1203 1872 1538 1913 
Q 2219 1994 2541 2106 
Q 2544 2222 2544 2253 
Q 2544 2597 2384 2738 
Q 2169 2928 1744 2928 
Q 1347 2928 1158 2789 
Q 969 2650 878 2297 
L 328 2372 
Q 403 2725 575 2942 
Q 747 3159 1072 3276 
Q 1397 3394 1825 3394 
Q 2250 3394 2515 3294 
Q 2781 3194 2906 3042 
Q 3031 2891 3081 2659 
Q 3109 2516 3109 2141 
L 3109 1391 
Q 3109 606 3145 398 
Q 3181 191 3288 0 
L 2700 0 
Q 2613 175 2588 409 
z
M 2541 1666 
Q 2234 1541 1622 1453 
Q 1275 1403 1131 1340 
Q 988 1278 909 1158 
Q 831 1038 831 891 
Q 831 666 1001 516 
Q 1172 366 1500 366 
Q 1825 366 2078 508 
Q 2331 650 2450 897 
Q 2541 1088 2541 1459 
L 2541 1666 
z
" transform="scale(0.015625)"/>
        <path id="ArialMT-79" d="M 397 -1278 
L 334 -750 
Q 519 -800 656 -800 
Q 844 -800 956 -737 
Q 1069 -675 1141 -563 
Q 1194 -478 1313 -144 
Q 1328 -97 1363 -6 
L 103 3319 
L 709 3319 
L 1400 1397 
Q 1534 1031 1641 628 
Q 1738 1016 1872 1384 
L 2581 3319 
L 3144 3319 
L 1881 -56 
Q 1678 -603 1566 -809 
Q 1416 -1088 1222 -1217 
Q 1028 -1347 759 -1347 
Q 597 -1347 397 -1278 
z
" transform="scale(0.015625)"/>
       </defs>
       <use xlink:href="#ArialMT-4d"/>
       <use xlink:href="#ArialMT-61" x="83.300781"/>
       <use xlink:href="#ArialMT-79" x="138.916016"/>
      </g>
      <!-- 2023 -->
      <g style="fill: #262626" transform="translate(30.17675 256.096215) scale(0.176 -0.176)">
       <defs>
        <path id="ArialMT-32" d="M 3222 541 
L 3222 0 
L 194 0 
Q 188 203 259 391 
Q 375 700 629 1000 
Q 884 1300 1366 1694 
Q 2113 2306 2375 2664 
Q 2638 3022 2638 3341 
Q 2638 3675 2398 3904 
Q 2159 4134 1775 4134 
Q 1369 4134 1125 3890 
Q 881 3647 878 3216 
L 300 3275 
Q 359 3922 746 4261 
Q 1134 4600 1788 4600 
Q 2447 4600 2831 4234 
Q 3216 3869 3216 3328 
Q 3216 3053 3103 2787 
Q 2991 2522 2730 2228 
Q 2469 1934 1863 1422 
Q 1356 997 1212 845 
Q 1069 694 975 541 
L 3222 541 
z
" transform="scale(0.015625)"/>
        <path id="ArialMT-30" d="M 266 2259 
Q 266 3072 433 3567 
Q 600 4063 929 4331 
Q 1259 4600 1759 4600 
Q 2128 4600 2406 4451 
Q 2684 4303 2865 4023 
Q 3047 3744 3150 3342 
Q 3253 2941 3253 2259 
Q 3253 1453 3087 958 
Q 2922 463 2592 192 
Q 2263 -78 1759 -78 
Q 1097 -78 719 397 
Q 266 969 266 2259 
z
M 844 2259 
Q 844 1131 1108 757 
Q 1372 384 1759 384 
Q 2147 384 2411 759 
Q 2675 1134 2675 2259 
Q 2675 3391 2411 3762 
Q 2147 4134 1753 4134 
Q 1366 4134 1134 3806 
Q 844 3388 844 2259 
z
" transform="scale(0.015625)"/>
       </defs>
       <use xlink:href="#ArialMT-32"/>
       <use xlink:href="#ArialMT-30" x="55.615234"/>
       <use xlink:href="#ArialMT-32" x="111.230469"/>
       <use xlink:href="#ArialMT-33" x="166.845703"/>
      </g>
     </g>
    </g>
    <g id="xtick_2">
     <g id="line2d_2">
      <path d="M 404.842159 197.761615 
L 404.842159 27.177 
" clip-path="url(#pbe75fbf417)" style="fill: none; stroke: #cccccc; stroke-width: 0.8; stroke-linecap: round"/>
     </g>
     <g id="text_2">
      <!-- 29 -->
      <g style="fill: #262626" transform="translate(395.054909 218.659365) scale(0.176 -0.176)">
       <defs>
        <path id="ArialMT-39" d="M 350 1059 
L 891 1109 
Q 959 728 1153 556 
Q 1347 384 1650 384 
Q 1909 384 2104 503 
Q 2300 622 2425 820 
Q 2550 1019 2634 1356 
Q 2719 1694 2719 2044 
Q 2719 2081 2716 2156 
Q 2547 1888 2255 1720 
Q 1963 1553 1622 1553 
Q 1053 1553 659 1965 
Q 266 2378 266 3053 
Q 266 3750 677 4175 
Q 1088 4600 1706 4600 
Q 2153 4600 2523 4359 
Q 2894 4119 3086 3673 
Q 3278 3228 3278 2384 
Q 3278 1506 3087 986 
Q 2897 466 2520 194 
Q 2144 -78 1638 -78 
Q 1100 -78 759 220 
Q 419 519 350 1059 
z
M 2653 3081 
Q 2653 3566 2395 3850 
Q 2138 4134 1775 4134 
Q 1400 4134 1122 3828 
Q 844 3522 844 3034 
Q 844 2597 1108 2323 
Q 1372 2050 1759 2050 
Q 2150 2050 2401 2323 
Q 2653 2597 2653 3081 
z
" transform="scale(0.015625)"/>
       </defs>
       <use xlink:href="#ArialMT-32"/>
       <use xlink:href="#ArialMT-39" x="55.615234"/>
      </g>
     </g>
    </g>
    <g id="xtick_3">
     <g id="text_3">
      <!-- 14 -->
      <g style="fill: #262626" transform="translate(62.157182 216.959365) scale(0.176 -0.176)">
       <defs>
        <path id="ArialMT-34" d="M 2069 0 
L 2069 1097 
L 81 1097 
L 81 1613 
L 2172 4581 
L 2631 4581 
L 2631 1613 
L 3250 1613 
L 3250 1097 
L 2631 1097 
L 2631 0 
L 2069 0 
z
M 2069 1613 
L 2069 3678 
L 634 1613 
L 2069 1613 
z
" transform="scale(0.015625)"/>
       </defs>
       <use xlink:href="#ArialMT-31"/>
       <use xlink:href="#ArialMT-34" x="55.615234"/>
      </g>
     </g>
    </g>
    <g id="xtick_4">
     <g id="text_4">
      <!-- 15 -->
      <g style="fill: #262626" transform="translate(84.350364 216.959365) scale(0.176 -0.176)">
       <defs>
        <path id="ArialMT-35" d="M 266 1200 
L 856 1250 
Q 922 819 1161 601 
Q 1400 384 1738 384 
Q 2144 384 2425 690 
Q 2706 997 2706 1503 
Q 2706 1984 2436 2262 
Q 2166 2541 1728 2541 
Q 1456 2541 1237 2417 
Q 1019 2294 894 2097 
L 366 2166 
L 809 4519 
L 3088 4519 
L 3088 3981 
L 1259 3981 
L 1013 2750 
Q 1425 3038 1878 3038 
Q 2478 3038 2890 2622 
Q 3303 2206 3303 1553 
Q 3303 931 2941 478 
Q 2500 -78 1738 -78 
Q 1113 -78 717 272 
Q 322 622 266 1200 
z
" transform="scale(0.015625)"/>
       </defs>
       <use xlink:href="#ArialMT-31"/>
       <use xlink:href="#ArialMT-35" x="55.615234"/>
      </g>
     </g>
    </g>
    <g id="xtick_5">
     <g id="text_5">
      <!-- 16 -->
      <g style="fill: #262626" transform="translate(106.543545 216.959365) scale(0.176 -0.176)">
       <defs>
        <path id="ArialMT-36" d="M 3184 3459 
L 2625 3416 
Q 2550 3747 2413 3897 
Q 2184 4138 1850 4138 
Q 1581 4138 1378 3988 
Q 1113 3794 959 3422 
Q 806 3050 800 2363 
Q 1003 2672 1297 2822 
Q 1591 2972 1913 2972 
Q 2475 2972 2870 2558 
Q 3266 2144 3266 1488 
Q 3266 1056 3080 686 
Q 2894 316 2569 119 
Q 2244 -78 1831 -78 
Q 1128 -78 684 439 
Q 241 956 241 2144 
Q 241 3472 731 4075 
Q 1159 4600 1884 4600 
Q 2425 4600 2770 4297 
Q 3116 3994 3184 3459 
z
M 888 1484 
Q 888 1194 1011 928 
Q 1134 663 1356 523 
Q 1578 384 1822 384 
Q 2178 384 2434 671 
Q 2691 959 2691 1453 
Q 2691 1928 2437 2201 
Q 2184 2475 1800 2475 
Q 1419 2475 1153 2201 
Q 888 1928 888 1484 
z
" transform="scale(0.015625)"/>
       </defs>
       <use xlink:href="#ArialMT-31"/>
       <use xlink:href="#ArialMT-36" x="55.615234"/>
      </g>
     </g>
    </g>
    <g id="xtick_6">
     <g id="text_6">
      <!-- 17 -->
      <g style="fill: #262626" transform="translate(128.736727 216.959365) scale(0.176 -0.176)">
       <defs>
        <path id="ArialMT-37" d="M 303 3981 
L 303 4522 
L 3269 4522 
L 3269 4084 
Q 2831 3619 2401 2847 
Q 1972 2075 1738 1259 
Q 1569 684 1522 0 
L 944 0 
Q 953 541 1156 1306 
Q 1359 2072 1739 2783 
Q 2119 3494 2547 3981 
L 303 3981 
z
" transform="scale(0.015625)"/>
       </defs>
       <use xlink:href="#ArialMT-31"/>
       <use xlink:href="#ArialMT-37" x="55.615234"/>
      </g>
     </g>
    </g>
    <g id="xtick_7">
     <g id="text_7">
      <!-- 18 -->
      <g style="fill: #262626" transform="translate(150.929909 216.959365) scale(0.176 -0.176)">
       <defs>
        <path id="ArialMT-38" d="M 1131 2484 
Q 781 2613 612 2850 
Q 444 3088 444 3419 
Q 444 3919 803 4259 
Q 1163 4600 1759 4600 
Q 2359 4600 2725 4251 
Q 3091 3903 3091 3403 
Q 3091 3084 2923 2848 
Q 2756 2613 2416 2484 
Q 2838 2347 3058 2040 
Q 3278 1734 3278 1309 
Q 3278 722 2862 322 
Q 2447 -78 1769 -78 
Q 1091 -78 675 323 
Q 259 725 259 1325 
Q 259 1772 486 2073 
Q 713 2375 1131 2484 
z
M 1019 3438 
Q 1019 3113 1228 2906 
Q 1438 2700 1772 2700 
Q 2097 2700 2305 2904 
Q 2513 3109 2513 3406 
Q 2513 3716 2298 3927 
Q 2084 4138 1766 4138 
Q 1444 4138 1231 3931 
Q 1019 3725 1019 3438 
z
M 838 1322 
Q 838 1081 952 856 
Q 1066 631 1291 507 
Q 1516 384 1775 384 
Q 2178 384 2440 643 
Q 2703 903 2703 1303 
Q 2703 1709 2433 1975 
Q 2163 2241 1756 2241 
Q 1359 2241 1098 1978 
Q 838 1716 838 1322 
z
" transform="scale(0.015625)"/>
       </defs>
       <use xlink:href="#ArialMT-31"/>
       <use xlink:href="#ArialMT-38" x="55.615234"/>
      </g>
     </g>
    </g>
    <g id="xtick_8">
     <g id="text_8">
      <!-- 19 -->
      <g style="fill: #262626" transform="translate(173.123091 216.959365) scale(0.176 -0.176)">
       <use xlink:href="#ArialMT-31"/>
       <use xlink:href="#ArialMT-39" x="55.615234"/>
      </g>
     </g>
    </g>
    <g id="xtick_9">
     <g id="text_9">
      <!-- 20 -->
      <g style="fill: #262626" transform="translate(195.316273 216.959365) scale(0.176 -0.176)">
       <use xlink:href="#ArialMT-32"/>
       <use xlink:href="#ArialMT-30" x="55.615234"/>
      </g>
     </g>
    </g>
    <g id="xtick_10">
     <g id="text_10">
      <!-- 21 -->
      <g style="fill: #262626" transform="translate(217.509455 216.959365) scale(0.176 -0.176)">
       <use xlink:href="#ArialMT-32"/>
       <use xlink:href="#ArialMT-31" x="55.615234"/>
      </g>
     </g>
    </g>
    <g id="xtick_11">
     <g id="text_11">
      <!-- 22 -->
      <g style="fill: #262626" transform="translate(239.702636 216.959365) scale(0.176 -0.176)">
       <use xlink:href="#ArialMT-32"/>
       <use xlink:href="#ArialMT-32" x="55.615234"/>
      </g>
     </g>
    </g>
    <g id="xtick_12">
     <g id="text_12">
      <!-- 23 -->
      <g style="fill: #262626" transform="translate(261.895818 216.959365) scale(0.176 -0.176)">
       <use xlink:href="#ArialMT-32"/>
       <use xlink:href="#ArialMT-33" x="55.615234"/>
      </g>
     </g>
    </g>
    <g id="xtick_13">
     <g id="text_13">
      <!-- 24 -->
      <g style="fill: #262626" transform="translate(284.089 216.959365) scale(0.176 -0.176)">
       <use xlink:href="#ArialMT-32"/>
       <use xlink:href="#ArialMT-34" x="55.615234"/>
      </g>
     </g>
    </g>
    <g id="xtick_14">
     <g id="text_14">
      <!-- 25 -->
      <g style="fill: #262626" transform="translate(306.282182 216.959365) scale(0.176 -0.176)">
       <use xlink:href="#ArialMT-32"/>
       <use xlink:href="#ArialMT-35" x="55.615234"/>
      </g>
     </g>
    </g>
    <g id="xtick_15">
     <g id="text_15">
      <!-- 26 -->
      <g style="fill: #262626" transform="translate(328.475364 216.959365) scale(0.176 -0.176)">
       <use xlink:href="#ArialMT-32"/>
       <use xlink:href="#ArialMT-36" x="55.615234"/>
      </g>
     </g>
    </g>
    <g id="xtick_16">
     <g id="text_16">
      <!-- 27 -->
      <g style="fill: #262626" transform="translate(350.668545 216.959365) scale(0.176 -0.176)">
       <use xlink:href="#ArialMT-32"/>
       <use xlink:href="#ArialMT-37" x="55.615234"/>
      </g>
     </g>
    </g>
    <g id="xtick_17">
     <g id="text_17">
      <!-- 28 -->
      <g style="fill: #262626" transform="translate(372.861727 216.959365) scale(0.176 -0.176)">
       <use xlink:href="#ArialMT-32"/>
       <use xlink:href="#ArialMT-38" x="55.615234"/>
      </g>
     </g>
    </g>
   </g>
   <g id="matplotlib.axis_2">
    <g id="ytick_1">
     <g id="line2d_3">
      <path d="M 49.75125 165.573101 
L 404.842159 165.573101 
" clip-path="url(#pbe75fbf417)" style="fill: none; stroke: #cccccc; stroke-width: 0.8; stroke-linecap: round"/>
     </g>
     <g id="text_18">
      <!-- 10.0 -->
      <g style="fill: #262626" transform="translate(7.2 171.871976) scale(0.176 -0.176)">
       <defs>
        <path id="ArialMT-2e" d="M 581 0 
L 581 641 
L 1222 641 
L 1222 0 
L 581 0 
z
" transform="scale(0.015625)"/>
       </defs>
       <use xlink:href="#ArialMT-31"/>
       <use xlink:href="#ArialMT-30" x="55.615234"/>
       <use xlink:href="#ArialMT-2e" x="111.230469"/>
       <use xlink:href="#ArialMT-30" x="139.013672"/>
      </g>
     </g>
    </g>
    <g id="ytick_2">
     <g id="line2d_4">
      <path d="M 49.75125 122.043406 
L 404.842159 122.043406 
" clip-path="url(#pbe75fbf417)" style="fill: none; stroke: #cccccc; stroke-width: 0.8; stroke-linecap: round"/>
     </g>
     <g id="text_19">
      <!-- 12.5 -->
      <g style="fill: #262626" transform="translate(7.2 128.342281) scale(0.176 -0.176)">
       <use xlink:href="#ArialMT-31"/>
       <use xlink:href="#ArialMT-32" x="55.615234"/>
       <use xlink:href="#ArialMT-2e" x="111.230469"/>
       <use xlink:href="#ArialMT-35" x="139.013672"/>
      </g>
     </g>
    </g>
    <g id="ytick_3">
     <g id="line2d_5">
      <path d="M 49.75125 78.513711 
L 404.842159 78.513711 
" clip-path="url(#pbe75fbf417)" style="fill: none; stroke: #cccccc; stroke-width: 0.8; stroke-linecap: round"/>
     </g>
     <g id="text_20">
      <!-- 15.0 -->
      <g style="fill: #262626" transform="translate(7.2 84.812586) scale(0.176 -0.176)">
       <use xlink:href="#ArialMT-31"/>
       <use xlink:href="#ArialMT-35" x="55.615234"/>
       <use xlink:href="#ArialMT-2e" x="111.230469"/>
       <use xlink:href="#ArialMT-30" x="139.013672"/>
      </g>
     </g>
    </g>
    <g id="ytick_4">
     <g id="line2d_6">
      <path d="M 49.75125 34.984016 
L 404.842159 34.984016 
" clip-path="url(#pbe75fbf417)" style="fill: none; stroke: #cccccc; stroke-width: 0.8; stroke-linecap: round"/>
     </g>
     <g id="text_21">
      <!-- 17.5 -->
      <g style="fill: #262626" transform="translate(7.2 41.282891) scale(0.176 -0.176)">
       <use xlink:href="#ArialMT-31"/>
       <use xlink:href="#ArialMT-37" x="55.615234"/>
       <use xlink:href="#ArialMT-2e" x="111.230469"/>
       <use xlink:href="#ArialMT-35" x="139.013672"/>
      </g>
     </g>
    </g>
   </g>
   <g id="line2d_7">
    <path d="M 49.75125 97.927955 
L 71.944432 102.193865 
L 94.137614 109.564893 
L 116.330795 138.323512 
L 138.523977 190.007769 
L 160.717159 174.627277 
L 182.910341 125.903039 
L 205.103523 98.798549 
L 227.296705 85.057675 
L 249.489886 82.387854 
" clip-path="url(#pbe75fbf417)" style="fill: none; stroke: #4c72b0; stroke-width: 1.2; stroke-linecap: round"/>
   </g>
   <g id="line2d_8">
    <path d="M 271.683068 34.930846 
L 293.87625 43.744387 
L 316.069432 48.659611 
L 338.262614 51.10882 
L 360.455795 52.774992 
L 382.648977 54.107133 
L 404.842159 54.214934 
" clip-path="url(#pbe75fbf417)" style="fill: none; stroke: #dd8452; stroke-width: 1.2; stroke-linecap: round"/>
   </g>
   <g id="patch_3">
    <path d="M 49.75125 197.761615 
L 49.75125 27.177 
" style="fill: none; stroke: #cccccc; stroke-linejoin: miter; stroke-linecap: square"/>
   </g>
   <g id="patch_4">
    <path d="M 404.842159 197.761615 
L 404.842159 27.177 
" style="fill: none; stroke: #cccccc; stroke-linejoin: miter; stroke-linecap: square"/>
   </g>
   <g id="patch_5">
    <path d="M 49.75125 197.761615 
L 404.842159 197.761615 
" style="fill: none; stroke: #cccccc; stroke-linejoin: miter; stroke-linecap: square"/>
   </g>
   <g id="patch_6">
    <path d="M 49.75125 27.177 
L 404.842159 27.177 
" style="fill: none; stroke: #cccccc; stroke-linejoin: miter; stroke-linecap: square"/>
   </g>
   <g id="text_22">
    <!-- Prediction for 10 + 7 days -->
    <g style="fill: #262626" transform="translate(118.173205 21.177) scale(0.192 -0.192)">
     <defs>
      <path id="ArialMT-50" d="M 494 0 
L 494 4581 
L 2222 4581 
Q 2678 4581 2919 4538 
Q 3256 4481 3484 4323 
Q 3713 4166 3852 3881 
Q 3991 3597 3991 3256 
Q 3991 2672 3619 2267 
Q 3247 1863 2275 1863 
L 1100 1863 
L 1100 0 
L 494 0 
z
M 1100 2403 
L 2284 2403 
Q 2872 2403 3119 2622 
Q 3366 2841 3366 3238 
Q 3366 3525 3220 3729 
Q 3075 3934 2838 4000 
Q 2684 4041 2272 4041 
L 1100 4041 
L 1100 2403 
z
" transform="scale(0.015625)"/>
      <path id="ArialMT-72" d="M 416 0 
L 416 3319 
L 922 3319 
L 922 2816 
Q 1116 3169 1280 3281 
Q 1444 3394 1641 3394 
Q 1925 3394 2219 3213 
L 2025 2691 
Q 1819 2813 1613 2813 
Q 1428 2813 1281 2702 
Q 1134 2591 1072 2394 
Q 978 2094 978 1738 
L 978 0 
L 416 0 
z
" transform="scale(0.015625)"/>
      <path id="ArialMT-65" d="M 2694 1069 
L 3275 997 
Q 3138 488 2766 206 
Q 2394 -75 1816 -75 
Q 1088 -75 661 373 
Q 234 822 234 1631 
Q 234 2469 665 2931 
Q 1097 3394 1784 3394 
Q 2450 3394 2872 2941 
Q 3294 2488 3294 1666 
Q 3294 1616 3291 1516 
L 816 1516 
Q 847 969 1125 678 
Q 1403 388 1819 388 
Q 2128 388 2347 550 
Q 2566 713 2694 1069 
z
M 847 1978 
L 2700 1978 
Q 2663 2397 2488 2606 
Q 2219 2931 1791 2931 
Q 1403 2931 1139 2672 
Q 875 2413 847 1978 
z
" transform="scale(0.015625)"/>
      <path id="ArialMT-64" d="M 2575 0 
L 2575 419 
Q 2259 -75 1647 -75 
Q 1250 -75 917 144 
Q 584 363 401 755 
Q 219 1147 219 1656 
Q 219 2153 384 2558 
Q 550 2963 881 3178 
Q 1213 3394 1622 3394 
Q 1922 3394 2156 3267 
Q 2391 3141 2538 2938 
L 2538 4581 
L 3097 4581 
L 3097 0 
L 2575 0 
z
M 797 1656 
Q 797 1019 1065 703 
Q 1334 388 1700 388 
Q 2069 388 2326 689 
Q 2584 991 2584 1609 
Q 2584 2291 2321 2609 
Q 2059 2928 1675 2928 
Q 1300 2928 1048 2622 
Q 797 2316 797 1656 
z
" transform="scale(0.015625)"/>
      <path id="ArialMT-69" d="M 425 3934 
L 425 4581 
L 988 4581 
L 988 3934 
L 425 3934 
z
M 425 0 
L 425 3319 
L 988 3319 
L 988 0 
L 425 0 
z
" transform="scale(0.015625)"/>
      <path id="ArialMT-63" d="M 2588 1216 
L 3141 1144 
Q 3050 572 2676 248 
Q 2303 -75 1759 -75 
Q 1078 -75 664 370 
Q 250 816 250 1647 
Q 250 2184 428 2587 
Q 606 2991 970 3192 
Q 1334 3394 1763 3394 
Q 2303 3394 2647 3120 
Q 2991 2847 3088 2344 
L 2541 2259 
Q 2463 2594 2264 2762 
Q 2066 2931 1784 2931 
Q 1359 2931 1093 2626 
Q 828 2322 828 1663 
Q 828 994 1084 691 
Q 1341 388 1753 388 
Q 2084 388 2306 591 
Q 2528 794 2588 1216 
z
" transform="scale(0.015625)"/>
      <path id="ArialMT-74" d="M 1650 503 
L 1731 6 
Q 1494 -44 1306 -44 
Q 1000 -44 831 53 
Q 663 150 594 308 
Q 525 466 525 972 
L 525 2881 
L 113 2881 
L 113 3319 
L 525 3319 
L 525 4141 
L 1084 4478 
L 1084 3319 
L 1650 3319 
L 1650 2881 
L 1084 2881 
L 1084 941 
Q 1084 700 1114 631 
Q 1144 563 1211 522 
Q 1278 481 1403 481 
Q 1497 481 1650 503 
z
" transform="scale(0.015625)"/>
      <path id="ArialMT-6f" d="M 213 1659 
Q 213 2581 725 3025 
Q 1153 3394 1769 3394 
Q 2453 3394 2887 2945 
Q 3322 2497 3322 1706 
Q 3322 1066 3130 698 
Q 2938 331 2570 128 
Q 2203 -75 1769 -75 
Q 1072 -75 642 372 
Q 213 819 213 1659 
z
M 791 1659 
Q 791 1022 1069 705 
Q 1347 388 1769 388 
Q 2188 388 2466 706 
Q 2744 1025 2744 1678 
Q 2744 2294 2464 2611 
Q 2184 2928 1769 2928 
Q 1347 2928 1069 2612 
Q 791 2297 791 1659 
z
" transform="scale(0.015625)"/>
      <path id="ArialMT-6e" d="M 422 0 
L 422 3319 
L 928 3319 
L 928 2847 
Q 1294 3394 1984 3394 
Q 2284 3394 2536 3286 
Q 2788 3178 2913 3003 
Q 3038 2828 3088 2588 
Q 3119 2431 3119 2041 
L 3119 0 
L 2556 0 
L 2556 2019 
Q 2556 2363 2490 2533 
Q 2425 2703 2258 2804 
Q 2091 2906 1866 2906 
Q 1506 2906 1245 2678 
Q 984 2450 984 1813 
L 984 0 
L 422 0 
z
" transform="scale(0.015625)"/>
      <path id="ArialMT-20" transform="scale(0.015625)"/>
      <path id="ArialMT-66" d="M 556 0 
L 556 2881 
L 59 2881 
L 59 3319 
L 556 3319 
L 556 3672 
Q 556 4006 616 4169 
Q 697 4388 901 4523 
Q 1106 4659 1475 4659 
Q 1713 4659 2000 4603 
L 1916 4113 
Q 1741 4144 1584 4144 
Q 1328 4144 1222 4034 
Q 1116 3925 1116 3625 
L 1116 3319 
L 1763 3319 
L 1763 2881 
L 1116 2881 
L 1116 0 
L 556 0 
z
" transform="scale(0.015625)"/>
      <path id="ArialMT-2b" d="M 1603 741 
L 1603 1997 
L 356 1997 
L 356 2522 
L 1603 2522 
L 1603 3769 
L 2134 3769 
L 2134 2522 
L 3381 2522 
L 3381 1997 
L 2134 1997 
L 2134 741 
L 1603 741 
z
" transform="scale(0.015625)"/>
      <path id="ArialMT-73" d="M 197 991 
L 753 1078 
Q 800 744 1014 566 
Q 1228 388 1613 388 
Q 2000 388 2187 545 
Q 2375 703 2375 916 
Q 2375 1106 2209 1216 
Q 2094 1291 1634 1406 
Q 1016 1563 777 1677 
Q 538 1791 414 1992 
Q 291 2194 291 2438 
Q 291 2659 392 2848 
Q 494 3038 669 3163 
Q 800 3259 1026 3326 
Q 1253 3394 1513 3394 
Q 1903 3394 2198 3281 
Q 2494 3169 2634 2976 
Q 2775 2784 2828 2463 
L 2278 2388 
Q 2241 2644 2061 2787 
Q 1881 2931 1553 2931 
Q 1166 2931 1000 2803 
Q 834 2675 834 2503 
Q 834 2394 903 2306 
Q 972 2216 1119 2156 
Q 1203 2125 1616 2013 
Q 2213 1853 2448 1751 
Q 2684 1650 2818 1456 
Q 2953 1263 2953 975 
Q 2953 694 2789 445 
Q 2625 197 2315 61 
Q 2006 -75 1616 -75 
Q 969 -75 630 194 
Q 291 463 197 991 
z
" transform="scale(0.015625)"/>
     </defs>
     <use xlink:href="#ArialMT-50"/>
     <use xlink:href="#ArialMT-72" x="66.699219"/>
     <use xlink:href="#ArialMT-65" x="100"/>
     <use xlink:href="#ArialMT-64" x="155.615234"/>
     <use xlink:href="#ArialMT-69" x="211.230469"/>
     <use xlink:href="#ArialMT-63" x="233.447266"/>
     <use xlink:href="#ArialMT-74" x="283.447266"/>
     <use xlink:href="#ArialMT-69" x="311.230469"/>
     <use xlink:href="#ArialMT-6f" x="333.447266"/>
     <use xlink:href="#ArialMT-6e" x="389.0625"/>
     <use xlink:href="#ArialMT-20" x="444.677734"/>
     <use xlink:href="#ArialMT-66" x="472.460938"/>
     <use xlink:href="#ArialMT-6f" x="500.244141"/>
     <use xlink:href="#ArialMT-72" x="555.859375"/>
     <use xlink:href="#ArialMT-20" x="589.160156"/>
     <use xlink:href="#ArialMT-31" x="616.943359"/>
     <use xlink:href="#ArialMT-30" x="672.558594"/>
     <use xlink:href="#ArialMT-20" x="728.173828"/>
     <use xlink:href="#ArialMT-2b" x="755.957031"/>
     <use xlink:href="#ArialMT-20" x="814.355469"/>
     <use xlink:href="#ArialMT-37" x="842.138672"/>
     <use xlink:href="#ArialMT-20" x="897.753906"/>
     <use xlink:href="#ArialMT-64" x="925.537109"/>
     <use xlink:href="#ArialMT-61" x="981.152344"/>
     <use xlink:href="#ArialMT-79" x="1036.767578"/>
     <use xlink:href="#ArialMT-73" x="1086.767578"/>
    </g>
   </g>
  </g>
  <g id="axes_2">
   <g id="patch_7">
    <path d="M 475.860341 197.761615 
L 830.95125 197.761615 
L 830.95125 27.177 
L 475.860341 27.177 
z
" style="fill: #ffffff"/>
   </g>
   <g id="matplotlib.axis_3">
    <g id="xtick_18">
     <g id="line2d_9">
      <path d="M 475.860341 197.761615 
L 475.860341 27.177 
" clip-path="url(#p8ad0990e15)" style="fill: none; stroke: #cccccc; stroke-width: 0.8; stroke-linecap: round"/>
     </g>
    </g>
    <g id="xtick_19">
     <g id="line2d_10">
      <path d="M 648.853348 197.761615 
L 648.853348 27.177 
" clip-path="url(#p8ad0990e15)" style="fill: none; stroke: #cccccc; stroke-width: 0.8; stroke-linecap: round"/>
     </g>
     <g id="text_23">
      <!--  -->
      <g style="fill: #262626" transform="translate(648.853348 218.659365) scale(0.176 -0.176)"/>
      <!--  -->
      <g style="fill: #262626" transform="translate(648.853348 237.274665) scale(0.176 -0.176)"/>
      <!-- Jun -->
      <g style="fill: #262626" transform="translate(634.666098 255.889965) scale(0.176 -0.176)">
       <defs>
        <path id="ArialMT-4a" d="M 184 1300 
L 731 1375 
Q 753 850 928 656 
Q 1103 463 1413 463 
Q 1641 463 1806 567 
Q 1972 672 2034 851 
Q 2097 1031 2097 1425 
L 2097 4581 
L 2703 4581 
L 2703 1459 
Q 2703 884 2564 568 
Q 2425 253 2123 87 
Q 1822 -78 1416 -78 
Q 813 -78 492 269 
Q 172 616 184 1300 
z
" transform="scale(0.015625)"/>
        <path id="ArialMT-75" d="M 2597 0 
L 2597 488 
Q 2209 -75 1544 -75 
Q 1250 -75 995 37 
Q 741 150 617 320 
Q 494 491 444 738 
Q 409 903 409 1263 
L 409 3319 
L 972 3319 
L 972 1478 
Q 972 1038 1006 884 
Q 1059 663 1231 536 
Q 1403 409 1656 409 
Q 1909 409 2131 539 
Q 2353 669 2445 892 
Q 2538 1116 2538 1541 
L 2538 3319 
L 3100 3319 
L 3100 0 
L 2597 0 
z
" transform="scale(0.015625)"/>
       </defs>
       <use xlink:href="#ArialMT-4a"/>
       <use xlink:href="#ArialMT-75" x="50"/>
       <use xlink:href="#ArialMT-6e" x="105.615234"/>
      </g>
      <!-- 2023 -->
      <g style="fill: #262626" transform="translate(629.278848 274.505265) scale(0.176 -0.176)">
       <use xlink:href="#ArialMT-32"/>
       <use xlink:href="#ArialMT-30" x="55.615234"/>
       <use xlink:href="#ArialMT-32" x="111.230469"/>
       <use xlink:href="#ArialMT-33" x="166.845703"/>
      </g>
     </g>
    </g>
    <g id="xtick_20">
     <g id="line2d_11">
      <path d="M 830.95125 197.761615 
L 830.95125 27.177 
" clip-path="url(#p8ad0990e15)" style="fill: none; stroke: #cccccc; stroke-width: 0.8; stroke-linecap: round"/>
     </g>
    </g>
    <g id="xtick_21"/>
    <g id="xtick_22">
     <g id="text_24">
      <!-- 15 -->
      <g style="fill: #262626" transform="translate(484.282881 216.959365) scale(0.176 -0.176)">
       <use xlink:href="#ArialMT-31"/>
       <use xlink:href="#ArialMT-35" x="55.615234"/>
      </g>
     </g>
    </g>
    <g id="xtick_23"/>
    <g id="xtick_24"/>
    <g id="xtick_25"/>
    <g id="xtick_26"/>
    <g id="xtick_27"/>
    <g id="xtick_28"/>
    <g id="xtick_29">
     <g id="text_25">
      <!-- 22 -->
      <g style="fill: #262626" transform="translate(548.017147 216.959365) scale(0.176 -0.176)">
       <use xlink:href="#ArialMT-32"/>
       <use xlink:href="#ArialMT-32" x="55.615234"/>
      </g>
     </g>
    </g>
    <g id="xtick_30"/>
    <g id="xtick_31"/>
    <g id="xtick_32"/>
    <g id="xtick_33"/>
    <g id="xtick_34"/>
    <g id="xtick_35"/>
    <g id="xtick_36">
     <g id="text_26">
      <!-- 29 -->
      <g style="fill: #262626" transform="translate(611.751413 216.959365) scale(0.176 -0.176)">
       <use xlink:href="#ArialMT-32"/>
       <use xlink:href="#ArialMT-39" x="55.615234"/>
      </g>
     </g>
    </g>
    <g id="xtick_37"/>
    <g id="xtick_38"/>
    <g id="xtick_39"/>
    <g id="xtick_40"/>
    <g id="xtick_41"/>
    <g id="xtick_42">
     <g id="text_27">
      <!-- 05 -->
      <g style="fill: #262626" transform="translate(675.485678 216.959365) scale(0.176 -0.176)">
       <use xlink:href="#ArialMT-30"/>
       <use xlink:href="#ArialMT-35" x="55.615234"/>
      </g>
     </g>
    </g>
    <g id="xtick_43"/>
    <g id="xtick_44"/>
    <g id="xtick_45"/>
    <g id="xtick_46"/>
    <g id="xtick_47"/>
    <g id="xtick_48"/>
    <g id="xtick_49">
     <g id="text_28">
      <!-- 12 -->
      <g style="fill: #262626" transform="translate(739.219944 216.959365) scale(0.176 -0.176)">
       <use xlink:href="#ArialMT-31"/>
       <use xlink:href="#ArialMT-32" x="55.615234"/>
      </g>
     </g>
    </g>
    <g id="xtick_50"/>
    <g id="xtick_51"/>
    <g id="xtick_52"/>
    <g id="xtick_53"/>
    <g id="xtick_54"/>
    <g id="xtick_55"/>
    <g id="xtick_56">
     <g id="text_29">
      <!-- 19 -->
      <g style="fill: #262626" transform="translate(802.95421 216.959365) scale(0.176 -0.176)">
       <use xlink:href="#ArialMT-31"/>
       <use xlink:href="#ArialMT-39" x="55.615234"/>
      </g>
     </g>
    </g>
    <g id="xtick_57"/>
   </g>
   <g id="matplotlib.axis_4">
    <g id="ytick_5">
     <g id="line2d_12">
      <path d="M 475.860341 165.573101 
L 830.95125 165.573101 
" clip-path="url(#p8ad0990e15)" style="fill: none; stroke: #cccccc; stroke-width: 0.8; stroke-linecap: round"/>
     </g>
     <g id="text_30">
      <!-- 10.0 -->
      <g style="fill: #262626" transform="translate(433.309091 171.871976) scale(0.176 -0.176)">
       <use xlink:href="#ArialMT-31"/>
       <use xlink:href="#ArialMT-30" x="55.615234"/>
       <use xlink:href="#ArialMT-2e" x="111.230469"/>
       <use xlink:href="#ArialMT-30" x="139.013672"/>
      </g>
     </g>
    </g>
    <g id="ytick_6">
     <g id="line2d_13">
      <path d="M 475.860341 122.043406 
L 830.95125 122.043406 
" clip-path="url(#p8ad0990e15)" style="fill: none; stroke: #cccccc; stroke-width: 0.8; stroke-linecap: round"/>
     </g>
     <g id="text_31">
      <!-- 12.5 -->
      <g style="fill: #262626" transform="translate(433.309091 128.342281) scale(0.176 -0.176)">
       <use xlink:href="#ArialMT-31"/>
       <use xlink:href="#ArialMT-32" x="55.615234"/>
       <use xlink:href="#ArialMT-2e" x="111.230469"/>
       <use xlink:href="#ArialMT-35" x="139.013672"/>
      </g>
     </g>
    </g>
    <g id="ytick_7">
     <g id="line2d_14">
      <path d="M 475.860341 78.513711 
L 830.95125 78.513711 
" clip-path="url(#p8ad0990e15)" style="fill: none; stroke: #cccccc; stroke-width: 0.8; stroke-linecap: round"/>
     </g>
     <g id="text_32">
      <!-- 15.0 -->
      <g style="fill: #262626" transform="translate(433.309091 84.812586) scale(0.176 -0.176)">
       <use xlink:href="#ArialMT-31"/>
       <use xlink:href="#ArialMT-35" x="55.615234"/>
       <use xlink:href="#ArialMT-2e" x="111.230469"/>
       <use xlink:href="#ArialMT-30" x="139.013672"/>
      </g>
     </g>
    </g>
    <g id="ytick_8">
     <g id="line2d_15">
      <path d="M 475.860341 34.984016 
L 830.95125 34.984016 
" clip-path="url(#p8ad0990e15)" style="fill: none; stroke: #cccccc; stroke-width: 0.8; stroke-linecap: round"/>
     </g>
     <g id="text_33">
      <!-- 17.5 -->
      <g style="fill: #262626" transform="translate(433.309091 41.282891) scale(0.176 -0.176)">
       <use xlink:href="#ArialMT-31"/>
       <use xlink:href="#ArialMT-37" x="55.615234"/>
       <use xlink:href="#ArialMT-2e" x="111.230469"/>
       <use xlink:href="#ArialMT-35" x="139.013672"/>
      </g>
     </g>
    </g>
   </g>
   <g id="line2d_16">
    <path d="M 475.860341 97.927955 
L 484.965236 102.193865 
L 494.070131 109.564893 
L 503.175026 138.323512 
L 512.279921 190.007769 
L 521.384816 174.627277 
L 530.489712 125.903039 
L 539.594607 98.798549 
L 548.699502 85.057675 
L 557.804397 82.387854 
" clip-path="url(#p8ad0990e15)" style="fill: none; stroke: #4c72b0; stroke-width: 1.2; stroke-linecap: round"/>
   </g>
   <g id="line2d_17">
    <path d="M 566.909292 34.930846 
L 576.014187 43.744387 
L 585.119082 48.659611 
L 594.223977 51.10882 
L 603.328872 52.774992 
L 612.433767 54.107133 
L 621.538663 54.214934 
L 630.643558 53.884954 
L 639.748453 53.69147 
L 648.853348 53.103311 
L 657.958243 52.936462 
L 667.063138 52.986543 
L 676.168033 52.932941 
L 685.272928 52.35189 
L 694.377823 51.346541 
L 703.482719 50.014866 
L 712.587614 48.193734 
L 721.692509 46.874678 
L 730.797404 46.286321 
L 739.902299 45.623306 
L 749.007194 44.763685 
L 758.112089 43.619914 
L 767.216984 42.467974 
L 776.321879 41.188505 
L 785.426774 40.41935 
L 794.53167 39.414599 
L 803.636565 38.143034 
L 812.74146 36.979338 
L 821.846355 36.519638 
L 830.95125 36.169067 
" clip-path="url(#p8ad0990e15)" style="fill: none; stroke: #dd8452; stroke-width: 1.2; stroke-linecap: round"/>
   </g>
   <g id="patch_8">
    <path d="M 475.860341 197.761615 
L 475.860341 27.177 
" style="fill: none; stroke: #cccccc; stroke-linejoin: miter; stroke-linecap: square"/>
   </g>
   <g id="patch_9">
    <path d="M 830.95125 197.761615 
L 830.95125 27.177 
" style="fill: none; stroke: #cccccc; stroke-linejoin: miter; stroke-linecap: square"/>
   </g>
   <g id="patch_10">
    <path d="M 475.860341 197.761615 
L 830.95125 197.761615 
" style="fill: none; stroke: #cccccc; stroke-linejoin: miter; stroke-linecap: square"/>
   </g>
   <g id="patch_11">
    <path d="M 475.860341 27.177 
L 830.95125 27.177 
" style="fill: none; stroke: #cccccc; stroke-linejoin: miter; stroke-linecap: square"/>
   </g>
   <g id="text_34">
    <!-- Prediction for 10 + 30 days -->
    <g style="fill: #262626" transform="translate(538.943795 21.177) scale(0.192 -0.192)">
     <use xlink:href="#ArialMT-50"/>
     <use xlink:href="#ArialMT-72" x="66.699219"/>
     <use xlink:href="#ArialMT-65" x="100"/>
     <use xlink:href="#ArialMT-64" x="155.615234"/>
     <use xlink:href="#ArialMT-69" x="211.230469"/>
     <use xlink:href="#ArialMT-63" x="233.447266"/>
     <use xlink:href="#ArialMT-74" x="283.447266"/>
     <use xlink:href="#ArialMT-69" x="311.230469"/>
     <use xlink:href="#ArialMT-6f" x="333.447266"/>
     <use xlink:href="#ArialMT-6e" x="389.0625"/>
     <use xlink:href="#ArialMT-20" x="444.677734"/>
     <use xlink:href="#ArialMT-66" x="472.460938"/>
     <use xlink:href="#ArialMT-6f" x="500.244141"/>
     <use xlink:href="#ArialMT-72" x="555.859375"/>
     <use xlink:href="#ArialMT-20" x="589.160156"/>
     <use xlink:href="#ArialMT-31" x="616.943359"/>
     <use xlink:href="#ArialMT-30" x="672.558594"/>
     <use xlink:href="#ArialMT-20" x="728.173828"/>
     <use xlink:href="#ArialMT-2b" x="755.957031"/>
     <use xlink:href="#ArialMT-20" x="814.355469"/>
     <use xlink:href="#ArialMT-33" x="842.138672"/>
     <use xlink:href="#ArialMT-30" x="897.753906"/>
     <use xlink:href="#ArialMT-20" x="953.369141"/>
     <use xlink:href="#ArialMT-64" x="981.152344"/>
     <use xlink:href="#ArialMT-61" x="1036.767578"/>
     <use xlink:href="#ArialMT-79" x="1092.382812"/>
     <use xlink:href="#ArialMT-73" x="1142.382812"/>
    </g>
   </g>
  </g>
  <g id="axes_3">
   <g id="patch_12">
    <path d="M 49.75125 470.697 
L 404.842159 470.697 
L 404.842159 300.112385 
L 49.75125 300.112385 
z
" style="fill: #ffffff"/>
   </g>
   <g id="matplotlib.axis_5">
    <g id="xtick_58">
     <g id="line2d_18">
      <path d="M 49.75125 470.697 
L 49.75125 300.112385 
" clip-path="url(#p1c5d83f99d)" style="fill: none; stroke: #cccccc; stroke-width: 0.8; stroke-linecap: round"/>
     </g>
    </g>
    <g id="xtick_59">
     <g id="line2d_19">
      <path d="M 117.90001 470.697 
L 117.90001 300.112385 
" clip-path="url(#p1c5d83f99d)" style="fill: none; stroke: #cccccc; stroke-width: 0.8; stroke-linecap: round"/>
     </g>
     <g id="text_35">
      <!-- Jun -->
      <g style="fill: #262626" transform="translate(103.71276 491.59475) scale(0.176 -0.176)">
       <use xlink:href="#ArialMT-4a"/>
       <use xlink:href="#ArialMT-75" x="50"/>
       <use xlink:href="#ArialMT-6e" x="105.615234"/>
      </g>
      <!-- 2023 -->
      <g style="fill: #262626" transform="translate(98.32551 510.21005) scale(0.176 -0.176)">
       <use xlink:href="#ArialMT-32"/>
       <use xlink:href="#ArialMT-30" x="55.615234"/>
       <use xlink:href="#ArialMT-32" x="111.230469"/>
       <use xlink:href="#ArialMT-33" x="166.845703"/>
      </g>
     </g>
    </g>
    <g id="xtick_60">
     <g id="line2d_20">
      <path d="M 225.503316 470.697 
L 225.503316 300.112385 
" clip-path="url(#p1c5d83f99d)" style="fill: none; stroke: #cccccc; stroke-width: 0.8; stroke-linecap: round"/>
     </g>
     <g id="text_36">
      <!-- Jul -->
      <g style="fill: #262626" transform="translate(214.254441 491.59475) scale(0.176 -0.176)">
       <defs>
        <path id="ArialMT-6c" d="M 409 0 
L 409 4581 
L 972 4581 
L 972 0 
L 409 0 
z
" transform="scale(0.015625)"/>
       </defs>
       <use xlink:href="#ArialMT-4a"/>
       <use xlink:href="#ArialMT-75" x="50"/>
       <use xlink:href="#ArialMT-6c" x="105.615234"/>
      </g>
     </g>
    </g>
    <g id="xtick_61">
     <g id="line2d_21">
      <path d="M 336.693399 470.697 
L 336.693399 300.112385 
" clip-path="url(#p1c5d83f99d)" style="fill: none; stroke: #cccccc; stroke-width: 0.8; stroke-linecap: round"/>
     </g>
     <g id="text_37">
      <!-- Aug -->
      <g style="fill: #262626" transform="translate(321.036274 491.59475) scale(0.176 -0.176)">
       <defs>
        <path id="ArialMT-41" d="M -9 0 
L 1750 4581 
L 2403 4581 
L 4278 0 
L 3588 0 
L 3053 1388 
L 1138 1388 
L 634 0 
L -9 0 
z
M 1313 1881 
L 2866 1881 
L 2388 3150 
Q 2169 3728 2063 4100 
Q 1975 3659 1816 3225 
L 1313 1881 
z
" transform="scale(0.015625)"/>
        <path id="ArialMT-67" d="M 319 -275 
L 866 -356 
Q 900 -609 1056 -725 
Q 1266 -881 1628 -881 
Q 2019 -881 2231 -725 
Q 2444 -569 2519 -288 
Q 2563 -116 2559 434 
Q 2191 0 1641 0 
Q 956 0 581 494 
Q 206 988 206 1678 
Q 206 2153 378 2554 
Q 550 2956 876 3175 
Q 1203 3394 1644 3394 
Q 2231 3394 2613 2919 
L 2613 3319 
L 3131 3319 
L 3131 450 
Q 3131 -325 2973 -648 
Q 2816 -972 2473 -1159 
Q 2131 -1347 1631 -1347 
Q 1038 -1347 672 -1080 
Q 306 -813 319 -275 
z
M 784 1719 
Q 784 1066 1043 766 
Q 1303 466 1694 466 
Q 2081 466 2343 764 
Q 2606 1063 2606 1700 
Q 2606 2309 2336 2618 
Q 2066 2928 1684 2928 
Q 1309 2928 1046 2623 
Q 784 2319 784 1719 
z
" transform="scale(0.015625)"/>
       </defs>
       <use xlink:href="#ArialMT-41"/>
       <use xlink:href="#ArialMT-75" x="66.699219"/>
       <use xlink:href="#ArialMT-67" x="122.314453"/>
      </g>
     </g>
    </g>
    <g id="xtick_62">
     <g id="line2d_22">
      <path d="M 404.842159 470.697 
L 404.842159 300.112385 
" clip-path="url(#p1c5d83f99d)" style="fill: none; stroke: #cccccc; stroke-width: 0.8; stroke-linecap: round"/>
     </g>
    </g>
    <g id="xtick_63"/>
    <g id="xtick_64"/>
    <g id="xtick_65"/>
    <g id="xtick_66"/>
    <g id="xtick_67"/>
    <g id="xtick_68"/>
    <g id="xtick_69"/>
    <g id="xtick_70"/>
    <g id="xtick_71"/>
    <g id="xtick_72"/>
    <g id="xtick_73"/>
    <g id="xtick_74"/>
    <g id="xtick_75"/>
    <g id="xtick_76"/>
   </g>
   <g id="matplotlib.axis_6">
    <g id="ytick_9">
     <g id="line2d_23">
      <path d="M 49.75125 443.749675 
L 404.842159 443.749675 
" clip-path="url(#p1c5d83f99d)" style="fill: none; stroke: #cccccc; stroke-width: 0.8; stroke-linecap: round"/>
     </g>
     <g id="text_38">
      <!-- 10 -->
      <g style="fill: #262626" transform="translate(21.87675 450.04855) scale(0.176 -0.176)">
       <use xlink:href="#ArialMT-31"/>
       <use xlink:href="#ArialMT-30" x="55.615234"/>
      </g>
     </g>
    </g>
    <g id="ytick_10">
     <g id="line2d_24">
      <path d="M 49.75125 375.364358 
L 404.842159 375.364358 
" clip-path="url(#p1c5d83f99d)" style="fill: none; stroke: #cccccc; stroke-width: 0.8; stroke-linecap: round"/>
     </g>
     <g id="text_39">
      <!-- 15 -->
      <g style="fill: #262626" transform="translate(21.87675 381.663233) scale(0.176 -0.176)">
       <use xlink:href="#ArialMT-31"/>
       <use xlink:href="#ArialMT-35" x="55.615234"/>
      </g>
     </g>
    </g>
    <g id="ytick_11">
     <g id="line2d_25">
      <path d="M 49.75125 306.97904 
L 404.842159 306.97904 
" clip-path="url(#p1c5d83f99d)" style="fill: none; stroke: #cccccc; stroke-width: 0.8; stroke-linecap: round"/>
     </g>
     <g id="text_40">
      <!-- 20 -->
      <g style="fill: #262626" transform="translate(21.87675 313.277915) scale(0.176 -0.176)">
       <use xlink:href="#ArialMT-32"/>
       <use xlink:href="#ArialMT-30" x="55.615234"/>
      </g>
     </g>
    </g>
   </g>
   <g id="line2d_26">
    <path d="M 49.75125 390.614283 
L 53.338027 393.965164 
L 56.924804 399.755121 
L 60.511581 422.345071 
L 64.098357 462.943154 
L 67.685134 450.861748 
L 71.271911 412.588765 
L 74.858688 391.298137 
L 78.445465 380.504654 
L 82.032242 378.407504 
" clip-path="url(#p1c5d83f99d)" style="fill: none; stroke: #4c72b0; stroke-width: 1.2; stroke-linecap: round"/>
   </g>
   <g id="line2d_27">
    <path d="M 85.619019 341.129934 
L 89.205795 348.052987 
L 92.792572 351.913905 
L 96.379349 353.837764 
L 99.966126 355.146545 
L 103.552903 356.192944 
L 107.13968 356.277622 
L 110.726457 356.018422 
L 114.313233 355.86644 
L 117.90001 355.40444 
L 121.486787 355.273379 
L 125.073564 355.312718 
L 128.660341 355.270614 
L 132.247118 354.814197 
L 135.833895 354.024494 
L 139.420671 352.97846 
L 143.007448 351.547957 
L 146.594225 350.511837 
L 150.181002 350.049681 
L 153.767779 349.528881 
L 157.354556 348.853647 
L 160.941333 347.955213 
L 164.52811 347.050362 
L 168.114886 346.045337 
L 171.701663 345.441164 
L 175.28844 344.65193 
L 178.875217 343.653114 
L 182.461994 342.739028 
L 186.048771 342.377933 
L 189.635548 342.102559 
L 193.222324 341.932837 
L 196.809101 341.379481 
L 200.395878 340.039239 
L 203.982655 338.030442 
L 207.569432 336.380965 
L 211.156209 334.622863 
L 214.742986 333.212447 
L 218.329762 332.025283 
L 221.916539 330.462571 
L 225.503316 329.127025 
L 229.090093 327.962035 
L 232.67687 326.598367 
L 236.263647 325.818263 
L 239.850424 325.574612 
L 243.4372 324.81783 
L 247.023977 323.86717 
L 250.610754 322.622354 
L 254.197531 321.868181 
L 257.784308 321.789503 
L 261.371085 321.205364 
L 264.957862 320.461208 
L 268.544638 319.529331 
L 272.131415 318.380828 
L 275.718192 317.582412 
L 279.304969 316.481543 
L 282.891746 315.176205 
L 286.478523 314.27245 
L 290.0653 313.476851 
L 293.652076 312.59746 
L 297.238853 310.935462 
L 300.82563 309.440994 
L 304.412407 308.506091 
L 307.999184 308.18877 
L 311.585961 308.697308 
L 315.172738 309.335081 
L 318.759514 308.93423 
L 322.346291 308.443013 
L 325.933068 307.991187 
L 329.519845 307.866231 
L 333.106622 308.280439 
L 336.693399 308.646804 
L 340.280176 308.604126 
L 343.866952 309.084177 
L 347.453729 309.937846 
L 351.040506 310.628523 
L 354.627283 310.961654 
L 358.21406 311.193201 
L 361.800837 311.779009 
L 365.387614 312.782417 
L 368.97439 313.936137 
L 372.561167 315.326518 
L 376.147944 316.476013 
L 379.734721 317.073873 
L 383.321498 317.743577 
L 386.908275 319.134062 
L 390.495052 320.589191 
L 394.081829 321.823833 
L 397.668605 323.207275 
L 401.255382 324.576108 
L 404.842159 326.354037 
" clip-path="url(#p1c5d83f99d)" style="fill: none; stroke: #dd8452; stroke-width: 1.2; stroke-linecap: round"/>
   </g>
   <g id="patch_13">
    <path d="M 49.75125 470.697 
L 49.75125 300.112385 
" style="fill: none; stroke: #cccccc; stroke-linejoin: miter; stroke-linecap: square"/>
   </g>
   <g id="patch_14">
    <path d="M 404.842159 470.697 
L 404.842159 300.112385 
" style="fill: none; stroke: #cccccc; stroke-linejoin: miter; stroke-linecap: square"/>
   </g>
   <g id="patch_15">
    <path d="M 49.75125 470.697 
L 404.842159 470.697 
" style="fill: none; stroke: #cccccc; stroke-linejoin: miter; stroke-linecap: square"/>
   </g>
   <g id="patch_16">
    <path d="M 49.75125 300.112385 
L 404.842159 300.112385 
" style="fill: none; stroke: #cccccc; stroke-linejoin: miter; stroke-linecap: square"/>
   </g>
   <g id="text_41">
    <!-- Prediction for 10 + 90 days -->
    <g style="fill: #262626" transform="translate(112.834705 294.112385) scale(0.192 -0.192)">
     <use xlink:href="#ArialMT-50"/>
     <use xlink:href="#ArialMT-72" x="66.699219"/>
     <use xlink:href="#ArialMT-65" x="100"/>
     <use xlink:href="#ArialMT-64" x="155.615234"/>
     <use xlink:href="#ArialMT-69" x="211.230469"/>
     <use xlink:href="#ArialMT-63" x="233.447266"/>
     <use xlink:href="#ArialMT-74" x="283.447266"/>
     <use xlink:href="#ArialMT-69" x="311.230469"/>
     <use xlink:href="#ArialMT-6f" x="333.447266"/>
     <use xlink:href="#ArialMT-6e" x="389.0625"/>
     <use xlink:href="#ArialMT-20" x="444.677734"/>
     <use xlink:href="#ArialMT-66" x="472.460938"/>
     <use xlink:href="#ArialMT-6f" x="500.244141"/>
     <use xlink:href="#ArialMT-72" x="555.859375"/>
     <use xlink:href="#ArialMT-20" x="589.160156"/>
     <use xlink:href="#ArialMT-31" x="616.943359"/>
     <use xlink:href="#ArialMT-30" x="672.558594"/>
     <use xlink:href="#ArialMT-20" x="728.173828"/>
     <use xlink:href="#ArialMT-2b" x="755.957031"/>
     <use xlink:href="#ArialMT-20" x="814.355469"/>
     <use xlink:href="#ArialMT-39" x="842.138672"/>
     <use xlink:href="#ArialMT-30" x="897.753906"/>
     <use xlink:href="#ArialMT-20" x="953.369141"/>
     <use xlink:href="#ArialMT-64" x="981.152344"/>
     <use xlink:href="#ArialMT-61" x="1036.767578"/>
     <use xlink:href="#ArialMT-79" x="1092.382812"/>
     <use xlink:href="#ArialMT-73" x="1142.382812"/>
    </g>
   </g>
  </g>
  <g id="axes_4">
   <g id="patch_17">
    <path d="M 475.860341 470.697 
L 830.95125 470.697 
L 830.95125 300.112385 
L 475.860341 300.112385 
z
" style="fill: #ffffff"/>
   </g>
   <g id="matplotlib.axis_7">
    <g id="xtick_77">
     <g id="line2d_28">
      <path d="M 475.860341 470.697 
L 475.860341 300.112385 
" clip-path="url(#p8ba2a67cc7)" style="fill: none; stroke: #cccccc; stroke-width: 0.8; stroke-linecap: round"/>
     </g>
    </g>
    <g id="xtick_78">
     <g id="line2d_29">
      <path d="M 493.899719 470.697 
L 493.899719 300.112385 
" clip-path="url(#p8ba2a67cc7)" style="fill: none; stroke: #cccccc; stroke-width: 0.8; stroke-linecap: round"/>
     </g>
     <g id="text_42">
      <!-- Jun -->
      <g style="fill: #262626" transform="translate(479.712469 491.59475) scale(0.176 -0.176)">
       <use xlink:href="#ArialMT-4a"/>
       <use xlink:href="#ArialMT-75" x="50"/>
       <use xlink:href="#ArialMT-6e" x="105.615234"/>
      </g>
     </g>
    </g>
    <g id="xtick_79">
     <g id="line2d_30">
      <path d="M 522.382947 470.697 
L 522.382947 300.112385 
" clip-path="url(#p8ba2a67cc7)" style="fill: none; stroke: #cccccc; stroke-width: 0.8; stroke-linecap: round"/>
     </g>
     <g id="text_43">
      <!-- Jul -->
      <g style="fill: #262626" transform="translate(511.134072 491.59475) scale(0.176 -0.176)">
       <use xlink:href="#ArialMT-4a"/>
       <use xlink:href="#ArialMT-75" x="50"/>
       <use xlink:href="#ArialMT-6c" x="105.615234"/>
      </g>
     </g>
    </g>
    <g id="xtick_80">
     <g id="line2d_31">
      <path d="M 551.815616 470.697 
L 551.815616 300.112385 
" clip-path="url(#p8ba2a67cc7)" style="fill: none; stroke: #cccccc; stroke-width: 0.8; stroke-linecap: round"/>
     </g>
     <g id="text_44">
      <!-- Aug -->
      <g style="fill: #262626" transform="translate(536.158491 491.59475) scale(0.176 -0.176)">
       <use xlink:href="#ArialMT-41"/>
       <use xlink:href="#ArialMT-75" x="66.699219"/>
       <use xlink:href="#ArialMT-67" x="122.314453"/>
      </g>
     </g>
    </g>
    <g id="xtick_81">
     <g id="line2d_32">
      <path d="M 581.248285 470.697 
L 581.248285 300.112385 
" clip-path="url(#p8ba2a67cc7)" style="fill: none; stroke: #cccccc; stroke-width: 0.8; stroke-linecap: round"/>
     </g>
     <g id="text_45">
      <!-- Sep -->
      <g style="fill: #262626" transform="translate(565.59116 491.80925) scale(0.176 -0.176)">
       <defs>
        <path id="ArialMT-53" d="M 288 1472 
L 859 1522 
Q 900 1178 1048 958 
Q 1197 738 1509 602 
Q 1822 466 2213 466 
Q 2559 466 2825 569 
Q 3091 672 3220 851 
Q 3350 1031 3350 1244 
Q 3350 1459 3225 1620 
Q 3100 1781 2813 1891 
Q 2628 1963 1997 2114 
Q 1366 2266 1113 2400 
Q 784 2572 623 2826 
Q 463 3081 463 3397 
Q 463 3744 659 4045 
Q 856 4347 1234 4503 
Q 1613 4659 2075 4659 
Q 2584 4659 2973 4495 
Q 3363 4331 3572 4012 
Q 3781 3694 3797 3291 
L 3216 3247 
Q 3169 3681 2898 3903 
Q 2628 4125 2100 4125 
Q 1550 4125 1298 3923 
Q 1047 3722 1047 3438 
Q 1047 3191 1225 3031 
Q 1400 2872 2139 2705 
Q 2878 2538 3153 2413 
Q 3553 2228 3743 1945 
Q 3934 1663 3934 1294 
Q 3934 928 3725 604 
Q 3516 281 3123 101 
Q 2731 -78 2241 -78 
Q 1619 -78 1198 103 
Q 778 284 539 648 
Q 300 1013 288 1472 
z
" transform="scale(0.015625)"/>
        <path id="ArialMT-70" d="M 422 -1272 
L 422 3319 
L 934 3319 
L 934 2888 
Q 1116 3141 1344 3267 
Q 1572 3394 1897 3394 
Q 2322 3394 2647 3175 
Q 2972 2956 3137 2557 
Q 3303 2159 3303 1684 
Q 3303 1175 3120 767 
Q 2938 359 2589 142 
Q 2241 -75 1856 -75 
Q 1575 -75 1351 44 
Q 1128 163 984 344 
L 984 -1272 
L 422 -1272 
z
M 931 1641 
Q 931 1000 1190 694 
Q 1450 388 1819 388 
Q 2194 388 2461 705 
Q 2728 1022 2728 1688 
Q 2728 2322 2467 2637 
Q 2206 2953 1844 2953 
Q 1484 2953 1207 2617 
Q 931 2281 931 1641 
z
" transform="scale(0.015625)"/>
       </defs>
       <use xlink:href="#ArialMT-53"/>
       <use xlink:href="#ArialMT-65" x="66.699219"/>
       <use xlink:href="#ArialMT-70" x="122.314453"/>
      </g>
     </g>
    </g>
    <g id="xtick_82">
     <g id="line2d_33">
      <path d="M 609.731513 470.697 
L 609.731513 300.112385 
" clip-path="url(#p8ba2a67cc7)" style="fill: none; stroke: #cccccc; stroke-width: 0.8; stroke-linecap: round"/>
     </g>
     <g id="text_46">
      <!-- Oct -->
      <g style="fill: #262626" transform="translate(596.042013 491.59475) scale(0.176 -0.176)">
       <defs>
        <path id="ArialMT-4f" d="M 309 2231 
Q 309 3372 921 4017 
Q 1534 4663 2503 4663 
Q 3138 4663 3647 4359 
Q 4156 4056 4423 3514 
Q 4691 2972 4691 2284 
Q 4691 1588 4409 1038 
Q 4128 488 3612 205 
Q 3097 -78 2500 -78 
Q 1853 -78 1343 234 
Q 834 547 571 1087 
Q 309 1628 309 2231 
z
M 934 2222 
Q 934 1394 1379 917 
Q 1825 441 2497 441 
Q 3181 441 3623 922 
Q 4066 1403 4066 2288 
Q 4066 2847 3877 3264 
Q 3688 3681 3323 3911 
Q 2959 4141 2506 4141 
Q 1863 4141 1398 3698 
Q 934 3256 934 2222 
z
" transform="scale(0.015625)"/>
       </defs>
       <use xlink:href="#ArialMT-4f"/>
       <use xlink:href="#ArialMT-63" x="77.783203"/>
       <use xlink:href="#ArialMT-74" x="127.783203"/>
      </g>
     </g>
    </g>
    <g id="xtick_83">
     <g id="line2d_34">
      <path d="M 639.164181 470.697 
L 639.164181 300.112385 
" clip-path="url(#p8ba2a67cc7)" style="fill: none; stroke: #cccccc; stroke-width: 0.8; stroke-linecap: round"/>
     </g>
     <g id="text_47">
      <!-- Nov -->
      <g style="fill: #262626" transform="translate(623.515306 491.59475) scale(0.176 -0.176)">
       <defs>
        <path id="ArialMT-4e" d="M 488 0 
L 488 4581 
L 1109 4581 
L 3516 984 
L 3516 4581 
L 4097 4581 
L 4097 0 
L 3475 0 
L 1069 3600 
L 1069 0 
L 488 0 
z
" transform="scale(0.015625)"/>
        <path id="ArialMT-76" d="M 1344 0 
L 81 3319 
L 675 3319 
L 1388 1331 
Q 1503 1009 1600 663 
Q 1675 925 1809 1294 
L 2547 3319 
L 3125 3319 
L 1869 0 
L 1344 0 
z
" transform="scale(0.015625)"/>
       </defs>
       <use xlink:href="#ArialMT-4e"/>
       <use xlink:href="#ArialMT-6f" x="72.216797"/>
       <use xlink:href="#ArialMT-76" x="127.832031"/>
      </g>
     </g>
    </g>
    <g id="xtick_84">
     <g id="line2d_35">
      <path d="M 667.647409 470.697 
L 667.647409 300.112385 
" clip-path="url(#p8ba2a67cc7)" style="fill: none; stroke: #cccccc; stroke-width: 0.8; stroke-linecap: round"/>
     </g>
     <g id="text_48">
      <!-- Dec -->
      <g style="fill: #262626" transform="translate(651.998534 491.59475) scale(0.176 -0.176)">
       <defs>
        <path id="ArialMT-44" d="M 494 0 
L 494 4581 
L 2072 4581 
Q 2606 4581 2888 4516 
Q 3281 4425 3559 4188 
Q 3922 3881 4101 3404 
Q 4281 2928 4281 2316 
Q 4281 1794 4159 1391 
Q 4038 988 3847 723 
Q 3656 459 3429 307 
Q 3203 156 2883 78 
Q 2563 0 2147 0 
L 494 0 
z
M 1100 541 
L 2078 541 
Q 2531 541 2789 625 
Q 3047 709 3200 863 
Q 3416 1078 3536 1442 
Q 3656 1806 3656 2325 
Q 3656 3044 3420 3430 
Q 3184 3816 2847 3947 
Q 2603 4041 2063 4041 
L 1100 4041 
L 1100 541 
z
" transform="scale(0.015625)"/>
       </defs>
       <use xlink:href="#ArialMT-44"/>
       <use xlink:href="#ArialMT-65" x="72.216797"/>
       <use xlink:href="#ArialMT-63" x="127.832031"/>
      </g>
     </g>
    </g>
    <g id="xtick_85">
     <g id="line2d_36">
      <path d="M 697.080078 470.697 
L 697.080078 300.112385 
" clip-path="url(#p8ba2a67cc7)" style="fill: none; stroke: #cccccc; stroke-width: 0.8; stroke-linecap: round"/>
     </g>
     <g id="text_49">
      <!-- Jan -->
      <g style="fill: #262626" transform="translate(682.892828 491.59475) scale(0.176 -0.176)">
       <use xlink:href="#ArialMT-4a"/>
       <use xlink:href="#ArialMT-61" x="50"/>
       <use xlink:href="#ArialMT-6e" x="105.615234"/>
      </g>
      <!-- 2024 -->
      <g style="fill: #262626" transform="translate(677.505578 510.21005) scale(0.176 -0.176)">
       <use xlink:href="#ArialMT-32"/>
       <use xlink:href="#ArialMT-30" x="55.615234"/>
       <use xlink:href="#ArialMT-32" x="111.230469"/>
       <use xlink:href="#ArialMT-34" x="166.845703"/>
      </g>
     </g>
    </g>
    <g id="xtick_86">
     <g id="line2d_37">
      <path d="M 726.512747 470.697 
L 726.512747 300.112385 
" clip-path="url(#p8ba2a67cc7)" style="fill: none; stroke: #cccccc; stroke-width: 0.8; stroke-linecap: round"/>
     </g>
     <g id="text_50">
      <!-- Feb -->
      <g style="fill: #262626" transform="translate(711.350622 491.59475) scale(0.176 -0.176)">
       <defs>
        <path id="ArialMT-46" d="M 525 0 
L 525 4581 
L 3616 4581 
L 3616 4041 
L 1131 4041 
L 1131 2622 
L 3281 2622 
L 3281 2081 
L 1131 2081 
L 1131 0 
L 525 0 
z
" transform="scale(0.015625)"/>
        <path id="ArialMT-62" d="M 941 0 
L 419 0 
L 419 4581 
L 981 4581 
L 981 2947 
Q 1338 3394 1891 3394 
Q 2197 3394 2470 3270 
Q 2744 3147 2920 2923 
Q 3097 2700 3197 2384 
Q 3297 2069 3297 1709 
Q 3297 856 2875 390 
Q 2453 -75 1863 -75 
Q 1275 -75 941 416 
L 941 0 
z
M 934 1684 
Q 934 1088 1097 822 
Q 1363 388 1816 388 
Q 2184 388 2453 708 
Q 2722 1028 2722 1663 
Q 2722 2313 2464 2622 
Q 2206 2931 1841 2931 
Q 1472 2931 1203 2611 
Q 934 2291 934 1684 
z
" transform="scale(0.015625)"/>
       </defs>
       <use xlink:href="#ArialMT-46"/>
       <use xlink:href="#ArialMT-65" x="61.083984"/>
       <use xlink:href="#ArialMT-62" x="116.699219"/>
      </g>
     </g>
    </g>
    <g id="xtick_87">
     <g id="line2d_38">
      <path d="M 754.046534 470.697 
L 754.046534 300.112385 
" clip-path="url(#p8ba2a67cc7)" style="fill: none; stroke: #cccccc; stroke-width: 0.8; stroke-linecap: round"/>
     </g>
     <g id="text_51">
      <!-- Mar -->
      <g style="fill: #262626" transform="translate(738.892659 491.59475) scale(0.176 -0.176)">
       <use xlink:href="#ArialMT-4d"/>
       <use xlink:href="#ArialMT-61" x="83.300781"/>
       <use xlink:href="#ArialMT-72" x="138.916016"/>
      </g>
     </g>
    </g>
    <g id="xtick_88">
     <g id="line2d_39">
      <path d="M 783.479203 470.697 
L 783.479203 300.112385 
" clip-path="url(#p8ba2a67cc7)" style="fill: none; stroke: #cccccc; stroke-width: 0.8; stroke-linecap: round"/>
     </g>
     <g id="text_52">
      <!-- Apr -->
      <g style="fill: #262626" transform="translate(769.785578 491.59475) scale(0.176 -0.176)">
       <use xlink:href="#ArialMT-41"/>
       <use xlink:href="#ArialMT-70" x="66.699219"/>
       <use xlink:href="#ArialMT-72" x="122.314453"/>
      </g>
     </g>
    </g>
    <g id="xtick_89">
     <g id="line2d_40">
      <path d="M 811.962431 470.697 
L 811.962431 300.112385 
" clip-path="url(#p8ba2a67cc7)" style="fill: none; stroke: #cccccc; stroke-width: 0.8; stroke-linecap: round"/>
     </g>
     <g id="text_53">
      <!-- May -->
      <g style="fill: #262626" transform="translate(795.338681 491.59475) scale(0.176 -0.176)">
       <use xlink:href="#ArialMT-4d"/>
       <use xlink:href="#ArialMT-61" x="83.300781"/>
       <use xlink:href="#ArialMT-79" x="138.916016"/>
      </g>
     </g>
    </g>
    <g id="xtick_90">
     <g id="line2d_41">
      <path d="M 830.95125 470.697 
L 830.95125 300.112385 
" clip-path="url(#p8ba2a67cc7)" style="fill: none; stroke: #cccccc; stroke-width: 0.8; stroke-linecap: round"/>
     </g>
    </g>
    <g id="xtick_91"/>
    <g id="xtick_92"/>
    <g id="xtick_93"/>
    <g id="xtick_94"/>
    <g id="xtick_95"/>
    <g id="xtick_96"/>
    <g id="xtick_97"/>
    <g id="xtick_98"/>
    <g id="xtick_99"/>
    <g id="xtick_100"/>
    <g id="xtick_101"/>
    <g id="xtick_102"/>
    <g id="xtick_103"/>
    <g id="xtick_104"/>
    <g id="xtick_105"/>
    <g id="xtick_106"/>
    <g id="xtick_107"/>
    <g id="xtick_108"/>
    <g id="xtick_109"/>
    <g id="xtick_110"/>
    <g id="xtick_111"/>
    <g id="xtick_112"/>
    <g id="xtick_113"/>
    <g id="xtick_114"/>
    <g id="xtick_115"/>
    <g id="xtick_116"/>
    <g id="xtick_117"/>
    <g id="xtick_118"/>
    <g id="xtick_119"/>
    <g id="xtick_120"/>
    <g id="xtick_121"/>
    <g id="xtick_122"/>
    <g id="xtick_123"/>
    <g id="xtick_124"/>
    <g id="xtick_125"/>
    <g id="xtick_126"/>
    <g id="xtick_127"/>
    <g id="xtick_128"/>
    <g id="xtick_129"/>
    <g id="xtick_130"/>
    <g id="xtick_131"/>
    <g id="xtick_132"/>
    <g id="xtick_133"/>
    <g id="xtick_134"/>
    <g id="xtick_135"/>
    <g id="xtick_136"/>
    <g id="xtick_137"/>
    <g id="xtick_138"/>
    <g id="xtick_139"/>
    <g id="xtick_140"/>
    <g id="xtick_141"/>
    <g id="xtick_142"/>
   </g>
   <g id="matplotlib.axis_8">
    <g id="ytick_12">
     <g id="line2d_42">
      <path d="M 475.860341 391.181955 
L 830.95125 391.181955 
" clip-path="url(#p8ba2a67cc7)" style="fill: none; stroke: #cccccc; stroke-width: 0.8; stroke-linecap: round"/>
     </g>
     <g id="text_54">
      <!-- 10 -->
      <g style="fill: #262626" transform="translate(447.985841 397.48083) scale(0.176 -0.176)">
       <use xlink:href="#ArialMT-31"/>
       <use xlink:href="#ArialMT-30" x="55.615234"/>
      </g>
     </g>
    </g>
    <g id="ytick_13">
     <g id="line2d_43">
      <path d="M 475.860341 307.322258 
L 830.95125 307.322258 
" clip-path="url(#p8ba2a67cc7)" style="fill: none; stroke: #cccccc; stroke-width: 0.8; stroke-linecap: round"/>
     </g>
     <g id="text_55">
      <!-- 20 -->
      <g style="fill: #262626" transform="translate(447.985841 313.621133) scale(0.176 -0.176)">
       <use xlink:href="#ArialMT-32"/>
       <use xlink:href="#ArialMT-30" x="55.615234"/>
      </g>
     </g>
    </g>
   </g>
   <g id="line2d_44">
    <path d="M 475.860341 358.602463 
L 476.809782 360.657025 
L 477.759223 364.207086 
L 478.708664 378.057912 
L 479.658105 402.950266 
L 480.607546 395.542659 
L 481.556987 372.07592 
L 482.506427 359.021761 
L 483.455868 352.403833 
L 484.405309 351.117985 
" clip-path="url(#p8ba2a67cc7)" style="fill: none; stroke: #4c72b0; stroke-width: 1.2; stroke-linecap: round"/>
   </g>
   <g id="line2d_45">
    <path d="M 485.35475 328.261574 
L 486.304191 332.506383 
L 487.253632 334.87367 
L 488.203073 336.053267 
L 489.152514 336.855734 
L 490.101955 337.497324 
L 491.051396 337.549244 
L 494.84916 336.933502 
L 496.748041 336.931806 
L 497.697482 336.651958 
L 498.646923 336.167759 
L 499.596364 335.526393 
L 500.545805 334.649293 
L 501.495246 334.014004 
L 503.394128 333.411314 
L 504.343569 332.9973 
L 508.141333 330.904967 
L 509.090774 330.421055 
L 510.989655 329.248176 
L 512.888537 328.857931 
L 513.837978 328.753867 
L 514.787419 328.414582 
L 515.73686 327.592825 
L 516.686301 326.361148 
L 519.534624 323.407037 
L 520.484065 322.679138 
L 522.382947 320.902098 
L 525.231269 318.87336 
L 526.18071 318.723967 
L 528.079592 317.677064 
L 529.029033 316.913816 
L 529.978474 316.451402 
L 530.927915 316.403161 
L 532.826797 315.588729 
L 533.776238 315.017357 
L 534.725679 314.313162 
L 535.67512 313.823621 
L 538.523443 311.794147 
L 540.422324 310.767142 
L 542.321206 308.831783 
L 543.270647 308.258555 
L 544.220088 308.063993 
L 546.11897 308.766843 
L 549.916734 307.866231 
L 551.815616 308.344832 
L 552.765057 308.318664 
L 553.714497 308.613004 
L 555.613379 309.559906 
L 558.461702 310.265316 
L 560.360584 311.58794 
L 562.259466 313.145242 
L 564.158348 313.922437 
L 568.905552 318.111743 
L 570.804434 320.234755 
L 571.753875 321.105522 
L 573.652757 322.433072 
L 574.602198 323.003197 
L 575.551639 323.787174 
L 576.50108 324.716354 
L 580.298844 329.646003 
L 581.248285 330.473262 
L 582.197725 331.54726 
L 583.147166 333.050819 
L 584.096607 334.782723 
L 585.995489 337.550236 
L 586.94493 338.684951 
L 587.894371 339.279516 
L 588.843812 340.058823 
L 592.641576 346.055432 
L 593.591017 347.054222 
L 597.38878 349.927878 
L 598.338221 350.804274 
L 599.287662 351.833022 
L 601.186544 354.756135 
L 602.135985 356.469724 
L 603.085426 357.799625 
L 606.88319 363.94486 
L 608.782072 366.589132 
L 610.680953 368.031302 
L 613.529276 371.172794 
L 614.478717 372.384653 
L 616.377599 374.271259 
L 618.276481 376.873144 
L 620.175363 380.415598 
L 621.124804 381.803801 
L 623.023686 383.988682 
L 624.922567 385.822057 
L 626.821449 388.355436 
L 627.77089 389.397124 
L 629.669772 392.381481 
L 633.467536 398.595366 
L 635.366418 401.133624 
L 638.214741 405.291356 
L 639.164181 406.215177 
L 642.012504 410.396038 
L 642.961945 412.143056 
L 644.860827 415.943173 
L 645.810268 417.845518 
L 646.759709 419.302564 
L 650.557473 423.760953 
L 652.456355 425.79289 
L 654.355236 427.994533 
L 661.001323 436.979098 
L 661.950764 438.393757 
L 663.849646 440.504821 
L 664.799087 441.294685 
L 666.697969 442.209501 
L 667.647409 442.86683 
L 668.59685 443.801656 
L 671.445173 445.406751 
L 673.344055 448.009116 
L 674.293496 448.977564 
L 675.242937 449.510532 
L 677.141819 449.960838 
L 678.09126 450.08384 
L 679.990142 451.115275 
L 682.838464 451.232374 
L 683.787905 451.550258 
L 684.737346 452.088185 
L 686.636228 453.553244 
L 687.585669 453.90838 
L 688.53511 454.062012 
L 690.433992 454.210573 
L 692.332874 454.899029 
L 693.282315 454.953348 
L 696.130637 455.390346 
L 697.080078 455.557477 
L 698.029519 455.901641 
L 701.827283 457.696133 
L 702.776724 457.716494 
L 704.675606 457.984026 
L 705.625047 457.95098 
L 707.523929 458.339418 
L 709.422811 459.379203 
L 711.321692 459.198204 
L 712.271133 459.210392 
L 713.220574 459.03971 
L 714.170015 459.315111 
L 717.018338 460.846597 
L 717.967779 461.008275 
L 718.91722 461.023758 
L 720.816102 461.453958 
L 721.765543 462.21639 
L 722.714984 462.820584 
L 723.664425 462.943154 
L 726.512747 462.298957 
L 727.462188 462.002074 
L 729.36107 462.058024 
L 730.310511 462.316199 
L 731.259952 461.650425 
L 733.158834 459.811371 
L 734.108275 459.18472 
L 735.057716 458.948874 
L 736.007157 458.842684 
L 737.906039 458.270496 
L 738.855479 457.598707 
L 739.80492 456.750158 
L 741.703802 455.479582 
L 744.552125 454.185861 
L 747.400448 451.801955 
L 748.349889 450.613849 
L 749.29933 449.225342 
L 750.248771 448.105902 
L 751.198212 447.563896 
L 752.147653 446.625488 
L 755.945416 442.037795 
L 756.894857 441.290814 
L 757.844298 440.38761 
L 759.74318 437.797241 
L 761.642062 435.040092 
L 763.540944 431.931918 
L 764.490385 430.80872 
L 765.439826 429.977221 
L 766.389267 428.803287 
L 768.288148 425.870833 
L 770.18703 423.288238 
L 771.136471 422.304499 
L 772.085912 421.701729 
L 773.984794 419.246373 
L 775.883676 416.631276 
L 776.833117 415.577336 
L 778.731999 414.402937 
L 779.68144 413.605876 
L 783.479203 408.751531 
L 784.428644 408.174049 
L 785.378085 407.379643 
L 786.327526 406.209995 
L 787.276967 404.628732 
L 789.175849 402.148121 
L 791.074731 400.105755 
L 792.024172 398.675069 
L 794.872495 393.687486 
L 795.821935 392.665216 
L 798.670258 390.306662 
L 800.56914 387.469507 
L 802.468022 384.988575 
L 808.164668 377.196019 
L 810.063549 374.587991 
L 812.911872 370.576709 
L 814.810754 367.326756 
L 816.709636 364.437233 
L 817.659077 362.798756 
L 819.557959 360.422752 
L 820.5074 359.328728 
L 822.406282 357.585261 
L 824.305163 355.1975 
L 827.153486 351.018447 
L 829.052368 349.148491 
L 830.001809 348.242104 
L 830.95125 347.542708 
L 830.95125 347.542708 
" clip-path="url(#p8ba2a67cc7)" style="fill: none; stroke: #dd8452; stroke-width: 1.2; stroke-linecap: round"/>
   </g>
   <g id="patch_18">
    <path d="M 475.860341 470.697 
L 475.860341 300.112385 
" style="fill: none; stroke: #cccccc; stroke-linejoin: miter; stroke-linecap: square"/>
   </g>
   <g id="patch_19">
    <path d="M 830.95125 470.697 
L 830.95125 300.112385 
" style="fill: none; stroke: #cccccc; stroke-linejoin: miter; stroke-linecap: square"/>
   </g>
   <g id="patch_20">
    <path d="M 475.860341 470.697 
L 830.95125 470.697 
" style="fill: none; stroke: #cccccc; stroke-linejoin: miter; stroke-linecap: square"/>
   </g>
   <g id="patch_21">
    <path d="M 475.860341 300.112385 
L 830.95125 300.112385 
" style="fill: none; stroke: #cccccc; stroke-linejoin: miter; stroke-linecap: square"/>
   </g>
   <g id="text_56">
    <!-- Prediction for 10 + 365 days -->
    <g style="fill: #262626" transform="translate(533.605295 294.112385) scale(0.192 -0.192)">
     <use xlink:href="#ArialMT-50"/>
     <use xlink:href="#ArialMT-72" x="66.699219"/>
     <use xlink:href="#ArialMT-65" x="100"/>
     <use xlink:href="#ArialMT-64" x="155.615234"/>
     <use xlink:href="#ArialMT-69" x="211.230469"/>
     <use xlink:href="#ArialMT-63" x="233.447266"/>
     <use xlink:href="#ArialMT-74" x="283.447266"/>
     <use xlink:href="#ArialMT-69" x="311.230469"/>
     <use xlink:href="#ArialMT-6f" x="333.447266"/>
     <use xlink:href="#ArialMT-6e" x="389.0625"/>
     <use xlink:href="#ArialMT-20" x="444.677734"/>
     <use xlink:href="#ArialMT-66" x="472.460938"/>
     <use xlink:href="#ArialMT-6f" x="500.244141"/>
     <use xlink:href="#ArialMT-72" x="555.859375"/>
     <use xlink:href="#ArialMT-20" x="589.160156"/>
     <use xlink:href="#ArialMT-31" x="616.943359"/>
     <use xlink:href="#ArialMT-30" x="672.558594"/>
     <use xlink:href="#ArialMT-20" x="728.173828"/>
     <use xlink:href="#ArialMT-2b" x="755.957031"/>
     <use xlink:href="#ArialMT-20" x="814.355469"/>
     <use xlink:href="#ArialMT-33" x="842.138672"/>
     <use xlink:href="#ArialMT-36" x="897.753906"/>
     <use xlink:href="#ArialMT-35" x="953.369141"/>
     <use xlink:href="#ArialMT-20" x="1008.984375"/>
     <use xlink:href="#ArialMT-64" x="1036.767578"/>
     <use xlink:href="#ArialMT-61" x="1092.382812"/>
     <use xlink:href="#ArialMT-79" x="1147.998047"/>
     <use xlink:href="#ArialMT-73" x="1197.998047"/>
    </g>
   </g>
  </g>
  <g id="legend_1">
   <g id="patch_22">
    <path d="M 89.508125 554.057 
L 765.994375 554.057 
Q 769.514375 554.057 769.514375 550.537 
L 769.514375 526.9805 
Q 769.514375 523.4605 765.994375 523.4605 
L 89.508125 523.4605 
Q 85.988125 523.4605 85.988125 526.9805 
L 85.988125 550.537 
Q 85.988125 554.057 89.508125 554.057 
z
" style="fill: #ffffff; opacity: 0.8; stroke: #cccccc; stroke-width: 0.8; stroke-linejoin: miter"/>
   </g>
   <g id="line2d_46">
    <path d="M 93.028125 537.15275 
L 110.628125 537.15275 
L 128.228125 537.15275 
" style="fill: none; stroke: #4c72b0; stroke-width: 1.2; stroke-linecap: round"/>
   </g>
   <g id="text_57">
    <!-- Short-term forecast (proffesional) -->
    <g style="fill: #262626" transform="translate(142.308125 543.31275) scale(0.176 -0.176)">
     <defs>
      <path id="ArialMT-68" d="M 422 0 
L 422 4581 
L 984 4581 
L 984 2938 
Q 1378 3394 1978 3394 
Q 2347 3394 2619 3248 
Q 2891 3103 3008 2847 
Q 3125 2591 3125 2103 
L 3125 0 
L 2563 0 
L 2563 2103 
Q 2563 2525 2380 2717 
Q 2197 2909 1863 2909 
Q 1613 2909 1392 2779 
Q 1172 2650 1078 2428 
Q 984 2206 984 1816 
L 984 0 
L 422 0 
z
" transform="scale(0.015625)"/>
      <path id="ArialMT-2d" d="M 203 1375 
L 203 1941 
L 1931 1941 
L 1931 1375 
L 203 1375 
z
" transform="scale(0.015625)"/>
      <path id="ArialMT-6d" d="M 422 0 
L 422 3319 
L 925 3319 
L 925 2853 
Q 1081 3097 1340 3245 
Q 1600 3394 1931 3394 
Q 2300 3394 2536 3241 
Q 2772 3088 2869 2813 
Q 3263 3394 3894 3394 
Q 4388 3394 4653 3120 
Q 4919 2847 4919 2278 
L 4919 0 
L 4359 0 
L 4359 2091 
Q 4359 2428 4304 2576 
Q 4250 2725 4106 2815 
Q 3963 2906 3769 2906 
Q 3419 2906 3187 2673 
Q 2956 2441 2956 1928 
L 2956 0 
L 2394 0 
L 2394 2156 
Q 2394 2531 2256 2718 
Q 2119 2906 1806 2906 
Q 1569 2906 1367 2781 
Q 1166 2656 1075 2415 
Q 984 2175 984 1722 
L 984 0 
L 422 0 
z
" transform="scale(0.015625)"/>
      <path id="ArialMT-28" d="M 1497 -1347 
Q 1031 -759 709 28 
Q 388 816 388 1659 
Q 388 2403 628 3084 
Q 909 3875 1497 4659 
L 1900 4659 
Q 1522 4009 1400 3731 
Q 1209 3300 1100 2831 
Q 966 2247 966 1656 
Q 966 153 1900 -1347 
L 1497 -1347 
z
" transform="scale(0.015625)"/>
      <path id="ArialMT-29" d="M 791 -1347 
L 388 -1347 
Q 1322 153 1322 1656 
Q 1322 2244 1188 2822 
Q 1081 3291 891 3722 
Q 769 4003 388 4659 
L 791 4659 
Q 1378 3875 1659 3084 
Q 1900 2403 1900 1659 
Q 1900 816 1576 28 
Q 1253 -759 791 -1347 
z
" transform="scale(0.015625)"/>
     </defs>
     <use xlink:href="#ArialMT-53"/>
     <use xlink:href="#ArialMT-68" x="66.699219"/>
     <use xlink:href="#ArialMT-6f" x="122.314453"/>
     <use xlink:href="#ArialMT-72" x="177.929688"/>
     <use xlink:href="#ArialMT-74" x="211.230469"/>
     <use xlink:href="#ArialMT-2d" x="239.013672"/>
     <use xlink:href="#ArialMT-74" x="272.314453"/>
     <use xlink:href="#ArialMT-65" x="300.097656"/>
     <use xlink:href="#ArialMT-72" x="355.712891"/>
     <use xlink:href="#ArialMT-6d" x="389.013672"/>
     <use xlink:href="#ArialMT-20" x="472.314453"/>
     <use xlink:href="#ArialMT-66" x="500.097656"/>
     <use xlink:href="#ArialMT-6f" x="527.880859"/>
     <use xlink:href="#ArialMT-72" x="583.496094"/>
     <use xlink:href="#ArialMT-65" x="616.796875"/>
     <use xlink:href="#ArialMT-63" x="672.412109"/>
     <use xlink:href="#ArialMT-61" x="722.412109"/>
     <use xlink:href="#ArialMT-73" x="778.027344"/>
     <use xlink:href="#ArialMT-74" x="828.027344"/>
     <use xlink:href="#ArialMT-20" x="855.810547"/>
     <use xlink:href="#ArialMT-28" x="883.59375"/>
     <use xlink:href="#ArialMT-70" x="916.894531"/>
     <use xlink:href="#ArialMT-72" x="972.509766"/>
     <use xlink:href="#ArialMT-6f" x="1005.810547"/>
     <use xlink:href="#ArialMT-66" x="1061.425781"/>
     <use xlink:href="#ArialMT-66" x="1087.458984"/>
     <use xlink:href="#ArialMT-65" x="1115.242188"/>
     <use xlink:href="#ArialMT-73" x="1170.857422"/>
     <use xlink:href="#ArialMT-69" x="1220.857422"/>
     <use xlink:href="#ArialMT-6f" x="1243.074219"/>
     <use xlink:href="#ArialMT-6e" x="1298.689453"/>
     <use xlink:href="#ArialMT-61" x="1354.304688"/>
     <use xlink:href="#ArialMT-6c" x="1409.919922"/>
     <use xlink:href="#ArialMT-29" x="1432.136719"/>
    </g>
   </g>
   <g id="line2d_47">
    <path d="M 435.405875 537.15275 
L 453.005875 537.15275 
L 470.605875 537.15275 
" style="fill: none; stroke: #dd8452; stroke-width: 1.2; stroke-linecap: round"/>
   </g>
   <g id="text_58">
    <!-- Long-term forecast (NeuralProphet) -->
    <g style="fill: #262626" transform="translate(484.685875 543.31275) scale(0.176 -0.176)">
     <defs>
      <path id="ArialMT-4c" d="M 469 0 
L 469 4581 
L 1075 4581 
L 1075 541 
L 3331 541 
L 3331 0 
L 469 0 
z
" transform="scale(0.015625)"/>
     </defs>
     <use xlink:href="#ArialMT-4c"/>
     <use xlink:href="#ArialMT-6f" x="55.615234"/>
     <use xlink:href="#ArialMT-6e" x="111.230469"/>
     <use xlink:href="#ArialMT-67" x="166.845703"/>
     <use xlink:href="#ArialMT-2d" x="222.460938"/>
     <use xlink:href="#ArialMT-74" x="255.761719"/>
     <use xlink:href="#ArialMT-65" x="283.544922"/>
     <use xlink:href="#ArialMT-72" x="339.160156"/>
     <use xlink:href="#ArialMT-6d" x="372.460938"/>
     <use xlink:href="#ArialMT-20" x="455.761719"/>
     <use xlink:href="#ArialMT-66" x="483.544922"/>
     <use xlink:href="#ArialMT-6f" x="511.328125"/>
     <use xlink:href="#ArialMT-72" x="566.943359"/>
     <use xlink:href="#ArialMT-65" x="600.244141"/>
     <use xlink:href="#ArialMT-63" x="655.859375"/>
     <use xlink:href="#ArialMT-61" x="705.859375"/>
     <use xlink:href="#ArialMT-73" x="761.474609"/>
     <use xlink:href="#ArialMT-74" x="811.474609"/>
     <use xlink:href="#ArialMT-20" x="839.257812"/>
     <use xlink:href="#ArialMT-28" x="867.041016"/>
     <use xlink:href="#ArialMT-4e" x="900.341797"/>
     <use xlink:href="#ArialMT-65" x="972.558594"/>
     <use xlink:href="#ArialMT-75" x="1028.173828"/>
     <use xlink:href="#ArialMT-72" x="1083.789062"/>
     <use xlink:href="#ArialMT-61" x="1117.089844"/>
     <use xlink:href="#ArialMT-6c" x="1172.705078"/>
     <use xlink:href="#ArialMT-50" x="1194.921875"/>
     <use xlink:href="#ArialMT-72" x="1261.621094"/>
     <use xlink:href="#ArialMT-6f" x="1294.921875"/>
     <use xlink:href="#ArialMT-70" x="1350.537109"/>
     <use xlink:href="#ArialMT-68" x="1406.152344"/>
     <use xlink:href="#ArialMT-65" x="1461.767578"/>
     <use xlink:href="#ArialMT-74" x="1517.382812"/>
     <use xlink:href="#ArialMT-29" x="1545.166016"/>
    </g>
   </g>
  </g>
 </g>
 <defs>
  <clipPath id="pbe75fbf417">
   <rect x="49.75125" y="27.177" width="355.090909" height="170.584615"/>
  </clipPath>
  <clipPath id="p8ad0990e15">
   <rect x="475.860341" y="27.177" width="355.090909" height="170.584615"/>
  </clipPath>
  <clipPath id="p1c5d83f99d">
   <rect x="49.75125" y="300.112385" width="355.090909" height="170.584615"/>
  </clipPath>
  <clipPath id="p8ba2a67cc7">
   <rect x="475.860341" y="300.112385" width="355.090909" height="170.584615"/>
  </clipPath>
 </defs>
</svg>
