<?xml version="1.0" encoding="utf-8" standalone="no"?>
<!DOCTYPE svg PUBLIC "-//W3C//DTD SVG 1.1//EN"
  "http://www.w3.org/Graphics/SVG/1.1/DTD/svg11.dtd">
<svg xmlns:xlink="http://www.w3.org/1999/xlink" width="835.24625pt" height="301.85775pt" viewBox="0 0 835.24625 301.85775" xmlns="http://www.w3.org/2000/svg" version="1.1">
 <metadata>
  <rdf:RDF xmlns:dc="http://purl.org/dc/elements/1.1/" xmlns:cc="http://creativecommons.org/ns#" xmlns:rdf="http://www.w3.org/1999/02/22-rdf-syntax-ns#">
   <cc:Work>
    <dc:type rdf:resource="http://purl.org/dc/dcmitype/StillImage"/>
    <dc:date>2023-05-13T17:11:09.528012</dc:date>
    <dc:format>image/svg+xml</dc:format>
    <dc:creator>
     <cc:Agent>
      <dc:title>Matplotlib v3.6.2, https://matplotlib.org/</dc:title>
     </cc:Agent>
    </dc:creator>
   </cc:Work>
  </rdf:RDF>
 </metadata>
 <defs>
  <style type="text/css">*{stroke-linejoin: round; stroke-linecap: butt}</style>
 </defs>
 <g id="figure_1">
  <g id="patch_1">
   <path d="M 0 301.85775 
L 835.24625 301.85775 
L 835.24625 0 
L 0 0 
z
" style="fill: #ffffff"/>
  </g>
  <g id="axes_1">
   <g id="patch_2">
    <path d="M 46.84625 248.703 
L 828.04625 248.703 
L 828.04625 26.943 
L 46.84625 26.943 
z
" style="fill: #ffffff"/>
   </g>
   <g id="matplotlib.axis_1">
    <g id="xtick_1">
     <g id="line2d_1">
      <path d="M 82.355341 248.703 
L 82.355341 26.943 
" clip-path="url(#p35f7091823)" style="fill: none; stroke: #cccccc; stroke-width: 0.8; stroke-linecap: round"/>
     </g>
     <g id="text_1">
      <!-- 0 -->
      <g style="fill: #262626" transform="translate(77.461716 269.60075) scale(0.176 -0.176)">
       <defs>
        <path id="ArialMT-30" d="M 266 2259 
Q 266 3072 433 3567 
Q 600 4063 929 4331 
Q 1259 4600 1759 4600 
Q 2128 4600 2406 4451 
Q 2684 4303 2865 4023 
Q 3047 3744 3150 3342 
Q 3253 2941 3253 2259 
Q 3253 1453 3087 958 
Q 2922 463 2592 192 
Q 2263 -78 1759 -78 
Q 1097 -78 719 397 
Q 266 969 266 2259 
z
M 844 2259 
Q 844 1131 1108 757 
Q 1372 384 1759 384 
Q 2147 384 2411 759 
Q 2675 1134 2675 2259 
Q 2675 3391 2411 3762 
Q 2147 4134 1753 4134 
Q 1366 4134 1134 3806 
Q 844 3388 844 2259 
z
" transform="scale(0.015625)"/>
       </defs>
       <use xlink:href="#ArialMT-30"/>
      </g>
     </g>
    </g>
    <g id="xtick_2">
     <g id="line2d_2">
      <path d="M 171.350556 248.703 
L 171.350556 26.943 
" clip-path="url(#p35f7091823)" style="fill: none; stroke: #cccccc; stroke-width: 0.8; stroke-linecap: round"/>
     </g>
     <g id="text_2">
      <!-- 50 -->
      <g style="fill: #262626" transform="translate(161.563306 269.60075) scale(0.176 -0.176)">
       <defs>
        <path id="ArialMT-35" d="M 266 1200 
L 856 1250 
Q 922 819 1161 601 
Q 1400 384 1738 384 
Q 2144 384 2425 690 
Q 2706 997 2706 1503 
Q 2706 1984 2436 2262 
Q 2166 2541 1728 2541 
Q 1456 2541 1237 2417 
Q 1019 2294 894 2097 
L 366 2166 
L 809 4519 
L 3088 4519 
L 3088 3981 
L 1259 3981 
L 1013 2750 
Q 1425 3038 1878 3038 
Q 2478 3038 2890 2622 
Q 3303 2206 3303 1553 
Q 3303 931 2941 478 
Q 2500 -78 1738 -78 
Q 1113 -78 717 272 
Q 322 622 266 1200 
z
" transform="scale(0.015625)"/>
       </defs>
       <use xlink:href="#ArialMT-35"/>
       <use xlink:href="#ArialMT-30" x="55.615234"/>
      </g>
     </g>
    </g>
    <g id="xtick_3">
     <g id="line2d_3">
      <path d="M 260.345772 248.703 
L 260.345772 26.943 
" clip-path="url(#p35f7091823)" style="fill: none; stroke: #cccccc; stroke-width: 0.8; stroke-linecap: round"/>
     </g>
     <g id="text_3">
      <!-- 100 -->
      <g style="fill: #262626" transform="translate(245.664897 269.60075) scale(0.176 -0.176)">
       <defs>
        <path id="ArialMT-31" d="M 2384 0 
L 1822 0 
L 1822 3584 
Q 1619 3391 1289 3197 
Q 959 3003 697 2906 
L 697 3450 
Q 1169 3672 1522 3987 
Q 1875 4303 2022 4600 
L 2384 4600 
L 2384 0 
z
" transform="scale(0.015625)"/>
       </defs>
       <use xlink:href="#ArialMT-31"/>
       <use xlink:href="#ArialMT-30" x="55.615234"/>
       <use xlink:href="#ArialMT-30" x="111.230469"/>
      </g>
     </g>
    </g>
    <g id="xtick_4">
     <g id="line2d_4">
      <path d="M 349.340987 248.703 
L 349.340987 26.943 
" clip-path="url(#p35f7091823)" style="fill: none; stroke: #cccccc; stroke-width: 0.8; stroke-linecap: round"/>
     </g>
     <g id="text_4">
      <!-- 150 -->
      <g style="fill: #262626" transform="translate(334.660112 269.60075) scale(0.176 -0.176)">
       <use xlink:href="#ArialMT-31"/>
       <use xlink:href="#ArialMT-35" x="55.615234"/>
       <use xlink:href="#ArialMT-30" x="111.230469"/>
      </g>
     </g>
    </g>
    <g id="xtick_5">
     <g id="line2d_5">
      <path d="M 438.336202 248.703 
L 438.336202 26.943 
" clip-path="url(#p35f7091823)" style="fill: none; stroke: #cccccc; stroke-width: 0.8; stroke-linecap: round"/>
     </g>
     <g id="text_5">
      <!-- 200 -->
      <g style="fill: #262626" transform="translate(423.655327 269.60075) scale(0.176 -0.176)">
       <defs>
        <path id="ArialMT-32" d="M 3222 541 
L 3222 0 
L 194 0 
Q 188 203 259 391 
Q 375 700 629 1000 
Q 884 1300 1366 1694 
Q 2113 2306 2375 2664 
Q 2638 3022 2638 3341 
Q 2638 3675 2398 3904 
Q 2159 4134 1775 4134 
Q 1369 4134 1125 3890 
Q 881 3647 878 3216 
L 300 3275 
Q 359 3922 746 4261 
Q 1134 4600 1788 4600 
Q 2447 4600 2831 4234 
Q 3216 3869 3216 3328 
Q 3216 3053 3103 2787 
Q 2991 2522 2730 2228 
Q 2469 1934 1863 1422 
Q 1356 997 1212 845 
Q 1069 694 975 541 
L 3222 541 
z
" transform="scale(0.015625)"/>
       </defs>
       <use xlink:href="#ArialMT-32"/>
       <use xlink:href="#ArialMT-30" x="55.615234"/>
       <use xlink:href="#ArialMT-30" x="111.230469"/>
      </g>
     </g>
    </g>
    <g id="xtick_6">
     <g id="line2d_6">
      <path d="M 527.331417 248.703 
L 527.331417 26.943 
" clip-path="url(#p35f7091823)" style="fill: none; stroke: #cccccc; stroke-width: 0.8; stroke-linecap: round"/>
     </g>
     <g id="text_6">
      <!-- 250 -->
      <g style="fill: #262626" transform="translate(512.650542 269.60075) scale(0.176 -0.176)">
       <use xlink:href="#ArialMT-32"/>
       <use xlink:href="#ArialMT-35" x="55.615234"/>
       <use xlink:href="#ArialMT-30" x="111.230469"/>
      </g>
     </g>
    </g>
    <g id="xtick_7">
     <g id="line2d_7">
      <path d="M 616.326633 248.703 
L 616.326633 26.943 
" clip-path="url(#p35f7091823)" style="fill: none; stroke: #cccccc; stroke-width: 0.8; stroke-linecap: round"/>
     </g>
     <g id="text_7">
      <!-- 300 -->
      <g style="fill: #262626" transform="translate(601.645758 269.60075) scale(0.176 -0.176)">
       <defs>
        <path id="ArialMT-33" d="M 269 1209 
L 831 1284 
Q 928 806 1161 595 
Q 1394 384 1728 384 
Q 2125 384 2398 659 
Q 2672 934 2672 1341 
Q 2672 1728 2419 1979 
Q 2166 2231 1775 2231 
Q 1616 2231 1378 2169 
L 1441 2663 
Q 1497 2656 1531 2656 
Q 1891 2656 2178 2843 
Q 2466 3031 2466 3422 
Q 2466 3731 2256 3934 
Q 2047 4138 1716 4138 
Q 1388 4138 1169 3931 
Q 950 3725 888 3313 
L 325 3413 
Q 428 3978 793 4289 
Q 1159 4600 1703 4600 
Q 2078 4600 2393 4439 
Q 2709 4278 2876 4000 
Q 3044 3722 3044 3409 
Q 3044 3113 2884 2869 
Q 2725 2625 2413 2481 
Q 2819 2388 3044 2092 
Q 3269 1797 3269 1353 
Q 3269 753 2831 336 
Q 2394 -81 1725 -81 
Q 1122 -81 723 278 
Q 325 638 269 1209 
z
" transform="scale(0.015625)"/>
       </defs>
       <use xlink:href="#ArialMT-33"/>
       <use xlink:href="#ArialMT-30" x="55.615234"/>
       <use xlink:href="#ArialMT-30" x="111.230469"/>
      </g>
     </g>
    </g>
    <g id="xtick_8">
     <g id="line2d_8">
      <path d="M 705.321848 248.703 
L 705.321848 26.943 
" clip-path="url(#p35f7091823)" style="fill: none; stroke: #cccccc; stroke-width: 0.8; stroke-linecap: round"/>
     </g>
     <g id="text_8">
      <!-- 350 -->
      <g style="fill: #262626" transform="translate(690.640973 269.60075) scale(0.176 -0.176)">
       <use xlink:href="#ArialMT-33"/>
       <use xlink:href="#ArialMT-35" x="55.615234"/>
       <use xlink:href="#ArialMT-30" x="111.230469"/>
      </g>
     </g>
    </g>
    <g id="xtick_9">
     <g id="line2d_9">
      <path d="M 794.317063 248.703 
L 794.317063 26.943 
" clip-path="url(#p35f7091823)" style="fill: none; stroke: #cccccc; stroke-width: 0.8; stroke-linecap: round"/>
     </g>
     <g id="text_9">
      <!-- 400 -->
      <g style="fill: #262626" transform="translate(779.636188 269.60075) scale(0.176 -0.176)">
       <defs>
        <path id="ArialMT-34" d="M 2069 0 
L 2069 1097 
L 81 1097 
L 81 1613 
L 2172 4581 
L 2631 4581 
L 2631 1613 
L 3250 1613 
L 3250 1097 
L 2631 1097 
L 2631 0 
L 2069 0 
z
M 2069 1613 
L 2069 3678 
L 634 1613 
L 2069 1613 
z
" transform="scale(0.015625)"/>
       </defs>
       <use xlink:href="#ArialMT-34"/>
       <use xlink:href="#ArialMT-30" x="55.615234"/>
       <use xlink:href="#ArialMT-30" x="111.230469"/>
      </g>
     </g>
    </g>
    <g id="text_10">
     <!-- Epochs -->
     <g style="fill: #262626" transform="translate(405.42725 290.84175) scale(0.192 -0.192)">
      <defs>
       <path id="ArialMT-45" d="M 506 0 
L 506 4581 
L 3819 4581 
L 3819 4041 
L 1113 4041 
L 1113 2638 
L 3647 2638 
L 3647 2100 
L 1113 2100 
L 1113 541 
L 3925 541 
L 3925 0 
L 506 0 
z
" transform="scale(0.015625)"/>
       <path id="ArialMT-70" d="M 422 -1272 
L 422 3319 
L 934 3319 
L 934 2888 
Q 1116 3141 1344 3267 
Q 1572 3394 1897 3394 
Q 2322 3394 2647 3175 
Q 2972 2956 3137 2557 
Q 3303 2159 3303 1684 
Q 3303 1175 3120 767 
Q 2938 359 2589 142 
Q 2241 -75 1856 -75 
Q 1575 -75 1351 44 
Q 1128 163 984 344 
L 984 -1272 
L 422 -1272 
z
M 931 1641 
Q 931 1000 1190 694 
Q 1450 388 1819 388 
Q 2194 388 2461 705 
Q 2728 1022 2728 1688 
Q 2728 2322 2467 2637 
Q 2206 2953 1844 2953 
Q 1484 2953 1207 2617 
Q 931 2281 931 1641 
z
" transform="scale(0.015625)"/>
       <path id="ArialMT-6f" d="M 213 1659 
Q 213 2581 725 3025 
Q 1153 3394 1769 3394 
Q 2453 3394 2887 2945 
Q 3322 2497 3322 1706 
Q 3322 1066 3130 698 
Q 2938 331 2570 128 
Q 2203 -75 1769 -75 
Q 1072 -75 642 372 
Q 213 819 213 1659 
z
M 791 1659 
Q 791 1022 1069 705 
Q 1347 388 1769 388 
Q 2188 388 2466 706 
Q 2744 1025 2744 1678 
Q 2744 2294 2464 2611 
Q 2184 2928 1769 2928 
Q 1347 2928 1069 2612 
Q 791 2297 791 1659 
z
" transform="scale(0.015625)"/>
       <path id="ArialMT-63" d="M 2588 1216 
L 3141 1144 
Q 3050 572 2676 248 
Q 2303 -75 1759 -75 
Q 1078 -75 664 370 
Q 250 816 250 1647 
Q 250 2184 428 2587 
Q 606 2991 970 3192 
Q 1334 3394 1763 3394 
Q 2303 3394 2647 3120 
Q 2991 2847 3088 2344 
L 2541 2259 
Q 2463 2594 2264 2762 
Q 2066 2931 1784 2931 
Q 1359 2931 1093 2626 
Q 828 2322 828 1663 
Q 828 994 1084 691 
Q 1341 388 1753 388 
Q 2084 388 2306 591 
Q 2528 794 2588 1216 
z
" transform="scale(0.015625)"/>
       <path id="ArialMT-68" d="M 422 0 
L 422 4581 
L 984 4581 
L 984 2938 
Q 1378 3394 1978 3394 
Q 2347 3394 2619 3248 
Q 2891 3103 3008 2847 
Q 3125 2591 3125 2103 
L 3125 0 
L 2563 0 
L 2563 2103 
Q 2563 2525 2380 2717 
Q 2197 2909 1863 2909 
Q 1613 2909 1392 2779 
Q 1172 2650 1078 2428 
Q 984 2206 984 1816 
L 984 0 
L 422 0 
z
" transform="scale(0.015625)"/>
       <path id="ArialMT-73" d="M 197 991 
L 753 1078 
Q 800 744 1014 566 
Q 1228 388 1613 388 
Q 2000 388 2187 545 
Q 2375 703 2375 916 
Q 2375 1106 2209 1216 
Q 2094 1291 1634 1406 
Q 1016 1563 777 1677 
Q 538 1791 414 1992 
Q 291 2194 291 2438 
Q 291 2659 392 2848 
Q 494 3038 669 3163 
Q 800 3259 1026 3326 
Q 1253 3394 1513 3394 
Q 1903 3394 2198 3281 
Q 2494 3169 2634 2976 
Q 2775 2784 2828 2463 
L 2278 2388 
Q 2241 2644 2061 2787 
Q 1881 2931 1553 2931 
Q 1166 2931 1000 2803 
Q 834 2675 834 2503 
Q 834 2394 903 2306 
Q 972 2216 1119 2156 
Q 1203 2125 1616 2013 
Q 2213 1853 2448 1751 
Q 2684 1650 2818 1456 
Q 2953 1263 2953 975 
Q 2953 694 2789 445 
Q 2625 197 2315 61 
Q 2006 -75 1616 -75 
Q 969 -75 630 194 
Q 291 463 197 991 
z
" transform="scale(0.015625)"/>
      </defs>
      <use xlink:href="#ArialMT-45"/>
      <use xlink:href="#ArialMT-70" x="66.699219"/>
      <use xlink:href="#ArialMT-6f" x="122.314453"/>
      <use xlink:href="#ArialMT-63" x="177.929688"/>
      <use xlink:href="#ArialMT-68" x="227.929688"/>
      <use xlink:href="#ArialMT-73" x="283.544922"/>
     </g>
    </g>
   </g>
   <g id="matplotlib.axis_2">
    <g id="ytick_1">
     <g id="line2d_10">
      <path d="M 46.84625 238.884338 
L 828.04625 238.884338 
" clip-path="url(#p35f7091823)" style="fill: none; stroke: #cccccc; stroke-width: 0.8; stroke-linecap: round"/>
     </g>
     <g id="text_11">
      <!-- 0 -->
      <g style="fill: #262626" transform="translate(28.759 245.183213) scale(0.176 -0.176)">
       <use xlink:href="#ArialMT-30"/>
      </g>
     </g>
    </g>
    <g id="ytick_2">
     <g id="line2d_11">
      <path d="M 46.84625 194.17532 
L 828.04625 194.17532 
" clip-path="url(#p35f7091823)" style="fill: none; stroke: #cccccc; stroke-width: 0.8; stroke-linecap: round"/>
     </g>
     <g id="text_12">
      <!-- 1 -->
      <g style="fill: #262626" transform="translate(28.759 200.474195) scale(0.176 -0.176)">
       <use xlink:href="#ArialMT-31"/>
      </g>
     </g>
    </g>
    <g id="ytick_3">
     <g id="line2d_12">
      <path d="M 46.84625 149.466302 
L 828.04625 149.466302 
" clip-path="url(#p35f7091823)" style="fill: none; stroke: #cccccc; stroke-width: 0.8; stroke-linecap: round"/>
     </g>
     <g id="text_13">
      <!-- 2 -->
      <g style="fill: #262626" transform="translate(28.759 155.765177) scale(0.176 -0.176)">
       <use xlink:href="#ArialMT-32"/>
      </g>
     </g>
    </g>
    <g id="ytick_4">
     <g id="line2d_13">
      <path d="M 46.84625 104.757284 
L 828.04625 104.757284 
" clip-path="url(#p35f7091823)" style="fill: none; stroke: #cccccc; stroke-width: 0.8; stroke-linecap: round"/>
     </g>
     <g id="text_14">
      <!-- 3 -->
      <g style="fill: #262626" transform="translate(28.759 111.056159) scale(0.176 -0.176)">
       <use xlink:href="#ArialMT-33"/>
      </g>
     </g>
    </g>
    <g id="ytick_5">
     <g id="line2d_14">
      <path d="M 46.84625 60.048266 
L 828.04625 60.048266 
" clip-path="url(#p35f7091823)" style="fill: none; stroke: #cccccc; stroke-width: 0.8; stroke-linecap: round"/>
     </g>
     <g id="text_15">
      <!-- 4 -->
      <g style="fill: #262626" transform="translate(28.759 66.347141) scale(0.176 -0.176)">
       <use xlink:href="#ArialMT-34"/>
      </g>
     </g>
    </g>
    <g id="text_16">
     <!-- Loss -->
     <g style="fill: #262626" transform="translate(20.943 158.1) rotate(-90) scale(0.192 -0.192)">
      <defs>
       <path id="ArialMT-4c" d="M 469 0 
L 469 4581 
L 1075 4581 
L 1075 541 
L 3331 541 
L 3331 0 
L 469 0 
z
" transform="scale(0.015625)"/>
      </defs>
      <use xlink:href="#ArialMT-4c"/>
      <use xlink:href="#ArialMT-6f" x="55.615234"/>
      <use xlink:href="#ArialMT-73" x="111.230469"/>
      <use xlink:href="#ArialMT-73" x="161.230469"/>
     </g>
    </g>
   </g>
   <g id="line2d_15">
    <path d="M 82.355341 37.023 
L 84.135245 55.399803 
L 85.91515 69.44392 
L 87.695054 82.256975 
L 89.474958 93.224952 
L 91.254862 101.827009 
L 94.814671 116.001874 
L 105.494097 158.745378 
L 107.274001 164.090437 
L 109.053906 168.839514 
L 114.393618 186.161825 
L 116.173523 191.00534 
L 117.953427 195.096854 
L 119.733331 201.019653 
L 121.513236 204.987813 
L 123.29314 208.203562 
L 125.073044 212.652639 
L 128.632853 218.021864 
L 130.412757 219.624714 
L 132.192661 221.579756 
L 133.972566 223.017596 
L 135.75247 224.258406 
L 137.532374 224.642844 
L 141.092183 225.935219 
L 142.872087 225.970823 
L 146.431896 226.869925 
L 148.2118 226.63578 
L 149.991705 226.94692 
L 151.771609 226.509658 
L 153.551513 226.412597 
L 155.331417 227.414183 
L 157.111322 226.923357 
L 158.891226 228.318555 
L 160.67113 227.830893 
L 162.451035 229.038415 
L 164.230939 229.067624 
L 166.010843 228.462489 
L 167.790748 229.71677 
L 169.570652 230.05237 
L 171.350556 231.226066 
L 173.130461 231.10101 
L 174.910365 231.956035 
L 176.690269 232.072911 
L 178.470173 232.492241 
L 180.250078 231.706448 
L 182.029982 233.595638 
L 183.809886 233.210544 
L 185.589791 233.834287 
L 187.369695 233.887689 
L 189.149599 233.379056 
L 190.929504 233.57494 
L 192.709408 234.788811 
L 194.489312 235.116678 
L 196.269217 235.123294 
L 198.049121 235.31475 
L 199.829025 235.825349 
L 201.608929 235.013373 
L 203.388834 236.622468 
L 205.168738 235.906437 
L 206.948642 236.783539 
L 208.728547 236.686327 
L 210.508451 236.467191 
L 214.06826 237.080885 
L 215.848164 236.610522 
L 217.628068 236.57389 
L 219.407972 235.895057 
L 221.187877 236.668953 
L 222.967781 237.023561 
L 224.747685 235.808565 
L 226.52759 237.319909 
L 228.307494 236.839815 
L 230.087398 236.637625 
L 231.867303 235.679656 
L 233.647207 237.308289 
L 235.427111 235.148467 
L 237.207016 236.97469 
L 238.98692 236.450277 
L 242.546728 236.277808 
L 244.326633 236.286102 
L 246.106537 237.559853 
L 247.886441 237.219154 
L 249.666346 236.722456 
L 251.44625 236.696309 
L 253.226154 235.489738 
L 255.006059 237.517321 
L 256.785963 234.183465 
L 258.565867 236.556589 
L 260.345772 232.897694 
L 262.125676 236.324306 
L 263.90558 234.984871 
L 265.685484 237.014766 
L 267.465389 234.011205 
L 269.245293 235.876995 
L 271.025197 236.644136 
L 272.805102 236.596888 
L 274.585006 237.509943 
L 276.36491 235.902025 
L 278.144815 236.457618 
L 279.924719 236.791333 
L 281.704623 237.348767 
L 283.484528 235.890261 
L 285.264432 234.090382 
L 287.044336 236.20737 
L 288.82424 236.334346 
L 290.604145 235.312778 
L 292.384049 237.044824 
L 294.163953 235.9966 
L 295.943858 236.991848 
L 297.723762 234.209226 
L 299.503666 235.97436 
L 301.283571 237.9228 
L 303.063475 234.129064 
L 304.843379 237.318707 
L 306.623283 237.323991 
L 308.403188 236.797969 
L 311.962996 232.967804 
L 313.742901 235.607201 
L 315.522805 235.710899 
L 317.302709 236.538877 
L 319.082614 236.51223 
L 320.862518 237.987241 
L 322.642422 234.692537 
L 324.422327 237.359827 
L 326.202231 235.015681 
L 327.982135 235.314883 
L 329.762039 237.516713 
L 331.541944 235.602653 
L 333.321848 236.776039 
L 335.101752 237.129271 
L 336.881657 237.342315 
L 338.661561 236.252075 
L 340.441465 237.175457 
L 342.22137 237.169208 
L 344.001274 237.646104 
L 345.781178 235.653054 
L 347.561083 237.772472 
L 349.340987 238.036014 
L 351.120891 234.707296 
L 352.900795 237.37038 
L 354.6807 237.271814 
L 356.460604 237.442785 
L 358.240508 237.172628 
L 360.020413 237.254282 
L 361.800317 236.127862 
L 363.580221 237.481065 
L 365.360126 236.761926 
L 367.14003 237.729497 
L 368.919934 236.247259 
L 370.699839 237.250482 
L 372.479743 235.709431 
L 374.259647 237.195136 
L 376.039551 237.178915 
L 379.59936 236.398186 
L 381.379264 237.688155 
L 384.939073 237.183089 
L 386.718977 234.527515 
L 388.498882 237.666312 
L 390.278786 237.838098 
L 392.05869 236.171275 
L 393.838594 237.244503 
L 395.618499 235.430226 
L 399.178307 236.716377 
L 402.738116 238.08362 
L 404.51802 237.270264 
L 406.297925 234.651714 
L 408.077829 237.32592 
L 409.857733 237.255596 
L 411.637638 236.598033 
L 413.417542 236.575231 
L 415.197446 237.367737 
L 416.97735 237.794579 
L 418.757255 237.953972 
L 420.537159 236.202854 
L 422.317063 236.98014 
L 424.096968 237.635136 
L 425.876872 236.667451 
L 427.656776 237.590045 
L 429.436681 236.564066 
L 431.216585 233.526794 
L 432.996489 238.017013 
L 434.776394 236.985023 
L 436.556298 237.871767 
L 438.336202 234.695221 
L 440.116106 236.853702 
L 441.896011 237.82237 
L 443.675915 236.901112 
L 445.455819 237.855929 
L 447.235724 238.080306 
L 449.015628 236.723009 
L 450.795532 236.737276 
L 452.575437 237.641137 
L 454.355341 237.798107 
L 456.135245 237.630813 
L 457.91515 237.623024 
L 459.695054 238.020136 
L 461.474958 237.352044 
L 463.254862 237.984806 
L 465.034767 236.509397 
L 468.594575 237.696795 
L 470.37448 238.006179 
L 472.154384 237.198897 
L 473.934288 237.549269 
L 475.714193 238.148952 
L 477.494097 237.939368 
L 479.274001 236.359969 
L 481.053906 237.662173 
L 484.613714 238.096746 
L 486.393618 238.06044 
L 488.173523 237.592008 
L 489.953427 238.101059 
L 491.733331 237.162822 
L 493.513236 238.127619 
L 495.29314 237.72213 
L 497.073044 237.921655 
L 498.852949 237.913169 
L 500.632853 237.777309 
L 507.75247 237.997847 
L 509.532374 237.871707 
L 511.312279 237.186004 
L 514.872087 238.175729 
L 516.651992 237.876505 
L 518.431896 238.225014 
L 520.2118 237.860107 
L 521.991705 237.620173 
L 523.771609 238.15474 
L 525.551513 238.155834 
L 527.331417 237.97169 
L 530.891226 238.062213 
L 532.67113 237.523604 
L 534.451035 238.228672 
L 536.230939 238.012366 
L 541.570652 238.066914 
L 548.690269 238.270398 
L 552.250078 238.243804 
L 554.029982 237.90311 
L 555.809886 237.92523 
L 557.589791 238.369688 
L 559.369695 237.824643 
L 561.149599 238.310932 
L 566.489312 238.23889 
L 568.269217 238.394918 
L 571.829025 238.054496 
L 573.608929 238.349882 
L 575.388834 238.370638 
L 577.168738 238.158151 
L 578.948642 238.322225 
L 580.728547 238.201128 
L 589.628068 238.408605 
L 591.407972 238.150373 
L 593.187877 238.485934 
L 596.747685 237.916607 
L 598.52759 238.397166 
L 600.307494 238.499778 
L 603.867303 238.356922 
L 605.647207 238.505392 
L 607.427111 238.184767 
L 609.207016 238.404796 
L 610.98692 238.341593 
L 612.766824 238.519432 
L 616.326633 238.287242 
L 619.886441 238.444177 
L 621.666346 238.307393 
L 623.44625 238.395202 
L 625.226154 238.289074 
L 630.565867 238.528209 
L 634.125676 238.287852 
L 635.90558 238.456558 
L 641.245293 238.471185 
L 655.484528 238.455278 
L 657.264432 238.338436 
L 659.044336 238.519005 
L 676.843379 238.531569 
L 680.403188 238.574742 
L 685.742901 238.468356 
L 689.302709 238.530039 
L 691.082614 238.60706 
L 694.642422 238.567292 
L 749.819456 238.610953 
L 751.59936 238.550062 
L 755.159169 238.581511 
L 772.958212 238.619736 
L 787.197446 238.615037 
L 792.537159 238.616107 
L 792.537159 238.616107 
" clip-path="url(#p35f7091823)" style="fill: none; stroke: #4c72b0; stroke-width: 1.2; stroke-linecap: round"/>
   </g>
   <g id="patch_3">
    <path d="M 46.84625 248.703 
L 46.84625 26.943 
" style="fill: none; stroke: #cccccc; stroke-linejoin: miter; stroke-linecap: square"/>
   </g>
   <g id="patch_4">
    <path d="M 828.04625 248.703 
L 828.04625 26.943 
" style="fill: none; stroke: #cccccc; stroke-linejoin: miter; stroke-linecap: square"/>
   </g>
   <g id="patch_5">
    <path d="M 46.84625 248.703 
L 828.04625 248.703 
" style="fill: none; stroke: #cccccc; stroke-linejoin: miter; stroke-linecap: square"/>
   </g>
   <g id="patch_6">
    <path d="M 46.84625 26.943 
L 828.04625 26.943 
" style="fill: none; stroke: #cccccc; stroke-linejoin: miter; stroke-linecap: square"/>
   </g>
   <g id="text_17">
    <!-- Validation loss over epochs -->
    <g style="fill: #262626" transform="translate(321.29225 20.943) scale(0.192 -0.192)">
     <defs>
      <path id="ArialMT-56" d="M 1803 0 
L 28 4581 
L 684 4581 
L 1875 1253 
Q 2019 853 2116 503 
Q 2222 878 2363 1253 
L 3600 4581 
L 4219 4581 
L 2425 0 
L 1803 0 
z
" transform="scale(0.015625)"/>
      <path id="ArialMT-61" d="M 2588 409 
Q 2275 144 1986 34 
Q 1697 -75 1366 -75 
Q 819 -75 525 192 
Q 231 459 231 875 
Q 231 1119 342 1320 
Q 453 1522 633 1644 
Q 813 1766 1038 1828 
Q 1203 1872 1538 1913 
Q 2219 1994 2541 2106 
Q 2544 2222 2544 2253 
Q 2544 2597 2384 2738 
Q 2169 2928 1744 2928 
Q 1347 2928 1158 2789 
Q 969 2650 878 2297 
L 328 2372 
Q 403 2725 575 2942 
Q 747 3159 1072 3276 
Q 1397 3394 1825 3394 
Q 2250 3394 2515 3294 
Q 2781 3194 2906 3042 
Q 3031 2891 3081 2659 
Q 3109 2516 3109 2141 
L 3109 1391 
Q 3109 606 3145 398 
Q 3181 191 3288 0 
L 2700 0 
Q 2613 175 2588 409 
z
M 2541 1666 
Q 2234 1541 1622 1453 
Q 1275 1403 1131 1340 
Q 988 1278 909 1158 
Q 831 1038 831 891 
Q 831 666 1001 516 
Q 1172 366 1500 366 
Q 1825 366 2078 508 
Q 2331 650 2450 897 
Q 2541 1088 2541 1459 
L 2541 1666 
z
" transform="scale(0.015625)"/>
      <path id="ArialMT-6c" d="M 409 0 
L 409 4581 
L 972 4581 
L 972 0 
L 409 0 
z
" transform="scale(0.015625)"/>
      <path id="ArialMT-69" d="M 425 3934 
L 425 4581 
L 988 4581 
L 988 3934 
L 425 3934 
z
M 425 0 
L 425 3319 
L 988 3319 
L 988 0 
L 425 0 
z
" transform="scale(0.015625)"/>
      <path id="ArialMT-64" d="M 2575 0 
L 2575 419 
Q 2259 -75 1647 -75 
Q 1250 -75 917 144 
Q 584 363 401 755 
Q 219 1147 219 1656 
Q 219 2153 384 2558 
Q 550 2963 881 3178 
Q 1213 3394 1622 3394 
Q 1922 3394 2156 3267 
Q 2391 3141 2538 2938 
L 2538 4581 
L 3097 4581 
L 3097 0 
L 2575 0 
z
M 797 1656 
Q 797 1019 1065 703 
Q 1334 388 1700 388 
Q 2069 388 2326 689 
Q 2584 991 2584 1609 
Q 2584 2291 2321 2609 
Q 2059 2928 1675 2928 
Q 1300 2928 1048 2622 
Q 797 2316 797 1656 
z
" transform="scale(0.015625)"/>
      <path id="ArialMT-74" d="M 1650 503 
L 1731 6 
Q 1494 -44 1306 -44 
Q 1000 -44 831 53 
Q 663 150 594 308 
Q 525 466 525 972 
L 525 2881 
L 113 2881 
L 113 3319 
L 525 3319 
L 525 4141 
L 1084 4478 
L 1084 3319 
L 1650 3319 
L 1650 2881 
L 1084 2881 
L 1084 941 
Q 1084 700 1114 631 
Q 1144 563 1211 522 
Q 1278 481 1403 481 
Q 1497 481 1650 503 
z
" transform="scale(0.015625)"/>
      <path id="ArialMT-6e" d="M 422 0 
L 422 3319 
L 928 3319 
L 928 2847 
Q 1294 3394 1984 3394 
Q 2284 3394 2536 3286 
Q 2788 3178 2913 3003 
Q 3038 2828 3088 2588 
Q 3119 2431 3119 2041 
L 3119 0 
L 2556 0 
L 2556 2019 
Q 2556 2363 2490 2533 
Q 2425 2703 2258 2804 
Q 2091 2906 1866 2906 
Q 1506 2906 1245 2678 
Q 984 2450 984 1813 
L 984 0 
L 422 0 
z
" transform="scale(0.015625)"/>
      <path id="ArialMT-20" transform="scale(0.015625)"/>
      <path id="ArialMT-76" d="M 1344 0 
L 81 3319 
L 675 3319 
L 1388 1331 
Q 1503 1009 1600 663 
Q 1675 925 1809 1294 
L 2547 3319 
L 3125 3319 
L 1869 0 
L 1344 0 
z
" transform="scale(0.015625)"/>
      <path id="ArialMT-65" d="M 2694 1069 
L 3275 997 
Q 3138 488 2766 206 
Q 2394 -75 1816 -75 
Q 1088 -75 661 373 
Q 234 822 234 1631 
Q 234 2469 665 2931 
Q 1097 3394 1784 3394 
Q 2450 3394 2872 2941 
Q 3294 2488 3294 1666 
Q 3294 1616 3291 1516 
L 816 1516 
Q 847 969 1125 678 
Q 1403 388 1819 388 
Q 2128 388 2347 550 
Q 2566 713 2694 1069 
z
M 847 1978 
L 2700 1978 
Q 2663 2397 2488 2606 
Q 2219 2931 1791 2931 
Q 1403 2931 1139 2672 
Q 875 2413 847 1978 
z
" transform="scale(0.015625)"/>
      <path id="ArialMT-72" d="M 416 0 
L 416 3319 
L 922 3319 
L 922 2816 
Q 1116 3169 1280 3281 
Q 1444 3394 1641 3394 
Q 1925 3394 2219 3213 
L 2025 2691 
Q 1819 2813 1613 2813 
Q 1428 2813 1281 2702 
Q 1134 2591 1072 2394 
Q 978 2094 978 1738 
L 978 0 
L 416 0 
z
" transform="scale(0.015625)"/>
     </defs>
     <use xlink:href="#ArialMT-56"/>
     <use xlink:href="#ArialMT-61" x="59.324219"/>
     <use xlink:href="#ArialMT-6c" x="114.939453"/>
     <use xlink:href="#ArialMT-69" x="137.15625"/>
     <use xlink:href="#ArialMT-64" x="159.373047"/>
     <use xlink:href="#ArialMT-61" x="214.988281"/>
     <use xlink:href="#ArialMT-74" x="270.603516"/>
     <use xlink:href="#ArialMT-69" x="298.386719"/>
     <use xlink:href="#ArialMT-6f" x="320.603516"/>
     <use xlink:href="#ArialMT-6e" x="376.21875"/>
     <use xlink:href="#ArialMT-20" x="431.833984"/>
     <use xlink:href="#ArialMT-6c" x="459.617188"/>
     <use xlink:href="#ArialMT-6f" x="481.833984"/>
     <use xlink:href="#ArialMT-73" x="537.449219"/>
     <use xlink:href="#ArialMT-73" x="587.449219"/>
     <use xlink:href="#ArialMT-20" x="637.449219"/>
     <use xlink:href="#ArialMT-6f" x="665.232422"/>
     <use xlink:href="#ArialMT-76" x="720.847656"/>
     <use xlink:href="#ArialMT-65" x="770.847656"/>
     <use xlink:href="#ArialMT-72" x="826.462891"/>
     <use xlink:href="#ArialMT-20" x="859.763672"/>
     <use xlink:href="#ArialMT-65" x="887.546875"/>
     <use xlink:href="#ArialMT-70" x="943.162109"/>
     <use xlink:href="#ArialMT-6f" x="998.777344"/>
     <use xlink:href="#ArialMT-63" x="1054.392578"/>
     <use xlink:href="#ArialMT-68" x="1104.392578"/>
     <use xlink:href="#ArialMT-73" x="1160.007812"/>
    </g>
   </g>
  </g>
 </g>
 <defs>
  <clipPath id="p35f7091823">
   <rect x="46.84625" y="26.943" width="781.2" height="221.76"/>
  </clipPath>
 </defs>
</svg>
