<?xml version="1.0" encoding="utf-8" standalone="no"?>
<!DOCTYPE svg PUBLIC "-//W3C//DTD SVG 1.1//EN"
  "http://www.w3.org/Graphics/SVG/1.1/DTD/svg11.dtd">
<svg xmlns:xlink="http://www.w3.org/1999/xlink" width="823.4745pt" height="320.70705pt" viewBox="0 0 823.4745 320.70705" xmlns="http://www.w3.org/2000/svg" version="1.1">
 <metadata>
  <rdf:RDF xmlns:dc="http://purl.org/dc/elements/1.1/" xmlns:cc="http://creativecommons.org/ns#" xmlns:rdf="http://www.w3.org/1999/02/22-rdf-syntax-ns#">
   <cc:Work>
    <dc:type rdf:resource="http://purl.org/dc/dcmitype/StillImage"/>
    <dc:date>2023-05-13T19:04:10.200277</dc:date>
    <dc:format>image/svg+xml</dc:format>
    <dc:creator>
     <cc:Agent>
      <dc:title>Matplotlib v3.6.2, https://matplotlib.org/</dc:title>
     </cc:Agent>
    </dc:creator>
   </cc:Work>
  </rdf:RDF>
 </metadata>
 <defs>
  <style type="text/css">*{stroke-linejoin: round; stroke-linecap: butt}</style>
 </defs>
 <g id="figure_1">
  <g id="patch_1">
   <path d="M 0 320.70705 
L 823.4745 320.70705 
L 823.4745 0 
L 0 0 
z
" style="fill: #ffffff"/>
  </g>
  <g id="axes_1">
   <g id="patch_2">
    <path d="M 35.0745 248.937 
L 816.2745 248.937 
L 816.2745 27.177 
L 35.0745 27.177 
z
" style="fill: #ffffff"/>
   </g>
   <g id="matplotlib.axis_1">
    <g id="xtick_1">
     <g id="line2d_1">
      <path d="M 35.0745 248.937 
L 35.0745 27.177 
" clip-path="url(#p183df9adc6)" style="fill: none; stroke: #cccccc; stroke-width: 0.8; stroke-linecap: round"/>
     </g>
     <g id="text_1">
      <!-- Jan -->
      <g style="fill: #262626" transform="translate(20.88725 269.83475) scale(0.176 -0.176)">
       <defs>
        <path id="ArialMT-4a" d="M 184 1300 
L 731 1375 
Q 753 850 928 656 
Q 1103 463 1413 463 
Q 1641 463 1806 567 
Q 1972 672 2034 851 
Q 2097 1031 2097 1425 
L 2097 4581 
L 2703 4581 
L 2703 1459 
Q 2703 884 2564 568 
Q 2425 253 2123 87 
Q 1822 -78 1416 -78 
Q 813 -78 492 269 
Q 172 616 184 1300 
z
" transform="scale(0.015625)"/>
        <path id="ArialMT-61" d="M 2588 409 
Q 2275 144 1986 34 
Q 1697 -75 1366 -75 
Q 819 -75 525 192 
Q 231 459 231 875 
Q 231 1119 342 1320 
Q 453 1522 633 1644 
Q 813 1766 1038 1828 
Q 1203 1872 1538 1913 
Q 2219 1994 2541 2106 
Q 2544 2222 2544 2253 
Q 2544 2597 2384 2738 
Q 2169 2928 1744 2928 
Q 1347 2928 1158 2789 
Q 969 2650 878 2297 
L 328 2372 
Q 403 2725 575 2942 
Q 747 3159 1072 3276 
Q 1397 3394 1825 3394 
Q 2250 3394 2515 3294 
Q 2781 3194 2906 3042 
Q 3031 2891 3081 2659 
Q 3109 2516 3109 2141 
L 3109 1391 
Q 3109 606 3145 398 
Q 3181 191 3288 0 
L 2700 0 
Q 2613 175 2588 409 
z
M 2541 1666 
Q 2234 1541 1622 1453 
Q 1275 1403 1131 1340 
Q 988 1278 909 1158 
Q 831 1038 831 891 
Q 831 666 1001 516 
Q 1172 366 1500 366 
Q 1825 366 2078 508 
Q 2331 650 2450 897 
Q 2541 1088 2541 1459 
L 2541 1666 
z
" transform="scale(0.015625)"/>
        <path id="ArialMT-6e" d="M 422 0 
L 422 3319 
L 928 3319 
L 928 2847 
Q 1294 3394 1984 3394 
Q 2284 3394 2536 3286 
Q 2788 3178 2913 3003 
Q 3038 2828 3088 2588 
Q 3119 2431 3119 2041 
L 3119 0 
L 2556 0 
L 2556 2019 
Q 2556 2363 2490 2533 
Q 2425 2703 2258 2804 
Q 2091 2906 1866 2906 
Q 1506 2906 1245 2678 
Q 984 2450 984 1813 
L 984 0 
L 422 0 
z
" transform="scale(0.015625)"/>
       </defs>
       <use xlink:href="#ArialMT-4a"/>
       <use xlink:href="#ArialMT-61" x="50"/>
       <use xlink:href="#ArialMT-6e" x="105.615234"/>
      </g>
      <!-- 2019 -->
      <g style="fill: #262626" transform="translate(15.5 288.45005) scale(0.176 -0.176)">
       <defs>
        <path id="ArialMT-32" d="M 3222 541 
L 3222 0 
L 194 0 
Q 188 203 259 391 
Q 375 700 629 1000 
Q 884 1300 1366 1694 
Q 2113 2306 2375 2664 
Q 2638 3022 2638 3341 
Q 2638 3675 2398 3904 
Q 2159 4134 1775 4134 
Q 1369 4134 1125 3890 
Q 881 3647 878 3216 
L 300 3275 
Q 359 3922 746 4261 
Q 1134 4600 1788 4600 
Q 2447 4600 2831 4234 
Q 3216 3869 3216 3328 
Q 3216 3053 3103 2787 
Q 2991 2522 2730 2228 
Q 2469 1934 1863 1422 
Q 1356 997 1212 845 
Q 1069 694 975 541 
L 3222 541 
z
" transform="scale(0.015625)"/>
        <path id="ArialMT-30" d="M 266 2259 
Q 266 3072 433 3567 
Q 600 4063 929 4331 
Q 1259 4600 1759 4600 
Q 2128 4600 2406 4451 
Q 2684 4303 2865 4023 
Q 3047 3744 3150 3342 
Q 3253 2941 3253 2259 
Q 3253 1453 3087 958 
Q 2922 463 2592 192 
Q 2263 -78 1759 -78 
Q 1097 -78 719 397 
Q 266 969 266 2259 
z
M 844 2259 
Q 844 1131 1108 757 
Q 1372 384 1759 384 
Q 2147 384 2411 759 
Q 2675 1134 2675 2259 
Q 2675 3391 2411 3762 
Q 2147 4134 1753 4134 
Q 1366 4134 1134 3806 
Q 844 3388 844 2259 
z
" transform="scale(0.015625)"/>
        <path id="ArialMT-31" d="M 2384 0 
L 1822 0 
L 1822 3584 
Q 1619 3391 1289 3197 
Q 959 3003 697 2906 
L 697 3450 
Q 1169 3672 1522 3987 
Q 1875 4303 2022 4600 
L 2384 4600 
L 2384 0 
z
" transform="scale(0.015625)"/>
        <path id="ArialMT-39" d="M 350 1059 
L 891 1109 
Q 959 728 1153 556 
Q 1347 384 1650 384 
Q 1909 384 2104 503 
Q 2300 622 2425 820 
Q 2550 1019 2634 1356 
Q 2719 1694 2719 2044 
Q 2719 2081 2716 2156 
Q 2547 1888 2255 1720 
Q 1963 1553 1622 1553 
Q 1053 1553 659 1965 
Q 266 2378 266 3053 
Q 266 3750 677 4175 
Q 1088 4600 1706 4600 
Q 2153 4600 2523 4359 
Q 2894 4119 3086 3673 
Q 3278 3228 3278 2384 
Q 3278 1506 3087 986 
Q 2897 466 2520 194 
Q 2144 -78 1638 -78 
Q 1100 -78 759 220 
Q 419 519 350 1059 
z
M 2653 3081 
Q 2653 3566 2395 3850 
Q 2138 4134 1775 4134 
Q 1400 4134 1122 3828 
Q 844 3522 844 3034 
Q 844 2597 1108 2323 
Q 1372 2050 1759 2050 
Q 2150 2050 2401 2323 
Q 2653 2597 2653 3081 
z
" transform="scale(0.015625)"/>
       </defs>
       <use xlink:href="#ArialMT-32"/>
       <use xlink:href="#ArialMT-30" x="55.615234"/>
       <use xlink:href="#ArialMT-31" x="111.230469"/>
       <use xlink:href="#ArialMT-39" x="166.845703"/>
      </g>
     </g>
    </g>
    <g id="xtick_2">
     <g id="line2d_2">
      <path d="M 101.605269 248.937 
L 101.605269 27.177 
" clip-path="url(#p183df9adc6)" style="fill: none; stroke: #cccccc; stroke-width: 0.8; stroke-linecap: round"/>
     </g>
     <g id="text_2">
      <!-- Feb -->
      <g style="fill: #262626" transform="translate(86.443144 269.83475) scale(0.176 -0.176)">
       <defs>
        <path id="ArialMT-46" d="M 525 0 
L 525 4581 
L 3616 4581 
L 3616 4041 
L 1131 4041 
L 1131 2622 
L 3281 2622 
L 3281 2081 
L 1131 2081 
L 1131 0 
L 525 0 
z
" transform="scale(0.015625)"/>
        <path id="ArialMT-65" d="M 2694 1069 
L 3275 997 
Q 3138 488 2766 206 
Q 2394 -75 1816 -75 
Q 1088 -75 661 373 
Q 234 822 234 1631 
Q 234 2469 665 2931 
Q 1097 3394 1784 3394 
Q 2450 3394 2872 2941 
Q 3294 2488 3294 1666 
Q 3294 1616 3291 1516 
L 816 1516 
Q 847 969 1125 678 
Q 1403 388 1819 388 
Q 2128 388 2347 550 
Q 2566 713 2694 1069 
z
M 847 1978 
L 2700 1978 
Q 2663 2397 2488 2606 
Q 2219 2931 1791 2931 
Q 1403 2931 1139 2672 
Q 875 2413 847 1978 
z
" transform="scale(0.015625)"/>
        <path id="ArialMT-62" d="M 941 0 
L 419 0 
L 419 4581 
L 981 4581 
L 981 2947 
Q 1338 3394 1891 3394 
Q 2197 3394 2470 3270 
Q 2744 3147 2920 2923 
Q 3097 2700 3197 2384 
Q 3297 2069 3297 1709 
Q 3297 856 2875 390 
Q 2453 -75 1863 -75 
Q 1275 -75 941 416 
L 941 0 
z
M 934 1684 
Q 934 1088 1097 822 
Q 1363 388 1816 388 
Q 2184 388 2453 708 
Q 2722 1028 2722 1663 
Q 2722 2313 2464 2622 
Q 2206 2931 1841 2931 
Q 1472 2931 1203 2611 
Q 934 2291 934 1684 
z
" transform="scale(0.015625)"/>
       </defs>
       <use xlink:href="#ArialMT-46"/>
       <use xlink:href="#ArialMT-65" x="61.083984"/>
       <use xlink:href="#ArialMT-62" x="116.699219"/>
      </g>
     </g>
    </g>
    <g id="xtick_3">
     <g id="line2d_3">
      <path d="M 161.697577 248.937 
L 161.697577 27.177 
" clip-path="url(#p183df9adc6)" style="fill: none; stroke: #cccccc; stroke-width: 0.8; stroke-linecap: round"/>
     </g>
     <g id="text_3">
      <!-- Mar -->
      <g style="fill: #262626" transform="translate(146.543702 269.83475) scale(0.176 -0.176)">
       <defs>
        <path id="ArialMT-4d" d="M 475 0 
L 475 4581 
L 1388 4581 
L 2472 1338 
Q 2622 884 2691 659 
Q 2769 909 2934 1394 
L 4031 4581 
L 4847 4581 
L 4847 0 
L 4263 0 
L 4263 3834 
L 2931 0 
L 2384 0 
L 1059 3900 
L 1059 0 
L 475 0 
z
" transform="scale(0.015625)"/>
        <path id="ArialMT-72" d="M 416 0 
L 416 3319 
L 922 3319 
L 922 2816 
Q 1116 3169 1280 3281 
Q 1444 3394 1641 3394 
Q 1925 3394 2219 3213 
L 2025 2691 
Q 1819 2813 1613 2813 
Q 1428 2813 1281 2702 
Q 1134 2591 1072 2394 
Q 978 2094 978 1738 
L 978 0 
L 416 0 
z
" transform="scale(0.015625)"/>
       </defs>
       <use xlink:href="#ArialMT-4d"/>
       <use xlink:href="#ArialMT-61" x="83.300781"/>
       <use xlink:href="#ArialMT-72" x="138.916016"/>
      </g>
     </g>
    </g>
    <g id="xtick_4">
     <g id="line2d_4">
      <path d="M 228.228346 248.937 
L 228.228346 27.177 
" clip-path="url(#p183df9adc6)" style="fill: none; stroke: #cccccc; stroke-width: 0.8; stroke-linecap: round"/>
     </g>
     <g id="text_4">
      <!-- Apr -->
      <g style="fill: #262626" transform="translate(214.534721 269.83475) scale(0.176 -0.176)">
       <defs>
        <path id="ArialMT-41" d="M -9 0 
L 1750 4581 
L 2403 4581 
L 4278 0 
L 3588 0 
L 3053 1388 
L 1138 1388 
L 634 0 
L -9 0 
z
M 1313 1881 
L 2866 1881 
L 2388 3150 
Q 2169 3728 2063 4100 
Q 1975 3659 1816 3225 
L 1313 1881 
z
" transform="scale(0.015625)"/>
        <path id="ArialMT-70" d="M 422 -1272 
L 422 3319 
L 934 3319 
L 934 2888 
Q 1116 3141 1344 3267 
Q 1572 3394 1897 3394 
Q 2322 3394 2647 3175 
Q 2972 2956 3137 2557 
Q 3303 2159 3303 1684 
Q 3303 1175 3120 767 
Q 2938 359 2589 142 
Q 2241 -75 1856 -75 
Q 1575 -75 1351 44 
Q 1128 163 984 344 
L 984 -1272 
L 422 -1272 
z
M 931 1641 
Q 931 1000 1190 694 
Q 1450 388 1819 388 
Q 2194 388 2461 705 
Q 2728 1022 2728 1688 
Q 2728 2322 2467 2637 
Q 2206 2953 1844 2953 
Q 1484 2953 1207 2617 
Q 931 2281 931 1641 
z
" transform="scale(0.015625)"/>
       </defs>
       <use xlink:href="#ArialMT-41"/>
       <use xlink:href="#ArialMT-70" x="66.699219"/>
       <use xlink:href="#ArialMT-72" x="122.314453"/>
      </g>
     </g>
    </g>
    <g id="xtick_5">
     <g id="line2d_5">
      <path d="M 292.612962 248.937 
L 292.612962 27.177 
" clip-path="url(#p183df9adc6)" style="fill: none; stroke: #cccccc; stroke-width: 0.8; stroke-linecap: round"/>
     </g>
     <g id="text_5">
      <!-- May -->
      <g style="fill: #262626" transform="translate(275.989212 269.83475) scale(0.176 -0.176)">
       <defs>
        <path id="ArialMT-79" d="M 397 -1278 
L 334 -750 
Q 519 -800 656 -800 
Q 844 -800 956 -737 
Q 1069 -675 1141 -563 
Q 1194 -478 1313 -144 
Q 1328 -97 1363 -6 
L 103 3319 
L 709 3319 
L 1400 1397 
Q 1534 1031 1641 628 
Q 1738 1016 1872 1384 
L 2581 3319 
L 3144 3319 
L 1881 -56 
Q 1678 -603 1566 -809 
Q 1416 -1088 1222 -1217 
Q 1028 -1347 759 -1347 
Q 597 -1347 397 -1278 
z
" transform="scale(0.015625)"/>
       </defs>
       <use xlink:href="#ArialMT-4d"/>
       <use xlink:href="#ArialMT-61" x="83.300781"/>
       <use xlink:href="#ArialMT-79" x="138.916016"/>
      </g>
     </g>
    </g>
    <g id="xtick_6">
     <g id="line2d_6">
      <path d="M 359.143731 248.937 
L 359.143731 27.177 
" clip-path="url(#p183df9adc6)" style="fill: none; stroke: #cccccc; stroke-width: 0.8; stroke-linecap: round"/>
     </g>
     <g id="text_6">
      <!-- Jun -->
      <g style="fill: #262626" transform="translate(344.956481 269.83475) scale(0.176 -0.176)">
       <defs>
        <path id="ArialMT-75" d="M 2597 0 
L 2597 488 
Q 2209 -75 1544 -75 
Q 1250 -75 995 37 
Q 741 150 617 320 
Q 494 491 444 738 
Q 409 903 409 1263 
L 409 3319 
L 972 3319 
L 972 1478 
Q 972 1038 1006 884 
Q 1059 663 1231 536 
Q 1403 409 1656 409 
Q 1909 409 2131 539 
Q 2353 669 2445 892 
Q 2538 1116 2538 1541 
L 2538 3319 
L 3100 3319 
L 3100 0 
L 2597 0 
z
" transform="scale(0.015625)"/>
       </defs>
       <use xlink:href="#ArialMT-4a"/>
       <use xlink:href="#ArialMT-75" x="50"/>
       <use xlink:href="#ArialMT-6e" x="105.615234"/>
      </g>
     </g>
    </g>
    <g id="xtick_7">
     <g id="line2d_7">
      <path d="M 423.528346 248.937 
L 423.528346 27.177 
" clip-path="url(#p183df9adc6)" style="fill: none; stroke: #cccccc; stroke-width: 0.8; stroke-linecap: round"/>
     </g>
     <g id="text_7">
      <!-- Jul -->
      <g style="fill: #262626" transform="translate(412.279471 269.83475) scale(0.176 -0.176)">
       <defs>
        <path id="ArialMT-6c" d="M 409 0 
L 409 4581 
L 972 4581 
L 972 0 
L 409 0 
z
" transform="scale(0.015625)"/>
       </defs>
       <use xlink:href="#ArialMT-4a"/>
       <use xlink:href="#ArialMT-75" x="50"/>
       <use xlink:href="#ArialMT-6c" x="105.615234"/>
      </g>
     </g>
    </g>
    <g id="xtick_8">
     <g id="line2d_8">
      <path d="M 490.059115 248.937 
L 490.059115 27.177 
" clip-path="url(#p183df9adc6)" style="fill: none; stroke: #cccccc; stroke-width: 0.8; stroke-linecap: round"/>
     </g>
     <g id="text_8">
      <!-- Aug -->
      <g style="fill: #262626" transform="translate(474.40199 269.83475) scale(0.176 -0.176)">
       <defs>
        <path id="ArialMT-67" d="M 319 -275 
L 866 -356 
Q 900 -609 1056 -725 
Q 1266 -881 1628 -881 
Q 2019 -881 2231 -725 
Q 2444 -569 2519 -288 
Q 2563 -116 2559 434 
Q 2191 0 1641 0 
Q 956 0 581 494 
Q 206 988 206 1678 
Q 206 2153 378 2554 
Q 550 2956 876 3175 
Q 1203 3394 1644 3394 
Q 2231 3394 2613 2919 
L 2613 3319 
L 3131 3319 
L 3131 450 
Q 3131 -325 2973 -648 
Q 2816 -972 2473 -1159 
Q 2131 -1347 1631 -1347 
Q 1038 -1347 672 -1080 
Q 306 -813 319 -275 
z
M 784 1719 
Q 784 1066 1043 766 
Q 1303 466 1694 466 
Q 2081 466 2343 764 
Q 2606 1063 2606 1700 
Q 2606 2309 2336 2618 
Q 2066 2928 1684 2928 
Q 1309 2928 1046 2623 
Q 784 2319 784 1719 
z
" transform="scale(0.015625)"/>
       </defs>
       <use xlink:href="#ArialMT-41"/>
       <use xlink:href="#ArialMT-75" x="66.699219"/>
       <use xlink:href="#ArialMT-67" x="122.314453"/>
      </g>
     </g>
    </g>
    <g id="xtick_9">
     <g id="line2d_9">
      <path d="M 556.589885 248.937 
L 556.589885 27.177 
" clip-path="url(#p183df9adc6)" style="fill: none; stroke: #cccccc; stroke-width: 0.8; stroke-linecap: round"/>
     </g>
     <g id="text_9">
      <!-- Sep -->
      <g style="fill: #262626" transform="translate(540.93276 270.04925) scale(0.176 -0.176)">
       <defs>
        <path id="ArialMT-53" d="M 288 1472 
L 859 1522 
Q 900 1178 1048 958 
Q 1197 738 1509 602 
Q 1822 466 2213 466 
Q 2559 466 2825 569 
Q 3091 672 3220 851 
Q 3350 1031 3350 1244 
Q 3350 1459 3225 1620 
Q 3100 1781 2813 1891 
Q 2628 1963 1997 2114 
Q 1366 2266 1113 2400 
Q 784 2572 623 2826 
Q 463 3081 463 3397 
Q 463 3744 659 4045 
Q 856 4347 1234 4503 
Q 1613 4659 2075 4659 
Q 2584 4659 2973 4495 
Q 3363 4331 3572 4012 
Q 3781 3694 3797 3291 
L 3216 3247 
Q 3169 3681 2898 3903 
Q 2628 4125 2100 4125 
Q 1550 4125 1298 3923 
Q 1047 3722 1047 3438 
Q 1047 3191 1225 3031 
Q 1400 2872 2139 2705 
Q 2878 2538 3153 2413 
Q 3553 2228 3743 1945 
Q 3934 1663 3934 1294 
Q 3934 928 3725 604 
Q 3516 281 3123 101 
Q 2731 -78 2241 -78 
Q 1619 -78 1198 103 
Q 778 284 539 648 
Q 300 1013 288 1472 
z
" transform="scale(0.015625)"/>
       </defs>
       <use xlink:href="#ArialMT-53"/>
       <use xlink:href="#ArialMT-65" x="66.699219"/>
       <use xlink:href="#ArialMT-70" x="122.314453"/>
      </g>
     </g>
    </g>
    <g id="xtick_10">
     <g id="line2d_10">
      <path d="M 620.9745 248.937 
L 620.9745 27.177 
" clip-path="url(#p183df9adc6)" style="fill: none; stroke: #cccccc; stroke-width: 0.8; stroke-linecap: round"/>
     </g>
     <g id="text_10">
      <!-- Oct -->
      <g style="fill: #262626" transform="translate(607.285 269.83475) scale(0.176 -0.176)">
       <defs>
        <path id="ArialMT-4f" d="M 309 2231 
Q 309 3372 921 4017 
Q 1534 4663 2503 4663 
Q 3138 4663 3647 4359 
Q 4156 4056 4423 3514 
Q 4691 2972 4691 2284 
Q 4691 1588 4409 1038 
Q 4128 488 3612 205 
Q 3097 -78 2500 -78 
Q 1853 -78 1343 234 
Q 834 547 571 1087 
Q 309 1628 309 2231 
z
M 934 2222 
Q 934 1394 1379 917 
Q 1825 441 2497 441 
Q 3181 441 3623 922 
Q 4066 1403 4066 2288 
Q 4066 2847 3877 3264 
Q 3688 3681 3323 3911 
Q 2959 4141 2506 4141 
Q 1863 4141 1398 3698 
Q 934 3256 934 2222 
z
" transform="scale(0.015625)"/>
        <path id="ArialMT-63" d="M 2588 1216 
L 3141 1144 
Q 3050 572 2676 248 
Q 2303 -75 1759 -75 
Q 1078 -75 664 370 
Q 250 816 250 1647 
Q 250 2184 428 2587 
Q 606 2991 970 3192 
Q 1334 3394 1763 3394 
Q 2303 3394 2647 3120 
Q 2991 2847 3088 2344 
L 2541 2259 
Q 2463 2594 2264 2762 
Q 2066 2931 1784 2931 
Q 1359 2931 1093 2626 
Q 828 2322 828 1663 
Q 828 994 1084 691 
Q 1341 388 1753 388 
Q 2084 388 2306 591 
Q 2528 794 2588 1216 
z
" transform="scale(0.015625)"/>
        <path id="ArialMT-74" d="M 1650 503 
L 1731 6 
Q 1494 -44 1306 -44 
Q 1000 -44 831 53 
Q 663 150 594 308 
Q 525 466 525 972 
L 525 2881 
L 113 2881 
L 113 3319 
L 525 3319 
L 525 4141 
L 1084 4478 
L 1084 3319 
L 1650 3319 
L 1650 2881 
L 1084 2881 
L 1084 941 
Q 1084 700 1114 631 
Q 1144 563 1211 522 
Q 1278 481 1403 481 
Q 1497 481 1650 503 
z
" transform="scale(0.015625)"/>
       </defs>
       <use xlink:href="#ArialMT-4f"/>
       <use xlink:href="#ArialMT-63" x="77.783203"/>
       <use xlink:href="#ArialMT-74" x="127.783203"/>
      </g>
     </g>
    </g>
    <g id="xtick_11">
     <g id="line2d_11">
      <path d="M 687.505269 248.937 
L 687.505269 27.177 
" clip-path="url(#p183df9adc6)" style="fill: none; stroke: #cccccc; stroke-width: 0.8; stroke-linecap: round"/>
     </g>
     <g id="text_11">
      <!-- Nov -->
      <g style="fill: #262626" transform="translate(671.856394 269.83475) scale(0.176 -0.176)">
       <defs>
        <path id="ArialMT-4e" d="M 488 0 
L 488 4581 
L 1109 4581 
L 3516 984 
L 3516 4581 
L 4097 4581 
L 4097 0 
L 3475 0 
L 1069 3600 
L 1069 0 
L 488 0 
z
" transform="scale(0.015625)"/>
        <path id="ArialMT-6f" d="M 213 1659 
Q 213 2581 725 3025 
Q 1153 3394 1769 3394 
Q 2453 3394 2887 2945 
Q 3322 2497 3322 1706 
Q 3322 1066 3130 698 
Q 2938 331 2570 128 
Q 2203 -75 1769 -75 
Q 1072 -75 642 372 
Q 213 819 213 1659 
z
M 791 1659 
Q 791 1022 1069 705 
Q 1347 388 1769 388 
Q 2188 388 2466 706 
Q 2744 1025 2744 1678 
Q 2744 2294 2464 2611 
Q 2184 2928 1769 2928 
Q 1347 2928 1069 2612 
Q 791 2297 791 1659 
z
" transform="scale(0.015625)"/>
        <path id="ArialMT-76" d="M 1344 0 
L 81 3319 
L 675 3319 
L 1388 1331 
Q 1503 1009 1600 663 
Q 1675 925 1809 1294 
L 2547 3319 
L 3125 3319 
L 1869 0 
L 1344 0 
z
" transform="scale(0.015625)"/>
       </defs>
       <use xlink:href="#ArialMT-4e"/>
       <use xlink:href="#ArialMT-6f" x="72.216797"/>
       <use xlink:href="#ArialMT-76" x="127.832031"/>
      </g>
     </g>
    </g>
    <g id="xtick_12">
     <g id="line2d_12">
      <path d="M 751.889885 248.937 
L 751.889885 27.177 
" clip-path="url(#p183df9adc6)" style="fill: none; stroke: #cccccc; stroke-width: 0.8; stroke-linecap: round"/>
     </g>
     <g id="text_12">
      <!-- Dec -->
      <g style="fill: #262626" transform="translate(736.24101 269.83475) scale(0.176 -0.176)">
       <defs>
        <path id="ArialMT-44" d="M 494 0 
L 494 4581 
L 2072 4581 
Q 2606 4581 2888 4516 
Q 3281 4425 3559 4188 
Q 3922 3881 4101 3404 
Q 4281 2928 4281 2316 
Q 4281 1794 4159 1391 
Q 4038 988 3847 723 
Q 3656 459 3429 307 
Q 3203 156 2883 78 
Q 2563 0 2147 0 
L 494 0 
z
M 1100 541 
L 2078 541 
Q 2531 541 2789 625 
Q 3047 709 3200 863 
Q 3416 1078 3536 1442 
Q 3656 1806 3656 2325 
Q 3656 3044 3420 3430 
Q 3184 3816 2847 3947 
Q 2603 4041 2063 4041 
L 1100 4041 
L 1100 541 
z
" transform="scale(0.015625)"/>
       </defs>
       <use xlink:href="#ArialMT-44"/>
       <use xlink:href="#ArialMT-65" x="72.216797"/>
       <use xlink:href="#ArialMT-63" x="127.832031"/>
      </g>
     </g>
    </g>
    <g id="xtick_13">
     <g id="line2d_13">
      <path d="M 816.2745 248.937 
L 816.2745 27.177 
" clip-path="url(#p183df9adc6)" style="fill: none; stroke: #cccccc; stroke-width: 0.8; stroke-linecap: round"/>
     </g>
    </g>
    <g id="xtick_14"/>
    <g id="xtick_15"/>
    <g id="xtick_16"/>
    <g id="xtick_17"/>
    <g id="xtick_18"/>
    <g id="xtick_19"/>
    <g id="xtick_20"/>
    <g id="xtick_21"/>
    <g id="xtick_22"/>
    <g id="xtick_23"/>
    <g id="xtick_24"/>
    <g id="xtick_25"/>
    <g id="xtick_26"/>
    <g id="xtick_27"/>
    <g id="xtick_28"/>
    <g id="xtick_29"/>
    <g id="xtick_30"/>
    <g id="xtick_31"/>
    <g id="xtick_32"/>
    <g id="xtick_33"/>
    <g id="xtick_34"/>
    <g id="xtick_35"/>
    <g id="xtick_36"/>
    <g id="xtick_37"/>
    <g id="xtick_38"/>
    <g id="xtick_39"/>
    <g id="xtick_40"/>
    <g id="xtick_41"/>
    <g id="xtick_42"/>
    <g id="xtick_43"/>
    <g id="xtick_44"/>
    <g id="xtick_45"/>
    <g id="xtick_46"/>
    <g id="xtick_47"/>
    <g id="xtick_48"/>
    <g id="xtick_49"/>
    <g id="xtick_50"/>
    <g id="xtick_51"/>
    <g id="xtick_52"/>
    <g id="xtick_53"/>
    <g id="xtick_54"/>
    <g id="xtick_55"/>
    <g id="xtick_56"/>
    <g id="xtick_57"/>
    <g id="xtick_58"/>
    <g id="xtick_59"/>
    <g id="xtick_60"/>
    <g id="xtick_61"/>
    <g id="xtick_62"/>
    <g id="xtick_63"/>
    <g id="text_13">
     <!-- ds -->
     <g style="fill: #262626" transform="translate(415.536 309.69105) scale(0.192 -0.192)">
      <defs>
       <path id="ArialMT-64" d="M 2575 0 
L 2575 419 
Q 2259 -75 1647 -75 
Q 1250 -75 917 144 
Q 584 363 401 755 
Q 219 1147 219 1656 
Q 219 2153 384 2558 
Q 550 2963 881 3178 
Q 1213 3394 1622 3394 
Q 1922 3394 2156 3267 
Q 2391 3141 2538 2938 
L 2538 4581 
L 3097 4581 
L 3097 0 
L 2575 0 
z
M 797 1656 
Q 797 1019 1065 703 
Q 1334 388 1700 388 
Q 2069 388 2326 689 
Q 2584 991 2584 1609 
Q 2584 2291 2321 2609 
Q 2059 2928 1675 2928 
Q 1300 2928 1048 2622 
Q 797 2316 797 1656 
z
" transform="scale(0.015625)"/>
       <path id="ArialMT-73" d="M 197 991 
L 753 1078 
Q 800 744 1014 566 
Q 1228 388 1613 388 
Q 2000 388 2187 545 
Q 2375 703 2375 916 
Q 2375 1106 2209 1216 
Q 2094 1291 1634 1406 
Q 1016 1563 777 1677 
Q 538 1791 414 1992 
Q 291 2194 291 2438 
Q 291 2659 392 2848 
Q 494 3038 669 3163 
Q 800 3259 1026 3326 
Q 1253 3394 1513 3394 
Q 1903 3394 2198 3281 
Q 2494 3169 2634 2976 
Q 2775 2784 2828 2463 
L 2278 2388 
Q 2241 2644 2061 2787 
Q 1881 2931 1553 2931 
Q 1166 2931 1000 2803 
Q 834 2675 834 2503 
Q 834 2394 903 2306 
Q 972 2216 1119 2156 
Q 1203 2125 1616 2013 
Q 2213 1853 2448 1751 
Q 2684 1650 2818 1456 
Q 2953 1263 2953 975 
Q 2953 694 2789 445 
Q 2625 197 2315 61 
Q 2006 -75 1616 -75 
Q 969 -75 630 194 
Q 291 463 197 991 
z
" transform="scale(0.015625)"/>
      </defs>
      <use xlink:href="#ArialMT-64"/>
      <use xlink:href="#ArialMT-73" x="55.615234"/>
     </g>
    </g>
   </g>
   <g id="matplotlib.axis_2">
    <g id="ytick_1">
     <g id="line2d_14">
      <path d="M 35.0745 208.124783 
L 816.2745 208.124783 
" clip-path="url(#p183df9adc6)" style="fill: none; stroke: #cccccc; stroke-width: 0.8; stroke-linecap: round"/>
     </g>
     <g id="text_14">
      <!-- 0 -->
      <g style="fill: #262626" transform="translate(16.98725 214.423658) scale(0.176 -0.176)">
       <use xlink:href="#ArialMT-30"/>
      </g>
     </g>
    </g>
    <g id="ytick_2">
     <g id="line2d_15">
      <path d="M 35.0745 146.297328 
L 816.2745 146.297328 
" clip-path="url(#p183df9adc6)" style="fill: none; stroke: #cccccc; stroke-width: 0.8; stroke-linecap: round"/>
     </g>
     <g id="text_15">
      <!-- 10 -->
      <g style="fill: #262626" transform="translate(7.2 152.596203) scale(0.176 -0.176)">
       <use xlink:href="#ArialMT-31"/>
       <use xlink:href="#ArialMT-30" x="55.615234"/>
      </g>
     </g>
    </g>
    <g id="ytick_3">
     <g id="line2d_16">
      <path d="M 35.0745 84.469874 
L 816.2745 84.469874 
" clip-path="url(#p183df9adc6)" style="fill: none; stroke: #cccccc; stroke-width: 0.8; stroke-linecap: round"/>
     </g>
     <g id="text_16">
      <!-- 20 -->
      <g style="fill: #262626" transform="translate(7.2 90.768749) scale(0.176 -0.176)">
       <use xlink:href="#ArialMT-32"/>
       <use xlink:href="#ArialMT-30" x="55.615234"/>
      </g>
     </g>
    </g>
   </g>
   <g id="line2d_17">
    <path d="M 35.0745 186.398627 
L 37.220654 189.570921 
L 39.366808 191.564917 
L 41.512962 192.884479 
L 43.659115 193.784353 
L 50.097577 195.848421 
L 56.536038 196.9193 
L 65.120654 198.570731 
L 69.412962 198.895146 
L 73.705269 199.103499 
L 80.143731 199.928749 
L 88.728346 200.344369 
L 90.8745 200.537202 
L 99.459115 200.920063 
L 101.605269 201.125573 
L 103.751423 201.181494 
L 105.897577 201.015135 
L 108.043731 200.70559 
L 110.189885 200.248377 
L 116.628346 199.463682 
L 118.7745 199.210989 
L 123.066808 198.344783 
L 129.505269 197.408388 
L 131.651423 197.226828 
L 135.943731 196.203026 
L 140.236038 195.258305 
L 142.382192 194.937957 
L 144.528346 194.387453 
L 150.966808 192.205907 
L 153.112962 191.545412 
L 161.697577 188.236477 
L 163.843731 187.271897 
L 165.989885 186.113434 
L 168.136038 185.150399 
L 170.282192 184.343286 
L 176.720654 182.412464 
L 181.012962 180.317641 
L 185.305269 178.66996 
L 189.597577 177.086761 
L 191.743731 176.140601 
L 198.182192 173.793463 
L 202.4745 171.852522 
L 206.766808 170.34607 
L 211.059115 168.923534 
L 215.351423 167.047819 
L 217.497577 166.119289 
L 221.789885 164.768818 
L 226.082192 163.078094 
L 230.3745 161.516098 
L 234.666808 159.831742 
L 241.105269 156.811314 
L 247.543731 154.436026 
L 253.982192 151.91484 
L 256.128346 150.874764 
L 258.2745 149.979289 
L 262.566808 148.784575 
L 264.712962 147.871718 
L 269.005269 145.656869 
L 273.297577 143.559617 
L 277.589885 142.130088 
L 284.028346 138.936827 
L 288.320654 136.389284 
L 292.612962 134.208611 
L 296.905269 132.229556 
L 316.220654 124.737379 
L 318.366808 123.793483 
L 320.512962 122.571222 
L 322.659115 121.549436 
L 326.951423 119.993561 
L 335.536038 116.610697 
L 339.828346 115.539689 
L 344.120654 114.625298 
L 346.266808 113.930216 
L 350.559115 112.372018 
L 354.851423 111.064283 
L 359.143731 110.105305 
L 361.289885 109.450683 
L 363.436038 109.027044 
L 365.582192 108.814776 
L 367.728346 108.485242 
L 389.189885 103.908184 
L 399.920654 102.591629 
L 402.066808 102.237519 
L 404.212962 101.765837 
L 408.505269 100.568671 
L 412.797577 99.444288 
L 417.089885 98.251226 
L 429.966808 95.388843 
L 438.551423 93.872096 
L 444.989885 92.189756 
L 447.136038 91.465711 
L 449.282192 90.885489 
L 453.5745 90.197647 
L 455.720654 89.588486 
L 457.866808 89.139445 
L 460.012962 88.937036 
L 462.159115 88.963027 
L 464.305269 88.871894 
L 466.451423 88.587196 
L 470.743731 87.662604 
L 475.036038 87.235876 
L 479.328346 86.934149 
L 483.620654 86.53676 
L 485.766808 86.434541 
L 487.912962 86.572327 
L 492.205269 87.145921 
L 496.497577 87.480196 
L 498.643731 87.519583 
L 502.936038 88.031856 
L 507.228346 88.799605 
L 511.520654 89.442163 
L 515.812962 90.319819 
L 520.105269 91.4784 
L 522.251423 92.086311 
L 524.397577 92.871584 
L 528.689885 94.129034 
L 532.982192 95.291412 
L 539.420654 97.339064 
L 545.859115 99.867079 
L 550.151423 101.002829 
L 556.589885 103.547329 
L 558.736038 104.660485 
L 560.882192 105.612835 
L 567.320654 107.990541 
L 575.905269 112.145445 
L 580.197577 113.625977 
L 584.489885 115.152064 
L 586.636038 116.018164 
L 588.782192 117.105305 
L 593.0745 118.858836 
L 597.366808 119.921154 
L 599.512962 120.653867 
L 603.805269 122.571788 
L 608.097577 124.563531 
L 614.536038 126.883488 
L 618.828346 128.787069 
L 625.266808 131.787639 
L 638.143731 136.740894 
L 640.289885 137.951469 
L 642.436038 138.936014 
L 644.582192 139.652169 
L 646.728346 140.49433 
L 651.020654 142.5346 
L 655.312962 144.662914 
L 657.459115 145.419507 
L 668.189885 149.832671 
L 672.482192 152.178854 
L 674.628346 153.119023 
L 676.7745 153.845557 
L 678.920654 154.803686 
L 689.651423 160.339628 
L 693.943731 162.173326 
L 698.236038 164.391807 
L 700.382192 165.752125 
L 702.528346 166.965754 
L 704.6745 167.935735 
L 708.966808 169.687226 
L 713.259115 171.815611 
L 715.405269 173.101104 
L 717.551423 174.075649 
L 721.843731 175.51815 
L 728.282192 178.338303 
L 730.428346 179.196537 
L 736.866808 180.972534 
L 739.012962 181.779906 
L 743.305269 183.835813 
L 745.451423 184.665273 
L 747.597577 185.338845 
L 751.889885 186.402778 
L 754.036038 187.136588 
L 769.059115 190.65535 
L 773.351423 191.447226 
L 779.789885 192.362749 
L 784.082192 192.623661 
L 788.3745 193.127502 
L 790.520654 193.185381 
L 796.959115 194.173546 
L 801.251423 194.781587 
L 809.836038 194.9735 
L 811.982192 195.093349 
L 816.2745 195.620481 
L 816.2745 195.620481 
" clip-path="url(#p183df9adc6)" style="fill: none; stroke: #4c72b0; stroke-width: 1.2; stroke-linecap: round"/>
   </g>
   <g id="line2d_18">
    <path d="M 35.0745 174.990002 
L 37.220654 198.383715 
L 39.366808 212.737616 
L 41.512962 201.695583 
L 43.659115 182.434293 
L 45.805269 187.422192 
L 50.097577 183.527701 
L 52.243731 200.881905 
L 54.389885 209.765026 
L 56.536038 203.190097 
L 58.682192 186.303973 
L 60.828346 174.90077 
L 62.9745 192.07191 
L 65.120654 188.674883 
L 67.266808 183.19119 
L 69.412962 187.054834 
L 71.559115 213.164009 
L 73.705269 226.452277 
L 75.851423 235.341733 
L 77.997577 234.073729 
L 80.143731 234.112433 
L 82.289885 238.857 
L 84.436038 237.019542 
L 86.582192 231.150999 
L 88.728346 196.511454 
L 90.8745 184.300784 
L 93.020654 198.053624 
L 95.166808 208.401989 
L 97.312962 213.41687 
L 99.459115 213.493987 
L 101.605269 206.996682 
L 103.751423 202.257656 
L 105.897577 205.073863 
L 108.043731 209.230845 
L 110.189885 206.225544 
L 112.336038 203.676885 
L 114.482192 196.159846 
L 116.628346 179.10432 
L 118.7745 169.000978 
L 120.920654 171.183652 
L 123.066808 187.517898 
L 125.212962 193.209216 
L 127.359115 185.669901 
L 129.505269 182.951732 
L 131.651423 178.357664 
L 133.797577 172.072316 
L 135.943731 172.014396 
L 138.089885 171.308038 
L 140.236038 173.728194 
L 142.382192 174.081054 
L 144.528346 165.635846 
L 146.6745 172.703422 
L 148.820654 196.513924 
L 150.966808 186.099906 
L 153.112962 171.921588 
L 155.259115 165.561753 
L 157.405269 160.632766 
L 159.551423 157.855819 
L 161.697577 170.82464 
L 163.843731 175.48515 
L 165.989885 152.773728 
L 168.136038 156.315535 
L 170.282192 176.017005 
L 172.428346 163.079293 
L 174.5745 152.887779 
L 176.720654 167.646864 
L 178.866808 163.401554 
L 181.012962 168.265409 
L 183.159115 190.796503 
L 185.305269 178.927821 
L 187.451423 174.680968 
L 189.597577 177.343444 
L 191.743731 163.358339 
L 193.889885 158.62115 
L 196.036038 162.675733 
L 198.182192 183.545569 
L 200.328346 186.470513 
L 202.4745 175.28764 
L 204.620654 157.605732 
L 206.766808 149.631593 
L 208.912962 154.113486 
L 211.059115 165.554259 
L 213.205269 180.645215 
L 215.351423 179.219034 
L 217.497577 169.533459 
L 219.643731 158.438393 
L 221.789885 149.779443 
L 223.936038 145.298604 
L 226.082192 156.311441 
L 228.228346 164.278615 
L 230.3745 147.11443 
L 232.520654 147.47838 
L 234.666808 162.063777 
L 236.812962 162.709081 
L 238.959115 141.681878 
L 241.105269 137.392333 
L 243.251423 142.677169 
L 245.397577 157.668216 
L 247.543731 170.002302 
L 249.689885 180.460817 
L 251.836038 189.172143 
L 253.982192 190.272183 
L 256.128346 183.656861 
L 258.2745 159.567337 
L 260.420654 150.444611 
L 264.712962 127.140911 
L 266.859115 119.458358 
L 269.005269 121.824561 
L 271.151423 122.078002 
L 273.297577 119.683255 
L 275.443731 119.121447 
L 277.589885 108.618894 
L 279.736038 112.168223 
L 281.882192 136.696457 
L 284.028346 149.375815 
L 286.1745 160.479622 
L 288.320654 158.634118 
L 290.466808 144.954542 
L 292.612962 140.604833 
L 294.759115 143.051256 
L 296.905269 158.361207 
L 299.051423 178.922934 
L 301.197577 177.855352 
L 303.343731 171.821713 
L 305.489885 163.351458 
L 307.636038 149.119628 
L 309.782192 139.002905 
L 311.928346 141.306727 
L 314.0745 150.522369 
L 316.220654 155.896754 
L 318.366808 153.385923 
L 320.512962 157.465543 
L 322.659115 158.124225 
L 324.805269 155.534675 
L 326.951423 135.66237 
L 329.097577 117.600041 
L 331.243731 110.940631 
L 333.389885 118.813721 
L 335.536038 124.755432 
L 337.682192 134.36261 
L 339.828346 125.323516 
L 341.9745 112.485723 
L 344.120654 124.49846 
L 346.266808 114.640592 
L 348.412962 113.589858 
L 350.559115 131.581297 
L 352.705269 138.707869 
L 354.851423 120.865241 
L 356.997577 101.445799 
L 359.143731 90.724362 
L 361.289885 73.98149 
L 363.436038 77.810163 
L 365.582192 79.037912 
L 367.728346 65.417556 
L 369.8745 106.147904 
L 372.020654 104.558127 
L 374.166808 112.325873 
L 378.459115 95.24819 
L 380.605269 96.833113 
L 382.751423 102.296594 
L 384.897577 100.047438 
L 387.043731 82.148866 
L 389.189885 82.233469 
L 391.336038 103.73899 
L 393.482192 89.189027 
L 395.628346 73.619836 
L 397.7745 67.738309 
L 399.920654 90.700773 
L 402.066808 97.554877 
L 404.212962 96.524857 
L 408.505269 68.498397 
L 410.651423 51.445607 
L 412.797577 47.286055 
L 414.943731 79.713462 
L 417.089885 91.233037 
L 419.236038 71.46594 
L 421.382192 49.82443 
L 425.6745 98.49662 
L 427.820654 108.098354 
L 429.966808 103.161179 
L 432.112962 91.888859 
L 434.259115 89.159868 
L 436.405269 112.580295 
L 438.551423 120.90385 
L 440.697577 122.085177 
L 442.843731 112.045532 
L 444.989885 108.084293 
L 447.136038 105.036457 
L 449.282192 107.768347 
L 451.428346 113.437409 
L 453.5745 113.900716 
L 455.720654 111.119362 
L 457.866808 102.338884 
L 460.012962 89.082578 
L 462.159115 87.242915 
L 464.305269 74.680736 
L 466.451423 83.933869 
L 468.597577 80.988834 
L 470.743731 60.522146 
L 472.889885 45.269815 
L 475.036038 37.257 
L 477.182192 47.556099 
L 479.328346 69.504407 
L 481.4745 77.937546 
L 483.620654 80.289421 
L 485.766808 73.889254 
L 487.912962 91.52376 
L 490.059115 93.329673 
L 492.205269 93.68261 
L 494.351423 98.066991 
L 496.497577 91.688304 
L 498.643731 83.412872 
L 500.789885 83.6602 
L 502.936038 94.107929 
L 505.082192 91.051947 
L 507.228346 79.297917 
L 509.3745 79.722332 
L 511.520654 84.902329 
L 513.666808 102.535884 
L 515.812962 113.405772 
L 517.959115 113.327032 
L 520.105269 109.118355 
L 522.251423 102.137388 
L 524.397577 95.793765 
L 526.543731 85.588464 
L 528.689885 97.231648 
L 530.836038 107.323973 
L 532.982192 110.099209 
L 535.128346 99.427079 
L 537.2745 90.281456 
L 539.420654 80.25548 
L 541.566808 69.283655 
L 543.712962 65.771722 
L 545.859115 64.441604 
L 548.005269 63.654283 
L 550.151423 77.417832 
L 552.297577 79.410933 
L 554.443731 65.751857 
L 556.589885 88.602779 
L 558.736038 115.68601 
L 560.882192 114.282021 
L 563.028346 102.128694 
L 565.1745 118.825973 
L 567.320654 126.175264 
L 569.466808 128.104703 
L 571.612962 131.342359 
L 573.759115 133.937443 
L 575.905269 128.763426 
L 578.051423 120.21332 
L 580.197577 103.180111 
L 582.343731 105.286353 
L 584.489885 119.224516 
L 586.636038 107.794531 
L 588.782192 116.415573 
L 590.928346 128.623762 
L 593.0745 141.758037 
L 595.220654 147.76074 
L 597.366808 144.313461 
L 599.512962 125.145667 
L 601.659115 111.159276 
L 603.805269 119.504759 
L 605.951423 120.13907 
L 608.097577 121.046669 
L 610.243731 116.470082 
L 612.389885 115.339923 
L 614.536038 120.128889 
L 616.682192 116.417191 
L 618.828346 122.054044 
L 620.9745 123.65724 
L 623.120654 144.435632 
L 625.266808 154.383594 
L 627.412962 153.401749 
L 629.559115 153.684591 
L 631.705269 163.337261 
L 633.851423 161.220425 
L 635.997577 139.368995 
L 638.143731 139.01917 
L 640.289885 143.988325 
L 642.436038 132.36005 
L 644.582192 117.935723 
L 646.728346 102.305611 
L 648.8745 107.862572 
L 651.020654 118.486541 
L 653.166808 133.050062 
L 655.312962 126.602103 
L 657.459115 127.442276 
L 659.605269 134.589105 
L 661.751423 128.807903 
L 663.897577 126.358487 
L 666.043731 136.046947 
L 668.189885 135.950403 
L 670.336038 127.891911 
L 672.482192 127.589417 
L 674.628346 125.118179 
L 676.7745 141.024781 
L 678.920654 166.789348 
L 681.066808 175.938773 
L 683.212962 188.591738 
L 685.359115 194.411263 
L 687.505269 181.59101 
L 689.651423 137.586986 
L 693.943731 148.209329 
L 696.089885 158.733277 
L 698.236038 165.790592 
L 700.382192 167.176491 
L 702.528346 174.999207 
L 704.6745 180.199625 
L 706.820654 194.334014 
L 708.966808 195.671059 
L 711.112962 182.919216 
L 713.259115 186.421455 
L 715.405269 186.069812 
L 717.551423 179.883197 
L 719.697577 182.579868 
L 721.843731 186.052737 
L 723.989885 177.368224 
L 726.136038 182.582633 
L 728.282192 191.978113 
L 730.428346 182.104554 
L 732.5745 179.052741 
L 734.720654 172.764938 
L 736.866808 179.346274 
L 739.012962 183.591051 
L 741.159115 169.845803 
L 743.305269 161.745317 
L 745.451423 154.345089 
L 747.597577 177.777601 
L 749.743731 198.324698 
L 751.889885 206.410511 
L 754.036038 197.34734 
L 756.182192 192.369117 
L 758.328346 199.150597 
L 760.4745 210.322319 
L 762.620654 194.749044 
L 764.766808 164.78249 
L 766.912962 159.771112 
L 769.059115 171.534685 
L 771.205269 193.904002 
L 773.351423 197.816397 
L 775.497577 195.27651 
L 777.643731 197.980595 
L 779.789885 180.594166 
L 781.936038 167.893411 
L 784.082192 169.515385 
L 786.228346 156.254385 
L 790.520654 173.296625 
L 792.666808 167.025964 
L 794.812962 173.492425 
L 796.959115 178.019462 
L 799.105269 170.876117 
L 801.251423 172.982138 
L 803.397577 174.841374 
L 805.543731 186.799638 
L 807.689885 192.4143 
L 809.836038 210.77918 
L 811.982192 214.814276 
L 814.128346 193.122343 
L 816.2745 191.319939 
L 816.2745 191.319939 
" clip-path="url(#p183df9adc6)" style="fill: none; stroke: #dd8452; stroke-width: 1.2; stroke-linecap: round"/>
   </g>
   <g id="patch_3">
    <path d="M 35.0745 248.937 
L 35.0745 27.177 
" style="fill: none; stroke: #cccccc; stroke-linejoin: miter; stroke-linecap: square"/>
   </g>
   <g id="patch_4">
    <path d="M 816.2745 248.937 
L 816.2745 27.177 
" style="fill: none; stroke: #cccccc; stroke-linejoin: miter; stroke-linecap: square"/>
   </g>
   <g id="patch_5">
    <path d="M 35.0745 248.937 
L 816.2745 248.937 
" style="fill: none; stroke: #cccccc; stroke-linejoin: miter; stroke-linecap: square"/>
   </g>
   <g id="patch_6">
    <path d="M 35.0745 27.177 
L 816.2745 27.177 
" style="fill: none; stroke: #cccccc; stroke-linejoin: miter; stroke-linecap: square"/>
   </g>
   <g id="text_17">
    <!-- Prediction for a whole year -->
    <g style="fill: #262626" transform="translate(312.024 21.177) scale(0.192 -0.192)">
     <defs>
      <path id="ArialMT-50" d="M 494 0 
L 494 4581 
L 2222 4581 
Q 2678 4581 2919 4538 
Q 3256 4481 3484 4323 
Q 3713 4166 3852 3881 
Q 3991 3597 3991 3256 
Q 3991 2672 3619 2267 
Q 3247 1863 2275 1863 
L 1100 1863 
L 1100 0 
L 494 0 
z
M 1100 2403 
L 2284 2403 
Q 2872 2403 3119 2622 
Q 3366 2841 3366 3238 
Q 3366 3525 3220 3729 
Q 3075 3934 2838 4000 
Q 2684 4041 2272 4041 
L 1100 4041 
L 1100 2403 
z
" transform="scale(0.015625)"/>
      <path id="ArialMT-69" d="M 425 3934 
L 425 4581 
L 988 4581 
L 988 3934 
L 425 3934 
z
M 425 0 
L 425 3319 
L 988 3319 
L 988 0 
L 425 0 
z
" transform="scale(0.015625)"/>
      <path id="ArialMT-20" transform="scale(0.015625)"/>
      <path id="ArialMT-66" d="M 556 0 
L 556 2881 
L 59 2881 
L 59 3319 
L 556 3319 
L 556 3672 
Q 556 4006 616 4169 
Q 697 4388 901 4523 
Q 1106 4659 1475 4659 
Q 1713 4659 2000 4603 
L 1916 4113 
Q 1741 4144 1584 4144 
Q 1328 4144 1222 4034 
Q 1116 3925 1116 3625 
L 1116 3319 
L 1763 3319 
L 1763 2881 
L 1116 2881 
L 1116 0 
L 556 0 
z
" transform="scale(0.015625)"/>
      <path id="ArialMT-77" d="M 1034 0 
L 19 3319 
L 600 3319 
L 1128 1403 
L 1325 691 
Q 1338 744 1497 1375 
L 2025 3319 
L 2603 3319 
L 3100 1394 
L 3266 759 
L 3456 1400 
L 4025 3319 
L 4572 3319 
L 3534 0 
L 2950 0 
L 2422 1988 
L 2294 2553 
L 1622 0 
L 1034 0 
z
" transform="scale(0.015625)"/>
      <path id="ArialMT-68" d="M 422 0 
L 422 4581 
L 984 4581 
L 984 2938 
Q 1378 3394 1978 3394 
Q 2347 3394 2619 3248 
Q 2891 3103 3008 2847 
Q 3125 2591 3125 2103 
L 3125 0 
L 2563 0 
L 2563 2103 
Q 2563 2525 2380 2717 
Q 2197 2909 1863 2909 
Q 1613 2909 1392 2779 
Q 1172 2650 1078 2428 
Q 984 2206 984 1816 
L 984 0 
L 422 0 
z
" transform="scale(0.015625)"/>
     </defs>
     <use xlink:href="#ArialMT-50"/>
     <use xlink:href="#ArialMT-72" x="66.699219"/>
     <use xlink:href="#ArialMT-65" x="100"/>
     <use xlink:href="#ArialMT-64" x="155.615234"/>
     <use xlink:href="#ArialMT-69" x="211.230469"/>
     <use xlink:href="#ArialMT-63" x="233.447266"/>
     <use xlink:href="#ArialMT-74" x="283.447266"/>
     <use xlink:href="#ArialMT-69" x="311.230469"/>
     <use xlink:href="#ArialMT-6f" x="333.447266"/>
     <use xlink:href="#ArialMT-6e" x="389.0625"/>
     <use xlink:href="#ArialMT-20" x="444.677734"/>
     <use xlink:href="#ArialMT-66" x="472.460938"/>
     <use xlink:href="#ArialMT-6f" x="500.244141"/>
     <use xlink:href="#ArialMT-72" x="555.859375"/>
     <use xlink:href="#ArialMT-20" x="589.160156"/>
     <use xlink:href="#ArialMT-61" x="616.943359"/>
     <use xlink:href="#ArialMT-20" x="672.558594"/>
     <use xlink:href="#ArialMT-77" x="700.341797"/>
     <use xlink:href="#ArialMT-68" x="772.558594"/>
     <use xlink:href="#ArialMT-6f" x="828.173828"/>
     <use xlink:href="#ArialMT-6c" x="883.789062"/>
     <use xlink:href="#ArialMT-65" x="906.005859"/>
     <use xlink:href="#ArialMT-20" x="961.621094"/>
     <use xlink:href="#ArialMT-79" x="989.404297"/>
     <use xlink:href="#ArialMT-65" x="1039.404297"/>
     <use xlink:href="#ArialMT-61" x="1095.019531"/>
     <use xlink:href="#ArialMT-72" x="1150.634766"/>
    </g>
   </g>
   <g id="legend_1">
    <g id="patch_7">
     <path d="M 738.8345 66.359 
L 803.9545 66.359 
Q 807.4745 66.359 807.4745 62.839 
L 807.4745 39.497 
Q 807.4745 35.977 803.9545 35.977 
L 738.8345 35.977 
Q 735.3145 35.977 735.3145 39.497 
L 735.3145 62.839 
Q 735.3145 66.359 738.8345 66.359 
z
" style="fill: #ffffff; opacity: 0.8; stroke: #cccccc; stroke-width: 0.8; stroke-linejoin: miter"/>
    </g>
    <g id="line2d_19">
     <path d="M 742.3545 49.45475 
L 759.9545 49.45475 
L 777.5545 49.45475 
" style="fill: none; stroke: #dd8452; stroke-width: 1.2; stroke-linecap: round"/>
    </g>
    <g id="text_18">
     <!-- y -->
     <g style="fill: #262626" transform="translate(791.6345 55.61475) scale(0.176 -0.176)">
      <use xlink:href="#ArialMT-79"/>
     </g>
    </g>
   </g>
  </g>
 </g>
 <defs>
  <clipPath id="p183df9adc6">
   <rect x="35.0745" y="27.177" width="781.2" height="221.76"/>
  </clipPath>
 </defs>
</svg>
