<?xml version="1.0" encoding="utf-8" standalone="no"?>
<!DOCTYPE svg PUBLIC "-//W3C//DTD SVG 1.1//EN"
  "http://www.w3.org/Graphics/SVG/1.1/DTD/svg11.dtd">
<svg xmlns:xlink="http://www.w3.org/1999/xlink" width="894.843pt" height="296.1305pt" viewBox="0 0 894.843 296.1305" xmlns="http://www.w3.org/2000/svg" version="1.1">
 <metadata>
  <rdf:RDF xmlns:dc="http://purl.org/dc/elements/1.1/" xmlns:cc="http://creativecommons.org/ns#" xmlns:rdf="http://www.w3.org/1999/02/22-rdf-syntax-ns#">
   <cc:Work>
    <dc:type rdf:resource="http://purl.org/dc/dcmitype/StillImage"/>
    <dc:date>2023-05-13T17:11:13.026304</dc:date>
    <dc:format>image/svg+xml</dc:format>
    <dc:creator>
     <cc:Agent>
      <dc:title>Matplotlib v3.6.2, https://matplotlib.org/</dc:title>
     </cc:Agent>
    </dc:creator>
   </cc:Work>
  </rdf:RDF>
 </metadata>
 <defs>
  <style type="text/css">*{stroke-linejoin: round; stroke-linecap: butt}</style>
 </defs>
 <g id="figure_1">
  <g id="patch_1">
   <path d="M 0 296.1305 
L 894.843 296.1305 
L 894.843 0 
L 0 0 
z
" style="fill: #ffffff"/>
  </g>
  <g id="axes_1">
   <g id="patch_2">
    <path d="M 56.8215 264.53475 
L 838.0215 264.53475 
L 838.0215 42.77475 
L 56.8215 42.77475 
z
" style="fill: #ffffff"/>
   </g>
   <g id="matplotlib.axis_1">
    <g id="xtick_1">
     <g id="line2d_1">
      <path d="M 92.330591 264.53475 
L 92.330591 42.77475 
" clip-path="url(#pe43563d1f9)" style="fill: none; stroke: #cccccc; stroke-width: 0.8; stroke-linecap: round"/>
     </g>
     <g id="text_1">
      <!-- 2020-01 -->
      <g style="fill: #262626" transform="translate(60.038716 285.4325) scale(0.176 -0.176)">
       <defs>
        <path id="ArialMT-32" d="M 3222 541 
L 3222 0 
L 194 0 
Q 188 203 259 391 
Q 375 700 629 1000 
Q 884 1300 1366 1694 
Q 2113 2306 2375 2664 
Q 2638 3022 2638 3341 
Q 2638 3675 2398 3904 
Q 2159 4134 1775 4134 
Q 1369 4134 1125 3890 
Q 881 3647 878 3216 
L 300 3275 
Q 359 3922 746 4261 
Q 1134 4600 1788 4600 
Q 2447 4600 2831 4234 
Q 3216 3869 3216 3328 
Q 3216 3053 3103 2787 
Q 2991 2522 2730 2228 
Q 2469 1934 1863 1422 
Q 1356 997 1212 845 
Q 1069 694 975 541 
L 3222 541 
z
" transform="scale(0.015625)"/>
        <path id="ArialMT-30" d="M 266 2259 
Q 266 3072 433 3567 
Q 600 4063 929 4331 
Q 1259 4600 1759 4600 
Q 2128 4600 2406 4451 
Q 2684 4303 2865 4023 
Q 3047 3744 3150 3342 
Q 3253 2941 3253 2259 
Q 3253 1453 3087 958 
Q 2922 463 2592 192 
Q 2263 -78 1759 -78 
Q 1097 -78 719 397 
Q 266 969 266 2259 
z
M 844 2259 
Q 844 1131 1108 757 
Q 1372 384 1759 384 
Q 2147 384 2411 759 
Q 2675 1134 2675 2259 
Q 2675 3391 2411 3762 
Q 2147 4134 1753 4134 
Q 1366 4134 1134 3806 
Q 844 3388 844 2259 
z
" transform="scale(0.015625)"/>
        <path id="ArialMT-2d" d="M 203 1375 
L 203 1941 
L 1931 1941 
L 1931 1375 
L 203 1375 
z
" transform="scale(0.015625)"/>
        <path id="ArialMT-31" d="M 2384 0 
L 1822 0 
L 1822 3584 
Q 1619 3391 1289 3197 
Q 959 3003 697 2906 
L 697 3450 
Q 1169 3672 1522 3987 
Q 1875 4303 2022 4600 
L 2384 4600 
L 2384 0 
z
" transform="scale(0.015625)"/>
       </defs>
       <use xlink:href="#ArialMT-32"/>
       <use xlink:href="#ArialMT-30" x="55.615234"/>
       <use xlink:href="#ArialMT-32" x="111.230469"/>
       <use xlink:href="#ArialMT-30" x="166.845703"/>
       <use xlink:href="#ArialMT-2d" x="222.460938"/>
       <use xlink:href="#ArialMT-30" x="255.761719"/>
       <use xlink:href="#ArialMT-31" x="311.376953"/>
      </g>
     </g>
    </g>
    <g id="xtick_2">
     <g id="line2d_2">
      <path d="M 170.807303 264.53475 
L 170.807303 42.77475 
" clip-path="url(#pe43563d1f9)" style="fill: none; stroke: #cccccc; stroke-width: 0.8; stroke-linecap: round"/>
     </g>
     <g id="text_2">
      <!-- 2020-05 -->
      <g style="fill: #262626" transform="translate(138.515428 285.4325) scale(0.176 -0.176)">
       <defs>
        <path id="ArialMT-35" d="M 266 1200 
L 856 1250 
Q 922 819 1161 601 
Q 1400 384 1738 384 
Q 2144 384 2425 690 
Q 2706 997 2706 1503 
Q 2706 1984 2436 2262 
Q 2166 2541 1728 2541 
Q 1456 2541 1237 2417 
Q 1019 2294 894 2097 
L 366 2166 
L 809 4519 
L 3088 4519 
L 3088 3981 
L 1259 3981 
L 1013 2750 
Q 1425 3038 1878 3038 
Q 2478 3038 2890 2622 
Q 3303 2206 3303 1553 
Q 3303 931 2941 478 
Q 2500 -78 1738 -78 
Q 1113 -78 717 272 
Q 322 622 266 1200 
z
" transform="scale(0.015625)"/>
       </defs>
       <use xlink:href="#ArialMT-32"/>
       <use xlink:href="#ArialMT-30" x="55.615234"/>
       <use xlink:href="#ArialMT-32" x="111.230469"/>
       <use xlink:href="#ArialMT-30" x="166.845703"/>
       <use xlink:href="#ArialMT-2d" x="222.460938"/>
       <use xlink:href="#ArialMT-30" x="255.761719"/>
       <use xlink:href="#ArialMT-35" x="311.376953"/>
      </g>
     </g>
    </g>
    <g id="xtick_3">
     <g id="line2d_3">
      <path d="M 250.581151 264.53475 
L 250.581151 42.77475 
" clip-path="url(#pe43563d1f9)" style="fill: none; stroke: #cccccc; stroke-width: 0.8; stroke-linecap: round"/>
     </g>
     <g id="text_3">
      <!-- 2020-09 -->
      <g style="fill: #262626" transform="translate(218.289276 285.4325) scale(0.176 -0.176)">
       <defs>
        <path id="ArialMT-39" d="M 350 1059 
L 891 1109 
Q 959 728 1153 556 
Q 1347 384 1650 384 
Q 1909 384 2104 503 
Q 2300 622 2425 820 
Q 2550 1019 2634 1356 
Q 2719 1694 2719 2044 
Q 2719 2081 2716 2156 
Q 2547 1888 2255 1720 
Q 1963 1553 1622 1553 
Q 1053 1553 659 1965 
Q 266 2378 266 3053 
Q 266 3750 677 4175 
Q 1088 4600 1706 4600 
Q 2153 4600 2523 4359 
Q 2894 4119 3086 3673 
Q 3278 3228 3278 2384 
Q 3278 1506 3087 986 
Q 2897 466 2520 194 
Q 2144 -78 1638 -78 
Q 1100 -78 759 220 
Q 419 519 350 1059 
z
M 2653 3081 
Q 2653 3566 2395 3850 
Q 2138 4134 1775 4134 
Q 1400 4134 1122 3828 
Q 844 3522 844 3034 
Q 844 2597 1108 2323 
Q 1372 2050 1759 2050 
Q 2150 2050 2401 2323 
Q 2653 2597 2653 3081 
z
" transform="scale(0.015625)"/>
       </defs>
       <use xlink:href="#ArialMT-32"/>
       <use xlink:href="#ArialMT-30" x="55.615234"/>
       <use xlink:href="#ArialMT-32" x="111.230469"/>
       <use xlink:href="#ArialMT-30" x="166.845703"/>
       <use xlink:href="#ArialMT-2d" x="222.460938"/>
       <use xlink:href="#ArialMT-30" x="255.761719"/>
       <use xlink:href="#ArialMT-39" x="311.376953"/>
      </g>
     </g>
    </g>
    <g id="xtick_4">
     <g id="line2d_4">
      <path d="M 329.706432 264.53475 
L 329.706432 42.77475 
" clip-path="url(#pe43563d1f9)" style="fill: none; stroke: #cccccc; stroke-width: 0.8; stroke-linecap: round"/>
     </g>
     <g id="text_4">
      <!-- 2021-01 -->
      <g style="fill: #262626" transform="translate(297.414557 285.4325) scale(0.176 -0.176)">
       <use xlink:href="#ArialMT-32"/>
       <use xlink:href="#ArialMT-30" x="55.615234"/>
       <use xlink:href="#ArialMT-32" x="111.230469"/>
       <use xlink:href="#ArialMT-31" x="166.845703"/>
       <use xlink:href="#ArialMT-2d" x="222.460938"/>
       <use xlink:href="#ArialMT-30" x="255.761719"/>
       <use xlink:href="#ArialMT-31" x="311.376953"/>
      </g>
     </g>
    </g>
    <g id="xtick_5">
     <g id="line2d_5">
      <path d="M 407.534576 264.53475 
L 407.534576 42.77475 
" clip-path="url(#pe43563d1f9)" style="fill: none; stroke: #cccccc; stroke-width: 0.8; stroke-linecap: round"/>
     </g>
     <g id="text_5">
      <!-- 2021-05 -->
      <g style="fill: #262626" transform="translate(375.242701 285.4325) scale(0.176 -0.176)">
       <use xlink:href="#ArialMT-32"/>
       <use xlink:href="#ArialMT-30" x="55.615234"/>
       <use xlink:href="#ArialMT-32" x="111.230469"/>
       <use xlink:href="#ArialMT-31" x="166.845703"/>
       <use xlink:href="#ArialMT-2d" x="222.460938"/>
       <use xlink:href="#ArialMT-30" x="255.761719"/>
       <use xlink:href="#ArialMT-35" x="311.376953"/>
      </g>
     </g>
    </g>
    <g id="xtick_6">
     <g id="line2d_6">
      <path d="M 487.308424 264.53475 
L 487.308424 42.77475 
" clip-path="url(#pe43563d1f9)" style="fill: none; stroke: #cccccc; stroke-width: 0.8; stroke-linecap: round"/>
     </g>
     <g id="text_6">
      <!-- 2021-09 -->
      <g style="fill: #262626" transform="translate(455.016549 285.4325) scale(0.176 -0.176)">
       <use xlink:href="#ArialMT-32"/>
       <use xlink:href="#ArialMT-30" x="55.615234"/>
       <use xlink:href="#ArialMT-32" x="111.230469"/>
       <use xlink:href="#ArialMT-31" x="166.845703"/>
       <use xlink:href="#ArialMT-2d" x="222.460938"/>
       <use xlink:href="#ArialMT-30" x="255.761719"/>
       <use xlink:href="#ArialMT-39" x="311.376953"/>
      </g>
     </g>
    </g>
    <g id="xtick_7">
     <g id="line2d_7">
      <path d="M 566.433704 264.53475 
L 566.433704 42.77475 
" clip-path="url(#pe43563d1f9)" style="fill: none; stroke: #cccccc; stroke-width: 0.8; stroke-linecap: round"/>
     </g>
     <g id="text_7">
      <!-- 2022-01 -->
      <g style="fill: #262626" transform="translate(534.141829 285.4325) scale(0.176 -0.176)">
       <use xlink:href="#ArialMT-32"/>
       <use xlink:href="#ArialMT-30" x="55.615234"/>
       <use xlink:href="#ArialMT-32" x="111.230469"/>
       <use xlink:href="#ArialMT-32" x="166.845703"/>
       <use xlink:href="#ArialMT-2d" x="222.460938"/>
       <use xlink:href="#ArialMT-30" x="255.761719"/>
       <use xlink:href="#ArialMT-31" x="311.376953"/>
      </g>
     </g>
    </g>
    <g id="xtick_8">
     <g id="line2d_8">
      <path d="M 644.261849 264.53475 
L 644.261849 42.77475 
" clip-path="url(#pe43563d1f9)" style="fill: none; stroke: #cccccc; stroke-width: 0.8; stroke-linecap: round"/>
     </g>
     <g id="text_8">
      <!-- 2022-05 -->
      <g style="fill: #262626" transform="translate(611.969974 285.4325) scale(0.176 -0.176)">
       <use xlink:href="#ArialMT-32"/>
       <use xlink:href="#ArialMT-30" x="55.615234"/>
       <use xlink:href="#ArialMT-32" x="111.230469"/>
       <use xlink:href="#ArialMT-32" x="166.845703"/>
       <use xlink:href="#ArialMT-2d" x="222.460938"/>
       <use xlink:href="#ArialMT-30" x="255.761719"/>
       <use xlink:href="#ArialMT-35" x="311.376953"/>
      </g>
     </g>
    </g>
    <g id="xtick_9">
     <g id="line2d_9">
      <path d="M 724.035697 264.53475 
L 724.035697 42.77475 
" clip-path="url(#pe43563d1f9)" style="fill: none; stroke: #cccccc; stroke-width: 0.8; stroke-linecap: round"/>
     </g>
     <g id="text_9">
      <!-- 2022-09 -->
      <g style="fill: #262626" transform="translate(691.743822 285.4325) scale(0.176 -0.176)">
       <use xlink:href="#ArialMT-32"/>
       <use xlink:href="#ArialMT-30" x="55.615234"/>
       <use xlink:href="#ArialMT-32" x="111.230469"/>
       <use xlink:href="#ArialMT-32" x="166.845703"/>
       <use xlink:href="#ArialMT-2d" x="222.460938"/>
       <use xlink:href="#ArialMT-30" x="255.761719"/>
       <use xlink:href="#ArialMT-39" x="311.376953"/>
      </g>
     </g>
    </g>
    <g id="xtick_10">
     <g id="line2d_10">
      <path d="M 803.160977 264.53475 
L 803.160977 42.77475 
" clip-path="url(#pe43563d1f9)" style="fill: none; stroke: #cccccc; stroke-width: 0.8; stroke-linecap: round"/>
     </g>
     <g id="text_10">
      <!-- 2023-01 -->
      <g style="fill: #262626" transform="translate(770.869102 285.4325) scale(0.176 -0.176)">
       <defs>
        <path id="ArialMT-33" d="M 269 1209 
L 831 1284 
Q 928 806 1161 595 
Q 1394 384 1728 384 
Q 2125 384 2398 659 
Q 2672 934 2672 1341 
Q 2672 1728 2419 1979 
Q 2166 2231 1775 2231 
Q 1616 2231 1378 2169 
L 1441 2663 
Q 1497 2656 1531 2656 
Q 1891 2656 2178 2843 
Q 2466 3031 2466 3422 
Q 2466 3731 2256 3934 
Q 2047 4138 1716 4138 
Q 1388 4138 1169 3931 
Q 950 3725 888 3313 
L 325 3413 
Q 428 3978 793 4289 
Q 1159 4600 1703 4600 
Q 2078 4600 2393 4439 
Q 2709 4278 2876 4000 
Q 3044 3722 3044 3409 
Q 3044 3113 2884 2869 
Q 2725 2625 2413 2481 
Q 2819 2388 3044 2092 
Q 3269 1797 3269 1353 
Q 3269 753 2831 336 
Q 2394 -81 1725 -81 
Q 1122 -81 723 278 
Q 325 638 269 1209 
z
" transform="scale(0.015625)"/>
       </defs>
       <use xlink:href="#ArialMT-32"/>
       <use xlink:href="#ArialMT-30" x="55.615234"/>
       <use xlink:href="#ArialMT-32" x="111.230469"/>
       <use xlink:href="#ArialMT-33" x="166.845703"/>
       <use xlink:href="#ArialMT-2d" x="222.460938"/>
       <use xlink:href="#ArialMT-30" x="255.761719"/>
       <use xlink:href="#ArialMT-31" x="311.376953"/>
      </g>
     </g>
    </g>
   </g>
   <g id="matplotlib.axis_2">
    <g id="ytick_1">
     <g id="line2d_11">
      <path d="M 56.8215 264.53475 
L 838.0215 264.53475 
" clip-path="url(#pe43563d1f9)" style="fill: none; stroke: #cccccc; stroke-width: 0.8; stroke-linecap: round"/>
     </g>
     <g id="text_11">
      <!-- 0 -->
      <g style="fill: #262626" transform="translate(38.73425 270.833625) scale(0.176 -0.176)">
       <use xlink:href="#ArialMT-30"/>
      </g>
     </g>
    </g>
    <g id="ytick_2">
     <g id="line2d_12">
      <path d="M 56.8215 201.17475 
L 838.0215 201.17475 
" clip-path="url(#pe43563d1f9)" style="fill: none; stroke: #cccccc; stroke-width: 0.8; stroke-linecap: round"/>
     </g>
     <g id="text_12">
      <!-- 2 -->
      <g style="fill: #262626" transform="translate(38.73425 207.473625) scale(0.176 -0.176)">
       <use xlink:href="#ArialMT-32"/>
      </g>
     </g>
    </g>
    <g id="ytick_3">
     <g id="line2d_13">
      <path d="M 56.8215 137.81475 
L 838.0215 137.81475 
" clip-path="url(#pe43563d1f9)" style="fill: none; stroke: #cccccc; stroke-width: 0.8; stroke-linecap: round"/>
     </g>
     <g id="text_13">
      <!-- 4 -->
      <g style="fill: #262626" transform="translate(38.73425 144.113625) scale(0.176 -0.176)">
       <defs>
        <path id="ArialMT-34" d="M 2069 0 
L 2069 1097 
L 81 1097 
L 81 1613 
L 2172 4581 
L 2631 4581 
L 2631 1613 
L 3250 1613 
L 3250 1097 
L 2631 1097 
L 2631 0 
L 2069 0 
z
M 2069 1613 
L 2069 3678 
L 634 1613 
L 2069 1613 
z
" transform="scale(0.015625)"/>
       </defs>
       <use xlink:href="#ArialMT-34"/>
      </g>
     </g>
    </g>
    <g id="ytick_4">
     <g id="line2d_14">
      <path d="M 56.8215 74.45475 
L 838.0215 74.45475 
" clip-path="url(#pe43563d1f9)" style="fill: none; stroke: #cccccc; stroke-width: 0.8; stroke-linecap: round"/>
     </g>
     <g id="text_14">
      <!-- 6 -->
      <g style="fill: #262626" transform="translate(38.73425 80.753625) scale(0.176 -0.176)">
       <defs>
        <path id="ArialMT-36" d="M 3184 3459 
L 2625 3416 
Q 2550 3747 2413 3897 
Q 2184 4138 1850 4138 
Q 1581 4138 1378 3988 
Q 1113 3794 959 3422 
Q 806 3050 800 2363 
Q 1003 2672 1297 2822 
Q 1591 2972 1913 2972 
Q 2475 2972 2870 2558 
Q 3266 2144 3266 1488 
Q 3266 1056 3080 686 
Q 2894 316 2569 119 
Q 2244 -78 1831 -78 
Q 1128 -78 684 439 
Q 241 956 241 2144 
Q 241 3472 731 4075 
Q 1159 4600 1884 4600 
Q 2425 4600 2770 4297 
Q 3116 3994 3184 3459 
z
M 888 1484 
Q 888 1194 1011 928 
Q 1134 663 1356 523 
Q 1578 384 1822 384 
Q 2178 384 2434 671 
Q 2691 959 2691 1453 
Q 2691 1928 2437 2201 
Q 2184 2475 1800 2475 
Q 1419 2475 1153 2201 
Q 888 1928 888 1484 
z
" transform="scale(0.015625)"/>
       </defs>
       <use xlink:href="#ArialMT-36"/>
      </g>
     </g>
    </g>
    <g id="text_15">
     <!-- Consumption (MWh) -->
     <g style="fill: #262626" transform="translate(30.69325 241.67175) rotate(-90) scale(0.192 -0.192)">
      <defs>
       <path id="ArialMT-43" d="M 3763 1606 
L 4369 1453 
Q 4178 706 3683 314 
Q 3188 -78 2472 -78 
Q 1731 -78 1267 223 
Q 803 525 561 1097 
Q 319 1669 319 2325 
Q 319 3041 592 3573 
Q 866 4106 1370 4382 
Q 1875 4659 2481 4659 
Q 3169 4659 3637 4309 
Q 4106 3959 4291 3325 
L 3694 3184 
Q 3534 3684 3231 3912 
Q 2928 4141 2469 4141 
Q 1941 4141 1586 3887 
Q 1231 3634 1087 3207 
Q 944 2781 944 2328 
Q 944 1744 1114 1308 
Q 1284 872 1643 656 
Q 2003 441 2422 441 
Q 2931 441 3284 734 
Q 3638 1028 3763 1606 
z
" transform="scale(0.015625)"/>
       <path id="ArialMT-6f" d="M 213 1659 
Q 213 2581 725 3025 
Q 1153 3394 1769 3394 
Q 2453 3394 2887 2945 
Q 3322 2497 3322 1706 
Q 3322 1066 3130 698 
Q 2938 331 2570 128 
Q 2203 -75 1769 -75 
Q 1072 -75 642 372 
Q 213 819 213 1659 
z
M 791 1659 
Q 791 1022 1069 705 
Q 1347 388 1769 388 
Q 2188 388 2466 706 
Q 2744 1025 2744 1678 
Q 2744 2294 2464 2611 
Q 2184 2928 1769 2928 
Q 1347 2928 1069 2612 
Q 791 2297 791 1659 
z
" transform="scale(0.015625)"/>
       <path id="ArialMT-6e" d="M 422 0 
L 422 3319 
L 928 3319 
L 928 2847 
Q 1294 3394 1984 3394 
Q 2284 3394 2536 3286 
Q 2788 3178 2913 3003 
Q 3038 2828 3088 2588 
Q 3119 2431 3119 2041 
L 3119 0 
L 2556 0 
L 2556 2019 
Q 2556 2363 2490 2533 
Q 2425 2703 2258 2804 
Q 2091 2906 1866 2906 
Q 1506 2906 1245 2678 
Q 984 2450 984 1813 
L 984 0 
L 422 0 
z
" transform="scale(0.015625)"/>
       <path id="ArialMT-73" d="M 197 991 
L 753 1078 
Q 800 744 1014 566 
Q 1228 388 1613 388 
Q 2000 388 2187 545 
Q 2375 703 2375 916 
Q 2375 1106 2209 1216 
Q 2094 1291 1634 1406 
Q 1016 1563 777 1677 
Q 538 1791 414 1992 
Q 291 2194 291 2438 
Q 291 2659 392 2848 
Q 494 3038 669 3163 
Q 800 3259 1026 3326 
Q 1253 3394 1513 3394 
Q 1903 3394 2198 3281 
Q 2494 3169 2634 2976 
Q 2775 2784 2828 2463 
L 2278 2388 
Q 2241 2644 2061 2787 
Q 1881 2931 1553 2931 
Q 1166 2931 1000 2803 
Q 834 2675 834 2503 
Q 834 2394 903 2306 
Q 972 2216 1119 2156 
Q 1203 2125 1616 2013 
Q 2213 1853 2448 1751 
Q 2684 1650 2818 1456 
Q 2953 1263 2953 975 
Q 2953 694 2789 445 
Q 2625 197 2315 61 
Q 2006 -75 1616 -75 
Q 969 -75 630 194 
Q 291 463 197 991 
z
" transform="scale(0.015625)"/>
       <path id="ArialMT-75" d="M 2597 0 
L 2597 488 
Q 2209 -75 1544 -75 
Q 1250 -75 995 37 
Q 741 150 617 320 
Q 494 491 444 738 
Q 409 903 409 1263 
L 409 3319 
L 972 3319 
L 972 1478 
Q 972 1038 1006 884 
Q 1059 663 1231 536 
Q 1403 409 1656 409 
Q 1909 409 2131 539 
Q 2353 669 2445 892 
Q 2538 1116 2538 1541 
L 2538 3319 
L 3100 3319 
L 3100 0 
L 2597 0 
z
" transform="scale(0.015625)"/>
       <path id="ArialMT-6d" d="M 422 0 
L 422 3319 
L 925 3319 
L 925 2853 
Q 1081 3097 1340 3245 
Q 1600 3394 1931 3394 
Q 2300 3394 2536 3241 
Q 2772 3088 2869 2813 
Q 3263 3394 3894 3394 
Q 4388 3394 4653 3120 
Q 4919 2847 4919 2278 
L 4919 0 
L 4359 0 
L 4359 2091 
Q 4359 2428 4304 2576 
Q 4250 2725 4106 2815 
Q 3963 2906 3769 2906 
Q 3419 2906 3187 2673 
Q 2956 2441 2956 1928 
L 2956 0 
L 2394 0 
L 2394 2156 
Q 2394 2531 2256 2718 
Q 2119 2906 1806 2906 
Q 1569 2906 1367 2781 
Q 1166 2656 1075 2415 
Q 984 2175 984 1722 
L 984 0 
L 422 0 
z
" transform="scale(0.015625)"/>
       <path id="ArialMT-70" d="M 422 -1272 
L 422 3319 
L 934 3319 
L 934 2888 
Q 1116 3141 1344 3267 
Q 1572 3394 1897 3394 
Q 2322 3394 2647 3175 
Q 2972 2956 3137 2557 
Q 3303 2159 3303 1684 
Q 3303 1175 3120 767 
Q 2938 359 2589 142 
Q 2241 -75 1856 -75 
Q 1575 -75 1351 44 
Q 1128 163 984 344 
L 984 -1272 
L 422 -1272 
z
M 931 1641 
Q 931 1000 1190 694 
Q 1450 388 1819 388 
Q 2194 388 2461 705 
Q 2728 1022 2728 1688 
Q 2728 2322 2467 2637 
Q 2206 2953 1844 2953 
Q 1484 2953 1207 2617 
Q 931 2281 931 1641 
z
" transform="scale(0.015625)"/>
       <path id="ArialMT-74" d="M 1650 503 
L 1731 6 
Q 1494 -44 1306 -44 
Q 1000 -44 831 53 
Q 663 150 594 308 
Q 525 466 525 972 
L 525 2881 
L 113 2881 
L 113 3319 
L 525 3319 
L 525 4141 
L 1084 4478 
L 1084 3319 
L 1650 3319 
L 1650 2881 
L 1084 2881 
L 1084 941 
Q 1084 700 1114 631 
Q 1144 563 1211 522 
Q 1278 481 1403 481 
Q 1497 481 1650 503 
z
" transform="scale(0.015625)"/>
       <path id="ArialMT-69" d="M 425 3934 
L 425 4581 
L 988 4581 
L 988 3934 
L 425 3934 
z
M 425 0 
L 425 3319 
L 988 3319 
L 988 0 
L 425 0 
z
" transform="scale(0.015625)"/>
       <path id="ArialMT-20" transform="scale(0.015625)"/>
       <path id="ArialMT-28" d="M 1497 -1347 
Q 1031 -759 709 28 
Q 388 816 388 1659 
Q 388 2403 628 3084 
Q 909 3875 1497 4659 
L 1900 4659 
Q 1522 4009 1400 3731 
Q 1209 3300 1100 2831 
Q 966 2247 966 1656 
Q 966 153 1900 -1347 
L 1497 -1347 
z
" transform="scale(0.015625)"/>
       <path id="ArialMT-4d" d="M 475 0 
L 475 4581 
L 1388 4581 
L 2472 1338 
Q 2622 884 2691 659 
Q 2769 909 2934 1394 
L 4031 4581 
L 4847 4581 
L 4847 0 
L 4263 0 
L 4263 3834 
L 2931 0 
L 2384 0 
L 1059 3900 
L 1059 0 
L 475 0 
z
" transform="scale(0.015625)"/>
       <path id="ArialMT-57" d="M 1294 0 
L 78 4581 
L 700 4581 
L 1397 1578 
Q 1509 1106 1591 641 
Q 1766 1375 1797 1488 
L 2669 4581 
L 3400 4581 
L 4056 2263 
Q 4303 1400 4413 641 
Q 4500 1075 4641 1638 
L 5359 4581 
L 5969 4581 
L 4713 0 
L 4128 0 
L 3163 3491 
Q 3041 3928 3019 4028 
Q 2947 3713 2884 3491 
L 1913 0 
L 1294 0 
z
" transform="scale(0.015625)"/>
       <path id="ArialMT-68" d="M 422 0 
L 422 4581 
L 984 4581 
L 984 2938 
Q 1378 3394 1978 3394 
Q 2347 3394 2619 3248 
Q 2891 3103 3008 2847 
Q 3125 2591 3125 2103 
L 3125 0 
L 2563 0 
L 2563 2103 
Q 2563 2525 2380 2717 
Q 2197 2909 1863 2909 
Q 1613 2909 1392 2779 
Q 1172 2650 1078 2428 
Q 984 2206 984 1816 
L 984 0 
L 422 0 
z
" transform="scale(0.015625)"/>
       <path id="ArialMT-29" d="M 791 -1347 
L 388 -1347 
Q 1322 153 1322 1656 
Q 1322 2244 1188 2822 
Q 1081 3291 891 3722 
Q 769 4003 388 4659 
L 791 4659 
Q 1378 3875 1659 3084 
Q 1900 2403 1900 1659 
Q 1900 816 1576 28 
Q 1253 -759 791 -1347 
z
" transform="scale(0.015625)"/>
      </defs>
      <use xlink:href="#ArialMT-43"/>
      <use xlink:href="#ArialMT-6f" x="72.216797"/>
      <use xlink:href="#ArialMT-6e" x="127.832031"/>
      <use xlink:href="#ArialMT-73" x="183.447266"/>
      <use xlink:href="#ArialMT-75" x="233.447266"/>
      <use xlink:href="#ArialMT-6d" x="289.0625"/>
      <use xlink:href="#ArialMT-70" x="372.363281"/>
      <use xlink:href="#ArialMT-74" x="427.978516"/>
      <use xlink:href="#ArialMT-69" x="455.761719"/>
      <use xlink:href="#ArialMT-6f" x="477.978516"/>
      <use xlink:href="#ArialMT-6e" x="533.59375"/>
      <use xlink:href="#ArialMT-20" x="589.208984"/>
      <use xlink:href="#ArialMT-28" x="616.992188"/>
      <use xlink:href="#ArialMT-4d" x="650.292969"/>
      <use xlink:href="#ArialMT-57" x="733.59375"/>
      <use xlink:href="#ArialMT-68" x="827.978516"/>
      <use xlink:href="#ArialMT-29" x="883.59375"/>
     </g>
    </g>
    <g id="text_16">
     <!-- 1e6 -->
     <g style="fill: #262626" transform="translate(56.8215 39.77475) scale(0.176 -0.176)">
      <defs>
       <path id="ArialMT-65" d="M 2694 1069 
L 3275 997 
Q 3138 488 2766 206 
Q 2394 -75 1816 -75 
Q 1088 -75 661 373 
Q 234 822 234 1631 
Q 234 2469 665 2931 
Q 1097 3394 1784 3394 
Q 2450 3394 2872 2941 
Q 3294 2488 3294 1666 
Q 3294 1616 3291 1516 
L 816 1516 
Q 847 969 1125 678 
Q 1403 388 1819 388 
Q 2128 388 2347 550 
Q 2566 713 2694 1069 
z
M 847 1978 
L 2700 1978 
Q 2663 2397 2488 2606 
Q 2219 2931 1791 2931 
Q 1403 2931 1139 2672 
Q 875 2413 847 1978 
z
" transform="scale(0.015625)"/>
      </defs>
      <use xlink:href="#ArialMT-31"/>
      <use xlink:href="#ArialMT-65" x="55.615234"/>
      <use xlink:href="#ArialMT-36" x="111.230469"/>
     </g>
    </g>
   </g>
   <g id="patch_3">
    <path d="M 318.680778 264.53475 
L 318.680778 42.77475 
L 358.891986 42.77475 
L 358.891986 264.53475 
z
" clip-path="url(#pe43563d1f9)" style="fill: #008000; opacity: 0.1; stroke: #008000; stroke-width: 0.8; stroke-linejoin: miter"/>
   </g>
   <g id="line2d_15">
    <path d="M 329.057864 264.53475 
L 329.057864 42.77475 
" clip-path="url(#pe43563d1f9)" style="fill: none; stroke: #ff0000; stroke-width: 0.8; stroke-linecap: round"/>
   </g>
   <g id="line2d_16">
    <path d="M 92.330591 140.216245 
L 92.979159 130.958165 
L 93.627727 144.096878 
L 94.276295 147.479305 
L 94.924862 148.11485 
L 95.57343 135.56293 
L 96.221998 134.875131 
L 96.870566 141.557018 
L 97.519134 156.064188 
L 98.167702 155.734174 
L 98.81627 155.161075 
L 99.464837 152.542821 
L 100.113405 141.598198 
L 100.761973 152.668904 
L 101.410541 158.183596 
L 102.059109 152.729078 
L 102.707677 153.536745 
L 103.356245 152.364062 
L 104.004813 142.424042 
L 104.65338 122.495412 
L 105.301948 116.21331 
L 105.950516 113.897828 
L 106.599084 113.45388 
L 107.247652 114.701034 
L 107.89622 128.689455 
L 108.544788 134.886483 
L 109.193356 133.784409 
L 109.841923 135.813793 
L 110.490491 135.164361 
L 111.139059 147.019174 
L 111.787627 164.770016 
L 112.436195 178.419423 
L 113.084763 174.595753 
L 113.733331 164.766856 
L 115.030466 135.512094 
L 115.679034 127.913193 
L 116.327602 131.294272 
L 117.624738 164.868779 
L 118.273306 155.04944 
L 120.219009 132.862736 
L 120.867577 139.571772 
L 121.516145 162.912652 
L 122.164713 177.644916 
L 122.813281 164.502473 
L 123.461849 157.768549 
L 124.110417 146.815046 
L 124.758984 148.537817 
L 125.407552 150.69633 
L 126.05612 168.126152 
L 126.704688 169.243039 
L 127.353256 159.329322 
L 128.001824 156.03224 
L 128.650392 138.591591 
L 129.29896 130.644893 
L 129.947527 137.496199 
L 130.596095 160.491197 
L 131.244663 162.247649 
L 131.893231 147.640801 
L 132.541799 140.519094 
L 133.190367 137.996286 
L 133.838935 141.269245 
L 134.487502 142.809623 
L 135.13607 153.604388 
L 135.784638 161.222506 
L 136.433206 151.124819 
L 137.081774 158.487181 
L 137.730342 170.282909 
L 138.37891 169.300321 
L 139.027478 161.151963 
L 139.676045 163.792084 
L 140.324613 170.307337 
L 140.973181 164.712203 
L 141.621749 169.96895 
L 142.270317 177.847364 
L 142.918885 175.872513 
L 143.567453 176.075929 
L 144.216021 170.245489 
L 144.864588 158.68171 
L 145.513156 141.593048 
L 146.161724 141.623861 
L 146.810292 143.551737 
L 147.45886 149.901923 
L 148.755996 180.924849 
L 150.053131 146.524953 
L 150.701699 140.778136 
L 151.350267 144.013218 
L 151.998835 153.591421 
L 152.647403 159.663141 
L 153.944539 186.311097 
L 155.890242 199.520233 
L 156.53881 202.674829 
L 157.187378 205.162309 
L 157.835946 206.576403 
L 158.484514 212.168359 
L 159.133082 199.495064 
L 159.781649 177.694238 
L 160.430217 179.348595 
L 161.727353 192.883219 
L 162.375921 205.042754 
L 163.024489 203.889285 
L 163.673057 195.623494 
L 164.321625 197.073471 
L 164.970192 198.097915 
L 165.61876 197.356307 
L 166.267328 204.624343 
L 166.915896 204.699697 
L 167.564464 202.075754 
L 168.213032 197.506606 
L 168.8616 198.215827 
L 169.510167 197.442083 
L 170.158735 199.589503 
L 170.807303 204.090215 
L 171.455871 200.066464 
L 172.104439 198.681138 
L 172.753007 188.078883 
L 173.401575 184.959224 
L 174.050143 185.589154 
L 174.69871 188.886836 
L 175.995846 212.038448 
L 176.644414 216.285636 
L 177.292982 193.22963 
L 177.94155 182.766614 
L 178.590118 176.876584 
L 179.238686 177.33208 
L 179.887253 183.531769 
L 180.535821 197.671879 
L 181.184389 203.265869 
L 181.832957 202.467886 
L 182.481525 203.144214 
L 183.130093 204.829316 
L 183.778661 217.882876 
L 184.427229 218.519724 
L 185.075796 218.348685 
L 185.724364 215.635236 
L 186.372932 201.818957 
L 187.0215 199.665611 
L 187.670068 203.831694 
L 188.318636 203.835101 
L 188.967204 207.048141 
L 189.615771 217.052297 
L 190.912907 220.876192 
L 191.561475 210.634415 
L 192.210043 210.284166 
L 192.858611 207.61852 
L 193.507179 205.794122 
L 194.155747 212.075726 
L 194.804314 209.250095 
L 195.452882 197.17518 
L 196.10145 198.069503 
L 196.750018 201.01155 
L 197.398586 209.568252 
L 198.695722 223.135957 
L 199.34429 220.274556 
L 199.992857 208.354562 
L 200.641425 206.40441 
L 201.289993 207.146083 
L 201.938561 206.526895 
L 202.587129 209.171959 
L 203.235697 218.839263 
L 203.884265 219.403361 
L 204.532833 209.13544 
L 205.1814 208.603904 
L 205.829968 209.321652 
L 206.478536 210.284176 
L 207.127104 214.245759 
L 207.775672 223.227302 
L 208.42424 222.796479 
L 209.072808 212.499298 
L 209.721375 212.460501 
L 211.018511 207.643539 
L 211.667079 212.417407 
L 212.315647 224.492856 
L 212.964215 224.993002 
L 213.612783 212.916551 
L 214.261351 207.110121 
L 214.909918 204.916085 
L 216.207054 208.951756 
L 216.855622 213.378703 
L 217.50419 214.663744 
L 218.152758 208.062731 
L 218.801326 207.599381 
L 219.449894 206.515903 
L 220.098461 205.805614 
L 220.747029 209.286525 
L 221.395597 217.30709 
L 222.044165 219.770974 
L 222.692733 211.766169 
L 223.341301 209.904019 
L 223.989869 208.709057 
L 224.638436 210.23741 
L 225.287004 213.409526 
L 225.935572 220.008247 
L 226.58414 221.668526 
L 227.232708 214.533101 
L 227.881276 215.468099 
L 229.178412 212.043874 
L 229.826979 216.419978 
L 230.475547 222.789751 
L 231.124115 220.598713 
L 231.772683 212.029355 
L 232.421251 210.409098 
L 233.069819 212.34282 
L 233.718387 212.665871 
L 234.366955 215.477902 
L 235.015522 222.268937 
L 235.66409 223.173941 
L 236.312658 216.377563 
L 237.609794 216.264365 
L 238.258362 215.956904 
L 238.90693 216.180014 
L 239.555498 220.73146 
L 240.204065 221.888986 
L 240.852633 213.646023 
L 241.501201 212.192149 
L 242.149769 212.270079 
L 242.798337 213.717913 
L 243.446905 218.424572 
L 244.095473 226.207767 
L 244.74404 222.969651 
L 245.392608 210.653429 
L 246.041176 212.250807 
L 246.689744 216.529933 
L 247.338312 209.413794 
L 247.98688 211.503823 
L 248.635448 216.781234 
L 249.284016 214.935562 
L 249.932583 206.040567 
L 250.581151 202.996812 
L 251.229719 202.850449 
L 251.878287 205.328182 
L 252.526855 210.248186 
L 253.175423 219.313492 
L 253.823991 214.597524 
L 254.472559 204.67736 
L 255.121126 206.711187 
L 255.769694 207.77484 
L 256.418262 205.24147 
L 257.06683 208.294241 
L 257.715398 218.134111 
L 258.363966 217.991253 
L 259.012534 210.888533 
L 259.661101 210.27412 
L 260.309669 211.597445 
L 260.958237 208.399372 
L 261.606805 206.375161 
L 262.255373 211.553988 
L 262.903941 211.191977 
L 263.552509 203.299229 
L 264.201077 204.216305 
L 264.849644 206.328052 
L 265.498212 206.959848 
L 266.14678 201.392907 
L 266.795348 202.86839 
L 267.443916 197.645159 
L 268.092484 185.823277 
L 268.741052 186.367232 
L 269.38962 191.391662 
L 270.038187 190.375101 
L 271.335323 206.364834 
L 271.983891 203.920213 
L 272.632459 187.665693 
L 273.281027 188.582385 
L 273.929595 185.423779 
L 274.578163 188.839545 
L 275.22673 187.729656 
L 275.875298 192.278785 
L 276.523866 184.893815 
L 277.172434 166.813521 
L 277.821002 164.380508 
L 278.46957 166.512466 
L 279.118138 162.281715 
L 279.766705 163.944955 
L 280.415273 173.198328 
L 281.063841 175.539143 
L 281.712409 162.99298 
L 282.360977 172.768254 
L 283.009545 185.436517 
L 283.658113 189.81996 
L 284.306681 188.858592 
L 284.955248 198.015548 
L 285.603816 197.908527 
L 286.252384 178.421304 
L 286.900952 176.108985 
L 287.54952 177.713609 
L 288.198088 176.806713 
L 289.495224 193.544692 
L 290.143791 198.348562 
L 290.792359 197.309123 
L 292.089495 168.825875 
L 292.738063 159.168849 
L 293.386631 156.809721 
L 294.035199 166.58836 
L 294.683767 168.755517 
L 295.332334 156.098965 
L 295.980902 151.5419 
L 297.278038 160.082765 
L 297.926606 165.501453 
L 298.575174 181.620129 
L 299.223742 187.053341 
L 299.872309 173.205765 
L 300.520877 170.355856 
L 301.169445 171.015978 
L 301.818013 165.675455 
L 302.466581 146.018003 
L 303.115149 155.558738 
L 303.763717 156.839103 
L 304.412285 141.069562 
L 305.060852 137.739038 
L 305.70942 132.64263 
L 306.357988 131.120462 
L 307.006556 131.354386 
L 307.655124 137.602111 
L 308.303692 128.606135 
L 308.95226 113.9039 
L 309.600828 116.683278 
L 310.249395 112.099131 
L 310.897963 116.825762 
L 311.546531 122.591665 
L 312.195099 131.345293 
L 312.843667 132.958378 
L 313.492235 124.094823 
L 314.140803 120.434941 
L 314.78937 116.079051 
L 315.437938 112.622585 
L 316.086506 117.999367 
L 316.735074 134.410649 
L 317.383642 141.680956 
L 318.03221 138.495544 
L 319.329346 147.408833 
L 319.977913 148.004113 
L 320.626481 149.283964 
L 321.275049 158.405632 
L 321.923617 157.273472 
L 322.572185 154.806887 
L 323.220753 168.409313 
L 323.869321 171.363432 
L 324.517889 171.259823 
L 325.166456 154.83521 
L 325.815024 148.986378 
L 326.463592 146.614601 
L 327.11216 136.450599 
L 327.760728 134.579935 
L 329.057864 138.910844 
L 329.706432 138.416829 
L 330.354999 134.264645 
L 331.003567 133.105969 
L 331.652135 117.944708 
L 332.300703 115.812252 
L 332.949271 115.424308 
L 333.597839 110.497597 
L 334.246407 110.650896 
L 334.894974 117.838309 
L 335.543542 117.686953 
L 336.19211 111.049532 
L 336.840678 117.736295 
L 337.489246 117.661426 
L 338.137814 105.617924 
L 338.786382 101.994415 
L 339.43495 109.771908 
L 340.083517 112.237535 
L 340.732085 112.576871 
L 342.677789 146.833706 
L 343.326357 142.779731 
L 343.974925 142.171299 
L 344.623493 130.809358 
L 345.27206 111.349339 
L 345.920628 111.753455 
L 346.569196 113.888334 
L 347.217764 121.448365 
L 347.866332 132.978817 
L 348.5149 132.025257 
L 349.163468 125.637105 
L 349.812035 112.186274 
L 350.460603 124.87152 
L 351.109171 140.11263 
L 351.757739 139.071049 
L 352.406307 139.994505 
L 353.054875 141.225345 
L 353.703443 124.078113 
L 354.352011 92.002882 
L 355.000578 79.148156 
L 355.649146 72.17618 
L 356.297714 70.480658 
L 356.946282 71.594589 
L 357.59485 83.292455 
L 358.243418 90.715037 
L 358.891986 91.923262 
L 359.540554 113.869959 
L 360.189121 131.251543 
L 360.837689 141.611284 
L 361.486257 148.161142 
L 362.134825 168.006698 
L 362.783393 169.829329 
L 363.431961 160.616915 
L 364.080529 171.411757 
L 364.729097 176.338307 
L 365.377664 174.924924 
L 366.026232 166.453844 
L 366.6748 164.404846 
L 367.323368 157.813688 
L 367.971936 140.581161 
L 368.620504 142.376878 
L 369.269072 148.189798 
L 369.917639 145.801198 
L 370.566207 134.559289 
L 371.214775 140.109818 
L 371.863343 137.041682 
L 372.511911 122.80153 
L 373.160479 123.398717 
L 374.457615 152.127197 
L 375.106182 156.615505 
L 375.75475 164.530022 
L 376.403318 157.773261 
L 377.051886 143.323638 
L 378.349022 130.184625 
L 378.99759 125.291818 
L 379.646158 125.929561 
L 380.294725 134.910143 
L 380.943293 141.109422 
L 381.591861 131.015146 
L 382.240429 137.190411 
L 382.888997 148.841289 
L 383.537565 156.774958 
L 384.186133 171.611204 
L 384.8347 175.513703 
L 385.483268 175.839243 
L 386.131836 175.406377 
L 386.780404 179.636854 
L 387.428972 186.542927 
L 388.07754 191.016519 
L 388.726108 188.277349 
L 389.374676 180.028731 
L 390.023243 175.659701 
L 390.671811 160.942112 
L 391.320379 137.066009 
L 391.968947 133.530012 
L 392.617515 133.939636 
L 393.914651 163.397717 
L 394.563219 171.548144 
L 395.211786 146.384494 
L 395.860354 142.786687 
L 396.508922 135.590968 
L 397.15749 136.893668 
L 397.806058 144.519794 
L 398.454626 158.830862 
L 399.103194 164.686244 
L 399.751762 162.430598 
L 400.400329 169.510212 
L 401.048897 175.250664 
L 401.697465 170.632853 
L 402.346033 170.879884 
L 402.994601 179.102881 
L 403.643169 176.330956 
L 404.291737 166.287742 
L 404.940304 169.178409 
L 405.588872 178.309113 
L 406.23744 179.831019 
L 406.886008 177.003939 
L 407.534576 188.059998 
L 408.831712 173.330666 
L 409.48028 176.551466 
L 410.777415 165.370343 
L 411.425983 166.514956 
L 412.723119 205.499448 
L 413.371687 203.037415 
L 414.020255 201.300284 
L 414.668823 199.107286 
L 415.31739 201.407808 
L 415.965958 196.122959 
L 416.614526 198.866748 
L 417.263094 198.550956 
L 417.911662 189.342404 
L 419.208798 185.66485 
L 419.857366 188.278002 
L 420.505933 196.678057 
L 421.154501 203.533783 
L 421.803069 204.837661 
L 422.451637 203.957064 
L 423.100205 190.7621 
L 423.748773 189.61958 
L 424.397341 186.755621 
L 425.045908 191.794263 
L 425.694476 202.194083 
L 426.343044 206.415458 
L 426.991612 202.124583 
L 427.64018 206.239499 
L 428.937316 217.169751 
L 429.585884 216.523452 
L 430.234451 221.924994 
L 430.883019 220.365354 
L 431.531587 207.88699 
L 432.180155 207.992197 
L 433.477291 210.329829 
L 434.125859 215.393886 
L 434.774427 223.870475 
L 435.422994 221.842997 
L 436.071562 214.256113 
L 436.72013 211.203141 
L 437.368698 212.743 
L 438.017266 214.829074 
L 438.665834 217.344729 
L 439.314402 226.250894 
L 439.962969 226.438546 
L 440.611537 216.727744 
L 441.260105 210.13668 
L 441.908673 208.519778 
L 442.557241 207.32725 
L 443.205809 210.278007 
L 443.854377 221.761364 
L 444.502945 223.741555 
L 445.151512 213.725557 
L 445.80008 211.043854 
L 446.448648 209.041174 
L 447.097216 206.507113 
L 447.745784 210.373592 
L 448.394352 221.2589 
L 449.04292 221.774608 
L 449.691488 212.760168 
L 450.340055 216.349583 
L 450.988623 210.759662 
L 451.637191 209.141501 
L 452.285759 212.522813 
L 452.934327 221.704329 
L 453.582895 221.099859 
L 454.231463 213.414069 
L 454.880031 212.131643 
L 455.528598 212.220626 
L 456.177166 212.851304 
L 456.825734 216.813448 
L 457.474302 225.225506 
L 458.12287 225.131997 
L 458.771438 216.08437 
L 459.420006 214.000131 
L 460.068573 213.891015 
L 460.717141 214.347691 
L 461.365709 217.651785 
L 462.014277 226.127238 
L 462.662845 225.816655 
L 463.311413 217.547856 
L 463.959981 217.580144 
L 464.608549 219.763773 
L 465.257116 220.315483 
L 465.905684 221.746107 
L 466.554252 225.829178 
L 467.20282 223.834029 
L 467.851388 217.405854 
L 468.499956 214.87034 
L 469.148524 214.178327 
L 469.797092 215.756135 
L 471.094227 223.970079 
L 471.742795 224.004481 
L 472.391363 218.163609 
L 473.039931 216.758279 
L 473.688499 217.040393 
L 474.337067 218.473298 
L 474.985634 222.291812 
L 475.634202 227.009134 
L 476.28277 227.048725 
L 476.931338 218.821682 
L 477.579906 215.769818 
L 478.228474 215.377277 
L 478.877042 214.847622 
L 479.52561 216.840625 
L 480.174177 224.106399 
L 480.822745 223.647614 
L 481.471313 216.056376 
L 482.119881 213.490564 
L 482.768449 214.395056 
L 483.417017 211.75177 
L 484.065585 211.869211 
L 484.714153 217.667994 
L 485.36272 217.265049 
L 486.011288 210.782656 
L 486.659856 209.655 
L 487.308424 208.803932 
L 487.956992 210.26493 
L 488.60556 213.336148 
L 489.254128 220.432139 
L 489.902696 220.847341 
L 490.551263 212.226244 
L 491.199831 211.839495 
L 491.848399 213.497553 
L 492.496967 213.594916 
L 493.145535 215.421608 
L 493.794103 222.631451 
L 494.442671 222.645632 
L 495.091238 211.469762 
L 495.739806 211.592966 
L 496.388374 211.509542 
L 497.036942 210.075579 
L 497.68551 209.980463 
L 498.334078 218.158005 
L 498.982646 214.691322 
L 499.631214 199.983883 
L 500.279781 199.031092 
L 500.928349 199.772687 
L 501.576917 204.829994 
L 502.225485 208.316782 
L 502.874053 216.105284 
L 503.522621 219.374779 
L 504.171189 211.619196 
L 504.819757 205.986021 
L 505.468324 204.244727 
L 506.116892 198.47201 
L 506.76546 200.966186 
L 507.414028 211.049692 
L 508.062596 214.478219 
L 508.711164 201.795806 
L 509.359732 200.155251 
L 510.0083 192.990714 
L 510.656867 187.515796 
L 511.305435 190.179422 
L 511.954003 195.928809 
L 512.602571 189.582848 
L 513.251139 180.489584 
L 514.548275 172.732209 
L 515.196842 179.273282 
L 516.493978 185.496535 
L 517.142546 185.606346 
L 517.791114 179.281109 
L 518.439682 187.048505 
L 519.08825 196.665253 
L 520.385385 182.499066 
L 521.033953 181.166114 
L 521.682521 177.417196 
L 522.331089 166.987016 
L 523.628225 178.782417 
L 524.276793 178.902236 
L 524.925361 182.529127 
L 525.573928 187.836602 
L 526.222496 196.147265 
L 526.871064 186.142295 
L 527.519632 168.76784 
L 528.1682 160.206477 
L 528.816768 157.674636 
L 529.465336 160.473362 
L 530.113903 171.364216 
L 530.762471 172.495445 
L 531.411039 155.663329 
L 532.059607 155.130469 
L 532.708175 145.676524 
L 533.356743 144.681931 
L 534.005311 147.482163 
L 534.653879 160.433883 
L 535.302446 163.35379 
L 535.951014 146.652657 
L 536.599582 144.883845 
L 538.545286 165.125124 
L 539.193854 173.922609 
L 539.842422 165.781804 
L 540.490989 143.892929 
L 541.139557 136.042529 
L 541.788125 133.213175 
L 542.436693 129.006614 
L 543.085261 132.907976 
L 543.733829 138.293977 
L 544.382397 134.937156 
L 545.030965 121.629219 
L 546.3281 144.870396 
L 546.976668 128.623425 
L 547.625236 130.644083 
L 548.273804 141.766716 
L 548.922372 137.730991 
L 549.57094 121.312841 
L 550.219507 123.250907 
L 550.868075 123.322006 
L 551.516643 119.997354 
L 552.165211 121.342324 
L 553.462347 142.994347 
L 554.110915 139.780665 
L 554.759483 142.414148 
L 555.40805 147.865585 
L 556.056618 147.907696 
L 556.705186 150.200586 
L 557.353754 159.032932 
L 558.002322 157.861903 
L 558.65089 128.07208 
L 559.299458 114.212732 
L 559.948026 112.442438 
L 560.596593 128.362706 
L 561.245161 148.790479 
L 561.893729 140.11992 
L 562.542297 138.150028 
L 563.190865 138.747971 
L 563.839433 150.832522 
L 564.488001 160.004797 
L 565.136568 180.377261 
L 565.785136 190.824056 
L 566.433704 191.107024 
L 567.082272 187.137226 
L 569.676544 135.412075 
L 570.325111 132.699136 
L 570.973679 139.629604 
L 571.622247 138.030693 
L 572.270815 119.226103 
L 572.919383 115.54015 
L 573.567951 115.429838 
L 574.216519 121.182044 
L 574.865087 124.378225 
L 575.513654 133.85481 
L 576.162222 140.214514 
L 576.81079 132.977198 
L 577.459358 128.591191 
L 578.107926 132.832374 
L 578.756494 127.099253 
L 579.405062 125.72919 
L 580.05363 137.763727 
L 580.702197 140.663115 
L 581.350765 126.049686 
L 581.999333 121.808724 
L 582.647901 123.388498 
L 583.296469 130.643959 
L 583.945037 134.339269 
L 584.593605 154.336069 
L 585.242172 152.406028 
L 585.89074 133.93265 
L 587.187876 139.716258 
L 587.836444 143.080812 
L 588.485012 150.067097 
L 589.13358 154.620284 
L 589.782148 154.679258 
L 590.430715 140.419038 
L 591.079283 147.799229 
L 591.727851 151.487725 
L 592.376419 146.398684 
L 593.024987 139.612959 
L 593.673555 143.820044 
L 594.322123 149.013876 
L 594.970691 147.99966 
L 595.619258 148.988092 
L 596.267826 159.424173 
L 596.916394 162.349755 
L 597.564962 163.005154 
L 598.862098 167.366382 
L 599.510666 151.312752 
L 600.159233 149.775859 
L 600.807801 149.19104 
L 601.456369 152.205391 
L 602.104937 145.912055 
L 602.753505 148.655957 
L 603.402073 146.464916 
L 604.050641 135.131407 
L 604.699209 130.014779 
L 605.347776 131.342914 
L 605.996344 134.933051 
L 606.644912 133.897082 
L 607.29348 141.955534 
L 607.942048 137.839455 
L 608.590616 126.088214 
L 609.887752 141.672103 
L 610.536319 151.824455 
L 611.184887 156.01958 
L 611.833455 166.666696 
L 612.482023 170.580567 
L 613.130591 158.906244 
L 613.779159 156.710655 
L 614.427727 167.148016 
L 615.076295 162.704312 
L 615.724862 165.262937 
L 616.37343 172.924552 
L 617.021998 172.949544 
L 617.670566 164.649184 
L 618.319134 167.154002 
L 618.967702 171.753491 
L 619.61627 173.615083 
L 620.264837 179.83953 
L 620.913405 191.905702 
L 621.561973 189.241275 
L 622.210541 181.685608 
L 622.859109 175.630122 
L 623.507677 165.430064 
L 624.156245 159.394985 
L 624.804813 150.404883 
L 625.45338 149.622804 
L 626.750516 145.919453 
L 627.399084 157.936771 
L 628.047652 172.278598 
L 628.69622 174.280435 
L 629.344788 169.089516 
L 629.993356 172.229518 
L 630.641923 167.040602 
L 631.290491 164.982085 
L 631.939059 181.295312 
L 632.587627 191.167223 
L 633.236195 198.662506 
L 633.884763 201.334898 
L 634.533331 197.332755 
L 635.181899 195.889224 
L 635.830466 193.994475 
L 636.479034 185.516782 
L 637.127602 184.941993 
L 637.77617 187.269411 
L 638.424738 194.191582 
L 639.073306 204.365037 
L 639.721874 199.414876 
L 640.370441 183.991032 
L 641.019009 181.729331 
L 641.667577 184.744107 
L 642.316145 189.668706 
L 642.964713 193.116179 
L 643.613281 200.351819 
L 644.261849 201.489084 
L 644.910417 194.80763 
L 645.558984 194.139915 
L 646.207552 194.875337 
L 646.85612 197.248614 
L 647.504688 202.56719 
L 648.153256 214.235259 
L 648.801824 212.575606 
L 649.450392 207.503801 
L 650.09896 212.739794 
L 650.747527 216.210877 
L 651.396095 214.151918 
L 652.044663 215.191859 
L 652.693231 220.620704 
L 653.341799 221.630442 
L 653.990367 214.430174 
L 654.638935 212.189956 
L 655.287502 215.91 
L 655.93607 216.709056 
L 657.233206 224.620716 
L 657.881774 221.638328 
L 658.530342 215.554009 
L 659.17891 212.188498 
L 659.827478 215.438351 
L 660.476045 221.227788 
L 661.124613 217.649493 
L 661.773181 216.444535 
L 662.421749 209.703302 
L 663.070317 198.216687 
L 663.718885 201.499463 
L 664.367453 203.988146 
L 665.016021 207.354517 
L 665.664588 214.62628 
L 666.313156 224.788933 
L 666.961724 228.371531 
L 667.610292 226.24829 
L 668.25886 215.018937 
L 668.907428 213.773329 
L 669.555996 213.484402 
L 670.204564 217.300989 
L 670.853131 225.958011 
L 671.501699 225.98085 
L 672.150267 216.506885 
L 672.798835 213.403758 
L 673.447403 216.75891 
L 674.095971 223.97237 
L 674.744539 225.171396 
L 675.393106 231.999229 
L 676.041674 229.978409 
L 676.690242 219.038906 
L 677.33881 217.494713 
L 677.987378 216.622888 
L 678.635946 220.847076 
L 679.284514 222.371835 
L 679.933082 230.765883 
L 680.581649 229.076111 
L 681.230217 220.103462 
L 681.878785 220.213602 
L 682.527353 218.445069 
L 683.824489 222.442151 
L 684.473057 229.846075 
L 685.121625 230.0492 
L 685.770192 222.488268 
L 686.41876 221.931941 
L 687.067328 221.990079 
L 687.715896 221.398749 
L 688.364464 222.716755 
L 689.013032 228.717234 
L 689.6616 227.131609 
L 690.310167 217.650839 
L 691.607303 222.440311 
L 692.255871 223.72024 
L 692.904439 223.924728 
L 693.553007 230.681375 
L 694.201575 228.706056 
L 694.850143 220.98801 
L 695.49871 224.22667 
L 696.147278 224.704939 
L 696.795846 221.243733 
L 697.444414 222.849802 
L 698.092982 230.55872 
L 698.74155 231.845404 
L 699.390118 227.986855 
L 700.038686 222.868931 
L 700.687253 222.582596 
L 701.335821 223.698871 
L 701.984389 225.22628 
L 702.632957 232.79929 
L 703.281525 233.215879 
L 703.930093 225.298425 
L 704.578661 227.56748 
L 705.875796 227.155411 
L 706.524364 229.926075 
L 707.172932 233.89701 
L 707.8215 233.081377 
L 708.470068 227.694301 
L 709.118636 227.875165 
L 709.767204 227.849256 
L 710.415771 227.341473 
L 711.064339 229.020421 
L 711.712907 234.780389 
L 712.361475 235.826556 
L 713.010043 227.084603 
L 713.658611 223.824514 
L 714.307179 222.788074 
L 714.955747 222.652007 
L 715.604314 225.004966 
L 716.252882 233.671763 
L 716.90145 230.567814 
L 717.550018 221.811301 
L 718.198586 222.594954 
L 718.847154 222.714026 
L 719.495722 224.041767 
L 720.14429 224.140325 
L 720.792857 231.767471 
L 721.441425 232.661208 
L 722.089993 222.247752 
L 722.738561 222.213585 
L 723.387129 220.344464 
L 724.035697 220.546915 
L 724.684265 225.695388 
L 725.332833 232.276328 
L 725.9814 231.943586 
L 726.629968 226.487512 
L 727.927104 222.704841 
L 729.22424 224.043187 
L 729.872808 227.0964 
L 730.521375 225.482161 
L 731.169943 219.020437 
L 731.818511 219.556178 
L 732.467079 218.267208 
L 733.115647 220.397683 
L 733.764215 218.146548 
L 734.412783 218.941001 
L 735.061351 214.455394 
L 736.358486 198.574621 
L 737.007054 198.526456 
L 737.655622 200.455818 
L 738.30419 203.700249 
L 738.952758 214.438084 
L 739.601326 213.933286 
L 740.898461 198.634072 
L 741.547029 192.90337 
L 742.195597 191.100991 
L 742.844165 198.55134 
L 743.492733 209.862337 
L 744.141301 214.283757 
L 744.789869 211.36408 
L 745.438436 206.098908 
L 746.087004 212.297757 
L 746.735572 210.831443 
L 747.38414 210.725354 
L 748.032708 213.095804 
L 748.681276 210.063236 
L 749.329844 203.922062 
L 749.978412 195.774469 
L 750.626979 194.976889 
L 751.275547 195.202274 
L 751.924115 201.370124 
L 752.572683 216.435399 
L 753.221251 217.561728 
L 753.869819 210.406577 
L 754.518387 206.029851 
L 755.166955 199.611911 
L 756.46409 201.830883 
L 757.112658 211.277546 
L 757.761226 214.814939 
L 758.409794 209.173268 
L 759.058362 201.810422 
L 759.70693 202.464926 
L 761.652633 216.42968 
L 762.301201 216.562892 
L 762.949769 210.954645 
L 763.598337 211.961672 
L 764.246905 200.055675 
L 765.54404 192.251685 
L 766.192608 195.45279 
L 766.841176 194.562954 
L 767.489744 193.323674 
L 768.138312 196.600709 
L 768.78688 198.01127 
L 769.435448 196.32664 
L 770.084016 192.389285 
L 770.732583 192.181002 
L 771.381151 187.810022 
L 772.029719 177.005024 
L 772.678287 183.323782 
L 773.326855 182.809601 
L 773.975423 181.600747 
L 774.623991 171.370424 
L 775.272559 165.804073 
L 775.921126 161.919827 
L 776.569694 151.539633 
L 777.218262 156.138212 
L 777.86683 164.319688 
L 779.163966 168.616355 
L 779.812534 176.568599 
L 780.461101 174.004909 
L 781.109669 158.062717 
L 781.758237 154.843063 
L 782.406805 152.604869 
L 783.055373 146.945349 
L 783.703941 146.79746 
L 785.001077 150.680139 
L 785.649644 140.112919 
L 786.298212 140.941662 
L 786.94678 140.87399 
L 787.595348 136.584076 
L 788.243916 134.125241 
L 788.892484 138.185128 
L 789.541052 132.247057 
L 790.18962 117.104568 
L 790.838187 113.300434 
L 791.486755 112.396505 
L 792.135323 112.223854 
L 792.783891 112.807208 
L 793.432459 121.560944 
L 794.081027 126.353224 
L 794.729595 135.455826 
L 795.378163 152.589628 
L 796.675298 177.3339 
L 797.972434 191.974811 
L 798.621002 193.518371 
L 799.26957 191.799609 
L 799.918138 178.030808 
L 800.566705 181.476959 
L 801.215273 187.58568 
L 801.863841 189.982001 
L 802.512409 207.71865 
L 802.512409 207.71865 
" clip-path="url(#pe43563d1f9)" style="fill: none; stroke: #4c72b0; stroke-width: 1.2; stroke-linecap: round"/>
   </g>
   <g id="line2d_17">
    <path d="M 92.330591 134.743596 
L 92.979159 122.547556 
L 93.627727 144.060929 
L 94.276295 149.200859 
L 94.924862 145.488272 
L 95.57343 135.298043 
L 96.870566 144.601279 
L 97.519134 152.774529 
L 98.167702 153.44609 
L 98.81627 152.467201 
L 99.464837 149.587632 
L 100.113405 142.649316 
L 100.761973 150.479828 
L 101.410541 155.515562 
L 102.059109 150.571819 
L 102.707677 150.698428 
L 103.356245 149.505399 
L 104.004813 141.452382 
L 104.65338 129.082506 
L 105.301948 122.505358 
L 106.599084 117.478645 
L 107.247652 113.286526 
L 107.89622 125.433842 
L 108.544788 131.742747 
L 109.193356 136.126752 
L 109.841923 136.113407 
L 110.490491 132.413445 
L 111.139059 142.737054 
L 111.787627 162.092575 
L 112.436195 174.685035 
L 113.084763 170.948149 
L 113.733331 162.039424 
L 114.381899 142.945888 
L 115.030466 135.58782 
L 115.679034 132.491845 
L 116.327602 133.048153 
L 116.97617 144.254835 
L 117.624738 159.095315 
L 118.273306 151.775857 
L 118.921874 143.058859 
L 119.570441 137.650465 
L 120.219009 134.890789 
L 120.867577 142.069453 
L 121.516145 156.175132 
L 122.164713 178.028106 
L 122.813281 161.294572 
L 124.110417 144.417456 
L 124.758984 147.979199 
L 125.407552 148.884518 
L 126.05612 169.105815 
L 126.704688 177.589544 
L 127.353256 153.825458 
L 128.001824 156.334514 
L 128.650392 138.775185 
L 129.29896 138.671631 
L 129.947527 138.383652 
L 130.596095 164.781035 
L 131.244663 164.617978 
L 131.893231 151.670449 
L 132.541799 148.719814 
L 133.190367 140.34637 
L 133.838935 143.294503 
L 135.13607 157.942226 
L 135.784638 165.523282 
L 136.433206 154.099482 
L 137.081774 155.740038 
L 137.730342 173.372667 
L 138.37891 171.049478 
L 139.027478 161.64112 
L 140.324613 172.391458 
L 140.973181 172.337523 
L 141.621749 169.217194 
L 142.270317 178.57682 
L 142.918885 175.606083 
L 143.567453 171.605153 
L 144.216021 163.032165 
L 144.864588 156.096708 
L 145.513156 141.502666 
L 146.161724 141.770497 
L 146.810292 141.468096 
L 147.45886 147.667175 
L 148.107428 165.753065 
L 148.755996 176.197383 
L 149.404564 156.989767 
L 150.053131 146.323927 
L 150.701699 142.928456 
L 151.350267 141.744187 
L 151.998835 153.265918 
L 152.647403 162.519606 
L 153.295971 177.121552 
L 153.944539 186.703088 
L 154.593106 188.411385 
L 155.890242 203.934252 
L 156.53881 202.651466 
L 157.187378 200.909276 
L 157.835946 200.605302 
L 158.484514 212.900864 
L 159.133082 198.627151 
L 159.781649 170.82059 
L 160.430217 177.998644 
L 161.078785 189.930987 
L 161.727353 195.704073 
L 162.375921 206.893925 
L 163.024489 203.431586 
L 163.673057 189.418698 
L 164.321625 194.385948 
L 164.970192 190.509322 
L 165.61876 200.018739 
L 166.267328 199.189665 
L 166.915896 200.678716 
L 167.564464 198.844064 
L 168.213032 196.033553 
L 168.8616 197.416409 
L 169.510167 194.76237 
L 170.158735 191.296625 
L 170.807303 202.858609 
L 171.455871 190.835 
L 172.104439 200.023309 
L 172.753007 186.443629 
L 173.401575 180.65285 
L 174.050143 184.534497 
L 174.69871 190.121899 
L 175.995846 218.624486 
L 176.644414 219.857392 
L 177.292982 180.604902 
L 177.94155 177.201876 
L 178.590118 177.76616 
L 179.238686 175.455057 
L 179.887253 182.39765 
L 180.535821 197.908423 
L 181.184389 204.294181 
L 181.832957 206.645771 
L 182.481525 211.518357 
L 183.130093 205.775755 
L 183.778661 222.826573 
L 184.427229 218.677332 
L 185.075796 215.868643 
L 185.724364 209.195492 
L 186.372932 201.111469 
L 187.0215 195.428917 
L 187.670068 203.463068 
L 188.318636 198.452258 
L 189.615771 210.849687 
L 190.264339 210.554248 
L 190.912907 221.505465 
L 191.561475 216.461787 
L 192.210043 217.034891 
L 193.507179 191.92929 
L 194.155747 202.021699 
L 194.804314 202.950945 
L 195.452882 196.287564 
L 196.10145 196.245382 
L 196.750018 196.6051 
L 197.398586 201.15179 
L 198.695722 226.870133 
L 199.34429 223.352615 
L 199.992857 213.289732 
L 200.641425 214.150066 
L 201.289993 210.810056 
L 201.938561 209.132461 
L 202.587129 209.349489 
L 203.235697 220.384045 
L 203.884265 224.362059 
L 204.532833 213.957333 
L 205.1814 218.565336 
L 206.478536 210.789321 
L 207.775672 224.498239 
L 208.42424 225.680248 
L 209.072808 211.583357 
L 210.369943 214.132191 
L 211.018511 214.644959 
L 211.667079 213.794933 
L 212.315647 225.472534 
L 212.964215 225.142333 
L 213.612783 211.434009 
L 214.261351 202.589595 
L 214.909918 199.610471 
L 215.558486 212.733408 
L 216.207054 213.4371 
L 216.855622 212.291155 
L 217.50419 213.833064 
L 218.152758 209.53785 
L 218.801326 210.217719 
L 219.449894 202.053181 
L 220.098461 198.971608 
L 220.747029 209.479496 
L 221.395597 224.475766 
L 222.044165 223.106945 
L 222.692733 214.48903 
L 223.341301 213.211764 
L 223.989869 209.901204 
L 224.638436 213.57393 
L 225.287004 214.548692 
L 225.935572 224.722391 
L 226.58414 225.45709 
L 227.232708 216.21422 
L 227.881276 213.761428 
L 228.529844 213.269972 
L 229.178412 214.737528 
L 229.826979 213.653272 
L 230.475547 225.579129 
L 231.124115 224.711061 
L 231.772683 208.454806 
L 232.421251 205.178369 
L 233.069819 213.590273 
L 233.718387 212.441936 
L 234.366955 217.306689 
L 235.015522 224.655756 
L 235.66409 226.582268 
L 236.312658 215.914991 
L 236.961226 217.995476 
L 237.609794 215.286986 
L 238.90693 218.212939 
L 239.555498 227.143804 
L 240.204065 227.203581 
L 240.852633 217.279056 
L 241.501201 216.844335 
L 242.149769 217.532421 
L 242.798337 216.172993 
L 243.446905 217.433508 
L 244.095473 228.59969 
L 244.74404 227.764823 
L 245.392608 213.029093 
L 246.041176 213.32464 
L 246.689744 215.102906 
L 247.338312 209.280846 
L 247.98688 212.105126 
L 248.635448 218.500993 
L 249.284016 214.116085 
L 249.932583 203.347998 
L 250.581151 197.544966 
L 251.229719 198.412056 
L 251.878287 200.61199 
L 252.526855 214.54946 
L 253.175423 218.040386 
L 253.823991 208.13289 
L 254.472559 200.038107 
L 255.121126 206.354066 
L 255.769694 210.599431 
L 256.418262 204.35821 
L 257.06683 207.547649 
L 257.715398 221.005678 
L 258.363966 225.280129 
L 259.012534 217.155568 
L 259.661101 213.907417 
L 260.309669 214.382843 
L 260.958237 203.183032 
L 261.606805 198.693303 
L 262.255373 209.726711 
L 262.903941 213.95245 
L 263.552509 203.891191 
L 264.849644 211.632666 
L 265.498212 206.70447 
L 266.14678 189.543517 
L 266.795348 187.577868 
L 267.443916 190.690626 
L 268.092484 182.84764 
L 268.741052 186.677174 
L 269.38962 187.509249 
L 270.038187 189.462052 
L 270.686755 198.595052 
L 271.335323 209.449059 
L 271.983891 201.201844 
L 272.632459 187.407066 
L 273.281027 187.896561 
L 273.929595 187.410265 
L 274.578163 187.922024 
L 275.22673 191.223698 
L 275.875298 186.821461 
L 276.523866 179.719486 
L 277.172434 167.18805 
L 277.821002 165.67868 
L 278.46957 164.83284 
L 279.118138 165.413321 
L 279.766705 168.43366 
L 280.415273 172.822512 
L 281.063841 173.705814 
L 281.712409 166.214096 
L 282.360977 170.142099 
L 283.009545 187.184878 
L 283.658113 194.293997 
L 284.306681 194.000291 
L 284.955248 200.093757 
L 285.603816 197.648006 
L 286.252384 177.94794 
L 286.900952 174.548375 
L 287.54952 177.713405 
L 288.198088 173.360993 
L 288.846656 182.657576 
L 289.495224 193.800866 
L 290.143791 195.720119 
L 290.792359 204.007928 
L 291.440927 176.11351 
L 292.089495 162.716101 
L 292.738063 155.313998 
L 293.386631 154.293775 
L 294.035199 160.733899 
L 294.683767 159.699666 
L 295.332334 151.37977 
L 295.980902 149.018889 
L 296.62947 149.144864 
L 297.278038 150.873056 
L 297.926606 158.99222 
L 298.575174 179.411129 
L 299.223742 179.13236 
L 299.872309 167.793859 
L 301.169445 161.770881 
L 301.818013 156.576169 
L 302.466581 141.301617 
L 303.115149 149.129872 
L 303.763717 152.544762 
L 304.412285 140.15199 
L 305.70942 130.019268 
L 306.357988 133.030143 
L 307.006556 127.798136 
L 307.655124 131.457398 
L 308.303692 131.568959 
L 308.95226 117.36173 
L 309.600828 123.334582 
L 310.249395 112.149309 
L 310.897963 112.946029 
L 311.546531 123.595784 
L 312.195099 139.164461 
L 312.843667 143.025769 
L 313.492235 133.003714 
L 314.140803 131.727018 
L 314.78937 127.11106 
L 315.437938 121.086506 
L 316.086506 128.632239 
L 316.735074 143.880757 
L 317.383642 147.123364 
L 318.03221 143.061829 
L 318.680778 152.488578 
L 319.329346 152.325148 
L 319.977913 151.655647 
L 320.626481 150.77488 
L 321.275049 160.624405 
L 321.923617 158.051071 
L 322.572185 149.825763 
L 323.220753 170.2264 
L 323.869321 165.080649 
L 324.517889 153.340088 
L 325.815024 164.539016 
L 326.463592 143.405597 
L 327.11216 135.461781 
L 327.760728 130.139826 
L 328.409296 131.137588 
L 329.057864 126.663073 
L 329.706432 139.981741 
L 330.354999 134.174449 
L 331.003567 133.272638 
L 331.652135 123.68037 
L 332.300703 124.639418 
L 333.597839 121.918138 
L 334.246407 124.239585 
L 334.894974 132.837743 
L 335.543542 129.720035 
L 336.19211 119.90725 
L 336.840678 129.679041 
L 337.489246 127.749951 
L 338.137814 121.794934 
L 338.786382 118.499201 
L 339.43495 124.292395 
L 340.083517 125.455273 
L 340.732085 128.450126 
L 341.380653 134.037845 
L 342.029221 140.66675 
L 342.677789 149.001964 
L 343.326357 144.192092 
L 343.974925 137.192531 
L 344.623493 133.462219 
L 345.27206 121.351921 
L 345.920628 123.727367 
L 346.569196 123.548818 
L 347.217764 131.775299 
L 347.866332 135.581896 
L 348.5149 135.519399 
L 349.163468 124.869051 
L 349.812035 123.637063 
L 350.460603 140.025468 
L 351.109171 150.834842 
L 351.757739 144.246439 
L 352.406307 142.731629 
L 353.054875 141.608636 
L 353.703443 125.89214 
L 354.352011 104.198247 
L 355.000578 94.617787 
L 355.649146 95.949567 
L 356.297714 96.910073 
L 356.946282 94.28011 
L 357.59485 101.490335 
L 358.243418 104.734779 
L 358.891986 112.788247 
L 359.540554 137.857637 
L 360.189121 148.551862 
L 360.837689 147.785666 
L 361.486257 150.192617 
L 362.134825 166.87125 
L 362.783393 168.157189 
L 363.431961 153.14117 
L 364.080529 166.113441 
L 364.729097 171.43431 
L 365.377664 168.731666 
L 366.026232 154.813589 
L 366.6748 154.128572 
L 367.323368 152.563532 
L 367.971936 144.329203 
L 367.971936 144.329203 
" clip-path="url(#pe43563d1f9)" style="fill: none; stroke: #dd8452; stroke-width: 1.2; stroke-linecap: round"/>
   </g>
   <g id="patch_4">
    <path d="M 56.8215 264.53475 
L 56.8215 42.77475 
" style="fill: none; stroke: #cccccc; stroke-linejoin: miter; stroke-linecap: square"/>
   </g>
   <g id="patch_5">
    <path d="M 838.0215 264.53475 
L 838.0215 42.77475 
" style="fill: none; stroke: #cccccc; stroke-linejoin: miter; stroke-linecap: square"/>
   </g>
   <g id="patch_6">
    <path d="M 56.8215 264.53475 
L 838.0215 264.53475 
" style="fill: none; stroke: #cccccc; stroke-linejoin: miter; stroke-linecap: square"/>
   </g>
   <g id="patch_7">
    <path d="M 56.8215 42.77475 
L 838.0215 42.77475 
" style="fill: none; stroke: #cccccc; stroke-linejoin: miter; stroke-linecap: square"/>
   </g>
   <g id="text_17">
    <!-- NeuralProphet model of natural gas consumption solely based on temperature and weekend regressors -->
    <g style="fill: #262626" transform="translate(7.2 21.177) scale(0.192 -0.192)">
     <defs>
      <path id="ArialMT-4e" d="M 488 0 
L 488 4581 
L 1109 4581 
L 3516 984 
L 3516 4581 
L 4097 4581 
L 4097 0 
L 3475 0 
L 1069 3600 
L 1069 0 
L 488 0 
z
" transform="scale(0.015625)"/>
      <path id="ArialMT-72" d="M 416 0 
L 416 3319 
L 922 3319 
L 922 2816 
Q 1116 3169 1280 3281 
Q 1444 3394 1641 3394 
Q 1925 3394 2219 3213 
L 2025 2691 
Q 1819 2813 1613 2813 
Q 1428 2813 1281 2702 
Q 1134 2591 1072 2394 
Q 978 2094 978 1738 
L 978 0 
L 416 0 
z
" transform="scale(0.015625)"/>
      <path id="ArialMT-61" d="M 2588 409 
Q 2275 144 1986 34 
Q 1697 -75 1366 -75 
Q 819 -75 525 192 
Q 231 459 231 875 
Q 231 1119 342 1320 
Q 453 1522 633 1644 
Q 813 1766 1038 1828 
Q 1203 1872 1538 1913 
Q 2219 1994 2541 2106 
Q 2544 2222 2544 2253 
Q 2544 2597 2384 2738 
Q 2169 2928 1744 2928 
Q 1347 2928 1158 2789 
Q 969 2650 878 2297 
L 328 2372 
Q 403 2725 575 2942 
Q 747 3159 1072 3276 
Q 1397 3394 1825 3394 
Q 2250 3394 2515 3294 
Q 2781 3194 2906 3042 
Q 3031 2891 3081 2659 
Q 3109 2516 3109 2141 
L 3109 1391 
Q 3109 606 3145 398 
Q 3181 191 3288 0 
L 2700 0 
Q 2613 175 2588 409 
z
M 2541 1666 
Q 2234 1541 1622 1453 
Q 1275 1403 1131 1340 
Q 988 1278 909 1158 
Q 831 1038 831 891 
Q 831 666 1001 516 
Q 1172 366 1500 366 
Q 1825 366 2078 508 
Q 2331 650 2450 897 
Q 2541 1088 2541 1459 
L 2541 1666 
z
" transform="scale(0.015625)"/>
      <path id="ArialMT-6c" d="M 409 0 
L 409 4581 
L 972 4581 
L 972 0 
L 409 0 
z
" transform="scale(0.015625)"/>
      <path id="ArialMT-50" d="M 494 0 
L 494 4581 
L 2222 4581 
Q 2678 4581 2919 4538 
Q 3256 4481 3484 4323 
Q 3713 4166 3852 3881 
Q 3991 3597 3991 3256 
Q 3991 2672 3619 2267 
Q 3247 1863 2275 1863 
L 1100 1863 
L 1100 0 
L 494 0 
z
M 1100 2403 
L 2284 2403 
Q 2872 2403 3119 2622 
Q 3366 2841 3366 3238 
Q 3366 3525 3220 3729 
Q 3075 3934 2838 4000 
Q 2684 4041 2272 4041 
L 1100 4041 
L 1100 2403 
z
" transform="scale(0.015625)"/>
      <path id="ArialMT-64" d="M 2575 0 
L 2575 419 
Q 2259 -75 1647 -75 
Q 1250 -75 917 144 
Q 584 363 401 755 
Q 219 1147 219 1656 
Q 219 2153 384 2558 
Q 550 2963 881 3178 
Q 1213 3394 1622 3394 
Q 1922 3394 2156 3267 
Q 2391 3141 2538 2938 
L 2538 4581 
L 3097 4581 
L 3097 0 
L 2575 0 
z
M 797 1656 
Q 797 1019 1065 703 
Q 1334 388 1700 388 
Q 2069 388 2326 689 
Q 2584 991 2584 1609 
Q 2584 2291 2321 2609 
Q 2059 2928 1675 2928 
Q 1300 2928 1048 2622 
Q 797 2316 797 1656 
z
" transform="scale(0.015625)"/>
      <path id="ArialMT-66" d="M 556 0 
L 556 2881 
L 59 2881 
L 59 3319 
L 556 3319 
L 556 3672 
Q 556 4006 616 4169 
Q 697 4388 901 4523 
Q 1106 4659 1475 4659 
Q 1713 4659 2000 4603 
L 1916 4113 
Q 1741 4144 1584 4144 
Q 1328 4144 1222 4034 
Q 1116 3925 1116 3625 
L 1116 3319 
L 1763 3319 
L 1763 2881 
L 1116 2881 
L 1116 0 
L 556 0 
z
" transform="scale(0.015625)"/>
      <path id="ArialMT-67" d="M 319 -275 
L 866 -356 
Q 900 -609 1056 -725 
Q 1266 -881 1628 -881 
Q 2019 -881 2231 -725 
Q 2444 -569 2519 -288 
Q 2563 -116 2559 434 
Q 2191 0 1641 0 
Q 956 0 581 494 
Q 206 988 206 1678 
Q 206 2153 378 2554 
Q 550 2956 876 3175 
Q 1203 3394 1644 3394 
Q 2231 3394 2613 2919 
L 2613 3319 
L 3131 3319 
L 3131 450 
Q 3131 -325 2973 -648 
Q 2816 -972 2473 -1159 
Q 2131 -1347 1631 -1347 
Q 1038 -1347 672 -1080 
Q 306 -813 319 -275 
z
M 784 1719 
Q 784 1066 1043 766 
Q 1303 466 1694 466 
Q 2081 466 2343 764 
Q 2606 1063 2606 1700 
Q 2606 2309 2336 2618 
Q 2066 2928 1684 2928 
Q 1309 2928 1046 2623 
Q 784 2319 784 1719 
z
" transform="scale(0.015625)"/>
      <path id="ArialMT-63" d="M 2588 1216 
L 3141 1144 
Q 3050 572 2676 248 
Q 2303 -75 1759 -75 
Q 1078 -75 664 370 
Q 250 816 250 1647 
Q 250 2184 428 2587 
Q 606 2991 970 3192 
Q 1334 3394 1763 3394 
Q 2303 3394 2647 3120 
Q 2991 2847 3088 2344 
L 2541 2259 
Q 2463 2594 2264 2762 
Q 2066 2931 1784 2931 
Q 1359 2931 1093 2626 
Q 828 2322 828 1663 
Q 828 994 1084 691 
Q 1341 388 1753 388 
Q 2084 388 2306 591 
Q 2528 794 2588 1216 
z
" transform="scale(0.015625)"/>
      <path id="ArialMT-79" d="M 397 -1278 
L 334 -750 
Q 519 -800 656 -800 
Q 844 -800 956 -737 
Q 1069 -675 1141 -563 
Q 1194 -478 1313 -144 
Q 1328 -97 1363 -6 
L 103 3319 
L 709 3319 
L 1400 1397 
Q 1534 1031 1641 628 
Q 1738 1016 1872 1384 
L 2581 3319 
L 3144 3319 
L 1881 -56 
Q 1678 -603 1566 -809 
Q 1416 -1088 1222 -1217 
Q 1028 -1347 759 -1347 
Q 597 -1347 397 -1278 
z
" transform="scale(0.015625)"/>
      <path id="ArialMT-62" d="M 941 0 
L 419 0 
L 419 4581 
L 981 4581 
L 981 2947 
Q 1338 3394 1891 3394 
Q 2197 3394 2470 3270 
Q 2744 3147 2920 2923 
Q 3097 2700 3197 2384 
Q 3297 2069 3297 1709 
Q 3297 856 2875 390 
Q 2453 -75 1863 -75 
Q 1275 -75 941 416 
L 941 0 
z
M 934 1684 
Q 934 1088 1097 822 
Q 1363 388 1816 388 
Q 2184 388 2453 708 
Q 2722 1028 2722 1663 
Q 2722 2313 2464 2622 
Q 2206 2931 1841 2931 
Q 1472 2931 1203 2611 
Q 934 2291 934 1684 
z
" transform="scale(0.015625)"/>
      <path id="ArialMT-77" d="M 1034 0 
L 19 3319 
L 600 3319 
L 1128 1403 
L 1325 691 
Q 1338 744 1497 1375 
L 2025 3319 
L 2603 3319 
L 3100 1394 
L 3266 759 
L 3456 1400 
L 4025 3319 
L 4572 3319 
L 3534 0 
L 2950 0 
L 2422 1988 
L 2294 2553 
L 1622 0 
L 1034 0 
z
" transform="scale(0.015625)"/>
      <path id="ArialMT-6b" d="M 425 0 
L 425 4581 
L 988 4581 
L 988 1969 
L 2319 3319 
L 3047 3319 
L 1778 2088 
L 3175 0 
L 2481 0 
L 1384 1697 
L 988 1316 
L 988 0 
L 425 0 
z
" transform="scale(0.015625)"/>
     </defs>
     <use xlink:href="#ArialMT-4e"/>
     <use xlink:href="#ArialMT-65" x="72.216797"/>
     <use xlink:href="#ArialMT-75" x="127.832031"/>
     <use xlink:href="#ArialMT-72" x="183.447266"/>
     <use xlink:href="#ArialMT-61" x="216.748047"/>
     <use xlink:href="#ArialMT-6c" x="272.363281"/>
     <use xlink:href="#ArialMT-50" x="294.580078"/>
     <use xlink:href="#ArialMT-72" x="361.279297"/>
     <use xlink:href="#ArialMT-6f" x="394.580078"/>
     <use xlink:href="#ArialMT-70" x="450.195312"/>
     <use xlink:href="#ArialMT-68" x="505.810547"/>
     <use xlink:href="#ArialMT-65" x="561.425781"/>
     <use xlink:href="#ArialMT-74" x="617.041016"/>
     <use xlink:href="#ArialMT-20" x="644.824219"/>
     <use xlink:href="#ArialMT-6d" x="672.607422"/>
     <use xlink:href="#ArialMT-6f" x="755.908203"/>
     <use xlink:href="#ArialMT-64" x="811.523438"/>
     <use xlink:href="#ArialMT-65" x="867.138672"/>
     <use xlink:href="#ArialMT-6c" x="922.753906"/>
     <use xlink:href="#ArialMT-20" x="944.970703"/>
     <use xlink:href="#ArialMT-6f" x="972.753906"/>
     <use xlink:href="#ArialMT-66" x="1028.369141"/>
     <use xlink:href="#ArialMT-20" x="1056.152344"/>
     <use xlink:href="#ArialMT-6e" x="1083.935547"/>
     <use xlink:href="#ArialMT-61" x="1139.550781"/>
     <use xlink:href="#ArialMT-74" x="1195.166016"/>
     <use xlink:href="#ArialMT-75" x="1222.949219"/>
     <use xlink:href="#ArialMT-72" x="1278.564453"/>
     <use xlink:href="#ArialMT-61" x="1311.865234"/>
     <use xlink:href="#ArialMT-6c" x="1367.480469"/>
     <use xlink:href="#ArialMT-20" x="1389.697266"/>
     <use xlink:href="#ArialMT-67" x="1417.480469"/>
     <use xlink:href="#ArialMT-61" x="1473.095703"/>
     <use xlink:href="#ArialMT-73" x="1528.710938"/>
     <use xlink:href="#ArialMT-20" x="1578.710938"/>
     <use xlink:href="#ArialMT-63" x="1606.494141"/>
     <use xlink:href="#ArialMT-6f" x="1656.494141"/>
     <use xlink:href="#ArialMT-6e" x="1712.109375"/>
     <use xlink:href="#ArialMT-73" x="1767.724609"/>
     <use xlink:href="#ArialMT-75" x="1817.724609"/>
     <use xlink:href="#ArialMT-6d" x="1873.339844"/>
     <use xlink:href="#ArialMT-70" x="1956.640625"/>
     <use xlink:href="#ArialMT-74" x="2012.255859"/>
     <use xlink:href="#ArialMT-69" x="2040.039062"/>
     <use xlink:href="#ArialMT-6f" x="2062.255859"/>
     <use xlink:href="#ArialMT-6e" x="2117.871094"/>
     <use xlink:href="#ArialMT-20" x="2173.486328"/>
     <use xlink:href="#ArialMT-73" x="2201.269531"/>
     <use xlink:href="#ArialMT-6f" x="2251.269531"/>
     <use xlink:href="#ArialMT-6c" x="2306.884766"/>
     <use xlink:href="#ArialMT-65" x="2329.101562"/>
     <use xlink:href="#ArialMT-6c" x="2384.716797"/>
     <use xlink:href="#ArialMT-79" x="2406.933594"/>
     <use xlink:href="#ArialMT-20" x="2456.933594"/>
     <use xlink:href="#ArialMT-62" x="2484.716797"/>
     <use xlink:href="#ArialMT-61" x="2540.332031"/>
     <use xlink:href="#ArialMT-73" x="2595.947266"/>
     <use xlink:href="#ArialMT-65" x="2645.947266"/>
     <use xlink:href="#ArialMT-64" x="2701.5625"/>
     <use xlink:href="#ArialMT-20" x="2757.177734"/>
     <use xlink:href="#ArialMT-6f" x="2784.960938"/>
     <use xlink:href="#ArialMT-6e" x="2840.576172"/>
     <use xlink:href="#ArialMT-20" x="2896.191406"/>
     <use xlink:href="#ArialMT-74" x="2923.974609"/>
     <use xlink:href="#ArialMT-65" x="2951.757812"/>
     <use xlink:href="#ArialMT-6d" x="3007.373047"/>
     <use xlink:href="#ArialMT-70" x="3090.673828"/>
     <use xlink:href="#ArialMT-65" x="3146.289062"/>
     <use xlink:href="#ArialMT-72" x="3201.904297"/>
     <use xlink:href="#ArialMT-61" x="3235.205078"/>
     <use xlink:href="#ArialMT-74" x="3290.820312"/>
     <use xlink:href="#ArialMT-75" x="3318.603516"/>
     <use xlink:href="#ArialMT-72" x="3374.21875"/>
     <use xlink:href="#ArialMT-65" x="3407.519531"/>
     <use xlink:href="#ArialMT-20" x="3463.134766"/>
     <use xlink:href="#ArialMT-61" x="3490.917969"/>
     <use xlink:href="#ArialMT-6e" x="3546.533203"/>
     <use xlink:href="#ArialMT-64" x="3602.148438"/>
     <use xlink:href="#ArialMT-20" x="3657.763672"/>
     <use xlink:href="#ArialMT-77" x="3685.546875"/>
     <use xlink:href="#ArialMT-65" x="3757.763672"/>
     <use xlink:href="#ArialMT-65" x="3813.378906"/>
     <use xlink:href="#ArialMT-6b" x="3868.994141"/>
     <use xlink:href="#ArialMT-65" x="3918.994141"/>
     <use xlink:href="#ArialMT-6e" x="3974.609375"/>
     <use xlink:href="#ArialMT-64" x="4030.224609"/>
     <use xlink:href="#ArialMT-20" x="4085.839844"/>
     <use xlink:href="#ArialMT-72" x="4113.623047"/>
     <use xlink:href="#ArialMT-65" x="4146.923828"/>
     <use xlink:href="#ArialMT-67" x="4202.539062"/>
     <use xlink:href="#ArialMT-72" x="4258.154297"/>
     <use xlink:href="#ArialMT-65" x="4291.455078"/>
     <use xlink:href="#ArialMT-73" x="4347.070312"/>
     <use xlink:href="#ArialMT-73" x="4397.070312"/>
     <use xlink:href="#ArialMT-6f" x="4447.070312"/>
     <use xlink:href="#ArialMT-72" x="4502.685547"/>
     <use xlink:href="#ArialMT-73" x="4535.986328"/>
    </g>
   </g>
   <g id="legend_1">
    <g id="patch_8">
     <path d="M 633.11625 131.96275 
L 825.7015 131.96275 
Q 829.2215 131.96275 829.2215 128.44275 
L 829.2215 55.09475 
Q 829.2215 51.57475 825.7015 51.57475 
L 633.11625 51.57475 
Q 629.59625 51.57475 629.59625 55.09475 
L 629.59625 128.44275 
Q 629.59625 131.96275 633.11625 131.96275 
z
" style="fill: #ffffff; opacity: 0.8; stroke: #cccccc; stroke-width: 0.8; stroke-linejoin: miter"/>
    </g>
    <g id="line2d_18">
     <path d="M 636.63625 65.267 
L 654.23625 65.267 
L 671.83625 65.267 
" style="fill: none; stroke: #ff0000; stroke-width: 0.8; stroke-linecap: round"/>
    </g>
    <g id="text_18">
     <!-- Training/Test split -->
     <g style="fill: #262626" transform="translate(685.91625 71.427) scale(0.176 -0.176)">
      <defs>
       <path id="ArialMT-54" d="M 1659 0 
L 1659 4041 
L 150 4041 
L 150 4581 
L 3781 4581 
L 3781 4041 
L 2266 4041 
L 2266 0 
L 1659 0 
z
" transform="scale(0.015625)"/>
       <path id="ArialMT-2f" d="M 0 -78 
L 1328 4659 
L 1778 4659 
L 453 -78 
L 0 -78 
z
" transform="scale(0.015625)"/>
      </defs>
      <use xlink:href="#ArialMT-54"/>
      <use xlink:href="#ArialMT-72" x="57.333984"/>
      <use xlink:href="#ArialMT-61" x="90.634766"/>
      <use xlink:href="#ArialMT-69" x="146.25"/>
      <use xlink:href="#ArialMT-6e" x="168.466797"/>
      <use xlink:href="#ArialMT-69" x="224.082031"/>
      <use xlink:href="#ArialMT-6e" x="246.298828"/>
      <use xlink:href="#ArialMT-67" x="301.914062"/>
      <use xlink:href="#ArialMT-2f" x="357.529297"/>
      <use xlink:href="#ArialMT-54" x="385.3125"/>
      <use xlink:href="#ArialMT-65" x="435.271484"/>
      <use xlink:href="#ArialMT-73" x="490.886719"/>
      <use xlink:href="#ArialMT-74" x="540.886719"/>
      <use xlink:href="#ArialMT-20" x="568.669922"/>
      <use xlink:href="#ArialMT-73" x="596.453125"/>
      <use xlink:href="#ArialMT-70" x="646.453125"/>
      <use xlink:href="#ArialMT-6c" x="702.068359"/>
      <use xlink:href="#ArialMT-69" x="724.285156"/>
      <use xlink:href="#ArialMT-74" x="746.501953"/>
     </g>
    </g>
    <g id="line2d_19">
     <path d="M 636.63625 90.369 
L 654.23625 90.369 
L 671.83625 90.369 
" style="fill: none; stroke: #4c72b0; stroke-width: 1.2; stroke-linecap: round"/>
    </g>
    <g id="text_19">
     <!-- Actual -->
     <g style="fill: #262626" transform="translate(685.91625 96.529) scale(0.176 -0.176)">
      <defs>
       <path id="ArialMT-41" d="M -9 0 
L 1750 4581 
L 2403 4581 
L 4278 0 
L 3588 0 
L 3053 1388 
L 1138 1388 
L 634 0 
L -9 0 
z
M 1313 1881 
L 2866 1881 
L 2388 3150 
Q 2169 3728 2063 4100 
Q 1975 3659 1816 3225 
L 1313 1881 
z
" transform="scale(0.015625)"/>
      </defs>
      <use xlink:href="#ArialMT-41"/>
      <use xlink:href="#ArialMT-63" x="66.699219"/>
      <use xlink:href="#ArialMT-74" x="116.699219"/>
      <use xlink:href="#ArialMT-75" x="144.482422"/>
      <use xlink:href="#ArialMT-61" x="200.097656"/>
      <use xlink:href="#ArialMT-6c" x="255.712891"/>
     </g>
    </g>
    <g id="line2d_20">
     <path d="M 636.63625 115.26475 
L 654.23625 115.26475 
L 671.83625 115.26475 
" style="fill: none; stroke: #dd8452; stroke-width: 1.2; stroke-linecap: round"/>
    </g>
    <g id="text_20">
     <!-- Predicted -->
     <g style="fill: #262626" transform="translate(685.91625 121.42475) scale(0.176 -0.176)">
      <use xlink:href="#ArialMT-50"/>
      <use xlink:href="#ArialMT-72" x="66.699219"/>
      <use xlink:href="#ArialMT-65" x="100"/>
      <use xlink:href="#ArialMT-64" x="155.615234"/>
      <use xlink:href="#ArialMT-69" x="211.230469"/>
      <use xlink:href="#ArialMT-63" x="233.447266"/>
      <use xlink:href="#ArialMT-74" x="283.447266"/>
      <use xlink:href="#ArialMT-65" x="311.230469"/>
      <use xlink:href="#ArialMT-64" x="366.845703"/>
     </g>
    </g>
   </g>
  </g>
 </g>
 <defs>
  <clipPath id="pe43563d1f9">
   <rect x="56.8215" y="42.77475" width="781.2" height="221.76"/>
  </clipPath>
 </defs>
</svg>
