<?xml version="1.0" encoding="utf-8" standalone="no"?>
<!DOCTYPE svg PUBLIC "-//W3C//DTD SVG 1.1//EN"
  "http://www.w3.org/Graphics/SVG/1.1/DTD/svg11.dtd">
<svg xmlns:xlink="http://www.w3.org/1999/xlink" width="855.224552pt" height="280.53275pt" viewBox="0 0 855.224552 280.53275" xmlns="http://www.w3.org/2000/svg" version="1.1">
 <metadata>
  <rdf:RDF xmlns:dc="http://purl.org/dc/elements/1.1/" xmlns:cc="http://creativecommons.org/ns#" xmlns:rdf="http://www.w3.org/1999/02/22-rdf-syntax-ns#">
   <cc:Work>
    <dc:type rdf:resource="http://purl.org/dc/dcmitype/StillImage"/>
    <dc:date>2023-05-13T16:00:05.839486</dc:date>
    <dc:format>image/svg+xml</dc:format>
    <dc:creator>
     <cc:Agent>
      <dc:title>Matplotlib v3.7.1, https://matplotlib.org/</dc:title>
     </cc:Agent>
    </dc:creator>
   </cc:Work>
  </rdf:RDF>
 </metadata>
 <defs>
  <style type="text/css">*{stroke-linejoin: round; stroke-linecap: butt}</style>
 </defs>
 <g id="figure_1">
  <g id="patch_1">
   <path d="M 0 280.53275 
L 855.224552 280.53275 
L 855.224552 0 
L 0 0 
z
" style="fill: #ffffff"/>
  </g>
  <g id="axes_1">
   <g id="patch_2">
    <path d="M 47.30525 248.937 
L 828.50525 248.937 
L 828.50525 27.177 
L 47.30525 27.177 
z
" style="fill: #ffffff"/>
   </g>
   <g id="matplotlib.axis_1">
    <g id="xtick_1">
     <g id="line2d_1">
      <path d="M 82.814341 248.937 
L 82.814341 27.177 
" clip-path="url(#pd88c054b3c)" style="fill: none; stroke: #cccccc; stroke-width: 0.8; stroke-linecap: round"/>
     </g>
     <g id="text_1">
      <!-- 2020-01 -->
      <g style="fill: #262626" transform="translate(50.522466 269.83475) scale(0.176 -0.176)">
       <defs>
        <path id="ArialMT-32" d="M 3222 541 
L 3222 0 
L 194 0 
Q 188 203 259 391 
Q 375 700 629 1000 
Q 884 1300 1366 1694 
Q 2113 2306 2375 2664 
Q 2638 3022 2638 3341 
Q 2638 3675 2398 3904 
Q 2159 4134 1775 4134 
Q 1369 4134 1125 3890 
Q 881 3647 878 3216 
L 300 3275 
Q 359 3922 746 4261 
Q 1134 4600 1788 4600 
Q 2447 4600 2831 4234 
Q 3216 3869 3216 3328 
Q 3216 3053 3103 2787 
Q 2991 2522 2730 2228 
Q 2469 1934 1863 1422 
Q 1356 997 1212 845 
Q 1069 694 975 541 
L 3222 541 
z
" transform="scale(0.015625)"/>
        <path id="ArialMT-30" d="M 266 2259 
Q 266 3072 433 3567 
Q 600 4063 929 4331 
Q 1259 4600 1759 4600 
Q 2128 4600 2406 4451 
Q 2684 4303 2865 4023 
Q 3047 3744 3150 3342 
Q 3253 2941 3253 2259 
Q 3253 1453 3087 958 
Q 2922 463 2592 192 
Q 2263 -78 1759 -78 
Q 1097 -78 719 397 
Q 266 969 266 2259 
z
M 844 2259 
Q 844 1131 1108 757 
Q 1372 384 1759 384 
Q 2147 384 2411 759 
Q 2675 1134 2675 2259 
Q 2675 3391 2411 3762 
Q 2147 4134 1753 4134 
Q 1366 4134 1134 3806 
Q 844 3388 844 2259 
z
" transform="scale(0.015625)"/>
        <path id="ArialMT-2d" d="M 203 1375 
L 203 1941 
L 1931 1941 
L 1931 1375 
L 203 1375 
z
" transform="scale(0.015625)"/>
        <path id="ArialMT-31" d="M 2384 0 
L 1822 0 
L 1822 3584 
Q 1619 3391 1289 3197 
Q 959 3003 697 2906 
L 697 3450 
Q 1169 3672 1522 3987 
Q 1875 4303 2022 4600 
L 2384 4600 
L 2384 0 
z
" transform="scale(0.015625)"/>
       </defs>
       <use xlink:href="#ArialMT-32"/>
       <use xlink:href="#ArialMT-30" x="55.615234"/>
       <use xlink:href="#ArialMT-32" x="111.230469"/>
       <use xlink:href="#ArialMT-30" x="166.845703"/>
       <use xlink:href="#ArialMT-2d" x="222.460938"/>
       <use xlink:href="#ArialMT-30" x="255.761719"/>
       <use xlink:href="#ArialMT-31" x="311.376953"/>
      </g>
     </g>
    </g>
    <g id="xtick_2">
     <g id="line2d_2">
      <path d="M 163.729595 248.937 
L 163.729595 27.177 
" clip-path="url(#pd88c054b3c)" style="fill: none; stroke: #cccccc; stroke-width: 0.8; stroke-linecap: round"/>
     </g>
     <g id="text_2">
      <!-- 2020-05 -->
      <g style="fill: #262626" transform="translate(131.43772 269.83475) scale(0.176 -0.176)">
       <defs>
        <path id="ArialMT-35" d="M 266 1200 
L 856 1250 
Q 922 819 1161 601 
Q 1400 384 1738 384 
Q 2144 384 2425 690 
Q 2706 997 2706 1503 
Q 2706 1984 2436 2262 
Q 2166 2541 1728 2541 
Q 1456 2541 1237 2417 
Q 1019 2294 894 2097 
L 366 2166 
L 809 4519 
L 3088 4519 
L 3088 3981 
L 1259 3981 
L 1013 2750 
Q 1425 3038 1878 3038 
Q 2478 3038 2890 2622 
Q 3303 2206 3303 1553 
Q 3303 931 2941 478 
Q 2500 -78 1738 -78 
Q 1113 -78 717 272 
Q 322 622 266 1200 
z
" transform="scale(0.015625)"/>
       </defs>
       <use xlink:href="#ArialMT-32"/>
       <use xlink:href="#ArialMT-30" x="55.615234"/>
       <use xlink:href="#ArialMT-32" x="111.230469"/>
       <use xlink:href="#ArialMT-30" x="166.845703"/>
       <use xlink:href="#ArialMT-2d" x="222.460938"/>
       <use xlink:href="#ArialMT-30" x="255.761719"/>
       <use xlink:href="#ArialMT-35" x="311.376953"/>
      </g>
     </g>
    </g>
    <g id="xtick_3">
     <g id="line2d_3">
      <path d="M 245.982292 248.937 
L 245.982292 27.177 
" clip-path="url(#pd88c054b3c)" style="fill: none; stroke: #cccccc; stroke-width: 0.8; stroke-linecap: round"/>
     </g>
     <g id="text_3">
      <!-- 2020-09 -->
      <g style="fill: #262626" transform="translate(213.690417 269.83475) scale(0.176 -0.176)">
       <defs>
        <path id="ArialMT-39" d="M 350 1059 
L 891 1109 
Q 959 728 1153 556 
Q 1347 384 1650 384 
Q 1909 384 2104 503 
Q 2300 622 2425 820 
Q 2550 1019 2634 1356 
Q 2719 1694 2719 2044 
Q 2719 2081 2716 2156 
Q 2547 1888 2255 1720 
Q 1963 1553 1622 1553 
Q 1053 1553 659 1965 
Q 266 2378 266 3053 
Q 266 3750 677 4175 
Q 1088 4600 1706 4600 
Q 2153 4600 2523 4359 
Q 2894 4119 3086 3673 
Q 3278 3228 3278 2384 
Q 3278 1506 3087 986 
Q 2897 466 2520 194 
Q 2144 -78 1638 -78 
Q 1100 -78 759 220 
Q 419 519 350 1059 
z
M 2653 3081 
Q 2653 3566 2395 3850 
Q 2138 4134 1775 4134 
Q 1400 4134 1122 3828 
Q 844 3522 844 3034 
Q 844 2597 1108 2323 
Q 1372 2050 1759 2050 
Q 2150 2050 2401 2323 
Q 2653 2597 2653 3081 
z
" transform="scale(0.015625)"/>
       </defs>
       <use xlink:href="#ArialMT-32"/>
       <use xlink:href="#ArialMT-30" x="55.615234"/>
       <use xlink:href="#ArialMT-32" x="111.230469"/>
       <use xlink:href="#ArialMT-30" x="166.845703"/>
       <use xlink:href="#ArialMT-2d" x="222.460938"/>
       <use xlink:href="#ArialMT-30" x="255.761719"/>
       <use xlink:href="#ArialMT-39" x="311.376953"/>
      </g>
     </g>
    </g>
    <g id="xtick_4">
     <g id="line2d_4">
      <path d="M 327.566267 248.937 
L 327.566267 27.177 
" clip-path="url(#pd88c054b3c)" style="fill: none; stroke: #cccccc; stroke-width: 0.8; stroke-linecap: round"/>
     </g>
     <g id="text_4">
      <!-- 2021-01 -->
      <g style="fill: #262626" transform="translate(295.274392 269.83475) scale(0.176 -0.176)">
       <use xlink:href="#ArialMT-32"/>
       <use xlink:href="#ArialMT-30" x="55.615234"/>
       <use xlink:href="#ArialMT-32" x="111.230469"/>
       <use xlink:href="#ArialMT-31" x="166.845703"/>
       <use xlink:href="#ArialMT-2d" x="222.460938"/>
       <use xlink:href="#ArialMT-30" x="255.761719"/>
       <use xlink:href="#ArialMT-31" x="311.376953"/>
      </g>
     </g>
    </g>
    <g id="xtick_5">
     <g id="line2d_5">
      <path d="M 407.8128 248.937 
L 407.8128 27.177 
" clip-path="url(#pd88c054b3c)" style="fill: none; stroke: #cccccc; stroke-width: 0.8; stroke-linecap: round"/>
     </g>
     <g id="text_5">
      <!-- 2021-05 -->
      <g style="fill: #262626" transform="translate(375.520925 269.83475) scale(0.176 -0.176)">
       <use xlink:href="#ArialMT-32"/>
       <use xlink:href="#ArialMT-30" x="55.615234"/>
       <use xlink:href="#ArialMT-32" x="111.230469"/>
       <use xlink:href="#ArialMT-31" x="166.845703"/>
       <use xlink:href="#ArialMT-2d" x="222.460938"/>
       <use xlink:href="#ArialMT-30" x="255.761719"/>
       <use xlink:href="#ArialMT-35" x="311.376953"/>
      </g>
     </g>
    </g>
    <g id="xtick_6">
     <g id="line2d_6">
      <path d="M 490.065497 248.937 
L 490.065497 27.177 
" clip-path="url(#pd88c054b3c)" style="fill: none; stroke: #cccccc; stroke-width: 0.8; stroke-linecap: round"/>
     </g>
     <g id="text_6">
      <!-- 2021-09 -->
      <g style="fill: #262626" transform="translate(457.773622 269.83475) scale(0.176 -0.176)">
       <use xlink:href="#ArialMT-32"/>
       <use xlink:href="#ArialMT-30" x="55.615234"/>
       <use xlink:href="#ArialMT-32" x="111.230469"/>
       <use xlink:href="#ArialMT-31" x="166.845703"/>
       <use xlink:href="#ArialMT-2d" x="222.460938"/>
       <use xlink:href="#ArialMT-30" x="255.761719"/>
       <use xlink:href="#ArialMT-39" x="311.376953"/>
      </g>
     </g>
    </g>
    <g id="xtick_7">
     <g id="line2d_7">
      <path d="M 571.649472 248.937 
L 571.649472 27.177 
" clip-path="url(#pd88c054b3c)" style="fill: none; stroke: #cccccc; stroke-width: 0.8; stroke-linecap: round"/>
     </g>
     <g id="text_7">
      <!-- 2022-01 -->
      <g style="fill: #262626" transform="translate(539.357597 269.83475) scale(0.176 -0.176)">
       <use xlink:href="#ArialMT-32"/>
       <use xlink:href="#ArialMT-30" x="55.615234"/>
       <use xlink:href="#ArialMT-32" x="111.230469"/>
       <use xlink:href="#ArialMT-32" x="166.845703"/>
       <use xlink:href="#ArialMT-2d" x="222.460938"/>
       <use xlink:href="#ArialMT-30" x="255.761719"/>
       <use xlink:href="#ArialMT-31" x="311.376953"/>
      </g>
     </g>
    </g>
    <g id="xtick_8">
     <g id="line2d_8">
      <path d="M 651.896005 248.937 
L 651.896005 27.177 
" clip-path="url(#pd88c054b3c)" style="fill: none; stroke: #cccccc; stroke-width: 0.8; stroke-linecap: round"/>
     </g>
     <g id="text_8">
      <!-- 2022-05 -->
      <g style="fill: #262626" transform="translate(619.60413 269.83475) scale(0.176 -0.176)">
       <use xlink:href="#ArialMT-32"/>
       <use xlink:href="#ArialMT-30" x="55.615234"/>
       <use xlink:href="#ArialMT-32" x="111.230469"/>
       <use xlink:href="#ArialMT-32" x="166.845703"/>
       <use xlink:href="#ArialMT-2d" x="222.460938"/>
       <use xlink:href="#ArialMT-30" x="255.761719"/>
       <use xlink:href="#ArialMT-35" x="311.376953"/>
      </g>
     </g>
    </g>
    <g id="xtick_9">
     <g id="line2d_9">
      <path d="M 734.148701 248.937 
L 734.148701 27.177 
" clip-path="url(#pd88c054b3c)" style="fill: none; stroke: #cccccc; stroke-width: 0.8; stroke-linecap: round"/>
     </g>
     <g id="text_9">
      <!-- 2022-09 -->
      <g style="fill: #262626" transform="translate(701.856826 269.83475) scale(0.176 -0.176)">
       <use xlink:href="#ArialMT-32"/>
       <use xlink:href="#ArialMT-30" x="55.615234"/>
       <use xlink:href="#ArialMT-32" x="111.230469"/>
       <use xlink:href="#ArialMT-32" x="166.845703"/>
       <use xlink:href="#ArialMT-2d" x="222.460938"/>
       <use xlink:href="#ArialMT-30" x="255.761719"/>
       <use xlink:href="#ArialMT-39" x="311.376953"/>
      </g>
     </g>
    </g>
    <g id="xtick_10">
     <g id="line2d_10">
      <path d="M 815.732677 248.937 
L 815.732677 27.177 
" clip-path="url(#pd88c054b3c)" style="fill: none; stroke: #cccccc; stroke-width: 0.8; stroke-linecap: round"/>
     </g>
     <g id="text_10">
      <!-- 2023-01 -->
      <g style="fill: #262626" transform="translate(783.440802 269.83475) scale(0.176 -0.176)">
       <defs>
        <path id="ArialMT-33" d="M 269 1209 
L 831 1284 
Q 928 806 1161 595 
Q 1394 384 1728 384 
Q 2125 384 2398 659 
Q 2672 934 2672 1341 
Q 2672 1728 2419 1979 
Q 2166 2231 1775 2231 
Q 1616 2231 1378 2169 
L 1441 2663 
Q 1497 2656 1531 2656 
Q 1891 2656 2178 2843 
Q 2466 3031 2466 3422 
Q 2466 3731 2256 3934 
Q 2047 4138 1716 4138 
Q 1388 4138 1169 3931 
Q 950 3725 888 3313 
L 325 3413 
Q 428 3978 793 4289 
Q 1159 4600 1703 4600 
Q 2078 4600 2393 4439 
Q 2709 4278 2876 4000 
Q 3044 3722 3044 3409 
Q 3044 3113 2884 2869 
Q 2725 2625 2413 2481 
Q 2819 2388 3044 2092 
Q 3269 1797 3269 1353 
Q 3269 753 2831 336 
Q 2394 -81 1725 -81 
Q 1122 -81 723 278 
Q 325 638 269 1209 
z
" transform="scale(0.015625)"/>
       </defs>
       <use xlink:href="#ArialMT-32"/>
       <use xlink:href="#ArialMT-30" x="55.615234"/>
       <use xlink:href="#ArialMT-32" x="111.230469"/>
       <use xlink:href="#ArialMT-33" x="166.845703"/>
       <use xlink:href="#ArialMT-2d" x="222.460938"/>
       <use xlink:href="#ArialMT-30" x="255.761719"/>
       <use xlink:href="#ArialMT-31" x="311.376953"/>
      </g>
     </g>
    </g>
   </g>
   <g id="matplotlib.axis_2">
    <g id="ytick_1">
     <g id="line2d_11">
      <path d="M 47.30525 248.937 
L 828.50525 248.937 
" clip-path="url(#pd88c054b3c)" style="fill: none; stroke: #cccccc; stroke-width: 0.8; stroke-linecap: round"/>
     </g>
     <g id="text_11">
      <!-- 0 -->
      <g style="fill: #262626" transform="translate(29.218 255.235875) scale(0.176 -0.176)">
       <use xlink:href="#ArialMT-30"/>
      </g>
     </g>
    </g>
    <g id="ytick_2">
     <g id="line2d_12">
      <path d="M 47.30525 185.577 
L 828.50525 185.577 
" clip-path="url(#pd88c054b3c)" style="fill: none; stroke: #cccccc; stroke-width: 0.8; stroke-linecap: round"/>
     </g>
     <g id="text_12">
      <!-- 2 -->
      <g style="fill: #262626" transform="translate(29.218 191.875875) scale(0.176 -0.176)">
       <use xlink:href="#ArialMT-32"/>
      </g>
     </g>
    </g>
    <g id="ytick_3">
     <g id="line2d_13">
      <path d="M 47.30525 122.217 
L 828.50525 122.217 
" clip-path="url(#pd88c054b3c)" style="fill: none; stroke: #cccccc; stroke-width: 0.8; stroke-linecap: round"/>
     </g>
     <g id="text_13">
      <!-- 4 -->
      <g style="fill: #262626" transform="translate(29.218 128.515875) scale(0.176 -0.176)">
       <defs>
        <path id="ArialMT-34" d="M 2069 0 
L 2069 1097 
L 81 1097 
L 81 1613 
L 2172 4581 
L 2631 4581 
L 2631 1613 
L 3250 1613 
L 3250 1097 
L 2631 1097 
L 2631 0 
L 2069 0 
z
M 2069 1613 
L 2069 3678 
L 634 1613 
L 2069 1613 
z
" transform="scale(0.015625)"/>
       </defs>
       <use xlink:href="#ArialMT-34"/>
      </g>
     </g>
    </g>
    <g id="ytick_4">
     <g id="line2d_14">
      <path d="M 47.30525 58.857 
L 828.50525 58.857 
" clip-path="url(#pd88c054b3c)" style="fill: none; stroke: #cccccc; stroke-width: 0.8; stroke-linecap: round"/>
     </g>
     <g id="text_14">
      <!-- 6 -->
      <g style="fill: #262626" transform="translate(29.218 65.155875) scale(0.176 -0.176)">
       <defs>
        <path id="ArialMT-36" d="M 3184 3459 
L 2625 3416 
Q 2550 3747 2413 3897 
Q 2184 4138 1850 4138 
Q 1581 4138 1378 3988 
Q 1113 3794 959 3422 
Q 806 3050 800 2363 
Q 1003 2672 1297 2822 
Q 1591 2972 1913 2972 
Q 2475 2972 2870 2558 
Q 3266 2144 3266 1488 
Q 3266 1056 3080 686 
Q 2894 316 2569 119 
Q 2244 -78 1831 -78 
Q 1128 -78 684 439 
Q 241 956 241 2144 
Q 241 3472 731 4075 
Q 1159 4600 1884 4600 
Q 2425 4600 2770 4297 
Q 3116 3994 3184 3459 
z
M 888 1484 
Q 888 1194 1011 928 
Q 1134 663 1356 523 
Q 1578 384 1822 384 
Q 2178 384 2434 671 
Q 2691 959 2691 1453 
Q 2691 1928 2437 2201 
Q 2184 2475 1800 2475 
Q 1419 2475 1153 2201 
Q 888 1928 888 1484 
z
" transform="scale(0.015625)"/>
       </defs>
       <use xlink:href="#ArialMT-36"/>
      </g>
     </g>
    </g>
    <g id="text_15">
     <!-- Consumption (MWh) -->
     <g style="fill: #262626" transform="translate(21.177 226.074) rotate(-90) scale(0.192 -0.192)">
      <defs>
       <path id="ArialMT-43" d="M 3763 1606 
L 4369 1453 
Q 4178 706 3683 314 
Q 3188 -78 2472 -78 
Q 1731 -78 1267 223 
Q 803 525 561 1097 
Q 319 1669 319 2325 
Q 319 3041 592 3573 
Q 866 4106 1370 4382 
Q 1875 4659 2481 4659 
Q 3169 4659 3637 4309 
Q 4106 3959 4291 3325 
L 3694 3184 
Q 3534 3684 3231 3912 
Q 2928 4141 2469 4141 
Q 1941 4141 1586 3887 
Q 1231 3634 1087 3207 
Q 944 2781 944 2328 
Q 944 1744 1114 1308 
Q 1284 872 1643 656 
Q 2003 441 2422 441 
Q 2931 441 3284 734 
Q 3638 1028 3763 1606 
z
" transform="scale(0.015625)"/>
       <path id="ArialMT-6f" d="M 213 1659 
Q 213 2581 725 3025 
Q 1153 3394 1769 3394 
Q 2453 3394 2887 2945 
Q 3322 2497 3322 1706 
Q 3322 1066 3130 698 
Q 2938 331 2570 128 
Q 2203 -75 1769 -75 
Q 1072 -75 642 372 
Q 213 819 213 1659 
z
M 791 1659 
Q 791 1022 1069 705 
Q 1347 388 1769 388 
Q 2188 388 2466 706 
Q 2744 1025 2744 1678 
Q 2744 2294 2464 2611 
Q 2184 2928 1769 2928 
Q 1347 2928 1069 2612 
Q 791 2297 791 1659 
z
" transform="scale(0.015625)"/>
       <path id="ArialMT-6e" d="M 422 0 
L 422 3319 
L 928 3319 
L 928 2847 
Q 1294 3394 1984 3394 
Q 2284 3394 2536 3286 
Q 2788 3178 2913 3003 
Q 3038 2828 3088 2588 
Q 3119 2431 3119 2041 
L 3119 0 
L 2556 0 
L 2556 2019 
Q 2556 2363 2490 2533 
Q 2425 2703 2258 2804 
Q 2091 2906 1866 2906 
Q 1506 2906 1245 2678 
Q 984 2450 984 1813 
L 984 0 
L 422 0 
z
" transform="scale(0.015625)"/>
       <path id="ArialMT-73" d="M 197 991 
L 753 1078 
Q 800 744 1014 566 
Q 1228 388 1613 388 
Q 2000 388 2187 545 
Q 2375 703 2375 916 
Q 2375 1106 2209 1216 
Q 2094 1291 1634 1406 
Q 1016 1563 777 1677 
Q 538 1791 414 1992 
Q 291 2194 291 2438 
Q 291 2659 392 2848 
Q 494 3038 669 3163 
Q 800 3259 1026 3326 
Q 1253 3394 1513 3394 
Q 1903 3394 2198 3281 
Q 2494 3169 2634 2976 
Q 2775 2784 2828 2463 
L 2278 2388 
Q 2241 2644 2061 2787 
Q 1881 2931 1553 2931 
Q 1166 2931 1000 2803 
Q 834 2675 834 2503 
Q 834 2394 903 2306 
Q 972 2216 1119 2156 
Q 1203 2125 1616 2013 
Q 2213 1853 2448 1751 
Q 2684 1650 2818 1456 
Q 2953 1263 2953 975 
Q 2953 694 2789 445 
Q 2625 197 2315 61 
Q 2006 -75 1616 -75 
Q 969 -75 630 194 
Q 291 463 197 991 
z
" transform="scale(0.015625)"/>
       <path id="ArialMT-75" d="M 2597 0 
L 2597 488 
Q 2209 -75 1544 -75 
Q 1250 -75 995 37 
Q 741 150 617 320 
Q 494 491 444 738 
Q 409 903 409 1263 
L 409 3319 
L 972 3319 
L 972 1478 
Q 972 1038 1006 884 
Q 1059 663 1231 536 
Q 1403 409 1656 409 
Q 1909 409 2131 539 
Q 2353 669 2445 892 
Q 2538 1116 2538 1541 
L 2538 3319 
L 3100 3319 
L 3100 0 
L 2597 0 
z
" transform="scale(0.015625)"/>
       <path id="ArialMT-6d" d="M 422 0 
L 422 3319 
L 925 3319 
L 925 2853 
Q 1081 3097 1340 3245 
Q 1600 3394 1931 3394 
Q 2300 3394 2536 3241 
Q 2772 3088 2869 2813 
Q 3263 3394 3894 3394 
Q 4388 3394 4653 3120 
Q 4919 2847 4919 2278 
L 4919 0 
L 4359 0 
L 4359 2091 
Q 4359 2428 4304 2576 
Q 4250 2725 4106 2815 
Q 3963 2906 3769 2906 
Q 3419 2906 3187 2673 
Q 2956 2441 2956 1928 
L 2956 0 
L 2394 0 
L 2394 2156 
Q 2394 2531 2256 2718 
Q 2119 2906 1806 2906 
Q 1569 2906 1367 2781 
Q 1166 2656 1075 2415 
Q 984 2175 984 1722 
L 984 0 
L 422 0 
z
" transform="scale(0.015625)"/>
       <path id="ArialMT-70" d="M 422 -1272 
L 422 3319 
L 934 3319 
L 934 2888 
Q 1116 3141 1344 3267 
Q 1572 3394 1897 3394 
Q 2322 3394 2647 3175 
Q 2972 2956 3137 2557 
Q 3303 2159 3303 1684 
Q 3303 1175 3120 767 
Q 2938 359 2589 142 
Q 2241 -75 1856 -75 
Q 1575 -75 1351 44 
Q 1128 163 984 344 
L 984 -1272 
L 422 -1272 
z
M 931 1641 
Q 931 1000 1190 694 
Q 1450 388 1819 388 
Q 2194 388 2461 705 
Q 2728 1022 2728 1688 
Q 2728 2322 2467 2637 
Q 2206 2953 1844 2953 
Q 1484 2953 1207 2617 
Q 931 2281 931 1641 
z
" transform="scale(0.015625)"/>
       <path id="ArialMT-74" d="M 1650 503 
L 1731 6 
Q 1494 -44 1306 -44 
Q 1000 -44 831 53 
Q 663 150 594 308 
Q 525 466 525 972 
L 525 2881 
L 113 2881 
L 113 3319 
L 525 3319 
L 525 4141 
L 1084 4478 
L 1084 3319 
L 1650 3319 
L 1650 2881 
L 1084 2881 
L 1084 941 
Q 1084 700 1114 631 
Q 1144 563 1211 522 
Q 1278 481 1403 481 
Q 1497 481 1650 503 
z
" transform="scale(0.015625)"/>
       <path id="ArialMT-69" d="M 425 3934 
L 425 4581 
L 988 4581 
L 988 3934 
L 425 3934 
z
M 425 0 
L 425 3319 
L 988 3319 
L 988 0 
L 425 0 
z
" transform="scale(0.015625)"/>
       <path id="ArialMT-20" transform="scale(0.015625)"/>
       <path id="ArialMT-28" d="M 1497 -1347 
Q 1031 -759 709 28 
Q 388 816 388 1659 
Q 388 2403 628 3084 
Q 909 3875 1497 4659 
L 1900 4659 
Q 1522 4009 1400 3731 
Q 1209 3300 1100 2831 
Q 966 2247 966 1656 
Q 966 153 1900 -1347 
L 1497 -1347 
z
" transform="scale(0.015625)"/>
       <path id="ArialMT-4d" d="M 475 0 
L 475 4581 
L 1388 4581 
L 2472 1338 
Q 2622 884 2691 659 
Q 2769 909 2934 1394 
L 4031 4581 
L 4847 4581 
L 4847 0 
L 4263 0 
L 4263 3834 
L 2931 0 
L 2384 0 
L 1059 3900 
L 1059 0 
L 475 0 
z
" transform="scale(0.015625)"/>
       <path id="ArialMT-57" d="M 1294 0 
L 78 4581 
L 700 4581 
L 1397 1578 
Q 1509 1106 1591 641 
Q 1766 1375 1797 1488 
L 2669 4581 
L 3400 4581 
L 4056 2263 
Q 4303 1400 4413 641 
Q 4500 1075 4641 1638 
L 5359 4581 
L 5969 4581 
L 4713 0 
L 4128 0 
L 3163 3491 
Q 3041 3928 3019 4028 
Q 2947 3713 2884 3491 
L 1913 0 
L 1294 0 
z
" transform="scale(0.015625)"/>
       <path id="ArialMT-68" d="M 422 0 
L 422 4581 
L 984 4581 
L 984 2938 
Q 1378 3394 1978 3394 
Q 2347 3394 2619 3248 
Q 2891 3103 3008 2847 
Q 3125 2591 3125 2103 
L 3125 0 
L 2563 0 
L 2563 2103 
Q 2563 2525 2380 2717 
Q 2197 2909 1863 2909 
Q 1613 2909 1392 2779 
Q 1172 2650 1078 2428 
Q 984 2206 984 1816 
L 984 0 
L 422 0 
z
" transform="scale(0.015625)"/>
       <path id="ArialMT-29" d="M 791 -1347 
L 388 -1347 
Q 1322 153 1322 1656 
Q 1322 2244 1188 2822 
Q 1081 3291 891 3722 
Q 769 4003 388 4659 
L 791 4659 
Q 1378 3875 1659 3084 
Q 1900 2403 1900 1659 
Q 1900 816 1576 28 
Q 1253 -759 791 -1347 
z
" transform="scale(0.015625)"/>
      </defs>
      <use xlink:href="#ArialMT-43"/>
      <use xlink:href="#ArialMT-6f" x="72.216797"/>
      <use xlink:href="#ArialMT-6e" x="127.832031"/>
      <use xlink:href="#ArialMT-73" x="183.447266"/>
      <use xlink:href="#ArialMT-75" x="233.447266"/>
      <use xlink:href="#ArialMT-6d" x="289.0625"/>
      <use xlink:href="#ArialMT-70" x="372.363281"/>
      <use xlink:href="#ArialMT-74" x="427.978516"/>
      <use xlink:href="#ArialMT-69" x="455.761719"/>
      <use xlink:href="#ArialMT-6f" x="477.978516"/>
      <use xlink:href="#ArialMT-6e" x="533.59375"/>
      <use xlink:href="#ArialMT-20" x="589.208984"/>
      <use xlink:href="#ArialMT-28" x="616.992188"/>
      <use xlink:href="#ArialMT-4d" x="650.292969"/>
      <use xlink:href="#ArialMT-57" x="733.59375"/>
      <use xlink:href="#ArialMT-68" x="827.978516"/>
      <use xlink:href="#ArialMT-29" x="883.59375"/>
     </g>
    </g>
    <g id="text_16">
     <!-- 1e6 -->
     <g style="fill: #262626" transform="translate(47.30525 24.177) scale(0.176 -0.176)">
      <defs>
       <path id="ArialMT-65" d="M 2694 1069 
L 3275 997 
Q 3138 488 2766 206 
Q 2394 -75 1816 -75 
Q 1088 -75 661 373 
Q 234 822 234 1631 
Q 234 2469 665 2931 
Q 1097 3394 1784 3394 
Q 2450 3394 2872 2941 
Q 3294 2488 3294 1666 
Q 3294 1616 3291 1516 
L 816 1516 
Q 847 969 1125 678 
Q 1403 388 1819 388 
Q 2128 388 2347 550 
Q 2566 713 2694 1069 
z
M 847 1978 
L 2700 1978 
Q 2663 2397 2488 2606 
Q 2219 2931 1791 2931 
Q 1403 2931 1139 2672 
Q 875 2413 847 1978 
z
" transform="scale(0.015625)"/>
      </defs>
      <use xlink:href="#ArialMT-31"/>
      <use xlink:href="#ArialMT-65" x="55.615234"/>
      <use xlink:href="#ArialMT-36" x="111.230469"/>
     </g>
    </g>
   </g>
   <g id="patch_3">
    <path d="M 316.198008 248.937 
L 316.198008 27.177 
L 357.658717 27.177 
L 357.658717 248.937 
z
" clip-path="url(#pd88c054b3c)" style="fill: #008000; opacity: 0.1; stroke: #008000; stroke-width: 0.8; stroke-linejoin: miter"/>
   </g>
   <g id="line2d_15">
    <path d="M 326.897546 248.937 
L 326.897546 27.177 
" clip-path="url(#pd88c054b3c)" style="fill: none; stroke: #ff0000; stroke-width: 0.8; stroke-linecap: round"/>
   </g>
   <g id="line2d_16">
    <path d="M 82.814341 124.618495 
L 83.483062 115.360415 
L 84.151783 128.499128 
L 84.820504 131.881555 
L 85.489225 132.5171 
L 86.157946 119.96518 
L 86.826668 119.277381 
L 87.495389 125.959268 
L 88.16411 140.466438 
L 88.832831 140.136424 
L 89.501552 139.563325 
L 90.170273 136.945071 
L 90.838994 126.000448 
L 91.507715 137.071154 
L 92.176436 142.585846 
L 92.845158 137.131328 
L 93.513879 137.938995 
L 94.1826 136.766312 
L 94.851321 126.826292 
L 95.520042 106.897662 
L 96.188763 100.61556 
L 96.857484 98.300078 
L 97.526205 97.85613 
L 98.194926 99.103284 
L 98.863648 113.091705 
L 99.532369 119.288733 
L 100.20109 118.186659 
L 100.869811 120.216043 
L 101.538532 119.566611 
L 102.207253 131.421424 
L 102.875974 149.172266 
L 103.544695 162.821673 
L 104.213416 158.998003 
L 104.882138 149.169106 
L 106.21958 119.914344 
L 106.888301 112.315443 
L 107.557022 115.696522 
L 108.894464 149.271029 
L 109.563185 139.45169 
L 111.569349 117.264986 
L 112.23807 123.974022 
L 112.906791 147.314902 
L 113.575512 162.047166 
L 114.244233 148.904723 
L 114.912954 142.170799 
L 115.581675 131.217296 
L 116.250396 132.940067 
L 116.919117 135.09858 
L 117.587839 152.528402 
L 118.25656 153.645289 
L 118.925281 143.731572 
L 119.594002 140.43449 
L 120.262723 122.993841 
L 120.931444 115.047143 
L 121.600165 121.898449 
L 122.268886 144.893447 
L 122.937607 146.649899 
L 123.606329 132.043051 
L 124.27505 124.921344 
L 124.943771 122.398536 
L 125.612492 125.671495 
L 126.281213 127.211873 
L 126.949934 138.006638 
L 127.618655 145.624756 
L 128.287376 135.527069 
L 128.956097 142.889431 
L 129.624819 154.685159 
L 130.29354 153.702571 
L 130.962261 145.554213 
L 131.630982 148.194334 
L 132.299703 154.709587 
L 132.968424 149.114453 
L 133.637145 154.3712 
L 134.305866 162.249614 
L 134.974587 160.274763 
L 135.643309 160.478179 
L 136.31203 154.647739 
L 136.980751 143.08396 
L 137.649472 125.995298 
L 138.318193 126.026111 
L 138.986914 127.953987 
L 139.655635 134.304173 
L 140.993077 165.327099 
L 142.33052 130.927203 
L 142.999241 125.180386 
L 143.667962 128.415468 
L 144.336683 137.993671 
L 145.005404 144.065391 
L 146.342846 170.713347 
L 148.34901 183.922483 
L 149.017731 187.077079 
L 149.686452 189.564559 
L 150.355173 190.978653 
L 151.023894 196.570609 
L 151.692615 183.897314 
L 152.361336 162.096488 
L 153.030057 163.750845 
L 154.3675 177.285469 
L 155.036221 189.445004 
L 155.704942 188.291535 
L 156.373663 180.025744 
L 157.042384 181.475721 
L 157.711105 182.500165 
L 158.379826 181.758557 
L 159.048547 189.026593 
L 159.717268 189.101947 
L 160.38599 186.478004 
L 161.054711 181.908856 
L 161.723432 182.618077 
L 162.392153 181.844333 
L 163.060874 183.991753 
L 163.729595 188.492465 
L 164.398316 184.468714 
L 165.067037 183.083388 
L 165.735758 172.481133 
L 166.40448 169.361474 
L 167.073201 169.991404 
L 167.741922 173.289086 
L 169.079364 196.440698 
L 169.748085 200.687886 
L 170.416806 177.63188 
L 171.085527 167.168864 
L 171.754248 161.278834 
L 172.42297 161.73433 
L 173.091691 167.934019 
L 173.760412 182.074129 
L 174.429133 187.668119 
L 175.097854 186.870136 
L 175.766575 187.546464 
L 176.435296 189.231566 
L 177.104017 202.285126 
L 177.772738 202.921974 
L 178.44146 202.750935 
L 179.110181 200.037486 
L 179.778902 186.221207 
L 180.447623 184.067861 
L 181.116344 188.233944 
L 181.785065 188.237351 
L 182.453786 191.450391 
L 183.122507 201.454547 
L 184.45995 205.278442 
L 185.128671 195.036665 
L 185.797392 194.686416 
L 186.466113 192.02077 
L 187.134834 190.196372 
L 187.803555 196.477976 
L 188.472276 193.652345 
L 189.140997 181.57743 
L 189.809718 182.471753 
L 190.47844 185.4138 
L 191.147161 193.970502 
L 192.484603 207.538207 
L 193.153324 204.676806 
L 193.822045 192.756812 
L 194.490766 190.80666 
L 195.159487 191.548333 
L 195.828208 190.929145 
L 196.49693 193.574209 
L 197.165651 203.241513 
L 197.834372 203.805611 
L 198.503093 193.53769 
L 199.171814 193.006154 
L 199.840535 193.723902 
L 200.509256 194.686426 
L 201.177977 198.648009 
L 201.846698 207.629552 
L 202.515419 207.198729 
L 203.184141 196.901548 
L 203.852862 196.862751 
L 205.190304 192.045789 
L 205.859025 196.819657 
L 206.527746 208.895106 
L 207.196467 209.395252 
L 207.865188 197.318801 
L 208.533909 191.512371 
L 209.202631 189.318335 
L 210.540073 193.354006 
L 211.208794 197.780953 
L 211.877515 199.065994 
L 212.546236 192.464981 
L 213.214957 192.001631 
L 213.883678 190.918153 
L 214.552399 190.207864 
L 215.221121 193.688775 
L 215.889842 201.70934 
L 216.558563 204.173224 
L 217.227284 196.168419 
L 217.896005 194.306269 
L 218.564726 193.111307 
L 219.233447 194.63966 
L 219.902168 197.811776 
L 220.570889 204.410497 
L 221.239611 206.070776 
L 221.908332 198.935351 
L 222.577053 199.870349 
L 223.914495 196.446124 
L 224.583216 200.822228 
L 225.251937 207.192001 
L 225.920658 205.000963 
L 226.589379 196.431605 
L 227.258101 194.811348 
L 227.926822 196.74507 
L 228.595543 197.068121 
L 229.264264 199.880152 
L 229.932985 206.671187 
L 230.601706 207.576191 
L 231.270427 200.779813 
L 232.607869 200.666615 
L 233.276591 200.359154 
L 233.945312 200.582264 
L 234.614033 205.13371 
L 235.282754 206.291236 
L 235.951475 198.048273 
L 236.620196 196.594399 
L 237.288917 196.672329 
L 237.957638 198.120163 
L 238.626359 202.826822 
L 239.295081 210.610017 
L 239.963802 207.371901 
L 240.632523 195.055679 
L 241.301244 196.653057 
L 241.969965 200.932183 
L 242.638686 193.816044 
L 243.307407 195.906073 
L 243.976128 201.183484 
L 244.644849 199.337812 
L 245.31357 190.442817 
L 245.982292 187.399062 
L 246.651013 187.252699 
L 247.319734 189.730432 
L 247.988455 194.650436 
L 248.657176 203.715742 
L 249.325897 198.999774 
L 249.994618 189.07961 
L 250.663339 191.113437 
L 251.33206 192.17709 
L 252.000782 189.64372 
L 252.669503 192.696491 
L 253.338224 202.536361 
L 254.006945 202.393503 
L 254.675666 195.290783 
L 255.344387 194.67637 
L 256.013108 195.999695 
L 256.681829 192.801622 
L 257.35055 190.777411 
L 258.019272 195.956238 
L 258.687993 195.594227 
L 259.356714 187.701479 
L 260.025435 188.618555 
L 260.694156 190.730302 
L 261.362877 191.362098 
L 262.031598 185.795157 
L 262.700319 187.27064 
L 263.36904 182.047409 
L 264.037762 170.225527 
L 264.706483 170.769482 
L 265.375204 175.793912 
L 266.043925 174.777351 
L 267.381367 190.767084 
L 268.050088 188.322463 
L 268.718809 172.067943 
L 269.38753 172.984635 
L 270.056252 169.826029 
L 270.724973 173.241795 
L 271.393694 172.131906 
L 272.062415 176.681035 
L 272.731136 169.296065 
L 273.399857 151.215771 
L 274.068578 148.782758 
L 274.737299 150.914716 
L 275.40602 146.683965 
L 276.074742 148.347205 
L 276.743463 157.600578 
L 277.412184 159.941393 
L 278.080905 147.39523 
L 278.749626 157.170504 
L 279.418347 169.838767 
L 280.087068 174.22221 
L 280.755789 173.260842 
L 281.42451 182.417798 
L 282.093232 182.310777 
L 282.761953 162.823554 
L 283.430674 160.511235 
L 284.099395 162.115859 
L 284.768116 161.208963 
L 286.105558 177.946942 
L 286.774279 182.750812 
L 287.443 181.711373 
L 288.780443 153.228125 
L 289.449164 143.571099 
L 290.117885 141.211971 
L 290.786606 150.99061 
L 291.455327 153.157767 
L 292.124048 140.501215 
L 292.792769 135.94415 
L 294.130211 144.485015 
L 294.798933 149.903703 
L 295.467654 166.022379 
L 296.136375 171.455591 
L 296.805096 157.608015 
L 297.473817 154.758106 
L 298.142538 155.418228 
L 298.811259 150.077705 
L 299.47998 130.420253 
L 300.148701 139.960988 
L 300.817423 141.241353 
L 301.486144 125.471812 
L 302.154865 122.141288 
L 302.823586 117.04488 
L 303.492307 115.522712 
L 304.161028 115.756636 
L 304.829749 122.004361 
L 305.49847 113.008385 
L 306.167191 98.30615 
L 306.835913 101.085528 
L 307.504634 96.501381 
L 308.173355 101.228012 
L 308.842076 106.993915 
L 309.510797 115.747543 
L 310.179518 117.360628 
L 310.848239 108.497073 
L 311.51696 104.837191 
L 312.185681 100.481301 
L 312.854403 97.024835 
L 313.523124 102.401617 
L 314.191845 118.812899 
L 314.860566 126.083206 
L 315.529287 122.897794 
L 316.866729 131.811083 
L 317.53545 132.406363 
L 318.204171 133.686214 
L 318.872893 142.807882 
L 319.541614 141.675722 
L 320.210335 139.209137 
L 320.879056 152.811563 
L 321.547777 155.765682 
L 322.216498 155.662073 
L 322.885219 139.23746 
L 323.55394 133.388628 
L 324.222661 131.016851 
L 324.891383 120.852849 
L 325.560104 118.982185 
L 326.897546 123.313094 
L 327.566267 122.819079 
L 328.234988 118.666895 
L 328.903709 117.508219 
L 329.57243 102.346958 
L 330.241151 100.214502 
L 330.909872 99.826558 
L 331.578594 94.899847 
L 332.247315 95.053146 
L 332.916036 102.240559 
L 333.584757 102.089203 
L 334.253478 95.451782 
L 334.922199 102.138545 
L 335.59092 102.063676 
L 336.259641 90.020174 
L 336.928362 86.396665 
L 337.597084 94.174158 
L 338.265805 96.639785 
L 338.934526 96.979121 
L 340.940689 131.235956 
L 341.60941 127.181981 
L 342.278131 126.573549 
L 342.946852 115.211608 
L 343.615574 95.751589 
L 344.284295 96.155705 
L 344.953016 98.290584 
L 345.621737 105.850615 
L 346.290458 117.381067 
L 346.959179 116.427507 
L 347.6279 110.039355 
L 348.296621 96.588524 
L 348.965342 109.27377 
L 349.634064 124.51488 
L 350.302785 123.473299 
L 350.971506 124.396755 
L 351.640227 125.627595 
L 352.308948 108.480363 
L 352.977669 76.405132 
L 353.64639 63.550406 
L 354.315111 56.57843 
L 354.983832 54.882908 
L 355.652554 55.996839 
L 356.321275 67.694705 
L 356.989996 75.117287 
L 357.658717 76.325512 
L 358.327438 98.272209 
L 358.996159 115.653793 
L 359.66488 126.013534 
L 360.333601 132.563392 
L 361.002322 152.408948 
L 361.671044 154.231579 
L 362.339765 145.019165 
L 363.008486 155.814007 
L 363.677207 160.740557 
L 364.345928 159.327174 
L 365.014649 150.856094 
L 365.68337 148.807096 
L 366.352091 142.215938 
L 367.020812 124.983411 
L 367.689534 126.779128 
L 368.358255 132.592048 
L 369.026976 130.203448 
L 369.695697 118.961539 
L 370.364418 124.512068 
L 371.033139 121.443932 
L 371.70186 107.20378 
L 372.370581 107.800967 
L 373.708023 136.529447 
L 374.376745 141.017755 
L 375.045466 148.932272 
L 375.714187 142.175511 
L 376.382908 127.725888 
L 377.72035 114.586875 
L 378.389071 109.694068 
L 379.057792 110.331811 
L 379.726513 119.312393 
L 380.395235 125.511672 
L 381.063956 115.417396 
L 381.732677 121.592661 
L 382.401398 133.243539 
L 383.070119 141.177208 
L 383.73884 156.013454 
L 384.407561 159.915953 
L 385.076282 160.241493 
L 385.745003 159.808627 
L 386.413725 164.039104 
L 387.082446 170.945177 
L 387.751167 175.418769 
L 388.419888 172.679599 
L 389.088609 164.430981 
L 389.75733 160.061951 
L 390.426051 145.344362 
L 391.094772 121.468259 
L 391.763493 117.932262 
L 392.432215 118.341886 
L 393.769657 147.799967 
L 394.438378 155.950394 
L 395.107099 130.786744 
L 395.77582 127.188937 
L 396.444541 119.993218 
L 397.113262 121.295918 
L 397.781983 128.922044 
L 398.450705 143.233112 
L 399.119426 149.088494 
L 399.788147 146.832848 
L 400.456868 153.912462 
L 401.125589 159.652914 
L 401.79431 155.035103 
L 402.463031 155.282134 
L 403.131752 163.505131 
L 403.800473 160.733206 
L 404.469195 150.689992 
L 405.137916 153.580659 
L 405.806637 162.711363 
L 406.475358 164.233269 
L 407.144079 161.406189 
L 407.8128 172.462248 
L 409.150242 157.732916 
L 409.818963 160.953716 
L 411.156406 149.772593 
L 411.825127 150.917206 
L 413.162569 189.901698 
L 413.83129 187.439665 
L 414.500011 185.702534 
L 415.168732 183.509536 
L 415.837453 185.810058 
L 416.506174 180.525209 
L 417.174896 183.268998 
L 417.843617 182.953206 
L 418.512338 173.744654 
L 419.84978 170.0671 
L 420.518501 172.680252 
L 421.187222 181.080307 
L 421.855943 187.936033 
L 422.524664 189.239911 
L 423.193386 188.359314 
L 423.862107 175.16435 
L 424.530828 174.02183 
L 425.199549 171.157871 
L 425.86827 176.196513 
L 426.536991 186.596333 
L 427.205712 190.817708 
L 427.874433 186.526833 
L 428.543154 190.641749 
L 429.880597 201.572001 
L 430.549318 200.925702 
L 431.218039 206.327244 
L 431.88676 204.767604 
L 432.555481 192.28924 
L 433.224202 192.394447 
L 434.561644 194.732079 
L 435.230366 199.796136 
L 435.899087 208.272725 
L 436.567808 206.245247 
L 437.236529 198.658363 
L 437.90525 195.605391 
L 438.573971 197.14525 
L 439.242692 199.231324 
L 439.911413 201.746979 
L 440.580134 210.653144 
L 441.248856 210.840796 
L 441.917577 201.129994 
L 442.586298 194.53893 
L 443.255019 192.922028 
L 443.92374 191.7295 
L 444.592461 194.680257 
L 445.261182 206.163614 
L 445.929903 208.143805 
L 446.598624 198.127807 
L 447.267346 195.446104 
L 447.936067 193.443424 
L 448.604788 190.909363 
L 449.273509 194.775842 
L 449.94223 205.66115 
L 450.610951 206.176858 
L 451.279672 197.162418 
L 451.948393 200.751833 
L 452.617114 195.161912 
L 453.285836 193.543751 
L 453.954557 196.925063 
L 454.623278 206.106579 
L 455.291999 205.502109 
L 455.96072 197.816319 
L 456.629441 196.533893 
L 457.298162 196.622876 
L 457.966883 197.253554 
L 458.635604 201.215698 
L 459.304326 209.627756 
L 459.973047 209.534247 
L 460.641768 200.48662 
L 461.310489 198.402381 
L 461.97921 198.293265 
L 462.647931 198.749941 
L 463.316652 202.054035 
L 463.985373 210.529488 
L 464.654094 210.218905 
L 465.322815 201.950106 
L 465.991537 201.982394 
L 466.660258 204.166023 
L 467.328979 204.717733 
L 467.9977 206.148357 
L 468.666421 210.231428 
L 469.335142 208.236279 
L 470.003863 201.808104 
L 470.672584 199.27259 
L 471.341305 198.580577 
L 472.010027 200.158385 
L 473.347469 208.372329 
L 474.01619 208.406731 
L 474.684911 202.565859 
L 475.353632 201.160529 
L 476.022353 201.442643 
L 476.691074 202.875548 
L 477.359795 206.694062 
L 478.028517 211.411384 
L 478.697238 211.450975 
L 479.365959 203.223932 
L 480.03468 200.172068 
L 480.703401 199.779527 
L 481.372122 199.249872 
L 482.040843 201.242875 
L 482.709564 208.508649 
L 483.378285 208.049864 
L 484.047007 200.458626 
L 484.715728 197.892814 
L 485.384449 198.797306 
L 486.05317 196.15402 
L 486.721891 196.271461 
L 487.390612 202.070244 
L 488.059333 201.667299 
L 488.728054 195.184906 
L 489.396775 194.05725 
L 490.065497 193.206182 
L 490.734218 194.66718 
L 491.402939 197.738398 
L 492.07166 204.834389 
L 492.740381 205.249591 
L 493.409102 196.628494 
L 494.077823 196.241745 
L 494.746544 197.899803 
L 495.415265 197.997166 
L 496.083987 199.823858 
L 496.752708 207.033701 
L 497.421429 207.047882 
L 498.09015 195.872012 
L 498.758871 195.995216 
L 499.427592 195.911792 
L 500.096313 194.477829 
L 500.765034 194.382713 
L 501.433755 202.560255 
L 502.102477 199.093572 
L 502.771198 184.386133 
L 503.439919 183.433342 
L 504.10864 184.174937 
L 504.777361 189.232244 
L 505.446082 192.719032 
L 506.114803 200.507534 
L 506.783524 203.777029 
L 507.452245 196.021446 
L 508.120966 190.388271 
L 508.789688 188.646977 
L 509.458409 182.87426 
L 510.12713 185.368436 
L 510.795851 195.451942 
L 511.464572 198.880469 
L 512.133293 186.198056 
L 512.802014 184.557501 
L 513.470735 177.392964 
L 514.139456 171.918046 
L 514.808178 174.581672 
L 515.476899 180.331059 
L 516.14562 173.985098 
L 516.814341 164.891834 
L 518.151783 157.134459 
L 518.820504 163.675532 
L 520.157946 169.898785 
L 520.826668 170.008596 
L 521.495389 163.683359 
L 522.16411 171.450755 
L 522.832831 181.067503 
L 524.170273 166.901316 
L 524.838994 165.568364 
L 525.507715 161.819446 
L 526.176436 151.389266 
L 527.513879 163.184667 
L 528.1826 163.304486 
L 528.851321 166.931377 
L 529.520042 172.238852 
L 530.188763 180.549515 
L 530.857484 170.544545 
L 531.526205 153.17009 
L 532.194926 144.608727 
L 532.863648 142.076886 
L 533.532369 144.875612 
L 534.20109 155.766466 
L 534.869811 156.897695 
L 535.538532 140.065579 
L 536.207253 139.532719 
L 536.875974 130.078774 
L 537.544695 129.084181 
L 538.213416 131.884413 
L 538.882138 144.836133 
L 539.550859 147.75604 
L 540.21958 131.054907 
L 540.888301 129.286095 
L 542.894464 149.527374 
L 543.563185 158.324859 
L 544.231906 150.184054 
L 544.900628 128.295179 
L 545.569349 120.444779 
L 546.23807 117.615425 
L 546.906791 113.408864 
L 547.575512 117.310226 
L 548.244233 122.696227 
L 548.912954 119.339406 
L 549.581675 106.031469 
L 550.919117 129.272646 
L 551.587839 113.025675 
L 552.25656 115.046333 
L 552.925281 126.168966 
L 553.594002 122.133241 
L 554.262723 105.715091 
L 554.931444 107.653157 
L 555.600165 107.724256 
L 556.268886 104.399604 
L 556.937607 105.744574 
L 558.27505 127.396597 
L 558.943771 124.182915 
L 559.612492 126.816398 
L 560.281213 132.267835 
L 560.949934 132.309946 
L 561.618655 134.602836 
L 562.287376 143.435182 
L 562.956097 142.264153 
L 563.624819 112.47433 
L 564.29354 98.614982 
L 564.962261 96.844688 
L 565.630982 112.764956 
L 566.299703 133.192729 
L 566.968424 124.52217 
L 567.637145 122.552278 
L 568.305866 123.150221 
L 568.974587 135.234772 
L 569.643309 144.407047 
L 570.31203 164.779511 
L 570.980751 175.226306 
L 571.649472 175.509274 
L 572.318193 171.539476 
L 574.993077 119.814325 
L 575.661799 117.101386 
L 576.33052 124.031854 
L 576.999241 122.432943 
L 577.667962 103.628353 
L 578.336683 99.9424 
L 579.005404 99.832088 
L 579.674125 105.584294 
L 580.342846 108.780475 
L 581.011567 118.25706 
L 581.680289 124.616764 
L 582.34901 117.379448 
L 583.017731 112.993441 
L 583.686452 117.234624 
L 584.355173 111.501503 
L 585.023894 110.13144 
L 585.692615 122.165977 
L 586.361336 125.065365 
L 587.030057 110.451936 
L 587.698779 106.210974 
L 588.3675 107.790748 
L 589.036221 115.046209 
L 589.704942 118.741519 
L 590.373663 138.738319 
L 591.042384 136.808278 
L 591.711105 118.3349 
L 593.048547 124.118508 
L 593.717268 127.483062 
L 594.38599 134.469347 
L 595.054711 139.022534 
L 595.723432 139.081508 
L 596.392153 124.821288 
L 597.060874 132.201479 
L 597.729595 135.889975 
L 598.398316 130.800934 
L 599.067037 124.015209 
L 599.735758 128.222294 
L 600.40448 133.416126 
L 601.073201 132.40191 
L 601.741922 133.390342 
L 602.410643 143.826423 
L 603.079364 146.752005 
L 603.748085 147.407404 
L 605.085527 151.768632 
L 605.754248 135.715002 
L 606.42297 134.178109 
L 607.091691 133.59329 
L 607.760412 136.607641 
L 608.429133 130.314305 
L 609.097854 133.058207 
L 609.766575 130.867166 
L 610.435296 119.533657 
L 611.104017 114.417029 
L 611.772738 115.745164 
L 612.44146 119.335301 
L 613.110181 118.299332 
L 613.778902 126.357784 
L 614.447623 122.241705 
L 615.116344 110.490464 
L 616.453786 126.074353 
L 617.122507 136.226705 
L 617.791228 140.42183 
L 618.45995 151.068946 
L 619.128671 154.982817 
L 619.797392 143.308494 
L 620.466113 141.112905 
L 621.134834 151.550266 
L 621.803555 147.106562 
L 622.472276 149.665187 
L 623.140997 157.326802 
L 623.809718 157.351794 
L 624.47844 149.051434 
L 625.147161 151.556252 
L 625.815882 156.155741 
L 626.484603 158.017333 
L 627.153324 164.24178 
L 627.822045 176.307952 
L 628.490766 173.643525 
L 629.159487 166.087858 
L 629.828208 160.032372 
L 630.49693 149.832314 
L 631.165651 143.797235 
L 631.834372 134.807133 
L 632.503093 134.025054 
L 633.840535 130.321703 
L 634.509256 142.339021 
L 635.177977 156.680848 
L 635.846698 158.682685 
L 636.515419 153.491766 
L 637.184141 156.631768 
L 637.852862 151.442852 
L 638.521583 149.384335 
L 639.190304 165.697562 
L 639.859025 175.569473 
L 640.527746 183.064756 
L 641.196467 185.737148 
L 641.865188 181.735005 
L 642.533909 180.291474 
L 643.202631 178.396725 
L 643.871352 169.919032 
L 644.540073 169.344243 
L 645.208794 171.671661 
L 645.877515 178.593832 
L 646.546236 188.767287 
L 647.214957 183.817126 
L 647.883678 168.393282 
L 648.552399 166.131581 
L 649.221121 169.146357 
L 649.889842 174.070956 
L 650.558563 177.518429 
L 651.227284 184.754069 
L 651.896005 185.891334 
L 652.564726 179.20988 
L 653.233447 178.542165 
L 653.902168 179.277587 
L 654.570889 181.650864 
L 655.239611 186.96944 
L 655.908332 198.637509 
L 656.577053 196.977856 
L 657.245774 191.906051 
L 657.914495 197.142044 
L 658.583216 200.613127 
L 659.251937 198.554168 
L 659.920658 199.594109 
L 660.589379 205.022954 
L 661.258101 206.032692 
L 661.926822 198.832424 
L 662.595543 196.592206 
L 663.264264 200.31225 
L 663.932985 201.111306 
L 665.270427 209.022966 
L 665.939148 206.040578 
L 666.607869 199.956259 
L 667.276591 196.590748 
L 667.945312 199.840601 
L 668.614033 205.630038 
L 669.282754 202.051743 
L 669.951475 200.846785 
L 670.620196 194.105552 
L 671.288917 182.618937 
L 671.957638 185.901713 
L 672.626359 188.390396 
L 673.295081 191.756767 
L 673.963802 199.02853 
L 674.632523 209.191183 
L 675.301244 212.773781 
L 675.969965 210.65054 
L 676.638686 199.421187 
L 677.307407 198.175579 
L 677.976128 197.886652 
L 678.644849 201.703239 
L 679.31357 210.360261 
L 679.982292 210.3831 
L 680.651013 200.909135 
L 681.319734 197.806008 
L 681.988455 201.16116 
L 682.657176 208.37462 
L 683.325897 209.573646 
L 683.994618 216.401479 
L 684.663339 214.380659 
L 685.33206 203.441156 
L 686.000782 201.896963 
L 686.669503 201.025138 
L 687.338224 205.249326 
L 688.006945 206.774085 
L 688.675666 215.168133 
L 689.344387 213.478361 
L 690.013108 204.505712 
L 690.681829 204.615852 
L 691.35055 202.847319 
L 692.687993 206.844401 
L 693.356714 214.248325 
L 694.025435 214.45145 
L 694.694156 206.890518 
L 695.362877 206.334191 
L 696.031598 206.392329 
L 696.700319 205.800999 
L 697.36904 207.119005 
L 698.037762 213.119484 
L 698.706483 211.533859 
L 699.375204 202.053089 
L 700.712646 206.842561 
L 701.381367 208.12249 
L 702.050088 208.326978 
L 702.718809 215.083625 
L 703.38753 213.108306 
L 704.056252 205.39026 
L 704.724973 208.62892 
L 705.393694 209.107189 
L 706.062415 205.645983 
L 706.731136 207.252052 
L 707.399857 214.96097 
L 708.068578 216.247654 
L 708.737299 212.389105 
L 709.40602 207.271181 
L 710.074742 206.984846 
L 710.743463 208.101121 
L 711.412184 209.62853 
L 712.080905 217.20154 
L 712.749626 217.618129 
L 713.418347 209.700675 
L 714.087068 211.96973 
L 715.42451 211.557661 
L 716.093232 214.328325 
L 716.761953 218.29926 
L 717.430674 217.483627 
L 718.099395 212.096551 
L 718.768116 212.277415 
L 719.436837 212.251506 
L 720.105558 211.743723 
L 720.774279 213.422671 
L 721.443 219.182639 
L 722.111721 220.228806 
L 722.780443 211.486853 
L 723.449164 208.226764 
L 724.117885 207.190324 
L 724.786606 207.054257 
L 725.455327 209.407216 
L 726.124048 218.074013 
L 726.792769 214.970064 
L 727.46149 206.213551 
L 728.130211 206.997204 
L 728.798933 207.116276 
L 729.467654 208.444017 
L 730.136375 208.542575 
L 730.805096 216.169721 
L 731.473817 217.063458 
L 732.142538 206.650002 
L 732.811259 206.615835 
L 733.47998 204.746714 
L 734.148701 204.949165 
L 734.817423 210.097638 
L 735.486144 216.678578 
L 736.154865 216.345836 
L 736.823586 210.889762 
L 738.161028 207.107091 
L 739.49847 208.445437 
L 740.167191 211.49865 
L 740.835913 209.884411 
L 741.504634 203.422687 
L 742.173355 203.958428 
L 742.842076 202.669458 
L 743.510797 204.799933 
L 744.179518 202.548798 
L 744.848239 203.343251 
L 745.51696 198.857644 
L 746.185681 190.173996 
L 746.854403 182.976871 
L 747.523124 182.928706 
L 748.191845 184.858068 
L 748.860566 188.102499 
L 749.529287 198.840334 
L 750.198008 198.335536 
L 751.53545 183.036322 
L 752.204171 177.30562 
L 752.872893 175.503241 
L 753.541614 182.95359 
L 754.210335 194.264587 
L 754.879056 198.686007 
L 755.547777 195.76633 
L 756.216498 190.501158 
L 756.885219 196.700007 
L 757.55394 195.233693 
L 758.222661 195.127604 
L 758.891383 197.498054 
L 759.560104 194.465486 
L 760.228825 188.324312 
L 760.897546 180.176719 
L 761.566267 179.379139 
L 762.234988 179.604524 
L 762.903709 185.772374 
L 763.57243 200.837649 
L 764.241151 201.963978 
L 764.909872 194.808827 
L 765.578594 190.432101 
L 766.247315 184.014161 
L 767.584757 186.233133 
L 768.253478 195.679796 
L 768.922199 199.217189 
L 769.59092 193.575518 
L 770.259641 186.212672 
L 770.928362 186.867176 
L 772.934526 200.83193 
L 773.603247 200.965142 
L 774.271968 195.356895 
L 774.940689 196.363922 
L 775.60941 184.457925 
L 776.946852 176.653935 
L 777.615574 179.85504 
L 778.284295 178.965204 
L 778.953016 177.725924 
L 779.621737 181.002959 
L 780.290458 182.41352 
L 780.959179 180.72889 
L 781.6279 176.791535 
L 782.296621 176.583252 
L 782.965342 172.212272 
L 783.634064 161.407274 
L 784.302785 167.726032 
L 784.971506 167.211851 
L 785.640227 166.002997 
L 786.308948 155.772674 
L 786.977669 150.206323 
L 787.64639 146.322077 
L 788.315111 135.941883 
L 788.983832 140.540462 
L 789.652554 148.721938 
L 790.989996 153.018605 
L 791.658717 160.970849 
L 792.327438 158.407159 
L 792.996159 142.464967 
L 792.996159 142.464967 
" clip-path="url(#pd88c054b3c)" style="fill: none; stroke: #4c72b0; stroke-width: 1.2; stroke-linecap: round"/>
   </g>
   <g id="line2d_17">
    <path d="M 82.814341 118.026053 
L 83.483062 115.684329 
L 84.151783 124.190935 
L 84.820504 135.793009 
L 85.489225 132.094543 
L 86.157946 125.089187 
L 86.826668 120.758348 
L 87.495389 127.170593 
L 88.16411 136.578375 
L 88.832831 141.980157 
L 89.501552 138.84819 
L 90.170273 138.158118 
L 90.838994 132.279563 
L 91.507715 134.267744 
L 92.176436 144.046889 
L 92.845158 140.806189 
L 93.513879 135.070409 
L 94.1826 139.015879 
L 94.851321 133.852426 
L 96.188763 107.645347 
L 96.857484 105.194548 
L 97.526205 104.272315 
L 98.194926 101.282008 
L 99.532369 120.98487 
L 100.20109 124.627838 
L 100.869811 123.183871 
L 101.538532 120.68517 
L 102.207253 126.959516 
L 103.544695 162.734575 
L 104.213416 162.367653 
L 104.882138 152.853993 
L 106.21958 125.753281 
L 106.888301 119.361002 
L 107.557022 117.791517 
L 108.225743 129.072674 
L 108.894464 151.506531 
L 109.563185 150.637989 
L 110.231906 136.167409 
L 111.569349 123.09867 
L 112.23807 124.324434 
L 112.906791 139.660705 
L 113.575512 167.684153 
L 114.244233 157.123041 
L 114.912954 144.505612 
L 115.581675 136.341005 
L 116.250396 133.031383 
L 116.919117 134.244099 
L 117.587839 151.826118 
L 118.25656 161.883586 
L 118.925281 147.073892 
L 119.594002 144.850219 
L 120.262723 130.704834 
L 120.931444 120.772719 
L 121.600165 119.720522 
L 122.268886 142.753057 
L 122.937607 153.262034 
L 124.27505 130.380183 
L 124.943771 123.745012 
L 125.612492 125.951034 
L 126.281213 128.838291 
L 126.949934 135.72631 
L 127.618655 146.938301 
L 128.287376 142.180404 
L 128.956097 139.287699 
L 129.624819 152.607614 
L 130.29354 156.972288 
L 130.962261 146.397523 
L 131.630982 143.541008 
L 132.299703 155.733138 
L 132.968424 153.614827 
L 133.637145 152.381599 
L 134.305866 157.902682 
L 134.974587 160.888698 
L 135.643309 155.313254 
L 136.31203 152.186813 
L 136.980751 146.418893 
L 137.649472 130.580224 
L 138.318193 124.602872 
L 138.986914 127.054987 
L 139.655635 130.764059 
L 140.993077 158.198707 
L 141.661799 153.546959 
L 142.33052 131.005974 
L 142.999241 124.064106 
L 143.667962 125.0018 
L 144.336683 133.76524 
L 145.005404 140.248553 
L 145.674125 152.596334 
L 146.342846 167.750162 
L 147.011567 172.616787 
L 147.680289 174.104368 
L 148.34901 178.262684 
L 149.017731 178.144746 
L 149.686452 175.516394 
L 150.355173 184.036218 
L 151.023894 194.062107 
L 151.692615 180.102405 
L 152.361336 159.885853 
L 153.030057 158.79819 
L 153.698779 168.91094 
L 154.3675 173.270309 
L 155.036221 184.743512 
L 155.704942 187.34419 
L 156.373663 179.278419 
L 157.042384 179.688656 
L 158.379826 179.424996 
L 159.048547 180.609397 
L 159.717268 184.420929 
L 160.38599 184.636041 
L 161.723432 179.927516 
L 162.392153 177.199655 
L 163.729595 176.126633 
L 164.398316 180.337518 
L 165.067037 181.093374 
L 165.735758 173.175844 
L 166.40448 163.84106 
L 167.073201 165.05998 
L 167.741922 170.597198 
L 168.410643 179.963702 
L 169.079364 194.749882 
L 169.748085 201.440417 
L 170.416806 175.594961 
L 171.085527 160.195168 
L 171.754248 158.921329 
L 172.42297 158.507667 
L 173.091691 161.167534 
L 173.760412 176.186138 
L 174.429133 187.606721 
L 175.097854 187.885726 
L 175.766575 188.922928 
L 176.435296 185.981463 
L 177.104017 190.689456 
L 177.772738 200.925906 
L 178.44146 199.587742 
L 179.110181 200.018695 
L 179.778902 188.553138 
L 180.447623 182.01512 
L 181.116344 186.502101 
L 181.785065 186.428731 
L 182.453786 185.902771 
L 183.122507 194.993759 
L 183.791228 202.133574 
L 184.45995 201.872788 
L 185.128671 203.518073 
L 185.797392 198.885981 
L 187.134834 182.01294 
L 187.803555 191.167582 
L 188.472276 194.542598 
L 189.140997 187.383164 
L 189.809718 181.519567 
L 190.47844 183.747576 
L 191.147161 187.510315 
L 191.815882 199.298753 
L 192.484603 209.049037 
L 193.153324 210.705663 
L 193.822045 199.964775 
L 194.490766 195.351563 
L 195.159487 195.537641 
L 195.828208 194.53117 
L 196.49693 193.256325 
L 197.834372 210.545249 
L 198.503093 202.967627 
L 199.171814 197.62402 
L 199.840535 197.151299 
L 201.177977 198.105107 
L 201.846698 207.813114 
L 202.515419 213.191785 
L 203.184141 202.406356 
L 203.852862 198.710416 
L 204.521583 199.472413 
L 205.190304 197.565487 
L 205.859025 194.937538 
L 206.527746 208.709909 
L 207.196467 217.891826 
L 207.865188 202.206826 
L 208.533909 191.266618 
L 209.202631 187.66506 
L 209.871352 194.24986 
L 210.540073 196.482037 
L 211.208794 197.121408 
L 211.877515 201.083062 
L 212.546236 198.38947 
L 213.214957 196.882685 
L 213.883678 189.83019 
L 214.552399 186.950854 
L 215.221121 191.798922 
L 215.889842 205.007386 
L 216.558563 209.045236 
L 217.896005 197.414661 
L 218.564726 195.525836 
L 219.233447 197.356651 
L 219.902168 198.752729 
L 220.570889 207.720825 
L 221.239611 212.371942 
L 221.908332 204.298387 
L 222.577053 201.815861 
L 223.245774 202.418052 
L 223.914495 199.922687 
L 224.583216 199.051187 
L 225.251937 208.875765 
L 225.920658 212.051468 
L 226.589379 199.585937 
L 227.258101 193.835522 
L 227.926822 199.421581 
L 228.595543 199.721045 
L 229.264264 199.817801 
L 229.932985 208.272173 
L 230.601706 211.78853 
L 231.270427 204.483672 
L 231.939148 201.356249 
L 232.607869 201.315508 
L 233.945312 200.720474 
L 234.614033 208.58664 
L 235.282754 211.16281 
L 235.951475 203.692082 
L 236.620196 199.502723 
L 237.957638 199.352128 
L 238.626359 200.77449 
L 239.295081 210.436917 
L 239.963802 214.836279 
L 240.632523 198.746007 
L 241.301244 195.914441 
L 241.969965 201.400153 
L 242.638686 195.549951 
L 243.307407 194.109701 
L 243.976128 200.165046 
L 244.644849 201.008749 
L 245.31357 190.011786 
L 245.982292 184.476256 
L 246.651013 182.993152 
L 247.319734 186.878778 
L 247.988455 195.702672 
L 248.657176 200.453203 
L 249.325897 198.348823 
L 249.994618 189.005923 
L 250.663339 189.580279 
L 251.33206 195.442676 
L 252.000782 188.40773 
L 252.669503 188.77389 
L 253.338224 201.902179 
L 254.006945 209.446186 
L 254.675666 199.578125 
L 255.344387 194.341285 
L 256.013108 196.375078 
L 256.681829 189.408093 
L 257.35055 185.268616 
L 258.019272 193.324636 
L 258.687993 197.407955 
L 259.356714 189.5773 
L 260.025435 189.943231 
L 260.694156 191.797455 
L 261.362877 190.76993 
L 262.031598 178.915992 
L 262.700319 177.690957 
L 263.36904 180.439555 
L 264.037762 171.625849 
L 264.706483 167.089114 
L 265.375204 172.005395 
L 266.043925 174.717255 
L 266.712646 178.225569 
L 267.381367 189.603628 
L 268.050088 189.360377 
L 268.718809 176.557025 
L 269.38753 170.150872 
L 270.056252 169.864472 
L 270.724973 171.020447 
L 271.393694 172.916147 
L 272.062415 171.855299 
L 272.731136 168.839798 
L 273.399857 157.05127 
L 274.068578 148.217577 
L 274.737299 148.817936 
L 275.40602 150.599917 
L 276.074742 147.439844 
L 276.743463 154.005541 
L 277.412184 159.447187 
L 278.080905 152.423909 
L 278.749626 149.401572 
L 279.418347 165.494727 
L 280.087068 175.634028 
L 280.755789 172.188992 
L 281.42451 178.819259 
L 282.093232 182.985175 
L 282.761953 167.560769 
L 283.430674 157.216956 
L 284.099395 160.735208 
L 284.768116 160.350544 
L 285.436837 165.806572 
L 286.105558 177.124915 
L 286.774279 184.169718 
L 287.443 188.40214 
L 288.780443 154.846273 
L 289.449164 145.031524 
L 290.117885 142.269225 
L 291.455327 153.469762 
L 292.124048 146.932356 
L 292.792769 137.134907 
L 293.46149 137.967709 
L 294.130211 142.719913 
L 294.798933 146.04275 
L 295.467654 162.302558 
L 296.136375 172.705328 
L 296.805096 162.976018 
L 297.473817 155.052573 
L 298.142538 154.112968 
L 298.811259 151.643743 
L 299.47998 135.960754 
L 300.148701 134.068229 
L 300.817423 145.240714 
L 301.486144 137.229261 
L 302.154865 126.286531 
L 302.823586 121.199851 
L 303.492307 119.449374 
L 304.161028 115.12636 
L 304.829749 121.174769 
L 305.49847 121.912896 
L 306.167191 107.64063 
L 306.835913 105.216503 
L 307.504634 100.842393 
L 308.173355 100.981716 
L 308.842076 107.765589 
L 309.510797 118.015377 
L 310.179518 124.818014 
L 310.848239 118.942933 
L 311.51696 109.670912 
L 312.185681 104.368463 
L 312.854403 100.790957 
L 313.523124 103.514495 
L 314.191845 117.635422 
L 314.860566 129.228503 
L 315.529287 127.581575 
L 316.198008 127.20483 
L 316.866729 130.529744 
L 317.53545 131.365056 
L 318.204171 129.531231 
L 318.872893 137.350029 
L 319.541614 141.763288 
L 320.210335 136.822867 
L 320.879056 148.875441 
L 321.547777 151.710732 
L 322.216498 146.113187 
L 322.885219 134.35718 
L 323.55394 133.174962 
L 324.222661 135.201266 
L 324.891383 124.392606 
L 325.560104 118.998327 
L 326.228825 118.63633 
L 326.897546 117.961806 
L 327.566267 116.988848 
L 328.903709 121.299598 
L 329.57243 113.530261 
L 330.241151 109.733571 
L 330.909872 107.808881 
L 332.247315 100.112459 
L 332.916036 105.625204 
L 333.584757 107.365021 
L 334.253478 101.712526 
L 334.922199 105.958832 
L 335.59092 107.82157 
L 336.259641 102.595422 
L 336.928362 95.162717 
L 338.934526 103.325349 
L 339.603247 109.925672 
L 340.940689 129.805903 
L 341.60941 128.737817 
L 342.946852 119.092884 
L 343.615574 106.99866 
L 344.284295 103.638127 
L 344.953016 103.499527 
L 346.290458 115.306051 
L 346.959179 117.011957 
L 348.296621 104.214522 
L 348.965342 111.155309 
L 349.634064 123.160306 
L 350.302785 122.961811 
L 350.971506 120.284369 
L 351.640227 123.00306 
L 352.308948 116.18544 
L 352.977669 95.743972 
L 353.64639 78.730019 
L 354.315111 70.109986 
L 354.983832 66.221273 
L 355.652554 63.649935 
L 356.321275 69.45259 
L 357.658717 82.373899 
L 358.996159 113.389251 
L 359.66488 120.766895 
L 360.333601 124.311875 
L 361.002322 138.811383 
L 361.671044 147.283301 
L 362.339765 140.798069 
L 363.008486 146.290686 
L 363.677207 153.470499 
L 364.345928 154.803543 
L 365.014649 145.283889 
L 365.68337 141.48804 
L 366.352091 139.573493 
L 367.020812 132.109683 
L 367.689534 130.273007 
L 368.358255 132.766488 
L 369.026976 132.148953 
L 369.695697 122.374686 
L 370.364418 122.749958 
L 371.033139 125.105927 
L 371.70186 117.054826 
L 372.370581 113.656046 
L 373.039302 119.191964 
L 373.708023 133.661805 
L 374.376745 137.427398 
L 375.045466 146.007356 
L 375.714187 145.260047 
L 376.382908 134.224034 
L 377.72035 119.938028 
L 378.389071 114.675549 
L 379.057792 111.801648 
L 379.726513 116.314329 
L 380.395235 128.696028 
L 381.063956 125.782154 
L 381.732677 126.075977 
L 383.070119 136.933489 
L 383.73884 144.35089 
L 384.407561 148.669986 
L 385.076282 155.45806 
L 385.745003 160.573467 
L 386.413725 163.502214 
L 387.082446 167.556599 
L 387.751167 165.916713 
L 388.419888 153.438779 
L 389.088609 150.43078 
L 389.75733 150.017151 
L 390.426051 144.206853 
L 391.094772 128.551666 
L 391.763493 121.700644 
L 392.432215 121.886622 
L 393.100936 131.486999 
L 393.769657 143.859261 
L 394.438378 153.686251 
L 395.107099 136.06159 
L 395.77582 127.040457 
L 396.444541 120.158772 
L 397.113262 118.550106 
L 397.781983 122.074834 
L 398.450705 134.011191 
L 399.119426 143.36113 
L 399.788147 141.262646 
L 400.456868 142.966396 
L 401.125589 145.554679 
L 401.79431 142.570704 
L 402.463031 140.356565 
L 403.131752 148.130015 
L 403.800473 151.442689 
L 404.469195 142.568901 
L 405.137916 142.477002 
L 405.806637 150.805418 
L 406.475358 152.609711 
L 407.144079 146.199981 
L 407.8128 153.068411 
L 408.481521 153.918527 
L 409.150242 146.749285 
L 409.818963 152.742596 
L 410.487685 149.190511 
L 411.156406 142.560672 
L 411.825127 137.780741 
L 412.493848 152.987209 
L 413.162569 187.014653 
L 413.83129 190.193784 
L 414.500011 181.848147 
L 415.168732 170.854491 
L 415.837453 163.612967 
L 416.506174 158.974833 
L 417.174896 164.625772 
L 417.843617 172.280135 
L 418.512338 165.44683 
L 419.84978 156.400579 
L 420.518501 157.728919 
L 421.187222 165.980648 
L 421.855943 177.415417 
L 422.524664 179.032554 
L 423.193386 176.875315 
L 423.862107 165.403899 
L 424.530828 159.523054 
L 425.199549 156.264444 
L 425.86827 158.381915 
L 427.205712 179.084229 
L 427.874433 177.236996 
L 428.543154 180.311024 
L 429.211876 186.599424 
L 429.880597 190.187111 
L 430.549318 190.837825 
L 431.218039 199.217056 
L 431.88676 200.416676 
L 432.555481 194.099782 
L 433.224202 193.2541 
L 434.561644 192.975205 
L 435.230366 193.126987 
L 435.899087 205.096595 
L 436.567808 206.134412 
L 437.236529 199.933962 
L 437.90525 195.979127 
L 438.573971 193.875227 
L 439.911413 193.204639 
L 440.580134 201.181804 
L 441.248856 206.454569 
L 441.917577 199.952818 
L 442.586298 191.728275 
L 443.255019 188.225538 
L 443.92374 185.507661 
L 444.592461 185.316618 
L 445.261182 196.256303 
L 445.929903 203.385537 
L 446.598624 197.381754 
L 447.267346 193.712438 
L 448.604788 180.270337 
L 449.273509 180.703301 
L 449.94223 193.401256 
L 450.610951 200.047953 
L 451.279672 194.400984 
L 451.948393 193.967957 
L 452.617114 191.023771 
L 453.285836 187.463056 
L 453.954557 184.643132 
L 454.623278 195.076831 
L 455.291999 201.082775 
L 455.96072 195.439768 
L 456.629441 192.701056 
L 457.298162 191.732287 
L 457.966883 191.072114 
L 458.635604 191.172444 
L 459.304326 200.894366 
L 459.973047 207.53584 
L 460.641768 198.248613 
L 461.310489 191.604302 
L 461.97921 190.311254 
L 462.647931 190.629693 
L 463.316652 190.636113 
L 463.985373 199.179325 
L 464.654094 204.97766 
L 465.322815 197.823423 
L 465.991537 194.24193 
L 466.660258 193.803169 
L 467.328979 197.388056 
L 467.9977 196.954605 
L 468.666421 207.544393 
L 469.335142 203.899826 
L 470.003863 192.011049 
L 470.672584 184.224519 
L 471.341305 182.04244 
L 472.010027 183.578552 
L 472.678748 187.935592 
L 473.347469 198.567118 
L 474.01619 207.21319 
L 474.684911 197.585047 
L 475.353632 191.278534 
L 476.022353 189.304534 
L 476.691074 187.865774 
L 477.359795 188.784175 
L 478.028517 199.68479 
L 478.697238 205.491763 
L 479.365959 197.428905 
L 480.03468 187.303993 
L 480.703401 184.007201 
L 481.372122 183.884028 
L 482.040843 183.625053 
L 482.709564 194.008867 
L 483.378285 198.157554 
L 484.715728 180.405079 
L 485.384449 178.210121 
L 486.721891 169.895697 
L 487.390612 177.206926 
L 488.059333 182.17375 
L 488.728054 177.11243 
L 490.065497 171.568127 
L 490.734218 170.195578 
L 491.402939 172.120956 
L 492.07166 179.056564 
L 492.740381 184.380502 
L 493.409102 178.524179 
L 494.077823 176.802685 
L 494.746544 178.276201 
L 495.415265 178.831918 
L 496.083987 178.187972 
L 496.752708 185.945712 
L 497.421429 189.703723 
L 498.09015 177.670588 
L 499.427592 174.000665 
L 500.096313 169.101697 
L 500.765034 162.28682 
L 501.433755 168.96921 
L 502.102477 172.134119 
L 502.771198 158.005333 
L 503.439919 151.932636 
L 504.10864 151.141807 
L 504.777361 163.700739 
L 505.446082 166.418014 
L 506.783524 183.732495 
L 507.452245 176.983165 
L 508.120966 163.587613 
L 508.789688 157.115043 
L 509.458409 152.343054 
L 510.12713 155.810642 
L 510.795851 170.859443 
L 511.464572 190.252886 
L 512.133293 168.632143 
L 513.470735 144.193103 
L 514.139456 124.140569 
L 514.808178 126.103094 
L 515.476899 137.011213 
L 516.14562 137.908843 
L 516.814341 131.577476 
L 517.483062 127.034121 
L 518.151783 120.132539 
L 518.820504 124.804175 
L 519.489225 131.88611 
L 520.157946 133.155359 
L 520.826668 136.629949 
L 521.495389 128.973434 
L 522.16411 136.585738 
L 522.832831 157.595191 
L 523.501552 158.176743 
L 524.170273 147.706704 
L 524.838994 139.821691 
L 525.507715 140.475371 
L 526.176436 126.744489 
L 526.845158 127.523772 
L 527.513879 133.780441 
L 528.1826 132.674554 
L 528.851321 135.079793 
L 529.520042 146.641383 
L 530.188763 163.05513 
L 530.857484 152.241077 
L 531.526205 128.660485 
L 532.194926 116.710227 
L 532.863648 113.907544 
L 533.532369 115.112172 
L 534.869811 146.306195 
L 535.538532 128.782645 
L 536.207253 120.041454 
L 536.875974 108.255369 
L 537.544695 101.698154 
L 538.213416 101.964197 
L 538.882138 112.269006 
L 539.550859 120.550324 
L 540.21958 106.780793 
L 540.888301 96.840437 
L 541.557022 100.119779 
L 542.894464 119.470039 
L 543.563185 132.659403 
L 544.231906 128.22257 
L 544.900628 103.647658 
L 545.569349 89.724404 
L 546.23807 81.191729 
L 546.906791 77.842338 
L 547.575512 82.78924 
L 548.244233 89.106256 
L 548.912954 90.163411 
L 549.581675 75.79878 
L 550.250396 90.663757 
L 550.919117 108.695106 
L 551.587839 93.483938 
L 552.25656 88.890066 
L 552.925281 92.776451 
L 553.594002 97.643212 
L 554.262723 77.495264 
L 554.931444 75.481632 
L 555.600165 79.368614 
L 556.268886 68.642454 
L 556.937607 67.126717 
L 557.606329 73.547047 
L 558.27505 88.374588 
L 558.943771 86.919799 
L 559.612492 81.469446 
L 560.281213 81.489301 
L 560.949934 74.196189 
L 561.618655 68.744546 
L 562.287376 81.801828 
L 562.956097 104.079256 
L 564.29354 40.34728 
L 564.962261 24.663263 
L 565.630982 38.168903 
L 566.299703 67.566083 
L 566.968424 72.501605 
L 567.637145 75.631494 
L 568.305866 81.957228 
L 568.974587 96.308949 
L 569.643309 101.008514 
L 570.980751 146.400761 
L 572.318193 154.771033 
L 572.986914 145.908697 
L 573.655635 128.692141 
L 574.324356 115.834581 
L 574.993077 96.262716 
L 575.661799 90.154029 
L 576.33052 95.484651 
L 576.999241 102.27708 
L 577.667962 83.987372 
L 578.336683 71.910062 
L 579.005404 68.371272 
L 579.674125 74.982251 
L 580.342846 79.133831 
L 581.011567 80.858656 
L 581.680289 93.695329 
L 582.34901 97.893059 
L 583.017731 86.186415 
L 583.686452 85.178919 
L 584.355173 88.415906 
L 585.023894 83.800325 
L 585.692615 92.450792 
L 586.361336 96.513903 
L 587.030057 84.280084 
L 587.698779 68.483299 
L 588.3675 67.216842 
L 589.036221 84.279633 
L 589.704942 87.896862 
L 590.373663 111.578769 
L 591.042384 124.696624 
L 591.711105 102.019491 
L 592.379826 98.108685 
L 593.048547 100.628344 
L 593.717268 97.854973 
L 594.38599 105.055731 
L 595.723432 129.713395 
L 596.392153 120.190235 
L 597.060874 115.386287 
L 597.729595 113.510725 
L 598.398316 105.329505 
L 599.067037 95.71144 
L 599.735758 99.07985 
L 600.40448 114.596916 
L 601.073201 120.667928 
L 601.741922 115.348695 
L 602.410643 122.126905 
L 603.079364 131.934237 
L 603.748085 128.366168 
L 604.416806 136.585225 
L 605.085527 141.339786 
L 606.42297 123.650535 
L 607.091691 120.68536 
L 607.760412 120.774087 
L 608.429133 113.854836 
L 609.097854 103.750532 
L 609.766575 102.55561 
L 611.104017 82.024055 
L 611.772738 74.314512 
L 613.110181 54.570792 
L 613.778902 57.873017 
L 614.447623 58.57207 
L 615.116344 44.699197 
L 615.785065 33.891209 
L 616.453786 36.140007 
L 617.122507 59.744141 
L 617.791228 90.834662 
L 618.45995 108.961759 
L 619.128671 121.352139 
L 619.797392 100.619756 
L 620.466113 86.545722 
L 621.134834 88.750032 
L 621.803555 93.150076 
L 622.472276 95.359642 
L 623.140997 113.259905 
L 623.809718 134.986774 
L 624.47844 120.440727 
L 625.147161 111.225992 
L 625.815882 108.522538 
L 626.484603 107.324861 
L 627.153324 106.934915 
L 627.822045 121.292486 
L 628.490766 128.226586 
L 629.159487 122.330689 
L 629.828208 112.407943 
L 630.49693 99.227818 
L 631.165651 96.788169 
L 631.834372 95.323118 
L 632.503093 96.965202 
L 633.171814 99.61053 
L 633.840535 110.96691 
L 634.509256 110.465409 
L 635.177977 125.358103 
L 635.846698 136.979386 
L 636.515419 126.446658 
L 637.184141 132.639392 
L 637.852862 131.741307 
L 638.521583 115.010483 
L 639.859025 130.7515 
L 640.527746 132.087469 
L 641.196467 128.357826 
L 641.865188 132.46487 
L 642.533909 139.908409 
L 643.202631 136.387161 
L 643.871352 125.198688 
L 644.540073 120.008308 
L 645.208794 119.940192 
L 645.877515 126.657559 
L 646.546236 146.88196 
L 647.214957 150.193962 
L 647.883678 130.282072 
L 648.552399 118.611399 
L 649.221121 117.325018 
L 649.889842 117.112718 
L 650.558563 118.742926 
L 651.227284 127.624799 
L 651.896005 133.834004 
L 653.902168 125.425822 
L 654.570889 124.664222 
L 655.239611 127.380703 
L 655.908332 140.608519 
L 656.577053 147.981051 
L 657.245774 144.210401 
L 658.583216 161.928189 
L 659.251937 159.965673 
L 659.920658 155.023107 
L 661.258101 169.712665 
L 661.926822 161.576789 
L 662.595543 156.702598 
L 663.264264 159.600153 
L 663.932985 160.364977 
L 664.601706 161.469845 
L 665.270427 171.651976 
L 665.939148 170.489069 
L 666.607869 166.428599 
L 667.276591 159.993366 
L 667.945312 155.910368 
L 668.614033 169.846744 
L 669.282754 175.13039 
L 669.951475 176.955549 
L 670.620196 160.888813 
L 671.288917 140.303454 
L 671.957638 137.932641 
L 672.626359 138.220652 
L 673.295081 142.915541 
L 673.963802 153.909256 
L 674.632523 170.313555 
L 675.301244 180.471872 
L 675.969965 181.984827 
L 676.638686 168.145394 
L 677.307407 162.140057 
L 677.976128 157.353809 
L 678.644849 159.329549 
L 679.31357 176.380352 
L 679.982292 187.081626 
L 680.651013 173.933815 
L 681.319734 163.016359 
L 681.988455 161.909619 
L 682.657176 162.685141 
L 683.325897 158.031009 
L 684.663339 179.914733 
L 685.33206 159.996422 
L 686.000782 149.106723 
L 686.669503 142.593196 
L 687.338224 143.913716 
L 688.006945 145.814452 
L 689.344387 168.991376 
L 690.013108 153.348047 
L 690.681829 143.31987 
L 691.35055 140.250689 
L 692.019272 137.816735 
L 692.687993 133.40969 
L 693.356714 154.663962 
L 694.025435 167.022361 
L 694.694156 154.648465 
L 695.362877 145.986716 
L 696.031598 141.257896 
L 696.700319 145.920314 
L 697.36904 138.658834 
L 698.037762 165.870167 
L 698.706483 173.966297 
L 699.375204 144.810182 
L 700.043925 134.27371 
L 701.381367 130.696085 
L 702.050088 129.427893 
L 702.718809 157.167931 
L 703.38753 165.636122 
L 704.056252 141.686244 
L 704.724973 131.039947 
L 705.393694 131.496196 
L 706.062415 124.310975 
L 706.731136 122.975952 
L 708.068578 152.532677 
L 708.737299 145.746756 
L 709.40602 141.345875 
L 710.074742 124.504615 
L 710.743463 113.411683 
L 711.412184 111.682231 
L 712.749626 139.557444 
L 713.418347 125.036725 
L 714.087068 123.780664 
L 714.755789 123.028027 
L 715.42451 118.082747 
L 716.093232 119.624784 
L 716.761953 136.749557 
L 717.430674 149.351525 
L 718.099395 138.123125 
L 718.768116 133.065929 
L 720.105558 129.656994 
L 720.774279 120.626308 
L 722.111721 139.941976 
L 722.780443 128.269357 
L 724.117885 96.971453 
L 724.786606 88.658886 
L 725.455327 89.649208 
L 726.792769 120.922596 
L 728.130211 86.191862 
L 728.798933 75.108308 
L 729.467654 73.448245 
L 730.136375 61.412968 
L 730.805096 76.96074 
L 731.473817 107.432634 
L 732.142538 82.73485 
L 732.811259 71.108322 
L 733.47998 65.266422 
L 734.148701 65.29099 
L 734.817423 84.321827 
L 735.486144 115.575564 
L 736.154865 132.940979 
L 737.492307 112.348313 
L 738.829749 97.21822 
L 740.167191 111.340466 
L 740.835913 115.835249 
L 741.504634 105.697032 
L 742.173355 110.094107 
L 742.842076 101.840755 
L 743.510797 105.971475 
L 744.179518 118.149913 
L 744.848239 141.691389 
L 745.51696 148.54919 
L 746.185681 118.519536 
L 746.854403 99.542427 
L 747.523124 88.926 
L 748.191845 81.502687 
L 748.860566 84.057306 
L 749.529287 99.526554 
L 750.198008 111.856347 
L 750.866729 112.482049 
L 751.53545 102.646272 
L 752.204171 84.102322 
L 752.872893 70.917081 
L 753.541614 80.581287 
L 754.210335 123.469881 
L 754.879056 139.230462 
L 755.547777 134.700698 
L 756.216498 120.832563 
L 756.885219 138.664431 
L 757.55394 144.746943 
L 758.222661 137.618902 
L 758.891383 143.428065 
L 759.560104 142.719191 
L 760.228825 135.558022 
L 761.566267 113.387737 
L 762.234988 113.918451 
L 762.903709 118.112457 
L 763.57243 142.962264 
L 764.241151 162.042143 
L 764.909872 156.888625 
L 765.578594 149.485764 
L 766.247315 137.494179 
L 766.916036 134.287238 
L 767.584757 137.538901 
L 768.253478 151.350746 
L 768.922199 161.609581 
L 769.59092 163.00055 
L 770.259641 159.394727 
L 770.928362 154.71261 
L 771.597084 156.073708 
L 772.934526 171.344259 
L 773.603247 172.849582 
L 774.271968 160.809009 
L 774.940689 160.980249 
L 776.278131 145.53657 
L 776.946852 132.129758 
L 777.615574 133.995879 
L 778.284295 143.5552 
L 778.953016 147.454306 
L 779.621737 148.084715 
L 780.290458 146.271923 
L 780.959179 139.909934 
L 781.6279 132.101775 
L 782.296621 126.468112 
L 782.965342 126.97746 
L 783.634064 117.927628 
L 784.302785 120.305222 
L 784.971506 120.805857 
L 785.640227 123.4633 
L 786.308948 109.958891 
L 786.977669 94.130529 
L 787.64639 89.457603 
L 788.315111 80.86866 
L 788.983832 83.689489 
L 789.652554 91.021919 
L 790.321275 89.731561 
L 790.989996 85.077357 
L 791.658717 91.372908 
L 792.327438 99.101384 
L 792.996159 83.312966 
L 792.996159 83.312966 
" clip-path="url(#pd88c054b3c)" style="fill: none; stroke: #dd8452; stroke-width: 1.2; stroke-linecap: round"/>
   </g>
   <g id="patch_4">
    <path d="M 47.30525 248.937 
L 47.30525 27.177 
" style="fill: none; stroke: #cccccc; stroke-linejoin: miter; stroke-linecap: square"/>
   </g>
   <g id="patch_5">
    <path d="M 828.50525 248.937 
L 828.50525 27.177 
" style="fill: none; stroke: #cccccc; stroke-linejoin: miter; stroke-linecap: square"/>
   </g>
   <g id="patch_6">
    <path d="M 47.30525 248.937 
L 828.50525 248.937 
" style="fill: none; stroke: #cccccc; stroke-linejoin: miter; stroke-linecap: square"/>
   </g>
   <g id="patch_7">
    <path d="M 47.30525 27.177 
L 828.50525 27.177 
" style="fill: none; stroke: #cccccc; stroke-linejoin: miter; stroke-linecap: square"/>
   </g>
   <g id="text_17">
    <!-- ARX model of natural gas consumption -->
    <g style="fill: #262626" transform="translate(271.42475 21.177) scale(0.192 -0.192)">
     <defs>
      <path id="ArialMT-41" d="M -9 0 
L 1750 4581 
L 2403 4581 
L 4278 0 
L 3588 0 
L 3053 1388 
L 1138 1388 
L 634 0 
L -9 0 
z
M 1313 1881 
L 2866 1881 
L 2388 3150 
Q 2169 3728 2063 4100 
Q 1975 3659 1816 3225 
L 1313 1881 
z
" transform="scale(0.015625)"/>
      <path id="ArialMT-52" d="M 503 0 
L 503 4581 
L 2534 4581 
Q 3147 4581 3465 4457 
Q 3784 4334 3975 4021 
Q 4166 3709 4166 3331 
Q 4166 2844 3850 2509 
Q 3534 2175 2875 2084 
Q 3116 1969 3241 1856 
Q 3506 1613 3744 1247 
L 4541 0 
L 3778 0 
L 3172 953 
Q 2906 1366 2734 1584 
Q 2563 1803 2427 1890 
Q 2291 1978 2150 2013 
Q 2047 2034 1813 2034 
L 1109 2034 
L 1109 0 
L 503 0 
z
M 1109 2559 
L 2413 2559 
Q 2828 2559 3062 2645 
Q 3297 2731 3419 2920 
Q 3541 3109 3541 3331 
Q 3541 3656 3305 3865 
Q 3069 4075 2559 4075 
L 1109 4075 
L 1109 2559 
z
" transform="scale(0.015625)"/>
      <path id="ArialMT-58" d="M 28 0 
L 1800 2388 
L 238 4581 
L 959 4581 
L 1791 3406 
Q 2050 3041 2159 2844 
Q 2313 3094 2522 3366 
L 3444 4581 
L 4103 4581 
L 2494 2422 
L 4228 0 
L 3478 0 
L 2325 1634 
Q 2228 1775 2125 1941 
Q 1972 1691 1906 1597 
L 756 0 
L 28 0 
z
" transform="scale(0.015625)"/>
      <path id="ArialMT-64" d="M 2575 0 
L 2575 419 
Q 2259 -75 1647 -75 
Q 1250 -75 917 144 
Q 584 363 401 755 
Q 219 1147 219 1656 
Q 219 2153 384 2558 
Q 550 2963 881 3178 
Q 1213 3394 1622 3394 
Q 1922 3394 2156 3267 
Q 2391 3141 2538 2938 
L 2538 4581 
L 3097 4581 
L 3097 0 
L 2575 0 
z
M 797 1656 
Q 797 1019 1065 703 
Q 1334 388 1700 388 
Q 2069 388 2326 689 
Q 2584 991 2584 1609 
Q 2584 2291 2321 2609 
Q 2059 2928 1675 2928 
Q 1300 2928 1048 2622 
Q 797 2316 797 1656 
z
" transform="scale(0.015625)"/>
      <path id="ArialMT-6c" d="M 409 0 
L 409 4581 
L 972 4581 
L 972 0 
L 409 0 
z
" transform="scale(0.015625)"/>
      <path id="ArialMT-66" d="M 556 0 
L 556 2881 
L 59 2881 
L 59 3319 
L 556 3319 
L 556 3672 
Q 556 4006 616 4169 
Q 697 4388 901 4523 
Q 1106 4659 1475 4659 
Q 1713 4659 2000 4603 
L 1916 4113 
Q 1741 4144 1584 4144 
Q 1328 4144 1222 4034 
Q 1116 3925 1116 3625 
L 1116 3319 
L 1763 3319 
L 1763 2881 
L 1116 2881 
L 1116 0 
L 556 0 
z
" transform="scale(0.015625)"/>
      <path id="ArialMT-61" d="M 2588 409 
Q 2275 144 1986 34 
Q 1697 -75 1366 -75 
Q 819 -75 525 192 
Q 231 459 231 875 
Q 231 1119 342 1320 
Q 453 1522 633 1644 
Q 813 1766 1038 1828 
Q 1203 1872 1538 1913 
Q 2219 1994 2541 2106 
Q 2544 2222 2544 2253 
Q 2544 2597 2384 2738 
Q 2169 2928 1744 2928 
Q 1347 2928 1158 2789 
Q 969 2650 878 2297 
L 328 2372 
Q 403 2725 575 2942 
Q 747 3159 1072 3276 
Q 1397 3394 1825 3394 
Q 2250 3394 2515 3294 
Q 2781 3194 2906 3042 
Q 3031 2891 3081 2659 
Q 3109 2516 3109 2141 
L 3109 1391 
Q 3109 606 3145 398 
Q 3181 191 3288 0 
L 2700 0 
Q 2613 175 2588 409 
z
M 2541 1666 
Q 2234 1541 1622 1453 
Q 1275 1403 1131 1340 
Q 988 1278 909 1158 
Q 831 1038 831 891 
Q 831 666 1001 516 
Q 1172 366 1500 366 
Q 1825 366 2078 508 
Q 2331 650 2450 897 
Q 2541 1088 2541 1459 
L 2541 1666 
z
" transform="scale(0.015625)"/>
      <path id="ArialMT-72" d="M 416 0 
L 416 3319 
L 922 3319 
L 922 2816 
Q 1116 3169 1280 3281 
Q 1444 3394 1641 3394 
Q 1925 3394 2219 3213 
L 2025 2691 
Q 1819 2813 1613 2813 
Q 1428 2813 1281 2702 
Q 1134 2591 1072 2394 
Q 978 2094 978 1738 
L 978 0 
L 416 0 
z
" transform="scale(0.015625)"/>
      <path id="ArialMT-67" d="M 319 -275 
L 866 -356 
Q 900 -609 1056 -725 
Q 1266 -881 1628 -881 
Q 2019 -881 2231 -725 
Q 2444 -569 2519 -288 
Q 2563 -116 2559 434 
Q 2191 0 1641 0 
Q 956 0 581 494 
Q 206 988 206 1678 
Q 206 2153 378 2554 
Q 550 2956 876 3175 
Q 1203 3394 1644 3394 
Q 2231 3394 2613 2919 
L 2613 3319 
L 3131 3319 
L 3131 450 
Q 3131 -325 2973 -648 
Q 2816 -972 2473 -1159 
Q 2131 -1347 1631 -1347 
Q 1038 -1347 672 -1080 
Q 306 -813 319 -275 
z
M 784 1719 
Q 784 1066 1043 766 
Q 1303 466 1694 466 
Q 2081 466 2343 764 
Q 2606 1063 2606 1700 
Q 2606 2309 2336 2618 
Q 2066 2928 1684 2928 
Q 1309 2928 1046 2623 
Q 784 2319 784 1719 
z
" transform="scale(0.015625)"/>
      <path id="ArialMT-63" d="M 2588 1216 
L 3141 1144 
Q 3050 572 2676 248 
Q 2303 -75 1759 -75 
Q 1078 -75 664 370 
Q 250 816 250 1647 
Q 250 2184 428 2587 
Q 606 2991 970 3192 
Q 1334 3394 1763 3394 
Q 2303 3394 2647 3120 
Q 2991 2847 3088 2344 
L 2541 2259 
Q 2463 2594 2264 2762 
Q 2066 2931 1784 2931 
Q 1359 2931 1093 2626 
Q 828 2322 828 1663 
Q 828 994 1084 691 
Q 1341 388 1753 388 
Q 2084 388 2306 591 
Q 2528 794 2588 1216 
z
" transform="scale(0.015625)"/>
     </defs>
     <use xlink:href="#ArialMT-41"/>
     <use xlink:href="#ArialMT-52" x="66.699219"/>
     <use xlink:href="#ArialMT-58" x="138.916016"/>
     <use xlink:href="#ArialMT-20" x="205.615234"/>
     <use xlink:href="#ArialMT-6d" x="233.398438"/>
     <use xlink:href="#ArialMT-6f" x="316.699219"/>
     <use xlink:href="#ArialMT-64" x="372.314453"/>
     <use xlink:href="#ArialMT-65" x="427.929688"/>
     <use xlink:href="#ArialMT-6c" x="483.544922"/>
     <use xlink:href="#ArialMT-20" x="505.761719"/>
     <use xlink:href="#ArialMT-6f" x="533.544922"/>
     <use xlink:href="#ArialMT-66" x="589.160156"/>
     <use xlink:href="#ArialMT-20" x="616.943359"/>
     <use xlink:href="#ArialMT-6e" x="644.726562"/>
     <use xlink:href="#ArialMT-61" x="700.341797"/>
     <use xlink:href="#ArialMT-74" x="755.957031"/>
     <use xlink:href="#ArialMT-75" x="783.740234"/>
     <use xlink:href="#ArialMT-72" x="839.355469"/>
     <use xlink:href="#ArialMT-61" x="872.65625"/>
     <use xlink:href="#ArialMT-6c" x="928.271484"/>
     <use xlink:href="#ArialMT-20" x="950.488281"/>
     <use xlink:href="#ArialMT-67" x="978.271484"/>
     <use xlink:href="#ArialMT-61" x="1033.886719"/>
     <use xlink:href="#ArialMT-73" x="1089.501953"/>
     <use xlink:href="#ArialMT-20" x="1139.501953"/>
     <use xlink:href="#ArialMT-63" x="1167.285156"/>
     <use xlink:href="#ArialMT-6f" x="1217.285156"/>
     <use xlink:href="#ArialMT-6e" x="1272.900391"/>
     <use xlink:href="#ArialMT-73" x="1328.515625"/>
     <use xlink:href="#ArialMT-75" x="1378.515625"/>
     <use xlink:href="#ArialMT-6d" x="1434.130859"/>
     <use xlink:href="#ArialMT-70" x="1517.431641"/>
     <use xlink:href="#ArialMT-74" x="1573.046875"/>
     <use xlink:href="#ArialMT-69" x="1600.830078"/>
     <use xlink:href="#ArialMT-6f" x="1623.046875"/>
     <use xlink:href="#ArialMT-6e" x="1678.662109"/>
    </g>
   </g>
   <g id="legend_1">
    <g id="patch_8">
     <path d="M 59.62525 116.365 
L 252.2105 116.365 
Q 255.7305 116.365 255.7305 112.845 
L 255.7305 39.497 
Q 255.7305 35.977 252.2105 35.977 
L 59.62525 35.977 
Q 56.10525 35.977 56.10525 39.497 
L 56.10525 112.845 
Q 56.10525 116.365 59.62525 116.365 
z
" style="fill: #ffffff; opacity: 0.8; stroke: #cccccc; stroke-width: 0.8; stroke-linejoin: miter"/>
    </g>
    <g id="line2d_18">
     <path d="M 63.14525 49.66925 
L 80.74525 49.66925 
L 98.34525 49.66925 
" style="fill: none; stroke: #ff0000; stroke-width: 0.8; stroke-linecap: round"/>
    </g>
    <g id="text_18">
     <!-- Training/Test split -->
     <g style="fill: #262626" transform="translate(112.42525 55.82925) scale(0.176 -0.176)">
      <defs>
       <path id="ArialMT-54" d="M 1659 0 
L 1659 4041 
L 150 4041 
L 150 4581 
L 3781 4581 
L 3781 4041 
L 2266 4041 
L 2266 0 
L 1659 0 
z
" transform="scale(0.015625)"/>
       <path id="ArialMT-2f" d="M 0 -78 
L 1328 4659 
L 1778 4659 
L 453 -78 
L 0 -78 
z
" transform="scale(0.015625)"/>
      </defs>
      <use xlink:href="#ArialMT-54"/>
      <use xlink:href="#ArialMT-72" x="57.333984"/>
      <use xlink:href="#ArialMT-61" x="90.634766"/>
      <use xlink:href="#ArialMT-69" x="146.25"/>
      <use xlink:href="#ArialMT-6e" x="168.466797"/>
      <use xlink:href="#ArialMT-69" x="224.082031"/>
      <use xlink:href="#ArialMT-6e" x="246.298828"/>
      <use xlink:href="#ArialMT-67" x="301.914062"/>
      <use xlink:href="#ArialMT-2f" x="357.529297"/>
      <use xlink:href="#ArialMT-54" x="385.3125"/>
      <use xlink:href="#ArialMT-65" x="435.271484"/>
      <use xlink:href="#ArialMT-73" x="490.886719"/>
      <use xlink:href="#ArialMT-74" x="540.886719"/>
      <use xlink:href="#ArialMT-20" x="568.669922"/>
      <use xlink:href="#ArialMT-73" x="596.453125"/>
      <use xlink:href="#ArialMT-70" x="646.453125"/>
      <use xlink:href="#ArialMT-6c" x="702.068359"/>
      <use xlink:href="#ArialMT-69" x="724.285156"/>
      <use xlink:href="#ArialMT-74" x="746.501953"/>
     </g>
    </g>
    <g id="line2d_19">
     <path d="M 63.14525 74.77125 
L 80.74525 74.77125 
L 98.34525 74.77125 
" style="fill: none; stroke: #4c72b0; stroke-width: 1.2; stroke-linecap: round"/>
    </g>
    <g id="text_19">
     <!-- Actual -->
     <g style="fill: #262626" transform="translate(112.42525 80.93125) scale(0.176 -0.176)">
      <use xlink:href="#ArialMT-41"/>
      <use xlink:href="#ArialMT-63" x="66.699219"/>
      <use xlink:href="#ArialMT-74" x="116.699219"/>
      <use xlink:href="#ArialMT-75" x="144.482422"/>
      <use xlink:href="#ArialMT-61" x="200.097656"/>
      <use xlink:href="#ArialMT-6c" x="255.712891"/>
     </g>
    </g>
    <g id="line2d_20">
     <path d="M 63.14525 99.667 
L 80.74525 99.667 
L 98.34525 99.667 
" style="fill: none; stroke: #dd8452; stroke-width: 1.2; stroke-linecap: round"/>
    </g>
    <g id="text_20">
     <!-- Predicted -->
     <g style="fill: #262626" transform="translate(112.42525 105.827) scale(0.176 -0.176)">
      <defs>
       <path id="ArialMT-50" d="M 494 0 
L 494 4581 
L 2222 4581 
Q 2678 4581 2919 4538 
Q 3256 4481 3484 4323 
Q 3713 4166 3852 3881 
Q 3991 3597 3991 3256 
Q 3991 2672 3619 2267 
Q 3247 1863 2275 1863 
L 1100 1863 
L 1100 0 
L 494 0 
z
M 1100 2403 
L 2284 2403 
Q 2872 2403 3119 2622 
Q 3366 2841 3366 3238 
Q 3366 3525 3220 3729 
Q 3075 3934 2838 4000 
Q 2684 4041 2272 4041 
L 1100 4041 
L 1100 2403 
z
" transform="scale(0.015625)"/>
      </defs>
      <use xlink:href="#ArialMT-50"/>
      <use xlink:href="#ArialMT-72" x="66.699219"/>
      <use xlink:href="#ArialMT-65" x="100"/>
      <use xlink:href="#ArialMT-64" x="155.615234"/>
      <use xlink:href="#ArialMT-69" x="211.230469"/>
      <use xlink:href="#ArialMT-63" x="233.447266"/>
      <use xlink:href="#ArialMT-74" x="283.447266"/>
      <use xlink:href="#ArialMT-65" x="311.230469"/>
      <use xlink:href="#ArialMT-64" x="366.845703"/>
     </g>
    </g>
   </g>
  </g>
 </g>
 <defs>
  <clipPath id="pd88c054b3c">
   <rect x="47.30525" y="27.177" width="781.2" height="221.76"/>
  </clipPath>
 </defs>
</svg>
